<svg xmlns="http://www.w3.org/2000/svg" xmlns:xlink="http://www.w3.org/1999/xlink" width="970.623" height="485.346" viewBox="0 0 970.623 485.346"><defs><style>.a,.c,.k,.s{fill:none;}.b{opacity:0.395;}.c,.k,.s{stroke:#fff;stroke-miterlimit:10;}.c{stroke-width:3.072px;}.d,.v,.x{fill:#fff;}.e{fill:#ffde6e;}.f,.g,.o,.p,.q{opacity:0.5;}.f{fill:url(#a);}.g{fill:url(#b);}.h{fill:#102236;}.i{opacity:0.579;}.j{clip-path:url(#c);}.k{stroke-width:1.327px;}.l{clip-path:url(#d);}.m{fill:#036dc4;}.n{fill:#fdfdfd;}.o{fill:url(#f);}.p{fill:url(#g);}.r{clip-path:url(#h);}.s{stroke-width:1.119px;}.t{clip-path:url(#i);}.u{opacity:0.42;}.v{opacity:0.08;}.w{opacity:0.558;}.x{fill-rule:evenodd;}.y{fill:#ea0c90;}.z{fill:#5ccdff;mix-blend-mode:multiply;isolation:isolate;}.aa,.ab{fill:#00a3e9;}.ab{opacity:0.665;}.ac{opacity:0.413;fill:url(#al);}.ad{opacity:0.651;fill:url(#am);}.ae{opacity:0.52;}.af{filter:url(#bf);}.ag{filter:url(#bd);}.ah{filter:url(#bb);}.ai{filter:url(#az);}.aj{filter:url(#ax);}.ak{filter:url(#av);}.al{filter:url(#at);}.am{filter:url(#ar);}.an{filter:url(#ap);}.ao{filter:url(#an);}.ap{filter:url(#aj);}.aq{filter:url(#ah);}.ar{filter:url(#af);}.as{filter:url(#ad);}.at{filter:url(#ab);}.au{filter:url(#z);}.av{filter:url(#x);}.aw{filter:url(#v);}.ax{filter:url(#t);}.ay{filter:url(#r);}.az{filter:url(#p);}.ba{filter:url(#n);}.bb{filter:url(#l);}.bc{filter:url(#j);}</style><radialGradient id="a" cx="0.5" cy="0.5" r="0.5" gradientTransform="matrix(-1, 0, 0, 1, 1, 0)" gradientUnits="objectBoundingBox"><stop offset="0" stop-color="#ff4c41"/><stop offset="0.841" stop-color="#ffde6e"/></radialGradient><radialGradient id="b" cx="0.5" cy="0.5" gradientTransform="matrix(0.925, -0.379, -0.379, -0.925, 0.227, 1.152)" xlink:href="#a"/><clipPath id="c"><path class="a" d="M913.972,327.972,874.387,373.6l66.867,10.135Z" transform="translate(-874.387 -327.972)"/></clipPath><clipPath id="d"><path class="a" d="M899.325,327.972l-24.938,28.744,42.125,6.385Z" transform="translate(-874.387 -327.972)"/></clipPath><radialGradient id="f" cx="0.5" cy="0.5" gradientTransform="translate(0)" xlink:href="#a"/><radialGradient id="g" cx="0.5" cy="0.5" gradientTransform="matrix(0.925, 0.379, -0.379, 0.925, 0.227, -0.152)" xlink:href="#a"/><clipPath id="h"><circle class="a" cx="20.492" cy="20.492" r="20.492" transform="matrix(0.987, -0.159, 0.159, 0.987, 0, 6.51)"/></clipPath><clipPath id="i"><circle class="a" cx="11.668" cy="11.668" r="11.668" transform="matrix(0.987, -0.159, 0.159, 0.987, 0, 3.707)"/></clipPath><filter id="j" x="60.7" y="86.737" width="80.751" height="154.982" filterUnits="userSpaceOnUse"><feOffset dy="3" input="SourceAlpha"/><feGaussianBlur stdDeviation="3" result="k"/><feFlood flood-color="#00427b" flood-opacity="0.4"/><feComposite operator="in" in2="k"/><feComposite in="SourceGraphic"/></filter><filter id="l" x="127.28" y="88.268" width="92.229" height="151.921" filterUnits="userSpaceOnUse"><feOffset dy="3" input="SourceAlpha"/><feGaussianBlur stdDeviation="3" result="m"/><feFlood flood-color="#00427b" flood-opacity="0.4"/><feComposite operator="in" in2="m"/><feComposite in="SourceGraphic"/></filter><filter id="n" x="209.928" y="88.268" width="83.047" height="151.921" filterUnits="userSpaceOnUse"><feOffset dy="3" input="SourceAlpha"/><feGaussianBlur stdDeviation="3" result="o"/><feFlood flood-color="#00427b" flood-opacity="0.4"/><feComposite operator="in" in2="o"/><feComposite in="SourceGraphic"/></filter><filter id="p" x="287.6" y="88.268" width="75.394" height="151.921" filterUnits="userSpaceOnUse"><feOffset dy="3" input="SourceAlpha"/><feGaussianBlur stdDeviation="3" result="q"/><feFlood flood-color="#00427b" flood-opacity="0.4"/><feComposite operator="in" in2="q"/><feComposite in="SourceGraphic"/></filter><filter id="r" x="358.005" y="88.268" width="83.429" height="151.921" filterUnits="userSpaceOnUse"><feOffset dy="3" input="SourceAlpha"/><feGaussianBlur stdDeviation="3" result="s"/><feFlood flood-color="#00427b" flood-opacity="0.4"/><feComposite operator="in" in2="s"/><feComposite in="SourceGraphic"/></filter><filter id="t" x="131.574" y="252.326" width="132.303" height="59.301" filterUnits="userSpaceOnUse"><feOffset dy="3" input="SourceAlpha"/><feGaussianBlur stdDeviation="3" result="u"/><feFlood flood-color="#00427b" flood-opacity="0.4"/><feComposite operator="in" in2="u"/><feComposite in="SourceGraphic"/></filter><filter id="v" x="275.685" y="260.492" width="46.426" height="51.135" filterUnits="userSpaceOnUse"><feOffset dy="3" input="SourceAlpha"/><feGaussianBlur stdDeviation="3" result="w"/><feFlood flood-color="#00427b" flood-opacity="0.4"/><feComposite operator="in" in2="w"/><feComposite in="SourceGraphic"/></filter><filter id="x" x="373.14" y="260.474" width="33.532" height="50.598" filterUnits="userSpaceOnUse"><feOffset dy="3" input="SourceAlpha"/><feGaussianBlur stdDeviation="3" result="y"/><feFlood flood-color="#00427b" flood-opacity="0.4"/><feComposite operator="in" in2="y"/><feComposite in="SourceGraphic"/></filter><filter id="z" x="249.133" y="260.355" width="40.868" height="51.146" filterUnits="userSpaceOnUse"><feOffset dy="3" input="SourceAlpha"/><feGaussianBlur stdDeviation="3" result="aa"/><feFlood flood-color="#00427b" flood-opacity="0.4"/><feComposite operator="in" in2="aa"/><feComposite in="SourceGraphic"/></filter><filter id="ab" x="307.481" y="260.447" width="45.517" height="60.672" filterUnits="userSpaceOnUse"><feOffset dy="3" input="SourceAlpha"/><feGaussianBlur stdDeviation="3" result="ac"/><feFlood flood-color="#00427b" flood-opacity="0.4"/><feComposite operator="in" in2="ac"/><feComposite in="SourceGraphic"/></filter><filter id="ad" x="390.371" y="260.355" width="47.495" height="51.146" filterUnits="userSpaceOnUse"><feOffset dy="3" input="SourceAlpha"/><feGaussianBlur stdDeviation="3" result="ae"/><feFlood flood-color="#00427b" flood-opacity="0.4"/><feComposite operator="in" in2="ae"/><feComposite in="SourceGraphic"/></filter><filter id="af" x="339.98" y="261.027" width="46.031" height="50.695" filterUnits="userSpaceOnUse"><feOffset dy="3" input="SourceAlpha"/><feGaussianBlur stdDeviation="3" result="ag"/><feFlood flood-color="#00427b" flood-opacity="0.4"/><feComposite operator="in" in2="ag"/><feComposite in="SourceGraphic"/></filter><filter id="ah" x="62.164" y="243.599" width="76.196" height="76.179" filterUnits="userSpaceOnUse"><feOffset dy="3" input="SourceAlpha"/><feGaussianBlur stdDeviation="3" result="ai"/><feFlood flood-color="#00427b" flood-opacity="0.4"/><feComposite operator="in" in2="ai"/><feComposite in="SourceGraphic"/></filter><filter id="aj" x="354.049" y="402.481" width="21.349" height="21.261" filterUnits="userSpaceOnUse"><feOffset dy="3" input="SourceAlpha"/><feGaussianBlur stdDeviation="3" result="ak"/><feFlood flood-color="#00427b" flood-opacity="0.4"/><feComposite operator="in" in2="ak"/><feComposite in="SourceGraphic"/></filter><linearGradient id="al" x1="0.5" x2="0.5" y2="1" gradientUnits="objectBoundingBox"><stop offset="0" stop-color="#00a3e9"/><stop offset="0.419" stop-color="#029ee0"/><stop offset="1" stop-color="#0a7eaf"/></linearGradient><linearGradient id="am" x1="0.164" y1="0.516" x2="1.058" y2="0.281" gradientUnits="objectBoundingBox"><stop offset="0" stop-color="#38b6ff"/><stop offset="1" stop-color="#0077bc"/></linearGradient><filter id="an" x="553.644" y="138.679" width="76.304" height="149.982" filterUnits="userSpaceOnUse"><feOffset dy="3" input="SourceAlpha"/><feGaussianBlur stdDeviation="3" result="ao"/><feFlood flood-color="#00427b" flood-opacity="0.4"/><feComposite operator="in" in2="ao"/><feComposite in="SourceGraphic"/></filter><filter id="ap" x="631.911" y="140.077" width="118.635" height="149.981" filterUnits="userSpaceOnUse"><feOffset dy="3" input="SourceAlpha"/><feGaussianBlur stdDeviation="3" result="aq"/><feFlood flood-color="#00427b" flood-opacity="0.4"/><feComposite operator="in" in2="aq"/><feComposite in="SourceGraphic"/></filter><filter id="ar" x="750.549" y="138.179" width="95.805" height="93.282" filterUnits="userSpaceOnUse"><feOffset dy="3" input="SourceAlpha"/><feGaussianBlur stdDeviation="3" result="as"/><feFlood flood-color="#00427b" flood-opacity="0.4"/><feComposite operator="in" in2="as"/><feComposite in="SourceGraphic"/></filter><filter id="at" x="752.454" y="224.36" width="33.756" height="35.338" filterUnits="userSpaceOnUse"><feOffset dy="3" input="SourceAlpha"/><feGaussianBlur stdDeviation="3" result="au"/><feFlood flood-color="#00427b" flood-opacity="0.4"/><feComposite operator="in" in2="au"/><feComposite in="SourceGraphic"/></filter><filter id="av" x="768.747" y="223.986" width="31.774" height="36.088" filterUnits="userSpaceOnUse"><feOffset dy="3" input="SourceAlpha"/><feGaussianBlur stdDeviation="3" result="aw"/><feFlood flood-color="#00427b" flood-opacity="0.4"/><feComposite operator="in" in2="aw"/><feComposite in="SourceGraphic"/></filter><filter id="ax" x="783.192" y="223.986" width="33.757" height="36.088" filterUnits="userSpaceOnUse"><feOffset dy="3" input="SourceAlpha"/><feGaussianBlur stdDeviation="3" result="ay"/><feFlood flood-color="#00427b" flood-opacity="0.4"/><feComposite operator="in" in2="ay"/><feComposite in="SourceGraphic"/></filter><filter id="az" x="798.895" y="224.36" width="33.355" height="35.445" filterUnits="userSpaceOnUse"><feOffset dy="3" input="SourceAlpha"/><feGaussianBlur stdDeviation="3" result="ba"/><feFlood flood-color="#00427b" flood-opacity="0.4"/><feComposite operator="in" in2="ba"/><feComposite in="SourceGraphic"/></filter><filter id="bb" x="813.688" y="223.986" width="35.846" height="36.088" filterUnits="userSpaceOnUse"><feOffset dy="3" input="SourceAlpha"/><feGaussianBlur stdDeviation="3" result="bc"/><feFlood flood-color="#00427b" flood-opacity="0.4"/><feComposite operator="in" in2="bc"/><feComposite in="SourceGraphic"/></filter><filter id="bd" x="553.644" y="98.145" width="120.146" height="44.701" filterUnits="userSpaceOnUse"><feOffset dy="3" input="SourceAlpha"/><feGaussianBlur stdDeviation="3" result="be"/><feFlood flood-color="#00427b" flood-opacity="0.4"/><feComposite operator="in" in2="be"/><feComposite in="SourceGraphic"/></filter><filter id="bf" x="497.567" y="285.928" width="407.119" height="79.18" filterUnits="userSpaceOnUse"><feOffset dy="3" input="SourceAlpha"/><feGaussianBlur stdDeviation="3" result="bg"/><feFlood flood-opacity="0.302"/><feComposite operator="in" in2="bg"/><feComposite in="SourceGraphic"/></filter></defs><g transform="translate(-842.508 -171.222)"><g class="b" transform="translate(1538.702 172.758)"><g transform="translate(0 0)"><ellipse class="c" cx="5.395" cy="5.395" rx="5.395" ry="5.395"/></g></g><g transform="translate(1697.419 201.566)"><g transform="translate(0 0)"><ellipse class="d" cx="3.717" cy="3.717" rx="3.717" ry="3.717"/></g></g><g transform="translate(854.369 486.627)"><ellipse class="e" cx="15.347" cy="15.347" rx="15.347" ry="15.347" transform="translate(0 0.001)"/><ellipse class="f" cx="5.728" cy="5.728" rx="5.728" ry="5.728" transform="translate(2.206 5.27)"/><ellipse class="g" cx="5.728" cy="5.728" rx="5.728" ry="5.728" transform="translate(27.695 22.733) rotate(-157.706)"/><path class="h" d="M96.954,513.382a.735.735,0,0,0,.706-.531,3.938,3.938,0,1,0-7.566-2.187.735.735,0,1,0,1.412.408,2.468,2.468,0,0,1,4.742,1.371.735.735,0,0,0,.5.91A.751.751,0,0,0,96.954,513.382Z" transform="translate(-82.019 -504.217)"/><path class="h" d="M80.508,517.871a.736.736,0,0,0,.706-.531,3.938,3.938,0,0,0-7.567-2.187.735.735,0,1,0,1.413.408,2.468,2.468,0,0,1,4.741,1.37.736.736,0,0,0,.5.91A.722.722,0,0,0,80.508,517.871Z" transform="translate(-54.237 -505.611)"/><path class="h" d="M87.78,526.23a7.776,7.776,0,0,0,4.972-1.782.735.735,0,1,0-.941-1.13,6.3,6.3,0,0,1-4.031,1.442,6.094,6.094,0,0,1-5.949-4.41.735.735,0,0,0-1.421.381A7.566,7.566,0,0,0,87.78,526.23Z" transform="translate(-70.549 -507.942)"/></g><g class="i" transform="translate(1725.381 348.309)"><g class="j" transform="translate(20.883 -2.094)"><g transform="translate(-54.948 -29.79)"><line class="k" y1="40.975" x2="156.992"/><line class="k" y1="40.975" x2="156.992" transform="translate(0.848 3.25)"/><line class="k" y1="40.975" x2="156.992" transform="translate(1.696 6.499)"/><line class="k" y1="40.975" x2="156.992" transform="translate(2.545 9.749)"/><line class="k" y1="40.975" x2="156.992" transform="translate(3.393 12.999)"/><line class="k" y1="40.975" x2="156.992" transform="translate(4.241 16.248)"/><line class="k" y1="40.975" x2="156.992" transform="translate(5.089 19.498)"/><line class="k" y1="40.975" x2="156.992" transform="translate(5.937 22.748)"/><line class="k" y1="40.975" x2="156.992" transform="translate(6.785 25.998)"/><line class="k" y1="40.975" x2="156.992" transform="translate(7.634 29.247)"/><line class="k" y1="40.975" x2="156.992" transform="translate(8.482 32.497)"/><line class="k" y1="40.975" x2="156.992" transform="translate(9.33 35.747)"/><line class="k" y1="40.975" x2="156.992" transform="translate(10.178 38.996)"/><line class="k" y1="40.975" x2="156.992" transform="translate(11.026 42.246)"/><line class="k" y1="40.975" x2="156.992" transform="translate(11.874 45.496)"/><line class="k" y1="40.975" x2="156.992" transform="translate(12.723 48.745)"/><line class="k" y1="40.975" x2="156.992" transform="translate(13.571 51.995)"/><line class="k" y1="40.975" x2="156.992" transform="translate(14.419 55.245)"/><line class="k" y1="40.975" x2="156.992" transform="translate(15.267 58.494)"/><line class="k" y1="40.975" x2="156.992" transform="translate(16.115 61.744)"/><line class="k" y1="40.975" x2="156.992" transform="translate(16.963 64.994)"/><line class="k" y1="40.975" x2="156.992" transform="translate(17.812 68.243)"/><line class="k" y1="40.975" x2="156.992" transform="translate(18.66 71.493)"/><line class="k" y1="40.975" x2="156.992" transform="translate(19.508 74.743)"/></g></g></g><g class="i" transform="translate(1334.75 486.864) rotate(140)"><g class="l" transform="translate(20.883 -2.094)"><g transform="translate(-34.617 -18.767)"><line class="k" y1="25.814" x2="98.903"/><line class="k" y1="25.814" x2="98.903" transform="translate(0.534 2.047)"/><line class="k" y1="25.814" x2="98.903" transform="translate(1.069 4.095)"/><line class="k" y1="25.814" x2="98.903" transform="translate(1.603 6.142)"/><line class="k" y1="25.814" x2="98.903" transform="translate(2.137 8.189)"/><line class="k" y1="25.814" x2="98.903" transform="translate(2.672 10.236)"/><line class="k" y1="25.814" x2="98.903" transform="translate(3.206 12.284)"/><line class="k" y1="25.814" x2="98.903" transform="translate(3.74 14.331)"/><line class="k" y1="25.814" x2="98.903" transform="translate(4.275 16.378)"/><line class="k" y1="25.814" x2="98.903" transform="translate(4.809 18.425)"/><line class="k" y1="25.814" x2="98.903" transform="translate(5.343 20.473)"/><line class="k" y1="25.814" x2="98.903" transform="translate(5.878 22.52)"/><line class="k" y1="25.814" x2="98.903" transform="translate(6.412 24.567)"/><line class="k" y1="25.814" x2="98.903" transform="translate(6.946 26.614)"/><line class="k" y1="25.814" x2="98.903" transform="translate(7.481 28.662)"/><line class="k" y1="25.814" x2="98.903" transform="translate(8.015 30.709)"/><line class="k" y1="25.814" x2="98.903" transform="translate(8.549 32.756)"/><line class="k" y1="25.814" x2="98.903" transform="translate(9.084 34.803)"/><line class="k" y1="25.814" x2="98.903" transform="translate(9.618 36.851)"/><line class="k" y1="25.814" x2="98.903" transform="translate(10.152 38.898)"/><line class="k" y1="25.814" x2="98.903" transform="translate(10.687 40.945)"/><line class="k" y1="25.814" x2="98.903" transform="translate(11.221 42.992)"/><line class="k" y1="25.814" x2="98.903" transform="translate(11.755 45.04)"/><line class="k" y1="25.814" x2="98.903" transform="translate(12.29 47.087)"/></g></g></g><g class="i" transform="translate(1046.849 184.438) rotate(140)"><g class="l" transform="translate(20.883 -2.094)"><g transform="translate(-34.617 -18.767)"><line class="k" y1="25.814" x2="98.903"/><line class="k" y1="25.814" x2="98.903" transform="translate(0.534 2.047)"/><line class="k" y1="25.814" x2="98.903" transform="translate(1.069 4.095)"/><line class="k" y1="25.814" x2="98.903" transform="translate(1.603 6.142)"/><line class="k" y1="25.814" x2="98.903" transform="translate(2.137 8.189)"/><line class="k" y1="25.814" x2="98.903" transform="translate(2.672 10.236)"/><line class="k" y1="25.814" x2="98.903" transform="translate(3.206 12.284)"/><line class="k" y1="25.814" x2="98.903" transform="translate(3.74 14.331)"/><line class="k" y1="25.814" x2="98.903" transform="translate(4.275 16.378)"/><line class="k" y1="25.814" x2="98.903" transform="translate(4.809 18.425)"/><line class="k" y1="25.814" x2="98.903" transform="translate(5.343 20.473)"/><line class="k" y1="25.814" x2="98.903" transform="translate(5.878 22.52)"/><line class="k" y1="25.814" x2="98.903" transform="translate(6.412 24.567)"/><line class="k" y1="25.814" x2="98.903" transform="translate(6.946 26.614)"/><line class="k" y1="25.814" x2="98.903" transform="translate(7.481 28.662)"/><line class="k" y1="25.814" x2="98.903" transform="translate(8.015 30.709)"/><line class="k" y1="25.814" x2="98.903" transform="translate(8.549 32.756)"/><line class="k" y1="25.814" x2="98.903" transform="translate(9.084 34.803)"/><line class="k" y1="25.814" x2="98.903" transform="translate(9.618 36.851)"/><line class="k" y1="25.814" x2="98.903" transform="translate(10.152 38.898)"/><line class="k" y1="25.814" x2="98.903" transform="translate(10.687 40.945)"/><line class="k" y1="25.814" x2="98.903" transform="translate(11.221 42.992)"/><line class="k" y1="25.814" x2="98.903" transform="translate(11.755 45.04)"/><line class="k" y1="25.814" x2="98.903" transform="translate(12.29 47.087)"/></g></g></g><g class="b" transform="translate(1726.741 285)"><g transform="translate(0)"><ellipse class="c" cx="5.395" cy="5.395" rx="5.395" ry="5.395"/></g></g><g transform="translate(1261.633 546.243)"><ellipse class="m" cx="19.637" cy="19.637" rx="19.637" ry="19.637" transform="matrix(0.15, -0.989, 0.989, 0.15, 0, 38.83)"/><g transform="translate(18.827 9.56)"><path class="n" d="M229.916,326.643h-.2a1.8,1.8,0,1,0,0-3.6h-5.769a9.427,9.427,0,0,0,1.677-4.367c0-2.312-1.266-3.6-2.092-3.743a1.417,1.417,0,0,0-1.67.99c-.239.7.183,2.019.02,2.491-.252.727-1.525,1.7-3.25,3.913a6.654,6.654,0,0,0-1.321,4.312v7.872a1.122,1.122,0,0,0,1.119,1.119h10.717a1.3,1.3,0,1,0,0-2.606h.184a1.6,1.6,0,0,0,0-3.193h.587a1.6,1.6,0,1,0,0-3.193Z" transform="translate(-217.298 -314.908)"/></g></g><g transform="matrix(0.891, -0.454, 0.454, 0.891, 1704.854, 256.384)"><ellipse class="m" cx="19.637" cy="19.637" rx="19.637" ry="19.637" transform="matrix(0.15, -0.989, 0.989, 0.15, 0, 38.83)"/><g transform="translate(18.827 9.56)"><path class="n" d="M229.916,326.643h-.2a1.8,1.8,0,1,0,0-3.6h-5.769a9.427,9.427,0,0,0,1.677-4.367c0-2.312-1.266-3.6-2.092-3.743a1.417,1.417,0,0,0-1.67.99c-.239.7.183,2.019.02,2.491-.252.727-1.525,1.7-3.25,3.913a6.654,6.654,0,0,0-1.321,4.312v7.872a1.122,1.122,0,0,0,1.119,1.119h10.717a1.3,1.3,0,1,0,0-2.606h.184a1.6,1.6,0,0,0,0-3.193h.587a1.6,1.6,0,1,0,0-3.193Z" transform="translate(-217.298 -314.908)"/></g></g><g transform="translate(1326.6 326.637)"><ellipse class="e" cx="15.347" cy="15.347" rx="15.347" ry="15.347" transform="translate(1.347 0)"/><ellipse class="o" cx="5.728" cy="5.728" rx="5.728" ry="5.728" transform="translate(18.378 5.269)"/><ellipse class="p" cx="5.728" cy="5.728" rx="5.728" ry="5.728" transform="translate(0 12.132) rotate(-22.294)"/><path class="h" d="M90.926,513.382a.735.735,0,0,1-.706-.531,3.938,3.938,0,1,1,7.566-2.187.735.735,0,1,1-1.412.408,2.468,2.468,0,0,0-4.742,1.371.735.735,0,0,1-.5.91A.751.751,0,0,1,90.926,513.382Z" transform="translate(-73.82 -504.218)"/><path class="h" d="M74.48,517.871a.736.736,0,0,1-.706-.531,3.938,3.938,0,0,1,7.567-2.187.735.735,0,1,1-1.413.408,2.468,2.468,0,0,0-4.741,1.37.736.736,0,0,1-.5.91A.722.722,0,0,1,74.48,517.871Z" transform="translate(-68.709 -505.612)"/><path class="h" d="M85.622,526.23a7.776,7.776,0,0,1-4.972-1.782.735.735,0,1,1,.941-1.13,6.3,6.3,0,0,0,4.031,1.442,6.094,6.094,0,0,0,5.949-4.41.735.735,0,0,1,1.421.381A7.566,7.566,0,0,1,85.622,526.23Z" transform="translate(-70.812 -507.942)"/></g><g class="q" transform="translate(-470.944 171.701) rotate(-13)"><g transform="translate(1260.665 378.299)"><g transform="translate(0 0)"><ellipse class="d" cx="3.717" cy="3.717" rx="3.717" ry="3.717"/></g></g><g transform="translate(1281.518 373.326)"><g transform="translate(0 0)"><ellipse class="d" cx="3.717" cy="3.717" rx="3.717" ry="3.717"/></g></g><g transform="translate(1303.199 368.217)"><g transform="translate(0 0)"><ellipse class="d" cx="3.717" cy="3.717" rx="3.717" ry="3.717"/></g></g></g><g class="i" transform="translate(786.383 -204.504)"><g class="r" transform="translate(143.99 753.396)"><g transform="translate(-30.848 -36.083)"><line class="s" x2="58.931" y2="84.893" transform="translate(40.417)"/><line class="s" x2="58.931" y2="84.893" transform="translate(38.66 1.22)"/><line class="s" x2="58.931" y2="84.893" transform="translate(36.902 2.44)"/><line class="s" x2="58.931" y2="84.893" transform="translate(35.145 3.66)"/><line class="s" x2="58.931" y2="84.893" transform="translate(33.388 4.879)"/><line class="s" x2="58.931" y2="84.893" transform="translate(31.631 6.099)"/><line class="s" x2="58.931" y2="84.893" transform="translate(29.873 7.319)"/><line class="s" x2="58.931" y2="84.893" transform="translate(28.116 8.539)"/><line class="s" x2="58.931" y2="84.893" transform="translate(26.359 9.759)"/><line class="s" x2="58.931" y2="84.893" transform="translate(24.602 10.979)"/><line class="s" x2="58.931" y2="84.893" transform="translate(22.844 12.199)"/><line class="s" x2="58.931" y2="84.893" transform="translate(21.087 13.418)"/><line class="s" x2="58.931" y2="84.893" transform="translate(19.33 14.638)"/><line class="s" x2="58.931" y2="84.893" transform="translate(17.573 15.858)"/><line class="s" x2="58.931" y2="84.893" transform="translate(15.815 17.078)"/><line class="s" x2="58.931" y2="84.893" transform="translate(14.058 18.298)"/><line class="s" x2="58.931" y2="84.893" transform="translate(12.301 19.518)"/><line class="s" x2="58.931" y2="84.893" transform="translate(10.544 20.738)"/><line class="s" x2="58.931" y2="84.893" transform="translate(8.786 21.957)"/><line class="s" x2="58.931" y2="84.893" transform="translate(7.029 23.177)"/><line class="s" x2="58.931" y2="84.893" transform="translate(5.272 24.397)"/><line class="s" x2="58.931" y2="84.893" transform="translate(3.515 25.617)"/><line class="s" x2="58.931" y2="84.893" transform="translate(1.757 26.837)"/><line class="s" x2="58.931" y2="84.893" transform="translate(0 28.057)"/></g></g></g><g class="i" transform="translate(1547.234 -204.503)"><g class="t" transform="translate(143.99 753.396)"><g transform="translate(-17.565 -20.545)"><line class="s" x2="33.555" y2="48.337" transform="translate(23.013)"/><line class="s" x2="33.555" y2="48.337" transform="translate(22.012 0.695)"/><line class="s" x2="33.555" y2="48.337" transform="translate(21.012 1.389)"/><line class="s" x2="33.555" y2="48.337" transform="translate(20.011 2.084)"/><line class="s" x2="33.555" y2="48.337" transform="translate(19.011 2.778)"/><line class="s" x2="33.555" y2="48.337" transform="translate(18.01 3.473)"/><line class="s" x2="33.555" y2="48.337" transform="translate(17.01 4.167)"/><line class="s" x2="33.555" y2="48.337" transform="translate(16.009 4.862)"/><line class="s" x2="33.555" y2="48.337" transform="translate(15.008 5.557)"/><line class="s" x2="33.555" y2="48.337" transform="translate(14.008 6.251)"/><line class="s" x2="33.555" y2="48.337" transform="translate(13.007 6.946)"/><line class="s" x2="33.555" y2="48.337" transform="translate(12.007 7.64)"/><line class="s" x2="33.555" y2="48.337" transform="translate(11.006 8.335)"/><line class="s" x2="33.555" y2="48.337" transform="translate(10.006 9.03)"/><line class="s" x2="33.555" y2="48.337" transform="translate(9.005 9.724)"/><line class="s" x2="33.555" y2="48.337" transform="translate(8.005 10.419)"/><line class="s" x2="33.555" y2="48.337" transform="translate(7.004 11.113)"/><line class="s" x2="33.555" y2="48.337" transform="translate(6.003 11.808)"/><line class="s" x2="33.555" y2="48.337" transform="translate(5.003 12.502)"/><line class="s" x2="33.555" y2="48.337" transform="translate(4.002 13.197)"/><line class="s" x2="33.555" y2="48.337" transform="translate(3.002 13.892)"/><line class="s" x2="33.555" y2="48.337" transform="translate(2.001 14.586)"/><line class="s" x2="33.555" y2="48.337" transform="translate(1.001 15.281)"/><line class="s" x2="33.555" y2="48.337" transform="translate(0 15.975)"/></g></g></g><g transform="translate(942.367 577.826) rotate(-19)"><g class="u" transform="translate(142.518 119.486)"><path class="d" d="M155.384,128.7a6.433,6.433,0,1,1-6.434-6.434A6.433,6.433,0,0,1,155.384,128.7Z" transform="translate(-142.518 -122.269)"/></g><g transform="translate(264.62 103.004)"><g transform="translate(0)"><circle class="c" cx="6.697" cy="6.697" r="6.697"/></g></g></g><g class="b" transform="matrix(0.891, -0.454, 0.454, 0.891, 1468.255, 592.375)"><circle class="c" cx="7.828" cy="7.828" r="7.828" transform="translate(285.24 103.004)"/></g><g class="u" transform="matrix(0.891, -0.454, 0.454, 0.891, 1117.377, 548.34)"><path class="d" d="M157.557,129.789a7.52,7.52,0,1,1-7.52-7.52A7.519,7.519,0,0,1,157.557,129.789Z"/></g><g class="u" transform="matrix(0.891, -0.454, 0.454, 0.891, 1058.912, 279.109)"><path class="d" d="M157.557,129.789a7.52,7.52,0,1,1-7.52-7.52A7.519,7.519,0,0,1,157.557,129.789Z"/></g><g transform="translate(468.984 -468.609)"><g transform="translate(785.768 666.007)"><circle class="c" cx="7.127" cy="7.127" r="7.127"/></g><g transform="translate(717.424 656.37)"><circle class="d" cx="2.616" cy="2.616" r="2.616"/></g><path class="v" d="M949.16,726.987H893.218a4.038,4.038,0,0,1-4.027-4.027h0a4.038,4.038,0,0,1,4.027-4.026H949.16a4.038,4.038,0,0,1,4.026,4.026h0A4.038,4.038,0,0,1,949.16,726.987Z" transform="translate(-9.869 -31.834)"/></g><g class="w" transform="translate(2380.56 1251.946) rotate(180)"><g transform="translate(785.768 666.007)"><circle class="c" cx="7.127" cy="7.127" r="7.127"/></g><g transform="translate(717.424 656.37)"><circle class="d" cx="2.616" cy="2.616" r="2.616"/></g><path class="v" d="M949.16,726.987H893.218a4.038,4.038,0,0,1-4.027-4.027h0a4.038,4.038,0,0,1,4.027-4.026H949.16a4.038,4.038,0,0,1,4.026,4.026h0A4.038,4.038,0,0,1,949.16,726.987Z" transform="translate(-9.869 -31.834)"/></g><g transform="translate(35.655 -9.172)"><g transform="translate(876.554 273.131)"><g transform="translate(0)"><g class="bc" transform="matrix(1, 0, 0, 1, -69.7, -92.74)"><path class="d" d="M1363.527,408.9v17.792c0,21.428-10.713,33.672-31.375,33.672s-31.376-12.244-31.376-33.672V357.049c0-21.427,10.714-33.672,31.376-33.672s31.375,12.245,31.375,33.672v13.009h-19.9V355.71c0-9.566-4.208-13.2-10.906-13.2s-10.9,3.635-10.9,13.2v72.317c0,9.566,4.21,13.009,10.9,13.009s10.906-3.443,10.906-13.009V408.9Z" transform="translate(-1231.08 -230.64)"/></g><g class="bb" transform="matrix(1, 0, 0, 1, -69.7, -92.74)"><path class="d" d="M1390.537,414.365l-26.592-89.535h22l16.071,61.029,16.07-61.029h20.088l-26.593,89.535v44.386h-21.045Z" transform="translate(-1227.67 -230.56)"/></g><g class="ba" transform="matrix(1, 0, 0, 1, -69.7, -92.74)"><path class="d" d="M1505.3,355.631v4.783c0,13.775-4.208,22.575-13.583,26.975,11.287,4.4,15.688,14.539,15.688,28.7v10.9c0,20.663-10.9,31.759-31.95,31.759h-33.1V324.83h31.758C1495.93,324.83,1505.3,334.969,1505.3,355.631Zm-41.9-11.671v35.393h8.227c7.845,0,12.628-3.443,12.628-14.157v-7.461c0-9.566-3.253-13.775-10.714-13.775Zm0,54.525v41.133h12.053c7.079,0,10.905-3.253,10.905-13.2V414.747c0-12.435-4.018-16.262-13.583-16.262Z" transform="translate(-1223.43 -230.56)"/></g><g class="az" transform="matrix(1, 0, 0, 1, -69.7, -92.74)"><path class="d" d="M1537.1,381.267h28.888V400.4H1537.1v39.22h36.349v19.132h-57.394V324.83h57.394v19.131H1537.1Z" transform="translate(-1219.46 -230.56)"/></g><g class="ay" transform="matrix(1, 0, 0, 1, -69.7, -92.74)"><path class="d" d="M1626.859,458.751c-1.148-3.444-1.913-5.549-1.913-16.453V421.252c0-12.436-4.21-17.027-13.776-17.027H1603.9v54.525h-21.044V324.83h31.758c21.81,0,31.185,10.139,31.185,30.8v10.523c0,13.774-4.4,22.766-13.776,27.166,10.523,4.4,13.966,14.541,13.966,28.506v20.662c0,6.505.192,11.288,2.3,16.263ZM1603.9,343.961v41.133h8.226c7.845,0,12.628-3.443,12.628-14.157v-13.2c0-9.566-3.253-13.775-10.714-13.775Z" transform="translate(-1215.85 -230.56)"/></g><g transform="translate(1.464 156.862)"><g transform="translate(69.41 8.727)"><g class="ax" transform="matrix(1, 0, 0, 1, -140.57, -258.33)"><path class="d" d="M1450.1,488.653c-9.157.011-15.645,6.608-15.675,17.317a15.6,15.6,0,0,0,15.736,15.818c4.732,0,7.671-.738,9.381-2.137v-5.417a18.15,18.15,0,0,1-7.868,1.58c-4.9.015-8.843-2.666-9.484-6.966l-.056-.383h5.722c5.384,0,9.174-.485,11.566-1.668,2.38-1.2,3.42-2.987,3.432-5.891,0-7.565-6.116-12.242-12.755-12.252m3.728,14.033c-1.483.518-3.864.719-7.728.719h-3.992l.022-.345.06-1.09a7.294,7.294,0,0,1,7.186-7.234,7.784,7.784,0,0,1,4.7,1.288,4.686,4.686,0,0,1,1.813,3.913,2.668,2.668,0,0,1-2.064,2.749m12.97-1.679,0,20.227h7.508V502.459c0-2.516.5-4.331,1.528-5.529a5.535,5.535,0,0,1,4.442-1.731,12.258,12.258,0,0,1,2.043.164v-5.948a8.338,8.338,0,0,0-3.8-.781c-8.413.012-11.7,5.973-11.725,12.371m-98.777,20.227h7.5V480.487h-7.5Zm27.718-32.58c-10.007.011-14.371,6.853-14.4,13.578v19h7.457V502.778a8.54,8.54,0,0,1,1.729-5.6,5.755,5.755,0,0,1,4.546-2.021,6.486,6.486,0,0,1,5.122,2c1.2,1.38,1.821,3.439,1.821,6.219l0,17.859h7.444V502.66c-.016-9.047-6.178-13.988-13.726-14.007m26.9-8.166h-7.42l.025,29.4c.041,7.461,3.8,11.859,11.911,11.9,3.444-.008,5.514-1.127,6.367-2.918v-4.631a13.69,13.69,0,0,1-5.4.856,5.33,5.33,0,0,1-4.053-1.449,6.691,6.691,0,0,1-1.435-4.727v-13.76h6.5c3.177,0,4.5-2.026,4.519-3.527v-2.979h-11.019Z" transform="translate(-1227.45 -222.16)"/></g><g class="aw" transform="matrix(1, 0, 0, 1, -140.57, -258.33)"><path class="d" d="M1529.743,506.378c2.382-1.2,3.422-2.987,3.435-5.891,0-7.565-6.117-12.242-12.752-12.252-9.158.011-15.652,6.608-15.674,17.317a15.6,15.6,0,0,0,15.727,15.818c4.733,0,7.679-.738,9.389-2.137v-5.417a18.178,18.178,0,0,1-7.87,1.58c-4.9.015-8.844-2.666-9.486-6.966l-.053-.383h5.722c5.376,0,9.179-.485,11.561-1.668m-17.31-3.392.027-.345.053-1.09a7.294,7.294,0,0,1,7.178-7.234,7.766,7.766,0,0,1,4.709,1.288,4.655,4.655,0,0,1,1.815,3.913,2.669,2.669,0,0,1-2.064,2.749c-1.484.517-3.86.719-7.729.719Z" transform="translate(-1220.07 -221.74)"/></g><g class="av" transform="matrix(1, 0, 0, 1, -140.57, -258.33)"><path class="d" d="M1597.217,500.589v20.227h7.516V502.042c0-2.516.5-4.331,1.531-5.529a5.546,5.546,0,0,1,4.441-1.731,12.214,12.214,0,0,1,2.044.164V489a8.346,8.346,0,0,0-3.8-.781c-8.408.012-11.693,5.973-11.727,12.372" transform="translate(-1215.08 -221.74)"/></g><g class="au" transform="matrix(1, 0, 0, 1, -140.57, -258.33)"><path class="d" d="M1490.007,521.251c-5.48,0-9.567-2.994-9.567-6.226v-3.589h.275c1.611,1.587,5.419,3,8.949,3,3.65,0,5.415-1.117,5.415-3.473,0-1.821-1.05-2.7-6.194-3.465-6.292-.939-9.326-3.585-9.326-8.4,0-5.94,5.019-10.992,12.645-10.992,6.754,0,9.508,3.7,9.508,6.757v3h-.275c-1.552-1.642-4.969-2.931-8.507-2.931-4.536,0-5.97,1.462-5.97,3.522,0,1.589.886,2.237,5.97,3.114,6.176,1.06,9.5,3.938,9.5,8.995,0,6.7-4.421,10.694-12.421,10.694" transform="translate(-1221.43 -221.75)"/></g><g class="at" transform="matrix(1, 0, 0, 1, -140.57, -258.33)"><path class="d" d="M1562.318,511.765c.054,1.291.119,3,.119,4.053,0,7.933-4.974,15.046-14.589,15.046-6.137,0-10.334-3.169-10.334-6.933v-3.587h.329c1.776,2,5.192,3.407,9.457,3.407,5.35,0,7.78-2.7,7.78-7.288,0-.464,0-1.114-.052-1.648,0-.464-.052-1.29-.052-1.58v-.761c-.612,2.288-3.429,4.7-7.676,4.7-7.246,0-12.38-5.348-12.38-12.817,0-8.932,5.517-16.162,15.132-16.162,7.411,0,12.156,5.762,12.156,13.877v5.4c0,1.059.054,2.878.111,4.292m-19.836-8.4c0,4.156,2.392,7.243,5.971,7.243,3.736,0,6.417-2.968,6.417-8.073,0-4.986-2.351-7.423-5.631-7.423-3.848,0-6.756,3.446-6.756,8.254" transform="translate(-1218.44 -221.74)"/></g><g class="as" transform="matrix(1, 0, 0, 1, -140.57, -258.33)"><path class="d" d="M1628.652,488.1c9.146,0,14.409,7.637,14.409,16.048,0,9.518-5.262,17.1-15.089,17.1-9.149,0-14.407-7.58-14.407-15.985,0-9.525,5.258-17.162,15.087-17.162m-.684,6.651c-4.53,0-6.834,3.92-6.834,9.373,0,6.548,2.3,10.474,7.529,10.474,4.592,0,6.832-3.926,6.832-9.315,0-6.613-2.358-10.532-7.526-10.532" transform="translate(-1214.19 -221.75)"/></g><g class="ar" transform="matrix(1, 0, 0, 1, -140.57, -258.33)"><path class="d" d="M1579.439,521.437c9.973-.015,14.327-6.877,14.347-13.627V488.744h-7.424v18.524a8.6,8.6,0,0,1-1.729,5.611,5.719,5.719,0,0,1-4.528,2.032A6.451,6.451,0,0,1,1575,512.9c-1.2-1.38-1.812-3.448-1.812-6.243l-.007-17.919h-7.422v18.641c.017,9.082,6.15,14.034,13.685,14.055" transform="translate(-1216.77 -221.72)"/></g></g><g class="aq" transform="matrix(1, 0, 0, 1, -71.16, -249.6)"><path class="x" d="M1309.935,472.207a7.771,7.771,0,0,0-7.77,7.77v50.409h50.415a7.775,7.775,0,0,0,7.775-7.774l.006-50.405Zm36.828,41.991-31.008,5.6V488.5l31.008-5.6Z" transform="translate(-1231 -222.61)"/></g></g></g></g><g transform="translate(939.723 520.718)"><g transform="translate(0 0)"><g transform="translate(0 0)"><path class="y" d="M1545.025,602.763H1359.218c-11.932,0-21.6-10.549-21.6-23.562h0c0-13.014,9.672-23.563,21.6-23.563h185.808c11.932,0,21.6,10.549,21.6,23.563h0C1566.63,592.214,1556.957,602.763,1545.025,602.763Z" transform="translate(-1337.614 -555.638)"/></g></g><g transform="translate(16.781 11.778)"><g transform="translate(41.353 1.557)"><path class="d" d="M1405.5,588.2V572.583a2.025,2.025,0,0,1,2.218-2.248h1.246a2.1,2.1,0,0,1,2.339,1.58l3.98,9.327,4.01-9.327c.547-1.215,1.033-1.58,2.279-1.58h1.185a2.043,2.043,0,0,1,2.279,2.248V588.2c0,1.337-.487,2.036-1.763,2.036h-.7c-1.216,0-1.763-.7-1.763-2.036V576.5l-3.281,7.959c-.334.759-.517,1.4-2.278,1.4-1.793,0-1.914-.607-2.248-1.4l-3.281-7.807V588.2c0,1.337-.456,2.036-1.762,2.036h-.7C1406.016,590.233,1405.5,589.534,1405.5,588.2Z" transform="translate(-1405.499 -570.335)"/><path class="d" d="M1431.431,583.617a7.566,7.566,0,0,1,7.746-7.868,7.072,7.072,0,0,1,7.382,7.412v.3c-.03.76-.243,1.186-1.033,1.186h-10.237a4.024,4.024,0,0,0,4.314,3.524,4.484,4.484,0,0,0,4.192-2.188c.031-.061,2.066.213,2.066,1.914,0,1.61-2.279,3.4-6.41,3.4C1434.62,591.3,1431.431,588.295,1431.431,583.617Zm3.857-1.459h7.292a3.309,3.309,0,0,0-3.463-3.432A3.846,3.846,0,0,0,1435.288,582.158Z" transform="translate(-1409.311 -571.131)"/><path class="d" d="M1457.077,583.617a7.566,7.566,0,0,1,7.747-7.868,7.073,7.073,0,0,1,7.381,7.412v.3c-.03.76-.243,1.186-1.033,1.186h-10.238a4.023,4.023,0,0,0,4.314,3.524,4.486,4.486,0,0,0,4.192-2.188c.031-.061,2.066.213,2.066,1.914,0,1.61-2.278,3.4-6.41,3.4C1460.267,591.3,1457.077,588.295,1457.077,583.617Zm3.858-1.459h7.291a3.31,3.31,0,0,0-3.464-3.432A3.845,3.845,0,0,0,1460.935,582.158Z" transform="translate(-1413.082 -571.131)"/><path class="d" d="M1481.786,578.362a5.629,5.629,0,0,1,4.891-2.613c3.858,0,5.5,2.734,5.5,6.136v7.108c0,1.55-.79,2.036-1.884,2.036h-.456c-1.155,0-1.945-.456-1.945-2.036v-6.471c0-1.975-1-3.189-2.734-3.189a3.594,3.594,0,0,0-3.281,1.944v7.716c0,1.55-.79,2.036-1.883,2.036h-.457c-1.154,0-1.944-.456-1.944-2.036V576.417a2.379,2.379,0,0,1,1.61-.486A2.492,2.492,0,0,1,1481.786,578.362Z" transform="translate(-1416.098 -571.131)"/><path class="d" d="M1497.363,583.5a7.491,7.491,0,0,1,7.807-7.716c4.526,0,6.319,2.583,6.319,4.01,0,1.732-2.279,2.036-2.369,1.883a3.694,3.694,0,0,0-3.767-2.46,4.026,4.026,0,0,0-4.04,4.283,4.069,4.069,0,0,0,4.04,4.374,3.746,3.746,0,0,0,3.767-2.46c.061-.183,2.369.091,2.369,1.913,0,1.4-1.883,3.98-6.319,3.98A7.48,7.48,0,0,1,1497.363,583.5Z" transform="translate(-1419.004 -571.136)"/><path class="d" d="M1515.706,586.958c0-3.4,3.038-4.952,9.539-5.043h.486c0-1.914-1.064-2.946-3.037-2.946a3.794,3.794,0,0,0-3.677,2.278c0,.061-2.764.152-2.764-1.823,0-1.854,2.186-3.676,6.713-3.676,4.678,0,6.988,2.126,6.988,6.106v8.78c0,.212-.79.486-1.611.486a2.387,2.387,0,0,1-2.521-2.34,6.08,6.08,0,0,1-5.134,2.461C1517.589,591.242,1515.706,589.479,1515.706,586.958Zm10.025-1.853v-.85l-.789.03c-3.373.091-5.135.759-5.135,2.37,0,1.094.881,1.792,2.309,1.792A3.349,3.349,0,0,0,1525.731,585.105Z" transform="translate(-1421.701 -571.131)"/><path class="d" d="M1540.237,578.362a5.629,5.629,0,0,1,4.891-2.613c3.858,0,5.5,2.734,5.5,6.136v7.108c0,1.55-.79,2.036-1.883,2.036h-.456c-1.155,0-1.944-.456-1.944-2.036v-6.471c0-1.975-1-3.189-2.735-3.189a3.6,3.6,0,0,0-3.281,1.944v7.716c0,1.55-.79,2.036-1.883,2.036h-.456c-1.155,0-1.945-.456-1.945-2.036V576.417a2.379,2.379,0,0,1,1.61-.486A2.492,2.492,0,0,1,1540.237,578.362Z" transform="translate(-1424.691 -571.131)"/><path class="d" d="M1554.995,577.313v-.274c0-1.033.577-1.579,1.792-1.579h.73v-1.884a1.8,1.8,0,0,1,1.944-2.065h.365c1.154,0,1.914.486,1.914,2.065v1.884h2.581c1.216,0,1.732.516,1.732,1.518v.243c0,1.033-.546,1.58-1.761,1.58h-2.644v6.319c0,1.458.487,2.187,1.641,2.187a2.325,2.325,0,0,0,1.913-1,1.675,1.675,0,0,1,1.033,1.671c0,1.489-1.488,2.7-3.919,2.7-3.28,0-4.8-1.732-4.8-5.073V578.8h-.73C1555.572,578.8,1554.995,578.285,1554.995,577.313Z" transform="translate(-1427.477 -570.508)"/><path class="d" d="M1569.456,586.958c0-3.4,3.038-4.952,9.539-5.043h.487c0-1.914-1.064-2.946-3.038-2.946a3.794,3.794,0,0,0-3.677,2.278c0,.061-2.763.152-2.763-1.823,0-1.854,2.186-3.676,6.713-3.676,4.678,0,6.988,2.126,6.988,6.106v8.78c0,.212-.79.486-1.61.486a2.387,2.387,0,0,1-2.521-2.34,6.081,6.081,0,0,1-5.134,2.461C1571.34,591.242,1569.456,589.479,1569.456,586.958Zm10.025-1.853v-.85l-.789.03c-3.373.091-5.135.759-5.135,2.37,0,1.094.881,1.792,2.309,1.792A3.349,3.349,0,0,0,1579.481,585.105Z" transform="translate(-1429.603 -571.131)"/></g><path class="n" d="M1387.923,577.393c0-5.18-4-8.883-8.07-8.883a7.689,7.689,0,0,0-7.382,5.443,7.69,7.69,0,0,0-7.382-5.443c-4.075,0-8.071,3.7-8.071,8.883,0,7.849,12.042,16.835,15.013,17.776a1.413,1.413,0,0,0,.174.05,1.168,1.168,0,0,0,.245.035l.021,0,.021,0a1.165,1.165,0,0,0,.245-.035,1.461,1.461,0,0,0,.174-.05C1375.883,594.228,1387.923,585.242,1387.923,577.393Z" transform="translate(-1357.019 -568.51)"/></g></g></g><g class="ap" transform="matrix(1, 0, 0, 1, 842.51, 171.22)"><path class="d" d="M2220.993,576.087a1.308,1.308,0,0,1,1.476-1.476h.375a1.314,1.314,0,0,1,1.5,1.476v.309a1.323,1.323,0,0,1-1.5,1.477h-.375a1.317,1.317,0,0,1-1.476-1.477Z" transform="translate(-1857.94 -166.13)"/></g><g transform="translate(-32.591 -23.208)"><g transform="matrix(0.035, 0.999, -0.999, 0.035, 1738.828, 231.675)"><circle class="z" cx="158.434" cy="158.434" r="158.434" transform="translate(9.675 9.676)"/><circle class="aa" cx="158.434" cy="158.434" r="158.434" transform="translate(19.351 19.35)"/><circle class="ab" cx="168.109" cy="168.109" r="168.109" transform="translate(0 0)"/><circle class="ac" cx="158.434" cy="158.434" r="158.434" transform="translate(19.351 19.35)"/><circle class="ad" cx="158.434" cy="158.434" r="158.434" transform="translate(9.844 4.839)"/></g><g transform="translate(1437.743 338.609)"><g class="ao" transform="matrix(1, 0, 0, 1, -562.64, -144.18)"><path class="d" d="M1932.362,555.863V474.4a17.874,17.874,0,0,1-11.581,4.193A19.556,19.556,0,0,1,1908,474a16.1,16.1,0,0,1-4.991-11.98c0-9.784,6.988-14.377,7.786-13.977a18.584,18.584,0,0,0,12.18,4.393c8.586,0,15.375-6.19,16.973-14.975h8.585c8.386,0,12.779,4.593,12.779,13.577V555.863c0,8.785-4.393,13.578-12.779,13.578h-3.794C1936.555,569.441,1932.362,564.648,1932.362,555.863Z" transform="translate(-1340.37 -292.78)"/></g><g class="an" transform="matrix(1, 0, 0, 1, -562.64, -144.18)"><path class="d" d="M1999.5,562.549c-8.186-4.991-12.778-11.181-12.778-17.172,0-8.586,11.182-14.776,12.18-13.777,8.186,10.982,20.566,17.372,35.542,17.372,16.572,0,26.756-8.186,26.756-21.165s-9.185-20.567-25.758-20.567c-12.779,0-20.767,3.594-26.557,7.988-11.581-.4-17.371-5.391-17.371-17.173V455.326c0-10.382,4.393-16.372,14.177-16.372h62.5c9.185,0,13.778,3.793,13.778,11.58v1c0,7.787-4.393,11.381-13.778,11.381h-52.114v28.953a62.684,62.684,0,0,1,23.561-4.793c28.753,0,47.721,15.575,47.721,40.933,0,26.156-20.166,42.929-52.513,42.929C2019.862,570.935,2007.882,567.541,1999.5,562.549Z" transform="translate(-1345.81 -292.88)"/></g><g class="am" transform="matrix(1, 0, 0, 1, -562.64, -144.18)"><path class="d" d="M2111.768,456.073v-.895c0-10.188,7.613-17.352,18.136-17.352,10.41,0,17.911,7.053,17.911,17.24v.9c0,10.188-7.613,17.353-18.024,17.353S2111.768,466.261,2111.768,456.073Zm5.709,51.385c0-1.9.783-3.358,3.022-5.709l56.31-64.147c.56-.671,6.716,1.008,6.716,5.038,0,1.568-.895,3.471-3.022,5.934l-56.31,64.034C2123.634,513.279,2117.477,511.377,2117.477,507.458Zm19.815-50.936v-1.791c0-5.374-3.247-8.509-7.5-8.509-4.365,0-7.5,3.023-7.5,8.509v1.791c0,5.15,3.247,8.284,7.613,8.284C2134.158,464.806,2137.292,461.783,2137.292,456.522Zm16.233,38.622v-.9c0-10.186,7.723-17.351,18.135-17.351s17.912,6.94,17.912,17.24v.9c0,10.187-7.613,17.351-17.912,17.351C2161.137,512.383,2153.525,505.331,2153.525,495.143Zm25.635.336v-1.791c0-5.262-3.247-8.508-7.5-8.508-4.479,0-7.5,3.134-7.5,8.508v1.791c0,5.262,3.135,8.4,7.5,8.4C2175.913,503.876,2179.16,500.741,2179.16,495.479Z" transform="translate(-1352.22 -293.28)"/></g><g class="al" transform="matrix(1, 0, 0, 1, -562.64, -144.18)"><path class="d" d="M2114.305,558.712a2.006,2.006,0,0,1,2.062-2.2h4.4c5.788,0,9.3,3.243,9.3,8.6,0,5.387-3.59,8.736-9.432,8.736H2116.5a2.184,2.184,0,0,1-2.2-2.171Zm11.817,6.431c0-3.349-2.063-5.252-5.467-5.252h-2.439v10.585h2.386C2124.032,570.476,2126.122,568.547,2126.122,565.144Z" transform="translate(-1352.85 -326.15)"/></g><g class="ak" transform="matrix(1, 0, 0, 1, -562.64, -144.18)"><path class="d" d="M2136.006,570.594c0-1.1,1.366-2.09,1.5-1.957a7.064,7.064,0,0,0,5.145,2.332c2.062,0,3.162-.751,3.162-2.091,0-1.554-1.743-1.875-3.779-2.331-2.76-.616-5.6-1.635-5.6-5.2,0-3.216,2.572-5.332,6.753-5.332a8.517,8.517,0,0,1,4.985,1.285,2.383,2.383,0,0,1,1.206,1.9,2.575,2.575,0,0,1-1.554,2.063,6.209,6.209,0,0,0-4.609-2.117c-1.876,0-3,.777-3,2.037,0,1.5,1.554,1.715,3.7,2.2,3.136.7,5.87,1.983,5.87,5.252,0,3.458-2.546,5.467-7.1,5.467a8.716,8.716,0,0,1-5.6-1.581A2.486,2.486,0,0,1,2136.006,570.594Z" transform="translate(-1358.26 -326.03)"/></g><g class="aj" transform="matrix(1, 0, 0, 1, -562.64, -144.18)"><path class="d" d="M2164.168,556.016a8.445,8.445,0,0,1,5.066,1.447,3.449,3.449,0,0,1,1.58,2.492c0,1.742-2.225,2.144-2.278,2.01a4.736,4.736,0,0,0-4.234-2.358c-2.894,0-4.985,2.171-4.985,5.439,0,3.244,2.144,5.468,5.039,5.468a4.431,4.431,0,0,0,4.287-2.6c.053-.161,2.359.241,2.359,1.983a3.714,3.714,0,0,1-1.662,2.653,8.464,8.464,0,0,1-5.225,1.555c-5.253,0-8.87-3.725-8.87-9.032C2155.245,559.794,2158.888,556.016,2164.168,556.016Z" transform="translate(-1363.05 -326.03)"/></g><g class="ai" transform="matrix(1, 0, 0, 1, -562.64, -144.18)"><path class="d" d="M2181.895,559.972h-3.913c-1.179,0-1.822-.589-1.822-1.688v-.134c0-1.071.644-1.634,1.822-1.634h11.711c1.207,0,1.822.563,1.822,1.634v.134c0,1.1-.616,1.688-1.822,1.688h-3.831v12.193a1.605,1.605,0,0,1-1.77,1.8h-.562c-1.072,0-1.634-.616-1.634-1.8Z" transform="translate(-1368.27 -326.15)"/></g><g class="ah" transform="matrix(1, 0, 0, 1, -562.64, -144.18)"><path class="d" d="M2195.864,565.073a8.684,8.684,0,0,1,8.949-9.057c5.227,0,8.9,3.725,8.9,9.03a8.634,8.634,0,0,1-8.924,9.058C2199.534,574.1,2195.864,570.379,2195.864,565.073Zm13.935,0c0-3.269-2.064-5.547-5.012-5.547-2.974,0-4.984,2.2-4.984,5.52,0,3.3,2.037,5.548,5.011,5.548C2207.761,570.594,2209.8,568.369,2209.8,565.073Z" transform="translate(-1373.18 -326.03)"/></g></g><g class="ag" transform="matrix(1, 0, 0, 1, 875.1, 194.43)"><path class="d" d="M4.461,4.165H5.3a2.359,2.359,0,0,0,2.61-2.69v-7.99h11.2v7.99c0,1.767.843,2.69,2.449,2.69h.883c1.686,0,2.57-.923,2.57-2.69V-19.444c0-1.807-.883-2.69-2.57-2.69h-.883c-1.606,0-2.449.883-2.449,2.69v7.91H7.914v-7.91c0-1.807-.883-2.69-2.61-2.69H4.461c-1.606,0-2.489.883-2.489,2.69V1.475C1.972,3.242,2.855,4.165,4.461,4.165Zm24.011-5.34c0,3.373,2.489,5.621,6.585,5.621a7.829,7.829,0,0,0,6.786-3.373A8.024,8.024,0,0,0,42.164,2.4a2.924,2.924,0,0,0,2.971,1.887c1.084,0,2.128-.361,2.128-.642V-7.92c0-5.26-3.011-8.111-9.235-8.111-3.774,0-6.3.923-7.629,2.289a3.584,3.584,0,0,0-1.2,2.57c0,2.61,3.614,2.329,3.654,2.248a4.909,4.909,0,0,1,4.818-2.851c2.489,0,3.895,1.245,3.975,3.533a2.469,2.469,0,0,1,.04.562H41.04C32.728-7.559,28.472-5.551,28.472-1.175Zm13.21-2.248C41.642-.934,39.634.793,36.824.793c-1.887,0-3.052-.923-3.052-2.409,0-2.208,2.369-3.052,6.826-3.212h1.084ZM51.76,2.961a12.9,12.9,0,0,0,6.745,1.486c5.5,0,8.633-2.369,8.633-6.3,0-4.417-4.417-5.3-7.187-5.9-2.65-.6-4.176-.883-4.176-2.289,0-1.245,1.164-2.048,3.333-2.048a7.781,7.781,0,0,1,5.742,2.65,2.811,2.811,0,0,0,1.807-2.369,2.9,2.9,0,0,0-.482-1.606c-1-1.526-3.453-2.61-7.428-2.61-5.059,0-8.151,2.53-8.151,6.344,0,4.417,4.176,5.3,6.866,5.862,2.61.562,4.176.843,4.176,2.369,0,1.245-1.2,2.008-3.413,2.008A8.566,8.566,0,0,1,51.76-2.1,2.491,2.491,0,0,0,50.034.15,3.417,3.417,0,0,0,51.76,2.961Zm26.58,1.606a5.854,5.854,0,0,0,4.216-1.445A2.868,2.868,0,0,0,83.52.953a2.224,2.224,0,0,0-1.405-2.208A2.874,2.874,0,0,1,79.666.07C78.1.07,77.5-.894,77.5-2.821v-8.352H80.95c1.606,0,2.329-.723,2.329-2.088v-.361c0-1.285-.683-1.967-2.289-1.967H77.578v-2.489c0-2.088-1-2.73-2.489-2.73h-.522c-1.606,0-2.53.883-2.53,2.73v2.489H70.993c-1.566,0-2.289.763-2.289,2.088v.321c0,1.285.723,2.008,2.329,2.008h1v8.994C72.037,2.278,74.044,4.567,78.341,4.567Zm6.986-5.742c0,3.373,2.489,5.621,6.585,5.621A7.829,7.829,0,0,0,98.7,1.074,8.024,8.024,0,0,0,99.019,2.4a2.924,2.924,0,0,0,2.971,1.887c1.084,0,2.128-.361,2.128-.642V-7.92c0-5.26-3.011-8.111-9.235-8.111-3.774,0-6.3.923-7.629,2.289a3.584,3.584,0,0,0-1.2,2.57c0,2.61,3.614,2.329,3.654,2.248a4.909,4.909,0,0,1,4.818-2.851c2.489,0,3.895,1.245,3.975,3.533a2.469,2.469,0,0,1,.04.562h-.642C89.583-7.559,85.327-5.551,85.327-1.175Zm13.21-2.248C98.5-.934,96.489.793,93.679.793c-1.887,0-3.052-.923-3.052-2.409,0-2.208,2.369-3.052,6.826-3.212h1.084Z" transform="translate(560.67 126.28)"/></g><g class="af" transform="matrix(1, 0, 0, 1, 875.1, 194.43)"><path class="d" d="M-178.725-15.24h.54a1.75,1.75,0,0,0,1.98-1.98v-.45a1.775,1.775,0,0,0-1.98-1.98h-.54a1.771,1.771,0,0,0-2.01,1.98v.45A1.748,1.748,0,0,0-178.725-15.24Zm-.09,15.48h.75a1.966,1.966,0,0,0,2.07-2.64l-1.2-9.66c-.21-.87-.45-1.35-1.05-1.35h-.42c-.63,0-.9.48-1.11,1.35l-1.2,9.66A2,2,0,0,0-178.815.24ZM-170.6,0h10.95c1.38,0,2.01-.6,2.01-1.83v-.15c0-1.14-.63-1.65-2.01-1.65h-8.85V-8.16h6.36c1.41,0,2.04-.54,2.04-1.71v-.09c0-1.11-.6-1.65-2.04-1.65h-6.36v-4.11h8.7c1.38,0,2.04-.57,2.04-1.77v-.15c0-1.17-.66-1.77-2.04-1.77h-10.8a2.188,2.188,0,0,0-2.31,2.46V-2.43A2.165,2.165,0,0,0-170.6,0Zm24.06-14.97a5.551,5.551,0,0,0-4.83,2.64,2.428,2.428,0,0,0-2.52-2.46c-.84,0-1.59.33-1.59.48V-1.89c0,1.56.78,2.01,1.92,2.01h.45c1.08,0,1.86-.48,1.86-2.01V-9.51a3.537,3.537,0,0,1,3.21-1.92c1.71,0,2.7,1.2,2.7,3.15v6.39c0,1.56.78,2.01,1.89,2.01h.45c1.08,0,1.89-.48,1.89-2.01V-8.94C-141.1-12.27-142.725-14.97-146.535-14.97ZM-128.145.42A4.374,4.374,0,0,0-125-.66a2.143,2.143,0,0,0,.72-1.62,1.662,1.662,0,0,0-1.05-1.65,2.147,2.147,0,0,1-1.83.99c-1.17,0-1.62-.72-1.62-2.16v-6.24h2.58c1.2,0,1.74-.54,1.74-1.56v-.27c0-.96-.51-1.47-1.71-1.47h-2.55V-16.5c0-1.56-.75-2.04-1.86-2.04h-.39c-1.2,0-1.89.66-1.89,2.04v1.86h-.78c-1.17,0-1.71.57-1.71,1.56v.24c0,.96.54,1.5,1.74,1.5h.75v6.72C-132.855-1.29-131.355.42-128.145.42Zm4.74-7.74a7.346,7.346,0,0,0,7.77,7.74c4.65,0,7.83-3.12,7.83-7.68a7.37,7.37,0,0,0-7.77-7.71C-120.225-14.97-123.4-11.82-123.4-7.32Zm11.85.06a4.091,4.091,0,0,1-4.05,4.35,4.114,4.114,0,0,1-4.08-4.41,4.08,4.08,0,0,1,4.08-4.35C-113.235-11.67-111.555-9.84-111.555-7.26ZM-99.735.42a5.311,5.311,0,0,0,4.77-2.79c0,.36.03.69.06,1.02.15,1.14.87,1.47,1.83,1.47h.42c1.11,0,1.86-.48,1.86-2.01V-17.46c0-2.73-1.38-3.39-2.64-3.39a2.345,2.345,0,0,0-1.59.48v7.62a5.489,5.489,0,0,0-4.62-2.22c-4.05,0-6.81,3.03-6.81,7.68C-106.455-2.7-103.695.42-99.735.42Zm4.74-6.9a3.519,3.519,0,0,1-3.69,3.51c-2.19,0-3.75-1.77-3.75-4.32,0-2.64,1.53-4.29,3.81-4.29a3.714,3.714,0,0,1,3.63,2.34Zm6.36-.84A7.346,7.346,0,0,0-80.865.42c4.65,0,7.83-3.12,7.83-7.68a7.37,7.37,0,0,0-7.77-7.71C-85.455-14.97-88.635-11.82-88.635-7.32Zm11.85.06a4.091,4.091,0,0,1-4.05,4.35,4.114,4.114,0,0,1-4.08-4.41,4.08,4.08,0,0,1,4.08-4.35C-78.465-11.67-76.785-9.84-76.785-7.26Zm6.18,6.48A9.634,9.634,0,0,0-65.565.33c4.11,0,6.45-1.77,6.45-4.71,0-3.3-3.3-3.96-5.37-4.41-1.98-.45-3.12-.66-3.12-1.71,0-.93.87-1.53,2.49-1.53a5.813,5.813,0,0,1,4.29,1.98,2.1,2.1,0,0,0,1.35-1.77,2.163,2.163,0,0,0-.36-1.2c-.75-1.14-2.58-1.95-5.55-1.95-3.78,0-6.09,1.89-6.09,4.74,0,3.3,3.12,3.96,5.13,4.38,1.95.42,3.12.63,3.12,1.77,0,.93-.9,1.5-2.55,1.5a6.4,6.4,0,0,1-4.83-1.98A1.861,1.861,0,0,0-71.9-2.88,2.553,2.553,0,0,0-70.605-.78Zm27.39-14.19a5.551,5.551,0,0,0-4.83,2.64,2.428,2.428,0,0,0-2.52-2.46c-.84,0-1.59.33-1.59.48V-1.89c0,1.56.78,2.01,1.92,2.01h.45c1.08,0,1.86-.48,1.86-2.01V-9.51a3.537,3.537,0,0,1,3.21-1.92c1.71,0,2.7,1.2,2.7,3.15v6.39c0,1.56.78,2.01,1.89,2.01h.45c1.08,0,1.89-.48,1.89-2.01V-8.94C-37.785-12.27-39.4-14.97-43.215-14.97Zm20.46.18h-.45c-1.08,0-1.83.51-1.83,2.04v7.68a3.558,3.558,0,0,1-3.18,1.92c-1.74,0-2.76-1.17-2.76-3.15v-6.45c0-1.56-.78-2.04-1.89-2.04h-.48c-1.05,0-1.83.51-1.83,2.04v7.08c0,3.39,1.59,6.06,5.4,6.06a5.527,5.527,0,0,0,4.83-2.67,4.91,4.91,0,0,0,.15.81A2.346,2.346,0,0,0-22.425.12c.84,0,1.59-.33,1.59-.48V-12.75C-20.835-14.31-21.615-14.79-22.755-14.79Zm3.75,7.59c0,4.65,3.12,7.62,7.89,7.62A8.962,8.962,0,0,0-6.435-.69a2.859,2.859,0,0,0,1.62-2.28c0-1.68-2.04-1.86-2.07-1.8A4.364,4.364,0,0,1-11-2.64a4.064,4.064,0,0,1-4.2-3.15l-.09-.48h10.14c.78,0,.99-.39,1.02-1.11v-.27a6.969,6.969,0,0,0-7.29-7.32A7.441,7.441,0,0,0-19.005-7.2Zm10.98-1.38h-7.2a3.786,3.786,0,0,1,3.78-3.48A3.324,3.324,0,0,1-8.025-8.58Zm6.3,7.8A9.634,9.634,0,0,0,3.315.33c4.11,0,6.45-1.77,6.45-4.71,0-3.3-3.3-3.96-5.37-4.41-1.98-.45-3.12-.66-3.12-1.71,0-.93.87-1.53,2.49-1.53a5.813,5.813,0,0,1,4.29,1.98A2.1,2.1,0,0,0,9.4-11.82a2.163,2.163,0,0,0-.36-1.2c-.75-1.14-2.58-1.95-5.55-1.95-3.78,0-6.09,1.89-6.09,4.74,0,3.3,3.12,3.96,5.13,4.38,1.95.42,3.12.63,3.12,1.77,0,.93-.9,1.5-2.55,1.5a6.4,6.4,0,0,1-4.83-1.98,1.861,1.861,0,0,0-1.29,1.68A2.553,2.553,0,0,0-1.725-.78ZM17.835.42a4.374,4.374,0,0,0,3.15-1.08,2.143,2.143,0,0,0,.72-1.62,1.662,1.662,0,0,0-1.05-1.65,2.147,2.147,0,0,1-1.83.99c-1.17,0-1.62-.72-1.62-2.16v-6.24h2.58c1.2,0,1.74-.54,1.74-1.56v-.27c0-.96-.51-1.47-1.71-1.47h-2.55V-16.5c0-1.56-.75-2.04-1.86-2.04h-.39c-1.2,0-1.89.66-1.89,2.04v1.86h-.78c-1.17,0-1.71.57-1.71,1.56v.24c0,.96.54,1.5,1.74,1.5h.75v6.72C13.125-1.29,14.625.42,17.835.42Zm13.41-15.39a3.656,3.656,0,0,0-3.63,2.79,6.713,6.713,0,0,0-.21-1.02,2.338,2.338,0,0,0-2.31-1.59c-.87,0-1.59.33-1.59.48V-1.89c0,1.56.78,2.01,1.92,2.01h.45c1.08,0,1.86-.48,1.86-2.01V-6.27c0-2.94.9-4.74,2.94-4.74a2.929,2.929,0,0,1,1.92.72,2.188,2.188,0,0,0,1.35-2.22A2.4,2.4,0,0,0,31.245-14.97Zm2.7,7.65A7.346,7.346,0,0,0,41.715.42c4.65,0,7.83-3.12,7.83-7.68a7.37,7.37,0,0,0-7.77-7.71C37.125-14.97,33.945-11.82,33.945-7.32Zm11.85.06a4.091,4.091,0,0,1-4.05,4.35,4.114,4.114,0,0,1-4.08-4.41,4.08,4.08,0,0,1,4.08-4.35C44.115-11.67,45.795-9.84,45.795-7.26Zm6.18,6.48A9.634,9.634,0,0,0,57.015.33c4.11,0,6.45-1.77,6.45-4.71,0-3.3-3.3-3.96-5.37-4.41-1.98-.45-3.12-.66-3.12-1.71,0-.93.87-1.53,2.49-1.53a5.813,5.813,0,0,1,4.29,1.98,2.1,2.1,0,0,0,1.35-1.77,2.163,2.163,0,0,0-.36-1.2c-.75-1.14-2.58-1.95-5.55-1.95-3.78,0-6.09,1.89-6.09,4.74,0,3.3,3.12,3.96,5.13,4.38,1.95.42,3.12.63,3.12,1.77,0,.93-.9,1.5-2.55,1.5a6.4,6.4,0,0,1-4.83-1.98,1.861,1.861,0,0,0-1.29,1.68A2.553,2.553,0,0,0,51.975-.78Zm27.39-14.19a5.132,5.132,0,0,0-4.8,2.88c-.03-.24-.06-.54-.09-.66a2.366,2.366,0,0,0-2.43-2.04c-.87,0-1.62.33-1.62.48V3.81c0,1.56.78,2.04,1.92,2.04h.45c1.08,0,1.86-.51,1.86-2.04V-2.25A5.178,5.178,0,0,0,79.335.42c4.02,0,6.78-3.18,6.78-7.74C86.115-12,83.325-14.97,79.365-14.97Zm-1.08,12a3.474,3.474,0,0,1-3.63-3.45V-9.18a3.8,3.8,0,0,1,3.69-2.4c2.19,0,3.72,1.71,3.72,4.29S80.565-2.97,78.285-2.97ZM90.255.12h.45c1.08,0,1.86-.48,1.86-2.01V-17.46c0-2.73-1.38-3.39-2.64-3.39a2.345,2.345,0,0,0-1.59.48V-1.89C88.335-.33,89.145.12,90.255.12Zm4.56-3.99c0,2.52,1.86,4.2,4.92,4.2a5.85,5.85,0,0,0,5.07-2.52,5.994,5.994,0,0,0,.24.99,2.185,2.185,0,0,0,2.22,1.41c.81,0,1.59-.27,1.59-.48V-8.91c0-3.93-2.25-6.06-6.9-6.06-2.82,0-4.71.69-5.7,1.71a2.678,2.678,0,0,0-.9,1.92c0,1.95,2.7,1.74,2.73,1.68a3.668,3.668,0,0,1,3.6-2.13c1.86,0,2.91.93,2.97,2.64a1.845,1.845,0,0,1,.03.42h-.48C98-8.64,94.815-7.14,94.815-3.87Zm9.87-1.68c-.03,1.86-1.53,3.15-3.63,3.15-1.41,0-2.28-.69-2.28-1.8,0-1.65,1.77-2.28,5.1-2.4h.81Zm15.84-9.42a5.551,5.551,0,0,0-4.83,2.64,2.428,2.428,0,0,0-2.52-2.46c-.84,0-1.59.33-1.59.48V-1.89c0,1.56.78,2.01,1.92,2.01h.45c1.08,0,1.86-.48,1.86-2.01V-9.51a3.537,3.537,0,0,1,3.21-1.92c1.71,0,2.7,1.2,2.7,3.15v6.39c0,1.56.78,2.01,1.89,2.01h.45c1.08,0,1.89-.48,1.89-2.01V-8.94C125.955-12.27,124.335-14.97,120.525-14.97Zm7.41,7.77c0,4.65,3.12,7.62,7.89,7.62a8.962,8.962,0,0,0,4.68-1.11,2.859,2.859,0,0,0,1.62-2.28c0-1.68-2.04-1.86-2.07-1.8a4.364,4.364,0,0,1-4.11,2.13,4.064,4.064,0,0,1-4.2-3.15l-.09-.48h10.14c.78,0,.99-.39,1.02-1.11v-.27a6.969,6.969,0,0,0-7.29-7.32A7.441,7.441,0,0,0,127.935-7.2Zm10.98-1.38h-7.2a3.786,3.786,0,0,1,3.78-3.48A3.324,3.324,0,0,1,138.915-8.58Zm6.3,7.8a9.634,9.634,0,0,0,5.04,1.11c4.11,0,6.45-1.77,6.45-4.71,0-3.3-3.3-3.96-5.37-4.41-1.98-.45-3.12-.66-3.12-1.71,0-.93.87-1.53,2.49-1.53A5.813,5.813,0,0,1,155-10.05a2.1,2.1,0,0,0,1.35-1.77,2.164,2.164,0,0,0-.36-1.2c-.75-1.14-2.58-1.95-5.55-1.95-3.78,0-6.09,1.89-6.09,4.74,0,3.3,3.12,3.96,5.13,4.38,1.95.42,3.12.63,3.12,1.77,0,.93-.9,1.5-2.55,1.5a6.4,6.4,0,0,1-4.83-1.98,1.861,1.861,0,0,0-1.29,1.68A2.553,2.553,0,0,0,145.215-.78Zm23.34,6.54c.93,0,1.77-.48,2.4-2.07l6.66-17.31c.09-.21-1.11-1.2-2.28-1.2-.96,0-1.86.51-2.37,2.16l-2.82,8.37-3.12-8.4c-.54-1.62-1.38-2.13-2.4-2.13-1.29.03-2.4,1.02-2.31,1.26l5.04,11.67a1.511,1.511,0,0,0,1.35.96l-2.4,5.52C166.215,4.8,167.325,5.76,168.555,5.76ZM-194.925,26.8c0,4.65,3.12,7.62,7.89,7.62a8.962,8.962,0,0,0,4.68-1.11,2.859,2.859,0,0,0,1.62-2.28c0-1.68-2.04-1.86-2.07-1.8a4.364,4.364,0,0,1-4.11,2.13,4.064,4.064,0,0,1-4.2-3.15l-.09-.48h10.14c.78,0,.99-.39,1.02-1.11v-.27a6.969,6.969,0,0,0-7.29-7.32A7.441,7.441,0,0,0-194.925,26.8Zm10.98-1.38h-7.2a3.786,3.786,0,0,1,3.78-3.48A3.324,3.324,0,0,1-183.945,25.42Zm14.91-6.39a5.551,5.551,0,0,0-4.83,2.64,2.428,2.428,0,0,0-2.52-2.46c-.84,0-1.59.33-1.59.48V32.11c0,1.56.78,2.01,1.92,2.01h.45c1.08,0,1.86-.48,1.86-2.01V24.49a3.537,3.537,0,0,1,3.21-1.92c1.71,0,2.7,1.2,2.7,3.15v6.39c0,1.56.78,2.01,1.89,2.01h.45c1.08,0,1.89-.48,1.89-2.01V25.06C-163.6,21.73-165.225,19.03-169.035,19.03Zm18.39,15.39a4.374,4.374,0,0,0,3.15-1.08,2.143,2.143,0,0,0,.72-1.62,1.662,1.662,0,0,0-1.05-1.65,2.147,2.147,0,0,1-1.83.99c-1.17,0-1.62-.72-1.62-2.16V22.66h2.58c1.2,0,1.74-.54,1.74-1.56v-.27c0-.96-.51-1.47-1.71-1.47h-2.55V17.5c0-1.56-.75-2.04-1.86-2.04h-.39c-1.2,0-1.89.66-1.89,2.04v1.86h-.78c-1.17,0-1.71.57-1.71,1.56v.24c0,.96.54,1.5,1.74,1.5h.75v6.72C-155.355,32.71-153.855,34.42-150.645,34.42Zm4.74-7.74a7.346,7.346,0,0,0,7.77,7.74c4.65,0,7.83-3.12,7.83-7.68a7.37,7.37,0,0,0-7.77-7.71C-142.725,19.03-145.9,22.18-145.9,26.68Zm11.85.06a4.091,4.091,0,0,1-4.05,4.35,4.114,4.114,0,0,1-4.08-4.41,4.08,4.08,0,0,1,4.08-4.35C-135.735,22.33-134.055,24.16-134.055,26.74Zm11.82,7.68a5.311,5.311,0,0,0,4.77-2.79c0,.36.03.69.06,1.02.15,1.14.87,1.47,1.83,1.47h.42c1.11,0,1.86-.48,1.86-2.01V16.54c0-2.73-1.38-3.39-2.64-3.39a2.345,2.345,0,0,0-1.59.48v7.62a5.489,5.489,0,0,0-4.62-2.22c-4.05,0-6.81,3.03-6.81,7.68C-128.955,31.3-126.195,34.42-122.235,34.42Zm4.74-6.9a3.519,3.519,0,0,1-3.69,3.51c-2.19,0-3.75-1.77-3.75-4.32,0-2.64,1.53-4.29,3.81-4.29a3.714,3.714,0,0,1,3.63,2.34Zm6.36,2.61c0,2.52,1.86,4.2,4.92,4.2a5.85,5.85,0,0,0,5.07-2.52,6,6,0,0,0,.24.99,2.185,2.185,0,0,0,2.22,1.41c.81,0,1.59-.27,1.59-.48V25.09c0-3.93-2.25-6.06-6.9-6.06-2.82,0-4.71.69-5.7,1.71a2.678,2.678,0,0,0-.9,1.92c0,1.95,2.7,1.74,2.73,1.68a3.668,3.668,0,0,1,3.6-2.13c1.86,0,2.91.93,2.97,2.64a1.845,1.845,0,0,1,.03.42h-.48C-107.955,25.36-111.135,26.86-111.135,30.13Zm9.87-1.68c-.03,1.86-1.53,3.15-3.63,3.15-1.41,0-2.28-.69-2.28-1.8,0-1.65,1.77-2.28,5.1-2.4h.81Zm13.71,5.67h.45c1.08,0,1.86-.48,1.86-2.01V16.54c0-2.73-1.38-3.39-2.64-3.39a2.345,2.345,0,0,0-1.59.48V32.11C-89.475,33.67-88.665,34.12-87.555,34.12ZM-83,30.13c0,2.52,1.86,4.2,4.92,4.2A5.85,5.85,0,0,0-73,31.81a6,6,0,0,0,.24.99,2.185,2.185,0,0,0,2.22,1.41c.81,0,1.59-.27,1.59-.48V25.09c0-3.93-2.25-6.06-6.9-6.06-2.82,0-4.71.69-5.7,1.71a2.678,2.678,0,0,0-.9,1.92c0,1.95,2.7,1.74,2.73,1.68a3.668,3.668,0,0,1,3.6-2.13c1.86,0,2.91.93,2.97,2.64a1.845,1.845,0,0,1,.03.42h-.48C-79.815,25.36-83,26.86-83,30.13Zm9.87-1.68c-.03,1.86-1.53,3.15-3.63,3.15-1.41,0-2.28-.69-2.28-1.8,0-1.65,1.77-2.28,5.1-2.4h.81Zm15.09,4.65c.36.87,1.38,1.08,2.37,1.08a2.381,2.381,0,0,0,2.37-1.11l5.25-12.63c.09-.24-.99-1.26-2.28-1.26-.9,0-1.77.48-2.31,2.19l-3.06,8.61-2.94-8.61c-.54-1.71-1.38-2.19-2.4-2.19-1.26,0-2.37,1.02-2.31,1.26ZM-46.6,14.86a2.131,2.131,0,0,0,2.37,2.19,2.1,2.1,0,0,0,2.37-2.19,2.116,2.116,0,0,0-2.37-2.19A2.116,2.116,0,0,0-46.6,14.86Zm.24,17.25c0,1.56.78,2.01,1.92,2.01h.42c1.11,0,1.89-.48,1.89-2.01V21.25c0-1.56-.78-2.04-1.89-2.04h-.45c-1.08,0-1.89.51-1.89,2.04Zm13.08,8.22c5.01,0,7.89-1.8,7.89-4.62,0-2.46-2.16-3.57-4.23-4.11-2.04-.54-3.3-.63-3.51-1.35a.548.548,0,0,1-.21-.48c.21,0,.39-.03.6-.03,3.81-.09,6.3-2.19,6.3-5.22a4.8,4.8,0,0,0-1.29-3.24l2.52-2.49a2.3,2.3,0,0,0-2.07-1.77,2.268,2.268,0,0,0-2.1,1.47l-.66,1.23a7.553,7.553,0,0,0-3.12-.69c-3.87,0-6.66,2.4-6.66,5.55,0,2.31,1.5,4.11,4.02,4.83a2.051,2.051,0,0,0-1.02,1.68,1.851,1.851,0,0,0,.54,1.35c-2.64.39-4.56,1.8-4.56,3.87C-40.845,39.01-38.505,40.33-33.285,40.33Zm.15-12.99a2.717,2.717,0,0,1-2.85-2.82,2.661,2.661,0,0,1,2.79-2.79,2.686,2.686,0,0,1,2.88,2.79A2.693,2.693,0,0,1-33.135,27.34Zm-.06,10.68c-2.49,0-3.75-.63-3.75-1.74,0-1.26,1.65-2.01,3.81-2.16.48.09.93.21,1.35.3,1.38.36,2.43.75,2.43,1.71C-29.355,37.33-30.705,38.02-33.2,38.02Zm8.37-11.22c0,4.65,3.12,7.62,7.89,7.62a8.962,8.962,0,0,0,4.68-1.11,2.859,2.859,0,0,0,1.62-2.28c0-1.68-2.04-1.86-2.07-1.8a4.364,4.364,0,0,1-4.11,2.13,4.064,4.064,0,0,1-4.2-3.15l-.09-.48h10.14c.78,0,.99-.39,1.02-1.11v-.27a6.969,6.969,0,0,0-7.29-7.32A7.441,7.441,0,0,0-24.825,26.8Zm10.98-1.38h-7.2a3.786,3.786,0,0,1,3.78-3.48A3.324,3.324,0,0,1-13.845,25.42Zm14.91-6.39a5.551,5.551,0,0,0-4.83,2.64,2.428,2.428,0,0,0-2.52-2.46c-.84,0-1.59.33-1.59.48V32.11c0,1.56.78,2.01,1.92,2.01h.45c1.08,0,1.86-.48,1.86-2.01V24.49a3.537,3.537,0,0,1,3.21-1.92c1.71,0,2.7,1.2,2.7,3.15v6.39c0,1.56.78,2.01,1.89,2.01h.45c1.08,0,1.89-.48,1.89-2.01V25.06C6.5,21.73,4.875,19.03,1.065,19.03Zm7.41,7.65a7.363,7.363,0,0,0,7.65,7.74,7.274,7.274,0,0,0,4.77-1.5,3.382,3.382,0,0,0,1.47-2.46c0-1.83-2.28-2.07-2.37-1.89A3.659,3.659,0,0,1,16.3,31a4,4,0,0,1-3.96-4.32,3.97,3.97,0,0,1,3.96-4.23,3.608,3.608,0,0,1,3.69,2.43c.09.18,2.37-.15,2.37-1.86a3.53,3.53,0,0,0-1.44-2.52,7.416,7.416,0,0,0-4.8-1.47A7.391,7.391,0,0,0,8.475,26.68ZM24.2,14.86a2.131,2.131,0,0,0,2.37,2.19,2.1,2.1,0,0,0,2.37-2.19,2.116,2.116,0,0,0-2.37-2.19A2.116,2.116,0,0,0,24.2,14.86Zm.24,17.25c0,1.56.78,2.01,1.92,2.01h.42c1.11,0,1.89-.48,1.89-2.01V21.25c0-1.56-.78-2.04-1.89-2.04h-.45c-1.08,0-1.89.51-1.89,2.04Zm6.45-1.98c0,2.52,1.86,4.2,4.92,4.2a5.85,5.85,0,0,0,5.07-2.52,6,6,0,0,0,.24.99,2.185,2.185,0,0,0,2.22,1.41c.81,0,1.59-.27,1.59-.48V25.09c0-3.93-2.25-6.06-6.9-6.06-2.82,0-4.71.69-5.7,1.71a2.678,2.678,0,0,0-.9,1.92c0,1.95,2.7,1.74,2.73,1.68a3.668,3.668,0,0,1,3.6-2.13c1.86,0,2.91.93,2.97,2.64a1.845,1.845,0,0,1,.03.42h-.48C34.065,25.36,30.885,26.86,30.885,30.13Zm9.87-1.68c-.03,1.86-1.53,3.15-3.63,3.15-1.41,0-2.28-.69-2.28-1.8,0-1.65,1.77-2.28,5.1-2.4h.81Zm17.67,5.97a5.311,5.311,0,0,0,4.77-2.79c0,.36.03.69.06,1.02.15,1.14.87,1.47,1.83,1.47h.42c1.11,0,1.86-.48,1.86-2.01V16.54c0-2.73-1.38-3.39-2.64-3.39a2.345,2.345,0,0,0-1.59.48v7.62a5.489,5.489,0,0,0-4.62-2.22c-4.05,0-6.81,3.03-6.81,7.68C51.705,31.3,54.465,34.42,58.425,34.42Zm4.74-6.9a3.519,3.519,0,0,1-3.69,3.51c-2.19,0-3.75-1.77-3.75-4.32,0-2.64,1.53-4.29,3.81-4.29a3.714,3.714,0,0,1,3.63,2.34Zm6.36-.72c0,4.65,3.12,7.62,7.89,7.62a8.962,8.962,0,0,0,4.68-1.11,2.859,2.859,0,0,0,1.62-2.28c0-1.68-2.04-1.86-2.07-1.8a4.364,4.364,0,0,1-4.11,2.13,4.064,4.064,0,0,1-4.2-3.15l-.09-.48h10.14c.78,0,.99-.39,1.02-1.11v-.27a6.969,6.969,0,0,0-7.29-7.32A7.441,7.441,0,0,0,69.525,26.8Zm10.98-1.38h-7.2a3.786,3.786,0,0,1,3.78-3.48A3.324,3.324,0,0,1,80.505,25.42Zm7.98,8.7h.45c1.08,0,1.86-.48,1.86-2.01V16.54c0-2.73-1.38-3.39-2.64-3.39a2.345,2.345,0,0,0-1.59.48V32.11C86.565,33.67,87.375,34.12,88.485,34.12Zm10.44-.9a9.634,9.634,0,0,0,5.04,1.11c4.11,0,6.45-1.77,6.45-4.71,0-3.3-3.3-3.96-5.37-4.41-1.98-.45-3.12-.66-3.12-1.71,0-.93.87-1.53,2.49-1.53a5.813,5.813,0,0,1,4.29,1.98,2.1,2.1,0,0,0,1.35-1.77,2.163,2.163,0,0,0-.36-1.2c-.75-1.14-2.58-1.95-5.55-1.95-3.78,0-6.09,1.89-6.09,4.74,0,3.3,3.12,3.96,5.13,4.38,1.95.42,3.12.63,3.12,1.77,0,.93-.9,1.5-2.55,1.5a6.4,6.4,0,0,1-4.83-1.98,1.861,1.861,0,0,0-1.29,1.68A2.553,2.553,0,0,0,98.925,33.22Zm12.9-6.42c0,4.65,3.12,7.62,7.89,7.62a8.962,8.962,0,0,0,4.68-1.11,2.859,2.859,0,0,0,1.62-2.28c0-1.68-2.04-1.86-2.07-1.8a4.364,4.364,0,0,1-4.11,2.13,4.064,4.064,0,0,1-4.2-3.15l-.09-.48h10.14c.78,0,.99-.39,1.02-1.11v-.27a6.969,6.969,0,0,0-7.29-7.32A7.441,7.441,0,0,0,111.825,26.8Zm10.98-1.38h-7.2a3.786,3.786,0,0,1,3.78-3.48A3.324,3.324,0,0,1,122.805,25.42Zm11.85,14.91c5.01,0,7.89-1.8,7.89-4.62,0-2.46-2.16-3.57-4.23-4.11-2.04-.54-3.3-.63-3.51-1.35a.548.548,0,0,1-.21-.48c.21,0,.39-.03.6-.03,3.81-.09,6.3-2.19,6.3-5.22a4.8,4.8,0,0,0-1.29-3.24l2.52-2.49a2.3,2.3,0,0,0-2.07-1.77,2.268,2.268,0,0,0-2.1,1.47l-.66,1.23a7.553,7.553,0,0,0-3.12-.69c-3.87,0-6.66,2.4-6.66,5.55,0,2.31,1.5,4.11,4.02,4.83a2.051,2.051,0,0,0-1.02,1.68,1.851,1.851,0,0,0,.54,1.35c-2.64.39-4.56,1.8-4.56,3.87C127.1,39.01,129.435,40.33,134.655,40.33Zm.15-12.99a2.717,2.717,0,0,1-2.85-2.82,2.835,2.835,0,0,1,5.67,0A2.693,2.693,0,0,1,134.805,27.34Zm-.06,10.68c-2.49,0-3.75-.63-3.75-1.74,0-1.26,1.65-2.01,3.81-2.16.48.09.93.21,1.35.3,1.38.36,2.43.75,2.43,1.71C138.585,37.33,137.235,38.02,134.745,38.02Zm21.39-18.81h-.45c-1.08,0-1.83.51-1.83,2.04v7.68a3.558,3.558,0,0,1-3.18,1.92c-1.74,0-2.76-1.17-2.76-3.15V21.25c0-1.56-.78-2.04-1.89-2.04h-.48c-1.05,0-1.83.51-1.83,2.04v7.08c0,3.39,1.59,6.06,5.4,6.06a5.527,5.527,0,0,0,4.83-2.67,4.908,4.908,0,0,0,.15.81,2.346,2.346,0,0,0,2.37,1.59c.84,0,1.59-.33,1.59-.48V21.25C158.055,19.69,157.275,19.21,156.135,19.21Zm12.54-.18a3.656,3.656,0,0,0-3.63,2.79,6.714,6.714,0,0,0-.21-1.02,2.338,2.338,0,0,0-2.31-1.59c-.87,0-1.59.33-1.59.48V32.11c0,1.56.78,2.01,1.92,2.01h.45c1.08,0,1.86-.48,1.86-2.01V27.73c0-2.94.9-4.74,2.94-4.74a2.929,2.929,0,0,1,1.92.72,2.188,2.188,0,0,0,1.35-2.22A2.4,2.4,0,0,0,168.675,19.03Zm2.7,7.65a7.346,7.346,0,0,0,7.77,7.74c4.65,0,7.83-3.12,7.83-7.68a7.37,7.37,0,0,0-7.77-7.71C174.555,19.03,171.375,22.18,171.375,26.68Zm11.85.06a4.076,4.076,0,1,1-8.13-.06,4.08,4.08,0,0,1,4.08-4.35C181.545,22.33,183.225,24.16,183.225,26.74Zm8.16,1.23h.45c.63,0,.9-.45,1.08-1.35l1.2-9.63a1.994,1.994,0,0,0-2.13-2.67h-.78a2,2,0,0,0-2.07,2.67l1.2,9.63C190.545,27.52,190.815,27.97,191.385,27.97Zm-.03,6.27h.51a1.79,1.79,0,0,0,2.04-2.01v-.42a1.79,1.79,0,0,0-2.04-2.01h-.51a1.793,1.793,0,0,0-2.01,2.01v.42A1.793,1.793,0,0,0,191.355,34.24Z" transform="translate(701.49 312.78)"/></g></g><g class="ae" transform="translate(1358.64 278.844)"><g transform="translate(0 0)"><ellipse class="c" cx="5.395" cy="5.395" rx="5.395" ry="5.395"/></g></g></g></svg>