<svg xmlns="http://www.w3.org/2000/svg" xmlns:xlink="http://www.w3.org/1999/xlink" width="338" height="165" viewBox="0 0 338 165"><defs><style>.a{fill:#fff;}.b,.bh,.d{fill:none;}.c{clip-path:url(#a);}.bh,.d{stroke:#00adee;stroke-linecap:round;}.d{stroke-linejoin:round;}.e{fill:#a5caef;}.an,.f{fill:#d3e2f4;}.g{fill:#ffaf97;}.h{fill:#d54f1f;}.i{opacity:0.19;}.j{fill:#ff6700;}.k{fill:#ff409e;}.l{fill:#ef1485;}.m{fill:#031f59;}.n{fill:#fca73b;}.o{fill:#ffbe53;}.p{fill:#021333;}.q{fill:#ffc5b4;}.r{fill:#fdc0ae;}.s{fill:#ffcdaa;}.t{fill:#0af;}.u{fill:#ffa17a;}.v{fill:#ff9c5d;}.w{fill:#00347e;}.x{fill:#fffbf5;}.y{fill:#00457f;}.z{fill:#d75527;}.aa{fill:#ed9232;}.ab{fill:#ffc75c;}.ac{fill:#f7ad83;}.ad{fill:#ff7434;}.ae{fill:#ffc422;}.af{fill:#0061bc;}.ag{fill:#002168;}.ah{clip-path:url(#b);}.ai{fill:#ffb65e;}.aj{opacity:0.38;}.ak{fill:#d98a32;}.al{fill:#fbfffb;}.am{fill:#00418b;}.an{stroke:#a5caef;stroke-miterlimit:10;}.ao{clip-path:url(#c);}.ap{clip-path:url(#d);}.aq{fill:#162457;}.ar{clip-path:url(#e);}.as{clip-path:url(#f);}.at{fill:#1e3760;}.au{clip-path:url(#g);}.av{clip-path:url(#i);}.aw{fill:#3a5bbb;}.ax{clip-path:url(#k);}.ay{fill:#0075dc;}.az{fill:#1c5cc1;}.ba{fill:#0098ff;}.bb{fill:#134aa3;}.bc{fill:#132787;}.bd{fill:#e50914;}.be{fill:#0855c4;}.bf{fill:#00adee;}.bg{fill:#fdb62f;}</style><clipPath id="a"><rect class="a" width="338" height="165" transform="translate(19 59)"/></clipPath><clipPath id="b"><path class="b" d="M2421.534,1643.018l-2.114,5.077,2.918.619.181-5.606Z" transform="translate(-2419.42 -1643.018)"/></clipPath><clipPath id="c"><path class="b" d="M2465.132,1593.95c.454.8-1.359.571-1.576,1.466-.089.278,2.129,3.535,2.394,4.273a5.066,5.066,0,0,1,.321,1.964,4.65,4.65,0,0,0,.021,1.209.993.993,0,0,0,.784.821,1.33,1.33,0,0,1,.881-1.288,3.139,3.139,0,0,1,2.637.468c-.31-1.748-.809-4.26.3-5.637a4.12,4.12,0,0,0,1.032-1.576c.253-1.118-1.29-2.661-2-3.123-1.35-1.088-3.645-1.312-3.872-1.079-.792.692.116,2.5-.894,2.8" transform="translate(-2463.553 -1591.365)"/></clipPath><clipPath id="d"><rect class="b" width="981.816" height="1049.997" transform="translate(0 85.436) rotate(-4.992)"/></clipPath><clipPath id="e"><path class="b" d="M2397.576,1595.785l.069,8.585a15.683,15.683,0,0,0-3.041-2.665c-.96-.393-.208-3.991-.208-3.991l1.8-1.881.445-.468Z" transform="translate(-2394.116 -1595.365)"/></clipPath><clipPath id="f"><rect class="b" width="1023.82" height="1034.208" transform="matrix(0.999, -0.052, 0.052, 0.999, 0, 53.325)"/></clipPath><clipPath id="g"><path class="b" d="M2410.26,1581.062a13.737,13.737,0,0,1-6.386,2.252c-3.058.129-5.94-1.3-8.683-2.669a4.545,4.545,0,0,0-1.414-.511,1.539,1.539,0,0,0-1.372.462,1.817,1.817,0,0,0-.342,1.09,4.83,4.83,0,0,0,2.445,4.389c-.015.446.046.94.031,1.385a4.826,4.826,0,0,1-1.266-.574,6.939,6.939,0,0,1-2.556-2.773,9.03,9.03,0,0,1-.6-5.775,22.257,22.257,0,0,1,2.1-5.522,3.372,3.372,0,0,1,.663-.991,2.394,2.394,0,0,1,2.365-.331,9.938,9.938,0,0,1,2.163,1.25,4.492,4.492,0,0,0,2.3.892,4.975,4.975,0,0,0,1.269-.19q1.241-.31,2.46-.682a7.49,7.49,0,0,1,1.593-.376,4.708,4.708,0,0,1,2.992.9,14.029,14.029,0,0,1,2.329,2.138l1.675,1.787a.761.761,0,0,1,.26.462.773.773,0,0,1-.16.419l-2.128,3.289" transform="translate(-2389.905 -1571.331)"/></clipPath><clipPath id="i"><path class="b" d="M2413.02,1594.816c-2.109.61-4.175,1.364-6.4,1.127a15.016,15.016,0,0,1-5.536-2c-1.8-.975-4.236-2.617-5.94-.575-.112.138.1.313.208.175,1.686-2.049,4.167-.124,5.9.778a18.669,18.669,0,0,0,3.617,1.523c2.933.837,5.444.034,8.272-.785.17-.047.076-.306-.1-.255Z" transform="translate(-2395.108 -1592.391)"/></clipPath><clipPath id="k"><path class="b" d="M2421.152,1586.761c-2.281-1.8-4.825-1.036-7.459-1.042-2.011-.014-3.206-1.144-4.865-2.04a6.444,6.444,0,0,0-4.111-.689c-.173.015-.148.3.024.271,2.12-.294,3.585.437,5.308,1.515a7.029,7.029,0,0,0,2.506,1.133c2.923.521,5.79-1.009,8.423,1.064.136.106.315-.1.174-.211" transform="translate(-2404.598 -1582.903)"/></clipPath></defs><g class="c" transform="translate(-19 -59)"><g transform="translate(36 63)"><line class="d" y1="5.58" transform="translate(180.373 17.969)"/><g transform="translate(163.085 48.563)"><g transform="translate(82.429 55.589)"><g transform="translate(0.223 0.224)"><rect class="e" width="70.08" height="47.342" rx="10.612"/></g><path class="e" d="M2581.223,1831.128h-57.378a6.582,6.582,0,0,1-6.574-6.574v-34.641a6.582,6.582,0,0,1,6.574-6.574h57.378a6.582,6.582,0,0,1,6.574,6.574v34.641A6.581,6.581,0,0,1,2581.223,1831.128Zm-57.378-47.342a6.133,6.133,0,0,0-6.127,6.127v34.641a6.134,6.134,0,0,0,6.127,6.127h57.378a6.134,6.134,0,0,0,6.127-6.127v-34.641a6.134,6.134,0,0,0-6.127-6.127Z" transform="translate(-2517.27 -1783.338)"/></g><g transform="translate(16.433 55.589)"><g transform="translate(0.223 0.224)"><rect class="e" width="65.996" height="47.342" rx="10.612"/></g><path class="e" d="M2319.414,1831.128h-53.295a6.581,6.581,0,0,1-6.574-6.574v-34.641a6.582,6.582,0,0,1,6.574-6.574h53.295a6.582,6.582,0,0,1,6.574,6.574v34.641A6.582,6.582,0,0,1,2319.414,1831.128Zm-53.3-47.342a6.134,6.134,0,0,0-6.126,6.127v34.641a6.134,6.134,0,0,0,6.126,6.127h53.3a6.134,6.134,0,0,0,6.127-6.127v-34.641a6.134,6.134,0,0,0-6.127-6.127Z" transform="translate(-2259.545 -1783.338)"/></g><g transform="translate(16.433 61.94)"><g transform="translate(0.223 0.224)"><path class="f" d="M2320.062,1809.012h-53.294a6.125,6.125,0,0,0-6.351,5.87v29.253a6.126,6.126,0,0,0,6.351,5.87h53.294a6.125,6.125,0,0,0,6.351-5.87v-29.254A6.125,6.125,0,0,0,2320.062,1809.012Z" transform="translate(-2260.416 -1809.012)"/></g><path class="f" d="M2319.414,1849.578h-53.295a6.354,6.354,0,0,1-6.574-6.092v-29.254a6.354,6.354,0,0,1,6.574-6.092h53.295a6.355,6.355,0,0,1,6.574,6.092v29.254A6.354,6.354,0,0,1,2319.414,1849.578Zm-53.295-40.991a5.907,5.907,0,0,0-6.126,5.645v29.254a5.907,5.907,0,0,0,6.126,5.645h53.295a5.908,5.908,0,0,0,6.127-5.645v-29.254a5.908,5.908,0,0,0-6.127-5.645Z" transform="translate(-2259.545 -1808.139)"/></g><g transform="translate(82.429 61.94)"><g transform="translate(0.224 0.224)"><path class="f" d="M2581.871,1809.012h-57.377a6.125,6.125,0,0,0-6.351,5.87v29.253a6.125,6.125,0,0,0,6.351,5.87h57.377a6.125,6.125,0,0,0,6.351-5.87v-29.254A6.123,6.123,0,0,0,2581.871,1809.012Z" transform="translate(-2518.143 -1809.012)"/></g><path class="f" d="M2581.223,1849.578h-57.378a6.355,6.355,0,0,1-6.574-6.092v-29.254a6.354,6.354,0,0,1,6.574-6.092h57.378a6.355,6.355,0,0,1,6.574,6.092v29.254A6.354,6.354,0,0,1,2581.223,1849.578Zm-57.378-40.991a5.907,5.907,0,0,0-6.127,5.645v29.254a5.907,5.907,0,0,0,6.127,5.645h57.378a5.908,5.908,0,0,0,6.127-5.645v-29.254a5.907,5.907,0,0,0-6.127-5.645Z" transform="translate(-2517.27 -1808.139)"/></g><g transform="translate(16.655 77.415)"><path class="b" d="M2266.763,1894.312h53.295a6.351,6.351,0,0,0,6.351-6.351c-31.61,2.261-46.511-5.533-66-19.39v19.39a6.35,6.35,0,0,0,6.35,6.351Z" transform="translate(-2260.411 -1868.572)"/></g><g transform="translate(82.652 77.415)"><path class="b" d="M2524.492,1894.312h57.377a6.35,6.35,0,0,0,6.351-6.35h0c-31.609,2.261-50.594-5.533-70.079-19.39v19.39a6.35,6.35,0,0,0,6.35,6.351Z" transform="translate(-2518.14 -1868.572)"/></g><g transform="translate(6.691 85.467)"><g transform="translate(0.224 0.224)"><path class="e" d="M2247.153,1916.914a7.889,7.889,0,0,0,.623-3.081v-5.028a7.914,7.914,0,0,0-7.914-7.914h-9.575a7.914,7.914,0,0,0-7.914,7.914v5.028a7.918,7.918,0,0,0,.311,2.205" transform="translate(-2222.373 -1900.891)"/></g><path class="e" d="M2246.71,1916.348l-.412-.173a7.654,7.654,0,0,0,.6-2.993v-5.029a7.7,7.7,0,0,0-7.69-7.69h-9.575a7.7,7.7,0,0,0-7.69,7.69v5.029a7.683,7.683,0,0,0,.3,2.144l-.43.124a8.155,8.155,0,0,1-.32-2.268v-5.029a8.147,8.147,0,0,1,8.138-8.137h9.575a8.146,8.146,0,0,1,8.136,8.137v5.029A8.091,8.091,0,0,1,2246.71,1916.348Z" transform="translate(-2221.499 -1900.015)"/></g><g transform="translate(6.69 88.606)"><g transform="translate(0.224 0.224)"><path class="f" d="M2247.477,1925.762a7.917,7.917,0,0,0,.3-2.16v-2.542a7.914,7.914,0,0,0-7.914-7.914h-9.574a7.914,7.914,0,0,0-7.914,7.914v2.542a7.925,7.925,0,0,0,.311,2.206" transform="translate(-2222.373 -1913.146)"/></g><path class="f" d="M2221.817,1925.221a8.138,8.138,0,0,1-.32-2.268v-2.542a8.147,8.147,0,0,1,8.138-8.138h9.576a8.147,8.147,0,0,1,8.136,8.138v2.542a8.136,8.136,0,0,1-.306,2.22l-.43-.122a7.71,7.71,0,0,0,.289-2.1v-2.541a7.7,7.7,0,0,0-7.689-7.691h-9.575a7.7,7.7,0,0,0-7.69,7.691v2.541a7.69,7.69,0,0,0,.3,2.144Z" transform="translate(-2221.497 -1912.273)"/></g><g transform="translate(124.869 26.266)"><path class="g" d="M2688.5,1669.258c5.727,10.149,10.387,17.89,16.113,28.039.157.315-1.027.434-1.263.71a9.794,9.794,0,0,1-1.461,1.184c-1.225.16-.225,1.3-1.461,1.461-.712.079-.395.9-1.106.75a7.958,7.958,0,0,1-2.369-1.223c-2.8-1.9-6.161-3.318-7.937-6.24a17.475,17.475,0,0,1-1.657-4.383c-.868-3.042-1.858-6-3-8.927-.829-2.093-1.739-4.342-1.185-6.515a10.439,10.439,0,0,1,2.646-4.185,3.458,3.458,0,0,1,1.144-.987,1.188,1.188,0,0,1,1.383.237c.079.079.119.236,0,.277-.078.079-.157-.157-.038-.119" transform="translate(-2683.004 -1668.827)"/></g><g transform="translate(124.789 26.186)"><path class="h" d="M2699.256,1701.269a.775.775,0,0,1-.18-.023,6.521,6.521,0,0,1-2.048-1.009l-.349-.225c-.693-.469-1.434-.917-2.15-1.353-2.193-1.327-4.463-2.7-5.81-4.916a15.509,15.509,0,0,1-1.547-3.981l-.122-.421c-.9-3.142-1.878-6.06-3-8.918l-.025-.072c-.842-2.123-1.71-4.319-1.16-6.492a10.564,10.564,0,0,1,2.648-4.2l.015-.019a3.468,3.468,0,0,1,1.169-1,1.274,1.274,0,0,1,1.477.257.353.353,0,0,1,.081.137l.084-.047c2.864,5.076,5.505,9.625,8.059,14.023s5.179,8.942,8.052,14.016a.2.2,0,0,1,0,.167c-.067.162-.351.255-.675.363a1.7,1.7,0,0,0-.6.27,9.506,9.506,0,0,1-1.506,1.211c-.561.072-.61.347-.675.676a.8.8,0,0,1-.8.795.56.56,0,0,0-.482.4C2699.639,1701.073,2699.541,1701.269,2699.256,1701.269Zm-11.954-32.594a1.423,1.423,0,0,0-.54.108,3.342,3.342,0,0,0-1.126.964l-.019.02a10.36,10.36,0,0,0-2.612,4.135c-.541,2.124.32,4.3,1.153,6.4l.027.072c1.126,2.862,2.106,5.783,3,8.932l.122.421a15.347,15.347,0,0,0,1.529,3.943c1.327,2.182,3.58,3.544,5.758,4.862.719.434,1.459.883,2.156,1.351l.349.225a6.477,6.477,0,0,0,1.995.991c.309.067.376-.067.478-.27a.71.71,0,0,1,.6-.482c.554-.072.606-.349.662-.676a.8.8,0,0,1,.8-.8,10.929,10.929,0,0,0,1.414-1.162,1.68,1.68,0,0,1,.676-.313c.243-.078.545-.179.583-.273a.032.032,0,0,0,0-.036c-2.86-5.069-5.5-9.614-8.051-14.009s-5.161-8.886-8-13.924a.18.18,0,0,1-.108.126.119.119,0,0,1-.146,0,.184.184,0,0,1-.059-.212.115.115,0,0,1,.128-.056.127.127,0,0,0-.02-.023.936.936,0,0,0-.752-.317Zm.792.375-.045.128h0a.048.048,0,0,0,.027-.011h0a.045.045,0,0,0-.027,0l.031-.018h0a.025.025,0,0,0,.017-.018.143.143,0,0,0,0-.088Z" transform="translate(-2682.693 -1668.515)"/></g><g class="i" transform="translate(120.833 27.865)"><path class="j" d="M2671.607,1676.194c2.8,3.04,3,7.7,5.056,11.334,1.973,3.4,5.487,5.686,7.583,9.009a20.65,20.65,0,0,1,2.211,5.371,2.16,2.16,0,0,1-.2,1.975,2.245,2.245,0,0,1-1.353.394l-4.779.239a1.775,1.775,0,0,1-.791-.079c-.513-.2-.75-.752-.987-1.225a147.13,147.13,0,0,0-9.232-17.653c-.987-1.576-2.013-3.318-1.855-5.181a8.21,8.21,0,0,1,2.133-4.146,2.767,2.767,0,0,1,1.461-1.146c.632-.119,1.351.554,1.065,1.106" transform="translate(-2667.246 -1675.072)"/></g><g transform="translate(81.841 33.081)"><path class="g" d="M2517.786,1695.645c-3.122,13.443-3.978,26.464-.859,30.613.513.71.014-2.606.763-2.133.239.157,1.576,2.172,1.9,2.132a3.4,3.4,0,0,0,2.567-1.9c.593-2.211,2.171-1.619,2.96-3.752a7.42,7.42,0,0,0,.277-1.935c.225-5.528,1.777-10.859,3.318-16.151.119-.475-.315-1.068-.434-1.54a2.579,2.579,0,0,0-1.421-1.3c-1.106-.552-3.042-2.96-4.305-3.2-1.223-.2-3.734-1.546-4.762-.837" transform="translate(-2514.973 -1695.441)"/></g><g transform="translate(115.716 19.47)"><path class="k" d="M2662.387,1650.107s-2.964-7.384-14.374-7.819l-.752,4.7,4.543,3.153Z" transform="translate(-2647.26 -1642.288)"/></g><g transform="translate(84.459 18.7)"><path class="k" d="M2568.708,1646.054a2.635,2.635,0,0,1-1.576-1.5c-.119-.236-.119-.513-.226-.792a2.752,2.752,0,0,0-1.105-1.223c-2.173-1.423-5.015-1.353-7.463-2.211a15.469,15.469,0,0,0-2.884-.989,8.348,8.348,0,0,0-2.96.239c-3.948.788-7.9,1.538-11.848,2.329-2.763.553-5.607,1.106-7.976,2.686-.473.315-.9.593-1.351.868a10.239,10.239,0,0,0-1.935,1.423,7.808,7.808,0,0,0-1.5,1.7,17.282,17.282,0,0,0-2.685,5.487,4.879,4.879,0,0,1,3.948,1.067c1.777,1.54,3.358,4.027,4.858,5.45l.079.038c1.106.676,4.5,1.184,4.582,2.489.2,2.844-2.765,6.08-1.351,8.557a14.551,14.551,0,0,0,2.608-1.54,2.828,2.828,0,0,1,2.882-.275c.357.225.631.593,1.065.709.791.239,1.462-.552,1.9-1.264,2.606-3.869,6.162-7.265,10.585-8.687,1.7-.552,3.513-.788,5.251-1.3a18.88,18.88,0,0,0,4.3-1.858c.475-.275-.117.277.239-.158,0,0-.12-.158.315-.356,1.576-.788,3.239-7.74,5.135-9.042C2570.791,1646.214,2570.51,1646.765,2568.708,1646.054Z" transform="translate(-2525.197 -1639.282)"/></g><g transform="translate(124.001 26.266)"><path class="l" d="M2684.679,1668.864c-2.964,2.054-2.016,6.871-5.018,8.726-.117.078,0,.278.16.2,3.04-1.9,2.093-6.675,5.014-8.728C2684.954,1668.943,2684.8,1668.745,2684.679,1668.864Z" transform="translate(-2679.614 -1668.827)"/></g><g transform="translate(115.358 26.105)"><path class="l" d="M2648.988,1668.2h-.829l-2.294,3.553s3.632,5.49,4.619,7.069a10.079,10.079,0,0,0,1.461,1.7,18.191,18.191,0,0,0,3.673-1.657c.119-.079.158-.079.2-.079,0-.041.038-.041.038-.079,0,0-.117-.157.316-.358.632-.315,1.265-1.576,1.9-3.08A11.71,11.71,0,0,0,2648.988,1668.2Z" transform="translate(-2645.864 -1668.198)"/></g><g transform="translate(89.419)"><path class="m" d="M2564.96,1587.716s-2.414,8.473-5.506,9.021c0,0,11.282,3.13,16.745-4.145,0,0,.176-11.664-4.99-19.482a14.471,14.471,0,0,0-10.952-6.81,12.52,12.52,0,0,0-8.981,2.42s-9.608,7.182-5.832,26.3l9.5.208,1.738-9.206Z" transform="translate(-2544.565 -1566.254)"/></g><g transform="translate(91.008 31.19)"><path class="l" d="M2554.479,1688.055l-1.526.448a16.151,16.151,0,0,0-2.181,5.681,48.153,48.153,0,0,0,3.153,3.714l.157.157c.357.356-.356-.157,0,0,.12-1.105.239-9.327.4-10Z" transform="translate(-2550.772 -1688.055)"/></g><g transform="translate(85.402 31.639)"><path class="l" d="M2529.063,1690.2c3-1.065,5.686,2.807,6.833,4.9.079.119.276.038.225-.079-1.222-2.211-4.026-6.121-7.147-5.015a.108.108,0,1,0,.03.214h.006a.107.107,0,0,0,.043-.018Z" transform="translate(-2528.88 -1689.808)"/></g><g transform="translate(108.807 35.187)"><path class="n" d="M2620.281,1703.664l.225.239v-.079Z" transform="translate(-2620.281 -1703.664)"/></g><g transform="translate(99.535 21.537)"><path class="g" d="M2584.119,1657.011s-.675,2.553,3,3.545l6.594,3.241,2.418-13.436Z" transform="translate(-2584.07 -1650.361)"/></g><g transform="translate(94.925 8.914)"><path class="m" d="M2566.292,1607.15s4.135-2.51,2.835-6.086l-2.738.707-.322,2.915Z" transform="translate(-2566.069 -1601.064)"/></g><g transform="translate(101.989 62.989)"><path class="o" d="M2593.838,1813.738c-.039-.514-.117-.986-.158-1.5C2593.563,1812.79,2593.919,1814.371,2593.838,1813.738Z" transform="translate(-2593.656 -1812.238)"/></g><g transform="translate(103.04 61.528)"><path class="o" d="M2597.957,1808.029c-.041-.513-.119-.986-.158-1.5C2597.642,1807.121,2598,1808.7,2597.957,1808.029Z" transform="translate(-2597.759 -1806.529)"/></g><g transform="translate(96.222 28.589)"><path class="m" d="M2602.989,1704.283a24.894,24.894,0,0,0-.868-15.48c-2.763-6.792-8.688-10.742-14.139-10.9-5.566-.158-11.845,3.6-14.887,10.623a25.659,25.659,0,0,0-1.353,15.44C2578.031,1706.336,2590.549,1709.612,2602.989,1704.283Z" transform="translate(-2571.134 -1677.899)"/></g><g transform="translate(102.559 40.756)"><path class="p" d="M2615.674,1728.413s3.556,3.6,2.608,15.164l-21.8.118s-2.093-13.7,1.541-18.284Z" transform="translate(-2595.883 -1725.411)"/></g><g transform="translate(105.643 55.988)"><path class="q" d="M2608.246,1791.655c5.251,1.934,10.464,3.828,15.716,5.765a21.944,21.944,0,0,0,4.937,1.383,22.753,22.753,0,0,0,6.712-.475,4.136,4.136,0,0,0,1.54-.473,4.371,4.371,0,0,0,1.576-2.928c.395-1.576.75-3.2,1.144-4.778a2.43,2.43,0,0,0,.079-1.3,2.3,2.3,0,0,0-.552-.868,9.759,9.759,0,0,0-10.307-2.529c-1.619.593-3.119,1.619-4.817,1.576a13.3,13.3,0,0,1-2.252-.357,18.423,18.423,0,0,0-6.4.473,20.625,20.625,0,0,0-4.382,1.225,6.777,6.777,0,0,0-3.318,2.961" transform="translate(-2607.925 -1784.898)"/></g><g transform="translate(92.026 47.413)"><path class="r" d="M2556.444,1761.623c-1.619.725-1.975,2.788-1.5,4.382a2.8,2.8,0,0,0,.712,1.239,3.333,3.333,0,0,0,1.184.653c3.711,1.375,7.938.434,11.571-1.051s7.109-3.44,11.019-4.2q1.079-.185,2.132-.471a10.4,10.4,0,0,0,2.291-1.2c2.252-1.485,4.382-3.221,6.949-4.2a13.614,13.614,0,0,1,6.357-.8,9.066,9.066,0,0,0-1.538-3.947,1.516,1.516,0,0,0-.4-.435,1.488,1.488,0,0,0-.791-.18,10.828,10.828,0,0,0-6.08,1.919,45.257,45.257,0,0,1-5.49,3.224c-2.763,1.2-5.923,1.34-8.963,1.594-6.2.469-12.48,1.3-18.2,3.585" transform="translate(-2554.749 -1751.41)"/></g><g transform="translate(91.752 47.336)"><path class="h" d="M2559.8,1768.483a11.363,11.363,0,0,1-3.979-.675,3.4,3.4,0,0,1-1.213-.668,2.9,2.9,0,0,1-.74-1.281c-.481-1.622-.1-3.748,1.551-4.487l.061.136c-1.575.7-1.933,2.747-1.469,4.31a2.747,2.747,0,0,0,.7,1.213,3.272,3.272,0,0,0,1.159.636c3.133,1.159,7.026.8,11.575-1.053,1.021-.417,2.046-.878,3.037-1.325a37.107,37.107,0,0,1,8.047-2.9c.717-.122,1.436-.281,2.137-.471a10.354,10.354,0,0,0,2.278-1.189c.545-.36,1.091-.738,1.619-1.106a25.616,25.616,0,0,1,5.38-3.12,13.794,13.794,0,0,1,6.326-.815,9.085,9.085,0,0,0-1.52-3.835,1.455,1.455,0,0,0-.381-.421,1.408,1.408,0,0,0-.746-.164,10.67,10.67,0,0,0-6.074,1.914c-.57.34-1.137.708-1.687,1.064a25.018,25.018,0,0,1-3.839,2.177,25.575,25.575,0,0,1-8.124,1.533l-.9.074c-5.644.426-12.228,1.187-18.271,3.594l-.055-.139c6.061-2.414,12.658-3.176,18.313-3.6.3-.026.6-.049.9-.073a25.47,25.47,0,0,0,8.077-1.521,25,25,0,0,0,3.817-2.166c.55-.357,1.119-.725,1.69-1.066a10.817,10.817,0,0,1,6.15-1.937,1.244,1.244,0,0,1,1.253.655,9.23,9.23,0,0,1,1.556,3.99l.013.094-.1-.011a13.619,13.619,0,0,0-6.353.8,25.425,25.425,0,0,0-5.348,3.1c-.529.367-1.076.747-1.622,1.106a10.5,10.5,0,0,1-2.315,1.208c-.713.194-1.436.353-2.156.476a36.962,36.962,0,0,0-8.012,2.885c-.993.448-2.021.91-3.043,1.327A20.581,20.581,0,0,1,2559.8,1768.483Z" transform="translate(-2553.678 -1751.11)"/></g><g transform="translate(101.894 42.652)"><ellipse class="r" cx="1.383" cy="1.935" rx="1.383" ry="1.935"/></g><g transform="translate(120.218 42.652)"><ellipse class="s" cx="1.383" cy="1.935" rx="1.383" ry="1.935"/></g><g transform="translate(103.585 33.41)"><path class="r" d="M2617.9,1696.726h-18.016v14.139a6.627,6.627,0,0,0,1.576,4.265h0a7.487,7.487,0,0,0,5.765,2.606h3.319a7.485,7.485,0,0,0,5.765-2.606h0a6.625,6.625,0,0,0,1.576-4.265Z" transform="translate(-2599.888 -1696.726)"/></g><g transform="translate(101.539 30.15)"><path class="m" d="M2593.952,1696.5s1.3-3.281,5.958-6.479c0,0,.912-2.684,4.9-1.578l2.686,3.828,1.264.2,6.555,8.49-.158-9.683-1.858-3.793a13.453,13.453,0,0,0-2.962-1.538,37.977,37.977,0,0,1-4.7-1.937s-3.828.079-4.067,0-3.475.317-4.265.4a11.684,11.684,0,0,0-2.606.948s-1.934,2.882-2.448,2.252c-.239-.315-.357,3.358-.357,3.711S2593.952,1696.5,2593.952,1696.5Z" transform="translate(-2591.896 -1683.995)"/></g><g transform="translate(107.271 32.623)"><path class="m" d="M2614.4,1696.689s-.84,4.581,2.045,7.187l5.42-.158a7.55,7.55,0,0,1-1.383-3.2,6.774,6.774,0,0,0,2.606,3.2h1.738a16.128,16.128,0,0,1-1.35-2.606,10.975,10.975,0,0,0,2.684,2.606h2.685l-.676-4.975-2.842-2.29-3.239-2.293-3.4-.51L2616.21,1695Z" transform="translate(-2614.281 -1693.65)"/></g><g transform="translate(98.159 31.254)"><path class="t" d="M2582.831,1690.832l-1.917-2.331a.572.572,0,0,0-.96.153l-1.218,3.5a.563.563,0,0,0,.689.738l3.081-.917,2.065,2.252a.568.568,0,0,0,.8.051h0a.574.574,0,0,0,.159-.234l1.195-3.158a.584.584,0,0,0-.639-.781Z" transform="translate(-2578.699 -1688.304)"/></g><g transform="translate(101.467 33.419)"><path class="b" d="M2592.116,1698.741l-.169-.056a.456.456,0,0,1-.313-.564h0l.005-.017.328-1.012a.458.458,0,0,1,.565-.314l.016.005.169.055a.457.457,0,0,1,.31.566h0l0,.015-.314,1.016A.557.557,0,0,1,2592.116,1698.741Z" transform="translate(-2591.616 -1696.76)"/></g><g transform="translate(111.965 47.112)"><path class="h" d="M2632.694,1750.737l-.081-.133.315-.2a.961.961,0,0,1,1.155.043l.2.16-.1.122-.2-.157a.812.812,0,0,0-.97-.039Z" transform="translate(-2632.612 -1750.234)"/></g><g transform="translate(116.98 47.588)"><ellipse class="u" cx="1.619" cy="1.106" rx="1.619" ry="1.106"/></g><g transform="translate(105.45 47.588)"><ellipse class="v" cx="1.619" cy="1.106" rx="1.619" ry="1.106"/></g><g transform="translate(112.555 48.953)"><path class="w" d="M2635.946,1758.755a2.821,2.821,0,0,1-1.031-.193l.085-.191a2.271,2.271,0,0,0,2.869-.948l.179.113A2.4,2.4,0,0,1,2635.946,1758.755Z" transform="translate(-2634.915 -1757.422)"/></g><g transform="translate(104.7 40.756)"><circle class="x" cx="3.711" cy="3.711" r="3.711"/></g><g transform="translate(104.646 40.702)"><path class="y" d="M2607.8,1732.732a3.765,3.765,0,1,1,3.766-3.765h0A3.768,3.768,0,0,1,2607.8,1732.732Zm0-7.431a3.662,3.662,0,1,0,3.659,3.664h0v0a3.663,3.663,0,0,0-3.659-3.652Z" transform="translate(-2604.031 -1725.202)"/></g><g transform="translate(113.268 40.756)"><circle class="x" cx="3.711" cy="3.711" r="3.711"/></g><g transform="translate(113.214 40.702)"><path class="y" d="M2641.257,1732.732a3.765,3.765,0,1,1,3.765-3.765h0A3.769,3.769,0,0,1,2641.257,1732.732Zm0-7.431a3.662,3.662,0,1,0,3.662,3.661h0v0a3.664,3.664,0,0,0-3.662-3.652Z" transform="translate(-2637.491 -1725.202)"/></g><g transform="translate(108.235 44.443)"><path class="w" d="M2620.019,1740.728a.95.95,0,0,0-.926-.71.916.916,0,0,0-.851.606l-.194-.079a1.125,1.125,0,0,1,1.045-.737,1.157,1.157,0,0,1,1.126.87Z" transform="translate(-2618.049 -1739.809)"/></g><g transform="translate(115.068 44.443)"><path class="w" d="M2646.7,1740.728a.95.95,0,0,0-.925-.71.916.916,0,0,0-.852.606l-.193-.079a1.125,1.125,0,0,1,1.045-.737,1.156,1.156,0,0,1,1.125.87Z" transform="translate(-2644.731 -1739.809)"/></g><g transform="translate(107.501 43.068)"><path class="w" d="M2615.342,1735.275l-.162-.133a1.692,1.692,0,0,1,2.252-.464l-.083.191A1.48,1.48,0,0,0,2615.342,1735.275Z" transform="translate(-2615.18 -1734.441)"/></g><g transform="translate(115.318 43.028)"><path class="w" d="M2647.846,1735.087a1.51,1.51,0,0,0-2.052-.332l-.088-.189a1.7,1.7,0,0,1,2.292.38Z" transform="translate(-2645.706 -1734.284)"/></g><g transform="translate(112.07 44.425)"><path class="y" d="M2633.106,1740.093l-.085-.113a.954.954,0,0,1,1.262,0l-.1.1A.814.814,0,0,0,2633.106,1740.093Z" transform="translate(-2633.021 -1739.742)"/></g><g transform="translate(93.229 56.851)"><path class="j" d="M2559.755,1790.386a3.063,3.063,0,0,1-.209-2.118l.151.033c0,.014-.3,1.353.184,1.988Z" transform="translate(-2559.445 -1788.268)"/></g><g transform="translate(92.127 57.291)"><path class="n" d="M2556.3,1791.194a1.353,1.353,0,0,1-.982-.485.992.992,0,0,1-.168-.723l.1.02a.889.889,0,0,0,.151.642,1.246,1.246,0,0,0,.9.45Z" transform="translate(-2555.141 -1789.986)"/></g><g class="i" transform="translate(85.9 57.776)"><path class="j" d="M2535.329,1798.315c.75,0,1.735-1.421,1.735-1.421a4.164,4.164,0,0,1,1.146-4.344.678.678,0,0,0-.4-.118h.356a2.094,2.094,0,0,1-1.144-.553c-.75.868-1.461,1.738-2.211,2.567a4.448,4.448,0,0,1-1.067,1.027c-.237.158-.513.277-.75.434a3.328,3.328,0,0,0-.552.514c-.4.434-.831.868-1.225,1.3a1.51,1.51,0,0,0-.355.515,1.273,1.273,0,0,0-.039.4l.118.038A8.674,8.674,0,0,1,2535.329,1798.315Z" transform="translate(-2530.825 -1791.879)"/></g><g transform="translate(130.944 48.419)"><path class="z" d="M2709.217,1756.005l-2.489-.514.032-.153,2.488.514Z" transform="translate(-2706.728 -1755.338)"/></g><g transform="translate(130.683 68.608)"><path class="aa" d="M2708.1,1834.954a5.381,5.381,0,0,1-2.394-.639l.081-.135c.022.014,2.27,1.3,4.021.121l.088.128A3.152,3.152,0,0,1,2708.1,1834.954Z" transform="translate(-2705.709 -1834.179)"/></g><g transform="translate(114.161 48.802)"><path class="g" d="M2673.507,1762.927s-.9-3.554-8.531-3.95a26.225,26.225,0,0,1-6.832-1.815,6.679,6.679,0,0,0-6.436,1.3l-4.779,4.069s-2.567,3.75-5.4,4.383c0,0-.4,1.659,1.736,1.146l-.75,1.184a7.971,7.971,0,0,0-.987,2.408l-.242,1.153a1.657,1.657,0,0,0,.08,1.3c.275.432,1.027.592,1.894-.355,0,0,.277,2.646,2.45.394l.676-1.106-.277,1.5a1.423,1.423,0,0,0,.226.989c.315.394.868.675,1.777-.476l2.331-4.383-1.068,3.239s-1.144,1.421-.552,1.975c0,0,.829.9,2.567-1.146l1.619-3.04a46.794,46.794,0,0,0,4.265-6.756l1.027-.2a9.077,9.077,0,0,0,3.988,2.13s2.212.831,2.369,2.054a11.137,11.137,0,0,0,4.667-2.807,34.935,34.935,0,0,1,4.652-1.963Z" transform="translate(-2641.188 -1756.835)"/></g><g transform="translate(114.083 48.739)"><path class="h" d="M2649.157,1775.971a.857.857,0,0,1-.615-.225c-.61-.57.423-1.917.54-2.066l.777-2.353-1.9,3.573q-.676.858-1.234.858h0a.862.862,0,0,1-.676-.371,1.5,1.5,0,0,1-.255-1.045l.2-1.087-.45.74c-.734.766-1.338,1.063-1.8.9-.516-.178-.7-.856-.761-1.168a1.7,1.7,0,0,1-1.274.6.827.827,0,0,1-.635-.376,1.727,1.727,0,0,1-.088-1.367l.225-1.139a8.01,8.01,0,0,1,1-2.434l.648-1.027a1.525,1.525,0,0,1-1.405-.225,1.212,1.212,0,0,1-.241-1.054v-.047h.048c2.782-.617,5.337-4.315,5.362-4.351l.016-.016,4.778-4.067a6.813,6.813,0,0,1,6.518-1.315,25.9,25.9,0,0,0,6.81,1.8c7.519.39,8.542,3.8,8.6,4l.507,1.308-.092.018c-1.034.192-4.234,3.11-4.267,3.139a5.668,5.668,0,0,1-5.089,1.637l-.05-.013v-.051c-.148-1.164-2.3-1.982-2.319-1.991a9.306,9.306,0,0,1-3.986-2.121l-.944.183a47.475,47.475,0,0,1-4.258,6.731l-1.615,3.029a3.157,3.157,0,0,1-2.059,1.387Zm.993-5.526.144.061-1.081,3.263c-.3.378-1,1.455-.558,1.867a.709.709,0,0,0,.527.18c.378-.012,1.021-.248,1.925-1.317l1.611-3.027a46.73,46.73,0,0,0,4.26-6.756l.016-.038,1.112-.214.029.032a8.969,8.969,0,0,0,3.953,2.11c.1.036,2.2.837,2.418,2.065a5.565,5.565,0,0,0,4.892-1.612c.131-.119,3.1-2.829,4.254-3.153l-.45-1.148c0-.036-.993-3.5-8.458-3.892a26.254,26.254,0,0,1-6.862-1.824,6.662,6.662,0,0,0-6.354,1.3l-4.769,4.054c-.142.2-2.646,3.747-5.4,4.4a1.022,1.022,0,0,0,.207.86c.266.261.75.311,1.444.144l.189-.046-.856,1.353a7.881,7.881,0,0,0-.966,2.4l-.225,1.144a1.61,1.61,0,0,0,.065,1.243.677.677,0,0,0,.518.306,1.643,1.643,0,0,0,1.256-.676l.118-.128.018.174c0,.011.113,1,.676,1.2.408.14.955-.146,1.635-.849l.88-1.457-.353,1.921a1.35,1.35,0,0,0,.225.927.7.7,0,0,0,.548.307h0c.32,0,.691-.263,1.105-.786Z" transform="translate(-2640.885 -1756.586)"/></g><g transform="translate(116.158 60.266)"><path class="h" d="M2649.133,1807.08l-.146-.059.948-2.331,1.781-3.089.135.079-1.777,3.078Z" transform="translate(-2648.986 -1801.601)"/></g><g transform="translate(118.891 61.771)"><g transform="translate(0 0)"><rect class="h" width="4.346" height="0.155" transform="translate(0 3.831) rotate(-61.83)"/></g></g><g transform="translate(130.25 55.171)"><path class="ab" d="M2705.163,1781.7a3.207,3.207,0,0,1-1.144,1.735" transform="translate(-2704.019 -1781.704)"/></g><g transform="translate(130.199 55.159)"><path class="h" d="M2703.922,1783.466l-.1-.117a3.241,3.241,0,0,0,1.126-1.689l.156.023A3.327,3.327,0,0,1,2703.922,1783.466Z" transform="translate(-2703.818 -1781.66)"/></g><g transform="translate(116.192 56.808)"><g transform="translate(0 0)"><g transform="translate(0)"><rect class="h" width="3.943" height="0.104" transform="translate(0 3.237) rotate(-55.19)"/></g></g></g><g class="i" transform="translate(114.494 57.974)"><path class="j" d="M2642.488,1793.954a2.8,2.8,0,0,0,3.2-1.3l-1.42,2.053C2644.224,1794.745,2642.843,1795.219,2642.488,1793.954Z" transform="translate(-2642.488 -1792.652)"/></g><g transform="translate(128.908 59.2)"><path class="h" d="M2701.706,1799.484a3.83,3.83,0,0,0-2.927-1.889l.013-.155a4,4,0,0,1,3.067,1.979Z" transform="translate(-2698.779 -1797.44)"/></g><g transform="translate(94.326 7.744)"><path class="g" d="M2571.625,1618.978h0c-2.271.026-6.607-4.489-6.862-10.112l-1.033-12.371,20.51.375-3.829,15.768C2579.73,1616.24,2575.213,1619.716,2571.625,1618.978Z" transform="translate(-2563.731 -1596.495)"/></g><g transform="translate(92.932 15.15)"><g transform="translate(0 0)"><g transform="translate(0)"><ellipse class="g" cx="1.827" cy="2.314" rx="1.827" ry="2.314" transform="matrix(0.939, -0.344, 0.344, 0.939, 0, 1.256)"/></g></g></g><g transform="translate(94.127 19.354)"><circle class="a" cx="0.633" cy="0.633" r="0.633"/></g><g transform="translate(90.752 36.879)"><path class="k" d="M2554.308,1710.271l-4.535,18.281h3.276l3.411-13.974Z" transform="translate(-2549.773 -1710.271)"/></g><g transform="translate(99.661 18.355)"><path class="h" d="M2586.229,1643.393l-1.325-1.055a.882.882,0,0,1-.339-.693.987.987,0,0,1,.365-.775,3.868,3.868,0,0,0,.977-2.922l.148-.015a3.951,3.951,0,0,1-1.031,3.051.841.841,0,0,0-.311.659.737.737,0,0,0,.283.578l1.325,1.055Z" transform="translate(-2584.565 -1637.933)"/></g><g transform="translate(97.534 17.45)"><g transform="translate(0.032 0.041)"><ellipse class="m" cx="0.715" cy="0.502" rx="0.715" ry="0.502" transform="matrix(0.062, -0.998, 0.998, 0.062, 0, 1.428)"/></g><path class="m" d="M2576.741,1635.966a.731.731,0,0,1-.482-.818h0a.959.959,0,0,1,.194-.537.511.511,0,0,1,.43-.213.473.473,0,0,1,.331.172.915.915,0,0,1,.2.652.964.964,0,0,1-.194.537.51.51,0,0,1-.43.213Zm-.334-.81c-.022.353.15.643.387.666a.367.367,0,0,0,.3-.159.819.819,0,0,0,.162-.454.765.765,0,0,0-.16-.544.342.342,0,0,0-.228-.122.368.368,0,0,0-.3.159.815.815,0,0,0-.162.453Z" transform="translate(-2576.257 -1634.397)"/></g><g transform="translate(104.519 18.128)"><g transform="translate(0 0)"><g transform="translate(0)"><ellipse class="m" cx="0.715" cy="0.502" rx="0.715" ry="0.502" transform="translate(0 1.409) rotate(-80.066)"/></g><g transform="translate(0.033 0.008)"><path class="m" d="M2604.118,1638.638h0a.709.709,0,0,1-.432-.877h0a.916.916,0,0,1,.343-.588.48.48,0,0,1,.357-.091h0a.51.51,0,0,1,.368.309.961.961,0,0,1,.063.568C2604.743,1638.387,2604.43,1638.69,2604.118,1638.638Zm-.289-.852c-.06.349.079.664.312.7h0c.232.038.469-.211.53-.557a.807.807,0,0,0-.051-.479.367.367,0,0,0-.259-.226h0a.329.329,0,0,0-.247.065.76.76,0,0,0-.282.492Z" transform="translate(-2603.666 -1637.077)"/></g></g></g><g transform="translate(96.792 15.645)"><path class="m" d="M2573.36,1627.864a2.792,2.792,0,0,1,.808-.361,4.192,4.192,0,0,1,.823-.142,4.25,4.25,0,0,1,.836.022,2.83,2.83,0,0,1,.852.238l0,.045c-.552.06-1.1.1-1.657.144-.554.032-1.106.078-1.661.1Z" transform="translate(-2573.36 -1627.35)"/></g><g transform="translate(104.4 16.315)"><path class="m" d="M2603.083,1630.045a2.822,2.822,0,0,1,.882-.071,4.087,4.087,0,0,1,.823.141,4.222,4.222,0,0,1,.781.3,2.82,2.82,0,0,1,.723.508l-.012.043c-.54-.127-1.074-.278-1.61-.417-.533-.154-1.069-.3-1.6-.46Z" transform="translate(-2603.071 -1629.965)"/></g><g transform="translate(100.413 24.449)"><path class="m" d="M2591.312,1661.861s-3.176.356-3.812-.13C2587.5,1661.731,2589.43,1666.544,2591.312,1661.861Z" transform="translate(-2587.499 -1661.731)"/></g><g transform="translate(98.672 5.36)"><path class="m" d="M2580.7,1590.063c-.031,1.83,1,3.5,2.079,4.976a6.026,6.026,0,0,0,1.615,1.68,2.222,2.222,0,0,0,2.227.16,8.925,8.925,0,0,1-1.059-4.125c1.1,1.878,2.314,3.817,4.212,4.881,1.458.818,3.756,1.9,5.365,1.44.352-.1.194-1.107.455-1.364a2.66,2.66,0,0,0,.574-1.118c.726-2.244,1.445-4.682.677-6.911a1.457,1.457,0,0,0-.284-.534,1.642,1.642,0,0,0-.665-.374,26.486,26.486,0,0,0-11.215-1.5,4.6,4.6,0,0,0-1.612.351,4.9,4.9,0,0,0-1.646,1.546" transform="translate(-2580.702 -1587.184)"/></g><g transform="translate(93.297 6.323)"><path class="m" d="M2564.977,1592.676a10.867,10.867,0,0,0,.927,5.858l-2.027.158a.443.443,0,0,1-.275-.038.433.433,0,0,1-.144-.214,10.7,10.7,0,0,1-.773-3.481c-.432,1.45-.047,3,.021,4.512,0,.082.138.626.082.684a.263.263,0,0,1-.3.034c-.608-.235-1.364.512-1.972.278-.177-.068-.378-1.6-.511-1.74a1.28,1.28,0,0,1-.27-.831,22.027,22.027,0,0,1,.3-4.647,2.99,2.99,0,0,1,.748-1.868,2.014,2.014,0,0,1,1.846-.339,5.327,5.327,0,0,1,1.709.926" transform="translate(-2559.713 -1590.948)"/></g><g transform="translate(97.655 6.407)"><path class="m" d="M2576.728,1591.273s.411,6.37,5.278,9.067a4.645,4.645,0,0,0,2.5-.052s-2.7-3.238-1.642-6.226Z" transform="translate(-2576.728 -1591.273)"/></g><g transform="translate(96.161 9.361)"><path class="m" d="M2573.069,1602.995s.7,4.311,2.364,5.573l-2.781.076a6.524,6.524,0,0,1-1.663-5.834Z" transform="translate(-2570.895 -1602.81)"/></g><g transform="translate(109.877 16.331)"><g transform="translate(0 0)"><g transform="translate(0)"><ellipse class="g" cx="2.198" cy="1.815" rx="2.198" ry="1.815" transform="matrix(0.397, -0.918, 0.918, 0.397, 0, 4.036)"/></g></g></g><g transform="translate(112.1 20.353)"><circle class="a" cx="0.666" cy="0.666" r="0.666"/></g><g transform="translate(62.907 9.367)"><path class="ac" d="M2441.043,1604.638l1.942-1.438,1.282-.349a.651.651,0,0,1,.74.346h0a.307.307,0,0,1-.144.4l-1.406.6-.97,1.494,2.067-.669,1.255.65a.4.4,0,0,1,.22.459h0a.428.428,0,0,1-.49.354.4.4,0,0,1-.073-.019l-.9-.282-3.531,1.25s4.351.034,3.99,1.523l-2.6-.52-.613-2.043Z" transform="translate(-2441.032 -1602.833)"/></g><g transform="translate(78.161 37.608)"><path class="ad" d="M2500.6,1713.119a.92.92,0,0,1,.169.046Z" transform="translate(-2500.601 -1713.119)"/></g><g transform="translate(90.966 62.726)"><path class="k" d="M2554.7,1811.825l-3.528,1.8-.56-.606.977-.857s1.366-.824,1.42-.855c.082-.033.8-.1.8-.1Z" transform="translate(-2550.609 -1811.21)"/></g><g transform="translate(91.713 63.774)"><path class="k" d="M2557.059,1815.3l-3.531,1.748.554,1,.729.153s1.143-.368,1.252-.4a6.509,6.509,0,0,0,1.127-.645,1.007,1.007,0,0,0,.249-.512c.02-.139.087-.421.087-.421Z" transform="translate(-2553.528 -1815.301)"/></g><g transform="translate(92.14 64.276)"><path class="k" d="M2558.241,1817.262s1.712,2.868,2.976,4.681l-2.9,1.6a14.239,14.239,0,0,1-3.124-4.341Z" transform="translate(-2555.191 -1817.262)"/></g><g transform="translate(92.024 64.535)"><path class="ae" d="M2558.723,1818.272l-3.984,2.079.82.287a1.857,1.857,0,0,0,1.432-.135l.646-.341a2.006,2.006,0,0,0,1.046-1.61Z" transform="translate(-2554.739 -1818.272)"/></g><g transform="translate(90.806 62.179)"><path class="ae" d="M2550.6,1810.215l2.1-1.031a1.079,1.079,0,0,1,1.408.42l1.044,1.826-.457.247-1.044-1.825c0-.027-.029-.025-.058-.051-.593.282-2.427,1.188-3.1,1.531a.391.391,0,0,0,.064.163l1.129,1.876-.518.139-1.041-1.77a1.036,1.036,0,0,1-.1-.853A1.146,1.146,0,0,1,2550.6,1810.215Z" transform="translate(-2549.983 -1809.072)"/></g><g transform="translate(87.203 44.895)"><circle class="af" cx="0.359" cy="0.359" r="0.359"/></g><g transform="translate(85.161 55.727)"><path class="t" d="M2527.939,1784.48l.029.026c.1.216.631,1.378.969,1.968l.664-.536a4.8,4.8,0,0,0,.054-1.028,3.888,3.888,0,0,0-.4-.753,2.094,2.094,0,0,0-.431-.281" transform="translate(-2527.939 -1783.875)"/></g><g transform="translate(90.1 52.469)"><path class="t" d="M2548.812,1773.792l-.84-2.64s-.7.842-.726.9-.023,1.082-.02,1.137a2.431,2.431,0,0,0,.071.273Z" transform="translate(-2547.225 -1771.152)"/></g><g transform="translate(62.405 19.274)"><g transform="translate(0 0)"><g transform="translate(0)"><rect class="af" width="0.921" height="5.556" transform="translate(0 0.909) rotate(-80.538)"/></g></g></g><g transform="translate(63.1 18.539)"><circle class="af" cx="0.36" cy="0.36" r="0.36"/></g><g transform="translate(60.646 8.166)"><path class="s" d="M2434.747,1608l.07-.724s-2.661-4.007-2.612-4.12c.048-.141,2.268-4.532,2.268-4.532l2.522-.473a.575.575,0,0,1,.683.442.557.557,0,0,1,.012.1h0a.323.323,0,0,1-.232.318l-1.909.522-.48,1.827,2.135-1.449,1.855-.02a.386.386,0,0,1,.345.23h0a.392.392,0,0,1-.2.518.4.4,0,0,1-.075.024l-1.319.184-1.542,1.665,2.281-.82,1.359.035a.322.322,0,0,1,.319.259h0a.324.324,0,0,1-.23.4l-.025.006-1.208.206-1.27,1.567a4.05,4.05,0,0,1,2,2.6l-.164,2.032Z" transform="translate(-2432.204 -1598.142)"/></g><g transform="translate(72.168 11.209)"><path class="y" d="M2478.531,1610.026s2.665,3.541,1,9.351l-2.072-2.073a16.458,16.458,0,0,0-.249-2.807A38.229,38.229,0,0,1,2478.531,1610.026Z" transform="translate(-2477.2 -1610.026)"/></g><g transform="translate(61.207 16.474)"><path class="ag" d="M2436.484,1632.8l-2.088-.68a2.212,2.212,0,0,1,3.792-.744,2.178,2.178,0,0,1,.505,1.139Z" transform="translate(-2434.396 -1630.587)"/></g><g transform="translate(55.761 16.248)"><path class="ag" d="M2414.821,1632.28l-.061-.077.023.025A.51.51,0,0,0,2414.821,1632.28Zm.425-.371-2.12-.651a2.17,2.17,0,0,1,.694-1.037,2.206,2.206,0,0,1,3.095.255l.062.077a2.1,2.1,0,0,1,.453,1.074Z" transform="translate(-2413.126 -1629.703)"/></g><g transform="translate(62.634 15.724)"><g transform="translate(0 0)"><g transform="translate(0)"><rect class="ag" width="0.906" height="3.794" rx="0.328" transform="translate(0 0.872) rotate(-74.22)"/></g></g></g><g transform="translate(55.105 15.835)"><g transform="translate(0 0)"><rect class="ag" width="3.794" height="0.906" rx="0.328" transform="translate(0 0.338) rotate(-5.11)"/></g></g><g transform="translate(57.373 19.657)"><g class="ah"><rect class="ai" width="3.099" height="5.697"/></g></g><g class="aj" transform="translate(72.65 16.651)"><path class="ak" d="M2479.083,1631.28s2.714-.072,2.292,3.118C2481.37,1634.4,2481.076,1631.749,2479.083,1631.28Z" transform="translate(-2479.083 -1631.28)"/></g><g transform="translate(72.623 24.998)"><path class="ab" d="M2478.978,1664.223l1.1-.347v.253a2.823,2.823,0,0,1-.649.121A2.929,2.929,0,0,1,2478.978,1664.223Z" transform="translate(-2478.978 -1663.876)"/></g><g transform="translate(54.155 6.267)"><path class="g" d="M2423.463,1590.727l2.179,9.879a2.93,2.93,0,0,1,.445-.061c1.729-.034,0,1.62.06,3.594.034,1.718.9.185.732,3.462v.419l-1.1-.377a2.91,2.91,0,0,0,.449.041,2.627,2.627,0,0,0,.649-.094l1.158,15.645-15.447,1.854,1.072-5.772c-.328.038-.83.993-1.158.974-2.942-.174-4.334-3.914-5.168-6.651l-.064-16.827v-.23l-.413-.12.288-2.238Z" transform="translate(-2406.856 -1590.727)"/></g><g transform="translate(61.687 18.329)"><g transform="translate(0 0)"><g transform="translate(0)"><ellipse class="m" cx="0.842" cy="0.736" rx="0.842" ry="0.736" transform="translate(0 1.675) rotate(-84.146)"/></g></g></g><g transform="translate(55.058 17.549)"><g transform="translate(0 0)"><g transform="translate(0)"><ellipse class="m" cx="0.774" cy="0.687" rx="0.774" ry="0.687" transform="translate(0 1.54) rotate(-84.146)"/></g></g></g><g transform="translate(63.346 16.032)"><path class="m" d="M2444.9,1630.13l-2.151-.615.256-.652,2.151.615Z" transform="translate(-2442.747 -1628.862)"/></g><g transform="translate(55.412 15.227)"><g transform="translate(0 0)"><g transform="translate(0)"><rect class="m" width="1.801" height="0.691" transform="translate(0 0.108) rotate(-3.437)"/></g></g></g><g transform="translate(57.758 26.674)"><path class="al" d="M2420.924,1670.421l2.816.223S2421.543,1673.169,2420.924,1670.421Z" transform="translate(-2420.924 -1670.421)"/></g><g transform="translate(72.749 35.074)"><path class="b" d="M2480.158,1703.737c-.3-.2-.525-.378-.691-.513A6.872,6.872,0,0,0,2480.158,1703.737Z" transform="translate(-2479.467 -1703.224)"/></g><g transform="translate(57.009 19.072)"><path class="h" d="M2420.386,1646.925c-1.378-.468-2.167-1.1-2.345-1.869a2.6,2.6,0,0,1,.967-2.258,2.273,2.273,0,0,0,.563-1.641v-.424h.276v.415a2.545,2.545,0,0,1-.64,1.841,2.362,2.362,0,0,0-.9,2.006c.155.673.884,1.234,2.165,1.671Z" transform="translate(-2418.001 -1640.732)"/></g><g transform="translate(54.625 24.285)"><path class="y" d="M2409.138,1663.533l-.449-2.442.151,4.526,1.257-.173Z" transform="translate(-2408.689 -1661.091)"/></g><g class="i" transform="translate(60.434 23.311)"><path class="j" d="M2433.357,1671.724h-1.982l1.484-5.753,10.747-8.682-.423,5.2a9.992,9.992,0,0,1-6.6,8.7A10.108,10.108,0,0,1,2433.357,1671.724Z" transform="translate(-2431.375 -1657.288)"/></g><g transform="translate(70.948 15.757)"><path class="am" d="M2472.461,1627.787l-.025.226A1.6,1.6,0,0,1,2472.461,1627.787Z" transform="translate(-2472.436 -1627.787)"/></g><g transform="translate(73.421 16.018)"><path class="ab" d="M2482.656,1628.805a1.864,1.864,0,0,1,.808.189,8.352,8.352,0,0,1-.321.937,1.927,1.927,0,0,1-.729.977,1.112,1.112,0,0,1-.324.121V1628.9A1.883,1.883,0,0,1,2482.656,1628.805Z" transform="translate(-2482.09 -1628.805)"/></g><g transform="translate(59.095 17.218)"><path class="a" d="M2429.547,1638.513a3.787,3.787,0,0,1-3.246-4.837l.054-.184,7.342.753.014.194a4.193,4.193,0,0,1-.009.674h0a3.791,3.791,0,0,1-4.135,3.4Zm-2.853-4.522a3.323,3.323,0,0,0,2.9,4.064h.016a3.33,3.33,0,0,0,3.633-2.988h0a4.01,4.01,0,0,0,.016-.405Z" transform="translate(-2426.146 -1633.492)"/></g><g transform="translate(51.513 16.44)"><path class="a" d="M2399.689,1635.435a3.673,3.673,0,0,1-3.128-4.132,3.761,3.761,0,0,1,.129-.665l.053-.185,6.843.7.013.193a4.019,4.019,0,0,1-.009.675A3.674,3.674,0,0,1,2399.689,1635.435Zm-2.6-4.482a3.382,3.382,0,0,0-.066.4,3.083,3.083,0,1,0,6.114.627,3.972,3.972,0,0,0,.016-.4Z" transform="translate(-2396.54 -1630.453)"/></g><g transform="translate(55.857 16.869)"><g transform="translate(0 0)"><g transform="translate(0)"><rect class="a" width="0.461" height="5.594" transform="translate(0 0.458) rotate(-84.146)"/></g></g></g><g transform="translate(66.232 16.637)"><g transform="translate(0 0)"><g transform="translate(0)"><rect class="a" width="7.358" height="0.46" transform="translate(0 1.34) rotate(-10.491)"/></g></g></g><g transform="translate(59.136 26.824)"><path class="a" d="M2426.305,1671.006a3.738,3.738,0,0,1,.239,2.161s3.6.206,4.149-2.161C2430.693,1671.006,2427.179,1671.337,2426.305,1671.006Z" transform="translate(-2426.305 -1671.006)"/></g><g transform="translate(54.636 15.678)"><path class="m" d="M2425.238,1632.131s-.117,4.866-3.073,5.99c0,0-9.438-2.914-13.281.416,0,0-1.79,10.291,6.953,9.814,0,0,12.246,1.838,11.726-15.632v-4.152l-1.284-1.087Z" transform="translate(-2408.734 -1627.48)"/></g><g transform="translate(59.895 26.257)"><path class="h" d="M2434.436,1668.791s-4.232.862-5.164.269C2429.272,1669.061,2432.473,1675.335,2434.436,1668.791Z" transform="translate(-2429.272 -1668.791)"/></g><g transform="translate(60.177 26.257)"><path class="a" d="M2430.372,1669.167s1.272.347,4.882-.376a4.393,4.393,0,0,1-.274.821,12.177,12.177,0,0,1-3.732.453.8.8,0,0,1-.481-.336Z" transform="translate(-2430.372 -1668.791)"/></g><g transform="translate(126.373 65.276)"><g transform="translate(0.234 0.296)"><path class="f" d="M2689.8,1829.763s6.9-8.79,15.319-7.261" transform="translate(-2689.795 -1822.323)"/></g><path class="f" d="M2689.35,1829.087l-.469-.369c.07-.089,7.1-8.912,15.607-7.371l-.107.587C2696.24,1820.453,2689.418,1829,2689.35,1829.087Z" transform="translate(-2688.88 -1821.167)"/><g transform="translate(0.128 0.162)"><path class="f" d="M2689.593,1829.457l-.214-.168a24.871,24.871,0,0,1,4.529-4.232c2.555-1.846,6.525-3.878,10.921-3.081l-.049.269c-4.3-.779-8.195,1.216-10.706,3.03A24.589,24.589,0,0,0,2689.593,1829.457Z" transform="translate(-2689.379 -1821.798)"/></g></g><g transform="translate(137.666 55.652)"><g transform="translate(0.288 0.298)"><path class="e" d="M2734.1,1790.916s1.782-7.063,11.816-6.074" transform="translate(-2734.105 -1784.747)"/></g><path class="e" d="M2733.556,1790.123l-.578-.146c.018-.073,1.96-7.3,12.135-6.3l-.058.594c-4.015-.4-7.275.5-9.435,2.584A7.738,7.738,0,0,0,2733.556,1790.123Z" transform="translate(-2732.978 -1783.583)"/></g><g transform="translate(73.341 17.106)"><path class="g" d="M2481.78,1633.065s3.766-.354,3.328,3.35a3.051,3.051,0,0,1-2.7,2.983l-.506-1.178Z" transform="translate(-2481.78 -1633.056)"/></g><g transform="translate(96.362 23.988)"><path class="h" d="M2577.635,1666.216c-3.708-.615-5.93-5.613-5.953-5.665l.136-.06c.022.052,2.213,4.976,5.84,5.577.129.021.258.037.391.047,2.608.2,5.31-1.881,8.028-6.184l.126.08c-2.751,4.353-5.5,6.457-8.166,6.253C2577.9,1666.254,2577.767,1666.238,2577.635,1666.216Z" transform="translate(-2571.683 -1659.932)"/></g><g transform="translate(106.939 21.137)"><path class="m" d="M2617.749,1648.8s-1.527,4.752-4.763,5.944c0,0,1.956,2.955,4.938,2.522l2.345-3.029Z" transform="translate(-2612.986 -1648.799)"/></g><g transform="translate(103.602 9.397)"><path class="m" d="M2599.953,1603.674a3.857,3.857,0,0,0,1.625,2.994,11.017,11.017,0,0,0,3.171,1.523,8.464,8.464,0,0,1,1.862.824,2.77,2.77,0,0,1,1.224,1.574l2.62-.413-1.4-3.926-4.608-2.9-2.409-.4Z" transform="translate(-2599.952 -1602.949)"/></g><path class="an" d="M2706.461,1818.953s-9.588.363-12.949,8.487" transform="translate(-2565.952 -1754.244)"/><g transform="translate(49.814 1.3)"><g transform="translate(18.859 5.13)"><g class="ao"><g transform="translate(-729.81 -160.91)"><g transform="translate(0 0)"><g class="ap" transform="translate(0 0)"><g transform="translate(726.243 157.495)"><path class="aq" d="M2451.229,1597.666l14.77-1.29-1.6-18.345-14.77,1.29Z" transform="translate(-2449.626 -1578.031)"/></g></g></g></g></g></g><g transform="translate(1.078 6.154)"><g class="ar"><g transform="translate(-738.641 -150.993)"><g transform="translate(0 0)"><g class="as" transform="translate(0)"><g transform="translate(734.664 147.405)"><path class="at" d="M2379.4,1597.656l10.789-.563-.821-15.741-10.789.562Z" transform="translate(-2378.583 -1581.353)"/></g></g></g></g></g></g><g class="au"><g transform="translate(-710.951 -155.78)"><g transform="translate(0 0)"><g class="ap" transform="translate(0)"><g transform="translate(706.464 150.562)"><path class="aq" d="M2374.377,1576.346l29.28-2.557-1.995-22.834-29.28,2.558Z" transform="translate(-2372.383 -1550.955)"/></g></g></g></g></g><g transform="translate(1.332 5.393)"><g class="av"><g transform="translate(-712.283 -161.172)"><g transform="translate(0 0)"><g class="ap" transform="translate(0 0)"><g transform="translate(708.512 156.095)"><path class="aw" d="M2381.388,1586.224l24.64-2.152-1.006-11.51-24.639,2.152Z" transform="translate(-2380.383 -1572.562)"/></g></g></g></g></g></g><g transform="translate(3.763 2.963)"><g class="ax"><g transform="translate(-714.713 -158.743)"><g transform="translate(0 0)"><g class="ap" transform="translate(0 0)"><g transform="translate(711.008 153.717)"><path class="aw" d="M2391.194,1577.491l22.949-2-1.066-12.209-22.949,2Z" transform="translate(-2390.127 -1563.277)"/></g></g></g></g></g></g></g><g transform="translate(0 36.519)"><g transform="translate(84.005 21.012)"><path class="ab" d="M2524.333,1796.656a3.282,3.282,0,0,1-.9-2.133,8.5,8.5,0,0,1,.9-3.6" transform="translate(-2523.425 -1790.92)"/></g><g transform="translate(83.947 21.001)"><path class="n" d="M2524.129,1796.662a3.314,3.314,0,0,1-.922-2.165,8.177,8.177,0,0,1,.9-3.579l.016-.038.1.041-.016.038a8.349,8.349,0,0,0-.9,3.531,3.207,3.207,0,0,0,.9,2.1Z" transform="translate(-2523.199 -1790.88)"/></g><g transform="translate(83.957 6.491)"><circle class="a" cx="0.664" cy="0.664" r="0.664"/></g><g transform="translate(82.35 11.368)"><circle class="af" cx="0.249" cy="0.249" r="0.249"/></g><g transform="translate(81.365 8.19)"><path class="s" d="M2513.935,1743.329a3.135,3.135,0,0,1-.821-1.81l.6-.671.587.106.425.17-.043.224Z" transform="translate(-2513.114 -1740.848)"/></g><g transform="translate(82.597 9.205)"><path class="af" d="M2526.755,1755.071l-1.862-6.045-1.192-3.289c-.923.017-3.732.239-4.992,2.264l-.782-.485c1.8-2.9,5.945-2.708,6.123-2.7l.3.016,1.414,3.9,1.869,6.067Z" transform="translate(-2517.927 -1744.813)"/></g><g transform="translate(54.655 0.179)"><path class="g" d="M2432.64,1711.909l-7.927-2.345-8.305,1.661-7.055,2.492s-1.661,7.471.827,8.716,9.135,2.077,9.547,2.492,4.152.411,5.813-.415,2.907-1.661,3.738-2.077,4.979-4.983,4.979-4.983Z" transform="translate(-2408.809 -1709.564)"/></g><g transform="translate(66.146 40.043)"><path class="ay" d="M2453.681,1873.574a74.069,74.069,0,0,0,8.547-8.335h20.933l-2.008,8.335Z" transform="translate(-2453.681 -1865.239)"/></g><g transform="translate(30.198 23.889)"><path class="g" d="M2319.71,1803.062l-6.413,36.566,8.422-1.021,6.891-22.969,2.06-5.629.755-5.538s-1.888-.993-1.654-1.986S2319.71,1803.062,2319.71,1803.062Z" transform="translate(-2313.297 -1802.156)"/></g><g transform="translate(36.528 8.223)"><path class="az" d="M2346.124,1740.977l-1.48.974a10.382,10.382,0,0,0-3.547,5.257l-3.076,10.589,10.192,1.08.313-7.55-.789-5.3C2347.611,1745.1,2346.124,1740.977,2346.124,1740.977Z" transform="translate(-2338.02 -1740.977)"/></g><g transform="translate(0 60.231)"><path class="ba" d="M2234.514,1944.077l-30.539,3.587a11.041,11.041,0,0,0-8.328,13.208h0v0l8.2,46.33,12.269,1.74v-43.363l21.174-.2,9.5-17.365Z" transform="translate(-2195.371 -1944.077)"/></g><g transform="translate(39.831 1.925)"><path class="az" d="M2403.224,1721.172l-1.932-.635c-7.124-2.208-9.505-3-13.847-4.152.415-.11-1.756,9.649-8.717,11.1-5.066,1.053-10.445-.679-10.06-9.577,0-.17-12.914,4.737-12.914,4.737l-4.835,52.99,44.417,5.81,8.41-34.806Z" transform="translate(-2350.919 -1716.384)"/></g><g transform="translate(39.004 23.829)"><path class="bb" d="M2391.146,1801.921s-5.283,20.351-43.46,39.031l45.247,4.152,8.3-34.451Z" transform="translate(-2347.686 -1801.921)"/></g><g transform="translate(81.442 3.991)"><path class="az" d="M2530.546,1744.428l-17.131.694,2.012-20.673,7.826,2.379a9.689,9.689,0,0,1,2.45,1.132,10.393,10.393,0,0,1,4.7,9.877Z" transform="translate(-2513.415 -1724.45)"/></g><g transform="translate(79.354 13.818)"><g transform="translate(0 0)"><g transform="translate(0)"><rect class="bc" width="13.502" height="0.461" transform="translate(0 13.415) rotate(-83.499)"/></g></g></g><g transform="translate(52.552 24.357)"><path class="g" d="M2429.378,1803.986l-.845,20.86-27.936,11.513v4.945l34.79-4.152a10.146,10.146,0,0,0,8.9-9.022l2.344-22.454Z" transform="translate(-2400.597 -1803.986)"/></g><g transform="translate(79.264 20.416)"><path class="bc" d="M2504.91,1795.752l18.392,1.355a.932.932,0,0,0,1-.849l.472-5.549a.754.754,0,0,0-.681-.821h0l-.02,0-18.328-1.291Z" transform="translate(-2504.91 -1788.595)"/></g><g transform="translate(59.404)"><path class="h" d="M2427.806,1714.469l-.453-.084,1.023-5.519.453.084Z" transform="translate(-2427.353 -1708.866)"/></g><g class="i" transform="translate(38.585 25.497)"><path class="j" d="M2348.542,1808.437l-2.491,14.115,3.424-1.71,1.144-11.985Z" transform="translate(-2346.051 -1808.437)"/></g><g transform="translate(36.213 21.238)"><path class="bc" d="M2337.474,1796l5.972.99.215-4.685-5.583-.5a.755.755,0,0,0-.8.653l-.472,2.5A.876.876,0,0,0,2337.474,1796Z" transform="translate(-2336.79 -1791.802)"/></g><g transform="translate(42.638 15.887)"><path class="bc" d="M2362.858,1770.909l.459.043-.978,10.513-.459-.043.978-10.513" transform="translate(-2361.88 -1770.909)"/></g><g transform="translate(14.655 60.303)"><path class="t" d="M2323.022,1948.151l-46.493-3.738c-6.115-.626-12.321,4.47-13.45,10.517l-10.48,56.727,10.827,3.092s11.857-29.241,18.5-48.75l27.509.155c5.534.2,9.951-3.348,11.366-9.06Z" transform="translate(-2252.6 -1944.36)"/></g><g transform="translate(21.756 63.465)"><path class="az" d="M2281.207,2018.483l-.876-.288,15.976-48.524a4.9,4.9,0,0,1,4.791-3.337l21.608.721c4.514.266,7.953-.732,10.238-2.96a10.787,10.787,0,0,0,2.982-7.356l.921-.032a11.536,11.536,0,0,1-3.251,8.039c-2.478,2.422-6.154,3.511-10.932,3.228l-21.6-.72a3.946,3.946,0,0,0-3.885,2.705Z" transform="translate(-2280.331 -1956.707)"/></g><g transform="translate(72.084 48.683)"><path class="h" d="M2483.213,1905.81c-.74-6.3-6.288-6.369-6.344-6.369v-.461c.06,0,6.013.076,6.8,6.776Z" transform="translate(-2476.869 -1898.98)"/></g><g transform="translate(68.434 49.96)"><path class="h" d="M2469.526,1909.562c-1.85-5.912-6.626-5.13-6.828-5.093l-.083-.454c.054-.008,5.376-.9,7.35,5.41Z" transform="translate(-2462.615 -1903.967)"/></g><g transform="translate(66.87 50.836)"><path class="h" d="M2461.494,1913.6c-.369-5.518-4.8-5.747-4.983-5.755l.016-.459c.05,0,5.029.243,5.427,6.184Z" transform="translate(-2456.511 -1907.39)"/></g><g transform="translate(64.422 51.582)"><path class="h" d="M2451.752,1916.188l-.459-.034a4.924,4.924,0,0,0-1.495-4.4,4.14,4.14,0,0,0-2.621-.99l-.229-.393a3.455,3.455,0,0,1,2.381.508C2450.568,1911.56,2451.993,1913.032,2451.752,1916.188Z" transform="translate(-2446.948 -1910.301)"/></g><g transform="translate(62.571 51.92)"><path class="h" d="M2443.273,1917.549l-.455-.076a4.444,4.444,0,0,0-3.1-5.4l.113-.447A4.96,4.96,0,0,1,2443.273,1917.549Z" transform="translate(-2439.72 -1911.624)"/></g><g transform="translate(80.452 44.907)"><path class="h" d="M2518.312,1888.514c-2.19-4.666-8.626-3.748-8.692-3.74l-.07-.455c.069-.01,6.842-.979,9.179,4Z" transform="translate(-2509.55 -1884.236)"/></g><g class="i" transform="translate(80.487 27.717)"><path class="j" d="M2510.4,1817.105l-.717,17.5s4.862-.661,7.682,2.083l1.253-18.985Z" transform="translate(-2509.687 -1817.105)"/></g><g transform="translate(40.543 55.411)"><path class="g" d="M2364.521,1926.01l-8.916,3.02c-1.371.559-1.272,1.8-1.782,3.19h0a2.049,2.049,0,0,0,.967,2.517l1.887.99a2.032,2.032,0,0,0,2.745-.845c.026-.046.047-.093.068-.14l.377-.834,3.907-.582a4.452,4.452,0,0,0,3.311-2.378l.241-.476,3.25-.483-1.737-4.734-3.446.514A3.846,3.846,0,0,0,2364.521,1926.01Z" transform="translate(-2353.697 -1925.255)"/></g></g></g><g transform="translate(13.105 28.188)"><path class="bd" d="M1885.493,1497.881h-7.148c-.014,9.72-.028,16.015-.041,25.735-3.071-9.485-6.146-15.764-9.228-25.735h-6.864v45.565c2.317-.33,4.8-.646,7.117-.949.007-9.524.013-15.378.02-24.9,3.192,9.374,5.154,14.9,8.337,23.812,2.495-.285,5.236-.636,7.733-.889q.037-21.319.074-42.638" transform="translate(-1862.212 -1497.881)"/><path class="bd" d="M1965.319,1497.881h-19.8q-.04,21.019-.08,42.038,9.936-.9,19.891-1.477c0-2.049.007-4.994.011-7.042-4.315.265-8.443.541-12.743.83.008-3.767.015-6.883.022-10.65,3.143-.054,6.462-.006,9.672-.061,0-2.059.008-5.015.011-7.074-3.181.057-6.541.063-9.671.123.007-3.767.014-5.834.022-9.6,1.969-.023,3.9-.027,5.825-.027h2.024c1.607,0,3.22,0,4.861-.016,0-2.049-.049-4.992-.045-7.041" transform="translate(-1915.34 -1497.881)"/><path class="bd" d="M2035.279,1497.969H2013.23c0,2.035-.007,4.967-.01,7q.475,0,.949,0c.958,0,1.916.009,2.874.019s1.914.019,2.871.019l.736,0c-.014,11.3-.029,21.615-.044,32.911,2.333-.087,4.829-.159,7.162-.219.011-11.235.021-21.491.032-32.726,2.465-.01,5.011-.017,7.476-.022,0-2,0-4.98,0-6.981" transform="translate(-1958.61 -1497.937)"/><path class="bd" d="M2106.917,1497.881h-19.883q0,19.785-.006,39.568c.768,0,1.546,0,2.326,0,1.59,0,3.192.006,4.758.018,0-5.6,0-10.705-.005-16.3q.586,0,1.181,0c.925,0,1.864,0,2.807-.008s1.891-.008,2.83-.008c.968,0,1.927,0,2.864.017,0-2.007,0-4.992-.005-7-.885-.009-1.79-.012-2.7-.012-.979,0-1.967,0-2.952.007s-1.963.007-2.925.007l-1.1,0c0-3.6,0-5.629,0-9.228h7.038c1.921,0,3.844,0,5.782.011,0-2.011,0-5.057-.006-7.068" transform="translate(-2005.726 -1497.881)"/><path class="bd" d="M2154.8,1497.97c.018,13.317-.046,26.633-.029,39.95,6.357.237,13.037.493,19.386.932,0-2.048-.008-4.994-.012-7.042-4.019-.236-8.2-.52-12.223-.687-.018-11.4.045-21.748.027-33.152H2154.8" transform="translate(-2048.968 -1497.938)"/><path class="bd" d="M2224.6,1497.973q.041,20.657.081,41.315c2.329.18,4.739.373,7.066.58q.012-20.933,0-41.894H2224.6" transform="translate(-2093.548 -1497.94)"/><path class="bd" d="M2260.031,1497.975c2.859,6.964,5.474,13.946,8.376,21.341-3.017,7.1-6.088,14.159-9.1,20.973,2.5.246,5.079.607,7.573.885,1.789-4.388,3.417-7.766,5.209-12.273,1.788,4.8,3.414,8.51,5.2,13.465,2.49.323,5.719.787,8.206,1.141-3.015-8.06-6.312-16.451-9.344-24.068,3.019-7.153,6.1-13.982,9.236-21.461h-7.805c-1.936,4.623-3.267,7.593-5.122,11.993-1.728-4.578-2.887-7.541-4.618-11.994h-7.806" transform="translate(-2115.701 -1497.941)"/></g><g transform="translate(21.422 9.74)"><path class="be" d="M1889.717,1455.979V1449.6a.927.927,0,0,1,.979-1.042h2.135c2.173,0,3.381.966,3.381,2.783s-1.169,2.77-3.368,2.77H1891.6v1.868a.757.757,0,0,1-.826.852h-.267C1890,1456.83,1889.717,1456.538,1889.717,1455.979Zm4.664-4.626c0-.876-.546-1.334-1.589-1.334h-1.22v2.682h1.232C1893.835,1452.7,1894.381,1452.23,1894.381,1451.353Z" transform="translate(-1889.717 -1447.947)"/><path class="be" d="M1912.781,1453.758a3.26,3.26,0,1,1-3.317,3.241A3.122,3.122,0,0,1,1912.781,1453.758Zm-.012,1.4a1.861,1.861,0,1,0,1.716,1.868A1.728,1.728,0,0,0,1912.769,1455.156Z" transform="translate(-1902.323 -1451.267)"/><path class="be" d="M1934.97,1454.8a.926.926,0,0,1-.573.94,1.239,1.239,0,0,0-.813-.3c-.864,0-1.245.762-1.245,2.008v1.855c0,.648-.331.852-.788.852h-.19c-.483,0-.813-.191-.813-.852v-5.261c0-.063.305-.2.673-.2a.99.99,0,0,1,.979.673,2.805,2.805,0,0,1,.089.432,1.549,1.549,0,0,1,1.538-1.182A1.018,1.018,0,0,1,1934.97,1454.8Z" transform="translate(-1915.781 -1451.267)"/><path class="be" d="M1950.436,1454.9v-7.828a.992.992,0,0,1,.673-.2c.534,0,1.119.28,1.119,1.436v6.6c0,.648-.331.852-.788.852h-.19C1950.779,1455.753,1950.436,1455.563,1950.436,1454.9Z" transform="translate(-1928.478 -1446.87)"/><path class="be" d="M1962.356,1456.4h.2a.754.754,0,0,0-.013-.178,1.1,1.1,0,0,0-1.258-1.118,1.554,1.554,0,0,0-1.525.9c-.013.025-1.156.114-1.156-.712a1.134,1.134,0,0,1,.382-.813,3.341,3.341,0,0,1,2.414-.724c1.97,0,2.923.9,2.923,2.567v3.66c0,.089-.33.2-.673.2a.926.926,0,0,1-.94-.6,2.563,2.563,0,0,1-.1-.42,2.477,2.477,0,0,1-2.147,1.068c-1.3,0-2.084-.712-2.084-1.779C1958.378,1457.075,1959.725,1456.439,1962.356,1456.4Zm.2.9h-.343c-1.41.051-2.16.318-2.16,1.017,0,.47.368.763.966.763a1.4,1.4,0,0,0,1.538-1.334Z" transform="translate(-1933.548 -1451.267)"/><path class="be" d="M1986.707,1453.758a3.141,3.141,0,0,1,2.033.623,1.5,1.5,0,0,1,.61,1.068c0,.724-.966.865-1,.788a1.528,1.528,0,0,0-1.563-1.03,1.816,1.816,0,0,0,0,3.622,1.551,1.551,0,0,0,1.563-1.03c.038-.076,1,.026,1,.8a1.433,1.433,0,0,1-.623,1.042,3.083,3.083,0,0,1-2.021.635,3.26,3.26,0,0,1,0-6.519Z" transform="translate(-1949.562 -1451.267)"/><path class="be" d="M2004.843,1453.758a3.26,3.26,0,1,1-3.316,3.241A3.122,3.122,0,0,1,2004.843,1453.758Zm-.012,1.4a1.861,1.861,0,1,0,1.715,1.868A1.728,1.728,0,0,0,2004.831,1455.156Z" transform="translate(-1961.092 -1451.267)"/><path class="be" d="M2032.573,1456.224v3.075c0,.648-.33.852-.788.852h-.191c-.483,0-.814-.191-.814-.852v-2.8c0-.813-.355-1.245-1.08-1.245a1.444,1.444,0,0,0-1.22.762v3.279c0,.648-.331.852-.788.852h-.19c-.47,0-.813-.191-.813-.852v-2.758c0-.851-.356-1.283-1.068-1.283a1.444,1.444,0,0,0-1.22.762v3.279c0,.648-.331.852-.788.852h-.191c-.483,0-.813-.191-.813-.852v-5.261c0-.063.317-.2.673-.2.445,0,.928.19,1.068,1.016a2.228,2.228,0,0,1,1.919-1.093,1.961,1.961,0,0,1,1.982,1.271,2.317,2.317,0,0,1,2.084-1.271C2031.912,1453.758,2032.573,1454.762,2032.573,1456.224Z" transform="translate(-1974.55 -1451.267)"/><path class="be" d="M2060.353,1457c0,1.932-1.169,3.279-2.872,3.279a2.195,2.195,0,0,1-1.983-1.131v2.567c0,.648-.33.864-.788.864h-.191c-.483,0-.813-.2-.813-.864v-7.676c0-.063.318-.2.687-.2a1,1,0,0,1,1.029.864c.013.051.025.178.038.279a2.173,2.173,0,0,1,2.033-1.22C2059.171,1453.758,2060.353,1455.016,2060.353,1457Zm-1.716.013a1.635,1.635,0,0,0-3.139-.8v1.169a1.472,1.472,0,0,0,1.538,1.462A1.631,1.631,0,0,0,2058.637,1457.012Z" transform="translate(-1994.401 -1451.267)"/><path class="be" d="M2079.352,1454.8a.926.926,0,0,1-.572.94,1.24,1.24,0,0,0-.813-.3c-.864,0-1.245.762-1.245,2.008v1.855c0,.648-.331.852-.788.852h-.191c-.483,0-.813-.191-.813-.852v-5.261c0-.063.305-.2.673-.2a.99.99,0,0,1,.979.673,2.832,2.832,0,0,1,.089.432,1.549,1.549,0,0,1,1.538-1.182A1.017,1.017,0,0,1,2079.352,1454.8Z" transform="translate(-2007.95 -1451.267)"/><path class="be" d="M2092.191,1456.4h.2a.754.754,0,0,0-.013-.178,1.1,1.1,0,0,0-1.258-1.118,1.554,1.554,0,0,0-1.525.9c-.013.025-1.156.114-1.156-.712a1.133,1.133,0,0,1,.381-.813,3.342,3.342,0,0,1,2.414-.724c1.97,0,2.923.9,2.923,2.567v3.66c0,.089-.33.2-.673.2a.927.927,0,0,1-.941-.6,2.593,2.593,0,0,1-.1-.42,2.478,2.478,0,0,1-2.147,1.068c-1.3,0-2.084-.712-2.084-1.779C2088.213,1457.075,2089.56,1456.439,2092.191,1456.4Zm.2.9h-.343c-1.41.051-2.16.318-2.16,1.017,0,.47.369.763.966.763a1.4,1.4,0,0,0,1.538-1.334Z" transform="translate(-2016.429 -1451.267)"/><path class="be" d="M2113.3,1452.615c0-1.97,1.169-3.253,2.885-3.253a2.325,2.325,0,0,1,1.957.941v-3.228a.991.991,0,0,1,.673-.2c.534,0,1.118.28,1.118,1.436v6.6c0,.648-.318.852-.788.852h-.178c-.407,0-.712-.14-.775-.623-.013-.14-.026-.28-.026-.432a2.25,2.25,0,0,1-2.021,1.182C2114.47,1455.88,2113.3,1454.559,2113.3,1452.615Zm4.854-.826a1.574,1.574,0,0,0-1.538-.991,1.616,1.616,0,0,0-1.614,1.817,1.65,1.65,0,0,0,1.589,1.83,1.491,1.491,0,0,0,1.563-1.487Z" transform="translate(-2032.444 -1446.87)"/><path class="be" d="M2137.74,1453.758a2.952,2.952,0,0,1,3.088,3.1v.115c-.013.3-.1.47-.432.47h-4.3l.038.2a1.722,1.722,0,0,0,1.779,1.335,1.849,1.849,0,0,0,1.741-.9c.012-.025.877.051.877.763a1.212,1.212,0,0,1-.687.966,3.8,3.8,0,0,1-1.982.47,3.08,3.08,0,0,1-3.342-3.228A3.152,3.152,0,0,1,2137.74,1453.758Zm-.013,1.233a1.6,1.6,0,0,0-1.6,1.474h3.05A1.408,1.408,0,0,0,2137.728,1454.991Z" transform="translate(-2045.993 -1451.267)"/><path class="be" d="M2159.684,1455.474v-2.847h-.318c-.508,0-.737-.229-.737-.635v-.1c0-.419.229-.661.724-.661h.331v-.788c0-.585.292-.864.8-.864h.165c.47,0,.788.2.788.864v.788h1.08c.508,0,.724.216.724.623v.114c0,.432-.229.661-.737.661h-1.093v2.644c0,.61.191.915.686.915a.91.91,0,0,0,.775-.419.7.7,0,0,1,.445.7.908.908,0,0,1-.305.687,1.852,1.852,0,0,1-1.334.458C2160.319,1457.609,2159.684,1456.885,2159.684,1455.474Z" transform="translate(-2061.379 -1448.598)"/><path class="be" d="M2179.6,1454.833v5.248c0,.064-.318.2-.673.2a.994.994,0,0,1-1-.673,2.088,2.088,0,0,1-.064-.344,2.342,2.342,0,0,1-2.046,1.131c-1.614,0-2.288-1.131-2.288-2.567v-3c0-.648.331-.864.775-.864h.2c.47,0,.8.2.8.864v2.732c0,.839.432,1.335,1.169,1.335a1.507,1.507,0,0,0,1.347-.813v-3.253c0-.648.318-.864.775-.864h.19C2179.272,1453.969,2179.6,1454.172,2179.6,1454.833Z" transform="translate(-2070.891 -1451.402)"/><path class="be" d="M2198.9,1458.88a.788.788,0,0,1,.546-.712,2.712,2.712,0,0,0,2.046.839c.7,0,1.08-.241,1.08-.635,0-.483-.5-.572-1.321-.75-.852-.178-2.174-.458-2.174-1.856,0-1.207.979-2.008,2.58-2.008a2.724,2.724,0,0,1,2.351.826.915.915,0,0,1,.153.508.889.889,0,0,1-.572.75,2.463,2.463,0,0,0-1.817-.839c-.686,0-1.055.254-1.055.648,0,.445.483.534,1.322.725.877.191,2.275.47,2.275,1.868,0,1.246-.991,2-2.732,2a4.078,4.078,0,0,1-2.135-.47A1.08,1.08,0,0,1,2198.9,1458.88Z" transform="translate(-2087.085 -1451.267)"/><path class="be" d="M2219.084,1453.758a2.952,2.952,0,0,1,3.088,3.1v.115c-.013.3-.1.47-.432.47h-4.295l.038.2a1.722,1.722,0,0,0,1.779,1.335,1.848,1.848,0,0,0,1.741-.9c.013-.025.876.051.876.763a1.212,1.212,0,0,1-.686.966,3.8,3.8,0,0,1-1.982.47,3.08,3.08,0,0,1-3.342-3.228A3.152,3.152,0,0,1,2219.084,1453.758Zm-.013,1.233a1.6,1.6,0,0,0-1.6,1.474h3.05A1.408,1.408,0,0,0,2219.072,1454.991Z" transform="translate(-2097.919 -1451.267)"/><path class="be" d="M2234.1,1459.575c0-.876.813-1.474,1.932-1.639a.784.784,0,0,1-.229-.572.87.87,0,0,1,.432-.712,2.118,2.118,0,0,1-1.7-2.046,2.546,2.546,0,0,1,2.821-2.351,3.205,3.205,0,0,1,1.322.292l.28-.521a.961.961,0,0,1,.889-.622.974.974,0,0,1,.877.75l-1.068,1.055a2.032,2.032,0,0,1,.547,1.372c0,1.283-1.055,2.173-2.669,2.211-.089,0-.165.013-.254.013a.233.233,0,0,0,.089.2c.089.3.623.343,1.487.572s1.792.7,1.792,1.741c0,1.195-1.22,1.957-3.342,1.957C2235.1,1461.279,2234.1,1460.719,2234.1,1459.575Zm4.867-.076c0-.407-.445-.572-1.029-.724-.178-.038-.368-.089-.572-.127-.915.064-1.614.381-1.614.915,0,.47.533.737,1.589.737S2238.972,1460.008,2238.972,1459.5Zm-.406-4.918a1.2,1.2,0,0,0-2.4,0,1.2,1.2,0,0,0,2.4,0Z" transform="translate(-2109.561 -1449.765)"/><path class="be" d="M2260,1454.833v5.248c0,.064-.318.2-.673.2a1,1,0,0,1-1-.673,2.141,2.141,0,0,1-.064-.344,2.342,2.342,0,0,1-2.046,1.131c-1.614,0-2.287-1.131-2.287-2.567v-3c0-.648.331-.864.776-.864h.2c.47,0,.8.2.8.864v2.732c0,.839.432,1.335,1.169,1.335a1.507,1.507,0,0,0,1.347-.813v-3.253c0-.648.318-.864.775-.864h.191C2259.666,1453.969,2260,1454.172,2260,1454.833Z" transform="translate(-2122.211 -1451.402)"/><path class="be" d="M2278.866,1454.8a.927.927,0,0,1-.572.94,1.241,1.241,0,0,0-.813-.3c-.864,0-1.245.762-1.245,2.008v1.855c0,.648-.33.852-.788.852h-.191c-.483,0-.813-.191-.813-.852v-5.261c0-.063.3-.2.673-.2a.99.99,0,0,1,.978.673,2.859,2.859,0,0,1,.089.432,1.549,1.549,0,0,1,1.538-1.182A1.018,1.018,0,0,1,2278.866,1454.8Z" transform="translate(-2135.311 -1451.267)"/><path class="be" d="M2290.339,1453.758a3.26,3.26,0,1,1-3.317,3.241A3.122,3.122,0,0,1,2290.339,1453.758Zm-.013,1.4a1.861,1.861,0,1,0,1.716,1.868A1.728,1.728,0,0,0,2290.327,1455.156Z" transform="translate(-2143.341 -1451.267)"/></g><g transform="translate(31.709 76.026)"><g transform="translate(0 0.748)"><path class="be" d="M1905.725,1645.2a3.217,3.217,0,0,1-1.638-2.5,1.839,1.839,0,0,1,2.192-1.767,3.874,3.874,0,0,0,4.031,2.6c1.965,0,3.2-.884,3.2-2.322,0-1.489-.982-2.246-2.9-2.246h-.856c-1.234,0-1.713-.454-1.713-1.262v-.2c0-.883.554-1.262,1.662-1.262h1.209c1.511,0,2.318-.732,2.318-1.918,0-1.262-1.109-2.045-2.973-2.045a3.581,3.581,0,0,0-3.628,2.347,1.812,1.812,0,0,1-2.141-1.742,3.01,3.01,0,0,1,1.587-2.372,7.834,7.834,0,0,1,4.257-1.111c4.106,0,6.4,1.615,6.4,4.492,0,1.716-.982,2.852-2.847,3.407a4.2,4.2,0,0,1,3.174,4.139c0,3.155-2.443,5-6.726,5A8.086,8.086,0,0,1,1905.725,1645.2Z" transform="translate(-1904.087 -1629.397)"/></g><g transform="translate(17.082)"><path class="be" d="M326.041,1255.962v4.864c0,1.025-.522,1.346-1.246,1.346h-.3c-.764,0-1.286-.3-1.286-1.346V1256.4c0-1.286-.563-1.97-1.708-1.97a2.284,2.284,0,0,0-1.93,1.206v5.186c0,1.025-.522,1.346-1.246,1.346h-.3c-.744,0-1.286-.3-1.286-1.346v-4.361c0-1.346-.563-2.03-1.688-2.03a2.284,2.284,0,0,0-1.93,1.206v5.186c0,1.025-.522,1.346-1.246,1.346h-.3c-.763,0-1.286-.3-1.286-1.346v-8.321c0-.1.5-.322,1.065-.322.7,0,1.467.3,1.688,1.608a3.522,3.522,0,0,1,3.035-1.728,3.1,3.1,0,0,1,3.135,2.009,3.664,3.664,0,0,1,3.3-2.009C325,1252.063,326.041,1253.651,326.041,1255.962Z" transform="translate(-310.284 -1247.802)"/><path class="be" d="M367.482,1252.063a4.668,4.668,0,0,1,4.884,4.9v.181c-.02.482-.161.744-.683.744h-6.793l.06.322a2.722,2.722,0,0,0,2.814,2.11,2.923,2.923,0,0,0,2.753-1.427c.02-.041,1.387.081,1.387,1.206a1.916,1.916,0,0,1-1.085,1.528,6.005,6.005,0,0,1-3.135.743c-3.2,0-5.286-1.99-5.286-5.1A4.985,4.985,0,0,1,367.482,1252.063Zm-.02,1.949a2.537,2.537,0,0,0-2.532,2.331h4.823A2.227,2.227,0,0,0,367.462,1254.012Z" transform="translate(-345.111 -1247.802)"/><path class="be" d="M395.3,1260.163a1.247,1.247,0,0,1,.864-1.126,4.289,4.289,0,0,0,3.236,1.326c1.105,0,1.709-.382,1.709-1,0-.764-.784-.9-2.09-1.186-1.347-.282-3.437-.724-3.437-2.934,0-1.909,1.547-3.175,4.079-3.175,1.99,0,3.216.543,3.718,1.306a1.45,1.45,0,0,1,.241.8,1.407,1.407,0,0,1-.9,1.185,3.9,3.9,0,0,0-2.874-1.326c-1.085,0-1.668.4-1.668,1.025,0,.7.764.844,2.09,1.145,1.386.3,3.6.744,3.6,2.955,0,1.97-1.568,3.156-4.321,3.156a6.456,6.456,0,0,1-3.377-.744A1.711,1.711,0,0,1,395.3,1260.163Z" transform="translate(-367.101 -1247.802)"/><path class="be" d="M429.653,1252.063a4.668,4.668,0,0,1,4.884,4.9v.181c-.02.482-.161.744-.683.744H427.06l.06.322a2.722,2.722,0,0,0,2.814,2.11,2.924,2.924,0,0,0,2.753-1.427c.02-.041,1.387.081,1.387,1.206a1.916,1.916,0,0,1-1.085,1.528,6.005,6.005,0,0,1-3.135.743c-3.2,0-5.286-1.99-5.286-5.1A4.985,4.985,0,0,1,429.653,1252.063Zm-.02,1.949a2.537,2.537,0,0,0-2.532,2.331h4.823A2.227,2.227,0,0,0,429.633,1254.012Z" transform="translate(-386.661 -1247.802)"/><path class="be" d="M457.47,1260.163a1.247,1.247,0,0,1,.864-1.126,4.289,4.289,0,0,0,3.236,1.326c1.105,0,1.709-.382,1.709-1,0-.764-.784-.9-2.09-1.186-1.347-.282-3.437-.724-3.437-2.934,0-1.909,1.547-3.175,4.079-3.175,1.99,0,3.216.543,3.718,1.306a1.45,1.45,0,0,1,.241.8,1.407,1.407,0,0,1-.9,1.185,3.9,3.9,0,0,0-2.874-1.326c-1.085,0-1.668.4-1.668,1.025,0,.7.764.844,2.09,1.145,1.387.3,3.6.744,3.6,2.955,0,1.97-1.568,3.156-4.321,3.156a6.455,6.455,0,0,1-3.377-.744A1.711,1.711,0,0,1,457.47,1260.163Z" transform="translate(-408.649 -1247.802)"/><path class="be" d="M495.161,1260.926c0-1.387,1.286-2.332,3.055-2.593a1.241,1.241,0,0,1-.362-.9,1.373,1.373,0,0,1,.684-1.125,3.351,3.351,0,0,1-2.693-3.236c0-2.11,1.869-3.718,4.462-3.718a5.061,5.061,0,0,1,2.09.462l.442-.824a1.52,1.52,0,0,1,1.407-.985,1.541,1.541,0,0,1,1.387,1.186l-1.688,1.668a3.213,3.213,0,0,1,.864,2.171c0,2.03-1.668,3.437-4.22,3.5-.141,0-.261.02-.4.02a.367.367,0,0,0,.141.322c.14.482.984.543,2.351.9,1.387.361,2.834,1.106,2.834,2.753,0,1.889-1.929,3.095-5.286,3.095C496.729,1263.618,495.161,1262.734,495.161,1260.926Zm7.7-.121c0-.643-.7-.9-1.628-1.146-.282-.06-.583-.141-.9-.2-1.447.1-2.553.6-2.553,1.448,0,.743.844,1.165,2.512,1.165S502.859,1261.609,502.859,1260.8Zm-.643-7.778a1.9,1.9,0,0,0-3.8,0,1.9,1.9,0,0,0,3.8,0Z" transform="translate(-433.839 -1245.088)"/><path class="be" d="M536.632,1253.711a1.466,1.466,0,0,1-.9,1.487,1.963,1.963,0,0,0-1.286-.482c-1.367,0-1.97,1.206-1.97,3.175v2.935c0,1.025-.522,1.346-1.246,1.346h-.3c-.764,0-1.286-.3-1.286-1.346v-8.321c0-.1.483-.322,1.065-.322a1.567,1.567,0,0,1,1.548,1.065,4.543,4.543,0,0,1,.141.684,2.449,2.449,0,0,1,2.432-1.869A1.609,1.609,0,0,1,536.632,1253.711Z" transform="translate(-456.88 -1247.802)"/><path class="be" d="M558.835,1256.243h.322a1.226,1.226,0,0,0-.02-.281,1.735,1.735,0,0,0-1.99-1.769,2.457,2.457,0,0,0-2.412,1.427c-.02.04-1.829.181-1.829-1.125a1.794,1.794,0,0,1,.6-1.286,5.287,5.287,0,0,1,3.819-1.145c3.116,0,4.623,1.427,4.623,4.06v5.788c0,.141-.523.322-1.065.322a1.464,1.464,0,0,1-1.488-.945,4.039,4.039,0,0,1-.161-.663,3.92,3.92,0,0,1-3.4,1.688c-2.05,0-3.3-1.125-3.3-2.814C552.544,1257.309,554.675,1256.3,558.835,1256.243Zm.322,1.427h-.543c-2.231.08-3.417.5-3.417,1.608,0,.744.583,1.206,1.528,1.206a2.212,2.212,0,0,0,2.432-2.111Z" transform="translate(-472.188 -1247.802)"/><path class="be" d="M585.723,1254.178v-4.5h-.5c-.8,0-1.166-.362-1.166-1v-.161c0-.663.362-1.045,1.145-1.045h.522v-1.246c0-.924.463-1.366,1.266-1.366h.261c.744,0,1.246.322,1.246,1.366v1.246H590.2c.8,0,1.146.342,1.146.985v.181c0,.683-.362,1.045-1.166,1.045h-1.728v4.18c0,.965.3,1.447,1.085,1.447a1.438,1.438,0,0,0,1.226-.663,1.114,1.114,0,0,1,.7,1.105,1.435,1.435,0,0,1-.482,1.085,2.931,2.931,0,0,1-2.11.724C586.728,1257.554,585.723,1256.409,585.723,1254.178Z" transform="translate(-493.247 -1242.983)"/><path class="be" d="M611.94,1239.217a1.472,1.472,0,1,1-1.588,1.467A1.418,1.418,0,0,1,611.94,1239.217Zm-1.427,5.748c0-1.025.543-1.367,1.266-1.367h.3c.744,0,1.266.322,1.266,1.367v7.276c0,1.025-.522,1.346-1.266,1.346H611.8c-.764,0-1.286-.3-1.286-1.346Z" transform="translate(-510.821 -1239.217)"/><path class="be" d="M624.046,1260.163a1.247,1.247,0,0,1,.864-1.126,4.288,4.288,0,0,0,3.236,1.326c1.105,0,1.708-.382,1.708-1,0-.764-.784-.9-2.09-1.186-1.347-.282-3.437-.724-3.437-2.934,0-1.909,1.547-3.175,4.079-3.175,1.99,0,3.216.543,3.718,1.306a1.45,1.45,0,0,1,.241.8,1.406,1.406,0,0,1-.9,1.185,3.9,3.9,0,0,0-2.874-1.326c-1.085,0-1.668.4-1.668,1.025,0,.7.764.844,2.09,1.145,1.387.3,3.6.744,3.6,2.955,0,1.97-1.568,3.156-4.321,3.156a6.454,6.454,0,0,1-3.376-.744A1.711,1.711,0,0,1,624.046,1260.163Z" transform="translate(-519.973 -1247.802)"/></g></g><g transform="translate(68.641 107.763)"><path class="bf" d="M2071.523,1724.764a.543.543,0,0,1-.465-.262l-3.327-5.5H2020.11l-3.327,5.5a.542.542,0,1,1-.928-.561l3.485-5.758a.543.543,0,0,1,.464-.262h48.233a.543.543,0,0,1,.464.262l3.486,5.758a.542.542,0,0,1-.183.745A.535.535,0,0,1,2071.523,1724.764Z" transform="translate(-2015.777 -1720.921)"/></g><g transform="translate(111.908 100.927)"><path class="bf" d="M2135.96,1703.69a.543.543,0,0,1-.542-.542v-3.588a.542.542,0,0,1,1.085,0v3.588A.543.543,0,0,1,2135.96,1703.69Z" transform="translate(-2135.418 -1699.017)"/></g><g transform="translate(80.576 100.927)"><path class="bf" d="M2049.325,1703.774a.543.543,0,0,1-.543-.542v-3.672a.542.542,0,1,1,1.085,0v3.672A.542.542,0,0,1,2049.325,1703.774Z" transform="translate(-2048.782 -1699.017)"/></g><g transform="translate(12.148 81.269)"><path class="bf" d="M1998.327,1664.776H1862.563a3,3,0,0,1-3-3V1645.2a.542.542,0,1,1,1.085,0v16.575a1.916,1.916,0,0,0,1.913,1.913h135.764a.542.542,0,0,1,0,1.085Z" transform="translate(-1859.565 -1644.66)"/></g><g transform="translate(12.148)"><path class="bf" d="M1860.108,1439.025a.542.542,0,0,1-.542-.543v-15.547a3,3,0,0,1,3-3h162.77a3,3,0,0,1,3,3l.072,6.772a.542.542,0,1,1-1.085,0l-.072-6.772a1.916,1.916,0,0,0-1.913-1.914h-162.77a1.916,1.916,0,0,0-1.913,1.914v15.547A.543.543,0,0,1,1860.108,1439.025Z" transform="translate(-1859.565 -1419.937)"/></g><path class="bg" d="M2321.783,1422.111h0a13.869,13.869,0,0,0-11.416-11.416h0a13.869,13.869,0,0,0,11.416-11.416h0A13.87,13.87,0,0,0,2333.2,1410.7h0A13.87,13.87,0,0,0,2321.783,1422.111Z" transform="translate(-2132.536 -1397.982)"/><path class="bg" d="M1824.718,1472.71h0a10.488,10.488,0,0,0-8.632-8.632h0a10.488,10.488,0,0,0,8.632-8.632h0a10.488,10.488,0,0,0,8.632,8.632h0A10.488,10.488,0,0,0,1824.718,1472.71Z" transform="translate(-1816.086 -1439.949)"/><path class="d" d="M2302.271,1679.963H2329.2a4.363,4.363,0,0,0,4.363-4.363v-18.048" transform="translate(-2153.186 -1579.037)"/><path class="bh" d="M30.531,115.7H161.643" transform="translate(0 -4.094)"/></g></g></svg>