<svg xmlns="http://www.w3.org/2000/svg" xmlns:xlink="http://www.w3.org/1999/xlink" width="50" height="50" viewBox="0 0 50 50">
  <defs>
    <clipPath id="clip-path">
      <rect id="Rectángulo_5807" data-name="Rectángulo 5807" width="33.855" height="37.999" fill="#fff"/>
    </clipPath>
  </defs>
  <g id="Grupo_20430" data-name="Grupo 20430" transform="translate(-1224 -1508)">
    <circle id="Elipse_1449" data-name="Elipse 1449" cx="25" cy="25" r="25" transform="translate(1224 1508)" fill="#a2e5fd"/>
    <g id="Grupo_20429" data-name="Grupo 20429" transform="translate(1231.799 1512)">
      <g id="Grupo_20429-2" data-name="Grupo 20429" transform="translate(0 0)" clip-path="url(#clip-path)">
        <path id="Trazado_17597" data-name="Trazado 17597" d="M28.336,26.679l-5.381-2.013v-3.6a7.609,7.609,0,0,0,1.321-3.923A4.7,4.7,0,0,0,25.991,14.1a4.539,4.539,0,0,0-.714-2.848,10.509,10.509,0,0,0-1.821-8.828.763.763,0,0,0-.093-.093,10.054,10.054,0,0,0-12.872,0,.763.763,0,0,0-.093.093,10.509,10.509,0,0,0-1.821,8.828A4.539,4.539,0,0,0,7.864,14.1a4.7,4.7,0,0,0,1.715,3.046A7.609,7.609,0,0,0,10.9,21.067v3.6L5.519,26.679A8.53,8.53,0,0,0,0,34.635v2.6a.76.76,0,1,0,1.52,0v-2.6A7,7,0,0,1,6.051,28.1l4.916-1.838c0,.008,0,.016.005.024l5.267,11.273a.76.76,0,0,0,1.377,0l5.267-11.273c0-.008,0-.016.005-.024L27.8,28.1a7,7,0,0,1,4.531,6.533v2.6a.76.76,0,1,0,1.52,0v-2.6a8.53,8.53,0,0,0-5.519-7.956M12.42,25.8V22.706c.147.119.29.24.446.347l2.06,1.419a3.546,3.546,0,0,0,4,0l2.06-1.419c.156-.107.3-.229.446-.347V25.8L20.16,28.525a5.626,5.626,0,0,1-6.463.005Zm-.9-22.346a8.532,8.532,0,0,1,10.814,0A8.96,8.96,0,0,1,23.9,10.443c-.525-2.751-1.357-5.194-2.663-5.4a.713.713,0,0,0-.121-.009H12.736a.713.713,0,0,0-.121.009c-1.306.211-2.138,2.654-2.663,5.4A8.96,8.96,0,0,1,11.52,3.452M9.372,13.559c.064.141.113.28.184.423a.76.76,0,0,0,1.436-.246c.41-3.468,1.29-6.808,1.851-7.187h8.144c.6.45,1.471,3.756,1.876,7.187a.759.759,0,0,0,.626.66.814.814,0,0,0,.128.011.761.761,0,0,0,.682-.424c.071-.144.12-.282.184-.423a3.193,3.193,0,0,1-1.434,2.629.763.763,0,0,0-.285.594,6.1,6.1,0,0,1-2.638,5.02l-2.06,1.419a2.018,2.018,0,0,1-2.277,0L13.729,21.8a6.1,6.1,0,0,1-2.638-5.02.763.763,0,0,0-.285-.594,3.193,3.193,0,0,1-1.434-2.629m7.556,21.885-2.22-4.751a7.466,7.466,0,0,0,2.341.392,6.638,6.638,0,0,0,2.067-.327Z" transform="translate(0 0)" fill="#fff"/>
        <path id="Trazado_17598" data-name="Trazado 17598" d="M19.188,25.526l.081.036a5.3,5.3,0,0,0,4.4-.04.76.76,0,0,0-.644-1.377,3.78,3.78,0,0,1-3.139.03l-.078-.035a.76.76,0,0,0-.623,1.386" transform="translate(-4.498 -5.779)" fill="#fff"/>
        <path id="Trazado_17599" data-name="Trazado 17599" d="M12.042,43.927H10.979V42.864a.76.76,0,1,0-1.52,0v1.063H8.395a.76.76,0,0,0,0,1.52H9.459V46.51a.76.76,0,0,0,1.52,0V45.447h1.063a.76.76,0,0,0,0-1.52" transform="translate(-1.833 -10.107)" fill="#fff"/>
      </g>
    </g>
  </g>
</svg>
