<svg xmlns="http://www.w3.org/2000/svg" xmlns:xlink="http://www.w3.org/1999/xlink" width="399.315" height="200.576" viewBox="0 0 399.315 200.576"><defs><style>.a,.c,.k,.s{fill:none;}.b{opacity:0.395;}.c,.k,.s{stroke:#fff;stroke-miterlimit:10;}.c{stroke-width:3.072px;}.d,.v,.x{fill:#fff;}.e{fill:#ffde6e;}.f,.g,.o,.p,.q{opacity:0.5;}.f{fill:url(#a);}.g{fill:url(#b);}.h{fill:#102236;}.i{opacity:0.579;}.j{clip-path:url(#c);}.k{stroke-width:1.327px;}.l{clip-path:url(#d);}.m{fill:#036dc4;}.n{fill:#fdfdfd;}.o{fill:url(#f);}.p{fill:url(#g);}.r{clip-path:url(#h);}.s{stroke-width:1.119px;}.t{clip-path:url(#i);}.u{opacity:0.42;}.v{opacity:0.08;}.w{opacity:0.558;}.x{fill-rule:evenodd;}.y{fill:#ea0c90;}.z{fill:#5ccdff;mix-blend-mode:multiply;isolation:isolate;}.aa,.ab{fill:#00a3e9;}.ab{opacity:0.665;}.ac{opacity:0.413;fill:url(#al);}.ad{opacity:0.651;fill:url(#am);}.ae{opacity:0.52;}.af{filter:url(#bd);}.ag{filter:url(#bb);}.ah{filter:url(#az);}.ai{filter:url(#ax);}.aj{filter:url(#av);}.ak{filter:url(#at);}.al{filter:url(#ar);}.am{filter:url(#ap);}.an{filter:url(#an);}.ao{filter:url(#aj);}.ap{filter:url(#ah);}.aq{filter:url(#af);}.ar{filter:url(#ad);}.as{filter:url(#ab);}.at{filter:url(#z);}.au{filter:url(#x);}.av{filter:url(#v);}.aw{filter:url(#t);}.ax{filter:url(#r);}.ay{filter:url(#p);}.az{filter:url(#n);}.ba{filter:url(#l);}.bb{filter:url(#j);}</style><radialGradient id="a" cx="0.5" cy="0.5" r="0.5" gradientTransform="matrix(-1, 0, 0, 1, 1, 0)" gradientUnits="objectBoundingBox"><stop offset="0" stop-color="#ff4c41"/><stop offset="0.841" stop-color="#ffde6e"/></radialGradient><radialGradient id="b" cx="0.5" cy="0.5" gradientTransform="matrix(0.925, -0.379, -0.379, -0.925, 0.227, 1.152)" xlink:href="#a"/><clipPath id="c"><path class="a" d="M890.672,327.972l-16.285,18.771,27.509,4.169Z" transform="translate(-874.387 -327.972)"/></clipPath><clipPath id="d"><path class="a" d="M10.26,0,0,11.826l17.33,2.627Z"/></clipPath><radialGradient id="f" cx="0.5" cy="0.5" gradientTransform="translate(0)" xlink:href="#a"/><radialGradient id="g" cx="0.5" cy="0.5" gradientTransform="matrix(0.925, 0.379, -0.379, 0.925, 0.227, -0.152)" xlink:href="#a"/><clipPath id="h"><circle class="a" cx="8.431" cy="8.431" r="8.431" transform="matrix(0.987, -0.159, 0.159, 0.987, 0, 2.678)"/></clipPath><clipPath id="i"><circle class="a" cx="4.8" cy="4.8" r="4.8" transform="matrix(0.987, -0.159, 0.159, 0.987, 0, 1.525)"/></clipPath><filter id="j" x="19.675" y="33.056" width="43.816" height="74.355" filterUnits="userSpaceOnUse"><feOffset dy="3" input="SourceAlpha"/><feGaussianBlur stdDeviation="3" result="k"/><feFlood flood-color="#00427b" flood-opacity="0.4"/><feComposite operator="in" in2="k"/><feComposite in="SourceGraphic"/></filter><filter id="l" x="47.065" y="33.686" width="48.538" height="73.095" filterUnits="userSpaceOnUse"><feOffset dy="3" input="SourceAlpha"/><feGaussianBlur stdDeviation="3" result="m"/><feFlood flood-color="#00427b" flood-opacity="0.4"/><feComposite operator="in" in2="m"/><feComposite in="SourceGraphic"/></filter><filter id="n" x="81.067" y="33.686" width="44.76" height="73.095" filterUnits="userSpaceOnUse"><feOffset dy="3" input="SourceAlpha"/><feGaussianBlur stdDeviation="3" result="o"/><feFlood flood-color="#00427b" flood-opacity="0.4"/><feComposite operator="in" in2="o"/><feComposite in="SourceGraphic"/></filter><filter id="p" x="113.022" y="33.686" width="41.612" height="73.095" filterUnits="userSpaceOnUse"><feOffset dy="3" input="SourceAlpha"/><feGaussianBlur stdDeviation="3" result="q"/><feFlood flood-color="#00427b" flood-opacity="0.4"/><feComposite operator="in" in2="q"/><feComposite in="SourceGraphic"/></filter><filter id="r" x="141.986" y="33.686" width="44.918" height="73.095" filterUnits="userSpaceOnUse"><feOffset dy="3" input="SourceAlpha"/><feGaussianBlur stdDeviation="3" result="s"/><feFlood flood-color="#00427b" flood-opacity="0.4"/><feComposite operator="in" in2="s"/><feComposite in="SourceGraphic"/></filter><filter id="t" x="48.832" y="101.18" width="65.024" height="34.991" filterUnits="userSpaceOnUse"><feOffset dy="3" input="SourceAlpha"/><feGaussianBlur stdDeviation="3" result="u"/><feFlood flood-color="#00427b" flood-opacity="0.4"/><feComposite operator="in" in2="u"/><feComposite in="SourceGraphic"/></filter><filter id="v" x="108.12" y="104.539" width="29.694" height="31.632" filterUnits="userSpaceOnUse"><feOffset dy="3" input="SourceAlpha"/><feGaussianBlur stdDeviation="3" result="w"/><feFlood flood-color="#00427b" flood-opacity="0.4"/><feComposite operator="in" in2="w"/><feComposite in="SourceGraphic"/></filter><filter id="x" x="148.213" y="104.532" width="24.39" height="31.411" filterUnits="userSpaceOnUse"><feOffset dy="3" input="SourceAlpha"/><feGaussianBlur stdDeviation="3" result="y"/><feFlood flood-color="#00427b" flood-opacity="0.4"/><feComposite operator="in" in2="y"/><feComposite in="SourceGraphic"/></filter><filter id="z" x="97.196" y="104.483" width="27.408" height="31.636" filterUnits="userSpaceOnUse"><feOffset dy="3" input="SourceAlpha"/><feGaussianBlur stdDeviation="3" result="aa"/><feFlood flood-color="#00427b" flood-opacity="0.4"/><feComposite operator="in" in2="aa"/><feComposite in="SourceGraphic"/></filter><filter id="ab" x="121.201" y="104.521" width="29.32" height="35.555" filterUnits="userSpaceOnUse"><feOffset dy="3" input="SourceAlpha"/><feGaussianBlur stdDeviation="3" result="ac"/><feFlood flood-color="#00427b" flood-opacity="0.4"/><feComposite operator="in" in2="ac"/><feComposite in="SourceGraphic"/></filter><filter id="ad" x="155.302" y="104.483" width="30.134" height="31.636" filterUnits="userSpaceOnUse"><feOffset dy="3" input="SourceAlpha"/><feGaussianBlur stdDeviation="3" result="ae"/><feFlood flood-color="#00427b" flood-opacity="0.4"/><feComposite operator="in" in2="ae"/><feComposite in="SourceGraphic"/></filter><filter id="af" x="134.571" y="104.759" width="29.532" height="31.451" filterUnits="userSpaceOnUse"><feOffset dy="3" input="SourceAlpha"/><feGaussianBlur stdDeviation="3" result="ag"/><feFlood flood-color="#00427b" flood-opacity="0.4"/><feComposite operator="in" in2="ag"/><feComposite in="SourceGraphic"/></filter><filter id="ah" x="20.277" y="97.589" width="41.942" height="41.935" filterUnits="userSpaceOnUse"><feOffset dy="3" input="SourceAlpha"/><feGaussianBlur stdDeviation="3" result="ai"/><feFlood flood-color="#00427b" flood-opacity="0.4"/><feComposite operator="in" in2="ai"/><feComposite in="SourceGraphic"/></filter><filter id="aj" x="140.359" y="162.953" width="19.378" height="19.342" filterUnits="userSpaceOnUse"><feOffset dy="3" input="SourceAlpha"/><feGaussianBlur stdDeviation="3" result="ak"/><feFlood flood-color="#00427b" flood-opacity="0.4"/><feComposite operator="in" in2="ak"/><feComposite in="SourceGraphic"/></filter><linearGradient id="al" x1="0.5" x2="0.5" y2="1" gradientUnits="objectBoundingBox"><stop offset="0" stop-color="#00a3e9"/><stop offset="0.419" stop-color="#029ee0"/><stop offset="1" stop-color="#0a7eaf"/></linearGradient><linearGradient id="am" x1="0.164" y1="0.516" x2="1.058" y2="0.281" gradientUnits="objectBoundingBox"><stop offset="0" stop-color="#38b6ff"/><stop offset="1" stop-color="#0077bc"/></linearGradient><filter id="an" x="222.472" y="62.237" width="41.986" height="72.298" filterUnits="userSpaceOnUse"><feOffset dy="3" input="SourceAlpha"/><feGaussianBlur stdDeviation="3" result="ao"/><feFlood flood-color="#00427b" flood-opacity="0.4"/><feComposite operator="in" in2="ao"/><feComposite in="SourceGraphic"/></filter><filter id="ap" x="254.671" y="62.812" width="59.401" height="72.297" filterUnits="userSpaceOnUse"><feOffset dy="3" input="SourceAlpha"/><feGaussianBlur stdDeviation="3" result="aq"/><feFlood flood-color="#00427b" flood-opacity="0.4"/><feComposite operator="in" in2="aq"/><feComposite in="SourceGraphic"/></filter><filter id="ar" x="303.479" y="62.032" width="50.009" height="48.971" filterUnits="userSpaceOnUse"><feOffset dy="3" input="SourceAlpha"/><feGaussianBlur stdDeviation="3" result="as"/><feFlood flood-color="#00427b" flood-opacity="0.4"/><feComposite operator="in" in2="as"/><feComposite in="SourceGraphic"/></filter><filter id="at" x="304.263" y="97.486" width="24.482" height="25.133" filterUnits="userSpaceOnUse"><feOffset dy="3" input="SourceAlpha"/><feGaussianBlur stdDeviation="3" result="au"/><feFlood flood-color="#00427b" flood-opacity="0.4"/><feComposite operator="in" in2="au"/><feComposite in="SourceGraphic"/></filter><filter id="av" x="310.966" y="97.333" width="23.667" height="25.442" filterUnits="userSpaceOnUse"><feOffset dy="3" input="SourceAlpha"/><feGaussianBlur stdDeviation="3" result="aw"/><feFlood flood-color="#00427b" flood-opacity="0.4"/><feComposite operator="in" in2="aw"/><feComposite in="SourceGraphic"/></filter><filter id="ax" x="316.908" y="97.333" width="24.482" height="25.442" filterUnits="userSpaceOnUse"><feOffset dy="3" input="SourceAlpha"/><feGaussianBlur stdDeviation="3" result="ay"/><feFlood flood-color="#00427b" flood-opacity="0.4"/><feComposite operator="in" in2="ay"/><feComposite in="SourceGraphic"/></filter><filter id="az" x="323.369" y="97.486" width="24.317" height="25.177" filterUnits="userSpaceOnUse"><feOffset dy="3" input="SourceAlpha"/><feGaussianBlur stdDeviation="3" result="ba"/><feFlood flood-color="#00427b" flood-opacity="0.4"/><feComposite operator="in" in2="ba"/><feComposite in="SourceGraphic"/></filter><filter id="bb" x="329.455" y="97.333" width="25.342" height="25.442" filterUnits="userSpaceOnUse"><feOffset dy="3" input="SourceAlpha"/><feGaussianBlur stdDeviation="3" result="bc"/><feFlood flood-color="#00427b" flood-opacity="0.4"/><feComposite operator="in" in2="bc"/><feComposite in="SourceGraphic"/></filter><filter id="bd" x="225.692" y="47.23" width="53.585" height="27.302" filterUnits="userSpaceOnUse"><feOffset dy="3" input="SourceAlpha"/><feGaussianBlur stdDeviation="3" result="be"/><feFlood flood-color="#00427b" flood-opacity="0.4"/><feComposite operator="in" in2="be"/><feComposite in="SourceGraphic"/></filter></defs><g transform="translate(-841.173 -171.103)"><g class="b" transform="translate(1127.588 172.639)"><g transform="translate(0 0)"><ellipse class="c" cx="2.22" cy="2.22" rx="2.22" ry="2.22"/></g></g><g transform="translate(1192.885 184.491)"><g transform="translate(0 0)"><ellipse class="d" cx="1.529" cy="1.529" rx="1.529" ry="1.529"/></g></g><g transform="translate(846.053 301.765)"><ellipse class="e" cx="6.314" cy="6.314" rx="6.314" ry="6.314" transform="translate(0 0)"/><ellipse class="f" cx="2.357" cy="2.357" rx="2.357" ry="2.357" transform="translate(0.907 2.168)"/><ellipse class="g" cx="2.357" cy="2.357" rx="2.357" ry="2.357" transform="translate(11.393 9.352) rotate(-157.706)"/><path class="h" d="M92.9,510.108a.3.3,0,0,0,.29-.219,1.62,1.62,0,1,0-3.113-.9.3.3,0,1,0,.581.168,1.015,1.015,0,0,1,1.951.564.3.3,0,0,0,.206.375A.309.309,0,0,0,92.9,510.108Z" transform="translate(-86.754 -506.337)"/><path class="h" d="M76.452,514.6a.3.3,0,0,0,.291-.219,1.62,1.62,0,0,0-3.113-.9.3.3,0,1,0,.581.168,1.015,1.015,0,0,1,1.951.564.3.3,0,0,0,.207.375A.3.3,0,0,0,76.452,514.6Z" transform="translate(-65.645 -509.552)"/><path class="h" d="M83.427,522.448a3.2,3.2,0,0,0,2.046-.733.3.3,0,1,0-.387-.465,2.593,2.593,0,0,1-1.659.593,2.507,2.507,0,0,1-2.448-1.814.3.3,0,0,0-.584.157A3.113,3.113,0,0,0,83.427,522.448Z" transform="translate(-76.339 -514.924)"/></g><g class="i" transform="translate(1212.979 243.999)"><g class="j" transform="translate(0 0)"><g transform="translate(-22.606 -12.256)"><line class="k" y1="16.857" x2="64.587"/><line class="k" y1="16.857" x2="64.587" transform="translate(0.349 1.337)"/><line class="k" y1="16.857" x2="64.587" transform="translate(0.698 2.674)"/><line class="k" y1="16.857" x2="64.587" transform="translate(1.047 4.011)"/><line class="k" y1="16.857" x2="64.587" transform="translate(1.396 5.348)"/><line class="k" y1="16.857" x2="64.587" transform="translate(1.745 6.685)"/><line class="k" y1="16.857" x2="64.587" transform="translate(2.094 8.022)"/><line class="k" y1="16.857" x2="64.587" transform="translate(2.443 9.358)"/><line class="k" y1="16.857" x2="64.587" transform="translate(2.792 10.695)"/><line class="k" y1="16.857" x2="64.587" transform="translate(3.14 12.032)"/><line class="k" y1="16.857" x2="64.587" transform="translate(3.489 13.369)"/><line class="k" y1="16.857" x2="64.587" transform="translate(3.838 14.706)"/><line class="k" y1="16.857" x2="64.587" transform="translate(4.187 16.043)"/><line class="k" y1="16.857" x2="64.587" transform="translate(4.536 17.38)"/><line class="k" y1="16.857" x2="64.587" transform="translate(4.885 18.717)"/><line class="k" y1="16.857" x2="64.587" transform="translate(5.234 20.054)"/><line class="k" y1="16.857" x2="64.587" transform="translate(5.583 21.391)"/><line class="k" y1="16.857" x2="64.587" transform="translate(5.932 22.728)"/><line class="k" y1="16.857" x2="64.587" transform="translate(6.281 24.065)"/><line class="k" y1="16.857" x2="64.587" transform="translate(6.63 25.402)"/><line class="k" y1="16.857" x2="64.587" transform="translate(6.979 26.739)"/><line class="k" y1="16.857" x2="64.587" transform="translate(7.328 28.075)"/><line class="k" y1="16.857" x2="64.587" transform="translate(7.677 29.412)"/><line class="k" y1="16.857" x2="64.587" transform="translate(8.026 30.749)"/></g></g></g><g class="i" transform="translate(1052.256 296.939) rotate(140)"><g class="l" transform="translate(0 0)"><g transform="translate(-14.241 -7.721)"><line class="k" y1="10.62" x2="40.689" transform="translate(0 0)"/><line class="k" y1="10.62" x2="40.689" transform="translate(0.22 0.842)"/><line class="k" y1="10.62" x2="40.689" transform="translate(0.44 1.684)"/><line class="k" y1="10.62" x2="40.689" transform="translate(0.659 2.527)"/><line class="k" y1="10.62" x2="40.689" transform="translate(0.879 3.369)"/><line class="k" y1="10.62" x2="40.689" transform="translate(1.099 4.211)"/><line class="k" y1="10.62" x2="40.689" transform="translate(1.319 5.053)"/><line class="k" y1="10.62" x2="40.689" transform="translate(1.539 5.896)"/><line class="k" y1="10.62" x2="40.689" transform="translate(1.759 6.738)"/><line class="k" y1="10.62" x2="40.689" transform="translate(1.978 7.58)"/><line class="k" y1="10.62" x2="40.689" transform="translate(2.198 8.422)"/><line class="k" y1="10.62" x2="40.689" transform="translate(2.418 9.265)"/><line class="k" y1="10.62" x2="40.689" transform="translate(2.638 10.107)"/><line class="k" y1="10.62" x2="40.689" transform="translate(2.858 10.949)"/><line class="k" y1="10.62" x2="40.689" transform="translate(3.078 11.791)"/><line class="k" y1="10.62" x2="40.689" transform="translate(3.297 12.634)"/><line class="k" y1="10.62" x2="40.689" transform="translate(3.517 13.476)"/><line class="k" y1="10.62" x2="40.689" transform="translate(3.737 14.318)"/><line class="k" y1="10.62" x2="40.689" transform="translate(3.957 15.16)"/><line class="k" y1="10.62" x2="40.689" transform="translate(4.177 16.003)"/><line class="k" y1="10.62" x2="40.689" transform="translate(4.397 16.845)"/><line class="k" y1="10.62" x2="40.689" transform="translate(4.616 17.687)"/><line class="k" y1="10.62" x2="40.689" transform="translate(4.836 18.529)"/><line class="k" y1="10.62" x2="40.689" transform="translate(5.056 19.372)"/></g></g></g><g class="i" transform="translate(919.212 183.626) rotate(140)"><g class="l" transform="translate(0 0)"><g transform="translate(-14.241 -7.721)"><line class="k" y1="10.62" x2="40.689" transform="translate(0 0)"/><line class="k" y1="10.62" x2="40.689" transform="translate(0.22 0.842)"/><line class="k" y1="10.62" x2="40.689" transform="translate(0.44 1.684)"/><line class="k" y1="10.62" x2="40.689" transform="translate(0.659 2.527)"/><line class="k" y1="10.62" x2="40.689" transform="translate(0.879 3.369)"/><line class="k" y1="10.62" x2="40.689" transform="translate(1.099 4.211)"/><line class="k" y1="10.62" x2="40.689" transform="translate(1.319 5.053)"/><line class="k" y1="10.62" x2="40.689" transform="translate(1.539 5.896)"/><line class="k" y1="10.62" x2="40.689" transform="translate(1.759 6.738)"/><line class="k" y1="10.62" x2="40.689" transform="translate(1.978 7.58)"/><line class="k" y1="10.62" x2="40.689" transform="translate(2.198 8.422)"/><line class="k" y1="10.62" x2="40.689" transform="translate(2.418 9.265)"/><line class="k" y1="10.62" x2="40.689" transform="translate(2.638 10.107)"/><line class="k" y1="10.62" x2="40.689" transform="translate(2.858 10.949)"/><line class="k" y1="10.62" x2="40.689" transform="translate(3.078 11.791)"/><line class="k" y1="10.62" x2="40.689" transform="translate(3.297 12.634)"/><line class="k" y1="10.62" x2="40.689" transform="translate(3.517 13.476)"/><line class="k" y1="10.62" x2="40.689" transform="translate(3.737 14.318)"/><line class="k" y1="10.62" x2="40.689" transform="translate(3.957 15.16)"/><line class="k" y1="10.62" x2="40.689" transform="translate(4.177 16.003)"/><line class="k" y1="10.62" x2="40.689" transform="translate(4.397 16.845)"/><line class="k" y1="10.62" x2="40.689" transform="translate(4.616 17.687)"/><line class="k" y1="10.62" x2="40.689" transform="translate(4.836 18.529)"/><line class="k" y1="10.62" x2="40.689" transform="translate(5.056 19.372)"/></g></g></g><g class="b" transform="translate(1204.948 218.815)"><g transform="translate(0)"><ellipse class="c" cx="2.22" cy="2.22" rx="2.22" ry="2.22"/></g></g><g transform="translate(1013.602 326.291)"><ellipse class="m" cx="8.079" cy="8.079" rx="8.079" ry="8.079" transform="matrix(0.15, -0.989, 0.989, 0.15, 0, 15.975)"/><g transform="translate(7.746 3.933)"><path class="n" d="M222.489,319.736h-.083a.74.74,0,1,0,0-1.48h-2.373a3.878,3.878,0,0,0,.69-1.8c0-.951-.521-1.48-.861-1.54a.583.583,0,0,0-.687.407c-.1.287.075.831.008,1.025a17.506,17.506,0,0,1-1.337,1.61,2.738,2.738,0,0,0-.544,1.774v3.239a.462.462,0,0,0,.46.46h4.409a.536.536,0,1,0,0-1.072h.076a.657.657,0,0,0,0-1.314h.242a.657.657,0,0,0,0-1.314Z" transform="translate(-217.298 -314.908)"/></g></g><g transform="matrix(0.891, -0.454, 0.454, 0.891, 1195.943, 207.043)"><ellipse class="m" cx="8.079" cy="8.079" rx="8.079" ry="8.079" transform="matrix(0.15, -0.989, 0.989, 0.15, 0, 15.975)"/><g transform="translate(7.746 3.933)"><path class="n" d="M5.191,4.828H5.108a.74.74,0,1,0,0-1.48H2.735a3.878,3.878,0,0,0,.69-1.8C3.424.6,2.9.072,2.564.012a.583.583,0,0,0-.687.407c-.1.287.075.831.008,1.025A17.508,17.508,0,0,1,.548,3.054,2.737,2.737,0,0,0,0,4.828V8.067a.462.462,0,0,0,.46.46H4.874a.536.536,0,1,0,0-1.072h.076a.657.657,0,0,0,0-1.314h.242a.657.657,0,0,0,0-1.314Z" transform="translate(0 0)"/></g></g><g transform="translate(1040.329 235.945)"><ellipse class="e" cx="6.314" cy="6.314" rx="6.314" ry="6.314" transform="translate(0.554 0)"/><ellipse class="o" cx="2.357" cy="2.357" rx="2.357" ry="2.357" transform="translate(7.561 2.168)"/><ellipse class="p" cx="2.357" cy="2.357" rx="2.357" ry="2.357" transform="translate(0 4.991) rotate(-22.294)"/><path class="h" d="M90.418,510.108a.3.3,0,0,1-.29-.219,1.62,1.62,0,1,1,3.113-.9.3.3,0,1,1-.581.168,1.015,1.015,0,0,0-1.951.564.3.3,0,0,1-.206.375A.309.309,0,0,1,90.418,510.108Z" transform="translate(-83.381 -506.337)"/><path class="h" d="M73.973,514.6a.3.3,0,0,1-.291-.219,1.62,1.62,0,0,1,3.113-.9.3.3,0,0,1-.581.168,1.015,1.015,0,0,0-1.951.564.3.3,0,0,1-.207.375A.3.3,0,0,1,73.973,514.6Z" transform="translate(-71.599 -509.552)"/><path class="h" d="M82.539,522.448a3.2,3.2,0,0,1-2.046-.733.3.3,0,0,1,.387-.465,2.593,2.593,0,0,0,1.658.593,2.507,2.507,0,0,0,2.448-1.814.3.3,0,0,1,.584.157A3.113,3.113,0,0,1,82.539,522.448Z" transform="translate(-76.447 -514.924)"/></g><g class="q" transform="translate(840.24 203.138) rotate(-13)"><g transform="translate(0 4.148)"><g transform="translate(0 0)"><ellipse class="d" cx="1.529" cy="1.529" rx="1.529" ry="1.529"/></g></g><g transform="translate(8.579 2.102)"><g transform="translate(0 0)"><ellipse class="d" cx="1.529" cy="1.529" rx="1.529" ry="1.529"/></g></g><g transform="translate(17.499 0)"><g transform="translate(0 0)"><ellipse class="d" cx="1.529" cy="1.529" rx="1.529" ry="1.529"/></g></g></g><g class="i" transform="translate(877.321 327.381)"><g class="r" transform="translate(0 0)"><g transform="translate(-12.691 -14.844)"><line class="s" x2="24.244" y2="34.925" transform="translate(16.628)"/><line class="s" x2="24.244" y2="34.925" transform="translate(15.905 0.502)"/><line class="s" x2="24.244" y2="34.925" transform="translate(15.182 1.004)"/><line class="s" x2="24.244" y2="34.925" transform="translate(14.459 1.506)"/><line class="s" x2="24.244" y2="34.925" transform="translate(13.736 2.007)"/><line class="s" x2="24.244" y2="34.925" transform="translate(13.013 2.509)"/><line class="s" x2="24.244" y2="34.925" transform="translate(12.29 3.011)"/><line class="s" x2="24.244" y2="34.925" transform="translate(11.567 3.513)"/><line class="s" x2="24.244" y2="34.925" transform="translate(10.844 4.015)"/><line class="s" x2="24.244" y2="34.925" transform="translate(10.121 4.517)"/><line class="s" x2="24.244" y2="34.925" transform="translate(9.398 5.019)"/><line class="s" x2="24.244" y2="34.925" transform="translate(8.675 5.52)"/><line class="s" x2="24.244" y2="34.925" transform="translate(7.952 6.022)"/><line class="s" x2="24.244" y2="34.925" transform="translate(7.229 6.524)"/><line class="s" x2="24.244" y2="34.925" transform="translate(6.506 7.026)"/><line class="s" x2="24.244" y2="34.925" transform="translate(5.783 7.528)"/><line class="s" x2="24.244" y2="34.925" transform="translate(5.061 8.03)"/><line class="s" x2="24.244" y2="34.925" transform="translate(4.338 8.531)"/><line class="s" x2="24.244" y2="34.925" transform="translate(3.615 9.033)"/><line class="s" x2="24.244" y2="34.925" transform="translate(2.892 9.535)"/><line class="s" x2="24.244" y2="34.925" transform="translate(2.169 10.037)"/><line class="s" x2="24.244" y2="34.925" transform="translate(1.446 10.539)"/><line class="s" x2="24.244" y2="34.925" transform="translate(0.723 11.041)"/><line class="s" x2="24.244" y2="34.925" transform="translate(0 11.543)"/></g></g></g><g class="i" transform="translate(1190.336 327.381)"><g class="t" transform="translate(0 0)"><g transform="translate(-7.226 -8.452)"><line class="s" x2="13.805" y2="19.886" transform="translate(9.468)"/><line class="s" x2="13.805" y2="19.886" transform="translate(9.056 0.286)"/><line class="s" x2="13.805" y2="19.886" transform="translate(8.644 0.571)"/><line class="s" x2="13.805" y2="19.886" transform="translate(8.233 0.857)"/><line class="s" x2="13.805" y2="19.886" transform="translate(7.821 1.143)"/><line class="s" x2="13.805" y2="19.886" transform="translate(7.409 1.429)"/><line class="s" x2="13.805" y2="19.886" transform="translate(6.998 1.715)"/><line class="s" x2="13.805" y2="19.886" transform="translate(6.586 2)"/><line class="s" x2="13.805" y2="19.886" transform="translate(6.175 2.286)"/><line class="s" x2="13.805" y2="19.886" transform="translate(5.763 2.572)"/><line class="s" x2="13.805" y2="19.886" transform="translate(5.351 2.858)"/><line class="s" x2="13.805" y2="19.886" transform="translate(4.94 3.143)"/><line class="s" x2="13.805" y2="19.886" transform="translate(4.528 3.429)"/><line class="s" x2="13.805" y2="19.886" transform="translate(4.116 3.715)"/><line class="s" x2="13.805" y2="19.886" transform="translate(3.705 4.001)"/><line class="s" x2="13.805" y2="19.886" transform="translate(3.293 4.286)"/><line class="s" x2="13.805" y2="19.886" transform="translate(2.881 4.572)"/><line class="s" x2="13.805" y2="19.886" transform="translate(2.47 4.858)"/><line class="s" x2="13.805" y2="19.886" transform="translate(2.058 5.144)"/><line class="s" x2="13.805" y2="19.886" transform="translate(1.647 5.429)"/><line class="s" x2="13.805" y2="19.886" transform="translate(1.235 5.715)"/><line class="s" x2="13.805" y2="19.886" transform="translate(0.823 6.001)"/><line class="s" x2="13.805" y2="19.886" transform="translate(0.412 6.286)"/><line class="s" x2="13.805" y2="19.886" transform="translate(0 6.572)"/></g></g></g><g transform="translate(951.489 360.263) rotate(-19)"><g class="u" transform="translate(0 6.78)"><path class="d" d="M5.293,2.647A2.647,2.647,0,1,1,2.646,0,2.647,2.647,0,0,1,5.293,2.647Z"/></g><g transform="translate(50.233 0)"><g transform="translate(0 0)"><circle class="c" cx="2.755" cy="2.755" r="2.755"/></g></g></g><g class="b" transform="matrix(0.891, -0.454, 0.454, 0.891, 1222.403, 329.752)"><g transform="translate(0 0)"><circle class="c" cx="3.22" cy="3.22" r="3.22"/></g></g><g class="u" transform="matrix(0.891, -0.454, 0.454, 0.891, 1029.333, 345.354)"><path class="d" d="M6.187,3.094A3.094,3.094,0,1,1,3.093,0,3.093,3.093,0,0,1,6.187,3.094Z"/></g><g class="u" transform="matrix(0.891, -0.454, 0.454, 0.891, 1005.28, 234.592)"><path class="d" d="M6.187,3.094A3.094,3.094,0,1,1,3.093,0,3.093,3.093,0,0,1,6.187,3.094Z"/></g><g transform="translate(982.654 178.811)"><g transform="translate(28.117 3.965)"><circle class="c" cx="2.932" cy="2.932" r="2.932"/></g><g transform="translate(0)"><circle class="d" cx="1.076" cy="1.076" r="1.076"/></g><path class="v" d="M913.862,722.247H890.848a1.661,1.661,0,0,1-1.657-1.657h0a1.661,1.661,0,0,1,1.657-1.656h23.015a1.661,1.661,0,0,1,1.656,1.656h0A1.661,1.661,0,0,1,913.862,722.247Z" transform="translate(-822.586 -706.292)"/></g><g class="w" transform="translate(1178.78 346.587) rotate(180)"><g transform="translate(28.117 3.965)"><circle class="c" cx="2.932" cy="2.932" r="2.932"/></g><circle class="d" cx="1.076" cy="1.076" r="1.076"/><path class="v" d="M24.671,3.313H1.657A1.661,1.661,0,0,1,0,1.656H0A1.661,1.661,0,0,1,1.657,0H24.671a1.661,1.661,0,0,1,1.656,1.656h0A1.661,1.661,0,0,1,24.671,3.313Z" transform="translate(66.605 12.642)"/></g><g transform="translate(869.848 210.159)"><g transform="translate(0)"><g class="bb" transform="matrix(1, 0, 0, 1, -28.67, -39.06)"><path class="d" d="M1326.592,358.559v7.32c0,8.816-4.407,13.853-12.908,13.853s-12.908-5.037-12.908-13.853V337.23c0-8.815,4.408-13.853,12.908-13.853s12.908,5.038,12.908,13.853v5.352h-8.186v-5.9c0-3.935-1.731-5.431-4.486-5.431s-4.486,1.5-4.486,5.431V366.43c0,3.935,1.732,5.352,4.486,5.352s4.486-1.417,4.486-5.352v-7.871Z" transform="translate(-1272.1 -284.32)"/></g><g class="ba" transform="matrix(1, 0, 0, 1, -28.67, -39.06)"><path class="d" d="M1374.886,361.665l-10.94-36.835H1373l6.612,25.107,6.611-25.107h8.264l-10.94,36.835v18.26h-8.658Z" transform="translate(-1307.88 -285.14)"/></g><g class="az" transform="matrix(1, 0, 0, 1, -28.67, -39.06)"><path class="d" d="M1468.256,337.5v1.968c0,5.667-1.731,9.287-5.588,11.1,4.644,1.81,6.454,5.982,6.454,11.806v4.486c0,8.5-4.486,13.066-13.144,13.066h-13.616v-55.1h13.065C1464.4,324.83,1468.256,329,1468.256,337.5Zm-17.237-4.8v14.561h3.385c3.227,0,5.195-1.417,5.195-5.824v-3.069c0-3.935-1.338-5.667-4.407-5.667Zm0,22.432v16.922h4.959c2.912,0,4.486-1.338,4.486-5.431v-4.8c0-5.116-1.653-6.69-5.588-6.69Z" transform="translate(-1352.29 -285.14)"/></g><g class="ay" transform="matrix(1, 0, 0, 1, -28.67, -39.06)"><path class="d" d="M1524.715,348.048H1536.6v7.871h-11.885v16.135h14.954v7.871h-23.612v-55.1h23.612v7.87h-14.954Z" transform="translate(-1394.04 -285.14)"/></g><g class="ax" transform="matrix(1, 0, 0, 1, -28.67, -39.06)"><path class="d" d="M1600.96,379.925c-.472-1.417-.787-2.283-.787-6.769V364.5c0-5.116-1.732-7-5.667-7h-2.991v22.432h-8.658v-55.1h13.065c8.973,0,12.83,4.171,12.83,12.672v4.329c0,5.667-1.81,9.366-5.667,11.176,4.329,1.81,5.746,5.982,5.746,11.727v8.5a16.232,16.232,0,0,0,.944,6.69Zm-9.445-47.225v16.922h3.384c3.227,0,5.2-1.417,5.2-5.824v-5.431c0-3.935-1.338-5.667-4.408-5.667Z" transform="translate(-1431.87 -285.14)"/></g><g transform="translate(0.602 64.533)"><g transform="translate(28.555 3.59)"><g class="aw" transform="matrix(1, 0, 0, 1, -57.83, -107.18)"><path class="d" d="M1401.788,483.846c-3.767,0-6.436,2.719-6.449,7.124a6.418,6.418,0,0,0,6.474,6.508c1.947,0,3.156-.3,3.859-.879V494.37a7.467,7.467,0,0,1-3.237.65c-2.016.006-3.638-1.1-3.9-2.866l-.023-.157h2.354a11.44,11.44,0,0,0,4.758-.686,2.417,2.417,0,0,0,1.412-2.423,5.044,5.044,0,0,0-5.248-5.041m1.534,5.773a10.723,10.723,0,0,1-3.179.3H1398.5l.009-.142.025-.448a3,3,0,0,1,2.956-2.976,3.2,3.2,0,0,1,1.934.53,1.928,1.928,0,0,1,.746,1.61,1.1,1.1,0,0,1-.849,1.131m5.336-.691,0,8.321h3.089v-7.724a3.413,3.413,0,0,1,.629-2.275,2.277,2.277,0,0,1,1.828-.712,5.044,5.044,0,0,1,.84.068V484.16a3.431,3.431,0,0,0-1.564-.321c-3.461,0-4.812,2.457-4.824,5.09m-40.637,8.321h3.085V480.487h-3.085Zm11.4-13.4c-4.117,0-5.912,2.819-5.923,5.586v7.817h3.068v-7.592a3.513,3.513,0,0,1,.711-2.3,2.367,2.367,0,0,1,1.87-.831,2.669,2.669,0,0,1,2.107.821,3.789,3.789,0,0,1,.749,2.559l0,7.347h3.063v-7.641a5.4,5.4,0,0,0-5.647-5.763m11.069-3.359h-3.053l.01,12.1c.017,3.07,1.562,4.879,4.9,4.9,1.417,0,2.269-.464,2.62-1.2v-1.905a5.633,5.633,0,0,1-2.22.352,2.193,2.193,0,0,1-1.667-.6,2.753,2.753,0,0,1-.59-1.945v-5.661h2.674c1.307,0,1.853-.833,1.859-1.451v-1.225h-4.533Z" transform="translate(-1310.19 -373.31)"/></g><g class="av" transform="matrix(1, 0, 0, 1, -57.83, -107.18)"><path class="d" d="M1515.033,495.7a2.418,2.418,0,0,0,1.413-2.423,5.043,5.043,0,0,0-5.246-5.041c-3.768,0-6.439,2.719-6.448,7.124a6.417,6.417,0,0,0,6.47,6.508c1.947,0,3.159-.3,3.863-.879v-2.229a7.479,7.479,0,0,1-3.238.65c-2.017.006-3.638-1.1-3.9-2.866l-.022-.157h2.354a11.426,11.426,0,0,0,4.756-.686m-7.122-1.4.011-.142.022-.448a3,3,0,0,1,2.953-2.976,3.2,3.2,0,0,1,1.937.53,1.915,1.915,0,0,1,.747,1.61,1.1,1.1,0,0,1-.849,1.131,10.72,10.72,0,0,1-3.18.3Z" transform="translate(-1387.63 -377.7)"/></g><g class="au" transform="matrix(1, 0, 0, 1, -57.83, -107.18)"><path class="d" d="M1597.217,493.308v8.321h3.092v-7.724a3.413,3.413,0,0,1,.63-2.275,2.281,2.281,0,0,1,1.827-.712,5.018,5.018,0,0,1,.841.068v-2.447a3.433,3.433,0,0,0-1.565-.321c-3.459,0-4.81,2.457-4.825,5.09" transform="translate(-1440 -377.69)"/></g><g class="at" transform="matrix(1, 0, 0, 1, -57.83, -107.18)"><path class="d" d="M1483.858,501.741c-2.254,0-3.936-1.232-3.936-2.561V497.7h.113a5.881,5.881,0,0,0,3.682,1.234c1.5,0,2.228-.46,2.228-1.429,0-.749-.432-1.11-2.548-1.426-2.589-.386-3.837-1.475-3.837-3.457,0-2.444,2.065-4.522,5.2-4.522,2.779,0,3.911,1.522,3.911,2.78v1.232h-.113a5.158,5.158,0,0,0-3.5-1.206c-1.866,0-2.456.6-2.456,1.449,0,.654.365.92,2.456,1.281,2.541.436,3.907,1.62,3.907,3.7,0,2.756-1.819,4.4-5.11,4.4" transform="translate(-1373.36 -377.62)"/></g><g class="as" transform="matrix(1, 0, 0, 1, -57.83, -107.18)"><path class="d" d="M1546.192,497.89c.022.531.049,1.233.049,1.668,0,3.264-2.046,6.19-6,6.19-2.525,0-4.251-1.3-4.251-2.852V501.42h.135a5.229,5.229,0,0,0,3.891,1.4c2.2,0,3.2-1.111,3.2-3,0-.191,0-.458-.021-.678,0-.191-.021-.531-.021-.65v-.313a3.123,3.123,0,0,1-3.158,1.932,4.988,4.988,0,0,1-5.093-5.273c0-3.675,2.269-6.649,6.225-6.649,3.049,0,5,2.37,5,5.709v2.223c0,.436.022,1.184.046,1.766m-8.161-3.457c0,1.71.984,2.98,2.456,2.98,1.537,0,2.64-1.221,2.64-3.321,0-2.051-.967-3.054-2.317-3.054-1.583,0-2.779,1.418-2.779,3.4" transform="translate(-1404.72 -377.67)"/></g><g class="ar" transform="matrix(1, 0, 0, 1, -57.83, -107.18)"><path class="d" d="M1619.773,488.1c3.763,0,5.928,3.142,5.928,6.6,0,3.916-2.165,7.034-6.208,7.034-3.764,0-5.927-3.118-5.927-6.576,0-3.918,2.163-7.06,6.207-7.06m-.281,2.736c-1.864,0-2.812,1.613-2.812,3.856,0,2.694.948,4.309,3.1,4.309,1.889,0,2.811-1.615,2.811-3.832,0-2.72-.97-4.333-3.1-4.333" transform="translate(-1449.26 -377.62)"/></g><g class="aq" transform="matrix(1, 0, 0, 1, -57.83, -107.18)"><path class="d" d="M1571.385,502.193c4.1-.006,5.894-2.829,5.9-5.606v-7.844h-3.054v7.621a3.539,3.539,0,0,1-.711,2.309,2.353,2.353,0,0,1-1.863.836,2.654,2.654,0,0,1-2.1-.826,3.816,3.816,0,0,1-.746-2.568l0-7.372h-3.053v7.669a5.4,5.4,0,0,0,5.63,5.782" transform="translate(-1422.18 -377.98)"/></g></g><g class="ap" transform="matrix(1, 0, 0, 1, -29.28, -103.59)"><path class="x" d="M1305.361,472.207a3.2,3.2,0,0,0-3.2,3.2v20.738h20.741a3.2,3.2,0,0,0,3.2-3.2l0-20.737Zm15.151,17.275-12.757,2.305V478.911l12.757-2.305Z" transform="translate(-1272.89 -368.62)"/></g></g></g><g transform="translate(25.988 101.858)"><g transform="translate(0 0)"><g transform="translate(0 0)"><path class="y" d="M1422.943,575.025H1346.5c-4.909,0-8.888-4.34-8.888-9.693h0c0-5.354,3.979-9.694,8.888-9.694h76.441c4.909,0,8.888,4.34,8.888,9.694h0C1431.831,570.685,1427.852,575.025,1422.943,575.025Z" transform="translate(-1337.614 -555.638)"/></g></g><g transform="translate(6.904 4.845)"><g transform="translate(17.013 0.64)"><path class="d" d="M1405.5,577.684V571.26a.833.833,0,0,1,.912-.925h.512a.865.865,0,0,1,.962.65l1.637,3.837,1.65-3.837c.225-.5.425-.65.937-.65h.487a.841.841,0,0,1,.938.925v6.424c0,.55-.2.838-.725.838h-.287c-.5,0-.725-.288-.725-.838v-4.812l-1.35,3.274c-.138.312-.213.575-.937.575s-.787-.25-.925-.575l-1.35-3.212v4.749c0,.55-.188.838-.725.838h-.287C1405.712,578.521,1405.5,578.233,1405.5,577.684Z" transform="translate(-1405.499 -570.335)"/><path class="d" d="M1431.431,578.986a3.113,3.113,0,0,1,3.187-3.237,2.91,2.91,0,0,1,3.037,3.049v.125c-.012.313-.1.488-.425.488h-4.212a1.655,1.655,0,0,0,1.775,1.45,1.845,1.845,0,0,0,1.725-.9c.012-.025.85.088.85.787,0,.663-.937,1.4-2.637,1.4A3.036,3.036,0,0,1,1431.431,578.986Zm1.587-.6h3a1.361,1.361,0,0,0-1.425-1.412A1.582,1.582,0,0,0,1433.018,578.386Z" transform="translate(-1422.331 -573.849)"/><path class="d" d="M1457.077,578.986a3.113,3.113,0,0,1,3.187-3.237,2.91,2.91,0,0,1,3.037,3.049v.125c-.012.313-.1.488-.425.488h-4.212a1.655,1.655,0,0,0,1.775,1.45,1.846,1.846,0,0,0,1.724-.9c.013-.025.85.088.85.787,0,.663-.937,1.4-2.637,1.4A3.036,3.036,0,0,1,1457.077,578.986Zm1.587-.6h3a1.362,1.362,0,0,0-1.425-1.412A1.582,1.582,0,0,0,1458.664,578.386Z" transform="translate(-1438.977 -573.849)"/><path class="d" d="M1479.318,576.824a2.315,2.315,0,0,1,2.012-1.075c1.587,0,2.262,1.125,2.262,2.525V581.2c0,.638-.325.838-.775.838h-.187c-.475,0-.8-.188-.8-.838v-2.662c0-.812-.412-1.312-1.125-1.312a1.479,1.479,0,0,0-1.35.8V581.2c0,.638-.325.838-.775.838h-.188c-.475,0-.8-.188-.8-.838v-5.174a.979.979,0,0,1,.663-.2A1.025,1.025,0,0,1,1479.318,576.824Z" transform="translate(-1452.294 -573.849)"/><path class="d" d="M1497.363,578.958a3.082,3.082,0,0,1,3.212-3.174c1.862,0,2.6,1.063,2.6,1.65,0,.712-.938.838-.975.775a1.52,1.52,0,0,0-1.55-1.012,1.656,1.656,0,0,0-1.662,1.762,1.674,1.674,0,0,0,1.662,1.8,1.541,1.541,0,0,0,1.55-1.012c.025-.075.975.038.975.787,0,.575-.775,1.637-2.6,1.637A3.077,3.077,0,0,1,1497.363,578.958Z" transform="translate(-1465.126 -573.872)"/><path class="d" d="M1515.706,580.36c0-1.4,1.25-2.037,3.924-2.075h.2a1.105,1.105,0,0,0-1.25-1.212,1.561,1.561,0,0,0-1.513.937c0,.025-1.137.063-1.137-.75,0-.763.9-1.512,2.762-1.512,1.925,0,2.875.875,2.875,2.512v3.612c0,.087-.325.2-.663.2a.982.982,0,0,1-1.037-.963,2.5,2.5,0,0,1-2.112,1.012A1.8,1.8,0,0,1,1515.706,580.36Zm4.124-.762v-.35l-.325.012c-1.388.038-2.113.312-2.113.975,0,.45.363.737.95.737A1.378,1.378,0,0,0,1519.83,579.6Z" transform="translate(-1477.032 -573.849)"/><path class="d" d="M1537.77,576.824a2.316,2.316,0,0,1,2.012-1.075c1.587,0,2.262,1.125,2.262,2.525V581.2c0,.638-.325.838-.775.838h-.187c-.475,0-.8-.188-.8-.838v-2.662c0-.812-.413-1.312-1.125-1.312a1.479,1.479,0,0,0-1.35.8V581.2c0,.638-.325.838-.775.838h-.187c-.475,0-.8-.188-.8-.838v-5.174a.978.978,0,0,1,.662-.2A1.025,1.025,0,0,1,1537.77,576.824Z" transform="translate(-1490.234 -573.849)"/><path class="d" d="M1555,573.9v-.113c0-.425.237-.65.737-.65h.3v-.775a.74.74,0,0,1,.8-.85h.15c.475,0,.788.2.788.85v.775h1.062c.5,0,.713.212.713.625v.1c0,.425-.225.65-.725.65h-1.088v2.6c0,.6.2.9.675.9a.956.956,0,0,0,.787-.413.689.689,0,0,1,.425.687c0,.613-.612,1.112-1.612,1.112-1.35,0-1.975-.712-1.975-2.087v-2.8h-.3C1555.232,574.51,1555,574.3,1555,573.9Z" transform="translate(-1502.534 -571.098)"/><path class="d" d="M1569.456,580.36c0-1.4,1.25-2.037,3.924-2.075h.2a1.105,1.105,0,0,0-1.25-1.212,1.561,1.561,0,0,0-1.513.937c0,.025-1.137.063-1.137-.75,0-.763.9-1.512,2.762-1.512,1.925,0,2.875.875,2.875,2.512v3.612c0,.087-.325.2-.662.2a.982.982,0,0,1-1.037-.963,2.5,2.5,0,0,1-2.112,1.012A1.8,1.8,0,0,1,1569.456,580.36Zm4.124-.762v-.35l-.325.012c-1.388.038-2.113.312-2.113.975,0,.45.363.737.95.737A1.378,1.378,0,0,0,1573.581,579.6Z" transform="translate(-1511.92 -573.849)"/></g><path class="n" d="M1369.733,572.164a3.53,3.53,0,0,0-3.32-3.655,3.179,3.179,0,0,1-6.074,0,3.53,3.53,0,0,0-3.32,3.655c0,3.229,4.954,6.926,6.176,7.313a.567.567,0,0,0,.072.021.479.479,0,0,0,.1.014h.018a.478.478,0,0,0,.1-.014.587.587,0,0,0,.072-.021C1364.78,579.091,1369.733,575.394,1369.733,572.164Z" transform="translate(-1357.019 -568.51)"/></g></g></g><g class="ao" transform="matrix(1, 0, 0, 1, 841.17, 171.1)"><path class="d" d="M2220.993,575.218a.538.538,0,0,1,.607-.607h.154a.541.541,0,0,1,.616.607v.127a.545.545,0,0,1-.616.607h-.154a.542.542,0,0,1-.607-.607Z" transform="translate(-2071.63 -405.66)"/></g><g transform="translate(1058.276 187.329)"><g transform="matrix(0.035, 0.999, -0.999, 0.035, 138.236, 0)"><circle class="z" cx="65.18" cy="65.18" r="65.18" transform="translate(3.98 3.981)"/><circle class="aa" cx="65.18" cy="65.18" r="65.18" transform="translate(7.961 7.961)"/><circle class="ab" cx="69.16" cy="69.16" r="69.16" transform="translate(0 0)"/><circle class="ac" cx="65.18" cy="65.18" r="65.18" transform="translate(7.961 7.961)"/><circle class="ad" cx="65.18" cy="65.18" r="65.18" transform="translate(4.05 1.991)"/></g><g transform="translate(14.369 51.805)"><g class="an" transform="matrix(1, 0, 0, 1, -231.47, -68.03)"><path class="d" d="M1915.086,486.171V452.656a7.353,7.353,0,0,1-4.765,1.725,8.046,8.046,0,0,1-5.257-1.889,6.624,6.624,0,0,1-2.053-4.929c0-4.025,2.875-5.915,3.2-5.75a7.646,7.646,0,0,0,5.011,1.807,7.13,7.13,0,0,0,6.982-6.161h3.532c3.45,0,5.257,1.89,5.257,5.586v43.126c0,3.614-1.807,5.586-5.257,5.586h-1.561C1916.811,491.757,1915.086,489.785,1915.086,486.171Z" transform="translate(-1671.54 -369.22)"/></g><g class="am" transform="matrix(1, 0, 0, 1, -231.47, -68.03)"><path class="d" d="M1991.974,489.8c-3.368-2.053-5.257-4.6-5.257-7.065,0-3.532,4.6-6.079,5.011-5.668a17.687,17.687,0,0,0,14.622,7.147c6.818,0,11.008-3.368,11.008-8.707s-3.779-8.461-10.6-8.461c-5.258,0-8.544,1.479-10.926,3.286-4.765-.165-7.146-2.218-7.146-7.065V445.69c0-4.271,1.807-6.735,5.832-6.735h25.711c3.779,0,5.668,1.561,5.668,4.764v.411c0,3.2-1.807,4.682-5.668,4.682h-21.44v11.911a25.79,25.79,0,0,1,9.693-1.972c11.829,0,19.633,6.407,19.633,16.84,0,10.761-8.3,17.661-21.6,17.661C2000.353,493.251,1995.424,491.855,1991.974,489.8Z" transform="translate(-1723.05 -370.14)"/></g><g class="al" transform="matrix(1, 0, 0, 1, -231.47, -68.03)"><path class="d" d="M2111.768,445.117v-.368c0-4.191,3.132-7.139,7.461-7.139,4.283,0,7.369,2.9,7.369,7.092v.368c0,4.191-3.132,7.139-7.415,7.139S2111.768,449.308,2111.768,445.117Zm2.349,21.14a3.287,3.287,0,0,1,1.243-2.349l23.166-26.39c.23-.276,2.763.415,2.763,2.073a4.047,4.047,0,0,1-1.243,2.441l-23.166,26.344C2116.65,468.651,2114.116,467.868,2114.116,466.256Zm8.152-20.955v-.737c0-2.211-1.336-3.5-3.086-3.5-1.8,0-3.086,1.244-3.086,3.5v.737a3.1,3.1,0,0,0,3.132,3.408C2120.979,448.709,2122.268,447.466,2122.268,445.3Zm6.678,15.889v-.368c0-4.191,3.177-7.138,7.461-7.138s7.369,2.855,7.369,7.092v.368a7.005,7.005,0,0,1-7.369,7.138C2132.078,468.283,2128.947,465.381,2128.947,461.19Zm10.546.138v-.737c0-2.165-1.336-3.5-3.085-3.5-1.843,0-3.086,1.289-3.086,3.5v.737c0,2.165,1.29,3.454,3.086,3.454C2138.157,464.783,2139.493,463.493,2139.493,461.328Z" transform="translate(-1799.29 -369.43)"/></g><g class="ak" transform="matrix(1, 0, 0, 1, -231.47, -68.03)"><path class="d" d="M2114.305,557.419a.825.825,0,0,1,.848-.9h1.809c2.381,0,3.825,1.334,3.825,3.539s-1.477,3.594-3.88,3.594h-1.7a.9.9,0,0,1-.9-.893Zm4.862,2.646a2.019,2.019,0,0,0-2.249-2.161h-1v4.355h.982A2.045,2.045,0,0,0,2119.167,560.065Z" transform="translate(-1801.04 -453.03)"/></g><g class="aj" transform="matrix(1, 0, 0, 1, -231.47, -68.03)"><path class="d" d="M2136.006,562.013c0-.452.562-.86.617-.8a2.907,2.907,0,0,0,2.117.959c.848,0,1.3-.309,1.3-.86,0-.639-.717-.771-1.555-.959-1.136-.254-2.3-.673-2.3-2.139,0-1.323,1.058-2.194,2.778-2.194a3.5,3.5,0,0,1,2.051.529.98.98,0,0,1,.5.783,1.06,1.06,0,0,1-.639.849,2.554,2.554,0,0,0-1.9-.871c-.772,0-1.235.32-1.235.838,0,.617.639.705,1.521.9,1.29.287,2.415.816,2.415,2.161,0,1.422-1.047,2.249-2.922,2.249a3.588,3.588,0,0,1-2.3-.651A1.023,1.023,0,0,1,2136.006,562.013Z" transform="translate(-1816.04 -452.68)"/></g><g class="ai" transform="matrix(1, 0, 0, 1, -231.47, -68.03)"><path class="d" d="M2158.916,556.016a3.475,3.475,0,0,1,2.084.6,1.419,1.419,0,0,1,.65,1.025c0,.717-.915.882-.937.827a1.949,1.949,0,0,0-1.742-.97,2.052,2.052,0,0,0-2.051,2.238,2.084,2.084,0,0,0,2.073,2.249,1.822,1.822,0,0,0,1.764-1.069c.022-.066.97.1.97.816a1.528,1.528,0,0,1-.684,1.091,3.481,3.481,0,0,1-2.149.64,3.721,3.721,0,0,1,.022-7.442Z" transform="translate(-1829.34 -452.68)"/></g><g class="ah" transform="matrix(1, 0, 0, 1, -231.47, -68.03)"><path class="d" d="M2178.519,557.937h-1.61c-.485,0-.75-.242-.75-.694v-.055c0-.441.265-.672.75-.672h4.818c.5,0,.75.232.75.672v.055c0,.452-.253.694-.75.694h-1.576v5.016a.66.66,0,0,1-.728.739h-.231c-.441,0-.672-.253-.672-.739Z" transform="translate(-1843.79 -453.03)"/></g><g class="ag" transform="matrix(1, 0, 0, 1, -231.47, -68.03)"><path class="d" d="M2195.864,559.742a3.573,3.573,0,0,1,3.682-3.726,3.721,3.721,0,1,1-3.682,3.726Zm5.733,0a2.085,2.085,0,0,0-2.062-2.282,2.05,2.05,0,0,0-2.051,2.271,2.067,2.067,0,1,0,4.113.011Z" transform="translate(-1857.41 -452.68)"/></g></g><g class="af" transform="matrix(1, 0, 0, 1, -217.1, -16.23)"><path class="d" d="M2.839-12.972h.294a.822.822,0,0,0,.909-.937v-2.784h3.9v2.784c0,.615.294.937.853.937h.308a.818.818,0,0,0,.9-.937V-21.2c0-.629-.308-.937-.9-.937H8.8c-.56,0-.853.308-.853.937v2.756h-3.9V-21.2a.816.816,0,0,0-.909-.937H2.839c-.56,0-.867.308-.867.937v7.288C1.972-13.294,2.28-12.972,2.839-12.972Zm8.365-1.86c0,1.175.867,1.958,2.294,1.958a2.727,2.727,0,0,0,2.364-1.175,2.8,2.8,0,0,0,.112.462,1.019,1.019,0,0,0,1.035.657c.378,0,.741-.126.741-.224v-4.028c0-1.832-1.049-2.826-3.217-2.826a3.679,3.679,0,0,0-2.658.8,1.249,1.249,0,0,0-.42.9c0,.909,1.259.811,1.273.783a1.71,1.71,0,0,1,1.679-.993,1.207,1.207,0,0,1,1.385,1.231.86.86,0,0,1,.014.2h-.224C12.687-17.056,11.2-16.357,11.2-14.832Zm4.6-.783a1.539,1.539,0,0,1-1.693,1.469c-.657,0-1.063-.322-1.063-.839,0-.769.825-1.063,2.378-1.119h.378Zm3.511,2.224a4.492,4.492,0,0,0,2.35.518c1.916,0,3.007-.825,3.007-2.2,0-1.539-1.539-1.846-2.5-2.056-.923-.21-1.455-.308-1.455-.8,0-.434.406-.713,1.161-.713a2.711,2.711,0,0,1,2,.923.979.979,0,0,0,.629-.825,1.009,1.009,0,0,0-.168-.56,3,3,0,0,0-2.588-.909c-1.762,0-2.839.881-2.839,2.21,0,1.539,1.455,1.846,2.392,2.042.909.2,1.455.294,1.455.825,0,.434-.42.7-1.189.7a2.984,2.984,0,0,1-2.252-.923.868.868,0,0,0-.6.783A1.191,1.191,0,0,0,19.317-13.392Zm9.26.56a2.039,2.039,0,0,0,1.469-.5,1,1,0,0,0,.336-.755.775.775,0,0,0-.49-.769,1,1,0,0,1-.853.462c-.546,0-.755-.336-.755-1.007v-2.909h1.2c.56,0,.811-.252.811-.727v-.126c0-.448-.238-.685-.8-.685H28.311v-.867c0-.727-.35-.951-.867-.951h-.182c-.56,0-.881.308-.881.951v.867h-.364c-.546,0-.8.266-.8.727v.112c0,.448.252.7.811.7h.35v3.133C26.38-13.63,27.08-12.832,28.576-12.832Zm2.434-2c0,1.175.867,1.958,2.294,1.958a2.727,2.727,0,0,0,2.364-1.175,2.8,2.8,0,0,0,.112.462,1.019,1.019,0,0,0,1.035.657c.378,0,.741-.126.741-.224v-4.028c0-1.832-1.049-2.826-3.217-2.826a3.679,3.679,0,0,0-2.658.8,1.249,1.249,0,0,0-.42.9c0,.909,1.259.811,1.273.783a1.71,1.71,0,0,1,1.679-.993A1.207,1.207,0,0,1,35.6-17.294a.86.86,0,0,1,.014.2h-.224C32.493-17.056,31.01-16.357,31.01-14.832Zm4.6-.783a1.539,1.539,0,0,1-1.693,1.469c-.657,0-1.063-.322-1.063-.839,0-.769.825-1.063,2.378-1.119h.378Z" transform="translate(232.72 75.36)"/></g></g><g class="ae" transform="translate(1053.51 216.283)"><g transform="translate(0 0)"><ellipse class="c" cx="2.22" cy="2.22" rx="2.22" ry="2.22"/></g><g transform="translate(16.865 89.859)"><ellipse class="c" cx="3.135" cy="3.135" rx="3.135" ry="3.135"/></g><g transform="translate(7.035 83.42)"><ellipse class="d" cx="1.151" cy="1.151" rx="1.151" ry="1.151"/></g></g></g></svg>