<svg xmlns="http://www.w3.org/2000/svg" xmlns:xlink="http://www.w3.org/1999/xlink" width="363.121" height="247.754" viewBox="0 0 363.121 247.754"><defs><style>.a{fill:#00adee;}.b{fill:#fff;}.c{fill:#ea0b90;}.d{fill:#08c4c4;}.e{fill:#0ac4c4;}.f{fill:#78d8d8;}.g{filter:url(#e);}.h{filter:url(#c);}.i{filter:url(#a);}</style><filter id="a" x="31.385" y="28.785" width="315.427" height="218.969" filterUnits="userSpaceOnUse"><feOffset dy="3" input="SourceAlpha"/><feGaussianBlur stdDeviation="3" result="b"/><feFlood flood-opacity="0.161"/><feComposite operator="in" in2="b"/><feComposite in="SourceGraphic"/></filter><filter id="c" x="0" y="13.194" width="192.458" height="65.32" filterUnits="userSpaceOnUse"><feOffset dy="3" input="SourceAlpha"/><feGaussianBlur stdDeviation="3" result="d"/><feFlood flood-opacity="0.161"/><feComposite operator="in" in2="d"/><feComposite in="SourceGraphic"/></filter><filter id="e" x="279.446" y="0" width="83.675" height="82.633" filterUnits="userSpaceOnUse"><feOffset dy="3" input="SourceAlpha"/><feGaussianBlur stdDeviation="3" result="f"/><feFlood flood-opacity="0.161"/><feComposite operator="in" in2="f"/><feComposite in="SourceGraphic"/></filter></defs><g transform="translate(-764 -242.098)"><g transform="translate(773 261.291)"><g transform="translate(31.385 15.592)"><g class="i" transform="matrix(1, 0, 0, 1, -40.38, -34.79)"><path class="a" d="M3021.381-522.779l11.45-118.267a30.221,30.221,0,0,0-28.867-31.518l-237.013,4.077a30.219,30.219,0,0,0-31.518,28.865s5.635,67.471,13.153,111.554c4.937,28.943,24.077,34.759,71.47,34.759,70.615-2.19,114.241-2.2,115.327-.708,16.914,23.274,42.963,22.417,42.963,22.417s-10.623-14.373,1.719-22.106c.04-.186,1.652-.115,1.7-.3l8.1.087A30.221,30.221,0,0,0,3021.381-522.779Z" transform="translate(-2695.05 707.35)"/></g></g><g transform="translate(58.352 57.628)"><path class="b" d="M2751.017-622.636l3.473-17.341a2.922,2.922,0,0,1,3.125-2.644l5.113-.06c5.32-.062,8.3,2.1,8.348,6.287.06,5.184-3.092,8.651-9.752,8.73l-4.22.048-1.038,5.058c-.291,1.549-1,2.313-2.479,2.328l-.722.009C2751.492-620.2,2750.693-621.052,2751.017-622.636Zm10.675-8.842c2.747-.033,4.444-1.6,4.411-4.343-.02-1.887-1.27-2.938-3.843-2.907l-3.021.034-1.426,7.26Z" transform="translate(-2741.271 646.229)"/><path class="b" d="M2773.7-639.87c1.683-.019,3,.927,3.017,2.334a3.069,3.069,0,0,1-2.127,3.082,2.98,2.98,0,0,0-2.346-.969c-2.162.026-3.507,2.443-4.221,5.987l-.908,4.645c-.357,1.721-.968,2.313-2.2,2.327l-.517.005c-1.3.015-2.478-.486-2.119-2.275l2.886-14.451a2.133,2.133,0,0,1,1.335-.324c1.372-.015,2.719.69,2.713,2.922C2770.249-638.628,2771.744-639.846,2773.7-639.87Z" transform="translate(-2733.206 648.242)"/><path class="b" d="M2775.858-622.411c-4.185.048-6.04-2.986-5.132-7.6l1.458-7.329c.355-1.79,1-2.347,2.2-2.361l.513-.005c1.306-.016,2.514.486,2.124,2.31l-1.429,6.985c-.489,2.373.424,3.977,2.586,3.952,1.681-.021,2.771-.856,3.814-2.515l1.688-8.5c.355-1.788.966-2.344,2.2-2.359l.516-.005c1.3-.015,2.477.486,2.121,2.31l-2.076,10.426c-.391,1.858-.073,2.539,1.234,2.766.069.033-.187,1.719-2.657,1.747-2.3.027-3.378-1.2-3.4-3.152A6.767,6.767,0,0,1,2775.858-622.411Z" transform="translate(-2727.271 648.266)"/><path class="b" d="M2785.617-629.647c.029,2.334,1.487,3.76,4.128,3.729a5.97,5.97,0,0,0,4.916-2.495c.067-.1,2.061.216,2.08,1.795a2.632,2.632,0,0,1-.9,2.071c-1.256,1.251-3.24,2.028-6.123,2.063-5.49.063-8.133-2.927-8.181-7.011a10.271,10.271,0,0,1,10.413-10.59c4.255-.05,6.649,1.913,6.683,4.832.04,3.432-2.133,5.515-9.581,5.6-1.03.012-2.164-.043-3.433-.1Zm2.951-2.986c4.7-.055,6-1.134,5.978-2.438-.01-.892-.947-1.774-2.766-1.754a6.268,6.268,0,0,0-5.547,4.116C2787.094-632.65,2787.883-632.624,2788.568-632.633Z" transform="translate(-2719.373 648.086)"/><path class="b" d="M2793.045-620.024c-.927.012-1.721-.391-1.69-.563l4.218-21.126c.357-1.755.968-2.346,2.2-2.359l.549-.007c1.27-.014,2.478.52,2.087,2.311l-1.393,7.119a6.328,6.328,0,0,1,5.252-2.805c3.6-.043,6.618,2.5,6.671,7.131.064,5.251-3.344,10.405-8.629,10.467a6.223,6.223,0,0,1-5.7-3.195C2795.988-620.882,2794.933-620.045,2793.045-620.024Zm4.707-8.5c-.482,2.716.983,4.9,3.8,4.863,3.088-.036,4.736-3.008,4.7-6.026-.027-2.438-1.59-3.929-3.614-3.907a5.463,5.463,0,0,0-4.4,2.661Z" transform="translate(-2712.342 645.229)"/><path class="b" d="M2809.844-622.726c-3.6.043-6.379-2.466-6.429-6.792-.062-5.353,3.686-10.752,9.073-10.815a5.889,5.889,0,0,1,5.424,2.958c.63-1.963,1.719-2.768,3.5-2.787.959-.012,1.719.391,1.688.563l-2.431,12.181c-.391,1.858-.041,2.54,1.268,2.766.032.032-.185,1.719-2.658,1.747-2.436.029-3.481-1.3-3.439-3.392A7.019,7.019,0,0,1,2809.844-622.726Zm3.341-13.839c-3.192.038-5.112,3.252-5.077,6.308a3.39,3.39,0,0,0,3.442,3.667,5.528,5.528,0,0,0,5.1-4.695l.453-2.373A3.829,3.829,0,0,0,2813.184-636.565Z" transform="translate(-2703.708 647.91)"/><path class="b" d="M2761.26-589.776c-4.725.055-8.684-3.321-8.755-9.354-.08-6.891,4.39-13.652,11.324-13.733a8.36,8.36,0,0,1,7.475,3.877l1.961-9.7c.421-2.3,1.269-3.077,2.891-3.1l.674-.008c1.711-.02,3.249.683,2.782,3.032l-4.6,22.838c-.559,2.438-.052,3.332,1.664,3.627.044.044-.246,2.256-3.486,2.294-3.108.035-4.479-1.66-4.509-4.272A8.458,8.458,0,0,1,2761.26-589.776Zm3.66-18.145c-4.142.049-6.3,4.036-6.254,8,.038,3.2,2.085,5.109,4.7,5.079,3.018-.036,5.6-2.406,6.281-5.927l.682-3.3C2769.354-606.443,2767.938-607.956,2764.921-607.921Z" transform="translate(-2752.504 659.96)"/><path class="b" d="M2774.558-602.655c.037,3.062,1.95,4.93,5.417,4.889a7.832,7.832,0,0,0,6.449-3.272c.087-.136,2.7.284,2.728,2.355a3.447,3.447,0,0,1-1.185,2.716c-1.648,1.64-4.247,2.66-8.03,2.7-7.2.084-10.672-3.839-10.735-9.2a13.478,13.478,0,0,1,13.665-13.9c5.582-.065,8.72,2.512,8.763,6.338.054,4.5-2.8,7.239-12.569,7.352-1.349.016-2.839-.057-4.505-.128Zm3.874-3.918c6.167-.073,7.864-1.488,7.845-3.2-.014-1.171-1.245-2.327-3.63-2.3a8.215,8.215,0,0,0-7.28,5.4C2776.5-606.6,2777.532-606.561,2778.432-606.572Z" transform="translate(-2742.823 663.114)"/><path class="b" d="M2788.667-603.541c-.107-9.32,6.777-17.507,16.324-17.617,4.772-.055,7.625,1.441,9.311,3.088a5.83,5.83,0,0,1,1.889,3.671c.039,3.466-4.1,3.965-4.325,3.7a6.633,6.633,0,0,0-6.763-4.513c-5.493.063-9.624,5.02-9.556,10.829.055,4.592,3.106,7.618,7.474,7.567a8.373,8.373,0,0,0,7.206-3.82c.131-.183,3.293.591,3.324,3.158a4.507,4.507,0,0,1-1.54,3.079,13.534,13.534,0,0,1-9.324,3.531C2794.221-590.772,2788.759-595.663,2788.667-603.541Z" transform="translate(-2731.539 660.328)"/><path class="b" d="M2806.59-603.8c-.111-9.5,6.687-17.459,16.232-17.57,8.781-.1,13.575,5.651,13.657,12.676.111,9.5-6.687,17.5-16.234,17.616C2811.423-590.972,2806.672-596.771,2806.59-603.8Zm23.23-4.368c-.049-4.141-2.7-7.442-7.338-7.389-4.907.057-9.308,4.837-9.234,11.231.049,4.186,2.7,7.488,7.335,7.433C2825.446-596.945,2829.895-601.725,2829.82-608.164Z" transform="translate(-2721.148 660.207)"/><path class="b" d="M2832.925-594.364l-5.014-24.529c-.14-.585,1.955-2.229,4.027-2.253,1.756-.021,2.894,1.09,3.144,3.159l2.911,18.025,11.5-21.48c.044-.136,4.953-.1,4.99,3.229.013,1.036-.428,1.942-1.444,3.575l-12.369,20.677a4.31,4.31,0,0,1-4.114,2.344C2834.308-591.588,2833.3-592.522,2832.925-594.364Z" transform="translate(-2708.791 660.142)"/><path class="b" d="M2844.018-595.089l4.683-23.336c.472-2.076,1.363-3.031,3.254-3.054l.99-.013c1.8-.021,2.848,1.093,2.423,3.169l-4.683,23.336c-.425,2.122-1.36,3.033-3.251,3.055l-.99.013C2844.643-591.9,2843.594-593.012,2844.018-595.089Z" transform="translate(-2699.503 660.135)"/><path class="b" d="M2851.353-596.435l4.3-21.529a3.838,3.838,0,0,1,4.1-3.471l5.627-.065c8.87-.1,14.193,4.516,14.28,11.948.106,9.139-5.79,17.088-17.99,17.23l-6.935.081C2851.986-592.209,2850.756-593.546,2851.353-596.435Zm11.147-1.524c7.161-.084,10.572-5.033,10.507-10.662-.054-4.591-3.06-7.3-8.193-7.243l-3.016.035-3.574,17.919Z" transform="translate(-2695.282 660.13)"/><path class="b" d="M2870.061-608.139a5.249,5.249,0,0,1,1.047-3.03,2.857,2.857,0,0,1,2.377-.793l10.218-.12c1.757-.019,2.619.646,2.635,1.952a5.4,5.4,0,0,1-1.044,3.074,3.024,3.024,0,0,1-2.378.793l-10.221.119C2870.941-606.123,2870.075-606.788,2870.061-608.139Z" transform="translate(-2684.35 665.591)"/><path class="b" d="M2885.358-595.512l3.618-18.1a4.227,4.227,0,0,1-2.512.93,3.938,3.938,0,0,1-2.757-.869,3.071,3.071,0,0,1-.835-2.242,4.013,4.013,0,0,1,2.207-3.855,4.358,4.358,0,0,0,3.074,1.046,4.7,4.7,0,0,0,4.191-3.427l1.757-.019c1.98-.024,2.938.956,2.467,3.122l-4.725,23.516c-.427,2.122-1.362,3.035-3.251,3.055l-.811.009C2885.981-592.321,2884.933-593.437,2885.358-595.512Z" transform="translate(-2676.923 659.814)"/><path class="b" d="M2893.665-594.6a4.32,4.32,0,0,1-1.343-2.957c-.03-2.746,3.161-3.324,3.253-3.144a6.909,6.909,0,0,0,6.3,3.393c4.323-.051,6.764-2.825,8.013-7.883a13.866,13.866,0,0,1-7.268,2.155c-5.267.062-8.948-2.641-9.006-7.73-.074-6.3,4.551-11.491,12.161-11.58,7.156-.084,11.439,4.189,11.518,10.989.042,3.646-1.264,11.407-5.269,15.551-2.224,2.278-4.908,3.7-9.725,3.761C2897.657-591.988,2895.3-593,2893.665-594.6Zm16.982-14.922a10.639,10.639,0,0,0,.2-1.94c.18-3.829-1.824-6.013-5.2-5.973a5.508,5.508,0,0,0-5.7,5.831c.031,2.656,1.673,4.3,5.05,4.262A8.343,8.343,0,0,0,2910.647-609.521Z" transform="translate(-2671.444 659.641)"/><path class="b" d="M2772.05-565.306c-4.727.055-8.368-3.235-8.434-8.908-.083-7.024,4.834-14.106,11.9-14.188a7.722,7.722,0,0,1,7.114,3.878c.828-2.577,2.256-3.629,4.6-3.656,1.261-.016,2.258.513,2.215.741l-3.191,15.978c-.512,2.437-.052,3.332,1.664,3.629.046.043-.245,2.254-3.487,2.292-3.2.036-4.569-1.7-4.51-4.452A9.212,9.212,0,0,1,2772.05-565.306Zm4.384-18.153c-4.19.047-6.708,4.265-6.66,8.272.034,3.017,1.992,4.842,4.515,4.812,3.24-.038,6-2.681,6.682-6.158l.6-3.114A5.025,5.025,0,0,0,2776.433-583.459Z" transform="translate(-2746.063 679.319)"/><path class="b" d="M2793.594-562.28c-4.727.054-8.684-3.322-8.753-9.355-.081-6.889,4.386-13.651,11.322-13.731a8.363,8.363,0,0,1,7.475,3.875l1.959-9.7c.424-2.3,1.27-3.079,2.893-3.1l.674-.008c1.709-.019,3.248.683,2.78,3.032l-4.6,22.838c-.56,2.438-.052,3.332,1.664,3.629.045.043-.247,2.254-3.487,2.292-3.107.036-4.479-1.66-4.508-4.272A8.46,8.46,0,0,1,2793.594-562.28Zm3.66-18.147c-4.142.049-6.3,4.036-6.256,8,.038,3.2,2.087,5.111,4.7,5.081,3.018-.035,5.6-2.408,6.281-5.929l.683-3.3C2801.687-578.946,2800.271-580.461,2797.254-580.427Z" transform="translate(-2733.758 675.9)"/><path class="b" d="M2801.618-575.735c-.078-6.709,4.577-13.024,12.276-13.112,6.575-.077,10.586,4.289,10.653,9.962.079,6.709-4.575,13.023-12.275,13.112C2805.7-565.7,2801.684-570.017,2801.618-575.735Zm17.395-2.815a5.214,5.214,0,0,0-5.241-5.477c-3.919.044-6.665,3.858-6.617,8a5.2,5.2,0,0,0,5.241,5.431C2816.315-570.638,2819.06-574.452,2819.013-578.55Z" transform="translate(-2724.031 679.061)"/><path class="b" d="M2847.629-589.16c4.142-.047,6.834,2.982,6.881,7.035a28.618,28.618,0,0,1-1.186,6.453,23.818,23.818,0,0,0-1.022,4.875c.014,1.261.649,1.749,1.823,1.915.136,0-.33,2.616-3.8,2.655-2.972.035-4.34-1.48-4.368-3.821a20.909,20.909,0,0,1,1.019-5.461,24.285,24.285,0,0,0,.889-4.738c-.025-2.251-1.347-3.586-3.284-3.564s-3.275.894-4.693,2.981l-2.3,11.464c-.467,2.3-1.4,3.035-3.024,3.052l-.676.008c-1.665.021-3.114-.638-2.646-2.986l1.872-9.388c.6-2.979-.687-4.99-3.03-4.962-1.981.024-3.276.893-4.693,2.935l-2.3,11.51c-.466,2.348-1.4,3.033-3.027,3.052l-.673.008c-1.712.021-3.115-.638-2.648-2.987l3.786-18.955a2.817,2.817,0,0,1,1.754-.426c1.8-.021,3.521.905,3.554,3.652a8.685,8.685,0,0,1,7.292-4.137,6.211,6.211,0,0,1,6.447,4.7C2841.392-587.106,2843.937-589.117,2847.629-589.16Z" transform="translate(-2715.314 678.88)"/><path class="b" d="M2842.128-568.8l2.725-13.5c.466-2.3,1.269-3.077,2.89-3.1l.676-.006c1.711-.021,3.251.637,2.782,3.03l-2.768,13.678c-.467,2.436-.05,3.376,1.8,3.625.046.044-.291,2.254-3.668,2.294C2842.469-562.728,2841.4-565.238,2842.128-568.8Zm4.283-22.791a3.545,3.545,0,0,1,3.647-3.734c2.253-.027,3.526,1.084,3.545,2.706a3.545,3.545,0,0,1-3.647,3.734C2847.7-588.863,2846.428-589.974,2846.411-591.594Z" transform="translate(-2700.666 675.303)"/><path class="b" d="M2848.66-576.282c-.081-6.889,5.343-13.031,12.414-13.114,3.735-.043,6.315,1.142,7.864,2.655a5.169,5.169,0,0,1,1.708,3.537c.038,3.286-3.922,3.423-4.019,3.063a4.978,4.978,0,0,0-5.36-4.169c-4.1.047-6.8,3.727-6.758,7.463a5.189,5.189,0,0,0,5.6,5.43,6.058,6.058,0,0,0,5.321-3.169c.133-.227,2.976.325,3,2.532a4.373,4.373,0,0,1-1.45,2.943,10.45,10.45,0,0,1-7.352,2.787C2853.281-566.249,2848.735-569.889,2848.66-576.282Z" transform="translate(-2696.757 678.743)"/><path class="b" d="M2863.1-569.047l2.727-13.5c.467-2.3,1.27-3.077,2.891-3.1l.676-.01c1.711-.019,3.251.64,2.782,3.032l-2.768,13.677c-.468,2.436-.052,3.378,1.8,3.626.047.044-.289,2.254-3.667,2.294C2863.439-562.973,2862.374-565.482,2863.1-569.047Zm4.284-22.789a3.547,3.547,0,0,1,3.649-3.736c2.253-.027,3.524,1.084,3.545,2.706a3.546,3.546,0,0,1-3.647,3.735C2868.676-589.105,2867.4-590.217,2867.382-591.837Z" transform="translate(-2688.509 675.162)"/><path class="b" d="M2869.994-569.407l4.555-22.66c.469-2.3,1.27-3.076,2.89-3.1l.677-.006c1.71-.021,3.249.682,2.78,3.03l-4.6,22.84c-.467,2.436-.051,3.376,1.8,3.624.045.046-.291,2.256-3.665,2.3C2870.335-563.333,2869.271-565.842,2869.994-569.407Z" transform="translate(-2684.511 675.396)"/><path class="b" d="M2876.889-569.207l2.725-13.5c.468-2.3,1.27-3.077,2.891-3.1l.676-.008c1.711-.019,3.251.638,2.782,3.03L2883.2-569.1c-.468,2.436-.052,3.378,1.8,3.625.047.044-.289,2.256-3.667,2.3C2877.229-563.132,2876.165-565.643,2876.889-569.207ZM2881.171-592a3.549,3.549,0,0,1,3.65-3.736c2.253-.025,3.524,1.085,3.545,2.706a3.545,3.545,0,0,1-3.647,3.735C2882.465-589.266,2881.191-590.377,2881.171-592Z" transform="translate(-2680.513 675.069)"/><path class="b" d="M2883.48-576.688c-.077-6.709,4.576-13.022,12.275-13.112,6.575-.077,10.587,4.291,10.654,9.964.079,6.708-4.575,13.022-12.275,13.112C2887.56-566.648,2883.546-570.97,2883.48-576.688Zm17.393-2.815a5.214,5.214,0,0,0-5.241-5.477c-3.92.046-6.663,3.859-6.616,8a5.2,5.2,0,0,0,5.242,5.433C2898.175-571.59,2900.922-575.4,2900.873-579.5Z" transform="translate(-2676.57 678.509)"/><path class="b" d="M7.178-21.664c.032-2.078-1.215-2.75-2.494-2.75a1.986,1.986,0,0,0-1.247.288L.591-10.7c-.352,1.663.735,2.142,1.95,2.142h.48C4.172-8.554,4.748-9.1,5.1-10.7l.9-4.317c.7-3.293,1.982-5.532,4-5.532a2.782,2.782,0,0,1,2.174.927,2.856,2.856,0,0,0,2.014-2.846c0-1.311-1.215-2.206-2.782-2.206C9.576-24.67,8.169-23.55,7.178-21.664ZM26.97-18.4,26.523-16.2a5.147,5.147,0,0,1-4.8,4.317,3.156,3.156,0,0,1-3.166-3.453c0-2.846,1.823-5.819,4.8-5.819A3.566,3.566,0,0,1,26.97-18.4ZM25.723-11.56c-.064,1.95.9,3.2,3.166,3.2,2.3,0,2.526-1.567,2.494-1.6-1.215-.224-1.535-.863-1.151-2.59l2.4-11.319c.032-.16-.671-.544-1.567-.544-1.663,0-2.686.735-3.293,2.558a5.487,5.487,0,0,0-5.02-2.814c-5.02,0-8.569,4.988-8.569,9.976,0,4.029,2.558,6.4,5.915,6.4A6.542,6.542,0,0,0,25.723-11.56Zm-3.2-15.028c.224.384,3.389.448,6.011-1.023a2.772,2.772,0,0,0,1.631-2.238,1.839,1.839,0,0,0-1.887-1.919,3.352,3.352,0,0,0-1.727.48C24.38-30.041,22.334-27,22.526-26.588ZM39.6-18.69a4.994,4.994,0,0,1,4.093-2.4,3.344,3.344,0,0,1,3.325,3.677c0,2.814-1.567,5.564-4.445,5.564-2.622,0-3.965-2.046-3.485-4.572Zm.384-2.91c.064-2.11-1.183-2.814-2.494-2.814a1.986,1.986,0,0,0-1.247.288l-4.157,19.5c-.352,1.663.735,2.174,1.95,2.174h.48c1.151,0,1.759-.544,2.078-2.174l1.439-6.651A5.625,5.625,0,0,0,43.246-8.3c4.924,0,8.154-4.764,8.154-9.657,0-4.317-2.782-6.715-6.139-6.715A6,6,0,0,0,39.984-21.6Zm18.993-5.276A2.518,2.518,0,0,0,61.6-29.5c0-1.151-.9-1.95-2.494-1.95a2.518,2.518,0,0,0-2.622,2.622C56.483-27.675,57.379-26.876,58.977-26.876ZM56.355-8.362c2.4,0,2.654-1.567,2.622-1.6-1.311-.192-1.6-.863-1.247-2.59l2.078-9.688c.352-1.695-.735-2.174-1.95-2.174h-.48c-1.151,0-1.727.544-2.078,2.174l-2.046,9.561C52.71-10.153,53.446-8.362,56.355-8.362ZM74.2-18.37l-.512,2.334a4.8,4.8,0,0,1-4.509,4.157,3.311,3.311,0,0,1-3.293-3.645c0-2.814,1.567-5.628,4.508-5.628C72.535-21.152,73.526-20.065,74.2-18.37Zm-1.247,6.939c0,1.855.959,3.07,3.166,3.07,2.3,0,2.526-1.567,2.494-1.6-1.215-.224-1.567-.863-1.151-2.59L80.912-28.73c.352-1.663-.735-2.174-1.95-2.174h-.48c-1.151,0-1.759.544-2.078,2.174l-1.471,6.875a5.938,5.938,0,0,0-5.276-2.814c-4.924,0-8.154,4.764-8.154,9.657,0,4.285,2.782,6.715,6.139,6.715A6,6,0,0,0,72.951-11.432ZM93.766-18.4,93.319-16.2a5.147,5.147,0,0,1-4.8,4.317,3.156,3.156,0,0,1-3.166-3.453c0-2.846,1.823-5.819,4.8-5.819A3.566,3.566,0,0,1,93.766-18.4ZM92.519-11.56c-.064,1.95.9,3.2,3.166,3.2,2.3,0,2.526-1.567,2.494-1.6-1.215-.224-1.535-.863-1.151-2.59l2.4-11.319c.032-.16-.671-.544-1.567-.544-1.663,0-2.686.735-3.293,2.558a5.487,5.487,0,0,0-5.02-2.814c-5.02,0-8.569,4.988-8.569,9.976,0,4.029,2.558,6.4,5.915,6.4A6.542,6.542,0,0,0,92.519-11.56Z" transform="translate(131.16 31.768)"/></g><g transform="translate(0 0)"><g class="h" transform="matrix(1, 0, 0, 1, -9, -19.19)"><path class="b" d="M2868.348-637.26l-135.768,2.147a16.454,16.454,0,0,1-16.914-18.567l.792-7.671a21.6,21.6,0,0,1,20.785-18.935l135.767-2.145a16.451,16.451,0,0,1,16.913,18.565l-.791,7.671A21.6,21.6,0,0,1,2868.348-637.26Z" transform="translate(-2706.57 701.63)"/></g><g transform="translate(12.192 11.188)"><path class="c" d="M2723.625-653.139l3.8-11.791c.461-1.036.823-1.483,1.6-1.5,1.215-.017,1.513.42,1.572,1.855L2729.7-652.6c.066,2.1-1.132,3-3.044,3.025C2723.863-649.537,2722.63-650.807,2723.625-653.139Zm3.757-17.346a4.146,4.146,0,0,1,.913-2.847,2.8,2.8,0,0,1,2.306-.731c1.692-.025,2.512.588,2.532,1.875a4.122,4.122,0,0,1-.878,2.845c-.508.485-.983.678-2.344.7C2728.255-668.622,2727.4-669.2,2727.381-670.484Z" transform="translate(-2723.284 676.097)"/><path class="c" d="M2740.956-649.576c-6.289.093-10.393-3.711-10.486-10.11-.114-7.651,5.49-14.538,13.619-14.657,3.788-.055,6.6,1.155,8.13,2.64a4.183,4.183,0,0,1,1.4,2.812c.039,2.722-3.232,2.771-3.384,2.588a6.46,6.46,0,0,0-5.973-3.406c-4.78.07-8.322,4.316-8.248,9.5.024,4.082,2.523,6.51,6.276,6.455a6.066,6.066,0,0,0,4.209-1.494c.943-.9,1.414-1.457,1.967-3.782l-4.3.063c-1.287.017-1.994-.523-2.006-1.37a3.913,3.913,0,0,1,.741-2.218,2.271,2.271,0,0,1,1.794-.54l7.062-.1c1.654-.024,2.292.812,1.913,2.621l-1.984,10.109c-.035.147-.656.452-1.575.465a2.254,2.254,0,0,1-2.539-2.428A8.5,8.5,0,0,1,2740.956-649.576Z" transform="translate(-2719.118 675.933)"/><path class="c" d="M2762.889-656.109c1.245,2,1.918,2.621,3.573,2.744.185.033.3,3.013-3.34,3.065-2.132.032-3.322-.8-5.139-4.082l-2.565-4.486-2.207.033-1.2,6.159c-.344,1.662-1.1,2.482-2.686,2.505l-.735.011c-1.472.021-2.333-.886-1.989-2.585l3.663-18.594a3.137,3.137,0,0,1,3.344-2.845l5.921-.087c5.921-.087,8.971,2.186,9.035,6.49.066,4.524-2.757,7.655-7.79,8.207Zm-4.552-6.776c3.2-.046,4.76-1.725,4.72-4.264-.027-1.913-1.44-2.921-4.052-2.883l-3.676.054-1.4,7.158Z" transform="translate(-2709.808 675.976)"/><path class="c" d="M2760.2-652.558a5.342,5.342,0,0,1,1.134-3l10.155-17.477c.608-1.039,1.337-1.565,3.471-1.6,2.427-.035,3.135.654,3.333,1.645l4.316,20.758c.081.441-1.446,1.75-3.065,1.774-1.395.02-2.253-.776-2.537-2.5l-.753-3.741-8.681.128-3.475,6.377C2764.022-650.075,2760.237-649.909,2760.2-652.558Zm15.7-8.177-1.672-8.584-4.839,8.681Z" transform="translate(-2701.883 675.769)"/><path class="c" d="M2781.725-653.227l3.286-16.639-5.184.076c-1.509.022-2.327-.591-2.342-1.584a4.511,4.511,0,0,1,.847-2.551c.4-.411.91-.6,2.123-.619l16.038-.235c1.469-.022,2.288.592,2.3,1.584a4.266,4.266,0,0,1-.847,2.551c-.4.411-.874.6-2.087.619l-5.408.079-3.322,16.788c-.343,1.66-1.1,2.482-2.684,2.5l-.736.011C2782.205-650.622,2781.382-651.528,2781.725-653.227Z" transform="translate(-2691.861 675.68)"/><path class="c" d="M2790.463-653.364l3.765-19.074c.382-1.7,1.107-2.482,2.651-2.5l.81-.013c1.469-.022,2.33.886,1.987,2.583l-3.768,19.076c-.343,1.735-1.1,2.482-2.649,2.5l-.811.013C2790.979-650.759,2790.118-651.666,2790.463-653.364Z" transform="translate(-2684.381 675.58)"/><path class="c" d="M2797.611-653.025a4.112,4.112,0,0,1-1.4-2.848,2.991,2.991,0,0,1,2.167-2.717,8.726,8.726,0,0,0,7.451,3.862c2.648-.038,3.881-1.161,3.855-3-.024-1.656-1.872-2.254-4.278-3.139-2.885-1.1-6.068-2.6-6.13-6.716-.058-4.009,2.942-7.622,9.195-7.714,3.714-.055,6.265.938,7.72,2.352a3.61,3.61,0,0,1,1.252,2.592,3.052,3.052,0,0,1-2.349,2.867,7.663,7.663,0,0,0-6.671-3.58c-2.355.035-3.81,1.27-3.787,2.852.027,1.766,1.948,2.363,4.576,3.39,3.106,1.133,6.291,2.594,6.348,6.457.065,4.45-3.051,7.769-9.707,7.867C2801.987-650.441,2799.178-651.5,2797.611-653.025Z" transform="translate(-2681.007 675.381)"/><path class="c" d="M2809.9-652.74a4.141,4.141,0,0,1,.915-2.845,2.8,2.8,0,0,1,2.308-.733c1.692-.024,2.509.588,2.529,1.875a3.974,3.974,0,0,1-.914,2.847c-.472.485-.948.676-2.308.7C2810.776-650.876,2809.921-651.453,2809.9-652.74Zm2.573-7.652.854-11.932c-.03-2.1,1.17-3,3.082-3.025,2.8-.041,4.028,1.229,3.033,3.561l-3.836,11.755c-.426,1.073-.788,1.52-1.6,1.531C2812.835-658.484,2812.5-658.922,2812.475-660.393Z" transform="translate(-2673.067 675.351)"/></g></g></g><g transform="translate(1052.446 248.098)"><g class="g" transform="matrix(1, 0, 0, 1, -288.45, -6)"><ellipse class="b" cx="32.838" cy="32.316" rx="32.838" ry="32.316" transform="translate(288.45 6)"/></g><g transform="translate(10.596 9.27)"><g transform="translate(0 0)"><path class="d" d="M542.576-122.2a1.752,1.752,0,0,0,.378-1.091,1.763,1.763,0,0,0-1.763-1.763,1.763,1.763,0,0,0-1.763,1.763,1.759,1.759,0,0,0,.142.692l0,.011a1.749,1.749,0,0,0,.225.377,6.715,6.715,0,0,1,.625,5.619h1.531A6.712,6.712,0,0,1,542.576-122.2Z" transform="translate(-518.548 125.05)"/><path class="d" d="M526.485-115.831a1.35,1.35,0,0,0-.054-.888,1.359,1.359,0,0,0-1.778-.731,1.358,1.358,0,0,0-.731,1.777,1.348,1.348,0,0,0,.305.451l.008.007a1.346,1.346,0,0,0,.271.2,5.179,5.179,0,0,1,2.111,3.813l1.09-.454A5.175,5.175,0,0,1,526.485-115.831Z" transform="translate(-510.39 121.134)"/><path class="d" d="M504.954-94.364a1.349,1.349,0,0,0-.667-.59,1.359,1.359,0,0,0-1.775.739,1.36,1.36,0,0,0,.74,1.775,1.357,1.357,0,0,0,.535.1h.01a1.353,1.353,0,0,0,.334-.049,5.176,5.176,0,0,1,4.189,1.2l.449-1.092A5.174,5.174,0,0,1,504.954-94.364Z" transform="translate(-499.202 109.374)"/><path class="d" d="M504.909-65.246a1.349,1.349,0,0,0-.888.054,1.36,1.36,0,0,0-.732,1.778,1.36,1.36,0,0,0,1.778.732,1.367,1.367,0,0,0,.451-.306l.007-.007a1.374,1.374,0,0,0,.2-.272,5.175,5.175,0,0,1,3.813-2.111l-.454-1.09A5.173,5.173,0,0,1,504.909-65.246Z" transform="translate(-499.606 94.432)"/><path class="d" d="M526.374-46.414a1.356,1.356,0,0,0-.59.667,1.36,1.36,0,0,0,.739,1.775,1.359,1.359,0,0,0,1.042,0,1.359,1.359,0,0,0,.736-.737,1.356,1.356,0,0,0,.1-.535.051.051,0,0,0,0-.01,1.358,1.358,0,0,0-.049-.334,5.175,5.175,0,0,1,1.2-4.189l-1.092-.45a5.174,5.174,0,0,1-2.092,3.812Z" transform="translate(-511.365 85.949)"/><path class="d" d="M555.5-46.364a1.348,1.348,0,0,0,.054.888,1.359,1.359,0,0,0,1.778.732,1.36,1.36,0,0,0,.732-1.778,1.355,1.355,0,0,0-.306-.451l-.007-.007a1.376,1.376,0,0,0-.271-.2,5.175,5.175,0,0,1-2.111-3.813l-1.09.454A5.174,5.174,0,0,1,555.5-46.364Z" transform="translate(-526.309 86.347)"/><path class="d" d="M574.326-65.113a1.349,1.349,0,0,0,.667.59,1.359,1.359,0,0,0,1.771-.74,1.36,1.36,0,0,0-.739-1.775,1.354,1.354,0,0,0-.535-.1h-.01a1.358,1.358,0,0,0-.334.049,5.176,5.176,0,0,1-4.189-1.2l-.449,1.092A5.174,5.174,0,0,1,574.326-65.113Z" transform="translate(-534.792 95.388)"/><path class="d" d="M574.376-94.255a1.354,1.354,0,0,0,.888-.054A1.359,1.359,0,0,0,576-96.087a1.36,1.36,0,0,0-1.778-.732,1.352,1.352,0,0,0-.451.305l-.007.008a1.346,1.346,0,0,0-.2.272,5.178,5.178,0,0,1-3.813,2.111l.454,1.09A5.175,5.175,0,0,1,574.376-94.255Z" transform="translate(-534.393 110.351)"/><path class="d" d="M555.627-115.786a1.35,1.35,0,0,0,.59-.667,1.36,1.36,0,0,0-.739-1.775,1.36,1.36,0,0,0-1.774.739,1.352,1.352,0,0,0-.1.535v.01a1.346,1.346,0,0,0,.049.334,5.176,5.176,0,0,1-1.2,4.19l1.092.449a5.175,5.175,0,0,1,2.089-3.815Z" transform="translate(-525.352 121.538)"/><path class="d" d="M512.014-110.685a1.755,1.755,0,0,0-.5-1.039,1.763,1.763,0,0,0-2.494,0,1.764,1.764,0,0,0,0,2.494,1.767,1.767,0,0,0,.59.385h.013a1.77,1.77,0,0,0,.425.108,6.716,6.716,0,0,1,4.416,3.53l1.083-1.083A6.712,6.712,0,0,1,512.014-110.685Z" transform="translate(-502.385 118.356)"/><path class="d" d="M498.544-80.935a1.755,1.755,0,0,0-1.091-.378,1.763,1.763,0,0,0-1.763,1.763,1.763,1.763,0,0,0,1.763,1.763,1.759,1.759,0,0,0,.692-.142l.011,0a1.787,1.787,0,0,0,.378-.225,6.714,6.714,0,0,1,5.619-.626v-1.531a6.712,6.712,0,0,1-5.61-.621Z" transform="translate(-495.69 102.192)"/><path class="d" d="M510.055-54.221a1.756,1.756,0,0,0-1.039.5,1.764,1.764,0,0,0,0,2.494,1.763,1.763,0,0,0,2.494,0,1.76,1.76,0,0,0,.385-.59.1.1,0,0,0,0-.012,1.775,1.775,0,0,0,.108-.426,6.715,6.715,0,0,1,3.531-4.416l-1.083-1.083a6.713,6.713,0,0,1-4.4,3.529Z" transform="translate(-502.385 89.878)"/><path class="d" d="M539.8-42.312a1.758,1.758,0,0,0-.378,1.091,1.763,1.763,0,0,0,1.763,1.763,1.763,1.763,0,0,0,1.763-1.763,1.75,1.75,0,0,0-.142-.692.068.068,0,0,0,0-.012,1.745,1.745,0,0,0-.224-.377,6.715,6.715,0,0,1-.626-5.619h-1.531A6.713,6.713,0,0,1,539.8-42.312Z" transform="translate(-518.548 84.739)"/><path class="d" d="M566.518-52.263a1.755,1.755,0,0,0,.5,1.039,1.763,1.763,0,0,0,2.494,0,1.763,1.763,0,0,0,0-2.494,1.752,1.752,0,0,0-.59-.385h-.012a1.773,1.773,0,0,0-.426-.108,6.716,6.716,0,0,1-4.416-3.531L562.99-56.66a6.712,6.712,0,0,1,3.528,4.4Z" transform="translate(-530.862 89.878)"/><path class="d" d="M578.432-78.164a1.755,1.755,0,0,0,1.091.378,1.763,1.763,0,0,0,1.764-1.763,1.763,1.763,0,0,0-1.764-1.763,1.76,1.76,0,0,0-.691.142l-.012,0a1.761,1.761,0,0,0-.377.225,6.716,6.716,0,0,1-5.62.625v1.531A6.713,6.713,0,0,1,578.432-78.164Z" transform="translate(-536.001 102.192)"/><path class="d" d="M568.477-108.726a1.754,1.754,0,0,0,1.039-.5,1.764,1.764,0,0,0,0-2.494,1.763,1.763,0,0,0-2.494,0,1.756,1.756,0,0,0-.385.59.107.107,0,0,0,0,.013,1.755,1.755,0,0,0-.108.425A6.716,6.716,0,0,1,563-106.28l1.083,1.083A6.712,6.712,0,0,1,568.477-108.726Z" transform="translate(-530.862 118.356)"/></g><path class="e" d="M14.425,0A14.425,14.425,0,1,1,0,14.425,14.425,14.425,0,0,1,14.425,0Z" transform="translate(8.217 8.217)"/><path class="f" d="M12.485,0A12.485,12.485,0,1,1,0,12.485,12.485,12.485,0,0,1,12.485,0Z" transform="translate(10.158 10.158)"/><g transform="translate(11.639 11.216)"><circle class="b" cx="1.552" cy="1.552" r="1.552" transform="translate(6.49 0)"/><circle class="b" cx="1.552" cy="1.552" r="1.552" transform="translate(0 6.137)"/><circle class="b" cx="1.552" cy="1.552" r="1.552" transform="translate(0.212 14.319)"/><circle class="b" cx="1.552" cy="1.552" r="1.552" transform="translate(8.465 19.116)"/><circle class="b" cx="1.552" cy="1.552" r="1.552" transform="translate(15.871 17.564)"/><circle class="b" cx="1.552" cy="1.552" r="1.552" transform="translate(18.269 5.432)"/><circle class="b" cx="0.846" cy="0.846" r="0.846" transform="translate(15.8 1.763)"/><circle class="b" cx="0.846" cy="0.846" r="0.846" transform="translate(11.568 2.258)"/><circle class="b" cx="0.846" cy="0.846" r="0.846" transform="translate(4.585 4.585)"/><circle class="b" cx="0.846" cy="0.846" r="0.846" transform="translate(2.892 9.452)"/><circle class="b" cx="0.846" cy="0.846" r="0.846" transform="translate(4.867 16.718)"/><circle class="b" cx="0.846" cy="0.846" r="0.846" transform="translate(11.921 16.576)"/><circle class="b" cx="0.846" cy="0.846" r="0.846" transform="translate(20.244 12.344)"/><circle class="b" cx="0.846" cy="0.846" r="0.846" transform="translate(15.871 10.581)"/><circle class="b" cx="0.846" cy="0.846" r="0.846" transform="translate(7.618 10.581)"/><circle class="b" cx="0.846" cy="0.846" r="0.846" transform="translate(10.158 7.688)"/><circle class="b" cx="0.846" cy="0.846" r="0.846" transform="translate(11.004 12.132)"/></g></g></g></g></svg>