<svg xmlns="http://www.w3.org/2000/svg" width="25.207" height="29.686" viewBox="0 0 25.207 29.686"><defs><style>.a{fill:#fff;stroke:#fff;stroke-width:1.5px;}.b,.d{fill:#0855c4;}.b{stroke-linecap:round;stroke-linejoin:round;}.c,.d{stroke:none;}</style></defs><g transform="translate(0.75 0.756)"><g transform="translate(0 0)"><path class="a" d="M-1236.133,3115.333a.211.211,0,0,1-.135-.049l-6.648-5.368a13.583,13.583,0,0,1-5.07-10.611v-8.8a.219.219,0,0,1,.2-.214,34.83,34.83,0,0,0,11.557-3.11.217.217,0,0,1,.193,0,34.859,34.859,0,0,0,11.557,3.11.218.218,0,0,1,.2.214v8.8a13.581,13.581,0,0,1-5.071,10.611l-6.647,5.368A.2.2,0,0,1-1236.133,3115.333Z" transform="translate(1247.986 -3087.153)"/><g transform="translate(4.172 7.158)"><g class="b" transform="translate(-1414.725 -2431.643)"><path class="c" d="M 1419.863525390625 2443.97265625 L 1419.7626953125 2443.875 L 1414.62060546875 2438.88818359375 L 1414.516357421875 2438.787109375 L 1414.614135742188 2438.6796875 L 1416.309326171875 2436.815673828125 L 1416.41357421875 2436.700927734375 L 1416.524658203125 2436.808837890625 L 1419.929565429688 2440.111083984375 L 1429.41943359375 2431.531494140625 L 1429.5341796875 2431.427734375 L 1429.63427734375 2431.545654296875 L 1431.270629882812 2433.47021484375 L 1431.364990234375 2433.5810546875 L 1431.256958007812 2433.6787109375 L 1419.9677734375 2443.878662109375 L 1419.863525390625 2443.97265625 Z"/><path class="d" d="M 1419.8671875 2443.767333984375 L 1431.156372070312 2433.5673828125 L 1429.52001953125 2431.642822265625 L 1419.926025390625 2440.316650390625 L 1416.420288085938 2436.91650390625 L 1414.72509765625 2438.780517578125 L 1419.8671875 2443.767333984375 M 1419.8671875 2444.0673828125 C 1419.791748046875 2444.0673828125 1419.716430664062 2444.0390625 1419.658325195312 2443.982666015625 L 1414.516235351562 2438.995849609375 C 1414.400024414062 2438.883056640625 1414.394165039062 2438.698486328125 1414.503173828125 2438.57861328125 L 1416.198364257812 2436.714599609375 C 1416.253051757812 2436.654541015625 1416.329711914062 2436.619140625 1416.410888671875 2436.61669921875 C 1416.4140625 2436.616455078125 1416.417236328125 2436.616455078125 1416.420288085938 2436.616455078125 C 1416.498168945312 2436.616455078125 1416.573120117188 2436.646728515625 1416.629150390625 2436.701171875 L 1419.933227539062 2439.90576171875 L 1429.31884765625 2431.420166015625 C 1429.374145507812 2431.370361328125 1429.445922851562 2431.3427734375 1429.52001953125 2431.3427734375 C 1429.526611328125 2431.3427734375 1429.533081054688 2431.343017578125 1429.539672851562 2431.343505859375 C 1429.62060546875 2431.348876953125 1429.696044921875 2431.38671875 1429.74853515625 2431.448486328125 L 1431.384887695312 2433.373046875 C 1431.489990234375 2433.49658203125 1431.477783203125 2433.68115234375 1431.357543945312 2433.7900390625 L 1420.068359375 2443.989990234375 C 1420.011108398438 2444.04150390625 1419.939086914062 2444.0673828125 1419.8671875 2444.0673828125 Z"/></g></g></g></g></svg>