<svg xmlns="http://www.w3.org/2000/svg" width="167.364" height="139.02" viewBox="0 0 167.364 139.02"><defs><style>.a{fill:#dce8fd;}.b{fill:#3a5cbc;}.c,.k{fill:#fff;}.d{fill:#eaac96;}.e{fill:#2d2f33;}.f{fill:#162458;}.g{fill:#5fa7fb;}.h{fill:#0e4989;}.i{fill:#202b83;}.j{fill:#df6718;}.k{stroke:#00a9ff;stroke-miterlimit:10;stroke-width:2px;}</style></defs><g transform="translate(-447.665 -2294.931)"><g transform="translate(494.52 2320.235)"><path class="a" d="M636.316,2395.555v33.092H616.838v-33.092a9.259,9.259,0,0,1,9.261-9.261h.956a9.262,9.262,0,0,1,9.261,9.261Z" transform="translate(-616.838 -2386.294)"/></g><g transform="translate(447.665 2426.221)"><ellipse class="a" cx="83.682" cy="3.865" rx="83.682" ry="3.865"/></g><g transform="translate(452.862 2339.81)"><g transform="translate(0 0)"><path class="a" d="M509.629,2460.771v23.156a3.8,3.8,0,0,1-3.8,3.8h-35.6a3.805,3.805,0,0,1-3.8-3.8v-23.156a3.8,3.8,0,0,1,3.8-3.8h35.6A3.8,3.8,0,0,1,509.629,2460.771Z" transform="translate(-466.428 -2456.97)"/></g></g><g transform="translate(461.801 2342.32)"><g transform="translate(0 0)"><circle class="b" cx="8.758" cy="8.758" r="8.758" transform="translate(0 12.386) rotate(-45)"/></g></g><g transform="translate(472.921 2348.763)"><g transform="translate(0 0)"><rect class="c" width="2.533" height="11.886"/></g></g><g transform="translate(468.244 2353.44)"><g transform="translate(0 0)"><rect class="c" width="2.533" height="11.886" transform="translate(11.886 0) rotate(90)"/></g></g><g transform="translate(466.262 2331.922)"><path class="a" d="M527.2,2428.489h-8.379a4.019,4.019,0,0,0-4.011,4.017v3.872h2.464v-3.872a1.55,1.55,0,0,1,1.547-1.547H527.2a1.55,1.55,0,0,1,1.547,1.547v3.872h2.47v-3.872A4.024,4.024,0,0,0,527.2,2428.489Z" transform="translate(-514.81 -2428.489)"/></g><g transform="translate(520.873 2340.172)"><g transform="translate(0 0)"><path class="a" d="M732.5,2466.781l-20.508-2.088.592-6.417,20.3,4.464Z" transform="translate(-711.988 -2458.276)"/></g></g><g transform="translate(503.688 2324.604)"><path class="a" d="M667.127,2424.051l-16.19-16.19a3.394,3.394,0,0,1,0-4.8h0a3.394,3.394,0,0,1,4.8,0l16.19,16.19Z" transform="translate(-649.942 -2402.067)"/></g><g transform="translate(538.718 2343.005)"><path class="d" d="M782.138,2468.5h-2.7a3.012,3.012,0,0,0-3.012,3.012h0a2.66,2.66,0,0,0,2.66,2.66h6.068v-2.66A3.012,3.012,0,0,0,782.138,2468.5Z" transform="translate(-776.421 -2468.505)"/></g><g transform="translate(539.382 2344.716)"><g transform="translate(0)"><path class="e" d="M788.237,2478.125h-7.7a1.72,1.72,0,0,1-1.72-1.72h0a1.72,1.72,0,0,1,1.72-1.72h7.7a1.629,1.629,0,0,1,1.629,1.629v.182A1.629,1.629,0,0,1,788.237,2478.125Z" transform="translate(-778.817 -2474.685)"/></g></g><g transform="translate(534.432 2406.564)"><path class="e" d="M767.073,2697.993h-6.13l.2,4.783h10.4A4.322,4.322,0,0,0,767.073,2697.993Z" transform="translate(-760.943 -2697.993)"/></g><g transform="translate(482.078 2370.568)"><g transform="translate(0 0)"><path class="e" d="M0,0H16.943a0,0,0,0,1,0,0V0a5.45,5.45,0,0,1-5.45,5.45H0a0,0,0,0,1,0,0V0A0,0,0,0,1,0,0Z"/></g></g><g transform="translate(456.962 2370.568)"><g transform="translate(0 0)"><path class="f" d="M509.157,2568.026H481.232v1.385H487.3l16.956,9.316.667-1.214-14.747-8.1h18.983Z" transform="translate(-481.232 -2568.026)"/></g></g><g transform="translate(516.668 2409.292)"><g transform="translate(0 0)"><rect class="e" width="33.379" height="2.357"/></g></g><g transform="translate(565.475 2398.804)"><path class="f" d="M902.593,2677.9a15.889,15.889,0,0,0-13.719-7.928,15.834,15.834,0,0,0-15.807,14.819c-.032.345-.04.691-.04,1.036a15.677,15.677,0,0,0,.313,3.149,15.849,15.849,0,0,0,31.381-3.149A15.687,15.687,0,0,0,902.593,2677.9Zm-13.721,15.959a8,8,0,0,1-4.381-1.3,8.5,8.5,0,0,0,8.784-.015A7.989,7.989,0,0,1,888.872,2693.862Z" transform="translate(-873.027 -2669.975)"/></g><g transform="translate(464.561 2398.804)"><path class="f" d="M538.234,2677.9a15.889,15.889,0,0,0-13.719-7.928,15.834,15.834,0,0,0-15.807,14.819c-.032.345-.04.691-.04,1.036a15.678,15.678,0,0,0,.313,3.149,15.849,15.849,0,0,0,31.381-3.149A15.686,15.686,0,0,0,538.234,2677.9Zm-13.721,15.959a8,8,0,0,1-4.381-1.3,8.5,8.5,0,0,0,8.784-.015A7.99,7.99,0,0,1,524.513,2693.862Z" transform="translate(-508.668 -2669.975)"/></g><g transform="translate(569.316 2389.983)"><g transform="translate(0)"><path class="g" d="M899.677,2664.617h0a1.962,1.962,0,0,1-2.587-1l-10.027-22.734a1.963,1.963,0,0,1,1-2.588h0a1.962,1.962,0,0,1,2.587,1l10.027,22.734A1.962,1.962,0,0,1,899.677,2664.617Z" transform="translate(-886.896 -2638.125)"/></g></g><g transform="translate(572.907 2394.687)"><path class="e" d="M901.587,2655.109l.784,1.772-2.507,1.791Z" transform="translate(-899.863 -2655.109)"/></g><g transform="translate(564.656 2370.125)"><g transform="translate(0 0)"><rect class="g" width="4.842" height="12.03"/></g></g><g transform="translate(561.374 2361.103)"><g transform="translate(0)"><path class="g" d="M870.231,2535.583v7.36a1.733,1.733,0,0,1-1.733,1.733h-4.639a5.588,5.588,0,0,1-5.636-5.562,5.415,5.415,0,0,1,5.414-5.263h4.86A1.733,1.733,0,0,1,870.231,2535.583Z" transform="translate(-858.222 -2533.85)"/></g></g><g transform="translate(457.356 2386.932)"><g transform="translate(0)"><rect class="g" width="6.282" height="9.491"/></g></g><g transform="translate(519.735 2405.543)"><path class="h" d="M718.476,2700.171h-10.6v-5.864h0c0,5.853,4.745,5.864,10.6,5.864Z" transform="translate(-707.878 -2694.307)"/></g><g transform="translate(535.792 2390.452)"><path class="f" d="M765.856,2661.015h21.2v-21.2h0a21.2,21.2,0,0,1-21.2,21.2Z" transform="translate(-765.856 -2639.818)"/></g><g transform="translate(481.793 2411.718)"><rect class="g" width="31.571" height="6.173"/></g><g transform="translate(554.063 2352.903)"><g transform="translate(0 0)"><path class="f" d="M845.141,2527.241l-2.558,1.908-10.757-23,2.558-1.908Z" transform="translate(-831.826 -2504.243)"/></g></g><g transform="translate(550.901 2351.372)"><g transform="translate(0)"><rect class="f" width="6.791" height="5.116" rx="2.558"/></g></g><g transform="translate(541.003 2338.245)"><g transform="translate(0 0)"><path class="f" d="M793.106,2459.475h-.731v-3.786a3.643,3.643,0,0,0-3.639-3.639H784.67v-.731h4.066a4.375,4.375,0,0,1,4.37,4.37Z" transform="translate(-784.67 -2451.319)"/></g></g><g transform="translate(545.906 2345.705)"><g transform="translate(0 0)"><path class="f" d="M808.891,2487.212a.731.731,0,0,1-.731-.731v-4.723a2.043,2.043,0,0,0-2.041-2.041H803.1a.731.731,0,1,1,0-1.461h3.015a3.506,3.506,0,0,1,3.5,3.5v4.723A.731.731,0,0,1,808.891,2487.212Z" transform="translate(-802.374 -2478.256)"/></g></g><g transform="translate(535.617 2344.716)"><g transform="translate(0)"><path class="f" d="M774.643,2478.125h-7.7a1.72,1.72,0,0,1-1.72-1.72h0a1.72,1.72,0,0,1,1.72-1.72h7.7a1.629,1.629,0,0,1,1.629,1.629v.182A1.629,1.629,0,0,1,774.643,2478.125Z" transform="translate(-765.223 -2474.685)"/></g></g><g transform="translate(507.411 2382.23)"><path class="g" d="M676.181,2639.312h-12.8l.08-29.177h19.851a16.215,16.215,0,0,0-7.607,14.062C675.706,2636.58,676.181,2639.312,676.181,2639.312Z" transform="translate(-663.382 -2610.134)"/></g><g transform="translate(556.99 2364.022)"><g transform="translate(0)"><rect class="f" width="4.948" height="47.699"/></g></g><g transform="translate(561.938 2395.833)"><path class="g" d="M860.257,2680.055v-.952c0-11.282,7.038-19.858,18.32-19.858,5.758,0,11.9,3.261,15.618,7.064Z" transform="translate(-860.257 -2659.245)"/></g><g transform="translate(562.141 2394.687)"><path class="g" d="M874.264,2656.882l-9.146,18.522-4.127,1.519,12.489-21.813Z" transform="translate(-860.992 -2655.109)"/></g><g transform="translate(509.151 2359.481)"><g transform="translate(0 0)"><path class="g" d="M735.145,2563.2c-11.007,22.729-10.875,23.194-15.125,23.2l-50.355.008v-6.5l42.776.033c1.17-.025,3.2-.706,5.064-3.86,2.233-3.777,4.25-11.091,4.3-25.028v-1.519c-.008-6.185-.049-12.768-.074-17-.025-2.772-.042-4.541-.042-4.541l9.58,25.053.473,1.253Z" transform="translate(-669.665 -2527.996)"/></g></g><g transform="translate(463.087 2370.637)"><g transform="translate(0)"><path class="g" d="M544.9,2600.415H503.345v-11.479c0-10.758,8.72-20.661,19.478-20.661H544.9Z" transform="translate(-503.345 -2568.274)"/></g></g><g transform="translate(481.946 2370.637)"><path class="g" d="M612.06,2568.274H571.44c0,5.75,4.843,11.594,10.817,11.594h34.007a2.345,2.345,0,0,0,2.345-2.345v-1.762C618.609,2572.279,615.677,2568.274,612.06,2568.274Z" transform="translate(-571.44 -2568.274)"/></g><g transform="translate(500.256 2399.3)"><rect class="g" width="8.895" height="12.418"/></g><g transform="translate(485.75 2382.231)"><g transform="translate(0 0)"><rect class="g" width="21.751" height="21.798"/></g></g><g transform="translate(458.09 2382.177)"><g transform="translate(0)"><path class="g" d="M536.349,2629.051v3.138H485.3v-3.138a19.057,19.057,0,0,1,2.955-10.211c.274-.432.556-.846.855-1.245a19.1,19.1,0,0,1,15.3-7.653H517.24A19.113,19.113,0,0,1,536.349,2629.051Z" transform="translate(-485.305 -2609.941)"/></g></g><g transform="translate(457.87 2382.039)"><g transform="translate(0 0)"><path class="b" d="M535.83,2631.965H484.509v-3.276a19.223,19.223,0,0,1,2.977-10.285c.293-.462.575-.872.861-1.255a19.127,19.127,0,0,1,15.41-7.709h12.825a19.27,19.27,0,0,1,19.248,19.248Zm-51.044-.277h50.767v-3a18.993,18.993,0,0,0-18.971-18.971H503.757a18.85,18.85,0,0,0-15.188,7.6c-.282.375-.56.78-.849,1.236a18.947,18.947,0,0,0-2.934,10.136Z" transform="translate(-484.509 -2609.441)"/></g></g><g transform="translate(458.09 2404.424)"><g transform="translate(0 0)"><path class="i" d="M485.3,2706.755h0v-16.491h3.535v12.956A3.535,3.535,0,0,1,485.3,2706.755Z" transform="translate(-485.303 -2690.264)"/></g></g><g transform="translate(454.584 2386.932)"><path class="j" d="M2.771,0h0a0,0,0,0,1,0,0V9.489a0,0,0,0,1,0,0h0A2.771,2.771,0,0,1,0,6.718V2.771A2.771,2.771,0,0,1,2.771,0Z"/></g><g transform="translate(554.064 2359.48)"><path class="f" d="M838.988,2533.954h-4.9a2.257,2.257,0,0,1-2.257-2.257v-1.449a2.257,2.257,0,0,1,2.257-2.257h4.858Z" transform="translate(-831.826 -2527.991)"/></g><g transform="translate(460.423 2397.95)"><g transform="translate(0 2.581)"><rect class="c" width="10.813" height="1.279"/></g><g transform="translate(0)"><rect class="c" width="10.813" height="1.279"/></g></g><g transform="translate(537.665 2335.824)"><circle class="f" cx="2.924" cy="2.924" r="2.924"/></g><g transform="translate(526.438 2406.495)"><g transform="translate(0)"><path class="e" d="M738.39,2697.743h-6.31l.207,4.923h10.7A4.448,4.448,0,0,0,738.39,2697.743Z" transform="translate(-732.08 -2697.743)"/></g></g><g transform="translate(500.256 2404.424)"><g transform="translate(0 0)"><path class="g" d="M637.548,2690.264h8.9v6.977h-1.919a6.977,6.977,0,0,1-6.977-6.977Z" transform="translate(-637.548 -2690.264)"/></g></g><g transform="translate(500.485 2312.655)"><g transform="translate(0 0)"><g transform="translate(0 0)"><rect class="d" width="8.928" height="8.136" transform="translate(1.676 0) rotate(11.891)"/></g></g></g><g transform="translate(491.912 2360.407)"><path class="b" d="M653.383,2533.519l-.209,13.552-44.972,1.615c-1.279,0,6.406-3.709,5.343-4.237a8.01,8.01,0,0,1-4.461-7.189l-1.665-5.923Z" transform="translate(-607.421 -2531.338)"/></g><g transform="translate(534.243 2362.588)"><g transform="translate(0 0)"><path class="b" d="M772.576,2547.9l-4.675,30.57-.137.94-.57,3.71h-6.931v-4.65l.008-39.252h3.622A8.683,8.683,0,0,1,772.576,2547.9Z" transform="translate(-760.263 -2539.213)"/></g></g><g transform="translate(494.522 2362.588)"><g transform="translate(0 0)"><path class="b" d="M636.323,2539.212a109.105,109.105,0,0,1-19.477,4.438v-4.438Z" transform="translate(-616.846 -2539.212)"/></g></g><g transform="translate(467.039 2321.739)"><path class="c" d="M561.512,2414.35c-.106.473-.222.947-.357,1.413a52.423,52.423,0,0,1-2.142,5.591c-7.524,18.876-7.36,26.808-18.787,32.536a34.709,34.709,0,0,1-22.61,3.026l16.574-24.945a43.1,43.1,0,0,0,6.712-17.629,94.4,94.4,0,0,1,3.762-15.67,6.023,6.023,0,0,1,4.169-6.4,31.134,31.134,0,0,1,8.955-.41c.261.024.511.049.753.064,2.229.217,3.782.514,3.782.514S563.905,2404.1,561.512,2414.35Z" transform="translate(-517.616 -2391.722)"/></g><g transform="translate(514.887 2341.094)"><g transform="translate(0 0)"><path class="c" d="M714.546,2469.188l-24.17.783,7.216-8.366,17.454,2.31Z" transform="translate(-690.377 -2461.605)"/></g></g><g transform="translate(497.098 2322.997)"><path class="c" d="M643.935,2422.729l-17.275-15.365c-1.326-1.326.151-6.737,1.693-8.279h0c1.541-1.542,5.923-3.737,7.248-2.412l15.55,17.688Z" transform="translate(-626.145 -2396.266)"/></g><g transform="translate(500.262 2294.931)"><path class="f" d="M654.607,2296.235l-.305,1.719a5.181,5.181,0,0,1-5.695,4.257l-11.036-1.261.313-1.783a5.125,5.125,0,0,1,5.63-4.2Z" transform="translate(-637.571 -2294.931)"/></g><g transform="translate(511.379 2296.224)"><path class="f" d="M683.628,2299.608l-.305,1.719a5.2,5.2,0,0,1-4.281,4.225l-1.333-2.249A5.684,5.684,0,0,1,683.628,2299.608Z" transform="translate(-677.708 -2299.597)"/></g><g transform="translate(499.045 2299.392)"><g transform="translate(0)"><path class="d" d="M646.771,2328.347l-3.522-.029a10.153,10.153,0,0,1-10.072-10.234h0a7.106,7.106,0,0,1,7.162-7.048l2.458.019a7.106,7.106,0,0,1,7.049,7.162l-.057,7.157A3,3,0,0,1,646.771,2328.347Z" transform="translate(-633.178 -2311.036)"/></g></g><g transform="translate(515.676 2308.243)"><g transform="translate(0 0)"><path class="d" d="M694.226,2346.317l-1-.008.026-3.314,1.468,2.468A.566.566,0,0,1,694.226,2346.317Z" transform="translate(-693.223 -2342.995)"/></g></g><g transform="translate(497.271 2300.331)"><g transform="translate(0 0)"><path class="f" d="M631.085,2329.449c-4.631-6.781-4.308-11.986-4.308-11.986l8.38-3.033c3.487.028,2.961,1.844,2.933,5.331l-1,.135C638,2330.475,631.085,2329.449,631.085,2329.449Z" transform="translate(-626.772 -2314.429)"/></g></g><g transform="translate(507.068 2301.213)"><g transform="translate(0 0)"><path class="f" d="M664.221,2323.344l-2.076-.016.046-5.713,4.205.034-.029,3.584A2.129,2.129,0,0,1,664.221,2323.344Z" transform="translate(-662.145 -2317.614)"/></g></g><g transform="translate(497.146 2296.931)"><path class="f" d="M640.493,2306.469l.191-4.019-8.685-.3-4.234,3.051a9.634,9.634,0,0,0-1.382,2.875,9.391,9.391,0,0,0,.376,3.461s-.147-.572,5.058-2.842A23.354,23.354,0,0,1,640.493,2306.469Z" transform="translate(-626.319 -2302.153)"/></g><g transform="translate(507.348 2301.468)"><g transform="translate(0)"><rect class="f" width="1.624" height="8.041"/></g></g><g transform="translate(536.397 2343.005)"><path class="d" d="M773.755,2468.5h-2.7a3.012,3.012,0,0,0-3.012,3.012h0a2.66,2.66,0,0,0,2.66,2.66h6.068v-2.66A3.012,3.012,0,0,0,773.755,2468.5Z" transform="translate(-768.038 -2468.505)"/></g><g transform="translate(497.991 2318.98)"><path class="b" d="M0,0H9.25a3.305,3.305,0,0,1,3.305,3.305v0a0,0,0,0,1,0,0H0a0,0,0,0,1,0,0V0A0,0,0,0,1,0,0Z" transform="translate(0 0)"/></g><g transform="translate(505.692 2306.892)"><g transform="translate(0 0)"><path class="d" d="M659.685,2341.635l-1.26-.01a1.261,1.261,0,0,1-1.25-1.271l.008-.986a1.26,1.26,0,0,1,1.27-1.25h0a1.26,1.26,0,0,1,1.25,1.27Z" transform="translate(-657.175 -2338.119)"/></g></g><g transform="translate(514.338 2307.687)"><circle class="f" cx="0.36" cy="0.36" r="0.36"/></g><g transform="translate(551.438 2311.988)"><path class="k" d="M822.348,2356.516" transform="translate(-822.348 -2356.516)"/></g><g transform="translate(571.65 2361.103)"><rect class="a" width="2.98" height="10.825" transform="translate(0 0)"/></g><g transform="translate(498.953 2335.274)"><rect class="a" width="0.277" height="21.193" transform="translate(0 0.207) rotate(-48.191)"/></g><g transform="translate(509.047 2326.269)"><rect class="a" width="0.277" height="7.341" transform="translate(0 0.183) rotate(-41.317)"/></g><g transform="translate(512.291 2305.999)"><path class="b" d="M683.049,2338.989a2.048,2.048,0,1,1,2.048-2.048A2.05,2.05,0,0,1,683.049,2338.989Zm0-3.887a1.84,1.84,0,1,0,1.84,1.84A1.842,1.842,0,0,0,683.049,2335.1Z" transform="translate(-681.001 -2334.894)"/></g><g transform="translate(506.714 2306.79)"><rect class="b" width="0.208" height="5.799" transform="translate(0 0.206) rotate(-82.124)"/></g><g transform="translate(566.197 2398.451)"><path class="b" d="M875.9,2678.77l-.261-.093a15.014,15.014,0,0,1,19.576-8.961l-.1.258a14.738,14.738,0,0,0-19.215,8.8Z" transform="translate(-875.635 -2668.699)"/></g><g transform="translate(564.656 2371.789)"><rect class="b" width="6.994" height="0.277" transform="translate(0)"/></g><g transform="translate(499.021 2411.583)"><rect class="b" width="14.342" height="0.277" transform="translate(0 0)"/></g><g transform="translate(492.763 2345.78)"><path class="c" d="M628.311,2478.526s-1.317,24.085-17.815,36.451l1.759-24.156Z" transform="translate(-610.496 -2478.526)"/></g><g transform="translate(486.627 2366.854)"><path class="a" d="M598.145,2560.092l-9.806-2.8.764-2.671,9.806,2.8Zm-9.464-2.994,9.274,2.652.612-2.138-9.274-2.652Z" transform="translate(-588.339 -2554.617)"/></g><g transform="translate(506.725 2368.151)"><path class="f" d="M692.192,2596.755l-.276-.025,2.96-33.081a3.086,3.086,0,0,0-3-3.36l-30.969-.712.006-.277,30.969.712a3.364,3.364,0,0,1,3.272,3.662Z" transform="translate(-660.905 -2559.299)"/></g></g></svg>