<svg xmlns="http://www.w3.org/2000/svg" width="237.806" height="83.932" viewBox="0 0 237.806 83.932"><defs><style>.a{fill:#091538;}.b{fill:#162458;}.c{fill:#221f3e;}.d{fill:#d54f1f;}.e{fill:#cfd1d2;}.f,.r{fill:#dce8fd;}.g{fill:#e17163;}.h{fill:#a5320f;}.i{fill:#bc4748;}.j{fill:#fafaf0;}.k{fill:#39394b;}.l{fill:#ecb442;}.m{fill:#72a6b5;}.n{opacity:0.33;}.o{fill:#477779;}.p{fill:#384260;}.q{fill:#3a5cbc;}.r,.t{opacity:0.15;}.s{fill:#acc5e8;}</style></defs><g transform="translate(-2689.365 -2304.989)"><g transform="translate(2779.251 2363.758)"><path class="a" d="M3082.719,2550.537a7.417,7.417,0,0,0-4.639-1.674c0-.006-6.356-.006-6.356-.006a7.47,7.47,0,0,0-4.727,1.675c-4.433,3.473-5.956,11.181-3.4,17.185,1.73,4.068,4.89,6.322,8.124,6.289,0,.008,6.356.008,6.356.008,3.205-.018,6.325-2.264,8.04-6.291C3088.674,2561.715,3087.149,2554,3082.719,2550.537Z" transform="translate(-3062.358 -2548.857)"/></g><g transform="translate(2772.808 2363.758)"><path class="a" d="M3055.985,2550.537a7.42,7.42,0,0,0-4.639-1.674c0-.006-6.356-.006-6.356-.006a7.468,7.468,0,0,0-4.727,1.675c-4.433,3.473-5.956,11.181-3.4,17.185,1.73,4.068,4.889,6.322,8.124,6.289,0,.008,6.356.008,6.356.008,3.2-.018,6.324-2.264,8.04-6.291C3061.941,2561.715,3060.416,2554,3055.985,2550.537Z" transform="translate(-3035.624 -2548.857)"/></g><rect class="b" width="51.863" height="20.67" transform="translate(2763.737 2355.146)"/><g transform="translate(2709.842 2366.063)"><rect class="b" width="34.814" height="4.272" transform="translate(0 0)"/></g><g transform="translate(2735.056 2359.549)"><path class="b" d="M2897.508,2531.392h-12.324c-3.359,0-6.219,3.39-6.219,7.571v8.854h9.563c1.179,0,2.135-1.336,2.135-2.983v-4.129c0-3.4,2.218-6.165,4.953-6.165h1.892Z" transform="translate(-2878.965 -2531.392)"/></g><g transform="translate(2722.027 2360.894)"><rect class="b" width="108.536" height="7.491" transform="translate(0 0)"/></g><g transform="translate(2722.027 2357.147)"><rect class="b" width="8.144" height="7.491"/><g transform="translate(19.708)"><rect class="b" width="33.001" height="7.491"/></g></g><g transform="translate(2749.547 2373.842)"><g transform="translate(0 0)"><rect class="b" width="33.001" height="4.981"/></g></g><g transform="translate(2778.759 2357.147)"><rect class="b" width="8.144" height="7.491"/><g transform="translate(31.307)"><rect class="b" width="8.144" height="7.491"/></g></g><g transform="translate(2812.099 2362.173)"><rect class="b" width="24.372" height="18.455" transform="translate(0)"/></g><g transform="translate(2763.111 2354.489)"><path class="c" d="M2995.382,2512.656a2.26,2.26,0,0,1,2.26-2.26h17.612a2.26,2.26,0,0,1,2.261,2.26Z" transform="translate(-2995.382 -2510.396)"/></g><g transform="translate(2807.667 2335.429)"><path class="c" d="M3201.7,2442.014a10.712,10.712,0,1,0-10.711,10.712A10.712,10.712,0,0,0,3201.7,2442.014Z" transform="translate(-3180.273 -2431.302)"/></g><g transform="translate(2802.082 2318.27)"><path class="d" d="M3157.1,2362.32a2.221,2.221,0,0,0,2.222,2.22h3.608a2.221,2.221,0,0,0,2.221-2.22h0a2.221,2.221,0,0,0-2.221-2.221h-3.608a2.221,2.221,0,0,0-2.222,2.221Z" transform="translate(-3157.099 -2360.099)"/></g><g transform="translate(2801.819 2320.126)"><path class="c" d="M3156.371,2371.917a.375.375,0,0,1-.1-.015.364.364,0,0,1-.246-.453l1.084-3.646h3.659a.365.365,0,1,1,0,.729h-3.115l-.929,3.125a.366.366,0,0,1-.35.261Z" transform="translate(-3156.006 -2367.802)"/></g><g transform="translate(2693.341 2331.735)"><path class="b" d="M2848.274,2434.308H2720.817l-14.955-4.554v-13.779h139.179l8.99,6.657Z" transform="translate(-2705.862 -2415.975)"/></g><g transform="translate(2746.862 2335.531)"><path class="b" d="M2945.131,2433.143a6.272,6.272,0,0,0-3.913-1.411s-5.361,0-5.361,0a6.3,6.3,0,0,0-3.986,1.413c-3.74,2.93-5.024,9.43-2.866,14.5,1.459,3.431,4.124,5.332,6.852,5.3,0,.007,5.361.007,5.361.007,2.7-.016,5.334-1.908,6.781-5.3C2950.154,2442.572,2948.868,2436.066,2945.131,2433.143Z" transform="translate(-2927.957 -2431.727)"/></g><g transform="translate(2712.345 2335.53)"><path class="c" d="M2784.724,2431.722h5.361v.006a6.258,6.258,0,0,1,3.914,1.412c3.737,2.922,5.023,9.427,2.868,14.5-1.447,3.4-4.078,5.291-6.781,5.3v.009h-5.361Z" transform="translate(-2784.724 -2431.722)"/></g><g transform="translate(2704.445 2335.525)"><path class="a" d="M2763.68,2451.507c-3.736,2.927-8.532,1.186-10.69-3.889s-.874-11.566,2.865-14.5,8.533-1.183,10.693,3.887.869,11.573-2.868,14.5Z" transform="translate(-2751.942 -2431.704)"/></g><g transform="translate(2707.162 2339.208)"><path class="c" d="M2770.878,2459.915c-2.439,1.912-5.57.775-6.98-2.538s-.571-7.551,1.871-9.464,5.571-.772,6.981,2.537.567,7.558-1.873,9.465Z" transform="translate(-2763.214 -2446.986)"/></g><g transform="translate(2710.448 2343.662)"><path class="c" d="M2779.587,2470.083c-.87.681-1.988.276-2.493-.906a3.008,3.008,0,0,1,.67-3.38c.87-.682,1.988-.275,2.491.906a3,3,0,0,1-.668,3.38Zm-1.508-3.542a1.96,1.96,0,0,0-.437,2.207c.331.773,1.06,1.038,1.63.593a1.961,1.961,0,0,0,.434-2.208c-.329-.771-1.058-1.036-1.627-.591Z" transform="translate(-2776.852 -2465.466)"/></g><g transform="translate(2706.719 2338.603)"><path class="e" d="M2769.706,2458.534c-2.65,2.071-6.053.839-7.589-2.759s-.615-8.218,2.038-10.293,6.054-.838,7.585,2.756.621,8.219-2.034,10.3Zm-5.277-12.4c-2.388,1.866-3.207,6.022-1.829,9.253s4.439,4.354,6.834,2.481c2.379-1.863,3.2-6.017,1.818-9.254s-4.436-4.346-6.824-2.48Z" transform="translate(-2761.376 -2444.474)"/></g><g transform="translate(2692.386 2304.989)"><path class="d" d="M2731.327,2304.989a6.765,6.765,0,0,0-5.394,3.2l-6.376,11.686a8.467,8.467,0,0,1-5.343,3.8l-8.706,1.456a4.468,4.468,0,0,0-3.606,4.246c-.006,2.178.017,11.521.017,11.521a4.714,4.714,0,0,0,3.763,4.247l3.212.759a4.066,4.066,0,0,0,4.371-2.952c1.45-4.125,4.613-6.988,8.286-6.988,4.094,0,7.56,3.552,8.723,8.448a4.421,4.421,0,0,0,4.064,3.614h35.2a4.422,4.422,0,0,0,4.064-3.614c1.164-4.9,4.629-8.448,8.723-8.448s7.56,3.552,8.723,8.448a4.422,4.422,0,0,0,4.064,3.614h10.574l.692-6.418,3.36-3.219,6.888-16.384-17.1-14.646a11.43,11.43,0,0,0-6.416-2.372Z" transform="translate(-2701.9 -2304.989)"/></g><g transform="translate(2829.994 2331.735)"><path class="c" d="M3280.54,2415.975h-7.614l2.66,6.657h8.855v-2.755A3.9,3.9,0,0,0,3280.54,2415.975Z" transform="translate(-3272.925 -2415.975)"/></g><g transform="translate(2758.54 2322.007)"><path class="d" d="M3001.747,2383.072l-2.763-2.962-22.568-4.5h48.574l13.3,3.758,9.577-1.889,2.79,3.469,3.757-.439,1.887,4.9h-44.927Z" transform="translate(-2976.415 -2375.609)"/></g><g transform="translate(2752.291 2304.989)"><path class="d" d="M3005.307,2322.007l-17.1-14.646a11.426,11.426,0,0,0-6.416-2.372h-31.3l6.249,17.018Z" transform="translate(-2950.484 -2304.989)"/></g><g transform="translate(2797.754 2338.392)"><path class="d" d="M3185.526,2447.1a2.393,2.393,0,0,1-2.586-2.185l-.045-1.318-1.564.957s-5.88-.638-5.88-.638l-4.324,1.4-29.9,2.507-2.085,3.06.564,6.739,42.884-3.6a3.505,3.505,0,0,0,3.2-3.788l-.262-3.135Z" transform="translate(-3139.139 -2443.597)"/></g><g transform="translate(2796.865 2345.672)"><path class="d" d="M3141.19,2477.909a4.491,4.491,0,0,1-4.85-4.1l-.889,6.862,44.336-3.717a3.5,3.5,0,0,0,3.071-2.538Z" transform="translate(-3135.451 -2473.808)"/></g><g transform="translate(2715.845 2307.831)"><path class="b" d="M2801.159,2330.958l30.714-14.177H2807.51a5.351,5.351,0,0,0-4.775,3.468l-3.486,10.709Z" transform="translate(-2799.249 -2316.781)"/></g><g transform="translate(2753.334 2307.831)"><path class="f" d="M2992.038,2316.782h-37.224l5.206,14.176h48.574Z" transform="translate(-2954.814 -2316.782)"/></g><g transform="translate(2717.755 2307.831)"><path class="f" d="M2844.813,2330.958l-5.015-14.177h-24.363a5.351,5.351,0,0,0-4.776,3.468l-3.486,10.709Z" transform="translate(-2807.174 -2316.781)"/></g><g transform="translate(2792.932 2341.104)"><path class="c" d="M3120.224,2462.223a1.094,1.094,0,0,1-.091-2.184l33.532-2.811,6.862-2.373,4.721,1.4,4.907-.41a1.094,1.094,0,0,1,.182,2.18l-5.316.445-4.441-1.319-6.594,2.245-33.668,2.822c-.032,0-.062,0-.093,0Z" transform="translate(-3119.131 -2454.855)"/></g><g transform="translate(2692.976 2329.016)"><path class="g" d="M2784.84,2405.421h-80.126a.365.365,0,1,1,0-.729h80.126a.365.365,0,1,1,0,.729Z" transform="translate(-2704.349 -2404.692)"/></g><g transform="translate(2732.101 2327.661)"><path class="h" d="M2871.626,2401.245a.364.364,0,0,1-.365-.365,1.081,1.081,0,0,0-1.08-1.08h-3.114a.365.365,0,1,1,0-.729h3.114a1.81,1.81,0,0,1,1.809,1.809.365.365,0,0,1-.365.365Z" transform="translate(-2866.703 -2399.071)"/></g><g transform="translate(2714.042 2327.661)"><path class="h" d="M2796.689,2401.245a.365.365,0,0,1-.365-.365,1.081,1.081,0,0,0-1.079-1.08h-3.114a.365.365,0,1,1,0-.729h3.114a1.81,1.81,0,0,1,1.809,1.809.364.364,0,0,1-.365.365Z" transform="translate(-2791.766 -2399.071)"/></g><g transform="translate(2734.836 2307.198)"><rect class="i" width="15.497" height="1.459" transform="translate(0 15.472) rotate(-86.79)"/></g><g transform="translate(2744.656 2318.27)"><path class="g" d="M2926.852,2362.32a2.221,2.221,0,0,1-2.221,2.22h-3.608a2.221,2.221,0,0,1-2.221-2.22h0a2.221,2.221,0,0,1,2.221-2.221h3.608a2.221,2.221,0,0,1,2.221,2.221Z" transform="translate(-2918.801 -2360.099)"/></g><g transform="translate(2747.847 2320.126)"><path class="c" d="M2936.8,2371.917a.365.365,0,0,1-.35-.261l-.929-3.125h-3.114a.365.365,0,1,1,0-.729h3.658l1.084,3.646a.365.365,0,0,1-.246.453.378.378,0,0,1-.1.015Z" transform="translate(-2932.043 -2367.802)"/></g><g transform="translate(2690.452 2335.967)"><path class="d" d="M2695.809,2433.537a1.972,1.972,0,0,1-1.934,1.971l.007,2.509a4.714,4.714,0,0,0,3.762,4.246l3.5.82v-9.545Z" transform="translate(-2693.875 -2433.537)"/></g><g transform="translate(2689.365 2338.342)"><path class="h" d="M2695.164,2445.578h-4.7a1.094,1.094,0,0,1,0-2.188h4.7a1.094,1.094,0,1,1,0,2.188Z" transform="translate(-2689.365 -2443.39)"/></g><g transform="translate(2791.444 2331.804)"><path class="b" d="M3116.855,2422.851H3130.5l-2.659-6.587h-14.887v2.685A3.9,3.9,0,0,0,3116.855,2422.851Z" transform="translate(-3112.954 -2416.264)"/></g><g transform="translate(2793.502 2331.804)"><path class="j" d="M3125.4,2422.851h13.645l-2.659-6.587h-14.887v2.685A3.9,3.9,0,0,0,3125.4,2422.851Z" transform="translate(-3121.494 -2416.264)"/></g><g transform="translate(2833.958 2332.542)"><path class="k" d="M3293.2,2423.437l-.042,0a.365.365,0,0,1-.321-.4l.349-2.979h-3.451a.365.365,0,1,1,0-.729h4.27l-.443,3.793a.366.366,0,0,1-.362.322Z" transform="translate(-3289.372 -2419.321)"/></g><g transform="translate(2735.597 2307.831)"><path class="c" d="M2881.209,2318.059h1.461l.072-1.277h-1.461Z" transform="translate(-2881.209 -2316.782)"/></g><g transform="translate(2802.275 2328.097)"><path class="b" d="M3174,2400.879l-16.1,3.709h21.989Z" transform="translate(-3157.901 -2400.879)"/></g><g transform="translate(2832.057 2334.155)"><path class="l" d="M3284.6,2433.23a.364.364,0,0,1-.364-.365v-2.757a3.519,3.519,0,0,0-2.491-3.379.365.365,0,0,1,.215-.7,4.244,4.244,0,0,1,3.006,4.076v2.757a.365.365,0,0,1-.365.365Z" transform="translate(-3281.484 -2426.017)"/></g><g transform="translate(2832.765 2341.004)"><path class="j" d="M3289.233,2454.438h0a2.224,2.224,0,0,1-2.225,2.225h-.359a2.224,2.224,0,0,1-2.225-2.225h4.809Z" transform="translate(-3284.424 -2454.438)"/></g><g transform="translate(2833.746 2341.446)"><path class="m" d="M3291,2457h-2.143a.365.365,0,0,1,0-.729H3291a.365.365,0,0,1,0,.729Z" transform="translate(-3288.493 -2456.27)"/></g><g transform="translate(2762.954 2338.151)"><path class="c" d="M3013.96,2460.936a11.016,11.016,0,1,0-16.427,0Z" transform="translate(-2994.731 -2442.598)"/></g><g transform="translate(2762.042 2338.151)"><path class="a" d="M3010.177,2460.936a11.016,11.016,0,1,0-16.427,0Z" transform="translate(-2990.948 -2442.598)"/></g><g transform="translate(2766.11 2342.219)"><g transform="translate(0)"><path class="c" d="M3021.723,2466.428a6.948,6.948,0,1,0-6.948,6.947A6.948,6.948,0,0,0,3021.723,2466.428Z" transform="translate(-3007.828 -2459.48)"/></g></g><g transform="translate(2765.735 2341.844)"><g transform="translate(0)"><path class="e" d="M3013.595,2472.57a7.322,7.322,0,1,1,7.323-7.322,7.331,7.331,0,0,1-7.323,7.322Zm0-13.9a6.572,6.572,0,1,0,6.572,6.574,6.58,6.58,0,0,0-6.572-6.574Z" transform="translate(-3006.272 -2457.925)"/></g></g><g transform="translate(2770.408 2346.517)"><g transform="translate(0)"><path class="c" d="M3028.313,2482.612a2.649,2.649,0,1,1,2.649-2.648,2.652,2.652,0,0,1-2.649,2.648Zm0-4.548a1.9,1.9,0,1,0,1.9,1.9,1.9,1.9,0,0,0-1.9-1.9Z" transform="translate(-3025.663 -2477.313)"/></g></g><g transform="translate(2762.543 2354.489)"><path class="k" d="M2993.029,2512.656a2.26,2.26,0,0,1,2.26-2.26h17.1a2.26,2.26,0,0,1,2.261,2.26Z" transform="translate(-2993.029 -2510.396)"/></g><g transform="translate(2777.544 2337.715)"><path class="d" d="M3064.558,2440.79h-9.283a12.122,12.122,0,0,1,3.991,6.7,4.421,4.421,0,0,0,4.064,3.614h1.227Z" transform="translate(-3055.275 -2440.79)"/></g><g transform="translate(2754.482 2323.512)"><path class="h" d="M2959.94,2404.546a.365.365,0,0,1-.365-.365v-17.84a4.5,4.5,0,0,1,4.49-4.49.365.365,0,0,1,0,.73,3.765,3.765,0,0,0-3.761,3.76v17.84a.365.365,0,0,1-.365.365Z" transform="translate(-2959.575 -2381.851)"/></g><g transform="translate(2730.779 2323.512)"><path class="h" d="M2861.583,2404.546a.364.364,0,0,1-.365-.365v-17.84a4.5,4.5,0,0,1,4.49-4.49.365.365,0,1,1,0,.73,3.764,3.764,0,0,0-3.76,3.76v17.84a.365.365,0,0,1-.365.365Z" transform="translate(-2861.218 -2381.851)"/></g><g transform="translate(2712.562 2323.512)"><path class="h" d="M2785.987,2392.483a.364.364,0,0,1-.365-.365v-5.778a4.5,4.5,0,0,1,4.49-4.49.365.365,0,0,1,0,.73,3.765,3.765,0,0,0-3.761,3.76v5.778a.364.364,0,0,1-.365.365Z" transform="translate(-2785.622 -2381.851)"/></g><g transform="translate(2815.6 2353.971)"><rect class="c" width="3.783" height="4.118"/></g><g transform="translate(2811.963 2326.282)"><g transform="translate(0 0)"><path class="f" d="M3241.381,2421.069a1.094,1.094,0,0,1-1.094-1.094v-19.354a5.09,5.09,0,0,0-5.085-5.085h-29.827a5.09,5.09,0,0,0-5.085,5.085v19.354a1.094,1.094,0,1,1-2.188,0v-19.354a7.28,7.28,0,0,1,7.273-7.273H3235.2a7.281,7.281,0,0,1,7.273,7.273v19.354a1.094,1.094,0,0,1-1.094,1.094Z" transform="translate(-3198.102 -2393.348)"/></g></g><g transform="translate(2881.89 2344.823)"><path class="c" d="M3488.64,2476.021a.364.364,0,0,1-.19-.675l8.252-5.063v5.374a.365.365,0,1,1-.729,0v-4.071l-7.142,4.382a.37.37,0,0,1-.191.054Z" transform="translate(-3488.275 -2470.283)"/></g><g class="n" transform="translate(2700.842 2387.462)"><path class="o" d="M2958.661,2648.682H2737.719a.729.729,0,1,1,0-1.459h220.941a.729.729,0,1,1,0,1.459Z" transform="translate(-2736.99 -2647.223)"/></g><g transform="translate(2892.381 2363.758)"><path class="p" d="M3552.167,2550.537a7.422,7.422,0,0,0-4.64-1.674c0-.006-6.356-.006-6.356-.006a7.47,7.47,0,0,0-4.727,1.675c-4.432,3.473-5.956,11.181-3.4,17.185,1.731,4.068,4.89,6.322,8.124,6.289,0,.008,6.356.008,6.356.008,3.205-.018,6.324-2.264,8.039-6.291C3558.122,2561.715,3556.6,2554,3552.167,2550.537Z" transform="translate(-3531.806 -2548.857)"/></g><g transform="translate(2892.381 2363.75)"><path class="c" d="M3545.722,2572.3c-4.43,3.472-10.115,1.408-12.674-4.61s-1.035-13.713,3.4-17.186,10.117-1.4,12.678,4.609,1.03,13.722-3.4,17.186Z" transform="translate(-3531.806 -2548.826)"/></g><g transform="translate(2822.759 2347.834)"><path class="b" d="M3273.509,2512.95l4.633-2.188h67.712v-20.919l-30.026-7.062H3242.9v30.17Z" transform="translate(-3242.901 -2482.781)"/></g><g transform="translate(2860.206 2363.757)"><path class="a" d="M3398.291,2548.853h6.356v.006a7.427,7.427,0,0,1,4.64,1.674c4.43,3.464,5.955,11.177,3.4,17.186-1.716,4.027-4.835,6.272-8.039,6.28v.011h-6.356Z" transform="translate(-3398.291 -2548.853)"/></g><g transform="translate(2850.84 2363.75)"><path class="p" d="M3373.343,2572.3c-4.429,3.472-10.115,1.408-12.673-4.61s-1.037-13.713,3.4-17.186,10.117-1.4,12.677,4.609,1.032,13.722-3.4,17.186Z" transform="translate(-3359.427 -2548.826)"/></g><g transform="translate(2854.954 2369.328)"><path class="c" d="M3384.243,2585.042c-2.466,1.932-5.629.782-7.054-2.567s-.578-7.633,1.891-9.565,5.632-.781,7.056,2.564.574,7.639-1.893,9.568Z" transform="translate(-3376.497 -2571.974)"/></g><g transform="translate(2856.413 2370.493)"><path class="e" d="M3389.007,2587.7c-2.052,1.607-4.691.652-5.881-2.135s-.475-6.367,1.581-7.976,4.69-.649,5.878,2.135.479,6.369-1.577,7.976Z" transform="translate(-3382.553 -2576.808)"/></g><g transform="translate(2848.987 2347.834)"><path class="q" d="M3426.294,2485.8l-27.859-3.023h-46.7v7.063h78.184A4.154,4.154,0,0,0,3426.294,2485.8Z" transform="translate(-3351.735 -2482.781)"/></g><g transform="translate(2835.03 2330.054)"><path class="f" d="M3293.82,2426.781h60.657L3337.535,2409H3293.82Z" transform="translate(-3293.82 -2409.001)"/></g><g transform="translate(2880.471 2354.897)"><rect class="b" width="34.79" height="18.002" transform="translate(0 0)"/></g><g transform="translate(2840.938 2327.413)"><path class="q" d="M3319.328,2398.041l-.991,2.641h37.807a9.741,9.741,0,0,0-6.162-2.641Z" transform="translate(-3318.337 -2398.041)"/></g><g transform="translate(2821.887 2327.413)"><path class="q" d="M3266.83,2443.526l.017-6.179c0-3.947,2.844-6.367,5.58-6.367h11.76c2.736,0,4.948,2.919,4.948,6.58l3.746,5.967h4.988v-18a4.156,4.156,0,0,0-3.625-4.04l-27.86-3.023-7.058-20.421h-13.478a4.329,4.329,0,0,0-4.162,3.61l-2.4,17.505v27.288h24.128a3.644,3.644,0,0,0,3.1-1.732Z" transform="translate(-3239.284 -2398.041)"/></g><g transform="translate(2849.129 2357.619)"><path class="b" d="M3352.859,2532.7c0-3.4,2.218-6.165,4.954-6.165h11.76c2.735,0,4.954,2.76,4.954,6.165v2.984c0,1.648.955,2.983,2.134,2.983h2.134v-7.709c0-4.181-2.724-7.571-6.083-7.571h-15.151c-2.891,0-5.236,2.917-5.236,6.516v9.91a3.611,3.611,0,0,0,.533-1.875Z" transform="translate(-3352.326 -2523.382)"/></g><g transform="translate(2825.427 2330.054)"><path class="f" d="M3275.132,2426.781l-6.27-17.78h-9.684a3.4,3.4,0,0,0-3.29,2.893l-1.916,14.887Z" transform="translate(-3253.972 -2409.001)"/></g><g transform="translate(2817.762 2348.528)"><path class="q" d="M3222.164,2489.784v19.038a4.125,4.125,0,0,0,4.126,4.125v-27.288A4.126,4.126,0,0,0,3222.164,2489.784Z" transform="translate(-3222.164 -2485.659)"/></g><path class="r" d="M3284.684,2490.515h-27.73v-1.879a3.765,3.765,0,0,1,3.761-3.76.365.365,0,1,0,0-.729,4.5,4.5,0,0,0-4.491,4.49v1.879H3229.3a.365.365,0,1,0,0,.729h26.926v19.1a.365.365,0,0,0,.729,0v-19.1h27.73a.365.365,0,0,0,0-.729Z" transform="translate(-409.54 -135.983)"/><g transform="translate(2876.397 2354.902)"><g transform="translate(0 0)"><path class="f" d="M3469.554,2517.5h-1.379a2.7,2.7,0,0,1,0-5.392h1.379Z" transform="translate(-3465.479 -2512.11)"/></g><g transform="translate(0 6.594)"><path class="f" d="M3469.554,2544.862h-1.379a2.7,2.7,0,1,1,0-5.39h1.379Z" transform="translate(-3465.479 -2539.472)"/></g></g><g transform="translate(2880.471 2354.897)"><rect class="f" width="11.91" height="5.397" transform="translate(0 0)"/></g><g transform="translate(2880.471 2361.493)"><rect class="f" width="11.91" height="5.396" transform="translate(0 0)"/></g><g transform="translate(2915.262 2354.897)"><rect class="f" width="11.909" height="5.397" transform="translate(0 0)"/></g><g transform="translate(2915.262 2361.493)"><rect class="f" width="11.909" height="5.396" transform="translate(0 0)"/></g><g transform="translate(2880.471 2360.294)"><rect class="q" width="46.699" height="1.199" transform="translate(0 0)"/></g><g transform="translate(2886.389 2366.886)"><rect class="s" width="39.323" height="12.027"/></g><g transform="translate(2870.331 2377.336)"><rect class="s" width="4.022" height="8.85" transform="translate(0 0)"/></g><g transform="translate(2875.599 2366.886)"><path class="s" d="M3462.166,2561.839v6.012c0,3.322,1.926,6.014,4.3,6.014h6.489v-12.026Z" transform="translate(-3462.166 -2561.839)"/></g><g transform="translate(2819.11 2377.675)"><path class="f" d="M3252.353,2609.561h-23.119a1.477,1.477,0,0,1,0-2.953h23.119Z" transform="translate(-3227.757 -2606.608)"/></g><g transform="translate(2689.603 2352.545)"><path class="f" d="M2690.352,2505.083l4.224-2.755h121.773v5.513H2694.576Z" transform="translate(-2690.352 -2502.328)"/></g><g transform="translate(2841.564 2377.675)"><path class="f" d="M3326.418,2609.561h-4.009a1.477,1.477,0,0,1,0-2.953h6.758C3329.168,2608.667,3328.173,2609.561,3326.418,2609.561Z" transform="translate(-3320.933 -2606.608)"/></g><g transform="translate(2702.411 2363.534)"><path class="b" d="M2746.12,2556.171a2.619,2.619,0,0,1-2.619-2.618v-3a2.62,2.62,0,0,1,2.619-2.619Z" transform="translate(-2743.501 -2547.931)"/></g><g transform="translate(2779.156 2362.173)"><rect class="q" width="33.428" height="18.455"/></g><g transform="translate(2791.869 2366.155)"><path class="c" d="M3121.209,2560.539a.365.365,0,0,1-.365-.365v-.638h-5.395v.638a.365.365,0,0,1-.729,0v-1.368h6.854v1.368a.364.364,0,0,1-.364.365Z" transform="translate(-3114.72 -2558.807)"/></g><g transform="translate(2891.337 2368.49)"><g transform="translate(0 0)"><g transform="translate(0)"><path class="b" d="M3528.371,2570.286l-.894-.895.894-.9.9.9Z" transform="translate(-3527.477 -2568.495)"/></g><g transform="translate(0 5.009)"><rect class="b" width="1.266" height="1.266" transform="translate(0 0.895) rotate(-44.988)"/></g></g><g transform="translate(27.635 0)"><g transform="translate(0)"><path class="b" d="M3643.047,2570.286l-.895-.895.895-.9.9.9Z" transform="translate(-3642.153 -2568.495)"/></g><g transform="translate(0 5.009)"><rect class="b" width="1.266" height="1.266" transform="translate(0 0.895) rotate(-44.988)"/></g></g></g><g class="t" transform="translate(2780.015 2377.31)"><path class="f" d="M3103.007,2605.825H3065.9a.365.365,0,1,1,0-.729h37.111a.365.365,0,1,1,0,.729Z" transform="translate(-3065.531 -2605.096)"/></g><g transform="translate(2753.599 2359.549)"><path class="b" d="M2968.405,2531.392h-12.494v3.148h2.792c2.735,0,4.953,2.761,4.953,6.165v2.984c0,1.648.956,2.983,2.134,2.983h8.7v-7.709C2974.488,2534.782,2971.765,2531.392,2968.405,2531.392Z" transform="translate(-2955.911 -2531.392)"/></g><g transform="translate(2705.03 2363.535)"><rect class="b" width="12.545" height="8.24"/></g><g transform="translate(2740.659 2367.557)"><path class="c" d="M2911.921,2581c-3.089,2.42-7.053.98-8.839-3.216s-.722-9.562,2.37-11.986,7.056-.976,8.841,3.215.718,9.569-2.372,11.987Z" transform="translate(-2902.216 -2564.623)"/></g><g transform="translate(2745.829 2369.752)"><path class="e" d="M2926.1,2574.611c-2.32,1.812-3.114,5.849-1.776,8.987s4.312,4.229,6.637,2.41,3.112-5.844,1.766-8.989-4.309-4.22-6.628-2.409Z" transform="translate(-2923.67 -2573.732)"/></g><g transform="translate(2747.003 2363.757)"><path class="a" d="M2939.539,2550.532a7.426,7.426,0,0,0-4.64-1.674v-.006h-6.356v.906c2.944.048,5.8,2.125,7.377,5.828,2.373,5.58.957,12.743-3.157,15.959a6.919,6.919,0,0,1-4.219,1.556v.908h6.356V2574c3.2-.007,6.323-2.253,8.039-6.28C2945.494,2561.71,2943.969,2554,2939.539,2550.532Z" transform="translate(-2928.543 -2548.853)"/></g><g transform="translate(2753.6 2363.757)"><path class="a" d="M2966.911,2550.532a7.425,7.425,0,0,0-4.639-1.674v-.006h-6.356v.906c2.944.048,5.8,2.125,7.377,5.828,2.372,5.58.957,12.743-3.158,15.959a6.919,6.919,0,0,1-4.219,1.556v.908h6.356V2574c3.2-.007,6.323-2.253,8.039-6.28C2972.867,2561.71,2971.342,2554,2966.911,2550.532Z" transform="translate(-2955.916 -2548.853)"/></g><g transform="translate(2737.638 2363.75)"><path class="p" d="M2907,2555.117c-2.56-6.01-8.247-8.077-12.677-4.609s-5.956,11.18-3.4,17.186,8.245,8.081,12.674,4.61S2909.553,2561.125,2907,2555.117Zm-5.468,12.33c-2.455,1.923-5.606.779-7.024-2.556s-.574-7.6,1.882-9.525,5.607-.777,7.027,2.554S2903.985,2565.526,2901.53,2567.447Z" transform="translate(-2889.681 -2548.826)"/></g></g></svg>