<svg xmlns="http://www.w3.org/2000/svg" xmlns:xlink="http://www.w3.org/1999/xlink" width="195" height="195" viewBox="0 0 195 195"><defs><clipPath id="a"><circle cx="97.5" cy="97.5" r="97.5" transform="translate(0.085 0.085)" fill="none"/></clipPath></defs><g transform="translate(326.915 63.915)"><g transform="translate(-327 -64)"><g clip-path="url(#a)"><g transform="translate(20.898 13.929)"><g transform="translate(81.139 34.596)"><g transform="translate(0 0)"><g transform="translate(0 20.829)"><path d="M-119.209,34.7h-68.567a.679.679,0,0,1-.678-.678V30.845a.68.68,0,0,1,.678-.678h68.567a.68.68,0,0,1,.678.678v3.182A.679.679,0,0,1-119.209,34.7Zm-68.567-4.252a.393.393,0,0,0-.393.393v3.182a.393.393,0,0,0,.393.393h68.567a.393.393,0,0,0,.393-.393h0V30.845a.393.393,0,0,0-.393-.393Z" transform="translate(188.455 -30.167)" fill="#9aa1fb"/></g><g transform="translate(5.062)"><g transform="translate(0 4.913)"><path d="M-180.672,8.557h2.852a.911.911,0,0,1,.91.91v15h-4.672v-15A.91.91,0,0,1-180.672,8.557Z" transform="translate(181.582 -8.557)" fill="#e79a5e"/></g><g transform="translate(11.679 2.749)"><path d="M-164.754,5.618h2.732a.97.97,0,0,1,.97.97v17.1h-4.672V6.588A.97.97,0,0,1-164.754,5.618Z" transform="translate(165.724 -5.618)" fill="#6860b9"/></g><g transform="translate(4.621)"><path d="M-174.26,1.886h2.629a1.046,1.046,0,0,1,1.047,1.046h0V22.707h-4.722V2.933A1.046,1.046,0,0,1-174.26,1.886Z" transform="translate(175.307 -1.886)" fill="#f0c63d"/></g><g transform="translate(15.84 0.171)"><path d="M-159.5,2.531l1.358-.382a.792.792,0,0,1,.977.547h0l5.113,18.171a1.309,1.309,0,0,1-.906,1.616l-.36.1a1.31,1.31,0,0,1-1.616-.907l-5.113-18.17A.792.792,0,0,1-159.5,2.531Z" transform="translate(160.075 -2.118)" fill="#99a0fb"/></g><g transform="translate(9.343 0.819)"><path d="M-168.174,3h.893a.722.722,0,0,1,.722.722V23H-168.9V3.72A.722.722,0,0,1-168.174,3Z" transform="translate(168.896 -2.998)" fill="#88a0f1"/></g><g transform="translate(0.597 4.95)"><rect width="0.285" height="15.871" fill="#fff"/></g><g transform="translate(11.679 3.866)"><rect width="4.672" height="0.285" fill="#fff"/></g><g transform="translate(6.353 17.531)"><path d="M-172.568,26.549h.172a.5.5,0,0,0,.165-.025.341.341,0,0,0,.117-.068.277.277,0,0,0,.074-.1.341.341,0,0,0,.024-.13.349.349,0,0,0-.082-.249.334.334,0,0,0-.251-.085.414.414,0,0,0-.141.023.312.312,0,0,0-.108.065.3.3,0,0,0-.074.1.354.354,0,0,0-.025.136h-.242a.518.518,0,0,1,.042-.205.5.5,0,0,1,.119-.167.587.587,0,0,1,.185-.112.683.683,0,0,1,.24-.041.777.777,0,0,1,.236.035.49.49,0,0,1,.181.1.453.453,0,0,1,.117.168.605.605,0,0,1,.042.234.413.413,0,0,1-.018.112.485.485,0,0,1-.054.116.469.469,0,0,1-.093.105.508.508,0,0,1-.136.082.489.489,0,0,1,.158.08.431.431,0,0,1,.1.109.4.4,0,0,1,.054.127.594.594,0,0,1,.016.13.588.588,0,0,1-.046.239.493.493,0,0,1-.127.174.551.551,0,0,1-.191.108.736.736,0,0,1-.239.038.744.744,0,0,1-.234-.035.549.549,0,0,1-.192-.1.472.472,0,0,1-.13-.166.519.519,0,0,1-.048-.225h.243a.357.357,0,0,0,.025.136.29.29,0,0,0,.074.1.311.311,0,0,0,.113.067.435.435,0,0,0,.147.024.476.476,0,0,0,.147-.021.285.285,0,0,0,.186-.177.448.448,0,0,0,.025-.156.381.381,0,0,0-.029-.154.287.287,0,0,0-.082-.108.357.357,0,0,0-.127-.063.643.643,0,0,0-.168-.02h-.172Z" transform="translate(172.956 -25.689)" fill="#fff"/></g><g transform="translate(6.667 1.598)"><rect width="0.58" height="2.411" fill="#fff"/></g></g><g transform="translate(31.082 9.053)"><g transform="translate(0.804 8.478)"><rect width="19.016" height="3.291" rx="1.645" fill="#e79a5e"/></g><g transform="translate(0.804 6.412)"><path d="M-144.12,22.884h15.393a1.041,1.041,0,0,1,1.041,1.041h0a1.041,1.041,0,0,1-1.041,1.041H-144.12a1.041,1.041,0,0,1-1.041-1.041h0A1.041,1.041,0,0,1-144.12,22.884Z" transform="translate(145.161 -22.884)" fill="#88a0f1"/></g><g transform="translate(0 4.269)"><path d="M-145.18,19.974h16.873a1.071,1.071,0,0,1,1.072,1.072h0a1.071,1.071,0,0,1-1.072,1.071H-145.18a1.071,1.071,0,0,1-1.072-1.071h0A1.071,1.071,0,0,1-145.18,19.974Z" transform="translate(146.252 -19.974)" fill="#f0c63d"/></g><g transform="translate(1.607)"><rect width="19.016" height="4.269" rx="2.134" fill="#6860b9"/></g><g transform="translate(0.804 10.972)"><rect width="19.016" height="0.285" fill="#fff"/></g><g transform="translate(1.704 7.195)"><path d="M-143.867,24.64a.072.072,0,0,1-.046-.017.073.073,0,0,1-.008-.1l.331-.387a.427.427,0,0,1,.6-.048l.049.043a.284.284,0,0,0,.4-.032.426.426,0,0,1,.6-.048l.506.43a.074.074,0,0,1-.019.1.074.074,0,0,1-.073.006l-.506-.43a.274.274,0,0,0-.206-.067.281.281,0,0,0-.193.1.426.426,0,0,1-.6.048h0l-.049-.043a.273.273,0,0,0-.206-.066.28.28,0,0,0-.193.1l-.33.388A.072.072,0,0,1-143.867,24.64Z" transform="translate(143.938 -23.948)" fill="#fff"/></g></g></g><g transform="translate(48.299 10.045)"><path d="M-120.749,16.587a1.063,1.063,0,0,1-1.062,1.063,1.063,1.063,0,0,1-1.063-1.062,1.062,1.062,0,0,1,1.062-1.063h0A1.063,1.063,0,0,1-120.749,16.587Z" transform="translate(122.875 -15.525)" fill="#fff"/></g></g><g transform="translate(49.581 137.163)"><g transform="translate(62.876 0.508)"><g transform="translate(0 0.877)"><path d="M-121.047,145.7s-3.224-3.968-13.89-2.232l-11,8.6s13.146-.248,14.882,3.472c0,0,4.63-3.72,17.031,3.059l7.606-9.922A23.468,23.468,0,0,0-121.047,145.7Z" transform="translate(145.933 -143.032)" fill="#9aa1fb"/></g><path d="M-121.047,144.513s-3.224-3.969-13.89-2.232l-11,8.6s13.146-.247,14.882,3.473c0,0,4.63-3.72,17.031,3.059l7.606-9.922A23.468,23.468,0,0,0-121.047,144.513Z" transform="translate(145.933 -141.841)" fill="#e8edfb"/><g transform="translate(14.739 2.53)"><path d="M-125.778,155.4a.152.152,0,0,1-.051-.01.142.142,0,0,1-.082-.183h0c.663-1.749,9.661-9.563,10.044-9.9a.143.143,0,0,1,.2.014.143.143,0,0,1-.015.2c-.093.08-9.323,8.1-9.965,9.781A.141.141,0,0,1-125.778,155.4Z" transform="translate(125.921 -145.276)" fill="#c6cafc"/></g><g transform="translate(19.202 10.192)"><path d="M-113.135,156.978a.153.153,0,0,1-.055-.011A15.3,15.3,0,0,0-119.7,156a.143.143,0,0,1-.156-.127.142.142,0,0,1,.127-.156h0a15.611,15.611,0,0,1,6.651.985.142.142,0,0,1,.079.185.142.142,0,0,1-.133.089Z" transform="translate(119.86 -155.68)" fill="#fff"/></g><g transform="translate(24.744 9.694)"><path d="M-106.423,157.386a.157.157,0,0,1-.079-.024,14.367,14.367,0,0,0-5.706-2.074.143.143,0,0,1-.127-.157.143.143,0,0,1,.157-.127,14.67,14.67,0,0,1,5.834,2.12.143.143,0,0,1,.039.2.145.145,0,0,1-.118.063Z" transform="translate(112.336 -155.004)" fill="#fff"/></g><g transform="translate(22.273 7.597)"><path d="M-110.192,153.759a.144.144,0,0,1-.074-.02c-1.762-1.044-5.257-1.294-5.292-1.3a.147.147,0,0,1-.133-.152.142.142,0,0,1,.151-.133h0a15.444,15.444,0,0,1,5.418,1.336.143.143,0,0,1,.048.2.143.143,0,0,1-.122.068Z" transform="translate(115.691 -152.157)" fill="#fff"/></g><g transform="translate(25.559 6.791)"><path d="M-105.73,152.663a.138.138,0,0,1-.074-.019c-1.762-1.044-5.258-1.295-5.293-1.3a.142.142,0,0,1-.132-.152.147.147,0,0,1,.152-.133,15.444,15.444,0,0,1,5.418,1.336.143.143,0,0,1,.048.2.143.143,0,0,1-.122.068Z" transform="translate(111.229 -151.062)" fill="#fff"/></g></g><g transform="translate(105.781 8.565)"><g transform="translate(1.4)"><path d="M-65.186,154.678l-20.148,4.748-.441-1.871,20.148-4.749a.963.963,0,0,1,1.157.715A.963.963,0,0,1-65.186,154.678Z" transform="translate(85.775 -152.78)" fill="#9aa1fb"/></g><g transform="translate(0 4.775)"><path d="M-85.835,161.135l-1.841-.553,1.4-1.318Z" transform="translate(87.676 -159.264)" fill="#e8edfb"/></g><g transform="translate(0 5.485)"><path d="M-86.826,161.091l-.2-.864-.647.609Z" transform="translate(87.676 -160.227)" fill="#e17768"/></g><g transform="translate(21.443 0.032)"><path d="M-58.119,154.714l-.442-1.871.083-.019.442,1.871Z" transform="translate(58.561 -152.823)" fill="#fff"/></g><g transform="translate(21.07 0.118)"><path d="M-59.067,152.959l.083-.019.44,1.87-.083.02Z" transform="translate(59.067 -152.94)" fill="#fff"/></g></g><g transform="translate(0.815 2.712)"><g transform="translate(0.242)"><path d="M-217.231,153.638l-12.638-3.241,27.956-5.565,12.675,2.659Z" transform="translate(229.869 -144.833)" fill="#9aa1fb"/></g><g transform="translate(0 2.659)"><path d="M-230.2,151.625v3.224a.277.277,0,0,0,.208.268l12.535,3.2,28.13-5.829v-4.045l-27.994,6.147-12.533-3.232a.276.276,0,0,0-.337.2A.27.27,0,0,0-230.2,151.625Z" transform="translate(230.197 -148.443)" fill="#e8edfb"/><path d="M-217.386,155l28.06-6.117v-.437l-27.994,6.147-12.539-3.234a.27.27,0,0,0-.33.194.268.268,0,0,0-.009.068v3.235a.27.27,0,0,0,.2.262l12.539,3.2,28.13-5.829v-.678l-28.163,5.966-7.187-1.8c-.9-.221-1.792-.454-2.689-.676-.365-.091-.876-.159-1.35-.306a1.467,1.467,0,0,1-1.031-1.524c.01-.118.024-.234.043-.351a1.125,1.125,0,0,1,1.2-.94,9.963,9.963,0,0,1,1.73.356l3.977,1.044,3.749.986,1.217.32A1.457,1.457,0,0,0-217.386,155Z" transform="translate(230.198 -148.443)" fill="#9aa1fb"/></g></g><g transform="translate(0.169 0)"><path d="M-218.362,149.827l-12.713-3.221,28.031-5.454,12.675,2.531Z" transform="translate(231.075 -141.151)" fill="#e17768"/></g><g transform="translate(0.003 2.53)"><path d="M-231.3,147.768v2a.277.277,0,0,0,.208.268l12.534,3.2,28.13-5.829v-2.825l-27.994,6.147-12.533-3.233a.277.277,0,0,0-.337.2A.263.263,0,0,0-231.3,147.768Z" transform="translate(231.301 -144.586)" fill="#e8edfb"/></g><g transform="translate(0 2.534)"><path d="M-218.493,151.14l28.06-6.112v-.437l-27.994,6.147-12.539-3.234a.27.27,0,0,0-.33.194.263.263,0,0,0-.009.068v2.015a.272.272,0,0,0,.2.263l12.539,3.2,28.13-5.829v-.678L-218.6,152.7l-11.53-2.892a.832.832,0,0,1-.63-.81h0a.833.833,0,0,1,.833-.833.811.811,0,0,1,.211.027Z" transform="translate(231.305 -144.591)" fill="#e17768"/></g><g transform="translate(16.862 1.955)"><path d="M-201.708,146.9l-6.7-.857,6.379-2.236Zm-5.472-.987,5.151.659-.25-2.377Z" transform="translate(208.41 -143.806)" fill="#fff"/></g></g><g transform="translate(8.099)"><g transform="translate(32.87)"><g transform="translate(6.344 32.524)"><path d="M-228.561-.927s3.462,13.882.256,18.917a11.907,11.907,0,0,1-6.079,5.03s8.794,5.454,15.186,5.868c6.008.388,12.776-6.821,13.174-7.871,0,0-5.892-2.814-6.976-5.932a25.171,25.171,0,0,1-.968-7.439Z" transform="translate(234.384 0.927)" fill="#eebdb6"/></g><g transform="translate(13.071 37.043)"><path d="M-225.25,5.209s4.456,6.787,9.89,7.045a12.66,12.66,0,0,0,3.892-.387,22.13,22.13,0,0,0,.451,3.3S-222.452,19.85-225.25,5.209Z" transform="translate(225.25 -5.209)" fill="#e8a39a"/></g><g transform="translate(30.141 12.256)"><path d="M-200.308-28.447c2.374.51,4.429,3.145,5.168,5.327a10.483,10.483,0,0,1-2.553,11.091c-.728.656-1.523,1.343-2.3,1.921-.449-2.215-.189-4.8-.389-7.081-.212-2.426-.256-5.773-1.694-7.864A12.423,12.423,0,0,0-200.308-28.447Z" transform="translate(202.073 28.447)" fill="#162458"/></g><g transform="translate(10.26 11.562)"><path d="M-228.188-8.578A14.9,14.9,0,0,0-224.1-.513c2.483,2.5,6.883,6.066,11.627,3.267,6.532-3.856,6.739-19.935,5.39-25.363a7.978,7.978,0,0,0-2.072-3.693,9.75,9.75,0,0,0-9.831-2.7c-7.7,2.037-10.135,5.7-10.08,15.2Z" transform="translate(229.067 29.389)" fill="#eebdb6"/></g><g transform="translate(7.041 27.113)"><path d="M-229.571-7.431a2.028,2.028,0,0,0-2.831-.461,2.029,2.029,0,0,0-.41.393c-1.768,1.829.411,6.491,4.029,5.4Z" transform="translate(233.437 8.274)" fill="#eebdb6"/></g><g transform="translate(2.701 6.539)"><path d="M-232.019-14.954s22.5-8.436,21.894-15.54c0,0-9.587-9.777-19.526-3.756s-12.911,17.149-5.671,24.175c0,0,.714,4.037,5.253,2.7l-.609-1.962s-3.79-.447-4.208-2.993S-233.837-15.585-232.019-14.954Z" transform="translate(239.33 36.209)" fill="#162458"/></g><path d="M-239.825-44.19a7.061,7.061,0,0,1,9.568,2.81,7.061,7.061,0,0,1-2.067,9.756,7.06,7.06,0,0,1-9.568-2.81A7.062,7.062,0,0,1-239.825-44.19Z" transform="translate(242.998 45.088)" fill="#162458"/><g transform="translate(9.934 25.143)"><path d="M-229.411-8.7s-1.159,10.911,4.5,16.03c0,0-5.55-11.71-.98-18.275Z" transform="translate(229.509 10.948)" fill="#162458"/></g><g transform="translate(18.873 29.365)"><path d="M-216.188-4.337c.009.491-.25.892-.577.9s-.6-.387-.608-.878.25-.893.577-.9S-216.2-4.829-216.188-4.337Z" transform="translate(217.372 5.216)" fill="#162458"/></g><g transform="translate(26.16 28.978)"><path d="M-206.293-4.864c.009.491-.25.893-.577.9s-.6-.387-.608-.878.25-.892.577-.9S-206.3-5.358-206.293-4.864Z" transform="translate(207.477 5.742)" fill="#162458"/></g><g transform="translate(25.697 25.78)"><path d="M-208.106-9.41a1.583,1.583,0,0,1,.921-.613,1.929,1.929,0,0,1,1.157.063,2.329,2.329,0,0,1,.92.663,2.371,2.371,0,0,1,.516.962c-.288-.227-.546-.442-.818-.632a3.87,3.87,0,0,0-.819-.459,2.452,2.452,0,0,0-.891-.154A3.141,3.141,0,0,0-208.106-9.41Z" transform="translate(208.106 10.084)" fill="#bf6b4e"/></g><g transform="translate(16.938 26.211)"><path d="M-216.623-8.967a3.1,3.1,0,0,0-1-.065,2.439,2.439,0,0,0-.869.248,3.8,3.8,0,0,0-.766.544c-.249.216-.483.46-.745.716a2.362,2.362,0,0,1,.408-1.011,2.321,2.321,0,0,1,.844-.756,1.926,1.926,0,0,1,1.144-.187A1.58,1.58,0,0,1-216.623-8.967Z" transform="translate(219.999 9.499)" fill="#bf6b4e"/></g><g transform="translate(22.953 29.954)"><path d="M-210.776,3.071a.2.2,0,0,1-.2-.2.2.2,0,0,1,.081-.16c.239-.177.855-.736.826-1.193a.662.662,0,0,0-.405-.506c-1.407-.787-1.366-4.781-1.357-5.233a.2.2,0,0,1,.2-.2.2.2,0,0,1,.2.2c-.024,1.164.138,4.309,1.153,4.877a1.032,1.032,0,0,1,.608.829c.047.755-.884,1.46-.988,1.539A.208.208,0,0,1-210.776,3.071Z" transform="translate(211.833 4.417)" fill="#e27d70"/></g><g transform="translate(20.461 38.458)"><path d="M-212.533,9.267A3.471,3.471,0,0,1-215.2,7.416a.2.2,0,0,1,.1-.266.2.2,0,0,1,.259.082c.048.092,1.191,2.24,3.132,1.467a.2.2,0,0,1,.245.14.2.2,0,0,1-.1.228A2.6,2.6,0,0,1-212.533,9.267Z" transform="translate(215.216 -7.131)" fill="#e27d70"/></g><g transform="translate(26.583 14.632)"><path d="M-206.9-22.052s4,10.558,7.807,9.451c0,0,.058-11.243-3.308-12.618Z" transform="translate(206.903 25.22)" fill="#162458"/></g></g><g transform="translate(21.006 53.884)"><path d="M-238.419,29.447s7.679,5.58,17.106,2.833c7.519-2.191,7.66-4.2,7.66-4.2s7.87.074,11.715,3.083c3.5,2.736,9.78,19.885,14.266,26.546a24.227,24.227,0,0,1,2.888,6.6c.65,2.226,1.024,4.768.119,6.419-1.923,3.5-4.806,3.5-8.171,2s-6.729-5.509-6.729-5.509-.158,21.841.481,26.542c.51,3.756,1.2,14.523,1.2,14.523H-243.3s5.675-12.565,8.8-20.548c1.413-3.614-9.76-30.028-9.76-30.028s-1.442,19.03-2.884,22.537-2.884,7.513-5.768,7.513-6.2-7.117-6.169-11.276c.011-1.473,0-4.2-.019-6.875a64.186,64.186,0,0,1,2.622-18.766c1.815-6.091,4.579-12.987,8.372-16.207C-242.492,29.858-238.419,29.447-238.419,29.447Z" transform="translate(259.107 -28.076)" fill="#5fa7fb"/></g><g transform="translate(35.583 75.859)"><path d="M-239.048,65.71a.142.142,0,0,1-.142-.13c-.02-.226-.473-5.57.494-7.586a.142.142,0,0,1,.19-.066.142.142,0,0,1,.067.189h0c-.934,1.946-.472,7.383-.467,7.439a.142.142,0,0,1-.13.154h-.013Z" transform="translate(239.313 -57.913)" fill="#848beb"/></g><g transform="translate(75.242 66.981)"><path d="M-180.5,56.317a.14.14,0,0,1-.118-.062c-.178-.259-4.367-6.376-4.846-10.248a.143.143,0,0,1,.136-.149.143.143,0,0,1,.147.114c.471,3.8,4.755,10.058,4.8,10.122a.143.143,0,0,1-.037.2A.141.141,0,0,1-180.5,56.317Z" transform="translate(185.465 -45.859)" fill="#848beb"/></g><g transform="translate(56.295 53.884)"><path d="M-211.191,32.829s7.913-1.41,10.169-4.753C-201.022,28.076-192.623,37.707-211.191,32.829Z" transform="translate(211.191 -28.076)" fill="#e8edfb"/></g><g transform="translate(41.644 55.254)"><path d="M-231.034,29.936a22.412,22.412,0,0,0,14.6,3.383S-232.078,42.586-231.034,29.936Z" transform="translate(231.084 -29.936)" fill="#e8edfb"/></g><g transform="translate(0 45.079)"><g transform="translate(0 1.574)"><path d="M-235.512,46.55a209.6,209.6,0,0,0-50.818,3.57q-.547-15.581-1.1-31.357c16.933-.362,33.879-.359,50.814-.242Q-236.061,32.515-235.512,46.55Z" transform="translate(287.575 -18.308)" fill="#fff"/><path d="M-286.521,50.241l-.006-.167q-.546-15.581-1.1-31.357l-.005-.147h.147c18.66-.4,36.96-.338,50.818-.242h.136l.005.136q.551,13.993,1.1,28.029l.006.155-.155-.007a210.018,210.018,0,0,0-50.788,3.565Zm-.81-31.39q.545,15.619,1.085,31.045a210.243,210.243,0,0,1,50.534-3.547q-.542-13.89-1.089-27.737c-13.806-.1-31.985-.154-50.531.24Z" transform="translate(287.628 -18.257)" fill="#615e78"/></g><g transform="translate(1.926 0)"><path d="M-260.294,44.485a211.753,211.753,0,0,0-23.434,2.8q-.541-15.345-1.085-30.872,9.729-.1,19.462-.1a4.064,4.064,0,0,1,4.109,3.776Q-260.765,32.315-260.294,44.485Z" transform="translate(284.96 -16.17)" fill="#fff"/><path d="M-283.917,47.406l-.006-.164q-.54-15.344-1.085-30.871l-.005-.147h.147c6.022-.061,12.389-.094,19.463-.1a4.211,4.211,0,0,1,4.251,3.913q.474,12.225.949,24.394l.005.138-.138.01a212.579,212.579,0,0,0-23.42,2.8Zm-.8-30.9q.538,15.372,1.074,30.564A212.941,212.941,0,0,1-260.495,44.3q-.472-12.1-.943-24.256A3.923,3.923,0,0,0-265.4,16.41C-272.42,16.413-278.74,16.446-284.718,16.506Z" transform="translate(285.013 -16.121)" fill="#615e78"/></g><g transform="translate(25.451 0.002)"><path d="M-251.927,44.49a231.512,231.512,0,0,1,23.43-.3q-.549-13.92-1.1-27.8-9.73-.048-19.461-.068a3.689,3.689,0,0,0-3.814,3.559c0,.072,0,.144,0,.215Q-252.4,32.319-251.927,44.49Z" transform="translate(253.021 -16.174)" fill="#fff"/><path d="M-252.114,44.59l-.006-.147q-.475-12.172-.949-24.4a3.677,3.677,0,0,1,1.038-2.717,3.989,3.989,0,0,1,2.908-1.2h.013c6.947.01,13.736.041,19.462.068h.136l.005.136q.551,13.884,1.1,27.8l.007.153-.154,0a232.08,232.08,0,0,0-23.415.3Zm2.992-28.18a3.707,3.707,0,0,0-2.7,1.118,3.394,3.394,0,0,0-.957,2.508q.471,12.152.943,24.251c7.56-.482,15.345-.583,23.145-.3q-.544-13.773-1.089-27.511c-5.7-.028-12.433-.057-19.324-.068Z" transform="translate(253.071 -16.124)" fill="#615e78"/></g><g transform="translate(5.39 3.967)"><path d="M-263.989,23.415q-8.125.147-16.246.465-.036-1.02-.074-2.039,8.121-.239,16.246-.335Q-264.022,22.461-263.989,23.415Z" transform="translate(280.309 -21.507)" fill="#e17768"/></g><g transform="translate(5.521 7.553)"><path d="M-280.117,27.149l-.014-.284c4.1-.2,8.335-.368,12.583-.488l.008.285C-271.786,26.783-276.018,26.947-280.117,27.149Z" transform="translate(280.131 -26.376)" fill="#615e78"/></g><g transform="translate(5.578 9.038)"><path d="M-280.038,29.318l-.016-.284c4.767-.274,9.7-.49,14.665-.641l.009.285C-270.341,28.827-275.273,29.045-280.038,29.318Z" transform="translate(280.054 -28.392)" fill="#615e78"/></g><g transform="translate(5.636 10.892)"><path d="M-279.957,31.619l-.019-.284c2.411-.158,4.877-.3,7.331-.424l.014.285C-275.083,31.317-277.549,31.46-279.957,31.619Z" transform="translate(279.976 -30.91)" fill="#615e78"/></g><g transform="translate(5.692 12.178)"><path d="M-279.878,33.715l-.021-.284c4.335-.322,8.8-.583,13.279-.776l.013.285C-271.081,33.134-275.546,33.395-279.878,33.715Z" transform="translate(279.899 -32.656)" fill="#615e78"/></g><g transform="translate(5.749 13.636)"><path d="M-279.8,35.872l-.024-.285c4.944-.407,10.046-.726,15.164-.951l.013.284C-269.76,35.145-274.858,35.465-279.8,35.872Z" transform="translate(279.822 -34.636)" fill="#615e78"/></g><g transform="translate(5.806 15.707)"><path d="M-279.718,38.247l-.026-.284c2.07-.188,4.186-.36,6.29-.516l.021.285C-275.536,37.888-277.65,38.06-279.718,38.247Z" transform="translate(279.744 -37.448)" fill="#615e78"/></g><g transform="translate(5.863 17.296)"><path d="M-279.639,40.448l-.028-.284c2.069-.2,4.185-.393,6.29-.56l.023.285C-275.457,40.056-277.572,40.244-279.639,40.448Z" transform="translate(279.667 -39.605)" fill="#615e78"/></g><g transform="translate(5.92 18.471)"><path d="M-279.566,42.41q5.79-.619,11.59-1.016Z" transform="translate(279.584 -41.251)" fill="#fff"/><path d="M-279.56,42.5l-.03-.284c3.8-.406,7.7-.748,11.6-1.016l.019.286C-271.865,41.752-275.763,42.094-279.56,42.5Z" transform="translate(279.59 -41.2)" fill="#615e78"/></g><g transform="translate(5.977 20.512)"><path d="M-279.49,44.77q2.894-.333,5.792-.606Z" transform="translate(279.506 -44.022)" fill="#fff"/><path d="M-279.48,44.861l-.032-.284c1.915-.221,3.862-.424,5.795-.606l.026.284C-275.621,44.44-277.569,44.641-279.48,44.861Z" transform="translate(279.512 -43.971)" fill="#615e78"/></g><g transform="translate(6.034 21.412)"><path d="M-279.415,46.723q6.877-.846,13.772-1.336Z" transform="translate(279.43 -45.244)" fill="#fff"/><path d="M-279.4,46.813l-.035-.283c4.512-.556,9.148-1.006,13.778-1.337l.021.284C-270.261,45.809-274.893,46.258-279.4,46.813Z" transform="translate(279.435 -45.193)" fill="#615e78"/></g><g transform="translate(6.091 23.126)"><path d="M-279.333,48.966q5.788-.76,11.59-1.252Z" transform="translate(279.351 -47.572)" fill="#fff"/><path d="M-279.321,49.056l-.037-.283c3.807-.5,7.709-.921,11.6-1.252l.024.284C-271.621,48.137-275.518,48.557-279.321,49.056Z" transform="translate(279.358 -47.521)" fill="#615e78"/></g><g transform="translate(31.004 9.273)"><g transform="translate(3.198)"><path d="M-240.976,29.2q.215,5.408.431,10.811,5.167-.1,10.326-.03C-233.8,36.342-237.39,32.779-240.976,29.2Z" transform="translate(241.133 -28.842)" fill="#fff"/><path d="M-240.738,40.025l-.451-11.313,1.859,1.853c3,2.992,6.106,6.086,9.156,9.186l.243.247-.347,0c-3.456-.046-6.929-.035-10.32.029Zm-.138-10.6.411,10.311c3.241-.061,6.547-.074,9.844-.031-2.971-3.02-5.989-6.024-8.912-8.937Z" transform="translate(241.189 -28.712)" fill="#615e78"/></g><g transform="translate(0 5.616)"><path d="M-244.429,37.939a.287.287,0,0,1-.028-.074c-.007-.029-.013-.06-.019-.092a.692.692,0,0,1-.088.074.7.7,0,0,1-.108.066.6.6,0,0,1-.127.045.714.714,0,0,1-.147.019.7.7,0,0,1-.235-.031.588.588,0,0,1-.182-.1.447.447,0,0,1-.12-.147.436.436,0,0,1-.047-.182.46.46,0,0,1,.043-.226.457.457,0,0,1,.147-.166.735.735,0,0,1,.233-.105,1.335,1.335,0,0,1,.31-.04l.285-.006-.005-.124a.293.293,0,0,0-.1-.22.379.379,0,0,0-.268-.078.478.478,0,0,0-.147.024.373.373,0,0,0-.112.057.25.25,0,0,0-.074.081.185.185,0,0,0-.023.1l-.288.007a.334.334,0,0,1,.041-.169.485.485,0,0,1,.128-.153.723.723,0,0,1,.205-.112.823.823,0,0,1,.273-.047.884.884,0,0,1,.253.027.559.559,0,0,1,.2.1.473.473,0,0,1,.135.163.545.545,0,0,1,.056.231q.014.368.029.731a.989.989,0,0,0,.021.168.578.578,0,0,0,.05.151v.024Zm-.484-.194a.5.5,0,0,0,.147-.024.537.537,0,0,0,.122-.057.434.434,0,0,0,.094-.074.352.352,0,0,0,.06-.089l-.013-.323-.239.005a.792.792,0,0,0-.376.08.229.229,0,0,0-.124.221.283.283,0,0,0,.024.107.23.23,0,0,0,.065.083.323.323,0,0,0,.1.055.41.41,0,0,0,.137.017Z" transform="translate(245.531 -36.337)" fill="#9aa1fb"/></g><g transform="translate(7.297 12.761)"><path d="M-234.147,47.489a1.072,1.072,0,0,1-.03.317.747.747,0,0,1-.117.253.562.562,0,0,1-.2.166.6.6,0,0,1-.273.061.717.717,0,0,1-.289-.052.582.582,0,0,1-.211-.154l-.007.181h-.264q-.044-1.11-.089-2.223h.286l.033.829a.534.534,0,0,1,.2-.147.729.729,0,0,1,.557,0,.6.6,0,0,1,.211.162.778.778,0,0,1,.136.251,1.194,1.194,0,0,1,.057.326Zm-.288-.029a1.019,1.019,0,0,0-.032-.221.553.553,0,0,0-.082-.181.4.4,0,0,0-.14-.123.426.426,0,0,0-.206-.044.509.509,0,0,0-.141.02.42.42,0,0,0-.112.052.376.376,0,0,0-.085.079.524.524,0,0,0-.06.1c.01.226.018.451.027.678a.681.681,0,0,0,.069.1.417.417,0,0,0,.091.074.449.449,0,0,0,.116.051.522.522,0,0,0,.144.018.4.4,0,0,0,.2-.046.368.368,0,0,0,.13-.122.508.508,0,0,0,.074-.18.929.929,0,0,0,.016-.221Z" transform="translate(235.624 -46.039)" fill="#93cd90"/></g><g transform="translate(9.664 3.521)"><path d="M-231.645,34.9a.434.434,0,0,0,.147-.023.41.41,0,0,0,.121-.063.32.32,0,0,0,.082-.1.282.282,0,0,0,.035-.121h.271a.438.438,0,0,1-.053.2.555.555,0,0,1-.138.166.671.671,0,0,1-.2.113.722.722,0,0,1-.25.043.838.838,0,0,1-.331-.064.71.71,0,0,1-.24-.17.756.756,0,0,1-.147-.249.988.988,0,0,1-.057-.3v-.061a.958.958,0,0,1,.034-.3.672.672,0,0,1,.129-.248.622.622,0,0,1,.225-.169.772.772,0,0,1,.326-.062.8.8,0,0,1,.269.044.687.687,0,0,1,.212.12.592.592,0,0,1,.147.18.616.616,0,0,1,.065.221h-.271a.386.386,0,0,0-.041-.136.38.38,0,0,0-.086-.11.409.409,0,0,0-.124-.074.433.433,0,0,0-.158-.028.426.426,0,0,0-.221.049.379.379,0,0,0-.136.129.509.509,0,0,0-.068.181.924.924,0,0,0-.013.2v.061a1,1,0,0,0,.03.2.552.552,0,0,0,.082.181.425.425,0,0,0,.147.128A.47.47,0,0,0-231.645,34.9Z" transform="translate(232.409 -33.493)" fill="#bf6b4e"/></g></g><g transform="translate(31.666 3.548)"><g transform="translate(0 0.701)"><g transform="translate(0 0.647)"><path d="M-243.531,24.363a.287.287,0,0,1-.028-.074c-.007-.029-.013-.06-.019-.092a.594.594,0,0,1-.088.074.587.587,0,0,1-.108.063.6.6,0,0,1-.127.043.664.664,0,0,1-.147.016.685.685,0,0,1-.234-.035.577.577,0,0,1-.182-.1.456.456,0,0,1-.119-.148.426.426,0,0,1-.048-.183.446.446,0,0,1,.044-.22.428.428,0,0,1,.147-.164.732.732,0,0,1,.233-.1,1.371,1.371,0,0,1,.31-.035h.285a.993.993,0,0,0-.005-.124.3.3,0,0,0-.1-.22.384.384,0,0,0-.268-.082.455.455,0,0,0-.147.021.356.356,0,0,0-.111.055.246.246,0,0,0-.074.08.185.185,0,0,0-.023.1h-.288a.331.331,0,0,1,.04-.168.468.468,0,0,1,.128-.148.715.715,0,0,1,.206-.109.861.861,0,0,1,.273-.043.943.943,0,0,1,.253.032.568.568,0,0,1,.2.1.479.479,0,0,1,.135.165.548.548,0,0,1,.056.231q.014.369.029.731a1,1,0,0,0,.021.169.6.6,0,0,0,.05.152v.023Zm-.483-.2a.5.5,0,0,0,.147-.021.6.6,0,0,0,.122-.055.413.413,0,0,0,.094-.074.329.329,0,0,0,.061-.088l-.013-.323h-.239a.8.8,0,0,0-.376.074.225.225,0,0,0-.124.221.282.282,0,0,0,.024.107.241.241,0,0,0,.064.085.313.313,0,0,0,.1.056.407.407,0,0,0,.136.017Z" transform="translate(244.632 -22.768)" fill="#9aa1fb"/></g><g transform="translate(2.435 0.479)"><path d="M-240.41,23.158h.628l.01.255h-.628l.027.667h-.288l-.027-.668h-.628l-.01-.255h.628l-.024-.616h.288Z" transform="translate(241.326 -22.54)"/></g><g transform="translate(5.069)"><path d="M-236.273,23.348a1.1,1.1,0,0,1-.031.318.728.728,0,0,1-.116.252.56.56,0,0,1-.2.166.606.606,0,0,1-.273.06.707.707,0,0,1-.289-.055.586.586,0,0,1-.211-.155l-.007.181h-.263l-.089-2.226h.286l.033.83a.54.54,0,0,1,.2-.147.666.666,0,0,1,.275-.052.66.66,0,0,1,.281.058.608.608,0,0,1,.211.163.789.789,0,0,1,.136.252,1.2,1.2,0,0,1,.057.326Zm-.288-.03a1.019,1.019,0,0,0-.032-.221.575.575,0,0,0-.082-.183.4.4,0,0,0-.141-.123.427.427,0,0,0-.206-.046.481.481,0,0,0-.141.018.42.42,0,0,0-.112.052.371.371,0,0,0-.085.078.484.484,0,0,0-.06.1q.013.338.027.678a.589.589,0,0,0,.07.1.42.42,0,0,0,.091.078.454.454,0,0,0,.116.052.491.491,0,0,0,.143.018.4.4,0,0,0,.2-.046.373.373,0,0,0,.13-.122.508.508,0,0,0,.074-.18.924.924,0,0,0,.016-.221Z" transform="translate(237.75 -21.889)" fill="#93cd90"/></g><g transform="translate(7.684 0.818)"><path d="M-232.9,23.233h-1.291L-234.2,23h1.291Zm.024.6h-1.291l-.01-.231h1.29Z" transform="translate(234.199 -23)"/></g><g transform="translate(10.145 0.642)"><path d="M-230.093,24.164a.456.456,0,0,0,.147-.023.391.391,0,0,0,.121-.062.32.32,0,0,0,.082-.1.282.282,0,0,0,.035-.121h.271a.429.429,0,0,1-.053.2.563.563,0,0,1-.138.166.656.656,0,0,1-.2.113.707.707,0,0,1-.25.043.825.825,0,0,1-.331-.064.712.712,0,0,1-.24-.171.756.756,0,0,1-.147-.249.992.992,0,0,1-.057-.3v-.061a.953.953,0,0,1,.034-.3.672.672,0,0,1,.129-.248.62.62,0,0,1,.225-.169.76.76,0,0,1,.326-.061.778.778,0,0,1,.269.045.687.687,0,0,1,.212.12.566.566,0,0,1,.147.181.608.608,0,0,1,.065.221h-.271a.4.4,0,0,0-.042-.136.38.38,0,0,0-.085-.11.409.409,0,0,0-.124-.074.489.489,0,0,0-.377.02.379.379,0,0,0-.136.129.492.492,0,0,0-.068.18.924.924,0,0,0-.013.2V23.6a1,1,0,0,0,.03.2.551.551,0,0,0,.082.181.427.427,0,0,0,.147.129A.469.469,0,0,0-230.093,24.164Z" transform="translate(230.857 -22.76)" fill="#bf6b4e"/></g></g><g transform="translate(1.372)"><path d="M-241.98,22.014h-.736l0-.1.354-.387c.032-.035.06-.067.081-.094a.564.564,0,0,0,.05-.074.225.225,0,0,0,.03-.123.213.213,0,0,0-.016-.074.182.182,0,0,0-.041-.06.176.176,0,0,0-.063-.041.217.217,0,0,0-.084-.015.251.251,0,0,0-.1.016.183.183,0,0,0-.068.044.163.163,0,0,0-.039.068.248.248,0,0,0-.01.087h-.144a.322.322,0,0,1,.019-.127.277.277,0,0,1,.066-.1.318.318,0,0,1,.113-.074.431.431,0,0,1,.158-.026.453.453,0,0,1,.147.02.311.311,0,0,1,.109.057.264.264,0,0,1,.074.09.273.273,0,0,1,.028.116.288.288,0,0,1-.013.094.565.565,0,0,1-.042.094.712.712,0,0,1-.063.093c-.025.031-.051.061-.078.091l-.29.309h.566Z" transform="translate(242.769 -20.938)"/></g><g transform="translate(6.424 0.005)"><path d="M-235.12,22.013h-.736l0-.1.354-.383c.032-.035.06-.066.081-.093a.564.564,0,0,0,.05-.074.232.232,0,0,0,.025-.063.229.229,0,0,0,.005-.06.214.214,0,0,0-.016-.074.183.183,0,0,0-.04-.06.186.186,0,0,0-.063-.041.232.232,0,0,0-.084-.015.28.28,0,0,0-.1.015.183.183,0,0,0-.068.044.183.183,0,0,0-.039.068.265.265,0,0,0-.01.087h-.143a.333.333,0,0,1,.018-.126.271.271,0,0,1,.066-.1.313.313,0,0,1,.113-.069.447.447,0,0,1,.158-.027.5.5,0,0,1,.144.02.338.338,0,0,1,.109.058.271.271,0,0,1,.074.09.3.3,0,0,1,.028.116.287.287,0,0,1-.013.093.485.485,0,0,1-.042.094.732.732,0,0,1-.064.092c-.024.03-.05.061-.077.09l-.29.307h.566Z" transform="translate(235.91 -20.945)"/></g><g transform="translate(11.674 0.022)"><path d="M-227.992,22.037l-.736,0,0-.1.354-.382c.032-.035.06-.066.081-.092a.562.562,0,0,0,.05-.074.232.232,0,0,0,.025-.063.228.228,0,0,0,.005-.06.214.214,0,0,0-.016-.074.175.175,0,0,0-.041-.06.189.189,0,0,0-.063-.041.232.232,0,0,0-.084-.015.28.28,0,0,0-.1.015.183.183,0,0,0-.068.044.165.165,0,0,0-.039.068.247.247,0,0,0-.01.087h-.143a.329.329,0,0,1,.018-.125.274.274,0,0,1,.066-.1.313.313,0,0,1,.113-.069.446.446,0,0,1,.158-.026.523.523,0,0,1,.147.021.339.339,0,0,1,.109.058.279.279,0,0,1,.074.09.285.285,0,0,1,.027.115.247.247,0,0,1-.013.093.534.534,0,0,1-.042.094.657.657,0,0,1-.063.092c-.025.031-.051.061-.078.09l-.29.3h.566A.585.585,0,0,0-227.992,22.037Z" transform="translate(228.781 -20.968)"/></g></g></g><g transform="translate(19.179 69.973)"><path d="M-258.887,64.492s-2.9-5.435-2.69-6.8c.171-1.13,1.031-5.624,1.326-7.158a.746.746,0,0,1,.773-.608c.214.013.407.088.446.3.1.521-.432,4.912-.432,4.912l.334-.038s.925-4.6,1.537-4.83a.723.723,0,0,1,.963.346.723.723,0,0,1,.061.2c.1.488-.4,4.55-.4,4.55l.721.1.663-3.564a.837.837,0,0,1,.9-.695.572.572,0,0,1,.516.524,27.5,27.5,0,0,1-.193,4.32l.851.091s.169-3.151.657-3.53a.781.781,0,0,1,1.082.222.779.779,0,0,1,.127.372c.028.541-.032,5.524-.032,5.524s.147,4.359-.477,5.843Z" transform="translate(261.587 -49.921)" fill="#eebdb6"/></g><g transform="translate(21.741 84.369)"><path d="M-247.769,92.468a.143.143,0,0,1-.142-.132,71.966,71.966,0,0,0-1.694-10.114,58.867,58.867,0,0,1-1.768-12.358c-.925.006-1.841-.027-2.725-.057-1.326-.046-2.578-.087-3.863-.022a.147.147,0,0,1-.147-.135.142.142,0,0,1,.135-.147c1.3-.066,2.556-.024,3.887.021.927.032,1.888.064,2.858.056a.137.137,0,0,1,.1.041.14.14,0,0,1,.043.1,57.942,57.942,0,0,0,1.759,12.442,72.228,72.228,0,0,1,1.7,10.153.142.142,0,0,1-.132.153h-.014Z" transform="translate(258.108 -69.467)" fill="#848beb"/></g><g transform="translate(44.07 61.813)"><path d="M-205.879,46.765s-5.549-6.226-6.735-6.818c-1-.5-5.409-.968-6.735-1.1a.663.663,0,0,0-.732.586.655.655,0,0,0,.011.214,1.051,1.051,0,0,0,.116.278l-7.045-.81a.691.691,0,0,0-.759.53.589.589,0,0,0,.25.7c.529.295,5.8,1.21,7.291,1.465a.474.474,0,0,1,.393.468h0a.475.475,0,0,1-.474.476h-.037l-3.928-.295a.766.766,0,0,0-.756.442.9.9,0,0,0,.314,1.228l.043.024,4.411.377-.012.057a.475.475,0,0,1-.5.379l-2.8-.187a.811.811,0,0,0-.8.491.883.883,0,0,0,.35,1.2.937.937,0,0,0,.114.052,13.52,13.52,0,0,0,3.7.792l-.011.057a.475.475,0,0,1-.526.382l-1.536-.192a.557.557,0,0,0-.616.4c-.083.332-.021.776.7,1.08,1.281.544,4.032,1.729,5.787,1.729s6.023.3,7.019.89Z" transform="translate(227.79 -38.841)" fill="#eebdb6"/><g transform="translate(7.765 1.013)"><path d="M-212.483,41.006h-.01l-4.692-.648a.073.073,0,0,1-.06-.08.074.074,0,0,1,.08-.061l4.692.648a.074.074,0,0,1,.044.094.071.071,0,0,1-.054.047Z" transform="translate(217.246 -40.217)" fill="#e59185"/></g><g transform="translate(0.157 0.401)"><path d="M-226.848,40.5a.54.54,0,0,1-.091-.008l-.217-.04a.511.511,0,0,1-.412-.594h0l.009-.048a.511.511,0,0,1,.594-.412l.217.039a.516.516,0,0,1,.412.594l-.009.048A.511.511,0,0,1-226.848,40.5Zm-.208-.966a.369.369,0,0,0-.362.3l-.009.048a.369.369,0,0,0,.295.428l.217.039h0a.368.368,0,0,0,.428-.295l.009-.048a.368.368,0,0,0-.295-.428l-.217-.039a.334.334,0,0,0-.066-.009Z" transform="translate(227.576 -39.386)" fill="#e59185"/></g></g><g transform="translate(25.452 71.357)"><path d="M-252.509,53.042h-.084a.511.511,0,0,1-.475-.544h0l.015-.221a.508.508,0,0,1,.174-.351.517.517,0,0,1,.368-.124h.049a.511.511,0,0,1,.474.544l-.015.221A.515.515,0,0,1-252.509,53.042Zm-.416-.539a.368.368,0,0,0,.342.393h.049a.355.355,0,0,0,.267-.09.367.367,0,0,0,.125-.253l.015-.22a.369.369,0,0,0-.341-.394h-.049a.368.368,0,0,0-.393.342h0Z" transform="translate(253.07 -51.801)" fill="#e59185"/></g><g transform="translate(27.844 72.611)"><path d="M-249.261,54.745h-.084a.511.511,0,0,1-.475-.544h0l.015-.221a.509.509,0,0,1,.541-.475h.052a.512.512,0,0,1,.475.545h0l-.015.22A.511.511,0,0,1-249.261,54.745Zm-.416-.539h0a.368.368,0,0,0,.342.393h.049a.368.368,0,0,0,.393-.342l.015-.22a.369.369,0,0,0-.342-.393h-.049a.368.368,0,0,0-.393.342h0Z" transform="translate(249.822 -53.503)" fill="#e59185"/></g><g transform="translate(22.974 70.335)"><path d="M-255.874,51.655h-.084a.512.512,0,0,1-.475-.545h0l.016-.221a.51.51,0,0,1,.544-.475h.05a.516.516,0,0,1,.475.545l-.015.221a.511.511,0,0,1-.509.476Zm-.417-.539a.368.368,0,0,0,.342.393h.049a.358.358,0,0,0,.267-.09.364.364,0,0,0,.125-.252l.015-.22a.369.369,0,0,0-.342-.393h-.049a.368.368,0,0,0-.393.342h0Z" transform="translate(256.435 -50.412)" fill="#e59185"/></g><g transform="translate(20.646 70.059)"><path d="M-259.054,51.238h-.081a.5.5,0,0,1-.46-.527l.015-.211a.493.493,0,0,1,.168-.339.481.481,0,0,1,.359-.121h.046a.5.5,0,0,1,.46.527l-.015.211A.5.5,0,0,1-259.054,51.238Zm-.033-1.061a.352.352,0,0,0-.351.328l-.015.211h0a.352.352,0,0,0,.327.375h.047a.352.352,0,0,0,.375-.326h0l.014-.211a.352.352,0,0,0-.327-.375h-.071Zm-.437.534" transform="translate(259.596 -50.038)" fill="#e59185"/></g><g transform="translate(62.387 68.473)"><path d="M-184.753,72.582a.14.14,0,0,1-.1-.042l-18.025-18.215a.143.143,0,0,1-.015-.183l4.446-6.2a.144.144,0,0,1,.192-.038c.884.563,21.665,13.825,24.9,17.3a.142.142,0,0,1-.013.2.144.144,0,0,1-.2-.006c-3.093-3.319-23.033-16.1-24.733-17.182l-4.3,5.99,17.94,18.13a.141.141,0,0,1,0,.2.142.142,0,0,1-.1.043Z" transform="translate(202.92 -47.885)" fill="#848beb"/></g></g><g transform="translate(0 133.786)"><rect width="200.699" height="0.285" transform="translate(0 0)" fill="#9aa1fb"/></g></g></g></g></g></svg>