<svg xmlns="http://www.w3.org/2000/svg" width="174.226" height="122.887" viewBox="0 0 174.226 122.887"><defs><style>.a{fill:#edb38c;}.b{fill:#3a5cbc;}.c{fill:#fff;}.d{fill:#00adee;}.e{fill:#dce8fd;}.f{fill:#ffaf97;}.g{fill:#3a5cbe;}.h{fill:#162458;}.i{fill:#d54f1f;}.j{fill:#b0ccf4;}.k{fill:#ad4040;}.l{fill:#2d1e18;}.m{fill:#543024;}.n{fill:#cac4c4;}.o{fill:#8d2828;}</style></defs><g transform="translate(-1145.071 -2289.73)"><g transform="translate(1233.123 2375.887)"><path class="a" d="M1477.528,2608.676l1.033,3.343s7.88,1.013,10.541,4.109c0,0,.537.841-.574.807,0,0,.034.81-1.145.236a12.421,12.421,0,0,0-3.467-.841s3.038.942,3.906,2.087c0,0,.675,1.55-2.289.2,0,0-6.229-1.887-8.721-1.887a33.146,33.146,0,0,0,3.5,2.438s1.549,1.536-1.111,1.013c0,0-4.649-1.178-5.739-3.065a12.854,12.854,0,0,1-.638-3.5l-1.792-3.68Z" transform="translate(-1471.032 -2608.676)"/></g><g transform="translate(1171.241 2359.941)"><path class="b" d="M1267.157,2552.685c-1.168-.584-15.53-3.039-15.868-3.039s-9.339,2.745-9.339,2.745l3.981,46.552,15.023-.578,4.146-26.436,7.24,22.51,15.979,2.522-9.394-34.519-3.019-8.95Z" transform="translate(-1241.95 -2549.646)"/></g><g transform="translate(1167.76 2311.802)"><path class="c" d="M1276.124,2376.053s8.518.935,10.152,8.052c0,0,14.7,46.088,15.753,51.922l-6.752,2.451-15.284-31.736s11.317,51.571,3.039,53.556l-4.389.226-10.412-33.6-18.319-2.1s-1.4,32.9.817,39.674c0,0,.469,8.865-20.652-9.687,0,0,1.4-41.189,13.069-69.549,0,0,8.285-17.269,27.185-11.786Z" transform="translate(-1229.803 -2372.142)"/><path class="d" d="M1247.768,2466.18c-3.344,0-9.712-4.052-18.61-11.867l-.1-.084,0-.128c.014-.412,1.536-41.562,13.089-69.643a26.674,26.674,0,0,1,6.584-8.055c4.1-3.354,11.051-6.753,20.926-3.887l.035.012,5.757,2.56c.672.089,8.746,1.3,10.342,8.255.594,1.861,14.714,46.15,15.756,51.935l.04.224-7.2,2.612-14.42-29.941c.879,4.243,2.822,14.032,4.164,23.866,2.4,17.6,1.8,26.96-1.79,27.822l-.049.007-4.6.237-10.422-33.628-17.855-2.05c-.13,3.271-1.248,32.979.816,39.288l.013.07a2.317,2.317,0,0,1-1.221,2.138A2.885,2.885,0,0,1,1247.768,2466.18Zm-18.157-12.188c13.25,11.623,17.712,12.159,19.191,11.442a1.771,1.771,0,0,0,.917-1.592c-2.187-6.82-.875-38.388-.818-39.73l.013-.29,18.782,2.157.052.168,10.35,33.4,4.154-.214c2.243-.57,4.286-5.77,1.357-27.217-1.772-12.98-4.592-25.884-4.62-26.012l-.5-2.257,16.18,33.6,6.306-2.29c-1.338-6.613-15.557-51.209-15.7-51.665-1.577-6.865-9.841-7.856-9.924-7.865l-.08-.022-5.777-2.568c-9.641-2.791-16.423.521-20.416,3.791a26.093,26.093,0,0,0-6.433,7.857C1231.459,2411.876,1229.712,2451.438,1229.611,2453.992Z" transform="translate(-1229.062 -2371.439)"/></g><g transform="translate(1187.487 2313.225)"><path class="e" d="M1319.571,2376.707a87.718,87.718,0,0,1-5.257,10.628l2.8,24.015-2.8,5.973-8.42-4.858-1.438,4.166-2.363,11.006L1321,2429.76s.311-7.765,6.026-20.956c0,0,7.968-18.076,4.16-28.117C1331.195,2380.688,1327.673,2382.426,1319.571,2376.707Z" transform="translate(-1302.092 -2376.707)"/></g><g transform="translate(1191.888 2346.514)"><path class="f" d="M1324.664,2500.468l27.8-.527,9.568,2.1,4.51,2.768a.828.828,0,0,1,.317,1.05v.03a.827.827,0,0,1-1.1.4l-.062-.032-3.886-2.231-2.721-.223,2.84,1.387,1.853,3.616a.783.783,0,0,1-.336,1.056h0a.783.783,0,0,1-1.046-.338l-1.631-3.164-2.333-.466,1.776,1.519.071,2.924a.787.787,0,0,1-.766.807h-.021a.79.79,0,0,1-.787-.706l-.273-2.562-2.333-.817s-5.368,2.218-7.235-.932l-23.633,5.159c-1.624.355-2.458-.607-3.788-1.6-1.6-1.192-3.97-2.539-2.7-5.385A6.62,6.62,0,0,1,1324.664,2500.468Z" transform="translate(-1318.382 -2499.941)"/></g><g transform="translate(1211.724 2319.515)"><path class="d" d="M1392.3,2434.464l-.482-.244,7.549-14.877-1.62-3.73,3.124-3.065-2.193-12.46.532-.094,2.243,12.74-3.062,3,1.573,3.623Z" transform="translate(-1391.813 -2399.993)"/></g><g transform="translate(1190.245 2344.05)"><path class="c" d="M1324.569,2493.728l16.337-.446v7.468s-23.471,6.752-28.6-3.038c0,0,1.327-3.376,1.489-3.714s4.48-2.8,4.595-3.153S1324.569,2493.728,1324.569,2493.728Z" transform="translate(-1312.303 -2490.818)"/></g><g transform="translate(1173.278 2381.939)"><path class="b" d="M1254.345,2641.083a2.156,2.156,0,0,1-.326-.025c-2.019-.312-3.527-3.566-4.481-9.672l-.048-.305.257.173c.063.043,6.318,4.224,9.76,4.291l.008-.014.107.019,1.133.266h-1.081C1259.258,2636.635,1256.883,2641.083,1254.345,2641.083Zm-4.492-9.435c.935,5.78,2.35,8.856,4.207,9.143,2.362.361,4.8-4,5.312-4.98C1256.2,2635.665,1251.072,2632.441,1249.854,2631.648Z" transform="translate(-1249.491 -2631.081)"/></g><g transform="translate(1210.803 2301.493)"><ellipse class="c" cx="1.458" cy="1.81" rx="1.458" ry="1.81" transform="translate(0 0)"/></g><g transform="translate(1185.69 2330.875)"><path class="c" d="M1303.074,2458.631c5.834-.817,26.253-.935,26.253-.935v8.511s-17.718,4.727-20.828,3.488c-12.438-5.02-12.06-27.634-12.06-27.634" transform="translate(-1296.169 -2442.056)"/><path class="d" d="M1309.381,2470.153a4.965,4.965,0,0,1-1.711-.22c-5.172-2.087-8.926-7.582-10.857-15.889a55.852,55.852,0,0,1-1.372-12l.54.009c0,.224-.231,22.486,11.891,27.379.851.339,3.524.39,11.421-1.293,4.183-.891,8.118-1.911,9.036-2.153v-8.031c-2.442.018-20.56.177-25.945.931l-.075-.535c5.785-.81,26.085-.937,26.289-.938h.271v8.99l-.2.053C1328.029,2466.626,1314.738,2470.153,1309.381,2470.153Z" transform="translate(-1295.439 -2442.044)"/></g><g transform="translate(1213.216 2315.441)"><path class="g" d="M1397.974,2402.48a4.588,4.588,0,0,1-.26-4.182,7.669,7.669,0,0,1,1.08-1.945c3.091-5.792,2.822-8.44,2.05-9.642a3.112,3.112,0,0,0-2.624-1.259l-.035-.539a3.61,3.61,0,0,1,3.11,1.5c1.242,1.927.557,5.364-2.037,10.217l-.029.043c-.024.03-2.391,2.981-.8,5.52Z" transform="translate(-1397.337 -2384.909)"/></g><g transform="translate(1202.417 2311.767)"><path class="g" d="M1357.9,2388.674l-.485-.238c1.78-3.626.492-8.278.479-8.325-.892-3.608-.671-6.161.654-7.6a4.149,4.149,0,0,1,3.5-1.168l-.087.533a3.664,3.664,0,0,0-3.021,1.005c-1.191,1.3-1.368,3.679-.525,7.087C1358.473,2380.161,1359.774,2384.864,1357.9,2388.674Z" transform="translate(-1357.36 -2371.31)"/></g><g transform="translate(1204.966 2292.693)"><path class="f" d="M1375.844,2319.418s3.1,3.714,6.415,4.456a4.277,4.277,0,0,0,4.575-2.066c1.594-2.728,4.639-9.608.02-16.624l-6.922-4.485-5.754,9.117-2.318,5.227-5.064,6.314,4.261,3.781a5.77,5.77,0,0,0,5.638,1.236,3.427,3.427,0,0,0,1.88-1.327l1.172-3.865Z" transform="translate(-1366.796 -2300.699)"/></g><g transform="translate(1207.575 2289.73)"><path class="h" d="M1380.524,2303.4s1.668-1.322,1.962.6h1.151s-1.161-7.674,3.592-8.68c0,0,5.6-.338,7.829,3.93,0,0,4.8-7.907-.979-8.667,0,0-16.205-3.967-17.384,5.193,0,0-1.165,8.8,1.634,11.982l.635-.969Z" transform="translate(-1376.455 -2289.73)"/></g><g transform="translate(1212.747 2332.139)"><circle class="c" cx="2.303" cy="2.303" r="2.303" transform="translate(0.27 0.27)"/><path class="g" d="M1398.177,2451.868a2.573,2.573,0,1,1,2.573-2.573A2.576,2.576,0,0,1,1398.177,2451.868Zm0-4.6a2.032,2.032,0,1,0,2.032,2.032A2.035,2.035,0,0,0,1398.177,2447.263Z" transform="translate(-1395.604 -2446.723)"/></g><g transform="translate(1214.156 2333.61)"><circle class="g" cx="1.101" cy="1.101" r="1.101" transform="translate(0)"/></g><g transform="translate(1219.777 2303.046)"><ellipse class="h" cx="0.76" cy="0.932" rx="0.76" ry="0.932" transform="translate(0 0)"/></g><g transform="translate(1225.027 2302.698)"><ellipse class="h" cx="0.76" cy="0.932" rx="0.76" ry="0.932" transform="translate(0 0)"/></g><g transform="translate(1220.76 2309.189)"><path class="h" d="M1427.822,2363.442a2.6,2.6,0,0,1-2.558-1.592l.256-.085c.027.081.7,1.988,3.51,1.232l.07.261A4.919,4.919,0,0,1,1427.822,2363.442Z" transform="translate(-1425.264 -2361.765)"/></g><g transform="translate(1218.659 2301.309)"><path class="h" d="M1417.738,2334.031l-.251-.1a2.328,2.328,0,0,1,2.668-1.284l-.06.263A2.028,2.028,0,0,0,1417.738,2334.031Z" transform="translate(-1417.487 -2332.596)"/></g><g transform="translate(1224.954 2300.899)"><path class="h" d="M1442.765,2332.065a1.509,1.509,0,0,0-1.855-.57l-.119-.243a1.8,1.8,0,0,1,2.2.659Z" transform="translate(-1440.791 -2331.077)"/></g><g transform="translate(1198.745 2316.887)"><rect class="d" width="0.54" height="30.244" transform="translate(0 0.062) rotate(-6.641)"/></g><g transform="translate(1224.503 2304.521)"><path class="i" d="M1439.655,2347.395l-.044-.128c.422-.146.665-.368.721-.66.159-.837-1.2-2.008-1.209-2.02l.088-.1c.058.05,1.426,1.235,1.253,2.147A1.072,1.072,0,0,1,1439.655,2347.395Z" transform="translate(-1439.123 -2344.484)"/></g><g transform="translate(1210.976 2302.068)"><ellipse class="a" cx="1.372" cy="1.724" rx="1.372" ry="1.724" transform="translate(0)"/></g><g transform="translate(1145.071 2320.683)"><g transform="translate(0.353 66.158)"><path class="j" d="M1320.128,2652.458V2675H1146.743l-.363-21.667,50.354,6.491,116.973-10.6Z" transform="translate(-1146.379 -2649.228)"/></g><g transform="translate(0 49.52)"><path class="e" d="M1319.174,2608.312s.518-7.294-.573-8.168-47.193-12.475-48.406-12.509-120.212,13.031-123.18,14.006-1.677,7.621-1.59,7.768,48.441,15.746,51.405,15.746S1319.174,2608.312,1319.174,2608.312Z" transform="translate(-1145.071 -2587.635)"/></g><g transform="translate(92.229 32.348)"><path class="c" d="M1486.693,2553.242a45.887,45.887,0,0,0,5.222,0c.3,0,2.17-4.583,2.711-5.715s2.848-15.572,2.848-15.572l-7-7.888s0,.63-.006,1.68c-.014,3.686-.048,12.54-.065,17.3-.008,1.823-.012,3.048-.012,3.149a17.067,17.067,0,0,1-1.184,3.4,13.447,13.447,0,0,0-1.97,1.527C1486.5,2551.863,1486.3,2553.045,1486.693,2553.242Z" transform="translate(-1486.495 -2524.067)"/></g><g transform="translate(105.326 40.739)"><path class="c" d="M1549.473,2556.134s-1.33-1.626-4.928-.739-4.041,4.188-4.386,5.863,3.055,6.8,3.055,6.8-4.139.936-6.307,1.528-1.971,1.7-1.872,2.354.542,1.243,2.168,1.243,15.177-1.577,16.606-3.449a9.565,9.565,0,0,0,1.732-3.991Z" transform="translate(-1534.981 -2555.13)"/></g><g transform="translate(95.794 9.49)"><path class="c" d="M1502.722,2467.729a21.494,21.494,0,0,0,4.413,3.511c.381.247.766.494,1.152.75a22.787,22.787,0,0,1,3.848,3.082c.711.72,1.576,1.56,2.529,2.457.136.127.273.257.413.386,2.726,2.546,6.059,5.457,8.537,7.32a11.031,11.031,0,0,0,3.156,1.91c1.332.247,5.749,1.37,9.161.158a6.809,6.809,0,0,0,1.115-.505c.053-.03.1-.059.155-.09a6.21,6.21,0,0,0,.526-.359,5.723,5.723,0,0,0,1.687-2.083,6.809,6.809,0,0,0,.365-.915c.021-.065.041-.13.06-.2,1.948-6.442-1.758-13.043-4.594-16.214-1.019-1.138-3.961-3.665-6.679-5.942-2.518-2.11-4.843-4.006-5.27-4.389-.887-.8-7.983-7.555-8.352-8.22a49.124,49.124,0,0,1-1.354-5.2c-.191-.833-.321-1.426-.321-1.426l-1.983-.825-3.586-1.49-.8.92-.445.514-4.895,5.66s-1.026,5.019-1.322,7.8S1498.287,2462.95,1502.722,2467.729Z" transform="translate(-1499.694 -2439.447)"/></g><g transform="translate(99.904 37.92)"><path class="c" d="M1515.107,2568.3a46.311,46.311,0,0,0,5.224,0c.295,0,2.168-4.583,2.711-5.715.243-.511,1.209-3.47,2.195-6.565l0-.013h0c.176-.552.353-1.111.524-1.657,1.008-3.179,1.9-6.053,1.9-6.053l-8.075-3.6-.2,4.114c-.039.822-.083,1.717-.128,2.641l-.023.468c-.112,2.338-.229,4.792-.315,6.6-.072,1.555-.12,2.628-.12,2.739a17.106,17.106,0,0,1-1.182,3.4,13.573,13.573,0,0,0-1.972,1.528C1514.911,2566.917,1514.713,2568.1,1515.107,2568.3Z" transform="translate(-1514.908 -2544.693)"/></g><g transform="translate(112.96 44.8)"><path class="i" d="M1563.294,2586.976c.1.65.543,1.242,2.168,1.242a90,90,0,0,0,12.285-1.781c2.159-.5,3.862-1.067,4.321-1.667a9.311,9.311,0,0,0,1.357-2.564,8.576,8.576,0,0,0,.376-1.427l-6.069-9.608s-1.331-1.627-4.927-.74a5.2,5.2,0,0,0-3.488,2.784,7.6,7.6,0,0,0-.911,3.323,5.021,5.021,0,0,0,.493,1.928c.008.019.017.037.025.056.126.289.265.571.4.842.432.885.92,1.741,1.43,2.581a7.7,7.7,0,0,0,.72,1.15c-.036.008-.585.133-1.374.316-1.4.326-3.56.836-4.931,1.211C1563,2585.212,1563.2,2586.324,1563.294,2586.976Z" transform="translate(-1563.24 -2570.164)"/></g><g transform="translate(121.021 52.629)"><path class="c" d="M1593.107,2613.017c.344.138,3.073.148,7.223-.814q.444-.1.908-.22c4.656-1.183,12.317-2.268,10.79-7.223a8.732,8.732,0,0,0-4.03-5.045,6.678,6.678,0,0,0-1.218-.569l-1.221,1.794-.313.461-.979,1.44s.412.133.984.38l.108.046c.182.08.376.17.577.27,1.353.67,2.988,1.781,2.692,3.144-.4,1.838-6.642,2.852-9.474,3.631-.3.083-.563.162-.776.241C1596.16,2611.366,1592.738,2612.869,1593.107,2613.017Z" transform="translate(-1593.08 -2599.145)"/></g><g transform="translate(95.995 14.947)"><path class="c" d="M1505.814,2459.885a5.13,5.13,0,0,1-2.475,2.65,4.263,4.263,0,0,1-2.9,0l1.3-2.887Z" transform="translate(-1500.436 -2459.648)"/></g><g transform="translate(92.576 1.853)"><path class="i" d="M1492.407,2411.177a16.207,16.207,0,0,0-1.969,1.907c-.476.667-3,7.806-2.618,10.805.28,2.2,1.378,2.6,3.189,2.57s3.856-3.665,3.856-3.665Z" transform="translate(-1487.781 -2411.177)"/></g><g transform="translate(94.319 14.157)"><path class="k" d="M1494.234,2458.848a2.767,2.767,0,0,0,1.193,2.514,1.4,1.4,0,0,0,2-.759c.205-.5.251-1.047.5-1.531a2.82,2.82,0,0,1,1.169-1.185c.081-.044.009-.168-.072-.124a3.018,3.018,0,0,0-.283.177.052.052,0,0,0-.009-.01,6.259,6.259,0,0,0-1.589-.874,3.6,3.6,0,0,0-1.729-.31C1494.525,2456.9,1494.253,2458.087,1494.234,2458.848Z" transform="translate(-1494.233 -2456.724)"/></g><g transform="translate(93.074 0)"><path class="i" d="M1490.135,2419.472c.114.254.3.527.6.553a1.288,1.288,0,0,0,1.428-.714,2.128,2.128,0,0,0,1.714,1.524,4.968,4.968,0,0,0,4.046-1.334c.051-.04.1-.081.151-.121.12-.1.233-.2.338-.3a5.56,5.56,0,0,0,1.463-2.055,52.385,52.385,0,0,0,5.807-2.189c.571-.477-.714-6.664-.714-6.664a6.535,6.535,0,0,0-6.283-3.855,7.17,7.17,0,0,0-4.932,1.852,5.636,5.636,0,0,0-1.524,2.359c-.176.627-.269,2.976-.62,3.5-.255.383-.781,1.134-1.225,1.857a5,5,0,0,0-.741,1.571A11.143,11.143,0,0,0,1490.135,2419.472Z" transform="translate(-1489.623 -2404.317)"/></g><g transform="translate(102.102 5.888)"><path class="l" d="M1523.171,2426.294a.36.36,0,0,1,.524-.107,1.007,1.007,0,0,1,.267.912.49.49,0,0,1-.333.47c-.518.111-.637-.693-.568-1.036A.6.6,0,0,1,1523.171,2426.294Z" transform="translate(-1523.043 -2426.114)"/></g><g transform="translate(95.994 5.721)"><path class="l" d="M1500.55,2425.661a.334.334,0,0,1,.485-.1.932.932,0,0,1,.248.844.453.453,0,0,1-.309.435c-.48.1-.59-.642-.526-.959A.561.561,0,0,1,1500.55,2425.661Z" transform="translate(-1500.432 -2425.494)"/></g><g transform="translate(120.352 40.059)"><path class="i" d="M1590.69,2555.178a9.571,9.571,0,0,0,1.4,4,31.471,31.471,0,0,0,3.861,5.147,36.82,36.82,0,0,0,4.178,3.962c.7.565,1.416,1.106,2.154,1.617a6.822,6.822,0,0,0,1.115-.505c.053-.03.105-.059.155-.091a6.125,6.125,0,0,0,.526-.359,5.724,5.724,0,0,0,1.687-2.083c0-.034,0-.068,0-.1a21.1,21.1,0,0,0-.686-6.079c-.9-3.171-2.968-6.21-6.1-7.5a7.366,7.366,0,0,0-8.156,1.628,5.206,5.206,0,0,1,.209-1.554.074.074,0,0,0-.142-.038,5.373,5.373,0,0,0-.21,1.76c-.019.024-.038.046-.057.071A.079.079,0,0,0,1590.69,2555.178Z" transform="translate(-1590.606 -2552.613)"/></g><g transform="translate(102.127 10.228)"><path class="i" d="M1523.16,2460.909c.3,2.711,1.852,12.82,2.237,13.076-.045.961-.1,2.021-.151,3.109,2.054,2.834,5.447,4.714,6,4.088h0l1.515-4.8c.782-1.094,1.571-.768,2.344-.743a1.526,1.526,0,0,0,.887-.2c1.223-.733,7.531-9.449,9.68-12.447-2.518-2.109-4.843-4.006-5.271-4.388-.886-.8-7.982-7.556-8.351-8.222,0-.008-.008-.016-.013-.023a29.47,29.47,0,0,1-2.259-5.4c-.017-.073-.033-.145-.048-.214-.462-.2-.97-.419-1.491-.639-1.646-.7-3.418-1.421-4.229-1.75l-.451-.181.006.7.013,1.669a13.925,13.925,0,0,0,.9,5.666C1525.6,2452.922,1522.866,2458.2,1523.16,2460.909Z" transform="translate(-1523.138 -2442.18)"/></g><g transform="translate(1.646 64.621)"><path class="b" d="M1201.157,2659a.156.156,0,0,0,.046-.3l-49.835-15.152a.156.156,0,1,0-.091.3L1201.111,2659A.163.163,0,0,0,1201.157,2659Z" transform="translate(-1151.166 -2643.54)"/></g><g transform="translate(107.199 10.98)"><path class="m" d="M1543.414,2453.916a64.312,64.312,0,0,1,3.155,8.78,25.962,25.962,0,0,1,.381,9.521,6.665,6.665,0,0,0,1.862,5.453,7.488,7.488,0,0,0,.967.883,9.491,9.491,0,0,0,5.168,1.69c.512-.355,2.006-1.44,2.243-1.6a11.237,11.237,0,0,1,4.214-1.7,6.285,6.285,0,0,1,4.165.569,4.858,4.858,0,0,1,2.418,2.879c.433,1.569-.112,3.184-.151,4.765a15.244,15.244,0,0,0,.377,3.254c.084.429.167.858.234,1.289.037.226.069.452.094.68.022.208.039.419.05.629,1.352.67,2.987,1.782,2.692,3.144-.4,1.837-6.642,2.853-9.474,3.631a1.188,1.188,0,0,0,.067.771,3.194,3.194,0,0,0,1.109,1.12c.3-.067.6-.142.908-.22,4.658-1.183,12.318-2.268,10.791-7.224a8.734,8.734,0,0,0-4.031-5.044c1.948-6.442-1.758-13.043-4.594-16.214-1.019-1.138-3.96-3.664-6.679-5.943-2.518-2.109-4.844-4.005-5.271-4.388-.886-.8-7.981-7.556-8.351-8.221l-.012-.023a29.49,29.49,0,0,1-2.259-5.4c-.017-.074-.033-.145-.048-.214-.165-.721-.273-1.213-.273-1.213l-1.065-.605c-.042.217-.075.437-.1.658-.02.173-.037.348-.049.521A18.134,18.134,0,0,0,1543.414,2453.916Z" transform="translate(-1541.913 -2444.964)"/></g><g transform="translate(105.228 2.663)"><path class="i" d="M1537.117,2414.174a15.655,15.655,0,0,1,3.643,4c.952,1.9,1.476,6.378.143,8.711s-3.951,2.9-4.855,2.142-1.38-12.471-1.428-12.995S1537.117,2414.174,1537.117,2414.174Z" transform="translate(-1534.619 -2414.174)"/></g><g transform="translate(93.074 3.321)"><path class="c" d="M1490.135,2428.446c.114.254.3.527.6.553a1.289,1.289,0,0,0,1.428-.714,2.128,2.128,0,0,0,1.714,1.524,4.968,4.968,0,0,0,4.046-1.334c.051-.04.1-.081.151-.121-.677-1.325-.706-2.838-1.858-3.9a9.08,9.08,0,0,0-1.718-1.233c-.266-.15-.689-.312-.649-.685a12.383,12.383,0,0,1,1.563-2.856c.411-.7.91-2.518,1.071-2.838s-.357-.322-.571.089-.748,1.909-1.071,2.481a13.014,13.014,0,0,1-2.6,3.034c-.47.191-1.136.394-2.031.71a3.006,3.006,0,0,0-.562,1.272A11.145,11.145,0,0,0,1490.135,2428.446Z" transform="translate(-1489.623 -2416.612)"/></g><g transform="translate(93.551 10.367)"><path class="l" d="M1494.4,2442.942a3.639,3.639,0,0,0-1.6-.244,2.757,2.757,0,0,0-1.25.116c-.143.1-.286.955,0,1.169a5.9,5.9,0,0,0,1.232.642c.107,0,1.392-.339,1.589-.66A1.13,1.13,0,0,0,1494.4,2442.942Z" transform="translate(-1491.39 -2442.694)"/></g><g transform="translate(103.92 44.213)"><path class="i" d="M1529.775,2575.515a2.766,2.766,0,0,0,2.26,1.6c2.366.051,3.956-3.858,4.052-4.1l0-.012s-1.692-2.335-1.744-2.517a26.24,26.24,0,0,0-3.166-2.5,3.116,3.116,0,0,0-1.068.457l-.023.468C1529.978,2571.256,1529.861,2573.71,1529.775,2575.515Z" transform="translate(-1529.775 -2567.989)"/></g><g transform="translate(112.96 53.156)"><path class="c" d="M1563.294,2609.552c.1.65.543,1.242,2.168,1.242a89.972,89.972,0,0,0,12.285-1.782c2.159-.5,3.862-1.067,4.321-1.667a9.314,9.314,0,0,0,1.357-2.564,5.514,5.514,0,0,1-2.552,1.285c-1.179.078-.457-.117-2.272-1.17s-3.449.234-6.452-.429c-1.483-.327-2.537-1.881-3.226-3.371.126.289.265.571.4.842.432.885.92,1.741,1.43,2.581a7.707,7.707,0,0,0,.72,1.15c-.036.008-.585.133-1.374.316-1.4.326-3.56.836-4.931,1.21C1563,2607.789,1563.2,2608.9,1563.294,2609.552Z" transform="translate(-1563.24 -2601.097)"/></g><g transform="translate(96.137 34.028)"><path class="i" d="M1500.961,2547.586a1.717,1.717,0,0,0,1.067-.758,3.5,3.5,0,0,0,.39-1.638c.053-.861.093-1.725.13-2.588a50.728,50.728,0,0,0,0-5.105,22.648,22.648,0,0,0-1.518-7.211C1501.013,2533.972,1500.978,2542.825,1500.961,2547.586Z" transform="translate(-1500.961 -2530.286)"/></g><g transform="translate(97.075 35.204)"><path class="l" d="M1504.733,2534.706a26.6,26.6,0,0,0,5.1,5.255c.158.124-.064.343-.22.22a26.843,26.843,0,0,1-5.152-5.317C1504.344,2534.7,1504.615,2534.545,1504.733,2534.706Z" transform="translate(-1504.434 -2534.638)"/></g><g transform="translate(103.95 5.311)"><path class="l" d="M1529.941,2432a22.983,22.983,0,0,1,1.082-3.65,13.708,13.708,0,0,0,.691-4.226.156.156,0,0,1,.312,0,19.306,19.306,0,0,1-1.337,6.169c-.672,2.053-.94,5.5,1.937,5.921.2.029.114.33-.083.3C1530.384,2436.2,1529.671,2433.9,1529.941,2432Z" transform="translate(-1529.886 -2423.977)"/></g><g transform="translate(94.852 12.658)"><path class="l" d="M1496.51,2451.288q.116.814.292,1.618c.043.2-.258.279-.3.083q-.176-.8-.292-1.618C1496.181,2451.174,1496.482,2451.089,1496.51,2451.288Z" transform="translate(-1496.207 -2451.175)"/></g><g transform="translate(96.235 12.797)"><path class="n" d="M1501.48,2451.709l.176-.018a.156.156,0,0,1,.156.156.159.159,0,0,1-.156.156l-.176.018a.157.157,0,0,1-.156-.156A.159.159,0,0,1,1501.48,2451.709Z" transform="translate(-1501.324 -2451.69)"/></g><g transform="translate(96.426 14.158)"><path class="n" d="M1502.182,2456.729h.2a.156.156,0,0,1,0,.312h-.2A.156.156,0,0,1,1502.182,2456.729Z" transform="translate(-1502.031 -2456.729)"/></g><g transform="translate(97.581 13.532)"><path class="n" d="M1506.466,2454.428l.156-.018a.157.157,0,0,1,.156.156.16.16,0,0,1-.156.156l-.156.018a.157.157,0,0,1-.156-.156A.159.159,0,0,1,1506.466,2454.428Z" transform="translate(-1506.31 -2454.41)"/></g><g transform="translate(93.861 12.709)"><path class="n" d="M1492.692,2451.366l.175.019a.161.161,0,0,1,.156.155.157.157,0,0,1-.156.156l-.175-.019a.161.161,0,0,1-.156-.156A.156.156,0,0,1,1492.692,2451.366Z" transform="translate(-1492.536 -2451.365)"/></g><g transform="translate(94.027 13.992)"><path class="n" d="M1493.306,2456.114l.156.019a.161.161,0,0,1,.156.156.158.158,0,0,1-.156.156l-.156-.02a.161.161,0,0,1-.156-.156A.156.156,0,0,1,1493.306,2456.114Z" transform="translate(-1493.15 -2456.113)"/></g><g transform="translate(93.266 13.303)"><path class="n" d="M1490.489,2453.563l.156.019a.161.161,0,0,1,.156.156.157.157,0,0,1-.156.156l-.156-.019a.161.161,0,0,1-.156-.156A.157.157,0,0,1,1490.489,2453.563Z" transform="translate(-1490.333 -2453.562)"/></g><g transform="translate(111.435 47.389)"><path class="l" d="M1557.869,2579.785q2.881,2.3,5.971,4.312c.168.11.011.38-.157.27q-3.122-2.034-6.034-4.361C1557.492,2579.88,1557.714,2579.661,1557.869,2579.785Z" transform="translate(-1557.595 -2579.748)"/></g><g transform="translate(51.602 80.281)"><path class="b" d="M1336.255,2707.334a.156.156,0,0,0,.156-.156v-5.511a.156.156,0,1,0-.312,0v5.511A.156.156,0,0,0,1336.255,2707.334Z" transform="translate(-1336.099 -2701.511)"/></g><g transform="translate(52.174 62.2)"><path class="b" d="M1338.372,2652.461l.023,0,120.471-17.573a.156.156,0,1,0-.045-.309l-120.471,17.573a.156.156,0,0,0,.022.311Z" transform="translate(-1338.217 -2634.576)"/></g><g transform="translate(114.934 79.774)"><path class="b" d="M1570.7,2711.781c.086,0,.156-.048.156-.108V2699.74c0-.06-.07-.108-.156-.108s-.156.048-.156.108v11.933C1570.546,2711.733,1570.616,2711.781,1570.7,2711.781Z" transform="translate(-1570.546 -2699.632)"/></g><g transform="translate(122.557 79.774)"><path class="b" d="M1599.617,2702.384l9.262-1.264a.747.747,0,0,0,.639-.841h0a.747.747,0,0,0-.842-.639l-9.262,1.264a.748.748,0,0,0-.639.841h0A.747.747,0,0,0,1599.617,2702.384Z" transform="translate(-1598.768 -2699.632)"/></g><g transform="translate(96.749 83.089)"><path class="b" d="M1504.077,2714.658l9.262-1.264a.747.747,0,0,0,.639-.841h0a.747.747,0,0,0-.842-.639l-9.262,1.264a.747.747,0,0,0-.639.841h0A.747.747,0,0,0,1504.077,2714.658Z" transform="translate(-1503.228 -2711.906)"/></g><g transform="translate(95.403 15.652)"><path class="o" d="M1498.405,2462.371c.045-.2.346-.113.3.083a5.751,5.751,0,0,0-.047,2.412c.038.2-.263.28-.3.083A6.164,6.164,0,0,1,1498.405,2462.371Z" transform="translate(-1498.244 -2462.259)"/></g></g><g transform="translate(1214.026 2305.969)"><path class="g" d="M1401.8,2349.848s8.9,4.167,11.749,1.79c0,0-.825,11.124-8.879,7.291,0,0-4.182-2.192-4.337-9.08Z" transform="translate(-1400.336 -2349.848)"/></g><g transform="translate(1213.222 2302.463)"><path class="g" d="M1399.632,2340.374s-.543-2.81-2.27-3.507c0,0,1.01,1,.8,3.507" transform="translate(-1397.362 -2336.868)"/></g><g transform="translate(1210.891 2303.792)"><path class="g" d="M1388.871,2342.265a3.067,3.067,0,0,0,3.837,2.037l.114,1.6s-4.783-.15-4.006-4.117Z" transform="translate(-1388.731 -2341.785)"/></g><g transform="translate(1198.761 2328.504)"><path class="g" d="M1347.829,2439.085l-.506-.19,1.094-2.917a1.6,1.6,0,0,0-2.162-2.024,1.587,1.587,0,0,0-.837.894l-1.087,2.877-.506-.191,1.087-2.876a2.139,2.139,0,0,1,2.757-1.25,2.149,2.149,0,0,1,1.253,2.76Z" transform="translate(-1343.826 -2433.27)"/></g></g></svg>