<svg xmlns="http://www.w3.org/2000/svg" xmlns:xlink="http://www.w3.org/1999/xlink" width="448.131" height="276" viewBox="0 0 448.131 276"><defs><clipPath id="a"><path d="M1439-497.336l-3.445,5.565s-1.311,4.219,6.838,4.776l4.1-10.355Z" transform="translate(-1435.476 497.351)" fill="none" clip-rule="evenodd"/></clipPath><clipPath id="b"><path d="M447-586.007h558.389V-935H447Z" transform="translate(-447 935)" fill="none"/></clipPath><clipPath id="c"><path d="M1544.818-485.989l1.164-.41" transform="translate(-1544.818 486.4)" fill="none"/></clipPath><clipPath id="e"><path d="M1548.227-477.973l1.164-.41" transform="translate(-1548.227 478.383)" fill="none"/></clipPath><clipPath id="g"><path d="M1551.319-470.775l1.164-.413" transform="translate(-1551.319 471.188)" fill="none"/></clipPath><clipPath id="i"><rect width="67.655" height="76.656" transform="translate(0 0)" fill="#fff"/></clipPath><clipPath id="j"><rect width="170.68" height="89.546" fill="none"/></clipPath><clipPath id="k"><path d="M760.867,180.141l1.842,4.425-2.543.54-.158-4.886Z" transform="translate(-760.008 -180.141)" fill="none"/></clipPath><clipPath id="l"><path d="M1.484,8.6C1.818,7.87.26,8.208,0,7.447c-.1-.234,1.581-3.231,1.755-3.893a4.417,4.417,0,0,0,.13-1.73A4.025,4.025,0,0,1,1.815.772.865.865,0,0,1,2.434,0,1.16,1.16,0,0,0,3.3,1.052,2.738,2.738,0,0,0,5.552.445c-.137,1.541-.379,3.76.69,4.872a3.6,3.6,0,0,1,1.016,1.29c.3.952-.919,2.409-1.5,2.863A4.667,4.667,0,0,1,2.479,10.7c-.741-.541-.089-2.183-.988-2.364" transform="translate(0 0)" fill="none"/></clipPath><clipPath id="m"><path d="M0,0H855.856V915.288H0Z" transform="translate(0 0)" fill="none"/></clipPath><clipPath id="n"><path d="M3.221,7.48,2.891,0A13.681,13.681,0,0,1,.364,2.458c-.818.387,0,3.485,0,3.485L2.013,7.5l.409.387Z" transform="translate(0 0)" fill="none"/></clipPath><clipPath id="o"><path d="M0,0H892.817V901.874H0Z" transform="translate(0 0)" fill="none"/></clipPath><clipPath id="p"><path d="M17.661,4.364a11.97,11.97,0,0,0-5.716-1.471c-2.666.12-5.06,1.581-7.338,2.977a3.958,3.958,0,0,1-1.189.551,1.343,1.343,0,0,1-1.227-.3,1.585,1.585,0,0,1-.38-.921,4.21,4.21,0,0,1,1.791-4C3.555.82,3.571.386,3.524,0A4.212,4.212,0,0,0,2.468.595,6.049,6.049,0,0,0,.459,3.2,7.873,7.873,0,0,0,.376,8.259,19.408,19.408,0,0,0,2.616,12.9a2.936,2.936,0,0,0,.651.81,2.088,2.088,0,0,0,2.078.108,8.664,8.664,0,0,0,1.784-1.249,3.915,3.915,0,0,1,1.932-.949,4.319,4.319,0,0,1,1.117.069c.733.117,1.464.25,2.188.405a6.52,6.52,0,0,0,1.412.206,4.1,4.1,0,0,0,2.53-1.006,12.229,12.229,0,0,0,1.86-2.033l1.319-1.679a.665.665,0,0,0,.191-.421.676.676,0,0,0-.171-.352l-2.1-2.694" transform="translate(0 0)" fill="none"/></clipPath><clipPath id="r"><path d="M15.451.808A14.541,14.541,0,0,0,9.805.315,13.11,13.11,0,0,0,5.149,2.472c-1.49.984-3.48,2.594-5.114.95C-.073,3.311.1,3.142.2,3.254c1.62,1.652,3.628-.209,5.061-1.123A16.3,16.3,0,0,1,8.287.534C10.77-.415,13.012.092,15.53.589c.152.028.089.26-.063.228Z" transform="translate(0 0)" fill="none"/></clipPath><clipPath id="t"><path d="M14.1.2C12.255,1.935,9.988,1.467,7.7,1.672,5.955,1.837,5,2.909,3.631,3.813a5.618,5.618,0,0,1-3.517.911c-.152,0-.152-.246,0-.237A6.432,6.432,0,0,0,4.608,2.768,6.132,6.132,0,0,1,6.7,1.594C9.2.92,11.8,2.031,13.932.032c.11-.1.281.065.167.169" transform="translate(0 0)" fill="none"/></clipPath><filter id="v" x="375.789" y="0.861" width="54" height="54" filterUnits="userSpaceOnUse"><feOffset dy="3" input="SourceAlpha"/><feGaussianBlur stdDeviation="3" result="w"/><feFlood flood-opacity="0.161"/><feComposite operator="in" in2="w"/><feComposite in="SourceGraphic"/></filter></defs><g transform="translate(18591.998 -6701)"><g transform="translate(-25865 4169)"><g transform="translate(7346.132 2479)"><path d="M0,0H375V276H0Z" transform="translate(0 53)" fill="#f1f4f9"/><rect width="167.26" height="19.654" transform="translate(94.129 204.135) rotate(180)" fill="none"/></g></g><g transform="translate(-18528.207 6584.5)"><g transform="translate(-987.205 -134.595)" opacity="0.4"><g transform="translate(982.751 351.375)"><g transform="translate(2.346 18.296)"><path d="M3164.466,929.44a3.637,3.637,0,0,0,2.273-.785,3.951,3.951,0,0,0,1.221-4.6,3.362,3.362,0,0,0-1.916-1.886c-3.248-1.338-8.962,1.069-9.2,1.172l-.615.262.432.511C3160.1,928.184,3162.642,929.44,3164.466,929.44Zm-.795-6.693a5.3,5.3,0,0,1,2,.335,2.374,2.374,0,0,1,1.375,1.345,3,3,0,0,1-.91,3.447c-1.869,1.446-4.792.071-8.27-3.873A18.629,18.629,0,0,1,3163.671,922.747Z" transform="translate(-3156.225 -921.764)" fill="#00adee"/></g><g transform="translate(18.672 9.574)"><path d="M3127.848,910.692a3.837,3.837,0,0,0,.455-.027c2.16-.257,4.609-2.253,4.006-10.306l-.05-.667-.623.244c-.244.1-6.007,2.385-7.385,5.616a3.36,3.36,0,0,0-.043,2.688A3.959,3.959,0,0,0,3127.848,910.692Zm3.521-9.568c.286,5.25-.835,8.281-3.182,8.56a3,3,0,0,1-3.065-1.82,2.377,2.377,0,0,1,.038-1.924C3126.131,903.662,3129.869,901.8,3131.369,901.124Z" transform="translate(-3123.948 -899.692)" fill="#00adee"/></g><g transform="translate(0 9.406)"><path d="M3172.1,906.25a3.355,3.355,0,0,0,2.456-1.026,3.633,3.633,0,0,0,.619-4.207,3.084,3.084,0,0,0-1.91-1.554c-3.053-.93-8,1.727-8.207,1.84l-.588.32.478.468C3168.154,905.228,3170.458,906.25,3172.1,906.25Zm-.316-6a4.1,4.1,0,0,1,1.194.16,2.1,2.1,0,0,1,1.322,1.066,2.637,2.637,0,0,1-.444,3.053c-1.517,1.528-4.244.58-7.714-2.663A15.081,15.081,0,0,1,3171.783,900.249Z" transform="translate(-3164.469 -899.266)" fill="#00adee"/></g><g transform="translate(3.904)"><path d="M3165.646,884.6a3.774,3.774,0,0,0,.431-.025,3.634,3.634,0,0,0,3.112-2.9,3.084,3.084,0,0,0-.521-2.407c-1.8-2.634-7.323-3.65-7.558-3.692l-.659-.118.081.664C3161.373,883.017,3163.692,884.6,3165.646,884.6ZM3161.6,876.7c1.484.346,5.016,1.334,6.248,3.135a2.1,2.1,0,0,1,.366,1.658,2.635,2.635,0,0,1-2.254,2.106C3163.822,883.839,3162.287,881.4,3161.6,876.7Z" transform="translate(-3160.451 -875.463)" fill="#00adee"/></g><g transform="translate(13.934 3.042)"><path d="M3140.835,893.014l.124,0c2.042-.073,4.432-1.725,4.223-9.181l-.019-.669-.634.215c-.226.076-5.534,1.9-6.923,4.776a3.08,3.08,0,0,0-.156,2.457A3.636,3.636,0,0,0,3140.835,893.014Zm3.371-8.461c.026,4.749-1.131,7.395-3.282,7.472a2.637,2.637,0,0,1-2.543-1.747,2.1,2.1,0,0,1,.115-1.694C3139.445,886.62,3142.79,885.116,3144.206,884.553Z" transform="translate(-3137.265 -883.162)" fill="#00adee"/></g><g transform="translate(4.308 0.456)"><path d="M3158.093,903.716l.972-.173c-2.75-15.478-13.972-26.812-14.085-26.924l-.7.7C3144.394,877.428,3155.4,888.552,3158.093,903.716Z" transform="translate(-3144.283 -876.618)" fill="#00adee"/></g><g transform="translate(3.361 10.213)"><path d="M3139.176,914.686l8.94-12.812-.81-.565-8.58,12.3-13.943-2.408-.168.973Z" transform="translate(-3124.614 -901.309)" fill="#00adee"/></g><g transform="translate(1.358 3.754)"><path d="M3151.1,895.659l7.049-10.132-.811-.564-6.7,9.633-12.606-1.766-.137.979Z" transform="translate(-3137.896 -884.962)" fill="#00adee"/></g><g transform="translate(12.736 26.837)"><path d="M3140.233,953.618l2.31-10.238H3130.9l1.054,10.181.982-.1-.941-9.091h9.311l-2.039,9.033Z" transform="translate(-3130.901 -943.379)" fill="#00adee"/></g><g transform="translate(13.728 31.26)"><path d="M3135.5,956.35a1.673,1.673,0,0,0,1.213-.521.706.706,0,0,1,1.109,0,1.671,1.671,0,0,0,2.425,0,.7.7,0,0,1,1.107,0,1.669,1.669,0,0,0,2.424,0,.717.717,0,0,1,.552-.269v-.988a1.669,1.669,0,0,0-1.212.521.7.7,0,0,1-1.106,0,1.671,1.671,0,0,0-2.424,0,.722.722,0,0,1-.554.27.73.73,0,0,1-.555-.27,1.673,1.673,0,0,0-2.426,0,.73.73,0,0,1-.555.27Z" transform="translate(-3135.504 -954.572)" fill="#00adee"/></g></g><g transform="translate(1014.899 275.693)"><g transform="translate(0 74.23)"><path d="M2550.526,849.545h118.156v-8.283H2550.526Zm117.159-.932H2551.522v-6.418h116.163Z" transform="translate(-2550.526 -841.262)" fill="#00adee"/></g><g transform="translate(4.17)"><path d="M2607.429,717.349h85.123V642.187h-85.123Zm84.191-.932h-83.259v-73.3h83.259Z" transform="translate(-2607.429 -642.187)" fill="#00adee"/></g><g transform="translate(28.07)"><path d="M2607.429,649.065h61.222v-6.878h-61.222Zm60.29-.932h-59.358v-5.014h59.358Z" transform="translate(-2607.429 -642.187)" fill="#00adee"/></g><g transform="translate(4.17)"><path d="M2769.118,717.349h24.833V642.187h-24.833Zm23.9-.932H2770.05v-73.3h22.968Z" transform="translate(-2769.118 -642.187)" fill="#00adee"/><g transform="translate(15.494 13.233)"><line y2="40.937" transform="translate(0.466 0)" fill="#fff"/><rect width="0.932" height="40.937" fill="#00adee"/></g><g transform="translate(8.326 13.233)"><line y2="40.937" transform="translate(0.466 0)" fill="#fff"/><rect width="0.932" height="40.937" fill="#00adee"/></g></g><g transform="translate(88.44)"><path d="M2769.118,717.349h24.833V642.187h-24.833Zm23.9-.932H2770.05v-73.3h22.968Z" transform="translate(-2769.118 -642.187)" fill="#00adee"/><g transform="translate(15.494 13.233)"><line y2="40.937" transform="translate(0.466 0)" fill="#fff"/><rect width="0.932" height="40.937" fill="#00adee"/></g><g transform="translate(8.326 13.233)"><line y2="40.937" transform="translate(0.466 0)" fill="#fff"/><rect width="0.932" height="40.937" fill="#00adee"/></g></g><g transform="translate(15.382 83.662)" clip-path="url(#a)"><g transform="translate(-383.301 -169.707)" clip-path="url(#b)"><path d="M1430.476-488.118h14.9v-14.233h-14.9Z" transform="translate(-1049.114 670.119)" fill="#fff"/></g></g><g transform="translate(57.781 87.908)" clip-path="url(#c)"><g transform="translate(-425.701 -173.954)" clip-path="url(#b)"><path d="M1539.818-487.112h5.042V-491.4h-5.042Z" transform="translate(-1116.056 663.414)" fill="#ffc75b"/></g></g><g transform="translate(59.103 91.017)" clip-path="url(#e)"><g transform="translate(-427.023 -177.062)" clip-path="url(#b)"><path d="M1543.227-479.095h5.042v-4.288h-5.042Z" transform="translate(-1118.143 658.507)" fill="#ffc75b"/></g></g><g transform="translate(60.302 93.807)" clip-path="url(#g)"><g transform="translate(-428.222 -179.852)" clip-path="url(#b)"><path d="M1546.319-471.9h5.042v-4.29h-5.042Z" transform="translate(-1120.036 654.102)" fill="#ffc75b"/></g></g></g><g transform="translate(1115.05 344.698)" clip-path="url(#i)"><g transform="translate(9.948 4.152)"><g transform="translate(0 33.297)"><path d="M2920.817,835.283h49.074V819.2h-49.074Zm48.3-.773H2921.59V819.976h47.528Z" transform="translate(-2920.817 -819.203)" fill="#00adee"/></g><g transform="translate(0 48.604)"><path d="M2920.817,884.8h49.074v-16.08h-49.074Zm48.3-.773H2921.59V869.5h47.528Z" transform="translate(-2920.817 -868.723)" fill="#00adee"/></g><g transform="translate(0 63.912)"><path d="M2920.817,934.324h49.074v-16.08h-49.074Zm48.3-.773H2921.59V919.017h47.528Z" transform="translate(-2920.817 -918.244)" fill="#00adee"/></g><g transform="translate(21.755)"><path d="M2946.989,728.36h19.228l-2.647-16.873h-13.383Zm18.325-.773h-17.393l2.906-15.328h12.082Z" transform="translate(-2946.989 -711.487)" fill="#00adee"/></g><g transform="translate(29.359 16.1)"><path d="M2973.157,779.656h3.535V763.572h-3.535Zm2.762-.773h-1.99V764.345h1.99Z" transform="translate(-2973.157 -763.572)" fill="#00adee"/></g><g transform="translate(25.203 31.411)"><path d="M2959.8,815.762h11.822V813.1H2959.8Zm11.049-.773h-10.277v-1.112h10.277Z" transform="translate(-2959.796 -813.104)" fill="#00adee"/></g><g transform="translate(16.854 61.195)"><path d="M2975.349,912.945h15.363l-1.352-3.489h-12.643Zm14.235-.773h-13.1l.762-1.944h11.586Z" transform="translate(-2975.349 -909.456)" fill="#00adee"/></g><g transform="translate(16.854 45.888)"><path d="M2975.349,863.424h15.363l-1.352-3.489h-12.643Zm14.235-.773h-13.1l.762-1.944h11.586Z" transform="translate(-2975.349 -859.935)" fill="#00adee"/></g><g transform="translate(2.604 30.465)"><path d="M3030.35,813.646h12.611v-3.6H3030.35Zm11.838-.773h-11.065v-2.059h11.065Z" transform="translate(-3030.35 -810.041)" fill="#00adee"/></g><g transform="translate(27.415 0.347)"><rect width="0.772" height="16.183" transform="translate(0.769 16.178) rotate(-174.215)" fill="#00adee"/></g><g transform="translate(33.529 0.347)"><rect width="16.183" height="0.772" transform="translate(1.632 16.178) rotate(-95.786)" fill="#00adee"/></g></g></g></g><g transform="translate(-3.056 197.529)"><g transform="translate(-0.001 0)"><g transform="translate(0 0)"><g clip-path="url(#j)"><g transform="translate(9.517 49.471)"><g transform="translate(0.195 0.195)"><rect width="75.979" height="41.26" rx="10.648" fill="#a5caef"/></g></g><g transform="translate(85.69 49.666)"><g transform="translate(0 0)"><rect width="75.979" height="41.26" rx="10.648" fill="#a5caef"/></g></g><g transform="translate(85.495 55.005)"><g transform="translate(0.195 0.195)"><path d="M661.758,251.411h64.908a5.338,5.338,0,0,1,5.535,5.115v25.5a5.338,5.338,0,0,1-5.535,5.115H661.758a5.338,5.338,0,0,1-5.535-5.115v-25.5A5.338,5.338,0,0,1,661.758,251.411Z" transform="translate(-656.223 -251.411)" fill="#d3e2f4"/></g><g transform="translate(0)"><path d="M661.579,287.151h64.909a5.537,5.537,0,0,0,5.729-5.31v-25.5a5.537,5.537,0,0,0-5.729-5.31H661.579a5.538,5.538,0,0,0-5.73,5.31v25.5A5.538,5.538,0,0,0,661.579,287.151Zm64.909-35.725a5.149,5.149,0,0,1,5.339,4.92v25.5a5.148,5.148,0,0,1-5.339,4.92H661.579a5.149,5.149,0,0,1-5.34-4.92v-25.5a5.149,5.149,0,0,1,5.34-4.92Z" transform="translate(-655.849 -251.036)" fill="#d3e2f4"/></g></g><g transform="translate(9.517 55.005)"><g transform="translate(0.195 0.195)"><path d="M807.93,251.411h64.909a5.337,5.337,0,0,1,5.535,5.115v25.5a5.337,5.337,0,0,1-5.535,5.115H807.93a5.337,5.337,0,0,1-5.535-5.115v-25.5A5.337,5.337,0,0,1,807.93,251.411Z" transform="translate(-802.395 -251.411)" fill="#d3e2f4"/></g><path d="M807.75,287.151h64.909a5.538,5.538,0,0,0,5.73-5.31v-25.5a5.538,5.538,0,0,0-5.73-5.31H807.75a5.538,5.538,0,0,0-5.73,5.31v25.5A5.538,5.538,0,0,0,807.75,287.151Zm64.909-35.725a5.149,5.149,0,0,1,5.34,4.92v25.5a5.148,5.148,0,0,1-5.34,4.92H807.75a5.148,5.148,0,0,1-5.34-4.92v-25.5a5.149,5.149,0,0,1,5.34-4.92Z" transform="translate(-802.02 -251.036)" fill="#d3e2f4"/></g><g transform="translate(85.69 68.492)"><path d="M726.667,299.416H661.758a5.535,5.535,0,0,1-5.535-5.535c27.549,1.971,59-4.822,75.979-16.9v16.9A5.535,5.535,0,0,1,726.667,299.416Z" transform="translate(-656.223 -276.983)" fill="none"/></g><g transform="translate(9.711 68.492)"><path d="M872.839,299.416H807.93a5.535,5.535,0,0,1-5.535-5.535c27.549,1.971,59-4.822,75.979-16.9v16.9A5.535,5.535,0,0,1,872.839,299.416Z" transform="translate(-802.395 -276.983)" fill="none"/></g><g transform="translate(147.826 75.509)"><g transform="translate(0.194 0.195)"><path d="M640.43,304.823a6.872,6.872,0,0,1-.542-2.685v-4.382a6.9,6.9,0,0,1,6.9-6.9h8.345a6.9,6.9,0,0,1,6.9,6.9v4.382a6.9,6.9,0,0,1-.271,1.922" transform="translate(-639.888 -290.858)" fill="#a5caef"/></g><path d="M640.07,304.718l.359-.151a6.664,6.664,0,0,1-.526-2.609v-4.383a6.71,6.71,0,0,1,6.7-6.7h8.345a6.71,6.71,0,0,1,6.7,6.7v4.383a6.709,6.709,0,0,1-.264,1.868l.375.109a7.1,7.1,0,0,0,.279-1.977v-4.383a7.1,7.1,0,0,0-7.092-7.092H646.6a7.1,7.1,0,0,0-7.091,7.092v4.383A7.05,7.05,0,0,0,640.07,304.718Z" transform="translate(-639.513 -290.483)" fill="#a5caef"/></g><g transform="translate(147.826 78.245)"><g transform="translate(0.194 0.195)"><path d="M640.148,307.116a6.9,6.9,0,0,1-.26-1.883v-2.215a6.9,6.9,0,0,1,6.9-6.9h8.345a6.9,6.9,0,0,1,6.9,6.9v2.215a6.905,6.905,0,0,1-.271,1.923" transform="translate(-639.888 -296.121)" fill="#d3e2f4"/></g><path d="M661.763,307.03a7.091,7.091,0,0,0,.279-1.977v-2.215a7.1,7.1,0,0,0-7.092-7.093H646.6a7.1,7.1,0,0,0-7.091,7.093v2.215a7.087,7.087,0,0,0,.267,1.936l.375-.107a6.713,6.713,0,0,1-.252-1.829v-2.215a6.71,6.71,0,0,1,6.7-6.7h8.345a6.71,6.71,0,0,1,6.7,6.7v2.215a6.712,6.712,0,0,1-.264,1.868Z" transform="translate(-639.513 -295.746)" fill="#d3e2f4"/></g><g transform="translate(1.026 75.509)"><g transform="translate(0.195 0.195)"><path d="M922.772,304.629a6.882,6.882,0,0,1-.464-2.491v-4.382a6.9,6.9,0,0,1,6.9-6.9h8.345a6.9,6.9,0,0,1,6.9,6.9v4.382a6.877,6.877,0,0,1-.464,2.491" transform="translate(-922.308 -290.858)" fill="#a5caef"/></g><path d="M922.41,304.52l.363-.141a6.68,6.68,0,0,1-.45-2.421v-4.383a6.71,6.71,0,0,1,6.7-6.7h8.345a6.71,6.71,0,0,1,6.7,6.7v4.383a6.664,6.664,0,0,1-.45,2.42l.363.141a7.053,7.053,0,0,0,.477-2.561v-4.383a7.1,7.1,0,0,0-7.092-7.092h-8.345a7.1,7.1,0,0,0-7.092,7.092v4.383A7.072,7.072,0,0,0,922.41,304.52Z" transform="translate(-921.934 -290.483)" fill="#a5caef"/></g><g transform="translate(1.026 78.374)"><g transform="translate(0.195 0.195)"><path d="M922.772,307.284a8.995,8.995,0,0,1-.464-2.18V302.98a6.759,6.759,0,0,1,6.9-6.612h8.345a6.759,6.759,0,0,1,6.9,6.612V305.1a6.35,6.35,0,0,1-.464,2.389" transform="translate(-922.308 -296.368)" fill="#d3e2f4"/></g><path d="M943.985,307.386a6.536,6.536,0,0,0,.478-2.462V302.8a6.962,6.962,0,0,0-7.092-6.807h-8.345a6.962,6.962,0,0,0-7.092,6.807v2.124a9.149,9.149,0,0,0,.471,2.236l.374-.113a8.845,8.845,0,0,1-.455-2.123V302.8a6.572,6.572,0,0,1,6.7-6.417h8.345a6.572,6.572,0,0,1,6.7,6.417v2.124a6.156,6.156,0,0,1-.449,2.316Z" transform="translate(-921.934 -295.993)" fill="#d3e2f4"/></g><g transform="translate(29.574 1.344)"><g transform="translate(0.476 22.57)"><path d="M887.231,191.6c-4.991,8.845-9.052,15.591-14.043,24.436-.137.275.9.379,1.1.619a8.559,8.559,0,0,0,1.274,1.032c1.068.139.2,1.136,1.273,1.273.62.069.344.785.964.654a6.919,6.919,0,0,0,2.065-1.066c2.444-1.652,5.37-2.891,6.918-5.438a15.227,15.227,0,0,0,1.445-3.819c.757-2.651,1.619-5.232,2.616-7.78.722-1.823,1.515-3.784,1.032-5.678a9.1,9.1,0,0,0-2.306-3.648,3.01,3.01,0,0,0-1-.86,1.035,1.035,0,0,0-1.2.206c-.069.069-.1.206,0,.241.069.069.137-.137.033-.1" transform="translate(-873.175 -191.221)" fill="#ffaf97"/></g><g transform="translate(0.414 22.502)"><path d="M877.585,219.635a.692.692,0,0,0,.157-.02,5.689,5.689,0,0,0,1.784-.88l.3-.2c.6-.409,1.25-.8,1.874-1.178,1.911-1.158,3.89-2.355,5.063-4.284a13.506,13.506,0,0,0,1.348-3.47l.106-.367c.785-2.738,1.637-5.282,2.615-7.772l.023-.063c.734-1.85,1.491-3.764,1.011-5.658a9.215,9.215,0,0,0-2.308-3.66l-.014-.016a3.024,3.024,0,0,0-1.019-.875,1.11,1.11,0,0,0-1.287.224.306.306,0,0,0-.071.12l-.073-.041c-2.5,4.424-4.8,8.388-7.024,12.221s-4.514,7.793-7.018,12.215a.173.173,0,0,0,0,.146c.059.141.306.221.588.316a1.472,1.472,0,0,1,.526.235,8.333,8.333,0,0,0,1.312,1.056c.489.063.532.3.588.589a.7.7,0,0,0,.695.693.488.488,0,0,1,.42.345C877.251,219.464,877.336,219.635,877.585,219.635ZM888,191.228a1.24,1.24,0,0,1,.471.094,2.912,2.912,0,0,1,.981.84l.016.018a9.027,9.027,0,0,1,2.276,3.6c.471,1.851-.279,3.745-1,5.576l-.023.062c-.981,2.494-1.835,5.04-2.618,7.784l-.106.367a13.374,13.374,0,0,1-1.333,3.437c-1.156,1.9-3.12,3.089-5.018,4.237-.626.378-1.272.769-1.878,1.177l-.3.2a5.646,5.646,0,0,1-1.739.863c-.269.059-.328-.059-.416-.235a.619.619,0,0,0-.524-.42c-.483-.063-.528-.3-.577-.589a.7.7,0,0,0-.7-.693,9.544,9.544,0,0,1-1.233-1.013,1.464,1.464,0,0,0-.588-.273c-.212-.069-.475-.155-.508-.238a.028.028,0,0,1,0-.031c2.492-4.418,4.793-8.378,7.016-12.209s4.5-7.745,6.974-12.135a.155.155,0,0,0,.094.11.1.1,0,0,0,.127,0,.161.161,0,0,0,.051-.185.1.1,0,0,0-.112-.049.093.093,0,0,1,.018-.02.816.816,0,0,1,.655-.277Zm-.689.327.039.112h0a.044.044,0,0,1-.023-.01h0a.036.036,0,0,1,.023,0l-.027-.016h0a.022.022,0,0,1-.014-.016.124.124,0,0,1,0-.076Z" transform="translate(-873.042 -191.089)" fill="#d54f1f"/></g><g transform="translate(5.977 23.964)" opacity="0.19" style="isolation:isolate"><path d="M879.476,194.882c-2.443,2.649-2.616,6.712-4.406,9.878-1.719,2.96-4.783,4.956-6.608,7.851a18,18,0,0,0-1.927,4.681,1.881,1.881,0,0,0,.173,1.721,1.958,1.958,0,0,0,1.178.344l4.165.208a1.54,1.54,0,0,0,.689-.069c.448-.173.654-.655.86-1.068a128.263,128.263,0,0,1,8.047-15.385c.86-1.374,1.754-2.891,1.617-4.514a7.156,7.156,0,0,0-1.859-3.613,2.412,2.412,0,0,0-1.273-1c-.552-.1-1.177.483-.928.964" transform="translate(-866.414 -193.904)" fill="#ff6700"/></g><g transform="translate(44.834 28.51)"><g transform="translate(0)"><path d="M810.571,202.826c2.721,11.716,3.467,23.064.749,26.679-.448.619-.012-2.271-.665-1.859-.208.137-1.374,1.894-1.652,1.858a2.966,2.966,0,0,1-2.238-1.652c-.516-1.927-1.892-1.411-2.581-3.269a6.457,6.457,0,0,1-.241-1.686c-.2-4.818-1.549-9.464-2.891-14.076-.1-.414.274-.93.379-1.343a2.246,2.246,0,0,1,1.238-1.136c.964-.481,2.651-2.581,3.752-2.787,1.066-.173,3.255-1.347,4.15-.729" transform="translate(-801.034 -202.648)" fill="#ffaf97"/></g></g><g transform="translate(14.117 16.648)"><path d="M857.832,186.642s2.583-6.436,12.527-6.814l.656,4.1-3.959,2.748Z" transform="translate(-857.832 -179.828)" fill="#ff409e"/></g><g transform="translate(14.109 15.978)"><path d="M807.932,184.44a2.3,2.3,0,0,0,1.374-1.307c.1-.206.1-.448.2-.689a2.4,2.4,0,0,1,.963-1.066c1.894-1.241,4.371-1.178,6.5-1.927a13.52,13.52,0,0,1,2.514-.862,7.292,7.292,0,0,1,2.581.208c3.441.687,6.883,1.341,10.326,2.03a18.9,18.9,0,0,1,6.952,2.341c.412.275.785.516,1.177.756a8.918,8.918,0,0,1,1.686,1.24,6.79,6.79,0,0,1,1.309,1.48,15.057,15.057,0,0,1,2.34,4.783,4.252,4.252,0,0,0-3.441.93c-1.548,1.343-2.926,3.51-4.234,4.75l-.069.033c-.964.589-3.925,1.032-3.994,2.169-.171,2.479,2.41,5.3,1.177,7.458a12.673,12.673,0,0,1-2.273-1.342,2.464,2.464,0,0,0-2.512-.24c-.31.2-.55.516-.928.618-.689.208-1.274-.481-1.652-1.1-2.271-3.372-5.37-6.332-9.225-7.572-1.48-.481-3.062-.687-4.577-1.134a16.458,16.458,0,0,1-3.75-1.619c-.414-.24.1.241-.208-.138,0,0,.1-.137-.274-.31-1.374-.687-2.823-6.746-4.475-7.88C806.116,184.579,806.362,185.06,807.932,184.44Z" transform="translate(-805.42 -178.539)" fill="#ff409e"/></g><g transform="translate(15.492 22.571)"><g transform="translate(0)"><path d="M871.9,191.254c2.583,1.79,1.756,5.988,4.373,7.605.1.069,0,.242-.14.173-2.649-1.653-1.823-5.817-4.37-7.607C871.656,191.323,871.794,191.15,871.9,191.254Z" transform="translate(-871.722 -191.222)" fill="#ef1485"/></g></g><g transform="translate(16.978 22.43)"><path d="M865.143,190.952h.723l2,3.1s-3.166,4.785-4.025,6.161a8.771,8.771,0,0,1-1.273,1.48,15.829,15.829,0,0,1-3.2-1.444c-.1-.069-.137-.069-.173-.069,0-.035-.033-.035-.033-.069,0,0,.1-.137-.275-.31-.552-.274-1.1-1.374-1.652-2.685A10.2,10.2,0,0,1,865.143,190.952Z" transform="translate(-857.232 -190.952)" fill="#ef1485"/></g><g transform="translate(21.536)"><path d="M824.53,165.591s.867,7.629,3.447,8.541c0,0-10.147,1.082-13.806-5.952,0,0,1.512-10.053,7.069-16.039a12.611,12.611,0,0,1,10.388-4.292A10.912,10.912,0,0,1,839,151.211s7.236,7.546,1.263,23.446l-8.2-1.176-.181-8.164Z" transform="translate(-814.171 -147.8)" fill="#031f59"/></g><g transform="translate(45.499 26.327)"><g transform="translate(0)"><path d="M816.509,198.984l1.33.391a14.068,14.068,0,0,1,1.9,4.951,41.793,41.793,0,0,1-2.748,3.237l-.137.137c-.31.31.31-.137,0,0-.1-.964-.208-8.129-.346-8.716Z" transform="translate(-816.404 -198.449)" fill="#ef1485"/></g></g><g transform="translate(47.402 27.253)"><g transform="translate(0)"><path d="M813.168,200.569c-2.616-.928-4.956,2.446-5.955,4.269-.069.1-.241.033-.2-.069,1.066-1.927,3.509-5.334,6.229-4.37a.094.094,0,1,1-.031.186.091.091,0,0,1-.037-.015Z" transform="translate(-807.01 -200.23)" fill="#ef1485"/></g></g><g transform="translate(33.125 30.346)"><g transform="translate(0)"><path d="M846.445,206.18l-.2.208v-.069Z" transform="translate(-846.248 -206.18)" fill="#fca73b"/></g></g><g transform="translate(30.355 17.603)"><g transform="translate(0)"><path d="M843.287,189.1s.216,2.291-3.082,2.62l-6.131,1.847-.163-11.9Z" transform="translate(-833.911 -181.666)" fill="#ffaf97"/></g></g><g transform="translate(43.393 8.69)"><g transform="translate(0)"><path d="M823.68,170.155s-3.2-2.748-1.57-5.637l2.253,1-.139,2.552Z" transform="translate(-821.649 -164.518)" fill="#031f59"/></g></g><g transform="translate(39.094 54.576)"><g transform="translate(0)"><path d="M834.827,254.1c.034-.448.1-.86.138-1.307C835.066,253.277,834.756,254.654,834.827,254.1Z" transform="translate(-834.816 -252.796)" fill="#ffbe53"/></g></g><g transform="translate(38.172 53.302)"><g transform="translate(0)"><path d="M836.581,251.652c.035-.448.1-.86.137-1.307C836.855,250.861,836.547,252.237,836.581,251.652Z" transform="translate(-836.578 -250.345)" fill="#ffbe53"/></g></g><g transform="translate(15.798 24.595)"><path d="M825.874,218.11a21.7,21.7,0,0,1,.757-13.491c2.408-5.919,7.572-9.362,12.322-9.5,4.851-.137,10.323,3.14,12.975,9.258a22.358,22.358,0,0,1,1.178,13.457C847.626,219.9,836.716,222.756,825.874,218.11Z" transform="translate(-825.145 -195.116)" fill="#031f59"/></g><g transform="translate(19.105 35.199)"><path d="M838.184,218.133s-3.1,3.141-2.273,13.216l19,.1s1.825-11.943-1.343-15.935Z" transform="translate(-835.771 -215.517)" fill="#021333"/></g><g transform="translate(8.121 48.475)"><path d="M868.622,246.947c-4.577,1.686-9.12,3.337-13.7,5.024a19.111,19.111,0,0,1-4.3,1.2,19.829,19.829,0,0,1-5.851-.414,3.609,3.609,0,0,1-1.342-.412,3.808,3.808,0,0,1-1.374-2.552c-.344-1.374-.654-2.787-1-4.165a2.112,2.112,0,0,1-.069-1.136,2,2,0,0,1,.481-.756,8.5,8.5,0,0,1,8.982-2.2c1.411.516,2.719,1.411,4.2,1.374a11.7,11.7,0,0,0,1.963-.31,16.055,16.055,0,0,1,5.576.412,17.955,17.955,0,0,1,3.819,1.068,5.9,5.9,0,0,1,2.891,2.581" transform="translate(-840.943 -241.059)" fill="#ffc5b4"/></g><g transform="translate(10.987 41)"><path d="M853.593,235.579c1.411.632,1.721,2.429,1.309,3.819a2.439,2.439,0,0,1-.621,1.08,2.9,2.9,0,0,1-1.032.569c-3.234,1.2-6.918.378-10.084-.916s-6.2-3-9.6-3.66q-.94-.161-1.858-.411a9.05,9.05,0,0,1-2-1.042,32.249,32.249,0,0,0-6.057-3.66,11.865,11.865,0,0,0-5.54-.695,7.9,7.9,0,0,1,1.34-3.439,1.325,1.325,0,0,1,.346-.379,1.3,1.3,0,0,1,.689-.157,9.437,9.437,0,0,1,5.3,1.672,39.457,39.457,0,0,0,4.785,2.809c2.408,1.042,5.162,1.168,7.812,1.389,5.4.409,10.877,1.136,15.866,3.124" transform="translate(-818.111 -226.678)" fill="#fdc0ae"/></g><g transform="translate(10.911 40.936)"><path d="M849.59,241.694a9.9,9.9,0,0,0,3.467-.588,2.965,2.965,0,0,0,1.057-.583,2.529,2.529,0,0,0,.644-1.117c.419-1.414.088-3.266-1.352-3.911l-.053.119c1.373.614,1.684,2.394,1.28,3.757a2.4,2.4,0,0,1-.608,1.057,2.85,2.85,0,0,1-1.01.555c-2.73,1.01-6.123.7-10.088-.918-.889-.363-1.783-.766-2.648-1.155a32.324,32.324,0,0,0-7.013-2.525c-.625-.107-1.251-.245-1.863-.411a9.036,9.036,0,0,1-1.985-1.036c-.475-.313-.951-.643-1.411-.964a22.326,22.326,0,0,0-4.689-2.719,12.021,12.021,0,0,0-5.514-.71,7.92,7.92,0,0,1,1.324-3.342,1.267,1.267,0,0,1,.332-.367,1.228,1.228,0,0,1,.65-.143,9.293,9.293,0,0,1,5.294,1.669c.5.3.991.617,1.47.927a21.831,21.831,0,0,0,3.346,1.9,22.277,22.277,0,0,0,7.081,1.336l.787.064c4.919.372,10.657,1.035,15.923,3.132l.048-.121c-5.282-2.1-11.033-2.768-15.96-3.141l-.788-.064a22.187,22.187,0,0,1-7.04-1.325,21.765,21.765,0,0,1-3.327-1.887c-.479-.311-.975-.632-1.473-.929a9.426,9.426,0,0,0-5.361-1.688,1.083,1.083,0,0,0-1.091.57,8.044,8.044,0,0,0-1.356,3.477l-.011.082.083-.009a11.872,11.872,0,0,1,5.536.694,22.159,22.159,0,0,1,4.66,2.705c.462.32.938.651,1.413.964a9.157,9.157,0,0,0,2.018,1.053c.621.169,1.251.308,1.879.415a32.231,32.231,0,0,1,6.983,2.515c.865.39,1.761.793,2.652,1.157A17.987,17.987,0,0,0,849.59,241.694Z" transform="translate(-817.653 -226.555)" fill="#d54f1f"/></g><g transform="translate(54.145 49.818)"><g transform="translate(0)"><path d="M804.662,248.642a2.857,2.857,0,0,0,.785-1.859,7.423,7.423,0,0,0-.785-3.14" transform="translate(-804.662 -243.643)" fill="#ffc75c"/></g></g><g transform="translate(54.098 49.809)"><g transform="translate(0)"><path d="M804.643,248.664a2.889,2.889,0,0,0,.8-1.888,7.129,7.129,0,0,0-.785-3.119l-.014-.033-.084.035.013.033a7.27,7.27,0,0,1,.785,3.078,2.8,2.8,0,0,1-.785,1.829Z" transform="translate(-804.564 -243.624)" fill="#fca73b"/></g></g><g transform="translate(36.936 36.851)"><g transform="translate(0)"><ellipse cx="1.205" cy="1.686" rx="1.205" ry="1.686" fill="#fdc0ae"/></g></g><g transform="translate(20.967 36.851)"><g transform="translate(0)"><ellipse cx="1.205" cy="1.686" rx="1.205" ry="1.686" fill="#ffcdaa"/></g></g><g transform="translate(22.172 28.797)"><g transform="translate(0)"><path d="M837.492,203.2h15.7v12.321a5.774,5.774,0,0,1-1.374,3.717h0a6.524,6.524,0,0,1-5.024,2.271H843.9a6.523,6.523,0,0,1-5.024-2.271h0a5.774,5.774,0,0,1-1.374-3.717Z" transform="translate(-837.492 -203.201)" fill="#fdc0ae"/></g></g><g transform="translate(19.245 25.956)"><path d="M852.682,208.63s-1.133-2.859-5.193-5.646c0,0-.795-2.339-4.271-1.375l-2.341,3.336-1.1.173-5.713,7.4.137-8.439,1.619-3.305a11.735,11.735,0,0,1,2.581-1.341,33.082,33.082,0,0,0,4.1-1.688s3.337.069,3.545,0,3.028.277,3.717.346a10.2,10.2,0,0,1,2.271.826s1.686,2.512,2.133,1.963c.208-.275.31,2.926.31,3.235S852.682,208.63,852.682,208.63Z" transform="translate(-834.063 -197.735)" fill="#031f59"/></g><g transform="translate(21.973 28.11)"><g transform="translate(0)"><path d="M856.26,204.528s.732,3.992-1.782,6.263l-4.723-.137a6.584,6.584,0,0,0,1.2-2.787,5.9,5.9,0,0,1-2.271,2.787h-1.515a14.075,14.075,0,0,0,1.177-2.271,9.573,9.573,0,0,1-2.339,2.271h-2.34l.589-4.336,2.477-2,2.822-2,2.96-.445,2.159,1.177Z" transform="translate(-843.671 -201.879)" fill="#031f59"/></g></g><g transform="translate(35.573 26.917)"><g transform="translate(0)"><path d="M831.821,201.788l1.671-2.031a.5.5,0,0,1,.837.133l1.061,3.051a.491.491,0,0,1-.6.643l-2.686-.8-1.8,1.963a.494.494,0,0,1-.7.045.5.5,0,0,1-.139-.2l-1.041-2.752a.509.509,0,0,1,.557-.68Z" transform="translate(-828.393 -199.584)" fill="#0af"/></g></g><g transform="translate(38.472 28.805)"><g transform="translate(0)"><path d="M834.751,204.942l.147-.049a.4.4,0,0,0,.273-.492l0-.015-.286-.882a.4.4,0,0,0-.493-.273l-.015,0-.147.048a.4.4,0,0,0-.27.494l0,.013.273.885A.486.486,0,0,0,834.751,204.942Z" transform="translate(-833.94 -203.215)" fill="none"/></g></g><g transform="translate(29.116 40.738)"><g transform="translate(0)"><path d="M852.925,226.613,853,226.5l-.274-.173a.838.838,0,0,0-1.007.037l-.173.139.084.106.173-.137a.707.707,0,0,1,.846-.034Z" transform="translate(-851.542 -226.174)" fill="#d54f1f"/></g></g><g transform="translate(23.377 41.153)"><g transform="translate(0)"><ellipse cx="1.411" cy="0.964" rx="1.411" ry="0.964" fill="#ffa17a"/></g></g><g transform="translate(33.425 41.153)"><g transform="translate(0)"><ellipse cx="1.411" cy="0.964" rx="1.411" ry="0.964" fill="#ff9c5d"/></g></g><g transform="translate(27.325 42.343)"><g transform="translate(0)"><path d="M854.362,230.423a2.46,2.46,0,0,0,.9-.168l-.074-.167a1.979,1.979,0,0,1-2.5-.826l-.155.1A2.088,2.088,0,0,0,854.362,230.423Z" transform="translate(-852.531 -229.261)" fill="#00347e"/></g></g><g transform="translate(30.432 35.199)"><g transform="translate(0)"><ellipse cx="3.234" cy="3.234" rx="3.234" ry="3.234" fill="#fffbf5"/></g></g><g transform="translate(30.385 35.152)"><g transform="translate(0)"><path d="M842.552,221.99a3.281,3.281,0,1,0-3.282-3.281h0A3.284,3.284,0,0,0,842.552,221.99Zm0-6.477a3.191,3.191,0,1,1-3.189,3.193v0a3.193,3.193,0,0,1,3.189-3.183Z" transform="translate(-839.27 -215.427)" fill="#00457f"/></g></g><g transform="translate(22.965 35.199)"><g transform="translate(0)"><ellipse cx="3.234" cy="3.234" rx="3.234" ry="3.234" fill="#fffbf5"/></g></g><g transform="translate(22.918 35.152)"><path d="M856.919,221.99a3.281,3.281,0,1,0-3.281-3.281h0A3.285,3.285,0,0,0,856.919,221.99Zm0-6.477a3.191,3.191,0,1,1-3.192,3.191v0a3.194,3.194,0,0,1,3.192-3.183Z" transform="translate(-853.637 -215.427)" fill="#00457f"/></g><g transform="translate(31.928 38.412)"><g transform="translate(0)"><path d="M845.464,222.5a.828.828,0,0,1,.807-.619.8.8,0,0,1,.742.528l.169-.069a.981.981,0,0,0-.911-.642,1.009,1.009,0,0,0-.981.758Z" transform="translate(-845.289 -221.698)" fill="#00347e"/></g></g><g transform="translate(25.974 38.412)"><g transform="translate(0)"><path d="M856.92,222.5a.827.827,0,0,1,.806-.619.8.8,0,0,1,.742.528l.168-.069a.981.981,0,0,0-.911-.642,1.008,1.008,0,0,0-.981.758Z" transform="translate(-856.745 -221.698)" fill="#00347e"/></g></g><g transform="translate(32.497 37.214)"><g transform="translate(0)"><path d="M845.88,220.12l.141-.116a1.474,1.474,0,0,0-1.963-.4l.073.167A1.289,1.289,0,0,1,845.88,220.12Z" transform="translate(-844.058 -219.393)" fill="#00347e"/></g></g><g transform="translate(25.65 37.179)"><g transform="translate(0)"><path d="M857.3,220.026a1.315,1.315,0,0,1,1.788-.288l.076-.165a1.482,1.482,0,0,0-2,.332Z" transform="translate(-857.164 -219.327)" fill="#00347e"/></g></g><g transform="translate(29.379 38.397)"><g transform="translate(0)"><path d="M852.743,221.976l.074-.1a.832.832,0,0,0-1.1,0l.086.088A.71.71,0,0,1,852.743,221.976Z" transform="translate(-851.718 -221.67)" fill="#00457f"/></g></g><g transform="translate(46.518 49.226)"><g transform="translate(0)"><path d="M820.237,244.35a2.671,2.671,0,0,0,.182-1.847l-.131.029a2.625,2.625,0,0,1-.161,1.733Z" transform="translate(-820.127 -242.503)" fill="#ff6700"/></g></g><g transform="translate(46.842 49.61)"><g transform="translate(0)"><path d="M818.284,244.3a1.178,1.178,0,0,0,.856-.422.864.864,0,0,0,.147-.63l-.09.018a.775.775,0,0,1-.132.559,1.086,1.086,0,0,1-.785.392Z" transform="translate(-818.28 -243.243)" fill="#fca73b"/></g></g><g transform="translate(46.848 50.033)" opacity="0.19" style="isolation:isolate"><g transform="translate(0)"><path d="M810.352,249.664c-.653,0-1.513-1.239-1.513-1.239a3.629,3.629,0,0,0-1-3.786.591.591,0,0,1,.345-.1h-.31a1.827,1.827,0,0,0,1-.482c.653.757,1.273,1.515,1.927,2.237a3.879,3.879,0,0,0,.93.9c.206.137.447.241.654.378a2.9,2.9,0,0,1,.481.448c.345.379.724.756,1.068,1.135a1.32,1.32,0,0,1,.31.448,1.1,1.1,0,0,1,.034.345l-.1.033A7.56,7.56,0,0,0,810.352,249.664Z" transform="translate(-807.84 -244.055)" fill="#ff6700"/></g></g><g transform="translate(11.833 41.878)"><g transform="translate(0)"><path d="M883.391,228.947l2.169-.448-.028-.133-2.169.447Z" transform="translate(-883.364 -228.366)" fill="#d75527"/></g></g><g transform="translate(10.604 59.472)"><path d="M884.492,262.891a4.684,4.684,0,0,0,2.086-.557l-.071-.118c-.02.012-1.978,1.136-3.5.106l-.077.112A2.744,2.744,0,0,0,884.492,262.891Z" transform="translate(-882.926 -262.216)" fill="#ed9232"/></g><g transform="translate(0.082 42.212)"><path d="M855.631,234.317s.785-3.1,7.435-3.443a22.847,22.847,0,0,0,5.954-1.582,5.822,5.822,0,0,1,5.61,1.134l4.165,3.547s2.237,3.268,4.71,3.819c0,0,.345,1.446-1.513,1l.653,1.032a6.936,6.936,0,0,1,.86,2.1l.212,1a1.444,1.444,0,0,1-.07,1.136c-.24.377-.9.516-1.651-.31,0,0-.241,2.306-2.135.343l-.589-.964.242,1.307a1.239,1.239,0,0,1-.2.862c-.275.343-.757.588-1.548-.414l-2.031-3.819.93,2.822s1,1.238.481,1.721c0,0-.723.785-2.238-1l-1.411-2.649a40.793,40.793,0,0,1-3.718-5.888l-.895-.171a7.9,7.9,0,0,1-3.476,1.857s-1.927.724-2.065,1.79a9.705,9.705,0,0,1-4.067-2.448,30.431,30.431,0,0,0-4.055-1.711Z" transform="translate(-855.225 -229.009)" fill="#ffaf97"/></g><g transform="translate(0 42.157)"><path d="M876.611,245.8a.746.746,0,0,0,.536-.2c.532-.5-.369-1.67-.471-1.8L876,241.751l1.657,3.115q.589.748,1.076.747h0a.752.752,0,0,0,.589-.324,1.31,1.31,0,0,0,.221-.911l-.175-.948.392.646c.64.667,1.166.926,1.57.785.45-.155.612-.746.663-1.018a1.478,1.478,0,0,0,1.111.526.721.721,0,0,0,.554-.328,1.5,1.5,0,0,0,.076-1.191l-.2-.993a6.98,6.98,0,0,0-.87-2.122l-.565-.9a1.327,1.327,0,0,0,1.225-.2,1.056,1.056,0,0,0,.21-.919v-.041H883.5c-2.424-.537-4.651-3.76-4.673-3.792l-.014-.014-4.165-3.544a5.939,5.939,0,0,0-5.68-1.146,22.571,22.571,0,0,1-5.935,1.57c-6.553.34-7.444,3.311-7.491,3.488l-.441,1.14.081.016c.9.167,3.69,2.71,3.719,2.736a4.938,4.938,0,0,0,4.435,1.427l.043-.011v-.045c.129-1.015,2-1.727,2.021-1.735a8.113,8.113,0,0,0,3.474-1.849l.822.159a41.406,41.406,0,0,0,3.711,5.866l1.407,2.639a2.751,2.751,0,0,0,1.794,1.209Zm-.865-4.816-.126.053.942,2.844c.265.33.873,1.268.487,1.627a.618.618,0,0,1-.46.157c-.329-.01-.889-.216-1.678-1.148l-1.4-2.638a40.734,40.734,0,0,1-3.713-5.888l-.014-.033-.969-.187-.026.028a7.807,7.807,0,0,1-3.445,1.839c-.084.031-1.919.73-2.108,1.8a4.852,4.852,0,0,1-4.263-1.4c-.114-.1-2.7-2.465-3.707-2.748l.392-1c0-.031.865-3.054,7.372-3.392a22.877,22.877,0,0,0,5.98-1.59,5.807,5.807,0,0,1,5.538,1.128l4.155,3.533c.124.176,2.306,3.265,4.71,3.831a.891.891,0,0,1-.18.75c-.232.228-.654.271-1.258.126l-.165-.039.746,1.178a6.866,6.866,0,0,1,.842,2.09l.2,1a1.4,1.4,0,0,1-.057,1.083.589.589,0,0,1-.452.267,1.433,1.433,0,0,1-1.095-.589l-.1-.112-.016.151c0,.01-.1.873-.589,1.044-.355.122-.832-.127-1.425-.74l-.767-1.27.308,1.674a1.179,1.179,0,0,1-.2.808.611.611,0,0,1-.477.269h0c-.279,0-.6-.23-.964-.685Z" transform="translate(-855.097 -228.904)" fill="#d54f1f"/></g><g transform="translate(24.419 52.201)"><g transform="translate(0)"><path d="M860.941,253l.128-.051-.826-2.031-1.552-2.693-.118.069,1.549,2.683Z" transform="translate(-858.572 -248.227)" fill="#d54f1f"/></g></g><g transform="translate(22.625 53.514)"><g transform="translate(0 0)"><rect width="3.788" height="0.135" transform="translate(1.788 3.403) rotate(-118.17)" fill="#d54f1f"/></g></g><g transform="translate(13.636 47.762)"><g transform="translate(0)"><path d="M882.2,239.686a2.8,2.8,0,0,0,1,1.513" transform="translate(-882.201 -239.686)" fill="#ffc75c"/></g></g><g transform="translate(13.561 47.752)"><g transform="translate(0)"><path d="M883.141,241.241l.09-.1a2.826,2.826,0,0,1-.981-1.472l-.136.02A2.9,2.9,0,0,0,883.141,241.241Z" transform="translate(-882.114 -239.667)" fill="#d54f1f"/></g></g><g transform="translate(24.85 49.188)"><g transform="translate(0 0)"><rect width="3.437" height="0.09" transform="translate(1.962 2.873) rotate(-124.81)" fill="#d54f1f"/></g></g><g transform="translate(25.579 50.205)" opacity="0.19" style="isolation:isolate"><g transform="translate(0)"><path d="M858.569,245.521a2.442,2.442,0,0,1-2.786-1.134l1.238,1.79C857.055,246.21,858.259,246.624,858.569,245.521Z" transform="translate(-855.782 -244.387)" fill="#ff6700"/></g></g><g transform="translate(13.118 51.273)"><g transform="translate(0)"><path d="M880.085,248.223a3.343,3.343,0,0,1,2.551-1.647l-.011-.135a3.488,3.488,0,0,0-2.673,1.725Z" transform="translate(-879.951 -246.441)" fill="#d54f1f"/></g></g><g transform="translate(29.478 5.604)"><path d="M827.306,179.387h0c1.949.347,6.321-2.918,7.342-7.715l2.652-10.489-17.688-2.6,1.044,14.1C820.728,175.877,824.116,179.51,827.306,179.387Z" transform="translate(-819.612 -158.581)" fill="#ffaf97"/></g><g transform="translate(42.371 14.283)"><g transform="translate(0 0)"><ellipse cx="1.593" cy="2.017" rx="1.593" ry="2.017" transform="matrix(-0.87, -0.493, 0.493, -0.87, 2.772, 5.079)" fill="#ffaf97"/></g></g><g transform="translate(44.496 18.119)"><g transform="translate(0)"><ellipse cx="0.552" cy="0.552" rx="0.552" ry="0.552" fill="#fff"/></g></g><g transform="translate(43.229 31.82)"><g transform="translate(0)"><path d="M817.85,209.016l3.952,15.932h-2.855l-2.973-12.179Z" transform="translate(-815.975 -209.016)" fill="#ff409e"/></g></g><g transform="translate(38.793 16.355)"><g transform="translate(0)"><path d="M832.4,183.934l1.29-.718a.769.769,0,0,0,.391-.548.86.86,0,0,0-.2-.718,3.373,3.373,0,0,1-.423-2.651l-.125-.034a3.445,3.445,0,0,0,.451,2.77.732.732,0,0,1,.174.611.642.642,0,0,1-.325.456l-1.291.718Z" transform="translate(-832.342 -179.265)" fill="#d54f1f"/></g></g><g transform="translate(41.472 15.927)"><g transform="translate(0)"><g transform="translate(0.006 0.022)"><ellipse cx="0.437" cy="0.623" rx="0.437" ry="0.623" transform="translate(0.87 1.329) rotate(-174.155)" fill="#031f59"/></g><path d="M829.1,179.814c.26,0,.495-.274.532-.635h0a.838.838,0,0,0-.09-.49.444.444,0,0,0-.339-.245.411.411,0,0,0-.309.1.8.8,0,0,0-.261.532.841.841,0,0,0,.09.49.443.443,0,0,0,.339.245Zm.4-.648c-.031.307-.22.531-.428.517a.319.319,0,0,1-.239-.18.714.714,0,0,1-.075-.413.669.669,0,0,1,.215-.445.3.3,0,0,1,.213-.072.32.32,0,0,1,.239.18.709.709,0,0,1,.075.413Z" transform="translate(-828.624 -178.442)" fill="#031f59"/></g></g><g transform="translate(35.336 15.511)"><g transform="translate(0)"><g transform="translate(0.06 0.061)"><ellipse cx="0.623" cy="0.437" rx="0.623" ry="0.437" transform="translate(0.011 1.254) rotate(-90.503)" fill="#031f59"/></g><path d="M840.943,179.017h0c.277,0,.5-.312.5-.692h0a.8.8,0,0,0-.211-.555.418.418,0,0,0-.294-.129h0a.445.445,0,0,0-.361.213.839.839,0,0,0-.136.479C840.44,178.712,840.667,179.017,840.943,179.017Zm.37-.691c0,.308-.163.56-.368.561h0c-.2,0-.373-.248-.376-.555a.7.7,0,0,1,.113-.4.32.32,0,0,1,.255-.157h0a.29.29,0,0,1,.2.091.664.664,0,0,1,.172.463Z" transform="translate(-840.437 -177.641)" fill="#031f59"/></g></g><g transform="translate(41.019 14.322)"><g transform="translate(0)"><path d="M828.826,176.12a2.437,2.437,0,0,0-.643-.425,3.644,3.644,0,0,0-.688-.24,3.7,3.7,0,0,0-.721-.1,2.473,2.473,0,0,0-.766.083l-.009.038c.466.13.936.24,1.4.36s.94.225,1.414.322Z" transform="translate(-825.999 -175.354)" fill="#031f59"/></g></g><g transform="translate(34.376 14.001)"><g transform="translate(0)"><path d="M841.546,174.939a2.456,2.456,0,0,0-.748-.187,3.588,3.588,0,0,0-.728,0,3.666,3.666,0,0,0-.714.146,2.464,2.464,0,0,0-.694.333l0,.039c.482-.032.963-.086,1.444-.128s.962-.1,1.44-.167Z" transform="translate(-838.661 -174.736)" fill="#031f59"/></g></g><g transform="translate(36.255 21.268)"><g transform="translate(0)"><path d="M834.263,188.717s2.68.759,3.3.432C837.56,189.149,835.213,193.012,834.263,188.717Z" transform="translate(-834.263 -188.717)" fill="#031f59"/></g></g><g transform="translate(28.849 4.348)"><g transform="translate(0)"><path d="M841.447,159.828a7.5,7.5,0,0,1-2.5,3.982,5.257,5.257,0,0,1-1.628,1.214,1.937,1.937,0,0,1-1.938-.18,7.779,7.779,0,0,0,1.5-3.4,10.813,10.813,0,0,1-4.317,3.6c-1.37.5-3.5,1.1-4.818.473-.288-.136-.009-.98-.2-1.238a2.316,2.316,0,0,1-.333-1.043c-.3-2.033-.575-4.232.4-6.039a1.278,1.278,0,0,1,.32-.418,1.431,1.431,0,0,1,.625-.226,23.083,23.083,0,0,1,9.857.309,4.013,4.013,0,0,1,1.336.532,4.274,4.274,0,0,1,1.2,1.564" transform="translate(-826.937 -156.164)" fill="#031f59"/></g></g><g transform="translate(41.849 6.785)"><g transform="translate(0)"><path d="M820.3,161.934a9.47,9.47,0,0,1-1.632,4.9l1.72.425a.387.387,0,0,0,.242.007.377.377,0,0,0,.154-.164,9.335,9.335,0,0,0,1.161-2.883,11.914,11.914,0,0,1-.662,3.876c-.015.07-.209.518-.168.576a.229.229,0,0,0,.254.072c.556-.115,1.1.635,1.656.52.162-.033.554-1.325.688-1.423a1.116,1.116,0,0,0,.35-.676,19.178,19.178,0,0,0,.409-4.038,2.608,2.608,0,0,0-.377-1.713,1.755,1.755,0,0,0-1.539-.555,4.637,4.637,0,0,0-1.6.552" transform="translate(-818.667 -160.853)" fill="#031f59"/></g></g><g transform="translate(36.525 6.581)"><g transform="translate(0)"><path d="M832.72,160.461s-1.262,5.418-5.831,7.043a4.042,4.042,0,0,1-2.14-.4s2.786-2.4,2.3-5.118Z" transform="translate(-824.75 -160.461)" fill="#031f59"/></g></g><g transform="translate(40.636 9.183)"><g transform="translate(0)"><path d="M826.072,165.466s-1.219,3.606-2.827,4.455l2.381.462a5.687,5.687,0,0,0,2.262-4.779Z" transform="translate(-823.245 -165.466)" fill="#031f59"/></g></g><g transform="translate(28.003 13.122)"><g transform="translate(0 0)"><ellipse cx="1.916" cy="1.581" rx="1.916" ry="1.581" transform="translate(0.924 4.482) rotate(-103.951)" fill="#ffaf97"/></g></g><g transform="translate(28.818 16.389)"><g transform="translate(0 0)"><ellipse cx="0.58" cy="0.58" rx="0.58" ry="0.58" transform="matrix(-0.999, -0.036, 0.036, -0.999, 1.16, 1.202)" fill="#fff"/></g></g></g><g transform="translate(98.534 9.187)"><g transform="translate(0)"><path d="M773.643,164.462l-1.692-1.253-1.117-.3a.568.568,0,0,0-.645.3h0a.269.269,0,0,0,.126.345l1.226.527.845,1.3-1.8-.583-1.094.567a.345.345,0,0,0-.191.4h0a.373.373,0,0,0,.491.293l.786-.246,3.078,1.089s-3.792.03-3.478,1.327l2.271-.453.534-1.781Z" transform="translate(-769.288 -162.889)" fill="#f7ad83"/></g></g><g transform="translate(83.365 38.476)"><g transform="translate(0 0)"><ellipse cx="0.579" cy="0.579" rx="0.579" ry="0.579" transform="matrix(-0.998, -0.056, 0.056, -0.998, 1.155, 1.22)" fill="#fff"/></g></g><g transform="translate(89.458 33.799)"><g transform="translate(0)"><path d="M795.01,210.239a.776.776,0,0,0-.147.04Z" transform="translate(-794.863 -210.239)" fill="#ff7434"/></g></g><g transform="translate(85.52 42.758)"><g transform="translate(0)"><ellipse cx="0.217" cy="0.217" rx="0.217" ry="0.217" fill="#0061bc"/></g></g><g transform="translate(74.881 55.691)"><g transform="translate(0)"><path d="M816.334,252.891l3.075,1.572.488-.528-.851-.747s-1.191-.718-1.238-.745c-.071-.029-.7-.087-.7-.087Z" transform="translate(-816.334 -252.355)" fill="#ff409e"/></g></g><g transform="translate(74.309 56.604)"><g transform="translate(0)"><path d="M817.993,254.111l3.078,1.524-.483.866-.635.134s-1-.321-1.091-.351a5.659,5.659,0,0,1-.982-.562.875.875,0,0,1-.217-.447c-.017-.122-.076-.366-.076-.366Z" transform="translate(-817.587 -254.111)" fill="#ff409e"/></g></g><g transform="translate(72.17 57.041)"><g transform="translate(0)"><path d="M820.9,254.953s-1.492,2.5-2.594,4.08l2.529,1.4a12.4,12.4,0,0,0,2.722-3.783Z" transform="translate(-818.302 -254.953)" fill="#ff409e"/></g></g><g transform="translate(74.051 57.267)"><g transform="translate(0)"><path d="M818.107,255.387l3.472,1.811-.714.25a1.621,1.621,0,0,1-1.249-.118l-.563-.3a1.747,1.747,0,0,1-.912-1.4Z" transform="translate(-818.107 -255.387)" fill="#ffc422"/></g></g><g transform="translate(74.075 55.215)"><g transform="translate(0)"><path d="M820.029,252.434l-1.833-.9a.94.94,0,0,0-1.227.366l-.91,1.591.4.215.91-1.591c0-.024.025-.022.051-.045.517.246,2.115,1.035,2.7,1.334a.338.338,0,0,1-.056.142l-.984,1.635.452.122.907-1.543a.9.9,0,0,0,.09-.743A1,1,0,0,0,820.029,252.434Z" transform="translate(-816.059 -251.439)" fill="#ffc422"/></g></g><g transform="translate(81.081 40.134)"><g transform="translate(0 0)"><g transform="translate(0 0)"><ellipse cx="0.313" cy="0.313" rx="0.313" ry="0.313" transform="matrix(-0.998, -0.056, 0.056, -0.998, 0.626, 0.661)" fill="#0061bc"/></g></g></g><g transform="translate(81.993 49.592)"><g transform="translate(0)"><path d="M808.112,241.146l-.025.023c-.083.188-.55,1.2-.844,1.715l-.577-.467a4.18,4.18,0,0,1-.047-.9,3.4,3.4,0,0,1,.351-.656,1.831,1.831,0,0,1,.376-.244" transform="translate(-806.601 -240.621)" fill="#0af"/></g></g><g transform="translate(85.408 39.988)"><g transform="translate(0)"><path d="M800.924,224.307a2.732,2.732,0,0,0,.716-1.578l-.522-.584-.512.092-.37.148.037.2Z" transform="translate(-800.235 -222.145)" fill="#ffcdaa"/></g></g><g transform="translate(77.817 46.751)"><g transform="translate(0)"><path d="M814.88,237.456l.732-2.3s.611.734.633.783.02.943.017.991a2.192,2.192,0,0,1-.062.238Z" transform="translate(-814.88 -235.155)" fill="#0af"/></g></g><g transform="translate(77.277 40.872)"><g transform="translate(0)"><path d="M803.07,232.786l1.622-5.269,1.04-2.867c.8.015,3.252.208,4.35,1.973l.682-.424c-1.57-2.524-5.181-2.36-5.336-2.349l-.265.014-1.232,3.4-1.629,5.287Z" transform="translate(-802.302 -223.845)" fill="#0061bc"/></g></g><g transform="translate(98.428 17.821)"><g transform="translate(0 0)"><rect width="0.803" height="4.843" transform="translate(0.132 1.588) rotate(-99.462)" fill="#0061bc"/></g></g><g transform="translate(102.087 17.163)"><g transform="translate(0 0)"><ellipse cx="0.313" cy="0.313" rx="0.313" ry="0.313" transform="matrix(-0.998, -0.056, 0.056, -0.998, 0.626, 0.661)" fill="#0061bc"/></g></g><g transform="translate(97.869 8.14)"><g transform="translate(0)"><path d="M770.281,169.468l-.061-.631s2.319-3.492,2.277-3.591c-.042-.123-1.977-3.949-1.977-3.949l-2.2-.412a.5.5,0,0,0-.606.473h0a.282.282,0,0,0,.2.277l1.664.455.418,1.593-1.861-1.263-1.617-.018a.337.337,0,0,0-.3.2h0a.342.342,0,0,0,.239.472l1.15.161,1.344,1.451-1.988-.715-1.185.031a.28.28,0,0,0-.278.226h0a.283.283,0,0,0,.221.35l1.053.179,1.107,1.365a3.529,3.529,0,0,0-1.744,2.269l.142,1.77Z" transform="translate(-765.497 -160.873)" fill="#ffcdaa"/></g></g><g transform="translate(92.317 10.792)"><g transform="translate(0)"><path d="M786.166,165.976s-2.323,3.086-.875,8.149l1.806-1.806a14.368,14.368,0,0,1,.217-2.448A33.253,33.253,0,0,0,786.166,165.976Z" transform="translate(-784.816 -165.976)" fill="#00457f"/></g></g><g transform="translate(87.913 33.006)"><g transform="translate(0)"><path d="M756.86,210.755l6.909-2.043,7.238,1.448,6.149,2.172s1.447,6.511-.721,7.6-7.962,1.81-8.32,2.172-3.619.359-5.066-.362-2.534-1.448-3.258-1.81a48.662,48.662,0,0,1-4.339-4.343Z" transform="translate(-755.452 -208.712)" fill="#ffaf97"/></g></g><g transform="translate(74.384 67.748)"><g transform="translate(0)"><path d="M800.41,282.816a64.6,64.6,0,0,1-7.449-7.264H774.718l1.75,7.264Z" transform="translate(-774.718 -275.552)" fill="#0075dc"/></g></g><g transform="translate(100.635 15.381)"><g transform="translate(0)"><path d="M768.363,176.729l1.82-.593a1.928,1.928,0,0,0-3.3-.649,1.894,1.894,0,0,0-.44.992Z" transform="translate(-766.438 -174.805)" fill="#002168"/></g></g><g transform="translate(105.377 15.182)"><g transform="translate(0)"><path d="M759.578,176.669l.053-.066-.02.023A.384.384,0,0,1,759.578,176.669Zm-.37-.323,1.847-.568a1.891,1.891,0,0,0-.605-.9,1.922,1.922,0,0,0-2.7.221l-.054.067a1.828,1.828,0,0,0-.394.936Z" transform="translate(-757.305 -174.422)" fill="#002168"/></g></g><g transform="translate(99.74 14.727)"><g transform="translate(0 0)"><rect width="0.79" height="3.306" rx="0.329" transform="translate(0.215 1.659) rotate(-105.78)" fill="#002168"/></g></g><g transform="translate(106.335 14.824)"><g transform="translate(0 0)"><rect width="3.306" height="0.79" rx="0.329" transform="translate(3.293 1.081) rotate(-174.89)" fill="#002168"/></g></g><g transform="translate(105.021 18.155)"><g clip-path="url(#k)"><g transform="translate(0)"><rect width="2.701" height="4.965" fill="#ffb65e"/></g></g></g><g transform="translate(92.371 15.536)" opacity="0.38" style="isolation:isolate"><g transform="translate(0)"><path d="M787.66,175.1s-2.366-.063-2,2.717C785.667,177.82,785.923,175.511,787.66,175.1Z" transform="translate(-785.624 -175.103)" fill="#d98a32"/></g></g><g transform="translate(93.473 22.81)"><g transform="translate(0)"><path d="M786.536,189.4l-.957-.3v.22a2.461,2.461,0,0,0,.565.106A2.6,2.6,0,0,0,786.536,189.4Z" transform="translate(-785.579 -189.097)" fill="#ffc75c"/></g></g><g transform="translate(92.068 6.485)"><path d="M757.67,157.69l-1.9,8.61a2.571,2.571,0,0,0-.388-.053c-1.507-.03,0,1.412-.052,3.132-.03,1.5-.783.161-.638,3.017v.365l.961-.329a2.536,2.536,0,0,1-.391.036,2.292,2.292,0,0,1-.566-.082l-1.01,13.634,13.463,1.616-.934-5.031c.286.033.723.865,1.01.849,2.563-.151,3.777-3.411,4.5-5.8l.056-14.665v-.2l.36-.1-.251-1.951Z" transform="translate(-753.686 -157.69)" fill="#ffaf97"/></g><g transform="translate(101.463 17.046)"><g transform="translate(0)"><ellipse cx="0.642" cy="0.734" rx="0.642" ry="0.734" fill="#031f59"/></g></g><g transform="translate(107.377 16.96)"><g transform="translate(0)"><ellipse cx="0.599" cy="0.674" rx="0.599" ry="0.674" fill="#031f59"/></g></g><g transform="translate(100.631 14.899)"><g transform="translate(0)"><path d="M769.807,174.808l1.92-.342-.164-.588-1.92.342Z" transform="translate(-769.643 -173.878)" fill="#031f59"/></g></g><g transform="translate(108.067 14.769)"><g transform="translate(0 0)"><g transform="translate(0 0)"><rect width="1.57" height="0.602" transform="translate(1.549 0.848) rotate(-170.709)" fill="#031f59"/></g></g></g><g transform="translate(104.932 24.271)"><g transform="translate(0)"><path d="M763.108,191.907l-2.454.194S762.569,194.3,763.108,191.907Z" transform="translate(-760.654 -191.907)" fill="#fbfffb"/></g></g><g transform="translate(115.608 53.67)"><g transform="translate(0)"><path d="M724.158,249.257,730,275.12l-6.294,4.9-8.446-17.941-.658-6.771-.658-4.826s1.645-.865,1.441-1.731S724.158,249.257,724.158,249.257Z" transform="translate(-713.949 -248.467)" fill="#ffaf97"/></g></g><g transform="translate(116.733 40.017)"><g transform="translate(0)"><path d="M727.15,222.2l1.29.849a9.047,9.047,0,0,1,3.093,4.583l2.681,9.228-8.883.941-.273-6.58.688-4.622C725.853,225.79,727.15,222.2,727.15,222.2Z" transform="translate(-725.057 -222.2)" fill="#1c5cc1"/></g></g><g transform="translate(112.914 85.343)"><path d="M674.508,309.4l26.616,3.125a9.623,9.623,0,0,1,7.258,11.512v0l-7.146,40.378-10.692,1.517V328.145l-18.454-.172-8.278-15.134Z" transform="translate(-663.812 -309.402)" fill="#0098ff"/></g><g transform="translate(76.97 34.528)"><path d="M731.049,215.814l1.684-.553c6.208-1.925,8.284-2.612,12.068-3.619-.362-.1,1.53,8.409,7.6,9.672,4.415.918,9.1-.592,8.768-8.346,0-.148,11.255,4.129,11.255,4.129l4.215,46.182-38.71,5.063-7.33-30.334Z" transform="translate(-730.595 -211.641)" fill="#1c5cc1"/></g><g transform="translate(77.059 53.617)"><path d="M738,248.366s4.606,17.737,37.878,34.016L736.447,286l-7.238-30.025Z" transform="translate(-729.209 -248.366)" fill="#134aa3"/></g><g transform="translate(71.815 36.329)"><path d="M800.365,232.516l14.93.605-1.754-18.016-6.82,2.073a8.445,8.445,0,0,0-2.135.987,9.058,9.058,0,0,0-4.1,8.607Z" transform="translate(-800.365 -215.105)" fill="#1c5cc1"/></g><g transform="translate(107.679 81.142)"><g transform="translate(0)"><path d="M737.067,301.977l7.771,2.632c1.194.487,1.109,1.569,1.553,2.78h0a1.786,1.786,0,0,1-.843,2.194l-1.645.862a1.771,1.771,0,0,1-2.393-.737c-.021-.04-.041-.081-.059-.122l-.329-.727-3.405-.507a3.879,3.879,0,0,1-2.885-2.072l-.211-.415-2.833-.421,1.514-4.126,3,.448A3.362,3.362,0,0,1,737.067,301.977Z" transform="translate(-731.789 -301.319)" fill="#ffaf97"/></g></g><g transform="translate(86.833 44.893)"><g transform="translate(0 0)"><rect width="11.767" height="0.402" transform="translate(1.332 11.737) rotate(-96.501)" fill="#132787"/></g></g><g transform="translate(93.72 31.591)"><g transform="translate(0)"><path d="M785.788,206.438c.26-.177.458-.329.6-.447A5.933,5.933,0,0,1,785.788,206.438Z" transform="translate(-785.788 -205.991)" fill="none"/></g></g><g transform="translate(71.802 54.079)"><path d="M766.965,249.253l.737,18.18,24.346,10.035v4.31l-30.32-3.619a8.843,8.843,0,0,1-7.758-7.863l-2.043-19.569Z" transform="translate(-751.926 -249.253)" fill="#ffaf97"/></g><g transform="translate(71.332 50.644)"><g transform="translate(0)"><path d="M814.025,248.882,798,250.064a.813.813,0,0,1-.869-.741l-.411-4.836a.657.657,0,0,1,.595-.716l.017,0,15.973-1.125Z" transform="translate(-796.713 -242.645)" fill="#132787"/></g></g><g transform="translate(105.884 17.645)"><g transform="translate(0)"><path d="M759.476,184.557c1.2-.408,1.888-.956,2.044-1.629a2.269,2.269,0,0,0-.843-1.968,1.98,1.98,0,0,1-.491-1.43v-.369h-.241v.362a2.218,2.218,0,0,0,.557,1.6,2.06,2.06,0,0,1,.782,1.749c-.135.586-.77,1.076-1.886,1.456Z" transform="translate(-759.398 -179.16)" fill="#d54f1f"/></g></g><g transform="translate(108.89 22.188)"><g transform="translate(0)"><path d="M756.236,190.03l.392-2.129-.132,3.945-1.1-.151Z" transform="translate(-755.4 -187.901)" fill="#00457f"/></g></g><g transform="translate(94.394 21.34)" opacity="0.19" style="isolation:isolate"><g transform="translate(0)"><path d="M774.074,198.849H775.8l-1.293-5.014-9.367-7.567.369,4.53a8.708,8.708,0,0,0,5.751,7.586A8.8,8.8,0,0,0,774.074,198.849Z" transform="translate(-765.141 -186.268)" fill="#ff6700"/></g></g><g transform="translate(104.666 32.85)"><g transform="translate(0)"><path d="M764.306,213.3l.395-.074-.892-4.81-.395.074Z" transform="translate(-763.414 -208.413)" fill="#d54f1f"/></g></g><g transform="translate(95.868 14.756)"><g transform="translate(0)"><path d="M782.769,173.6l.023.2A1.389,1.389,0,0,0,782.769,173.6Z" transform="translate(-782.769 -173.603)" fill="#00418b"/></g></g><g transform="translate(92.539 14.983)"><path d="M787.619,174.039a1.628,1.628,0,0,0-.7.165,7.307,7.307,0,0,0,.28.816,1.679,1.679,0,0,0,.635.852.98.98,0,0,0,.283.1v-1.855A1.643,1.643,0,0,0,787.619,174.039Z" transform="translate(-786.915 -174.039)" fill="#ffc75c"/></g><g transform="translate(99.658 16.309)"><g transform="translate(0)"><path d="M766.125,180.659a3.3,3.3,0,0,0,3.245-3.905l-.031-.164h-6.432l-.029.167a3.668,3.668,0,0,0-.052.585h0a3.3,3.3,0,0,0,3.283,3.317ZM769,176.992a3,3,0,0,1,.023.383,2.9,2.9,0,0,1-2.9,2.883h-.014a2.9,2.9,0,0,1-2.884-2.913h0a3.475,3.475,0,0,1,.022-.353Z" transform="translate(-762.825 -176.59)" fill="#fff"/></g></g><g transform="translate(106.742 16.309)"><g transform="translate(0)"><path d="M753.125,180.647a3.2,3.2,0,0,0,3.079-3.3,3.275,3.275,0,0,0-.053-.588l-.03-.165h-6l-.029.166a3.492,3.492,0,0,0-.052.586A3.2,3.2,0,0,0,753.125,180.647Zm2.657-3.655a2.944,2.944,0,0,1,.021.351,2.687,2.687,0,1,1-5.356,0,3.343,3.343,0,0,1,.022-.351Z" transform="translate(-750.046 -176.59)" fill="#fff"/></g></g><g transform="translate(104.274 16.309)"><g transform="translate(0)"><rect width="4.876" height="0.402" fill="#fff"/></g></g><g transform="translate(93.831 14.546)"><g transform="translate(0 0)"><rect width="6.413" height="0.401" transform="translate(6.154 2.19) rotate(-163.655)" fill="#fff"/></g></g><g transform="translate(120.116 55.072)" opacity="0.19" style="isolation:isolate"><g transform="translate(0)"><path d="M730.316,251.164l2.171,12.3-2.984-1.49-1-10.446Z" transform="translate(-728.507 -251.164)" fill="#ff6700"/></g></g><g transform="translate(120.175 51.359)"><g transform="translate(0)"><path d="M729.922,247.678l-5.2.862-.188-4.083,4.866-.435a.659.659,0,0,1,.694.569l.411,2.182A.763.763,0,0,1,729.922,247.678Z" transform="translate(-724.53 -244.021)" fill="#132787"/></g></g><g transform="translate(119.31 46.697)"><g transform="translate(0)"><path d="M736.158,244.252l.4-.038-.852-9.163-.4.038Z" transform="translate(-735.306 -235.051)" fill="#132787"/></g></g><g transform="translate(115.056 65.606)"><g transform="translate(0)"><path d="M685.266,271.431l29.524.553-5.1,22.56-28.577-.151Z" transform="translate(-681.118 -271.431)" fill="#fff"/></g></g><g transform="translate(116.138 86.889)"><g transform="translate(0)"><rect width="26.409" height="0.402" fill="#b9d4ef"/></g></g><g transform="translate(83.577 85.406)"><path d="M688.384,312.826l40.52-3.258c5.329-.546,10.738,3.9,11.722,9.166l9.133,49.439-9.436,2.695S729.989,345.383,724.2,328.38l-23.974.135c-4.823.171-8.673-2.918-9.906-7.9Z" transform="translate(-688.384 -309.522)" fill="#0af"/></g><g transform="translate(89.507 88.162)"><path d="M748.783,368.664l.763-.251-13.923-42.29a4.274,4.274,0,0,0-4.175-2.908l-18.832.628c-3.935.232-6.931-.638-8.923-2.58a9.4,9.4,0,0,1-2.6-6.411l-.8-.028a10.056,10.056,0,0,0,2.833,7.007c2.16,2.111,5.364,3.06,9.528,2.814l18.822-.627a3.439,3.439,0,0,1,3.386,2.358Z" transform="translate(-700.29 -314.825)" fill="#1c5cc1"/></g><g transform="translate(88.974 75.279)"><g transform="translate(0)"><path d="M785.073,295.992a5.8,5.8,0,0,1,5.528-5.551v-.4a6.2,6.2,0,0,0-5.927,5.906Z" transform="translate(-784.674 -290.039)" fill="#d54f1f"/></g></g><g transform="translate(91.676 76.392)"><g transform="translate(0)"><path d="M778.938,297.056c1.612-5.152,5.775-4.471,5.951-4.439l.072-.4c-.047-.007-4.686-.784-6.407,4.715Z" transform="translate(-778.554 -292.18)" fill="#d54f1f"/></g></g><g transform="translate(94.701 77.154)"><g transform="translate(0)"><path d="M776.334,299.063c.322-4.809,4.179-5.009,4.343-5.015l-.014-.4c-.043,0-4.383.211-4.73,5.389Z" transform="translate(-775.933 -293.647)" fill="#d54f1f"/></g></g><g transform="translate(97.369 77.805)"><g transform="translate(0)"><path d="M771.85,300.03l.4-.03a4.29,4.29,0,0,1,1.3-3.831,3.607,3.607,0,0,1,2.284-.863l.2-.342a3.011,3.011,0,0,0-2.075.443C772.883,296,771.641,297.279,771.85,300.03Z" transform="translate(-771.827 -294.899)" fill="#d54f1f"/></g></g><g transform="translate(100.008 78.101)"><g transform="translate(0)"><path d="M768.812,300.632l.4-.066a3.873,3.873,0,0,1,2.7-4.708l-.1-.389A4.321,4.321,0,0,0,768.812,300.632Z" transform="translate(-768.724 -295.469)" fill="#d54f1f"/></g></g><g transform="translate(79.608 71.988)"><path d="M799.068,287.437c1.909-4.066,7.518-3.266,7.575-3.26l.061-.4c-.06-.009-5.963-.854-8,3.485Z" transform="translate(-798.705 -283.709)" fill="#d54f1f"/></g><g transform="translate(79.79 57.007)" opacity="0.19" style="isolation:isolate"><g transform="translate(0)"><path d="M805.926,254.886l.625,15.256s-4.237-.576-6.7,1.816l-1.092-16.545Z" transform="translate(-798.764 -254.886)" fill="#ff6700"/></g></g><g transform="translate(102.362 24.401)"><g transform="translate(0)"><path d="M766.788,192.158a3.257,3.257,0,0,0-.208,1.883s-3.137.179-3.616-1.883A16.6,16.6,0,0,0,766.788,192.158Z" transform="translate(-762.964 -192.158)" fill="#fff"/></g></g><g transform="translate(93.683 14.687)"><g transform="translate(0)"><path d="M757.461,177.523s.1,4.24,2.678,5.221c0,0,8.225-2.54,11.574.362,0,0,1.56,8.968-6.06,8.554,0,0-10.673,1.6-10.219-13.624v-3.619l1.119-.948Z" transform="translate(-755.42 -173.47)" fill="#031f59"/></g></g><g transform="translate(101.023 23.907)"><g transform="translate(0)"><path d="M764.238,191.207s3.688.752,4.5.235C768.738,191.442,765.949,196.91,764.238,191.207Z" transform="translate(-764.238 -191.207)" fill="#d54f1f"/></g></g><g transform="translate(101.023 23.907)"><g transform="translate(0)"><path d="M768.965,191.534s-1.109.3-4.255-.327a3.868,3.868,0,0,0,.238.716,10.617,10.617,0,0,0,3.253.395.7.7,0,0,0,.42-.293Z" transform="translate(-764.71 -191.207)" fill="#fff"/></g></g><g transform="translate(-3.21 -10.448)"><rect width="152.39" height="116.799" fill="none"/></g><g transform="translate(128.836 72.435)"><ellipse cx="3.76" cy="3.76" rx="3.76" ry="3.76" fill="#d3e2f4"/></g><g transform="translate(33.984 57.913)"><g transform="translate(0)"><g transform="translate(0.047 0.258)"><path d="M889.445,263.61s-6.013-7.661-13.351-6.328" transform="translate(-876.094 -257.125)" fill="#d3e2f4"/></g><path d="M888.894,263.532l.409-.321c-.061-.077-6.191-7.768-13.6-6.424l.093.511C882.888,256.008,888.834,263.457,888.894,263.532Z" transform="translate(-875.701 -256.63)" fill="#d3e2f4"/></g><g transform="translate(0.026 0.141)"><path d="M889.194,263.576l.187-.147a21.675,21.675,0,0,0-3.947-3.688c-2.227-1.609-5.687-3.38-9.518-2.685l.043.234c3.744-.678,7.142,1.06,9.331,2.641A21.45,21.45,0,0,1,889.194,263.576Z" transform="translate(-875.915 -256.901)" fill="#d3e2f4"/></g></g><g transform="translate(27.169 49.525)"><g transform="translate(0.025 0.259)"><path d="M905.417,246.368s-1.553-6.156-10.3-5.295" transform="translate(-895.118 -240.991)" fill="#a5caef"/></g><path d="M904.706,246.192l.5-.127c-.016-.064-1.708-6.361-10.576-5.49l.05.518c3.5-.346,6.341.434,8.223,2.252A6.744,6.744,0,0,1,904.706,246.192Z" transform="translate(-894.634 -240.493)" fill="#a5caef"/></g><g transform="translate(90.874 15.932)"><g transform="translate(0)"><path d="M789.714,175.872s-3.282-.308-2.9,2.92a2.659,2.659,0,0,0,2.352,2.6l.441-1.027Z" transform="translate(-786.782 -175.864)" fill="#ffaf97"/></g></g><g transform="translate(-9.411 -42.737)"><rect width="182.177" height="132.212" fill="none"/></g><g transform="translate(60.177 21.173)"><path d="M834.089,192.554c3.276,0,5.9-3.98,5.926-4.022l-.109-.071c-.027.041-2.612,3.962-5.816,3.962-.113,0-.227-.005-.343-.016-2.271-.2-4.3-2.375-6.021-6.462l-.12.05c1.744,4.134,3.807,6.335,6.129,6.541C833.855,192.549,833.973,192.554,834.089,192.554Z" transform="translate(-827.607 -185.947)" fill="#d54f1f"/></g><g transform="translate(56.949 18.587)"><g transform="translate(0)"><path d="M848.725,180.973s.636,4.3,3.247,5.79c0,0-2.1,2.262-4.605,1.464l-1.584-2.938Z" transform="translate(-845.782 -180.973)" fill="#031f59"/></g></g><g transform="translate(58.472 9.352)"><g transform="translate(0)"><path d="M845.562,164.124a3.364,3.364,0,0,1-1.823,2.343,9.612,9.612,0,0,1-2.944.857,7.38,7.38,0,0,0-1.718.443,2.414,2.414,0,0,0-1.277,1.18l-2.193-.729,1.765-3.175,4.376-1.837h2.128Z" transform="translate(-835.607 -163.205)" fill="#031f59"/></g></g><path d="M877.689,255.679s8.356.316,11.286,7.4" transform="translate(-842.422 -198.26)" fill="#d3e2f4" stroke="#a5caef" stroke-miterlimit="10" stroke-width="1"/></g></g></g><g transform="matrix(-0.996, -0.087, 0.087, -0.996, 113.425, 18.884)"><g transform="translate(16.402 0)" clip-path="url(#l)"><g transform="translate(-627.733 -783.422)" clip-path="url(#m)"><path d="M0,0H12.924V16.052H0Z" transform="translate(625.107 780.451)" fill="#162457"/></g></g><g transform="matrix(0.999, -0.035, 0.035, 0.999, 0.687, 3.435)" clip-path="url(#n)"><g transform="translate(-638.592 -775.268)" clip-path="url(#o)"><path d="M0,0H9.421V13.745H0Z" transform="translate(635.492 772.339)" fill="#1e3760"/></g></g><g transform="translate(0 2.493)" clip-path="url(#p)"><g transform="translate(-611.331 -785.915)" clip-path="url(#m)"><path d="M0,0H25.621V19.98H0Z" transform="translate(608.36 782.943)" fill="#162457"/></g></g><g transform="translate(1.39 7.794)" clip-path="url(#r)"><g transform="translate(-612.721 -791.216)" clip-path="url(#m)"><path d="M0,0H21.56V10.071H0Z" transform="translate(609.75 788.244)" fill="#3a5bbb"/></g></g><g transform="translate(3.748 9.185)" clip-path="url(#t)"><g transform="translate(-615.08 -792.607)" clip-path="url(#m)"><path d="M0,0H20.081V10.684H0Z" transform="translate(612.108 789.635)" fill="#3a5bbb"/></g></g></g></g><g transform="translate(-609.17 -124.852)"><g transform="translate(773 255.446)"><g transform="translate(17.575 10.997)"><g transform="translate(0 0)"><path d="M2741.861-585.386l-6.412-60.935a16.923,16.923,0,0,1,16.165-17.649l132.72-3.007a16.922,16.922,0,0,1,17.649,16.164s-3.155,37.782-7.365,62.467c-2.765,16.207-13.482,19.464-40.021,19.464-39.542-1.226-63.971-1.232-64.579-.4a30.6,30.6,0,0,1-24.057,12.553s5.948-8.048-.963-12.378c-.022-.1-.925-.065-.949-.165l-4.538.049A16.923,16.923,0,0,1,2741.861-585.386Z" transform="translate(-2735.433 666.993)" fill="#00adee"/></g></g><g transform="translate(31.296 32.684)"><path d="M2757.407-603.866c-2.646.031-4.863-1.859-4.9-5.238-.045-3.859,2.458-7.645,6.341-7.69a4.682,4.682,0,0,1,4.186,2.171l1.1-5.434c.236-1.289.711-1.723,1.619-1.734l.377,0c.958-.011,1.82.382,1.558,1.7l-2.574,12.789c-.313,1.365-.029,1.866.931,2.031.025.025-.138,1.263-1.952,1.284a2.2,2.2,0,0,1-2.525-2.392A4.737,4.737,0,0,1,2757.407-603.866Zm2.05-10.161c-2.32.027-3.528,2.26-3.5,4.479a2.61,2.61,0,0,0,2.63,2.844,3.788,3.788,0,0,0,3.517-3.319l.382-1.845A2.941,2.941,0,0,0,2759.457-614.026Z" transform="translate(-2751.125 642.752)" fill="#fff"/><path d="M2772.2-608.683c.021,1.714,1.092,2.761,3.033,2.738a4.385,4.385,0,0,0,3.611-1.832c.048-.076,1.514.159,1.528,1.319a1.929,1.929,0,0,1-.663,1.521,6.237,6.237,0,0,1-4.5,1.514c-4.034.047-5.976-2.15-6.011-5.149a7.547,7.547,0,0,1,7.652-7.781c3.126-.036,4.883,1.407,4.907,3.549.03,2.522-1.566,4.053-7.038,4.117-.755.009-1.59-.032-2.523-.072Zm2.169-2.194c3.454-.041,4.4-.833,4.393-1.791-.008-.655-.7-1.3-2.033-1.287a4.6,4.6,0,0,0-4.076,3.022C2773.286-610.89,2773.866-610.87,2774.371-610.876Z" transform="translate(-2753.052 642.124)" fill="#fff"/><path d="M2788.667-611.294a9.471,9.471,0,0,1,9.141-9.865,7,7,0,0,1,5.214,1.729,3.262,3.262,0,0,1,1.058,2.056c.022,1.941-2.295,2.22-2.422,2.07a3.715,3.715,0,0,0-3.787-2.527c-3.076.035-5.389,2.811-5.351,6.064a4,4,0,0,0,4.185,4.237,4.688,4.688,0,0,0,4.035-2.139c.073-.1,1.844.331,1.861,1.768a2.522,2.522,0,0,1-.863,1.724,7.578,7.578,0,0,1-5.221,1.977C2791.777-604.144,2788.718-606.882,2788.667-611.294Z" transform="translate(-2755.297 642.678)" fill="#fff"/><path d="M2806.59-611.528c-.062-5.319,3.745-9.777,9.09-9.839,4.917-.058,7.6,3.164,7.647,7.1.062,5.319-3.745,9.8-9.091,9.864C2809.3-604.347,2806.636-607.595,2806.59-611.528Zm13.008-2.446a3.91,3.91,0,0,0-4.109-4.137c-2.748.032-5.212,2.709-5.17,6.289a3.915,3.915,0,0,0,4.107,4.162C2817.148-607.692,2819.64-610.369,2819.6-613.974Z" transform="translate(-2757.366 642.702)" fill="#fff"/><path d="M2830.715-606.3l-2.808-13.735c-.079-.327,1.095-1.248,2.255-1.261.983-.012,1.621.61,1.761,1.769l1.63,10.093,6.442-12.028c.025-.076,2.773-.057,2.794,1.808a3.753,3.753,0,0,1-.808,2l-6.927,11.579a2.413,2.413,0,0,1-2.3,1.313A1.751,1.751,0,0,1,2830.715-606.3Z" transform="translate(-2759.825 642.715)" fill="#fff"/><path d="M2843.977-606.708l2.622-13.068c.264-1.162.763-1.7,1.822-1.71l.555-.007c1.008-.012,1.595.612,1.357,1.775l-2.623,13.067c-.238,1.188-.762,1.7-1.821,1.711l-.555.007C2844.326-604.921,2843.739-605.544,2843.977-606.708Z" transform="translate(-2761.674 642.717)" fill="#fff"/><path d="M2851.289-607.465l2.407-12.055a2.149,2.149,0,0,1,2.3-1.943l3.151-.036c4.967-.058,7.948,2.529,8,6.69.059,5.117-3.242,9.569-10.074,9.648l-3.884.045C2851.643-605.1,2850.954-605.847,2851.289-607.465Zm6.241-.854a5.567,5.567,0,0,0,5.884-5.97c-.03-2.571-1.714-4.09-4.588-4.056l-1.689.019-2,10.034Z" transform="translate(-2762.514 642.718)" fill="#fff"/><path d="M2870.061-609.874a2.941,2.941,0,0,1,.586-1.7,1.6,1.6,0,0,1,1.332-.444l5.721-.067c.984-.011,1.467.362,1.476,1.093a3.025,3.025,0,0,1-.585,1.721,1.693,1.693,0,0,1-1.332.444l-5.724.066C2870.554-608.745,2870.069-609.118,2870.061-609.874Z" transform="translate(-2764.69 641.631)" fill="#fff"/><path d="M2884.264-607.188l2.026-10.135a2.368,2.368,0,0,1-1.407.521,2.205,2.205,0,0,1-1.543-.487,1.72,1.72,0,0,1-.468-1.255,2.247,2.247,0,0,1,1.236-2.158,2.44,2.44,0,0,0,1.721.586,2.63,2.63,0,0,0,2.347-1.919l.984-.011c1.109-.013,1.645.535,1.381,1.748L2887.9-607.13c-.239,1.188-.763,1.7-1.821,1.711l-.454.005C2884.613-605.4,2884.026-606.026,2884.264-607.188Z" transform="translate(-2766.168 642.781)" fill="#fff"/><path d="M2893.074-606.808a2.419,2.419,0,0,1-.752-1.656,1.84,1.84,0,0,1,1.822-1.76,3.869,3.869,0,0,0,3.527,1.9c2.42-.028,3.788-1.582,4.487-4.414a7.766,7.766,0,0,1-4.07,1.207c-2.949.034-5.01-1.479-5.043-4.328-.042-3.53,2.549-6.435,6.81-6.484,4.007-.047,6.405,2.346,6.45,6.153.024,2.042-.708,6.388-2.95,8.708a6.981,6.981,0,0,1-5.446,2.106C2895.309-605.346,2893.992-605.911,2893.074-606.808Zm9.51-8.356a5.986,5.986,0,0,0,.113-1.086c.1-2.144-1.022-3.367-2.912-3.345a3.084,3.084,0,0,0-3.191,3.265c.018,1.487.937,2.409,2.828,2.387A4.674,4.674,0,0,0,2902.583-615.164Z" transform="translate(-2767.259 642.815)" fill="#fff"/><path d="M2768.338-575.469c-2.647.031-4.686-1.812-4.723-4.988-.046-3.933,2.707-7.9,6.666-7.945a4.325,4.325,0,0,1,3.984,2.172,2.5,2.5,0,0,1,2.574-2.047c.706-.009,1.264.288,1.24.415l-1.787,8.947c-.287,1.365-.029,1.866.931,2.032.026.024-.137,1.262-1.952,1.284a2.2,2.2,0,0,1-2.525-2.493A5.158,5.158,0,0,1,2768.338-575.469Zm2.455-10.165c-2.346.027-3.756,2.388-3.73,4.632a2.488,2.488,0,0,0,2.528,2.694,4.059,4.059,0,0,0,3.742-3.448l.334-1.744A2.814,2.814,0,0,0,2770.793-585.634Z" transform="translate(-2752.407 638.898)" fill="#fff"/><path d="M2789.742-576.37c-2.647.03-4.863-1.86-4.9-5.239-.045-3.858,2.456-7.644,6.34-7.689a4.683,4.683,0,0,1,4.186,2.17l1.1-5.433c.237-1.29.711-1.724,1.62-1.735l.378,0c.957-.011,1.819.382,1.557,1.7l-2.573,12.789c-.314,1.365-.029,1.866.931,2.032.026.024-.138,1.262-1.952,1.284a2.2,2.2,0,0,1-2.525-2.392A4.737,4.737,0,0,1,2789.742-576.37Zm2.049-10.162c-2.319.027-3.529,2.26-3.5,4.479a2.612,2.612,0,0,0,2.63,2.845,3.789,3.789,0,0,0,3.518-3.32l.382-1.845A2.943,2.943,0,0,0,2791.791-586.531Z" transform="translate(-2754.856 639.579)" fill="#fff"/><path d="M2801.618-581.5a6.972,6.972,0,0,1,6.874-7.342c3.682-.043,5.928,2.4,5.965,5.578a6.971,6.971,0,0,1-6.873,7.342C2803.9-575.883,2801.655-578.3,2801.618-581.5Zm9.74-1.576a2.92,2.92,0,0,0-2.935-3.067c-2.195.025-3.732,2.16-3.705,4.481a2.913,2.913,0,0,0,2.935,3.041C2809.847-578.651,2811.385-580.786,2811.358-583.081Z" transform="translate(-2756.792 638.95)" fill="#fff"/><path d="M2834-589.16a3.728,3.728,0,0,1,3.853,3.939,16.012,16.012,0,0,1-.664,3.614,13.328,13.328,0,0,0-.572,2.73c.008.706.364.979,1.021,1.072.076,0-.185,1.465-2.126,1.487-1.664.019-2.43-.829-2.446-2.14a11.71,11.71,0,0,1,.571-3.058,13.618,13.618,0,0,0,.5-2.653,1.794,1.794,0,0,0-1.839-2,3.048,3.048,0,0,0-2.628,1.669l-1.288,6.42c-.262,1.289-.786,1.7-1.693,1.709l-.378,0c-.932.012-1.744-.357-1.482-1.672l1.048-5.257c.333-1.668-.385-2.794-1.7-2.779a3.04,3.04,0,0,0-2.628,1.644l-1.288,6.445c-.261,1.315-.787,1.7-1.7,1.709l-.377,0c-.959.012-1.744-.357-1.483-1.673l2.12-10.614a1.577,1.577,0,0,1,.982-.239,1.841,1.841,0,0,1,1.991,2.045,4.863,4.863,0,0,1,4.083-2.317,3.479,3.479,0,0,1,3.61,2.63A5.292,5.292,0,0,1,2834-589.16Z" transform="translate(-2758.527 638.986)" fill="#fff"/><path d="M2842.036-580.476l1.525-7.557c.261-1.29.711-1.723,1.618-1.735l.379,0c.958-.011,1.82.357,1.558,1.7l-1.55,7.659c-.262,1.364-.028,1.89,1.007,2.03.026.025-.163,1.262-2.054,1.284C2842.227-577.073,2841.63-578.479,2842.036-580.476Zm2.4-12.762a1.985,1.985,0,0,1,2.042-2.091c1.262-.015,1.975.607,1.985,1.515a1.985,1.985,0,0,1-2.042,2.091C2845.157-591.708,2844.443-592.33,2844.434-593.238Z" transform="translate(-2761.442 639.698)" fill="#fff"/><path d="M2848.66-582.053a7.2,7.2,0,0,1,6.951-7.343,6.034,6.034,0,0,1,4.4,1.487,2.894,2.894,0,0,1,.956,1.981,1.811,1.811,0,0,1-2.25,1.715,2.788,2.788,0,0,0-3-2.335,3.994,3.994,0,0,0-3.784,4.179,2.905,2.905,0,0,0,3.137,3.04,3.392,3.392,0,0,0,2.979-1.775c.075-.127,1.667.182,1.681,1.418a2.448,2.448,0,0,1-.812,1.648,5.852,5.852,0,0,1-4.117,1.56C2851.247-576.435,2848.7-578.473,2848.66-582.053Z" transform="translate(-2762.22 639.013)" fill="#fff"/><path d="M2863.005-580.72l1.527-7.557c.261-1.29.711-1.723,1.619-1.734l.379-.005c.958-.01,1.82.358,1.558,1.7l-1.55,7.659c-.262,1.364-.029,1.891,1.007,2.03.027.025-.162,1.262-2.053,1.284C2863.2-577.318,2862.6-578.723,2863.005-580.72Zm2.4-12.761a1.986,1.986,0,0,1,2.043-2.092c1.261-.015,1.973.607,1.985,1.515a1.986,1.986,0,0,1-2.042,2.091C2866.129-591.951,2865.415-592.574,2865.4-593.481Z" transform="translate(-2763.862 639.726)" fill="#fff"/><path d="M2869.9-580.744l2.551-12.689c.263-1.289.711-1.722,1.619-1.734l.379,0c.958-.011,1.82.382,1.557,1.7l-2.574,12.79c-.261,1.364-.028,1.89,1.008,2.029.025.026-.163,1.263-2.052,1.285C2870.093-577.343,2869.5-578.747,2869.9-580.744Z" transform="translate(-2764.658 639.679)" fill="#fff"/><path d="M2876.8-580.88l1.526-7.558c.262-1.289.711-1.723,1.619-1.734l.378,0c.958-.011,1.821.357,1.558,1.7l-1.55,7.659c-.262,1.364-.029,1.891,1.007,2.03.026.025-.162,1.263-2.053,1.285C2876.987-577.478,2876.391-578.884,2876.8-580.88Zm2.4-12.762a1.987,1.987,0,0,1,2.043-2.092c1.261-.014,1.973.608,1.985,1.515a1.985,1.985,0,0,1-2.042,2.091C2879.919-592.112,2879.205-592.734,2879.195-593.642Z" transform="translate(-2765.453 639.745)" fill="#fff"/><path d="M2883.479-582.458a6.972,6.972,0,0,1,6.874-7.342c3.682-.043,5.929,2.4,5.966,5.579a6.972,6.972,0,0,1-6.874,7.342C2885.765-576.836,2883.517-579.256,2883.479-582.458Zm9.74-1.576a2.919,2.919,0,0,0-2.935-3.067c-2.195.026-3.731,2.161-3.705,4.481a2.913,2.913,0,0,0,2.935,3.042C2891.708-579.6,2893.247-581.739,2893.219-584.034Z" transform="translate(-2766.238 639.06)" fill="#fff"/><g transform="translate(-9.655 -0.573)"><path d="M2750.987-630.947l2.033-10.151a1.71,1.71,0,0,1,1.829-1.548l2.993-.035c3.114-.036,4.858,1.229,4.887,3.68.035,3.035-1.811,5.065-5.709,5.111l-2.47.028-.608,2.961c-.17.907-.587,1.354-1.452,1.363l-.423.005C2751.265-629.523,2750.8-630.02,2750.987-630.947Zm6.249-5.176a2.352,2.352,0,0,0,2.583-2.542c-.012-1.1-.743-1.72-2.25-1.7l-1.768.02-.835,4.25Z" transform="translate(-2734.244 643.74)" fill="#fff"/><path d="M2768.935-639.87c.985-.011,1.756.542,1.766,1.366a1.8,1.8,0,0,1-1.245,1.8,1.743,1.743,0,0,0-1.373-.568c-1.266.015-2.053,1.43-2.471,3.5l-.531,2.719c-.209,1.007-.567,1.354-1.29,1.362l-.3,0c-.762.009-1.45-.284-1.24-1.332l1.689-8.46a1.248,1.248,0,0,1,.781-.19,1.487,1.487,0,0,1,1.588,1.711A3.016,3.016,0,0,1,2768.935-639.87Z" transform="translate(-2734.193 643.752)" fill="#fff"/><path d="M2773.636-629.636c-2.449.028-3.535-1.748-3-4.447l.854-4.29c.208-1.048.585-1.374,1.29-1.382l.3,0c.765-.009,1.472.284,1.243,1.352l-.837,4.089c-.286,1.389.248,2.328,1.514,2.313a2.552,2.552,0,0,0,2.233-1.473l.988-4.976c.208-1.047.565-1.372,1.289-1.381l.3,0c.762-.009,1.45.284,1.241,1.352l-1.215,6.1c-.229,1.088-.043,1.487.722,1.619.04.019-.11,1.006-1.556,1.022a1.725,1.725,0,0,1-1.991-1.845A3.961,3.961,0,0,1,2773.636-629.636Z" transform="translate(-2734.156 643.753)" fill="#fff"/><path d="M2783.924-633.976a2.1,2.1,0,0,0,2.417,2.183,3.494,3.494,0,0,0,2.878-1.461c.039-.06,1.207.127,1.218,1.051a1.54,1.54,0,0,1-.528,1.212,4.974,4.974,0,0,1-3.584,1.207c-3.214.037-4.761-1.714-4.789-4.1a6.012,6.012,0,0,1,6.1-6.2c2.491-.029,3.893,1.12,3.913,2.829.023,2.009-1.249,3.228-5.609,3.28-.6.007-1.267-.025-2.01-.057Zm1.728-1.748c2.753-.032,3.51-.664,3.5-1.427-.006-.522-.554-1.039-1.619-1.027a3.67,3.67,0,0,0-3.247,2.41C2784.788-635.734,2785.25-635.718,2785.651-635.724Z" transform="translate(-2734.106 643.751)" fill="#fff"/><path d="M2792.344-630c-.543.007-1.008-.229-.99-.33l2.469-12.367c.209-1.028.566-1.373,1.291-1.381l.322,0c.743-.008,1.45.3,1.222,1.353l-.816,4.168a3.7,3.7,0,0,1,3.075-1.642c2.108-.025,3.874,1.462,3.906,4.175.037,3.074-1.958,6.091-5.052,6.127a3.642,3.642,0,0,1-3.337-1.87C2794.067-630.5,2793.449-630.009,2792.344-630Zm2.755-4.974a2.2,2.2,0,0,0,2.224,2.847c1.808-.021,2.772-1.761,2.751-3.528a2.1,2.1,0,0,0-2.115-2.287,3.2,3.2,0,0,0-2.575,1.558Z" transform="translate(-2734.062 643.734)" fill="#fff"/><path d="M2807.178-630.026c-2.109.025-3.734-1.443-3.764-3.976-.036-3.134,2.158-6.294,5.312-6.331a3.447,3.447,0,0,1,3.175,1.732,1.989,1.989,0,0,1,2.052-1.631c.561-.007,1.006.229.988.329l-1.423,7.131c-.229,1.088-.024,1.487.742,1.619.019.019-.108,1.006-1.556,1.023a1.755,1.755,0,0,1-2.013-1.986A4.109,4.109,0,0,1,2807.178-630.026Zm1.956-8.1c-1.868.022-2.992,1.9-2.972,3.692a1.984,1.984,0,0,0,2.015,2.147,3.237,3.237,0,0,0,2.983-2.748l.265-1.389A2.241,2.241,0,0,0,2809.133-638.127Z" transform="translate(-2734.008 643.75)" fill="#fff"/><path d="M4.419-25.853a1.383,1.383,0,0,0-1.46-1.61,1.163,1.163,0,0,0-.73.168L.563-19.433c-.206.973.431,1.254,1.142,1.254h.281c.674,0,1.011-.318,1.217-1.254l.524-2.527c.412-1.928,1.161-3.238,2.34-3.238a1.628,1.628,0,0,1,1.273.543,1.672,1.672,0,0,0,1.179-1.666c0-.767-.711-1.292-1.628-1.292A2.809,2.809,0,0,0,4.419-25.853Zm11.587,1.909-.262,1.292a3.013,3.013,0,0,1-2.808,2.527,1.848,1.848,0,0,1-1.853-2.022c0-1.666,1.067-3.407,2.808-3.407A2.088,2.088,0,0,1,16.006-23.944Zm-.73,4.006a1.635,1.635,0,0,0,1.853,1.872c1.348,0,1.479-.917,1.46-.936-.711-.131-.9-.505-.674-1.516l1.4-6.626c.019-.094-.393-.318-.917-.318a1.852,1.852,0,0,0-1.928,1.5,3.212,3.212,0,0,0-2.939-1.647c-2.939,0-5.017,2.92-5.017,5.84a3.412,3.412,0,0,0,3.463,3.744A3.83,3.83,0,0,0,15.276-19.938Zm-1.872-8.8c.131.225,1.984.262,3.519-.6a1.623,1.623,0,0,0,.955-1.31,1.076,1.076,0,0,0-1.1-1.123,1.963,1.963,0,0,0-1.011.281C14.489-30.757,13.291-28.979,13.4-28.736Zm10,4.623a2.924,2.924,0,0,1,2.4-1.4,1.958,1.958,0,0,1,1.947,2.153c0,1.647-.917,3.257-2.6,3.257a2.052,2.052,0,0,1-2.04-2.677Zm.225-1.7a1.39,1.39,0,0,0-1.46-1.647,1.163,1.163,0,0,0-.73.168L19-15.876c-.206.973.431,1.273,1.142,1.273h.281c.674,0,1.03-.318,1.217-1.273l.842-3.893a3.293,3.293,0,0,0,3.051,1.741c2.883,0,4.773-2.789,4.773-5.653,0-2.527-1.628-3.931-3.594-3.931A3.511,3.511,0,0,0,23.624-25.816ZM34.743-28.9a1.474,1.474,0,0,0,1.535-1.535c0-.674-.524-1.142-1.46-1.142a1.474,1.474,0,0,0-1.535,1.535C33.283-29.372,33.807-28.9,34.743-28.9ZM33.208-18.066c1.4,0,1.554-.917,1.535-.936-.767-.112-.936-.505-.73-1.516l1.217-5.672c.206-.992-.431-1.273-1.142-1.273h-.281c-.674,0-1.011.318-1.217,1.273l-1.2,5.6C31.074-19.114,31.5-18.066,33.208-18.066Zm10.445-5.859-.3,1.366a2.812,2.812,0,0,1-2.639,2.433,1.938,1.938,0,0,1-1.928-2.134c0-1.647.917-3.294,2.639-3.294A2.183,2.183,0,0,1,43.653-23.925Zm-.73,4.062a1.636,1.636,0,0,0,1.853,1.8c1.348,0,1.479-.917,1.46-.936-.711-.131-.917-.505-.674-1.516l2.022-9.471c.206-.973-.431-1.273-1.142-1.273h-.281c-.674,0-1.03.318-1.217,1.273l-.861,4.024a3.476,3.476,0,0,0-3.089-1.647c-2.883,0-4.773,2.789-4.773,5.653a3.587,3.587,0,0,0,3.594,3.931A3.515,3.515,0,0,0,42.923-19.863Zm12.186-4.081-.262,1.292a3.013,3.013,0,0,1-2.808,2.527,1.847,1.847,0,0,1-1.853-2.022c0-1.666,1.067-3.407,2.808-3.407A2.088,2.088,0,0,1,55.108-23.944Zm-.73,4.006a1.635,1.635,0,0,0,1.853,1.872c1.348,0,1.479-.917,1.46-.936-.711-.131-.9-.505-.674-1.516l1.4-6.626c.019-.094-.393-.318-.917-.318a1.852,1.852,0,0,0-1.928,1.5,3.212,3.212,0,0,0-2.939-1.647c-2.939,0-5.017,2.92-5.017,5.84a3.412,3.412,0,0,0,3.463,3.744A3.83,3.83,0,0,0,54.378-19.938Z" transform="translate(87.602 30.75)" fill="#fff"/></g></g><path d="M2801.119-657.138l-76.025,1.2a9.214,9.214,0,0,1-9.472-10.4l.444-4.3a12.1,12.1,0,0,1,11.639-10.6l76.025-1.2a9.212,9.212,0,0,1,9.47,10.4l-.443,4.3A12.1,12.1,0,0,1,2801.119-657.138Z" transform="translate(-2715.566 682.433)" fill="#fff"/><g transform="translate(6.827 6.265)"><path d="M2723.475-662.346l2.129-6.6c.258-.58.461-.831.894-.838.68-.01.847.235.88,1.039l-.5,6.7c.037,1.174-.634,1.678-1.7,1.694C2723.608-660.329,2722.917-661.041,2723.475-662.346Zm2.1-9.713a2.322,2.322,0,0,1,.511-1.594,1.57,1.57,0,0,1,1.292-.41c.947-.014,1.406.329,1.418,1.05a2.309,2.309,0,0,1-.492,1.593c-.285.272-.551.38-1.312.39C2726.067-671.016,2725.589-671.338,2725.578-672.059Z" transform="translate(-2723.284 675.202)" fill="#ea0b90"/><path d="M2736.342-660.475c-3.521.052-5.82-2.078-5.872-5.661a7.864,7.864,0,0,1,7.626-8.207,6.4,6.4,0,0,1,4.552,1.478,2.342,2.342,0,0,1,.786,1.575c.022,1.524-1.81,1.552-1.9,1.449a3.618,3.618,0,0,0-3.345-1.907c-2.677.039-4.66,2.417-4.618,5.321a3.3,3.3,0,0,0,3.514,3.615,3.4,3.4,0,0,0,2.357-.837,3.366,3.366,0,0,0,1.1-2.118l-2.41.035c-.721.01-1.116-.293-1.123-.767a2.193,2.193,0,0,1,.415-1.242,1.273,1.273,0,0,1,1.005-.3l3.954-.058c.926-.013,1.283.455,1.071,1.468l-1.111,5.661c-.02.082-.367.253-.882.26a1.262,1.262,0,0,1-1.422-1.36A4.76,4.76,0,0,1,2736.342-660.475Z" transform="translate(-2724.113 675.234)" fill="#ea0b90"/><path d="M2755.69-664.1c.7,1.123,1.074,1.468,2,1.537.1.019.169,1.687-1.87,1.716-1.194.018-1.86-.447-2.877-2.286l-1.437-2.512-1.236.019-.67,3.449c-.193.931-.618,1.39-1.5,1.4l-.412.006c-.824.012-1.306-.5-1.114-1.447l2.051-10.412a1.757,1.757,0,0,1,1.873-1.593l3.315-.049c3.316-.049,5.024,1.224,5.059,3.634.037,2.534-1.544,4.287-4.362,4.6Zm-2.549-3.794c1.792-.026,2.666-.966,2.644-2.388-.015-1.071-.807-1.636-2.269-1.614l-2.059.03-.786,4.008Z" transform="translate(-2725.967 675.226)" fill="#ea0b90"/><path d="M2760.2-662.27a2.992,2.992,0,0,1,.635-1.677l5.686-9.786c.341-.582.748-.877,1.943-.894,1.36-.02,1.756.366,1.866.921l2.417,11.624c.045.247-.81.98-1.716.993-.781.011-1.261-.434-1.421-1.4l-.422-2.095-4.861.072-1.946,3.571C2762.339-660.879,2760.22-660.787,2760.2-662.27Zm8.792-4.579-.936-4.807-2.71,4.861Z" transform="translate(-2727.543 675.267)" fill="#ea0b90"/><path d="M2779.859-662.711l1.84-9.318-2.9.042c-.845.012-1.3-.331-1.311-.887a2.526,2.526,0,0,1,.474-1.429c.222-.23.51-.337,1.188-.347l8.981-.132c.823-.012,1.281.332,1.29.887a2.391,2.391,0,0,1-.474,1.429c-.222.23-.489.337-1.169.347l-3.028.044-1.861,9.4c-.192.93-.617,1.39-1.5,1.4l-.412.006C2780.128-661.253,2779.667-661.76,2779.859-662.711Z" transform="translate(-2729.538 675.285)" fill="#ea0b90"/><path d="M2790.429-662.865l2.108-10.681c.214-.951.62-1.39,1.484-1.4l.454-.007c.823-.012,1.3.5,1.113,1.446l-2.109,10.682c-.192.971-.619,1.39-1.484,1.4l-.454.007C2790.718-661.406,2790.236-661.914,2790.429-662.865Z" transform="translate(-2731.027 675.305)" fill="#ea0b90"/><path d="M2796.993-662.826a2.3,2.3,0,0,1-.786-1.595,1.675,1.675,0,0,1,1.213-1.521,4.887,4.887,0,0,0,4.173,2.163c1.482-.021,2.173-.65,2.158-1.679-.013-.927-1.048-1.262-2.4-1.758-1.615-.615-3.4-1.453-3.432-3.76-.032-2.245,1.647-4.268,5.148-4.32a5.965,5.965,0,0,1,4.323,1.317,2.021,2.021,0,0,1,.7,1.452,1.709,1.709,0,0,1-1.315,1.605,4.292,4.292,0,0,0-3.736-2c-1.319.019-2.134.711-2.12,1.6.015.989,1.091,1.323,2.563,1.9,1.739.634,3.522,1.453,3.555,3.615.036,2.492-1.708,4.35-5.435,4.405A6.449,6.449,0,0,1,2796.993-662.826Z" transform="translate(-2731.699 675.344)" fill="#ea0b90"/><path d="M2809.9-662.69a2.319,2.319,0,0,1,.512-1.593,1.571,1.571,0,0,1,1.292-.41c.947-.013,1.4.329,1.416,1.05a2.225,2.225,0,0,1-.512,1.594c-.265.272-.531.379-1.292.39C2810.391-661.646,2809.912-661.969,2809.9-662.69Zm1.441-4.285.479-6.681c-.017-1.175.656-1.679,1.726-1.694,1.567-.023,2.256.688,1.7,1.994l-2.148,6.582c-.239.6-.441.851-.894.857C2811.544-665.906,2811.355-666.151,2811.343-666.975Z" transform="translate(-2733.279 675.351)" fill="#ea0b90"/></g></g><g transform="translate(929.909 248.005)"><g transform="matrix(1, 0, 0, 1, -384.53, -6.65)" filter="url(#v)"><circle cx="18" cy="18" r="18" transform="translate(384.79 6.86)" fill="#fff"/></g><g transform="translate(5.505 5.243)"><g transform="translate(0 0)"><path d="M541.19-123.452a.981.981,0,0,0,.211-.611.987.987,0,0,0-.987-.987.987.987,0,0,0-.987.987.985.985,0,0,0,.079.387l0,.006a.983.983,0,0,0,.126.211,3.76,3.76,0,0,1,.35,3.147h.857A3.759,3.759,0,0,1,541.19-123.452Z" transform="translate(-527.735 125.05)" fill="#08c4c4"/><path d="M525.311-116.59a.756.756,0,0,0-.03-.5.761.761,0,0,0-1-.41.761.761,0,0,0-.409.995.755.755,0,0,0,.171.253l0,0a.752.752,0,0,0,.152.113A2.9,2.9,0,0,1,525.386-114l.61-.254A2.9,2.9,0,0,1,525.311-116.59Z" transform="translate(-516.298 119.559)" fill="#08c4c4"/><path d="M503.834-94.669a.755.755,0,0,0-.373-.33.761.761,0,0,0-.994.414.761.761,0,0,0,.414.994.76.76,0,0,0,.3.058h.005a.758.758,0,0,0,.187-.028,2.9,2.9,0,0,1,2.346.673l.251-.611A2.9,2.9,0,0,1,503.834-94.669Z" transform="translate(-500.614 103.074)" fill="#08c4c4"/><path d="M504.149-65.784a.755.755,0,0,0-.5.03.761.761,0,0,0-.41,1,.761.761,0,0,0,1,.41.765.765,0,0,0,.253-.172l0,0a.766.766,0,0,0,.113-.152,2.9,2.9,0,0,1,2.135-1.182l-.254-.61A2.9,2.9,0,0,1,504.149-65.784Z" transform="translate(-501.18 82.127)" fill="#08c4c4"/><path d="M526.069-48.092a.759.759,0,0,0-.33.373.761.761,0,0,0,.414.994.761.761,0,0,0,.583,0,.761.761,0,0,0,.412-.413.757.757,0,0,0,.058-.3.02.02,0,0,0,0-.005.756.756,0,0,0-.027-.187,2.9,2.9,0,0,1,.673-2.345l-.611-.252A2.9,2.9,0,0,1,526.069-48.092Z" transform="translate(-517.665 70.23)" fill="#08c4c4"/><path d="M554.961-48.4a.755.755,0,0,0,.03.5.761.761,0,0,0,1,.41.761.761,0,0,0,.41-1,.757.757,0,0,0-.171-.253l0,0a.771.771,0,0,0-.152-.113,2.9,2.9,0,0,1-1.182-2.135l-.61.254A2.9,2.9,0,0,1,554.961-48.4Z" transform="translate(-538.616 70.79)" fill="#08c4c4"/><path d="M572.646-66.513a.755.755,0,0,0,.374.33.761.761,0,0,0,.992-.414.761.761,0,0,0-.414-.994.758.758,0,0,0-.3-.058h-.005a.76.76,0,0,0-.187.027,2.9,2.9,0,0,1-2.345-.673l-.252.611A2.9,2.9,0,0,1,572.646-66.513Z" transform="translate(-550.508 83.466)" fill="#08c4c4"/><path d="M572.338-95.429a.759.759,0,0,0,.5-.03.761.761,0,0,0,.41-1,.761.761,0,0,0-1-.41.757.757,0,0,0-.252.171l0,0a.752.752,0,0,0-.113.152,2.9,2.9,0,0,1-2.135,1.182l.254.61A2.9,2.9,0,0,1,572.338-95.429Z" transform="translate(-549.949 104.443)" fill="#08c4c4"/><path d="M554.227-116.906a.755.755,0,0,0,.33-.373.761.761,0,0,0-.414-.994.761.761,0,0,0-.993.414.758.758,0,0,0-.058.3v.005a.756.756,0,0,0,.028.187,2.9,2.9,0,0,1-.674,2.346l.611.251a2.9,2.9,0,0,1,1.17-2.136Z" transform="translate(-537.274 120.126)" fill="#08c4c4"/><path d="M510.468-111.369a.983.983,0,0,0-.282-.582.987.987,0,0,0-1.4,0,.988.988,0,0,0,0,1.4.989.989,0,0,0,.33.216h.007a.991.991,0,0,0,.238.06,3.761,3.761,0,0,1,2.473,1.977l.606-.606A3.759,3.759,0,0,1,510.468-111.369Z" transform="translate(-505.076 115.665)" fill="#08c4c4"/><path d="M497.288-81.1a.983.983,0,0,0-.611-.212.987.987,0,0,0-.987.987.987.987,0,0,0,.987.987.985.985,0,0,0,.388-.079l.006,0a1,1,0,0,0,.212-.126,3.76,3.76,0,0,1,3.147-.351v-.857a3.759,3.759,0,0,1-3.141-.347Z" transform="translate(-495.69 93.005)" fill="#08c4c4"/><path d="M509.371-55.774a.983.983,0,0,0-.582.282.988.988,0,0,0,0,1.4.987.987,0,0,0,1.4,0,.986.986,0,0,0,.216-.33.057.057,0,0,0,0-.006.993.993,0,0,0,.06-.238,3.76,3.76,0,0,1,1.977-2.473l-.607-.606a3.759,3.759,0,0,1-2.462,1.976Z" transform="translate(-505.076 75.74)" fill="#08c4c4"/><path d="M539.638-44.78a.984.984,0,0,0-.211.611.987.987,0,0,0,.987.987.987.987,0,0,0,.987-.987.979.979,0,0,0-.079-.387l0-.006a.98.98,0,0,0-.126-.211,3.76,3.76,0,0,1-.351-3.147h-.857A3.759,3.759,0,0,1,539.638-44.78Z" transform="translate(-527.735 68.538)" fill="#08c4c4"/><path d="M564.966-54.675a.982.982,0,0,0,.282.582.987.987,0,0,0,1.4,0,.987.987,0,0,0,0-1.4.981.981,0,0,0-.33-.216h-.007a.993.993,0,0,0-.238-.06,3.761,3.761,0,0,1-2.473-1.977l-.607.606a3.758,3.758,0,0,1,1.976,2.462Z" transform="translate(-545 75.738)" fill="#08c4c4"/><path d="M575.964-79.55a.982.982,0,0,0,.611.212.987.987,0,0,0,.988-.987.987.987,0,0,0-.988-.987.985.985,0,0,0-.387.079l-.007,0a.987.987,0,0,0-.211.126,3.761,3.761,0,0,1-3.147.35v.857A3.759,3.759,0,0,1,575.964-79.55Z" transform="translate(-552.204 93.005)" fill="#08c4c4"/><path d="M566.065-110.272a.983.983,0,0,0,.582-.282.988.988,0,0,0,0-1.4.987.987,0,0,0-1.4,0,.982.982,0,0,0-.216.33.045.045,0,0,0,0,.007.983.983,0,0,0-.06.238A3.761,3.761,0,0,1,563-108.9l.607.606A3.758,3.758,0,0,1,566.065-110.272Z" transform="translate(-545.002 115.665)" fill="#08c4c4"/></g><path d="M8.078,0A8.078,8.078,0,1,1,0,8.078,8.078,8.078,0,0,1,8.078,0Z" transform="translate(4.601 4.601)" fill="#0ac4c4"/><path d="M6.991,0A6.991,6.991,0,1,1,0,6.991,6.991,6.991,0,0,1,6.991,0Z" transform="translate(5.688 5.688)" fill="#78d8d8"/><g transform="translate(6.517 6.28)"><circle cx="0.869" cy="0.869" r="0.869" transform="translate(3.634 0)" fill="#fff"/><circle cx="0.869" cy="0.869" r="0.869" transform="translate(0 3.436)" fill="#fff"/><circle cx="0.869" cy="0.869" r="0.869" transform="translate(0.119 8.018)" fill="#fff"/><circle cx="0.869" cy="0.869" r="0.869" transform="translate(4.74 10.704)" fill="#fff"/><circle cx="0.869" cy="0.869" r="0.869" transform="translate(8.887 9.835)" fill="#fff"/><circle cx="0.869" cy="0.869" r="0.869" transform="translate(10.23 3.041)" fill="#fff"/><circle cx="0.474" cy="0.474" r="0.474" transform="translate(8.848 0.987)" fill="#fff"/><circle cx="0.474" cy="0.474" r="0.474" transform="translate(6.478 1.264)" fill="#fff"/><circle cx="0.474" cy="0.474" r="0.474" transform="translate(2.567 2.567)" fill="#fff"/><circle cx="0.474" cy="0.474" r="0.474" transform="translate(1.619 5.293)" fill="#fff"/><circle cx="0.474" cy="0.474" r="0.474" transform="translate(2.725 9.361)" fill="#fff"/><circle cx="0.474" cy="0.474" r="0.474" transform="translate(6.675 9.282)" fill="#fff"/><circle cx="0.474" cy="0.474" r="0.474" transform="translate(11.336 6.912)" fill="#fff"/><circle cx="0.474" cy="0.474" r="0.474" transform="translate(8.887 5.925)" fill="#fff"/><circle cx="0.474" cy="0.474" r="0.474" transform="translate(4.266 5.925)" fill="#fff"/><circle cx="0.474" cy="0.474" r="0.474" transform="translate(5.688 4.305)" fill="#fff"/><circle cx="0.474" cy="0.474" r="0.474" transform="translate(6.162 6.794)" fill="#fff"/></g></g></g></g></g></g></svg>