<svg xmlns="http://www.w3.org/2000/svg" xmlns:xlink="http://www.w3.org/1999/xlink" width="290.542" height="99.894" viewBox="0 0 290.542 99.894"><defs><style>.a,.h{fill:none;}.b{clip-path:url(#a);}.c{clip-path:url(#b);}.d{fill:#ffc75b;}.e{fill:#fff;}.f{fill:#c69749;}.g{opacity:0.521;}.h{stroke:#fff;stroke-linecap:round;stroke-width:5px;}.i{clip-path:url(#c);}</style><clipPath id="a"><path class="a" d="M1551.319-470.758l1.212-.43" transform="translate(-1551.319 471.188)"/></clipPath><clipPath id="b"><path class="a" d="M447-571.657h581.349V-935H447Z" transform="translate(-447 935)"/></clipPath><clipPath id="c"><rect class="a" width="181.351" height="22.113"/></clipPath></defs><g transform="translate(-3718.558 2549.046)"><g transform="translate(3718.558 -2549.046)"><g class="b" transform="translate(192.837 99.464)"><g class="c" transform="translate(-445.829 -187.248)"><path class="d" d="M1546.319-471.721h5.249v-4.467h-5.249Z" transform="translate(-1102.508 661.417)"/></g></g><g transform="translate(37.419 24.162)"><g transform="translate(2.414 37.399)"><path class="e" d="M43.535,98.481V91.368c0-.613.3-.914.846-.914h.287a.8.8,0,0,1,.887.914v2.69h3.809v-2.69c0-.613.287-.914.833-.914h.3c.573,0,.873.3.873.914v7.113a.8.8,0,0,1-.873.915h-.3c-.547,0-.833-.314-.833-.915V95.765H45.556v2.717a.8.8,0,0,1-.887.915h-.287c-.546,0-.846-.314-.846-.915" transform="translate(-43.535 -89.636)"/><path class="e" d="M60.408,96.032h.218a.832.832,0,0,0-.014-.191,1.178,1.178,0,0,0-1.352-1.2,1.669,1.669,0,0,0-1.638.969c-.014.027-1.243.123-1.243-.764a1.221,1.221,0,0,1,.409-.873,3.593,3.593,0,0,1,2.594-.778c2.116,0,3.141.969,3.141,2.757v3.932c0,.1-.355.218-.723.218a1,1,0,0,1-1.011-.642,2.689,2.689,0,0,1-.109-.45,2.66,2.66,0,0,1-2.307,1.147c-1.393,0-2.239-.765-2.239-1.911,0-1.488,1.447-2.172,4.273-2.212m.218.969h-.368c-1.515.055-2.321.341-2.321,1.092,0,.5.4.82,1.037.82a1.5,1.5,0,0,0,1.652-1.434Z" transform="translate(-46.581 -90.298)"/><path class="e" d="M66.521,98.694a.847.847,0,0,1,.587-.764,2.914,2.914,0,0,0,2.2.9c.751,0,1.161-.259,1.161-.683,0-.518-.532-.613-1.42-.8-.914-.191-2.335-.492-2.335-1.993,0-1.3,1.052-2.157,2.771-2.157a2.929,2.929,0,0,1,2.526.887.981.981,0,0,1,.164.547.954.954,0,0,1-.613.8,2.65,2.65,0,0,0-1.953-.9c-.737,0-1.133.272-1.133.7,0,.478.519.573,1.419.778.942.2,2.445.5,2.445,2.007,0,1.338-1.065,2.144-2.936,2.144a4.394,4.394,0,0,1-2.294-.5,1.166,1.166,0,0,1-.587-.956" transform="translate(-49.092 -90.298)"/><path class="e" d="M76.745,97.384V94.326H76.4c-.546,0-.792-.246-.792-.683v-.109c0-.45.246-.71.778-.71h.355v-.846c0-.628.314-.927.861-.927h.177c.5,0,.846.218.846.927v.846H79.79c.545,0,.778.233.778.67v.123c0,.465-.246.71-.792.71H78.6v2.84c0,.655.205.983.738.983a.979.979,0,0,0,.833-.45.757.757,0,0,1,.477.751.974.974,0,0,1-.327.737,1.993,1.993,0,0,1-1.434.491c-1.461,0-2.144-.778-2.144-2.293" transform="translate(-51.29 -89.78)"/><path class="e" d="M88.055,96.032h.218a.833.833,0,0,0-.014-.191,1.178,1.178,0,0,0-1.352-1.2,1.668,1.668,0,0,0-1.638.969c-.014.027-1.243.123-1.243-.764a1.218,1.218,0,0,1,.409-.873,3.593,3.593,0,0,1,2.594-.778c2.116,0,3.141.969,3.141,2.757v3.932c0,.1-.355.218-.723.218a1,1,0,0,1-1.011-.642,2.689,2.689,0,0,1-.109-.45,2.66,2.66,0,0,1-2.307,1.147c-1.393,0-2.239-.765-2.239-1.911,0-1.488,1.447-2.172,4.273-2.212m.218.969h-.368c-1.515.055-2.321.341-2.321,1.092,0,.5.4.82,1.037.82a1.5,1.5,0,0,0,1.652-1.434Z" transform="translate(-53.265 -90.298)"/><path class="e" d="M98.71,98.821a1.742,1.742,0,0,1-.888-1.352,1,1,0,0,1,1.188-.955,2.1,2.1,0,0,0,2.184,1.407c1.065,0,1.734-.478,1.734-1.256,0-.805-.532-1.215-1.57-1.215h-.463c-.67,0-.929-.246-.929-.683v-.109c0-.478.3-.683.9-.683h.655c.819,0,1.256-.4,1.256-1.037,0-.682-.6-1.106-1.611-1.106A1.942,1.942,0,0,0,99.2,93.1a.981.981,0,0,1-1.16-.942,1.626,1.626,0,0,1,.861-1.283,4.254,4.254,0,0,1,2.307-.6c2.225,0,3.467.873,3.467,2.43a1.852,1.852,0,0,1-1.543,1.843,2.274,2.274,0,0,1,1.72,2.239c0,1.706-1.325,2.7-3.645,2.7a4.4,4.4,0,0,1-2.5-.669" transform="translate(-56.66 -89.593)"/><path class="e" d="M110.737,98.5v-5.57a1.222,1.222,0,0,1-.792.287,1.337,1.337,0,0,1-.873-.314,1.1,1.1,0,0,1-.341-.819.964.964,0,0,1,.532-.956,1.271,1.271,0,0,0,.833.3,1.187,1.187,0,0,0,1.161-1.024h.587c.573,0,.873.314.873.929V98.5c0,.6-.3.929-.873.929h-.26c-.56,0-.846-.328-.846-.929" transform="translate(-59.297 -89.623)"/><path class="e" d="M120.431,95.833c0-2.116,1.256-3.495,3.1-3.495a2.5,2.5,0,0,1,2.1,1.01V89.88a1.07,1.07,0,0,1,.724-.218c.572,0,1.2.3,1.2,1.542V98.29c0,.7-.341.915-.846.915h-.192c-.437,0-.764-.15-.832-.67-.014-.149-.027-.3-.027-.464a2.419,2.419,0,0,1-2.172,1.27c-1.8,0-3.058-1.419-3.058-3.508m5.215-.888a1.69,1.69,0,0,0-1.652-1.065,1.736,1.736,0,0,0-1.733,1.952,1.773,1.773,0,0,0,1.707,1.966,1.6,1.6,0,0,0,1.679-1.6Z" transform="translate(-62.126 -89.444)"/><path class="e" d="M135.478,93.192a3.171,3.171,0,0,1,3.317,3.33v.124c-.014.328-.109.506-.465.506h-4.615l.042.218a1.85,1.85,0,0,0,1.912,1.433,1.984,1.984,0,0,0,1.87-.97c.014-.027.942.055.942.82a1.3,1.3,0,0,1-.736,1.037,4.076,4.076,0,0,1-2.131.5,3.309,3.309,0,0,1-3.59-3.467,3.386,3.386,0,0,1,3.455-3.536m-.014,1.324a1.724,1.724,0,0,0-1.72,1.584h3.277a1.513,1.513,0,0,0-1.557-1.584" transform="translate(-64.928 -90.298)"/><path class="e" d="M146.422,95.833c0-2.116,1.256-3.495,3.1-3.495a2.5,2.5,0,0,1,2.1,1.01V89.88a1.07,1.07,0,0,1,.724-.218c.573,0,1.2.3,1.2,1.542V98.29c0,.7-.341.915-.847.915h-.191c-.437,0-.764-.15-.832-.67-.014-.149-.027-.3-.027-.464a2.419,2.419,0,0,1-2.172,1.27c-1.8,0-3.058-1.419-3.058-3.508m5.215-.888a1.69,1.69,0,0,0-1.652-1.065,1.736,1.736,0,0,0-1.733,1.952,1.773,1.773,0,0,0,1.707,1.966,1.6,1.6,0,0,0,1.679-1.6Z" transform="translate(-68.41 -89.444)"/><path class="e" d="M159.506,89.375a1,1,0,1,1-1.079,1,.962.962,0,0,1,1.079-1m-.969,3.9c0-.7.368-.929.86-.929h.205c.5,0,.859.218.859.929v4.942c0,.7-.354.915-.859.915h-.193c-.518,0-.873-.205-.873-.915Z" transform="translate(-71.312 -89.375)"/><path class="e" d="M166.824,93.192a3.376,3.376,0,0,1,2.184.669,1.606,1.606,0,0,1,.655,1.147c0,.778-1.037.928-1.079.846a1.64,1.64,0,0,0-1.68-1.106,1.951,1.951,0,0,0,0,3.891,1.666,1.666,0,0,0,1.68-1.106c.042-.083,1.079.027,1.079.859a1.539,1.539,0,0,1-.67,1.12,3.308,3.308,0,0,1-2.17.682,3.5,3.5,0,0,1,0-7" transform="translate(-72.5 -90.298)"/><path class="e" d="M174.753,89.375a1,1,0,1,1-1.079,1,.962.962,0,0,1,1.079-1m-.97,3.9c0-.7.369-.929.861-.929h.2c.5,0,.86.218.86.929v4.942c0,.7-.355.915-.86.915h-.192c-.518,0-.874-.205-.874-.915Z" transform="translate(-74.998 -89.375)"/><path class="e" d="M182.042,93.192a3.171,3.171,0,0,1,3.317,3.33v.124c-.014.328-.109.506-.465.506h-4.615l.042.218a1.85,1.85,0,0,0,1.911,1.433,1.984,1.984,0,0,0,1.87-.97c.014-.027.942.055.942.82a1.3,1.3,0,0,1-.736,1.037,4.076,4.076,0,0,1-2.131.5,3.309,3.309,0,0,1-3.59-3.467,3.386,3.386,0,0,1,3.454-3.536m-.014,1.324a1.724,1.724,0,0,0-1.72,1.584h3.277a1.513,1.513,0,0,0-1.557-1.584" transform="translate(-76.186 -90.298)"/><path class="e" d="M200.361,95.841v3.3c0,.7-.355.915-.846.915h-.2c-.519,0-.874-.2-.874-.915v-3c0-.874-.383-1.338-1.161-1.338a1.552,1.552,0,0,0-1.311.82v3.521c0,.7-.355.915-.846.915h-.2c-.506,0-.874-.2-.874-.915V96.182c0-.915-.383-1.379-1.147-1.379a1.55,1.55,0,0,0-1.31.82v3.521c0,.7-.356.915-.846.915h-.205c-.518,0-.873-.2-.873-.915V93.492c0-.068.341-.218.723-.218.478,0,1,.205,1.147,1.093a2.392,2.392,0,0,1,2.061-1.174,2.107,2.107,0,0,1,2.13,1.365,2.49,2.49,0,0,1,2.239-1.365c1.692,0,2.4,1.078,2.4,2.649" transform="translate(-78.863 -90.298)"/><path class="e" d="M208.178,98.55a.7.7,0,0,1-.792.655h-.205c-.5,0-.873-.2-.873-.928v-8.4a1.081,1.081,0,0,1,.738-.218c.56,0,1.187.3,1.187,1.542v2.225a2.507,2.507,0,0,1,2.144-1.092c1.8,0,3.072,1.351,3.072,3.481,0,2.075-1.256,3.522-3.085,3.522a2.354,2.354,0,0,1-2.144-1.187Zm1.734-4.669a1.731,1.731,0,0,0-1.68,1.092v1.3A1.585,1.585,0,0,0,209.9,97.8a1.979,1.979,0,0,0,.014-3.919" transform="translate(-82.888 -89.445)"/><path class="e" d="M222.649,94.311a.994.994,0,0,1-.614,1.01,1.333,1.333,0,0,0-.873-.328c-.929,0-1.338.82-1.338,2.158v1.993c0,.7-.354.915-.846.915h-.2c-.519,0-.874-.2-.874-.915V93.491c0-.068.328-.218.723-.218a1.065,1.065,0,0,1,1.052.724,3.045,3.045,0,0,1,.1.463,1.664,1.664,0,0,1,1.652-1.269,1.093,1.093,0,0,1,1.228,1.12" transform="translate(-85.69 -90.298)"/><path class="e" d="M228.518,93.192a3.171,3.171,0,0,1,3.317,3.33v.124c-.014.328-.109.506-.465.506h-4.614l.041.218a1.85,1.85,0,0,0,1.912,1.433,1.984,1.984,0,0,0,1.87-.97c.014-.027.942.055.942.82a1.3,1.3,0,0,1-.737,1.037,4.076,4.076,0,0,1-2.131.5,3.309,3.309,0,0,1-3.59-3.467,3.386,3.386,0,0,1,3.455-3.536m-.014,1.324a1.724,1.724,0,0,0-1.721,1.584h3.277a1.513,1.513,0,0,0-1.556-1.584" transform="translate(-87.422 -90.298)"/></g><path class="e" d="M44.213,58.369c0-7,4.156-11.567,10.256-11.567a8.267,8.267,0,0,1,6.958,3.344V38.67a3.528,3.528,0,0,1,2.4-.723c1.9,0,3.976.994,3.976,5.1V66.5c0,2.3-1.13,3.027-2.8,3.027h-.633c-1.446,0-2.53-.5-2.756-2.214-.045-.5-.09-.994-.09-1.537a8,8,0,0,1-7.184,4.2c-5.965,0-10.121-4.7-10.121-11.612m17.259-2.937a5.592,5.592,0,0,0-5.467-3.524c-3.434,0-5.738,2.485-5.738,6.461,0,3.84,2.349,6.506,5.648,6.506a5.3,5.3,0,0,0,5.558-5.286Z" transform="translate(-44.213 -36.817)"/><path class="e" d="M90.219,49.167c6.55,0,10.979,4.564,10.979,11.025V60.6c-.046,1.084-.362,1.672-1.537,1.672H84.39l.136.723a6.12,6.12,0,0,0,6.325,4.745c3.3,0,5.2-1.446,6.191-3.208.046-.091,3.117.181,3.117,2.711a4.307,4.307,0,0,1-2.439,3.434,13.5,13.5,0,0,1-7.048,1.672c-7.185,0-11.883-4.473-11.883-11.477,0-6.732,4.79-11.7,11.432-11.7m-.046,4.383a5.7,5.7,0,0,0-5.693,5.241H95.323c-.18-3.208-2.123-5.241-5.15-5.241" transform="translate(-51.501 -39.182)"/><path class="e" d="M111.874,66.5V38.669a3.534,3.534,0,0,1,2.394-.723c1.9,0,3.976.994,3.976,5.105V66.5c0,2.3-1.174,3.027-2.8,3.027h-.677c-1.672,0-2.892-.678-2.892-3.027" transform="translate(-58.476 -36.817)"/><path class="e" d="M131.963,68.138l9.941-25.8c.406-1.219,1.356-1.988,4.382-1.988s3.886.769,4.292,1.988l10.166,25.755c.226.541-1.626,2.078-3.615,2.078-1.446,0-2.937-.768-3.84-3.162l-1.762-4.565H140.909L139.1,67.1c-.813,2.3-2.214,3.072-3.615,3.072-1.9,0-3.7-1.446-3.525-2.034M150.126,57.43l-3.975-10.618L142.174,57.43Z" transform="translate(-62.708 -37.324)"/><path class="e" d="M193.622,55.582V66.2c0,2.3-1.219,3.027-2.846,3.027H190.1c-1.672,0-2.847-.678-2.847-3.027V56.576c0-2.937-1.491-4.744-4.066-4.744a5.327,5.327,0,0,0-4.835,2.892V66.2c0,2.3-1.174,3.027-2.8,3.027h-.677c-1.717,0-2.892-.678-2.892-3.027V47.494c0-.226,1.129-.723,2.394-.723,1.717,0,3.434.859,3.8,3.7a8.361,8.361,0,0,1,7.274-3.976c5.739,0,8.178,4.067,8.178,9.082M175.911,43.021a2.313,2.313,0,0,1-.678-1.762c0-2.486,1.672-4.745,4.2-4.745a6.327,6.327,0,0,1,2.982.9,12.232,12.232,0,0,1,2.982,2.439c.5-1.582,1.627-3.162,2.8-3.162a2.344,2.344,0,0,1,1.581.587,2.285,2.285,0,0,1,.679,1.808,4.432,4.432,0,0,1-4.2,4.7,5.58,5.58,0,0,1-3.072-.949,12.8,12.8,0,0,1-2.892-2.439c-.542,1.582-1.582,3.162-2.8,3.162a2.316,2.316,0,0,1-1.581-.542" transform="translate(-71.146 -36.515)"/><path class="e" d="M215.542,49.167c6.958,0,11.7,4.745,11.7,11.612s-4.79,11.567-11.794,11.567-11.7-4.7-11.7-11.657c0-6.777,4.79-11.522,11.794-11.522m-.046,4.97c-3.569,0-6.145,2.756-6.145,6.551,0,3.841,2.576,6.642,6.145,6.642,3.525,0,6.1-2.8,6.1-6.551,0-3.886-2.531-6.642-6.1-6.642" transform="translate(-77.842 -39.182)"/></g><path class="f" d="M36.246,41.241h-.867c-4.2,0-5.371-1.941-5.371-5.371V34.06a1.192,1.192,0,0,0-2.383,0v1.81c0,4.014-2.4,5.371-5.371,5.371h-.669a1.192,1.192,0,0,0,0,2.385h.667c3.515,0,5.374,1.178,5.374,5.376v1.8a1.192,1.192,0,1,0,2.383,0V49c0-3.851,2.368-5.376,5.375-5.376h.863a1.192,1.192,0,1,0,0-2.385m-7.43,2.968a1.775,1.775,0,1,1,1.773-1.773,1.772,1.772,0,0,1-1.773,1.773" transform="translate(-4.009 -9.325)"/><path class="f" d="M13.008,32.22a1.534,1.534,0,1,1-1.535-1.53,1.538,1.538,0,0,1,1.535,1.53m-1.535-3.254A3.257,3.257,0,1,0,14.73,32.22a3.26,3.26,0,0,0-3.257-3.254" transform="translate(-1.442 -8.502)"/><g transform="translate(0 52.788)"><path class="f" d="M20.574,74.084s.86-6.908,0-6.908c-.885,0,0,6.908,0,6.908" transform="translate(-6.172 -66.604)"/><path class="f" d="M20.574,97.061s-.885,6.92,0,6.92c.86,0,0-6.92,0-6.92" transform="translate(-6.172 -75.743)"/><path class="f" d="M7.732,86.928s-6.924-.878-6.924,0,6.924,0,6.924,0" transform="translate(-0.248 -72.525)"/><path class="f" d="M30.7,86.928s6.912.866,6.912,0-6.912,0-6.912,0" transform="translate(-9.39 -72.525)"/><path class="f" d="M11.516,77.877s-4.28-5.505-4.9-4.891,4.9,4.891,4.9,4.891" transform="translate(-2.01 -68.366)"/><path class="f" d="M27.771,94.143s4.28,5.5,4.9,4.888-4.9-4.888-4.9-4.888" transform="translate(-8.494 -74.851)"/><path class="f" d="M11.516,94.143s-5.508,4.273-4.9,4.888,4.9-4.888,4.9-4.888" transform="translate(-2.01 -74.851)"/><path class="f" d="M27.771,77.877s5.516-4.272,4.9-4.891-4.9,4.891-4.9,4.891" transform="translate(-8.494 -68.366)"/><path class="f" d="M15.708,75.068s-1.844-6.723-2.65-6.391,2.65,6.391,2.65,6.391" transform="translate(-3.956 -67.059)"/><path class="f" d="M24.554,96.3s1.837,6.725,2.636,6.4-2.636-6.4-2.636-6.4" transform="translate(-7.51 -75.509)"/><path class="f" d="M8.714,90.914s-6.72,1.841-6.4,2.647,6.4-2.647,6.4-2.647" transform="translate(-0.705 -73.863)"/><path class="f" d="M29.942,82.063s6.722-1.841,6.391-2.652-6.391,2.652-6.391,2.652" transform="translate(-9.158 -70.309)"/><path class="f" d="M8.714,82.063s-6.062-3.452-6.4-2.652,6.4,2.652,6.4,2.652" transform="translate(-0.705 -70.309)"/><path class="f" d="M29.942,90.914S36,94.363,36.333,93.561s-6.391-2.647-6.391-2.647" transform="translate(-9.158 -73.863)"/><path class="f" d="M15.708,96.3s-3.457,6.055-2.65,6.4,2.65-6.4,2.65-6.4" transform="translate(-3.956 -75.509)"/><path class="f" d="M24.554,75.068s3.436-6.059,2.636-6.391-2.636,6.391-2.636,6.391" transform="translate(-7.51 -67.059)"/><path class="f" d="M10.191,72s-.6-2.906-1.557-2.247S10.191,72,10.191,72" transform="translate(-2.575 -67.36)"/><path class="f" d="M2.7,83.659s-2.49-1.632-2.692-.5,2.692.5,2.692.5" transform="translate(-0.001 -71.37)"/><path class="f" d="M5.64,96.852s-2.913.606-2.253,1.556S5.64,96.852,5.64,96.852" transform="translate(-1.007 -75.679)"/><path class="f" d="M17.3,103.927s-1.626,2.493-.49,2.7.49-2.7.49-2.7" transform="translate(-5.018 -77.843)"/><path class="f" d="M30.493,101.152s.607,2.91,1.558,2.247-1.558-2.247-1.558-2.247" transform="translate(-9.326 -76.994)"/><path class="f" d="M37.582,90.06s2.481,1.624,2.688.486-2.688-.486-2.688-.486" transform="translate(-11.494 -73.544)"/><path class="f" d="M34.8,76.564s2.907-.611,2.254-1.562S34.8,76.564,34.8,76.564" transform="translate(-10.643 -68.93)"/><path class="f" d="M23.7,69.058s1.625-2.487.482-2.7-.482,2.7-.482,2.7" transform="translate(-7.191 -66.351)"/><path class="f" d="M17.3,69.058s.649-2.9-.49-2.7.49,2.7.49,2.7" transform="translate(-5.018 -66.351)"/><path class="f" d="M5.64,76.564S4.053,74.04,3.387,75,5.64,76.564,5.64,76.564" transform="translate(-1.007 -68.93)"/><path class="f" d="M2.7,90.06S-.2,89.4.012,90.546,2.7,90.06,2.7,90.06" transform="translate(-0.001 -73.544)"/><path class="f" d="M10.191,101.152s-2.51,1.591-1.557,2.247,1.557-2.247,1.557-2.247" transform="translate(-2.575 -76.994)"/><path class="f" d="M23.7,103.927s-.659,2.9.482,2.7-.482-2.7-.482-2.7" transform="translate(-7.191 -77.843)"/><path class="f" d="M34.8,96.852s1.592,2.518,2.254,1.556S34.8,96.852,34.8,96.852" transform="translate(-10.643 -75.679)"/><path class="f" d="M37.582,83.659s2.9.65,2.688-.5-2.688.5-2.688.5" transform="translate(-11.494 -71.37)"/><path class="f" d="M30.493,72s2.523-1.585,1.558-2.247S30.493,72,30.493,72" transform="translate(-9.326 -67.36)"/></g><g transform="translate(191.194 0)"><path class="e" d="M279.3,81.651c0-2.691,1.6-4.444,3.94-4.444a3.174,3.174,0,0,1,2.672,1.285V74.083a1.357,1.357,0,0,1,.921-.277c.729,0,1.527.382,1.527,1.961v9.008c0,.886-.434,1.164-1.076,1.164h-.243a.914.914,0,0,1-1.059-.852c-.017-.19-.035-.381-.035-.589a3.073,3.073,0,0,1-2.758,1.614c-2.292,0-3.889-1.805-3.889-4.461m6.63-1.129a2.146,2.146,0,0,0-2.1-1.353,2.207,2.207,0,0,0-2.2,2.482,2.253,2.253,0,0,0,2.168,2.5,2.037,2.037,0,0,0,2.132-1.937c0-.031,0-.063,0-.095Z" transform="translate(-246.204 -12.037)"/><path class="e" d="M291.266,84.867a1.079,1.079,0,0,1,.747-.97,3.7,3.7,0,0,0,2.794,1.146c.957,0,1.476-.33,1.476-.868,0-.659-.677-.781-1.8-1.024-1.164-.243-2.967-.628-2.967-2.533,0-1.65,1.337-2.743,3.523-2.743,1.719,0,2.777.469,3.211,1.127a1.264,1.264,0,0,1,.208.695,1.215,1.215,0,0,1-.782,1.027,3.357,3.357,0,0,0-2.481-1.145c-.938,0-1.44.346-1.44.884,0,.608.659.73,1.8.99,1.2.259,3.108.643,3.108,2.552,0,1.7-1.354,2.726-3.733,2.726a5.592,5.592,0,0,1-2.917-.643,1.479,1.479,0,0,1-.746-1.214" transform="translate(-248.156 -12.701)"/><path class="e" d="M305.29,77.871a4.284,4.284,0,0,1,2.777.851,2.036,2.036,0,0,1,.833,1.458c0,.989-1.318,1.181-1.368,1.076A2.087,2.087,0,0,0,305.4,79.85a2.481,2.481,0,0,0,0,4.947,2.117,2.117,0,0,0,2.135-1.405c.052-.1,1.368.034,1.368,1.093a1.953,1.953,0,0,1-.85,1.424,4.217,4.217,0,0,1-2.76.867,4.452,4.452,0,0,1,0-8.9" transform="translate(-249.717 -12.699)"/><path class="e" d="M312.243,83.458V79.569h-.434c-.694,0-1.007-.313-1.007-.868v-.139c0-.57.313-.9.99-.9h.451V76.584c0-.8.4-1.18,1.094-1.18h.228c.643,0,1.076.278,1.076,1.18V77.66h1.475c.695,0,.99.3.99.851v.156c0,.59-.313.9-1.008.9h-1.5v3.611c0,.834.261,1.249.938,1.249a1.239,1.239,0,0,0,1.059-.571.964.964,0,0,1,.607.955,1.237,1.237,0,0,1-.416.937,2.528,2.528,0,0,1-1.823.628c-1.857,0-2.725-.988-2.725-2.916" transform="translate(-251.342 -12.298)"/><path class="e" d="M323.378,77.871a4.266,4.266,0,0,1,4.494,4.022c.008.146.008.293,0,.439a4.529,4.529,0,0,1-9.026.452,4.5,4.5,0,0,1,0-.487,4.275,4.275,0,0,1,4.531-4.426m-.018,1.909a2.542,2.542,0,1,0,2.336,2.732c0-.06.007-.121.008-.18a2.358,2.358,0,0,0-2.344-2.553" transform="translate(-252.653 -12.699)"/><path class="e" d="M290.666,31.253v3.414c0,.757-.4.994-.935.994h-.223c-.549,0-.935-.223-.935-.994V31.536c0-1-.5-1.588-1.336-1.588a1.518,1.518,0,0,0-1.587,1.692v3.026c0,.757-.4,1-.935,1h-.223c-.549,0-.935-.223-.935-1v-9.14a1.121,1.121,0,0,1,.786-.238c.608,0,1.306.327,1.306,1.677V29.5a2.589,2.589,0,0,1,2.314-1.306c1.9,0,2.7,1.366,2.7,3.056" transform="translate(-246.899 -4.124)"/><path class="e" d="M297.687,31.85h.238a.861.861,0,0,0-.015-.208,1.281,1.281,0,0,0-1.469-1.306,1.813,1.813,0,0,0-1.78,1.053c-.015.031-1.352.134-1.352-.829a1.326,1.326,0,0,1,.446-.95,3.9,3.9,0,0,1,2.819-.845c2.3,0,3.414,1.053,3.414,3v4.271c0,.1-.385.237-.787.237a1.08,1.08,0,0,1-1.1-.7,3.009,3.009,0,0,1-.119-.488,2.893,2.893,0,0,1-2.507,1.247c-1.511,0-2.433-.83-2.433-2.078,0-1.616,1.573-2.358,4.644-2.4m.238,1.054h-.4c-1.647.059-2.522.371-2.522,1.188,0,.548.429.89,1.126.89a1.632,1.632,0,0,0,1.8-1.557Z" transform="translate(-248.446 -4.691)"/><path class="e" d="M302.209,34.745a.917.917,0,0,1,.638-.829,3.168,3.168,0,0,0,2.389.979c.816,0,1.261-.281,1.261-.742,0-.563-.577-.668-1.542-.875-.994-.208-2.536-.536-2.536-2.166,0-1.41,1.142-2.345,3.012-2.345,1.469,0,2.374.4,2.745.964a1.077,1.077,0,0,1,.178.593,1.043,1.043,0,0,1-.668.879,2.877,2.877,0,0,0-2.122-.98c-.8,0-1.231.3-1.231.757,0,.519.562.623,1.542.846,1.024.222,2.656.548,2.656,2.181,0,1.454-1.157,2.329-3.19,2.329a4.752,4.752,0,0,1-2.492-.549,1.259,1.259,0,0,1-.639-1.038" transform="translate(-249.94 -4.691)"/><path class="e" d="M311.329,33.539V30.215h-.371c-.593,0-.861-.267-.861-.741v-.119c0-.488.269-.772.846-.772h.386v-.921c0-.683.341-1.009.935-1.009h.2c.549,0,.92.239.92,1.009v.92h1.262c.593,0,.845.253.845.727v.133c0,.5-.268.772-.861.772h-1.278V33.3c0,.711.223,1.068.8,1.068a1.062,1.062,0,0,0,.9-.488.821.821,0,0,1,.519.817,1.06,1.06,0,0,1-.355.8,2.161,2.161,0,0,1-1.559.536c-1.587,0-2.329-.844-2.329-2.492" transform="translate(-251.227 -4.347)"/><path class="e" d="M321.727,31.85h.238a.953.953,0,0,0-.015-.208,1.28,1.28,0,0,0-1.469-1.3,1.811,1.811,0,0,0-1.78,1.053c-.016.03-1.351.134-1.351-.829a1.326,1.326,0,0,1,.445-.949,3.9,3.9,0,0,1,2.819-.845c2.3,0,3.414,1.052,3.414,3v4.27c0,.1-.386.237-.787.237a1.08,1.08,0,0,1-1.1-.7,3.031,3.031,0,0,1-.119-.488,2.892,2.892,0,0,1-2.507,1.247c-1.511,0-2.433-.83-2.433-2.078,0-1.616,1.573-2.358,4.645-2.4m.237,1.054h-.4c-1.646.059-2.522.371-2.522,1.188,0,.548.429.89,1.126.89a1.632,1.632,0,0,0,1.8-1.557Z" transform="translate(-252.366 -4.692)"/><path class="e" d="M272.335,65.131V49.253a3.482,3.482,0,0,1-2.255.818,3.811,3.811,0,0,1-2.491-.9,3.137,3.137,0,0,1-.972-2.334,2.751,2.751,0,0,1,1.517-2.725,3.616,3.616,0,0,0,2.373.855,3.38,3.38,0,0,0,3.31-2.918h1.673c1.634,0,2.49.895,2.49,2.646V65.131c0,1.711-.855,2.646-2.49,2.646h-.742c-1.6,0-2.413-.934-2.413-2.646" transform="translate(-244.135 -6.858)"/><path class="e" d="M287.334,66.467c-1.6-.972-2.491-2.179-2.491-3.346,0-1.674,2.18-2.881,2.374-2.686a8.385,8.385,0,0,0,6.928,3.386c3.229,0,5.215-1.6,5.215-4.126s-1.791-4.008-5.021-4.008a8.1,8.1,0,0,0-5.175,1.556c-2.258-.077-3.387-1.049-3.387-3.347V45.568c0-2.024.855-3.191,2.763-3.191h12.181c1.79,0,2.685.741,2.685,2.256v.195c0,1.518-.855,2.219-2.685,2.219H290.567V52.69a12.2,12.2,0,0,1,4.592-.931c5.6,0,9.3,3.035,9.3,7.978,0,5.1-3.931,8.366-10.236,8.366a13.5,13.5,0,0,1-6.887-1.636" transform="translate(-247.108 -6.911)"/><path class="e" d="M310.986,55.125a5.816,5.816,0,0,1,5.766-5.865h.105a5.862,5.862,0,1,1-5.87,5.961c0-.032,0-.064,0-.1m5.87-2.231a2.225,2.225,0,1,0,2.224,2.225,2.224,2.224,0,0,0-2.224-2.225" transform="translate(-251.372 -8.034)"/><path class="e" d="M334.179,70.873a5.854,5.854,0,1,1,5.863-5.845,5.855,5.855,0,0,1-5.863,5.845m-2.2-5.844a2.17,2.17,0,0,0,2.133,2.2h.074a2.22,2.22,0,0,0,.071-4.439h-.071a2.192,2.192,0,0,0-2.205,2.179v.056" transform="translate(-254.201 -9.649)"/><path class="e" d="M320.613,69.26a1,1,0,0,1-1.106-.885.987.987,0,0,1,.075-.505,9.955,9.955,0,0,1,.678-1.4q4.473-8.225,8.957-16.443a1.209,1.209,0,0,1,1.581-.651l.01,0a.974.974,0,0,1,.633,1.217,7.33,7.33,0,0,1-.564,1.165q-4.441,8.18-8.891,16.355a4.909,4.909,0,0,1-.464.731,1.087,1.087,0,0,1-.908.418" transform="translate(-252.761 -8.037)"/><path class="f" d="M259.712,22.71h.9c4.383,0,5.609,2.022,5.609,5.608V30.2a1.244,1.244,0,1,0,2.487,0V28.318c0-4.195,2.51-5.608,5.611-5.608h.7a1.244,1.244,0,1,0,0-2.489h-.7c-3.673,0-5.612-1.23-5.612-5.613V12.723a1.244,1.244,0,1,0-2.487,0v1.885c0,4.02-2.471,5.613-5.609,5.613h-.9a1.244,1.244,0,0,0,0,2.489m7.755-3.1a1.854,1.854,0,1,1-1.847,1.847,1.848,1.848,0,0,1,1.847-1.847" transform="translate(-242.807 -1.871)"/><path class="f" d="M263.711,27.332l-2.834,2.831a.829.829,0,1,0,1.174,1.172l2.833-2.832a.829.829,0,0,0-1.173-1.171" transform="translate(-243.16 -4.418)"/><path class="f" d="M275.774,15.264,272.936,18.1a.829.829,0,1,0,1.175,1.171l2.837-2.831a.829.829,0,0,0-1.174-1.172" transform="translate(-245.127 -2.449)"/><path class="f" d="M264.884,18.1l-2.834-2.832a.829.829,0,0,0-1.173,1.172l2.834,2.83a.829.829,0,1,0,1.173-1.171" transform="translate(-243.159 -2.45)"/><path class="f" d="M276.945,30.164l-2.834-2.831a.829.829,0,1,0-1.174,1.172l2.836,2.831a.829.829,0,0,0,1.172-1.172" transform="translate(-245.127 -4.418)"/><path class="f" d="M251.3,58.417a1.627,1.627,0,1,1-1.628-1.623,1.631,1.631,0,0,1,1.628,1.623m-1.628-3.451a3.454,3.454,0,1,0,3.454,3.451,3.457,3.457,0,0,0-3.454-3.451" transform="translate(-240.808 -18.252)"/><path class="f" d="M260.9,95.928h-.494c-2.39,0-3.06-1.107-3.06-3.061V91.836a.679.679,0,1,0-1.357,0v1.031a2.74,2.74,0,0,1-3.062,3.061h-.38a.679.679,0,0,0,0,1.357h.378c2.005,0,3.064.67,3.064,3.061v1.031a.679.679,0,1,0,1.357,0v-1.031a2.775,2.775,0,0,1,3.061-3.061h.492a.679.679,0,1,0,0-1.357m-4.233,1.691a1.013,1.013,0,1,1,1.008-1.01,1.011,1.011,0,0,1-1.008,1.01" transform="translate(-230.045 -7.676)"/><path class="f" d="M248.3,79.6h-.8c-3.874,0-4.96-1.8-4.96-4.963v-1.67a1.1,1.1,0,1,0-2.2,0v1.67c0,3.71-2.219,4.963-4.962,4.963h-.617a1.1,1.1,0,0,0,0,2.2h.614c3.249,0,4.965,1.085,4.965,4.96v1.67a1.1,1.1,0,1,0,2.2,0v-1.67c0-3.554,2.187-4.96,4.963-4.96h.8a1.1,1.1,0,1,0,0-2.2m-6.861,2.74a1.641,1.641,0,1,1,1.635-1.637,1.637,1.637,0,0,1-1.635,1.637" transform="translate(-233.668 -11.422)"/><path class="f" d="M339.349,8.71s1.336-7.734.367-7.78c-1-.048-.367,7.78-.367,7.78" transform="translate(-255.966 -0.151)"/><path class="f" d="M348.246,19.941s7.738,1.342,7.784.367-7.784-.367-7.784-.367" transform="translate(-257.449 -3.221)"/><path class="f" d="M331.633,11.514s-4.528-6.427-5.253-5.769,5.253,5.769,5.253,5.769" transform="translate(-253.873 -0.929)"/><path class="f" d="M345.2,26.429s4.528,6.42,5.253,5.765-5.253-5.765-5.253-5.765" transform="translate(-256.952 -4.31)"/><path class="f" d="M345.819,12.232s6.439-4.517,5.774-5.248-5.774,5.248-5.774,5.248" transform="translate(-257.053 -1.129)"/><path class="f" d="M335.241,9.336S333.521,1.667,332.6,2s2.645,7.339,2.645,7.339" transform="translate(-254.871 -0.324)"/><path class="f" d="M347.7,15.835s7.668-1.716,7.339-2.646-7.339,2.646-7.339,2.646" transform="translate(-257.361 -2.126)"/><path class="f" d="M347.368,23.508s6.637,4.205,7.057,3.322-7.057-3.322-7.057-3.322" transform="translate(-257.306 -3.834)"/><path class="f" d="M342.909,9.725s4.192-6.642,3.308-7.058-3.308,7.058-3.308,7.058" transform="translate(-256.579 -0.432)"/><path class="f" d="M330.066,5.437s-.526-3.3-1.634-2.614,1.634,2.614,1.634,2.614" transform="translate(-254.174 -0.445)"/><path class="f" d="M354.539,23.1s2.707,1.961,3,.69-3-.69-3-.69" transform="translate(-258.475 -3.745)"/><path class="f" d="M352.5,10.679s3.306-.533,2.621-1.639-2.621,1.639-2.621,1.639" transform="translate(-258.143 -1.43)"/><path class="f" d="M342.5,3.345s1.962-2.715.685-3.011-.685,3.011-.685,3.011" transform="translate(-256.49 -0.051)"/><path class="f" d="M336.661,3.068s.885-3.229-.408-3.062.408,3.062.408,3.062" transform="translate(-255.414 0)"/><path class="f" d="M325.731,9.4s-1.655-2.927-2.455-1.879S325.731,9.4,325.731,9.4" transform="translate(-253.356 -1.19)"/><path class="f" d="M351.645,29.269s1.659,2.921,2.455,1.872-2.455-1.872-2.455-1.872" transform="translate(-258.003 -4.773)"/><path class="f" d="M354.807,17.263s3.23.886,3.053-.416-3.053.416-3.053.416" transform="translate(-258.519 -2.669)"/><path class="f" d="M348.671,6.324s2.925-1.651,1.875-2.449c-1.035-.792-1.875,2.449-1.875,2.449" transform="translate(-257.518 -0.611)"/><path class="f" d="M297.723,88.91A39.8,39.8,0,0,1,257.97,49.157a39.326,39.326,0,0,1,4.408-18.212,1.256,1.256,0,0,1,2.231,1.152,36.825,36.825,0,0,0-4.128,17.059A37.234,37.234,0,1,0,276.9,18.275a1.256,1.256,0,0,1-1.406-2.081,39.757,39.757,0,1,1,38.738,69.136,39.436,39.436,0,0,1-16.511,3.58" transform="translate(-242.725 -1.533)"/></g><path class="e" d="M2.758-24.8h.188a.61.61,0,0,0,.69-.69v-.157a.618.618,0,0,0-.69-.69H2.758a.617.617,0,0,0-.7.69v.157A.609.609,0,0,0,2.758-24.8ZM2.726-19.4h.261a.685.685,0,0,0,.721-.92l-.418-3.366c-.073-.3-.157-.47-.366-.47H2.779c-.22,0-.314.167-.387.47l-.418,3.366A.7.7,0,0,0,2.726-19.4Zm2.812-.042h.22a.623.623,0,0,0,.679-.7V-21.68H7.462c1.809,0,2.77-.774,2.77-2.279s-.993-2.289-2.781-2.289H5.7a.763.763,0,0,0-.8.857v5.248C4.89-19.684,5.12-19.443,5.538-19.443Zm1.892-3.4H6.417v-2.206h1c.857,0,1.307.376,1.307,1.1S8.277-22.841,7.431-22.841ZM13.724-24.7a1.274,1.274,0,0,0-1.265.972,2.339,2.339,0,0,0-.073-.355.815.815,0,0,0-.8-.554c-.3,0-.554.115-.554.167v4.328c0,.544.272.7.669.7h.157c.376,0,.648-.167.648-.7V-21.67c0-1.024.314-1.652,1.024-1.652a1.021,1.021,0,0,1,.669.251.762.762,0,0,0,.47-.774A.837.837,0,0,0,13.724-24.7Zm1.045,2.666a2.56,2.56,0,0,0,2.708,2.7,2.571,2.571,0,0,0,2.728-2.676A2.568,2.568,0,0,0,17.5-24.7,2.574,2.574,0,0,0,14.769-22.036Zm4.129.021A1.426,1.426,0,0,1,17.487-20.5a1.434,1.434,0,0,1-1.422-1.537,1.422,1.422,0,0,1,1.422-1.516A1.42,1.42,0,0,1,18.9-22.015Zm4.234,2.676a1.524,1.524,0,0,0,1.1-.376.747.747,0,0,0,.251-.565.579.579,0,0,0-.366-.575.748.748,0,0,1-.638.345c-.408,0-.565-.251-.565-.753v-2.174h.9c.418,0,.606-.188.606-.544v-.094c0-.335-.178-.512-.6-.512h-.889v-.648c0-.544-.261-.711-.648-.711h-.136c-.418,0-.659.23-.659.711v.648h-.272c-.408,0-.6.2-.6.544v.084c0,.335.188.523.606.523h.261v2.342C21.491-19.934,22.014-19.339,23.132-19.339Zm1.756-2.655a2.534,2.534,0,0,0,2.749,2.655,3.123,3.123,0,0,0,1.631-.387,1,1,0,0,0,.565-.794c0-.585-.711-.648-.721-.627a1.521,1.521,0,0,1-1.432.742,1.416,1.416,0,0,1-1.464-1.1l-.031-.167h3.533c.272,0,.345-.136.355-.387v-.094a2.428,2.428,0,0,0-2.54-2.551A2.593,2.593,0,0,0,24.888-21.994Zm3.826-.481H26.206a1.319,1.319,0,0,1,1.317-1.213A1.158,1.158,0,0,1,28.714-22.475Zm4.234,5.2c1.746,0,2.749-.627,2.749-1.61,0-.857-.753-1.244-1.474-1.432s-1.15-.22-1.223-.47a.191.191,0,0,1-.073-.167c.073,0,.136-.01.209-.01,1.328-.031,2.2-.763,2.2-1.819a1.672,1.672,0,0,0-.45-1.129l.878-.868a.8.8,0,0,0-.721-.617.79.79,0,0,0-.732.512l-.23.429a2.632,2.632,0,0,0-1.087-.24,2.094,2.094,0,0,0-2.321,1.934,1.743,1.743,0,0,0,1.4,1.683.715.715,0,0,0-.355.585.645.645,0,0,0,.188.47c-.92.136-1.589.627-1.589,1.349C30.314-17.739,31.129-17.279,32.948-17.279ZM33-21.806a.947.947,0,0,1-.993-.983.927.927,0,0,1,.972-.972.936.936,0,0,1,1,.972A.938.938,0,0,1,33-21.806Zm-.021,3.722c-.868,0-1.307-.22-1.307-.606,0-.439.575-.7,1.328-.753.167.031.324.073.47.1.481.125.847.261.847.6C34.318-18.325,33.847-18.084,32.98-18.084ZM36-21.994a2.534,2.534,0,0,0,2.749,2.655,3.123,3.123,0,0,0,1.631-.387,1,1,0,0,0,.565-.794c0-.585-.711-.648-.721-.627a1.521,1.521,0,0,1-1.432.742,1.416,1.416,0,0,1-1.464-1.1L37.3-21.67H40.83c.272,0,.345-.136.355-.387v-.094a2.428,2.428,0,0,0-2.54-2.551A2.593,2.593,0,0,0,36-21.994Zm3.826-.481H37.318a1.319,1.319,0,0,1,1.317-1.213A1.158,1.158,0,0,1,39.827-22.475Zm3.7,1.641c0,.878.648,1.464,1.714,1.464a2.038,2.038,0,0,0,1.767-.878,2.089,2.089,0,0,0,.084.345.761.761,0,0,0,.774.491c.282,0,.554-.094.554-.167V-22.59c0-1.369-.784-2.112-2.4-2.112a2.749,2.749,0,0,0-1.986.6.933.933,0,0,0-.314.669c0,.679.941.606.951.585a1.278,1.278,0,0,1,1.254-.742.9.9,0,0,1,1.035.92.643.643,0,0,1,.01.146H46.8C44.636-22.5,43.527-21.973,43.527-20.833Zm3.439-.585a1.15,1.15,0,0,1-1.265,1.1c-.491,0-.794-.24-.794-.627,0-.575.617-.794,1.777-.836h.282Zm4.986,1.976h.157c.376,0,.648-.167.648-.7v-5.426c0-.951-.481-1.181-.92-1.181a.817.817,0,0,0-.554.167v6.44C51.284-19.6,51.566-19.443,51.953-19.443Zm1.694-2.593a2.56,2.56,0,0,0,2.708,2.7,2.571,2.571,0,0,0,2.728-2.676A2.568,2.568,0,0,0,56.375-24.7,2.574,2.574,0,0,0,53.647-22.036Zm4.129.021A1.426,1.426,0,0,1,56.365-20.5a1.434,1.434,0,0,1-1.422-1.537,1.422,1.422,0,0,1,1.422-1.516A1.42,1.42,0,0,1,57.776-22.015Zm2.258,2.258a3.357,3.357,0,0,0,1.756.387c1.432,0,2.248-.617,2.248-1.641,0-1.15-1.15-1.38-1.871-1.537-.69-.157-1.087-.23-1.087-.6,0-.324.3-.533.868-.533a2.026,2.026,0,0,1,1.495.69.732.732,0,0,0,.47-.617.754.754,0,0,0-.125-.418,2.242,2.242,0,0,0-1.934-.679c-1.317,0-2.122.659-2.122,1.652,0,1.15,1.087,1.38,1.788,1.526.679.146,1.087.22,1.087.617,0,.324-.314.523-.889.523a2.23,2.23,0,0,1-1.683-.69.649.649,0,0,0-.45.585A.89.89,0,0,0,60.034-19.757Zm11.28-4.882a.826.826,0,0,0-.868.8,1.872,1.872,0,0,0-1.662-.868,2.4,2.4,0,0,0-2.373,2.676,2.411,2.411,0,0,0,2.342,2.687,1.86,1.86,0,0,0,1.641-.93v2.112c0,.533.282.711.659.711h.157c.387,0,.659-.167.659-.711v-6.314A.792.792,0,0,0,71.314-24.639Zm-.909,2.9a1.233,1.233,0,0,1-1.286,1.223,1.357,1.357,0,0,1-1.307-1.505,1.329,1.329,0,0,1,1.328-1.495,1.3,1.3,0,0,1,1.265.826Zm6.868-2.9h-.157c-.376,0-.638.178-.638.711v2.676a1.24,1.24,0,0,1-1.108.669c-.606,0-.962-.408-.962-1.1v-2.248c0-.544-.272-.711-.659-.711h-.167c-.366,0-.638.178-.638.711v2.467c0,1.181.554,2.112,1.882,2.112a1.926,1.926,0,0,0,1.683-.93,1.711,1.711,0,0,0,.052.282.818.818,0,0,0,.826.554c.293,0,.554-.115.554-.167v-4.317C77.941-24.471,77.669-24.639,77.272-24.639Zm1.411,2.645a2.534,2.534,0,0,0,2.749,2.655,3.123,3.123,0,0,0,1.631-.387,1,1,0,0,0,.564-.794c0-.585-.711-.648-.721-.627a1.521,1.521,0,0,1-1.432.742,1.416,1.416,0,0,1-1.464-1.1l-.031-.167h3.533c.272,0,.345-.136.355-.387v-.094a2.428,2.428,0,0,0-2.54-2.551A2.593,2.593,0,0,0,78.683-21.994Zm3.826-.481H80a1.319,1.319,0,0,1,1.317-1.213A1.158,1.158,0,0,1,82.51-22.475ZM92.827-24.7a1.905,1.905,0,0,0-1.714,1.045A1.614,1.614,0,0,0,89.482-24.7a1.832,1.832,0,0,0-1.579.9c-.115-.679-.512-.836-.878-.836-.293,0-.554.115-.554.167v4.328c0,.544.272.7.669.7H87.3c.376,0,.648-.167.648-.7v-2.7a1.188,1.188,0,0,1,1-.627c.585,0,.878.355.878,1.056v2.268c0,.544.282.7.669.7h.157c.376,0,.648-.167.648-.7v-2.7a1.188,1.188,0,0,1,1-.627c.6,0,.889.355.889,1.024v2.3c0,.544.272.7.669.7h.157c.376,0,.648-.167.648-.7v-2.53C94.667-23.876,94.124-24.7,92.827-24.7Zm4.443-.523c.439,0,1.965-.523,1.965-1.317a.576.576,0,0,0-.6-.617c-.868,0-1.579,1.464-1.579,1.788C97.061-25.255,97.134-25.224,97.27-25.224Zm-1.809,4.391c0,.878.648,1.464,1.714,1.464a2.038,2.038,0,0,0,1.767-.878,2.088,2.088,0,0,0,.084.345.761.761,0,0,0,.774.491c.282,0,.554-.094.554-.167V-22.59c0-1.369-.784-2.112-2.4-2.112a2.749,2.749,0,0,0-1.986.6.933.933,0,0,0-.314.669c0,.679.941.606.951.585a1.278,1.278,0,0,1,1.254-.742.9.9,0,0,1,1.035.92.643.643,0,0,1,.01.146h-.167C96.57-22.5,95.462-21.973,95.462-20.833Zm3.439-.585a1.15,1.15,0,0,1-1.265,1.1c-.491,0-.794-.24-.794-.627,0-.575.617-.794,1.777-.836H98.9Zm2.624,1.662a3.357,3.357,0,0,0,1.756.387c1.432,0,2.248-.617,2.248-1.641,0-1.15-1.15-1.38-1.871-1.537-.69-.157-1.087-.23-1.087-.6,0-.324.3-.533.868-.533a2.026,2.026,0,0,1,1.495.69.732.732,0,0,0,.47-.617.754.754,0,0,0-.125-.418,2.242,2.242,0,0,0-1.934-.679c-1.317,0-2.122.659-2.122,1.652,0,1.15,1.087,1.38,1.788,1.526.679.146,1.087.22,1.087.617,0,.324-.314.523-.889.523a2.23,2.23,0,0,1-1.683-.69.649.649,0,0,0-.45.585A.89.89,0,0,0,101.525-19.757Zm6.377-1.077c0,.878.648,1.464,1.714,1.464a2.038,2.038,0,0,0,1.767-.878,2.09,2.09,0,0,0,.084.345.761.761,0,0,0,.774.491c.282,0,.554-.094.554-.167V-22.59c0-1.369-.784-2.112-2.4-2.112a2.749,2.749,0,0,0-1.986.6.933.933,0,0,0-.314.669c0,.679.941.606.951.585a1.278,1.278,0,0,1,1.254-.742.9.9,0,0,1,1.035.92.642.642,0,0,1,.01.146h-.167C109.01-22.5,107.9-21.973,107.9-20.833Zm3.439-.585a1.15,1.15,0,0,1-1.265,1.1c-.491,0-.794-.24-.794-.627,0-.575.617-.794,1.777-.836h.282Zm8.865-3.282a1.905,1.905,0,0,0-1.714,1.045,1.614,1.614,0,0,0-1.631-1.045,1.832,1.832,0,0,0-1.579.9c-.115-.679-.512-.836-.878-.836-.293,0-.554.115-.554.167v4.328c0,.544.272.7.669.7h.157c.376,0,.648-.167.648-.7v-2.7a1.188,1.188,0,0,1,1-.627c.585,0,.878.355.878,1.056v2.268c0,.544.282.7.669.7h.157c.376,0,.648-.167.648-.7v-2.7a1.188,1.188,0,0,1,1-.627c.6,0,.889.355.889,1.024v2.3c0,.544.272.7.669.7h.157c.376,0,.648-.167.648-.7v-2.53C122.046-23.876,121.5-24.7,120.206-24.7Zm2.634,3.868c0,.878.648,1.464,1.714,1.464a2.038,2.038,0,0,0,1.767-.878,2.089,2.089,0,0,0,.084.345.761.761,0,0,0,.774.491c.282,0,.554-.094.554-.167V-22.59c0-1.369-.784-2.112-2.4-2.112a2.749,2.749,0,0,0-1.986.6.933.933,0,0,0-.314.669c0,.679.941.606.951.585a1.278,1.278,0,0,1,1.254-.742.9.9,0,0,1,1.035.92.642.642,0,0,1,.01.146h-.167C123.948-22.5,122.84-21.973,122.84-20.833Zm3.439-.585a1.15,1.15,0,0,1-1.265,1.1c-.491,0-.794-.24-.794-.627,0-.575.617-.794,1.777-.836h.282Zm2.624,1.662a3.357,3.357,0,0,0,1.756.387c1.432,0,2.248-.617,2.248-1.641,0-1.15-1.15-1.38-1.871-1.537-.69-.157-1.087-.23-1.087-.6,0-.324.3-.533.868-.533a2.026,2.026,0,0,1,1.495.69.732.732,0,0,0,.47-.617.754.754,0,0,0-.125-.418,2.242,2.242,0,0,0-1.934-.679c-1.317,0-2.122.659-2.122,1.652,0,1.15,1.087,1.38,1.788,1.526.68.146,1.087.22,1.087.617,0,.324-.314.523-.889.523a2.23,2.23,0,0,1-1.683-.69.649.649,0,0,0-.45.585A.89.89,0,0,0,128.9-19.757Zm8.718.418a1.851,1.851,0,0,0,1.662-.972c0,.125.01.24.021.355.052.4.3.512.638.512h.146c.387,0,.648-.167.648-.7v-5.426c0-.951-.481-1.181-.92-1.181a.817.817,0,0,0-.554.167v2.655a1.913,1.913,0,0,0-1.61-.774,2.4,2.4,0,0,0-2.373,2.676A2.411,2.411,0,0,0,137.622-19.339Zm1.652-2.4a1.226,1.226,0,0,1-1.286,1.223,1.357,1.357,0,0,1-1.307-1.505,1.329,1.329,0,0,1,1.328-1.495,1.294,1.294,0,0,1,1.265.815Zm2.321-.251a2.534,2.534,0,0,0,2.749,2.655,3.123,3.123,0,0,0,1.631-.387,1,1,0,0,0,.564-.794c0-.585-.711-.648-.721-.627a1.521,1.521,0,0,1-1.432.742,1.416,1.416,0,0,1-1.464-1.1l-.031-.167h3.533c.272,0,.345-.136.355-.387v-.094a2.428,2.428,0,0,0-2.54-2.551A2.593,2.593,0,0,0,141.594-21.994Zm3.826-.481h-2.509a1.319,1.319,0,0,1,1.317-1.213A1.158,1.158,0,0,1,145.42-22.475Zm2.3,2.718a3.357,3.357,0,0,0,1.756.387c1.432,0,2.248-.617,2.248-1.641,0-1.15-1.15-1.38-1.871-1.537-.69-.157-1.087-.23-1.087-.6,0-.324.3-.533.868-.533a2.026,2.026,0,0,1,1.495.69.732.732,0,0,0,.47-.617.754.754,0,0,0-.125-.418,2.242,2.242,0,0,0-1.934-.679c-1.317,0-2.122.659-2.122,1.652,0,1.15,1.087,1.38,1.788,1.526.679.146,1.087.22,1.087.617,0,.324-.314.523-.889.523a2.23,2.23,0,0,1-1.683-.69.649.649,0,0,0-.45.585A.89.89,0,0,0,147.72-19.757Zm6.941.418a1.851,1.851,0,0,0,1.662-.972c0,.125.01.24.021.355.052.4.3.512.638.512h.146c.387,0,.648-.167.648-.7v-5.426c0-.951-.481-1.181-.92-1.181a.817.817,0,0,0-.554.167v2.655a1.913,1.913,0,0,0-1.61-.774,2.4,2.4,0,0,0-2.373,2.676A2.411,2.411,0,0,0,154.661-19.339Zm1.652-2.4a1.226,1.226,0,0,1-1.286,1.223,1.357,1.357,0,0,1-1.307-1.505,1.329,1.329,0,0,1,1.328-1.495,1.294,1.294,0,0,1,1.265.815Zm2.321-.251a2.534,2.534,0,0,0,2.749,2.655,3.123,3.123,0,0,0,1.631-.387,1,1,0,0,0,.564-.794c0-.585-.711-.648-.721-.627a1.521,1.521,0,0,1-1.432.742,1.416,1.416,0,0,1-1.464-1.1l-.031-.167h3.533c.272,0,.345-.136.355-.387v-.094a2.428,2.428,0,0,0-2.54-2.551A2.593,2.593,0,0,0,158.634-21.994Zm3.826-.481h-2.509a1.319,1.319,0,0,1,1.317-1.213A1.158,1.158,0,0,1,162.46-22.475Zm7.067-2.227a1.826,1.826,0,0,0-1.631.92v-1.788c0-.951-.491-1.181-.92-1.181a.792.792,0,0,0-.554.167v6.44c0,.544.272.7.659.7h.157c.376,0,.659-.167.659-.7v-2.133a1.07,1.07,0,0,1,1.119-1.192c.585,0,.941.418.941,1.119v2.206c0,.544.272.7.659.7h.157c.376,0,.659-.167.659-.7v-2.4C171.429-23.74,170.865-24.7,169.527-24.7Zm2.7,2.666a2.56,2.56,0,0,0,2.708,2.7,2.571,2.571,0,0,0,2.728-2.676,2.568,2.568,0,0,0-2.708-2.687A2.574,2.574,0,0,0,172.224-22.036Zm4.129.021a1.426,1.426,0,0,1-1.411,1.516,1.434,1.434,0,0,1-1.422-1.537,1.422,1.422,0,0,1,1.422-1.516A1.42,1.42,0,0,1,176.353-22.015Zm3.847,4.537c.324,0,.617-.167.836-.721l2.321-6.032c.031-.073-.387-.418-.794-.418-.335,0-.648.178-.826.753l-.983,2.917-1.087-2.927c-.188-.565-.481-.742-.836-.742-.45.01-.836.355-.8.439l1.756,4.067a.526.526,0,0,0,.47.335l-.836,1.923C179.385-17.812,179.771-17.478,180.2-17.478Zm4.307-4.108h.157c.22,0,.314-.157.376-.47l.418-3.356a.7.7,0,0,0-.742-.93h-.272a.7.7,0,0,0-.721.93l.418,3.356C184.214-21.743,184.308-21.586,184.507-21.586ZM184.5-19.4h.178a.624.624,0,0,0,.711-.7v-.146a.624.624,0,0,0-.711-.7H184.5a.625.625,0,0,0-.7.7v.146A.625.625,0,0,0,184.5-19.4Z" transform="translate(18.504 111.039)"/><g class="g" transform="translate(84.32 77.572)"><path class="h" d="M0,0H22.479" transform="translate(0 1.679)"/><path class="h" d="M0,0H22.479" transform="translate(33.073 1.679)"/><circle class="e" cx="1.55" cy="1.55" r="1.55" transform="translate(26.226 0)"/></g><g transform="translate(21.597 0.064)"><g class="i" transform="translate(0 0)"><path class="e" d="M0,6.029A1.216,1.216,0,0,1,1.321,4.646h.392c.867,0,1.322.454,1.322,1.384V12.45c0,2.126.908,3.221,2.7,3.221,1.838,0,2.705-1.053,2.705-3.241v-6.4A1.207,1.207,0,0,1,9.766,4.646h.413c.866,0,1.3.454,1.3,1.384V12.45c0,3.84-1.982,5.864-5.761,5.864C1.961,18.314,0,16.332,0,12.47ZM3.84,3.407C3.84,2.766,5.348,0,7.039,0A1.139,1.139,0,0,1,8.259,1.177C8.259,2.766,5.121,3.7,4.273,3.7c-.288,0-.433-.062-.433-.289" transform="translate(0 0)"/><path class="e" d="M15.3,17.211V4.492a1.607,1.607,0,0,1,1.094-.33c.867,0,1.816.454,1.816,2.333V17.211c0,1.052-.536,1.383-1.28,1.383h-.309c-.765,0-1.322-.31-1.322-1.383" transform="translate(-1.562 -0.425)"/><path class="e" d="M21.862,15.512V10.887h-.516c-.826,0-1.2-.372-1.2-1.033V9.69c0-.681.372-1.075,1.176-1.075h.538V7.337c0-.951.474-1.405,1.3-1.405h.268c.764,0,1.28.33,1.28,1.405V8.616h1.754c.826,0,1.177.351,1.177,1.012v.186c0,.7-.372,1.074-1.2,1.074H24.67v4.294c0,.99.31,1.486,1.114,1.486a1.474,1.474,0,0,0,1.26-.681,1.143,1.143,0,0,1,.723,1.136,1.472,1.472,0,0,1-.5,1.115,3.009,3.009,0,0,1-2.168.743c-2.209,0-3.24-1.177-3.24-3.468" transform="translate(-2.058 -0.606)"/><path class="e" d="M31.759,3.794A1.456,1.456,0,0,1,33.391,5.3a1.446,1.446,0,0,1-1.631,1.507A1.466,1.466,0,0,1,30.128,5.3a1.457,1.457,0,0,1,1.631-1.508M30.294,9.7c0-1.053.557-1.4,1.3-1.4h.31c.765,0,1.3.33,1.3,1.4v7.474c0,1.052-.536,1.383-1.3,1.383h-.288c-.785,0-1.322-.309-1.322-1.383Z" transform="translate(-3.077 -0.387)"/><path class="e" d="M52.251,12.674v5c0,1.052-.537,1.383-1.28,1.383h-.31c-.785,0-1.321-.309-1.321-1.383V13.129c0-1.322-.579-2.023-1.755-2.023A2.344,2.344,0,0,0,45.6,12.344v5.327c0,1.052-.538,1.383-1.28,1.383h-.31c-.764,0-1.321-.309-1.321-1.383v-4.48c0-1.384-.579-2.085-1.735-2.085a2.345,2.345,0,0,0-1.982,1.238v5.327c0,1.052-.537,1.383-1.28,1.383h-.31c-.785,0-1.321-.309-1.321-1.383V9.123c0-.1.516-.33,1.094-.33.723,0,1.508.31,1.735,1.652A3.619,3.619,0,0,1,42.01,8.669a3.188,3.188,0,0,1,3.222,2.065,3.761,3.761,0,0,1,3.385-2.065c2.561,0,3.635,1.631,3.635,4.005" transform="translate(-3.683 -0.885)"/><path class="e" d="M62.3,12.963h.33a1.327,1.327,0,0,0-.02-.289,1.783,1.783,0,0,0-2.044-1.817,2.526,2.526,0,0,0-2.478,1.466c-.021.041-1.878.186-1.878-1.156a1.841,1.841,0,0,1,.62-1.321,5.428,5.428,0,0,1,3.922-1.177c3.2,0,4.749,1.466,4.749,4.171v5.947c0,.145-.536.33-1.094.33a1.505,1.505,0,0,1-1.528-.971,4.219,4.219,0,0,1-.165-.681A4.024,4.024,0,0,1,59.229,19.2c-2.106,0-3.386-1.157-3.386-2.891,0-2.25,2.188-3.283,6.462-3.345m.33,1.466h-.558c-2.291.083-3.509.515-3.509,1.651,0,.764.6,1.239,1.569,1.239a2.271,2.271,0,0,0,2.5-2.167Z" transform="translate(-5.704 -0.885)"/><path class="e" d="M77.653,8.669A5.073,5.073,0,0,1,83,13.975a5.369,5.369,0,0,1-10.737-.041,5.084,5.084,0,0,1,5.388-5.265m-.02,2.271a2.808,2.808,0,0,0-2.809,2.994,2.806,2.806,0,1,0,5.6.041,2.8,2.8,0,0,0-2.787-3.036" transform="translate(-7.381 -0.885)"/><path class="e" d="M96.862,13.935c0,3.138-1.9,5.326-4.666,5.326a3.564,3.564,0,0,1-3.221-1.838v4.171c0,1.053-.536,1.4-1.279,1.4h-.31c-.785,0-1.322-.33-1.322-1.4V9.123c0-.1.516-.33,1.115-.33a1.63,1.63,0,0,1,1.673,1.4c.02.083.041.289.061.454a3.532,3.532,0,0,1,3.3-1.982c2.725,0,4.645,2.044,4.645,5.266m-2.787.02c0-1.776-1.053-2.952-2.561-2.952a2.618,2.618,0,0,0-2.539,1.652v1.9a2.392,2.392,0,0,0,2.5,2.375c1.569,0,2.6-1.2,2.6-2.974" transform="translate(-8.79 -0.885)"/><path class="e" d="M104.769,8.669a5.073,5.073,0,0,1,5.348,5.306,5.369,5.369,0,0,1-10.737-.041,5.085,5.085,0,0,1,5.389-5.265m-.021,2.271a2.808,2.808,0,0,0-2.808,2.994,2.805,2.805,0,1,0,5.595.041,2.8,2.8,0,0,0-2.787-3.036" transform="translate(-10.15 -0.885)"/><path class="e" d="M120.367,10.362a1.5,1.5,0,0,1-.928,1.527,2.02,2.02,0,0,0-1.322-.5c-1.4,0-2.024,1.239-2.024,3.263v3.015c0,1.052-.536,1.383-1.28,1.383H114.5c-.785,0-1.322-.31-1.322-1.383V9.123c0-.1.5-.33,1.094-.33a1.608,1.608,0,0,1,1.589,1.094,4.41,4.41,0,0,1,.145.7,2.517,2.517,0,0,1,2.5-1.921,1.653,1.653,0,0,1,1.858,1.693" transform="translate(-11.56 -0.885)"/><path class="e" d="M123.52,15.512V10.887H123c-.826,0-1.2-.372-1.2-1.033V9.69c0-.681.372-1.075,1.176-1.075h.537V7.337c0-.951.475-1.405,1.3-1.405h.268c.764,0,1.28.33,1.28,1.405V8.616h1.754c.826,0,1.177.351,1.177,1.012v.186c0,.7-.372,1.074-1.2,1.074h-1.775v4.294c0,.99.31,1.486,1.114,1.486a1.474,1.474,0,0,0,1.26-.681,1.144,1.144,0,0,1,.723,1.136,1.472,1.472,0,0,1-.5,1.115,3.009,3.009,0,0,1-2.168.743c-2.209,0-3.241-1.177-3.241-3.468" transform="translate(-12.441 -0.606)"/><path class="e" d="M141.427,10.211v8.526c0,.1-.515.33-1.095.33a1.615,1.615,0,0,1-1.631-1.094,3.393,3.393,0,0,1-.1-.558,3.8,3.8,0,0,1-3.325,1.838c-2.621,0-3.715-1.838-3.715-4.17V10.211c0-1.053.536-1.4,1.259-1.4h.33c.764,0,1.3.33,1.3,1.4v4.438c0,1.363.7,2.168,1.9,2.168a2.45,2.45,0,0,0,2.188-1.321V10.211c0-1.053.515-1.4,1.26-1.4h.309c.785,0,1.322.33,1.322,1.4" transform="translate(-13.437 -0.899)"/><path class="e" d="M154.88,12.819v4.852c0,1.052-.558,1.383-1.3,1.383h-.31c-.764,0-1.3-.309-1.3-1.383v-4.4c0-1.341-.681-2.167-1.859-2.167a2.434,2.434,0,0,0-2.209,1.321v5.244c0,1.052-.537,1.383-1.28,1.383h-.31c-.785,0-1.322-.309-1.322-1.383V9.123c0-.1.517-.33,1.094-.33a1.671,1.671,0,0,1,1.735,1.692,3.82,3.82,0,0,1,3.324-1.816c2.622,0,3.737,1.858,3.737,4.15" transform="translate(-14.809 -0.885)"/><path class="e" d="M159.845,3.794A1.456,1.456,0,0,1,161.477,5.3a1.446,1.446,0,0,1-1.631,1.507A1.466,1.466,0,0,1,158.214,5.3a1.457,1.457,0,0,1,1.631-1.508M158.38,9.7c0-1.053.557-1.4,1.3-1.4h.31c.765,0,1.3.33,1.3,1.4v7.474c0,1.052-.536,1.383-1.3,1.383H159.7c-.785,0-1.322-.309-1.322-1.383Z" transform="translate(-16.159 -0.387)"/><path class="e" d="M163.573,13.495c0-3.2,1.9-5.287,4.687-5.287a3.781,3.781,0,0,1,3.18,1.53V4.493a1.606,1.606,0,0,1,1.094-.33c.867,0,1.817.453,1.817,2.332V17.211c0,1.052-.516,1.383-1.28,1.383h-.289c-.661,0-1.156-.227-1.26-1.012-.021-.227-.041-.454-.041-.7A3.655,3.655,0,0,1,168.2,18.8c-2.725,0-4.625-2.147-4.625-5.305m7.887-1.342a2.556,2.556,0,0,0-2.5-1.611c-1.569,0-2.622,1.137-2.622,2.953a2.68,2.68,0,0,0,2.58,2.973,2.422,2.422,0,0,0,2.539-2.415Z" transform="translate(-16.707 -0.425)"/><path class="e" d="M183.927,12.963h.33a1.326,1.326,0,0,0-.02-.289,1.783,1.783,0,0,0-2.044-1.817,2.526,2.526,0,0,0-2.478,1.466c-.021.041-1.878.186-1.878-1.156a1.841,1.841,0,0,1,.62-1.321,5.428,5.428,0,0,1,3.922-1.177c3.2,0,4.749,1.466,4.749,4.171v5.947c0,.145-.536.33-1.094.33a1.505,1.505,0,0,1-1.528-.971,4.222,4.222,0,0,1-.165-.681,4.024,4.024,0,0,1-3.489,1.735c-2.106,0-3.386-1.157-3.386-2.891,0-2.25,2.188-3.283,6.462-3.345m.33,1.466H183.7c-2.291.083-3.51.515-3.51,1.651,0,.764.6,1.239,1.569,1.239a2.271,2.271,0,0,0,2.5-2.167Z" transform="translate(-18.125 -0.885)"/><path class="e" d="M189.977,13.495c0-3.2,1.9-5.287,4.687-5.287a3.781,3.781,0,0,1,3.18,1.53V4.493a1.606,1.606,0,0,1,1.094-.33c.867,0,1.817.453,1.817,2.332V17.211c0,1.052-.516,1.383-1.28,1.383h-.289c-.661,0-1.156-.227-1.26-1.012-.021-.227-.041-.454-.041-.7A3.655,3.655,0,0,1,194.6,18.8c-2.725,0-4.625-2.147-4.625-5.305m7.887-1.342a2.556,2.556,0,0,0-2.5-1.611c-1.569,0-2.622,1.137-2.622,2.953a2.68,2.68,0,0,0,2.58,2.973,2.422,2.422,0,0,0,2.539-2.415Z" transform="translate(-19.403 -0.425)"/></g></g></g></g></svg>