<svg xmlns="http://www.w3.org/2000/svg" width="449.49" height="276" viewBox="0 0 449.49 276"><g transform="translate(-8560 -85)"><g transform="translate(9287 -4257)"><g transform="translate(-7999 1810)"><g transform="translate(7346.132 2479)"><rect width="375" height="276" transform="translate(0 53)" fill="#f1f4f9"/></g></g><path d="M0,0H104.4V204H0Z" transform="translate(-727 4378)" fill="rgba(255,255,255,0)"/></g><g transform="translate(8361.818 -625.533)"><g transform="translate(310.315 870.392)"><rect width="109.066" height="12.93" transform="translate(8.259 0.211)" fill="#264d91"/><rect width="128.858" height="7.361" transform="translate(0 0)" fill="#3a5cbe"/></g><g transform="translate(345.117 814.09)"><g transform="translate(25.292 50.302)"><path d="M459.467,1091.415l1.673,4.979a3.822,3.822,0,0,0,3.621,2.594h3.521a3.815,3.815,0,0,0,3.647-2.694l1.786-5.8Z" transform="translate(-459.467 -1090.491)" fill="#294896"/></g><g transform="translate(12.692 49.033)"><path d="M411.327,1085.645l2.486,7.295a3.644,3.644,0,0,0,3.449,2.477h3.783a3.638,3.638,0,0,0,3.475-2.568l1.825-5.929Z" transform="translate(-411.327 -1085.645)" fill="#00adee"/></g><g transform="translate(41.825 48.61)"><path d="M522.634,1086.642l1.718,5.106a3.631,3.631,0,0,0,3.439,2.473h3.8a3.628,3.628,0,0,0,3.469-2.561l2.35-7.634Z" transform="translate(-522.634 -1084.026)" fill="#294896"/></g><g transform="translate(44.675 1.413)"><path d="M549.334,916.647l1.375-3.381a6.947,6.947,0,0,0-2.308-8.2h0a6.944,6.944,0,0,0-8.911.548l-5.968,5.663,10.85,5.368Z" transform="translate(-533.521 -903.706)" fill="#0e96db"/></g><g transform="translate(52.027 5.021)"><path d="M568.934,924.868l1.07-2.084a3.634,3.634,0,0,0-1.076-4.587h0a3.637,3.637,0,0,0-4.95.6l-2.366,2.849Z" transform="translate(-561.611 -917.489)" fill="#3a5cbe"/></g><g transform="translate(0 6.71)"><path d="M385.68,923.943h21.363a22.845,22.845,0,0,1,22.845,22.845h0a22.845,22.845,0,0,1-22.845,22.845H385.68a22.844,22.844,0,0,1-22.844-22.845h0A22.844,22.844,0,0,1,385.68,923.943Z" transform="translate(-362.836 -923.943)" fill="#00adee"/></g><g transform="translate(49.213 17.765)"><ellipse cx="1.819" cy="1.819" rx="1.819" ry="1.819" fill="#3a5cbe"/></g><g transform="translate(59.211 16.98)"><ellipse cx="1.819" cy="1.819" rx="1.819" ry="1.819" fill="#3a5cbe"/></g><g transform="translate(58.03 39.672)"><path d="M587.649,1051.63a4.746,4.746,0,0,1-3.1-1.388l.378-.362a4.287,4.287,0,0,0,2.726,1.226h0a3.474,3.474,0,0,0,2.513-1.226l.378.362A3.975,3.975,0,0,1,587.649,1051.63Z" transform="translate(-584.545 -1049.88)" fill="#3a5cbe"/></g><g transform="translate(33.021 2.921)"><path d="M488.995,913.254V920.9s5.015-.839,5.08-1.945-3.566-9.488-3.566-9.488Z" transform="translate(-488.995 -909.465)" fill="#00adee"/></g><g transform="translate(4.603 6.717)" opacity="0.09" style="isolation:isolate"><path d="M407.738,928.506l1.1-4.538-10.883.058c-7.044,0-13.194,3.654-17.535,9.035a22.06,22.06,0,0,1,13.333-4.461Z" transform="translate(-380.423 -923.968)" fill="#3a5cbe"/></g><g transform="translate(20.332 8.341)"><rect width="11.829" height="1.268" rx="0.634" fill="#3a5cbe"/></g><g transform="translate(18.4 23.895)"><path d="M434.8,989.6a1.672,1.672,0,0,0-1.67,1.676c0,.01,0,.02,0,.03v10.908h10.908a1.673,1.673,0,0,0,1.67-1.676c0-.011,0-.022,0-.033V989.6Zm7.939,9.077-6.714,1.248v-6.808l6.714-1.225Z" transform="translate(-433.135 -989.599)" fill="#fff"/></g><g transform="translate(59.035 22.685)"><path d="M594.747,984.979h0a6.36,6.36,0,0,1,6.359,6.36v.7a6.36,6.36,0,0,1-6.359,6.36h0a6.36,6.36,0,0,1-6.359-6.36v-.7A6.36,6.36,0,0,1,594.747,984.979Z" transform="translate(-588.388 -984.979)" fill="#3a5cbe"/></g><g transform="translate(63.418 26.488)"><ellipse cx="0.554" cy="2.908" rx="0.554" ry="2.908" fill="#00adee"/></g><g transform="translate(67.244 26.488)"><ellipse cx="0.554" cy="2.908" rx="0.554" ry="2.908" fill="#00adee"/></g><g transform="translate(32.414)"><path d="M486.678,907.837l.811-3.77a7.287,7.287,0,0,1,6.642-5.744h0a7.291,7.291,0,0,1,7.284,4.658l1.209,3.158Z" transform="translate(-486.678 -898.306)" fill="#00adee"/></g><g transform="translate(39.589 2.908)"><path d="M521.948,915.12l-7.057,6.668-.788-8.947a3.148,3.148,0,0,1,2.668-3.388h0a3.151,3.151,0,0,1,3.307,1.754Z" transform="translate(-514.09 -909.418)" fill="#3a5cbe"/></g><g transform="translate(30.978 50.302)"><path d="M481.192,1091.415l1.673,4.979a3.822,3.822,0,0,0,3.621,2.594h3.521a3.816,3.816,0,0,0,3.647-2.694l1.786-5.8Z" transform="translate(-481.192 -1090.491)" fill="#00adee"/></g></g></g><g transform="translate(8417.572 -43.324)"><line x2="35.048" transform="translate(549.348 219.627)" fill="none" stroke="#a9cbfc" stroke-miterlimit="10" stroke-width="0.5"/><line x2="31.528" transform="translate(556.23 226.463)" fill="none" stroke="#a9cbfc" stroke-miterlimit="10" stroke-width="0.5"/><line x2="31.528" transform="translate(560.391 240.159)" fill="none" stroke="#a9cbfc" stroke-miterlimit="10" stroke-width="0.5"/><line x2="31.528" transform="translate(547.428 233.664)" fill="none" stroke="#a9cbfc" stroke-miterlimit="10" stroke-width="0.5"/><line y2="7.139" transform="translate(573.834 219.324)" fill="none" stroke="#a9cbfc" stroke-miterlimit="10" stroke-width="0.5"/><line y2="7.139" transform="translate(559.271 226.463)" fill="none" stroke="#a9cbfc" stroke-miterlimit="10" stroke-width="0.5"/><line y2="7.139" transform="translate(577.355 233.299)" fill="none" stroke="#a9cbfc" stroke-miterlimit="10" stroke-width="0.5"/></g></g></svg>