<svg xmlns="http://www.w3.org/2000/svg" xmlns:xlink="http://www.w3.org/1999/xlink" width="298.619" height="131.95" viewBox="0 0 298.619 131.95"><defs><style>.a,.c,.j,.s{fill:none;}.b{opacity:0.395;}.c,.j,.s{stroke:#fff;stroke-miterlimit:10;}.d{fill:#ffde6e;}.e,.f,.n,.o,.p{opacity:0.5;}.e{fill:url(#a);}.f{fill:url(#b);}.g{fill:#102236;}.h{opacity:0.579;}.i{clip-path:url(#c);}.j{stroke-width:1.327px;}.k{clip-path:url(#d);}.l{fill:#036dc4;}.m{fill:#fdfdfd;}.n{fill:url(#f);}.o{fill:url(#g);}.q,.u{fill:#fff;}.r{clip-path:url(#h);}.s{stroke-width:1.119px;}.t{opacity:0.42;}.u{fill-rule:evenodd;}.v{fill:#ea0c90;}.w{fill:#5ccdff;mix-blend-mode:multiply;isolation:isolate;}.x,.y{fill:#00a3e9;}.y{opacity:0.665;}.z{opacity:0.413;fill:url(#ai);}.aa{opacity:0.651;fill:url(#aj);}.ab{filter:url(#ba);}.ac{filter:url(#ay);}.ad{filter:url(#aw);}.ae{filter:url(#au);}.af{filter:url(#as);}.ag{filter:url(#aq);}.ah{filter:url(#ao);}.ai{filter:url(#am);}.aj{filter:url(#ak);}.ak{filter:url(#ag);}.al{filter:url(#ae);}.am{filter:url(#ac);}.an{filter:url(#aa);}.ao{filter:url(#y);}.ap{filter:url(#w);}.aq{filter:url(#u);}.ar{filter:url(#s);}.as{filter:url(#q);}.at{filter:url(#o);}.au{filter:url(#m);}.av{filter:url(#k);}.aw{filter:url(#i);}</style><radialGradient id="a" cx="0.5" cy="0.5" r="0.5" gradientTransform="matrix(-1, 0, 0, 1, 1, 0)" gradientUnits="objectBoundingBox"><stop offset="0" stop-color="#ff4c41"/><stop offset="0.841" stop-color="#ffde6e"/></radialGradient><radialGradient id="b" cx="0.5" cy="0.5" gradientTransform="matrix(0.925, -0.379, -0.379, -0.925, 0.227, 1.152)" xlink:href="#a"/><clipPath id="c"><path class="a" d="M886.4,327.972l-12.011,13.844,20.289,3.075Z" transform="translate(-874.387 -327.972)"/></clipPath><clipPath id="d"><path class="a" d="M7.567,0,0,8.722l12.782,1.937Z"/></clipPath><radialGradient id="f" cx="0.5" cy="0.5" gradientTransform="translate(0)" xlink:href="#a"/><radialGradient id="g" cx="0.5" cy="0.5" gradientTransform="matrix(0.925, 0.379, -0.379, 0.925, 0.227, -0.152)" xlink:href="#a"/><clipPath id="h"><circle class="a" cx="3.54" cy="3.54" r="3.54" transform="matrix(0.987, -0.159, 0.159, 0.987, 0, 1.125)"/></clipPath><filter id="i" x="16.256" y="22.173" width="37.04" height="59.564" filterUnits="userSpaceOnUse"><feOffset dy="3" input="SourceAlpha"/><feGaussianBlur stdDeviation="3" result="j"/><feFlood flood-color="#00427b" flood-opacity="0.4"/><feComposite operator="in" in2="j"/><feComposite in="SourceGraphic"/></filter><filter id="k" x="36.458" y="22.637" width="40.523" height="58.635" filterUnits="userSpaceOnUse"><feOffset dy="3" input="SourceAlpha"/><feGaussianBlur stdDeviation="3" result="l"/><feFlood flood-color="#00427b" flood-opacity="0.4"/><feComposite operator="in" in2="l"/><feComposite in="SourceGraphic"/></filter><filter id="m" x="61.536" y="22.637" width="37.737" height="58.635" filterUnits="userSpaceOnUse"><feOffset dy="3" input="SourceAlpha"/><feGaussianBlur stdDeviation="3" result="n"/><feFlood flood-color="#00427b" flood-opacity="0.4"/><feComposite operator="in" in2="n"/><feComposite in="SourceGraphic"/></filter><filter id="o" x="85.103" y="22.637" width="35.415" height="58.635" filterUnits="userSpaceOnUse"><feOffset dy="3" input="SourceAlpha"/><feGaussianBlur stdDeviation="3" result="p"/><feFlood flood-color="#00427b" flood-opacity="0.4"/><feComposite operator="in" in2="p"/><feComposite in="SourceGraphic"/></filter><filter id="q" x="106.466" y="22.637" width="37.853" height="58.635" filterUnits="userSpaceOnUse"><feOffset dy="3" input="SourceAlpha"/><feGaussianBlur stdDeviation="3" result="r"/><feFlood flood-color="#00427b" flood-opacity="0.4"/><feComposite operator="in" in2="r"/><feComposite in="SourceGraphic"/></filter><filter id="s" x="37.761" y="72.417" width="52.682" height="30.532" filterUnits="userSpaceOnUse"><feOffset dy="3" input="SourceAlpha"/><feGaussianBlur stdDeviation="3" result="t"/><feFlood flood-color="#00427b" flood-opacity="0.4"/><feComposite operator="in" in2="t"/><feComposite in="SourceGraphic"/></filter><filter id="u" x="81.488" y="74.894" width="26.625" height="28.054" filterUnits="userSpaceOnUse"><feOffset dy="3" input="SourceAlpha"/><feGaussianBlur stdDeviation="3" result="v"/><feFlood flood-color="#00427b" flood-opacity="0.4"/><feComposite operator="in" in2="v"/><feComposite in="SourceGraphic"/></filter><filter id="w" x="111.058" y="74.889" width="22.713" height="27.891" filterUnits="userSpaceOnUse"><feOffset dy="3" input="SourceAlpha"/><feGaussianBlur stdDeviation="3" result="x"/><feFlood flood-color="#00427b" flood-opacity="0.4"/><feComposite operator="in" in2="x"/><feComposite in="SourceGraphic"/></filter><filter id="y" x="73.432" y="74.853" width="24.939" height="28.057" filterUnits="userSpaceOnUse"><feOffset dy="3" input="SourceAlpha"/><feGaussianBlur stdDeviation="3" result="z"/><feFlood flood-color="#00427b" flood-opacity="0.4"/><feComposite operator="in" in2="z"/><feComposite in="SourceGraphic"/></filter><filter id="aa" x="91.136" y="74.881" width="26.349" height="30.948" filterUnits="userSpaceOnUse"><feOffset dy="3" input="SourceAlpha"/><feGaussianBlur stdDeviation="3" result="ab"/><feFlood flood-color="#00427b" flood-opacity="0.4"/><feComposite operator="in" in2="ab"/><feComposite in="SourceGraphic"/></filter><filter id="ac" x="116.287" y="74.853" width="26.95" height="28.057" filterUnits="userSpaceOnUse"><feOffset dy="3" input="SourceAlpha"/><feGaussianBlur stdDeviation="3" result="ad"/><feFlood flood-color="#00427b" flood-opacity="0.4"/><feComposite operator="in" in2="ad"/><feComposite in="SourceGraphic"/></filter><filter id="ae" x="100.997" y="75.057" width="26.505" height="27.921" filterUnits="userSpaceOnUse"><feOffset dy="3" input="SourceAlpha"/><feGaussianBlur stdDeviation="3" result="af"/><feFlood flood-color="#00427b" flood-opacity="0.4"/><feComposite operator="in" in2="af"/><feComposite in="SourceGraphic"/></filter><filter id="ag" x="16.701" y="69.769" width="35.658" height="35.653" filterUnits="userSpaceOnUse"><feOffset dy="3" input="SourceAlpha"/><feGaussianBlur stdDeviation="3" result="ah"/><feFlood flood-color="#00427b" flood-opacity="0.4"/><feComposite operator="in" in2="ah"/><feComposite in="SourceGraphic"/></filter><linearGradient id="ai" x1="0.5" x2="0.5" y2="1" gradientUnits="objectBoundingBox"><stop offset="0" stop-color="#00a3e9"/><stop offset="0.419" stop-color="#029ee0"/><stop offset="1" stop-color="#0a7eaf"/></linearGradient><linearGradient id="aj" x1="0.164" y1="0.516" x2="1.058" y2="0.281" gradientUnits="objectBoundingBox"><stop offset="0" stop-color="#38b6ff"/><stop offset="1" stop-color="#0077bc"/></linearGradient><filter id="ak" x="165.828" y="43.695" width="35.691" height="58.047" filterUnits="userSpaceOnUse"><feOffset dy="3" input="SourceAlpha"/><feGaussianBlur stdDeviation="3" result="al"/><feFlood flood-color="#00427b" flood-opacity="0.4"/><feComposite operator="in" in2="al"/><feComposite in="SourceGraphic"/></filter><filter id="am" x="189.576" y="44.119" width="48.535" height="58.046" filterUnits="userSpaceOnUse"><feOffset dy="3" input="SourceAlpha"/><feGaussianBlur stdDeviation="3" result="an"/><feFlood flood-color="#00427b" flood-opacity="0.4"/><feComposite operator="in" in2="an"/><feComposite in="SourceGraphic"/></filter><filter id="ao" x="225.574" y="43.543" width="41.608" height="40.842" filterUnits="userSpaceOnUse"><feOffset dy="3" input="SourceAlpha"/><feGaussianBlur stdDeviation="3" result="ap"/><feFlood flood-color="#00427b" flood-opacity="0.4"/><feComposite operator="in" in2="ap"/><feComposite in="SourceGraphic"/></filter><filter id="aq" x="226.152" y="69.693" width="22.781" height="23.261" filterUnits="userSpaceOnUse"><feOffset dy="3" input="SourceAlpha"/><feGaussianBlur stdDeviation="3" result="ar"/><feFlood flood-color="#00427b" flood-opacity="0.4"/><feComposite operator="in" in2="ar"/><feComposite in="SourceGraphic"/></filter><filter id="as" x="231.095" y="69.579" width="22.18" height="23.488" filterUnits="userSpaceOnUse"><feOffset dy="3" input="SourceAlpha"/><feGaussianBlur stdDeviation="3" result="at"/><feFlood flood-color="#00427b" flood-opacity="0.4"/><feComposite operator="in" in2="at"/><feComposite in="SourceGraphic"/></filter><filter id="au" x="235.478" y="69.579" width="22.781" height="23.488" filterUnits="userSpaceOnUse"><feOffset dy="3" input="SourceAlpha"/><feGaussianBlur stdDeviation="3" result="av"/><feFlood flood-color="#00427b" flood-opacity="0.4"/><feComposite operator="in" in2="av"/><feComposite in="SourceGraphic"/></filter><filter id="aw" x="240.243" y="69.693" width="22.659" height="23.293" filterUnits="userSpaceOnUse"><feOffset dy="3" input="SourceAlpha"/><feGaussianBlur stdDeviation="3" result="ax"/><feFlood flood-color="#00427b" flood-opacity="0.4"/><feComposite operator="in" in2="ax"/><feComposite in="SourceGraphic"/></filter><filter id="ay" x="244.731" y="69.579" width="23.415" height="23.488" filterUnits="userSpaceOnUse"><feOffset dy="3" input="SourceAlpha"/><feGaussianBlur stdDeviation="3" result="az"/><feFlood flood-color="#00427b" flood-opacity="0.4"/><feComposite operator="in" in2="az"/><feComposite in="SourceGraphic"/></filter><filter id="ba" x="168.202" y="32.627" width="44.245" height="24.86" filterUnits="userSpaceOnUse"><feOffset dy="3" input="SourceAlpha"/><feGaussianBlur stdDeviation="3" result="bb"/><feFlood flood-color="#00427b" flood-opacity="0.4"/><feComposite operator="in" in2="bb"/><feComposite in="SourceGraphic"/></filter></defs><g transform="translate(-837.306 -172.117)"><g class="b" transform="translate(1052.656 172.617)"><g transform="translate(0 0)"><ellipse class="c" cx="1.637" cy="1.637" rx="1.637" ry="1.637"/></g></g><g transform="translate(837.306 279.654)"><ellipse class="d" cx="4.657" cy="4.657" rx="4.657" ry="4.657" transform="translate(0 0)"/><ellipse class="e" cx="1.738" cy="1.738" rx="1.738" ry="1.738" transform="translate(0.669 1.599)"/><ellipse class="f" cx="1.738" cy="1.738" rx="1.738" ry="1.738" transform="translate(8.403 6.897) rotate(-157.706)"/><path class="g" d="M92.154,509.507a.223.223,0,0,0,.214-.161,1.195,1.195,0,1,0-2.3-.664.223.223,0,1,0,.429.124.749.749,0,0,1,1.439.416.223.223,0,0,0,.152.276A.231.231,0,0,0,92.154,509.507Z" transform="translate(-87.623 -506.726)"/><path class="g" d="M75.709,513.995a.223.223,0,0,0,.214-.161,1.2,1.2,0,0,0-2.3-.664.223.223,0,1,0,.429.124.749.749,0,0,1,1.439.416.223.223,0,0,0,.152.276A.22.22,0,0,0,75.709,513.995Z" transform="translate(-67.738 -510.275)"/><path class="g" d="M82.629,521.754a2.359,2.359,0,0,0,1.509-.541.223.223,0,1,0-.285-.343,1.912,1.912,0,0,1-1.223.438,1.849,1.849,0,0,1-1.805-1.338.223.223,0,0,0-.431.116A2.3,2.3,0,0,0,82.629,521.754Z" transform="translate(-77.401 -516.205)"/></g><g class="h" transform="translate(1115.635 225.248)"><g class="i" transform="translate(0 0)"><g transform="translate(-16.673 -9.039)"><line class="j" y1="12.433" x2="47.635"/><line class="j" y1="12.433" x2="47.635" transform="translate(0.257 0.986)"/><line class="j" y1="12.433" x2="47.635" transform="translate(0.515 1.972)"/><line class="j" y1="12.433" x2="47.635" transform="translate(0.772 2.958)"/><line class="j" y1="12.433" x2="47.635" transform="translate(1.029 3.944)"/><line class="j" y1="12.433" x2="47.635" transform="translate(1.287 4.93)"/><line class="j" y1="12.433" x2="47.635" transform="translate(1.544 5.916)"/><line class="j" y1="12.433" x2="47.635" transform="translate(1.801 6.902)"/><line class="j" y1="12.433" x2="47.635" transform="translate(2.059 7.888)"/><line class="j" y1="12.433" x2="47.635" transform="translate(2.316 8.874)"/><line class="j" y1="12.433" x2="47.635" transform="translate(2.574 9.86)"/><line class="j" y1="12.433" x2="47.635" transform="translate(2.831 10.846)"/><line class="j" y1="12.433" x2="47.635" transform="translate(3.088 11.832)"/><line class="j" y1="12.433" x2="47.635" transform="translate(3.346 12.818)"/><line class="j" y1="12.433" x2="47.635" transform="translate(3.603 13.805)"/><line class="j" y1="12.433" x2="47.635" transform="translate(3.86 14.791)"/><line class="j" y1="12.433" x2="47.635" transform="translate(4.118 15.777)"/><line class="j" y1="12.433" x2="47.635" transform="translate(4.375 16.763)"/><line class="j" y1="12.433" x2="47.635" transform="translate(4.632 17.749)"/><line class="j" y1="12.433" x2="47.635" transform="translate(4.89 18.735)"/><line class="j" y1="12.433" x2="47.635" transform="translate(5.147 19.721)"/><line class="j" y1="12.433" x2="47.635" transform="translate(5.404 20.707)"/><line class="j" y1="12.433" x2="47.635" transform="translate(5.662 21.693)"/><line class="j" y1="12.433" x2="47.635" transform="translate(5.919 22.679)"/></g></g></g><g class="h" transform="translate(997.096 264.293) rotate(140)"><g class="k" transform="translate(0 0)"><g transform="translate(-10.504 -5.694)"><line class="j" y1="7.833" x2="30.01" transform="translate(0 0)"/><line class="j" y1="7.833" x2="30.01" transform="translate(0.162 0.621)"/><line class="j" y1="7.833" x2="30.01" transform="translate(0.324 1.242)"/><line class="j" y1="7.833" x2="30.01" transform="translate(0.486 1.864)"/><line class="j" y1="7.833" x2="30.01" transform="translate(0.649 2.485)"/><line class="j" y1="7.833" x2="30.01" transform="translate(0.811 3.106)"/><line class="j" y1="7.833" x2="30.01" transform="translate(0.973 3.727)"/><line class="j" y1="7.833" x2="30.01" transform="translate(1.135 4.348)"/><line class="j" y1="7.833" x2="30.01" transform="translate(1.297 4.97)"/><line class="j" y1="7.833" x2="30.01" transform="translate(1.459 5.591)"/><line class="j" y1="7.833" x2="30.01" transform="translate(1.621 6.212)"/><line class="j" y1="7.833" x2="30.01" transform="translate(1.783 6.833)"/><line class="j" y1="7.833" x2="30.01" transform="translate(1.946 7.454)"/><line class="j" y1="7.833" x2="30.01" transform="translate(2.108 8.075)"/><line class="j" y1="7.833" x2="30.01" transform="translate(2.27 8.697)"/><line class="j" y1="7.833" x2="30.01" transform="translate(2.432 9.318)"/><line class="j" y1="7.833" x2="30.01" transform="translate(2.594 9.939)"/><line class="j" y1="7.833" x2="30.01" transform="translate(2.756 10.56)"/><line class="j" y1="7.833" x2="30.01" transform="translate(2.918 11.181)"/><line class="j" y1="7.833" x2="30.01" transform="translate(3.08 11.803)"/><line class="j" y1="7.833" x2="30.01" transform="translate(3.243 12.424)"/><line class="j" y1="7.833" x2="30.01" transform="translate(3.405 13.045)"/><line class="j" y1="7.833" x2="30.01" transform="translate(3.567 13.666)"/><line class="j" y1="7.833" x2="30.01" transform="translate(3.729 14.287)"/></g></g></g><g class="h" transform="translate(917.594 183.485) rotate(140)"><g class="k" transform="translate(0 0)"><g transform="translate(-10.504 -5.694)"><line class="j" y1="7.833" x2="30.01" transform="translate(0 0)"/><line class="j" y1="7.833" x2="30.01" transform="translate(0.162 0.621)"/><line class="j" y1="7.833" x2="30.01" transform="translate(0.324 1.242)"/><line class="j" y1="7.833" x2="30.01" transform="translate(0.486 1.864)"/><line class="j" y1="7.833" x2="30.01" transform="translate(0.649 2.485)"/><line class="j" y1="7.833" x2="30.01" transform="translate(0.811 3.106)"/><line class="j" y1="7.833" x2="30.01" transform="translate(0.973 3.727)"/><line class="j" y1="7.833" x2="30.01" transform="translate(1.135 4.348)"/><line class="j" y1="7.833" x2="30.01" transform="translate(1.297 4.97)"/><line class="j" y1="7.833" x2="30.01" transform="translate(1.459 5.591)"/><line class="j" y1="7.833" x2="30.01" transform="translate(1.621 6.212)"/><line class="j" y1="7.833" x2="30.01" transform="translate(1.783 6.833)"/><line class="j" y1="7.833" x2="30.01" transform="translate(1.946 7.454)"/><line class="j" y1="7.833" x2="30.01" transform="translate(2.108 8.075)"/><line class="j" y1="7.833" x2="30.01" transform="translate(2.27 8.697)"/><line class="j" y1="7.833" x2="30.01" transform="translate(2.432 9.318)"/><line class="j" y1="7.833" x2="30.01" transform="translate(2.594 9.939)"/><line class="j" y1="7.833" x2="30.01" transform="translate(2.756 10.56)"/><line class="j" y1="7.833" x2="30.01" transform="translate(2.918 11.181)"/><line class="j" y1="7.833" x2="30.01" transform="translate(3.08 11.803)"/><line class="j" y1="7.833" x2="30.01" transform="translate(3.243 12.424)"/><line class="j" y1="7.833" x2="30.01" transform="translate(3.405 13.045)"/><line class="j" y1="7.833" x2="30.01" transform="translate(3.567 13.666)"/><line class="j" y1="7.833" x2="30.01" transform="translate(3.729 14.287)"/></g></g></g><g class="b" transform="translate(1109.712 206.674)"><g transform="translate(0)"><ellipse class="c" cx="1.637" cy="1.637" rx="1.637" ry="1.637"/></g></g><g transform="translate(966.884 278.166)"><ellipse class="l" cx="5.958" cy="5.958" rx="5.958" ry="5.958" transform="matrix(0.15, -0.989, 0.989, 0.15, 0, 11.782)"/><g transform="translate(5.713 2.901)"><path class="m" d="M221.127,318.469h-.061a.546.546,0,1,0,0-1.091h-1.75a2.86,2.86,0,0,0,.509-1.325c0-.7-.384-1.091-.635-1.136a.43.43,0,0,0-.507.3c-.072.212.056.613.006.756a12.91,12.91,0,0,1-.986,1.187,2.019,2.019,0,0,0-.4,1.308v2.389a.341.341,0,0,0,.34.34h3.252a.4.4,0,1,0,0-.791h.056a.484.484,0,0,0,0-.969h.178a.484.484,0,1,0,0-.969Z" transform="translate(-217.298 -314.908)"/></g></g><g transform="matrix(0.891, -0.454, 0.454, 0.891, 1107.53, 189.773)"><ellipse class="l" cx="5.958" cy="5.958" rx="5.958" ry="5.958" transform="matrix(0.15, -0.989, 0.989, 0.15, 0, 11.782)"/><g transform="translate(5.713 2.901)"><path class="m" d="M3.829,3.561H3.767a.546.546,0,1,0,0-1.091H2.017a2.86,2.86,0,0,0,.509-1.325c0-.7-.384-1.091-.635-1.136a.43.43,0,0,0-.507.3c-.072.212.056.613.006.756A12.913,12.913,0,0,1,.4,2.252,2.019,2.019,0,0,0,0,3.561V5.95a.34.34,0,0,0,.34.34H3.595a.4.4,0,1,0,0-.791H3.65a.484.484,0,0,0,0-.969h.178a.484.484,0,0,0,0-.969Z" transform="translate(0 0)"/></g></g><g transform="translate(988.299 219.308)"><ellipse class="d" cx="4.657" cy="4.657" rx="4.657" ry="4.657" transform="translate(0.409 0)"/><ellipse class="n" cx="1.738" cy="1.738" rx="1.738" ry="1.738" transform="translate(5.576 1.599)"/><ellipse class="o" cx="1.738" cy="1.738" rx="1.738" ry="1.738" transform="translate(0 3.681) rotate(-22.294)"/><path class="g" d="M90.325,509.507a.223.223,0,0,1-.214-.161,1.195,1.195,0,1,1,2.3-.664.223.223,0,1,1-.429.124.749.749,0,0,0-1.439.416.223.223,0,0,1-.152.276A.228.228,0,0,1,90.325,509.507Z" transform="translate(-85.135 -506.726)"/><path class="g" d="M73.879,513.995a.223.223,0,0,1-.214-.161,1.195,1.195,0,0,1,2.3-.664.223.223,0,1,1-.429.124.749.749,0,0,0-1.439.416.223.223,0,0,1-.152.276A.218.218,0,0,1,73.879,513.995Z" transform="translate(-72.129 -510.275)"/><path class="g" d="M81.974,521.754a2.359,2.359,0,0,1-1.509-.541.223.223,0,0,1,.285-.343,1.912,1.912,0,0,0,1.223.438,1.849,1.849,0,0,0,1.805-1.338.223.223,0,0,1,.431.116A2.3,2.3,0,0,1,81.974,521.754Z" transform="translate(-77.48 -516.205)"/></g><g class="p" transform="translate(840.725 195.111) rotate(-13)"><g transform="translate(0 3.059)"><g transform="translate(0 0)"><ellipse class="q" cx="1.128" cy="1.128" rx="1.128" ry="1.128"/></g></g><g transform="translate(6.327 1.55)"><g transform="translate(0 0)"><ellipse class="q" cx="1.128" cy="1.128" rx="1.128" ry="1.128"/></g></g><g transform="translate(12.906 0)"><g transform="translate(0 0)"><ellipse class="q" cx="1.128" cy="1.128" rx="1.128" ry="1.128"/></g></g></g><g class="h" transform="translate(1098.935 286.746)"><g class="r" transform="translate(0 0)"><g transform="translate(-5.33 -6.234)"><line class="s" x2="10.181" y2="14.667" transform="translate(6.983)"/><line class="s" x2="10.181" y2="14.667" transform="translate(6.679 0.211)"/><line class="s" x2="10.181" y2="14.667" transform="translate(6.376 0.422)"/><line class="s" x2="10.181" y2="14.667" transform="translate(6.072 0.632)"/><line class="s" x2="10.181" y2="14.667" transform="translate(5.768 0.843)"/><line class="s" x2="10.181" y2="14.667" transform="translate(5.465 1.054)"/><line class="s" x2="10.181" y2="14.667" transform="translate(5.161 1.265)"/><line class="s" x2="10.181" y2="14.667" transform="translate(4.858 1.475)"/><line class="s" x2="10.181" y2="14.667" transform="translate(4.554 1.686)"/><line class="s" x2="10.181" y2="14.667" transform="translate(4.25 1.897)"/><line class="s" x2="10.181" y2="14.667" transform="translate(3.947 2.108)"/><line class="s" x2="10.181" y2="14.667" transform="translate(3.643 2.318)"/><line class="s" x2="10.181" y2="14.667" transform="translate(3.34 2.529)"/><line class="s" x2="10.181" y2="14.667" transform="translate(3.036 2.74)"/><line class="s" x2="10.181" y2="14.667" transform="translate(2.732 2.951)"/><line class="s" x2="10.181" y2="14.667" transform="translate(2.429 3.161)"/><line class="s" x2="10.181" y2="14.667" transform="translate(2.125 3.372)"/><line class="s" x2="10.181" y2="14.667" transform="translate(1.822 3.583)"/><line class="s" x2="10.181" y2="14.667" transform="translate(1.518 3.794)"/><line class="s" x2="10.181" y2="14.667" transform="translate(1.214 4.004)"/><line class="s" x2="10.181" y2="14.667" transform="translate(0.911 4.215)"/><line class="s" x2="10.181" y2="14.667" transform="translate(0.607 4.426)"/><line class="s" x2="10.181" y2="14.667" transform="translate(0.304 4.637)"/><line class="s" x2="10.181" y2="14.667" transform="translate(0 4.847)"/></g></g></g><g transform="translate(957.806 298.935) rotate(-19)"><g transform="translate(0 0)"><g transform="translate(0 0)"><circle class="c" cx="2.032" cy="2.032" r="2.032"/></g></g></g><g class="b" transform="matrix(0.891, -0.454, 0.454, 0.891, 1122.585, 288.494)"><g transform="translate(0 0)"><circle class="c" cx="2.375" cy="2.375" r="2.375"/></g></g><g class="t" transform="matrix(0.891, -0.454, 0.454, 0.891, 980.188, 300.001)"><g transform="translate(0 0)"><path class="q" d="M4.563,2.282A2.282,2.282,0,1,1,2.281,0,2.282,2.282,0,0,1,4.563,2.282Z"/></g></g><g class="t" transform="matrix(0.891, -0.454, 0.454, 0.891, 962.449, 218.31)"><g transform="translate(0 0)"><path class="q" d="M4.563,2.282A2.282,2.282,0,1,1,2.281,0,2.282,2.282,0,0,1,4.563,2.282Z"/></g></g><g transform="translate(862.562 200.29)"><g transform="translate(0)"><g class="aw" transform="matrix(1, 0, 0, 1, -25.26, -28.17)"><path class="q" d="M1319.816,349.325v5.4c0,6.5-3.251,10.217-9.52,10.217s-9.52-3.715-9.52-10.217v-21.13c0-6.5,3.251-10.217,9.52-10.217s9.52,3.715,9.52,10.217v3.947h-6.037v-4.354c0-2.9-1.277-4.006-3.309-4.006s-3.309,1.1-3.309,4.006V355.13c0,2.9,1.277,3.947,3.309,3.947s3.309-1.045,3.309-3.947v-5.8Z" transform="translate(-1275.52 -295.2)"/></g><g class="av" transform="matrix(1, 0, 0, 1, -25.26, -28.17)"><path class="q" d="M1372.014,352l-8.068-27.167h6.675l4.876,18.518,4.876-18.518h6.1L1378.4,352v13.468h-6.385Z" transform="translate(-1318.49 -296.19)"/></g><g class="au" transform="matrix(1, 0, 0, 1, -25.26, -28.17)"><path class="q" d="M1461.46,334.176v1.451c0,4.18-1.277,6.85-4.121,8.185,3.425,1.335,4.76,4.412,4.76,8.707v3.309c0,6.27-3.308,9.637-9.694,9.637h-10.042V324.83H1452C1458.616,324.83,1461.46,327.906,1461.46,334.176Zm-12.713-3.541v10.739h2.5c2.38,0,3.832-1.045,3.832-4.3v-2.264c0-2.9-.987-4.18-3.251-4.18Zm0,16.544V359.66h3.657c2.148,0,3.309-.987,3.309-4.006v-3.541c0-3.773-1.219-4.934-4.122-4.934Z" transform="translate(-1371.83 -296.19)"/></g><g class="at" transform="matrix(1, 0, 0, 1, -25.26, -28.17)"><path class="q" d="M1522.442,341.954h8.766v5.8h-8.766v11.9h11.029v5.805h-17.415V324.83h17.415v5.8h-11.029Z" transform="translate(-1421.95 -296.19)"/></g><g class="as" transform="matrix(1, 0, 0, 1, -25.26, -28.17)"><path class="q" d="M1596.208,365.465c-.348-1.045-.58-1.684-.58-4.992v-6.385c0-3.773-1.277-5.166-4.18-5.166h-2.206v16.544h-6.385V324.83h9.636c6.617,0,9.462,3.077,9.462,9.346v3.193c0,4.179-1.335,6.908-4.18,8.243,3.193,1.335,4.238,4.412,4.238,8.649v6.269a11.972,11.972,0,0,0,.7,4.935Zm-6.966-34.83v12.481h2.5c2.38,0,3.832-1.045,3.832-4.3v-4.006c0-2.9-.987-4.18-3.251-4.18Z" transform="translate(-1467.39 -296.19)"/></g><g transform="translate(0.444 47.596)"><g transform="translate(21.061 2.648)"><g class="ar" transform="matrix(1, 0, 0, 1, -46.76, -78.42)"><path class="q" d="M1392.926,482.965c-2.778,0-4.747,2.005-4.756,5.254a4.734,4.734,0,0,0,4.775,4.8,4.531,4.531,0,0,0,2.846-.648v-1.644a5.507,5.507,0,0,1-2.387.479,2.67,2.67,0,0,1-2.878-2.114l-.017-.116h1.736a8.439,8.439,0,0,0,3.51-.506,1.783,1.783,0,0,0,1.041-1.787,3.72,3.72,0,0,0-3.87-3.718m1.131,4.258a7.908,7.908,0,0,1-2.345.218H1390.5l.007-.1.018-.331a2.213,2.213,0,0,1,2.18-2.2,2.362,2.362,0,0,1,1.427.391,1.422,1.422,0,0,1,.55,1.187.809.809,0,0,1-.626.834m3.936-.509v6.137h2.278v-5.7a2.515,2.515,0,0,1,.464-1.678,1.679,1.679,0,0,1,1.348-.525,3.719,3.719,0,0,1,.62.05v-1.8a2.531,2.531,0,0,0-1.153-.237c-2.553,0-3.549,1.812-3.558,3.754m-29.971,6.137h2.275V480.487h-2.275Zm8.41-9.886a4.021,4.021,0,0,0-4.368,4.12v5.766h2.263v-5.6a2.591,2.591,0,0,1,.524-1.7,1.746,1.746,0,0,1,1.379-.613,1.969,1.969,0,0,1,1.554.606,2.8,2.8,0,0,1,.553,1.887v5.419h2.259v-5.636a3.986,3.986,0,0,0-4.165-4.25m8.164-2.478h-2.251l.008,8.921c.012,2.264,1.152,3.6,3.614,3.611,1.045,0,1.673-.342,1.932-.885v-1.405a4.153,4.153,0,0,1-1.637.26,1.618,1.618,0,0,1-1.23-.44,2.03,2.03,0,0,1-.435-1.434v-4.175h1.972c.964,0,1.367-.615,1.371-1.07v-.9h-3.344Z" transform="translate(-1321.26 -402.07)"/></g><g class="aq" transform="matrix(1, 0, 0, 1, -46.76, -78.42)"><path class="q" d="M1512.335,493.74a1.783,1.783,0,0,0,1.042-1.787,3.72,3.72,0,0,0-3.869-3.718c-2.779,0-4.749,2.005-4.756,5.254a4.733,4.733,0,0,0,4.772,4.8,4.538,4.538,0,0,0,2.849-.649V496a5.518,5.518,0,0,1-2.388.479,2.671,2.671,0,0,1-2.878-2.114l-.016-.116h1.736a8.427,8.427,0,0,0,3.508-.506m-5.252-1.029.008-.1.016-.331a2.213,2.213,0,0,1,2.178-2.2,2.357,2.357,0,0,1,1.429.391,1.413,1.413,0,0,1,.551,1.187.81.81,0,0,1-.626.834,7.905,7.905,0,0,1-2.345.218Z" transform="translate(-1414.26 -407.34)"/></g><g class="ap" transform="matrix(1, 0, 0, 1, -46.76, -78.42)"><path class="q" d="M1597.217,491.972v6.137h2.281v-5.7a2.517,2.517,0,0,1,.465-1.678,1.682,1.682,0,0,1,1.348-.525,3.7,3.7,0,0,1,.62.05v-1.8a2.532,2.532,0,0,0-1.154-.237c-2.551,0-3.548,1.812-3.558,3.754" transform="translate(-1477.16 -407.33)"/></g><g class="ao" transform="matrix(1, 0, 0, 1, -46.76, -78.42)"><path class="q" d="M1482.73,498.162c-1.663,0-2.9-.909-2.9-1.889v-1.089h.083a4.337,4.337,0,0,0,2.715.911c1.108,0,1.643-.339,1.643-1.054,0-.553-.319-.818-1.88-1.052-1.909-.285-2.83-1.088-2.83-2.549,0-1.8,1.523-3.335,3.837-3.335,2.049,0,2.885,1.122,2.885,2.05v.909h-.083a3.8,3.8,0,0,0-2.581-.889c-1.376,0-1.811.444-1.811,1.069,0,.482.269.679,1.811.945,1.874.322,2.882,1.195,2.882,2.729,0,2.033-1.342,3.245-3.769,3.245" transform="translate(-1397.13 -407.25)"/></g><g class="an" transform="matrix(1, 0, 0, 1, -46.76, -78.42)"><path class="q" d="M1543.233,495.345c.016.392.036.909.036,1.23a4.279,4.279,0,0,1-4.427,4.565c-1.862,0-3.136-.962-3.136-2.1v-1.088h.1a3.857,3.857,0,0,0,2.87,1.034c1.623,0,2.36-.819,2.36-2.211,0-.141,0-.338-.016-.5,0-.141-.016-.391-.016-.479v-.231a2.3,2.3,0,0,1-2.329,1.425,3.679,3.679,0,0,1-3.756-3.889c0-2.71,1.674-4.9,4.591-4.9,2.249,0,3.688,1.748,3.688,4.211v1.64c0,.321.016.873.034,1.3m-6.019-2.549a1.95,1.95,0,0,0,1.812,2.2c1.134,0,1.947-.9,1.947-2.45,0-1.513-.714-2.252-1.709-2.252a2.242,2.242,0,0,0-2.05,2.5" transform="translate(-1434.78 -407.31)"/></g><g class="am" transform="matrix(1, 0, 0, 1, -46.76, -78.42)"><path class="q" d="M1618.144,488.1c2.775,0,4.372,2.317,4.372,4.869,0,2.888-1.6,5.188-4.578,5.188-2.776,0-4.371-2.3-4.371-4.85,0-2.89,1.6-5.207,4.578-5.207m-.208,2.018c-1.374,0-2.073,1.189-2.073,2.844,0,1.987.7,3.178,2.284,3.178,1.393,0,2.073-1.191,2.073-2.826,0-2.006-.715-3.2-2.284-3.2" transform="translate(-1488.28 -407.25)"/></g><g class="al" transform="matrix(1, 0, 0, 1, -46.76, -78.42)"><path class="q" d="M1569.907,498.662a4.02,4.02,0,0,0,4.353-4.135v-5.785h-2.253v5.621a2.611,2.611,0,0,1-.524,1.7,1.736,1.736,0,0,1-1.374.617,1.957,1.957,0,0,1-1.55-.609,2.814,2.814,0,0,1-.55-1.894l0-5.437h-2.252V494.4a3.986,3.986,0,0,0,4.152,4.265" transform="translate(-1455.76 -407.69)"/></g></g><g class="ak" transform="matrix(1, 0, 0, 1, -25.7, -75.77)"><path class="u" d="M1304.522,472.207a2.358,2.358,0,0,0-2.357,2.358v15.3h15.3a2.359,2.359,0,0,0,2.359-2.359l0-15.294Zm11.175,12.741-9.409,1.7v-9.5l9.409-1.7Z" transform="translate(-1276.46 -396.44)"/></g></g></g><g transform="translate(19.167 75.124)"><g transform="translate(0 0)"><g transform="translate(0 0)"><path class="v" d="M1400.548,569.937h-56.379c-3.62,0-6.555-3.2-6.555-7.149h0c0-3.949,2.935-7.15,6.555-7.15h56.379c3.62,0,6.555,3.2,6.555,7.15h0C1407.1,566.736,1404.168,569.937,1400.548,569.937Z" transform="translate(-1337.614 -555.638)"/></g></g><g transform="translate(5.092 3.574)"><g transform="translate(12.547 0.472)"><path class="q" d="M1405.5,575.755v-4.738a.614.614,0,0,1,.673-.682h.378a.638.638,0,0,1,.71.479l1.208,2.83,1.217-2.83c.166-.369.313-.479.691-.479h.359a.62.62,0,0,1,.692.682v4.738c0,.406-.148.618-.535.618h-.212c-.369,0-.535-.212-.535-.618v-3.549l-1,2.415c-.1.23-.157.424-.691.424s-.581-.184-.682-.424l-1-2.369v3.5c0,.406-.139.618-.535.618h-.212C1405.656,576.373,1405.5,576.16,1405.5,575.755Z" transform="translate(-1405.499 -570.335)"/><path class="q" d="M1431.431,578.136a2.3,2.3,0,0,1,2.35-2.387,2.146,2.146,0,0,1,2.24,2.249v.092c-.009.231-.074.36-.313.36H1432.6a1.221,1.221,0,0,0,1.309,1.069,1.361,1.361,0,0,0,1.272-.664c.009-.018.627.065.627.581,0,.489-.691,1.032-1.945,1.032A2.239,2.239,0,0,1,1431.431,578.136Zm1.17-.443h2.213a1,1,0,0,0-1.051-1.042A1.167,1.167,0,0,0,1432.6,577.694Z" transform="translate(-1424.719 -574.348)"/><path class="q" d="M1457.077,578.136a2.3,2.3,0,0,1,2.351-2.387,2.146,2.146,0,0,1,2.24,2.249v.092c-.009.231-.073.36-.313.36h-3.106a1.221,1.221,0,0,0,1.309,1.069,1.361,1.361,0,0,0,1.272-.664c.009-.018.627.065.627.581,0,.489-.691,1.032-1.945,1.032A2.239,2.239,0,0,1,1457.077,578.136Zm1.171-.443h2.212a1,1,0,0,0-1.051-1.042A1.167,1.167,0,0,0,1458.248,577.694Z" transform="translate(-1443.728 -574.348)"/><path class="q" d="M1478.865,576.542a1.708,1.708,0,0,1,1.484-.793c1.17,0,1.668.83,1.668,1.862v2.157c0,.47-.24.618-.572.618h-.138c-.35,0-.59-.138-.59-.618V577.8c0-.6-.3-.968-.829-.968a1.091,1.091,0,0,0-1,.59v2.341c0,.47-.24.618-.571.618h-.138c-.35,0-.59-.138-.59-.618v-3.816a.721.721,0,0,1,.489-.148A.756.756,0,0,1,1478.865,576.542Z" transform="translate(-1458.934 -574.348)"/><path class="q" d="M1497.363,578.125a2.273,2.273,0,0,1,2.369-2.341c1.374,0,1.917.784,1.917,1.217,0,.525-.692.618-.719.571a1.121,1.121,0,0,0-1.143-.746,1.222,1.222,0,0,0-1.226,1.3,1.235,1.235,0,0,0,1.226,1.327,1.137,1.137,0,0,0,1.143-.746c.018-.055.719.028.719.581,0,.424-.571,1.208-1.917,1.208A2.269,2.269,0,0,1,1497.363,578.125Z" transform="translate(-1473.587 -574.374)"/><path class="q" d="M1515.706,579.15c0-1.033.922-1.5,2.894-1.53h.147a.815.815,0,0,0-.922-.894,1.151,1.151,0,0,0-1.115.691c0,.018-.839.046-.839-.553,0-.562.663-1.115,2.037-1.115,1.419,0,2.12.645,2.12,1.853v2.664c0,.064-.24.147-.489.147a.724.724,0,0,1-.765-.71,1.845,1.845,0,0,1-1.558.747A1.329,1.329,0,0,1,1515.706,579.15Zm3.042-.562v-.258l-.239.009c-1.023.028-1.558.23-1.558.719,0,.332.267.544.7.544A1.016,1.016,0,0,0,1518.748,578.588Z" transform="translate(-1487.183 -574.348)"/><path class="q" d="M1537.317,576.542a1.708,1.708,0,0,1,1.484-.793c1.171,0,1.668.83,1.668,1.862v2.157c0,.47-.24.618-.571.618h-.138c-.35,0-.59-.138-.59-.618V577.8c0-.6-.3-.968-.83-.968a1.091,1.091,0,0,0-1,.59v2.341c0,.47-.239.618-.571.618h-.138c-.351,0-.59-.138-.59-.618v-3.816a.722.722,0,0,1,.489-.148A.756.756,0,0,1,1537.317,576.542Z" transform="translate(-1502.257 -574.348)"/><path class="q" d="M1555,573.271v-.083c0-.313.175-.479.544-.479h.221v-.572a.546.546,0,0,1,.59-.627h.111c.35,0,.581.148.581.627v.572h.783c.369,0,.525.157.525.461v.074c0,.313-.166.479-.534.479h-.8v1.917c0,.442.148.664.5.664a.706.706,0,0,0,.581-.3.508.508,0,0,1,.313.507c0,.452-.452.82-1.189.82-1,0-1.456-.525-1.456-1.539v-2.065h-.221C1555.17,573.723,1555,573.566,1555,573.271Z" transform="translate(-1516.303 -571.207)"/><path class="q" d="M1569.456,579.15c0-1.033.922-1.5,2.894-1.53h.148a.815.815,0,0,0-.922-.894,1.151,1.151,0,0,0-1.116.691c0,.018-.838.046-.838-.553,0-.562.663-1.115,2.037-1.115,1.419,0,2.12.645,2.12,1.853v2.664c0,.064-.24.147-.489.147a.724.724,0,0,1-.765-.71,1.846,1.846,0,0,1-1.558.747A1.329,1.329,0,0,1,1569.456,579.15Zm3.042-.562v-.258l-.24.009c-1.023.028-1.558.23-1.558.719,0,.332.267.544.7.544A1.016,1.016,0,0,0,1572.5,578.588Z" transform="translate(-1527.021 -574.348)"/></g><path class="m" d="M1366.4,571.205a2.6,2.6,0,0,0-2.449-2.7,2.345,2.345,0,0,1-4.48,0,2.6,2.6,0,0,0-2.449,2.7c0,2.382,3.654,5.108,4.555,5.394a.409.409,0,0,0,.053.015.354.354,0,0,0,.074.011h.013a.353.353,0,0,0,.074-.011.428.428,0,0,0,.053-.015C1362.743,576.314,1366.4,573.587,1366.4,571.205Z" transform="translate(-1357.019 -568.51)"/></g></g></g><g transform="translate(1001.535 183.452)"><g transform="matrix(0.035, 0.999, -0.999, 0.035, 101.955, 0)"><circle class="w" cx="48.073" cy="48.073" r="48.073" transform="translate(2.936 2.936)"/><circle class="x" cx="48.073" cy="48.073" r="48.073" transform="translate(5.871 5.871)"/><circle class="y" cx="51.008" cy="51.008" r="51.008" transform="translate(0 0)"/><circle class="z" cx="48.073" cy="48.073" r="48.073" transform="translate(5.871 5.871)"/><circle class="aa" cx="48.073" cy="48.073" r="48.073" transform="translate(2.987 1.468)"/></g><g transform="translate(10.598 38.208)"><g class="aj" transform="matrix(1, 0, 0, 1, -174.83, -49.54)"><path class="q" d="M1911.917,473.386V448.667a5.423,5.423,0,0,1-3.514,1.272,5.933,5.933,0,0,1-3.877-1.393,4.885,4.885,0,0,1-1.515-3.635c0-2.969,2.12-4.362,2.363-4.241a5.639,5.639,0,0,0,3.7,1.333,5.259,5.259,0,0,0,5.15-4.544h2.6c2.545,0,3.878,1.394,3.878,4.12v31.807c0,2.666-1.333,4.12-3.878,4.12h-1.151C1913.189,477.506,1911.917,476.051,1911.917,473.386Z" transform="translate(-1728.18 -387.76)"/></g><g class="ai" transform="matrix(1, 0, 0, 1, -174.83, -49.54)"><path class="q" d="M1990.594,476.456c-2.484-1.515-3.877-3.393-3.877-5.21,0-2.605,3.393-4.484,3.7-4.18a13.045,13.045,0,0,0,10.784,5.271c5.028,0,8.119-2.484,8.119-6.422s-2.787-6.24-7.816-6.24a12.6,12.6,0,0,0-8.058,2.424c-3.514-.121-5.271-1.636-5.271-5.211V443.922c0-3.15,1.333-4.968,4.3-4.968h18.963c2.787,0,4.18,1.151,4.18,3.514v.3c0,2.363-1.333,3.453-4.18,3.453h-15.813v8.785a19.022,19.022,0,0,1,7.149-1.454c8.724,0,14.48,4.726,14.48,12.42,0,7.936-6.119,13.026-15.934,13.026A21.049,21.049,0,0,1,1990.594,476.456Z" transform="translate(-1788.14 -388.84)"/></g><g class="ah" transform="matrix(1, 0, 0, 1, -174.83, -49.54)"><path class="q" d="M2111.768,443.107v-.272a5.185,5.185,0,0,1,5.5-5.265,5.122,5.122,0,0,1,5.435,5.231v.272a5.474,5.474,0,0,1-10.938.034ZM2113.5,458.7a2.424,2.424,0,0,1,.917-1.732L2131.5,437.5c.17-.2,2.038.306,2.038,1.529a2.984,2.984,0,0,1-.917,1.8l-17.085,19.43C2115.368,460.464,2113.5,459.887,2113.5,458.7Zm6.012-15.455V442.7a2.3,2.3,0,0,0-2.276-2.582,2.27,2.27,0,0,0-2.276,2.582v.543a2.288,2.288,0,0,0,2.31,2.514A2.24,2.24,0,0,0,2119.512,443.243Zm4.925,11.719v-.272a5.2,5.2,0,0,1,5.5-5.265,5.1,5.1,0,0,1,5.435,5.231v.272a5.474,5.474,0,0,1-10.938.034Zm7.779.1v-.543a2.323,2.323,0,0,0-2.275-2.582c-1.359,0-2.276.951-2.276,2.582v.543a2.29,2.29,0,1,0,4.552,0Z" transform="translate(-1877.19 -387.92)"/></g><g class="ag" transform="matrix(1, 0, 0, 1, -174.83, -49.54)"><path class="q" d="M2114.305,557.182a.609.609,0,0,1,.625-.667h1.334a2.509,2.509,0,0,1,2.821,2.61,2.559,2.559,0,0,1-2.862,2.651h-1.252a.663.663,0,0,1-.666-.659Zm3.586,1.951a1.489,1.489,0,0,0-1.658-1.594h-.74v3.212h.724A1.508,1.508,0,0,0,2117.891,559.133Z" transform="translate(-1879.15 -480.82)"/></g><g class="af" transform="matrix(1, 0, 0, 1, -174.83, -49.54)"><path class="q" d="M2136.006,560.439c0-.333.414-.634.455-.594a2.143,2.143,0,0,0,1.561.708c.626,0,.959-.228.959-.634,0-.472-.529-.569-1.147-.707-.838-.187-1.7-.5-1.7-1.578,0-.976.781-1.618,2.049-1.618a2.584,2.584,0,0,1,1.512.39.724.724,0,0,1,.366.578.782.782,0,0,1-.471.626,1.885,1.885,0,0,0-1.4-.642c-.57,0-.911.236-.911.618,0,.455.472.52,1.122.667.951.211,1.781.6,1.781,1.594,0,1.049-.772,1.659-2.155,1.659a2.645,2.645,0,0,1-1.7-.48A.755.755,0,0,1,2136.006,560.439Z" transform="translate(-1895.91 -480.44)"/></g><g class="ae" transform="matrix(1, 0, 0, 1, -174.83, -49.54)"><path class="q" d="M2157.952,556.016a2.564,2.564,0,0,1,1.537.439,1.047,1.047,0,0,1,.479.756c0,.529-.675.651-.691.61a1.437,1.437,0,0,0-1.285-.716,1.513,1.513,0,0,0-1.512,1.651,1.537,1.537,0,0,0,1.529,1.659,1.344,1.344,0,0,0,1.3-.789c.016-.049.716.073.716.6a1.127,1.127,0,0,1-.5.8,2.567,2.567,0,0,1-1.585.472,2.745,2.745,0,0,1,.016-5.488Z" transform="translate(-1910.77 -480.44)"/></g><g class="ad" transform="matrix(1, 0, 0, 1, -174.83, -49.54)"><path class="q" d="M2177.9,557.564h-1.187c-.358,0-.553-.179-.553-.512v-.041c0-.325.2-.5.553-.5h3.553c.366,0,.553.171.553.5v.041c0,.333-.187.512-.553.512H2179.1v3.7a.487.487,0,0,1-.537.545h-.171c-.325,0-.5-.187-.5-.545Z" transform="translate(-1926.92 -480.82)"/></g><g class="ac" transform="matrix(1, 0, 0, 1, -174.83, -49.54)"><path class="q" d="M2195.864,558.764a2.635,2.635,0,0,1,2.715-2.748,2.744,2.744,0,1,1-2.715,2.748Zm4.228,0a1.538,1.538,0,0,0-1.521-1.683,1.512,1.512,0,0,0-1.512,1.675,1.524,1.524,0,1,0,3.033.008Z" transform="translate(-1942.13 -480.44)"/></g></g><g class="ab" transform="matrix(1, 0, 0, 1, -164.23, -11.33)"><path class="q" d="M2.612-15.377h.217a.606.606,0,0,0,.671-.691v-2.053H6.377v2.053c0,.454.217.691.629.691h.227a.6.6,0,0,0,.66-.691v-5.375c0-.464-.227-.691-.66-.691H7.006c-.413,0-.629.227-.629.691v2.032H3.5v-2.032a.6.6,0,0,0-.671-.691H2.612c-.413,0-.64.227-.64.691v5.375C1.972-15.614,2.2-15.377,2.612-15.377Zm6.169-1.372c0,.867.64,1.444,1.692,1.444a2.012,2.012,0,0,0,1.743-.867,2.062,2.062,0,0,0,.083.34.751.751,0,0,0,.763.485c.279,0,.547-.093.547-.165v-2.971c0-1.351-.774-2.084-2.373-2.084a2.713,2.713,0,0,0-1.96.588.921.921,0,0,0-.309.66c0,.671.928.6.939.578a1.261,1.261,0,0,1,1.238-.732.89.89,0,0,1,1.021.908.634.634,0,0,1,.01.144H12.01C9.874-18.389,8.781-17.873,8.781-16.749Zm3.394-.578a1.135,1.135,0,0,1-1.248,1.083c-.485,0-.784-.237-.784-.619,0-.567.609-.784,1.754-.825h.279Zm2.589,1.64A3.313,3.313,0,0,0,16.5-15.3c1.413,0,2.218-.609,2.218-1.62,0-1.135-1.135-1.362-1.847-1.517-.681-.155-1.073-.227-1.073-.588,0-.32.3-.526.856-.526a2,2,0,0,1,1.475.681.722.722,0,0,0,.464-.609.744.744,0,0,0-.124-.413,2.213,2.213,0,0,0-1.909-.671c-1.3,0-2.094.65-2.094,1.63,0,1.135,1.073,1.362,1.764,1.506.671.144,1.073.217,1.073.609,0,.32-.309.516-.877.516a2.2,2.2,0,0,1-1.661-.681.64.64,0,0,0-.444.578A.878.878,0,0,0,14.764-15.686Zm6.829.413a1.5,1.5,0,0,0,1.083-.371.737.737,0,0,0,.248-.557.571.571,0,0,0-.361-.567.738.738,0,0,1-.629.34c-.4,0-.557-.248-.557-.743v-2.146h.887c.413,0,.6-.186.6-.536v-.093c0-.33-.175-.506-.588-.506H21.4v-.64c0-.536-.258-.7-.64-.7h-.134c-.413,0-.65.227-.65.7v.64h-.268c-.4,0-.588.2-.588.536v.083c0,.33.186.516.6.516h.258v2.311C19.974-15.862,20.49-15.274,21.594-15.274Zm1.8-1.475c0,.867.64,1.444,1.692,1.444a2.012,2.012,0,0,0,1.743-.867,2.062,2.062,0,0,0,.083.34.751.751,0,0,0,.763.485c.279,0,.547-.093.547-.165v-2.971c0-1.351-.774-2.084-2.373-2.084a2.713,2.713,0,0,0-1.96.588.921.921,0,0,0-.309.66c0,.671.928.6.939.578a1.261,1.261,0,0,1,1.238-.732.89.89,0,0,1,1.021.908.634.634,0,0,1,.01.144h-.165C24.482-18.389,23.389-17.873,23.389-16.749Zm3.394-.578a1.135,1.135,0,0,1-1.248,1.083c-.485,0-.784-.237-.784-.619,0-.567.609-.784,1.754-.825h.279Z" transform="translate(175.23 60.76)"/></g></g></g></svg>