<svg xmlns="http://www.w3.org/2000/svg" width="448.132" height="276" viewBox="0 0 448.132 276"><g transform="translate(1223 -4342)"><g transform="translate(-8496 1810)"><g transform="translate(7346.132 2479)"><rect width="375" height="276" transform="translate(0 53)" fill="#f1f4f9"/></g></g><g transform="translate(-2178.096 3990.338)"><g transform="translate(1046.771 449.314)"><g transform="translate(0 0)"><line x1="24.593" transform="translate(40.906 86.51)" fill="none" stroke="#009fde" stroke-miterlimit="10" stroke-width="0.925"/><path d="M372.551,244.4H280.926a21.941,21.941,0,0,1-6.087-14.975c0-13.271,12.5-24.03,27.927-24.03a31.867,31.867,0,0,1,10.157,1.64c6.1-10.667,18.857-18.008,33.608-18.008,20.677,0,37.438,14.423,37.438,32.214C383.969,230.33,379.59,238.54,372.551,244.4Z" transform="translate(-238.323 -182.668)" fill="#a9cbfc"/><rect width="92.29" height="7.314" transform="translate(134.419 69.043) rotate(-180)" fill="#cce3ff"/><path d="M307.016,481.494c.464,0,26.932-1.509,42.256,2.9s46.551-1.741,52.82-5.921l-2.554,6.965H308.293Z" transform="translate(-265.119 -423.712)" fill="#46a1d9" opacity="0.2"/><path d="M287.611,647.7h-4.76l.566-7.139.022.016v-.016H381l.566,7.139H376.8l-1.556-2.438H289.167Z" transform="translate(-244.996 -558.685)" fill="#a9cbfc"/><ellipse cx="17.307" cy="12.088" rx="17.307" ry="12.088" transform="translate(38.868 38.396)" fill="#84b7f4"/><ellipse cx="17.819" cy="7.081" rx="17.819" ry="7.081" transform="translate(114.954 55.914) rotate(-45)" fill="#84b7f4"/><path d="M209.665,333.726h0a6.744,6.744,0,0,1,8.57,3.922l7.108,19.171h87.432l13.565-36.585a6.744,6.744,0,0,1,8.57-3.922h0a6.544,6.544,0,0,1,4,8.406l-14.925,40.253a6.714,6.714,0,0,1-6.53,4.31v.192h-97.2v-.191a6.7,6.7,0,0,1-6.116-4.311l-8.469-22.84A6.544,6.544,0,0,1,209.665,333.726Z" transform="translate(-180.385 -288.341)" fill="#a9cbfc"/><path d="M217.376,337.794h0a6.579,6.579,0,0,1,8.406,3.923l6.972,19.171h85.752l13.3-36.585a6.578,6.578,0,0,1,8.406-3.922h0a6.578,6.578,0,0,1,3.922,8.406L329.5,369.039a6.584,6.584,0,0,1-6.405,4.31v.192H227.758v-.191a6.582,6.582,0,0,1-6-4.311L213.453,346.2A6.578,6.578,0,0,1,217.376,337.794Z" transform="translate(-186.877 -291.729)" fill="#cce3ff"/><rect width="135.438" height="72.636" transform="translate(23.889 0)" fill="none"/><g transform="translate(0 0.068)"><path d="M803.958,198.528a10.468,10.468,0,0,1-.527,7.037,19.021,19.021,0,0,0-1.235,2.786c-.448,1.645-.125,3.593-1.224,4.886-.733.855-1.962,1.21-2.5,2.2a2.925,2.925,0,0,0-.013,2.414A19.5,19.5,0,0,0,799.625,220a9.843,9.843,0,0,1-1.608,11.067,1.563,1.563,0,0,1-2.356.242c-3.781-2.157-7.293-4.935-11.472-6.154-3.708-1.083-7.735-.869-11.4-2.076a2.083,2.083,0,0,1-1.156-.718,2.022,2.022,0,0,1-.227-1.307c.22-3.035,2.27-5.648,4.456-7.757a10.3,10.3,0,0,0,3.018-3.875,20.44,20.44,0,0,0,.413-3.982,8.313,8.313,0,0,1,2.255-4.741,19.178,19.178,0,0,0,2.642-2.66c.767-1.18.945-2.676,1.736-3.841a8.372,8.372,0,0,1,3.116-2.427c1.636-.9,3.552-1.816,5.215-1.094a5.872,5.872,0,0,1,1.957,1.655l2.637,2.982" transform="translate(-651.828 -183.898)" fill="#031f59"/><path d="M857.109,184.139a10.454,10.454,0,1,1-10.545,9.991,10.275,10.275,0,0,1,10.545-9.991" transform="translate(-714.423 -178.661)" fill="#031f59"/><path d="M283.747,337.321s3.593-2.285,5.595-10.692,19.614-4.018,30.545-1.206,12.324-7.6,19.358-6.124,25.6-20.977,36.256-11.892,15.816,13.387,15.816,13.387l-13.027,26.073-93.279-3.9Z" transform="translate(-245.742 -279.513)" fill="none"/><path d="M80.187,387.514s.686,4.22,3.5,6.381a4.436,4.436,0,0,1-3.023.593c-1.91-.23-3.021,3.823-5.923,4.305s-3.336-.875-8.39-3.689-10.6-2.973-9.768-4.768,3.236-.147,6.5-.265S79.827,388.4,80.187,387.514Z" transform="translate(-56.498 -348.031)" fill="#f9c8ac"/><path d="M203.843,356.364s.236.032,2.683,2.6c0,0-1.763,4.289-3.615,3.767s-3.245,3.909-6.186,3.939-3.162-1.379-7.722-4.937-10.02-4.57-8.917-6.216,3.22.353,6.463.74S203.351,357.184,203.843,356.364Z" transform="translate(-159.296 -320.852)" fill="#f9c8ac"/><path d="M204.622,323.228s-6.375-3.861-5.213-9.4c0,0,25.337-14.326,29.9-12.858s12.6,5.17,12.6,5.17,3.551,24.888,14.877,33.246c0,0-12.9-2.958-30.7-24.114C226.083,315.277,206.5,324.184,204.622,323.228Z" transform="translate(-175.391 -275.876)" fill="#134aa3"/><path d="M319.348,366.151s8.1-5.431,9.3-7.676c0,0,6.814,17.584,24.511,25.294a15.339,15.339,0,0,0,3.623,3.594s-14.684-4.783-30.7-24.114Z" transform="translate(-275.389 -323.848)" fill="#132787"/><path d="M423.119,286.437,400.19,261.562s-1.977-2.648-7.7.531a110.647,110.647,0,0,1-11.281,5.391l12.213,5.066s3.491,24.944,14.877,33.246c0,0,8.124-3.422,11.967-3.484C420.262,302.313,418.3,295.417,423.119,286.437Z" transform="translate(-326.901 -242.283)" fill="#134aa3"/><path d="M638.246,301.078s-2.662,3.941-5.568,2.546c0,0-3.416,17.035-1.045,16.669.22-.034,1.923.914,11.774-4.715s8.421-7.831,13.246-9.363a16.419,16.419,0,0,1,8.746-.4s1.392.105,1.294-.641-4.641-2.606-6.746-2.394-6.629,2.848-11.089,6.971-8.026,6.8-8.026,6.8Z" transform="translate(-534.749 -276.05)" fill="#ff409e"/><path d="M635.949,210.174a13.6,13.6,0,0,1-.526-4.547,36.809,36.809,0,0,0,.042-4.886l-4.3,1.09L630.7,200.7s.681.379,1.218-1.226,1.281-1.34.932-2.635.349-1.323-.084-2.04,1.227-2.739-.687-2.882-4.928,8.132-3.786,9.928,3.336,7.436,2.093,10.873C630.381,212.72,632.97,214.363,635.949,210.174Z" transform="translate(-532.452 -185.147)" fill="#f9c8ac"/><path d="M684.887,199.05s-2.414-5.257-2.354-9.575-2.713-11.642-4.219-11.141,1.726,1.43.861,5.188c0,0-1.86-1.348-2.733-.383a6.635,6.635,0,0,0-.982,5.412c.572,1.858,3.541,4.129,3.692,13.853A16.119,16.119,0,0,0,684.887,199.05Z" transform="translate(-571.769 -173.814)" fill="#f9c8ac"/><path d="M644.769,167.683l.032.076a.538.538,0,0,0,.633.312l4.534-1.187a.539.539,0,0,0,.388-.4l3.405-14.3a.539.539,0,0,0-.719-.626l-4.622,1.8a.538.538,0,0,0-.324.362l-1.3,4.835a.556.556,0,0,0,0,.265,1.807,1.807,0,0,1-.06.946c-.2.617-.336,1.192-.156,1.39a1.106,1.106,0,0,1,.031.954,3.062,3.062,0,0,0,.133,1.432c.121.231-.035.631-.33,1.04a4.307,4.307,0,0,0-.714,1.336,1.965,1.965,0,0,1-.682,1.077A.552.552,0,0,0,644.769,167.683Z" transform="translate(-546.352 -151.509)" fill="#fff" stroke="#009ee2" stroke-miterlimit="10" stroke-width="0.94"/><path d="M681.888,153.941h0a.248.248,0,0,1,.035.195l-3.5,14.846a.251.251,0,0,1-.455.078l-.079-.122a.247.247,0,0,1-.033-.193l3.583-14.724A.251.251,0,0,1,681.888,153.941Z" transform="translate(-573.931 -153.428)" fill="#fff" stroke="#009ee2" stroke-miterlimit="10" stroke-width="0.94"/><path d="M645.8,244.828h0a.061.061,0,0,1,.046-.056l5.395-1.038c.078-.015.179.124.163.223l-.011.065a.06.06,0,0,1-.046.055l-5.384.973C645.881,245.063,645.781,244.926,645.8,244.828Z" transform="translate(-547.24 -228.295)" fill="#fff" stroke="#009ee2" stroke-miterlimit="10" stroke-width="0.94"/><path d="M746.758,289.5l3.833,9.732s12.4-7.235,16.906-8.263,7.924,1.967,9.745-5.576,3.109-8.907,3.109-8.907l-6.678-.942s-3.366,8.9-11.145,9.1C762.528,284.638,752.756,281.717,746.758,289.5Z" transform="translate(-631.318 -254.782)" fill="#031f59"/><path d="M846.455,282.13s-.716,4.333-2.553,6.4c0,0,5.294.031,9-8.126C852.9,280.409,848.044,283.045,846.455,282.13Z" transform="translate(-712.215 -258.838)" fill="#f9c8ac"/><path d="M855.458,287.774c.277-.107-.414,1.946-2.455,2.706a5.328,5.328,0,0,0-2.841,2.558,21.078,21.078,0,0,0,1.506-4.777S852.727,288.831,855.458,287.774Z" transform="translate(-717.429 -264.968)" fill="#d2501e" opacity="0.2"/><path d="M848.307,199.23s-3.911,5.06-3.72,10.888c.1,2.954,1.877,4.956,4.325,4.924a9.442,9.442,0,0,0,7.713-3.972L859.549,203Z" transform="translate(-712.78 -191.236)" fill="#f9c8ac"/><path d="M881.75,237.7a.526.526,0,0,1,.248.684c-.092.309-.354.5-.583.435a.526.526,0,0,1-.248-.684c.093-.309.354-.5.583-.435" transform="translate(-743.22 -223.258)" fill="#004d92"/><path d="M859.633,228.54a.526.526,0,0,1,.248.684c-.093.309-.354.5-.583.435a.526.526,0,0,1-.248-.684c.093-.309.354-.5.583-.435" transform="translate(-724.802 -215.632)" fill="#004d92"/><path d="M859.917,261.651s.393,1.486,2.122.568" transform="translate(-725.552 -243.217)" fill="none" stroke="#eb652a" stroke-miterlimit="10" stroke-width="0.91"/><path d="M854.357,239.9l-.309-1.106a.519.519,0,0,1,.468-.645,4.051,4.051,0,0,0,2.039-1.3" transform="translate(-720.651 -222.564)" fill="none" stroke="#eb652a" stroke-miterlimit="10" stroke-width="0.91"/><path d="M882.413,231.66a1.83,1.83,0,0,1,1.835,1.175" transform="translate(-744.286 -218.237)" fill="none" stroke="#004d92" stroke-miterlimit="10" stroke-width="0.91"/><path d="M858.915,221.287a1.793,1.793,0,0,1,1.721.786" transform="translate(-724.718 -209.588)" fill="none" stroke="#004d92" stroke-miterlimit="10" stroke-width="0.91"/><path d="M912.583,256.147a1.27,1.27,0,1,1-1.659.687,1.27,1.27,0,0,1,1.659-.687" transform="translate(-767.948 -238.553)" fill="#f9c8ac"/><path d="M616.025,393.758a22.234,22.234,0,0,0-2.7,15.842,6.348,6.348,0,0,1,3.874.387,10.919,10.919,0,0,0,7.613.221c2.31-.916,8.815-3.915,8.815-3.915s-3.553.075-5.594-16.89C628.03,389.4,618.589,394.978,616.025,393.758Z" transform="translate(-519.806 -349.604)" fill="#fff"/><path d="M750.713,337.112s2.916-2.111,4.4-2.045a11.239,11.239,0,0,0-4.051,3.428Z" transform="translate(-634.612 -304.353)" fill="#fff"/><path d="M773.347,374.5c-.392.3,7.1-7.192,12.9-6.7C786.243,367.8,778.62,370.425,773.347,374.5Z" transform="translate(-653.448 -331.591)" fill="#fff"/><path d="M852.506,195.577s.636-2.835,2.4-3.318l3.315-2.222s-5.151-1.571-5.72,5.539" transform="translate(-719.38 -183.458)" fill="#031f59"/><path d="M881.912,193.831a22.606,22.606,0,0,0-8.51-5.647l-2.393.678a8.756,8.756,0,0,0,6.691,8.331s2.988.7,4.3-1.3a1.776,1.776,0,0,0-.09-2.064" transform="translate(-734.789 -182.037)" fill="#031f59"/><path d="M869.909,185.539a4.661,4.661,0,0,1,.432-.287,6.848,6.848,0,0,1,9.653,2.847c.505,1.016,1.12,2.315,1.72,3.749l-2.08.325-5.112-3.45Z" transform="translate(-733.873 -178.782)" fill="#031f59"/><path d="M696.118,151.429s.817.109.932.463c0,0-.41-.1-.49.066C696.56,151.958,696.475,151.423,696.118,151.429Z" transform="translate(-589.147 -151.429)" fill="#fff" stroke="#009ee2" stroke-miterlimit="10" stroke-width="0.94"/><path d="M522.214,415.9a19.811,19.811,0,0,0,9.981.617c5-1.175,8.675,1.2,14.179,1.094s14.151-.245,21.5-4.545,14.91-7.514,19.222-20.765c0,0-34.153,20.888-40.67,20.89s-3.551-2.6-12.375-.432S524.8,416.6,522.214,415.9Z" transform="translate(-444.327 -352.017)" fill="#ef1485"/><path d="M704.319,302.325s-3.99,3.373-5.735,3.353c0,0,.581,27.579,7.769,28.858s26.7-9.726,27.874-18.4-15-2.149-23.127,3.862Z" transform="translate(-591.201 -277.089)" fill="#ff409e"/><path d="M381.205,302.124l12.213,5.066s3.765,25.214,14.877,33.246" transform="translate(-326.901 -276.922)" fill="none" stroke="#132787" stroke-miterlimit="10" stroke-width="1"/></g></g></g></g><rect width="107" height="204" transform="translate(-1223 4378)" fill="rgba(255,255,255,0)"/></g></svg>