<svg xmlns="http://www.w3.org/2000/svg" width="448.132" height="276" viewBox="0 0 448.132 276"><g transform="translate(1816 -4342)"><rect width="375" height="276" transform="translate(-1742.868 4342)" fill="#f1f4f9"/><g transform="translate(-1710.567 4427.293)"><g transform="translate(6.331 47.115)"><g transform="translate(0.172 0.172)"><rect width="67.083" height="36.429" rx="10.648" fill="#a9cbfc"/></g><path d="M416.912,371.029h57.309a5.065,5.065,0,0,0,5.059-5.059V339.315a5.065,5.065,0,0,0-5.059-5.059H416.912a5.064,5.064,0,0,0-5.059,5.059V365.97A5.064,5.064,0,0,0,416.912,371.029ZM474.221,334.6a4.72,4.72,0,0,1,4.715,4.715V365.97a4.72,4.72,0,0,1-4.715,4.715H416.912a4.719,4.719,0,0,1-4.715-4.715V339.315a4.72,4.72,0,0,1,4.715-4.715Z" transform="translate(-411.853 -334.256)" fill="#a9cbfc"/></g><g transform="translate(73.414 47.115)"><g transform="translate(0.172 0.172)"><rect width="67.083" height="36.429" rx="10.648" fill="#a9cbfc"/></g><path d="M133.893,371.029H191.2a5.064,5.064,0,0,0,5.058-5.059V339.315a5.064,5.064,0,0,0-5.058-5.059H133.893a5.065,5.065,0,0,0-5.059,5.059V365.97A5.065,5.065,0,0,0,133.893,371.029ZM191.2,334.6a4.72,4.72,0,0,1,4.714,4.715V365.97a4.72,4.72,0,0,1-4.714,4.715h-57.31a4.72,4.72,0,0,1-4.715-4.715V339.315a4.72,4.72,0,0,1,4.715-4.715Z" transform="translate(-128.834 -334.256)" fill="#a9cbfc"/></g><g transform="translate(73.414 52.002)"><g transform="translate(0.172 0.172)"><path d="M134.445,355.6h57.309a4.713,4.713,0,0,1,4.887,4.516v22.511a4.713,4.713,0,0,1-4.887,4.516H134.445a4.713,4.713,0,0,1-4.887-4.516V360.115A4.713,4.713,0,0,1,134.445,355.6Z" transform="translate(-129.558 -355.599)" fill="#d9eaff"/></g><path d="M133.893,386.76H191.2a4.889,4.889,0,0,0,5.058-4.688V359.561a4.889,4.889,0,0,0-5.058-4.688H133.893a4.89,4.89,0,0,0-5.059,4.688v22.511A4.89,4.89,0,0,0,133.893,386.76ZM191.2,355.217a4.546,4.546,0,0,1,4.714,4.344v22.511a4.545,4.545,0,0,1-4.714,4.344H133.893a4.546,4.546,0,0,1-4.715-4.344V359.561a4.547,4.547,0,0,1,4.715-4.344Z" transform="translate(-128.834 -354.873)" fill="#d9eaff"/></g><g transform="translate(6.331 52.002)"><g transform="translate(0.171 0.172)"><path d="M417.466,355.6h57.31a4.712,4.712,0,0,1,4.887,4.516v22.511a4.712,4.712,0,0,1-4.887,4.516h-57.31a4.712,4.712,0,0,1-4.887-4.516V360.115A4.714,4.714,0,0,1,417.466,355.6Z" transform="translate(-412.579 -355.599)" fill="#d9eaff"/></g><path d="M416.912,386.76h57.309a4.89,4.89,0,0,0,5.059-4.688V359.561a4.89,4.89,0,0,0-5.059-4.688H416.912a4.89,4.89,0,0,0-5.059,4.688v22.511A4.889,4.889,0,0,0,416.912,386.76Zm57.309-31.542a4.546,4.546,0,0,1,4.715,4.344v22.511a4.546,4.546,0,0,1-4.715,4.344H416.912a4.546,4.546,0,0,1-4.715-4.344V359.561a4.546,4.546,0,0,1,4.715-4.344Z" transform="translate(-411.853 -354.873)" fill="#d9eaff"/></g><g transform="translate(73.586 63.91)"><g transform="translate(0 0)"><path d="M191.757,424.919H134.447a4.887,4.887,0,0,1-4.887-4.887h0c24.323,1.74,52.089-4.257,67.083-14.92v14.92A4.887,4.887,0,0,1,191.757,424.919Z" transform="translate(-129.56 -405.112)" fill="none"/></g></g><g transform="translate(6.503 63.91)"><g transform="translate(0 0)"><path d="M474.78,424.919H417.47a4.886,4.886,0,0,1-4.887-4.886h0c24.323,1.74,52.089-4.257,67.083-14.92v14.92A4.887,4.887,0,0,1,474.78,424.919Z" transform="translate(-412.583 -405.112)" fill="none"/></g></g><g transform="translate(128.447 70.105)"><g transform="translate(0.171 0.172)"><path d="M98.409,444.306a6.063,6.063,0,0,1-.479-2.37v-3.869a6.09,6.09,0,0,1,6.09-6.09h7.368a6.09,6.09,0,0,1,6.09,6.09h0v3.869a6.1,6.1,0,0,1-.24,1.7" transform="translate(-97.93 -431.976)" fill="#a9cbfc"/></g><g transform="translate(0 0)"><path d="M97.691,443.817l.317-.133a5.883,5.883,0,0,1-.464-2.3v-3.87a5.924,5.924,0,0,1,5.917-5.918h7.368a5.924,5.924,0,0,1,5.918,5.918v3.87a5.928,5.928,0,0,1-.233,1.65l.332.095a6.273,6.273,0,0,0,.246-1.745v-3.869a6.269,6.269,0,0,0-6.262-6.262h-7.368a6.269,6.269,0,0,0-6.262,6.262v3.87A6.219,6.219,0,0,0,97.691,443.817Z" transform="translate(-97.2 -431.249)" fill="#a9cbfc"/></g></g><g transform="translate(128.447 72.758)"><g transform="translate(0.172 0.193)"><path d="M98.16,454.166a7.629,7.629,0,0,1-.23-1.868v-2.2c0-3.779,2.726-6.843,6.09-6.843h7.368c3.363,0,6.09,3.064,6.09,6.843h0v2.2a7.651,7.651,0,0,1-.24,1.908" transform="translate(-97.93 -443.257)" fill="#cce3ff"/></g><g transform="translate(0 0)"><path d="M116.849,453.636a7.854,7.854,0,0,0,.247-1.961v-2.2c0-3.884-2.805-7.032-6.262-7.037h-7.368c-3.457,0-6.258,3.153-6.261,7.037v2.2a7.836,7.836,0,0,0,.237,1.921l.332-.106a7.419,7.419,0,0,1-.223-1.815v-2.2c0-3.669,2.649-6.643,5.915-6.649h7.368c3.266.005,5.913,2.979,5.918,6.65v2.2a7.433,7.433,0,0,1-.233,1.853Z" transform="translate(-97.204 -442.441)" fill="#cce3ff"/></g></g><g transform="translate(-1.166 70.105)"><g transform="translate(0.173 0.172)"><path d="M645.163,444.135a6.075,6.075,0,0,1-.409-2.2v-3.869a6.089,6.089,0,0,1,6.089-6.09h7.369a6.09,6.09,0,0,1,6.09,6.09h0v3.869a6.073,6.073,0,0,1-.41,2.2" transform="translate(-644.754 -431.976)" fill="#a9cbfc"/></g><g transform="translate(0 0)"><path d="M644.454,443.643l.321-.125a5.9,5.9,0,0,1-.4-2.137v-3.87a5.924,5.924,0,0,1,5.918-5.918h7.367a5.924,5.924,0,0,1,5.918,5.918v3.87a5.887,5.887,0,0,1-.4,2.137l.321.125a6.226,6.226,0,0,0,.421-2.262v-3.87a6.269,6.269,0,0,0-6.262-6.262h-7.368a6.269,6.269,0,0,0-6.262,6.262v3.87A6.238,6.238,0,0,0,644.454,443.643Z" transform="translate(-644.033 -431.249)" fill="#a9cbfc"/></g></g><g transform="translate(-1.165 72.871)"><g transform="translate(0.172 0.19)"><path d="M645.163,454.338a9.536,9.536,0,0,1-.409-2.121v-2.065a6.268,6.268,0,0,1,6.09-6.432h7.368a6.268,6.268,0,0,1,6.09,6.432v2.066a6.743,6.743,0,0,1-.41,2.324" transform="translate(-644.754 -443.72)" fill="#cce3ff"/></g><g transform="translate(0 0)"><path d="M663.5,454a6.932,6.932,0,0,0,.422-2.395v-2.066a6.457,6.457,0,0,0-6.262-6.622h-7.368a6.457,6.457,0,0,0-6.262,6.622v2.066a9.692,9.692,0,0,0,.416,2.175l.33-.11a9.363,9.363,0,0,1-.4-2.065v-2.066a6.093,6.093,0,0,1,5.918-6.241h7.369a6.093,6.093,0,0,1,5.917,6.241v2.066a6.529,6.529,0,0,1-.4,2.253Z" transform="translate(-644.032 -442.919)" fill="#cce3ff"/></g></g><g transform="translate(-11.591 0)"><g transform="translate(42.54 12.03)"><path d="M320.257,187.621l-1.73-1.127-1.117-.248a.546.546,0,0,0-.627.335h0a.256.256,0,0,0,.151.334l1.243.454.894,1.224-1.808-.466-1.047.619a.374.374,0,0,0-.174.405h0a.374.374,0,0,0,.493.268l.767-.281,3.09.894s-3.732.233-3.343,1.5l2.2-.564.428-1.769Z" transform="translate(-316.033 -186.233)" fill="#e5ac85"/></g><g transform="translate(11.739 7.63)"><path d="M361.7,191.164c1.255-4.839-.528-10.032-2.2-14.6-3.023-8.245-11.5-8.751-16.55-8.894-5.137-.145-5.822,1.993-9.246,8.669-2.253,4.392-4.114,10.376-3.025,15.19C336.482,193.83,350.248,196.29,361.7,191.164Z" transform="translate(-330.361 -167.668)" fill="#19467c"/></g><g transform="translate(31.681 19.231)"><path d="M296.625,232.871l14.027-1.967-3.145-13.319,4.553-.971,4.145,13.512a5.5,5.5,0,0,1,.209,2.152,5.578,5.578,0,0,1-4.255,4.795l-14.605,3.712Z" transform="translate(-296.625 -216.614)" fill="#0caced"/></g><g transform="translate(12.574 34.767)"><path d="M385.309,282.832l17.906-.675-4.468,35.118-10.892.34Z" transform="translate(-385.309 -282.157)" fill="#ff429b"/></g><g transform="translate(6.281 35.402)"><path d="M444.651,319.661h-5.664a3.3,3.3,0,0,1-3.292-3.446l1.118-26.629a4.945,4.945,0,0,1,4.933-4.747h.5a4.946,4.946,0,0,1,4.935,4.813l.76,26.607C448,318.122,447.6,319.661,444.651,319.661Z" transform="translate(-435.691 -284.839)" fill="#bf166f"/></g><g transform="translate(5.091 35.532)"><path d="M449.683,320.078h-5.664a3.3,3.3,0,0,1-3.292-3.434l1.1-26.026a5.463,5.463,0,0,1,5.458-5.233h0a4.937,4.937,0,0,1,4.935,4.8l.76,26.508A3.3,3.3,0,0,1,449.683,320.078Z" transform="translate(-440.723 -285.385)" fill="#ff429b"/></g><g transform="translate(7.231 63.031)"><path d="M450.632,402.239a1.179,1.179,0,0,1-.464-.055.859.859,0,0,1-.415-.427v1.525a3.129,3.129,0,0,0,3.129,3.129H454.6a3.129,3.129,0,0,0,3.129-3.129V401.4a2.825,2.825,0,0,1-.275.071A36.542,36.542,0,0,1,450.632,402.239Z" transform="translate(-449.753 -401.403)" fill="#ffc43a"/></g><g transform="translate(7.231 56.433)"><path d="M455.094,374.611c-.667.642-1.075,1.508-1.709,2.183a2.155,2.155,0,0,1-2.48.684,1.7,1.7,0,0,1-.793-1.271,3.016,3.016,0,0,1,.251-1.515c.11-.269.236-.606.042-.824a.956.956,0,0,0-.652-.3v6.951a.859.859,0,0,0,.415.427,1.179,1.179,0,0,0,.464.055,36.545,36.545,0,0,0,6.82-.765c.092-.019.185-.042.275-.071v-6.6A3.8,3.8,0,0,0,455.094,374.611Z" transform="translate(-449.753 -373.567)" fill="#ffc43a"/></g><g transform="translate(7.196 63.493)"><path d="M450.326,404.669a2.645,2.645,0,0,0,1.259-.477,1.281,1.281,0,0,1,1.887,0,2.392,2.392,0,0,0,.357.273,1.442,1.442,0,0,0,1.058.128c.028.048.068.027.127,0l.283-.147h0l-.016-.031a4.591,4.591,0,0,0,1.1-.983l-.1-.07a4.785,4.785,0,0,1-1.241,1.064,1.376,1.376,0,0,1-1.162-.057,2.33,2.33,0,0,1-.339-.26,1.826,1.826,0,0,0-.474-.332,1.8,1.8,0,0,0-1.54.315,2.113,2.113,0,0,1-1.428.443,1.925,1.925,0,0,1-.708-.39c-.091-.068-.185-.138-.282-.2a.989.989,0,0,0-1.167-.062l.08.088a.877.877,0,0,1,1.023.073c.093.06.186.129.275.2a2.043,2.043,0,0,0,.754.411A1.122,1.122,0,0,0,450.326,404.669Z" transform="translate(-447.951 -403.353)" fill="#ff429b"/></g><g transform="translate(31.858 35.027)"><path d="M360.485,283.274s5.775-.795,4.25,7.964l-1.939-1.329Z" transform="translate(-360.485 -283.255)" fill="#ff429b"/></g><g transform="translate(26.92 28.535)"><rect width="5.149" height="8.532" transform="translate(0 0)" fill="#ffcdab"/></g><g transform="translate(18.596 19.844)"><ellipse cx="1.47" cy="1.159" rx="1.47" ry="1.159" transform="translate(0.526 3.307) rotate(-100.306)" fill="#ffcdab"/></g><g transform="translate(20.276 10.883)"><path d="M369.6,183.17l-9.245-1.779h-8.993l-.017,14.118a6.6,6.6,0,0,0,1.587,4.274h0a7.552,7.552,0,0,0,5.765,2.608h3.315a7.552,7.552,0,0,0,5.765-2.608h0a6.6,6.6,0,0,0,1.587-4.274Z" transform="translate(-351.341 -181.391)" fill="#ffcdab"/></g><g transform="translate(18.494 7.637)"><path d="M343.5,179.492s.843-2.661,5.476-5.851c0,0,1.35-2.589,5.359-1.485l2.685,3.825,1.128-1.6,2.748,3.481.707,1.356.691.415,1.52-3.04-2.349-3.869s-2.037-2.764-2.625-2.764-3.658-2.251-3.658-2.251-3.825.078-4.046,0-3.457.311-4.266.389a12.317,12.317,0,0,0-2.611.934s-1.949,2.875-2.464,2.243c-.246-.3-.368,3.356-.368,3.706S343.5,179.492,343.5,179.492Z" transform="translate(-341.43 -167.697)" fill="#19467c"/></g><g transform="translate(25.264 23.262)"><ellipse cx="1.544" cy="1.047" rx="1.544" ry="1.047" transform="translate(0 0)" fill="#f29c61"/></g><g transform="translate(34.592 23.5)"><ellipse cx="1.452" cy="0.985" rx="1.452" ry="0.985" transform="translate(0 0)" fill="#f29c61"/></g><g transform="translate(20.085 8.931)"><path d="M366.245,178.718s-18.9,5.455-19.4,5.588.43-2.935.43-2.935l1.751-3.2,4-2.624,3.482-1.4,3.448-.984,1.455.552s.967,1.382,2.208,1.007C364.023,174.6,366.245,178.718,366.245,178.718Z" transform="translate(-346.698 -173.157)" fill="#19467c"/></g><g transform="translate(33.335 17.903)"><ellipse cx="3.281" cy="3.281" rx="3.281" ry="3.281" transform="translate(0.06 0.059)" fill="#ffdfca"/><path d="M348.412,217.692a3.345,3.345,0,0,0,3.321-3.753h0a3.34,3.34,0,1,0-3.321,3.753Zm3.2-3.739a3.222,3.222,0,1,1-3.595-2.8,3.225,3.225,0,0,1,3.595,2.8Z" transform="translate(-345.079 -211.012)" fill="#19467c"/></g><g transform="translate(24.996 17.874)"><ellipse cx="3.295" cy="3.295" rx="3.295" ry="3.295" transform="translate(0.06 0.06)" fill="#ffdfca"/><path d="M383.49,217.595a3.354,3.354,0,0,0,3.331-3.768h0a3.354,3.354,0,1,0-3.331,3.768Zm3.213-3.754a3.235,3.235,0,1,1-1.223-2.153,3.215,3.215,0,0,1,1.223,2.153Z" transform="translate(-380.138 -210.886)" fill="#19467c"/></g><g transform="translate(34.729 22.819)" opacity="0.24"><path d="M357.283,231.751a1.47,1.47,0,0,1,1.4.728,3.242,3.242,0,0,1-2.7-.176A1.613,1.613,0,0,1,357.283,231.751Z" transform="translate(-355.98 -231.751)" fill="#f29c61"/></g><g transform="translate(32.501 22.194)"><path d="M374.315,230.653a1.084,1.084,0,0,0,.25-.946,1.024,1.024,0,0,0-.584-.591l-.063.166a.857.857,0,0,1,.477.477.923.923,0,0,1-.224.79Z" transform="translate(-373.918 -229.115)" fill="#ff6700"/></g><g transform="translate(29.118 31.882)" opacity="0.49"><path d="M381.56,269.987h-2.95l2.95,1.553Z" transform="translate(-378.61 -269.987)" fill="#d3892f"/></g><g transform="translate(17.603 35.167)"><path d="M341,283.908h0c.93.087,3.289,2.536,3.627,4.588l8.8,44.3H326.647l.743-42.145,1.03-4.236,7.544-2.569Z" transform="translate(-326.647 -283.848)" fill="#3a5cbe"/></g><g transform="translate(29.172 41.674)"><ellipse cx="0.57" cy="0.57" rx="0.57" ry="0.57" transform="translate(0 0)" fill="#fff"/></g><g transform="translate(26.92 34.08)"><path d="M376.761,280.348s7.309,3.009,5.206.132l-1-.943-1.8-.276Z" transform="translate(-376.761 -279.261)" fill="#ffcdab"/></g><g transform="translate(22.024 35.452)"><path d="M392.789,286.4s2-.942,3.195,3.587c0,0,1.636,4.827-3.195,18.84l2.821,1.485s7.588-20.361,1.491-25.2a.327.327,0,0,0-.306-.051Z" transform="translate(-392.789 -285.047)" fill="#ff429b"/></g><g transform="translate(34.833 36.762)"><path d="M366.452,290.574a.873.873,0,0,0-.152.048Z" transform="translate(-366.3 -290.574)" fill="#ff733b"/></g><g transform="translate(26.92 35.167)"><path d="M379.8,284.139c1.715,2.6-5.316-.291-5.316-.291s4.519,5.027,5.055,1.417C379.539,285.265,381.764,286.039,379.8,284.139Z" transform="translate(-374.484 -283.848)" fill="#fff"/></g><g transform="translate(31.474 45.757)"><ellipse cx="0.207" cy="0.207" rx="0.207" ry="0.207" transform="translate(0 0)" fill="#1361b9"/></g><g transform="translate(31.918 35.261)"><path d="M372.979,285.567s1.582,1.189,1.479.242c0,0-.018-.5-1.312-1.566C373.146,284.243,374.336,285.692,372.979,285.567Z" transform="translate(-372.979 -284.243)" fill="#fff"/></g><g transform="translate(31.548 20.415)"><path d="M374.866,222.023l.074-.093a1.623,1.623,0,0,0-1.822-.062l.065.1A1.479,1.479,0,0,1,374.866,222.023Z" transform="translate(-373.118 -221.609)" fill="#19467c"/></g><g transform="translate(21.755 59.013)"><path d="M407.087,385.018l3.109,1.367.454-.542-.867-.692s-1.2-.632-1.264-.66a6.645,6.645,0,0,0-.7-.041Z" transform="translate(-407.087 -384.45)" fill="#ff429b"/></g><g transform="translate(21.272 59.956)"><path d="M409.88,388.43,413,389.752l-.419.868-.609.157s-.994-.255-1.1-.286a7.4,7.4,0,0,1-1.006-.487.93.93,0,0,1-.241-.417l-.093-.362Z" transform="translate(-409.53 -388.43)" fill="#ff429b"/></g><g transform="translate(19.35 60.383)"><path d="M413.427,390.231s-1.33,2.535-2.334,4.157l2.549,1.237a12.509,12.509,0,0,0,2.469-3.859Z" transform="translate(-411.093 -390.231)" fill="#ff429b"/></g><g transform="translate(21.011 60.645)"><path d="M410.492,391.336l3.5,1.591-.7.273a1.614,1.614,0,0,1-1.223-.042l-.571-.257a1.671,1.671,0,0,1-.971-1.333Z" transform="translate(-410.492 -391.336)" fill="#ffc43a"/></g><g transform="translate(21.011 58.53)"><path d="M410.485,383.279l-1.858-.79a.939.939,0,0,0-1.192.428l-.8,1.613.4.2.794-1.608a.459.459,0,0,1,.038-.047c.511.214,2.131.9,2.722,1.152a.481.481,0,0,1-.038.137l-.87,1.671.455.09.81-1.556a.932.932,0,0,0-.463-1.286Z" transform="translate(-406.638 -382.415)" fill="#ffc43a"/></g><g transform="translate(17.82 61.259)"><path d="M417.4,393.927l.6,1a4.023,4.023,0,0,0,2.7,1.962l1.724.351a5.671,5.671,0,0,1-5.064,2.831Z" transform="translate(-417.354 -393.927)" fill="#bf166f"/></g><g transform="translate(17.735 37.512)"><path d="M411.054,307.287l-2.639-9.973c-.318-1.654-2.329-3.886-3.865-3.537a2.724,2.724,0,0,0-2.124,3.279l1.43,5.658c.069-.042,5.354,14.711,3.074,6.526C406.457,307.54,409.21,307.548,411.054,307.287Z" transform="translate(-402.348 -293.741)" fill="#0caced"/></g><g transform="translate(24.686 39.432)"><path d="M378.547,305c-.293-.228-.645-.36-.957-.558a1.258,1.258,0,0,1-.639-.877c-.037-.378.3-.792.653-.7a1.288,1.288,0,0,1,.454.32,1.322,1.322,0,0,0,1.31.25c.811-.322,1.171-1.513,2.036-1.594.614-.057,1.1.493,1.484.993l.715.937a4.54,4.54,0,0,1,1.112,2.22,2.316,2.316,0,0,1-.341,1.438.451.451,0,0,1-.184.186c-.156.068-.325-.042-.463-.143a8.333,8.333,0,0,0-3.116-1.4c-.761-.166-1.677-.321-1.991-1.056" transform="translate(-376.948 -301.84)" fill="#ffcdab"/></g><g transform="translate(24.368 42.908)"><path d="M381.377,316.683s4.007-1.105,5.251,2.211l-2.487,8.43-5.113-2.626Z" transform="translate(-379.028 -316.506)" fill="#0caced"/></g><g transform="translate(19.095 43.932)"><path d="M379.6,322.14s4.028,20.63,9.769,10.171a16.518,16.518,0,0,0,1.521-3.911l1.448-5.735-5.253-1.306L385.9,324.91l-1.024-4.086Z" transform="translate(-379.602 -320.824)" fill="#0caced"/></g><g transform="translate(28.241 39.206)"><path d="M375.866,301.665l.481-.531a.759.759,0,0,1,1.145.023l2.663,3.191a.786.786,0,0,1,.154.741l-.354,1.159-1.676-2.452-1.7-1.369Z" transform="translate(-375.866 -300.885)" fill="#ffcdab"/></g><g transform="translate(7.785 42.226)"><path d="M452.8,316.678a.53.53,0,0,0,.1-.009l5.624-1.034a.534.534,0,0,0,.428-.621l-.174-.949a.534.534,0,0,0-.621-.428l-5.624,1.034a.534.534,0,0,0-.428.621l.174.949A.535.535,0,0,0,452.8,316.678Zm5.7-1.16-5.624,1.034a.416.416,0,0,1-.483-.333l-.174-.949a.415.415,0,0,1,.333-.483l5.624-1.034a.415.415,0,0,1,.483.333l.174.949a.415.415,0,0,1-.333.483Z" transform="translate(-452.092 -313.628)" fill="#bf166f"/></g><g transform="translate(7.785 46.146)"><path d="M452.8,333.216a.536.536,0,0,0,.1-.009l5.624-1.035a.533.533,0,0,0,.428-.621l-.174-.949a.536.536,0,0,0-.621-.428l-5.624,1.034a.534.534,0,0,0-.428.621l.174.949A.534.534,0,0,0,452.8,333.216Zm5.7-1.16-5.624,1.034a.416.416,0,0,1-.483-.333l-.174-.949a.415.415,0,0,1,.333-.483l5.624-1.034a.416.416,0,0,1,.483.333l.174.949a.415.415,0,0,1-.333.483Z" transform="translate(-452.092 -330.166)" fill="#bf166f"/></g><g transform="translate(7.785 49.941)"><path d="M452.8,349.227a.517.517,0,0,0,.1-.009l5.624-1.034a.534.534,0,0,0,.428-.621l-.174-.949a.534.534,0,0,0-.621-.428l-5.624,1.035a.534.534,0,0,0-.428.621l.174.949A.534.534,0,0,0,452.8,349.227Zm5.7-1.16-5.624,1.034a.415.415,0,0,1-.483-.333l-.174-.949a.416.416,0,0,1,.333-.483l5.624-1.034a.416.416,0,0,1,.483.333l.174.949a.415.415,0,0,1-.333.483Z" transform="translate(-452.092 -346.177)" fill="#bf166f"/></g><g transform="translate(26.992 43.443)"><ellipse cx="0.308" cy="0.308" rx="0.308" ry="0.308" transform="translate(0 0)" fill="#1361b9"/></g><g transform="translate(28.456 52.636)"><path d="M389.194,358.01l-.012.032c-.073.192-.468,1.219-.733,1.726l-.6-.435a4.2,4.2,0,0,1-.1-.872,3.274,3.274,0,0,1,.307-.664,1.081,1.081,0,0,1,.354-.25" transform="translate(-387.748 -357.546)" fill="#00a9ff"/></g><g transform="translate(31.233 43.01)"><path d="M376.987,319.076a2.678,2.678,0,0,0,.625-1.587l-.546-.555-.509.114-.348.17.054.188Z" transform="translate(-376.209 -316.934)" fill="#ffcdab"/></g><g transform="translate(24.258 50.081)"><path d="M406.019,349.073l.589-2.3s.634.688.652.723.072.92.072.965a2.163,2.163,0,0,1-.045.232Z" transform="translate(-406.019 -346.769)" fill="#00a9ff"/></g><g transform="translate(24.017 44.448)"><path d="M381.305,331.608l1.3-5.271.919-3.077c.513-.037,3.438-.156,4.826,1.81l.193-.137c-1.6-2.264-4.979-1.919-5.123-1.9l-.078.009-.966,3.236-1.3,5.276Z" transform="translate(-381.075 -323.003)" fill="#1361b9"/></g><g transform="translate(28.122 20.227)"><path d="M388.5,221.615h.237a.564.564,0,1,1,1.128,0h.237a.8.8,0,0,0-1.6,0Z" transform="translate(-388.498 -220.814)" fill="#19467c"/></g><g transform="translate(35.241 20.227)"><path d="M358.462,221.615h.237a.564.564,0,0,1,1.128,0h.237a.8.8,0,1,0-1.6,0Z" transform="translate(-358.462 -220.814)" fill="#19467c"/></g><g transform="translate(30.236 24.619)"><path d="M378.667,239.344c0,.021,0,.042,0,.064a1.2,1.2,0,0,1-2.382.146Z" transform="translate(-376.288 -239.344)" fill="#fff"/></g><g transform="translate(15.357 5.349)"><path d="M371.731,158.046l1.432,7.2s-11.638,8.371-23.594,2.475v-7.349Z" transform="translate(-349.57 -158.046)" fill="#0caced"/></g><g transform="translate(6.432)"><path d="M336.714,135.478l21.771,2.543-18.435,6.657-21.417-2.849Z" transform="translate(-318.633 -135.478)" fill="#0caced"/></g><g transform="translate(6.432 6.351)"><path d="M416.99,164.992l.1.943-21.552-2.771-.094-.892Z" transform="translate(-395.443 -162.273)" fill="#3a5cbe"/></g><g transform="translate(27.979 2.543)"><path d="M318.228,152.734l18.305-6.528.1.917-18.3,6.554Z" transform="translate(-318.228 -146.207)" fill="#3a5cbe"/></g><g transform="translate(2.433 2.778)"><path d="M409.408,162.01a3.211,3.211,0,0,0,2.116-2.508,10.174,10.174,0,0,0,.152-2.335c0-.313-.008-.635,0-.95a11.877,11.877,0,0,1,.748-3.845,2.5,2.5,0,0,1,.916-1.337,2.832,2.832,0,0,1,1.272-.274l5.846-.347a6.6,6.6,0,0,0,3.86-1.078,6.524,6.524,0,0,0,.6-.586,3.792,3.792,0,0,1,.913-.794,3.438,3.438,0,0,1,1.307-.321,16.948,16.948,0,0,1,4.483.165l.06-.35a17.25,17.25,0,0,0-4.577-.168,3.728,3.728,0,0,0-1.443.362,4.11,4.11,0,0,0-1,.864,6.335,6.335,0,0,1-.564.555,6.1,6.1,0,0,1-3.654,1l-5.846.347a3.151,3.151,0,0,0-1.433.324,2.807,2.807,0,0,0-1.068,1.519,12.235,12.235,0,0,0-.771,3.96c-.009.321,0,.648,0,.964a9.9,9.9,0,0,1-.143,2.254,2.859,2.859,0,0,1-1.853,2.239Z" transform="translate(-409.324 -147.2)" fill="#ffc43a"/></g><g transform="translate(0 16.981)"><path d="M504.9,208.277l-1.473,1.6-1.115-2.669,2.072-.087a.6.6,0,0,1,.6.418l.047.146A.6.6,0,0,1,504.9,208.277Z" transform="translate(-502.316 -207.122)" fill="#ff6700"/></g><g transform="translate(42.873 20.597)"><rect width="0.237" height="4.76" transform="translate(0.051 1.264) rotate(-102.526)" fill="#1361b9"/></g><g transform="translate(46.363 19.748)"><ellipse cx="0.302" cy="0.302" rx="0.302" ry="0.302" transform="translate(0 0)" fill="#1361b9"/></g><g transform="translate(32.056 35.261)"><rect width="0.059" height="0.651" transform="translate(0 0)" fill="#d3892f"/></g><g transform="translate(17.497 61.428)"><path d="M422.2,397.548s-2.977.7-5.042-2.906c0,0-.513,1.691-.513,1.83s.873,1.774.873,1.774l.832.5,1.7.242,1.818-.946Z" transform="translate(-416.647 -394.642)" fill="#bf166f"/></g><g transform="translate(21.413 36.624)"><path d="M413.761,291.561l.11-.044a2.334,2.334,0,0,0-3.01-1.35l.041.111A2.186,2.186,0,0,1,413.761,291.561Z" transform="translate(-410.861 -289.992)" fill="#bf166f"/></g><g transform="translate(41.917 10.951)"><path d="M312.859,190.012l-.089-.617s2.08-3.544,2.043-3.655-2.161-3.774-2.161-3.774l-2.19-.282a.5.5,0,0,0-.565.5h0a.268.268,0,0,0,.213.262l1.654.349.506,1.54-1.891-1.149-1.6.066a.324.324,0,0,0-.288.206h0a.324.324,0,0,0,.272.44l1.146.106,1.4,1.341-2-.583-1.155.086a.277.277,0,0,0-.252.228h0a.277.277,0,0,0,.24.322l1.036.121,1.152,1.283a3.52,3.52,0,0,0-1.589,2.318l.233,1.721Z" transform="translate(-307.904 -181.681)" fill="#ffcdab"/></g></g></g><path d="M0,0,101.9,1.386V204H0Z" transform="translate(-1816 4378)" fill="rgba(255,255,255,0)"/></g></svg>