<svg xmlns="http://www.w3.org/2000/svg" width="449.132" height="276" viewBox="0 0 449.132 276"><g transform="translate(727 -4342)"><g transform="translate(-7999 1810)"><g transform="translate(7346.132 2479)"><rect width="375" height="276" transform="translate(0 53)" fill="#f1f4f9"/></g></g><g transform="translate(-1510.142 4414.92)"><path d="M1051.284,275.463H888l18.367-36.128,10.7-.807,7.468,11.706,101.522.4,2.422-12.312,11.706-.2Z" transform="translate(0 -170.128)" fill="#d3e2f4"/><path d="M1557.8,230.044a15.039,15.039,0,0,1,10.158-7.964,6.375,6.375,0,0,1,2.826-.107,8.1,8.1,0,0,1,4.239,3.151,47.943,47.943,0,0,1,10.76,31.607" transform="translate(-534.608 -157.145)" fill="#d3e2f4"/><path d="M1595.367,232.836c-.605-1.816-5.853-10.5-9.284-10.9-.771-.178-4.642,0-9.083,3.229C1587.5,222.341,1590.927,226.579,1595.367,232.836Z" transform="translate(-549.936 -157.171)" fill="#a5caef"/><path d="M930.338,230.044a16.322,16.322,0,0,0-11.113-7.964,7.721,7.721,0,0,0-3.114-.107,9,9,0,0,0-4.642,3.151,45.366,45.366,0,0,0-11.751,31.607" transform="translate(-9.333 -157.145)" fill="#d3e2f4"/><path d="M978,237.123" transform="translate(-71.835 -169.33)" fill="#a5caef" stroke="#a5caef" stroke-miterlimit="10" stroke-width="8"/><path d="M985.29,251l3.566-2.757,1.522-2.9-.071-.071.071.071.071-.107c-1.062-1.556-2.22-3.078-3.431-4.529-2.123-2.479-4.919-4.991-8.176-4.709a6.347,6.347,0,0,0-1.167.2l.353,1.488C978,237.691,986.422,242.646,985.29,251Z" transform="translate(-71.576 -168.409)" fill="#d3e2f4"/><path d="M1082.62,97.9a5.39,5.39,0,0,0-1.064-2.624,5.227,5.227,0,0,0-3.229-1.31,35.615,35.615,0,0,0-17.1,1.875l-.036-.565c-6.3,3.431-14.617,2.8-20,7.573a28.05,28.05,0,0,0-4.529,5.841c-1.77,2.69-3.681,5.308-5.7,7.821a42.689,42.689,0,0,0-5.06,5.946c-.708,1.062-1.346,2.2-2.123,3.258-1.7,2.335-4,4.176-6.019,6.257a10.781,10.781,0,0,0-2.087,2.8,4.789,4.789,0,0,0-.46,2.69,2.423,2.423,0,0,0,.494,1.344,3.384,3.384,0,0,0,.92.955h0a2.735,2.735,0,0,0,1.346.426l-.071.353c2.37-1.025,3.679-3.538,5.131-5.663q.428-.581.85-1.167a9.284,9.284,0,0,1,2.3,1.132,17.884,17.884,0,0,1,2.018,1.663l-.036.036c.319.706.605,7.4,8.919,5.91l12.671-8.423,3.762-7.526-1.062-6.66-2.9-.957c.2-.071.46-.141.672-.212a26.1,26.1,0,0,1,6.759-1.522c2.3-.107.752,9.455,2.558,10.906,2.052,1.663,4.42-.02,5.449,2.422.282.708,1.475.868,2.22,1.009.46.071,2.835-2.021,3.26-2.2,1.167-.531,6.661,10.4,4.458-2.69-.071-.39-.319-1.413-.071-1.734a3,3,0,0,0,.46-1.1c.85-3.752,1.062-7.75,2.868-11.149,1.413-2.688,3.786-4.884,4.6-7.821A14.7,14.7,0,0,0,1082.62,97.9Z" transform="translate(-101.515 -54.808)" fill="#1c5cc1"/><path d="M1099.554,191.651a11.014,11.014,0,0,0-4.779,4.317,38.079,38.079,0,0,1-3.786,5.31c-1.132,1.211-2.549,2.158-3.681,3.363a20.2,20.2,0,0,0-1.911,2.335c-1.982,2.654-4,5.345-5.98,8,.672.743,1.344,1.451,2.018,2.194.178.178.353.39.606.355a.715.715,0,0,0,.5-.285,25.53,25.53,0,0,0,2.624-2.937c1.38-1.77,2.478-3.752,3.93-5.486,2.194-2.654,5.026-4.672,7.327-7.222s4.069-5.98,3.363-9.309a8.566,8.566,0,0,0-.248-.918" transform="translate(-152.781 -132.809)" fill="#134aa3"/><path d="M1203.918,210.686a9.393,9.393,0,0,0-.248-.955c-.071-.2-.39-.071-.317.141l.2.85c.071.212.424.178.353-.036Z" transform="translate(-251.695 -147.386)" fill="#e83b0d"/><path d="M1330.876,209.418l-7.361,8.493s1.593,9.379,1.77,10.124,7.573,3.326,7.573,3.326h9.839l6.231-1.062.389-9.1Z" transform="translate(-347.613 -147.216)" fill="#ef1485"/><path d="M1461.222,142.256s-2.656-6.618-12.883-7.008l-.674,4.212,4.071,2.826Z" transform="translate(-446.705 -88.016)" fill="#ff409e"/><path d="M1301.706,196.371c-1.8,9.345-2.8,23.183,0,26.9.46.636-.531-1.911.141-1.488.214.141,1.413,1.948,1.7,1.911a3.051,3.051,0,0,0,2.3-1.7c.531-1.982,1.946-1.451,2.654-3.363a6.663,6.663,0,0,0,.248-1.734c.2-4.955,1.593-9.732,2.973-14.476.107-.426-.283-.957-.39-1.381a2.31,2.31,0,0,0-1.274-1.169c-.991-.495-2.727-2.654-3.859-2.866-1.1-.178-3.574-1.274-4.495-.638" transform="translate(-328.814 -136.646)" fill="#ffb38a"/><path d="M1322.569,215.136a2.307,2.307,0,0,0-1.273-1.167,17.35,17.35,0,0,1-2.3-1.911c-.071.494-.107.991-.178,1.486a11.692,11.692,0,0,0-.107,1.911c0,.5.073.991.036,1.488a6.61,6.61,0,0,1-.424,1.627,17.6,17.6,0,0,0-.779,4.5,7.971,7.971,0,0,1-.708,3.893,8.7,8.7,0,0,1-.884,1.062,8.7,8.7,0,0,0-1.736,3.363c1.558-1.211,3.116-2.408,4.642-3.611a3.159,3.159,0,0,1,.743-.46c.248-.107.495-.141.743-.248a80.14,80.14,0,0,1,2.583-10.618C1323.1,216.093,1322.674,215.562,1322.569,215.136Z" transform="translate(-340.19 -149.324)" fill="#ea9f78"/><path d="M1493.231,165.809c5.133,9.1,9.308,16.034,14.441,25.13.141.283-.92.39-1.132.636a8.834,8.834,0,0,1-1.31,1.062c-1.1.143-.2,1.169-1.31,1.31-.638.071-.353.807-.991.672a7.107,7.107,0,0,1-2.123-1.1c-2.513-1.7-5.522-2.973-7.115-5.593a15.634,15.634,0,0,1-1.485-3.928c-.779-2.727-1.665-5.381-2.691-8-.743-1.875-1.558-3.891-1.062-5.839a9.36,9.36,0,0,1,2.371-3.752,3.1,3.1,0,0,1,1.025-.884,1.064,1.064,0,0,1,1.239.212c.071.071.107.212,0,.248-.07.071-.141-.141-.034-.107" transform="translate(-479.141 -112.1)" fill="#ffb38a"/><path d="M1502.792,194.428a.692.692,0,0,1-.161-.02,5.854,5.854,0,0,1-1.835-.9l-.313-.2c-.622-.42-1.286-.821-1.927-1.211-1.966-1.191-4-2.422-5.207-4.406a13.915,13.915,0,0,1-1.387-3.568l-.109-.377c-.807-2.816-1.683-5.431-2.688-7.993l-.024-.065c-.755-1.9-1.534-3.871-1.039-5.819a9.478,9.478,0,0,1,2.373-3.764l.014-.016a3.1,3.1,0,0,1,1.048-.9,1.14,1.14,0,0,1,1.324.23.319.319,0,0,1,.073.123l.075-.042c2.567,4.549,4.935,8.626,7.224,12.568s4.642,8.015,7.218,12.562a.176.176,0,0,1,0,.149c-.061.145-.315.228-.605.325a1.517,1.517,0,0,0-.541.242,8.593,8.593,0,0,1-1.348,1.086c-.5.065-.547.311-.605.605a.721.721,0,0,1-.714.712.5.5,0,0,0-.432.355C1503.136,194.252,1503.049,194.428,1502.792,194.428Zm-10.713-29.213a1.283,1.283,0,0,0-.484.1,2.992,2.992,0,0,0-1.009.864l-.016.018a9.283,9.283,0,0,0-2.341,3.706c-.484,1.9.287,3.851,1.033,5.734l.024.065c1.009,2.565,1.887,5.183,2.693,8l.109.377a13.762,13.762,0,0,0,1.37,3.534c1.189,1.956,3.209,3.177,5.161,4.358.644.39,1.308.791,1.931,1.211l.313.2a5.792,5.792,0,0,0,1.788.888c.276.061.337-.061.428-.242a.638.638,0,0,1,.539-.432c.5-.065.543-.313.594-.606a.716.716,0,0,1,.717-.712,9.822,9.822,0,0,0,1.267-1.041,1.514,1.514,0,0,1,.606-.281c.218-.071.489-.159.523-.244a.03.03,0,0,0,0-.032c-2.563-4.543-4.929-8.616-7.215-12.556s-4.626-7.964-7.171-12.479a.161.161,0,0,1-.1.113.106.106,0,0,1-.131,0,.165.165,0,0,1-.053-.19.1.1,0,0,1,.115-.05.09.09,0,0,0-.018-.02.837.837,0,0,0-.674-.285Zm.708.337-.04.115h0a.041.041,0,0,0,.024-.01h0a.045.045,0,0,0-.024,0l.028-.016h0a.022.022,0,0,0,.014-.016.123.123,0,0,0,0-.079Z" transform="translate(-478.856 -111.821)" fill="#e57d59"/><path d="M1474.3,173.532c2.513,2.725,2.69,6.9,4.531,10.158,1.768,3.044,4.919,5.1,6.8,8.073a18.513,18.513,0,0,1,1.982,4.814,1.934,1.934,0,0,1-.178,1.77,2.014,2.014,0,0,1-1.211.353l-4.283.214a1.58,1.58,0,0,1-.708-.071c-.46-.178-.672-.674-.884-1.1a131.991,131.991,0,0,0-8.275-15.822c-.884-1.413-1.8-2.973-1.663-4.642a7.357,7.357,0,0,1,1.911-3.716,2.483,2.483,0,0,1,1.31-1.027c.567-.107,1.211.5.955.991" transform="translate(-464.847 -117.771)" fill="#ea9f78"/><path d="M1347.853,137.9a2.361,2.361,0,0,1-1.413-1.344c-.107-.212-.107-.46-.2-.708a2.468,2.468,0,0,0-.991-1.1c-1.948-1.276-4.495-1.211-6.689-1.982a13.885,13.885,0,0,0-2.586-.886,7.5,7.5,0,0,0-2.654.214c-3.538.706-7.078,1.379-10.618,2.087-2.476.5-5.026.991-7.149,2.408-.424.283-.807.531-1.211.777a9.142,9.142,0,0,0-1.734,1.276,6.986,6.986,0,0,0-1.346,1.522,15.485,15.485,0,0,0-2.406,4.919,4.373,4.373,0,0,1,3.538.957c1.593,1.381,3.009,3.609,4.354,4.884l.071.034c.991.606,4.037,1.062,4.107,2.23.176,2.549-2.479,5.45-1.211,7.67a13.033,13.033,0,0,0,2.337-1.381,2.534,2.534,0,0,1,2.583-.246c.319.2.565.531.955.636.708.214,1.31-.494,1.7-1.132,2.335-3.468,5.522-6.511,9.486-7.787,1.522-.494,3.149-.706,4.707-1.167a16.934,16.934,0,0,0,3.857-1.665c.426-.246-.1.248.214-.141,0,0-.107-.141.283-.319,1.413-.706,2.9-6.937,4.6-8.1C1349.72,138.046,1349.468,138.54,1347.853,137.9Z" transform="translate(-335.912 -85.292)" fill="#ff409e"/><path d="M1341.049,189.552l-.2-1.344a10.012,10.012,0,0,0-2.9,5.308,42.889,42.889,0,0,0,2.826,3.328l.141.141c.319.319.565.779.884.92.107-.991.355-2.725.5-3.328C1342.535,193.341,1341.049,189.552,1341.049,189.552Z" transform="translate(-359.131 -130.287)" fill="#ef1485"/><path d="M1488.993,165.457c-2.656,1.841-1.806,6.158-4.5,7.821-.1.071,0,.248.143.178,2.725-1.7,1.875-5.982,4.495-7.823C1489.24,165.528,1489.1,165.35,1488.993,165.457Z" transform="translate(-476.07 -112.102)" fill="#ef1485"/><path d="M1313.226,189.63c2.691-.955,5.1,2.515,6.124,4.39.071.107.248.034.2-.071-1.1-1.982-3.609-5.486-6.406-4.495a.1.1,0,1,0,.071.176Z" transform="translate(-339.272 -131.144)" fill="#ef1485"/><path d="M1448.874,164.708h-.743l-2.057,3.185s3.255,4.921,4.14,6.336a9.025,9.025,0,0,0,1.31,1.522,16.285,16.285,0,0,0,3.292-1.486c.107-.071.141-.071.178-.071,0-.036.034-.036.034-.071,0,0-.105-.141.282-.319.567-.283,1.134-1.413,1.7-2.761A10.494,10.494,0,0,0,1448.874,164.708Z" transform="translate(-445.437 -111.53)" fill="#ef1485"/><path d="M1240.025,129.808s-4.844,9.2,4.565,12.637l.743-4.672-1.8-3.857Z" transform="translate(-279.98 -83.674)" fill="#ffcdaa"/><path d="M1119.722,293.946s-1.592,1.413-.807,2.937l2.22-1.451s.424-1.062.46-1.167.176-.807.176-.807l-.2-.39Z" transform="translate(-184.135 -213.983)" fill="#0061bc"/><path d="M1416.985,205.038l.2.214v-.071Z" transform="translate(-422.218 -143.72)" fill="#fca73b"/><path d="M1260.048,151.629l-2.123,9.8,4.39-.777.531.1a4.344,4.344,0,0,0,5.1-3.044l1.734-6.158Z" transform="translate(-295.262 -101.034)" fill="#ffcdaa"/><g transform="translate(961.779 54.064)" opacity="0.35"><path d="M1257.085,170.618l-.85,7.151-2.69-4.319.991-4.352Z" transform="translate(-1253.545 -169.098)" fill="#e98920"/></g><ellipse cx="2.832" cy="2.018" rx="2.832" ry="2.018" transform="translate(974.485 44.824) rotate(-70.05)" fill="#ffcdaa"/><ellipse cx="2.018" cy="2.832" rx="2.018" ry="2.832" transform="translate(958.477 38.42) rotate(-6.04)" fill="#ffcdaa"/><path d="M1256.89,72.375l-1.877,1.062a6.847,6.847,0,0,1-4.176.807h0l-2.725-.319a6.661,6.661,0,0,1-3.718-1.7l-1.211-1.1a6.837,6.837,0,0,1-1.132-5.1l3.4-19.715,15.572,1.911-1.911,19.715A6.861,6.861,0,0,1,1256.89,72.375Z" transform="translate(-282.51 -17.035)" fill="#ffaf97"/><path d="M1242.354,107.776a5.579,5.579,0,0,0,1.522,2.267l.605.531a6.9,6.9,0,0,0,3.75,1.592l2.727.319h0a6.862,6.862,0,0,0,4.176-.807l1.875-1.062a6.692,6.692,0,0,0,2.22-4.424l.957-10.723.034-.957-1.911,7.541a2.8,2.8,0,0,1-3.114,2.3l-8.487-1.041a2.848,2.848,0,0,1-2.476-3.114l.248-5.77-.779-.246-1.629,10.14A6.747,6.747,0,0,0,1242.354,107.776Z" transform="translate(-282.523 -55.236)" fill="#162457"/><ellipse cx="0.813" cy="0.638" rx="0.813" ry="0.638" transform="translate(971.6 42.961) rotate(-83.04)" fill="#00347e"/><ellipse cx="0.813" cy="0.638" rx="0.813" ry="0.638" transform="translate(966.584 42.359) rotate(-83.04)" fill="#00347e"/><path d="M1288.033,114.085,1288,113.9c.924-.186,1.5-.561,1.693-1.114.4-1.1-.779-2.577-.791-2.592l-.024-.032.182-1.455.186.024-.173,1.377c.182.232,1.211,1.615.807,2.741A2.24,2.24,0,0,1,1288.033,114.085Z" transform="translate(-319.263 -66.833)" fill="#ff6700"/><rect width="0.188" height="2.15" transform="matrix(0.296, -0.955, 0.955, 0.296, 972.036, 39.526)" fill="#00347e"/><rect width="2.127" height="0.188" transform="translate(966.024 39.088) rotate(-3.81)" fill="#00347e"/><path d="M1332.921,53.847l-.636,8.247a14.427,14.427,0,0,1,2.973-2.372c.92-.319.46-3.823.46-3.823l-1.522-1.911-.39-.46Z" transform="translate(-354.613 -22.79)" fill="#00457f"/><path d="M1251.338,33.64a12.718,12.718,0,0,0,6.019,2.337c2.937.212,5.732-1.027,8.388-2.23a3.716,3.716,0,0,1,1.38-.426,1.506,1.506,0,0,1,1.308.5,1.758,1.758,0,0,1,.285,1.062,4.529,4.529,0,0,1-2.479,4.071c0,.424-.034.884-.034,1.308a5.085,5.085,0,0,0,1.211-.494,6.772,6.772,0,0,0,2.547-2.549,8.272,8.272,0,0,0,.745-5.45,20.523,20.523,0,0,0-1.841-5.31,2.9,2.9,0,0,0-.605-.955,2.257,2.257,0,0,0-2.267-.39,9.69,9.69,0,0,0-2.123,1.1,4.233,4.233,0,0,1-2.23.777,4.488,4.488,0,0,1-1.211-.2q-1.169-.319-2.335-.743a7.573,7.573,0,0,0-1.522-.426,4.619,4.619,0,0,0-2.868.745,13.386,13.386,0,0,0-2.3,1.946c-.565.531-1.1,1.1-1.663,1.629a.658.658,0,0,0-.246.424.74.74,0,0,0,.141.39q.953,1.592,1.911,3.185" transform="translate(-288.533)" fill="#162457"/><path d="M1264.075,137.643s5.734-1.663,9.805,1.413l-2.727,1.276-2.725.706-3.044-.807Z" transform="translate(-300.17 -89.569)" fill="#162457"/><path d="M1260.195,101.084a3.509,3.509,0,0,1-.46-.03,3.663,3.663,0,0,1-2.452-1.4,3.57,3.57,0,0,1-.725-2.654h0a4.507,4.507,0,0,1,.145-.654l.03-.087,7.04.87.014.083a1.984,1.984,0,0,1,0,.674,3.655,3.655,0,0,1-1.4,2.448A3.58,3.58,0,0,1,1260.195,101.084Zm-3.415-4.055a3.352,3.352,0,0,0,.68,2.487,3.431,3.431,0,0,0,2.3,1.316,3.344,3.344,0,0,0,2.487-.682,3.43,3.43,0,0,0,1.316-2.3,1.808,1.808,0,0,0,.012-.523l-6.687-.834A4.57,4.57,0,0,0,1256.78,97.029Z" transform="translate(-294.147 -56.896)" fill="#fff"/><path d="M1299.263,105.9a3.313,3.313,0,0,1-.371-.022,3.251,3.251,0,0,1-2.188-1.255,3.647,3.647,0,0,1-.605-3.387l.028-.087,6.6.807v.1a3.816,3.816,0,0,1-.038.656A3.557,3.557,0,0,1,1299.263,105.9Zm-2.969-4.507a3.625,3.625,0,0,0-.109.5,3.5,3.5,0,0,0,.7,2.592,3.027,3.027,0,0,0,2.037,1.171,3.318,3.318,0,0,0,3.556-2.981,3.045,3.045,0,0,0,.034-.523Z" transform="translate(-325.588 -60.799)" fill="#fff"/><rect width="0.224" height="5.528" transform="translate(967.579 40.198) rotate(-83.01)" fill="#fff"/><path d="M1281.576,143.525a3.637,3.637,0,0,1-1.861-.648l.055-.077a3.32,3.32,0,0,0,2.19.593,1.785,1.785,0,0,0,1.175-.9l.081.046a1.869,1.869,0,0,1-1.237.941A1.96,1.96,0,0,1,1281.576,143.525Z" transform="translate(-312.654 -93.803)" fill="#fff"/><path d="M1239.583,52.411a3.349,3.349,0,0,0-.606,2.442,6.583,6.583,0,0,1,.1.807,4.7,4.7,0,0,1-.85,2.053,4.775,4.775,0,0,0-.495,1.841,4.013,4.013,0,0,1-.141,1.132c-.141.353-.426.708-.807.708.1-.531-.143-2.194-.605-2.442a1.225,1.225,0,0,0-1.663.565,5.431,5.431,0,0,0-.708-4.6,3.949,3.949,0,0,1-.807-1.592c-.141-1.1.92-1.911,1.841-2.479a1.8,1.8,0,0,1,1.592-.424,1.884,1.884,0,0,1,.709.605,6.884,6.884,0,0,0,2.442,1.7" transform="translate(-275.361 -20.256)" fill="#162457"/><g transform="translate(977.665 30.335)"><path d="M1351.421,71.781a22.206,22.206,0,0,1-2.063,6.11s6.193,2.008,9.688-1.009c0,0,3.182-11.359-1.59-18.767a13.607,13.607,0,0,0-10.224-6.523,11.774,11.774,0,0,0-8.471,2.177s-9.113,6.649-5.77,24.669l8.929.3,1.735-8.637Z" transform="translate(-1332.254 -51.534)" fill="#031f59"/></g><path d="M1355.458,101.235h0c-3.752.319-7.115-1.841-7.821-5.026l-2.9-13.166,18.165-2.826-.531,14.653C1362.29,98.155,1359.281,100.916,1355.458,101.235Z" transform="translate(-364.55 -44.093)" fill="#ffb38a"/><ellipse cx="2.654" cy="1.875" rx="2.654" ry="1.875" transform="matrix(0.146, -0.989, 0.989, 0.146, 995.781, 48.488)" fill="#ffb38a"/><ellipse cx="1.875" cy="2.654" rx="1.875" ry="2.654" transform="translate(979.182 45.484) rotate(-17.59)" fill="#ffb38a"/><ellipse cx="0.672" cy="0.85" rx="0.672" ry="0.85" transform="matrix(0.997, -0.08, 0.08, 0.997, 991.84, 45.849)" fill="#003c6f"/><ellipse cx="0.672" cy="0.85" rx="0.672" ry="0.85" transform="matrix(0.997, -0.08, 0.08, 0.997, 986.569, 45.921)" fill="#003c6f"/><path d="M1391.407,157.894a2.985,2.985,0,0,1-1.1-.236l.079-.172a2.407,2.407,0,0,0,1.627.109,1.32,1.32,0,0,0,.725-.807l.173.067a1.493,1.493,0,0,1-.827.906A1.765,1.765,0,0,1,1391.407,157.894Z" transform="translate(-400.923 -105.209)" fill="#00347e"/><path d="M1388.51,136.337l-1.027-.779a.618.618,0,0,1-.248-.478.7.7,0,0,1,.244-.551,2.982,2.982,0,0,0,.711-2.291l.188-.02a3.149,3.149,0,0,1-.775,2.452.507.507,0,0,0-.18.4.43.43,0,0,0,.174.337l1.027.779Z" transform="translate(-398.471 -85.598)" fill="#ff6700"/><path d="M1342.767,88.869a2.4,2.4,0,0,1,.2,2.16c-.246.706-.636,1.381-.85,2.123-.387,1.413-.618,1.08-.016,2.422-.605.256-1.183-.438-1.538-1.358-.175-.426.139-.111-.285-.323-.177-.071-.355-.107-.531-.178a2.061,2.061,0,0,1-.991-.92,5.924,5.924,0,0,1-.745-2.476,4.354,4.354,0,0,1,.606-2.265,2.035,2.035,0,0,1,2.2-1.027c.991.141,1.627,1.132,1.982,2.018" transform="translate(-359.186 -49.495)" fill="#162457"/><path d="M1353.568,75.424c1.344,2.053,3.964,2.9,6.406,3.007a14.813,14.813,0,0,1,4.529.355,21.211,21.211,0,0,1,2.8,1.485,3.905,3.905,0,0,0,3.044.46,10.554,10.554,0,0,0-.071-2.583,7.187,7.187,0,0,1-.248-2.442c.606-2.372-.353-2.372-1.31-2.937a2.829,2.829,0,0,0-1.1-.355,37.661,37.661,0,0,0-8.919-.743,7.676,7.676,0,0,0-3.47.708,4.3,4.3,0,0,0-2.018,2.442.7.7,0,0,0-.034.531.325.325,0,0,0,.46.176" transform="translate(-371.26 -37.252)" fill="#162457"/><circle cx="0.567" cy="0.567" r="0.567" transform="translate(998.235 47.938)" fill="#ff7434"/><circle cx="0.567" cy="0.567" r="0.567" transform="translate(980.925 49.319)" fill="#ff7434"/><path d="M1401.9,119.885a3.491,3.491,0,0,1,1.211-.248,1.4,1.4,0,0,1,.636.141,4.044,4.044,0,0,1,.567.285c-.2-.036-.39-.107-.605-.141a3.055,3.055,0,0,0-.605-.073C1402.71,119.815,1402.321,119.885,1401.9,119.885Z" transform="translate(-410.174 -75.556)" fill="#00447f"/><path d="M1373.168,121.356c-.426.034-.807.034-1.211.1a1.519,1.519,0,0,0-.567.178c-.177.071-.353.178-.565.248a6.351,6.351,0,0,1,.531-.355,1.767,1.767,0,0,1,.605-.212A2.32,2.32,0,0,1,1373.168,121.356Z" transform="translate(-385.375 -76.849)" fill="#00447f"/><path d="M1360.4,93.419a4.361,4.361,0,0,0,1.911,1.344,10.938,10.938,0,0,0,3.328.85c.92.107,1.875.071,2.759.248a6.911,6.911,0,0,1,2.975,1.344c.388.319.777.674,1.167,1.027a7.027,7.027,0,0,0,4.673,1.8,9.04,9.04,0,0,0-.39-1.946,5.538,5.538,0,0,0-.567-1.451,5.814,5.814,0,0,0-1.379-1.413,13.212,13.212,0,0,0-1.948-1.413,9.507,9.507,0,0,0-4.037-1.169,34.3,34.3,0,0,0-4.239.036l-3.893.212c-.355.036-.807.107-.92.46" transform="translate(-376.611 -53.974)" fill="#162457"/><path d="M1380.505,176.5a9.5,9.5,0,0,1,.39,4.317l6.862-1.522-.319-3.363Z" transform="translate(-393.101 -120.486)" fill="#ffb38a"/><path d="M1352.537,100.495s3.288-2.826,1.615-5.8l-2.317,1.027.143,2.624Z" transform="translate(-370.217 -55.651)" fill="#162457"/><path d="M1340.525,266.867s5.875-5.45,9.2-6.759l3.431,4.176,6.618,3.185,2.125,2.939a8.022,8.022,0,0,0,0,1.31,52.4,52.4,0,0,1-5.31,1.211l-7.962-.46Z" transform="translate(-361.19 -187.675)" fill="#0af"/><path d="M1386.872,329.842c-.034-.46-.1-.884-.141-1.344C1386.625,328.992,1386.944,330.409,1386.872,329.842Z" transform="translate(-398.053 -242.262)" fill="#ffbe53"/><path d="M1391.552,323.352c-.036-.46-.107-.884-.141-1.344C1391.269,322.539,1391.586,323.954,1391.552,323.352Z" transform="translate(-401.776 -237.082)" fill="#ffbe53"/><path d="M1389.648,199.384a22.313,22.313,0,0,0-.779-13.874c-2.477-6.087-7.787-9.627-12.671-9.769-4.989-.141-10.616,3.229-13.343,9.52a23,23,0,0,0-1.211,13.84C1367.279,201.225,1378.5,204.161,1389.648,199.384Z" transform="translate(-377.61 -120.333)" fill="#031f59"/><path d="M1406.978,232.458s3.187,3.229,2.337,13.591l-19.537.1s-1.877-12.282,1.381-16.387Z" transform="translate(-400.072 -163.459)" fill="#021333"/><path d="M1403.222,303.469c4.707,1.734,9.379,3.431,14.086,5.167a19.66,19.66,0,0,0,4.424,1.239,20.408,20.408,0,0,0,6.017-.426,3.707,3.707,0,0,0,1.38-.424c.886-.531,3.043-1.19,3.287-2.185.353-1.413,2.069-2.822,2.422-4.239.13-.376-3.116-1.263-3.2-1.652a2.065,2.065,0,0,0-.495-.777,8.747,8.747,0,0,0-9.238-2.267c-1.451.531-2.8,1.451-4.317,1.413a12.03,12.03,0,0,1-2.018-.319,16.505,16.505,0,0,0-5.734.424,18.477,18.477,0,0,0-3.928,1.1,6.065,6.065,0,0,0-2.973,2.654" transform="translate(-411.004 -217.451)" fill="#ffcdaa"/><path d="M1343.986,276.7c-1.451.708-1.77,2.725-1.346,4.283a2.809,2.809,0,0,0,.638,1.211,2.932,2.932,0,0,0,1.062.638c3.326,1.344,7.115.424,10.37-1.027s6.372-3.363,9.876-4.105a18.879,18.879,0,0,0,1.911-.46,9.054,9.054,0,0,0,2.053-1.169c2.018-1.451,3.927-3.149,6.229-4.105a11.272,11.272,0,0,1,5.7-.779c-.169-1.372.177-.08-.562-1.248-.09-.163-1.47.118-1.615,0-.213-.128-1.147.587-1.211-.807-1.946-.107-2.408-.692-4.037.4-1.629,1.062-3.618,1.406-5.388,2.219-2.476,1.169-5.308,1.31-8.033,1.558-5.557.458-11.186,1.274-16.316,3.5" transform="translate(-362.74 -194.674)" fill="#ffcdaa"/><path d="M1307.664,309.4a2.94,2.94,0,0,1-.807-1.911,7.636,7.636,0,0,1,.807-3.229" transform="translate(-334.311 -222.914)" fill="#ffc75c"/><path d="M1307.423,309.391a2.971,2.971,0,0,1-.828-1.942,7.33,7.33,0,0,1,.807-3.207l.014-.034.087.036-.014.034a7.484,7.484,0,0,0-.807,3.165,2.874,2.874,0,0,0,.807,1.881Z" transform="translate(-334.103 -222.875)" fill="#fca73b"/><ellipse cx="1.239" cy="1.734" rx="1.239" ry="1.734" transform="translate(988.571 68.008)" fill="#ffcdaa"/><ellipse cx="1.239" cy="1.734" rx="1.239" ry="1.734" transform="translate(1004.994 68.008)" fill="#ffcdaa"/><path d="M1409.942,197.148H1393.8v12.671a5.942,5.942,0,0,0,1.413,3.823h0a6.709,6.709,0,0,0,5.167,2.335h2.975a6.709,6.709,0,0,0,5.167-2.335h0a5.943,5.943,0,0,0,1.413-3.823Z" transform="translate(-403.709 -137.423)" fill="#ffcdaa"/><path d="M1386.556,193.877s.141-2.868,4.317-5.734a5.027,5.027,0,0,1,5.415-1.487l2.408,3.431,1.132.178,5.875,7.609-.141-8.679-1.665-3.4a12.067,12.067,0,0,0-2.654-1.379,34.016,34.016,0,0,1-4.212-1.736s-3.431.071-3.645,0-3.114.285-3.823.355a10.49,10.49,0,0,0-2.335.85s-1.734,2.583-2.194,2.018c-.214-.283-.319,3.009-.319,3.326S1386.556,193.877,1386.556,193.877Z" transform="translate(-396.461 -125.869)" fill="#031f59"/><path d="M1410.665,196.373a15.529,15.529,0,0,0,3.718,6.441l2.973-.141a6.77,6.77,0,0,1-1.24-2.866,6.073,6.073,0,0,0,2.335,2.866h1.558a14.447,14.447,0,0,1-1.211-2.335,9.845,9.845,0,0,0,2.406,2.335h2.406l-.605-4.458-2.547-2.053-2.9-2.055-3.044-.458-2.22,1.211Z" transform="translate(-417.174 -134.629)" fill="#031f59"/><path d="M1374.8,190.862l-1.7-1.806a.471.471,0,0,0-.779.178l-.807,2.937a.462.462,0,0,0,.605.567l2.477-.92,1.816,1.734a.466.466,0,0,0,.777-.2l.807-2.654a.48.48,0,0,0-.567-.605Z" transform="translate(-385.909 -130.853)" fill="#0af"/><path d="M1385.264,198.73l-.141-.036a.375.375,0,0,1-.288-.446l0-.014.214-.848a.375.375,0,0,1,.446-.288l.014,0,.141.036a.376.376,0,0,1,.286.448l0,.013-.2.85A.458.458,0,0,1,1385.264,198.73Z" transform="translate(-396.55 -137.376)" fill="#0061bc"/><path d="M1431.078,258.444l-.073-.119.283-.178a.862.862,0,0,1,1.035.038l.178.143-.087.109-.178-.141a.727.727,0,0,0-.87-.034Z" transform="translate(-433.408 -185.987)" fill="#ed9232"/><ellipse cx="1.451" cy="0.991" rx="1.451" ry="0.991" transform="translate(1002.092 72.433)" fill="#ff9c5d"/><ellipse cx="1.451" cy="0.991" rx="1.451" ry="0.991" transform="translate(991.758 72.433)" fill="#ff9c5d"/><path d="M1434.549,267.363a2.523,2.523,0,0,1-.924-.174l.077-.172a2.034,2.034,0,0,0,2.571-.85l.16.1A2.147,2.147,0,0,1,1434.549,267.363Z" transform="translate(-435.499 -192.512)" fill="#00347e"/><circle cx="3.326" cy="3.326" r="3.326" transform="translate(991.086 66.309)" fill="#ffecd3"/><path d="M1401.88,236.277a3.375,3.375,0,1,1,3.375-3.375h0A3.377,3.377,0,0,1,1401.88,236.277Zm0-6.66a3.282,3.282,0,1,0,3.28,3.284v0a3.284,3.284,0,0,0-3.28-3.274Z" transform="translate(-407.468 -163.267)" fill="#00457f"/><circle cx="3.326" cy="3.326" r="3.326" transform="translate(998.765 66.309)" fill="#ffecd3"/><path d="M1439.93,236.277a3.375,3.375,0,1,1,3.375-3.375h0A3.379,3.379,0,0,1,1439.93,236.277Zm0-6.66a3.282,3.282,0,1,0,3.282,3.282v0a3.284,3.284,0,0,0-3.282-3.274Z" transform="translate(-437.838 -163.267)" fill="#00457f"/><path d="M1416.211,246.961a.852.852,0,0,0-.83-.636.822.822,0,0,0-.763.543l-.174-.071a1.009,1.009,0,0,1,.936-.66,1.037,1.037,0,0,1,1.009.779Z" transform="translate(-420.191 -176.525)" fill="#00347e"/><path d="M1446.551,246.961a.851.851,0,0,0-.829-.636.82.82,0,0,0-.763.543l-.173-.071a1.009,1.009,0,0,1,.937-.66,1.037,1.037,0,0,1,1.009.779Z" transform="translate(-444.407 -176.525)" fill="#00347e"/><path d="M1411.33,240.782l-.145-.119a1.516,1.516,0,0,1,2.018-.416l-.075.172A1.326,1.326,0,0,0,1411.33,240.782Z" transform="translate(-417.589 -171.653)" fill="#00347e"/><path d="M1447.813,240.577a1.352,1.352,0,0,0-1.839-.3l-.079-.17a1.525,1.525,0,0,1,2.055.341Z" transform="translate(-445.293 -171.513)" fill="#00347e"/><path d="M1432.7,246.609a.879.879,0,0,0-1.169,0" transform="translate(-433.831 -176.725)" fill="#ffd9a3"/><path d="M1431.41,246.374l-.085-.113a.955.955,0,0,1,1.26,0l-.1.1A.813.813,0,0,0,1431.41,246.374Z" transform="translate(-433.664 -176.434)" fill="#00457f"/><path d="M1312.338,275.514l1.592-1.276a4.239,4.239,0,0,1,4.176-.672l5.381,1.982,3.928,2.23s1.875,2.22,2.761,2.442c0,0,.1,1.413-1.7.92l1.027,1.77.071,1.77a1.1,1.1,0,0,1-1.663.531s-.745,2.335-2.16,1.132c0,0-1.274,1.875-2.22,0,0,0-.283,1.025-1.7.353l-3.336-3.088a12.931,12.931,0,0,1-2.973-3.219,3.616,3.616,0,0,0-1.1,3.928s-.884,1.274-1.556,1.274a8.378,8.378,0,0,0-3.893.285l-1.239-.531-.531-5.133Z" transform="translate(-334.595 -198.197)" fill="#ffb38a"/><path d="M1324.229,286.934h-.053a1.234,1.234,0,0,1-.943-.741.9.9,0,0,1-.424.4,1.556,1.556,0,0,1-1.314-.145l-.016-.012-3.328-3.08a13.163,13.163,0,0,1-2.949-3.161,3.564,3.564,0,0,0-1.009,3.794l.012.034-.02.028c-.036.052-.914,1.3-1.615,1.3a8.483,8.483,0,0,0-3.869.279h-.026l-1.3-.557-.537-5.209.024-.024,5.137-4.711,1.593-1.274a4.321,4.321,0,0,1,4.238-.682l5.381,1.982,3.958,2.25c.018.022,1.871,2.22,2.723,2.422l.051.012v.05a1.11,1.11,0,0,1-.353.874,1.443,1.443,0,0,1-1.272.161l.951,1.657.073,1.786v.016a1.526,1.526,0,0,1-.807.769,1.071,1.071,0,0,1-.876-.159c-.107.291-.492,1.211-1.165,1.413a1.112,1.112,0,0,1-1.019-.279A1.872,1.872,0,0,1,1324.229,286.934Zm-1.021-1.1.081.159c.258.5.559.773.9.793h.044c.605,0,1.162-.8,1.169-.807l.044-.065.059.05a1.021,1.021,0,0,0,.948.3c.711-.2,1.094-1.387,1.1-1.4l.028-.089.079.052a.987.987,0,0,0,.836.19,1.335,1.335,0,0,0,.719-.678l-.071-1.734-1.1-1.9.165.044a1.442,1.442,0,0,0,1.31-.091.949.949,0,0,0,.3-.706c-.892-.277-2.588-2.265-2.739-2.442l-3.918-2.22-5.369-1.976a4.186,4.186,0,0,0-4.107.66l-1.592,1.274-5.1,4.683.525,5.046,1.173.5a8.529,8.529,0,0,1,3.905-.277c.563,0,1.334-1.031,1.467-1.211a3.715,3.715,0,0,1,1.132-3.972l.069-.052.036.079a12.964,12.964,0,0,0,2.953,3.2l3.324,3.086a1.43,1.43,0,0,0,1.183.143.793.793,0,0,0,.4-.458Z" transform="translate(-334.3 -197.888)" fill="#e57d59"/><path d="M1401.651,316.63h-.139V315.8l-2.006-3.028.117-.077,2.028,3.062Z" transform="translate(-408.266 -229.651)" fill="#e57d59"/><path d="M1392.742,324.074l-.137-.028.172-.89-1.681-2.489.115-.079,1.716,2.537Z" transform="translate(-401.554 -235.949)" fill="#e57d59"/><path d="M1381.706,328.094l-.034-.65-1.437-1.716.109-.091,1.465,1.754.036.694Z" transform="translate(-392.885 -239.979)" fill="#e57d59"/><rect width="0.092" height="2.666" transform="translate(990.441 81.311) rotate(-36.409)" fill="#fca73b"/><path d="M1348.084,303.137a2.747,2.747,0,0,1-.188-1.9l.135.03a2.7,2.7,0,0,0,.165,1.782Z" transform="translate(-367.002 -220.504)" fill="#e57d59"/><path d="M1343.955,304.28a1.211,1.211,0,0,1-.88-.434.892.892,0,0,1-.151-.648l.093.018a.8.8,0,0,0,.135.575,1.119,1.119,0,0,0,.807.4Z" transform="translate(-363.096 -222.068)" fill="#fca73b"/><path d="M1319.3,311.116c.672,0,1.556-1.274,1.556-1.274a3.731,3.731,0,0,1,1.027-3.893.605.605,0,0,0-.355-.1h.319a1.88,1.88,0,0,1-1.025-.5c-.672.779-1.31,1.558-1.982,2.3a3.986,3.986,0,0,1-.957.92c-.212.141-.46.248-.672.39a2.976,2.976,0,0,0-.495.46c-.355.39-.745.777-1.1,1.167a1.359,1.359,0,0,0-.319.46,1.135,1.135,0,0,0-.034.355l.1.034A7.774,7.774,0,0,1,1319.3,311.116Z" transform="translate(-341.028 -223.784)" fill="#ea9f78"/><path d="M1405.935,302.188s1.734,2.2,3.007,1.413c0,0-.283,1.167-1.734.495Z" transform="translate(-413.398 -221.262)" fill="#ea9f78"/><path d="M1516.27,354.142a4.816,4.816,0,0,1-2.145-.573l.073-.121c.02.012,2.035,1.169,3.6.109l.079.115A2.825,2.825,0,0,1,1516.27,354.142Z" transform="translate(-499.752 -262.176)" fill="#ed9232"/><path d="M1469.727,270.959s-.807-3.185-7.646-3.54a23.491,23.491,0,0,1-6.124-1.627,5.988,5.988,0,0,0-5.769,1.167l-4.283,3.647s-2.3,3.361-4.844,3.928c0,0-.355,1.488,1.556,1.027l-.672,1.062a7.114,7.114,0,0,0-.884,2.158l-.218,1.033a1.486,1.486,0,0,0,.073,1.169c.246.388.92.531,1.7-.319,0,0,.248,2.372,2.2.353l.605-.991-.248,1.344a1.274,1.274,0,0,0,.2.886c.283.353.779.605,1.593-.426l2.089-3.928-.957,2.9s-1.025,1.274-.495,1.77c0,0,.743.807,2.3-1.027l1.451-2.725a41.929,41.929,0,0,0,3.823-6.055l.92-.176a8.128,8.128,0,0,0,3.574,1.909s1.982.745,2.123,1.841a4.962,4.962,0,0,0,4.495-1.451s2.9-2.654,3.857-2.826Z" transform="translate(-441.195 -191.979)" fill="#ffb38a"/><path d="M1447.833,282.6a.766.766,0,0,1-.551-.2c-.547-.511.38-1.718.484-1.851l.7-2.109-1.7,3.2q-.606.769-1.106.769h0a.773.773,0,0,1-.605-.333,1.347,1.347,0,0,1-.228-.937l.18-.975-.4.664c-.658.686-1.2.953-1.615.807-.462-.159-.63-.767-.682-1.048a1.517,1.517,0,0,1-1.142.541.741.741,0,0,1-.569-.337,1.548,1.548,0,0,1-.079-1.225l.2-1.021a7.172,7.172,0,0,1,.894-2.182l.581-.92a1.363,1.363,0,0,1-1.259-.2,1.084,1.084,0,0,1-.216-.945v-.042h.042c2.493-.553,4.783-3.867,4.806-3.9l.014-.014,4.283-3.645a6.108,6.108,0,0,1,5.841-1.179,23.217,23.217,0,0,0,6.1,1.615c6.739.349,7.656,3.4,7.7,3.587l.454,1.173-.083.016c-.926.172-3.794,2.787-3.825,2.814a5.081,5.081,0,0,1-4.562,1.467l-.044-.012v-.046c-.133-1.043-2.059-1.776-2.079-1.784a8.35,8.35,0,0,1-3.572-1.9l-.846.164a42.562,42.562,0,0,1-3.817,6.033l-1.447,2.715a2.828,2.828,0,0,1-1.845,1.243Zm.89-4.953.129.054-.969,2.925c-.272.339-.9,1.3-.5,1.673a.633.633,0,0,0,.472.161c.339-.01.914-.222,1.726-1.181l1.443-2.713a41.872,41.872,0,0,0,3.819-6.055l.014-.034,1-.192.026.028a8.026,8.026,0,0,0,3.542,1.891c.087.032,1.974.751,2.168,1.851a4.989,4.989,0,0,0,4.384-1.445c.117-.107,2.781-2.535,3.813-2.826l-.4-1.029c0-.032-.89-3.141-7.581-3.488a23.519,23.519,0,0,1-6.15-1.635,5.972,5.972,0,0,0-5.7,1.161l-4.273,3.633c-.127.182-2.372,3.359-4.844,3.94a.919.919,0,0,0,.186.771c.238.234.672.279,1.294.129l.17-.04-.767,1.211a7.061,7.061,0,0,0-.866,2.15l-.2,1.025a1.442,1.442,0,0,0,.058,1.114.606.606,0,0,0,.464.274,1.475,1.475,0,0,0,1.126-.605l.1-.115.016.155c0,.01.1.9.606,1.074.365.125.856-.131,1.465-.761l.789-1.306-.317,1.722a1.212,1.212,0,0,0,.2.832.627.627,0,0,0,.49.276h0c.286,0,.62-.236.991-.7Z" transform="translate(-440.924 -191.758)" fill="#e57d59"/><path d="M1449.756,321.309l-.131-.052.85-2.089,1.6-2.769.121.071-1.593,2.759Z" transform="translate(-448.27 -232.604)" fill="#e57d59"/><rect width="3.895" height="0.139" transform="translate(1003.805 88.578) rotate(-61.83)" fill="#e57d59"/><path d="M1513.23,293.778a2.88,2.88,0,0,1-1.025,1.556" transform="translate(-498.22 -214.55)" fill="#ffc75c"/><path d="M1512.068,295.347l-.093-.1a2.906,2.906,0,0,0,1.009-1.514l.139.02A2.977,2.977,0,0,1,1512.068,295.347Z" transform="translate(-498.036 -214.51)" fill="#e57d59"/><rect width="3.534" height="0.093" transform="translate(1001.386 83.597) rotate(-55.19)" fill="#ed9232"/><path d="M1442.235,307.395a2.512,2.512,0,0,0,2.866-1.167l-1.273,1.841C1443.791,308.1,1442.554,308.529,1442.235,307.395Z" transform="translate(-442.372 -224.487)" fill="#ea9f78"/><path d="M1384,182.951a8.385,8.385,0,0,1-2.388-.379l.046-.133a7.567,7.567,0,0,0,3.326.281l.026.139A5.184,5.184,0,0,1,1384,182.951Z" transform="translate(-393.987 -125.682)" fill="#e57d59"/><path d="M1111.121,292.625l-4.886,5.558,8.035,1.062,5.026-3.681-1.768-2.866-2.2-.85h-2.583Z" transform="translate(-174.188 -213.009)" fill="#ffb38a"/><path d="M1113.74,299.062h-.028l-8.166-1.078,4.993-5.672,1.659-.785h2.61l2.22.858,1.816,2.943Zm-7.914-1.187,7.872,1.039,4.951-3.633-1.724-2.791-2.16-.836h-2.555l-1.6.765Z" transform="translate(-173.637 -212.754)" fill="#e57d59"/><path d="M1145.282,244.487c1.025.5,5.5,2.412,6.56,2.945a9.4,9.4,0,0,1,2.491,1.512,6.91,6.91,0,0,1,1.845,2.929,7.727,7.727,0,0,1,.565,1.948c.071.531,0,1.062.107,1.592a12.184,12.184,0,0,0,.565,1.592,1.677,1.677,0,0,1-.246,1.592c.1-1.556-1.239-2.826-2.549-3.716a8.879,8.879,0,0,0-2.937-1.346c-1.134-.317-2.055.178-3.116.708-1.556.743-2.335,2.973-3.823,3.859-.848.494-2.477-.531-3.431-.355-4.105.779-8.679,1.169-12.245-1.025a12.892,12.892,0,0,1-1.132-.779c-.355-.248-.708-.5-1.062-.708a20.906,20.906,0,0,0-4.238-1.77c-1.379-.46-3.078-.807-4.105.178a4.076,4.076,0,0,0-.92,2.018,2.053,2.053,0,0,1,.5-3.116c.282-.141.605-.2.884-.353a12.553,12.553,0,0,0,3.048-2.624,9.948,9.948,0,0,1,2.809-1.857c2.055-.991,5.583-2.17,7.6-3.229,1.841-.955,1.443-2.1,3.5-2.17a60.77,60.77,0,0,1,7.185.353,7.474,7.474,0,0,1,2.973.708c1.025.605-.426.719.672,1.108" transform="translate(-182.859 -173.459)" fill="#0af"/><path d="M1121.675,264.683s6.963-6.144,12.486-7.135l-3.673,4.2-2.018,1.877-1.211.884Z" transform="translate(-186.512 -185.632)" fill="#0af"/><path d="M1198.655,273.258a8.724,8.724,0,0,0,1.482,3.606c1.211,1.615,6.459,1.615,7.67.807a4.8,4.8,0,0,0,1.608-2.643Z" transform="translate(-247.954 -198.171)" fill="#e8bb9b"/><path d="M1259.155,299.965a4.484,4.484,0,0,1,1.1-1.451,6.406,6.406,0,0,1,4.884-1.7,6.717,6.717,0,0,1,4.317,2.727,2.627,2.627,0,0,1,.282.388l.531.807a7.527,7.527,0,0,1,.214,1.31" transform="translate(-296.243 -216.95)" fill="#ffcdaa"/><path d="M1269.685,314.627c.036.848-.141,1.381-.2,2.759a3.724,3.724,0,0,1-.92,2.585,2.249,2.249,0,0,1-1.558.388,10.93,10.93,0,0,1-6.8-2.9c-1.167-.993-2.335-2.478-2.053-4.142a2.857,2.857,0,0,1,.248-.779" transform="translate(-295.412 -229.523)" fill="#ffcdaa"/><path d="M1266.922,320.358h-.246a10.891,10.891,0,0,1-6.836-2.919c-.912-.773-2.394-2.347-2.077-4.206a2.9,2.9,0,0,1,.252-.8l.129.056a2.785,2.785,0,0,0-.242.759c-.3,1.792,1.14,3.324,2.018,4.079a10.762,10.762,0,0,0,6.751,2.886,2.152,2.152,0,0,0,1.514-.375,3.687,3.687,0,0,0,.892-2.533c.032-.628.087-1.074.133-1.467a7.463,7.463,0,0,0,.079-1.286h.141a7.512,7.512,0,0,1-.081,1.31c-.046.392-.1.834-.131,1.457a3.8,3.8,0,0,1-.947,2.634A2.145,2.145,0,0,1,1266.922,320.358Z" transform="translate(-295.097 -229.443)" fill="#e57d59"/><path d="M1164.532,291.9l-.137-.026c.585-3.064-2.339-4.582-2.37-4.6l.063-.125C1162.118,287.164,1165.137,288.73,1164.532,291.9Z" transform="translate(-218.718 -209.258)" fill="#0061bc"/><path d="M1173.92,293.408l-.125-.065c1.308-2.614.091-4.226.079-4.238l.109-.087C1174,289.03,1175.264,290.713,1173.92,293.408Z" transform="translate(-228.112 -210.75)" fill="#0061bc"/><path d="M1258.8,293.657a4.711,4.711,0,0,1,2.979-4.238l.058.127a4.568,4.568,0,0,0-2.9,4.109Z" transform="translate(-295.962 -211.07)" fill="#0061bc"/><path d="M1256.64,293.646a3.645,3.645,0,0,1,1.263-4.188l.081.115a3.5,3.5,0,0,0-1.211,4.023Z" transform="translate(-294.041 -211.102)" fill="#0061bc"/><path d="M1002.014,314.729c-.044-.052-4.418-5.248-8.9-4.652l-.014-.111c4.541-.606,8.961,4.642,9.006,4.691Z" transform="translate(-83.883 -227.431)" fill="#0061bc"/><path d="M1508.869,313.5a3.436,3.436,0,0,0-2.624-1.693l.012-.139a3.589,3.589,0,0,1,2.749,1.774Z" transform="translate(-493.462 -228.829)" fill="#ed9232"/><path d="M1015.815,275.007s2.783-9.174,10.536-6.34a15.786,15.786,0,0,1,7.716,7.246" transform="translate(-102.018 -194.073)" fill="#132787"/><path d="M990.535,250.928s5.982,4.844,4.743,11.963" transform="translate(-81.84 -180.348)" fill="#d3e2f4"/><path d="M986.344,273.318h-.375c.034-6.334-6.7-8.679-6.774-8.705l.119-.355C979.385,264.29,986.378,266.712,986.344,273.318Z" transform="translate(-72.789 -190.988)" fill="#d3e2f4"/><path d="M1233.726,125.248s-3.363,7.256.605,12.637" transform="translate(-274.885 -80.035)" fill="#1c5cc1"/><path d="M1690.791,223.808c-.141.141-.285.246-.426.39h0Z" transform="translate(-640.421 -158.702)" fill="#0af"/><path d="M1530.445,300.848s.112-18.972,16.1-15.268" transform="translate(-512.778 -207.623)" fill="#d3e2f4"/><path d="M1441.455,351.767s12.033-2.267,19.36,3.574" transform="translate(-441.749 -260.489)" fill="#d3e2f4"/><path d="M1460.562,354.791c-7.175-5.72-19.089-3.558-19.208-3.536l-.069-.367c.121-.024,12.2-2.22,19.511,3.611Z" transform="translate(-441.613 -259.793)" fill="#d3e2f4"/><path d="M1124.792,312.827c.807-1.132,2.3-1.485,3.647-1.734l4.458-.85a3.027,3.027,0,0,1,1.132-.071c.319.071.605.248.92.319a4.56,4.56,0,0,0,1.558.1c6.937-.424,14.193-1.211,20.563,1.558,1.169.5,2.479,1.488,2.22,2.761-.178.991-1.211,1.522-2.16,1.841a15.931,15.931,0,0,1-3.431.706,31.71,31.71,0,0,1-4.105-.034l-14.53-.745a15.126,15.126,0,0,1-3.574-.5c-2.408-.779-4.319-2.9-6.8-3.256" transform="translate(-188.922 -227.616)" fill="#ffcdaa"/><path d="M1152.141,317.3c-.874,0-1.754-.044-2.624-.089l-14.546-.745a15.241,15.241,0,0,1-3.59-.5,13.751,13.751,0,0,1-2.983-1.542,10.173,10.173,0,0,0-3.8-1.712l.02-.139a10.248,10.248,0,0,1,3.857,1.732,13.727,13.727,0,0,0,2.949,1.528,15.286,15.286,0,0,0,3.558.492l14.546.743a31.891,31.891,0,0,0,4.1.036,15.941,15.941,0,0,0,3.417-.7c1.282-.428,1.972-1.009,2.111-1.786.232-1.2-.979-2.172-2.188-2.684-5.8-2.513-12.362-2.083-18.708-1.669-.605.04-1.211.081-1.816.117a4.64,4.64,0,0,1-1.581-.109,2.727,2.727,0,0,1-.468-.161,2.745,2.745,0,0,0-.448-.155,2.979,2.979,0,0,0-1.1.071l-4.46.85c-1.324.244-2.8.605-3.6,1.707l-.115-.083c.828-1.15,2.339-1.514,3.69-1.762l4.461-.85a3.083,3.083,0,0,1,1.158-.071,2.786,2.786,0,0,1,.474.164,2.731,2.731,0,0,0,.448.155,4.577,4.577,0,0,0,1.538.1l1.817-.117c6.364-.416,12.944-.846,18.771,1.679,1.261.535,2.519,1.562,2.271,2.838-.147.83-.87,1.449-2.206,1.9a15.979,15.979,0,0,1-3.448.71C1153.15,317.285,1152.64,317.3,1152.141,317.3Z" transform="translate(-188.842 -227.331)" fill="#e57d59"/><path d="M1166.384,317.411s10.124.036,12.281-.884l4.642-2.479,2.826-.46a5.548,5.548,0,0,0,2.125,1.276.513.513,0,0,1,.283.807c-.319.319-.92.531-2.123.071l-1.451.46,3.431,1.211s2.335.92.743,2.22a1.134,1.134,0,0,1,.248,1.451s-.2.92-2.22.353c0,0,1.062.5.672,1.381,0,0-.248,1.169-1.946.319,0,0-1.062,1.911-2.727,1.274l-3.4-1.344a4.038,4.038,0,0,0-2.22-.248l-13.523,2.089a35.594,35.594,0,0,1-3.114-2.337c0-.178-.565-3.256-.46-3.538a10.708,10.708,0,0,1,.779-1.413A43.717,43.717,0,0,1,1166.384,317.411Z" transform="translate(-217.453 -230.361)" fill="#ffcdaa"/><path d="M1163.69,324.692l-.022-.016a21.764,21.764,0,0,1-3.146-2.394c0-.046-.059-.4-.119-.789a15.8,15.8,0,0,1-.335-2.773,10.465,10.465,0,0,1,.793-1.441,33.2,33.2,0,0,1,5.217-.234h0c.1,0,10.134.026,12.255-.878l4.642-2.483,2.866-.466.026.026a5.562,5.562,0,0,0,2.093,1.255.638.638,0,0,1,.428.426.525.525,0,0,1-.111.5c-.444.444-1.177.476-2.178.1l-1.227.39,3.229,1.132c.052.02,1.211.488,1.336,1.253a1.165,1.165,0,0,1-.507,1.043,1.239,1.239,0,0,1,.2,1.479h0a.718.718,0,0,1-.343.4,2.269,2.269,0,0,1-1.574.095,1.025,1.025,0,0,1,.359,1.243.9.9,0,0,1-.472.571,1.772,1.772,0,0,1-1.512-.19c-.2.319-1.245,1.835-2.777,1.249l-3.381-1.354a3.935,3.935,0,0,0-2.19-.244Zm-3.027-2.422a33.459,33.459,0,0,0,3.062,2.275l13.489-2.083a4.039,4.039,0,0,1,2.267.252l3.4,1.344c1.588.606,2.624-1.225,2.638-1.243l.032-.059.061.03a1.7,1.7,0,0,0,1.445.218.777.777,0,0,0,.4-.488c.361-.826-.593-1.284-.634-1.3l.048-.131a2.421,2.421,0,0,0,1.863.016.587.587,0,0,0,.28-.319,1.07,1.07,0,0,0-.22-1.376l-.077-.055.073-.059a1.075,1.075,0,0,0,.523-.967c-.109-.686-1.235-1.138-1.247-1.144l-3.633-1.272,1.675-.531h.022c.957.367,1.647.349,2.049-.055a.382.382,0,0,0,.079-.367.493.493,0,0,0-.331-.329,5.5,5.5,0,0,1-2.127-1.268l-2.785.454-4.624,2.472c-2.154.918-11.908.9-12.312.894a40.929,40.929,0,0,0-5.116.19,10.7,10.7,0,0,0-.765,1.395,19.028,19.028,0,0,0,.343,2.7C1160.612,321.937,1160.663,322.194,1160.663,322.27Z" transform="translate(-217.143 -230.066)" fill="#e57d59"/><line x2="1.415" y2="0.317" transform="translate(970.238 88.926)" fill="none"/><rect width="0.141" height="1.451" transform="translate(970.226 88.996) rotate(-77.32)" fill="#e57d59"/><path d="M1280.275,322.538s-.779.565.034.777" transform="translate(-312.832 -237.505)" fill="#ffb38a"/><path d="M1280.013,323.152c-.248-.065-.39-.174-.418-.321-.052-.275.317-.551.359-.583l.083.115c-.089.065-.335.285-.3.442.022.113.184.178.317.2Z" transform="translate(-312.554 -237.273)" fill="#e57d59"/><path d="M1289.5,322.538s.2.141-.353.317" transform="translate(-320.18 -237.505)" fill="#ffb38a"/><path d="M1289.078,322.662l-.042-.135c.329-.1.345-.18.345-.182l.069-.127a.153.153,0,0,1,.068.147C1289.5,322.484,1289.362,322.579,1289.078,322.662Z" transform="translate(-320.093 -237.249)" fill="#e57d59"/><path d="M1040.713,294.948l7.22-.565s4.037,1.982,7.5,1.169a.648.648,0,0,1,.743.388c.355.886.39,2.69-5.651,2.3a12.206,12.206,0,0,0,5.131,1.239l5.7,1.274s2.087,1.594-.567,2.372l-8.849-.743,7.008,2.018a1.8,1.8,0,0,1,1.132.884,1,1,0,0,1-.46,1.522,2.4,2.4,0,0,1-1.413.178l-1.381-.212s-.92,1.592-6.124.777l-.85.638a2.53,2.53,0,0,1-2.018.424l-3.681-.807a15.864,15.864,0,0,1-6.37-4.354l-1.413-.319s-6.725-.071-10.653-3.185l-4.105-4.212s.605-7.149,6.971-6.37a10.944,10.944,0,0,1,5.875,3.363,6.168,6.168,0,0,0,2.9,1.911A6.416,6.416,0,0,0,1040.713,294.948Z" transform="translate(-106.647 -210.979)" fill="#ffaf97"/><path d="M1145.175,376.9s2.194.424,4.14.636" transform="translate(-205.268 -280.893)" fill="#ffcdaa"/><path d="M1158.325,368.477h.565a4.456,4.456,0,0,1,1.169.141l3.363.779,2.476.638" transform="translate(-215.764 -274.171)" fill="#ff6700" opacity="0.32"/><path d="M1156.915,325.77c.567.991,3.046,1.8,3.046,1.8h.317a12.179,12.179,0,0,1-1.768-.672c4.884.283,5.8-.807,5.8-1.734C1161.482,326.9,1156.915,325.77,1156.915,325.77Z" transform="translate(-214.639 -239.604)" fill="#ff6700" opacity="0.32"/><path d="M978.963,303.16a9.352,9.352,0,0,0-4.884-1.025l-2.624,2.624c1.7-.176,4.14.957,5.7,1.592a24.075,24.075,0,0,1,4.46,2.515c1.556,1.025,2.791,2.184,4.642,1.972C983.648,305.46,980.592,303.761,978.963,303.16Z" transform="translate(-66.611 -221.204)" fill="#d3e2f4"/><path d="M1198.568,186.168c.081,5.209-4.5,9.452-10.092,9.452s-10.092-4.216-10.092-9.452,4.5-9.45,10.092-9.45A9.836,9.836,0,0,1,1198.568,186.168Z" transform="translate(-231.776 -121.116)" fill="#031f59"/><ellipse cx="1.451" cy="1.463" rx="1.451" ry="1.463" transform="translate(962.011 67.252)" fill="#ffcdaa"/><path d="M1255.771,237.156a1.534,1.534,0,1,1,1.522-1.546v.012A1.53,1.53,0,0,1,1255.771,237.156Zm0-2.927a1.395,1.395,0,1,0,1.383,1.407v-.014A1.389,1.389,0,0,0,1255.771,234.23Z" transform="translate(-292.308 -166.908)" fill="#e57d59"/><ellipse cx="1.451" cy="1.463" rx="1.451" ry="1.463" transform="translate(948.125 67.252)" fill="#ffcdaa"/><path d="M1186.961,237.156a1.534,1.534,0,1,1,1.522-1.546v.012A1.53,1.53,0,0,1,1186.961,237.156Zm0-2.927a1.395,1.395,0,1,0,1.38,1.409v-.016A1.389,1.389,0,0,0,1186.961,234.23Z" transform="translate(-237.386 -166.908)" fill="#e57d59"/><path d="M1204.819,186.461l-6.547-1.253-7.506,2.422.569,11.85a8.157,8.157,0,0,0,1.211,4.317h0a5.346,5.346,0,0,0,4.44,2.624l.186.052a3.987,3.987,0,0,0,2.355-.052h0a5.347,5.347,0,0,0,4.44-2.624h0a8.157,8.157,0,0,0,1.211-4.317l.831-11.474Z" transform="translate(-241.657 -127.893)" fill="#ffcdaa"/><path d="M1197.992,206.308a4.088,4.088,0,0,1-1.112-.155l-.178-.05a5.378,5.378,0,0,1-4.5-2.652,8.277,8.277,0,0,1-1.223-4.356l-.573-11.908.05-.016,7.522-2.422H1198l6.576,1.257.016.02,1.233,1.558v.026l-.832,11.474a8.276,8.276,0,0,1-1.223,4.352,5.46,5.46,0,0,1-4.5,2.652A4.047,4.047,0,0,1,1197.992,206.308Zm-7.442-19,.567,11.8a8.136,8.136,0,0,0,1.211,4.285,5.241,5.241,0,0,0,4.392,2.585h.018l.188.055a3.919,3.919,0,0,0,2.315-.052h.02a5.318,5.318,0,0,0,4.392-2.587,8.118,8.118,0,0,0,1.211-4.279l.83-11.452-1.185-1.5L1198,184.916Z" transform="translate(-241.369 -127.526)" fill="#e57d59"/><path d="M1224.785,253.751a.958.958,0,0,1,1.77.034" transform="translate(-268.811 -182.12)" fill="#ffcdaa"/><path d="M1226.281,253.545c-.262-.4-.539-.605-.823-.605h0c-.47,0-.819.563-.821.569l-.121-.073a1.334,1.334,0,0,1,.941-.638h0a1.194,1.194,0,0,1,.94.672Z" transform="translate(-268.595 -181.841)" fill="#e57d59"/><path d="M1241.663,236.333a2.477,2.477,0,0,0-1.905-.283l-.073-.172a2.612,2.612,0,0,1,2.061.285Z" transform="translate(-280.703 -168.262)" fill="#00347e"/><path d="M1209.958,235.736l-.083-.17a2.654,2.654,0,0,1,2.061-.285l-.075.172.036-.085-.036.085A2.507,2.507,0,0,0,1209.958,235.736Z" transform="translate(-256.91 -167.788)" fill="#00347e"/><ellipse cx="0.494" cy="0.634" rx="0.494" ry="0.634" transform="translate(953.942 68.989)" fill="#00347e"/><ellipse cx="0.494" cy="0.634" rx="0.494" ry="0.634" transform="translate(958.952 68.927)" fill="#00347e"/><path d="M1224.164,265.415a2.767,2.767,0,0,1-1.189-.3l.093-.163a1.891,1.891,0,0,0,2.291-.264l.141.123A1.711,1.711,0,0,1,1224.164,265.415Z" transform="translate(-267.366 -191.331)" fill="#00347e"/><path d="M1181.167,190.544s8.249.495,13.071-5.623c0,0,.688,6.257,4.539,5.308l.275-4.779-.527-2.23-2.727-2.688-5.375-1.853-3.524.644-4.017,2.129s-.486-.212-1.5,1.556c-1.413,2.475-1.187,3.647-1.187,3.647Z" transform="translate(-233.207 -122.681)" fill="#162457"/><path d="M1195.142,174.284s-3.08-5.082-10.679-2.329a9.516,9.516,0,0,0-5.508,8.307l9.688-.248L1192,178.5Z" transform="translate(-232.23 -116.662)" fill="#031f59"/><path d="M1256.735,185.358s6.953,1.05,4.372,10.15a10.9,10.9,0,0,1-2.24,3.532l.04-.606s.658-1.078.759-1.344.5-1.574.5-1.574l.176-1.187-1.13-4.293Z" transform="translate(-294.312 -128.012)" fill="#031f59"/><path d="M1354.075,57.368s4.093-8.994,15.68-4.491c0,0,9.735,6.51,7.313,17.409l-2.819-6.32-8.988-3.258Z" transform="translate(-372.005 -21.263)" fill="#162457"/><path d="M1532.565,294.012c2.51-5.037,1.742-5.074,3.317-6.853,2.362-2.624,6.827-4.673,13-3.392C1548.885,283.767,1539.717,284.737,1532.565,294.012Z" transform="translate(-514.47 -206.246)" fill="#a5caef"/><path d="M983.735,307.863c-2.421-4.859-2.023-4.114-3.542-5.83a12.346,12.346,0,0,0-12.2-4.054S976.835,298.915,983.735,307.863Z" transform="translate(-63.845 -217.66)" fill="#a5caef"/><path d="M984,351.123" transform="translate(-76.624 -260.32)" fill="#a5caef" stroke="#a5caef" stroke-miterlimit="10" stroke-width="8"/><path d="M967.593,224.8c4.44.807,8.871,5.272,8.768,5.094a16.482,16.482,0,0,0-11.058-7.733,7.779,7.779,0,0,0-3.191-.1,9.1,9.1,0,0,0-4.737,3.207S963.153,223.989,967.593,224.8Z" transform="translate(-55.373 -157.204)" fill="#a5caef"/></g><path d="M0,0H104.4V204H0Z" transform="translate(-727 4378)" fill="rgba(255,255,255,0)"/></g></svg>