<svg xmlns="http://www.w3.org/2000/svg" width="159.206" height="71" viewBox="0 0 159.206 71"><g transform="translate(-208.794 -78)"><text transform="translate(241 95)" fill="#fff" font-size="18" font-family="OmnesSemiBold, Omnes"><tspan x="0" y="0">Sorteo de TV </tspan><tspan x="0" y="18">Samsung de 65’</tspan></text><text transform="translate(241 131)" fill="#fff" font-size="14" font-family="OmnesMedium, Omnes"><tspan x="0" y="0">Por la compra de tu </tspan><tspan x="0" y="14">seguro de vida</tspan></text><path d="M12.19-1.1h.368c1.012,0,1.748-.552,1.748-1.978V-10.3h6.67c1.472,0,1.978-.644,1.978-1.7v-.276c0-1.058-.506-1.7-1.978-1.7h-6.67v-6.808c0-1.426-.736-1.978-1.748-1.978H12.19c-1.058,0-1.748.552-1.748,1.978v6.808H3.772c-1.472,0-1.978.644-1.978,1.7v.276c0,1.058.506,1.7,1.978,1.7h6.67v7.222C10.442-1.656,11.132-1.1,12.19-1.1Z" transform="translate(207 134)" fill="#fff"/></g></svg>