<svg xmlns="http://www.w3.org/2000/svg" xmlns:xlink="http://www.w3.org/1999/xlink" width="1028.342" height="353.563" viewBox="0 0 1028.342 353.563"><defs><style>.a,.h{fill:none;}.b{clip-path:url(#a);}.c{clip-path:url(#b);}.d{fill:#ffc75b;}.e{fill:#fff;}.f{fill:#c69749;}.g{opacity:0.521;}.h{stroke:#fff;stroke-linecap:round;stroke-width:5px;}.i{clip-path:url(#c);}</style><clipPath id="a"><path class="a" d="M1551.319-469.667l4.29-1.521" transform="translate(-1551.319 471.188)"/></clipPath><clipPath id="b"><path class="a" d="M447,351.013H2504.621V-935H447Z" transform="translate(-447 935)"/></clipPath><clipPath id="c"><rect class="a" width="641.872" height="78.265"/></clipPath></defs><g transform="translate(-802.558 -254.954)"><g class="b" transform="translate(1485.085 606.997)"><g class="c" transform="translate(-1577.965 -662.742)"><path class="d" d="M1546.319-460.378H1564.9v-15.81h-18.579Z" transform="translate(24.502 1131.786)"/></g></g><g transform="translate(7.917 12)"><g transform="translate(10.439 -15.285)"><path class="e" d="M43.535,118.866V93.691c0-2.171,1.063-3.237,3-3.237h1.017c2.077,0,3.14,1.065,3.14,3.237v9.522h13.48V93.691c0-2.171,1.014-3.237,2.949-3.237h1.063c2.029,0,3.092,1.065,3.092,3.237v25.176c0,2.128-1.063,3.239-3.092,3.239H67.117c-1.935,0-2.949-1.111-2.949-3.239v-9.616H50.687v9.616c0,2.128-1.063,3.239-3.14,3.239H46.53c-1.932,0-3-1.111-3-3.239" transform="translate(881.654 388.568)"/><path class="e" d="M71.26,103.242h.773a2.947,2.947,0,0,0-.048-.676c-.1-2.756-1.787-4.254-4.785-4.254a5.906,5.906,0,0,0-5.8,3.43c-.048.1-4.4.435-4.4-2.705a4.322,4.322,0,0,1,1.449-3.092c1.6-1.642,4.64-2.753,9.181-2.753,7.49,0,11.116,3.43,11.116,9.758v13.918c0,.338-1.256.773-2.56.773a3.52,3.52,0,0,1-3.577-2.273,9.519,9.519,0,0,1-.386-1.594,9.416,9.416,0,0,1-8.166,4.06c-4.93,0-7.925-2.708-7.925-6.763,0-5.268,5.123-7.686,15.125-7.828m.773,3.43h-1.3c-5.362.193-8.215,1.208-8.215,3.865,0,1.787,1.4,2.9,3.671,2.9,3.384,0,5.8-2.08,5.848-5.075Z" transform="translate(902.868 393.178)"/><path class="e" d="M66.521,112.665A3,3,0,0,1,68.6,109.96a10.312,10.312,0,0,0,7.78,3.188c2.66,0,4.109-.918,4.109-2.418,0-1.833-1.884-2.171-5.027-2.847-3.237-.676-8.263-1.742-8.263-7.055,0-4.592,3.722-7.635,9.809-7.635,4.782,0,7.732,1.3,8.939,3.14a3.471,3.471,0,0,1,.58,1.935,3.375,3.375,0,0,1-2.171,2.847,9.38,9.38,0,0,0-6.913-3.186c-2.609,0-4.009.963-4.009,2.464,0,1.691,1.836,2.029,5.024,2.753,3.333.725,8.652,1.787,8.652,7.1,0,4.734-3.771,7.587-10.391,7.587-3.72,0-6.427-.727-8.118-1.787a4.125,4.125,0,0,1-2.077-3.384" transform="translate(920.355 393.178)"/><path class="e" d="M79.621,113.47V102.646H78.414c-1.932,0-2.8-.87-2.8-2.418v-.386c0-1.594.87-2.515,2.753-2.515h1.256V94.332c0-2.222,1.111-3.282,3.046-3.282h.625c1.787,0,2.995.773,2.995,3.282v2.995H90.4c1.93,0,2.753.824,2.753,2.37v.435c0,1.645-.87,2.515-2.8,2.515H86.191V112.7c0,2.319.727,3.478,2.611,3.478a3.466,3.466,0,0,0,2.949-1.594,2.678,2.678,0,0,1,1.688,2.657,3.448,3.448,0,0,1-1.157,2.609,7.055,7.055,0,0,1-5.075,1.739c-5.171,0-7.587-2.753-7.587-8.115" transform="translate(935.662 389.571)"/><path class="e" d="M98.907,103.242h.773a2.948,2.948,0,0,0-.048-.676c-.1-2.756-1.787-4.254-4.785-4.254a5.906,5.906,0,0,0-5.8,3.43c-.048.1-4.4.435-4.4-2.705A4.312,4.312,0,0,1,86.1,95.945c1.6-1.642,4.64-2.753,9.181-2.753,7.49,0,11.116,3.43,11.116,9.758v13.918c0,.338-1.256.773-2.56.773a3.52,3.52,0,0,1-3.577-2.273,9.519,9.519,0,0,1-.386-1.594,9.416,9.416,0,0,1-8.166,4.06c-4.93,0-7.925-2.708-7.925-6.763,0-5.268,5.123-7.686,15.125-7.828m.773,3.43h-1.3c-5.362.193-8.215,1.208-8.215,3.865,0,1.787,1.4,2.9,3.671,2.9,3.384,0,5.8-2.08,5.848-5.075Z" transform="translate(949.417 393.178)"/><path class="e" d="M100.965,120.523c-2.032-1.355-3.143-3.143-3.143-4.785,0-3.575,4.157-3.671,4.205-3.381,1.012,3.237,3.913,4.978,7.729,4.978,3.771,0,6.138-1.693,6.138-4.447,0-2.85-1.884-4.3-5.558-4.3H108.7c-2.37,0-3.288-.869-3.288-2.418v-.386c0-1.691,1.063-2.418,3.191-2.418h2.319c2.9,0,4.444-1.4,4.444-3.671,0-2.415-2.125-3.913-5.7-3.913-4.055,0-6.038,2.174-6.959,4.492-.046.29-4.106.148-4.106-3.333,0-1.642,1.111-3.288,3.046-4.541a15.057,15.057,0,0,1,8.166-2.125c7.874,0,12.273,3.092,12.273,8.6,0,3.282-1.884,5.459-5.461,6.521,3.916,1.307,6.089,4.109,6.089,7.925,0,6.038-4.688,9.567-12.9,9.567a15.558,15.558,0,0,1-8.843-2.367" transform="translate(973.056 388.266)"/><path class="e" d="M115.832,119.055V99.34a4.324,4.324,0,0,1-2.8,1.014,4.731,4.731,0,0,1-3.092-1.111,3.9,3.9,0,0,1-1.208-2.9c0-2.37,1.688-3.481,1.884-3.384a4.5,4.5,0,0,0,2.947,1.065A4.2,4.2,0,0,0,117.67,90.4h2.077c2.029,0,3.092,1.111,3.092,3.288v25.366c0,2.128-1.063,3.288-3.092,3.288h-.921c-1.981,0-2.995-1.159-2.995-3.288" transform="translate(991.424 388.479)"/><path class="e" d="M120.431,111.5c0-7.49,4.444-12.369,10.971-12.369a8.836,8.836,0,0,1,7.439,3.575V90.435a3.787,3.787,0,0,1,2.563-.773c2.026,0,4.251,1.065,4.251,5.459V120.2c0,2.466-1.208,3.239-2.995,3.239h-.679c-1.546,0-2.7-.531-2.944-2.37-.051-.529-.1-1.06-.1-1.642a8.562,8.562,0,0,1-7.686,4.5c-6.379,0-10.823-5.024-10.823-12.417m18.458-3.143a5.981,5.981,0,0,0-5.848-3.768c-3.671,0-6.135,2.657-6.135,6.91,0,4.106,2.515,6.959,6.041,6.959a5.669,5.669,0,0,0,5.942-5.655Z" transform="translate(1011.123 387.234)"/><path class="e" d="M144.25,93.192c7,0,11.741,4.879,11.741,11.787v.437c-.048,1.159-.386,1.79-1.645,1.79H138.013l.148.773a6.547,6.547,0,0,0,6.766,5.072c3.526,0,5.555-1.546,6.618-3.432.048-.094,3.333.193,3.333,2.9,0,1.3-.915,2.657-2.606,3.671a14.427,14.427,0,0,1-7.541,1.787c-7.681,0-12.707-4.782-12.707-12.273,0-7.2,5.123-12.514,12.227-12.514m-.051,4.686a6.1,6.1,0,0,0-6.089,5.606h11.6c-.193-3.43-2.27-5.606-5.51-5.606" transform="translate(1030.64 393.178)"/><path class="e" d="M146.422,111.5c0-7.49,4.447-12.369,10.971-12.369a8.835,8.835,0,0,1,7.439,3.575V90.435a3.787,3.787,0,0,1,2.563-.773c2.029,0,4.251,1.065,4.251,5.459V120.2c0,2.466-1.208,3.239-3,3.239h-.676c-1.546,0-2.7-.531-2.944-2.37-.051-.529-.1-1.06-.1-1.642a8.562,8.562,0,0,1-7.686,4.5c-6.376,0-10.823-5.024-10.823-12.417m18.458-3.143a5.981,5.981,0,0,0-5.848-3.768c-3.671,0-6.135,2.657-6.135,6.91,0,4.106,2.515,6.959,6.041,6.959a5.669,5.669,0,0,0,5.942-5.655Z" transform="translate(1054.884 387.234)"/><path class="e" d="M162.246,89.375c2.367,0,3.816,1.35,3.816,3.526s-1.4,3.526-3.816,3.526c-2.319,0-3.819-1.35-3.819-3.526s1.449-3.526,3.819-3.526m-3.43,13.818c0-2.464,1.3-3.288,3.043-3.288h.727c1.787,0,3.041.773,3.041,3.288v17.492c0,2.466-1.253,3.239-3.041,3.239h-.682c-1.833,0-3.089-.727-3.089-3.239Z" transform="translate(1075.096 386.751)"/><path class="e" d="M175.666,93.192a11.95,11.95,0,0,1,7.732,2.367,5.685,5.685,0,0,1,2.319,4.06c0,2.753-3.671,3.285-3.819,3a5.805,5.805,0,0,0-5.944-3.913c-3.671,0-6.376,2.847-6.376,6.811,0,4.06,2.66,6.959,6.376,6.959a5.9,5.9,0,0,0,5.944-3.913c.148-.293,3.819.1,3.819,3.041a5.446,5.446,0,0,1-2.37,3.964,11.707,11.707,0,0,1-7.681,2.415c-7.249,0-12.324-5.12-12.324-12.466a11.9,11.9,0,0,1,12.324-12.321" transform="translate(1083.372 393.178)"/><path class="e" d="M177.493,89.375c2.367,0,3.816,1.35,3.816,3.526s-1.4,3.526-3.816,3.526c-2.319,0-3.819-1.35-3.819-3.526s1.449-3.526,3.819-3.526m-3.432,13.818c0-2.464,1.3-3.288,3.046-3.288h.725c1.787,0,3.043.773,3.043,3.288v17.492c0,2.466-1.256,3.239-3.043,3.239h-.679c-1.833,0-3.092-.727-3.092-3.239Z" transform="translate(1100.768 386.751)"/><path class="e" d="M190.814,93.192c7,0,11.741,4.879,11.741,11.787v.437c-.048,1.159-.386,1.79-1.645,1.79H184.577l.148.773a6.547,6.547,0,0,0,6.766,5.072c3.526,0,5.555-1.546,6.618-3.432.048-.094,3.333.193,3.333,2.9,0,1.3-.915,2.657-2.606,3.671a14.427,14.427,0,0,1-7.541,1.787c-7.681,0-12.707-4.782-12.707-12.273,0-7.2,5.123-12.514,12.227-12.514m-.051,4.686a6.1,6.1,0,0,0-6.089,5.606h11.6c-.193-3.43-2.27-5.606-5.51-5.606" transform="translate(1109.039 393.178)"/><path class="e" d="M227.541,102.566v11.69c0,2.466-1.256,3.239-2.995,3.239h-.725c-1.836,0-3.092-.725-3.092-3.239V103.629c0-3.094-1.355-4.737-4.109-4.737a5.492,5.492,0,0,0-4.64,2.9v12.463c0,2.466-1.256,3.239-2.995,3.239h-.725c-1.79,0-3.092-.725-3.092-3.239V103.774c0-3.239-1.355-4.882-4.06-4.882a5.485,5.485,0,0,0-4.637,2.9v12.463c0,2.466-1.259,3.239-3,3.239h-.727c-1.833,0-3.092-.725-3.092-3.239v-20c0-.242,1.208-.773,2.56-.773,1.693,0,3.526.727,4.06,3.867a8.467,8.467,0,0,1,7.294-4.154c3.916,0,6.379,1.884,7.538,4.831,1.6-2.705,4.012-4.831,7.925-4.831,5.99,0,8.5,3.816,8.5,9.374" transform="translate(1127.68 393.178)"/><path class="e" d="M212.928,121.119a2.483,2.483,0,0,1-2.8,2.319H209.4c-1.787,0-3.092-.725-3.092-3.285V90.436a3.825,3.825,0,0,1,2.611-.773c1.981,0,4.2,1.063,4.2,5.459V103a8.872,8.872,0,0,1,7.587-3.865c6.376,0,10.872,4.782,10.872,12.321,0,7.345-4.444,12.466-10.92,12.466a8.333,8.333,0,0,1-7.587-4.2Zm6.138-16.526a6.126,6.126,0,0,0-5.944,3.865v4.592a5.609,5.609,0,0,0,5.893,5.413c3.626,0,6.041-2.8,6.041-6.959s-2.464-6.91-5.99-6.91" transform="translate(1155.711 387.236)"/><path class="e" d="M234.714,97.155c0,2.705-2.074,3.671-2.174,3.575a4.718,4.718,0,0,0-3.092-1.162c-3.287,0-4.737,2.9-4.737,7.638v7.053c0,2.466-1.253,3.239-2.995,3.239h-.725c-1.836,0-3.094-.725-3.094-3.239v-20c0-.242,1.162-.773,2.56-.773a3.768,3.768,0,0,1,3.722,2.563,10.777,10.777,0,0,1,.338,1.64c.918-2.8,2.9-4.492,5.848-4.492,2.708,0,4.348,1.548,4.348,3.964" transform="translate(1175.227 393.176)"/><path class="e" d="M237.29,93.192c7,0,11.741,4.879,11.741,11.787v.437c-.048,1.159-.386,1.79-1.645,1.79h-16.33l.145.773a6.547,6.547,0,0,0,6.766,5.072c3.526,0,5.555-1.546,6.618-3.432.048-.094,3.336.193,3.336,2.9,0,1.3-.918,2.657-2.609,3.671a14.426,14.426,0,0,1-7.541,1.787c-7.681,0-12.707-4.782-12.707-12.273,0-7.2,5.123-12.514,12.227-12.514m-.048,4.686a6.1,6.1,0,0,0-6.092,5.606h11.6c-.193-3.43-2.27-5.606-5.507-5.606" transform="translate(1187.291 393.178)"/></g><path class="e" d="M44.213,110.229c0-24.788,14.71-40.941,36.3-40.941,11.2,0,20.151,5.117,24.629,11.835V40.506c0-.642,4-2.559,8.478-2.559,6.715,0,14.073,3.517,14.073,18.067v83c0,8.156-4,10.715-9.916,10.715h-2.24c-5.117,0-8.955-1.76-9.754-7.835-.159-1.76-.318-3.52-.318-5.439-5.279,9.115-13.916,14.874-25.427,14.874-21.112,0-35.821-16.634-35.821-41.1m61.087-10.4c-3.358-7.676-9.754-12.472-19.349-12.472-12.154,0-20.31,8.8-20.31,22.869,0,13.592,8.316,23.028,19.989,23.028,10.715,0,19.67-7.517,19.67-18.71Z" transform="translate(882.87 294.525)"/><path class="e" d="M119.248,49.167c23.184,0,38.86,16.154,38.86,39.022v1.439c-.162,3.838-1.282,5.916-5.441,5.916H98.617L99.1,98.1c2.4,10.235,10.872,16.793,22.386,16.793,11.676,0,18.391-5.117,21.911-11.355.162-.321,11.034.64,11.034,9.595,0,4.318-3.039,8.8-8.634,12.154-5.757,3.517-14.075,5.916-24.947,5.916-25.43,0-42.059-15.832-42.059-40.62,0-23.827,16.953-41.419,40.461-41.419m-.162,15.514c-10.715,0-18.71,7.676-20.151,18.55h38.38c-.637-11.355-7.514-18.55-18.229-18.55" transform="translate(944.871 314.646)"/><path class="e" d="M111.874,139.016V40.5c0-.64,4-2.559,8.475-2.559,6.715,0,14.073,3.517,14.073,18.07v83c0,8.156-4.156,10.715-9.916,10.715h-2.4c-5.916,0-10.235-2.4-10.235-10.715" transform="translate(1004.207 294.523)"/><path class="e" d="M131.994,138.7l35.184-91.313c1.439-4.316,4.8-7.036,15.511-7.036s13.754,2.721,15.193,7.036l35.981,91.157c.8,1.916-5.754,7.355-12.793,7.355-5.117,0-10.394-2.718-13.592-11.193L201.24,118.55H163.659l-6.4,16.475c-2.877,8.156-7.835,10.874-12.793,10.874-6.715,0-13.112-5.117-12.475-7.2m64.288-37.9L182.212,63.22,168.137,100.8Z" transform="translate(1040.209 298.836)"/><path class="e" d="M248.578,104v37.581c0,8.156-4.316,10.715-10.073,10.715h-2.4c-5.919,0-10.078-2.4-10.078-10.715V107.518c0-10.394-5.277-16.791-14.391-16.791a18.854,18.854,0,0,0-17.112,10.235v40.62c0,8.156-4.156,10.715-9.916,10.715h-2.4c-6.078,0-10.235-2.4-10.235-10.715V75.375c0-.8,4-2.559,8.475-2.559,6.078,0,12.154,3.039,13.433,13.112,5.6-8.313,13.751-14.073,25.746-14.073,20.313,0,28.944,14.394,28.944,32.145M185.893,59.543a8.185,8.185,0,0,1-2.4-6.235c0-8.8,5.916-16.793,14.872-16.793,3.52,0,7.036,1.279,10.556,3.2a43.294,43.294,0,0,1,10.553,8.634c1.76-5.6,5.757-11.193,9.916-11.193a8.3,8.3,0,0,1,5.595,2.078c1.6,1.439,2.4,3.517,2.4,6.4,0,8.793-6.078,16.631-14.874,16.631a19.75,19.75,0,0,1-10.874-3.36A45.288,45.288,0,0,1,201.4,50.269c-1.919,5.6-5.6,11.193-9.916,11.193a8.2,8.2,0,0,1-5.6-1.919" transform="translate(1111.995 291.957)"/><path class="e" d="M245.491,49.167c24.626,0,41.419,16.793,41.419,41.1s-16.955,40.939-41.743,40.939-41.419-16.631-41.419-41.26c0-23.986,16.955-40.779,41.743-40.779m-.162,17.592c-12.631,0-21.749,9.754-21.749,23.187,0,13.6,9.117,23.508,21.749,23.508,12.475,0,21.589-9.913,21.589-23.187,0-13.754-8.958-23.508-21.589-23.508" transform="translate(1168.965 314.646)"/></g><path class="f" d="M76.5,62.5h-3.07c-14.858,0-19.011-6.869-19.011-19.011V37.082a4.218,4.218,0,0,0-8.436,0v6.405c0,14.207-8.5,19.011-19.011,19.011H24.607a4.221,4.221,0,0,0,0,8.441h2.36c12.441,0,19.02,4.17,19.02,19.028v6.388a4.218,4.218,0,1,0,8.436,0V89.968c0-13.629,8.383-19.028,19.025-19.028H76.5a4.221,4.221,0,1,0,0-8.441M50.208,73a6.284,6.284,0,1,1,6.277-6.277A6.273,6.273,0,0,1,50.208,73" transform="translate(840.151 305.42)"/><path class="f" d="M25.179,40.483a5.429,5.429,0,1,1-5.433-5.416,5.443,5.443,0,0,1,5.433,5.416M19.746,28.966A11.529,11.529,0,1,0,31.274,40.483,11.538,11.538,0,0,0,19.746,28.966" transform="translate(818.314 298.419)"/><g transform="translate(-1.026 29.977)"><path class="f" d="M21.573,91.628s3.044-24.452,0-24.452c-3.133,0,0,24.452,0,24.452" transform="translate(832.984 346.664)"/><path class="f" d="M21.573,97.061s-3.133,24.493,0,24.493c3.044,0,0-24.493,0-24.493" transform="translate(832.984 390.205)"/><path class="f" d="M25.316,87.919S.808,84.811.808,87.919c0,3.064,24.508,0,24.508,0" transform="translate(804.76 374.873)"/><path class="f" d="M30.7,87.919s24.464,3.064,24.464,0c0-3.108-24.464,0-24.464,0" transform="translate(848.312 374.873)"/><path class="f" d="M24.07,90.419S8.922,70.933,6.741,73.107C4.574,75.3,24.07,90.419,24.07,90.419" transform="translate(813.158 355.059)"/><path class="f" d="M27.771,94.143s15.15,19.464,17.329,17.3-17.329-17.3-17.329-17.3" transform="translate(844.043 385.954)"/><path class="f" d="M24.07,94.143s-19.5,15.123-17.329,17.3,17.329-17.3,17.329-17.3" transform="translate(813.158 385.954)"/><path class="f" d="M27.771,90.419S47.294,75.3,45.1,73.107c-2.179-2.174-17.329,17.312-17.329,17.312" transform="translate(844.043 355.059)"/><path class="f" d="M22.748,91.328s-6.528-23.8-9.381-22.621,9.381,22.621,9.381,22.621" transform="translate(822.429 348.833)"/><path class="f" d="M24.554,96.3s6.5,23.8,9.331,22.641c2.83-1.209-9.331-22.641-9.331-22.641" transform="translate(839.357 389.091)"/><path class="f" d="M24.988,90.914S1.2,97.43,2.345,100.282c1.187,2.838,22.643-9.368,22.643-9.368" transform="translate(806.94 381.249)"/><path class="f" d="M29.942,89.1s23.793-6.516,22.621-9.386C51.379,76.884,29.942,89.1,29.942,89.1" transform="translate(847.206 364.314)"/><path class="f" d="M24.988,89.1S3.531,76.884,2.345,79.717C1.2,82.586,24.988,89.1,24.988,89.1" transform="translate(806.94 364.314)"/><path class="f" d="M29.942,90.914s21.437,12.206,22.621,9.368-22.621-9.368-22.621-9.368" transform="translate(847.206 381.249)"/><path class="f" d="M22.748,96.3s-12.236,21.432-9.381,22.641C16.22,120.1,22.748,96.3,22.748,96.3" transform="translate(822.429 389.091)"/><path class="f" d="M24.554,91.328s12.162-21.447,9.331-22.621-9.331,22.621-9.331,22.621" transform="translate(839.357 348.833)"/><path class="f" d="M14.693,77.948S12.556,67.661,9.182,70s5.511,7.953,5.511,7.953" transform="translate(815.847 350.27)"/><path class="f" d="M9.569,85.94S.756,80.164.041,84.183c-.762,4.059,9.528,1.757,9.528,1.757" transform="translate(803.583 369.371)"/><path class="f" d="M11.609,96.852S1.3,99,3.634,102.358c2.356,3.408,7.975-5.506,7.975-5.506" transform="translate(808.376 389.901)"/><path class="f" d="M19.566,103.927s-5.754,8.823-1.735,9.567c4.032.713,1.735-9.567,1.735-9.567" transform="translate(827.485 400.209)"/><path class="f" d="M30.493,101.152s2.15,10.3,5.516,7.953c3.413-2.322-5.516-7.953-5.516-7.953" transform="translate(848.009 396.165)"/><path class="f" d="M37.582,90.539s8.781,5.749,9.513,1.72c.747-4.054-9.513-1.72-9.513-1.72" transform="translate(858.338 379.729)"/><path class="f" d="M34.8,81.085s10.287-2.162,7.978-5.528c-2.341-3.4-7.978,5.528-7.978,5.528" transform="translate(854.284 357.748)"/><path class="f" d="M24.183,75.93s5.752-8.8,1.705-9.543c-4.039-.715-1.705,9.543-1.705,9.543" transform="translate(837.838 345.463)"/><path class="f" d="M19.566,75.93s2.3-10.258-1.735-9.543c-4.02.74,1.735,9.543,1.735,9.543" transform="translate(827.485 345.463)"/><path class="f" d="M11.609,81.085S5.99,72.154,3.634,75.557c-2.334,3.366,7.975,5.528,7.975,5.528" transform="translate(808.376 357.748)"/><path class="f" d="M9.569,90.539S-.721,88.205.041,92.259c.715,4.029,9.528-1.72,9.528-1.72" transform="translate(803.583 379.729)"/><path class="f" d="M14.693,101.152s-8.884,5.631-5.511,7.953c3.373,2.346,5.511-7.953,5.511-7.953" transform="translate(815.847 396.165)"/><path class="f" d="M24.183,103.927s-2.334,10.28,1.705,9.567c4.047-.744-1.705-9.567-1.705-9.567" transform="translate(837.838 400.209)"/><path class="f" d="M34.8,96.852s5.636,8.914,7.978,5.506C45.087,99,34.8,96.852,34.8,96.852" transform="translate(854.284 389.901)"/><path class="f" d="M37.582,85.94s10.26,2.3,9.513-1.757c-.732-4.02-9.513,1.757-9.513,1.757" transform="translate(858.338 369.371)"/><path class="f" d="M30.493,77.948S39.422,72.339,36.009,70c-3.366-2.334-5.516,7.953-5.516,7.953" transform="translate(848.009 350.27)"/></g><g transform="translate(5.98 -2.519)"><path class="e" d="M279.3,101.582c0-9.523,5.655-15.729,13.946-15.729A11.234,11.234,0,0,1,302.7,90.4V74.8a4.8,4.8,0,0,1,3.258-.98c2.58,0,5.406,1.351,5.406,6.94v31.881c0,3.137-1.534,4.12-3.809,4.12H306.7c-1.967,0-3.433-.678-3.747-3.015-.059-.672-.124-1.348-.124-2.085a10.875,10.875,0,0,1-9.763,5.714c-8.113,0-13.765-6.389-13.765-15.788m23.466-4a7.6,7.6,0,0,0-7.435-4.79c-4.665,0-7.8,3.377-7.8,8.786,0,5.219,3.2,8.845,7.672,8.845a7.21,7.21,0,0,0,7.547-6.854c.006-.11.009-.222.009-.335Z" transform="translate(1311.128 402.285)"/><path class="e" d="M291.266,102.626a3.82,3.82,0,0,1,2.645-3.433,13.1,13.1,0,0,0,9.891,4.055c3.386,0,5.225-1.167,5.225-3.072,0-2.334-2.4-2.764-6.386-3.626-4.12-.859-10.5-2.222-10.5-8.966,0-5.838,4.73-9.71,12.47-9.71,6.084,0,9.828,1.659,11.366,3.99a4.475,4.475,0,0,1,.738,2.459,4.3,4.3,0,0,1-2.767,3.634,11.881,11.881,0,0,0-8.783-4.052c-3.321,0-5.1,1.226-5.1,3.128,0,2.153,2.331,2.583,6.386,3.5,4.242.918,11,2.275,11,9.032,0,6.019-4.793,9.648-13.211,9.648a19.792,19.792,0,0,1-10.323-2.275,5.236,5.236,0,0,1-2.642-4.3" transform="translate(1334.607 410.273)"/><path class="e" d="M316.594,77.884a15.162,15.162,0,0,1,9.828,3.012,7.2,7.2,0,0,1,2.947,5.16c0,3.5-4.665,4.18-4.843,3.809a7.389,7.389,0,0,0-7.556-4.976,8.78,8.78,0,0,0,0,17.509,7.492,7.492,0,0,0,7.556-4.973c.184-.37,4.843.121,4.843,3.869a6.911,6.911,0,0,1-3.007,5.039,14.924,14.924,0,0,1-9.769,3.069,15.757,15.757,0,0,1,0-31.514" transform="translate(1353.389 410.257)"/><path class="e" d="M315.9,103.909V90.146h-1.537c-2.456,0-3.563-1.108-3.563-3.072v-.492c0-2.017,1.108-3.193,3.5-3.193h1.6V79.581c0-2.826,1.413-4.177,3.871-4.177h.806c2.275,0,3.809.983,3.809,4.177V83.39h5.222c2.458,0,3.5,1.046,3.5,3.012v.551c0,2.088-1.108,3.193-3.566,3.193h-5.293v12.782c0,2.95.924,4.419,3.321,4.419a4.386,4.386,0,0,0,3.747-2.02,3.41,3.41,0,0,1,2.147,3.38A4.378,4.378,0,0,1,332,112.025a8.949,8.949,0,0,1-6.452,2.222c-6.573,0-9.645-3.5-9.645-10.32" transform="translate(1372.939 405.426)"/><path class="e" d="M334.9,77.888a15.1,15.1,0,0,1,15.907,14.236c.027.518.027,1.037.006,1.555,0,9.337-6.517,15.726-16.037,15.726a15.045,15.045,0,0,1-15.91-14.126,15.946,15.946,0,0,1,0-1.724c0-9.215,6.517-15.664,16.037-15.664m-.062,6.757a9,9,0,1,0,8.267,9.671c.018-.213.027-.427.03-.637,0-5.281-3.433-9.034-8.3-9.034" transform="translate(1388.712 410.253)"/><path class="e" d="M308.713,46.408V58.491c0,2.678-1.419,3.519-3.309,3.519h-.788c-1.943,0-3.309-.788-3.309-3.519V47.41c0-3.522-1.786-5.622-4.728-5.622-3.466,0-5.616,2.26-5.616,5.989V58.488c0,2.678-1.422,3.522-3.309,3.522h-.788c-1.943,0-3.309-.791-3.309-3.522V26.139a3.97,3.97,0,0,1,2.781-.841c2.154,0,4.624,1.158,4.624,5.936v8.975a9.165,9.165,0,0,1,8.19-4.621c6.733,0,9.559,4.834,9.559,10.818" transform="translate(1319.485 307.086)"/><path class="e" d="M309.476,39.681h.841a3.053,3.053,0,0,0-.053-.735c-.107-2.995-1.943-4.621-5.2-4.621a6.415,6.415,0,0,0-6.3,3.726c-.053.11-4.784.474-4.784-2.933a4.692,4.692,0,0,1,1.579-3.362c1.727-1.783,5.042-2.992,9.976-2.992,8.14,0,12.082,3.726,12.082,10.61V54.492c0,.367-1.363.838-2.784.838a3.824,3.824,0,0,1-3.886-2.467,10.641,10.641,0,0,1-.421-1.727,10.241,10.241,0,0,1-8.872,4.414c-5.35,0-8.611-2.938-8.611-7.355,0-5.72,5.566-8.347,16.437-8.507m.841,3.729H308.9c-5.829.207-8.925,1.312-8.925,4.2,0,1.94,1.52,3.149,3.987,3.149,3.679,0,6.3-2.257,6.357-5.513Z" transform="translate(1338.098 313.917)"/><path class="e" d="M302.209,49.927a3.246,3.246,0,0,1,2.257-2.935,11.213,11.213,0,0,0,8.457,3.466c2.888,0,4.464-1,4.464-2.627,0-1.994-2.044-2.364-5.459-3.1-3.519-.735-8.975-1.9-8.975-7.666,0-4.991,4.043-8.3,10.661-8.3,5.2,0,8.4,1.419,9.716,3.412a3.814,3.814,0,0,1,.631,2.1,3.692,3.692,0,0,1-2.364,3.11,10.182,10.182,0,0,0-7.509-3.469c-2.838,0-4.357,1.049-4.357,2.678,0,1.837,1.991,2.2,5.459,2.995,3.623.785,9.4,1.94,9.4,7.719,0,5.145-4.1,8.244-11.292,8.244a16.819,16.819,0,0,1-8.821-1.943,4.456,4.456,0,0,1-2.26-3.673" transform="translate(1356.079 313.917)"/><path class="e" d="M314.457,51.023V39.258h-1.312c-2.1,0-3.048-.945-3.048-2.621v-.421c0-1.727.951-2.731,2.995-2.731h1.366V30.226c0-2.417,1.208-3.572,3.309-3.572h.69c1.943,0,3.255.844,3.255,3.572v3.255h4.467c2.1,0,2.992.895,2.992,2.574v.471c0,1.786-.948,2.731-3.048,2.731H321.6V50.185c0,2.518.791,3.78,2.838,3.78a3.758,3.758,0,0,0,3.2-1.727,2.906,2.906,0,0,1,1.836,2.891,3.753,3.753,0,0,1-1.256,2.835,7.649,7.649,0,0,1-5.518,1.9c-5.616,0-8.244-2.989-8.244-8.821" transform="translate(1371.556 309.773)"/><path class="e" d="M333.518,39.677h.841a3.382,3.382,0,0,0-.053-.735c-.107-2.995-1.952-4.615-5.2-4.615a6.411,6.411,0,0,0-6.3,3.726c-.056.107-4.781.474-4.781-2.935A4.694,4.694,0,0,1,319.6,31.76c1.727-1.783,5.042-2.992,9.976-2.992,8.14,0,12.083,3.723,12.083,10.607V54.488c0,.367-1.366.838-2.784.838a3.824,3.824,0,0,1-3.886-2.467,10.73,10.73,0,0,1-.421-1.727,10.236,10.236,0,0,1-8.875,4.414c-5.35,0-8.611-2.938-8.611-7.355,0-5.72,5.569-8.347,16.44-8.507m.838,3.729h-1.419c-5.826.207-8.925,1.312-8.925,4.2,0,1.94,1.52,3.149,3.987,3.149,3.682,0,6.3-2.257,6.357-5.513Z" transform="translate(1385.265 313.921)"/><path class="e" d="M286.859,123.736v-56.2a12.325,12.325,0,0,1-7.983,2.894,13.488,13.488,0,0,1-8.815-3.169A11.1,11.1,0,0,1,266.619,59c0-6.754,4.819-9.92,5.37-9.645a12.8,12.8,0,0,0,8.4,3.027A11.962,11.962,0,0,0,292.1,42.053h5.921c5.785,0,8.812,3.167,8.812,9.366v72.317c0,6.058-3.027,9.366-8.812,9.366H295.4c-5.652,0-8.54-3.306-8.54-9.366" transform="translate(1286.241 339.988)"/><path class="e" d="M293.661,127.642c-5.652-3.442-8.818-7.713-8.818-11.843,0-5.924,7.716-10.2,8.4-9.505a29.678,29.678,0,0,0,24.521,11.985c11.428,0,18.457-5.655,18.457-14.6s-6.339-14.186-17.77-14.186A28.668,28.668,0,0,0,300.139,95c-7.992-.273-11.988-3.714-11.988-11.846V53.672c0-7.165,3.027-11.295,9.781-11.295h43.114c6.336,0,9.5,2.624,9.5,7.986v.69c0,5.373-3.027,7.853-9.5,7.853H305.1V78.879a43.194,43.194,0,0,1,16.253-3.3c19.834,0,32.912,10.744,32.912,28.238,0,18.045-13.913,29.612-36.23,29.612a47.784,47.784,0,0,1-24.375-5.791" transform="translate(1322.005 340.623)"/><path class="e" d="M310.987,70.02A20.586,20.586,0,0,1,331.4,49.261q.187,0,.373,0a20.747,20.747,0,1,1-20.776,21.1c0-.113,0-.228,0-.341m20.776-7.9A7.875,7.875,0,1,0,339.639,70a7.872,7.872,0,0,0-7.873-7.876" transform="translate(1373.3 354.127)"/><path class="e" d="M349.023,100.605a20.72,20.72,0,1,1,20.753-20.687,20.723,20.723,0,0,1-20.753,20.687m-7.8-20.685a7.68,7.68,0,0,0,7.55,7.8h.264a7.857,7.857,0,0,0,.252-15.711h-.252a7.758,7.758,0,0,0-7.805,7.713v.2" transform="translate(1407.337 373.564)"/><path class="e" d="M323.437,120a3.541,3.541,0,0,1-3.913-3.134,3.493,3.493,0,0,1,.267-1.789,35.224,35.224,0,0,1,2.4-4.97q15.831-29.112,31.7-58.2a4.28,4.28,0,0,1,5.6-2.3l.036.015a3.449,3.449,0,0,1,2.239,4.307,25.94,25.94,0,0,1-2,4.123Q344.045,87,328.3,115.937a17.368,17.368,0,0,1-1.644,2.586A3.848,3.848,0,0,1,323.437,120" transform="translate(1390.008 354.162)"/><path class="f" d="M262.866,51.237h3.2c15.513,0,19.852,7.156,19.852,19.849v6.671a4.4,4.4,0,1,0,8.8,0V71.086c0-14.846,8.883-19.849,19.858-19.849h2.47a4.4,4.4,0,1,0,0-8.809h-2.465c-13,0-19.864-4.354-19.864-19.867V15.89a4.4,4.4,0,1,0-8.8,0V22.56c0,14.227-8.744,19.867-19.852,19.867h-3.2a4.4,4.4,0,0,0,0,8.809m27.447-10.966a6.561,6.561,0,1,1-6.537,6.537,6.54,6.54,0,0,1,6.537-6.537" transform="translate(1270.257 279.992)"/><path class="f" d="M271.522,27.952l-10.03,10.021a2.935,2.935,0,0,0,4.156,4.147L275.675,32.1a2.933,2.933,0,1,0-4.153-4.144" transform="translate(1274.505 310.625)"/><path class="f" d="M283.594,15.884,273.55,25.908a2.936,2.936,0,1,0,4.159,4.144L287.75,20.031a2.935,2.935,0,1,0-4.156-4.147" transform="translate(1298.167 286.946)"/><path class="f" d="M275.676,25.907l-10.03-10.024a2.935,2.935,0,1,0-4.153,4.15l10.03,10.018a2.933,2.933,0,0,0,4.153-4.144" transform="translate(1274.503 286.948)"/><path class="f" d="M287.738,37.972l-10.03-10.021a2.935,2.935,0,1,0-4.156,4.147l10.039,10.021a2.932,2.932,0,0,0,4.147-4.147" transform="translate(1298.168 310.626)"/><path class="f" d="M264.2,67.179a5.757,5.757,0,1,1-5.761-5.744,5.772,5.772,0,0,1,5.761,5.744m-5.761-12.213a12.226,12.226,0,1,0,12.225,12.213,12.235,12.235,0,0,0-12.225-12.213" transform="translate(1246.212 332.451)"/><path class="f" d="M283.83,108.046h-1.748c-8.46,0-10.83-3.919-10.83-10.835V93.561a2.4,2.4,0,1,0-4.8,0v3.649c0,8.1-4.846,10.835-10.838,10.835h-1.345a2.4,2.4,0,0,0,0,4.8H255.6c7.1,0,10.844,2.37,10.844,10.832v3.649a2.4,2.4,0,1,0,4.8,0v-3.649c0-7.761,4.772-10.832,10.836-10.832h1.742a2.4,2.4,0,0,0,0-4.8m-14.982,5.986a3.584,3.584,0,1,1,3.569-3.575,3.579,3.579,0,0,1-3.569,3.575" transform="translate(1298.662 461.784)"/><path class="f" d="M285.467,99.246h-2.832c-13.712,0-17.557-6.354-17.557-17.565V75.768a3.891,3.891,0,1,0-7.781,0v5.912c0,13.131-7.856,17.565-17.562,17.565h-2.183a3.891,3.891,0,0,0,0,7.781h2.174c11.5,0,17.571,3.842,17.571,17.556V130.5a3.891,3.891,0,1,0,7.781,0v-5.912c0-12.58,7.74-17.556,17.565-17.556h2.823a3.891,3.891,0,1,0,0-7.781m-24.284,9.7a5.809,5.809,0,1,1,5.788-5.794,5.795,5.795,0,0,1-5.788,5.794" transform="translate(1239.62 399.553)"/><path class="f" d="M339.848,28.466s4.728-27.373,1.3-27.536c-3.528-.169-1.3,27.536-1.3,27.536" transform="translate(1428.566 259.299)"/><path class="f" d="M348.246,20.43s27.388,4.751,27.551,1.3c.163-3.5-27.551-1.3-27.551-1.3" transform="translate(1446.409 296.224)"/><path class="f" d="M345.128,26.283S329.1,3.534,326.534,5.865c-2.559,2.355,18.593,20.418,18.593,20.418" transform="translate(1403.386 268.654)"/><path class="f" d="M345.2,26.429s16.025,22.722,18.593,20.4c2.589-2.334-18.593-20.4-18.593-20.4" transform="translate(1440.428 309.331)"/><path class="f" d="M345.819,25.714S368.61,9.728,366.255,7.139c-2.343-2.562-20.436,18.575-20.436,18.575" transform="translate(1441.647 271.059)"/><path class="f" d="M342.348,28S336.261.856,332.985,2.023,342.348,28,342.348,28" transform="translate(1415.399 261.373)"/><path class="f" d="M347.7,22.94s27.139-6.075,25.975-9.366C372.494,10.318,347.7,22.94,347.7,22.94" transform="translate(1445.345 283.054)"/><path class="f" d="M347.368,23.508s23.493,14.885,24.977,11.757c1.472-3.155-24.977-11.757-24.977-11.757" transform="translate(1444.686 303.6)"/><path class="f" d="M342.909,27.69S357.746,4.182,354.618,2.71s-11.709,24.98-11.709,24.98" transform="translate(1435.937 262.676)"/><path class="f" d="M334.885,12.316s-1.86-11.7-5.782-9.251,5.782,9.251,5.782,9.251" transform="translate(1407.014 262.828)"/><path class="f" d="M354.539,23.441s9.582,6.94,10.622,2.441c1.054-4.523-10.622-2.441-10.622-2.441" transform="translate(1458.756 302.53)"/><path class="f" d="M352.5,15.519s11.7-1.887,9.277-5.8c-2.456-3.954-9.277,5.8-9.277,5.8" transform="translate(1454.764 274.687)"/><path class="f" d="M342.846,11.036s6.946-9.609,2.426-10.658c-4.508-1.016-2.426,10.658-2.426,10.658" transform="translate(1434.871 258.094)"/><path class="f" d="M338.926,10.86S342.06-.568,337.481.022c-4.565.619,1.446,10.838,1.446,10.838" transform="translate(1421.928 257.474)"/><path class="f" d="M332.284,14.748S326.427,4.39,323.593,8.1c-2.808,3.664,8.691,6.65,8.691,6.65" transform="translate(1397.169 271.791)"/><path class="f" d="M351.645,29.269s5.871,10.338,8.691,6.626c2.781-3.664-8.691-6.626-8.691-6.626" transform="translate(1453.078 314.904)"/><path class="f" d="M354.807,19.544s11.434,3.137,10.806-1.472c-.61-4.565-10.806,1.472-10.806,1.472" transform="translate(1459.282 289.584)"/><path class="f" d="M348.671,12.859s10.353-5.844,6.635-8.667c-3.664-2.8-6.635,8.667-6.635,8.667" transform="translate(1447.243 264.835)"/><path class="f" d="M398.671,290.806c-77.581,0-140.7-63.12-140.7-140.7a139.188,139.188,0,0,1,15.6-64.459,4.444,4.444,0,0,1,7.9,4.079,130.339,130.339,0,0,0-14.612,60.38c0,72.682,59.133,131.814,131.814,131.814A131.787,131.787,0,0,0,530.485,150.1c0-72.682-59.133-131.814-131.814-131.814A131.13,131.13,0,0,0,324.976,40.8,4.445,4.445,0,0,1,320,33.436,140.031,140.031,0,0,1,398.671,9.4c77.581,0,140.7,63.12,140.7,140.7a140.593,140.593,0,0,1-140.7,140.7" transform="translate(1269.276 275.926)"/></g><path class="e" d="M4.81-18.8h.666a2.158,2.158,0,0,0,2.442-2.442v-.555a2.189,2.189,0,0,0-2.442-2.442H4.81a2.185,2.185,0,0,0-2.479,2.442v.555A2.156,2.156,0,0,0,4.81-18.8ZM4.7.3h.925c1.887,0,3-1.221,2.553-3.256L6.7-14.874c-.259-1.073-.555-1.665-1.295-1.665H4.884c-.777,0-1.11.592-1.369,1.665L2.035-2.96A2.463,2.463,0,0,0,4.7.3ZM14.652.148h.777a2.2,2.2,0,0,0,2.4-2.479V-7.77H21.46c6.4,0,9.805-2.738,9.805-8.066,0-5.291-3.515-8.1-9.842-8.1H15.207a2.7,2.7,0,0,0-2.849,3.034V-2.331C12.358-.7,13.172.148,14.652.148Zm6.7-12.025H17.76v-7.807h3.552c3.034,0,4.625,1.332,4.625,3.885S24.346-11.877,21.349-11.877Zm22.274-6.586a4.509,4.509,0,0,0-4.477,3.441,8.28,8.28,0,0,0-.259-1.258,2.884,2.884,0,0,0-2.849-1.961c-1.073,0-1.961.407-1.961.592V-2.331c0,1.924.962,2.479,2.368,2.479H37c1.332,0,2.294-.592,2.294-2.479v-5.4c0-3.626,1.11-5.846,3.626-5.846a3.613,3.613,0,0,1,2.368.888,2.7,2.7,0,0,0,1.665-2.738C46.953-17.279,45.695-18.463,43.623-18.463Zm3.7,9.435c0,5.7,3.848,9.546,9.583,9.546s9.657-3.848,9.657-9.472-3.885-9.509-9.583-9.509C51.245-18.463,47.323-14.578,47.323-9.028Zm14.615.074a5.046,5.046,0,0,1-5,5.365c-2.923,0-5.032-2.294-5.032-5.439a5.032,5.032,0,0,1,5.032-5.365C59.866-14.393,61.938-12.136,61.938-8.954ZM76.923.518A5.4,5.4,0,0,0,80.808-.814a2.643,2.643,0,0,0,.888-2,2.05,2.05,0,0,0-1.3-2.035,2.649,2.649,0,0,1-2.257,1.221c-1.443,0-2-.888-2-2.664v-7.7h3.182c1.48,0,2.146-.666,2.146-1.924v-.333c0-1.184-.629-1.813-2.109-1.813H76.22V-20.35c0-1.924-.925-2.516-2.294-2.516h-.481c-1.48,0-2.331.814-2.331,2.516v2.294h-.962c-1.443,0-2.109.7-2.109,1.924v.3c0,1.184.666,1.85,2.146,1.85h.925V-5.7C71.114-1.591,72.964.518,76.923.518Zm6.216-9.4c0,5.735,3.848,9.4,9.731,9.4A11.053,11.053,0,0,0,98.642-.851a3.527,3.527,0,0,0,2-2.812c0-2.072-2.516-2.294-2.553-2.22a5.382,5.382,0,0,1-5.069,2.627,5.012,5.012,0,0,1-5.18-3.885l-.111-.592h12.506c.962,0,1.221-.481,1.258-1.369v-.333A8.594,8.594,0,0,0,92.5-18.463C87.061-18.463,83.139-14.393,83.139-8.88Zm13.542-1.7H87.8a4.67,4.67,0,0,1,4.662-4.292C94.942-14.874,96.533-13.209,96.681-10.582ZM111.666,7.807c6.179,0,9.731-2.22,9.731-5.7,0-3.034-2.664-4.4-5.217-5.069-2.516-.666-4.07-.777-4.329-1.665a.676.676,0,0,1-.259-.592c.259,0,.481-.037.74-.037,4.7-.111,7.77-2.7,7.77-6.438a5.919,5.919,0,0,0-1.591-4l3.108-3.071a2.835,2.835,0,0,0-2.553-2.183,2.8,2.8,0,0,0-2.59,1.813l-.814,1.517a9.316,9.316,0,0,0-3.848-.851c-4.773,0-8.214,2.96-8.214,6.845,0,2.849,1.85,5.069,4.958,5.957A2.529,2.529,0,0,0,107.3-3.589a2.283,2.283,0,0,0,.666,1.665c-3.256.481-5.624,2.22-5.624,4.773C102.342,6.179,105.228,7.807,111.666,7.807Zm.185-16.021a3.351,3.351,0,0,1-3.515-3.478,3.282,3.282,0,0,1,3.441-3.441,3.312,3.312,0,0,1,3.552,3.441A3.321,3.321,0,0,1,111.851-8.214Zm-.074,13.172c-3.071,0-4.625-.777-4.625-2.146,0-1.554,2.035-2.479,4.7-2.664.592.111,1.147.259,1.665.37,1.7.444,3,.925,3,2.109C116.513,4.107,114.848,4.958,111.777,4.958ZM122.47-8.88c0,5.735,3.848,9.4,9.731,9.4a11.053,11.053,0,0,0,5.772-1.369,3.527,3.527,0,0,0,2-2.812c0-2.072-2.516-2.294-2.553-2.22a5.382,5.382,0,0,1-5.069,2.627,5.012,5.012,0,0,1-5.18-3.885l-.111-.592h12.506c.962,0,1.221-.481,1.258-1.369v-.333a8.594,8.594,0,0,0-8.991-9.028C126.392-18.463,122.47-14.393,122.47-8.88Zm13.542-1.7h-8.88a4.67,4.67,0,0,1,4.662-4.292C134.273-14.874,135.864-13.209,136.012-10.582Zm13.1,5.809c0,3.108,2.294,5.18,6.068,5.18A7.215,7.215,0,0,0,161.431-2.7a7.393,7.393,0,0,0,.3,1.221A2.694,2.694,0,0,0,164.465.259c1,0,1.961-.333,1.961-.592V-10.989c0-4.847-2.775-7.474-8.51-7.474-3.478,0-5.809.851-7.03,2.109a3.3,3.3,0,0,0-1.11,2.368c0,2.405,3.33,2.146,3.367,2.072a4.523,4.523,0,0,1,4.44-2.627c2.294,0,3.589,1.147,3.663,3.256a2.275,2.275,0,0,1,.037.518h-.592C153.032-10.656,149.11-8.806,149.11-4.773Zm12.173-2.072c-.037,2.294-1.887,3.885-4.477,3.885-1.739,0-2.812-.851-2.812-2.22,0-2.035,2.183-2.812,6.29-2.96h1ZM178.932.148h.555c1.332,0,2.294-.592,2.294-2.479v-19.2c0-3.367-1.7-4.181-3.256-4.181a2.893,2.893,0,0,0-1.961.592V-2.331C176.564-.407,177.563.148,178.932.148Zm5.994-9.176c0,5.7,3.848,9.546,9.583,9.546s9.657-3.848,9.657-9.472-3.885-9.509-9.583-9.509C188.848-18.463,184.926-14.578,184.926-9.028Zm14.615.074a5.046,5.046,0,0,1-4.995,5.365c-2.923,0-5.032-2.294-5.032-5.439a5.032,5.032,0,0,1,5.032-5.365C197.469-14.393,199.541-12.136,199.541-8.954Zm7.992,7.992A11.882,11.882,0,0,0,213.749.407c5.069,0,7.955-2.183,7.955-5.809,0-4.07-4.07-4.884-6.623-5.439-2.442-.555-3.848-.814-3.848-2.109,0-1.147,1.073-1.887,3.071-1.887a7.17,7.17,0,0,1,5.291,2.442,2.59,2.59,0,0,0,1.665-2.183,2.668,2.668,0,0,0-.444-1.48c-.925-1.406-3.182-2.405-6.845-2.405-4.662,0-7.511,2.331-7.511,5.846,0,4.07,3.848,4.884,6.327,5.4,2.4.518,3.848.777,3.848,2.183,0,1.147-1.11,1.85-3.145,1.85a7.894,7.894,0,0,1-5.957-2.442,2.3,2.3,0,0,0-1.591,2.072A3.149,3.149,0,0,0,207.533-.962Zm39.923-17.279c-1.221,0-2.664.481-3.071,2.849a6.626,6.626,0,0,0-5.883-3.071c-4.995,0-8.4,3.737-8.4,9.472,0,5.661,3.4,9.509,8.288,9.509A6.582,6.582,0,0,0,244.2-2.775V4.7c0,1.887,1,2.516,2.331,2.516h.555c1.369,0,2.331-.592,2.331-2.516V-17.649A2.8,2.8,0,0,0,247.456-18.241ZM244.237-7.992a4.363,4.363,0,0,1-4.551,4.329c-2.7,0-4.625-2.183-4.625-5.328,0-3.256,1.887-5.291,4.7-5.291a4.61,4.61,0,0,1,4.477,2.923Zm24.309-10.249h-.555c-1.332,0-2.257.629-2.257,2.516v9.472a4.389,4.389,0,0,1-3.922,2.368c-2.146,0-3.4-1.443-3.4-3.885v-7.955c0-1.924-.962-2.516-2.331-2.516h-.592c-1.3,0-2.257.629-2.257,2.516v8.732c0,4.181,1.961,7.474,6.66,7.474a6.817,6.817,0,0,0,5.957-3.293,6.054,6.054,0,0,0,.185,1A2.893,2.893,0,0,0,268.953.148c1.036,0,1.961-.407,1.961-.592V-15.725C270.914-17.649,269.952-18.241,268.546-18.241Zm5,9.361c0,5.735,3.848,9.4,9.731,9.4a11.053,11.053,0,0,0,5.772-1.369,3.527,3.527,0,0,0,2-2.812c0-2.072-2.516-2.294-2.553-2.22a5.382,5.382,0,0,1-5.069,2.627,5.012,5.012,0,0,1-5.18-3.885l-.111-.592h12.506c.962,0,1.221-.481,1.258-1.369v-.333a8.6,8.6,0,0,0-8.991-9.028C277.463-18.463,273.541-14.393,273.541-8.88Zm13.542-1.7H278.2a4.67,4.67,0,0,1,4.662-4.292C285.344-14.874,286.935-13.209,287.083-10.582ZM323.6-18.463a6.744,6.744,0,0,0-6.068,3.7,5.711,5.711,0,0,0-5.772-3.7,6.485,6.485,0,0,0-5.587,3.182c-.407-2.4-1.813-2.96-3.108-2.96-1.036,0-1.961.407-1.961.592V-2.331c0,1.924.962,2.479,2.368,2.479h.555c1.332,0,2.294-.592,2.294-2.479v-9.546a4.2,4.2,0,0,1,3.552-2.22c2.072,0,3.108,1.258,3.108,3.737v8.029c0,1.924,1,2.479,2.368,2.479h.555c1.332,0,2.294-.592,2.294-2.479v-9.546a4.2,4.2,0,0,1,3.552-2.22c2.109,0,3.145,1.258,3.145,3.626v8.14c0,1.924.962,2.479,2.368,2.479h.555c1.332,0,2.294-.592,2.294-2.479v-8.954C330.114-15.54,328.19-18.463,323.6-18.463Zm15.725-1.85c1.554,0,6.956-1.85,6.956-4.662a2.04,2.04,0,0,0-2.109-2.183c-3.071,0-5.587,5.18-5.587,6.327C338.587-20.424,338.846-20.313,339.327-20.313Zm-6.4,15.54c0,3.108,2.294,5.18,6.068,5.18A7.215,7.215,0,0,0,345.247-2.7a7.392,7.392,0,0,0,.3,1.221A2.694,2.694,0,0,0,348.281.259c1,0,1.961-.333,1.961-.592V-10.989c0-4.847-2.775-7.474-8.51-7.474-3.478,0-5.809.851-7.03,2.109a3.3,3.3,0,0,0-1.11,2.368c0,2.405,3.33,2.146,3.367,2.072a4.523,4.523,0,0,1,4.44-2.627c2.294,0,3.589,1.147,3.663,3.256a2.276,2.276,0,0,1,.037.518h-.592C336.848-10.656,332.926-8.806,332.926-4.773ZM345.1-6.845c-.037,2.294-1.887,3.885-4.477,3.885-1.739,0-2.812-.851-2.812-2.22,0-2.035,2.183-2.812,6.29-2.96h1Zm9.287,5.883A11.882,11.882,0,0,0,360.6.407c5.069,0,7.955-2.183,7.955-5.809,0-4.07-4.07-4.884-6.623-5.439-2.442-.555-3.848-.814-3.848-2.109,0-1.147,1.073-1.887,3.071-1.887a7.17,7.17,0,0,1,5.291,2.442,2.59,2.59,0,0,0,1.665-2.183,2.668,2.668,0,0,0-.444-1.48c-.925-1.406-3.182-2.405-6.845-2.405-4.662,0-7.511,2.331-7.511,5.846,0,4.07,3.848,4.884,6.327,5.4,2.4.518,3.848.777,3.848,2.183,0,1.147-1.11,1.85-3.145,1.85a7.894,7.894,0,0,1-5.957-2.442A2.3,2.3,0,0,0,352.8-3.552,3.149,3.149,0,0,0,354.386-.962Zm22.57-3.811c0,3.108,2.294,5.18,6.068,5.18A7.215,7.215,0,0,0,389.277-2.7a7.4,7.4,0,0,0,.3,1.221A2.7,2.7,0,0,0,392.311.259c1,0,1.961-.333,1.961-.592V-10.989c0-4.847-2.775-7.474-8.51-7.474-3.478,0-5.809.851-7.03,2.109a3.3,3.3,0,0,0-1.11,2.368c0,2.405,3.33,2.146,3.367,2.072a4.523,4.523,0,0,1,4.44-2.627c2.294,0,3.589,1.147,3.663,3.256a2.274,2.274,0,0,1,.037.518h-.592C380.878-10.656,376.956-8.806,376.956-4.773Zm12.173-2.072c-.037,2.294-1.887,3.885-4.477,3.885-1.739,0-2.812-.851-2.812-2.22,0-2.035,2.183-2.812,6.29-2.96h1Zm31.376-11.618a6.744,6.744,0,0,0-6.068,3.7,5.711,5.711,0,0,0-5.772-3.7,6.485,6.485,0,0,0-5.587,3.182c-.407-2.4-1.813-2.96-3.108-2.96-1.036,0-1.961.407-1.961.592V-2.331c0,1.924.962,2.479,2.368,2.479h.555c1.332,0,2.294-.592,2.294-2.479v-9.546a4.2,4.2,0,0,1,3.552-2.22c2.072,0,3.108,1.258,3.108,3.737v8.029c0,1.924,1,2.479,2.368,2.479h.555c1.332,0,2.294-.592,2.294-2.479v-9.546a4.2,4.2,0,0,1,3.552-2.22c2.109,0,3.145,1.258,3.145,3.626v8.14c0,1.924.962,2.479,2.368,2.479h.555c1.332,0,2.294-.592,2.294-2.479v-8.954C427.017-15.54,425.093-18.463,420.505-18.463Zm9.324,13.69c0,3.108,2.294,5.18,6.068,5.18A7.215,7.215,0,0,0,442.15-2.7a7.4,7.4,0,0,0,.3,1.221A2.7,2.7,0,0,0,445.184.259c1,0,1.961-.333,1.961-.592V-10.989c0-4.847-2.775-7.474-8.51-7.474-3.478,0-5.809.851-7.03,2.109a3.3,3.3,0,0,0-1.11,2.368c0,2.405,3.33,2.146,3.367,2.072a4.523,4.523,0,0,1,4.44-2.627c2.294,0,3.589,1.147,3.663,3.256a2.274,2.274,0,0,1,.037.518h-.592C433.751-10.656,429.829-8.806,429.829-4.773ZM442-6.845c-.037,2.294-1.887,3.885-4.477,3.885-1.739,0-2.812-.851-2.812-2.22,0-2.035,2.183-2.812,6.29-2.96h1Zm9.287,5.883A11.882,11.882,0,0,0,457.505.407c5.069,0,7.955-2.183,7.955-5.809,0-4.07-4.07-4.884-6.623-5.439-2.442-.555-3.848-.814-3.848-2.109,0-1.147,1.073-1.887,3.071-1.887a7.17,7.17,0,0,1,5.291,2.442,2.59,2.59,0,0,0,1.665-2.183,2.668,2.668,0,0,0-.444-1.48c-.925-1.406-3.182-2.405-6.845-2.405-4.662,0-7.511,2.331-7.511,5.846,0,4.07,3.848,4.884,6.327,5.4,2.4.518,3.848.777,3.848,2.183,0,1.147-1.11,1.85-3.145,1.85a7.894,7.894,0,0,1-5.957-2.442A2.3,2.3,0,0,0,449.7-3.552,3.149,3.149,0,0,0,451.289-.962ZM482.147.518a6.55,6.55,0,0,0,5.883-3.441c0,.444.037.851.074,1.258.185,1.406,1.073,1.813,2.257,1.813h.518c1.369,0,2.294-.592,2.294-2.479v-19.2c0-3.367-1.7-4.181-3.256-4.181a2.893,2.893,0,0,0-1.961.592v9.4a6.77,6.77,0,0,0-5.7-2.738c-4.995,0-8.4,3.737-8.4,9.472C473.859-3.33,477.263.518,482.147.518Zm5.846-8.51a4.34,4.34,0,0,1-4.551,4.329c-2.7,0-4.625-2.183-4.625-5.328,0-3.256,1.887-5.291,4.7-5.291a4.58,4.58,0,0,1,4.477,2.886Zm8.214-.888c0,5.735,3.848,9.4,9.731,9.4A11.053,11.053,0,0,0,511.71-.851a3.527,3.527,0,0,0,2-2.812c0-2.072-2.516-2.294-2.553-2.22a5.382,5.382,0,0,1-5.069,2.627,5.012,5.012,0,0,1-5.18-3.885l-.111-.592H513.3c.962,0,1.221-.481,1.258-1.369v-.333a8.594,8.594,0,0,0-8.991-9.028C500.129-18.463,496.207-14.393,496.207-8.88Zm13.542-1.7h-8.88a4.67,4.67,0,0,1,4.662-4.292C508.01-14.874,509.6-13.209,509.749-10.582Zm8.14,9.62A11.883,11.883,0,0,0,524.1.407c5.069,0,7.955-2.183,7.955-5.809,0-4.07-4.07-4.884-6.623-5.439-2.442-.555-3.848-.814-3.848-2.109,0-1.147,1.073-1.887,3.071-1.887a7.17,7.17,0,0,1,5.291,2.442,2.59,2.59,0,0,0,1.665-2.183,2.668,2.668,0,0,0-.444-1.48c-.925-1.406-3.182-2.405-6.845-2.405-4.662,0-7.511,2.331-7.511,5.846,0,4.07,3.848,4.884,6.327,5.4,2.4.518,3.848.777,3.848,2.183,0,1.147-1.11,1.85-3.145,1.85a7.894,7.894,0,0,1-5.957-2.442A2.3,2.3,0,0,0,516.3-3.552,3.149,3.149,0,0,0,517.889-.962ZM542.457.518a6.55,6.55,0,0,0,5.883-3.441c0,.444.037.851.074,1.258C548.6-.259,549.487.148,550.671.148h.518c1.369,0,2.294-.592,2.294-2.479v-19.2c0-3.367-1.7-4.181-3.256-4.181a2.893,2.893,0,0,0-1.961.592v9.4a6.77,6.77,0,0,0-5.7-2.738c-4.995,0-8.4,3.737-8.4,9.472C534.169-3.33,537.573.518,542.457.518Zm5.846-8.51a4.34,4.34,0,0,1-4.551,4.329c-2.7,0-4.625-2.183-4.625-5.328,0-3.256,1.887-5.291,4.7-5.291A4.58,4.58,0,0,1,548.3-11.4Zm8.214-.888c0,5.735,3.848,9.4,9.731,9.4A11.053,11.053,0,0,0,572.02-.851a3.527,3.527,0,0,0,2-2.812c0-2.072-2.516-2.294-2.553-2.22A5.382,5.382,0,0,1,566.4-3.256a5.012,5.012,0,0,1-5.18-3.885l-.111-.592h12.506c.962,0,1.221-.481,1.258-1.369v-.333a8.594,8.594,0,0,0-8.991-9.028C560.439-18.463,556.517-14.393,556.517-8.88Zm13.542-1.7h-8.88a4.669,4.669,0,0,1,4.662-4.292C568.32-14.874,569.911-13.209,570.059-10.582Zm25.012-7.881a6.461,6.461,0,0,0-5.772,3.256v-6.327c0-3.367-1.739-4.181-3.256-4.181a2.8,2.8,0,0,0-1.961.592V-2.331c0,1.924.962,2.479,2.331,2.479h.555c1.332,0,2.331-.592,2.331-2.479V-9.879c0-2.627,1.517-4.218,3.959-4.218,2.072,0,3.33,1.48,3.33,3.959v7.807c0,1.924.962,2.479,2.331,2.479h.555c1.332,0,2.331-.592,2.331-2.479v-8.51C601.8-15.059,599.807-18.463,595.071-18.463Zm9.546,9.435c0,5.7,3.848,9.546,9.583,9.546s9.657-3.848,9.657-9.472-3.885-9.509-9.583-9.509C608.539-18.463,604.617-14.578,604.617-9.028Zm14.615.074a5.046,5.046,0,0,1-4.995,5.365c-2.923,0-5.032-2.294-5.032-5.439a5.032,5.032,0,0,1,5.032-5.365C617.16-14.393,619.232-12.136,619.232-8.954ZM632.848,7.1c1.147,0,2.183-.592,2.96-2.553L644.022-16.8c.111-.259-1.369-1.48-2.812-1.48-1.184,0-2.294.629-2.923,2.664L634.809-5.291l-3.848-10.36c-.666-2-1.7-2.627-2.96-2.627-1.591.037-2.96,1.258-2.849,1.554l6.216,14.393a1.863,1.863,0,0,0,1.665,1.184l-2.96,6.808C629.962,5.92,631.331,7.1,632.848,7.1ZM648.092-7.437h.555c.777,0,1.11-.555,1.332-1.665l1.48-11.877c.444-2.072-.666-3.293-2.627-3.293h-.962c-1.85,0-2.96,1.221-2.553,3.293L646.8-9.1C647.056-7.992,647.389-7.437,648.092-7.437ZM648.055.3h.629A2.208,2.208,0,0,0,651.2-2.183V-2.7a2.208,2.208,0,0,0-2.516-2.479h-.629A2.211,2.211,0,0,0,645.576-2.7v.518A2.211,2.211,0,0,0,648.055.3Z" transform="translate(873 579)"/><g class="g" transform="translate(-27.5 5.513)"><path class="h" d="M0,0H79.563" transform="translate(1128.5 529.944)"/><path class="h" d="M0,0H79.563" transform="translate(1245.558 529.944)"/><circle class="e" cx="5.487" cy="5.487" r="5.487" transform="translate(1221.323 524)"/></g><g transform="translate(879 255.182)"><g class="i" transform="translate(0 0)"><path class="e" d="M0,21.34c0-3.289,1.751-4.9,4.675-4.9H6.063c3.07,0,4.678,1.608,4.678,4.9V44.065c0,7.525,3.213,11.4,9.572,11.4,6.505,0,9.575-3.728,9.575-11.472V21.34c0-3.289,1.678-4.9,4.678-4.9h1.462c3.067,0,4.6,1.608,4.6,4.9V44.065c0,13.592-7.014,20.755-20.389,20.755C6.941,64.82,0,57.806,0,44.138Zm13.592-9.283C13.592,9.791,18.928,0,24.915,0A4.031,4.031,0,0,1,29.23,4.166c0,5.625-11.107,8.914-14.107,8.914-1.02,0-1.532-.219-1.532-1.023" transform="translate(0 0)"/><path class="e" d="M15.3,50.346V5.331c0-.3,1.824-1.169,3.874-1.169,3.07,0,6.429,1.608,6.429,8.256V50.346c0,3.724-1.9,4.894-4.532,4.894H19.973c-2.708,0-4.678-1.1-4.678-4.894" transform="translate(33.311 9.065)"/><path class="e" d="M26.215,39.84V23.471H24.387c-2.924,0-4.239-1.316-4.239-3.655v-.582c0-2.412,1.316-3.8,4.163-3.8h1.9V10.905c0-3.365,1.678-4.973,4.6-4.973h.95c2.7,0,4.532,1.169,4.532,4.973v4.525h6.21c2.924,0,4.166,1.243,4.166,3.581v.658c0,2.485-1.316,3.8-4.239,3.8H36.152v15.2c0,3.505,1.1,5.259,3.944,5.259a5.217,5.217,0,0,0,4.459-2.412c.369-.146,2.558,1.316,2.558,4.02a5.21,5.21,0,0,1-1.754,3.947c-1.6,1.608-4.239,2.631-7.675,2.631-7.818,0-11.469-4.166-11.469-12.276" transform="translate(43.88 12.92)"/><path class="e" d="M35.9,3.794c3.581,0,5.774,2.043,5.774,5.336s-2.12,5.333-5.774,5.333c-3.508,0-5.774-2.043-5.774-5.333s2.2-5.336,5.774-5.336M30.716,24.7c0-3.728,1.97-4.97,4.6-4.97h1.1c2.708,0,4.6,1.169,4.6,4.97V51.148c0,3.724-1.9,4.894-4.6,4.894h-1.02c-2.777,0-4.678-1.093-4.678-4.894Z" transform="translate(65.616 8.263)"/><path class="e" d="M93.355,22.846V40.531c0,3.724-1.9,4.894-4.532,4.894h-1.1c-2.777,0-4.675-1.093-4.675-4.894V24.454c0-4.678-2.05-7.16-6.213-7.16a8.3,8.3,0,0,0-7.014,4.382V40.531c0,3.724-1.9,4.894-4.532,4.894H64.2c-2.7,0-4.675-1.093-4.675-4.894V24.673c0-4.9-2.05-7.379-6.14-7.379a8.3,8.3,0,0,0-7.017,4.382V40.531c0,3.724-1.9,4.894-4.532,4.894h-1.1c-2.777,0-4.675-1.093-4.675-4.894V10.277c0-.365,1.827-1.169,3.871-1.169,2.558,0,5.336,1.1,6.14,5.847,2.412-3.581,5.847-6.286,11.034-6.286,5.92,0,9.648,2.851,11.4,7.309,2.409-4.093,6.063-7.309,11.981-7.309,9.063,0,12.864,5.771,12.864,14.177" transform="translate(78.544 18.881)"/><path class="e" d="M78.714,23.869h1.169a4.7,4.7,0,0,0-.07-1.023c-.146-4.166-2.708-6.432-7.236-6.432-4.9,0-7.528,2.488-8.771,5.19-.073.146-6.648.658-6.648-4.093a6.517,6.517,0,0,1,2.193-4.675c2.412-2.485,7.014-4.166,13.881-4.166,11.329,0,16.808,5.19,16.808,14.761V44.478c0,.512-1.9,1.169-3.871,1.169a5.327,5.327,0,0,1-5.409-3.435,14.936,14.936,0,0,1-.585-2.412c-2.482,3.874-7.014,6.14-12.349,6.14-7.455,0-11.984-4.1-11.984-10.233,0-7.964,7.745-11.618,22.871-11.838m1.169,5.19H77.91c-8.11.292-12.419,1.824-12.419,5.844,0,2.7,2.116,4.386,5.552,4.386,5.113,0,8.771-3.143,8.841-7.671Z" transform="translate(121.62 18.881)"/><path class="e" d="M91.336,8.669c11.253,0,18.931,7.675,18.931,18.781s-7.748,18.708-19.074,18.708S72.265,38.557,72.265,27.3c0-10.961,7.745-18.635,19.071-18.635m-.07,8.037c-5.774,0-9.94,4.459-9.94,10.6,0,6.21,4.166,10.741,9.94,10.741,5.7,0,9.864-4.532,9.864-10.6,0-6.286-4.093-10.744-9.864-10.744" transform="translate(157.386 18.881)"/><path class="e" d="M124.281,27.307c0,11.107-6.721,18.851-16.516,18.851a12.614,12.614,0,0,1-11.4-6.505V54.415c0,3.728-1.9,4.97-4.529,4.97h-1.1c-2.777,0-4.678-1.169-4.678-4.97V10.277c0-.365,1.827-1.169,3.947-1.169,2.339,0,5.04,1.1,5.92,4.97.07.292.146,1.023.216,1.608a12.5,12.5,0,0,1,11.695-7.017c9.645,0,16.439,7.236,16.439,18.638m-9.864.07c0-6.286-3.728-10.449-9.063-10.449a9.267,9.267,0,0,0-8.987,5.847V29.5c0,4.967,4.02,8.406,8.844,8.406,5.555,0,9.206-4.239,9.206-10.525" transform="translate(187.439 18.881)"/><path class="e" d="M118.454,8.669c11.253,0,18.928,7.675,18.928,18.781s-7.745,18.708-19.071,18.708S99.38,38.557,99.38,27.3c0-10.961,7.748-18.635,19.074-18.635m-.073,8.037c-5.771,0-9.937,4.459-9.937,10.6,0,6.21,4.166,10.741,9.937,10.741,5.7,0,9.864-4.532,9.864-10.6,0-6.286-4.09-10.744-9.864-10.744" transform="translate(216.439 18.881)"/><path class="e" d="M138.612,14.663c0,4.093-3.14,5.555-3.286,5.406a7.15,7.15,0,0,0-4.678-1.754c-4.97,0-7.163,4.385-7.163,11.548V40.534c0,3.724-1.9,4.894-4.532,4.894H117.86c-2.777,0-4.678-1.1-4.678-4.894V10.277c0-.365,1.754-1.169,3.874-1.169a5.693,5.693,0,0,1,5.625,3.874,15.613,15.613,0,0,1,.512,2.485c1.389-4.239,4.385-6.8,8.844-6.8,4.093,0,6.575,2.342,6.575,5.994" transform="translate(246.499 18.881)"/><path class="e" d="M127.87,39.84V23.471h-1.824c-2.924,0-4.239-1.316-4.239-3.655v-.582c0-2.412,1.316-3.8,4.163-3.8h1.9V10.905c0-3.365,1.681-4.973,4.6-4.973h.95c2.7,0,4.532,1.169,4.532,4.973v4.525h6.21c2.924,0,4.166,1.243,4.166,3.581v.658c0,2.485-1.316,3.8-4.239,3.8h-6.283v15.2c0,3.505,1.1,5.259,3.944,5.259a5.217,5.217,0,0,0,4.459-2.412c.365-.146,2.558,1.316,2.558,4.02a5.21,5.21,0,0,1-1.754,3.947c-1.6,1.608-4.239,2.631-7.675,2.631-7.818,0-11.472-4.166-11.472-12.276" transform="translate(265.283 12.92)"/><path class="e" d="M166.487,13.777V43.955c0,.365-1.824,1.169-3.874,1.169a5.716,5.716,0,0,1-5.771-3.871,12.007,12.007,0,0,1-.365-1.977,13.466,13.466,0,0,1-11.768,6.505c-9.276,0-13.15-6.505-13.15-14.758V13.777c0-3.728,1.9-4.97,4.455-4.97h1.169c2.7,0,4.6,1.169,4.6,4.97V29.486c0,4.824,2.485,7.675,6.724,7.675a8.671,8.671,0,0,0,7.745-4.675V13.777c0-3.728,1.824-4.97,4.459-4.97h1.093c2.777,0,4.678,1.169,4.678,4.97" transform="translate(286.522 19.181)"/><path class="e" d="M179.995,23.357V40.531c0,3.724-1.973,4.894-4.6,4.894h-1.1c-2.7,0-4.6-1.093-4.6-4.894V24.965c0-4.748-2.412-7.671-6.578-7.671a8.614,8.614,0,0,0-7.818,4.675V40.531c0,3.724-1.9,4.894-4.532,4.894h-1.1c-2.778,0-4.678-1.093-4.678-4.894V10.277c0-.365,1.83-1.169,3.874-1.169,2.777,0,5.555,1.389,6.14,5.99a13.519,13.519,0,0,1,11.765-6.429c9.279,0,13.226,6.575,13.226,14.688" transform="translate(315.773 18.881)"/><path class="e" d="M163.988,3.794c3.581,0,5.774,2.043,5.774,5.336s-2.12,5.333-5.774,5.333c-3.508,0-5.774-2.043-5.774-5.333s2.2-5.336,5.774-5.336M158.8,24.7c0-3.728,1.97-4.97,4.6-4.97h1.1c2.708,0,4.6,1.169,4.6,4.97V51.148c0,3.724-1.9,4.894-4.6,4.894h-1.02c-2.778,0-4.678-1.093-4.678-4.894Z" transform="translate(344.574 8.263)"/><path class="e" d="M163.573,37.191c0-11.329,6.724-18.711,16.589-18.711,5.116,0,9.206,2.345,11.256,5.415V5.332c0-.3,1.824-1.169,3.871-1.169,3.07,0,6.432,1.6,6.432,8.253V50.344c0,3.724-1.827,4.894-4.532,4.894h-1.023c-2.339,0-4.09-.8-4.459-3.581-.073-.8-.146-1.608-.146-2.482a12.938,12.938,0,0,1-11.618,6.794c-9.645,0-16.369-7.6-16.369-18.778m27.915-4.751a9.045,9.045,0,0,0-8.841-5.7c-5.555,0-9.279,4.023-9.279,10.452,0,6.21,3.8,10.522,9.133,10.522,4.9,0,8.987-3.435,8.987-8.549Z" transform="translate(356.245 9.067)"/><path class="e" d="M200.336,23.869h1.169a4.692,4.692,0,0,0-.07-1.023c-.146-4.166-2.708-6.432-7.236-6.432-4.9,0-7.529,2.488-8.771,5.19-.073.146-6.648.658-6.648-4.093a6.517,6.517,0,0,1,2.193-4.675c2.412-2.485,7.014-4.166,13.881-4.166,11.329,0,16.808,5.19,16.808,14.761V44.478c0,.512-1.9,1.169-3.871,1.169a5.327,5.327,0,0,1-5.409-3.435A14.937,14.937,0,0,1,201.8,39.8c-2.482,3.874-7.014,6.14-12.349,6.14-7.455,0-11.984-4.1-11.984-10.233,0-7.964,7.745-11.618,22.871-11.838m1.169,5.19h-1.974c-8.11.292-12.422,1.824-12.422,5.844,0,2.7,2.12,4.386,5.555,4.386,5.113,0,8.771-3.143,8.841-7.671Z" transform="translate(386.501 18.881)"/><path class="e" d="M189.977,37.191c0-11.329,6.724-18.711,16.589-18.711,5.116,0,9.206,2.345,11.256,5.415V5.332c0-.3,1.824-1.169,3.871-1.169,3.07,0,6.432,1.6,6.432,8.253V50.344c0,3.724-1.827,4.894-4.532,4.894H222.57c-2.339,0-4.09-.8-4.459-3.581-.073-.8-.146-1.608-.146-2.482a12.938,12.938,0,0,1-11.618,6.794c-9.645,0-16.369-7.6-16.369-18.778m27.915-4.751a9.045,9.045,0,0,0-8.841-5.7c-5.555,0-9.279,4.023-9.279,10.452,0,6.21,3.8,10.522,9.133,10.522,4.9,0,8.987-3.435,8.987-8.549Z" transform="translate(413.75 9.067)"/></g></g></g></svg>