<svg xmlns="http://www.w3.org/2000/svg" viewBox="0 0 155.57 155.43"><defs><style>.cls-1{fill:#454a6c;}.cls-2{fill:#0855c4;}.cls-3{fill:#00adee;}.cls-4{opacity:0.17;}</style></defs><title>100 online</title><g id="Capa_2" data-name="Capa 2"><g id="Capa_1-2" data-name="Capa 1"><path class="cls-1" d="M12,39.28l-1.3-.76a77.73,77.73,0,0,1,125.5-12.11l-1.13,1A76.22,76.22,0,0,0,12,39.28Z"/><path class="cls-1" d="M77.85,155.43A77.76,77.76,0,0,1,5,50.56l1.4.52a76.23,76.23,0,1,0,134.63-16l1.25-.84A77.73,77.73,0,0,1,77.85,155.43Z"/><path class="cls-2" d="M72.6,153.75h-4l0-18a2.32,2.32,0,0,0-.86-1.65c-3.94-3.56-17.32-15.45-23.81-19.14a3.51,3.51,0,0,1-1.86-3.15,3.32,3.32,0,0,1,2-2.88,18.28,18.28,0,0,1,16.64.6L53.54,82.16a3.42,3.42,0,0,1,.7-2.73,7.81,7.81,0,0,1,5.13-2.63,5.78,5.78,0,0,1,5.93,3.09l5.26,11.89,1.12-17c.3-2.78,4.07-5,6.8-4.79a5.09,5.09,0,0,1,4.92,4.36l1,13.58,4.2-11.59c.9-2.49,4.08-3.74,6.95-2.74,1.16.41,4.92,2,4.47,4.9l-2.43,12,3-4.57A5.52,5.52,0,0,1,107,84.13,8.75,8.75,0,0,1,110,86c1.8,1.72,1.62,3.26,1.35,4l-.06.15-6.4,14.28A37.67,37.67,0,0,0,102.78,115c-.28,5.54-1.75,13.51-7.22,20a3,3,0,0,0-.78,2.35l2,15-4,.53-2-15a7,7,0,0,1,1.69-5.46c4.75-5.64,6-12.7,6.28-17.63A41.89,41.89,0,0,1,101.15,103l.07-.15,6.2-13.83a4.84,4.84,0,0,0-1.73-1.15,1.68,1.68,0,0,0-1.7.25L89.63,110,96,78.32a6,6,0,0,0-1.75-.92,1.69,1.69,0,0,0-1.87.32l-10.52,29L79.41,74.68c0-.14-.43-.61-1.27-.68a3.74,3.74,0,0,0-2.48,1.25l-2.18,33L61.64,81.51a1.93,1.93,0,0,0-1.87-.73,4.29,4.29,0,0,0-2.22.93L68,120.94l-5.15-5c-6.17-5.93-12.22-5.24-15.86-3.92,6.87,4.27,18.59,14.62,23.49,19a6.22,6.22,0,0,1,2.18,4.63Z"/><rect class="cls-2" x="65.2" y="40.77" width="4" height="10.42" transform="translate(-13.11 32.54) rotate(-24.88)"/><rect class="cls-2" x="89.11" y="45.81" width="10.42" height="4" transform="translate(1.82 99.07) rotate(-55.88)"/><rect class="cls-2" x="73.77" y="35.08" width="14.33" height="4" transform="translate(37.84 114.98) rotate(-85.66)"/><path class="cls-3" d="M135.93,76.38,99.64,68.07l1.57-10.87a171.83,171.83,0,0,1,6.31-27.55l3.32-10.48,36.24,8.3-2.82,8.39a168,168,0,0,0-7.88,36.2ZM104.13,65l28.29,6.48a172.34,172.34,0,0,1,8.05-36.89l1.41-4.21-28.34-6.49-2.21,7a169,169,0,0,0-6.16,26.92Z"/><g class="cls-4"><path class="cls-3" d="M136.18,74l-32.29-7.39,1.3-9.05a171.68,171.68,0,0,1,6.23-27.24l2.77-8.71L146.48,29l-2.12,6.3a170.65,170.65,0,0,0-8,36.62Z"/></g><rect class="cls-3" x="14.25" y="42.36" width="21.22" height="4" transform="translate(-21.86 24.29) rotate(-37.48)"/><rect class="cls-3" x="21.08" y="50.8" width="21.22" height="4" transform="translate(-25.59 30.18) rotate(-37.48)"/><rect class="cls-3" x="121.97" y="31.15" width="4" height="14.47" transform="translate(63.86 153.4) rotate(-79.61)"/><rect class="cls-3" x="120.03" y="40.27" width="4" height="14.47" transform="translate(53.29 158.97) rotate(-79.61)"/><rect class="cls-3" x="118.02" y="49.4" width="4" height="14.47" transform="translate(42.67 164.48) rotate(-79.61)"/><path class="cls-3" d="M31.78,85.35l-7.7-8.08A161.82,161.82,0,0,1,6.14,54.71L0,45.4,31.92,20l4.81,7.61A158.32,158.32,0,0,0,60.56,56.86l3.18,3.07ZM5.35,46.25l4.13,6.26a157.8,157.8,0,0,0,17.5,22l5.17,5.43,25.53-20.3A162.09,162.09,0,0,1,33.35,29.76l-2.43-3.85Z"/></g></g></svg>