<svg xmlns="http://www.w3.org/2000/svg" viewBox="0 0 180.56 156.46"><defs><style>.cls-1{fill:#0855c4;}.cls-2{fill:#454a6c;}.cls-3{fill:#00adee;}.cls-4{opacity:0.17;}</style></defs><title>Recupera</title><g id="Capa_2" data-name="Capa 2"><g id="Capa_1-2" data-name="Capa 1"><path class="cls-1" d="M57.92,129.94a7.88,7.88,0,0,1-1.66-.18,7.63,7.63,0,0,1-6-8.45l2.48-20c1.33-6.84-4.23-14.33-9.13-19.41A81.21,81.21,0,0,0,32,72.1l-.21-.16L5.72,49.13l2.63-3,26,22.73c2,1.39,25.28,17.55,22.33,33.17L54.23,121.8a3.68,3.68,0,0,0,7.16,1.54l2.29-7.47L67.51,117l-2.29,7.47A7.63,7.63,0,0,1,57.92,129.94Z"/><path class="cls-1" d="M109.36,73.61c-5.09-5.91-15.07-14.8-33.75-23.53L75.49,50c-1.35-.74-33.28-18.35-44.6-31.77L34,15.67c10.63,12.6,41.89,30,43.41,30.82,19.29,9,29.7,18.31,35,24.51Z"/><path class="cls-2" d="M78.23,156.46a78.23,78.23,0,1,1,78.1-82.78l-1.49.08A76.74,76.74,0,1,0,78.23,155a75.92,75.92,0,0,0,47.91-16.78l.93,1.17A77.35,77.35,0,0,1,78.23,156.46Z"/><path class="cls-3" d="M166.56,134.07a7,7,0,0,1-1.12-.08l-13.6-2,.58-4L166,130a4,4,0,0,0,4.46-3.36l6-42.33a3.95,3.95,0,0,0-3.35-4.46L98.82,69.74l.55-4,74.35,10.16a7.95,7.95,0,0,1,6.75,9l-6,42.33A8,8,0,0,1,166.56,134.07Z"/><path class="cls-1" d="M108,143.53a7.71,7.71,0,0,1-7.42-5.77l-2-7.76,3.88-1,2,7.76a3.67,3.67,0,0,0,4.65,2.6l1.47-.46a3.66,3.66,0,0,0,2.57-3.72l4-.22a7.67,7.67,0,0,1-5.38,7.76l-1.47.45A7.61,7.61,0,0,1,108,143.53Z"/><path class="cls-1" d="M81.8,138.48a7.66,7.66,0,0,1-7.64-7.2l-.72-11.62,4-.25L78.15,131a3.63,3.63,0,0,0,1.29,2.57,3.59,3.59,0,0,0,2.75.85l1.82-.18a3.68,3.68,0,0,0,3.29-3.6l.1-6,4,.07-.1,6a7.66,7.66,0,0,1-6.88,7.5l-1.81.19A7.57,7.57,0,0,1,81.8,138.48Z"/><path class="cls-3" d="M70.17,117.58l-3.75-1.39a12.86,12.86,0,0,0-.08-9.36,10.56,10.56,0,0,0-6.12-6L61.61,97A14.57,14.57,0,0,1,70,105.31,16.86,16.86,0,0,1,70.17,117.58Z"/><path class="cls-3" d="M159.42,109.28a16,16,0,0,1-9.3-9.13A18.6,18.6,0,0,1,150,86.59L153.72,88a14.65,14.65,0,0,0,.1,10.65,12.11,12.11,0,0,0,7,6.9Z"/><path class="cls-3" d="M142.08,146.37a8.15,8.15,0,0,1-2.85-.52l-78.31-29a8.21,8.21,0,0,1-4.62-4.29,8.13,8.13,0,0,1-.24-6.29L66.61,77.77l3.76,1.38L59.81,107.66a4.24,4.24,0,0,0,2.5,5.45l78.31,29a4.24,4.24,0,0,0,5.44-2.5l15.57-42a4.23,4.23,0,0,0-2.51-5.44l-78.3-29c-.54-.2-1-.4-1.44-.59a6.54,6.54,0,0,0-1.12-.43s-.13.1-.34.32L75,59.68c2.29-2.43,4.43-1.5,6-.81.36.16.76.33,1.22.5l78.3,29A8.25,8.25,0,0,1,165.38,99l-15.57,42A8.25,8.25,0,0,1,142.08,146.37Z"/><g class="cls-4"><path class="cls-3" d="M112.39,82.45a20.67,20.67,0,0,0-15.32,6.8,66.54,66.54,0,0,1,2.84,13c-1.12,7.23-5.38,5.27-8.12,3.14a20.72,20.72,0,1,0,20.6-22.92Z"/></g><path class="cls-3" d="M99.46,106.07a2.71,2.71,0,0,1,2.09-1.71,7.62,7.62,0,0,0,4.85,3.84c2.17.52,3.53,0,3.87-1.43.4-1.64-1.38-2.33-3.41-3.33-2.78-1.37-5.5-3.22-4.6-7,.82-3.39,4.11-5,8.52-3.92s6.12,3.37,5.74,4.92a2.77,2.77,0,0,1-2.19,1.77A6.73,6.73,0,0,0,110,95.83c-2-.49-3.37.08-3.69,1.41-.39,1.58,1.22,2.12,3.36,3.17,3.12,1.54,5.67,3.62,4.84,7.06-.89,3.65-4.06,5.15-8.89,4S99.06,107.74,99.46,106.07Z"/><path class="cls-3" d="M112.87,117.39a5.21,5.21,0,0,1,.51-1.13l12-19.91a1.68,1.68,0,0,1,.88.07c.82.19,2,.71,1.65,2.07a5.29,5.29,0,0,1-.51,1.13l-12,19.92a1.82,1.82,0,0,1-.88-.07C113.7,119.27,112.54,118.75,112.87,117.39Z"/><path class="cls-1" d="M93.27,109.72,70.33,80.55c-5.16.09-6.25-.43-9.81-2.48l-1.8-1,1.94-3.49c.7.39,1.31.73,1.84,1,3.35,1.92,3.63,2.07,8.73,1.93l1,0L95,105.42a4.23,4.23,0,0,0,2.15-1.93c1.16-2.16,2-7.79-5.12-21.37l-4.38-7L71.42,58.65l2.86-2.81,16.5,16.79,4.72,7.56c6.21,11.73,7.92,20.25,5.07,25.32a8.14,8.14,0,0,1-6.26,4.15Z"/></g></g></svg>