<svg xmlns="http://www.w3.org/2000/svg" viewBox="0 0 162.69 154.95"><defs><style>.cls-1{fill:#0855c4;}.cls-2{fill:#454a6c;}.cls-3{fill:#00adee;}.cls-4{opacity:0.17;}</style></defs><title>contratalo hasta</title><g id="Capa_2" data-name="Capa 2"><g id="Capa_1-2" data-name="Capa 1"><rect class="cls-1" x="13.6" y="120.47" width="125.96" height="4"/><path class="cls-2" d="M77.47,155A77.49,77.49,0,0,1,13.33,34l1.24.85a76,76,0,1,0,131.92,74.42l1.36.63A77.75,77.75,0,0,1,77.47,155Z"/><path class="cls-2" d="M154.92,79.49l-1.5,0c0-.66,0-1.31,0-2A75.22,75.22,0,0,0,137.57,31l1.19-.92A76.72,76.72,0,0,1,155,77.47C155,78.15,154.94,78.82,154.92,79.49Z"/><path class="cls-2" d="M35,14.47l-.84-1.24a77.54,77.54,0,0,1,85-1.07l-.81,1.27a76,76,0,0,0-83.36,1Z"/><path class="cls-3" d="M104.23,60.33a17.54,17.54,0,1,1,17.53-17.54A17.56,17.56,0,0,1,104.23,60.33Zm0-31.07a13.54,13.54,0,1,0,13.53,13.53A13.55,13.55,0,0,0,104.23,29.26Z"/><g class="cls-4"><circle class="cls-3" cx="104.23" cy="43.27" r="15.53"/></g><polygon class="cls-3" points="101.94 49.56 95.59 42.3 98.6 39.67 102.24 43.83 110.72 35.95 113.44 38.89 101.94 49.56"/><path class="cls-1" d="M127.56,99.88H25.75A14.16,14.16,0,0,1,11.6,85.73v-61A14.17,14.17,0,0,1,25.75,10.6H126.46a14.17,14.17,0,0,1,14.15,14.15V76.16h-4V24.75A10.16,10.16,0,0,0,126.46,14.6H25.75A10.16,10.16,0,0,0,15.6,24.75v61A10.16,10.16,0,0,0,25.75,95.88H127.56Z"/><rect class="cls-1" x="13.6" y="79.83" width="108.15" height="4"/><path class="cls-1" d="M95.27,124.47H55.9V95.88H95.27Zm-35.37-4H91.27V99.88H59.9Z"/><rect class="cls-3" x="32.36" y="29.11" width="42.2" height="4"/><rect class="cls-3" x="32.36" y="54.84" width="21.1" height="4"/><rect class="cls-3" x="32.36" y="42.27" width="25.52" height="4"/><rect class="cls-3" x="64.79" y="42.27" width="9.76" height="4"/><path class="cls-3" d="M149.6,113.83a4.7,4.7,0,0,1-3.56-1.62L139.7,105l-7.18,6.26a2.65,2.65,0,0,1-4.31-1.37l-10.3-42a2.12,2.12,0,0,1,2.84-2.49L161,81.24a2.64,2.64,0,0,1,.76,4.45L154.6,92l6.34,7.27a4.73,4.73,0,0,1-.46,6.67l-7.77,6.78A4.72,4.72,0,0,1,149.6,113.83ZM140.08,99.3l9,10.28a.72.72,0,0,0,1,.07l7.78-6.78a.69.69,0,0,0,.24-.49.7.7,0,0,0-.17-.53l-9-10.29,8.51-7.42L122.66,70.36l8.91,36.37ZM159.54,85ZM121.79,66.83h0Z"/></g></g></svg>