<svg xmlns="http://www.w3.org/2000/svg" xmlns:xlink="http://www.w3.org/1999/xlink" width="81.204" height="45.232" viewBox="0 0 81.204 45.232"><defs><style>.a{fill:#fff;}.b{filter:url(#ag);}.c{filter:url(#ae);}.d{filter:url(#ac);}.e{filter:url(#aa);}.f{filter:url(#y);}.g{filter:url(#w);}.h{filter:url(#u);}.i{filter:url(#s);}.j{filter:url(#q);}.k{filter:url(#o);}.l{filter:url(#m);}.m{filter:url(#k);}.n{filter:url(#i);}.o{filter:url(#g);}.p{filter:url(#e);}.q{filter:url(#c);}.r{filter:url(#a);}</style><filter id="a" x="0" y="9.944" width="17.686" height="21.18" filterUnits="userSpaceOnUse"><feOffset dy="3" input="SourceAlpha"/><feGaussianBlur stdDeviation="1.5" result="b"/><feFlood flood-opacity="0.251"/><feComposite operator="in" in2="b"/><feComposite in="SourceGraphic"/></filter><filter id="c" x="8.858" y="11.854" width="15.297" height="17.878" filterUnits="userSpaceOnUse"><feOffset dy="3" input="SourceAlpha"/><feGaussianBlur stdDeviation="1.5" result="d"/><feFlood flood-opacity="0.251"/><feComposite operator="in" in2="d"/><feComposite in="SourceGraphic"/></filter><filter id="e" x="14.796" y="10.845" width="17.269" height="17.578" filterUnits="userSpaceOnUse"><feOffset dy="3" input="SourceAlpha"/><feGaussianBlur stdDeviation="1.5" result="f"/><feFlood flood-opacity="0.251"/><feComposite operator="in" in2="f"/><feComposite in="SourceGraphic"/></filter><filter id="g" x="23.726" y="8.802" width="20.321" height="18.594" filterUnits="userSpaceOnUse"><feOffset dy="3" input="SourceAlpha"/><feGaussianBlur stdDeviation="1.5" result="h"/><feFlood flood-opacity="0.251"/><feComposite operator="in" in2="h"/><feComposite in="SourceGraphic"/></filter><filter id="i" x="35.653" y="7.568" width="17.269" height="17.578" filterUnits="userSpaceOnUse"><feOffset dy="3" input="SourceAlpha"/><feGaussianBlur stdDeviation="1.5" result="j"/><feFlood flood-opacity="0.251"/><feComposite operator="in" in2="j"/><feComposite in="SourceGraphic"/></filter><filter id="k" x="44.445" y="6.15" width="16.556" height="17.595" filterUnits="userSpaceOnUse"><feOffset dy="3" input="SourceAlpha"/><feGaussianBlur stdDeviation="1.5" result="l"/><feFlood flood-opacity="0.251"/><feComposite operator="in" in2="l"/><feComposite in="SourceGraphic"/></filter><filter id="m" x="52.455" y="2.688" width="11.759" height="20.194" filterUnits="userSpaceOnUse"><feOffset dy="3" input="SourceAlpha"/><feGaussianBlur stdDeviation="1.5" result="n"/><feFlood flood-opacity="0.251"/><feComposite operator="in" in2="n"/><feComposite in="SourceGraphic"/></filter><filter id="o" x="55.692" y="0" width="17.269" height="21.998" filterUnits="userSpaceOnUse"><feOffset dy="3" input="SourceAlpha"/><feGaussianBlur stdDeviation="1.5" result="p"/><feFlood flood-opacity="0.251"/><feComposite operator="in" in2="p"/><feComposite in="SourceGraphic"/></filter><filter id="q" x="64.62" y="3.068" width="16.583" height="17.903" filterUnits="userSpaceOnUse"><feOffset dy="3" input="SourceAlpha"/><feGaussianBlur stdDeviation="1.5" result="r"/><feFlood flood-opacity="0.251"/><feComposite operator="in" in2="r"/><feComposite in="SourceGraphic"/></filter><filter id="s" x="19.765" y="21.442" width="18.214" height="23" filterUnits="userSpaceOnUse"><feOffset dy="3" input="SourceAlpha"/><feGaussianBlur stdDeviation="1.5" result="t"/><feFlood flood-opacity="0.251"/><feComposite operator="in" in2="t"/><feComposite in="SourceGraphic"/></filter><filter id="u" x="29.573" y="20.868" width="17.281" height="22.034" filterUnits="userSpaceOnUse"><feOffset dy="3" input="SourceAlpha"/><feGaussianBlur stdDeviation="1.5" result="v"/><feFlood flood-opacity="0.251"/><feComposite operator="in" in2="v"/><feComposite in="SourceGraphic"/></filter><filter id="w" x="38.053" y="18.794" width="20.665" height="22.775" filterUnits="userSpaceOnUse"><feOffset dy="3" input="SourceAlpha"/><feGaussianBlur stdDeviation="1.5" result="x"/><feFlood flood-opacity="0.251"/><feComposite operator="in" in2="x"/><feComposite in="SourceGraphic"/></filter><filter id="y" x="50.504" y="16.961" width="18.75" height="22.307" filterUnits="userSpaceOnUse"><feOffset dy="3" input="SourceAlpha"/><feGaussianBlur stdDeviation="1.5" result="z"/><feFlood flood-opacity="0.251"/><feComposite operator="in" in2="z"/><feComposite in="SourceGraphic"/></filter><filter id="aa" x="61.279" y="14.715" width="19.495" height="23.205" filterUnits="userSpaceOnUse"><feOffset dy="3" input="SourceAlpha"/><feGaussianBlur stdDeviation="1.5" result="ab"/><feFlood flood-opacity="0.251"/><feComposite operator="in" in2="ab"/><feComposite in="SourceGraphic"/></filter><filter id="ac" x="0" y="23.087" width="26.778" height="14.196" filterUnits="userSpaceOnUse"><feOffset dy="3" input="SourceAlpha"/><feGaussianBlur stdDeviation="1.5" result="ad"/><feFlood flood-opacity="0.251"/><feComposite operator="in" in2="ad"/><feComposite in="SourceGraphic"/></filter><filter id="ae" x="4.832" y="28.105" width="21.754" height="13.359" filterUnits="userSpaceOnUse"><feOffset dy="3" input="SourceAlpha"/><feGaussianBlur stdDeviation="1.5" result="af"/><feFlood flood-opacity="0.251"/><feComposite operator="in" in2="af"/><feComposite in="SourceGraphic"/></filter><filter id="ag" x="9.855" y="32.71" width="16.73" height="12.522" filterUnits="userSpaceOnUse"><feOffset dy="3" input="SourceAlpha"/><feGaussianBlur stdDeviation="1.5" result="ah"/><feFlood flood-opacity="0.251"/><feComposite operator="in" in2="ah"/><feComposite in="SourceGraphic"/></filter></defs><g transform="translate(-13141.429 -8469.503)"><g class="r" transform="matrix(1, 0, 0, 1, 13141.43, 8469.5)"><path class="a" d="M974.2,74.8a.544.544,0,0,1-.461.495l-1.319.207a.333.333,0,0,1-.419-.356l.533-10.645a.544.544,0,0,1,.461-.495l3.665-.575c2.764-.435,4.151.492,4.019,3.143-.132,2.631-1.632,3.971-4.4,4.406l-1.906.3Zm4.279-7.881a1.423,1.423,0,0,0-1.808-1.643l-2.01.316-.191,3.825,2.01-.316A2.224,2.224,0,0,0,978.479,66.924Z" transform="translate(-967.5 -51.89)"/></g><g class="q" transform="matrix(1, 0, 0, 1, 13141.43, 8469.5)"><path class="a" d="M998.912,76.833a.544.544,0,0,1-.461.494l-1.319.208a.333.333,0,0,1-.419-.356l.336-6.719c.007-.142.138-.263.291-.408a6.334,6.334,0,0,1,3.287-1.319,3.857,3.857,0,0,1,2.111.17.369.369,0,0,1,.272.379,5.664,5.664,0,0,1-.428,1.091.552.552,0,0,1-.37.339,1.029,1.029,0,0,1-.248-.022,3.027,3.027,0,0,0-1.345-.11c-.419.066-1.3.245-1.433.828Z" transform="translate(-983.35 -55.31)"/></g><g class="p" transform="matrix(1, 0, 0, 1, 13141.43, 8469.5)"><path class="a" d="M1013.289,70.7a4.748,4.748,0,0,1,4.332-4.776c2.806-.441,4.044.991,3.919,3.48a4.793,4.793,0,0,1-4.34,4.939C1014.393,74.786,1013.155,73.375,1013.289,70.7Zm6.051-.93c.048-.971-.2-2.238-1.813-1.984a2.466,2.466,0,0,0-2.041,2.59c-.048.951.026,2.386,1.806,2.106S1019.292,70.723,1019.34,69.772Z" transform="translate(-993.98 -53.5)"/></g><g class="o" transform="matrix(1, 0, 0, 1, 13141.43, 8469.5)"><path class="a" d="M1047.3,63.854c.088-1.761-.3-1.841-1.2-1.7a2.08,2.08,0,0,0-1.165.866,3.343,3.343,0,0,1,.143,1.3l-.2,4.007a.545.545,0,0,1-.461.495l-1.34.21a.333.333,0,0,1-.419-.356l.2-3.987c.085-1.7-.023-2.024-1.28-1.827a1.708,1.708,0,0,0-.895.442l-.287,5.728a.544.544,0,0,1-.461.494l-1.319.208a.333.333,0,0,1-.419-.357l.355-7.1a.444.444,0,0,1,.226-.377,8.9,8.9,0,0,1,2.829-.886c1.34-.211,2.126-.134,2.781.466A3.367,3.367,0,0,1,1046.8,60.2c2.178-.342,2.809,1.165,2.706,3.229l-.211,4.21a.545.545,0,0,1-.461.494l-1.32.207a.333.333,0,0,1-.418-.356Z" transform="translate(-1009.97 -49.85)"/></g><g class="n" transform="matrix(1, 0, 0, 1, 13141.43, 8469.5)"><path class="a" d="M1071.478,61.56a4.749,4.749,0,0,1,4.332-4.777c2.806-.441,4.043.991,3.919,3.481a4.792,4.792,0,0,1-4.34,4.938C1072.582,65.643,1071.344,64.232,1071.478,61.56Zm6.051-.93c.049-.971-.2-2.238-1.812-1.985a2.467,2.467,0,0,0-2.041,2.59c-.048.951.026,2.386,1.806,2.106S1077.481,61.58,1077.528,60.63Z" transform="translate(-1031.32 -47.64)"/></g><g class="m" transform="matrix(1, 0, 0, 1, 13141.43, 8469.5)"><path class="a" d="M1103.553,53.443a.361.361,0,0,1-.028.145l-.466,1.017a.341.341,0,0,1-.279.184.366.366,0,0,1-.207-.027,3.881,3.881,0,0,0-1.99-.09,2.757,2.757,0,0,0-2.378,2.683,1.728,1.728,0,0,0,2.143,2.013,4.689,4.689,0,0,0,2.053-.745.736.736,0,0,1,.19-.07.237.237,0,0,1,.284.137l.35.889a.227.227,0,0,1,.016.118.541.541,0,0,1-.228.4,6.115,6.115,0,0,1-2.946,1.166c-2.806.441-4.194-.887-4.061-3.559a4.828,4.828,0,0,1,4.482-4.86,4.961,4.961,0,0,1,2.874.271A.344.344,0,0,1,1103.553,53.443Z" transform="translate(-1047.05 -45.1)"/></g><g class="l" transform="matrix(1, 0, 0, 1, 13141.43, 8469.5)"><path class="a" d="M1118.714,46.577a.544.544,0,0,1,.461-.495l1.319-.208a.334.334,0,0,1,.419.357l-.368,7.346a.544.544,0,0,1-.461.494l-1.319.207a.333.333,0,0,1-.419-.356Zm.024-2.132a.9.9,0,0,0,1.116.949,1.512,1.512,0,0,0,1.25-1.321.93.93,0,0,0-1.136-.966A1.511,1.511,0,0,0,1118.738,44.445Z" transform="translate(-1061.39 -38.9)"/></g><g class="k" transform="matrix(1, 0, 0, 1, 13141.43, 8469.5)"><path class="a" d="M1127.385,44.865a4.749,4.749,0,0,1,4.332-4.777c2.807-.441,4.044.991,3.919,3.48a4.792,4.792,0,0,1-4.34,4.939C1128.49,48.948,1127.251,47.537,1127.385,44.865Zm6.051-.931c.049-.971-.2-2.238-1.812-1.984a2.467,2.467,0,0,0-2.041,2.59c-.047.951.026,2.386,1.806,2.106S1133.388,44.885,1133.436,43.934Zm-1.631-8.1c.153-.144.176-.189.345-.235a.611.611,0,0,1,.311.012l.832.813a.486.486,0,0,1,.085.368.477.477,0,0,1-.054.249l-2.068,1.891a.94.94,0,0,1-.468.214c-.272.043-.646-.381-.766-.482-.04-.034-.219-.187-.213-.308a.451.451,0,0,1,.072-.192Z" transform="translate(-1067.18 -34.09)"/></g><g class="j" transform="matrix(1, 0, 0, 1, 13141.43, 8469.5)"><path class="a" d="M1152.643,45.587a.412.412,0,0,1,.226-.357,13.68,13.68,0,0,1,3.332-.985c2.806-.441,3.79.649,3.658,3.3l-.2,3.987a.543.543,0,0,1-.461.494l-1.319.207a.334.334,0,0,1-.419-.356l.162-3.238c.085-1.7.014-2.774-1.431-2.546a3.208,3.208,0,0,0-1.418.524l-.287,5.728a.543.543,0,0,1-.461.494l-1.319.207a.333.333,0,0,1-.419-.356Z" transform="translate(-1083.17 -39.58)"/></g><g class="i" transform="matrix(1, 0, 0, 1, 13141.43, 8469.5)"><path class="a" d="M1027.737,97.167a.632.632,0,0,1,.536-.554l7.595-1.194a.386.386,0,0,1,.489.393l-.056,1.125a.606.606,0,0,1-.513.55l-5.685.893-.165,3.31,4.147-.652a.37.37,0,0,1,.466.4l-.057,1.125a.632.632,0,0,1-.536.554l-4.124.648-.243,4.863a.606.606,0,0,1-.513.55l-1.468.23a.37.37,0,0,1-.466-.4Z" transform="translate(-1002.88 -72.47)"/></g><g class="h" transform="matrix(1, 0, 0, 1, 13141.43, 8469.5)"><path class="a" d="M1057.033,104.458l5.289-.831a.37.37,0,0,1,.465.4l-.056,1.125a.633.633,0,0,1-.536.554l-7.222,1.135a.371.371,0,0,1-.466-.4L1055.1,94.6a.606.606,0,0,1,.513-.55l1.468-.231a.37.37,0,0,1,.465.4Z" transform="translate(-1020.43 -71.44)"/></g><g class="g" transform="matrix(1, 0, 0, 1, 13141.43, 8469.5)"><path class="a" d="M1089.187,97.767c.141.4.242.7.469.8a.244.244,0,0,1,.173.241l-.04.81c-.021.406-.773.658-1.309.742-1.141.179-1.371-.767-1.66-1.459l-.4-1.278-4.636.729-1.01,2.638a.786.786,0,0,1-.606.565l-1.537.242a.371.371,0,0,1-.466-.4l4.779-12.367a1.131,1.131,0,0,1,.753-.722l1.771-.278a.66.66,0,0,1,.692.495Zm-4.769-6.332-1.808,4.73,3.169-.5Z" transform="translate(-1035.61 -67.73)"/></g><g class="f" transform="matrix(1, 0, 0, 1, 13141.43, 8469.5)"><path class="a" d="M1117.228,94.006c.675-.106,2.9-.612,2.974-2.165.137-2.747-7.432.252-7.193-4.544.1-2.049,1.106-3.636,5.3-4.3a19.743,19.743,0,0,1,3.169-.051c.16.019.385.14.374.365-.007.135-.049.522-.156,1.253a.538.538,0,0,1-.457.362c-1.458.028-2.569.068-2.872.116-1.911.3-2.846.514-2.9,1.663-.126,2.522,7.438-.365,7.178,4.836-.128,2.567-2.118,4-5.823,4.579a9.067,9.067,0,0,1-3.6-.195.436.436,0,0,1-.325-.44l.6-1.345a.462.462,0,0,1,.362-.3.447.447,0,0,1,.162,0A10.735,10.735,0,0,0,1117.228,94.006Z" transform="translate(-1057.9 -64.45)"/></g><g class="e" transform="matrix(1, 0, 0, 1, 13141.43, 8469.5)"><path class="a" d="M1153.457,77.047l-.592,11.843a.606.606,0,0,1-.513.55l-1.468.23a.371.371,0,0,1-.466-.4l.249-4.976-5.009.787-.249,4.976a.606.606,0,0,1-.513.55l-1.467.23a.371.371,0,0,1-.466-.4l.592-11.843a.605.605,0,0,1,.513-.55l1.467-.231a.371.371,0,0,1,.465.4l-.24,4.8,5.009-.787.24-4.8a.606.606,0,0,1,.513-.55l1.467-.231A.371.371,0,0,1,1153.457,77.047Z" transform="translate(-1077.18 -60.43)"/></g><g class="d" transform="matrix(1, 0, 0, 1, 13141.43, 8469.5)"><path class="a" d="M972.544,105.188a.433.433,0,0,1-.544-.462l.066-1.315a.739.739,0,0,1,.626-.646l16.513-2.756a.451.451,0,0,1,.571.458l-.066,1.315a.708.708,0,0,1-.6.642Z" transform="translate(-967.5 -75.41)"/></g><g class="c" transform="matrix(1, 0, 0, 1, 13141.43, 8469.5)"><path class="a" d="M986.025,118.352a.433.433,0,0,1-.544-.463l.066-1.315a.738.738,0,0,1,.626-.646l11.49-1.919a.45.45,0,0,1,.571.458l-.066,1.315a.707.707,0,0,1-.6.642Z" transform="translate(-976.15 -84.4)"/></g><g class="b" transform="matrix(1, 0, 0, 1, 13141.43, 8469.5)"><path class="a" d="M1000.041,130.363a.433.433,0,0,1-.544-.463l.066-1.315a.738.738,0,0,1,.626-.646l6.466-1.082a.45.45,0,0,1,.571.458l-.066,1.315a.707.707,0,0,1-.6.642Z" transform="translate(-985.14 -92.64)"/></g></g></svg>