<svg xmlns="http://www.w3.org/2000/svg" xmlns:xlink="http://www.w3.org/1999/xlink" width="86" height="86" viewBox="0 0 86 86"><defs><style>.a{fill:none;}.b{fill:#edf2fa;}.c{fill:#3256bf;}.d{fill:#fff;}.e{clip-path:url(#a);}.f{fill:#cfc9c9;}.g{fill:#d76c71;}.h{fill:#3e2a46;}.i{fill:#5e5e73;}.j{fill:#ece8e8;}.k{fill:#c3595e;}.l{fill:#de838b;}.m{fill:#bb3e63;}.n{fill:#dc4299;}.o{fill:#223d9b;}.p{fill:#cc127f;}.q{clip-path:url(#b);}.r{opacity:0.49;}.s{clip-path:url(#c);}.t{fill:#162458;}.u{fill:#c8148b;}.v{fill:#3a5ec1;}.w{opacity:0.34;}.x{fill:#0f1830;}</style><clipPath id="a"><rect class="a" width="43.343" height="36.862" rx="3.505"/></clipPath><clipPath id="b"><circle class="a" cx="43" cy="43" r="43" transform="translate(0)"/></clipPath><clipPath id="c"><rect class="a" width="23.341" height="19.851" rx="3.505"/></clipPath></defs><g transform="translate(-1239.876 -2389.126)"><g transform="translate(1239.876 2389.126)"><circle class="b" cx="43" cy="43" r="43" transform="translate(0)"/></g><g transform="translate(1275.082 2394.038)"><g transform="translate(0)"><path class="c" d="M1407.1,2411.367l-7.253,2.542-.039.009a.662.662,0,0,0-.52.649v3.677a8.2,8.2,0,1,0,15.625,0v-3.677a.661.661,0,0,0-.519-.649l-.078-.022Z" transform="translate(-1399.29 -2411.367)"/></g><g transform="translate(3.409 4.478)"><path class="d" d="M1417.867,2439.051l-3.142-3.047,1.036-1.139,2.142,2.078,5.862-5.3,1,1.176Z" transform="translate(-1414.725 -2431.645)"/></g></g><g transform="translate(1239.876 2389.126)"><circle class="a" cx="43" cy="43" r="43" transform="translate(0)"/></g><g transform="translate(1259.507 2416.685)"><g transform="translate(0.077 0.152)"><rect class="d" width="43.343" height="36.862" rx="3.505"/><g class="e"><g transform="translate(1.777 3.801)"><g transform="translate(24.288 10.446)"><path class="f" d="M1453.3,2581.729c-.156-1.75-2.2-3.933-3.331-1.608-.811,1.675-.836,3.628-1.56,5.353a11.434,11.434,0,0,0-1.023,4.177.25.25,0,0,0-.241.288,1.178,1.178,0,0,0,1.409,1.152,2.311,2.311,0,0,0,.5-.142,7.812,7.812,0,0,1,1.859-.49,1.294,1.294,0,0,0,.975-.349,1.469,1.469,0,0,0,.328-.876c.114-1.125-.4-1.843.16-2.989A8.635,8.635,0,0,0,1453.3,2581.729Z" transform="translate(-1447.142 -2579.111)"/></g><g transform="translate(12.589 140.149)"><path class="g" d="M1401.587,3166.959a.607.607,0,0,0-.431-.429c-1.984-.44-4.542.474-6.429,1a.561.561,0,0,0-.431.542.548.548,0,0,0-.127.375c.2,6.545.6,13.08,1.239,19.6q.231,2.369.5,4.735c.1.836-.046,2.532.422,3.239.586.886,1.37.637,2.456.64a.62.62,0,0,0,.593-.453c.7-4.942.969-9.938,1.352-14.912.211-2.741.43-5.481.632-8.223C1401.508,3171.145,1402.022,3168.845,1401.587,3166.959Z" transform="translate(-1394.169 -3166.413)"/></g><g transform="translate(11.32 174.144)"><path class="h" d="M1394.792,3320.433a.311.311,0,0,0-.514.136c-.27.876-.052,1.882-.427,2.723a13.771,13.771,0,0,0-.782,1.539.283.283,0,0,0,.266.371c-.02.053-.036.105-.057.158a.313.313,0,0,0-.376.289,2.578,2.578,0,0,1-.173.786c-.017.025-.03.055-.047.08-.543.793-1.843.781-2.7.857a.317.317,0,0,0-.307.309c0,.022,0,.041,0,.063a1.508,1.508,0,0,1-.637-1.107.308.308,0,0,0-.616,0c-.02,1.542.375,2.61,1.519,2.68,2.027.125,2.682-.9,3.412-1.679.939-1.007.961-2.579,1.48-3.8C1395.26,3322.844,1395.641,3321.3,1394.792,3320.433Z" transform="translate(-1388.423 -3320.344)"/></g><g transform="translate(11.644 166.911)"><path class="g" d="M1396.323,3288.577c.192-1.134-1.994.493-3.019.386-.012-.358-.032-.717-.072-1.077-.043-.39-.659-.393-.616,0,.477,4.29-1.3,8.185-2.426,12.222-.183.655-.633,1.8.134,2.287.684.439,2.336-.075,2.965-.392,1.448-.731.766-1.833,1.445-3.1a10.256,10.256,0,0,0,.994-1.714,7.536,7.536,0,0,0,.273-1.909c.051-.973-.084-2.115-.056-3.088A28.3,28.3,0,0,1,1396.323,3288.577Z" transform="translate(-1389.891 -3287.592)"/></g><g transform="translate(11.306 169.678)"><path class="h" d="M1395.243,3306.216c.051-.973-.513-3.27-.485-4.244.012-.392.051-1.048.136-1.848-1.139.073-2.29-.05-3.427.052-.243,3.329-1.967,6.484-2.869,9.719-.183.655-.526,1.773.24,2.264a5,5,0,0,0,3.323-.084c1.449-.731.975-1.894,1.654-3.157a11.247,11.247,0,0,0,.9-1.862C1394.908,3306.443,1395.209,3306.853,1395.243,3306.216Z" transform="translate(-1388.361 -3300.123)"/></g><g transform="translate(2.242 67.672)"><path class="i" d="M1373.744,2867.38c-.11-4.612-.321-9.223-.679-13.823-.321-4.127-.269-8.871-1.421-12.867-.8-2.765-3.493-2.467-5.9-2.426a86.421,86.421,0,0,0-12.094,1.116,1.04,1.04,0,0,0-.884.164.736.736,0,0,0-.442.777c-3.025,8.079-2.208,17.869-2.052,26.33.093,5.039.426,10.092.026,15.126-.359,4.522-1.269,8.987-1.821,13.487q-.867,7.066-1.076,14.192-.1,3.558-.043,7.118c.024,1.439-.234,3.523.33,4.9,1.082,2.64,6.225,2.1,8.433,2.218a76.476,76.476,0,0,0,14.671-.684.891.891,0,0,0,.645-.645c1.763-8.735,1.7-17.776,2-26.649C1373.756,2886.274,1373.969,2876.825,1373.744,2867.38Z" transform="translate(-1347.317 -2838.235)"/></g><g transform="translate(11.152 6.76)"><path class="j" d="M1393.021,2574.877c-.6-3.962-1.531-7.9-2.294-11.839a.253.253,0,0,0-.253-.22c.061-.273-.282-.553-.5-.3a7.015,7.015,0,0,0-1.687,3.443c-.285,1.7.215,3.348-.232,5.051a4.714,4.714,0,0,0-.115,3.352,2.54,2.54,0,0,0,.66.8,20.43,20.43,0,0,0,2.111,1.706C1392.426,2577.991,1393.261,2576.458,1393.021,2574.877Z" transform="translate(-1387.661 -2562.42)"/></g><g transform="translate(11.152 12.606)"><path class="f" d="M1392.6,2596.7c.036-.2.077-.4.127-.6a.3.3,0,0,0-.314-.378l.06-.254a.312.312,0,0,0-.426-.358h0a.287.287,0,0,0-.174-.319c-.045-.078-.092-.154-.139-.23.012-.055.024-.11.036-.165a.293.293,0,0,0-.381-.357l-.034-.05.245-1.16a.308.308,0,0,0-.594-.164l-.006.019a.324.324,0,0,0-.371.059l.091-.295c.119-.386-.454-.526-.594-.164l-.072.186-.059-.06a.292.292,0,0,0-.131-.069c.065-.242.127-.486.193-.728a.31.31,0,0,0-.223-.371l.054-.172c.1-.3-.235-.448-.452-.323a.312.312,0,0,0-.218-.086c.044-.216.083-.434.114-.652a.309.309,0,0,0-.318-.377.3.3,0,0,1,.395.005c.3.262.733-.172.436-.436-.619-.55-1.16-.289-1.605.262a7.637,7.637,0,0,1-.186,2.209,4.713,4.713,0,0,0-.115,3.352,2.539,2.539,0,0,0,.66.8,20.334,20.334,0,0,0,2.111,1.706c.887.577,1.537.444,1.927-.035A3.5,3.5,0,0,0,1392.6,2596.7Z" transform="translate(-1387.661 -2588.892)"/></g><g transform="translate(16.995 17.112)"><path class="g" d="M1417.923,2621.813h0a3.8,3.8,0,0,1-3.8-3.8v-8.715h7.606v8.715A3.8,3.8,0,0,1,1417.923,2621.813Z" transform="translate(-1414.12 -2609.295)"/></g><g transform="translate(17.005 19.806)"><path class="k" d="M1421.773,2621.722a13.291,13.291,0,0,0-3.706-.177,9.815,9.815,0,0,0-3.838.883l-.062.031v3.24c1.468,1.321,3.08,2.2,5.154,1.677a9.229,9.229,0,0,0,2.452-1.095Z" transform="translate(-1414.167 -2621.494)"/></g><g transform="translate(13.157 3.834)"><path class="l" d="M1411.922,2553.459c-1.236-1.3-1.8-2.847-3.641-3.646-2.141-.929-4.88-.593-7.2-.537-4.833,1.7-4.335,6.836-4.316,7.1.246,3.436.686,7.517,1.912,9.968a6.243,6.243,0,0,0,10.738.885,20.638,20.638,0,0,0,2.437-10.765C1411.827,2555.426,1411.921,2554.4,1411.922,2553.459Z" transform="translate(-1396.741 -2549.172)"/></g><g transform="translate(11.954 12.623)"><path class="l" d="M1391.891,2592.3c.394.576,1.858,1.791,2.381.847.268-.484-.181-1.03-.418-1.425l-.207-.346c.221.369.795.006.589-.389-.33-.635-1.268-2.633-2.26-1.825C1391.173,2589.813,1391,2590.991,1391.891,2592.3Z" transform="translate(-1391.293 -2588.968)"/></g><g transform="translate(16.416 13.944)"><ellipse class="h" cx="0.531" cy="0.812" rx="0.531" ry="0.812"/></g><g transform="translate(23.959 14.003)"><path class="h" d="M1446.716,2596.03c0,.448-.238.812-.531.812s-.531-.364-.531-.812.238-.812.531-.812S1446.716,2595.582,1446.716,2596.03Z" transform="translate(-1445.654 -2595.218)"/></g><g transform="translate(19.894 14.74)"><path class="k" d="M1429.015,2601.67c-.465.076-.929.163-1.06-.5a3.181,3.181,0,0,1,.1-.9c.077-.552.127-.711.213-1.262.07-.446-.613-.638-.683-.188-.1.642-.163.894-.253,1.538a2.717,2.717,0,0,0,0,1.333c.3.794,1.167.784,1.87.669C1429.652,2602.281,1429.462,2601.6,1429.015,2601.67Z" transform="translate(-1427.247 -2598.557)"/></g><g transform="translate(18.55 19.872)"><path class="m" d="M1425.322,2621.8a12.908,12.908,0,0,1-3.79.014c-.339-.049-.5.368-.247.489,0,0,0,0,0,.007a2.963,2.963,0,0,0,4.325-.05.238.238,0,0,0,.022-.047C1425.787,2622.052,1425.627,2621.752,1425.322,2621.8Z" transform="translate(-1421.161 -2621.793)"/></g><g transform="translate(22.984 11.53)"><path class="j" d="M1444.957,2584.747a.808.808,0,0,0-.313-.328,3.617,3.617,0,0,0-2.545-.279c-.325.089-1.272.548-.656.987.277.2,2.163-.2,3.118.108C1445.048,2585.39,1445.146,2585.1,1444.957,2584.747Z" transform="translate(-1441.239 -2584.022)"/></g><g transform="translate(14.979 11.684)"><path class="j" d="M1405.082,2585.444a.812.812,0,0,1,.313-.328,3.615,3.615,0,0,1,2.545-.278c.325.088,1.272.548.656.987-.277.2-2.163-.2-3.118.108C1404.991,2586.087,1404.893,2585.8,1405.082,2585.444Z" transform="translate(-1404.992 -2584.719)"/></g><g transform="translate(26.489 12.559)"><path class="l" d="M1459.486,2588.868c-.991-.809-1.93,1.19-2.26,1.824-.206.4.368.758.589.389l-.207.346c-.237.4-.686.941-.418,1.425.523.944,1.987-.271,2.381-.846C1460.464,2590.7,1460.289,2589.522,1459.486,2588.868Z" transform="translate(-1457.107 -2588.678)"/></g><g transform="translate(27.305 13.728)"><path class="k" d="M1461.336,2594.313a1.95,1.95,0,0,1-.443,1.075c-.289.349.21.853.5.5a2.785,2.785,0,0,0,.651-1.576C1462.085,2593.86,1461.376,2593.862,1461.336,2594.313Z" transform="translate(-1460.806 -2593.974)"/></g><g transform="translate(12.704 3.054)"><path class="j" d="M1403.853,2545.664c-7.035-.378-8.68,3.6-8.829,4.516-.253,1.561-.678,3.8.162,5.111.16.25.416.326.581.175a2.778,2.778,0,0,0,.695-1.663c.331-2.375.735-4.391,3.248-5.172a10.843,10.843,0,0,1,6.317.015c2.625.918,3.621,3.147,3.435,5.85a1.054,1.054,0,0,0,.094.644.383.383,0,0,0,.7-.084,7.047,7.047,0,0,0,.533-3.694C1410.715,2550.052,1410.537,2546.023,1403.853,2545.664Z" transform="translate(-1394.69 -2545.639)"/></g><g transform="translate(15.322)"><path class="j" d="M1421.2,2539.36a3.461,3.461,0,0,0-.208-1.231c-.476-1.316-1.717-1.859-2.3-3.133-.355-.78-.458-1.355-1.242-1.811a4.768,4.768,0,0,0-2.825-.408,6.37,6.37,0,0,1-2.779-.191c-.5-.182-.959-.472-1.466-.633a2.528,2.528,0,0,0-2.3.324c-1.848,1.261-1.762,3.772-1.1,5.742a.312.312,0,0,0,.446.188.307.307,0,0,0,.293.126c1.354-.2,2.728-.611,3.782.567.453.507.743,1.167,1.174,1.7,1.063,1.3,2.566.921,3.635,2.085a4.892,4.892,0,0,0,2.615,1.926c.623,1.3,1.765,2.4,2.908,1.524C1423.866,2544.574,1422.051,2541.454,1421.2,2539.36Z" transform="translate(-1406.546 -2531.812)"/></g><g transform="translate(12.878 9.601)"><path class="f" d="M1396.117,2575.508a6.269,6.269,0,0,1-.6,1.716c-.184.35.347.662.532.311a6.825,6.825,0,0,0,.663-1.863C1396.787,2575.285,1396.193,2575.119,1396.117,2575.508Z" transform="translate(-1395.478 -2575.286)"/></g><g transform="translate(16.295 2.277)"><path class="f" d="M1413.643,2542.122a2.778,2.778,0,0,0-2.683,2.048.308.308,0,0,0,.594.164,2.153,2.153,0,0,1,2.089-1.6A.308.308,0,0,0,1413.643,2542.122Z" transform="translate(-1410.949 -2542.122)"/></g><g transform="translate(18.182 3.891)"><path class="f" d="M1421.587,2549.891a2.805,2.805,0,0,0-1.8-.45c-.391.036-.4.652,0,.616a2.254,2.254,0,0,1,1.486.366C1421.609,2550.64,1421.918,2550.107,1421.587,2549.891Z" transform="translate(-1419.495 -2549.429)"/></g><g transform="translate(26.373 9.146)"><path class="f" d="M1460.015,2576.818a4.711,4.711,0,0,1-1.612-2.157,2.972,2.972,0,0,0-1.353-1.4c-.352-.181-.664.35-.311.531.858.441,1.072,1.165,1.486,1.963a4.284,4.284,0,0,0,1.478,1.593C1460.035,2577.569,1460.344,2577.036,1460.015,2576.818Z" transform="translate(-1456.584 -2573.225)"/></g><g transform="translate(29.263 9.899)"><path class="f" d="M1471.456,2578.232a4.789,4.789,0,0,1-1.215-1.444c-.191-.347-.723-.037-.532.311a5.238,5.238,0,0,0,1.312,1.568C1471.327,2578.914,1471.766,2578.481,1471.456,2578.232Z" transform="translate(-1469.668 -2576.637)"/></g><g transform="translate(15.559 23.984)"><path class="n" d="M1418.8,2640.641c-.026-.188-.238-.274-.463-.2-.825.267-1.515.743-2.357.936a16.464,16.464,0,0,0-1.734.506,4.058,4.058,0,0,1-2.807-.191c-.925-.237-1.589-.1-2.308-.682-.378-.3-.925-.657-1.371-.236-.572.541.767,1.577.663,2.127a.234.234,0,0,0,.163.251.209.209,0,0,0,.142.181,11.278,11.278,0,0,0,7.62.214.318.318,0,0,0,.345-.156c.352-.828,1.132-1.165,1.767-1.818A.991.991,0,0,0,1418.8,2640.641Z" transform="translate(-1407.618 -2640.414)"/></g><g transform="translate(0 25.472)"><path class="n" d="M1376.277,2674.757c-.365-4.2-.778-8.387-1.167-12.58-.239-2.575-.312-5.36-1.687-7.591.895-.8,1.425-1.916.069-2.725-.937-.559-2.359-.2-3.39-.413l-.012,0a53.28,53.28,0,0,0-4.921-2.532,15.942,15.942,0,0,0-3.983-1.634,19.228,19.228,0,0,0-5.154.149.919.919,0,0,0-1.064-.165,77.67,77.67,0,0,0-7.13,3.189.977.977,0,0,0-.212.108c-.045.031-.089.053-.134.083q-.316.178-.624.364a14.292,14.292,0,0,1-4.194,1.123c-1.016.191-1.979.687-2.065,1.8a.917.917,0,0,0,.458.8,4.464,4.464,0,0,0,1.284.411c-.112.2-.213.41-.307.622a1.155,1.155,0,0,0-.352.21c-2.417,2.14-2.225,7.067-2.406,10-.284,4.6-1.345,9.06-1.891,13.625-.8,6.691.244,16.037,7.229,19.082a13.374,13.374,0,0,0,9.646.675c3.513-1.02,4.564-2.5,4.2-6.166a45.357,45.357,0,0,0-1.806-9.257,32.187,32.187,0,0,0,7.864-.214c2.965-.427,6.46-1,9.162-2.415C1376.355,2679.9,1376.521,2677.562,1376.277,2674.757Z" transform="translate(-1337.166 -2647.149)"/></g><g transform="translate(12.121 15.778)"><path class="o" d="M1393.25,2603.257a.94.94,0,0,0-.924.924v.026a.963.963,0,0,0,.538.839q0,.245,0,.491c-1.054.449-.81,2.679-.727,3.521.038.391.655.395.616,0-.01-.1-.027-.276-.042-.476a.328.328,0,0,0,.437-.086c-.017.177-.03.3-.034.327-.06.387.534.555.594.164.084-.547.6-3.077-.228-3.406v-.49a.921.921,0,0,0,.694-.884v-.026A.934.934,0,0,0,1393.25,2603.257Z" transform="translate(-1392.052 -2603.257)"/></g><g transform="translate(26.695 15.624)"><path class="o" d="M1459.238,2602.561a.94.94,0,0,0-.924.924v.025a.963.963,0,0,0,.538.839q0,.245,0,.491c-1.054.448-.81,2.679-.727,3.521.039.391.655.395.616,0-.01-.1-.027-.276-.042-.476a.328.328,0,0,0,.437-.086c-.017.177-.03.3-.034.327-.06.388.533.555.594.164.084-.547.6-3.077-.228-3.406q0-.245,0-.49a.921.921,0,0,0,.694-.884v-.025A.934.934,0,0,0,1459.238,2602.561Z" transform="translate(-1458.04 -2602.56)"/></g><g transform="translate(17.125 25.587)"><path class="p" d="M1415.272,2647.831c-.162-.36-.693-.048-.531.311a2.285,2.285,0,0,1,.195,1,.308.308,0,0,0,.616,0A2.994,2.994,0,0,0,1415.272,2647.831Z" transform="translate(-1414.711 -2647.671)"/></g><g transform="translate(18.575 25.99)"><path class="p" d="M1421.9,2649.791c.026-.4-.59-.394-.616,0a3.915,3.915,0,0,0,.021.733c.047.388.664.393.616,0A3.9,3.9,0,0,1,1421.9,2649.791Z" transform="translate(-1421.272 -2649.495)"/></g><g transform="translate(23.894 25.559)"><path class="p" d="M1445.608,2647.756a4.992,4.992,0,0,0-.246,1.094c-.046.393.57.389.616,0a4.285,4.285,0,0,1,.224-.93C1446.334,2647.545,1445.739,2647.385,1445.608,2647.756Z" transform="translate(-1445.359 -2647.545)"/></g><g transform="translate(22.492 25.913)"><path class="p" d="M1439.087,2649.443q-.038.327-.074.654c-.045.393.572.39.616,0q.037-.327.074-.654C1439.748,2649.05,1439.132,2649.053,1439.087,2649.443Z" transform="translate(-1439.011 -2649.149)"/></g><g transform="translate(20.648 26.066)"><path class="p" d="M1431.277,2650.138c-.019-.395-.635-.4-.616,0q.023.48.047.962c.019.395.635.4.616,0Q1431.3,2650.619,1431.277,2650.138Z" transform="translate(-1430.661 -2649.841)"/></g><g transform="translate(5.298 33.18)"><path class="p" d="M1391.33,2682.086a5.653,5.653,0,0,0-1.376.919c-.586.549-.979,1.482-1.623,1.925-1.072.736-2.807-.051-4.017.407-1.622.615-2.83,1.98-4.718,1.983-.924,0-1.489-.515-2.33-.606a4.046,4.046,0,0,0-1.633.259,7.244,7.244,0,0,1-2.424.6,5.031,5.031,0,0,1-2.625-1.083c-.875-.623-1.727-1.684-2.838-1.895a4.722,4.722,0,0,0-1.478.151,2.676,2.676,0,0,1-2.586-.807,4.713,4.713,0,0,0-2.146-1.643.308.308,0,0,0-.164.594c1.285.344,1.741,1.716,2.842,2.335,1.343.755,2.705-.464,4.078.249,1.254.651,2.1,1.847,3.461,2.388a4.806,4.806,0,0,0,3.594-.141,4.723,4.723,0,0,1,3.063.05,4.064,4.064,0,0,0,1.706.1,9.6,9.6,0,0,0,3.628-1.521c1.55-.912,2.939-.157,4.487-.72a2.477,2.477,0,0,0,1.171-.924,6.236,6.236,0,0,1,2.235-2.093C1392,2682.441,1391.684,2681.91,1391.33,2682.086Z" transform="translate(-1361.157 -2682.051)"/></g><g transform="translate(8.695 29.973)"><path class="p" d="M1378.36,2667.563a13.782,13.782,0,0,0-1.68.9c-.335.209-.027.742.311.531a13.839,13.839,0,0,1,1.68-.9C1379.032,2667.933,1378.719,2667.4,1378.36,2667.563Z" transform="translate(-1376.536 -2667.532)"/></g><g transform="translate(10.168 30.608)"><path class="p" d="M1384.58,2670.465a11.777,11.777,0,0,0-1.281,1.09c-.283.279.153.714.436.436a10.672,10.672,0,0,1,1.157-.994C1385.206,2670.764,1384.9,2670.229,1384.58,2670.465Z" transform="translate(-1383.207 -2670.406)"/></g><g transform="translate(30.352 30.41)"><path class="p" d="M1475.992,2670.738l-.883-1.121c-.245-.311-.678.127-.435.435l.883,1.121C1475.8,2671.484,1476.235,2671.046,1475.992,2670.738Z" transform="translate(-1474.602 -2669.51)"/></g><g transform="translate(29.566 31.607)"><path class="p" d="M1471.969,2675.753l-.356-.669c-.186-.35-.718-.039-.531.311l.356.669C1471.623,2676.414,1472.155,2676.1,1471.969,2675.753Z" transform="translate(-1471.042 -2674.93)"/></g><g transform="translate(18.936 34.803)"><path class="p" d="M1423.113,2689.7a3.429,3.429,0,0,1-.188.844c-.131.375.464.536.594.164a4.083,4.083,0,0,0,.21-1.008C1423.763,2689.3,1423.147,2689.306,1423.113,2689.7Z" transform="translate(-1422.907 -2689.403)"/></g><g transform="translate(9.091 38.647)"><path class="p" d="M1379.142,2707.1c.051-.392-.565-.388-.616,0a23.386,23.386,0,0,0-.026,5.858c.047.389.663.393.616,0A23.409,23.409,0,0,1,1379.142,2707.1Z" transform="translate(-1378.329 -2706.808)"/></g><g transform="translate(33.766 38.659)"><path class="p" d="M1490.661,2707.081c-.089-.386-.683-.223-.594.164a16.294,16.294,0,0,1,.366,4.986c-.031.4.585.393.616,0A16.846,16.846,0,0,0,1490.661,2707.081Z" transform="translate(-1490.058 -2706.861)"/></g><g transform="translate(17.532 18.461)"><path class="k" d="M1417.04,2615.512a2.646,2.646,0,0,0-.474.914.308.308,0,0,0,.594.164,1.866,1.866,0,0,1,.315-.643C1417.715,2615.637,1417.282,2615.2,1417.04,2615.512Z" transform="translate(-1416.553 -2615.404)"/></g><g transform="translate(23.203 18.325)"><path class="k" d="M1443.284,2615.5a2.582,2.582,0,0,0-.615-.651c-.315-.24-.622.295-.311.531a1.723,1.723,0,0,1,.394.43C1442.969,2616.143,1443.5,2615.835,1443.284,2615.5Z" transform="translate(-1442.228 -2614.791)"/></g></g></g></g><g transform="translate(0 0)"><path class="o" d="M1371.2,2550.978h-41.36a1.072,1.072,0,0,1-1.071-1.071v-34.926a1.072,1.072,0,0,1,1.071-1.071h41.36a1.072,1.072,0,0,1,1.071,1.071v34.926A1.072,1.072,0,0,1,1371.2,2550.978Zm-41.36-36.592a.6.6,0,0,0-.6.6v34.926a.6.6,0,0,0,.6.595h41.36a.6.6,0,0,0,.6-.595v-34.926a.6.6,0,0,0-.6-.6Z" transform="translate(-1328.768 -2513.911)"/></g></g><g transform="translate(1239.876 2389.126)"><circle class="a" cx="43" cy="43" r="43" transform="translate(0)"/></g><g transform="translate(1239.876 2389.126)"><g class="q" transform="translate(0 0)"><g transform="translate(-9.026 36.053)"><g class="r" transform="translate(0.225 0.195)"><rect class="d" width="23.341" height="19.851" rx="3.505"/><g class="s"><g transform="translate(6.726 6.106)"><path class="t" d="M1233.381,2584.024a3.668,3.668,0,0,0-.543-1.736,4.174,4.174,0,0,0-1.431-1.029.154.154,0,0,0-.1-.015c.006-.061.015-.122.018-.184.011-.206-.309-.205-.32,0-.063,1.242-.883,2.564-.344,3.8a2.723,2.723,0,0,0,2.479,1.419C1234.078,2586.165,1233.469,2584.55,1233.381,2584.024Z" transform="translate(-1230.483 -2580.906)"/></g><g transform="translate(12.802 9.296)"><path class="t" d="M1260.546,2595.373a.162.162,0,0,0-.208.236.515.515,0,0,0-.057.036.132.132,0,0,0-.16-.047,3.122,3.122,0,0,0-2.1,2.552,1.693,1.693,0,0,0,.315,1.36.822.822,0,0,0,.428.236,2.125,2.125,0,0,1,.665.184,1.67,1.67,0,0,0,2.172-.944A3.155,3.155,0,0,0,1260.546,2595.373Z" transform="translate(-1257.995 -2595.352)"/></g><g transform="translate(3.153 14.267)"><path class="g" d="M1232.655,2632.2c-.189-2.18-.4-4.357-.606-6.536-.137-1.473-.166-3.08-1.113-4.287-1-1.27-2.664-1.919-4.052-2.6a8.271,8.271,0,0,0-2.069-.849,10,10,0,0,0-2.678.077.478.478,0,0,0-.553-.086c-1.991.837-4.5,1.739-6.028,3.361-1.478,1.565-1.16,4.13-1.224,6.136a26.685,26.685,0,0,0,.544,7.308c.325,1.3,1.1,4.345,2.493,4.822a.623.623,0,0,0,.7-.294l.02-.036a.638.638,0,0,0-.445-.941,10.845,10.845,0,0,1-.923-1.936,12.891,12.891,0,0,1-.548-1.593,16.312,16.312,0,0,1,2.542,1.266,12.2,12.2,0,0,0,2.428.758,15.9,15.9,0,0,0,5.4.085,15.307,15.307,0,0,0,4.76-1.255C1232.695,2634.874,1232.781,2633.659,1232.655,2632.2Z" transform="translate(-1214.301 -2617.858)"/></g><g transform="translate(9.99 9.79)"><path class="g" d="M1247.236,2604.092h0a1.976,1.976,0,0,1-1.976-1.976v-4.528h3.952v4.528A1.975,1.975,0,0,1,1247.236,2604.092Z" transform="translate(-1245.26 -2597.589)"/></g><g transform="translate(9.995 11.19)"><path class="k" d="M1249.236,2604.045a6.9,6.9,0,0,0-1.925-.092,5.1,5.1,0,0,0-1.994.459l-.032.016v1.683a2.808,2.808,0,0,0,2.678.872,4.792,4.792,0,0,0,1.274-.569Z" transform="translate(-1245.285 -2603.927)"/></g><g transform="translate(7.996 2.663)"><path class="g" d="M1240.222,2565.319c-4.356.067-3.991,3.807-3.979,3.97.128,1.786.136,3.243.875,4.46.458.754,1.984,2.535,3.095,2.558.743.015,2-1.145,2.475-1.931a9.063,9.063,0,0,0,1.393-5.041C1244.034,2567.219,1244.916,2565.247,1240.222,2565.319Z" transform="translate(-1236.231 -2565.317)"/></g><g transform="translate(7.341 7.438)"><path class="g" d="M1233.576,2588.667c.2.3.965.93,1.237.44.139-.252-.094-.535-.217-.74l-.108-.18c.115.192.413,0,.306-.2-.172-.33-.659-1.368-1.174-.948A1.15,1.15,0,0,0,1233.576,2588.667Z" transform="translate(-1233.266 -2586.938)"/></g><g transform="translate(9.716 7.931)"><path class="t" d="M1244.57,2589.593c0,.233-.123.422-.276.422s-.276-.189-.276-.422.123-.422.276-.422S1244.57,2589.36,1244.57,2589.593Z" transform="translate(-1244.019 -2589.171)"/></g><g transform="translate(13.648 7.882)"><path class="t" d="M1262.376,2589.369c0,.233-.123.422-.276.422s-.276-.189-.276-.422.123-.422.276-.422S1262.376,2589.136,1262.376,2589.369Z" transform="translate(-1261.824 -2588.947)"/></g><g transform="translate(11.482 8.438)"><path class="k" d="M1252.938,2593.084c-.242.039-.482.084-.551-.262a1.647,1.647,0,0,1,.053-.469c.04-.287.066-.369.111-.656.036-.231-.318-.331-.355-.1-.052.334-.084.465-.131.8a1.41,1.41,0,0,0,0,.692c.156.413.606.407.972.348C1253.269,2593.4,1253.17,2593.047,1252.938,2593.084Z" transform="translate(-1252.019 -2591.467)"/></g><g transform="translate(11.084 11.184)"><path class="m" d="M1251.951,2603.9a4.324,4.324,0,0,1-1.58.007.145.145,0,0,0-.1.254.016.016,0,0,0,0,0,1.078,1.078,0,0,0,1.8-.026.131.131,0,0,0,.009-.025A.137.137,0,0,0,1251.951,2603.9Z" transform="translate(-1250.216 -2603.901)"/></g><g transform="translate(12.979 7.047)"><path class="t" d="M1260.577,2585.46a2.469,2.469,0,0,0-1.3-.273c-.172.029-.685.219-.39.477a12.159,12.159,0,0,0,1.63.136C1260.743,2585.834,1260.83,2585.557,1260.577,2585.46Z" transform="translate(-1258.795 -2585.168)"/></g><g transform="translate(9.024 7.013)"><path class="t" d="M1240.928,2585.446a.42.42,0,0,1,.153-.179,1.882,1.882,0,0,1,1.313-.214c.171.037.675.25.368.494-.139.11-1.128-.043-1.615.141C1240.9,2585.782,1240.84,2585.634,1240.928,2585.446Z" transform="translate(-1240.889 -2585.013)"/></g><g transform="translate(14.902 7.365)"><path class="g" d="M1268.739,2586.7c-.515-.42-1,.618-1.174.948-.107.205.191.394.306.2l-.108.18c-.123.205-.356.489-.217.74.272.49,1.032-.14,1.237-.44A1.149,1.149,0,0,0,1268.739,2586.7Z" transform="translate(-1267.503 -2586.606)"/></g><g transform="translate(15.326 7.972)"><path class="k" d="M1269.7,2589.534a1.016,1.016,0,0,1-.23.559c-.15.181.109.443.26.26a1.447,1.447,0,0,0,.338-.819C1270.089,2589.3,1269.72,2589.3,1269.7,2589.534Z" transform="translate(-1269.424 -2589.357)"/></g><g transform="translate(7.798 7.989)"><path class="k" d="M1235.707,2589.609a1.015,1.015,0,0,0,.23.559c.15.181-.109.443-.26.26a1.448,1.448,0,0,1-.338-.819C1235.318,2589.373,1235.686,2589.375,1235.707,2589.609Z" transform="translate(-1235.338 -2589.433)"/></g><g transform="translate(6.558 2.843)"><path class="t" d="M1236.365,2566.33a4.035,4.035,0,0,0-2.283-.055,6.025,6.025,0,0,0-1.39.345,5.814,5.814,0,0,1-1.75.585.256.256,0,0,0-.345.009c-.741,1.025-1.531,3.508,0,4.31,1.59.834,2.663-1.77,3.31-2.69a4.344,4.344,0,0,1,1.293-1.29c.375-.219.952-.215,1.286-.473C1236.8,2566.83,1236.685,2566.525,1236.365,2566.33Z" transform="translate(-1229.722 -2566.133)"/></g><g transform="translate(7.061 15.407)"><path class="u" d="M1241.277,2637.97c-.588-4.721-.5-9.515-1.318-14.205a.322.322,0,0,0-.633-.031q-1.063,4.355-2.126,8.71c-.853-3.139-2.217-6.189-3.348-9.22a.32.32,0,0,0-.6.222c.247.662.505,1.324.766,1.988a.339.339,0,0,0-.11.079c-2.618,2.808-1.857,7.351-1.62,10.842.244,3.593,1.356,7.192,5.012,8.176.959.258,3.289-.093,3.961-1.1C1242.12,2642.14,1241.45,2639.356,1241.277,2637.97Z" transform="translate(-1232.001 -2623.023)"/></g><g transform="translate(6.962 1.334)"><path class="t" d="M1241.26,2562.945a2.96,2.96,0,0,0-1.807-2.572,7.5,7.5,0,0,0-2.072-.435c-.925-1.057-2.445-.674-3.549.219a7.1,7.1,0,0,0-2.043,2.13,3.848,3.848,0,0,0-.015,2.61.32.32,0,0,0,.018.038c.014.047.025.095.041.142a.361.361,0,0,0,.15.192c.841.454,1.485-.169,2.084-.762.983-.972,1.978-2.745,3.568-2.552a.139.139,0,0,0,.04,0,.167.167,0,0,0,.051.056c1.037.714,1.5,2.731,2.622,3.321C1241.2,2565.775,1241.28,2563.493,1241.26,2562.945Z" transform="translate(-1231.551 -2559.3)"/></g><g transform="translate(15.34 8.871)"><path class="j" d="M1269.787,2593.5c-.108-.175-.385-.014-.276.161a.948.948,0,0,1,.147.535.16.16,0,0,0,.32,0A1.26,1.26,0,0,0,1269.787,2593.5Z" transform="translate(-1269.486 -2593.427)"/></g><g transform="translate(-1.765 14.137)"><path class="o" d="M1218.864,2671.029c-.46-5.16-1.009-10.214-1.251-15.389-.244-5.228-.077-10.457-.243-15.686a85.441,85.441,0,0,0-2.531-16.765c-1.067-3.947-3.159-3.614-6.588-5.542a.707.707,0,0,0-.141-.084.4.4,0,0,0-.36-.281,17.133,17.133,0,0,0-1.8.171,12.025,12.025,0,0,1-2.083-.156.163.163,0,0,0-.2.112l-.078.266-.031.007c-3.974.815-6.207,2.736-7.3,6.433-1.433,4.845-1.681,11.639-1.911,16.646-.25,5.418-.97,10.728-1.557,16.113-.619,5.675-.7,11.388-.759,17.091a.329.329,0,0,0,.235.308c2.575.929,10.459,1.621,11.641,1.536a.33.33,0,0,0,.32-.32c.648-9.622,1.657-19.3,1.832-28.943.173-9.5-2.091-18.511-2.1-28-.015-.125-.027-.229-.037-.324a8.758,8.758,0,0,0,3.66-.008q.064,14.527.129,29.055c.042,9.392-.509,19.042,1.177,28.325a.323.323,0,0,0,.47.191,54.516,54.516,0,0,1,9.206-4.092.285.285,0,0,0,.155-.074C1218.889,2671.507,1218.957,2671.363,1218.864,2671.029Z" transform="translate(-1192.036 -2617.274)"/></g><g transform="translate(5.807 17.771)"><path class="v" d="M1227.986,2637.933a14.276,14.276,0,0,0-.879-4.124c-.08-.189-.356-.026-.276.161a11.882,11.882,0,0,1,.765,3.313,9.247,9.247,0,0,0-.973-2.055c-.11-.174-.387-.013-.276.161a8.977,8.977,0,0,1,1.165,2.769.145.145,0,0,0,.191.107c.01.1.02.191.03.286q.242,2.241.485,4.482c.022.2.342.2.32,0Q1228.262,2640.483,1227.986,2637.933Z" transform="translate(-1226.321 -2633.725)"/></g></g></g><g class="w"><path class="o" d="M1221.784,2572.921h-21.763a1.016,1.016,0,0,1-1.014-1.014v-18.515a1.015,1.015,0,0,1,1.014-1.014h21.763a1.015,1.015,0,0,1,1.014,1.014v18.515A1.016,1.016,0,0,1,1221.784,2572.921Zm-21.763-20.093a.565.565,0,0,0-.564.564v18.515a.564.564,0,0,0,.564.564h21.763a.564.564,0,0,0,.564-.564v-18.515a.565.565,0,0,0-.564-.564Z" transform="translate(-1199.007 -2552.378)"/></g></g><g transform="translate(68.128 36.799)"><g class="r" transform="translate(0.015 0.467)"><rect class="d" width="23.341" height="19.851" rx="3.505"/><g transform="translate(0.728)"><g class="s"><g transform="translate(5.605 1.886)"><path class="t" d="M1588.088,2574.185c-.244-.5-.578-.962-.778-1.486a3.286,3.286,0,0,1-.037-1.8,3.064,3.064,0,0,0-.6-2.33,2.965,2.965,0,0,0-.764-.7c-.178-.112-.364-.174-.549-.272-.347-.185-.443-.442-.692-.712a1.911,1.911,0,0,0-1.818-.4,2.363,2.363,0,0,0-.9.438,12.554,12.554,0,0,0-.841.947c-.438.089-1.487.16-1.889.677-.6.766-.507,1.869-.932,2.7a7.727,7.727,0,0,0-1.15,2.156,2.137,2.137,0,0,0,.044.919,4.325,4.325,0,0,1,.226.969c.006.268-.057.534-.069.8a2.306,2.306,0,0,0,.831,1.924,1.108,1.108,0,0,0,.731.236,5.442,5.442,0,0,1,.821-.051,2.108,2.108,0,0,0,.48.082c.61-.05.8-.786.9-1.281a12.536,12.536,0,0,0,0-2.836,20.913,20.913,0,0,1,.615-3.473c0-.015,0-.03,0-.044.165.783.281,1.575.372,2.37a6.957,6.957,0,0,0,.952,3.44c.1.874.57,1.788,1.556,1.85.63.04.868-.422,1.412-.628a1.663,1.663,0,0,1,.619-.083,1.329,1.329,0,0,0,1.85-.957A3.685,3.685,0,0,0,1588.088,2574.185Z" transform="translate(-1577.104 -2566.41)"/></g><g transform="translate(7.02 8.291)"><path class="x" d="M1586.08,2599.586a4.714,4.714,0,0,0,.076-.62,7.59,7.59,0,0,0-.513-1.126c-.184-.345-.6-1.18-1.129-1.148a.33.33,0,0,0-.343.242,2.241,2.241,0,0,1-.053-1.178c.081-.346-.452-.493-.533-.147a4.3,4.3,0,0,0,.395,2.489c.215.77-.164,1.69.21,2.4a1.32,1.32,0,0,0,.2.282,1.261,1.261,0,0,1,.312,0,2.134,2.134,0,0,0,.48.082C1585.794,2600.817,1585.982,2600.081,1586.08,2599.586Z" transform="translate(-1583.51 -2595.412)"/></g><g transform="translate(12.153 8.232)"><path class="x" d="M1609.609,2596.844a3.033,3.033,0,0,1-.137-1.432c.025-.355-.528-.353-.553,0a3.884,3.884,0,0,0,.009.712.287.287,0,0,0-.255,0,.277.277,0,0,0-.387.085,4.2,4.2,0,0,0-.49,1.154.271.271,0,0,0-.313.045,2.446,2.446,0,0,0-.252,3.174,1.48,1.48,0,0,0,.465.105c.63.04.867-.422,1.412-.628a1.668,1.668,0,0,1,.619-.083c.047.019.095.036.143.05a2.5,2.5,0,0,0,.364-.93,2.446,2.446,0,0,0-.18-1.458C1609.926,2597.361,1609.727,2597.132,1609.609,2596.844Z" transform="translate(-1606.753 -2595.146)"/></g><g transform="translate(3.35 13.34)"><path class="g" d="M1581.986,2622.972c-.665-2.653-4.248-2.968-6.082-4.622-.258-.233-.65.139-.391.372l.007.006-2.045-.174a.284.284,0,0,0-.472-.2c-1.834,1.654-5.417,1.969-6.082,4.622-.283,1.129,1.592,3.231,1.818,4.344.318,1.563,1.089,5.8,1.416,7.357.3,1.424.626.438,1.013,1.842.206.746-1.606.267-.81.548a10.755,10.755,0,0,0,3.909.106c.062,0,.123-.009.185-.013s.124.01.185.013a10.754,10.754,0,0,0,3.909-.106c.8-.281-1.321,1.165-1.116.419.387-1.4,1.129-1.8,1.427-3.224.212-1.011-.873,3.966-.092,2.026.425-1.055.948-7.589,1.059-8.14C1580.053,2627.032,1582.268,2624.1,1581.986,2622.972Z" transform="translate(-1566.893 -2618.276)"/></g><g transform="translate(9.248 9.822)"><path class="g" d="M1595.31,2607.963h0a1.707,1.707,0,0,1-1.707-1.707v-3.911h3.413v3.911A1.707,1.707,0,0,1,1595.31,2607.963Z" transform="translate(-1593.603 -2602.346)"/></g><g transform="translate(9.253 11.031)"><path class="k" d="M1597.036,2607.923a5.963,5.963,0,0,0-1.663-.08,4.41,4.41,0,0,0-1.722.4l-.028.014v1.454a2.426,2.426,0,0,0,2.313.753,4.153,4.153,0,0,0,1.1-.491Z" transform="translate(-1593.623 -2607.82)"/></g><g transform="translate(7.526 3.666)"><path class="g" d="M1589.251,2574.473c-3.762.058-3.447,3.288-3.437,3.43a8.45,8.45,0,0,0,.756,3.852,3.328,3.328,0,0,0,2.689,1.9,2.55,2.55,0,0,0,1.968-1.159,7.055,7.055,0,0,0,1.358-4.551C1592.543,2576.115,1593.3,2574.411,1589.251,2574.473Z" transform="translate(-1585.803 -2574.471)"/></g><g transform="translate(13.509 7.779)"><path class="g" d="M1613.96,2593.179c-.445-.362-.866.534-1.014.819-.092.178.165.34.264.175l-.093.155c-.106.177-.308.422-.187.64.235.424.892-.121,1.068-.38A.993.993,0,0,0,1613.96,2593.179Z" transform="translate(-1612.893 -2593.094)"/></g><g transform="translate(5.159 14.756)"><path class="o" d="M1585.79,2630.377q-.189-2.709-.22-5.424a.276.276,0,0,0-.552,0q.027,2.59.2,5.173a15.414,15.414,0,0,1-8.568.108c-.14-1.6-.3-3.2-.459-4.8-.035-.351-.588-.354-.553,0,.16,1.613.322,3.226.463,4.841,0,.006-.011.011-.014.018a15.512,15.512,0,0,1-1,1.851c.019.061.037.121.049.177.317,1.559,1.085,5.776,1.414,7.345,1.489,1.493,4.537,1.6,6.469,1.316a3.6,3.6,0,0,0,1.987-.915,4.277,4.277,0,0,0,.241-.762c-.032.153-.079.391-.131.66a3.877,3.877,0,0,0,.4-.476c.323-2.319.625-5.935.708-6.338a4.02,4.02,0,0,1,.356-.89A18.919,18.919,0,0,0,1585.79,2630.377Z" transform="translate(-1575.087 -2624.686)"/></g><g transform="translate(13.875 8.304)"><path class="k" d="M1614.79,2595.623a.876.876,0,0,1-.2.482c-.13.156.094.383.225.225a1.248,1.248,0,0,0,.292-.707C1615.126,2595.419,1614.808,2595.421,1614.79,2595.623Z" transform="translate(-1614.552 -2595.471)"/></g><g transform="translate(6.986 7.808)"><path class="g" d="M1583.627,2594.718c.177.258.834.8,1.069.38.12-.217-.081-.462-.188-.64l-.093-.155c.1.165.356,0,.264-.175-.148-.285-.569-1.181-1.014-.819A.993.993,0,0,0,1583.627,2594.718Z" transform="translate(-1583.359 -2593.224)"/></g><g transform="translate(7.437 8.333)"><path class="k" d="M1585.718,2595.753a.876.876,0,0,0,.2.482c.13.156-.094.383-.225.225a1.249,1.249,0,0,1-.292-.707C1585.382,2595.55,1585.7,2595.551,1585.718,2595.753Z" transform="translate(-1585.4 -2595.601)"/></g><g transform="translate(9.012 8.216)"><ellipse class="h" cx="0.238" cy="0.364" rx="0.238" ry="0.364"/></g><g transform="translate(12.396 8.243)"><ellipse class="h" cx="0.238" cy="0.364" rx="0.238" ry="0.364"/></g><g transform="translate(10.515 8.574)"><path class="k" d="M1600.13,2598.09c-.208.034-.417.073-.475-.226a1.428,1.428,0,0,1,.046-.405c.035-.248.057-.319.1-.567.031-.2-.275-.286-.307-.084-.045.289-.073.4-.113.69a1.219,1.219,0,0,0,0,.6c.134.356.524.352.839.3C1600.416,2598.364,1600.33,2598.058,1600.13,2598.09Z" transform="translate(-1599.336 -2596.693)"/></g><g transform="translate(10.119 10.999)"><path class="d" d="M1599.042,2607.678a4.616,4.616,0,0,1-1.365.005c-.122-.018-.18.134-.089.177l0,0a1.062,1.062,0,0,0,1.557-.018.077.077,0,0,0,.008-.017C1599.209,2607.77,1599.152,2607.661,1599.042,2607.678Z" transform="translate(-1597.544 -2607.676)"/></g><g transform="translate(11.67 7.135)"><path class="h" d="M1606.587,2590.44a.407.407,0,0,0-.179-.136,2.346,2.346,0,0,0-1.39-.041c-.174.05-.676.287-.329.464a10.566,10.566,0,0,0,1.647-.024C1606.614,2590.7,1606.7,2590.593,1606.587,2590.44Z" transform="translate(-1604.569 -2590.177)"/></g><g transform="translate(8.16 7.097)"><path class="h" d="M1588.964,2590.535a9.823,9.823,0,0,0,1.584.021c.334-.177-.148-.413-.315-.463a2.179,2.179,0,0,0-1.337.042.4.4,0,0,0-.173.137C1588.614,2590.425,1588.7,2590.529,1588.964,2590.535Z" transform="translate(-1588.676 -2590.008)"/></g><g transform="translate(7.088 3.219)"><path class="t" d="M1590.494,2573.128a4.06,4.06,0,0,0-3.879-.346.139.139,0,0,0-.092.144.116.116,0,0,0-.109.009.121.121,0,0,0-.134-.04c-.46.136-.829.089-1.178.461a3.021,3.021,0,0,0-.546.992,16.014,16.014,0,0,0-.667,1.95c-.055.229-.146.49.05.69.554.565.929-.784,1.086-1.034.218-.348.58-.569.746-.948.281-.641.1-.96.716-1.428.54.075.563,1.128.858,1.433a.635.635,0,0,0,.44.2,1.781,1.781,0,0,1,.723.1c.39.164.265.115.53.424.364.425.691.38,1.21.279s1.115.1,1.361-.483A2.078,2.078,0,0,0,1590.494,2573.128Z" transform="translate(-1583.82 -2572.448)"/></g><g transform="translate(12.375 6.126)"><path class="t" d="M1610.477,2586.609c-.089-.619-.769-1.252-1.416-.866a.419.419,0,0,0-.225.321c-.208-.121-.494-.189-.623-.356-.217-.281-.606.113-.391.391.242.313.693.3.933.647.223.325.307.632.692.813C1610.186,2587.906,1610.575,2587.3,1610.477,2586.609Z" transform="translate(-1607.758 -2585.611)"/></g><g transform="translate(1.748 16.503)"><path class="g" d="M1563.033,2635.193a9.2,9.2,0,0,0-.583-2.164l.005-.005c.226-.221-.116-.578-.34-.359-1.06,1.039-1.425,2.781-1.671,4.264-.341,2.057-.118,4.159-.417,6.218a20.712,20.712,0,0,0-.3,5.531c.2,1.814.5,3.614.856,5.4a18.051,18.051,0,0,0-.323,2.781c0,.1,0,.184,0,.262a4.234,4.234,0,0,0,.008,1.469,1.86,1.86,0,0,0,.814.866.127.127,0,0,0,.183-.05c.077.1.158.19.243.284a.139.139,0,0,0,.231-.135,3.763,3.763,0,0,1-.16-.876c.017.068.036.137.061.206a1.656,1.656,0,0,0,.6.977.14.14,0,0,0,.2-.156,14.07,14.07,0,0,1-.452-1.565,5.591,5.591,0,0,1-.051-.892,2.658,2.658,0,0,0,.17-.919,7.434,7.434,0,0,0-.419-1.6c.012,0,.021-.008.021-.011.372-3.173.783-6.947.844-10.151a23.613,23.613,0,0,1,1.256-8.173C1563.892,2636.174,1563.182,2635.137,1563.033,2635.193Z" transform="translate(-1559.64 -2632.596)"/></g><g transform="translate(15.904 16.503)"><path class="g" d="M1624.523,2635.193a9.191,9.191,0,0,1,.583-2.164l-.005-.005c-.226-.221.116-.578.34-.359,1.06,1.039,1.425,2.781,1.672,4.264.341,2.057.118,4.159.416,6.218a20.717,20.717,0,0,1,.3,5.531c-.2,1.814-.5,3.614-.856,5.4a18.066,18.066,0,0,1,.323,2.781c0,.1,0,.184,0,.262a4.225,4.225,0,0,1-.008,1.469,1.861,1.861,0,0,1-.814.866.127.127,0,0,1-.183-.05c-.077.1-.158.19-.243.284a.139.139,0,0,1-.231-.135,3.776,3.776,0,0,0,.16-.876c-.017.068-.037.137-.061.206a1.656,1.656,0,0,1-.6.977.14.14,0,0,1-.2-.156,13.967,13.967,0,0,0,.452-1.565,5.591,5.591,0,0,0,.051-.892,2.664,2.664,0,0,1-.17-.919,7.463,7.463,0,0,1,.419-1.6c-.012,0-.021-.008-.021-.011-.372-3.173-.783-6.947-.844-10.151a23.613,23.613,0,0,0-1.256-8.173C1623.665,2636.174,1624.374,2635.137,1624.523,2635.193Z" transform="translate(-1623.741 -2632.596)"/></g></g></g></g><g class="w"><path class="o" d="M1571.138,2576.3h-21.763a1.015,1.015,0,0,1-1.014-1.014v-18.515a1.015,1.015,0,0,1,1.014-1.014h21.763a1.015,1.015,0,0,1,1.014,1.014v18.515A1.015,1.015,0,0,1,1571.138,2576.3Zm-21.763-20.093a.565.565,0,0,0-.564.564v18.515a.564.564,0,0,0,.564.564h21.763a.564.564,0,0,0,.564-.564v-18.515a.565.565,0,0,0-.564-.564Z" transform="translate(-1548.361 -2555.755)"/></g></g></g></g></g></svg>