<svg xmlns="http://www.w3.org/2000/svg" viewBox="0 0 167.3 170.83"><defs><style>.cls-1{fill:#0855c4;}.cls-2{fill:#00adee;}.cls-3{opacity:0.17;}.cls-4{fill:#454a6c;}</style></defs><title>protege hasta</title><g id="Capa_2" data-name="Capa 2"><g id="Capa_1-2" data-name="Capa 1"><path class="cls-1" d="M13.38,137.19c-.09-.55-2.08-13.45,6.83-24.15C27.39,104.41,39.43,99.86,56,99.52a13.73,13.73,0,0,0,9-3.9c2.54-2.7,3.69-6.68,3.42-11.82l4-.21c.33,6.3-1.2,11.28-4.55,14.81A17.64,17.64,0,0,1,56,103.52c-15.26.31-26.28,4.36-32.7,12-7.74,9.27-6,20.87-6,21Z"/><path class="cls-1" d="M86.12,128a43.81,43.81,0,0,1-39.5-25.09l3.62-1.7a39.65,39.65,0,0,0,56.07,17.27l2,3.44A43.54,43.54,0,0,1,86.12,128Z"/><path class="cls-2" d="M136.28,143.87a2.87,2.87,0,0,1-.82-.13,21.65,21.65,0,0,1-14.91-20.83v-6.12a4.22,4.22,0,0,1,3.12-4.12l12.61-4.55,12.6,4.55a4.22,4.22,0,0,1,3.13,4.12v6.12a21.66,21.66,0,0,1-14.92,20.83A2.85,2.85,0,0,1,136.28,143.87Zm.4-3.94h0Zm-.4-27.56-11.57,4.16a.26.26,0,0,0-.16.26v6.12a17.67,17.67,0,0,0,11.73,16.88A17.69,17.69,0,0,0,148,122.91v-6.12a.26.26,0,0,0-.16-.26l-.23-.06Z"/><g class="cls-3"><path class="cls-2" d="M136.48,141.83h0a.68.68,0,0,1-.4,0h0a19.74,19.74,0,0,1-13.53-18.92v-6.12a2.26,2.26,0,0,1,1.71-2.21l12-4.34,12,4.34a2.26,2.26,0,0,1,1.71,2.21v6.12A19.76,19.76,0,0,1,136.48,141.83Z"/></g><path class="cls-4" d="M154.7,103.82l-1.49-.21a76.3,76.3,0,0,0-33.55-74.14l.83-1.25a77.59,77.59,0,0,1,34.94,64.9A79.48,79.48,0,0,1,154.7,103.82Z"/><path class="cls-4" d="M77.72,170.83a77.73,77.73,0,0,1-31.1-149l.6,1.38a76.23,76.23,0,0,0,30.5,146.08,75.44,75.44,0,0,0,47.36-16.5L126,154A76.88,76.88,0,0,1,77.72,170.83Z"/><polygon class="cls-2" points="134 130.93 128.4 124.52 131.41 121.89 134.3 125.2 141.29 118.7 144.02 121.64 134 130.93"/><path class="cls-1" d="M118.27,104.26a78.1,78.1,0,0,0-9.41-.74h0a17.62,17.62,0,0,1-11.8-5.12c-3.35-3.53-4.88-8.51-4.54-14.81l4,.21C96.24,89,97.4,93,100,95.65a13.58,13.58,0,0,0,8.94,3.87,82.34,82.34,0,0,1,9.95.78Z"/><path class="cls-1" d="M82.05,89.76C67.53,89.76,57.22,76,52.25,50a38.08,38.08,0,0,1-.69-7h4a34.3,34.3,0,0,0,.62,6.25c2.6,13.63,9.43,36.48,25.87,36.48,10,0,22.7-9.52,25.86-36.33a50.87,50.87,0,0,0,.34-6.67l4-.08a53.85,53.85,0,0,1-.37,7.21C109,74.11,97.32,89.76,82.05,89.76Z"/><path class="cls-1" d="M60.45,41.47l-1.36-3.76.68,1.88-.69-1.88c.11,0,10.53-3.91,14.19-12.07l3.65,1.64C72.55,37,60.94,41.3,60.45,41.47Z"/><path class="cls-1" d="M116.65,47.74C106.65,44.23,97.25,34.5,93.3,30c-5.24,7.63-17.38,9.3-18,9.38l-.52-4,.26,2-.26-2c.13,0,13.25-1.84,16.22-9.67l1.25-3.3,2.19,2.77C94.6,25.36,106.17,39.83,118,44Z"/><path class="cls-1" d="M113.69,103.26l-2-3.47,1,1.73-1-1.73c.75-.44,18.32-11,13.11-38.87l0-.36a92.94,92.94,0,0,0-5.27-27.72C112.82,14.72,101.21,5,85,4.06c-.21,0-15.64-1.18-27.79,9.74-9.63,8.65-14.72,22.44-15.13,41,0,.35-1.17,30.76,15.27,45.25l-2.64,3C36.8,87.26,38,56,38.06,54.63c.44-19.66,6-34.43,16.5-43.85C68-1.29,84.58,0,85.28.07c17.68,1.07,30.84,12,38,31.48a95.79,95.79,0,0,1,5.48,28.8C134.41,91,113.9,103.14,113.69,103.26Z"/><path class="cls-1" d="M83,74.48c-4.83,0-8.76-3.52-8.93-3.67l2-2.22-1,1.11,1-1.11s3.51,3.12,7.33,2.88a7.24,7.24,0,0,0,5-2.75l2.27,2a10.1,10.1,0,0,1-7.16,3.78Z"/><path class="cls-1" d="M98.25,49c-.59-.63-2.54-2.24-4.4-2.13a4.13,4.13,0,0,0-3,2L88.4,47.14a7,7,0,0,1,5.29-3.23c3.68-.24,6.64,3,6.77,3.1Z"/><path class="cls-1" d="M72.58,49c-.59-.63-2.54-2.24-4.4-2.13a4.13,4.13,0,0,0-3,2l-2.43-1.77A7,7,0,0,1,68,43.91c3.67-.24,6.64,3,6.76,3.1Z"/><path class="cls-2" d="M135.91,156.42A31.4,31.4,0,1,1,167.3,125,31.44,31.44,0,0,1,135.91,156.42Zm0-58.79A27.4,27.4,0,1,0,163.3,125,27.43,27.43,0,0,0,135.91,97.63Z"/><rect class="cls-1" x="76.24" y="55.15" width="12.09" height="3" transform="translate(20.66 135.27) rotate(-86.45)"/></g></g></svg>