<svg xmlns="http://www.w3.org/2000/svg" xmlns:xlink="http://www.w3.org/1999/xlink" width="161.692" height="42.541" viewBox="0 0 161.692 42.541"><defs><style>.a{fill:none;}.b{fill:#fff;}.c{fill:#c69749;}.d{clip-path:url(#a);}</style><clipPath id="a"><rect class="a" width="107.888" height="13.155"/></clipPath></defs><g transform="translate(-332.529 -84.181)"><g transform="translate(350.761 98.517)"><g transform="translate(1.436 22.249)"><path class="b" d="M43.535,95.23V91c0-.365.179-.544.5-.544h.171a.474.474,0,0,1,.528.544v1.6H47V91c0-.365.171-.544.5-.544h.179c.341,0,.52.179.52.544V95.23a.475.475,0,0,1-.52.544H47.5c-.325,0-.5-.187-.5-.544V93.613H44.737V95.23a.477.477,0,0,1-.528.544h-.171c-.325,0-.5-.187-.5-.544" transform="translate(-43.535 -89.967)"/><path class="b" d="M58.677,94.881h.13a.5.5,0,0,0-.008-.114.7.7,0,0,0-.8-.715.993.993,0,0,0-.974.576c-.008.016-.739.073-.739-.455a.727.727,0,0,1,.244-.52,2.137,2.137,0,0,1,1.543-.463c1.259,0,1.868.576,1.868,1.64v2.339c0,.057-.211.13-.43.13a.592.592,0,0,1-.6-.382,1.6,1.6,0,0,1-.065-.268,1.583,1.583,0,0,1-1.373.682c-.829,0-1.332-.455-1.332-1.137,0-.885.861-1.292,2.542-1.316m.13.576h-.219c-.9.032-1.381.2-1.381.65,0,.3.236.488.617.488a.894.894,0,0,0,.983-.853Z" transform="translate(-50.451 -91.47)"/><path class="b" d="M66.521,96.465a.5.5,0,0,1,.349-.455,1.733,1.733,0,0,0,1.308.536c.447,0,.691-.154.691-.406,0-.308-.317-.365-.845-.479-.544-.114-1.389-.293-1.389-1.186,0-.772.626-1.283,1.649-1.283a1.743,1.743,0,0,1,1.5.528.583.583,0,0,1,.1.325.567.567,0,0,1-.365.479,1.577,1.577,0,0,0-1.162-.535c-.438,0-.674.162-.674.414,0,.284.309.341.844.463.56.122,1.454.3,1.454,1.194,0,.8-.634,1.275-1.747,1.275a2.614,2.614,0,0,1-1.365-.3.693.693,0,0,1-.349-.569" transform="translate(-56.152 -91.47)"/><path class="b" d="M76.286,94.818V93h-.2c-.325,0-.471-.146-.471-.406v-.065c0-.268.146-.423.463-.423h.211v-.5c0-.373.187-.552.512-.552H76.9c.3,0,.5.13.5.552v.5H78.1c.324,0,.463.138.463.4v.073c0,.277-.146.423-.471.423h-.7v1.689c0,.39.122.585.439.585a.583.583,0,0,0,.5-.268.45.45,0,0,1,.284.447.58.58,0,0,1-.194.438,1.186,1.186,0,0,1-.853.292c-.869,0-1.275-.463-1.275-1.364" transform="translate(-61.143 -90.294)"/><path class="b" d="M86.324,94.881h.13a.5.5,0,0,0-.008-.114.7.7,0,0,0-.8-.715.993.993,0,0,0-.974.576c-.008.016-.739.073-.739-.455a.725.725,0,0,1,.244-.52,2.137,2.137,0,0,1,1.543-.463c1.259,0,1.868.576,1.868,1.64v2.339c0,.057-.211.13-.43.13a.592.592,0,0,1-.6-.382,1.6,1.6,0,0,1-.065-.268,1.583,1.583,0,0,1-1.373.682c-.829,0-1.332-.455-1.332-1.137,0-.885.861-1.292,2.542-1.316m.13.576h-.219c-.9.032-1.381.2-1.381.65,0,.3.236.488.617.488a.894.894,0,0,0,.983-.853Z" transform="translate(-65.627 -91.47)"/><path class="b" d="M98.35,95.359a1.036,1.036,0,0,1-.528-.8.593.593,0,0,1,.707-.568,1.248,1.248,0,0,0,1.3.837c.634,0,1.032-.285,1.032-.747,0-.479-.317-.723-.934-.723H99.65c-.4,0-.553-.146-.553-.406v-.065c0-.284.179-.406.536-.406h.39c.487,0,.747-.235.747-.617,0-.406-.357-.658-.959-.658a1.156,1.156,0,0,0-1.17.755.584.584,0,0,1-.69-.56.967.967,0,0,1,.512-.763,2.531,2.531,0,0,1,1.373-.357c1.323,0,2.063.52,2.063,1.446a1.1,1.1,0,0,1-.918,1.1A1.353,1.353,0,0,1,102,94.149c0,1.015-.788,1.608-2.168,1.608a2.615,2.615,0,0,1-1.486-.4" transform="translate(-73.334 -89.869)"/><path class="b" d="M109.925,95.217V91.9a.727.727,0,0,1-.471.171.8.8,0,0,1-.52-.187.655.655,0,0,1-.2-.487.574.574,0,0,1,.317-.569.756.756,0,0,0,.5.179.706.706,0,0,0,.691-.609h.349c.341,0,.52.187.52.553v4.264c0,.358-.179.553-.52.553h-.155c-.333,0-.5-.195-.5-.553" transform="translate(-79.322 -89.938)"/><path class="b" d="M120.431,93.333a1.861,1.861,0,0,1,1.844-2.079,1.485,1.485,0,0,1,1.25.6V89.792a.636.636,0,0,1,.431-.13c.341,0,.715.179.715.918v4.215c0,.415-.2.544-.5.544h-.114c-.26,0-.454-.089-.495-.4-.009-.089-.016-.178-.016-.276a1.439,1.439,0,0,1-1.292.756,1.873,1.873,0,0,1-1.819-2.087m3.1-.528a1,1,0,0,0-.983-.633,1.032,1.032,0,0,0-1.031,1.162,1.055,1.055,0,0,0,1.015,1.17.953.953,0,0,0,1-.95Z" transform="translate(-85.745 -89.533)"/><path class="b" d="M134.078,93.192a1.886,1.886,0,0,1,1.973,1.981v.074c-.008.195-.065.3-.277.3H133.03l.025.13a1.1,1.1,0,0,0,1.137.853,1.18,1.18,0,0,0,1.112-.577c.008-.016.56.032.56.488a.774.774,0,0,1-.438.617,2.425,2.425,0,0,1-1.268.3,1.968,1.968,0,0,1-2.136-2.063,2.014,2.014,0,0,1,2.055-2.1m-.009.788a1.025,1.025,0,0,0-1.023.942H135a.9.9,0,0,0-.926-.942" transform="translate(-92.108 -91.47)"/><path class="b" d="M146.422,93.333a1.862,1.862,0,0,1,1.844-2.079,1.485,1.485,0,0,1,1.25.6V89.792a.637.637,0,0,1,.431-.13c.341,0,.715.179.715.918v4.215c0,.415-.2.544-.5.544h-.114c-.26,0-.454-.089-.495-.4-.009-.089-.016-.178-.016-.276a1.439,1.439,0,0,1-1.292.756,1.873,1.873,0,0,1-1.819-2.087m3.1-.528a1,1,0,0,0-.983-.633,1.032,1.032,0,0,0-1.031,1.162,1.055,1.055,0,0,0,1.015,1.17.953.953,0,0,0,1-.95Z" transform="translate(-100.012 -89.533)"/><path class="b" d="M159.069,89.375a.595.595,0,1,1-.642.593.573.573,0,0,1,.642-.593m-.576,2.323c0-.414.219-.553.512-.553h.122c.3,0,.511.13.511.553v2.94c0,.415-.211.544-.511.544h-.115c-.308,0-.519-.122-.519-.544Z" transform="translate(-106.601 -89.375)"/><path class="b" d="M165.413,93.192a2.009,2.009,0,0,1,1.3.4.955.955,0,0,1,.39.682c0,.463-.617.552-.642.5a.976.976,0,0,0-1-.658,1.161,1.161,0,0,0,0,2.315.991.991,0,0,0,1-.658c.025-.049.642.016.642.511a.915.915,0,0,1-.4.666,1.968,1.968,0,0,1-1.291.406,2.083,2.083,0,0,1,0-4.166" transform="translate(-109.299 -91.47)"/><path class="b" d="M174.316,89.375a.595.595,0,1,1-.642.593.573.573,0,0,1,.642-.593m-.577,2.323c0-.414.219-.553.512-.553h.122c.3,0,.512.13.512.553v2.94c0,.415-.211.544-.512.544h-.114c-.308,0-.52-.122-.52-.544Z" transform="translate(-114.971 -89.375)"/><path class="b" d="M180.642,93.192a1.886,1.886,0,0,1,1.973,1.981v.074c-.008.195-.065.3-.277.3h-2.745l.025.13a1.1,1.1,0,0,0,1.137.853,1.181,1.181,0,0,0,1.112-.577c.008-.016.56.032.56.488a.774.774,0,0,1-.438.617,2.425,2.425,0,0,1-1.268.3,1.968,1.968,0,0,1-2.136-2.063,2.014,2.014,0,0,1,2.055-2.1m-.009.788a1.025,1.025,0,0,0-1.023.942h1.95a.9.9,0,0,0-.926-.942" transform="translate(-117.668 -91.47)"/><path class="b" d="M196.025,94.768v1.965c0,.415-.211.544-.5.544H195.4c-.309,0-.52-.122-.52-.544V94.946c0-.52-.228-.8-.691-.8a.923.923,0,0,0-.78.488v2.095c0,.415-.211.544-.5.544h-.122c-.3,0-.52-.122-.52-.544V94.971c0-.544-.228-.821-.683-.821a.922.922,0,0,0-.779.488v2.095c0,.415-.212.544-.5.544h-.122c-.308,0-.52-.122-.52-.544V93.37c0-.041.2-.13.43-.13.285,0,.593.122.682.65a1.423,1.423,0,0,1,1.226-.7,1.254,1.254,0,0,1,1.267.812,1.481,1.481,0,0,1,1.332-.812c1.007,0,1.429.641,1.429,1.576" transform="translate(-123.745 -91.47)"/><path class="b" d="M207.42,94.95a.417.417,0,0,1-.471.39h-.122c-.3,0-.52-.122-.52-.552V89.793a.643.643,0,0,1,.439-.13c.333,0,.706.179.706.918V91.9a1.491,1.491,0,0,1,1.275-.65,1.852,1.852,0,0,1,1.827,2.071,1.887,1.887,0,0,1-1.835,2.1,1.4,1.4,0,0,1-1.275-.706Zm1.032-2.778a1.03,1.03,0,0,0-1,.65v.772a.943.943,0,0,0,.991.91,1.177,1.177,0,0,0,.009-2.331" transform="translate(-132.883 -89.533)"/><path class="b" d="M220.725,93.857a.592.592,0,0,1-.365.6.793.793,0,0,0-.52-.2c-.553,0-.8.488-.8,1.284v1.185c0,.415-.211.544-.5.544h-.122c-.309,0-.52-.122-.52-.544V93.37c0-.041.2-.13.43-.13a.633.633,0,0,1,.626.431,1.811,1.811,0,0,1,.057.276.99.99,0,0,1,.983-.755.65.65,0,0,1,.731.666" transform="translate(-139.246 -91.47)"/><path class="b" d="M227.118,93.192a1.886,1.886,0,0,1,1.973,1.981v.074c-.008.195-.065.3-.277.3H226.07l.024.13a1.1,1.1,0,0,0,1.137.853,1.181,1.181,0,0,0,1.112-.577c.008-.016.561.032.561.488a.775.775,0,0,1-.438.617,2.425,2.425,0,0,1-1.268.3,1.968,1.968,0,0,1-2.136-2.063,2.015,2.015,0,0,1,2.055-2.1m-.008.788a1.026,1.026,0,0,0-1.024.942h1.95a.9.9,0,0,0-.926-.942" transform="translate(-143.179 -91.47)"/></g><path class="b" d="M44.213,50.1c0-4.166,2.472-6.882,6.1-6.882a4.918,4.918,0,0,1,4.14,1.989V38.377a2.1,2.1,0,0,1,1.425-.43c1.129,0,2.365.591,2.365,3.037V54.935c0,1.371-.672,1.8-1.667,1.8H56.2c-.86,0-1.505-.3-1.64-1.317-.027-.3-.054-.592-.054-.914A4.76,4.76,0,0,1,50.234,57c-3.549,0-6.021-2.8-6.021-6.908m10.268-1.748a3.327,3.327,0,0,0-3.252-2.1c-2.043,0-3.414,1.478-3.414,3.844,0,2.285,1.4,3.871,3.36,3.871a3.153,3.153,0,0,0,3.306-3.145Z" transform="translate(-44.213 -37.275)"/><path class="b" d="M85.588,49.167a6.244,6.244,0,0,1,6.532,6.559v.242c-.027.645-.216.994-.915.994H82.12l.081.43a3.641,3.641,0,0,0,3.763,2.823,3.91,3.91,0,0,0,3.683-1.909c.027-.054,1.855.108,1.855,1.613a2.562,2.562,0,0,1-1.451,2.043,8.033,8.033,0,0,1-4.193.994c-4.274,0-7.069-2.661-7.069-6.828a6.667,6.667,0,0,1,6.8-6.962m-.027,2.608a3.393,3.393,0,0,0-3.387,3.118h6.451a2.978,2.978,0,0,0-3.064-3.118" transform="translate(-62.554 -43.227)"/><path class="b" d="M111.874,54.934V38.376a2.1,2.1,0,0,1,1.424-.43c1.129,0,2.365.591,2.365,3.037V54.934c0,1.371-.7,1.8-1.667,1.8h-.4c-.994,0-1.72-.4-1.72-1.8" transform="translate(-80.107 -37.274)"/><path class="b" d="M131.958,56.882l5.914-15.348c.242-.725.807-1.183,2.607-1.183s2.312.457,2.554,1.183l6.048,15.322c.134.322-.967,1.236-2.15,1.236a2.433,2.433,0,0,1-2.285-1.881L143.6,53.495H137.28L136.2,56.264c-.484,1.371-1.317,1.828-2.15,1.828-1.129,0-2.2-.86-2.1-1.21m10.806-6.37L140.4,44.195l-2.366,6.317Z" transform="translate(-90.757 -38.55)"/><path class="b" d="M184.855,47.858v6.317c0,1.371-.725,1.8-1.693,1.8h-.4c-.995,0-1.694-.4-1.694-1.8V48.449c0-1.747-.887-2.822-2.419-2.822a3.169,3.169,0,0,0-2.876,1.72v6.828c0,1.371-.7,1.8-1.667,1.8h-.4c-1.022,0-1.72-.4-1.72-1.8V43.047c0-.134.672-.43,1.424-.43a2.175,2.175,0,0,1,2.258,2.2,4.974,4.974,0,0,1,4.327-2.365c3.414,0,4.865,2.419,4.865,5.4m-10.536-7.473a1.376,1.376,0,0,1-.4-1.048,2.643,2.643,0,0,1,2.5-2.823,3.764,3.764,0,0,1,1.774.538,7.276,7.276,0,0,1,1.774,1.451c.3-.941.968-1.881,1.667-1.881a1.4,1.4,0,0,1,.94.349,1.359,1.359,0,0,1,.4,1.076,2.637,2.637,0,0,1-2.5,2.8,3.32,3.32,0,0,1-1.828-.565,7.612,7.612,0,0,1-1.72-1.451c-.323.941-.941,1.881-1.667,1.881a1.378,1.378,0,0,1-.94-.323" transform="translate(-111.993 -36.515)"/><path class="b" d="M210.764,49.167a6.6,6.6,0,0,1,6.962,6.908,6.99,6.99,0,0,1-13.978-.054,6.62,6.62,0,0,1,7.016-6.854m-.027,2.957a3.936,3.936,0,1,0,3.629,3.951,3.655,3.655,0,0,0-3.629-3.951" transform="translate(-128.845 -43.227)"/></g><path class="c" d="M29.823,37.85h-.516c-2.5,0-3.2-1.155-3.2-3.2V33.578a.709.709,0,0,0-1.418,0v1.077a2.861,2.861,0,0,1-3.2,3.2h-.4a.709.709,0,0,0,0,1.419h.4c2.091,0,3.2.7,3.2,3.2v1.074a.709.709,0,1,0,1.418,0V42.467a2.9,2.9,0,0,1,3.2-3.2h.514a.709.709,0,1,0,0-1.419M25.4,39.616a1.056,1.056,0,1,1,1.055-1.055A1.054,1.054,0,0,1,25.4,39.616" transform="translate(319.871 64.104)"/><path class="c" d="M11.066,30.9a.912.912,0,1,1-.913-.91.915.915,0,0,1,.913.91m-.913-1.936A1.938,1.938,0,1,0,12.091,30.9a1.939,1.939,0,0,0-1.938-1.936" transform="translate(324.314 67.352)"/><g transform="translate(332.534 109.496)"><path class="c" d="M20.414,71.286s.512-4.11,0-4.11,0,4.11,0,4.11" transform="translate(-11.847 -66.835)"/><path class="c" d="M20.414,97.061s-.527,4.117,0,4.117,0-4.117,0-4.117" transform="translate(-11.847 -84.379)"/><path class="c" d="M4.927,86.77s-4.119-.522-4.119,0,4.119,0,4.119,0" transform="translate(-0.475 -78.201)"/><path class="c" d="M30.7,86.77s4.112.515,4.112,0-4.112,0-4.112,0" transform="translate(-18.023 -78.201)"/><path class="c" d="M9.514,75.876S6.968,72.6,6.6,72.967s2.913,2.91,2.913,2.91" transform="translate(-3.859 -70.218)"/><path class="c" d="M27.771,94.143s2.546,3.272,2.913,2.908-2.913-2.908-2.913-2.908" transform="translate(-16.303 -82.666)"/><path class="c" d="M9.514,94.143S6.237,96.685,6.6,97.051s2.913-2.908,2.913-2.908" transform="translate(-3.859 -82.666)"/><path class="c" d="M27.771,75.876s3.281-2.541,2.913-2.91-2.913,2.91-2.913,2.91" transform="translate(-16.303 -70.218)"/><path class="c" d="M14.585,72.474s-1.1-4-1.577-3.8,1.577,3.8,1.577,3.8" transform="translate(-7.594 -67.709)"/><path class="c" d="M24.554,96.3s1.093,4,1.568,3.806S24.554,96.3,24.554,96.3" transform="translate(-14.414 -83.93)"/><path class="c" d="M6.117,90.914s-4,1.1-3.806,1.575,3.806-1.575,3.806-1.575" transform="translate(-1.353 -80.77)"/><path class="c" d="M29.942,80.94s4-1.1,3.8-1.578-3.8,1.578-3.8,1.578" transform="translate(-17.577 -73.947)"/><path class="c" d="M6.117,80.94s-3.606-2.054-3.806-1.578S6.117,80.94,6.117,80.94" transform="translate(-1.353 -73.947)"/><path class="c" d="M29.942,90.914s3.6,2.052,3.8,1.575-3.8-1.575-3.8-1.575" transform="translate(-17.577 -80.77)"/><path class="c" d="M14.585,96.3s-2.057,3.6-1.577,3.806S14.585,96.3,14.585,96.3" transform="translate(-7.594 -83.93)"/><path class="c" d="M24.554,72.474s2.044-3.6,1.568-3.8-1.568,3.8-1.568,3.8" transform="translate(-14.414 -67.709)"/><path class="c" d="M9.473,71.045s-.359-1.729-.926-1.337.926,1.337.926,1.337" transform="translate(-4.942 -68.288)"/><path class="c" d="M1.609,83.3S.128,82.325.007,83s1.6.3,1.6.3" transform="translate(-0.001 -75.984)"/><path class="c" d="M4.688,96.852s-1.733.361-1.341.925,1.341-.925,1.341-.925" transform="translate(-1.932 -84.256)"/><path class="c" d="M16.937,103.927s-.967,1.483-.292,1.608.292-1.608.292-1.608" transform="translate(-9.631 -88.409)"/><path class="c" d="M30.493,101.152s.361,1.731.927,1.337-.927-1.337-.927-1.337" transform="translate(-17.901 -86.78)"/><path class="c" d="M37.582,89.983s1.476.966,1.6.289-1.6-.289-1.6-.289" transform="translate(-22.062 -80.158)"/><path class="c" d="M34.8,75.842s1.729-.363,1.341-.929-1.341.929-1.341.929" transform="translate(-20.429 -71.301)"/><path class="c" d="M23.625,67.961s.967-1.48.287-1.6-.287,1.6-.287,1.6" transform="translate(-13.802 -66.351)"/><path class="c" d="M16.937,67.961s.386-1.724-.292-1.6.292,1.6.292,1.6" transform="translate(-9.631 -66.351)"/><path class="c" d="M4.688,75.842s-.944-1.5-1.341-.929,1.341.929,1.341.929" transform="translate(-1.932 -71.301)"/><path class="c" d="M1.609,89.983s-1.73-.392-1.6.289,1.6-.289,1.6-.289" transform="translate(-0.001 -80.158)"/><path class="c" d="M9.473,101.152s-1.493.947-.926,1.337.926-1.337.926-1.337" transform="translate(-4.942 -86.78)"/><path class="c" d="M23.625,103.927s-.392,1.728.287,1.608-.287-1.608-.287-1.608" transform="translate(-13.802 -88.409)"/><path class="c" d="M34.8,96.852s.947,1.5,1.341.925-1.341-.925-1.341-.925" transform="translate(-20.429 -84.256)"/><path class="c" d="M37.582,83.3s1.725.387,1.6-.3-1.6.3-1.6.3" transform="translate(-22.062 -75.984)"/><path class="c" d="M30.493,71.045s1.5-.943.927-1.337-.927,1.337-.927,1.337" transform="translate(-17.901 -68.288)"/></g><g transform="translate(441.432 85.388)"><path class="b" d="M279.3,77.883a2.069,2.069,0,0,1,2.048-2.31,1.65,1.65,0,0,1,1.389.668V73.949a.705.705,0,0,1,.479-.144c.379,0,.794.2.794,1.019v4.683c0,.461-.225.605-.56.605h-.126a.475.475,0,0,1-.55-.443c-.009-.1-.018-.2-.018-.306a1.6,1.6,0,0,1-1.434.839,2.082,2.082,0,0,1-2.022-2.319m3.447-.587a1.116,1.116,0,0,0-1.092-.7,1.147,1.147,0,0,0-1.146,1.291,1.171,1.171,0,0,0,1.127,1.3,1.059,1.059,0,0,0,1.109-1.007c0-.016,0-.033,0-.049Z" transform="translate(-258.564 -45.783)"/><path class="b" d="M291.266,81.51a.561.561,0,0,1,.389-.5,1.924,1.924,0,0,0,1.453.6c.5,0,.768-.171.768-.451,0-.343-.352-.406-.938-.533-.605-.126-1.542-.326-1.542-1.317,0-.858.695-1.426,1.832-1.426a1.937,1.937,0,0,1,1.669.586.658.658,0,0,1,.108.361.632.632,0,0,1-.406.534,1.745,1.745,0,0,0-1.29-.6c-.488,0-.749.18-.749.459,0,.316.342.379.938.515.623.135,1.616.334,1.616,1.327,0,.884-.7,1.417-1.941,1.417a2.907,2.907,0,0,1-1.516-.334.769.769,0,0,1-.388-.631" transform="translate(-265.323 -48.083)"/><path class="b" d="M303.152,77.869a2.227,2.227,0,0,1,1.444.442,1.058,1.058,0,0,1,.433.758c0,.514-.685.614-.711.56a1.085,1.085,0,0,0-1.11-.731,1.29,1.29,0,0,0,0,2.572,1.1,1.1,0,0,0,1.11-.731c.027-.054.711.018.711.568a1.015,1.015,0,0,1-.442.74,2.192,2.192,0,0,1-1.435.451,2.315,2.315,0,0,1,0-4.629" transform="translate(-270.731 -48.078)"/><path class="b" d="M311.551,79.591V77.57h-.226c-.361,0-.523-.163-.523-.451v-.072c0-.3.163-.469.515-.469h.234v-.56c0-.415.207-.613.569-.613h.118c.334,0,.56.144.56.613v.56h.767c.361,0,.515.154.515.442V77.1c0,.307-.163.469-.524.469h-.778v1.877c0,.433.136.649.488.649a.644.644,0,0,0,.55-.3.5.5,0,0,1,.315.5.643.643,0,0,1-.216.487,1.314,1.314,0,0,1-.948.326c-.965,0-1.417-.514-1.417-1.516" transform="translate(-276.359 -46.687)"/><path class="b" d="M321.2,77.868a2.218,2.218,0,0,1,2.336,2.091c0,.076,0,.152,0,.228a2.355,2.355,0,0,1-4.693.235,2.328,2.328,0,0,1,0-.253,2.222,2.222,0,0,1,2.356-2.3m-.009.992a1.321,1.321,0,1,0,1.214,1.421c0-.031,0-.063,0-.094a1.226,1.226,0,0,0-1.219-1.327" transform="translate(-280.9 -48.077)"/><path class="b" d="M287.254,28.388v1.775c0,.393-.208.517-.486.517h-.116c-.285,0-.486-.116-.486-.517V28.535c0-.517-.262-.826-.694-.826a.789.789,0,0,0-.825.88v1.573c0,.393-.209.517-.486.517h-.116c-.285,0-.486-.116-.486-.517V25.41a.583.583,0,0,1,.409-.124c.316,0,.679.17.679.872v1.318a1.346,1.346,0,0,1,1.2-.679c.989,0,1.4.71,1.4,1.589" transform="translate(-260.97 -18.375)"/><path class="b" d="M295.459,30.369h.124a.447.447,0,0,0-.008-.108.666.666,0,0,0-.764-.679.942.942,0,0,0-.925.547c-.008.016-.7.07-.7-.431a.689.689,0,0,1,.232-.494,2.029,2.029,0,0,1,1.465-.439c1.2,0,1.775.547,1.775,1.559v2.22c0,.054-.2.123-.409.123a.562.562,0,0,1-.571-.362,1.561,1.561,0,0,1-.062-.254,1.5,1.5,0,0,1-1.3.648c-.786,0-1.265-.432-1.265-1.08,0-.84.818-1.226,2.414-1.25m.124.548h-.208c-.856.03-1.311.193-1.311.617,0,.285.223.463.586.463a.849.849,0,0,0,.934-.81Z" transform="translate(-266.328 -20.342)"/><path class="b" d="M302.209,31.874a.477.477,0,0,1,.332-.431,1.647,1.647,0,0,0,1.242.509c.424,0,.656-.146.656-.386,0-.293-.3-.347-.8-.455-.517-.108-1.318-.279-1.318-1.126,0-.733.594-1.219,1.566-1.219a1.656,1.656,0,0,1,1.427.5.561.561,0,0,1,.093.308.542.542,0,0,1-.347.457,1.5,1.5,0,0,0-1.1-.51c-.417,0-.64.154-.64.393,0,.27.292.324.8.44.532.115,1.381.285,1.381,1.134,0,.756-.6,1.211-1.659,1.211a2.47,2.47,0,0,1-1.3-.285.654.654,0,0,1-.332-.54" transform="translate(-271.505 -20.342)"/><path class="b" d="M310.738,30.234V28.505h-.193c-.308,0-.448-.139-.448-.385v-.062c0-.254.14-.4.44-.4h.2v-.479c0-.355.177-.525.486-.525h.1c.285,0,.478.124.478.525v.478h.656c.308,0,.439.131.439.378V28.1c0,.262-.139.4-.448.4h-.664V30.11c0,.37.116.555.417.555a.552.552,0,0,0,.47-.254.427.427,0,0,1,.27.425.551.551,0,0,1-.185.416,1.124,1.124,0,0,1-.811.278c-.825,0-1.211-.439-1.211-1.3" transform="translate(-275.961 -19.149)"/><path class="b" d="M319.5,30.37h.124a.5.5,0,0,0-.008-.108.666.666,0,0,0-.764-.678.942.942,0,0,0-.925.547c-.008.016-.7.07-.7-.431a.689.689,0,0,1,.231-.493,2.029,2.029,0,0,1,1.465-.439c1.2,0,1.775.547,1.775,1.558v2.22c0,.054-.2.123-.409.123a.562.562,0,0,1-.571-.362,1.576,1.576,0,0,1-.062-.254,1.5,1.5,0,0,1-1.3.648c-.786,0-1.265-.432-1.265-1.08,0-.84.818-1.226,2.415-1.25m.123.548h-.208c-.856.03-1.311.193-1.311.617,0,.285.223.463.586.463a.848.848,0,0,0,.934-.81Z" transform="translate(-279.908 -20.343)"/><path class="b" d="M269.59,54.051V45.8a1.81,1.81,0,0,1-1.173.425,1.981,1.981,0,0,1-1.295-.466,1.631,1.631,0,0,1-.506-1.213,1.431,1.431,0,0,1,.789-1.417,1.88,1.88,0,0,0,1.234.445,1.757,1.757,0,0,0,1.721-1.517h.87c.85,0,1.294.465,1.294,1.376V54.051a1.2,1.2,0,0,1-1.294,1.376h-.386c-.83,0-1.254-.486-1.254-1.376" transform="translate(-251.399 -27.847)"/><path class="b" d="M286.138,54.9a2.256,2.256,0,0,1-1.3-1.74,1.65,1.65,0,0,1,1.234-1.4,4.359,4.359,0,0,0,3.6,1.76c1.679,0,2.711-.831,2.711-2.145s-.931-2.084-2.61-2.084a4.211,4.211,0,0,0-2.69.809c-1.174-.04-1.761-.546-1.761-1.74v-4.33c0-1.053.445-1.659,1.437-1.659H293.1c.931,0,1.4.385,1.4,1.173v.1c0,.789-.445,1.153-1.4,1.153h-5.28v2.934a6.345,6.345,0,0,1,2.387-.484c2.913,0,4.834,1.578,4.834,4.148,0,2.651-2.044,4.35-5.322,4.35a7.019,7.019,0,0,1-3.58-.851" transform="translate(-261.695 -28.03)"/><path class="b" d="M310.986,52.309a3.024,3.024,0,0,1,3-3.049h.055a3.047,3.047,0,1,1-3.052,3.1c0-.017,0-.033,0-.05m3.052-1.16a1.157,1.157,0,1,0,1.157,1.157,1.156,1.156,0,0,0-1.157-1.157" transform="translate(-276.463 -31.918)"/><path class="b" d="M331.372,65.252a3.044,3.044,0,1,1,3.048-3.039,3.044,3.044,0,0,1-3.048,3.039m-1.145-3.038a1.128,1.128,0,0,0,1.109,1.146h.039a1.154,1.154,0,0,0,.037-2.308h-.037a1.14,1.14,0,0,0-1.147,1.133v.029" transform="translate(-286.262 -37.514)"/><path class="b" d="M320.079,59.666a.52.52,0,0,1-.575-.46.513.513,0,0,1,.039-.263,5.178,5.178,0,0,1,.352-.73q2.325-4.276,4.656-8.549a.629.629,0,0,1,.822-.339l.005,0a.507.507,0,0,1,.329.633,3.808,3.808,0,0,1-.293.606q-2.309,4.253-4.622,8.5a2.552,2.552,0,0,1-.241.38.565.565,0,0,1-.472.218" transform="translate(-281.273 -31.928)"/><path class="c" d="M259.116,17.316h.469c2.279,0,2.916,1.051,2.916,2.916v.98a.647.647,0,1,0,1.293,0v-.98a2.61,2.61,0,0,1,2.917-2.916h.363a.647.647,0,1,0,0-1.294h-.362c-1.91,0-2.918-.64-2.918-2.918v-.98a.647.647,0,1,0-1.293,0v.98a2.645,2.645,0,0,1-2.916,2.918h-.469a.647.647,0,0,0,0,1.294m4.032-1.611a.964.964,0,1,1-.96.96.961.961,0,0,1,.96-.96" transform="translate(-246.797 -10.574)"/><path class="c" d="M262.234,27.215l-1.473,1.472a.431.431,0,0,0,.61.609l1.473-1.472a.431.431,0,1,0-.61-.609" transform="translate(-248.02 -19.394)"/><path class="c" d="M274.3,15.147,272.82,16.62a.431.431,0,0,0,.611.609l1.475-1.472a.431.431,0,0,0-.61-.609" transform="translate(-254.832 -12.577)"/><path class="c" d="M262.843,16.62l-1.473-1.472a.431.431,0,0,0-.61.61l1.473,1.472a.431.431,0,1,0,.61-.609" transform="translate(-248.019 -12.577)"/><path class="c" d="M274.9,28.688l-1.473-1.472a.431.431,0,0,0-.61.609L274.3,29.3a.431.431,0,0,0,.609-.609" transform="translate(-254.832 -19.394)"/><path class="c" d="M248.857,56.76a.846.846,0,1,1-.846-.844.848.848,0,0,1,.846.844m-.846-1.794a1.8,1.8,0,1,0,1.8,1.794,1.8,1.8,0,0,0-1.8-1.794" transform="translate(-239.874 -39.971)"/><path class="c" d="M256.564,93.637h-.257c-1.243,0-1.591-.576-1.591-1.592v-.536a.353.353,0,1,0-.706,0v.536a1.425,1.425,0,0,1-1.592,1.592h-.2a.353.353,0,0,0,0,.706h.2c1.043,0,1.593.348,1.593,1.591v.536a.353.353,0,1,0,.706,0v-.536a1.443,1.443,0,0,1,1.592-1.591h.256a.353.353,0,0,0,0-.706m-2.2.879a.526.526,0,1,1,.524-.525.526.526,0,0,1-.524.525" transform="translate(-240.691 -56.217)"/><path class="c" d="M241.277,75.891h-.416c-2.014,0-2.579-.933-2.579-2.58v-.868a.572.572,0,1,0-1.143,0v.868a2.309,2.309,0,0,1-2.58,2.58h-.321a.572.572,0,0,0,0,1.143h.319c1.689,0,2.581.564,2.581,2.579v.868a.572.572,0,1,0,1.143,0v-.868a2.338,2.338,0,0,1,2.58-2.579h.415a.572.572,0,1,0,0-1.143m-3.567,1.425a.853.853,0,1,1,.85-.851.851.851,0,0,1-.85.851" transform="translate(-233.668 -46.72)"/><path class="c" d="M278.637,50.739A20.691,20.691,0,0,1,257.97,30.071a20.445,20.445,0,0,1,2.292-9.468.653.653,0,0,1,1.16.6,19.146,19.146,0,0,0-2.146,8.869,19.358,19.358,0,1,0,8.537-16.055.653.653,0,0,1-.731-1.082,20.672,20.672,0,1,1,11.556,37.8" transform="translate(-246.514 -9.404)"/></g><g transform="translate(341.349 84.181)"><g class="d" transform="translate(0 0)"><path class="b" d="M0,3.587a.723.723,0,0,1,.786-.823h.233c.516,0,.786.27.786.823v3.82c0,1.265.54,1.916,1.609,1.916,1.093,0,1.609-.627,1.609-1.928V3.587a.718.718,0,0,1,.786-.823h.246c.515,0,.773.27.773.823v3.82C6.829,9.691,5.65,10.9,3.4,10.9S0,9.716,0,7.419Zm2.285-1.56c0-.381.9-2.027,1.9-2.027a.678.678,0,0,1,.725.7c0,.945-1.867,1.5-2.371,1.5-.171,0-.257-.037-.257-.172" transform="translate(0 0)"/><path class="b" d="M15.3,11.925V4.359a.956.956,0,0,1,.651-.2c.516,0,1.081.27,1.081,1.388v6.375c0,.626-.319.823-.762.823h-.184c-.455,0-.786-.184-.786-.823" transform="translate(-7.125 -1.939)"/><path class="b" d="M21.168,11.631V8.88h-.307c-.491,0-.713-.221-.713-.614v-.1c0-.405.221-.639.7-.639h.32V6.768c0-.566.282-.836.773-.836h.16c.455,0,.762.2.762.836v.761h1.044c.491,0,.7.209.7.6v.111c0,.418-.221.639-.713.639H22.838v2.555c0,.589.184.884.663.884a.877.877,0,0,0,.749-.405.68.68,0,0,1,.43.676.876.876,0,0,1-.295.663,1.79,1.79,0,0,1-1.29.442c-1.314,0-1.928-.7-1.928-2.063" transform="translate(-9.386 -2.763)"/><path class="b" d="M31.1,3.794a.866.866,0,0,1,.971.9.86.86,0,0,1-.971.9.872.872,0,0,1-.971-.9.867.867,0,0,1,.971-.9m-.872,3.513c0-.627.331-.835.773-.835h.184c.455,0,.774.2.774.835v4.446c0,.626-.319.823-.774.823h-.171c-.467,0-.786-.184-.786-.823Z" transform="translate(-14.035 -1.767)"/><path class="b" d="M45.694,11.052v2.973c0,.626-.319.823-.762.823h-.184c-.467,0-.786-.184-.786-.823v-2.7c0-.786-.345-1.2-1.044-1.2a1.394,1.394,0,0,0-1.179.737v3.169c0,.626-.32.823-.762.823h-.184c-.455,0-.786-.184-.786-.823V11.359c0-.823-.345-1.24-1.032-1.24a1.4,1.4,0,0,0-1.179.737v3.169c0,.626-.319.823-.762.823H36.85c-.467,0-.786-.184-.786-.823V8.939c0-.061.307-.2.651-.2.43,0,.9.184,1.032.983A2.153,2.153,0,0,1,39.6,8.669,1.9,1.9,0,0,1,41.518,9.9a2.238,2.238,0,0,1,2.014-1.229c1.523,0,2.162.97,2.162,2.383" transform="translate(-16.8 -4.038)"/><path class="b" d="M59.687,11.224h.2a.789.789,0,0,0-.012-.172,1.061,1.061,0,0,0-1.216-1.081,1.5,1.5,0,0,0-1.474.872c-.012.025-1.117.111-1.117-.688a1.1,1.1,0,0,1,.369-.786,3.229,3.229,0,0,1,2.333-.7c1.9,0,2.825.872,2.825,2.481v3.538c0,.086-.319.2-.651.2a.9.9,0,0,1-.909-.577,2.512,2.512,0,0,1-.1-.405,2.394,2.394,0,0,1-2.076,1.032c-1.253,0-2.014-.689-2.014-1.72,0-1.339,1.3-1.953,3.844-1.99m.2.872h-.332c-1.363.049-2.087.307-2.087.982,0,.455.356.737.933.737a1.351,1.351,0,0,0,1.486-1.289Z" transform="translate(-26.014 -4.038)"/><path class="b" d="M75.47,8.669a3.018,3.018,0,0,1,3.182,3.157,3.194,3.194,0,0,1-6.387-.025A3.025,3.025,0,0,1,75.47,8.669m-.012,1.351A1.671,1.671,0,0,0,73.788,11.8a1.669,1.669,0,1,0,3.329.025,1.669,1.669,0,0,0-1.658-1.806" transform="translate(-33.665 -4.038)"/><path class="b" d="M92.488,11.8c0,1.867-1.13,3.169-2.776,3.169A2.12,2.12,0,0,1,87.8,13.877v2.481c0,.627-.319.835-.761.835H86.85c-.467,0-.786-.2-.786-.835V8.939c0-.061.307-.2.663-.2a.97.97,0,0,1,1,.835c.012.049.025.172.036.27a2.1,2.1,0,0,1,1.966-1.179c1.621,0,2.763,1.216,2.763,3.133m-1.658.012A1.58,1.58,0,0,0,87.8,11.04v1.13a1.423,1.423,0,0,0,1.487,1.413,1.576,1.576,0,0,0,1.547-1.769" transform="translate(-40.093 -4.038)"/><path class="b" d="M102.586,8.669a3.018,3.018,0,0,1,3.181,3.157A3.194,3.194,0,0,1,99.38,11.8a3.025,3.025,0,0,1,3.206-3.132m-.012,1.351A1.671,1.671,0,0,0,100.9,11.8a1.669,1.669,0,1,0,3.328.025,1.668,1.668,0,0,0-1.658-1.806" transform="translate(-46.296 -4.038)"/><path class="b" d="M117.456,9.676a.894.894,0,0,1-.552.909,1.2,1.2,0,0,0-.786-.295c-.835,0-1.2.737-1.2,1.941v1.794c0,.626-.319.823-.762.823h-.184c-.467,0-.786-.184-.786-.823V8.939c0-.061.295-.2.651-.2a.957.957,0,0,1,.945.651,2.625,2.625,0,0,1,.086.418,1.5,1.5,0,0,1,1.487-1.143.984.984,0,0,1,1.105,1.007" transform="translate(-52.726 -4.038)"/><path class="b" d="M122.826,11.631V8.88h-.307c-.491,0-.713-.221-.713-.614v-.1c0-.405.221-.639.7-.639h.319V6.768c0-.566.283-.836.774-.836h.16c.455,0,.762.2.762.836v.761h1.044c.491,0,.7.209.7.6v.111c0,.418-.221.639-.713.639H124.5v2.555c0,.589.184.884.663.884a.877.877,0,0,0,.749-.405.681.681,0,0,1,.43.676.876.876,0,0,1-.295.663,1.79,1.79,0,0,1-1.29.442c-1.314,0-1.928-.7-1.928-2.063" transform="translate(-56.744 -2.763)"/><path class="b" d="M137.43,9.642v5.072c0,.061-.307.2-.651.2a.961.961,0,0,1-.97-.651,2.017,2.017,0,0,1-.061-.332,2.263,2.263,0,0,1-1.978,1.093c-1.559,0-2.21-1.093-2.21-2.481v-2.9c0-.627.319-.835.749-.835h.2c.455,0,.774.2.774.835v2.64c0,.811.418,1.29,1.13,1.29a1.458,1.458,0,0,0,1.3-.786V9.642c0-.627.307-.835.749-.835h.184c.467,0,.786.2.786.835" transform="translate(-61.287 -4.103)"/><path class="b" d="M150.874,11.138v2.887c0,.626-.332.823-.774.823h-.184c-.455,0-.773-.184-.773-.823V11.408c0-.8-.405-1.289-1.106-1.289a1.448,1.448,0,0,0-1.314.786v3.12c0,.626-.319.823-.762.823h-.184c-.467,0-.786-.184-.786-.823V8.939c0-.061.308-.2.651-.2a.994.994,0,0,1,1.032,1.007,2.272,2.272,0,0,1,1.977-1.081,2.164,2.164,0,0,1,2.223,2.469" transform="translate(-67.544 -4.038)"/><path class="b" d="M159.185,3.794a.866.866,0,0,1,.971.9.86.86,0,0,1-.971.9.872.872,0,0,1-.971-.9.867.867,0,0,1,.971-.9m-.872,3.513c0-.627.331-.835.773-.835h.184c.455,0,.774.2.774.835v4.446c0,.626-.319.823-.774.823H159.1c-.467,0-.786-.184-.786-.823Z" transform="translate(-73.704 -1.767)"/><path class="b" d="M163.573,9.714c0-1.9,1.13-3.145,2.788-3.145a2.249,2.249,0,0,1,1.892.91V4.36a.955.955,0,0,1,.651-.2c.516,0,1.081.269,1.081,1.387v6.375c0,.626-.307.823-.762.823h-.172c-.393,0-.687-.135-.749-.6-.012-.135-.025-.27-.025-.417a2.175,2.175,0,0,1-1.953,1.142c-1.621,0-2.751-1.277-2.751-3.156m4.692-.8a1.52,1.52,0,0,0-1.486-.958,1.562,1.562,0,0,0-1.56,1.757,1.594,1.594,0,0,0,1.535,1.769,1.441,1.441,0,0,0,1.511-1.437Z" transform="translate(-76.201 -1.939)"/><path class="b" d="M181.309,11.224h.2a.788.788,0,0,0-.012-.172,1.061,1.061,0,0,0-1.216-1.081,1.5,1.5,0,0,0-1.474.872c-.012.025-1.117.111-1.117-.688a1.1,1.1,0,0,1,.369-.786,3.229,3.229,0,0,1,2.333-.7c1.9,0,2.825.872,2.825,2.481v3.538c0,.086-.319.2-.651.2a.9.9,0,0,1-.909-.577,2.512,2.512,0,0,1-.1-.405,2.394,2.394,0,0,1-2.076,1.032c-1.253,0-2.014-.689-2.014-1.72,0-1.339,1.3-1.953,3.844-1.99m.2.872h-.332c-1.363.049-2.088.307-2.088.982,0,.455.356.737.934.737a1.351,1.351,0,0,0,1.486-1.289Z" transform="translate(-82.672 -4.038)"/><path class="b" d="M189.977,9.714c0-1.9,1.13-3.145,2.788-3.145a2.249,2.249,0,0,1,1.892.91V4.36a.956.956,0,0,1,.651-.2c.516,0,1.081.269,1.081,1.387v6.375c0,.626-.307.823-.762.823h-.172c-.393,0-.687-.135-.749-.6-.012-.135-.025-.27-.025-.417a2.175,2.175,0,0,1-1.953,1.142c-1.621,0-2.751-1.277-2.751-3.156m4.692-.8a1.52,1.52,0,0,0-1.486-.958,1.562,1.562,0,0,0-1.56,1.757,1.594,1.594,0,0,0,1.535,1.769,1.441,1.441,0,0,0,1.511-1.437Z" transform="translate(-88.501 -1.939)"/></g></g></g></svg>