<svg xmlns="http://www.w3.org/2000/svg" width="71" height="55.392" viewBox="0 0 71 55.392"><defs><style>.a,.b,.c{fill:#fff;}.b{stroke:#0855c4;stroke-width:3px;}.c{stroke:#00adee;stroke-width:2.5px;}.d{fill:#00adee;}.e{fill:#0855c4;}.f{stroke:none;}.g{fill:none;}</style></defs><g transform="translate(-6356.856 -489.903)"><rect class="a" width="71" height="55" transform="translate(6356.856 490.086)"/><g transform="translate(6369.237 491.492)"><path class="b" d="M1241.633,47.53l-21.573,7.558-.117.026a1.967,1.967,0,0,0-1.546,1.93V67.98a33.191,33.191,0,0,0,23.236,31.779A33.191,33.191,0,0,0,1264.87,67.98V57.044a1.967,1.967,0,0,0-1.546-1.93l-.231-.066Z" transform="translate(-1218.397 -47.53)"/><g transform="translate(33.61 28.037)"><g class="c" transform="translate(0.009 -0.443)"><ellipse class="f" cx="12.5" cy="13" rx="12.5" ry="13"/><ellipse class="g" cx="12.5" cy="13" rx="11.25" ry="11.75"/></g><g transform="matrix(0.995, -0.105, 0.105, 0.995, 5.829, 8.839)"><path class="d" d="M4.393,9.2,0,4.184,1.738,2.663l2.826,3.23L10.91,0l1.572,1.692Z" transform="translate(0 0)"/></g></g><g transform="translate(11.178 13.255)"><g transform="translate(0 0)"><path class="e" d="M7.869,6.822a9.76,9.76,0,0,1-5.221-1.25Q.64,4.323.64,2.984a1.442,1.442,0,0,1,.327-.878,2.284,2.284,0,0,1,.669-.625q.342-.193.4-.134A6.958,6.958,0,0,0,4.448,3.46a6.929,6.929,0,0,0,3.392.833A5.247,5.247,0,0,0,10.934,3.5a2.569,2.569,0,0,0,1.1-2.216A2.2,2.2,0,0,0,11.752.173a2.885,2.885,0,0,0-.64-.788A3.914,3.914,0,0,0,9.982-1.2q-.774-.283-1.25-.417T7.215-1.984a16.827,16.827,0,0,1-2.246-.64,10.442,10.442,0,0,1-1.874-.952A3.9,3.9,0,0,1,1.637-5.2a5.47,5.47,0,0,1-.491-2.41A4.946,4.946,0,0,1,3.08-11.638a7.7,7.7,0,0,1,5-1.562,9.06,9.06,0,0,1,4.79,1.116q1.815,1.116,1.815,2.306a1.477,1.477,0,0,1-.342.937,2.355,2.355,0,0,1-.7.625q-.357.193-.387.134a6.154,6.154,0,0,0-2.172-1.859,6.231,6.231,0,0,0-2.975-.729,4.768,4.768,0,0,0-2.9.8A2.533,2.533,0,0,0,4.121-7.726a2.488,2.488,0,0,0,.268,1.2,2.114,2.114,0,0,0,.937.833,7.07,7.07,0,0,0,1.235.506q.565.164,1.726.431.268.059.387.089a18.849,18.849,0,0,1,2.41.714,10.566,10.566,0,0,1,1.993,1.026,4.287,4.287,0,0,1,1.5,1.651A5.067,5.067,0,0,1,15.1,1.08a5.087,5.087,0,0,1-1.934,4.195A8.252,8.252,0,0,1,7.869,6.822Z" transform="translate(-0.64 13.858)"/><path class="e" d="M1.666,21.528Q0,21.528,0,20.16a4.409,4.409,0,0,1,.238-1.19L5.738.119q0-.119.6-.119Q7.97,0,7.97,1.369a4.7,4.7,0,0,1-.238,1.19L2.261,21.409Q2.261,21.528,1.666,21.528Z" transform="matrix(0.998, 0.07, -0.07, 0.998, 16.545, 0)"/></g></g></g></g></svg>