<svg xmlns="http://www.w3.org/2000/svg" width="83.395" height="83.594" viewBox="0 0 83.395 83.594"><defs><style>.a{fill:#edf2fa;}.b{fill:#5fa7fb;}.c{fill:#df6718;}.d{fill:#ebae98;}.e{fill:#ffaf97;}.f{fill:#162458;}.g{fill:#fff;}.h{fill:#c8158c;}.i{opacity:0.19;}.j{fill:#3055c2;}.k{fill:#df8879;}</style></defs><g transform="translate(-1248.462 -2164.505)"><g transform="translate(1248.462 2164.505)"><circle class="a" cx="41.697" cy="41.697" r="41.697" transform="translate(0 0)"/></g><g transform="translate(1270.745 2227.627)"><path class="b" d="M1382.793,2467.452h-.428v-3.344a4.6,4.6,0,0,0-4.848-4.3h-19.683a4.6,4.6,0,0,0-4.848,4.3v3.344h-.428v-3.344a5.029,5.029,0,0,1,5.276-4.725h19.683a5.029,5.029,0,0,1,5.276,4.725Z" transform="translate(-1352.557 -2459.383)"/></g><g transform="translate(1304.184 2200.893)"><path class="c" d="M1508.854,2335.134l.813.892.616-1.482-1.141-.052a.339.339,0,0,0-.328.236l-.026.079A.324.324,0,0,0,1508.854,2335.134Z" transform="translate(-1508.77 -2334.491)"/></g><g transform="translate(1281.682 2177.963)"><g transform="translate(0 0)"><rect class="b" width="2.358" height="0.428" transform="matrix(0.584, -0.812, 0.812, 0.584, 0, 1.914)"/></g><g transform="translate(1.521 1.324)"><rect class="b" width="2.246" height="0.428" transform="matrix(0.584, -0.812, 0.812, 0.584, 0, 1.823)"/></g><g transform="translate(0.341 0.013)"><rect class="b" width="3.778" height="0.428" transform="translate(0 3.069) rotate(-54.339)"/></g></g><g transform="translate(1309.653 2228.585)"><path class="b" d="M1540.426,2470.967H1540v-4.38a2.307,2.307,0,0,0-2.3-2.3h-.643a2.307,2.307,0,0,0-2.3,2.3v4.38h-.428v-4.38a2.735,2.735,0,0,1,2.732-2.732h.643a2.735,2.735,0,0,1,2.732,2.732Z" transform="translate(-1534.319 -2463.855)"/></g><g transform="translate(1259.741 2197.977)"><path class="d" d="M1310.435,2323.935s-6.238-3.907-8.349-2.9c0,0-2.678,1.26,1.04,6.112a25.121,25.121,0,0,0,9.168,6.112Z" transform="translate(-1301.153 -2320.87)"/></g><g transform="translate(1258.317 2196.393)"><path class="e" d="M1304.97,2316.929s-7.035-4.406-9.416-3.27c0,0-3.02,1.422,1.173,6.894,0,0,4.548,4.966,10.34,6.893Z" transform="translate(-1294.502 -2313.472)"/></g><g transform="translate(1268.015 2176.226)"><path class="f" d="M1378.246,2219.26h-33.907a4.528,4.528,0,0,0-4.534,4.522v60.8a41.813,41.813,0,0,0,42.974.792v-61.6A4.528,4.528,0,0,0,1378.246,2219.26Z" transform="translate(-1339.805 -2219.26)"/></g><g transform="translate(1269.96 2182.012)"><path class="g" d="M1348.894,2247.625v59.841a43.5,43.5,0,0,0,39.063.549v-60.391a1.334,1.334,0,0,0-1.335-1.334h-36.394A1.334,1.334,0,0,0,1348.894,2247.625Z" transform="translate(-1348.894 -2246.291)"/></g><g transform="translate(1281.406 2178.207)"><rect class="g" width="10.883" height="1.515" rx="0.757" transform="translate(0 0)"/></g><g transform="translate(1294.106 2178.207)"><circle class="g" cx="0.757" cy="0.757" r="0.757" transform="translate(0 0)"/></g><g transform="translate(1296.912 2178.207)"><circle class="g" cx="0.757" cy="0.757" r="0.757" transform="translate(0 0)"/></g><g transform="translate(1275.888 2221.003)"><rect class="h" width="25.75" height="7.367" rx="3.684" transform="translate(0 0)"/></g><g class="i" transform="translate(1278.793 2188.194)"><path class="j" d="M1408.994,2275.171a2.665,2.665,0,0,0-2.645,2.345h-2.8a2.664,2.664,0,0,0-5.29,0h-2.8a2.667,2.667,0,1,0,0,.642h2.8a2.664,2.664,0,0,0,5.29,0h2.8a2.666,2.666,0,1,0,2.645-2.988Z" transform="translate(-1390.154 -2275.171)"/></g><g class="i" transform="translate(1277.673 2208.192)"><g transform="translate(0 0)"><rect class="j" width="21.686" height="1.284"/></g></g><g class="i" transform="translate(1277.673 2211.956)"><g transform="translate(0)"><rect class="j" width="5.581" height="1.284"/></g></g><g class="i" transform="translate(1285.247 2211.956)"><g transform="translate(0)"><rect class="j" width="14.112" height="1.284"/></g></g><g class="i" transform="translate(1277.749 2199.845)"><g transform="translate(0 0)"><path class="j" d="M1406.811,2335.584h-21.535V2329.6h21.535Zm-20.25-1.285h18.966v-3.419h-18.966Z" transform="translate(-1385.276 -2329.596)"/></g></g><g transform="translate(1295.081 2208.834)"><path class="d" d="M1488.627,2400.471s5.119-8.238,2.346-15.856c0,0-3.277-8.088-7.813-12.138,0,0-1.26-2-5.8,0,0,0-13.989,5.875-10.586,8.663,0,0,2.917,2.213,12.233-1.658,0,0-.135,6.272,3.142,9.014v16.59l3.641-2.379Z" transform="translate(-1466.243 -2371.589)"/></g><g transform="translate(1295.081 2208.834)"><path class="e" d="M1488.627,2400.471s5.119-8.238,2.346-15.856c0,0-3.277-8.088-7.813-12.138,0,0-1.26-2-5.8,0,0,0-13.989,5.875-10.586,8.663,0,0,2.917,2.213,12.233-1.658,0,0-.135,6.272,3.142,9.014v16.59l3.124-2.02q.405-.263.785-.563Z" transform="translate(-1466.243 -2371.589)"/></g><g transform="translate(1307.755 2216.742)"><path class="f" d="M1533.39,2420.951c-8.148-2.388-7.941-12.321-7.937-12.421l.428.013c0,.1-.2,9.7,7.63,12Z" transform="translate(-1525.452 -2408.53)"/></g><g transform="translate(1259.556 2225.136)"><path class="e" d="M1309.822,2449.682s3.647,2.5,3.074,4.421c0,0-.156,1.947-3.856,1.947a10.381,10.381,0,0,1-7.14-2.623s-4.43-5,1.407-5.68C1303.307,2447.747,1308.936,2448.126,1309.822,2449.682Z" transform="translate(-1300.29 -2447.747)"/></g><g transform="translate(1261.702 2210.716)"><path class="e" d="M1314.258,2380.4s5.785.788,10.579,7.441c0,0,1.251,2.157-1.876,2.894a14.416,14.416,0,0,1-7.018-.545s-6.167-1.716-5.594-5.689C1310.35,2384.5,1311.288,2380.112,1314.258,2380.4Z" transform="translate(-1310.312 -2380.383)"/></g><g transform="translate(1272.6 2217.13)"><path class="k" d="M1361.5,2413.431a2.35,2.35,0,0,1,.984-3.087l.106.186a2.109,2.109,0,0,0-.9,2.805Z" transform="translate(-1361.227 -2410.344)"/></g><g transform="translate(1268.383 2229.289)"><path class="k" d="M1341.8,2470.215a2.336,2.336,0,0,1,.978-3.068l.106.186a2.094,2.094,0,0,0-.892,2.785Z" transform="translate(-1341.525 -2467.147)"/></g><g transform="translate(1259.947 2217.295)"><path class="e" d="M1306.06,2411.127s5.785.788,10.579,7.441c0,0,1.251,2.157-1.876,2.894a14.414,14.414,0,0,1-7.018-.545s-6.167-1.716-5.593-5.689C1302.152,2415.228,1303.09,2410.843,1306.06,2411.127Z" transform="translate(-1302.114 -2411.114)"/></g><g transform="translate(1270.891 2223.545)"><path class="k" d="M1353.52,2443.45a2.389,2.389,0,0,1,1-3.138l.106.186a2.146,2.146,0,0,0-.915,2.856Z" transform="translate(-1353.241 -2440.312)"/></g></g></svg>