<svg xmlns="http://www.w3.org/2000/svg" width="71" height="71" viewBox="0 0 71 71"><defs><style>.a{fill:#fff;stroke:#00adee;stroke-width:2.5px;}.b{fill:#0855c4;stroke:#fff;stroke-width:0.5px;}.c{stroke:none;}.d{fill:none;}</style></defs><g transform="translate(-152 -168)"><g class="a" transform="translate(152 168)"><circle class="c" cx="35.5" cy="35.5" r="35.5"/><circle class="d" cx="35.5" cy="35.5" r="34.25"/></g><g transform="translate(-1238.937 -238.888)"><path class="b" d="M1435.424,463.761a9.534,9.534,0,0,1-1.467-.114h0a31.267,31.267,0,0,1-26.066-35.294c0-.037.009-.074.015-.111v-.008l.019-.12a9.543,9.543,0,0,1,10.858-7.891l.043.008.073.011a9.594,9.594,0,0,1,1.912.5,9.365,9.365,0,0,1,1.268.59,2.327,2.327,0,0,1,1.2,1.892l.773,12.035a2.328,2.328,0,0,1-.94,2.026,9.56,9.56,0,0,1-2.346,1.276,19.062,19.062,0,0,0,7.2,9.761,9.541,9.541,0,0,1,1.97-1.86,2.335,2.335,0,0,1,2.184-.271l11.143,4.277a2.335,2.335,0,0,1,1.437,1.646,8.663,8.663,0,0,1,.215,1.429,9.438,9.438,0,0,1-.086,2.155A9.534,9.534,0,0,1,1435.424,463.761Zm-1-3.105a6.486,6.486,0,0,0,7.468-6.894,5.833,5.833,0,0,0-.07-.6l-10.435-4.006a6.378,6.378,0,0,0-1.661,1.969l-.75,1.376-1.349-.8a22.067,22.067,0,0,1-10.195-13.839l-.367-1.548,1.564-.29a6.4,6.4,0,0,0,2.377-.959l-.723-11.261c-.179-.087-.357-.164-.533-.23a6.574,6.574,0,0,0-1.312-.347l-.109-.017a6.506,6.506,0,0,0-7.409,5.358c0,.023-.007.048-.011.074s-.005.034-.007.051l-.008.064a28.231,28.231,0,0,0,23.532,31.891Zm7.327-7.84v0Z" transform="translate(0 0)"/></g></g></svg>