<svg xmlns="http://www.w3.org/2000/svg" width="13.802" height="16.215" viewBox="0 0 13.802 16.215"><defs><style>.a{fill:#fff;}</style></defs><g transform="translate(5.381 8.024)"><path class="a" d="M15.537,17.5a1.39,1.39,0,1,0-.858.84l1.759,1.433a.362.362,0,0,0,.511-.506Z" transform="translate(-12.841 -15.641)"/></g><path class="a" d="M14.613,4.641l.177.176a.8.8,0,0,0,1.13-1.13L14.814,2.58a.8.8,0,1,0-1.13,1.13l.177.176-.353.352A6.757,6.757,0,0,0,9.939,2.691V1.6h.833a.8.8,0,1,0,0-1.6H7.508a.8.8,0,0,0,0,1.6H8.34V2.691a6.8,6.8,0,1,0,5.924,2.3ZM9.14,14.615a5.189,5.189,0,1,1,5.19-5.189A5.195,5.195,0,0,1,9.14,14.615Z" transform="translate(-2.352 0)"/></svg>