<svg xmlns="http://www.w3.org/2000/svg" width="21.388" height="25.127" viewBox="0 0 21.388 25.127"><defs><style>.a{fill:#fd0000;}</style></defs><g transform="translate(0)"><g transform="translate(8.338 12.434)"><path class="a" d="M17.019,18.528a2.154,2.154,0,1,0-1.329,1.3l2.726,2.22a.56.56,0,0,0,.792-.784Z" transform="translate(-12.841 -15.641)"/></g><path class="a" d="M21.352,7.191l.275.273a1.238,1.238,0,0,0,1.751-1.751L21.664,4A1.238,1.238,0,1,0,19.912,5.75l.274.273-.547.546a10.472,10.472,0,0,0-5.531-2.4V2.477H15.4A1.239,1.239,0,1,0,15.4,0H10.342a1.239,1.239,0,1,0,0,2.477h1.289V4.17a10.537,10.537,0,1,0,9.18,3.562ZM12.87,22.649a8.041,8.041,0,1,1,8.042-8.04A8.05,8.05,0,0,1,12.87,22.649Z" transform="translate(-2.352)"/></g></svg>