<svg xmlns="http://www.w3.org/2000/svg" width="157.854" height="38.037" viewBox="0 0 157.854 38.037"><defs><style>.a{fill:#ea0c90;}.b{fill:#fff;}</style></defs><g transform="translate(-2250.725 -938.316)"><path class="a" d="M4.75,0h153.1a0,0,0,0,1,0,0V33.287a4.75,4.75,0,0,1-4.75,4.75H0a0,0,0,0,1,0,0V4.75A4.75,4.75,0,0,1,4.75,0Z" transform="translate(2250.725 938.316)"/><g transform="translate(2259.844 941.812)"><path class="b" d="M2266.659,950.81c0-8.993,6.207-15.384,15.245-15.384,7.853,0,11.367,4.291,11.367,6.665,0,2.921-3.789,3.651-3.878,3.423a8.219,8.219,0,0,0-7.214-4.016c-4.976,0-8.581,3.742-8.581,9.266,0,5.478,3.651,9.312,8.625,9.312,3.425,0,6.209-1.689,7.352-4.473.091-.228,4.015.5,4.015,3.424,0,2.51-3.651,7.12-11.775,7.12C2272.866,966.147,2266.659,959.847,2266.659,950.81Z" transform="translate(-2266.659 -935.426)"/><path class="b" d="M2327.922,962.984v-8.993L2317.6,938.745c-.228-.365.96-2.6,4.292-2.6,1.185,0,2.327.731,3.195,2.328l6.207,10.18,6.3-10.134c1-1.734,2.147-2.374,3.243-2.374,3.012,0,4.335,2.283,4.108,2.6l-10.27,15.247v8.993c0,2.009-1.007,3.059-2.968,3.059h-.914C2328.925,966.044,2327.922,964.994,2327.922,962.984Z" transform="translate(-2288.44 -935.733)"/><path class="b" d="M2370.189,962.254V940.207c0-2.374,1.326-3.744,3.516-3.744h10.135c6.665,0,10.271,2.693,10.271,7.532,0,3.332-1.872,5.341-5.3,6.3,4.383,1,6.393,3.744,6.393,7.3,0,5.706-3.607,8.4-11.916,8.4H2373.7C2371.515,966,2370.189,964.628,2370.189,962.254Zm12.052-13.376c3.1,0,4.931-1.414,4.931-3.789,0-2.419-1.643-3.606-4.931-3.606h-5.386v7.394Zm.366,12.1c4.015,0,5.706-1.187,5.706-4.018,0-2.6-1.826-3.789-5.661-3.789h-5.8v7.806Z" transform="translate(-2310.945 -935.87)"/><path class="b" d="M2421,962.3V940.207c0-2.374,1.323-3.744,3.514-3.744H2441c2.1,0,3.1,1.049,3.1,2.83v.228c0,1.872-1,2.83-3.1,2.83h-13.239v5.843h9.678c2.192,0,3.1.958,3.1,2.6v.183c0,1.78-.959,2.739-3.1,2.739h-9.678v6.437h13.467c2.1,0,3.1.913,3.1,2.647v.274c0,1.825-1,2.921-3.1,2.921h-16.708C2422.326,966,2421,964.673,2421,962.3Z" transform="translate(-2332.682 -935.87)"/><path class="b" d="M2484.427,963.441l-6.3-7.943h-2.558v7.623c0,1.918-1,3.059-2.92,3.059h-.958c-1.827,0-2.83-1.324-2.83-3.7V940.207c0-2.374,1.323-3.744,3.514-3.744h8.718c7.671,0,11.642,3.2,11.642,9.221,0,4.748-2.693,7.944-7.669,8.764l7.669,9.267c.274.32-1.005,2.466-3.88,2.466C2486.938,966.18,2485.843,965.359,2484.427,963.441Zm-8.944-12.873h5.156c3.607,0,5.341-1.689,5.341-4.428,0-2.875-1.825-4.427-5.477-4.427h-5.02Z" transform="translate(-2353.154 -935.87)"/></g></g></svg>