<svg id="Capa_53_Imagen" data-name="Capa 53 Imagen" xmlns="http://www.w3.org/2000/svg" viewBox="0 0 297.03 304.28"><defs><style>.cls-1{fill:#fff;}</style></defs><title>Destello 2</title><path class="cls-1" d="M186.36,179.45s51.89,62.65,64,53.44S186.36,179.45,186.36,179.45Z"/><path class="cls-1" d="M195.79,131.24s80.84,9,83.19-6S195.79,131.24,195.79,131.24Z"/><path class="cls-1" d="M171.31,89.33s57.35-57.69,47-68.89S171.31,89.33,171.31,89.33Z"/><path class="cls-1" d="M148.8,203.08s-6.57,81.08,8.56,83S148.8,203.08,148.8,203.08Z"/><path class="cls-1" d="M100.7,188.1s-61.51,53.23-52,65.18S100.7,188.1,100.7,188.1Z"/><path class="cls-1" d="M190.76,158.55s50.92,38.74,58.59,29.52S190.76,158.55,190.76,158.55Z"/><path class="cls-1" d="M157.87,83s27.33-57.85,16.72-63.43S157.87,83,157.87,83Z"/><path class="cls-1" d="M162.82,171.31s25.44,48.09,34.65,43.71S162.82,171.31,162.82,171.31Z"/><path class="cls-1" d="M155,149.88s21.55,23.12,26.06,19.27S155,149.88,155,149.88Z"/><path class="cls-1" d="M141.4,158.76s.6,31.6,6.53,31.75S141.4,158.76,141.4,158.76Z"/><path class="cls-1" d="M127.16,155s-22.15,22.55-18.1,26.88S127.16,155,127.16,155Z"/><path class="cls-1" d="M154.52,134s31.58,1.38,32.09-4.52S154.52,134,154.52,134Z"/><path class="cls-1" d="M133,179.91S121.1,233,130.94,235.66,133,179.91,133,179.91Z"/><path class="cls-1" d="M107.7,160.63S62,190.21,67.21,199,107.7,160.63,107.7,160.63Z"/><path class="cls-1" d="M183.93,116.64S248.14,104.13,246.32,92,183.93,116.64,183.93,116.64Z"/><path class="cls-1" d="M90.78,158.23S26.62,171,28.48,183.07,90.78,158.23,90.78,158.23Z"/><path class="cls-1" d="M175.17,143s52.05,15.83,55.44,6.21S175.17,143,175.17,143Z"/><path class="cls-1" d="M166.94,115.86s46.32-28.53,41.35-37.44S166.94,115.86,166.94,115.86Z"/><path class="cls-1" d="M118.58,188.62S85.8,246.34,96.34,252.94,118.58,188.62,118.58,188.62Z"/><path class="cls-1" d="M158.87,190.34s17.16,68.17,30.06,65.5S158.87,190.34,158.87,190.34Z"/></svg>