<svg id="Capa_53_Imagen" data-name="Capa 53 Imagen" xmlns="http://www.w3.org/2000/svg" viewBox="0 0 76.84 80"><defs><style>.cls-1{fill:#fff;}</style></defs><title>Destello 1</title><path class="cls-1" d="M28.81,31.59S14.26,11.87,10.45,14.43,28.81,31.59,28.81,31.59Z"/><path class="cls-1" d="M25.15,45.93S1,41.85,0,46.34,25.15,45.93,25.15,45.93Z"/><path class="cls-1" d="M31.81,59S13.57,75.34,16.49,78.88,31.81,59,31.81,59Z"/><path class="cls-1" d="M40.51,25.12S43.86.84,39.34,0,40.51,25.12,40.51,25.12Z"/><path class="cls-1" d="M54.72,30.44s19.41-15,16.76-18.72S54.72,30.44,54.72,30.44Z"/><path class="cls-1" d="M27.13,37.8S12.47,25.29,10,27.93,27.13,37.8,27.13,37.8Z"/><path class="cls-1" d="M35.74,61.08S26.54,78,29.63,79.88,35.74,61.08,35.74,61.08Z"/><path class="cls-1" d="M35.75,34.44s-6.84-14.9-9.68-13.74S35.75,34.44,35.75,34.44Z"/><path class="cls-1" d="M37.74,41s-6.09-7.32-7.51-6.24S37.74,41,37.74,41Z"/><path class="cls-1" d="M42,38.58s.35-9.52-1.42-9.66S42,38.58,42,38.58Z"/><path class="cls-1" d="M46.2,39.94s7-6.41,5.9-7.78S46.2,39.94,46.2,39.94Z"/><path class="cls-1" d="M37.61,45.8s-9.48-1-9.73.81S37.61,45.8,37.61,45.8Z"/><path class="cls-1" d="M44.85,32.36s4.49-15.76,1.58-16.73S44.85,32.36,44.85,32.36Z"/><path class="cls-1" d="M52.15,38.59S66.39,30.46,65,27.73,52.15,38.59,52.15,38.59Z"/><path class="cls-1" d="M28.47,50.53S8.94,53.2,9.29,56.88,28.47,50.53,28.47,50.53Z"/><path class="cls-1" d="M57.2,39.6s19.52-2.74,19.16-6.41S57.2,39.6,57.2,39.6Z"/><path class="cls-1" d="M31.55,42.76S16.16,37.12,15,40,31.55,42.76,31.55,42.76Z"/><path class="cls-1" d="M33.57,51s-14.42,7.8-13.08,10.56S33.57,51,33.57,51Z"/><path class="cls-1" d="M49.35,30s10.84-16.81,7.78-19S49.35,30,49.35,30Z"/><path class="cls-1" d="M37.26,28.78S33.26,8,29.33,8.57,37.26,28.78,37.26,28.78Z"/></svg>