<svg xmlns="http://www.w3.org/2000/svg" width="87.037" height="87.037" viewBox="0 0 87.037 87.037"><defs><style>.a{fill:#edf2fa;}.b{fill:#eaac96;}.c{fill:#d1826d;}.d{fill:#45a34a;}.e{fill:#bedb78;}.f{fill:#67db77;}.g{fill:#60cc6a;}.h{opacity:0.32;}.h,.l,.o,.s{mix-blend-mode:multiply;isolation:isolate;}.i{fill:#5b557d;}.j{fill:#54ba5d;}.k{fill:#fff;}.l{opacity:0.61;}.m{fill:#6fc978;}.n{fill:#dcffdf;}.p{fill:#c7c7c7;}.q{fill:#e5f9ff;}.r{fill:#162458;}.s{opacity:0.78;}</style></defs><g transform="translate(-1813.909 -2378.214)"><g transform="translate(1813.909 2378.214)"><circle class="a" cx="43.519" cy="43.519" r="43.519" transform="translate(0)"/></g><g transform="translate(1865.599 2422.309)"><path class="b" d="M2045.274,2575.595s16.615-.636,21.854,10.238c0,0,4.179,15.514-13.537,13.719Z" transform="translate(-2045.274 -2575.588)"/></g><g transform="translate(1837.145 2432.965)"><path class="c" d="M1923.574,2627.978s-6.911.319-5.459-3.076l3.605-1.618,2.211,3.141Z" transform="translate(-1917.915 -2623.284)"/></g><g transform="translate(1823.643 2382.352)"><g transform="translate(2.615 38.214)"><path class="d" d="M1869.183,2567.781l1.575,1.556,4.669,4.612h0l4.22,4.169,42.156,8.092-2.583-2.552-5.075-5.012-2.806-2.772Z" transform="translate(-1869.183 -2567.781)"/></g><g transform="translate(38.728 45.997)"><path class="e" d="M2030.826,2602.62l5.187,1,2.608,2.575Z" transform="translate(-2030.826 -2602.62)"/></g><g transform="translate(5.857 39.648)"><path class="e" d="M1888.882,2575.2l-5.186-1,2.608,2.575Z" transform="translate(-1883.696 -2574.2)"/></g><g transform="translate(11.729 48.396)"><rect class="f" width="3.626" height="42.926" transform="translate(0 3.561) rotate(-79.134)"/></g><g transform="translate(1.963 38.215)"><path class="g" d="M1877.384,2578.123l-10.466-10.336-.652,3.4,10.324,11.117Z" transform="translate(-1866.266 -2567.787)"/></g><g class="h" transform="translate(4.19 39.77)"><path class="i" d="M1876.233,2574.747l4.669,4.612h0l23.405,5.612,20.388,4.1-5.075-5.012Z" transform="translate(-1876.233 -2574.747)"/></g><g transform="translate(10.714 34.334)"><path class="j" d="M1911.046,2550.417a106.762,106.762,0,0,0-5.612,9.8,221.716,221.716,0,0,0,44.977,7.8c-1.948-4.665-3.774-9.357-5.474-14.118A155.049,155.049,0,0,1,1911.046,2550.417Z" transform="translate(-1905.434 -2550.417)"/><g transform="translate(1.304 0.596)"><path class="k" d="M1953.659,2569.383l-.178-.012a217.063,217.063,0,0,1-42.079-7.173l-.13-.035.058-.121c1.445-3.022,3.053-6.013,4.779-8.888l.041-.068.078.016a158.39,158.39,0,0,0,32.651,3.513h.08l.025.076c1.386,4.159,2.936,8.373,4.608,12.526Zm-42.069-7.366a216.866,216.866,0,0,0,41.729,7.119c-1.638-4.078-3.158-8.214-4.521-12.3a158.64,158.64,0,0,1-32.539-3.5C1914.575,2556.147,1913,2559.066,1911.589,2562.017Z" transform="translate(-1911.272 -2553.086)"/></g></g><g class="l" transform="translate(11.103 40.785)"><path class="i" d="M1943.354,2580.378l2.423,4.233s-34.266-.792-38.6-2.734l1.26-2.588Z" transform="translate(-1907.176 -2579.289)"/></g><g transform="translate(3.878 29.228)"><path class="m" d="M1874.835,2540.042a221.785,221.785,0,0,0,45.646.594c-2.662-4.3-5.206-8.645-7.637-13.075q-3.784.653-7.564,1.093a159.631,159.631,0,0,1-26.452.823q-1.02,2.324-1.926,4.694Q1875.783,2537.074,1874.835,2540.042Z" transform="translate(-1874.835 -2527.561)"/><g transform="translate(1.269 0.717)"><path class="k" d="M1904.413,2543.5a225.256,225.256,0,0,1-23.767-1.284l-.133-.014.038-.129c.953-3.221,2.068-6.427,3.315-9.531l.03-.074.079,0a158.289,158.289,0,0,0,32.8-1.688l.08-.013.037.072c2.025,3.89,4.221,7.806,6.529,11.641l.092.153-.178.016C1917.033,2543.218,1910.75,2543.5,1904.413,2543.5Zm-23.61-1.493a216.7,216.7,0,0,0,42.329.438c-2.262-3.766-4.417-7.61-6.406-11.429a158.49,158.49,0,0,1-32.682,1.682C1882.828,2535.733,1881.738,2538.864,1880.8,2542.009Z" transform="translate(-1880.513 -2530.772)"/></g><g transform="translate(15.576 3.92)"><path class="n" d="M1952.248,2553.271c-3.281,0-6-1.043-7.28-2.789a1.834,1.834,0,0,1-.306-1.776c.478-1.4,2.463-2.748,4.028-3.2a10.3,10.3,0,0,1,2.848-.4,8.708,8.708,0,0,1,6.19,2.377,2.8,2.8,0,0,1,.895,2.9,4,4,0,0,1-3.137,2.517l-.033.007A13.941,13.941,0,0,1,1952.248,2553.271Z" transform="translate(-1944.554 -2545.106)"/><g transform="translate(4.805 1.894)"><g transform="translate(0 0.165)"><path class="f" d="M1966.093,2557.292a.489.489,0,0,1,.271-.41,1.387,1.387,0,0,0,1.051.406c.407-.026.614-.193.6-.458-.02-.307-.367-.332-.774-.4-.558-.087-1.132-.262-1.177-.961-.041-.635.446-1.091,1.271-1.144s1.248.255,1.267.546a.512.512,0,0,1-.286.427,1.232,1.232,0,0,0-.937-.365c-.376.024-.582.2-.567.445.019.3.328.3.757.372.628.1,1.184.323,1.225.968.044.683-.428,1.116-1.332,1.174S1966.113,2557.6,1966.093,2557.292Z" transform="translate(-1966.059 -2554.323)"/></g><g transform="translate(2.979)"><path class="f" d="M1979.394,2557.964a.837.837,0,0,1,.028-.225l1.017-4.118a.307.307,0,0,1,.157-.037c.153-.01.384.018.4.272a.94.94,0,0,1-.028.225l-1.012,4.117a.335.335,0,0,1-.157.037C1979.64,2558.245,1979.41,2558.217,1979.394,2557.964Z" transform="translate(-1979.393 -2553.583)"/></g></g></g></g><g class="o" transform="translate(5.945 30.321)"><path class="p" d="M1884.086,2537.969c8.458,4.051,31.361.371,31.361.371l-2.982-5.887a159.631,159.631,0,0,1-26.452.823Q1884.992,2535.6,1884.086,2537.969Z" transform="translate(-1884.086 -2532.452)"/></g><g transform="translate(0 0)"><path class="m" d="M1857.478,2405.437a95.578,95.578,0,0,0,5.415,12.376c1.154,2.223,2.375,4.411,3.649,6.585,14.791.491,27.611-3.774,37.964-14.552a81.229,81.229,0,0,1-12.151-13.111,37.952,37.952,0,0,1-13.43,7.8C1872.272,2406.7,1865.11,2406.877,1857.478,2405.437Z" transform="translate(-1857.478 -2396.736)"/><g transform="translate(1.239 1.163)"><path class="k" d="M1872.638,2427.575c-.411,0-.821,0-1.236-.011h-.063l-.032-.054a108.674,108.674,0,0,1-8.218-16.818l-.067-.178.188.029a44.589,44.589,0,0,0,17.61-.471,37.882,37.882,0,0,0,15.575-8.053l.092-.077.071.1a85.025,85.025,0,0,0,10.807,11.833l.085.08-.084.082C1898.054,2423.138,1886.682,2427.575,1872.638,2427.575Zm-1.169-.234c14.478.255,26.147-4.13,35.659-13.388a85.231,85.231,0,0,1-10.679-11.688,38.073,38.073,0,0,1-15.574,8.022,44.682,44.682,0,0,1-17.509.5A108.76,108.76,0,0,0,1871.469,2427.342Z" transform="translate(-1863.024 -2401.941)"/></g><g transform="translate(16.821 10.468)"><path class="q" d="M1942.517,2455.586a11.9,11.9,0,0,1-6.952-2.522,6.947,6.947,0,0,1-2.791-5.246,3.442,3.442,0,0,1,1.719-2.825,9.146,9.146,0,0,1,4.987-1.4,9.969,9.969,0,0,1,5.277,1.485,7.375,7.375,0,0,1,3.31,4.815,4.71,4.71,0,0,1-.955,3.807,5.908,5.908,0,0,1-4.594,1.888Z" transform="translate(-1932.771 -2443.59)"/><g transform="translate(3.767 1.987)"><g transform="translate(0 1.707)"><path class="f" d="M1950.953,2465.135a.706.706,0,0,1,.108-.7,2,2,0,0,0,1.622-.1c.518-.28.688-.625.506-.961-.211-.391-.681-.214-1.254-.052-.784.224-1.643.341-2.123-.547-.437-.807-.076-1.7.974-2.267s1.791-.421,1.991-.051a.739.739,0,0,1-.117.733,1.777,1.777,0,0,0-1.449.088c-.478.259-.645.61-.473.926.2.377.613.2,1.216.029.882-.251,1.747-.293,2.191.528.47.868.114,1.721-1.037,2.344S1951.168,2465.532,1950.953,2465.135Z" transform="translate(-1949.63 -2460.124)"/></g><g transform="translate(4.682)"><path class="f" d="M1971.845,2459.053a1.228,1.228,0,0,1-.1-.312l-1.156-6.011c-.007-.014.076-.084.183-.143.2-.105.514-.209.689.115a1.363,1.363,0,0,1,.1.311l1.163,6.008a.5.5,0,0,1-.184.143C1972.338,2459.273,1972.02,2459.376,1971.845,2459.053Z" transform="translate(-1970.589 -2452.484)"/></g></g></g></g><g transform="translate(12.288 50.167)"><path class="f" d="M1912.479,2623.848s30.85,4.612,41.478,8.212l.453-2.628-27.934-5.39-13.513-2.757Z" transform="translate(-1912.479 -2621.285)"/></g></g><g transform="translate(1839.302 2429.21)"><path class="b" d="M1936.264,2614.034l-3.349-.561s-1.633-8.139-4.729-6.861c0,0-4.1,9.211,8.829,12.116l.331-3.551Z" transform="translate(-1927.568 -2606.475)"/></g><g transform="translate(1846.473 2427.423)"><path class="b" d="M1970.6,2613.674l-5.118.171a4.981,4.981,0,0,1-4.72-2.924,13.216,13.216,0,0,1-1.086-5.953s.007-5.053,4.137-6.491c0,0,2.348.038.43,5.021a5.266,5.266,0,0,0,.021,3.893c.107.261.233.542.381.846l4.866,1.1Z" transform="translate(-1959.669 -2598.478)"/></g><g transform="translate(1854.773 2431.765)"><path class="b" d="M2021.8,2632.4s-19.781,1.177-23.255-3.875A9.3,9.3,0,0,1,1998.4,2618s3.481-1.4,3.707,6.866l18.328,3.916.8-4.437Z" transform="translate(-1996.819 -2617.911)"/></g><g transform="translate(1880.773 2428.12)"><path class="b" d="M2115.938,2601.6l-2.743,16.867,9.3,5.027a43.453,43.453,0,0,0,8.837-15.61Z" transform="translate(-2113.195 -2601.596)"/></g><g transform="translate(1846.217 2433.889)"><path class="r" d="M1962.677,2636.247c-4.861-1.782-4.118-8.758-4.109-8.828l.444.051c-.008.067-.711,6.7,3.819,8.358Z" transform="translate(-1958.523 -2627.419)"/></g><g transform="translate(1854.664 2435.079)"><path class="r" d="M2001.235,2642.374c-5.917-1.767-4.83-9.552-4.818-9.631l.442.065c-.011.075-1.04,7.482,4.5,9.138Z" transform="translate(-1996.331 -2632.743)"/></g><g transform="translate(1873.889 2436.236)"><path class="r" d="M2084.858,2648.3a23.736,23.736,0,0,1-2.474-.118l.052-.444c.085.01,8.61.964,11.836-2.908,1.356-1.628,1.6-3.908.712-6.776l.427-.132c.931,3.022.663,5.443-.8,7.194-1.405,1.687-3.971,2.75-7.421,3.077C2086.355,2648.276,2085.556,2648.3,2084.858,2648.3Z" transform="translate(-2082.384 -2637.925)"/></g><g transform="translate(1859.42 2434.991)"><path class="r" d="M2018.416,2637.382l-.442-.064a17.424,17.424,0,0,0-.357-4.872l.437-.095A17.519,17.519,0,0,1,2018.416,2637.382Z" transform="translate(-2017.617 -2632.351)"/></g><g transform="translate(1850.583 2435.39)"><path class="r" d="M1979.308,2637.062c-.661-.5-1.187-2.583-1.245-2.818l.434-.106a6.691,6.691,0,0,0,1.082,2.569Z" transform="translate(-1978.063 -2634.138)"/></g><g class="s" transform="translate(1860.059 2438.72)"><path class="i" d="M2020.479,2649.041l17.35,4.574-.438-.961Z" transform="translate(-2020.479 -2649.041)"/></g><g transform="translate(1850.621 2427.423)"><path class="k" d="M1978.235,2598.478" transform="translate(-1978.235 -2598.478)"/></g></g></svg>