<svg xmlns="http://www.w3.org/2000/svg" xmlns:xlink="http://www.w3.org/1999/xlink" width="1704.782" height="615.346" viewBox="0 0 1704.782 615.346"><defs><style>.a,.h{fill:none;}.b{opacity:0.15;}.c{clip-path:url(#a);}.d{clip-path:url(#b);}.e{fill:#ffc75b;}.f{clip-path:url(#c);}.g{clip-path:url(#e);}.h{stroke:#00adee;stroke-miterlimit:10;}.i,.j{fill:#00adee;}.k,.n{fill:#fff;}.l{fill:#00a9ff;}.m,.n{stroke:none;}</style><clipPath id="a"><path class="a" d="M1544.818-483.971l6.888-2.429" transform="translate(-1544.818 486.4)"/></clipPath><clipPath id="b"><path class="a" d="M447,1129.955H3750.932V-935H447Z" transform="translate(-447 935)"/></clipPath><clipPath id="c"><path class="a" d="M1548.227-475.954l6.888-2.429" transform="translate(-1548.227 478.383)"/></clipPath><clipPath id="e"><path class="a" d="M1551.319-468.746l6.888-2.442" transform="translate(-1551.319 471.188)"/></clipPath></defs><g class="b" transform="translate(-89.339 -1232)"><g transform="translate(17)"><g class="c" transform="translate(1008.874 1789.808)"><g class="d" transform="translate(-2518.831 -1029.266)"><path class="e" d="M1539.818-466.027h29.832V-491.4h-29.832Z" transform="translate(967.541 1509.194)"/></g></g><g class="f" transform="translate(1016.696 1808.201)"><g class="d" transform="translate(-2526.653 -1047.66)"><path class="e" d="M1543.227-458.01h29.831v-25.373h-29.831Z" transform="translate(971.954 1519.571)"/></g></g><g class="g" transform="translate(1023.79 1824.709)"><g class="d" transform="translate(-2533.747 -1064.168)"><path class="e" d="M1546.319-450.8h29.832v-25.386h-29.832Z" transform="translate(975.956 1528.884)"/></g></g><g transform="translate(1131.766 1816.789)"><path class="h" d="M2794.742,972.537" transform="translate(-2794.742 -972.537)"/></g><g transform="translate(1504.37 1402.29)"><g transform="translate(0 185.062)"><path class="i" d="M2920.817,908.576h272.751V819.2H2920.817Zm268.456-4.3H2925.113V823.5h264.161Z" transform="translate(-2920.817 -819.203)"/></g><g transform="translate(0 270.14)"><path class="i" d="M2920.817,958.1h272.751V868.723H2920.817Zm268.456-4.3H2925.113V873.018h264.161Z" transform="translate(-2920.817 -868.723)"/></g><g transform="translate(0 355.221)"><path class="i" d="M2920.817,1007.617h272.751V918.244H2920.817Zm268.456-4.3H2925.113V922.539h264.161Z" transform="translate(-2920.817 -918.244)"/></g><g transform="translate(120.916 0)"><path class="i" d="M2946.989,805.267h106.87l-14.71-93.78h-74.385Zm101.851-4.3h-96.667l16.15-85.19h67.154Z" transform="translate(-2946.989 -711.487)"/></g><g transform="translate(163.179 89.485)"><path class="i" d="M2973.157,852.966h19.649V763.572h-19.649Zm15.354-4.3h-11.06v-80.8h11.06Z" transform="translate(-2973.157 -763.572)"/></g><g transform="translate(140.076 174.584)"><path class="i" d="M2959.8,827.878H3025.5V813.1H2959.8Zm61.413-4.3h-57.117V817.4h57.117Z" transform="translate(-2959.796 -813.104)"/></g><g transform="translate(93.674 425.2)"><path class="i" d="M2975.349,978.369h85.388l-7.513-19.393h-70.269Zm79.117-4.3h-72.818l4.237-10.8h64.4Z" transform="translate(-2975.349 -958.976)"/></g><g transform="translate(93.674 340.122)"><path class="i" d="M2975.349,928.849h85.388l-7.513-19.394h-70.269Zm79.117-4.3h-72.818l4.237-10.8h64.4Z" transform="translate(-2975.349 -909.456)"/></g><g transform="translate(93.674 255.042)"><path class="i" d="M2975.349,879.328h85.388l-7.513-19.393h-70.269Zm79.117-4.3h-72.818l4.237-10.8h64.4Z" transform="translate(-2975.349 -859.935)"/></g><g transform="translate(1.057 440.3)"><rect class="i" width="271.694" height="4.295"/></g><g transform="translate(14.475 169.321)"><path class="i" d="M3030.35,830.077h70.092V810.041H3030.35Zm65.8-4.3h-61.5V814.336h61.5Z" transform="translate(-3030.35 -810.041)"/></g><g transform="translate(152.37 1.931)"><rect class="i" width="4.294" height="89.943" transform="translate(4.272 89.918) rotate(-174.215)"/></g><g transform="translate(186.354 1.931)"><rect class="i" width="89.943" height="4.294" transform="translate(9.068 89.918) rotate(-95.786)"/></g></g></g><g class="j" transform="translate(13304.34 10094.971)"><path class="m" d="M -13070.919921875 -8248.125 L -13124.3974609375 -8248.125 L -13124.3974609375 -8250.1552734375 L -13124.3974609375 -8251.7998046875 L -13124.3974609375 -8251.8251953125 L -13124.400390625 -8251.8515625 L -13130.876953125 -8314.4140625 L -13097.001953125 -8314.4140625 L -13096.39453125 -8314.4140625 L -13096.51171875 -8315.0107421875 C -13097.9541015625 -8322.3583984375 -13099.74609375 -8329.8251953125 -13101.8369140625 -8337.205078125 L -13101.9228515625 -8337.5078125 L -13102.2333984375 -8337.5615234375 L -13121.267578125 -8340.84765625 L -13121.7353515625 -8340.927734375 L -13121.83984375 -8340.46484375 C -13122.478515625 -8337.65625 -13123.57421875 -8335.0029296875 -13125.095703125 -8332.580078125 C -13126.65625 -8330.0966796875 -13128.6181640625 -8327.9306640625 -13130.927734375 -8326.1416015625 C -13135.255859375 -8322.791015625 -13140.169921875 -8321.091796875 -13145.5361328125 -8321.091796875 C -13152.013671875 -8321.091796875 -13159.2021484375 -8323.5751953125 -13166.90234375 -8328.47265625 C -13175.9775390625 -8334.244140625 -13185.8974609375 -8343.4599609375 -13196.388671875 -8355.8642578125 L -13198.7861328125 -8358.697265625 L -13195.373046875 -8360.1552734375 C -13194.7060546875 -8360.439453125 -13188.6103515625 -8363.00390625 -13180.1640625 -8365.50390625 C -13175.2763671875 -8366.951171875 -13170.529296875 -8368.1005859375 -13166.0556640625 -8368.9228515625 C -13160.515625 -8369.9404296875 -13155.3720703125 -8370.4560546875 -13150.7666015625 -8370.4560546875 C -13144.7578125 -8370.4560546875 -13139.5791015625 -8369.5771484375 -13135.373046875 -8367.8447265625 C -13129.494140625 -8365.423828125 -13125.357421875 -8361.3515625 -13123.0791015625 -8355.7412109375 C -13121.9208984375 -8352.8935546875 -13121.2919921875 -8349.888671875 -13121.2119140625 -8346.8095703125 L -13121.201171875 -8346.3994140625 L -13120.796875 -8346.3291015625 L -13104.4599609375 -8343.5068359375 L -13103.6552734375 -8343.3681640625 L -13103.8974609375 -8344.1484375 C -13109.3779296875 -8361.8232421875 -13116.751953125 -8379.7314453125 -13125.81640625 -8397.3759765625 L -13125.9345703125 -8397.6064453125 L -13126.19140625 -8397.642578125 L -13143.1318359375 -8400.0166015625 L -13143.5498046875 -8400.0751953125 L -13143.677734375 -8399.6728515625 C -13144.7734375 -8396.220703125 -13146.6728515625 -8393.0654296875 -13149.1708984375 -8390.5478515625 C -13153.51171875 -8386.1806640625 -13158.814453125 -8383.966796875 -13164.931640625 -8383.966796875 C -13170.6845703125 -8383.966796875 -13177.2021484375 -8385.939453125 -13184.3046875 -8389.8291015625 C -13192.5283203125 -8394.333984375 -13201.6826171875 -8401.4931640625 -13211.513671875 -8411.109375 L -13214.1669921875 -8413.7060546875 L -13210.90234375 -8415.4794921875 C -13209.9013671875 -8416.0234375 -13186.18359375 -8428.787109375 -13166.8935546875 -8428.787109375 C -13163.3896484375 -8428.787109375 -13160.208984375 -8428.359375 -13157.439453125 -8427.515625 C -13151.8828125 -8425.8212890625 -13147.7646484375 -8422.474609375 -13145.2001953125 -8417.5673828125 C -13143.3447265625 -8414.0146484375 -13142.443359375 -8409.9912109375 -13142.59375 -8405.931640625 L -13142.6103515625 -8405.48046875 L -13142.1630859375 -8405.41796875 L -13130.0615234375 -8403.7197265625 L -13129.0810546875 -8403.58203125 L -13129.552734375 -8404.453125 C -13134.70703125 -8413.978515625 -13140.4140625 -8423.525390625 -13146.5146484375 -8432.8291015625 L -13146.7353515625 -8433.166015625 L -13147.111328125 -8433.021484375 C -13148.8564453125 -8432.3525390625 -13150.6806640625 -8431.90625 -13152.53125 -8431.6953125 C -13153.453125 -8431.5888671875 -13154.384765625 -8431.53515625 -13155.2998046875 -8431.53515625 C -13162.7626953125 -8431.53515625 -13169.193359375 -8435.1181640625 -13174.4130859375 -8442.18359375 C -13181.177734375 -8451.3388671875 -13185.8681640625 -8466.318359375 -13188.357421875 -8486.7041015625 L -13188.8056640625 -8490.3896484375 L -13185.1513671875 -8489.7333984375 C -13184.126953125 -8489.5478515625 -13174.83984375 -8487.814453125 -13164.2939453125 -8484.0185546875 C -13158.1337890625 -8481.80078125 -13152.736328125 -8479.3076171875 -13148.251953125 -8476.6083984375 C -13142.7080078125 -8473.2724609375 -13138.5478515625 -8469.6083984375 -13135.88671875 -8465.7197265625 C -13132.611328125 -8460.927734375 -13131.48828125 -8455.7421875 -13132.548828125 -8450.3076171875 C -13133.10546875 -8447.4609375 -13134.1884765625 -8444.765625 -13135.76953125 -8442.2958984375 C -13137.3115234375 -8439.8857421875 -13139.2578125 -8437.794921875 -13141.5537109375 -8436.08203125 L -13141.9306640625 -8435.8017578125 L -13141.6728515625 -8435.408203125 C -13134.7900390625 -8424.8857421875 -13128.4091796875 -8414.0625 -13122.70703125 -8403.23828125 L -13122.32421875 -8402.5107421875 L -13121.8544921875 -8403.1865234375 L -13115.5224609375 -8412.287109375 L -13115.271484375 -8412.6474609375 L -13115.5966796875 -8412.9423828125 C -13118.443359375 -8415.5234375 -13120.619140625 -8418.7724609375 -13121.8896484375 -8422.337890625 C -13123.751953125 -8427.5498046875 -13123.4150390625 -8432.84375 -13120.8857421875 -8438.07421875 C -13118.833984375 -8442.31640625 -13115.265625 -8446.5595703125 -13110.28125 -8450.6845703125 C -13106.248046875 -8454.021484375 -13101.2822265625 -8457.291015625 -13095.5205078125 -8460.4013671875 C -13085.3994140625 -8465.865234375 -13076.1376953125 -8469.0244140625 -13075.7490234375 -8469.15625 L -13072.2314453125 -8470.3486328125 L -13072.1279296875 -8466.6376953125 C -13071.5146484375 -8444.7431640625 -13074.2880859375 -8428.5888671875 -13080.37109375 -8418.6240234375 C -13084.94140625 -8411.13671875 -13091.328125 -8407.1962890625 -13099.3544921875 -8406.91015625 C -13099.6650390625 -8406.8984375 -13099.9169921875 -8406.8935546875 -13100.1494140625 -8406.8935546875 C -13103.6416015625 -8406.8935546875 -13107.173828125 -8407.7431640625 -13110.365234375 -8409.3505859375 L -13110.7529296875 -8409.5458984375 L -13111 -8409.189453125 L -13119.318359375 -8397.23046875 L -13119.48828125 -8396.986328125 L -13119.35546875 -8396.720703125 C -13110.93359375 -8379.9462890625 -13104.0087890625 -8362.919921875 -13098.7734375 -8346.1162109375 L -13098.4697265625 -8345.1416015625 L -13097.8857421875 -8345.978515625 L -13085.3359375 -8363.9677734375 L -13085.1044921875 -8364.298828125 L -13085.3798828125 -8364.5947265625 C -13087.48828125 -8366.85546875 -13089.1494140625 -8369.4423828125 -13090.318359375 -8372.2841796875 C -13092.6279296875 -8377.88671875 -13092.5341796875 -8383.69140625 -13090.0390625 -8389.53515625 C -13081.0849609375 -8410.5244140625 -13043.4560546875 -8425.4892578125 -13041.8583984375 -8426.115234375 L -13038.4033203125 -8427.470703125 L -13038.1259765625 -8423.771484375 C -13034.1982421875 -8371.326171875 -13050.01171875 -8358.33984375 -13063.96875 -8356.6806640625 C -13064.9462890625 -8356.564453125 -13065.9296875 -8356.505859375 -13066.89453125 -8356.505859375 C -13071.6865234375 -8356.505859375 -13076.3828125 -8357.8916015625 -13080.4755859375 -8360.5126953125 L -13080.8798828125 -8360.7724609375 L -13081.1552734375 -8360.3779296875 L -13096.3515625 -8338.6015625 L -13096.486328125 -8338.4072265625 L -13096.4228515625 -8338.1796875 C -13094.2216796875 -8330.3603515625 -13092.361328125 -8322.5009765625 -13090.8935546875 -8314.8203125 L -13090.8154296875 -8314.4140625 L -13090.40234375 -8314.4140625 L -13055.669921875 -8314.4140625 L -13070.5830078125 -8248.3359375 L -13070.919921875 -8248.412109375 L -13070.919921875 -8248.125 Z M -13113.326171875 -8279.9140625 C -13115.1689453125 -8279.9140625 -13116.0068359375 -8279.16796875 -13117.275390625 -8278.0400390625 L -13117.296875 -8278.01953125 L -13117.3056640625 -8278.0126953125 C -13118.2314453125 -8277.185546875 -13119.3828125 -8276.15625 -13120.9794921875 -8275.4833984375 L -13121.3203125 -8275.3388671875 L -13121.2822265625 -8274.970703125 L -13118.9697265625 -8252.6376953125 L -13118.923828125 -8252.189453125 L -13118.47265625 -8252.189453125 L -13075.734375 -8252.189453125 L -13075.3349609375 -8252.189453125 L -13075.2470703125 -8252.5791015625 L -13069.48828125 -8278.095703125 L -13069.154296875 -8279.572265625 L -13070.3017578125 -8278.5849609375 C -13070.46875 -8278.44140625 -13070.640625 -8278.287109375 -13070.822265625 -8278.1240234375 L -13070.9365234375 -8278.021484375 L -13070.94140625 -8278.0166015625 C -13072.494140625 -8276.6279296875 -13074.6201171875 -8274.7265625 -13078.5595703125 -8274.7265625 C -13082.5009765625 -8274.7265625 -13084.6240234375 -8276.630859375 -13086.1748046875 -8278.021484375 C -13087.4970703125 -8279.203125 -13088.29296875 -8279.9140625 -13090.13671875 -8279.9140625 C -13091.984375 -8279.9140625 -13092.78125 -8279.2021484375 -13094.1025390625 -8278.0224609375 L -13094.1025390625 -8278.021484375 L -13094.1064453125 -8278.0185546875 C -13095.654296875 -8276.62890625 -13097.7744140625 -8274.7265625 -13101.724609375 -8274.7265625 C -13105.6708984375 -8274.7265625 -13107.7978515625 -8276.6279296875 -13109.3515625 -8278.0166015625 L -13109.373046875 -8278.03515625 C -13110.640625 -8279.166015625 -13111.4775390625 -8279.9140625 -13113.326171875 -8279.9140625 Z M -13090.13671875 -8285.39453125 C -13086.19140625 -8285.39453125 -13084.068359375 -8283.494140625 -13082.517578125 -8282.1064453125 C -13081.2001953125 -8280.9248046875 -13080.404296875 -8280.2109375 -13078.5595703125 -8280.2109375 C -13076.7060546875 -8280.2109375 -13075.912109375 -8280.9248046875 -13074.5966796875 -8282.1064453125 C -13073.162109375 -8283.3916015625 -13071.3759765625 -8284.9921875 -13068.2021484375 -8285.3310546875 L -13067.845703125 -8285.369140625 L -13067.767578125 -8285.7177734375 L -13062.6669921875 -8308.3193359375 L -13062.529296875 -8308.9296875 L -13063.154296875 -8308.9296875 L -13124.248046875 -8308.9296875 L -13124.802734375 -8308.9296875 L -13124.7451171875 -8308.3779296875 L -13122.0322265625 -8282.201171875 L -13121.9306640625 -8281.2216796875 L -13121.2001953125 -8281.8818359375 C -13121.1220703125 -8281.9521484375 -13121.0380859375 -8282.0283203125 -13120.953125 -8282.1025390625 L -13120.951171875 -8282.1044921875 L -13120.94921875 -8282.1064453125 C -13119.3984375 -8283.494140625 -13117.275390625 -8285.39453125 -13113.326171875 -8285.39453125 C -13109.3759765625 -8285.39453125 -13107.2509765625 -8283.494140625 -13105.69921875 -8282.10546875 C -13104.3779296875 -8280.923828125 -13103.5810546875 -8280.2109375 -13101.724609375 -8280.2109375 C -13099.880859375 -8280.2109375 -13099.08203125 -8280.9228515625 -13097.759765625 -8282.103515625 C -13096.208984375 -8283.494140625 -13094.0888671875 -8285.39453125 -13090.13671875 -8285.39453125 Z M -13185.623046875 -8351.9619140625 L -13184.58984375 -8350.869140625 C -13177.1083984375 -8342.96484375 -13169.98828125 -8336.8974609375 -13163.427734375 -8332.8369140625 C -13156.8427734375 -8328.7607421875 -13150.80078125 -8326.6943359375 -13145.46875 -8326.6943359375 C -13145.46875 -8326.6943359375 -13145.4677734375 -8326.6943359375 -13145.466796875 -8326.6943359375 C -13141.2890625 -8326.6943359375 -13137.52734375 -8327.9658203125 -13134.2861328125 -8330.474609375 C -13130.873046875 -8333.1162109375 -13128.3994140625 -8336.978515625 -13127.3212890625 -8341.349609375 L -13127.1923828125 -8341.87109375 L -13127.7216796875 -8341.962890625 L -13184.1416015625 -8351.7060546875 L -13185.623046875 -8351.9619140625 Z M -13150.7529296875 -8365.0087890625 C -13162.40234375 -8365.0087890625 -13175.6083984375 -8361.3642578125 -13184.6357421875 -8358.306640625 L -13184.560546875 -8357.33984375 L -13127.380859375 -8347.466796875 L -13126.7412109375 -8347.3564453125 L -13126.7978515625 -8348.00390625 C -13126.970703125 -8349.97265625 -13127.427734375 -8351.8818359375 -13128.15625 -8353.67578125 C -13129.888671875 -8357.9365234375 -13132.9296875 -8360.912109375 -13137.453125 -8362.7724609375 C -13141.0537109375 -8364.2568359375 -13145.529296875 -8365.0087890625 -13150.7529296875 -8365.0087890625 Z M -13043.1142578125 -8414.896484375 L -13043.9833984375 -8413.6513671875 L -13077.4072265625 -8365.7470703125 L -13077.708984375 -8365.314453125 L -13077.2607421875 -8365.0361328125 C -13074.0546875 -8363.048828125 -13070.4267578125 -8361.9990234375 -13066.76953125 -8361.9990234375 C -13066.0517578125 -8361.9990234375 -13065.328125 -8362.0400390625 -13064.6181640625 -8362.1220703125 C -13060.90234375 -8362.5634765625 -13057.5927734375 -8364.0458984375 -13054.7822265625 -8366.5283203125 C -13052.01171875 -8368.9736328125 -13049.69140625 -8372.423828125 -13047.8837890625 -8376.7822265625 C -13044.271484375 -8385.490234375 -13042.6533203125 -8397.8037109375 -13043.0732421875 -8413.37890625 L -13043.1142578125 -8414.896484375 Z M -13049.8349609375 -8416.4833984375 C -13055.0947265625 -8413.8740234375 -13062.8095703125 -8409.6884765625 -13069.689453125 -8404.564453125 C -13077.44921875 -8398.78515625 -13082.5986328125 -8393.0048828125 -13084.9951171875 -8387.3837890625 C -13086.91796875 -8382.87890625 -13087.0009765625 -8378.623046875 -13085.2490234375 -8374.37109375 C -13084.5244140625 -8372.607421875 -13083.529296875 -8370.9482421875 -13082.2919921875 -8369.4384765625 L -13081.873046875 -8368.927734375 L -13081.4951171875 -8369.4697265625 L -13049.2021484375 -8415.7490234375 L -13049.8349609375 -8416.4833984375 Z M -13200.1083984375 -8407.9951171875 L -13198.8095703125 -8406.8828125 C -13192.1845703125 -8401.2109375 -13185.953125 -8396.8662109375 -13180.291015625 -8393.96875 C -13174.6103515625 -8391.0615234375 -13169.455078125 -8389.587890625 -13164.966796875 -8389.587890625 C -13160.2451171875 -8389.5869140625 -13156.240234375 -8391.2099609375 -13153.0615234375 -8394.41015625 C -13151.416015625 -8396.06640625 -13150.140625 -8398.033203125 -13149.2724609375 -8400.255859375 L -13149.0419921875 -8400.8447265625 L -13149.6689453125 -8400.9326171875 L -13198.4150390625 -8407.7578125 L -13200.1083984375 -8407.9951171875 Z M -13167.0078125 -8423.3369140625 C -13172.0439453125 -8423.3369140625 -13178.0185546875 -8422.318359375 -13184.765625 -8420.30859375 C -13189.681640625 -8418.84375 -13194.9130859375 -8416.888671875 -13200.3154296875 -8414.4951171875 L -13201.9169921875 -8413.7861328125 L -13200.1826171875 -8413.54296875 L -13148.6171875 -8406.3193359375 L -13148.046875 -8406.2392578125 L -13148.0478515625 -8406.8154296875 C -13148.05078125 -8409.6748046875 -13148.74609375 -8412.5146484375 -13150.0576171875 -8415.025390625 C -13151.9443359375 -8418.6328125 -13154.87890625 -8421.001953125 -13159.0283203125 -8422.267578125 C -13161.357421875 -8422.9775390625 -13164.04296875 -8423.3369140625 -13167.0078125 -8423.3369140625 Z M -13077.5595703125 -8457.2529296875 L -13078.521484375 -8455.869140625 L -13107.2529296875 -8414.5791015625 L -13107.6005859375 -8414.080078125 L -13107.04296875 -8413.8359375 C -13104.828125 -8412.8681640625 -13102.5078125 -8412.3779296875 -13100.1435546875 -8412.3779296875 C -13099.947265625 -8412.3779296875 -13099.748046875 -8412.380859375 -13099.5517578125 -8412.3876953125 C -13096.193359375 -8412.5078125 -13093.146484375 -8413.5654296875 -13090.49609375 -8415.533203125 C -13087.884765625 -8417.470703125 -13085.626953125 -8420.318359375 -13083.7841796875 -8423.9951171875 C -13080.1103515625 -8431.3251953125 -13078.0341796875 -8441.9482421875 -13077.611328125 -8455.568359375 L -13077.5595703125 -8457.2529296875 Z M -13081.6494140625 -8460.9716796875 L -13083.27734375 -8460.2529296875 C -13088.103515625 -8458.1259765625 -13095.1923828125 -8454.6884765625 -13101.55859375 -8450.390625 C -13108.7333984375 -8445.5458984375 -13113.5771484375 -8440.5986328125 -13115.955078125 -8435.6845703125 C -13117.84375 -8431.7744140625 -13118.0966796875 -8428.0107421875 -13116.728515625 -8424.177734375 C -13115.8544921875 -8421.7265625 -13114.4091796875 -8419.44921875 -13112.548828125 -8417.591796875 L -13112.1259765625 -8417.169921875 L -13111.78515625 -8417.66015625 L -13082.666015625 -8459.5107421875 L -13081.6494140625 -8460.9716796875 Z M -13181.6787109375 -8478.7529296875 L -13181.3662109375 -8477.0126953125 C -13179.0517578125 -8464.1337890625 -13175.6455078125 -8454.169921875 -13171.2412109375 -8447.3984375 C -13166.7666015625 -8440.51953125 -13161.3369140625 -8437.03125 -13155.1025390625 -8437.0302734375 C -13155.1015625 -8437.0302734375 -13155.1005859375 -8437.0302734375 -13155.099609375 -8437.0302734375 C -13154.462890625 -8437.0302734375 -13153.8076171875 -8437.0673828125 -13153.154296875 -8437.1416015625 C -13152.267578125 -8437.2431640625 -13151.384765625 -8437.4169921875 -13150.5283203125 -8437.658203125 L -13149.8603515625 -8437.8466796875 L -13150.2509765625 -8438.4208984375 C -13155.7626953125 -8446.5302734375 -13161.5888671875 -8454.4677734375 -13167.56640625 -8462.0146484375 C -13171.935546875 -8467.53125 -13176.2880859375 -8472.7197265625 -13180.5009765625 -8477.4345703125 L -13181.6787109375 -8478.7529296875 Z M -13177.5732421875 -8482.3818359375 L -13176.4443359375 -8481.1171875 C -13172.0849609375 -8476.232421875 -13167.5927734375 -8470.8701171875 -13163.09375 -8465.177734375 C -13156.9267578125 -8457.3759765625 -13150.92578125 -8449.173828125 -13145.2568359375 -8440.7978515625 L -13144.9580078125 -8440.3564453125 L -13144.5361328125 -8440.6826171875 C -13141.1015625 -8443.34765625 -13138.7548828125 -8447.140625 -13137.9287109375 -8451.36328125 C -13137.1484375 -8455.35546875 -13137.958984375 -8459.037109375 -13140.4072265625 -8462.619140625 C -13143.455078125 -8467.0751953125 -13148.892578125 -8471.205078125 -13156.5703125 -8474.8955078125 C -13162.0771484375 -8477.54296875 -13168.59375 -8479.91015625 -13175.9384765625 -8481.9326171875 L -13177.5732421875 -8482.3818359375 Z"/><path class="n" d="M -13071.419921875 -8248.625 L -13071.419921875 -8249.0390625 L -13070.9599609375 -8248.9345703125 L -13056.2958984375 -8313.9140625 L -13090.40234375 -8313.9140625 L -13091.2294921875 -8313.9140625 L -13091.384765625 -8314.7265625 C -13092.849609375 -8322.3935546875 -13094.70703125 -8330.2392578125 -13096.904296875 -8338.044921875 L -13097.0322265625 -8338.5 L -13096.76171875 -8338.8876953125 L -13081.5654296875 -8360.6640625 L -13081.0146484375 -8361.4521484375 L -13080.2060546875 -8360.93359375 C -13076.1943359375 -8358.3642578125 -13071.5908203125 -8357.005859375 -13066.89453125 -8357.005859375 C -13065.9501953125 -8357.005859375 -13064.9853515625 -8357.0634765625 -13064.0283203125 -8357.177734375 C -13055.6953125 -8358.16796875 -13049.2451171875 -8362.912109375 -13044.85546875 -8371.2783203125 C -13038.9560546875 -8382.5234375 -13036.859375 -8400.171875 -13038.6240234375 -8423.7333984375 L -13038.8505859375 -8426.7578125 L -13041.67578125 -8425.650390625 C -13042.736328125 -8425.234375 -13052.33984375 -8421.40234375 -13062.96484375 -8415.013671875 C -13069.1328125 -8411.3056640625 -13074.4150390625 -8407.466796875 -13078.6650390625 -8403.60546875 C -13083.896484375 -8398.8505859375 -13087.5693359375 -8394.05078125 -13089.5791015625 -8389.3388671875 C -13092.01953125 -8383.623046875 -13092.1123046875 -8377.94921875 -13089.85546875 -8372.474609375 C -13088.7099609375 -8369.6884765625 -13087.0810546875 -8367.15234375 -13085.0146484375 -8364.935546875 L -13084.4638671875 -8364.3447265625 L -13084.92578125 -8363.681640625 L -13097.4755859375 -8345.6923828125 L -13098.6435546875 -8344.0185546875 L -13099.2509765625 -8345.966796875 C -13104.4775390625 -8362.7451171875 -13111.392578125 -8379.74609375 -13119.8017578125 -8396.4970703125 L -13120.068359375 -8397.0283203125 L -13119.7294921875 -8397.5166015625 L -13111.4111328125 -8409.4755859375 L -13110.9150390625 -8410.1875 L -13110.1396484375 -8409.796875 C -13107.0185546875 -8408.224609375 -13103.5634765625 -8407.3935546875 -13100.1494140625 -8407.3935546875 C -13099.9228515625 -8407.3935546875 -13099.6767578125 -8407.3984375 -13099.3720703125 -8407.4091796875 C -13091.5244140625 -8407.689453125 -13085.2744140625 -8411.5498046875 -13080.7978515625 -8418.8837890625 C -13074.765625 -8428.765625 -13072.017578125 -8444.8271484375 -13072.6279296875 -8466.6240234375 L -13072.7119140625 -8469.6572265625 L -13075.5888671875 -8468.6826171875 C -13075.9765625 -8468.5517578125 -13085.19921875 -8465.4052734375 -13095.283203125 -8459.9609375 C -13101.015625 -8456.8662109375 -13105.9541015625 -8453.615234375 -13109.9619140625 -8450.298828125 C -13114.8916015625 -8446.2197265625 -13118.4150390625 -8442.0341796875 -13120.435546875 -8437.8564453125 C -13122.904296875 -8432.751953125 -13123.234375 -8427.5869140625 -13121.41796875 -8422.505859375 C -13120.17578125 -8419.017578125 -13118.046875 -8415.8388671875 -13115.2607421875 -8413.3134765625 L -13114.609375 -8412.72265625 L -13115.111328125 -8412.0009765625 L -13121.443359375 -8402.900390625 L -13122.3828125 -8401.55078125 L -13123.1494140625 -8403.005859375 C -13128.8447265625 -8413.8154296875 -13135.2177734375 -8424.625 -13142.091796875 -8435.1337890625 L -13142.6064453125 -8435.9208984375 L -13141.8525390625 -8436.4833984375 C -13139.60546875 -8438.1591796875 -13137.7001953125 -8440.2060546875 -13136.1904296875 -8442.5654296875 C -13134.64453125 -8444.982421875 -13133.583984375 -8447.619140625 -13133.0390625 -8450.4033203125 C -13132.005859375 -8455.7021484375 -13133.1025390625 -8460.7607421875 -13136.298828125 -8465.4375 C -13138.919921875 -8469.2666015625 -13143.02734375 -8472.880859375 -13148.509765625 -8476.1806640625 C -13152.966796875 -8478.8623046875 -13158.333984375 -8481.341796875 -13164.4638671875 -8483.5478515625 C -13174.970703125 -8487.330078125 -13184.220703125 -8489.056640625 -13185.2392578125 -8489.2412109375 L -13188.2275390625 -8489.7783203125 L -13187.861328125 -8486.7646484375 C -13185.3828125 -8466.46484375 -13180.7236328125 -8451.56640625 -13174.01171875 -8442.48046875 C -13168.890625 -8435.5498046875 -13162.5947265625 -8432.03515625 -13155.2998046875 -8432.03515625 C -13154.4033203125 -8432.03515625 -13153.4912109375 -8432.087890625 -13152.587890625 -8432.19140625 C -13150.7783203125 -8432.3974609375 -13148.99609375 -8432.833984375 -13147.291015625 -8433.48828125 L -13146.5380859375 -8433.77734375 L -13146.0966796875 -8433.103515625 C -13139.98828125 -8423.7880859375 -13134.2734375 -8414.228515625 -13129.1123046875 -8404.6904296875 L -13128.1708984375 -8402.94921875 L -13130.130859375 -8403.224609375 L -13142.232421875 -8404.9228515625 L -13143.1259765625 -8405.0478515625 L -13143.0927734375 -8405.9501953125 C -13142.9462890625 -8409.9228515625 -13143.828125 -8413.8603515625 -13145.642578125 -8417.3359375 C -13148.1435546875 -8422.1201171875 -13152.162109375 -8425.3837890625 -13157.5849609375 -8427.037109375 C -13160.3076171875 -8427.8671875 -13163.439453125 -8428.287109375 -13166.8935546875 -8428.287109375 C -13186.0576171875 -8428.287109375 -13209.66796875 -8415.5810546875 -13210.6630859375 -8415.0400390625 L -13213.333984375 -8413.58984375 L -13211.1640625 -8411.466796875 C -13201.365234375 -8401.8828125 -13192.248046875 -8394.75 -13184.064453125 -8390.267578125 C -13177.0361328125 -8386.4189453125 -13170.599609375 -8384.466796875 -13164.931640625 -8384.466796875 C -13158.9521484375 -8384.466796875 -13153.76953125 -8386.6318359375 -13149.5263671875 -8390.8994140625 C -13147.0830078125 -8393.361328125 -13145.2255859375 -8396.447265625 -13144.154296875 -8399.82421875 L -13143.8984375 -8400.62890625 L -13143.0625 -8400.51171875 L -13126.1220703125 -8398.1376953125 L -13125.6083984375 -8398.0654296875 L -13125.37109375 -8397.6044921875 C -13116.2939453125 -8379.9345703125 -13108.908203125 -8361.9990234375 -13103.419921875 -8344.2958984375 L -13102.9365234375 -8342.736328125 L -13104.544921875 -8343.0146484375 L -13120.8818359375 -8345.8369140625 L -13121.6904296875 -8345.9765625 L -13121.7119140625 -8346.7958984375 C -13121.7900390625 -8349.8154296875 -13122.40625 -8352.7607421875 -13123.54296875 -8355.5537109375 C -13125.7685546875 -8361.0341796875 -13129.8125 -8365.013671875 -13135.5634765625 -8367.3818359375 C -13139.708984375 -8369.08984375 -13144.82421875 -8369.9560546875 -13150.7666015625 -8369.9560546875 C -13155.341796875 -8369.9560546875 -13160.455078125 -8369.4423828125 -13165.96484375 -8368.4306640625 C -13170.421875 -8367.6123046875 -13175.1513671875 -8366.466796875 -13180.0224609375 -8365.0244140625 C -13188.44140625 -8362.5322265625 -13194.5126953125 -8359.978515625 -13195.1767578125 -8359.6953125 L -13197.9677734375 -8358.5029296875 L -13196.0068359375 -8356.1865234375 C -13185.548828125 -8343.8212890625 -13175.666015625 -8334.638671875 -13166.634765625 -8328.89453125 C -13159.0146484375 -8324.048828125 -13151.9169921875 -8321.591796875 -13145.5361328125 -8321.591796875 C -13140.2841796875 -8321.591796875 -13135.4716796875 -8323.255859375 -13131.234375 -8326.537109375 C -13126.7607421875 -8330.0009765625 -13123.59765625 -8334.9873046875 -13122.328125 -8340.576171875 L -13122.1171875 -8341.5009765625 L -13121.1826171875 -8341.33984375 L -13102.1484375 -8338.0537109375 L -13101.5283203125 -8337.9462890625 L -13101.3564453125 -8337.3408203125 C -13099.26171875 -8329.94921875 -13097.466796875 -8322.4677734375 -13096.0205078125 -8315.1064453125 L -13095.7861328125 -8313.9140625 L -13097.001953125 -8313.9140625 L -13130.322265625 -8313.9140625 L -13123.90234375 -8251.90234375 L -13123.8974609375 -8251.8515625 L -13123.8974609375 -8251.7998046875 L -13123.8974609375 -8250.1552734375 L -13123.8974609375 -8248.625 L -13071.419921875 -8248.625 M -13113.326171875 -8280.4140625 C -13111.287109375 -8280.4140625 -13110.3447265625 -8279.572265625 -13109.0400390625 -8278.408203125 L -13109.0224609375 -8278.392578125 L -13109.0185546875 -8278.3896484375 L -13109.0185546875 -8278.388671875 C -13107.4423828125 -8276.98046875 -13105.4794921875 -8275.2265625 -13101.724609375 -8275.2265625 C -13097.966796875 -8275.2265625 -13096.01171875 -8276.9814453125 -13094.4404296875 -8278.390625 L -13094.4365234375 -8278.39453125 L -13094.435546875 -8278.3955078125 C -13093.07421875 -8279.611328125 -13092.1748046875 -8280.4140625 -13090.13671875 -8280.4140625 C -13088.1015625 -8280.4140625 -13087.2041015625 -8279.611328125 -13085.8408203125 -8278.3935546875 C -13084.267578125 -8276.982421875 -13082.3095703125 -8275.2265625 -13078.5595703125 -8275.2265625 C -13074.810546875 -8275.2265625 -13072.8505859375 -8276.98046875 -13071.275390625 -8278.3896484375 L -13071.26953125 -8278.39453125 L -13071.15625 -8278.49609375 C -13070.97265625 -8278.6611328125 -13070.798828125 -8278.8173828125 -13070.6279296875 -8278.9638671875 L -13068.333984375 -8280.9384765625 L -13069 -8277.986328125 L -13074.7587890625 -8252.4697265625 L -13074.9345703125 -8251.689453125 L -13075.734375 -8251.689453125 L -13118.47265625 -8251.689453125 L -13119.3740234375 -8251.689453125 L -13119.4677734375 -8252.5869140625 L -13121.7802734375 -8274.919921875 L -13121.8564453125 -8275.65625 L -13121.173828125 -8275.9443359375 C -13119.654296875 -8276.583984375 -13118.5830078125 -8277.541015625 -13117.638671875 -8278.384765625 L -13117.6298828125 -8278.3935546875 L -13117.607421875 -8278.4130859375 C -13116.302734375 -8279.5751953125 -13115.359375 -8280.4140625 -13113.326171875 -8280.4140625 M -13090.13671875 -8284.89453125 C -13093.8974609375 -8284.89453125 -13095.8515625 -8283.142578125 -13097.421875 -8281.734375 L -13097.42578125 -8281.73046875 L -13097.4267578125 -8281.7294921875 C -13098.7900390625 -8280.513671875 -13099.6904296875 -8279.7109375 -13101.724609375 -8279.7109375 C -13103.771484375 -8279.7109375 -13104.720703125 -8280.5595703125 -13106.033203125 -8281.7333984375 C -13107.607421875 -8283.1416015625 -13109.56640625 -8284.89453125 -13113.326171875 -8284.89453125 C -13117.083984375 -8284.89453125 -13119.0419921875 -8283.1416015625 -13120.615234375 -8281.7333984375 L -13120.619140625 -8281.7294921875 L -13120.623046875 -8281.7265625 C -13120.7060546875 -8281.6533203125 -13120.7880859375 -8281.580078125 -13120.865234375 -8281.5107421875 L -13122.3271484375 -8280.19140625 L -13122.5302734375 -8282.1494140625 L -13125.2431640625 -8308.326171875 L -13125.357421875 -8309.4296875 L -13124.248046875 -8309.4296875 L -13063.154296875 -8309.4296875 L -13061.9033203125 -8309.4296875 L -13062.1787109375 -8308.2099609375 L -13067.279296875 -8285.6083984375 L -13067.4365234375 -8284.91015625 L -13068.1484375 -8284.833984375 C -13071.1630859375 -8284.51171875 -13072.8818359375 -8282.9716796875 -13074.2626953125 -8281.734375 C -13075.6181640625 -8280.515625 -13076.5146484375 -8279.7109375 -13078.5595703125 -8279.7109375 C -13080.595703125 -8279.7109375 -13081.4931640625 -8280.515625 -13082.8515625 -8281.7333984375 C -13084.4248046875 -8283.1416015625 -13086.3828125 -8284.89453125 -13090.13671875 -8284.89453125 M -13187.0205078125 -8352.7099609375 L -13184.056640625 -8352.1982421875 L -13127.63671875 -8342.455078125 L -13126.5791015625 -8342.2724609375 L -13126.8359375 -8341.23046875 C -13127.9404296875 -8336.7490234375 -13130.4775390625 -8332.7890625 -13133.9794921875 -8330.0791015625 C -13137.3115234375 -8327.5009765625 -13141.17578125 -8326.1943359375 -13145.46875 -8326.1943359375 C -13150.8955078125 -8326.1943359375 -13157.0263671875 -8328.2861328125 -13163.69140625 -8332.4111328125 C -13170.2880859375 -8336.4951171875 -13177.4423828125 -8342.58984375 -13184.953125 -8350.525390625 L -13187.0205078125 -8352.7099609375 M -13150.7529296875 -8365.5087890625 C -13145.462890625 -8365.5087890625 -13140.9248046875 -8364.744140625 -13137.2626953125 -8363.2353515625 C -13132.6083984375 -8361.3212890625 -13129.478515625 -8358.255859375 -13127.6923828125 -8353.8642578125 C -13126.9462890625 -8352.0234375 -13126.4775390625 -8350.06640625 -13126.2998046875 -8348.0478515625 L -13126.185546875 -8346.75390625 L -13127.4658203125 -8346.974609375 L -13184.6455078125 -8356.84765625 L -13184.7958984375 -8358.7802734375 C -13175.7333984375 -8361.849609375 -13162.470703125 -8365.5087890625 -13150.7529296875 -8365.5087890625 M -13042.6552734375 -8416.4287109375 L -13042.5732421875 -8413.392578125 C -13042.1513671875 -8397.74609375 -13043.783203125 -8385.3642578125 -13047.421875 -8376.5908203125 C -13049.2587890625 -8372.162109375 -13051.6240234375 -8368.650390625 -13054.451171875 -8366.1533203125 C -13057.33984375 -8363.6025390625 -13060.740234375 -8362.0791015625 -13064.5615234375 -8361.6259765625 C -13065.2900390625 -8361.5419921875 -13066.0322265625 -8361.4990234375 -13066.76953125 -8361.4990234375 C -13070.5205078125 -8361.4990234375 -13074.23828125 -8362.5751953125 -13077.5234375 -8364.611328125 L -13078.421875 -8365.1669921875 L -13077.8173828125 -8366.033203125 L -13044.3935546875 -8413.9375 L -13042.6552734375 -8416.4287109375 M -13050.056640625 -8416.9306640625 L -13048.7919921875 -8415.462890625 L -13081.0849609375 -8369.18359375 L -13081.8408203125 -8368.1005859375 L -13082.6787109375 -8369.1220703125 C -13083.947265625 -8370.669921875 -13084.9677734375 -8372.3720703125 -13085.7119140625 -8374.1806640625 C -13087.517578125 -8378.5625 -13087.43359375 -8382.9462890625 -13085.455078125 -8387.580078125 C -13083.0234375 -8393.283203125 -13077.8193359375 -8399.1328125 -13069.98828125 -8404.96484375 C -13063.078125 -8410.111328125 -13055.3349609375 -8414.3125 -13050.056640625 -8416.9306640625 M -13201.7333984375 -8408.7275390625 L -13198.345703125 -8408.2529296875 L -13149.599609375 -8401.427734375 L -13148.3466796875 -8401.251953125 L -13148.806640625 -8400.0732421875 C -13149.7001953125 -8397.787109375 -13151.0126953125 -8395.763671875 -13152.7060546875 -8394.0576171875 C -13155.982421875 -8390.759765625 -13160.107421875 -8389.0869140625 -13164.966796875 -8389.087890625 C -13169.5341796875 -8389.087890625 -13174.767578125 -8390.580078125 -13180.5185546875 -8393.5234375 C -13186.2158203125 -8396.439453125 -13192.4794921875 -8400.8056640625 -13199.134765625 -8406.5029296875 L -13201.7333984375 -8408.7275390625 M -13167.0078125 -8423.8369140625 C -13163.9931640625 -8423.8369140625 -13161.259765625 -8423.4697265625 -13158.8818359375 -8422.7451171875 C -13154.5986328125 -8421.439453125 -13151.56640625 -8418.990234375 -13149.6142578125 -8415.2568359375 C -13148.265625 -8412.6748046875 -13147.55078125 -8409.755859375 -13147.5478515625 -8406.8154296875 L -13147.546875 -8405.6640625 L -13148.6865234375 -8405.82421875 L -13200.251953125 -8413.0478515625 L -13203.720703125 -8413.5341796875 L -13200.5185546875 -8414.9521484375 C -13195.0966796875 -8417.3544921875 -13189.8447265625 -8419.3173828125 -13184.908203125 -8420.787109375 C -13178.1142578125 -8422.810546875 -13172.091796875 -8423.8369140625 -13167.0078125 -8423.8369140625 M -13077.0078125 -8458.9208984375 L -13077.111328125 -8455.552734375 C -13077.5361328125 -8441.859375 -13079.630859375 -8431.1669921875 -13083.3369140625 -8423.771484375 C -13085.2158203125 -8420.0234375 -13087.5234375 -8417.1162109375 -13090.1982421875 -8415.1318359375 C -13092.9306640625 -8413.1025390625 -13096.072265625 -8412.01171875 -13099.5341796875 -8411.888671875 C -13099.736328125 -8411.880859375 -13099.94140625 -8411.8779296875 -13100.1435546875 -8411.8779296875 C -13102.5771484375 -8411.8779296875 -13104.96484375 -8412.3818359375 -13107.2431640625 -8413.3779296875 L -13108.359375 -8413.865234375 L -13107.6640625 -8414.865234375 L -13078.9326171875 -8456.1552734375 L -13077.0078125 -8458.9208984375 M -13080.22265625 -8462.146484375 L -13082.2548828125 -8459.224609375 L -13111.3740234375 -8417.3740234375 L -13112.056640625 -8416.3935546875 L -13112.9013671875 -8417.2373046875 C -13114.814453125 -8419.1474609375 -13116.30078125 -8421.4892578125 -13117.19921875 -8424.009765625 C -13118.615234375 -8427.974609375 -13118.35546875 -8431.865234375 -13116.4052734375 -8435.90234375 C -13113.98828125 -8440.896484375 -13109.0869140625 -8445.91015625 -13101.8388671875 -8450.8046875 C -13096.7021484375 -8454.2724609375 -13090.525390625 -8457.60546875 -13083.4794921875 -8460.7109375 L -13080.22265625 -8462.146484375 M -13182.4833984375 -8480.4033203125 L -13180.1279296875 -8477.767578125 C -13175.908203125 -8473.044921875 -13171.5498046875 -8467.849609375 -13167.173828125 -8462.3251953125 C -13161.189453125 -8454.76953125 -13155.3564453125 -8446.8212890625 -13149.8369140625 -8438.7021484375 L -13149.056640625 -8437.5537109375 L -13150.392578125 -8437.1767578125 C -13151.2744140625 -8436.9287109375 -13152.1845703125 -8436.75 -13153.09765625 -8436.6455078125 C -13153.7705078125 -8436.568359375 -13154.443359375 -8436.5302734375 -13155.1025390625 -8436.5302734375 C -13158.318359375 -8436.5302734375 -13161.3662109375 -8437.4482421875 -13164.16015625 -8439.2578125 C -13166.8916015625 -8441.025390625 -13169.4150390625 -8443.6728515625 -13171.66015625 -8447.1259765625 C -13176.1005859375 -8453.9541015625 -13179.5322265625 -8463.9794921875 -13181.8583984375 -8476.9248046875 L -13182.4833984375 -8480.4033203125 M -13179.0751953125 -8483.314453125 L -13175.8056640625 -8482.4140625 C -13168.4326171875 -8480.384765625 -13161.8876953125 -8478.0068359375 -13156.353515625 -8475.3466796875 C -13148.595703125 -8471.6171875 -13143.091796875 -8467.4306640625 -13139.9951171875 -8462.9013671875 C -13137.466796875 -8459.203125 -13136.630859375 -8455.3974609375 -13137.4375 -8451.2666015625 C -13138.287109375 -8446.92578125 -13140.69921875 -8443.02734375 -13144.2294921875 -8440.2880859375 L -13145.0732421875 -8439.6337890625 L -13145.6708984375 -8440.517578125 C -13151.3330078125 -8448.8837890625 -13157.326171875 -8457.076171875 -13163.4853515625 -8464.8671875 C -13167.978515625 -8470.5517578125 -13172.46484375 -8475.9072265625 -13176.8173828125 -8480.7841796875 L -13179.0751953125 -8483.314453125 M -13070.419921875 -8247.625 L -13124.8974609375 -8247.625 L -13124.8974609375 -8250.1552734375 L -13124.8974609375 -8251.7998046875 L -13131.431640625 -8314.9140625 L -13097.001953125 -8314.9140625 C -13098.484375 -8322.4619140625 -13100.275390625 -8329.8583984375 -13102.318359375 -8337.068359375 L -13121.3525390625 -8340.3544921875 C -13122.642578125 -8334.6767578125 -13125.826171875 -8329.4599609375 -13130.6220703125 -8325.74609375 C -13134.4560546875 -8322.77734375 -13139.3740234375 -8320.591796875 -13145.5361328125 -8320.591796875 C -13157.505859375 -8320.591796875 -13174.181640625 -8328.8330078125 -13196.7705078125 -8355.541015625 L -13199.60546875 -8358.890625 L -13195.5693359375 -8360.615234375 C -13194.330078125 -8361.1435546875 -13171.0400390625 -8370.9560546875 -13150.7666015625 -8370.9560546875 C -13145.1650390625 -8370.9560546875 -13139.7958984375 -8370.20703125 -13135.1826171875 -8368.306640625 C -13129.1728515625 -8365.83203125 -13124.947265625 -8361.669921875 -13122.6162109375 -8355.9296875 C -13121.412109375 -8352.970703125 -13120.7919921875 -8349.88671875 -13120.7119140625 -8346.822265625 L -13104.375 -8344 C -13110.3349609375 -8363.22265625 -13118.005859375 -8381.078125 -13126.2607421875 -8397.1474609375 L -13143.201171875 -8399.521484375 C -13144.2998046875 -8396.0595703125 -13146.1865234375 -8392.845703125 -13148.81640625 -8390.1953125 C -13152.583984375 -8386.4052734375 -13157.80078125 -8383.466796875 -13164.931640625 -8383.466796875 C -13175.7001953125 -8383.466796875 -13190.8203125 -8390.1689453125 -13211.86328125 -8410.751953125 L -13215.0009765625 -8413.822265625 L -13211.140625 -8415.9189453125 C -13209.9775390625 -8416.55078125 -13186.2724609375 -8429.287109375 -13166.8935546875 -8429.287109375 C -13163.5146484375 -8429.287109375 -13160.2685546875 -8428.900390625 -13157.2939453125 -8427.994140625 C -13151.60546875 -8426.259765625 -13147.38671875 -8422.830078125 -13144.7568359375 -8417.798828125 C -13142.810546875 -8414.0712890625 -13141.9443359375 -8409.9619140625 -13142.09375 -8405.9130859375 L -13129.9921875 -8404.21484375 C -13135.560546875 -8414.505859375 -13141.3212890625 -8423.998046875 -13146.9326171875 -8432.5546875 C -13148.697265625 -8431.8779296875 -13150.5546875 -8431.4169921875 -13152.474609375 -8431.1982421875 C -13153.3994140625 -8431.091796875 -13154.3447265625 -8431.03515625 -13155.2998046875 -8431.03515625 C -13168.1220703125 -8431.03515625 -13183.3349609375 -8441.4365234375 -13188.853515625 -8486.6435546875 L -13189.3837890625 -8491.001953125 L -13185.0625 -8490.2255859375 C -13183.5234375 -8489.947265625 -13147.2978515625 -8483.2802734375 -13135.4736328125 -8466.001953125 C -13132.1181640625 -8461.0927734375 -13130.970703125 -8455.783203125 -13132.0576171875 -8450.2119140625 C -13133.2158203125 -8444.2919921875 -13136.6083984375 -8439.1474609375 -13141.2548828125 -8435.681640625 C -13134.9462890625 -8426.037109375 -13128.4658203125 -8415.2421875 -13122.2646484375 -8403.4716796875 L -13115.9326171875 -8412.572265625 C -13118.775390625 -8415.1494140625 -13121.0244140625 -8418.4189453125 -13122.3603515625 -8422.169921875 C -13124.2705078125 -8427.513671875 -13123.92578125 -8432.935546875 -13121.3359375 -8438.2919921875 C -13112.21875 -8457.1396484375 -13077.388671875 -8469.12890625 -13075.9091796875 -8469.6298828125 L -13071.75 -8471.0390625 L -13071.6279296875 -8466.6513671875 C -13070.2578125 -8417.7265625 -13085.9384765625 -8406.8876953125 -13099.3369140625 -8406.41015625 C -13099.609375 -8406.400390625 -13099.8779296875 -8406.3935546875 -13100.1494140625 -8406.3935546875 C -13103.8212890625 -8406.3935546875 -13107.3896484375 -8407.2919921875 -13110.58984375 -8408.904296875 L -13118.908203125 -8396.9453125 C -13111.150390625 -8381.4931640625 -13103.9736328125 -8364.4892578125 -13098.2958984375 -8346.2646484375 L -13085.74609375 -8364.25390625 C -13087.8388671875 -8366.4990234375 -13089.5634765625 -8369.1357421875 -13090.7802734375 -8372.09375 C -13093.1416015625 -8377.8212890625 -13093.048828125 -8383.7587890625 -13090.4990234375 -8389.7314453125 C -13081.4541015625 -8410.93359375 -13043.646484375 -8425.951171875 -13042.041015625 -8426.5810546875 L -13037.955078125 -8428.18359375 L -13037.626953125 -8423.80859375 C -13033.669921875 -8370.9697265625 -13049.73828125 -8357.869140625 -13063.91015625 -8356.1845703125 C -13064.9111328125 -8356.0654296875 -13065.9033203125 -8356.005859375 -13066.89453125 -8356.005859375 C -13071.86328125 -8356.005859375 -13076.6591796875 -8357.474609375 -13080.7451171875 -8360.091796875 L -13095.94140625 -8338.3154296875 C -13093.798828125 -8330.7041015625 -13091.927734375 -8322.896484375 -13090.40234375 -8314.9140625 L -13055.044921875 -8314.9140625 L -13070.205078125 -8247.7373046875 L -13070.419921875 -8247.7861328125 L -13070.419921875 -8247.625 Z M -13113.326171875 -8279.4140625 C -13114.98828125 -8279.4140625 -13115.6875 -8278.783203125 -13116.96484375 -8277.646484375 C -13117.9296875 -8276.7841796875 -13119.107421875 -8275.7294921875 -13120.78515625 -8275.0224609375 L -13118.47265625 -8252.689453125 L -13075.734375 -8252.689453125 L -13069.9755859375 -8278.2060546875 C -13070.171875 -8278.037109375 -13070.376953125 -8277.8515625 -13070.6025390625 -8277.6494140625 C -13072.21484375 -8276.20703125 -13074.423828125 -8274.2265625 -13078.5595703125 -8274.2265625 C -13082.69140625 -8274.2265625 -13084.900390625 -8276.20703125 -13086.5087890625 -8277.6494140625 C -13087.822265625 -8278.8232421875 -13088.482421875 -8279.4140625 -13090.13671875 -8279.4140625 C -13091.794921875 -8279.4140625 -13092.455078125 -8278.8232421875 -13093.7724609375 -8277.646484375 C -13095.380859375 -8276.203125 -13097.5927734375 -8274.2265625 -13101.724609375 -8274.2265625 C -13105.8642578125 -8274.2265625 -13108.0732421875 -8276.203125 -13109.6884765625 -8277.646484375 C -13110.9619140625 -8278.783203125 -13111.6611328125 -8279.4140625 -13113.326171875 -8279.4140625 Z M -13090.13671875 -8285.89453125 C -13086.0048828125 -8285.89453125 -13083.7958984375 -8283.9208984375 -13082.1845703125 -8282.478515625 C -13080.87109375 -8281.30078125 -13080.2109375 -8280.7109375 -13078.5595703125 -8280.7109375 C -13076.900390625 -8280.7109375 -13076.2412109375 -8281.30078125 -13074.9306640625 -8282.478515625 C -13073.4951171875 -8283.7646484375 -13071.5810546875 -8285.47265625 -13068.2548828125 -8285.828125 L -13063.154296875 -8308.4296875 L -13124.248046875 -8308.4296875 L -13121.53515625 -8282.2529296875 C -13121.455078125 -8282.3251953125 -13121.369140625 -8282.40234375 -13121.2822265625 -8282.478515625 C -13119.6708984375 -8283.9208984375 -13117.46484375 -8285.89453125 -13113.326171875 -8285.89453125 C -13109.1875 -8285.89453125 -13106.978515625 -8283.9208984375 -13105.3662109375 -8282.478515625 C -13104.08984375 -8281.3369140625 -13103.3896484375 -8280.7109375 -13101.724609375 -8280.7109375 C -13100.0703125 -8280.7109375 -13099.41015625 -8281.30078125 -13098.08984375 -8282.478515625 C -13096.4814453125 -8283.9208984375 -13094.2724609375 -8285.89453125 -13090.13671875 -8285.89453125 Z M -13184.2265625 -8351.212890625 C -13169.23046875 -8335.3671875 -13155.9765625 -8327.1953125 -13145.46875 -8327.1943359375 C -13141.4150390625 -8327.193359375 -13137.771484375 -8328.4091796875 -13134.591796875 -8330.8701171875 C -13131.1591796875 -8333.5263671875 -13128.828125 -8337.3271484375 -13127.806640625 -8341.4697265625 L -13184.2265625 -8351.212890625 Z M -13150.7529296875 -8364.5087890625 C -13162.5400390625 -8364.5087890625 -13175.9755859375 -8360.7119140625 -13184.4755859375 -8357.8330078125 L -13127.2958984375 -8347.9599609375 C -13127.4609375 -8349.8369140625 -13127.8955078125 -8351.7041015625 -13128.619140625 -8353.48828125 C -13130.296875 -8357.6142578125 -13133.2490234375 -8360.5029296875 -13137.6435546875 -8362.310546875 C -13141.4501953125 -8363.87890625 -13145.9638671875 -8364.5087890625 -13150.7529296875 -8364.5087890625 Z M -13043.5732421875 -8413.365234375 L -13076.9970703125 -8365.4609375 C -13073.9443359375 -8363.5693359375 -13070.3955078125 -8362.4990234375 -13066.76953125 -8362.4990234375 C -13066.0732421875 -8362.4990234375 -13065.375 -8362.5380859375 -13064.67578125 -8362.619140625 C -13050.103515625 -8364.349609375 -13042.734375 -8382.2529296875 -13043.5732421875 -8413.365234375 Z M -13049.6123046875 -8416.03515625 C -13061.1279296875 -8410.3232421875 -13079.19921875 -8399.7041015625 -13084.53515625 -8387.1875 C -13086.40234375 -8382.8134765625 -13086.4853515625 -8378.68359375 -13084.787109375 -8374.5615234375 C -13084.064453125 -8372.8037109375 -13083.0830078125 -8371.1923828125 -13081.9052734375 -8369.755859375 L -13049.6123046875 -8416.03515625 Z M -13198.484375 -8407.2626953125 C -13185.208984375 -8395.8984375 -13173.8095703125 -8390.087890625 -13164.966796875 -8390.087890625 C -13160.404296875 -8390.0869140625 -13156.5234375 -8391.6337890625 -13153.416015625 -8394.7626953125 C -13151.7880859375 -8396.4013671875 -13150.5576171875 -8398.3408203125 -13149.73828125 -8400.4375 L -13198.484375 -8407.2626953125 Z M -13167.0078125 -8422.8369140625 C -13178.2177734375 -8422.8369140625 -13191.7353515625 -8417.7490234375 -13200.11328125 -8414.0380859375 L -13148.5478515625 -8406.814453125 C -13148.55078125 -8409.541015625 -13149.19140625 -8412.287109375 -13150.5009765625 -8414.7939453125 C -13152.322265625 -8418.2763671875 -13155.1611328125 -8420.5654296875 -13159.173828125 -8421.7890625 C -13161.568359375 -8422.5185546875 -13164.21484375 -8422.8369140625 -13167.0078125 -8422.8369140625 Z M -13078.111328125 -8455.583984375 L -13106.8427734375 -8414.2939453125 C -13104.751953125 -8413.380859375 -13102.4775390625 -8412.8779296875 -13100.1435546875 -8412.8779296875 C -13099.953125 -8412.8779296875 -13099.76171875 -8412.880859375 -13099.5693359375 -8412.8876953125 C -13086.435546875 -8413.35546875 -13078.9541015625 -8428.4052734375 -13078.111328125 -8455.583984375 Z M -13083.076171875 -8459.7958984375 C -13093.662109375 -8455.1298828125 -13110.2216796875 -8446.384765625 -13115.5048828125 -8435.466796875 C -13117.3330078125 -8431.6826171875 -13117.578125 -8428.0439453125 -13116.2578125 -8424.345703125 C -13115.3828125 -8421.8916015625 -13113.97265625 -8419.7197265625 -13112.1953125 -8417.9453125 L -13083.076171875 -8459.7958984375 Z M -13180.8740234375 -8477.1015625 C -13176.251953125 -8451.380859375 -13167.28125 -8437.53125 -13155.1015625 -8437.5302734375 C -13154.4794921875 -8437.5302734375 -13153.8505859375 -8437.56640625 -13153.2109375 -8437.638671875 C -13152.341796875 -8437.73828125 -13151.4892578125 -8437.9072265625 -13150.6640625 -8438.1396484375 C -13163.041015625 -8456.34765625 -13174.333984375 -8469.7822265625 -13180.8740234375 -8477.1015625 Z M -13176.0712890625 -8481.4501953125 C -13169.29296875 -8473.85546875 -13157.60546875 -8459.935546875 -13144.8427734375 -8441.078125 C -13141.6025390625 -8443.591796875 -13139.2412109375 -8447.2568359375 -13138.4189453125 -8451.458984375 C -13137.666015625 -8455.3125 -13138.44921875 -8458.8681640625 -13140.8203125 -8462.3369140625 C -13147.5791015625 -8472.2197265625 -13164.888671875 -8478.3720703125 -13176.0712890625 -8481.4501953125 Z"/></g><g transform="translate(-201.819 936.008)"><g transform="translate(403.858 295.992)"><rect class="k" width="126.514" height="172.195" transform="translate(1.715 1.715)"/><path class="l" d="M533.8,471.617H403.858V295.992H533.8Zm-126.514-3.431H530.372V299.423H407.289Z" transform="translate(-403.858 -295.992)"/><g transform="translate(22.415 24.363)"><rect class="k" width="81.396" height="123.741" transform="translate(1.715 1.716)"/><path class="l" d="M501.751,437.368H416.925V310.2h84.826Zm-81.4-3.431H498.32V313.626H420.356Z" transform="translate(-416.925 -310.195)"/></g></g><g transform="translate(561.086 386.134)"><rect class="k" width="93.334" height="127.035" transform="translate(1.715 1.715)"/><path class="l" d="M592.282,479.007H495.517V348.542h96.765Zm-93.334-3.431h89.9v-123.6h-89.9Z" transform="translate(-495.517 -348.542)"/><g transform="translate(16.536 17.973)"><rect class="k" width="60.049" height="91.289" transform="translate(1.716 1.715)"/><path class="l" d="M568.637,453.74h-63.48V359.02h63.48Zm-60.049-3.431h56.619V362.451H508.588Z" transform="translate(-505.157 -359.02)"/></g></g></g></g></svg>