<svg xmlns="http://www.w3.org/2000/svg" width="59.116" height="60.756" viewBox="0 0 59.116 60.756"><defs><style>.a,.b{fill:none;stroke-linecap:round;}.a{stroke:#00adee;}.a,.b,.c{stroke-linejoin:round;stroke-width:2px;}.b,.c{stroke:#0855c4;}.c{fill:#fff;}</style></defs><g transform="translate(-168.453 -166.62)"><g transform="translate(169.453 167.645)"><g transform="translate(0)"><g transform="translate(0)"><g transform="translate(12.251 0.362)"><path class="a" d="M9.743,51.078l3.869-5.158V43.2l1.361-1.361,1.361-2.722L17.7,37.753l1.361-2.722V33.669L17.7,32.308l-2.722-1.361-2.722-4.084L8.167,25.5H4.084L0,21.419V20.055l4.084-1.361,2.722-2.721,2.722-4.084,1.361-1.361V7.805L6.806,6.444V3.722L9.289,0"/></g><g transform="translate(2.931 13.891)"><path class="a" d="M0,0,3.875,5.164l1.361,5.448L9.32,13.334v4.084l1.361,1.361V21.5l4.084,4.084,1.361,4.084v7.261"/></g><g transform="translate(35.391 2.46)"><path class="a" d="M1.493,0,0,2.985V4.346L2.722,5.708,4.084,7.069V9.791L2.722,12.514v1.361H5.445l1.361,1.36L5.445,17.957,4.084,19.321V23.4l2.722,1.361,1.361,1.361H9.528l1.361,1.361L9.528,31.572v2.722l2.351,3.526"/></g><g transform="translate(43.564 9.893)"><path class="a" d="M1.571,0,0,4.714,1.361,6.075H5"/></g><path class="b" d="M51.726,25.864A25.863,25.863,0,1,1,25.863,0,25.859,25.859,0,0,1,51.726,25.864Z"/></g></g><path class="c" d="M235.076,190.816,215.457,173.9a1.01,1.01,0,0,0-1.725.713l-.415,25.672a1.01,1.01,0,0,0,1.632.8l5.128-4.009,2.838,5.567a1.01,1.01,0,0,0,1.335.4l6.059-3.03a1.01,1.01,0,0,0,.45-1.355l-.02-.038-2.576-5.095,6.2-.985a1.01,1.01,0,0,0,.715-1.725Z" transform="translate(-178.256 -144.5)"/></g></g></svg>