<svg xmlns="http://www.w3.org/2000/svg" width="69" height="69" viewBox="0 0 69 69"><defs><style>.a{fill:#fff;}.b{fill:#08c4c4;}.c{fill:#0ac4c4;}.d{fill:#78d8d8;}</style></defs><g transform="translate(-1522 -151)"><circle class="a" cx="34.5" cy="34.5" r="34.5" transform="translate(1522 151)"/><g transform="translate(1532.982 161.981)"><g transform="translate(0 0)"><path class="b" d="M542.695-122.088a1.819,1.819,0,0,0,.392-1.132,1.83,1.83,0,0,0-1.83-1.83,1.83,1.83,0,0,0-1.83,1.83,1.826,1.826,0,0,0,.147.718.084.084,0,0,0,.005.012,1.822,1.822,0,0,0,.233.391,6.97,6.97,0,0,1,.649,5.832h1.589A6.966,6.966,0,0,1,542.695-122.088Z" transform="translate(-517.758 125.05)"/><path class="b" d="M526.586-115.766a1.4,1.4,0,0,0-.056-.922,1.41,1.41,0,0,0-1.845-.759,1.41,1.41,0,0,0-.759,1.844,1.4,1.4,0,0,0,.317.468l.008.007a1.4,1.4,0,0,0,.282.21,5.374,5.374,0,0,1,2.191,3.957l1.131-.471A5.371,5.371,0,0,1,526.586-115.766Z" transform="translate(-509.882 121.269)"/><path class="b" d="M505.05-94.338a1.4,1.4,0,0,0-.692-.612,1.411,1.411,0,0,0-1.842.767,1.411,1.411,0,0,0,.768,1.842,1.408,1.408,0,0,0,.555.107h.01a1.407,1.407,0,0,0,.347-.051,5.372,5.372,0,0,1,4.348,1.248l.466-1.133A5.37,5.37,0,0,1,505.05-94.338Z" transform="translate(-499.081 109.916)"/><path class="b" d="M504.974-65.2a1.4,1.4,0,0,0-.922.056,1.411,1.411,0,0,0-.76,1.845,1.411,1.411,0,0,0,1.845.76,1.416,1.416,0,0,0,.468-.318l.007-.007a1.428,1.428,0,0,0,.21-.282,5.371,5.371,0,0,1,3.957-2.191l-.471-1.131A5.369,5.369,0,0,1,504.974-65.2Z" transform="translate(-499.471 95.49)"/><path class="b" d="M526.4-46.27a1.406,1.406,0,0,0-.612.692,1.411,1.411,0,0,0,.767,1.842A1.41,1.41,0,0,0,528.4-44.5a1.407,1.407,0,0,0,.107-.555.046.046,0,0,0,0-.01,1.407,1.407,0,0,0-.051-.347,5.371,5.371,0,0,1,1.248-4.347l-1.133-.467A5.37,5.37,0,0,1,526.4-46.27Z" transform="translate(-510.824 87.3)"/><path class="b" d="M555.545-46.189a1.4,1.4,0,0,0,.056.922,1.411,1.411,0,0,0,1.845.76,1.411,1.411,0,0,0,.76-1.845,1.408,1.408,0,0,0-.318-.468l-.007-.007a1.427,1.427,0,0,0-.282-.21,5.371,5.371,0,0,1-2.191-3.957l-1.131.471A5.37,5.37,0,0,1,555.545-46.189Z" transform="translate(-525.251 87.684)"/><path class="b" d="M574.47-64.993a1.4,1.4,0,0,0,.692.612A1.411,1.411,0,0,0,577-65.149a1.411,1.411,0,0,0-.767-1.842,1.406,1.406,0,0,0-.555-.107h-.01a1.412,1.412,0,0,0-.347.051,5.372,5.372,0,0,1-4.347-1.248l-.466,1.133A5.37,5.37,0,0,1,574.47-64.993Z" transform="translate(-533.441 96.413)"/><path class="b" d="M574.551-94.154a1.406,1.406,0,0,0,.922-.056,1.411,1.411,0,0,0,.759-1.845,1.411,1.411,0,0,0-1.845-.76,1.4,1.4,0,0,0-.468.317l-.007.008a1.4,1.4,0,0,0-.21.282,5.373,5.373,0,0,1-3.957,2.191l.471,1.131A5.371,5.371,0,0,1,574.551-94.154Z" transform="translate(-533.056 110.859)"/><path class="b" d="M555.747-115.69a1.4,1.4,0,0,0,.612-.692,1.411,1.411,0,0,0-.767-1.842,1.411,1.411,0,0,0-1.841.767,1.407,1.407,0,0,0-.107.555s0,.006,0,.01a1.407,1.407,0,0,0,.051.347,5.372,5.372,0,0,1-1.249,4.348l1.133.466A5.371,5.371,0,0,1,555.747-115.69Z" transform="translate(-524.327 121.659)"/><path class="b" d="M512.147-110.626a1.822,1.822,0,0,0-.523-1.078,1.83,1.83,0,0,0-2.588,0,1.83,1.83,0,0,0,0,2.588,1.833,1.833,0,0,0,.612.4l.013,0a1.835,1.835,0,0,0,.441.112,6.969,6.969,0,0,1,4.583,3.664l1.124-1.124A6.966,6.966,0,0,1,512.147-110.626Z" transform="translate(-502.154 118.587)"/><path class="b" d="M498.652-80.921a1.822,1.822,0,0,0-1.132-.392,1.83,1.83,0,0,0-1.83,1.83,1.83,1.83,0,0,0,1.83,1.83,1.825,1.825,0,0,0,.718-.147l.012-.005a1.856,1.856,0,0,0,.392-.233,6.968,6.968,0,0,1,5.832-.65v-1.589A6.966,6.966,0,0,1,498.652-80.921Z" transform="translate(-495.69 102.982)"/><path class="b" d="M510.114-54.088a1.822,1.822,0,0,0-1.078.523,1.831,1.831,0,0,0,0,2.588,1.83,1.83,0,0,0,2.588,0,1.827,1.827,0,0,0,.4-.612.094.094,0,0,0,0-.012,1.838,1.838,0,0,0,.112-.442,6.969,6.969,0,0,1,3.665-4.583l-1.124-1.124A6.968,6.968,0,0,1,510.114-54.088Z" transform="translate(-502.154 91.093)"/><path class="b" d="M539.819-42.1a1.824,1.824,0,0,0-.392,1.132,1.83,1.83,0,0,0,1.83,1.83,1.83,1.83,0,0,0,1.83-1.83,1.816,1.816,0,0,0-.147-.718.084.084,0,0,0-.005-.012,1.818,1.818,0,0,0-.233-.391,6.969,6.969,0,0,1-.65-5.832h-1.589A6.968,6.968,0,0,1,539.819-42.1Z" transform="translate(-517.758 86.132)"/><path class="b" d="M566.652-52.056a1.821,1.821,0,0,0,.523,1.078,1.83,1.83,0,0,0,2.588,0,1.83,1.83,0,0,0,0-2.588,1.819,1.819,0,0,0-.612-.4l-.012,0a1.836,1.836,0,0,0-.442-.112,6.971,6.971,0,0,1-4.583-3.665l-1.124,1.124A6.966,6.966,0,0,1,566.652-52.056Z" transform="translate(-529.647 91.094)"/><path class="b" d="M578.644-78.045a1.821,1.821,0,0,0,1.132.392,1.83,1.83,0,0,0,1.831-1.83,1.83,1.83,0,0,0-1.831-1.83,1.827,1.827,0,0,0-.718.147l-.012.005a1.823,1.823,0,0,0-.391.233,6.97,6.97,0,0,1-5.832.649v1.589A6.967,6.967,0,0,1,578.644-78.045Z" transform="translate(-534.608 102.982)"/><path class="b" d="M568.684-108.593a1.821,1.821,0,0,0,1.078-.523,1.83,1.83,0,0,0,0-2.588,1.83,1.83,0,0,0-2.588,0,1.82,1.82,0,0,0-.4.612.068.068,0,0,0,0,.013,1.83,1.83,0,0,0-.112.441,6.969,6.969,0,0,1-3.665,4.583l1.124,1.124A6.966,6.966,0,0,1,568.684-108.593Z" transform="translate(-529.646 118.587)"/></g><path class="c" d="M14.971,0A14.971,14.971,0,1,1,0,14.971,14.971,14.971,0,0,1,14.971,0Z" transform="translate(8.528 8.528)"/><path class="d" d="M12.957,0A12.957,12.957,0,1,1,0,12.957,12.957,12.957,0,0,1,12.957,0Z" transform="translate(10.542 10.542)"/><g transform="translate(12.079 11.64)"><circle class="a" cx="1.611" cy="1.611" r="1.611" transform="translate(6.735)"/><circle class="a" cx="1.611" cy="1.611" r="1.611" transform="translate(0 6.369)"/><circle class="a" cx="1.611" cy="1.611" r="1.611" transform="translate(0.22 14.861)"/><circle class="a" cx="1.611" cy="1.611" r="1.611" transform="translate(8.785 19.839)"/><circle class="a" cx="1.611" cy="1.611" r="1.611" transform="translate(16.471 18.228)"/><circle class="a" cx="1.611" cy="1.611" r="1.611" transform="translate(18.96 5.637)"/><circle class="a" cx="0.878" cy="0.878" r="0.878" transform="translate(16.398 1.83)"/><circle class="a" cx="0.878" cy="0.878" r="0.878" transform="translate(12.006 2.343)"/><circle class="a" cx="0.878" cy="0.878" r="0.878" transform="translate(4.758 4.758)"/><circle class="a" cx="0.878" cy="0.878" r="0.878" transform="translate(3.001 9.81)"/><circle class="a" cx="0.878" cy="0.878" r="0.878" transform="translate(5.051 17.35)"/><circle class="a" cx="0.878" cy="0.878" r="0.878" transform="translate(12.372 17.203)"/><circle class="a" cx="0.878" cy="0.878" r="0.878" transform="translate(21.01 12.811)"/><circle class="a" cx="0.878" cy="0.878" r="0.878" transform="translate(16.471 10.981)"/><circle class="a" cx="0.878" cy="0.878" r="0.878" transform="translate(7.906 10.981)"/><circle class="a" cx="0.878" cy="0.878" r="0.878" transform="translate(10.542 7.979)"/><circle class="a" cx="0.878" cy="0.878" r="0.878" transform="translate(11.42 12.591)"/></g></g></g></svg>