<svg xmlns="http://www.w3.org/2000/svg" width="66" height="66" viewBox="0 0 66 66"><defs><style>.a{fill:#00adee;}.b{fill:#fff;}</style></defs><g transform="translate(-986 -1643)"><g transform="translate(986.141 1643.141)"><circle class="a" cx="33" cy="33" r="33" transform="translate(-0.141 -0.141)"/></g><g transform="translate(993.931 1657.193)"><g transform="translate(0 7.613)"><path class="b" d="M565.716,99.659l-34.252-.111h-.014a4.4,4.4,0,0,0-4.4,4.381l-.067,20.882a4.4,4.4,0,0,0,4.381,4.41l34.252.111h.014a4.4,4.4,0,0,0,4.4-4.381l.068-20.882A4.4,4.4,0,0,0,565.716,99.659Zm-36.262,4.279a2,2,0,0,1,2-1.992h1.824a4.4,4.4,0,0,1-3.834,3.8Zm38.18,21a2,2,0,0,1-2,1.992h0l-3.133-.01a4.391,4.391,0,0,1,4.393-4.272h.752Zm.016-4.687h-.759a6.793,6.793,0,0,0-6.794,6.663l-28.718-.093a2,2,0,0,1-1.991-2l.054-16.658a6.83,6.83,0,0,0,6.256-6.2l30.013.1a2,2,0,0,1,1.992,2Z" transform="translate(-526.987 -99.548)"/><g transform="translate(12.103 6.915)"><path class="b" d="M542.632,120.836a8.644,8.644,0,1,1,8.644-8.644A8.654,8.654,0,0,1,542.632,120.836Zm0-15.213a6.569,6.569,0,1,0,6.569,6.569A6.578,6.578,0,0,0,542.632,105.622Z" transform="translate(-533.988 -103.548)"/></g></g><g transform="translate(5.736)"><path class="b" d="M534.653,95.144l35.45.223a4.352,4.352,0,0,1,4.348,4.348v22.9a4.352,4.352,0,0,1-4.348,4.348h-.79a1.186,1.186,0,1,1,0-2.372h.79a1.981,1.981,0,0,0,1.976-1.976v-22.9a1.981,1.981,0,0,0-1.976-1.976l-35.45-.223a1.979,1.979,0,0,0-1.976,1.976v.79a1.186,1.186,0,1,1-2.372,0V99.5A4.351,4.351,0,0,1,534.653,95.144Z" transform="translate(-530.305 -95.144)"/></g></g></g></svg>