<svg xmlns="http://www.w3.org/2000/svg" width="66" height="66" viewBox="0 0 66 66"><defs><style>.a{fill:#00adee;}.b{fill:#fff;}</style></defs><g transform="translate(-980.445 -1768.445)"><g transform="translate(980.29 1768.29)"><circle class="a" cx="33" cy="33" r="33" transform="translate(0.155 0.155)"/></g><g transform="translate(988.529 1778.309)"><path class="b" d="M569.294,175.11l-9,3.094a3.809,3.809,0,0,0-3.062-4.432,3.88,3.88,0,0,0-.7-.063h-6.182a.942.942,0,0,1-.468-.122l-5.043-2.836a6.693,6.693,0,0,0-3.278-.859H534.8a2.865,2.865,0,0,0-2.7-1.909h-5.727a.953.953,0,0,0-.955.954V186.12a.953.953,0,0,0,.954.954H532.1a2.868,2.868,0,0,0,2.672-1.838,8.729,8.729,0,0,1,3.117.926l4.992,3a12.167,12.167,0,0,0,11.3.644L572,181.957a3.68,3.68,0,0,0-2.7-6.846Zm-36.239,9.1a.954.954,0,0,1-.954.95h-4.774V169.892H532.1a.955.955,0,0,1,.954.955Zm38.216-4.023-.03.012-17.847,7.857a10.258,10.258,0,0,1-9.529-.541l-4.993-3a10.507,10.507,0,0,0-3.907-1.188V171.8h6.6a4.8,4.8,0,0,1,2.341.614l5.043,2.837a2.872,2.872,0,0,0,1.4.368h6.182a1.909,1.909,0,0,1,0,3.819h-9.706a.954.954,0,1,0-.018,1.909h9.722a3.8,3.8,0,0,0,1.79-.447l11.608-3.99a1.772,1.772,0,1,1,1.335,3.283Z" transform="translate(-525.419 -144.888)"/><path class="b" d="M542.52,158.194a1.231,1.231,0,1,0,1.23,1.232A1.234,1.234,0,0,0,542.52,158.194Z" transform="translate(-516.763 -150.227)"/><path class="b" d="M547.3,163.149a1.232,1.232,0,1,0,1.232,1.232A1.234,1.234,0,0,0,547.3,163.149Z" transform="translate(-514.156 -147.524)"/><path class="b" d="M542.242,168.313a.882.882,0,0,0,.624-.274l8-8.336a.891.891,0,1,0-1.287-1.233l-8,8.335a.888.888,0,0,0,.026,1.259v0A1.052,1.052,0,0,0,542.242,168.313Z" transform="translate(-516.739 -150.227)"/><g transform="translate(16.943)"><path class="b" d="M549.013,178.3a12.631,12.631,0,1,1,12.629-12.631A12.646,12.646,0,0,1,549.013,178.3Zm0-23.5a10.871,10.871,0,1,0,10.871,10.871A10.882,10.882,0,0,0,549.013,154.8Z" transform="translate(-536.382 -153.039)"/></g></g></g></svg>