<svg xmlns="http://www.w3.org/2000/svg" width="66" height="66" viewBox="0 0 66 66"><defs><style>.a{fill:#00adee;}.b{fill:#fff;}.c{fill:none;}</style></defs><g transform="translate(-338 -2047)"><g transform="translate(102.58 46.58)"><g transform="translate(235.42 2000.42)"><circle class="a" cx="33" cy="33" r="33" transform="translate(0 0)"/></g><g transform="translate(244.742 2019.319)"><path class="b" d="M546.341,207.957a.843.843,0,0,0-.843-.843h-6.587a.843.843,0,1,0,0,1.687H545.5A.845.845,0,0,0,546.341,207.957Z" transform="translate(-531.865 -184.882)"/><path class="c" d="M573.844,194.8a.805.805,0,0,0-.8-.8H535.989a.805.805,0,0,0-.8.8v3.274h38.659Z" transform="translate(-533.498 -192.311)"/><rect class="c" width="38.658" height="4.9" transform="translate(1.687 7.451)"/><path class="b" d="M565.994,220.916H536.6a.8.8,0,0,1-.8-.8V206.959h38.659v.205a8.74,8.74,0,0,1,1.687.365V195.411a2.5,2.5,0,0,0-2.491-2.491H536.6a2.5,2.5,0,0,0-2.49,2.491v24.7a2.5,2.5,0,0,0,2.49,2.491h30.863A8.929,8.929,0,0,1,565.994,220.916Zm-30.2-25.5a.805.805,0,0,1,.8-.8H573.65a.805.805,0,0,1,.8.8v3.274H535.8Zm0,4.961h38.659v4.9H535.8Z" transform="translate(-534.108 -192.921)"/><g transform="translate(34.058 20.351)"><path class="b" d="M566.108,206.168a.815.815,0,0,0-1.154-.03h0l-5.215,4.945-2.487-2.553a.817.817,0,0,0-1.17,1.14l3.05,3.131a.817.817,0,0,0,1.147.022l5.8-5.5a.818.818,0,0,0,.031-1.156Z" transform="translate(-555.851 -205.913)"/></g><g transform="translate(29.223 13)"><path class="b" d="M562.839,201.22A10.076,10.076,0,1,0,572.916,211.3,10.076,10.076,0,0,0,562.839,201.22Zm0,18.516a8.441,8.441,0,1,1,8.443-8.441h0A8.452,8.452,0,0,1,562.839,219.736Z" transform="translate(-552.764 -201.22)"/></g></g></g></g></svg>