<svg xmlns="http://www.w3.org/2000/svg" width="66" height="66" viewBox="0 0 66 66"><defs><style>.a{fill:#00adee;}.b{fill:#fff;}</style></defs><g transform="translate(-987 -1641)"><g transform="translate(7 1)"><g transform="translate(980 1640)"><circle class="a" cx="33" cy="33" r="33" transform="translate(0 0)"/></g><g transform="translate(990.2 1655.698)"><path class="b" d="M567.132,122.931h-36.1a4.858,4.858,0,0,0-4.847,4.846v24.39a4.858,4.858,0,0,0,4.847,4.846h36.1a4.858,4.858,0,0,0,4.846-4.846V127.775A4.857,4.857,0,0,0,567.132,122.931Zm2.958,29.235a2.969,2.969,0,0,1-2.957,2.96h-36.1a2.97,2.97,0,0,1-2.961-2.958V127.775a2.971,2.971,0,0,1,2.96-2.96h36.1a2.97,2.97,0,0,1,2.958,2.96Z" transform="translate(-526.187 -122.931)"/><path class="b" d="M537.105,128.179a4.357,4.357,0,1,0,4.359,4.356A4.363,4.363,0,0,0,537.105,128.179Zm0,6.83a2.473,2.473,0,1,1,2.47-2.473A2.475,2.475,0,0,1,537.105,135.008Z" transform="translate(-522.991 -120.374)"/><path class="b" d="M541.8,136.05h-6.83a4.86,4.86,0,0,0-4.847,4.847v.974a.944.944,0,0,0,1.889,0V140.9a2.967,2.967,0,0,1,2.957-2.96H541.8a2.967,2.967,0,0,1,2.958,2.96v.976a.944.944,0,0,0,1.889,0V140.9A4.86,4.86,0,0,0,541.8,136.05Z" transform="translate(-524.269 -116.538)"/><path class="b" d="M556.23,128.834H545.5a.944.944,0,0,0,0,1.887H556.23a.944.944,0,0,0,0-1.887Z" transform="translate(-517.237 -120.055)"/><path class="b" d="M556.23,134.083H545.5a.942.942,0,1,0,0,1.884H556.23a.942.942,0,1,0,0-1.884Z" transform="translate(-517.237 -117.497)"/><path class="b" d="M556.23,139.331H545.5a.942.942,0,1,0,0,1.884H556.23a.942.942,0,1,0,0-1.884Z" transform="translate(-517.237 -114.94)"/></g></g></g></svg>