<svg xmlns="http://www.w3.org/2000/svg" xmlns:xlink="http://www.w3.org/1999/xlink" width="502" height="325" viewBox="0 0 502 325"><defs><style>.a{fill:rgba(165,202,239,0.3);}.b{fill:#fff;}.c,.g{isolation:isolate;}.d,.k{fill:#0855c4;}.e{fill:#d1d1d1;}.f{fill:#454a6c;}.g{opacity:0.123;}.h{fill:#e8e9ed;}.i{fill:none;}.j{fill:#1251c4;}.k{font-size:14px;font-family:OmnesMedium, Omnes;}.l{filter:url(#c);}.m{filter:url(#a);}</style><filter id="a" x="0" y="0" width="318" height="256" filterUnits="userSpaceOnUse"><feOffset dy="3" input="SourceAlpha"/><feGaussianBlur stdDeviation="3" result="b"/><feFlood flood-color="#7b9ab9" flood-opacity="0.502"/><feComposite operator="in" in2="b"/><feComposite in="SourceGraphic"/></filter><filter id="c" x="240" y="187" width="262" height="138" filterUnits="userSpaceOnUse"><feOffset dy="3" input="SourceAlpha"/><feGaussianBlur stdDeviation="3" result="d"/><feFlood flood-color="#7b9ab9" flood-opacity="0.502"/><feComposite operator="in" in2="d"/><feComposite in="SourceGraphic"/></filter></defs><g transform="translate(-389 -1473)"><g transform="translate(486.037 1479.037)"><circle class="a" cx="156.481" cy="156.481" r="156.481" transform="translate(0)"/></g><g transform="translate(17)"><g class="m" transform="matrix(1, 0, 0, 1, 372, 1473)"><rect class="b" width="300" height="238" rx="5" transform="translate(9 6)"/></g><g transform="translate(-603.918 844.07)"><g class="c" transform="translate(1069.5 658.454)"><g class="c" transform="translate(0)"><path class="d" d="M1109.887,670.092l.525-6.484c.07-.367.157-.577.437-.577h.192c.279,0,.349.21.419.577l.524,6.484c.105.717-.245,1.066-.821,1.066h-.437C1110.131,671.159,1109.782,670.809,1109.887,670.092Zm-.017-9.315v-.21a.854.854,0,0,1,.962-.944h.227a.849.849,0,0,1,.944.944v.21a.841.841,0,0,1-.944.944h-.227A.847.847,0,0,1,1109.869,660.778Z" transform="translate(-1109.869 -658.942)"/><path class="d" d="M1122.67,659.444a5.479,5.479,0,0,1,3.2.909,2.119,2.119,0,0,1,1.066,1.486,1.051,1.051,0,0,1-1.048.978,3.655,3.655,0,0,0-3.2-1.748c-2.289,0-3.9,1.731-3.9,4.247a3.961,3.961,0,0,0,3.932,4.265,3.347,3.347,0,0,0,3.268-1.975c.036-.087,1.119.122,1.119.962a2.379,2.379,0,0,1-1.119,1.625,5.856,5.856,0,1,1-3.32-10.749Z" transform="translate(-1112.812 -658.867)"/><path class="d" d="M1140.692,664.454a4.422,4.422,0,1,1-4.421,4.4A4.245,4.245,0,0,1,1140.692,664.454Zm-.017,1.416a2.824,2.824,0,0,0-2.814,2.989,2.854,2.854,0,0,0,2.814,3.023,3.014,3.014,0,0,0,0-6.012Z" transform="translate(-1120.889 -660.958)"/><path class="d" d="M1154.283,669.153v-4.439h-.612c-.542,0-.751-.227-.751-.646v-.122c0-.42.21-.647.751-.647h.612v-1.293c0-.594.3-.821.769-.821h.175c.454,0,.752.174.752.821V663.3h1.905c.542,0,.734.21.734.63v.122c0,.437-.21.664-.752.664h-1.905v4.247c0,1.049.3,1.555,1.119,1.555a1.424,1.424,0,0,0,1.188-.594c.052-.052.489.192.489.734a1.039,1.039,0,0,1-.366.769,2.365,2.365,0,0,1-1.591.507C1155.07,671.932,1154.283,670.971,1154.283,669.153Z" transform="translate(-1127.839 -659.594)"/><path class="d" d="M1166.238,658.454a1.006,1.006,0,1,1-1.049,1.014A.947.947,0,0,1,1166.238,658.454Zm-.908,4.457c0-.63.332-.839.786-.839h.175c.454,0,.768.192.768.839v6.9c0,.629-.315.821-.768.821h-.175c-.454,0-.786-.192-.786-.821Z" transform="translate(-1132.96 -658.454)"/><path class="d" d="M1171.43,672.416c0-.367.14-.541.489-.944l4.4-5.278h-4.107c-.524,0-.752-.192-.752-.629v-.122c0-.419.228-.63.752-.63h5.61c.542,0,.717.3.717.647v.1c0,.332-.123.507-.472.909l-4.492,5.348h4.352c.524,0,.752.21.752.647v.1c0,.437-.227.647-.752.647h-5.785a.63.63,0,0,1-.716-.664Z" transform="translate(-1135.565 -661.108)"/><path class="d" d="M1191.475,668.019h.227v-.175a1.827,1.827,0,0,0-2.08-1.974,2.539,2.539,0,0,0-2.412,1.433c0,.017-1.066,0-1.066-.839a1.525,1.525,0,0,1,.577-1.048,4.464,4.464,0,0,1,3.024-.961c2.377,0,3.67,1.223,3.67,3.356v5.155c0,.087-.314.193-.628.193a.937.937,0,0,1-1-.77,2.559,2.559,0,0,1-.071-.577,3.633,3.633,0,0,1-3.023,1.451c-1.8,0-2.866-.961-2.866-2.394C1185.829,668.928,1187.682,668.089,1191.475,668.019Zm.227,1.084-.471.017c-2.447.087-3.706.542-3.706,1.678,0,.751.595,1.223,1.591,1.223a2.354,2.354,0,0,0,2.586-2.272Z" transform="translate(-1141.575 -660.958)"/><path class="d" d="M1208.36,676.094l1.4-3.408a.728.728,0,0,1-.734-.49l-3.005-7.025c-.036-.1.349-.507.908-.507.489,0,.821.227,1.1.979l2.272,5.8,2.009-5.768c.245-.768.629-1.013,1.084-1.013.471,0,.944.384.908.472l-3.967,10.469c-.28.752-.664.961-1.066.961C1208.779,676.566,1208.325,676.181,1208.36,676.094Z" transform="translate(-1150.002 -661.046)"/><path class="d" d="M1236.1,668.858c0,2.638-1.66,4.439-3.985,4.439a3.246,3.246,0,0,1-2.883-1.572v3.949c0,.629-.333.821-.77.821h-.192c-.454,0-.768-.192-.768-.821V664.769a.856.856,0,0,1,.629-.192,1,1,0,0,1,1.032.961,3.01,3.01,0,0,1,.052.489,3.353,3.353,0,0,1,2.954-1.572C1234.42,664.454,1236.1,666.184,1236.1,668.858Zm-1.678.018a2.7,2.7,0,0,0-5.208-1.242V669.4a2.512,2.512,0,0,0,2.587,2.464C1233.371,671.864,1234.42,670.659,1234.42,668.876Z" transform="translate(-1158.969 -660.958)"/><path class="d" d="M1250.275,665.573a.859.859,0,0,1-.525.891,1.63,1.63,0,0,0-1.066-.367c-1.363,0-1.9,1.329-1.9,3.269v2.953c0,.629-.333.821-.77.821h-.192c-.454,0-.768-.192-.768-.821v-7.55a.854.854,0,0,1,.629-.192.989.989,0,0,1,1.014.839,3.089,3.089,0,0,1,.07.629,2.128,2.128,0,0,1,2.132-1.59C1249.767,664.454,1250.275,664.873,1250.275,665.573Z" transform="translate(-1166.295 -660.958)"/><path class="d" d="M1258.86,664.454a4.422,4.422,0,1,1-4.422,4.4A4.245,4.245,0,0,1,1258.86,664.454Zm-.017,1.416a2.824,2.824,0,0,0-2.814,2.989,2.854,2.854,0,0,0,2.814,3.023,3.014,3.014,0,0,0,0-6.012Z" transform="translate(-1170.214 -660.958)"/><path class="d" d="M1272.451,669.153v-4.439h-.612c-.542,0-.752-.227-.752-.646v-.122c0-.42.21-.647.752-.647h.612v-1.293c0-.594.3-.821.769-.821h.175c.454,0,.752.174.752.821V663.3h1.905c.542,0,.734.21.734.63v.122c0,.437-.21.664-.752.664h-1.905v4.247c0,1.049.3,1.555,1.119,1.555a1.424,1.424,0,0,0,1.188-.594c.052-.052.489.192.489.734a1.039,1.039,0,0,1-.366.769,2.364,2.364,0,0,1-1.59.507C1273.238,671.932,1272.451,670.971,1272.451,669.153Z" transform="translate(-1177.164 -659.594)"/><path class="d" d="M1286.906,664.454a3.915,3.915,0,0,1,4.037,4.23v.139c0,.367-.122.507-.524.507h-6.205a1.857,1.857,0,0,0,.036.315,2.73,2.73,0,0,0,2.831,2.29,2.763,2.763,0,0,0,2.639-1.4c.035-.036.909.122.909.856a1.682,1.682,0,0,1-.926,1.224,4.974,4.974,0,0,1-2.656.682,4.179,4.179,0,0,1-4.44-4.386A4.26,4.26,0,0,1,1286.906,664.454Zm-.017,1.311a2.682,2.682,0,0,0-2.657,2.394h5.034A2.308,2.308,0,0,0,1286.889,665.765Z" transform="translate(-1181.972 -660.958)"/><path class="d" d="M1297.787,673.744c0-1.223,1.154-2.045,2.674-2.307a.976.976,0,0,1-.332-.786,1.236,1.236,0,0,1,.471-.909,2.926,2.926,0,0,1-2.2-2.8,3.349,3.349,0,0,1,3.6-3.18,4.237,4.237,0,0,1,2.009.506l.454-.8a1.11,1.11,0,0,1,1-.664.946.946,0,0,1,.891.733l-1.433,1.486a2.857,2.857,0,0,1,.734,1.87c0,1.766-1.5,3.059-3.635,3.059h-.315a.488.488,0,0,0-.087.3c0,.542.8.595,2.272.961,1.188.315,2.447.909,2.447,2.29,0,1.591-1.625,2.569-4.4,2.569C1299.1,676.069,1297.787,675.317,1297.787,673.744Zm6.869-.192c0-.664-.786-.909-1.713-1.136l-.874-.21c-1.433.087-2.621.594-2.621,1.486,0,.752.856,1.171,2.516,1.171C1303.659,674.863,1304.656,674.391,1304.656,673.552Zm-.682-6.641a1.859,1.859,0,0,0-1.992-1.905,1.835,1.835,0,0,0-1.94,1.905,1.967,1.967,0,0,0,3.932,0Z" transform="translate(-1188.308 -660.27)"/><path class="d" d="M1317.777,664.454a3.916,3.916,0,0,1,4.037,4.23v.139c0,.367-.122.507-.524.507h-6.2a1.989,1.989,0,0,0,.035.315,2.731,2.731,0,0,0,2.831,2.29,2.764,2.764,0,0,0,2.639-1.4c.035-.036.909.122.909.856a1.682,1.682,0,0,1-.926,1.224,4.977,4.977,0,0,1-2.657.682,4.178,4.178,0,0,1-4.439-4.386A4.259,4.259,0,0,1,1317.777,664.454Zm-.018,1.311a2.68,2.68,0,0,0-2.656,2.394h5.033A2.308,2.308,0,0,0,1317.759,665.765Z" transform="translate(-1194.858 -660.958)"/><path class="d" d="M1330.787,670.245v-.209a.862.862,0,0,1,.944-.962h.228a.859.859,0,0,1,.961.962v.209a.847.847,0,0,1-.961.944h-.228A.849.849,0,0,1,1330.787,670.245Zm.542-3.059-.525-6.467c-.088-.734.263-1.066.822-1.066h.437c.594,0,.944.332.838,1.066l-.524,6.467c-.052.384-.14.595-.437.595h-.192C1331.486,667.781,1331.4,667.571,1331.329,667.186Z" transform="translate(-1202.083 -658.955)"/></g></g><g transform="translate(1013.158 687.875)"><g transform="translate(0 6.991)"><g transform="translate(0)"><rect class="b" width="241.773" height="40.781" rx="12"/></g><g transform="translate(0 0)"><path class="d" d="M1247.94,761.736H1020.149a7,7,0,0,1-6.991-6.991v-26.8a7,7,0,0,1,6.991-6.991H1247.94a7,7,0,0,1,6.991,6.991v26.8A7,7,0,0,1,1247.94,761.736ZM1020.149,722.12a5.833,5.833,0,0,0-5.826,5.826v26.8a5.833,5.833,0,0,0,5.826,5.826H1247.94a5.833,5.833,0,0,0,5.826-5.826v-26.8a5.833,5.833,0,0,0-5.826-5.826Z" transform="translate(-1013.158 -720.955)"/></g></g><g transform="translate(32.043 58.259)"><rect class="b" width="156.133" height="14.565"/></g><g transform="translate(6.991)"><rect class="b" width="166.619" height="14.565"/></g><g transform="translate(0 58.841)"><g transform="translate(0)"><rect class="b" width="241.773" height="40.781" rx="12"/></g><g transform="translate(0 0)"><path class="e" d="M1247.94,850.736H1020.149a7,7,0,0,1-6.991-6.991v-26.8a7,7,0,0,1,6.991-6.991H1247.94a7,7,0,0,1,6.991,6.991v26.8A7,7,0,0,1,1247.94,850.736Zm-227.791-40.2a6.416,6.416,0,0,0-6.408,6.408v26.8a6.416,6.416,0,0,0,6.408,6.408H1247.94a6.415,6.415,0,0,0,6.408-6.408v-26.8a6.416,6.416,0,0,0-6.408-6.408Z" transform="translate(-1013.158 -809.955)"/></g></g><g transform="translate(1.748 111.274)"><g transform="translate(0)"><rect class="b" width="241.773" height="40.781" rx="12"/></g><g transform="translate(0 0)"><path class="e" d="M1250.94,940.736H1023.149a7,7,0,0,1-6.991-6.991v-26.8a7,7,0,0,1,6.991-6.991H1250.94a7,7,0,0,1,6.991,6.991v26.8A7,7,0,0,1,1250.94,940.736Zm-227.791-40.2a6.416,6.416,0,0,0-6.408,6.408v26.8a6.416,6.416,0,0,0,6.408,6.408H1250.94a6.415,6.415,0,0,0,6.408-6.408v-26.8a6.416,6.416,0,0,0-6.408-6.408Z" transform="translate(-1016.158 -899.955)"/></g></g><g transform="translate(212.636 24.069)"><path class="d" d="M1387.652,751.663l-4.428,4.427-4.427-4.427a.523.523,0,0,1,0-.742h0a.523.523,0,0,1,.74,0l3.686,3.685,3.685-3.685a.524.524,0,0,1,.741,0h0a.523.523,0,0,1,0,.741Z" transform="translate(-1378.353 -750.477)"/><path class="d" d="M1383.017,756.294l-4.633-4.633a.815.815,0,0,1,1.152-1.154l3.48,3.48,3.479-3.479a.834.834,0,0,1,1.153,0,.816.816,0,0,1,0,1.153Zm-4.057-5.443a.233.233,0,0,0-.164.4l4.221,4.221,4.221-4.221a.234.234,0,0,0-.331-.33l-3.891,3.891-3.892-3.891A.234.234,0,0,0,1378.96,750.852Z" transform="translate(-1378.146 -750.269)"/></g><g transform="translate(213.802 73.589)"><path class="d" d="M1389.653,836.663l-4.428,4.427-4.427-4.427a.524.524,0,0,1,0-.742h0a.524.524,0,0,1,.74,0l3.686,3.686,3.686-3.686a.524.524,0,0,1,.741,0h0a.523.523,0,0,1,0,.741Z" transform="translate(-1380.354 -835.477)"/><path class="d" d="M1385.017,841.294l-4.633-4.633a.815.815,0,0,1,1.152-1.154l3.48,3.48,3.479-3.479a.834.834,0,0,1,1.153,0,.816.816,0,0,1,0,1.153Zm-4.057-5.443a.233.233,0,0,0-.164.4l4.221,4.221,4.221-4.221a.234.234,0,0,0-.331-.33l-3.891,3.891-3.892-3.891A.234.234,0,0,0,1380.96,835.852Z" transform="translate(-1380.146 -835.269)"/></g><g transform="translate(214.384 126.022)"><path class="d" d="M1390.652,926.663l-4.428,4.427-4.427-4.427a.524.524,0,0,1,0-.742h0a.524.524,0,0,1,.74,0l3.686,3.685,3.685-3.685a.524.524,0,0,1,.741,0h0a.523.523,0,0,1,0,.741Z" transform="translate(-1381.354 -925.477)"/><path class="d" d="M1386.017,931.294l-4.633-4.633a.815.815,0,0,1,1.152-1.154l3.48,3.48,3.479-3.479a.834.834,0,0,1,1.153,0,.816.816,0,0,1,0,1.153Zm-4.057-5.443a.233.233,0,0,0-.164.4l4.221,4.221,4.221-4.221a.234.234,0,0,0-.331-.33l-3.891,3.891-3.892-3.891A.234.234,0,0,0,1381.96,925.852Z" transform="translate(-1381.146 -925.269)"/></g><g class="c" transform="translate(21.619 22.813)"><g class="c"><path class="d" d="M1050.267,756.559v-.35c0-1.86,1.44-2.685,2.8-3.356,1.189-.587,2.252-1.034,2.252-2.013,0-.937-.685-1.5-1.846-1.5a2.143,2.143,0,0,0-2.21,1.734c0,.042-.951.056-.951-.7a2.028,2.028,0,0,1,.825-1.482,3.8,3.8,0,0,1,2.433-.784c1.971,0,3.159,1.021,3.159,2.7,0,1.622-1.286,2.266-2.656,2.895-1.188.531-2.168,1.034-2.4,2a1.9,1.9,0,0,0-.057.406h4.587c.476,0,.685.2.685.559v.084c0,.378-.209.587-.685.587h-5.034C1050.533,757.342,1050.267,757.133,1050.267,756.559Z" transform="translate(-1050.267 -748.113)"/><path class="d" d="M1063.347,753.287v-.923c0-2.615,1.439-4.251,3.761-4.251,2.35,0,3.775,1.622,3.775,4.238v.908c0,2.615-1.439,4.266-3.775,4.266S1063.347,755.9,1063.347,753.287Zm6.1.042v-1.007c0-1.9-.868-3.02-2.336-3.02s-2.307,1.091-2.307,2.992v1.021c0,1.9.853,2.992,2.307,2.992C1068.6,756.308,1069.444,755.231,1069.444,753.329Z" transform="translate(-1055.727 -748.113)"/><path class="d" d="M1078.586,753.287v-.923c0-2.615,1.441-4.251,3.762-4.251,2.349,0,3.775,1.622,3.775,4.238v.908c0,2.615-1.44,4.266-3.775,4.266S1078.586,755.9,1078.586,753.287Zm6.1.042v-1.007c0-1.9-.867-3.02-2.335-3.02s-2.308,1.091-2.308,2.992v1.021c0,1.9.854,2.992,2.308,2.992C1083.844,756.308,1084.683,755.231,1084.683,753.329Z" transform="translate(-1062.088 -748.113)"/><path class="d" d="M1093.731,761.78c.126-.433.238-.657.714-.657h.126c.349,0,.587.224.587.657v.07a1.3,1.3,0,0,1-.322.84l-1.161,1.79c-.182.237-.811.1-.7-.322Z" transform="translate(-1068.089 -753.544)"/><path class="d" d="M1099.153,753.287v-.923c0-2.615,1.441-4.251,3.762-4.251,2.349,0,3.776,1.622,3.776,4.238v.908c0,2.615-1.44,4.266-3.776,4.266S1099.153,755.9,1099.153,753.287Zm6.1.042v-1.007c0-1.9-.867-3.02-2.335-3.02s-2.307,1.091-2.307,2.992v1.021c0,1.9.852,2.992,2.307,2.992C1104.411,756.308,1105.25,755.231,1105.25,753.329Z" transform="translate(-1070.673 -748.113)"/><path class="d" d="M1114.394,753.287v-.923c0-2.615,1.439-4.251,3.761-4.251,2.35,0,3.775,1.622,3.775,4.238v.908c0,2.615-1.44,4.266-3.775,4.266S1114.394,755.9,1114.394,753.287Zm6.1.042v-1.007c0-1.9-.867-3.02-2.335-3.02s-2.307,1.091-2.307,2.992v1.021c0,1.9.853,2.992,2.307,2.992C1119.651,756.308,1120.49,755.231,1120.49,753.329Z" transform="translate(-1077.035 -748.113)"/><path class="d" d="M1129.634,753.287v-.923c0-2.615,1.439-4.251,3.761-4.251,2.35,0,3.775,1.622,3.775,4.238v.908c0,2.615-1.44,4.266-3.775,4.266S1129.634,755.9,1129.634,753.287Zm6.1.042v-1.007c0-1.9-.867-3.02-2.336-3.02s-2.307,1.091-2.307,2.992v1.021c0,1.9.853,2.992,2.307,2.992C1134.891,756.308,1135.731,755.231,1135.731,753.329Z" transform="translate(-1083.396 -748.113)"/><path class="d" d="M1144.873,753.287v-.923c0-2.615,1.441-4.251,3.762-4.251,2.349,0,3.776,1.622,3.776,4.238v.908c0,2.615-1.441,4.266-3.776,4.266S1144.873,755.9,1144.873,753.287Zm6.1.042v-1.007c0-1.9-.867-3.02-2.335-3.02s-2.308,1.091-2.308,2.992v1.021c0,1.9.854,2.992,2.308,2.992C1150.131,756.308,1150.97,755.231,1150.97,753.329Z" transform="translate(-1089.757 -748.113)"/></g></g><g class="c" transform="translate(20.994 73.965)"><g class="c"><path class="d" d="M1051.25,845.836v-6.488a1.322,1.322,0,0,1-.937.378,1.283,1.283,0,0,1-.811-.266.909.909,0,0,1-.308-.7.741.741,0,0,1,.406-.713,1.138,1.138,0,0,0,.825.322,1.153,1.153,0,0,0,1.132-1.063h.489c.42,0,.629.223.629.657v7.872c0,.433-.209.657-.629.657h-.182C1051.46,846.493,1051.25,846.269,1051.25,845.836Z" transform="translate(-1049.194 -836.495)"/><path class="d" d="M1058.651,842.287v-.923c0-2.615,1.44-4.251,3.761-4.251,2.35,0,3.776,1.622,3.776,4.238v.908c0,2.615-1.44,4.266-3.776,4.266S1058.651,844.9,1058.651,842.287Zm6.1.042v-1.007c0-1.9-.867-3.02-2.336-3.02s-2.307,1.091-2.307,2.992v1.021c0,1.9.853,2.992,2.307,2.992C1063.909,845.308,1064.748,844.231,1064.748,842.329Z" transform="translate(-1053.141 -836.414)"/><path class="d" d="M1082.127,843.975h.182v-.14a1.462,1.462,0,0,0-1.665-1.58,2.032,2.032,0,0,0-1.929,1.147c0,.015-.854,0-.854-.671a1.224,1.224,0,0,1,.461-.839,3.571,3.571,0,0,1,2.419-.769c1.9,0,2.937.979,2.937,2.685v4.126c0,.069-.252.153-.5.153a.75.75,0,0,1-.8-.615,2.08,2.08,0,0,1-.056-.461,2.908,2.908,0,0,1-2.419,1.161c-1.441,0-2.294-.769-2.294-1.916C1077.61,844.7,1079.092,844.03,1082.127,843.975Zm.182.867-.378.013c-1.957.07-2.964.433-2.964,1.343,0,.6.476.979,1.273.979a1.884,1.884,0,0,0,2.069-1.818Z" transform="translate(-1061.055 -838.088)"/><path class="d" d="M1097.043,841.828v3.412c0,.5-.266.657-.615.657h-.154c-.364,0-.615-.154-.615-.657V842c0-1.133-.573-1.832-1.552-1.832a2.031,2.031,0,0,0-1.888,1.175v3.9c0,.5-.266.657-.616.657h-.153c-.364,0-.615-.154-.615-.657V839.2a.686.686,0,0,1,.5-.154c.378,0,.839.2.867,1.091a2.608,2.608,0,0,1,2.237-1.188C1096.218,838.948,1097.043,840.165,1097.043,841.828Zm-5.146-4.139a.507.507,0,0,1-.139-.378,1.3,1.3,0,0,1,1.147-1.4,1.793,1.793,0,0,1,.923.322,4.7,4.7,0,0,1,.965.839c.154-.5.489-1.077.812-1.077a.484.484,0,0,1,.517.531,1.309,1.309,0,0,1-1.146,1.384,1.656,1.656,0,0,1-.937-.308,5.7,5.7,0,0,1-.951-.852c-.168.5-.49,1.077-.811,1.077A.523.523,0,0,1,1091.9,837.69Z" transform="translate(-1066.576 -835.914)"/><path class="d" d="M1107.14,841.122a3.538,3.538,0,1,1-3.538,3.524A3.4,3.4,0,0,1,1107.14,841.122Zm-.015,1.133a2.259,2.259,0,0,0-2.251,2.392,2.283,2.283,0,0,0,2.251,2.419,2.412,2.412,0,0,0,0-4.81Z" transform="translate(-1071.905 -838.088)"/><path class="d" d="M1117.09,846.757a.707.707,0,0,1,.545-.629,2.77,2.77,0,0,0,2.266,1.007c.951,0,1.482-.35,1.482-.909,0-.685-.629-.812-1.734-1.049-.993-.21-2.363-.518-2.363-1.944,0-1.258,1.049-2.111,2.685-2.111a2.87,2.87,0,0,1,2.419.881.821.821,0,0,1,.168.475.737.737,0,0,1-.559.644,2.435,2.435,0,0,0-1.972-.951c-.951,0-1.454.364-1.454.923,0,.616.587.756,1.678.993,1.035.224,2.475.531,2.475,1.985,0,1.286-1.063,2.111-2.8,2.111a4.01,4.01,0,0,1-2.307-.587A1.1,1.1,0,0,1,1117.09,846.757Z" transform="translate(-1077.535 -838.088)"/></g></g><g class="c" transform="translate(21.759 126.719)"><g class="c"><path class="d" d="M1050.507,928.127a.756.756,0,0,1,.825-.8h.377c.559,0,.714.209.937.727l2.14,4.824,2.153-4.824c.224-.531.391-.727.923-.727h.349a.771.771,0,0,1,.853.8v7.7c0,.433-.181.657-.6.657h-.2c-.406,0-.573-.224-.573-.657V929.19l-2,4.5a1,1,0,0,1-1.846,0l-1.972-4.461v6.6c0,.433-.168.657-.587.657h-.224c-.391,0-.559-.224-.559-.657Z" transform="translate(-1050.507 -926.827)"/><path class="d" d="M1071.057,931.122a3.133,3.133,0,0,1,3.231,3.384v.112c0,.294-.1.4-.419.4H1068.9a1.555,1.555,0,0,0,.029.252,2.185,2.185,0,0,0,2.265,1.832,2.213,2.213,0,0,0,2.112-1.119c.028-.028.727.1.727.685a1.347,1.347,0,0,1-.742.979,3.978,3.978,0,0,1-2.125.546,3.344,3.344,0,0,1-3.552-3.511A3.408,3.408,0,0,1,1071.057,931.122Zm-.013,1.049a2.145,2.145,0,0,0-2.125,1.916h4.027A1.848,1.848,0,0,0,1071.044,932.171Z" transform="translate(-1057.649 -928.409)"/><path class="d" d="M1087.483,934v3.412c0,.5-.266.657-.616.657h-.154c-.364,0-.615-.154-.615-.657V934.17c0-1.133-.573-1.832-1.552-1.832a2.033,2.033,0,0,0-1.888,1.175v3.9c0,.5-.266.657-.615.657h-.154c-.364,0-.615-.154-.615-.657v-6.041a.687.687,0,0,1,.5-.154c.377,0,.839.2.867,1.091a2.608,2.608,0,0,1,2.237-1.188C1086.658,931.122,1087.483,932.338,1087.483,934Z" transform="translate(-1063.35 -928.409)"/><path class="d" d="M1093.9,936.757a.708.708,0,0,1,.545-.629,2.77,2.77,0,0,0,2.266,1.007c.95,0,1.482-.349,1.482-.909,0-.685-.629-.812-1.734-1.049-.993-.21-2.364-.518-2.364-1.944,0-1.258,1.049-2.111,2.685-2.111a2.869,2.869,0,0,1,2.419.881.819.819,0,0,1,.168.475.737.737,0,0,1-.559.644,2.434,2.434,0,0,0-1.972-.951c-.95,0-1.454.364-1.454.923,0,.616.587.756,1.678.993,1.035.224,2.475.531,2.475,1.985,0,1.286-1.063,2.111-2.8,2.111a4.009,4.009,0,0,1-2.307-.587A1.1,1.1,0,0,1,1093.9,936.757Z" transform="translate(-1068.619 -928.409)"/><path class="d" d="M1111.973,931.961v6.027a.671.671,0,0,1-.489.154.784.784,0,0,1-.826-.629,1.917,1.917,0,0,1-.055-.433,2.613,2.613,0,0,1-2.237,1.174c-1.776,0-2.587-1.2-2.587-2.88v-3.412c0-.5.252-.671.6-.671h.153c.364,0,.615.154.615.671v3.244c0,1.161.588,1.846,1.609,1.846a2.02,2.02,0,0,0,1.846-1.189v-3.9c0-.5.252-.671.6-.671h.153C1111.721,931.29,1111.973,931.444,1111.973,931.961Z" transform="translate(-1073.578 -928.48)"/><path class="d" d="M1122.7,933.975h.182v-.14a1.462,1.462,0,0,0-1.664-1.58,2.034,2.034,0,0,0-1.93,1.147c0,.015-.853,0-.853-.671a1.22,1.22,0,0,1,.462-.839,3.57,3.57,0,0,1,2.419-.769c1.9,0,2.936.979,2.936,2.685v4.126c0,.069-.252.153-.5.153a.751.751,0,0,1-.8-.615,2.073,2.073,0,0,1-.056-.461,2.907,2.907,0,0,1-2.419,1.161c-1.44,0-2.293-.769-2.293-1.916C1118.186,934.7,1119.668,934.03,1122.7,933.975Zm.182.867-.377.013c-1.958.07-2.965.433-2.965,1.343,0,.6.475.979,1.272.979a1.884,1.884,0,0,0,2.07-1.818Z" transform="translate(-1078.757 -928.409)"/><path class="d" d="M1131.506,935.471v-8.852a.719.719,0,0,1,.5-.153c.433,0,.881.224.881,1.188v7.817c0,.5-.252.657-.615.657h-.14C1131.772,936.128,1131.506,935.974,1131.506,935.471Z" transform="translate(-1084.317 -926.466)"/></g></g><g class="c" transform="translate(13.824 3.629)"><g class="c"><path class="f" d="M1042.762,721.372a.423.423,0,0,1-.4.289.544.544,0,0,1-.364-.2l-.4-.41a2.758,2.758,0,0,1-1.772.606,2.876,2.876,0,0,1-2.937-3.105,2.913,2.913,0,0,1,2.956-3.133,2.876,2.876,0,0,1,2.927,3.115,3.217,3.217,0,0,1-.727,2.1Zm-2.928-.317a2.015,2.015,0,0,0,1.352-.438l-1.147-1.176a.3.3,0,0,1-.018-.447l.027-.019a.28.28,0,0,1,.429.047l1.11,1.128a2.637,2.637,0,0,0,.476-1.6,2.245,2.245,0,1,0-2.229,2.509Z" transform="translate(-1036.887 -715.283)"/><path class="f" d="M1052.552,718.573V722.7a.346.346,0,0,1-.242.075c-.186,0-.355-.094-.391-.439-.01-.121-.019-.242-.019-.364a1.734,1.734,0,0,1-1.529.867c-1.147,0-1.706-.792-1.706-1.939v-2.332c0-.242.121-.317.3-.317h.074c.177,0,.3.075.3.317v2.285c0,.858.42,1.389,1.175,1.389a1.464,1.464,0,0,0,1.371-.9v-2.77c0-.242.121-.317.289-.317h.084C1052.43,718.256,1052.552,718.331,1052.552,718.573Z" transform="translate(-1041.802 -716.466)"/><path class="f" d="M1057.747,715.183a.388.388,0,0,1,.429.429.393.393,0,0,1-.438.42.383.383,0,0,1-.42-.42A.388.388,0,0,1,1057.747,715.183Zm-.345,2.117c0-.242.121-.326.3-.326h.075c.177,0,.3.075.3.326v3.87c0,.242-.122.317-.3.317h-.075c-.178,0-.3-.075-.3-.317Z" transform="translate(-1045.415 -715.183)"/><path class="f" d="M1062.463,718.144a2,2,0,0,1,2.042,2.191v.066c0,.158-.065.214-.233.214h-3.366a.652.652,0,0,0,.009.13,1.567,1.567,0,0,0,1.622,1.493,1.471,1.471,0,0,0,1.445-.821.38.38,0,0,1,.383.354.822.822,0,0,1-.354.55,2.284,2.284,0,0,1-1.483.476,2.173,2.173,0,0,1-2.266-2.3A2.208,2.208,0,0,1,1062.463,718.144Zm0,.541a1.567,1.567,0,0,0-1.539,1.446h2.919A1.365,1.365,0,0,0,1062.463,718.685Z" transform="translate(-1046.644 -716.419)"/><path class="f" d="M1071.565,718.629c0,.27-.187.382-.205.364a.729.729,0,0,0-.532-.187c-.728,0-1.063.718-1.063,1.837v1.762c0,.233-.121.317-.289.317h-.074c-.186,0-.308-.075-.308-.317v-4.122a.327.327,0,0,1,.242-.075c.186,0,.355.093.392.447.009.159.019.317.019.485a1.157,1.157,0,0,1,1.156-1C1071.3,718.144,1071.565,718.34,1071.565,718.629Z" transform="translate(-1050.331 -716.419)"/><path class="f" d="M1076,718.144a2.327,2.327,0,1,1-2.266,2.322A2.209,2.209,0,0,1,1076,718.144Zm0,.569a1.766,1.766,0,1,0,1.6,1.772A1.628,1.628,0,0,0,1076,718.713Z" transform="translate(-1052.267 -716.419)"/><path class="f" d="M1090.15,720.456a2.125,2.125,0,0,1-2.071,2.341,1.736,1.736,0,0,1-1.6-.933v2.313c0,.233-.121.317-.289.317h-.074c-.178,0-.3-.084-.3-.317v-5.893a.315.315,0,0,1,.233-.075c.2,0,.382.112.41.5,0,.112.009.261.009.382a1.774,1.774,0,0,1,1.632-.951A2.107,2.107,0,0,1,1090.15,720.456Zm-.662.01a1.585,1.585,0,0,0-1.511-1.754,1.563,1.563,0,0,0-1.511,1.073v.989a1.465,1.465,0,0,0,1.492,1.454A1.57,1.57,0,0,0,1089.488,720.466Z" transform="translate(-1057.31 -716.419)"/><path class="f" d="M1097.293,718.629c0,.27-.187.382-.205.364a.727.727,0,0,0-.531-.187c-.727,0-1.063.718-1.063,1.837v1.762c0,.233-.122.317-.289.317h-.075c-.187,0-.308-.075-.308-.317v-4.122a.326.326,0,0,1,.242-.075c.187,0,.354.093.391.447.009.159.019.317.019.485a1.157,1.157,0,0,1,1.157-1C1097.032,718.144,1097.293,718.34,1097.293,718.629Z" transform="translate(-1061.07 -716.419)"/><path class="f" d="M1101.728,718.144a2.327,2.327,0,1,1-2.266,2.322A2.21,2.21,0,0,1,1101.728,718.144Zm0,.569a1.766,1.766,0,1,0,1.594,1.772A1.628,1.628,0,0,0,1101.728,718.713Z" transform="translate(-1063.007 -716.419)"/><path class="f" d="M1108.749,720.677v-2.583h-.438c-.214,0-.29-.093-.29-.252v-.065c0-.159.075-.252.29-.252h.438v-.783c0-.234.122-.327.3-.327h.075c.177,0,.289.085.289.327v.783h1.129c.2,0,.289.084.289.252v.056c0,.168-.084.261-.3.261H1109.4v2.48c0,.653.2.932.662.932a.775.775,0,0,0,.662-.344c.027-.019.186.074.186.308a.464.464,0,0,1-.168.345,1.094,1.094,0,0,1-.774.261C1109.15,722.075,1108.749,721.619,1108.749,720.677Z" transform="translate(-1066.579 -715.697)"/><path class="f" d="M1115.982,718.144a2,2,0,0,1,2.042,2.191v.066c0,.158-.065.214-.233.214h-3.367a.66.66,0,0,0,.009.13,1.568,1.568,0,0,0,1.623,1.493,1.474,1.474,0,0,0,1.445-.821.381.381,0,0,1,.382.354.822.822,0,0,1-.354.55,2.285,2.285,0,0,1-1.483.476,2.173,2.173,0,0,1-2.266-2.3A2.208,2.208,0,0,1,1115.982,718.144Zm0,.541a1.565,1.565,0,0,0-1.539,1.446h2.919A1.366,1.366,0,0,0,1115.982,718.685Z" transform="translate(-1068.984 -716.419)"/><path class="f" d="M1121.572,723.1c0-.652.644-1.109,1.455-1.258a.5.5,0,0,1-.28-.447.59.59,0,0,1,.27-.476,1.528,1.528,0,0,1-1.128-1.463,1.7,1.7,0,0,1,1.8-1.651,1.893,1.893,0,0,1,1.054.308l.336-.5a.433.433,0,0,1,.438-.27.393.393,0,0,1,.326.3l-.737.784a1.5,1.5,0,0,1,.4,1.007,1.669,1.669,0,0,1-1.809,1.595,2.109,2.109,0,0,1-.242-.009.264.264,0,0,0-.112.242c.009.3.457.345,1.212.532.643.158,1.334.475,1.334,1.193,0,.83-.821,1.334-2.238,1.334C1122.263,724.317,1121.572,723.906,1121.572,723.1Zm3.665-.075c0-.41-.466-.6-.979-.727-.186-.047-.373-.084-.551-.13-.792.065-1.483.4-1.483.923,0,.475.5.736,1.445.736C1124.65,723.832,1125.237,723.552,1125.237,723.03Zm-.4-3.59a1.148,1.148,0,1,0-1.147,1.119A1.085,1.085,0,0,0,1124.837,719.44Z" transform="translate(-1072.236 -716.083)"/><path class="f" d="M1131.694,718.144a2,2,0,0,1,2.041,2.191v.066c0,.158-.065.214-.233.214h-3.366a.7.7,0,0,0,.009.13,1.568,1.568,0,0,0,1.622,1.493,1.472,1.472,0,0,0,1.445-.821.38.38,0,0,1,.382.354.82.82,0,0,1-.354.55,2.286,2.286,0,0,1-1.483.476,2.173,2.173,0,0,1-2.266-2.3A2.208,2.208,0,0,1,1131.694,718.144Zm0,.541a1.567,1.567,0,0,0-1.539,1.446h2.919A1.366,1.366,0,0,0,1131.694,718.685Z" transform="translate(-1075.542 -716.419)"/><path class="f" d="M1140.8,718.629c0,.27-.187.382-.2.364a.73.73,0,0,0-.532-.187c-.728,0-1.063.718-1.063,1.837v1.762c0,.233-.121.317-.29.317h-.073c-.187,0-.309-.075-.309-.317v-4.122a.327.327,0,0,1,.242-.075c.187,0,.355.093.392.447.01.159.019.317.019.485a1.157,1.157,0,0,1,1.156-1C1140.534,718.144,1140.8,718.34,1140.8,718.629Z" transform="translate(-1079.228 -716.419)"/><path class="f" d="M1148.7,720.084h.1V719.9a1.078,1.078,0,0,0-1.2-1.174,1.42,1.42,0,0,0-1.362.792c-.019.009-.41-.01-.41-.345a.778.778,0,0,1,.27-.493,2.18,2.18,0,0,1,1.539-.532,1.633,1.633,0,0,1,1.827,1.762v2.751c0,.028-.121.075-.242.075-.2,0-.354-.094-.391-.429-.009-.13-.019-.271-.019-.411a1.829,1.829,0,0,1-1.65.9c-.933,0-1.511-.485-1.511-1.24C1145.652,720.541,1146.6,720.111,1148.7,720.084Zm.1.438-.159.009c-1.622.038-2.322.318-2.322,1,0,.467.373.756.97.756a1.4,1.4,0,0,0,1.511-1.333Z" transform="translate(-1082.287 -716.419)"/><path class="f" d="M1160.782,718.284v5.893c0,.233-.121.317-.308.317h-.065c-.186,0-.3-.084-.3-.317v-2.313a1.79,1.79,0,0,1-1.622.933,2.343,2.343,0,0,1,.028-4.653,1.741,1.741,0,0,1,1.6.9v-.28c.028-.457.224-.55.419-.55A.371.371,0,0,1,1160.782,718.284Zm-.672,1.5a1.522,1.522,0,0,0-1.491-1.073,1.559,1.559,0,0,0-1.511,1.754,1.581,1.581,0,0,0,1.5,1.762,1.468,1.468,0,0,0,1.5-1.463Z" transform="translate(-1086.789 -716.419)"/><path class="f" d="M1169.765,718.573V722.7a.346.346,0,0,1-.242.075c-.187,0-.354-.094-.392-.439-.009-.121-.019-.242-.019-.364a1.734,1.734,0,0,1-1.529.867c-1.147,0-1.706-.792-1.706-1.939v-2.332c0-.242.121-.317.3-.317h.075c.176,0,.3.075.3.317v2.285c0,.858.419,1.389,1.175,1.389a1.462,1.462,0,0,0,1.37-.9v-2.77c0-.242.122-.317.29-.317h.084C1169.645,718.256,1169.765,718.331,1169.765,718.573Z" transform="translate(-1090.729 -716.466)"/><path class="f" d="M1174.961,715.183a.388.388,0,0,1,.429.429.393.393,0,0,1-.439.42.383.383,0,0,1-.419-.42A.388.388,0,0,1,1174.961,715.183Zm-.345,2.117c0-.242.122-.326.3-.326h.075c.177,0,.3.075.3.326v3.87c0,.242-.121.317-.3.317h-.075c-.177,0-.3-.075-.3-.317Z" transform="translate(-1094.342 -715.183)"/><path class="f" d="M1179.677,718.144a2,2,0,0,1,2.042,2.191v.066c0,.158-.066.214-.233.214h-3.367a.652.652,0,0,0,.009.13,1.568,1.568,0,0,0,1.623,1.493,1.472,1.472,0,0,0,1.445-.821.381.381,0,0,1,.383.354.823.823,0,0,1-.355.55,2.282,2.282,0,0,1-1.483.476,2.173,2.173,0,0,1-2.265-2.3A2.208,2.208,0,0,1,1179.677,718.144Zm0,.541a1.566,1.566,0,0,0-1.539,1.446h2.919A1.365,1.365,0,0,0,1179.677,718.685Z" transform="translate(-1095.571 -716.419)"/><path class="f" d="M1190.2,720.074v2.332c0,.242-.121.317-.289.317h-.083c-.177,0-.3-.075-.3-.317v-2.275c0-.858-.41-1.39-1.165-1.39a1.473,1.473,0,0,0-1.38.9v2.77c0,.242-.122.317-.289.317h-.084c-.177,0-.3-.075-.3-.317v-4.122a.346.346,0,0,1,.242-.075c.2,0,.391.1.41.56v.26a1.687,1.687,0,0,1,1.529-.885C1189.637,718.144,1190.2,718.937,1190.2,720.074Z" transform="translate(-1099.258 -716.419)"/><path class="f" d="M1196.684,718.144a2,2,0,0,1,2.042,2.191v.066c0,.158-.065.214-.234.214h-3.366a.652.652,0,0,0,.009.13,1.567,1.567,0,0,0,1.622,1.493,1.472,1.472,0,0,0,1.445-.821.38.38,0,0,1,.382.354.821.821,0,0,1-.354.55,2.284,2.284,0,0,1-1.483.476,2.173,2.173,0,0,1-2.266-2.3A2.208,2.208,0,0,1,1196.684,718.144Zm0,.541a1.566,1.566,0,0,0-1.539,1.446h2.919A1.366,1.366,0,0,0,1196.684,718.685Z" transform="translate(-1102.67 -716.419)"/><path class="f" d="M1202.739,721.884a.361.361,0,0,1,.289-.327,1.762,1.762,0,0,0,1.511.7c.7,0,1.11-.3,1.11-.737,0-.522-.485-.625-1.24-.792-.68-.14-1.539-.336-1.539-1.24,0-.793.662-1.343,1.688-1.343a1.959,1.959,0,0,1,1.455.5.549.549,0,0,1,.168.354.371.371,0,0,1-.29.336,1.57,1.57,0,0,0-1.324-.661c-.681,0-1.073.308-1.073.736,0,.485.467.6,1.2.765s1.6.354,1.6,1.268c0,.811-.68,1.352-1.772,1.352a2.3,2.3,0,0,1-1.521-.466A.621.621,0,0,1,1202.739,721.884Z" transform="translate(-1106.116 -716.419)"/><path class="f" d="M1219.914,720.018v2.387c0,.242-.121.317-.3.317h-.075c-.177,0-.3-.075-.3-.317v-2.332c0-.858-.382-1.333-1.119-1.333a1.352,1.352,0,0,0-1.24.886v2.779c0,.242-.131.317-.3.317h-.074c-.177,0-.3-.075-.3-.317v-2.387c0-.811-.373-1.278-1.119-1.278a1.393,1.393,0,0,0-1.25.886v2.779c0,.242-.122.317-.289.317h-.084c-.168,0-.3-.075-.3-.317v-4.122a.346.346,0,0,1,.242-.075c.2,0,.391.1.41.55l.009.224a1.624,1.624,0,0,1,1.408-.839,1.452,1.452,0,0,1,1.473.989,1.661,1.661,0,0,1,1.548-.989C1219.354,718.144,1219.914,718.844,1219.914,720.018Z" transform="translate(-1110.471 -716.419)"/><path class="f" d="M1229.292,720.084h.1V719.9a1.078,1.078,0,0,0-1.2-1.174,1.419,1.419,0,0,0-1.361.792c-.019.009-.411-.01-.411-.345a.776.776,0,0,1,.271-.493,2.178,2.178,0,0,1,1.538-.532,1.633,1.633,0,0,1,1.827,1.762v2.751c0,.028-.12.075-.242.075-.2,0-.354-.094-.391-.429-.009-.13-.019-.271-.019-.411a1.831,1.831,0,0,1-1.65.9c-.933,0-1.511-.485-1.511-1.24C1226.243,720.541,1227.194,720.111,1229.292,720.084Zm.1.438-.159.009c-1.623.038-2.322.318-2.322,1,0,.467.372.756.97.756a1.4,1.4,0,0,0,1.51-1.333Z" transform="translate(-1115.927 -716.419)"/><path class="f" d="M1234.195,721.884a.361.361,0,0,1,.289-.327,1.761,1.761,0,0,0,1.511.7c.7,0,1.11-.3,1.11-.737,0-.522-.485-.625-1.24-.792-.681-.14-1.539-.336-1.539-1.24,0-.793.662-1.343,1.688-1.343a1.959,1.959,0,0,1,1.455.5.549.549,0,0,1,.168.354.371.371,0,0,1-.29.336,1.571,1.571,0,0,0-1.324-.661c-.68,0-1.073.308-1.073.736,0,.485.466.6,1.2.765s1.6.354,1.6,1.268c0,.811-.68,1.352-1.772,1.352a2.3,2.3,0,0,1-1.52-.466A.622.622,0,0,1,1234.195,721.884Z" transform="translate(-1119.246 -716.419)"/><path class="f" d="M1247.2,720.084h.1V719.9a1.078,1.078,0,0,0-1.2-1.174,1.422,1.422,0,0,0-1.362.792c-.018.009-.41-.01-.41-.345a.778.778,0,0,1,.27-.493,2.181,2.181,0,0,1,1.539-.532,1.633,1.633,0,0,1,1.828,1.762v2.751c0,.028-.122.075-.242.075-.2,0-.355-.094-.392-.429-.009-.13-.019-.271-.019-.411a1.829,1.829,0,0,1-1.651.9c-.932,0-1.511-.485-1.511-1.24C1244.146,720.541,1245.1,720.111,1247.2,720.084Zm.1.438-.159.009c-1.622.038-2.322.318-2.322,1,0,.467.373.756.969.756a1.4,1.4,0,0,0,1.511-1.333Z" transform="translate(-1123.4 -716.419)"/><path class="f" d="M1259.416,720.018v2.387c0,.242-.121.317-.3.317h-.074c-.177,0-.3-.075-.3-.317v-2.332c0-.858-.383-1.333-1.119-1.333a1.352,1.352,0,0,0-1.24.886v2.779c0,.242-.131.317-.3.317h-.075c-.177,0-.3-.075-.3-.317v-2.387c0-.811-.373-1.278-1.119-1.278a1.4,1.4,0,0,0-1.25.886v2.779c0,.242-.121.317-.289.317h-.083c-.168,0-.3-.075-.3-.317v-4.122a.347.347,0,0,1,.242-.075c.206,0,.392.1.411.55l.009.224a1.624,1.624,0,0,1,1.408-.839,1.452,1.452,0,0,1,1.473.989,1.66,1.66,0,0,1,1.548-.989C1258.857,718.144,1259.416,718.844,1259.416,720.018Z" transform="translate(-1126.96 -716.419)"/><path class="f" d="M1268.012,718.144a2.327,2.327,0,1,1-2.266,2.322A2.209,2.209,0,0,1,1268.012,718.144Zm0,.569a1.766,1.766,0,1,0,1.6,1.772A1.628,1.628,0,0,0,1268.012,718.713Z" transform="translate(-1132.416 -716.419)"/><path class="f" d="M1282.163,720.456a2.125,2.125,0,0,1-2.071,2.341,1.734,1.734,0,0,1-1.6-.933v2.313c0,.233-.122.317-.289.317h-.075c-.177,0-.3-.084-.3-.317v-5.893a.315.315,0,0,1,.234-.075c.2,0,.382.112.41.5,0,.112.009.261.009.382a1.776,1.776,0,0,1,1.632-.951A2.108,2.108,0,0,1,1282.163,720.456Zm-.662.01a1.585,1.585,0,0,0-1.511-1.754,1.564,1.564,0,0,0-1.51,1.073v.989a1.465,1.465,0,0,0,1.493,1.454A1.57,1.57,0,0,0,1281.5,720.466Z" transform="translate(-1137.458 -716.419)"/><path class="f" d="M1288.619,718.144a2.327,2.327,0,1,1-2.265,2.322A2.21,2.21,0,0,1,1288.619,718.144Zm0,.569a1.766,1.766,0,1,0,1.6,1.772A1.628,1.628,0,0,0,1288.619,718.713Z" transform="translate(-1141.018 -716.419)"/><path class="f" d="M1298.153,718.629c0,.27-.187.382-.206.364a.728.728,0,0,0-.532-.187c-.727,0-1.063.718-1.063,1.837v1.762c0,.233-.121.317-.289.317h-.075c-.186,0-.307-.075-.307-.317v-4.122a.325.325,0,0,1,.242-.075c.187,0,.354.093.391.447.009.159.019.317.019.485a1.156,1.156,0,0,1,1.156-1C1297.892,718.144,1298.153,718.34,1298.153,718.629Z" transform="translate(-1144.912 -716.419)"/></g></g></g></g></g><g transform="translate(36 31)"><g transform="translate(-23 -40)"><g class="l" transform="matrix(1, 0, 0, 1, 376, 1482)"><rect class="b" width="244" height="120" rx="5" transform="translate(249 193)"/></g><g transform="translate(647.869 1697.344)"><g class="c" transform="translate(163.535 68.587)"><g class="c"><path class="f" d="M1806.971,893.566v-4.9a1,1,0,0,1-.708.284.97.97,0,0,1-.613-.2.685.685,0,0,1-.232-.527.558.558,0,0,1,.307-.539.876.876,0,0,0,1.478-.561h.37c.318,0,.475.169.475.5v5.948c0,.327-.158.5-.475.5h-.137C1807.129,894.063,1806.971,893.894,1806.971,893.566Z" transform="translate(-1805.418 -887.03)"/><path class="f" d="M1810.41,893.4v-.263c0-1.406,1.088-2.028,2.113-2.535.9-.444,1.7-.782,1.7-1.521,0-.708-.518-1.131-1.394-1.131a1.62,1.62,0,0,0-1.67,1.31c0,.032-.718.042-.718-.528a1.534,1.534,0,0,1,.623-1.12,2.872,2.872,0,0,1,1.839-.591c1.489,0,2.387.771,2.387,2.038,0,1.225-.971,1.712-2.007,2.187-.9.4-1.637.782-1.817,1.51a1.493,1.493,0,0,0-.042.306h3.466c.358,0,.518.149.518.423v.063c0,.284-.159.444-.518.444h-3.8C1810.611,893.991,1810.41,893.831,1810.41,893.4Z" transform="translate(-1806.354 -887.01)"/><path class="f" d="M1817.875,893.706a1.245,1.245,0,0,1-.666-.9c0-.37.487-.592.518-.54a2.151,2.151,0,0,0,1.922,1.014c1,0,1.637-.528,1.637-1.352s-.571-1.32-1.543-1.32a2.537,2.537,0,0,0-1.595.466c-.453-.032-.666-.254-.666-.676v-2.6a.548.548,0,0,1,.56-.612h3.434q.507,0,.507.443v.053c0,.285-.169.433-.507.433h-3.032v1.954a3.414,3.414,0,0,1,1.4-.306,2.17,2.17,0,0,1,2.451,2.156c0,1.362-1.014,2.239-2.651,2.239A3.389,3.389,0,0,1,1817.875,893.706Z" transform="translate(-1807.628 -887.042)"/><path class="f" d="M1824.242,888.759v-.1a1.6,1.6,0,0,1,1.649-1.615,1.58,1.58,0,0,1,1.647,1.6v.095a1.612,1.612,0,0,1-1.658,1.615A1.578,1.578,0,0,1,1824.242,888.759Zm.5,4.933c0-.189.074-.316.306-.559l5.314-6.116c.041-.043.485.073.485.39a.937.937,0,0,1-.3.57l-5.324,6.106C1825.182,894.136,1824.739,893.989,1824.739,893.692Zm1.986-4.912v-.158a.854.854,0,0,0-.845-.919.84.84,0,0,0-.834.919v.158a.851.851,0,0,0,.846.909A.837.837,0,0,0,1826.724,888.78Zm1.373,3.677v-.1a1.613,1.613,0,0,1,1.658-1.617,1.577,1.577,0,0,1,1.637,1.6v.1a1.6,1.6,0,0,1-1.647,1.616A1.581,1.581,0,0,1,1828.1,892.457Zm2.494.02v-.158a.855.855,0,0,0-.845-.92.841.841,0,0,0-.835.92v.158a.843.843,0,1,0,1.68,0Z" transform="translate(-1808.947 -887.008)"/></g></g><g class="c" transform="translate(2.026 67.775)"><g class="c"><path class="f" d="M1606.652,892.4v-.263c0-1.406,1.088-2.028,2.114-2.535.9-.444,1.7-.782,1.7-1.521,0-.708-.518-1.131-1.394-1.131a1.621,1.621,0,0,0-1.67,1.31c0,.032-.718.042-.718-.528a1.534,1.534,0,0,1,.623-1.12,2.871,2.871,0,0,1,1.839-.591c1.489,0,2.386.771,2.386,2.038,0,1.225-.971,1.712-2.007,2.187-.9.4-1.636.782-1.817,1.51a1.484,1.484,0,0,0-.042.306h3.466c.358,0,.518.149.518.423v.063c0,.284-.159.444-.518.444h-3.8C1606.853,892.991,1606.652,892.831,1606.652,892.4Z" transform="translate(-1606.652 -886.01)"/><path class="f" d="M1614.117,892.706a1.245,1.245,0,0,1-.666-.9c0-.37.487-.592.518-.54a2.152,2.152,0,0,0,1.922,1.014c1,0,1.637-.528,1.637-1.352s-.57-1.32-1.543-1.32a2.537,2.537,0,0,0-1.595.466c-.453-.032-.666-.254-.666-.676v-2.6a.548.548,0,0,1,.561-.612h3.433c.338,0,.507.147.507.443v.053c0,.285-.169.433-.507.433h-3.032v1.954a3.409,3.409,0,0,1,1.4-.306,2.17,2.17,0,0,1,2.451,2.156c0,1.362-1.014,2.239-2.651,2.239A3.384,3.384,0,0,1,1614.117,892.706Z" transform="translate(-1607.926 -886.042)"/><path class="f" d="M1620.484,887.759v-.1a1.6,1.6,0,0,1,1.649-1.615,1.579,1.579,0,0,1,1.647,1.6v.1a1.612,1.612,0,0,1-1.658,1.615A1.578,1.578,0,0,1,1620.484,887.759Zm.5,4.933c0-.189.075-.316.307-.559l5.313-6.116c.042-.043.485.073.485.39a.937.937,0,0,1-.3.57l-5.324,6.106C1621.425,893.136,1620.98,892.989,1620.98,892.692Zm1.986-4.912v-.158a.853.853,0,0,0-.845-.919.84.84,0,0,0-.834.919v.158a.851.851,0,0,0,.845.909A.837.837,0,0,0,1622.966,887.78Zm1.373,3.677v-.1a1.614,1.614,0,0,1,1.659-1.617,1.577,1.577,0,0,1,1.636,1.6v.1a1.6,1.6,0,0,1-1.647,1.616A1.581,1.581,0,0,1,1624.34,891.457Zm2.494.02v-.158a.855.855,0,0,0-.845-.92.841.841,0,0,0-.835.92v.158a.843.843,0,1,0,1.68,0Z" transform="translate(-1609.245 -886.008)"/></g></g><g class="g" transform="translate(10.564 45.503)"><path class="f" d="M1619.19,858.6h153.573a2.032,2.032,0,0,1,2.031,2.031h0a2.032,2.032,0,0,1-2.031,2.031H1619.19a2.031,2.031,0,0,1-2.031-2.031h0A2.031,2.031,0,0,1,1619.19,858.6Z" transform="translate(-1617.159 -858.599)"/></g><g transform="translate(160.074 36.565)"><circle class="h" cx="10.97" cy="10.97" r="10.97"/></g><g transform="translate(0 36.565)"><circle class="h" cx="10.97" cy="10.97" r="10.97"/></g><g class="c" transform="translate(157.072 8.745)"><g class="c"><path class="d" d="M1799.495,821.672v-5.636a1.23,1.23,0,0,1-.8.29,1.355,1.355,0,0,1-.884-.317,1.112,1.112,0,0,1-.345-.83.976.976,0,0,1,.538-.966,1.287,1.287,0,0,0,.843.3,1.2,1.2,0,0,0,1.174-1.037h.594c.58,0,.884.318.884.94v7.251a.818.818,0,0,1-.884.939h-.262C1799.785,822.612,1799.495,822.28,1799.495,821.672Z" transform="translate(-1797.465 -813.384)"/><path class="d" d="M1804.366,821.457v-.428c0-1.713,1.464-2.542,2.734-3.163,1.119-.525,2.045-.884,2.045-1.657s-.539-1.188-1.506-1.188a1.891,1.891,0,0,0-1.92,1.561c0,.028-1.326.084-1.326-.939a1.988,1.988,0,0,1,.87-1.546,4.134,4.134,0,0,1,2.5-.733c2.141,0,3.357,1.05,3.357,2.763,0,1.657-1.229,2.251-2.529,2.817-1.035.428-1.933.815-2.265,1.561a1.263,1.263,0,0,0-.124.318h4.075c.69,0,.966.276.966.76v.1c0,.524-.276.815-.966.815H1805.6C1804.67,822.493,1804.366,822.286,1804.366,821.457Z" transform="translate(-1798.759 -813.362)"/><path class="d" d="M1814.413,822.151a1.542,1.542,0,0,1-.884-1.188,1.126,1.126,0,0,1,.843-.953,2.973,2.973,0,0,0,2.459,1.2c1.146,0,1.85-.566,1.85-1.464s-.635-1.423-1.781-1.423a2.874,2.874,0,0,0-1.837.553c-.8-.027-1.2-.373-1.2-1.188v-2.956c0-.718.3-1.132.98-1.132h4.324c.635,0,.953.262.953.8v.069c0,.539-.3.787-.953.787h-3.605v2a4.34,4.34,0,0,1,1.63-.331c1.988,0,3.3,1.077,3.3,2.832,0,1.81-1.4,2.97-3.633,2.97A4.8,4.8,0,0,1,1814.413,822.151Z" transform="translate(-1800.476 -813.407)"/><path class="d" d="M1822.879,815.671v-.111a2.109,2.109,0,0,1,2.238-2.14,2.083,2.083,0,0,1,2.21,2.127v.11a2.226,2.226,0,0,1-4.448.013Zm.7,6.34a.986.986,0,0,1,.373-.7l6.947-7.915c.069-.082.829.125.829.622a1.218,1.218,0,0,1-.373.732l-6.947,7.9C1824.343,822.73,1823.583,822.5,1823.583,822.012Zm2.445-6.284v-.222a.937.937,0,0,0-.926-1.049.923.923,0,0,0-.925,1.049v.222a.93.93,0,0,0,.939,1.021A.91.91,0,0,0,1826.029,815.727Zm2,4.765v-.111a2.116,2.116,0,0,1,2.238-2.141,2.075,2.075,0,0,1,2.209,2.126v.111a2.225,2.225,0,0,1-4.447.014Zm3.163.041v-.221a.945.945,0,0,0-.925-1.05.923.923,0,0,0-.926,1.05v.221a.931.931,0,1,0,1.851,0Z" transform="translate(-1802.229 -813.364)"/></g></g><g transform="translate(160.074 36.565)"><circle class="d" cx="10.97" cy="10.97" r="10.97"/></g><g transform="translate(145.446 0)"><g transform="translate(0.002)"><path class="i" d="M1806.073,829.887h-18.039a4.875,4.875,0,0,1-4.875-4.875h0V807.474a4.875,4.875,0,0,1,4.875-4.875h42.253a4.876,4.876,0,0,1,4.875,4.875v17.538a4.876,4.876,0,0,1-4.875,4.875h-18.923l-2.644,4.4Z" transform="translate(-1783.159 -802.599)"/></g><g transform="translate(0 0.001)"><path class="j" d="M1808.719,832.712l1.949-3.243.236-.393h19.384a4.067,4.067,0,0,0,4.062-4.063V807.475a4.067,4.067,0,0,0-4.062-4.063h-42.257a4.067,4.067,0,0,0-4.062,4.063v17.537a4.067,4.067,0,0,0,4.062,4.063h18.5l.237.393,1.948,3.243m0,1.578-2.644-4.4h-18.044a4.874,4.874,0,0,1-4.875-4.875V807.475a4.874,4.874,0,0,1,4.875-4.875h42.257a4.874,4.874,0,0,1,4.875,4.875v17.537a4.874,4.874,0,0,1-4.875,4.875h-18.925Z" transform="translate(-1783.157 -802.6)"/></g></g></g></g><text class="k" transform="translate(620 1647)"><tspan x="4.615" y="13">Porcentaje de </tspan><tspan x="13.134" y="30">devolución</tspan></text></g></g></svg>