<svg xmlns="http://www.w3.org/2000/svg" xmlns:xlink="http://www.w3.org/1999/xlink" width="160" height="160" viewBox="0 0 160 160"><defs><style>.a{fill:#fff;}.b{fill:none;}.c{clip-path:url(#c);}.d{fill:#f1f4f9;}.e{fill:#f7ad83;}.f{fill:#ff7434;}.g{fill:#0061bc;}.h{fill:#ff409e;}.i{fill:#ffc422;}.j{fill:#0af;}.k{fill:#ffcdaa;}.l{fill:#00457f;}.m{fill:#ffaf97;}.n{fill:#0075dc;}.o{fill:#002168;}.p{clip-path:url(#f);}.q{fill:#ffb65e;}.r{opacity:0.38;}.aa,.r{isolation:isolate;}.s{fill:#d98a32;}.t{fill:#ffc75c;}.u{fill:#031f59;}.v{fill:#fbfffb;}.w{fill:#1c5cc1;}.x{fill:#134aa3;}.y{fill:#132787;}.z{fill:#d54f1f;}.aa{opacity:0.19;}.ab{fill:#ff6700;}.ac{fill:#00418b;}.ad{clip-path:url(#g);}.ae{clip-path:url(#h);}.af{fill:#162457;}.ag{clip-path:url(#i);}.ah{clip-path:url(#j);}.ai{fill:#1e3760;}.aj{clip-path:url(#k);}.ak{clip-path:url(#m);}.al{fill:#3a5bbb;}.am{clip-path:url(#o);}.an{filter:url(#d);}.ao{filter:url(#a);}</style><filter id="a" x="0" y="0" width="160" height="160" filterUnits="userSpaceOnUse"><feOffset dy="3" input="SourceAlpha"/><feGaussianBlur stdDeviation="3" result="b"/><feFlood flood-color="#004596" flood-opacity="0.102"/><feComposite operator="in" in2="b"/><feComposite in="SourceGraphic"/></filter><clipPath id="c"><circle class="a" cx="71" cy="71" r="71" transform="translate(0.364 -0.35)"/></clipPath><filter id="d" x="-83.82" y="-23.667" width="311.861" height="238.889" filterUnits="userSpaceOnUse"><feOffset dy="3" input="SourceAlpha"/><feGaussianBlur stdDeviation="3" result="e"/><feFlood flood-color="#145eb4" flood-opacity="0.161"/><feComposite operator="in" in2="e"/><feComposite in="SourceGraphic"/></filter><clipPath id="f"><path class="b" d="M762.619,180.141l5.6,13.451-7.73,1.64-.48-14.851Z" transform="translate(-760.008 -180.141)"/></clipPath><clipPath id="g"><path class="b" d="M4.512,26.145c1.013-2.222-3.721-1.193-4.5-3.508-.3-.712,4.807-9.822,5.334-11.835a13.426,13.426,0,0,0,.394-5.259,12.231,12.231,0,0,1-.222-3.2A2.63,2.63,0,0,1,7.4,0a3.525,3.525,0,0,0,2.623,3.2,8.322,8.322,0,0,0,6.855-1.845c-.416,4.685-1.153,11.431,2.1,14.811,1.172,1.2,2.58,2.318,3.089,3.922.925,2.893-2.793,7.322-4.557,8.7-3.315,3.184-9.319,4.3-9.971,3.741-2.251-1.644-.271-6.636-3-7.185" transform="translate(0 0)"/></clipPath><clipPath id="h"><path class="b" d="M0,0H2601.643V2782.314H0Z" transform="translate(0 0)"/></clipPath><clipPath id="i"><path class="b" d="M9.791,22.737,8.788,0S3.594,6.3,1.106,7.473s0,10.594,0,10.594L6.119,22.8,7.361,23.98Z" transform="translate(0 0)"/></clipPath><clipPath id="j"><path class="b" d="M0,0H2714V2741.537H0Z" transform="translate(0 0)"/></clipPath><clipPath id="k"><path class="b" d="M53.686,13.265c-5.422-2.672-11.337-4.734-17.375-4.472-8.1.365-15.382,4.806-22.305,9.048a12.032,12.032,0,0,1-3.615,1.675,4.082,4.082,0,0,1-3.729-.9,4.818,4.818,0,0,1-1.154-2.8A12.8,12.8,0,0,1,10.95,3.664c-.143-1.173-.1-2.492-.238-3.664A12.8,12.8,0,0,0,7.5,1.808,18.387,18.387,0,0,0,1.395,9.722C-.53,14.527-.316,20.1,1.143,25.106A59,59,0,0,0,7.951,39.2a8.925,8.925,0,0,0,1.978,2.462c1.751,1.357,4.291,1.212,6.318.329a26.336,26.336,0,0,0,5.422-3.8,11.9,11.9,0,0,1,5.874-2.885,13.129,13.129,0,0,1,3.395.209c2.229.354,4.452.761,6.652,1.232a19.823,19.823,0,0,0,4.291.625,12.473,12.473,0,0,0,7.691-3.059,37.173,37.173,0,0,0,5.655-6.181l4.009-5.1a2.021,2.021,0,0,0,.58-1.279,2.055,2.055,0,0,0-.52-1.07l-6.376-8.19" transform="translate(0 0)"/></clipPath><clipPath id="m"><path class="b" d="M46.969,2.457C41.26,1.333,35.632-.178,29.805.957c-5.135.963-9.845,3.711-14.154,6.557C11.123,10.5,5.074,15.4.105,10.4c-.327-.336.184-.849.509-.51C5.538,14.912,11.642,9.257,16,6.478a49.559,49.559,0,0,1,9.193-4.854C32.74-1.261,39.554.28,47.209,1.79c.461.085.269.79-.192.694Z" transform="translate(0 0)"/></clipPath><clipPath id="o"><path class="b" d="M42.859.612c-5.606,5.27-12.5,3.848-19.449,4.471-5.306.5-8.2,3.76-12.372,6.508A17.077,17.077,0,0,1,.346,14.359c-.461,0-.461-.748,0-.721,5.664.287,9.364-1.98,13.662-5.223a18.642,18.642,0,0,1,6.354-3.568C27.957,2.8,35.878,6.174,42.351.1c.334-.311.854.2.508.515" transform="translate(0 0)"/></clipPath></defs><g transform="translate(-383 -1168)"><g class="ao" transform="matrix(1, 0, 0, 1, 383, 1168)"><circle class="a" cx="71" cy="71" r="71" transform="translate(9 6)"/></g><g class="c" transform="translate(391.637 1174.351)"><g transform="translate(-83.457 -24.017)"><g class="an" transform="matrix(1, 0, 0, 1, 74.82, 17.67)"><rect class="d" width="293.861" height="220.889" transform="translate(-74.82 -17.67)"/></g><g transform="translate(57.356 28.023)"><g transform="translate(0 18.647)"><g transform="translate(0 0)"><g transform="translate(0 0)"><g transform="translate(43.645 188.491)"><path class="b" d="M870.36,345.176H673.049a16.825,16.825,0,0,1-16.826-16.825c83.744,5.99,179.339-14.658,230.962-51.368v51.368A16.825,16.825,0,0,1,870.36,345.176Z" transform="translate(-656.223 -276.983)"/></g><g transform="translate(82.69 8.214)"><path class="e" d="M782.528,167.67l-5.145-3.81-3.4-.924a1.726,1.726,0,0,0-1.959.918h0a.816.816,0,0,0,.382,1.049l3.726,1.6,2.568,3.96-5.478-1.773-3.326,1.722a1.049,1.049,0,0,0-.582,1.215h0a1.132,1.132,0,0,0,1.491.89l2.391-.747,9.356,3.312s-11.527.09-10.572,4.034l6.9-1.376,1.622-5.413Z" transform="translate(-769.288 -162.889)"/></g><g transform="translate(36.577 97.248)"><g transform="translate(0 0)"><ellipse class="a" cx="1.759" cy="1.759" rx="1.759" ry="1.759" transform="matrix(-0.998, -0.056, 0.056, -0.998, 3.512, 3.708)"/></g></g><g transform="translate(55.1 83.031)"><path class="f" d="M795.31,210.239a2.365,2.365,0,0,0-.447.122Z" transform="translate(-794.863 -210.239)"/></g><g transform="translate(43.13 110.263)"><ellipse class="g" cx="0.659" cy="0.659" rx="0.659" ry="0.659"/></g><g transform="translate(10.789 149.577)"><path class="h" d="M816.334,253.984l9.348,4.778,1.484-1.605-2.588-2.272s-3.62-2.184-3.762-2.264c-.217-.087-2.114-.266-2.114-.266Z" transform="translate(-816.334 -252.355)"/></g><g transform="translate(9.05 152.352)"><path class="h" d="M818.822,254.111l9.356,4.633-1.468,2.634-1.931.406s-3.027-.977-3.317-1.067a17.186,17.186,0,0,1-2.986-1.708,2.662,2.662,0,0,1-.659-1.357c-.052-.37-.231-1.114-.231-1.114Z" transform="translate(-817.587 -254.111)"/></g><g transform="translate(2.548 153.682)"><path class="h" d="M826.187,254.953s-4.535,7.6-7.885,12.4l7.689,4.246s4.309-3.576,8.275-11.5Z" transform="translate(-818.302 -254.953)"/></g><g transform="translate(8.265 154.368)"><path class="i" d="M818.107,255.387l10.555,5.507-2.171.76a4.925,4.925,0,0,1-3.8-.359l-1.711-.9a5.31,5.31,0,0,1-2.771-4.265Z" transform="translate(-818.107 -255.387)"/></g><g transform="translate(8.339 148.13)"><path class="i" d="M828.128,254.465l-5.573-2.732a2.857,2.857,0,0,0-3.731,1.112l-2.765,4.837,1.21.654,2.765-4.837c0-.073.078-.068.155-.137,1.572.747,6.429,3.147,8.213,4.054a1.035,1.035,0,0,1-.171.431l-2.992,4.97,1.373.37,2.757-4.69a2.745,2.745,0,0,0,.273-2.259A3.032,3.032,0,0,0,828.128,254.465Z" transform="translate(-816.059 -251.439)"/></g><g transform="translate(29.634 102.286)"><g transform="translate(0 0)"><ellipse class="g" cx="0.953" cy="0.953" rx="0.953" ry="0.953" transform="matrix(-0.998, -0.056, 0.056, -0.998, 1.902, 2.008)"/></g></g><g transform="translate(32.408 131.037)"><path class="j" d="M811.193,242.218l-.078.07c-.252.572-1.671,3.648-2.566,5.214l-1.756-1.419a12.717,12.717,0,0,1-.142-2.724,10.317,10.317,0,0,1,1.067-2,5.568,5.568,0,0,1,1.142-.743" transform="translate(-806.601 -240.621)"/></g><g transform="translate(42.788 101.843)"><path class="k" d="M802.33,228.716s1.46-1.166,2.176-4.8l-1.588-1.776-1.558.28-1.125.45.114.594Z" transform="translate(-800.235 -222.145)"/></g><g transform="translate(19.714 122.4)"><path class="j" d="M814.88,242.148l2.225-6.993s1.857,2.231,1.923,2.381.06,2.866.052,3.013a6.63,6.63,0,0,1-.188.722Z" transform="translate(-814.88 -235.155)"/></g><g transform="translate(18.071 104.529)"><path class="g" d="M804.636,251.024l4.931-16.016,3.16-8.714c2.444.044,9.886.634,13.223,6L828.024,231c-4.772-7.671-15.75-7.175-16.221-7.142l-.806.043-3.745,10.326L802.3,250.3Z" transform="translate(-802.302 -223.845)"/></g><g transform="translate(82.367 34.46)"><g transform="translate(0 0)"><rect class="g" width="2.441" height="14.72" transform="translate(0.401 4.828) rotate(-99.462)"/></g></g><g transform="translate(93.49 32.461)"><g transform="translate(0 0)"><ellipse class="g" cx="0.953" cy="0.953" rx="0.953" ry="0.953" transform="matrix(-0.998, -0.056, 0.056, -0.998, 1.902, 2.008)"/></g></g><g transform="translate(80.667 5.03)"><path class="k" d="M780.041,187l-.186-1.918s7.05-10.615,6.921-10.915c-.126-.374-6.009-12.005-6.009-12.005l-6.682-1.253a1.524,1.524,0,0,0-1.841,1.438h0a.858.858,0,0,0,.613.842l5.059,1.383,1.272,4.841-5.657-3.838-4.914-.054a1.025,1.025,0,0,0-.915.608h0a1.039,1.039,0,0,0,.727,1.436l3.495.488,4.085,4.412-6.044-2.173-3.6.093a.851.851,0,0,0-.845.686h0a.859.859,0,0,0,.673,1.065l3.2.545,3.364,4.151a10.726,10.726,0,0,0-5.3,6.9l.433,5.382Z" transform="translate(-765.497 -160.873)"/></g><g transform="translate(63.791 13.092)"><path class="l" d="M788.92,165.976s-7.06,9.381-2.66,24.772l5.489-5.491s.21-7.191.66-7.44S788.92,165.976,788.92,165.976Z" transform="translate(-784.816 -165.976)"/></g><g transform="translate(50.403 80.618)"><path class="m" d="M759.732,214.923l21-6.211,22,4.4,18.692,6.6s4.4,19.792-2.192,23.091-24.2,5.5-25.292,6.6-11,1.09-15.4-1.1-7.7-4.4-9.9-5.5-13.19-13.2-13.19-13.2Z" transform="translate(-755.452 -208.712)"/></g><g transform="translate(9.279 186.23)"><path class="n" d="M852.816,297.633a196.367,196.367,0,0,1-22.643-22.081H774.718l5.32,22.081Z" transform="translate(-774.718 -275.552)"/></g><g transform="translate(89.077 27.043)"><path class="o" d="M772.289,180.654l5.532-1.8a5.86,5.86,0,0,0-10.046-1.972,5.758,5.758,0,0,0-1.337,3.016Z" transform="translate(-766.438 -174.805)"/></g><g transform="translate(103.489 26.438)"><path class="o" d="M764.215,181.251l.163-.2-.062.07A1.159,1.159,0,0,1,764.215,181.251Zm-1.123-.983,5.615-1.725a5.748,5.748,0,0,0-1.839-2.748,5.843,5.843,0,0,0-8.2.673l-.164.2a5.558,5.558,0,0,0-1.2,2.846Z" transform="translate(-757.305 -174.422)"/></g><g transform="translate(86.356 25.055)"><g transform="translate(0 0)"><rect class="o" width="2.4" height="10.051" rx="0.329" transform="translate(0.653 5.043) rotate(-105.78)"/></g></g><g transform="translate(106.402 25.35)"><g transform="translate(0 0)"><rect class="o" width="10.051" height="2.4" rx="0.329" transform="translate(10.011 3.286) rotate(-174.89)"/></g></g><g transform="translate(102.409 35.474)"><g class="p"><g transform="translate(0)"><rect class="q" width="8.211" height="15.092"/></g></g></g><g class="r" transform="translate(63.956 27.513)"><path class="s" d="M791.813,175.1s-7.191-.191-6.071,8.261C785.754,183.364,786.533,176.344,791.813,175.1Z" transform="translate(-785.624 -175.103)"/></g><g transform="translate(67.305 49.625)"><path class="t" d="M788.49,190.017l-2.911-.92v.67a7.484,7.484,0,0,0,1.719.321A7.911,7.911,0,0,0,788.49,190.017Z" transform="translate(-785.579 -189.097)"/></g><g transform="translate(63.034)"><path class="m" d="M765.8,157.69l-5.771,26.174a7.8,7.8,0,0,0-1.18-.161c-4.581-.09,0,4.291-.16,9.522-.09,4.551-2.381.49-1.941,9.171v1.111l2.92-1a7.7,7.7,0,0,1-1.19.109,6.961,6.961,0,0,1-1.721-.25l-3.07,41.444,40.924,4.911-2.839-15.292c.871.1,2.2,2.631,3.07,2.58,7.792-.46,11.481-10.37,13.691-17.621l.171-44.579V173.2l1.094-.318-.763-5.93Z" transform="translate(-753.686 -157.69)"/></g><g transform="translate(91.592 32.102)"><ellipse class="u" cx="1.95" cy="2.23" rx="1.95" ry="2.23"/></g><g transform="translate(109.569 31.841)"><ellipse class="u" cx="1.82" cy="2.05" rx="1.82" ry="2.05"/></g><g transform="translate(89.063 25.578)"><path class="u" d="M770.141,176.707l5.835-1.041-.5-1.788-5.835,1.041Z" transform="translate(-769.643 -173.878)"/></g><g transform="translate(111.667 25.183)"><g transform="translate(0 0)"><rect class="u" width="4.772" height="1.831" transform="translate(4.71 2.578) rotate(-170.709)"/></g></g><g transform="translate(102.138 54.065)"><path class="v" d="M768.115,191.907l-7.462.591S766.475,199.188,768.115,191.907Z" transform="translate(-760.654 -191.907)"/></g><g transform="translate(134.591 143.433)"><path class="m" d="M744.983,250.869l17.771,78.618-19.132,14.9L717.95,289.852l-2-20.582-2-14.671s5-2.631,4.382-5.262S744.983,250.869,744.983,250.869Z" transform="translate(-713.949 -248.467)"/></g><g transform="translate(138.012 101.93)"><path class="w" d="M731.419,222.2l3.92,2.58a27.5,27.5,0,0,1,9.4,13.932l8.15,28.053-27,2.861-.831-20,2.09-14.052C727.478,233.112,731.419,222.2,731.419,222.2Z" transform="translate(-725.057 -222.2)"/></g><g transform="translate(17.14 85.247)"><path class="w" d="M731.976,224.326l5.12-1.681c18.872-5.851,25.183-7.94,36.684-11-1.1-.291,4.65,25.562,23.093,29.4,13.421,2.79,27.672-1.8,26.653-25.371,0-.45,34.213,12.55,34.213,12.55L870.55,368.61,752.877,384,730.6,291.791Z" transform="translate(-730.595 -211.641)"/></g><g transform="translate(17.41 143.274)"><path class="x" d="M755.942,248.366s14,53.917,115.141,103.4l-119.872,11-22-91.27Z" transform="translate(-729.209 -248.366)"/></g><g transform="translate(1.469 90.72)"><path class="w" d="M800.365,268.031l45.384,1.839-5.331-54.765-20.732,6.3a25.675,25.675,0,0,0-6.489,3,27.534,27.534,0,0,0-12.453,26.163Z" transform="translate(-800.365 -215.105)"/></g><g transform="translate(110.489 226.944)"><path class="m" d="M747.832,303.319l23.622,8c3.631,1.48,3.37,4.77,4.721,8.452h0a5.428,5.428,0,0,1-2.561,6.669l-5,2.621a5.383,5.383,0,0,1-7.273-2.239c-.065-.122-.123-.246-.179-.371l-1-2.21L749.812,322.7a11.792,11.792,0,0,1-8.771-6.3l-.64-1.261-8.612-1.28,4.6-12.541,9.131,1.361A10.216,10.216,0,0,1,747.832,303.319Z" transform="translate(-731.789 -301.319)"/></g><g transform="translate(47.122 116.755)"><g transform="translate(0 0)"><rect class="y" width="35.771" height="1.221" transform="translate(4.05 35.679) rotate(-96.501)"/></g></g><g transform="translate(68.054 76.319)"><path class="b" d="M785.788,207.35c.792-.539,1.391-1,1.832-1.359A18.057,18.057,0,0,1,785.788,207.35Z" transform="translate(-785.788 -205.991)"/></g><g transform="translate(1.429 144.676)"><path class="m" d="M797.641,249.253l2.239,55.265,74.007,30.5v13.1l-92.169-11a26.881,26.881,0,0,1-23.582-23.9l-6.21-59.486Z" transform="translate(-751.926 -249.253)"/></g><g transform="translate(0 134.235)"><path class="y" d="M849.336,261.606,800.612,265.2a2.471,2.471,0,0,1-2.64-2.252l-1.25-14.7a2,2,0,0,1,1.808-2.176l.052,0,48.556-3.419Z" transform="translate(-796.713 -242.645)"/></g><g transform="translate(105.031 33.924)"><path class="z" d="M759.634,195.566c3.65-1.239,5.74-2.906,6.213-4.952.534-2.315-1.1-4.532-2.563-5.984a6.018,6.018,0,0,1-1.492-4.348V179.16h-.732v1.1a6.742,6.742,0,0,0,1.694,4.874c1.346,1.337,2.838,3.329,2.378,5.315-.411,1.782-2.34,3.271-5.734,4.426Z" transform="translate(-759.398 -179.16)"/></g><g transform="translate(114.17 47.735)"><path class="l" d="M757.941,194.372l1.19-6.471-.4,11.991-3.33-.46Z" transform="translate(-755.4 -187.901)"/></g><g class="aa" transform="translate(70.105 45.155)"><path class="ab" d="M792.294,224.512h5.25l-3.931-15.241-28.473-23,1.12,13.772A26.472,26.472,0,0,0,783.743,223.1,26.762,26.762,0,0,0,792.294,224.512Z" transform="translate(-765.141 -186.268)"/></g><g transform="translate(101.329 80.146)"><path class="z" d="M766.124,223.258l1.2-.224-2.711-14.622-1.2.224Z" transform="translate(-763.414 -208.413)"/></g><g transform="translate(74.586 25.144)"><path class="ac" d="M782.769,173.6l.07.6A4.277,4.277,0,0,0,782.769,173.6Z" transform="translate(-782.769 -173.603)"/></g><g transform="translate(64.464 25.833)"><path class="t" d="M789.056,174.039a4.954,4.954,0,0,0-2.141.5,22.3,22.3,0,0,0,.85,2.481,5.107,5.107,0,0,0,1.931,2.59,2.981,2.981,0,0,0,.86.319V174.29A4.991,4.991,0,0,0,789.056,174.039Z" transform="translate(-786.915 -174.039)"/></g><g transform="translate(86.106 29.863)"><path class="a" d="M772.855,188.96a10.035,10.035,0,0,0,9.863-11.871l-.093-.5H763.071l-.088.507a11.152,11.152,0,0,0-.158,1.778v0a10.044,10.044,0,0,0,9.98,10.084Zm8.741-11.149a8.963,8.963,0,0,1,.071,1.163,8.823,8.823,0,0,1-8.812,8.765h-.044a8.822,8.822,0,0,1-8.766-8.855h0a10.6,10.6,0,0,1,.068-1.073Z" transform="translate(-762.825 -176.59)"/></g><g transform="translate(107.64 29.863)"><path class="a" d="M759.406,188.922c5.162,0,9.36-4.5,9.36-10.043a9.941,9.941,0,0,0-.16-1.787l-.09-.5H750.293l-.087.506a10.656,10.656,0,0,0-.159,1.781C750.046,184.418,754.244,188.922,759.406,188.922Zm8.076-11.111a8.939,8.939,0,0,1,.065,1.068c0,4.863-3.652,8.822-8.141,8.822s-8.141-3.958-8.141-8.822a10.083,10.083,0,0,1,.066-1.068Z" transform="translate(-750.046 -176.59)"/></g><g transform="translate(100.138 29.863)"><rect class="a" width="14.822" height="1.221"/></g><g transform="translate(68.392 24.505)"><g transform="translate(0 0)"><rect class="a" width="19.494" height="1.22" transform="translate(18.706 6.657) rotate(-163.655)"/></g></g><g class="aa" transform="translate(148.293 147.695)"><path class="ab" d="M734.007,251.164l6.6,37.394-9.071-4.531-3.03-31.753Z" transform="translate(-728.506 -251.164)"/></g><g transform="translate(148.474 136.41)"><path class="y" d="M740.922,255.137,725.1,257.758l-.57-12.412,14.791-1.321a2,2,0,0,1,2.111,1.73l1.25,6.632A2.319,2.319,0,0,1,740.922,255.137Z" transform="translate(-724.53 -244.021)"/></g><g transform="translate(145.845 122.236)"><path class="y" d="M737.9,263.019l1.216-.114-2.59-27.853-1.216.114Z" transform="translate(-735.306 -235.051)"/></g><g transform="translate(53.628 209.121)"><path class="z" d="M785.886,308.134c1.964-16.681,16.658-16.874,16.805-16.874v-1.221c-.158,0-15.929.205-18.018,17.953Z" transform="translate(-784.674 -290.039)"/></g><g transform="translate(61.841 212.504)"><path class="z" d="M779.72,307c4.9-15.662,17.554-13.59,18.09-13.494l.218-1.2c-.144-.021-14.243-2.384-19.474,14.333Z" transform="translate(-778.554 -292.18)"/></g><g transform="translate(71.038 214.822)"><path class="z" d="M777.151,310.111c.978-14.619,12.7-15.225,13.2-15.244l-.043-1.22c-.131,0-13.323.643-14.377,16.382Z" transform="translate(-775.933 -293.647)"/></g><g transform="translate(79.147 216.8)"><path class="z" d="M771.9,310.5l1.218-.09c-.4-5.181.937-9.1,3.96-11.647a10.964,10.964,0,0,1,6.943-2.624l.606-1.041c-.634-.488-3.716-.071-6.307,1.346C775.036,298.236,771.261,302.133,771.9,310.5Z" transform="translate(-771.827 -294.899)"/></g><g transform="translate(87.169 217.7)"><path class="z" d="M768.99,311.164l1.2-.2c-1.921-11.583,7.793-14.2,8.208-14.311l-.3-1.183C777.991,295.5,766.881,298.455,768.99,311.164Z" transform="translate(-768.724 -295.469)"/></g><g transform="translate(25.159 199.118)"><path class="z" d="M799.81,295.042c5.8-12.361,22.854-9.929,23.028-9.909l.185-1.206c-.182-.027-18.127-2.594-24.317,10.594Z" transform="translate(-798.705 -283.709)"/></g><g class="aa" transform="translate(25.712 153.576)"><path class="ab" d="M820.536,254.886l1.9,46.375s-12.88-1.751-20.351,5.519l-3.32-50.3Z" transform="translate(-798.764 -254.886)"/></g><g transform="translate(94.326 54.462)"><path class="a" d="M774.587,192.158s-1.062,1.8-.632,5.725c0,0-9.537.545-10.991-5.725C762.964,192.158,772.274,193.033,774.587,192.158Z" transform="translate(-762.964 -192.158)"/></g><g transform="translate(67.942 24.934)"><path class="u" d="M761.623,185.791s.31,12.89,8.141,15.87c0,0,25-7.72,35.183,1.1,0,0,4.742,27.263-18.421,26,0,0-32.444,4.871-31.064-41.414v-11l3.4-2.88Z" transform="translate(-755.42 -173.47)"/></g><g transform="translate(90.256 52.959)"><path class="z" d="M764.238,191.207s11.212,2.285,13.68.714C777.918,191.921,769.44,208.542,764.238,191.207Z" transform="translate(-764.238 -191.207)"/></g><g transform="translate(90.256 52.959)"><path class="a" d="M777.644,192.2s-3.37.918-12.934-1a11.765,11.765,0,0,0,.725,2.176s6.84,1.817,9.888,1.2a2.111,2.111,0,0,0,1.275-.891Z" transform="translate(-764.71 -191.207)"/></g><g transform="translate(59.403 28.716)"><path class="m" d="M795.694,175.888s-9.977-.937-8.818,8.875a8.081,8.081,0,0,0,7.148,7.9l1.34-3.121Z" transform="translate(-786.782 -175.864)"/></g></g></g></g><g transform="matrix(-0.996, -0.087, 0.087, -0.996, 127.956, 56.336)"><g class="ad" transform="translate(49.859 0)"><g class="ae" transform="translate(-1908.192 -2381.465)"><path class="af" d="M0,0H39.287V48.8H0Z" transform="translate(1900.208 2372.432)"/></g></g><g class="ag" transform="matrix(0.999, -0.035, 0.035, 0.999, 2.089, 10.442)"><g class="ah" transform="translate(-1941.2 -2356.677)"><path class="ai" d="M0,0H28.638V41.782H0Z" transform="translate(1931.776 2347.776)"/></g></g><g class="aj" transform="translate(0 7.578)"><g class="ae" transform="translate(-1858.333 -2389.043)"><path class="af" d="M0,0H77.883V60.735H0Z" transform="translate(1849.3 2380.009)"/></g></g><g class="ak" transform="translate(4.225 23.692)"><g class="ae" transform="translate(-1862.559 -2405.157)"><path class="al" d="M0,0H65.539V30.615H0Z" transform="translate(1853.526 2396.123)"/></g></g><g class="am" transform="translate(11.394 27.921)"><g class="ae" transform="translate(-1869.728 -2409.386)"><path class="al" d="M0,0H61.041V32.476H0Z" transform="translate(1860.695 2400.352)"/></g></g></g></g></g></g></g></svg>