<svg xmlns="http://www.w3.org/2000/svg" xmlns:xlink="http://www.w3.org/1999/xlink" width="160" height="160" viewBox="0 0 160 160"><defs><style>.a{fill:#fff;}.b{clip-path:url(#c);}.c{fill:#f1f4f9;}.d{fill:#d3e2f4;}.e,.f{fill:#a5caef;}.f{stroke:#a5caef;stroke-miterlimit:10;stroke-width:8px;}.g{fill:#1c5cc1;}.h{fill:#134aa3;}.i{fill:#e83b0d;}.j{fill:#ef1485;}.k{fill:#ff409e;}.l{fill:#ffb38a;}.m{fill:#ea9f78;}.n{fill:#e57d59;}.o{fill:#ffcdaa;}.p{fill:#0061bc;}.q{fill:#fca73b;}.r{opacity:0.35;}.s{fill:#e98920;}.t{fill:#ffaf97;}.u{fill:#162457;}.v{fill:#00347e;}.an,.w{fill:#ff6700;}.x{fill:#00457f;}.y{fill:#031f59;}.z{fill:#003c6f;}.aa{fill:#ff7434;}.ab{fill:#00447f;}.ac{fill:#0af;}.ad{fill:#ffbe53;}.ae{fill:#021333;}.af{fill:#ffc75c;}.ag{fill:#ed9232;}.ah{fill:#ff9c5d;}.ai{fill:#ffecd3;}.aj{fill:#ffd9a3;}.ak{fill:#e8bb9b;}.al{fill:#132787;}.am{fill:none;}.an{opacity:0.32;}.ao{filter:url(#a);}</style><filter id="a" x="0" y="0" width="160" height="160" filterUnits="userSpaceOnUse"><feOffset dy="3" input="SourceAlpha"/><feGaussianBlur stdDeviation="3" result="b"/><feFlood flood-color="#004596" flood-opacity="0.102"/><feComposite operator="in" in2="b"/><feComposite in="SourceGraphic"/></filter><clipPath id="c"><circle cx="71" cy="71" r="71" transform="translate(0.3 -0.48)"/></clipPath></defs><g transform="translate(-1240 -1258)"><g class="ao" transform="matrix(1, 0, 0, 1, 1240, 1258)"><circle class="a" cx="71" cy="71" r="71" transform="translate(9 6)"/></g><g class="b" transform="translate(1248.699 1264.48)"><g transform="translate(-93.852 -22.089)"><rect class="c" width="299.435" height="209.913" transform="translate(0 0)"/><g transform="translate(0.173 31.324)"><path class="d" d="M1187.4,306.59H888l33.678-66.246,19.615-1.48,13.693,21.465,186.156.74,4.441-22.576,21.465-.37Z" transform="translate(-888 -159.239)"/><path class="d" d="M1557.8,236.868a27.577,27.577,0,0,1,18.627-14.6,11.69,11.69,0,0,1,5.181-.2c3.245.714,5.71,3.246,7.772,5.777A87.91,87.91,0,0,1,1609.1,285.8" transform="translate(-1309.91 -148.993)"/><path class="e" d="M1610.678,241.961c-1.11-3.331-10.732-19.245-17.024-19.985-1.414-.326-8.512,0-16.655,5.921C1596.245,222.717,1602.536,230.489,1610.678,241.961Z" transform="translate(-1322.007 -149.014)"/><path class="d" d="M955.885,236.868a29.929,29.929,0,0,0-20.377-14.6,14.158,14.158,0,0,0-5.71-.2c-3.5.714-6.232,3.246-8.512,5.777-14.474,16.1-22.261,37.124-21.547,57.956" transform="translate(-895.366 -148.993)"/><path class="f" d="M978,237.123" transform="translate(-944.692 -158.609)"/><path class="d" d="M991.639,263.523l6.539-5.055,2.79-5.322-.13-.13.13.13.13-.2c-1.947-2.853-4.071-5.644-6.292-8.3-3.893-4.545-9.019-9.152-14.992-8.634a11.642,11.642,0,0,0-2.139.37l.648,2.728C978.267,239.126,993.715,248.212,991.639,263.523Z" transform="translate(-944.487 -157.883)"/><path class="g" d="M1138.836,101.446a9.881,9.881,0,0,0-1.95-4.811c-1.48-1.625-3.764-2.08-5.922-2.4a65.306,65.306,0,0,0-31.347,3.438l-.067-1.036c-11.551,6.292-26.8,5.126-36.669,13.886-3.375,2.987-5.84,6.947-8.3,10.71-3.246,4.933-6.75,9.733-10.451,14.341a78.308,78.308,0,0,0-9.278,10.9c-1.3,1.947-2.469,4.027-3.894,5.973-3.116,4.282-7.335,7.657-11.036,11.473a19.764,19.764,0,0,0-3.827,5.126,8.78,8.78,0,0,0-.844,4.933,4.443,4.443,0,0,0,.907,2.465,6.2,6.2,0,0,0,1.688,1.751h0a5.014,5.014,0,0,0,2.469.781l-.13.648c4.345-1.88,6.747-6.488,9.408-10.385q.785-1.066,1.558-2.139a17.026,17.026,0,0,1,4.219,2.076,32.78,32.78,0,0,1,3.7,3.05l-.066.067c.585,1.3,1.11,13.564,16.354,10.836l23.234-15.444,6.9-13.8-1.947-12.213-5.322-1.754c.37-.13.844-.259,1.232-.389,4.022-1.3,8.112-2.591,12.394-2.79,4.219-.2,1.379,17.337,4.691,20,3.764,3.05,8.1-.037,9.992,4.441.518,1.3,2.706,1.591,4.071,1.85.844.13,5.2-3.706,5.979-4.028,2.139-.973,12.213,19.078,8.175-4.933-.129-.714-.585-2.591-.129-3.179a5.493,5.493,0,0,0,.844-2.013c1.558-6.88,1.947-14.212,5.259-20.444,2.591-4.93,6.943-8.956,8.434-14.341C1140.328,110.013,1139.68,105.665,1138.836,101.446Z" transform="translate(-968.115 -68.229)"/><path class="h" d="M1116.343,191.886c-3.7,1.429-6.491,4.608-8.764,7.916s-4.153,6.88-6.943,9.737c-2.076,2.221-4.674,3.956-6.75,6.166a37.063,37.063,0,0,0-3.5,4.282c-3.634,4.867-7.332,9.8-10.966,14.667,1.232,1.362,2.465,2.661,3.7,4.023.326.326.648.714,1.11.651a1.311,1.311,0,0,0,.91-.522,46.812,46.812,0,0,0,4.811-5.385c2.531-3.246,4.545-6.88,7.205-10.059,4.023-4.867,9.216-8.568,13.435-13.242s7.461-10.966,6.166-17.069a15.752,15.752,0,0,0-.455-1.684" transform="translate(-1008.574 -129.787)"/><path class="i" d="M1204.4,211.565a17.239,17.239,0,0,0-.455-1.75c-.13-.37-.714-.13-.581.259l.37,1.558c.13.389.777.326.648-.067Z" transform="translate(-1086.637 -141.291)"/><path class="j" d="M1337.012,209.418l-13.5,15.573s2.92,17.2,3.246,18.564,13.886,6.1,13.886,6.1h18.042l11.425-1.947.714-16.68Z" transform="translate(-1162.335 -141.157)"/><path class="k" d="M1472.524,148.1s-4.871-12.135-23.623-12.85l-1.236,7.724,7.465,5.181Z" transform="translate(-1240.538 -94.437)"/><path class="l" d="M1303.16,196.535c-3.308,17.135-5.125,42.509,0,49.326.844,1.166-.973-3.5.259-2.728.392.259,2.591,3.571,3.116,3.5,1.558-.259,3.831-1.558,4.219-3.116.973-3.634,3.567-2.661,4.866-6.166a12.22,12.22,0,0,0,.455-3.179c.37-9.086,2.92-17.846,5.451-26.543.2-.781-.518-1.754-.714-2.531a4.237,4.237,0,0,0-2.335-2.143c-1.817-.907-5-4.867-7.076-5.255-2.01-.326-6.554-2.335-8.242-1.169" transform="translate(-1147.498 -132.815)"/><path class="m" d="M1329.533,217.7a4.23,4.23,0,0,0-2.335-2.139,31.82,31.82,0,0,1-4.219-3.5c-.129.907-.2,1.817-.326,2.724a21.46,21.46,0,0,0-.2,3.5c0,.91.133,1.817.067,2.728a12.126,12.126,0,0,1-.777,2.983,32.269,32.269,0,0,0-1.429,8.246c-.129,2.465,0,5.059-1.3,7.139a15.964,15.964,0,0,1-1.621,1.947,15.962,15.962,0,0,0-3.183,6.166c2.857-2.221,5.715-4.415,8.512-6.621a5.793,5.793,0,0,1,1.362-.844c.456-.2.907-.259,1.362-.455a146.985,146.985,0,0,1,4.737-19.47C1330.506,219.456,1329.726,218.483,1329.533,217.7Z" transform="translate(-1156.477 -142.82)"/><path class="l" d="M1497.341,166.131c9.411,16.68,17.068,29.4,26.48,46.08.259.518-1.687.714-2.076,1.166a16.188,16.188,0,0,1-2.4,1.947c-2.013.263-.37,2.143-2.4,2.4-1.169.13-.647,1.48-1.817,1.232a13.028,13.028,0,0,1-3.893-2.01c-4.608-3.116-10.126-5.451-13.046-10.255a28.669,28.669,0,0,1-2.724-7.2c-1.428-5-3.053-9.867-4.933-14.67-1.362-3.438-2.857-7.135-1.947-10.707.648-2.661,2.531-4.811,4.348-6.88a5.693,5.693,0,0,1,1.88-1.621,1.952,1.952,0,0,1,2.272.389c.13.13.2.389,0,.455-.129.13-.259-.259-.062-.2" transform="translate(-1266.135 -113.444)"/><path class="n" d="M1515.169,218.9a1.273,1.273,0,0,1-.3-.037,10.737,10.737,0,0,1-3.364-1.658l-.574-.37c-1.14-.77-2.358-1.506-3.534-2.221-3.6-2.184-7.335-4.441-9.548-8.079a25.515,25.515,0,0,1-2.543-6.543l-.2-.692c-1.48-5.163-3.086-9.959-4.929-14.656l-.045-.118c-1.384-3.49-2.813-7.1-1.906-10.67.655-2.676,2.535-4.811,4.352-6.9l.026-.03a5.686,5.686,0,0,1,1.921-1.651,2.091,2.091,0,0,1,2.428.422.587.587,0,0,1,.133.226l.137-.078c4.708,8.342,9.049,15.818,13.246,23.046s8.512,14.7,13.234,23.034a.322.322,0,0,1,0,.274c-.111.266-.577.418-1.11.6a2.78,2.78,0,0,0-.991.444,15.77,15.77,0,0,1-2.472,1.991c-.922.118-1,.57-1.11,1.11a1.323,1.323,0,0,1-1.31,1.306.922.922,0,0,0-.792.651C1515.8,218.578,1515.639,218.9,1515.169,218.9Zm-19.644-53.567a2.353,2.353,0,0,0-.888.178,5.486,5.486,0,0,0-1.85,1.584l-.03.033c-1.8,2.054-3.656,4.178-4.293,6.795-.888,3.49.526,7.061,1.9,10.514l.044.118c1.85,4.7,3.46,9.5,4.937,14.678l.2.692a25.229,25.229,0,0,0,2.513,6.48c2.18,3.586,5.884,5.825,9.463,7.99,1.181.714,2.4,1.451,3.542,2.221l.574.37a10.617,10.617,0,0,0,3.279,1.628c.507.111.618-.111.785-.444a1.169,1.169,0,0,1,.988-.792c.911-.118,1-.574,1.088-1.11a1.313,1.313,0,0,1,1.314-1.306,18.029,18.029,0,0,0,2.324-1.91,2.775,2.775,0,0,1,1.11-.514c.4-.13.9-.292.958-.448a.054.054,0,0,0,0-.059c-4.7-8.331-9.038-15.8-13.23-23.023s-8.482-14.6-13.149-22.883a.3.3,0,0,1-.178.207.2.2,0,0,1-.24,0,.3.3,0,0,1-.1-.348.189.189,0,0,1,.211-.093.164.164,0,0,0-.033-.037,1.535,1.535,0,0,0-1.236-.522Zm1.3.618-.074.211h0a.075.075,0,0,0,.044-.018h0a.083.083,0,0,0-.044,0l.052-.03h0a.039.039,0,0,0,.025-.03.225.225,0,0,0,0-.144Z" transform="translate(-1265.911 -113.223)"/><path class="m" d="M1477.559,174.37c4.608,5,4.933,12.657,8.308,18.627,3.242,5.581,9.019,9.345,12.461,14.8a33.947,33.947,0,0,1,3.634,8.827c.259,1.11.452,2.4-.326,3.246a3.694,3.694,0,0,1-2.22.648l-7.853.392a2.9,2.9,0,0,1-1.3-.13c-.844-.326-1.232-1.236-1.621-2.013a242.065,242.065,0,0,0-15.174-29.011c-1.621-2.591-3.308-5.451-3.049-8.512.259-2.591,1.883-4.811,3.5-6.813a4.552,4.552,0,0,1,2.4-1.884c1.04-.2,2.22.91,1.75,1.817" transform="translate(-1254.855 -117.919)"/><path class="k" d="M1380.364,142.961a4.33,4.33,0,0,1-2.591-2.465c-.2-.389-.2-.844-.37-1.3a4.526,4.526,0,0,0-1.817-2.01c-3.571-2.339-8.242-2.221-12.265-3.634a25.454,25.454,0,0,0-4.741-1.625,13.741,13.741,0,0,0-4.867.392c-6.488,1.3-12.979,2.528-19.471,3.827-4.541.91-9.215,1.817-13.109,4.415-.777.518-1.48.973-2.22,1.425a16.768,16.768,0,0,0-3.179,2.339,12.813,12.813,0,0,0-2.469,2.79,28.4,28.4,0,0,0-4.411,9.019,8.018,8.018,0,0,1,6.488,1.754c2.92,2.531,5.518,6.617,7.983,8.956l.13.063c1.817,1.11,7.4,1.947,7.532,4.09.322,4.674-4.545,9.992-2.221,14.063,1.558-.518,2.857-1.688,4.286-2.531s3.308-1.362,4.737-.451c.585.37,1.036.973,1.751,1.166,1.3.392,2.4-.907,3.116-2.076,4.282-6.358,10.126-11.939,17.394-14.278,2.79-.907,5.774-1.3,8.631-2.139a31.065,31.065,0,0,0,7.072-3.053c.781-.452-.193.455.392-.259,0,0-.2-.259.518-.585,2.59-1.3,5.322-12.72,8.438-14.859C1383.788,143.224,1383.325,144.13,1380.364,142.961Z" transform="translate(-1153.1 -92.287)"/><path class="j" d="M1343.637,190.673l-.37-2.465s-3.764,3.05-5.322,9.733a78.712,78.712,0,0,0,5.181,6.1l.259.259c.585.585,1.036,1.429,1.621,1.688.2-1.817.651-5,.91-6.1C1346.361,197.619,1343.637,190.673,1343.637,190.673Z" transform="translate(-1171.424 -127.797)"/><path class="j" d="M1492.778,165.485c-4.87,3.375-3.312,11.291-8.245,14.341-.193.13,0,.455.263.326,5-3.116,3.438-10.969,8.242-14.345C1493.229,165.614,1492.97,165.289,1492.778,165.485Z" transform="translate(-1263.712 -113.445)"/><path class="j" d="M1313.361,189.92c4.934-1.751,9.345,4.611,11.229,8.049.13.2.456.063.37-.129-2.01-3.634-6.618-10.059-11.747-8.242a.178.178,0,0,0,.059.35.18.18,0,0,0,.071-.028Z" transform="translate(-1155.752 -128.473)"/><path class="j" d="M1451.208,164.708h-1.362l-3.771,5.84s5.969,9.023,7.591,11.617a16.549,16.549,0,0,0,2.4,2.79,29.857,29.857,0,0,0,6.036-2.724c.2-.129.259-.129.326-.129,0-.067.063-.067.063-.13,0,0-.193-.259.518-.585,1.04-.518,2.08-2.591,3.116-5.063C1461.852,165.811,1451.208,164.708,1451.208,164.708Z" transform="translate(-1239.537 -112.994)"/><path class="o" d="M1241.064,129.808s-8.882,16.876,8.371,23.171l1.362-8.568-3.309-7.072Z" transform="translate(-1108.958 -91.01)"/><path class="p" d="M1120.576,294.678s-2.92,2.591-1.48,5.385l4.071-2.661s.777-1.947.844-2.139.322-1.48.322-1.48l-.37-.714Z" transform="translate(-1033.318 -193.849)"/><path class="q" d="M1416.985,205.038l.37.392v-.13Z" transform="translate(-1221.212 -138.398)"/><path class="o" d="M1261.819,151.688l-3.893,17.975,8.049-1.425.973.192a7.965,7.965,0,0,0,9.345-5.581l3.179-11.291Z" transform="translate(-1121.019 -104.711)"/><g class="r" transform="translate(135.285 53.339)"><path class="s" d="M1260.037,171.885,1258.479,185l-4.933-7.92,1.817-7.979Z" transform="translate(-1253.545 -169.098)"/></g><ellipse class="o" cx="5.192" cy="3.701" rx="5.192" ry="3.701" transform="translate(158.583 36.396) rotate(-70.05)"/><ellipse class="o" cx="3.701" cy="5.192" rx="3.701" ry="5.192" transform="translate(129.229 24.653) rotate(-6.04)"/><path class="t" d="M1269.345,94.1l-3.442,1.947a12.555,12.555,0,0,1-7.657,1.48h0l-5-.585a12.214,12.214,0,0,1-6.817-3.112l-2.22-2.013a12.535,12.535,0,0,1-2.076-9.345l6.232-36.15,28.552,3.5-3.5,36.15A12.581,12.581,0,0,1,1269.345,94.1Z" transform="translate(-1110.956 -38.419)"/><path class="u" d="M1242.679,119.111a10.232,10.232,0,0,0,2.79,4.156l1.11.973a12.644,12.644,0,0,0,6.876,2.92l5,.585h0a12.582,12.582,0,0,0,7.657-1.48l3.438-1.947a12.272,12.272,0,0,0,4.071-8.112l1.754-19.663.063-1.754-3.5,13.827a5.129,5.129,0,0,1-5.71,4.215l-15.563-1.91a5.222,5.222,0,0,1-4.54-5.711l.455-10.581-1.428-.452-2.986,18.593A12.364,12.364,0,0,0,1242.679,119.111Z" transform="translate(-1110.965 -68.567)"/><ellipse class="v" cx="1.491" cy="1.169" rx="1.491" ry="1.169" transform="translate(153.293 32.981) rotate(-83.04)"/><ellipse class="v" cx="1.491" cy="1.169" rx="1.491" ry="1.169" transform="translate(144.096 31.877) rotate(-83.04)"/><path class="w" d="M1288.065,118.567l-.07-.337c1.695-.341,2.742-1.029,3.105-2.043.74-2.021-1.429-4.726-1.451-4.752l-.044-.059.333-2.668.34.044-.318,2.524c.333.426,2.221,2.961,1.48,5.026C1291.015,117.438,1289.875,118.2,1288.065,118.567Z" transform="translate(-1139.961 -77.719)"/><rect class="v" width="0.344" height="3.941" transform="matrix(0.296, -0.955, 0.955, 0.296, 154.091, 26.681)"/><rect class="v" width="3.901" height="0.344" transform="translate(143.068 25.879) rotate(-3.81)"/><path class="x" d="M1333.451,54.113l-1.166,15.122s3.764-3.764,5.451-4.349.844-7.01.844-7.01l-2.791-3.5-.714-.844Z" transform="translate(-1167.859 -42.961)"/><path class="u" d="M1252.874,40.864c3.375,2.221,7.076,4.023,11.036,4.286,5.385.389,10.511-1.884,15.381-4.09a6.816,6.816,0,0,1,2.531-.781,2.762,2.762,0,0,1,2.4.91,3.223,3.223,0,0,1,.522,1.947A8.3,8.3,0,0,1,1280.2,50.6c0,.777-.063,1.621-.063,2.4a9.32,9.32,0,0,0,2.221-.907,12.418,12.418,0,0,0,4.67-4.674,15.169,15.169,0,0,0,1.366-9.992,37.628,37.628,0,0,0-3.375-9.737,5.317,5.317,0,0,0-1.11-1.751,4.137,4.137,0,0,0-4.156-.714,17.768,17.768,0,0,0-3.894,2.013,7.761,7.761,0,0,1-4.089,1.425,8.227,8.227,0,0,1-2.22-.37q-2.143-.585-4.282-1.362a13.889,13.889,0,0,0-2.791-.781,8.47,8.47,0,0,0-5.259,1.366A24.547,24.547,0,0,0,1253,31.082c-1.036.973-2.01,2.013-3.05,2.987a1.209,1.209,0,0,0-.451.777,1.359,1.359,0,0,0,.259.714q1.747,2.92,3.5,5.84" transform="translate(-1115.709 -24.975)"/><path class="u" d="M1264.075,138.017s10.515-3.05,17.979,2.591l-5,2.339-5,1.3-5.581-1.48Z" transform="translate(-1124.893 -95.663)"/><path class="a" d="M1263.251,105.107a6.427,6.427,0,0,1-.844-.056,6.716,6.716,0,0,1-4.5-2.568,6.547,6.547,0,0,1-1.329-4.867h0a8.261,8.261,0,0,1,.266-1.2l.055-.159,12.909,1.6.026.152a3.648,3.648,0,0,1,0,1.236,6.7,6.7,0,0,1-2.569,4.489A6.564,6.564,0,0,1,1263.251,105.107Zm-6.262-7.435a6.146,6.146,0,0,0,1.247,4.56,6.291,6.291,0,0,0,4.222,2.413,6.132,6.132,0,0,0,4.56-1.251,6.289,6.289,0,0,0,2.413-4.219,3.319,3.319,0,0,0,.022-.959l-12.261-1.528A8.4,8.4,0,0,0,1256.99,97.672Z" transform="translate(-1120.139 -69.877)"/><path class="a" d="M1302.05,109.86a6.072,6.072,0,0,1-.681-.041,5.962,5.962,0,0,1-4.012-2.3,6.688,6.688,0,0,1-1.11-6.21l.052-.159,12.1,1.48v.181a7.017,7.017,0,0,1-.07,1.2A6.523,6.523,0,0,1,1302.05,109.86Zm-5.444-8.264a6.647,6.647,0,0,0-.2.914,6.413,6.413,0,0,0,1.276,4.752,5.551,5.551,0,0,0,3.734,2.147,6.083,6.083,0,0,0,6.521-5.466,5.572,5.572,0,0,0,.063-.959Z" transform="translate(-1144.952 -72.957)"/><rect class="a" width="0.411" height="10.137" transform="translate(145.919 27.913) rotate(-83.01)"/><path class="a" d="M1283.127,144.382a6.669,6.669,0,0,1-3.412-1.188l.1-.141a6.088,6.088,0,0,0,4.015,1.088,3.273,3.273,0,0,0,2.154-1.643l.148.085a3.427,3.427,0,0,1-2.269,1.725A3.593,3.593,0,0,1,1283.127,144.382Z" transform="translate(-1134.745 -99.004)"/><path class="u" d="M1245.077,54.126a6.142,6.142,0,0,0-1.11,4.478,12.038,12.038,0,0,1,.193,1.48c0,1.362-.907,2.531-1.558,3.764a8.761,8.761,0,0,0-.907,3.375,7.354,7.354,0,0,1-.259,2.076c-.259.648-.781,1.3-1.48,1.3.193-.973-.263-4.023-1.11-4.478a2.246,2.246,0,0,0-3.05,1.036,9.958,9.958,0,0,0-1.3-8.434,7.24,7.24,0,0,1-1.48-2.92c-.259-2.013,1.688-3.5,3.375-4.545.844-.585,1.947-1.169,2.92-.777a3.456,3.456,0,0,1,1.3,1.11,12.624,12.624,0,0,0,4.478,3.112" transform="translate(-1105.314 -40.961)"/><g transform="translate(164.414 9.829)"><path class="y" d="M1367.4,88.661s-1.192,6.762-3.782,11.2c0,0,11.355,3.681,17.764-1.85,0,0,5.835-20.828-2.916-34.412-4.269-6.628-10.893-11.314-18.747-11.96-4.866-.4-10.821.186-15.533,3.992,0,0-16.71,12.192-10.581,45.235l16.373.549,3.181-15.838Z" transform="translate(-1332.254 -51.534)"/></g><path class="l" d="M1364.4,118.756h0c-6.88.585-13.046-3.375-14.341-9.215L1344.735,85.4l33.308-5.181-.973,26.869C1376.925,113.108,1371.407,118.171,1364.4,118.756Z" transform="translate(-1175.701 -59.773)"/><ellipse class="l" cx="4.867" cy="3.438" rx="4.867" ry="3.438" transform="matrix(0.146, -0.989, 0.989, 0.146, 197.632, 43.114)"/><ellipse class="l" cx="3.438" cy="4.867" rx="3.438" ry="4.867" transform="translate(167.194 37.607) rotate(-17.59)"/><ellipse class="z" cx="1.232" cy="1.558" rx="1.232" ry="1.558" transform="matrix(0.997, -0.08, 0.08, 0.997, 190.406, 38.276)"/><ellipse class="z" cx="1.232" cy="1.558" rx="1.232" ry="1.558" transform="matrix(0.997, -0.08, 0.08, 0.997, 180.74, 38.407)"/><path class="v" d="M1392.326,158.816a5.474,5.474,0,0,1-2.021-.433l.144-.315a4.414,4.414,0,0,0,2.983.2,2.421,2.421,0,0,0,1.329-1.48l.318.122a2.737,2.737,0,0,1-1.517,1.662A3.236,3.236,0,0,1,1392.326,158.816Z" transform="translate(-1204.407 -108.005)"/><path class="w" d="M1389.573,139.772l-1.884-1.429a1.134,1.134,0,0,1-.455-.877,1.278,1.278,0,0,1,.448-1.01c1.6-1.417,1.307-4.171,1.3-4.2l.344-.037c0,.118.315,2.961-1.421,4.5a.931.931,0,0,0-.33.74.789.789,0,0,0,.319.618l1.884,1.429Z" transform="translate(-1202.472 -92.528)"/><path class="u" d="M1346.73,90.439a4.4,4.4,0,0,1,.37,3.96c-.452,1.3-1.166,2.531-1.558,3.893-.71,2.591-1.133,1.98-.03,4.441-1.11.47-2.168-.8-2.82-2.491-.322-.781.255-.2-.522-.592-.325-.13-.651-.2-.973-.326a3.778,3.778,0,0,1-1.817-1.688,10.861,10.861,0,0,1-1.366-4.541,7.983,7.983,0,0,1,1.11-4.152,3.731,3.731,0,0,1,4.027-1.884c1.817.259,2.983,2.076,3.634,3.7" transform="translate(-1171.468 -64.036)"/><path class="u" d="M1353.923,78.572c2.465,3.764,7.269,5.322,11.747,5.514,2.79.067,5.71-.259,8.3.651a38.907,38.907,0,0,1,5.129,2.724,7.16,7.16,0,0,0,5.581.844,19.338,19.338,0,0,0-.13-4.737c-.129-1.48-.844-2.987-.455-4.478,1.11-4.349-.648-4.349-2.4-5.385a5.187,5.187,0,0,0-2.01-.651,69.055,69.055,0,0,0-16.354-1.362,14.076,14.076,0,0,0-6.362,1.3,7.885,7.885,0,0,0-3.7,4.478,1.274,1.274,0,0,0-.063.973.6.6,0,0,0,.763.358.584.584,0,0,0,.081-.036" transform="translate(-1180.997 -54.374)"/><circle class="aa" cx="1.04" cy="1.04" r="1.04" transform="translate(202.131 42.106)"/><circle class="aa" cx="1.04" cy="1.04" r="1.04" transform="translate(170.392 44.638)"/><path class="ab" d="M1401.9,120.093a6.4,6.4,0,0,1,2.221-.455,2.565,2.565,0,0,1,1.166.259,7.428,7.428,0,0,1,1.04.522c-.37-.067-.714-.2-1.11-.259a5.6,5.6,0,0,0-1.11-.133C1403.39,119.963,1402.676,120.093,1401.9,120.093Z" transform="translate(-1211.707 -84.603)"/><path class="ab" d="M1375.122,121.439c-.781.063-1.48.063-2.221.192a2.786,2.786,0,0,0-1.04.326c-.325.13-.648.326-1.036.455a11.68,11.68,0,0,1,.973-.651,3.242,3.242,0,0,1,1.11-.389A4.254,4.254,0,0,1,1375.122,121.439Z" transform="translate(-1192.136 -85.624)"/><path class="u" d="M1360.87,94.1a8,8,0,0,0,3.5,2.465,20.056,20.056,0,0,0,6.1,1.558c1.688.2,3.438.13,5.059.455a12.672,12.672,0,0,1,5.455,2.465c.711.585,1.425,1.236,2.139,1.884a12.884,12.884,0,0,0,8.568,3.309,16.6,16.6,0,0,0-.714-3.568,10.162,10.162,0,0,0-1.04-2.661,10.657,10.657,0,0,0-2.528-2.591,24.216,24.216,0,0,0-3.571-2.591,17.432,17.432,0,0,0-7.4-2.143,62.884,62.884,0,0,0-7.772.067l-7.139.389c-.651.067-1.48.2-1.688.844" transform="translate(-1185.22 -67.571)"/><path class="l" d="M1380.505,176.968s1.48,4.282.715,7.916l12.583-2.79-.585-6.166Z" transform="translate(-1198.233 -120.062)"/><path class="u" d="M1353.123,105.327s6.029-5.181,2.961-10.629l-4.249,1.884.263,4.811Z" transform="translate(-1180.174 -68.894)"/><path class="ac" d="M1340.525,272.5s10.773-9.992,16.873-12.394l6.292,7.657,12.135,5.84,3.9,5.389a14.733,14.733,0,0,0,0,2.4c.13.326-9.737,2.22-9.737,2.22l-14.6-.844Z" transform="translate(-1173.05 -173.087)"/><path class="ad" d="M1387.008,330.963c-.063-.844-.193-1.621-.259-2.465C1386.556,329.4,1387.141,332,1387.008,330.963Z" transform="translate(-1202.141 -216.167)"/><path class="ad" d="M1391.7,324.473c-.066-.844-.2-1.621-.259-2.465C1391.182,322.981,1391.763,325.576,1391.7,324.473Z" transform="translate(-1205.08 -212.079)"/><path class="y" d="M1413.449,219.1a40.912,40.912,0,0,0-1.428-25.44c-4.541-11.162-14.278-17.653-23.234-17.912-9.148-.259-19.467,5.921-24.467,17.457a42.169,42.169,0,0,0-2.22,25.377C1372.432,222.472,1393.005,227.857,1413.449,219.1Z" transform="translate(-1186.008 -119.941)"/><path class="ae" d="M1421.765,234.7s5.843,5.921,4.286,24.922l-35.825.193s-3.441-22.52,2.531-30.048Z" transform="translate(-1203.735 -153.976)"/><path class="o" d="M1403.46,308.518c8.631,3.179,17.2,6.292,25.829,9.474a36.054,36.054,0,0,0,8.113,2.272,37.422,37.422,0,0,0,11.032-.781,6.8,6.8,0,0,0,2.531-.777c1.625-.973,5.579-2.182,6.027-4.006.648-2.591,3.794-5.174,4.441-7.772.238-.689-5.714-2.316-5.867-3.029a3.788,3.788,0,0,0-.907-1.425,16.039,16.039,0,0,0-16.939-4.156c-2.661.973-5.126,2.661-7.917,2.591a22.06,22.06,0,0,1-3.7-.585c-3.5-.585-7.072.13-10.514.777a33.877,33.877,0,0,0-7.2,2.013,11.121,11.121,0,0,0-5.452,4.867" transform="translate(-1212.362 -196.586)"/><path class="o" d="M1345.253,283.218c-2.661,1.3-3.246,5-2.469,7.853a5.153,5.153,0,0,0,1.17,2.221,5.378,5.378,0,0,0,1.947,1.169c6.1,2.465,13.045.777,19.016-1.884s11.683-6.166,18.108-7.528a34.629,34.629,0,0,0,3.5-.844,16.6,16.6,0,0,0,3.764-2.143c3.7-2.661,7.2-5.773,11.421-7.528a20.669,20.669,0,0,1,10.448-1.428c-.31-2.515.324-.147-1.031-2.289-.165-.3-2.7.216-2.961,0-.391-.235-2.1,1.075-2.22-1.48-3.567-.2-4.415-1.269-7.4.74-2.987,1.947-6.634,2.578-9.88,4.069-4.541,2.143-9.733,2.4-14.729,2.857-10.189.84-20.511,2.335-29.918,6.425" transform="translate(-1174.273 -178.61)"/><path class="af" d="M1308.343,313.684a5.391,5.391,0,0,1-1.48-3.5c-.13-2.013.714-4.027,1.48-5.921" transform="translate(-1151.837 -200.898)"/><path class="q" d="M1308.119,313.712a5.449,5.449,0,0,1-1.517-3.56,13.441,13.441,0,0,1,1.48-5.881l.026-.063.159.067-.026.063a13.722,13.722,0,0,0-1.48,5.8,5.269,5.269,0,0,0,1.48,3.449Z" transform="translate(-1151.672 -200.866)"/><ellipse class="o" cx="2.272" cy="3.179" rx="2.272" ry="3.179" transform="translate(184.411 78.908)"/><ellipse class="o" cx="2.272" cy="3.179" rx="2.272" ry="3.179" transform="translate(214.525 78.908)"/><path class="o" d="M1423.4,197.148H1393.8v23.234a10.9,10.9,0,0,0,2.59,7.01h0a12.3,12.3,0,0,0,9.475,4.282h5.455a12.3,12.3,0,0,0,9.474-4.282h0a10.9,10.9,0,0,0,2.591-7.01Z" transform="translate(-1206.605 -133.428)"/><path class="y" d="M1388.09,203.218s.259-5.259,7.917-10.514c0,0,3.375-4.545,9.93-2.728l4.415,6.292,2.076.326,10.773,13.952-.259-15.914-3.053-6.232s-3.893-2.528-4.866-2.528-7.724-3.183-7.724-3.183-6.292.129-6.684,0-5.71.522-7.01.651a19.236,19.236,0,0,0-4.282,1.558s-3.179,4.737-4.023,3.7c-.392-.518-.585,5.518-.585,6.1S1388.09,203.218,1388.09,203.218Z" transform="translate(-1200.885 -124.31)"/><path class="y" d="M1410.665,198.644s2.076,7.528,6.817,11.81l5.452-.259a12.412,12.412,0,0,1-2.273-5.255s1.481,3.827,4.282,5.255h2.857a26.467,26.467,0,0,1-2.22-4.282,18.053,18.053,0,0,0,4.411,4.282h4.411l-1.11-8.175-4.67-3.764-5.322-3.767-5.581-.84-4.071,2.221Z" transform="translate(-1217.232 -131.224)"/><path class="ac" d="M1377.557,192.485l-3.116-3.312a.863.863,0,0,0-1.429.326l-1.48,5.385a.848.848,0,0,0,1.11,1.04l4.541-1.688,3.331,3.179a.855.855,0,0,0,1.425-.37l1.48-4.867a.881.881,0,0,0-1.04-1.11Z" transform="translate(-1192.558 -128.243)"/><path class="p" d="M1385.629,200.1l-.259-.067a.688.688,0,0,1-.527-.818l.006-.026.393-1.554a.688.688,0,0,1,.818-.528l.026.006.259.067a.689.689,0,0,1,.524.821.2.2,0,0,1-.006.023l-.37,1.558A.839.839,0,0,1,1385.629,200.1Z" transform="translate(-1200.956 -133.392)"/><path class="ag" d="M1431.138,258.82l-.133-.218.518-.326a1.58,1.58,0,0,1,1.9.07l.326.263-.159.2-.325-.259a1.333,1.333,0,0,0-1.6-.063Z" transform="translate(-1230.044 -171.755)"/><ellipse class="ah" cx="2.661" cy="1.817" rx="2.661" ry="1.817" transform="translate(209.203 87.021)"/><ellipse class="ah" cx="2.661" cy="1.817" rx="2.661" ry="1.817" transform="translate(190.254 87.021)"/><path class="v" d="M1435.32,268.359a4.628,4.628,0,0,1-1.7-.318l.141-.315a3.73,3.73,0,0,0,4.715-1.558l.292.185A3.937,3.937,0,0,1,1435.32,268.359Z" transform="translate(-1231.694 -176.905)"/><circle class="ai" cx="6.099" cy="6.099" r="6.099" transform="translate(189.022 75.792)"/><path class="x" d="M1404.693,241.9a6.188,6.188,0,1,1,6.188-6.188h0A6.191,6.191,0,0,1,1404.693,241.9Zm0-12.213a6.018,6.018,0,1,0,6.014,6.021V235.7a6.021,6.021,0,0,0-6.014-6Z" transform="translate(-1209.572 -153.825)"/><circle class="ai" cx="6.099" cy="6.099" r="6.099" transform="translate(203.104 75.792)"/><path class="x" d="M1442.743,241.9a6.188,6.188,0,1,1,6.188-6.188h0A6.2,6.2,0,0,1,1442.743,241.9Zm0-12.213a6.018,6.018,0,1,0,6.018,6.018v0a6.021,6.021,0,0,0-6.018-6Z" transform="translate(-1233.54 -153.825)"/><path class="v" d="M1417.683,247.648a1.561,1.561,0,0,0-1.521-1.166,1.507,1.507,0,0,0-1.4,1l-.318-.13a1.85,1.85,0,0,1,1.717-1.21,1.9,1.9,0,0,1,1.851,1.428Z" transform="translate(-1219.613 -164.288)"/><path class="v" d="M1448.023,247.648a1.561,1.561,0,0,0-1.521-1.166,1.5,1.5,0,0,0-1.4,1l-.318-.13a1.85,1.85,0,0,1,1.717-1.21,1.9,1.9,0,0,1,1.85,1.428Z" transform="translate(-1238.724 -164.288)"/><path class="v" d="M1411.452,241.4l-.267-.218a2.779,2.779,0,0,1,3.7-.762l-.136.315A2.431,2.431,0,0,0,1411.452,241.4Z" transform="translate(-1217.559 -160.443)"/><path class="v" d="M1449.411,241.176a2.479,2.479,0,0,0-3.371-.544l-.144-.311a2.8,2.8,0,0,1,3.767.626Z" transform="translate(-1239.423 -160.332)"/><path class="aj" d="M1433.678,246.792a1.612,1.612,0,0,0-2.143,0" transform="translate(-1230.378 -164.446)"/><path class="x" d="M1431.48,246.665l-.156-.207a1.751,1.751,0,0,1,2.31,0l-.181.185A1.491,1.491,0,0,0,1431.48,246.665Z" transform="translate(-1230.245 -164.215)"/><path class="l" d="M1316.616,277.368l2.92-2.339a7.773,7.773,0,0,1,7.657-1.232l9.866,3.634,7.2,4.089s3.438,4.071,5.063,4.478c0,0,.193,2.591-3.116,1.688l1.884,3.246.13,3.246s-1.04,2.335-3.049.974c0,0-1.366,4.282-3.96,2.076,0,0-2.335,3.438-4.071,0,0,0-.518,1.88-3.116.648l-6.118-5.662s-4.219-3.309-5.451-5.9a6.63,6.63,0,0,0-2.013,7.2s-1.621,2.335-2.853,2.335a15.362,15.362,0,0,0-7.139.522l-2.272-.973-.973-9.411Z" transform="translate(-1152.061 -181.391)"/><path class="n" d="M1338.73,298.63h-.1a2.263,2.263,0,0,1-1.729-1.358,1.651,1.651,0,0,1-.777.74,2.853,2.853,0,0,1-2.409-.266l-.03-.022-6.1-5.648c-.159-.126-4.094-3.227-5.407-5.8a6.535,6.535,0,0,0-1.85,6.958l.022.063-.037.052c-.067.1-1.676,2.391-2.961,2.391a15.555,15.555,0,0,0-7.095.511h-.048l-2.391-1.021-.985-9.552.044-.044L1316.3,277l2.92-2.335a7.923,7.923,0,0,1,7.772-1.251l9.866,3.634,7.258,4.126c.033.041,3.431,4.071,4.992,4.441l.093.022v.093a2.037,2.037,0,0,1-.648,1.6,2.645,2.645,0,0,1-2.332.3l1.743,3.038.133,3.275v.03a2.8,2.8,0,0,1-1.48,1.41,1.964,1.964,0,0,1-1.606-.292c-.2.533-.9,2.221-2.135,2.591a2.04,2.04,0,0,1-1.869-.511A3.434,3.434,0,0,1,1338.73,298.63Zm-1.873-2.01.148.292c.474.925,1.025,1.417,1.644,1.454h.082c1.11,0,2.132-1.458,2.143-1.48l.081-.118.107.093a1.872,1.872,0,0,0,1.739.548c1.3-.37,2.006-2.543,2.013-2.565l.052-.163.145.1a1.81,1.81,0,0,0,1.532.348,2.449,2.449,0,0,0,1.318-1.243l-.13-3.179-2.024-3.49.3.081a2.644,2.644,0,0,0,2.4-.167,1.741,1.741,0,0,0,.555-1.3c-1.636-.507-4.745-4.152-5.022-4.478l-7.184-4.071-9.844-3.623a7.676,7.676,0,0,0-7.531,1.21l-2.92,2.335-9.36,8.586.962,9.252,2.151.922a15.639,15.639,0,0,1,7.161-.507c1.033,0,2.447-1.891,2.691-2.221a6.812,6.812,0,0,1,2.076-7.283l.126-.1.067.144c1.207,2.539,5.374,5.825,5.414,5.859l6.095,5.659a2.622,2.622,0,0,0,2.169.263,1.455,1.455,0,0,0,.74-.84Z" transform="translate(-1151.828 -181.147)"/><path class="n" d="M1403.439,319.908h-.255V318.39l-3.679-5.551.215-.141,3.719,5.614Z" transform="translate(-1210.202 -206.214)"/><path class="n" d="M1394.115,326.98l-.251-.052.314-1.632-3.083-4.563.211-.144,3.146,4.652Z" transform="translate(-1204.905 -211.184)"/><path class="n" d="M1382.933,330.142l-.063-1.192-2.635-3.146.2-.167,2.687,3.216.067,1.273Z" transform="translate(-1198.063 -214.365)"/><rect class="q" width="0.169" height="4.889" transform="translate(187.84 103.301) rotate(-36.409)"/><path class="n" d="M1348.317,304.721c-.87-1.14-.37-3.386-.344-3.483l.248.056c0,.022-.5,2.22.3,3.268Z" transform="translate(-1177.636 -198.996)"/><path class="q" d="M1344.824,305.182a2.22,2.22,0,0,1-1.614-.8,1.634,1.634,0,0,1-.277-1.188l.17.033a1.458,1.458,0,0,0,.248,1.055,2.052,2.052,0,0,0,1.481.74Z" transform="translate(-1174.554 -200.23)"/><path class="m" d="M1322.666,315.925c1.233,0,2.854-2.335,2.854-2.335a6.841,6.841,0,0,1,1.884-7.139,1.111,1.111,0,0,0-.652-.192h.585a3.447,3.447,0,0,1-1.88-.91c-1.233,1.429-2.4,2.857-3.635,4.219a7.308,7.308,0,0,1-1.754,1.688c-.388.259-.844.455-1.232.714a5.455,5.455,0,0,0-.907.844c-.651.714-1.365,1.425-2.013,2.139a2.49,2.49,0,0,0-.585.844,2.084,2.084,0,0,0-.063.651l.192.063A14.253,14.253,0,0,1,1322.666,315.925Z" transform="translate(-1157.138 -201.584)"/><path class="m" d="M1405.935,302.188s3.179,4.027,5.514,2.591c0,0-.518,2.139-3.179.907Z" transform="translate(-1214.252 -199.594)"/><path class="ag" d="M1518.059,354.721a8.83,8.83,0,0,1-3.934-1.051l.133-.222c.037.022,3.731,2.143,6.61.2l.144.211A5.18,5.18,0,0,1,1518.059,354.721Z" transform="translate(-1282.402 -231.883)"/><path class="l" d="M1493.874,275.51s-1.481-5.84-14.02-6.491c0,0-6.88-.844-11.228-2.983,0,0-5.06-2.143-10.577,2.139l-7.853,6.688s-4.219,6.162-8.883,7.2c0,0-.651,2.728,2.854,1.884l-1.233,1.947a13.041,13.041,0,0,0-1.621,3.956l-.4,1.895a2.725,2.725,0,0,0,.133,2.143c.452.711,1.688.973,3.113-.585,0,0,.455,4.349,4.027.648l1.11-1.817-.456,2.465a2.336,2.336,0,0,0,.371,1.625c.518.648,1.428,1.11,2.92-.781l3.831-7.2-1.754,5.322s-1.88,2.335-.907,3.246c0,0,1.362,1.48,4.219-1.884l2.661-5s5.515-7.4,7.01-11.1l1.688-.322a14.9,14.9,0,0,0,6.554,3.5s3.634,1.366,3.893,3.375c0,0,4.152,1.169,8.242-2.661,0,0,5.322-4.867,7.073-5.181Z" transform="translate(-1236.189 -176.483)"/><path class="n" d="M1454.013,297.078a1.4,1.4,0,0,1-1.01-.37c-1-.936.7-3.149.888-3.394l1.277-3.867-3.124,5.873q-1.11,1.41-2.029,1.41h0a1.417,1.417,0,0,1-1.11-.611,2.469,2.469,0,0,1-.418-1.717l.33-1.787-.74,1.218c-1.206,1.258-2.2,1.747-2.961,1.48-.847-.292-1.155-1.406-1.251-1.921a2.782,2.782,0,0,1-2.095.992,1.359,1.359,0,0,1-1.044-.618,2.838,2.838,0,0,1-.144-2.246l.37-1.873a13.152,13.152,0,0,1,1.64-4l1.066-1.688a2.5,2.5,0,0,1-2.309-.37,1.989,1.989,0,0,1-.4-1.732v-.078h.078c4.571-1.014,8.771-7.091,8.812-7.15l.026-.026,7.854-6.684c5.514-4.286,10.658-2.184,10.71-2.161,4.286,2.109,11.125,2.961,11.192,2.961,12.357.64,14.038,6.243,14.126,6.577l.832,2.15-.151.03c-1.7.315-6.958,5.111-7.013,5.159-4.093,3.834-8.32,2.7-8.364,2.691l-.081-.022v-.085c-.244-1.913-3.775-3.257-3.812-3.272a15.314,15.314,0,0,1-6.551-3.486l-1.551.3c-1.521,3.7-6.947,10.988-7,11.062l-2.654,4.978c-1.265,1.5-2.4,2.261-3.383,2.28Zm1.632-9.082.237.1-1.776,5.363c-.5.622-1.647,2.391-.918,3.068a1.16,1.16,0,0,0,.866.3c.622-.019,1.677-.407,3.164-2.165l2.646-4.974c.067-.092,5.533-7.446,7-11.1l.026-.063,1.828-.352.048.052a14.718,14.718,0,0,0,6.5,3.468c.159.059,3.62,1.377,3.975,3.394a9.15,9.15,0,0,0,8.039-2.65c.214-.2,5.1-4.648,6.99-5.181l-.74-1.887c0-.059-1.632-5.759-13.9-6.4-.077,0-6.958-.873-11.276-3-.045-.018-5.056-2.058-10.444,2.128l-7.835,6.662c-.233.333-4.349,6.158-8.883,7.224a1.685,1.685,0,0,0,.341,1.414c.437.429,1.232.511,2.372.237l.311-.074-1.406,2.221a12.952,12.952,0,0,0-1.588,3.941l-.37,1.88a2.644,2.644,0,0,0,.107,2.043,1.111,1.111,0,0,0,.852.5,2.7,2.7,0,0,0,2.065-1.11l.193-.211.03.285c0,.018.185,1.647,1.11,1.969.67.23,1.569-.241,2.687-1.4l1.447-2.395-.581,3.157a2.223,2.223,0,0,0,.37,1.525,1.15,1.15,0,0,0,.9.507h0c.525,0,1.136-.433,1.817-1.292Z" transform="translate(-1235.975 -176.309)"/><path class="n" d="M1449.866,325.4l-.24-.1,1.558-3.83,2.927-5.078.222.13-2.92,5.059Z" transform="translate(-1241.773 -208.545)"/><rect class="n" width="7.143" height="0.255" transform="translate(212.345 116.626) rotate(-61.83)"/><path class="af" d="M1514.085,293.778a5.282,5.282,0,0,1-1.88,2.853" transform="translate(-1281.193 -194.296)"/><path class="n" d="M1512.146,296.7l-.17-.192a5.329,5.329,0,0,0,1.85-2.776l.255.037A5.458,5.458,0,0,1,1512.146,296.7Z" transform="translate(-1281.048 -194.265)"/><rect class="ag" width="6.48" height="0.17" transform="translate(207.908 107.493) rotate(-55.19)"/><path class="m" d="M1442.235,308.367s2.92,1.11,5.255-2.139l-2.335,3.375C1445.089,309.666,1442.82,310.447,1442.235,308.367Z" transform="translate(-1237.118 -202.139)"/><path class="n" d="M1385.993,183.378a15.376,15.376,0,0,1-4.378-.7l.085-.244a13.874,13.874,0,0,0,6.1.514l.048.255A9.507,9.507,0,0,1,1385.993,183.378Z" transform="translate(-1198.933 -124.162)"/><path class="l" d="M1115.195,293.273l-8.96,10.192,14.734,1.947,9.215-6.75-3.242-5.255-4.027-1.558h-4.737Z" transform="translate(-1025.468 -193.081)"/><path class="n" d="M1120.571,305.344h-.052l-14.974-1.976,9.156-10.4,3.042-1.44h4.785l4.071,1.573,3.331,5.4Zm-14.511-2.176,14.434,1.906,9.078-6.662-3.161-5.118-3.96-1.532h-4.686l-2.935,1.4Z" transform="translate(-1025.034 -192.879)"/><path class="ac" d="M1168.777,246.312c1.88.91,10.081,4.423,12.028,5.4a17.231,17.231,0,0,1,4.567,2.772,12.668,12.668,0,0,1,3.383,5.37,14.162,14.162,0,0,1,1.036,3.571c.13.973,0,1.947.2,2.92a22.315,22.315,0,0,0,1.036,2.92,3.074,3.074,0,0,1-.451,2.92c.192-2.853-2.272-5.181-4.674-6.813a16.279,16.279,0,0,0-5.385-2.469c-2.08-.581-3.767.326-5.714,1.3-2.854,1.362-4.282,5.451-7.01,7.076-1.555.907-4.541-.973-6.292-.651-7.528,1.429-15.914,2.143-22.454-1.88a23.658,23.658,0,0,1-2.076-1.429c-.652-.455-1.3-.91-1.947-1.3a38.346,38.346,0,0,0-7.772-3.246c-2.528-.844-5.644-1.48-7.528.326a7.475,7.475,0,0,0-1.687,3.7,3.764,3.764,0,0,1,.91-5.714c.518-.259,1.11-.37,1.621-.648,2.272-1.169,3.834-3.042,5.588-4.811a18.24,18.24,0,0,1,5.152-3.4c3.767-1.817,10.237-3.978,13.938-5.921,3.375-1.751,2.646-3.849,6.41-3.978a111.43,111.43,0,0,1,13.175.648,13.705,13.705,0,0,1,5.452,1.3c1.88,1.11-.781,1.318,1.232,2.032" transform="translate(-1032.312 -161.868)"/><path class="ac" d="M1121.675,270.631s12.768-11.266,22.894-13.083l-6.736,7.694-3.7,3.442-2.22,1.621Z" transform="translate(-1035.194 -171.475)"/><path class="ak" d="M1198.655,273.258a16,16,0,0,0,2.718,6.612c2.221,2.961,11.843,2.961,14.063,1.48s2.948-4.846,2.948-4.846Z" transform="translate(-1083.685 -181.371)"/><path class="o" d="M1259.155,302.615a8.222,8.222,0,0,1,2.014-2.661,11.746,11.746,0,0,1,8.956-3.116c3.049.259,5.773,2.4,7.916,5a4.835,4.835,0,0,1,.518.711l.973,1.48a13.8,13.8,0,0,1,.392,2.4" transform="translate(-1121.794 -196.191)"/><path class="o" d="M1279.331,316.368c.067,1.554-.259,2.532-.37,5.059-.129,1.754-.455,3.7-1.687,4.741a4.124,4.124,0,0,1-2.857.711c-4.478-.063-8.882-2.221-12.461-5.318-2.139-1.821-4.282-4.545-3.764-7.594a5.231,5.231,0,0,1,.455-1.429" transform="translate(-1121.138 -206.113)"/><path class="n" d="M1274.594,326.96h-.452c-4.2-.059-8.653-1.962-12.535-5.352-1.673-1.417-4.389-4.3-3.808-7.713a5.329,5.329,0,0,1,.463-1.458l.237.1a5.109,5.109,0,0,0-.444,1.391c-.559,3.286,2.091,6.1,3.7,7.48,3.841,3.353,8.238,5.233,12.379,5.292a3.945,3.945,0,0,0,2.776-.688c1.221-1.029,1.517-3.024,1.635-4.645.059-1.151.16-1.969.245-2.691a13.7,13.7,0,0,0,.144-2.357h.259a13.772,13.772,0,0,1-.148,2.4c-.085.718-.185,1.529-.24,2.672-.126,1.677-.433,3.734-1.736,4.83A3.934,3.934,0,0,1,1274.594,326.96Z" transform="translate(-1120.889 -206.051)"/><path class="p" d="M1166.622,295.856l-.252-.048c1.073-5.618-4.29-8.4-4.345-8.431l.115-.229C1162.2,287.178,1167.732,290.05,1166.622,295.856Z" transform="translate(-1060.611 -190.12)"/><path class="p" d="M1174.025,297.067l-.229-.118c2.4-4.793.167-7.75.144-7.772l.2-.159C1174.165,289.04,1176.489,292.127,1174.025,297.067Z" transform="translate(-1068.025 -191.298)"/><path class="p" d="M1258.8,297.19a8.638,8.638,0,0,1,5.463-7.772l.107.233c-5.5,2.531-5.314,7.483-5.311,7.535Z" transform="translate(-1121.572 -191.55)"/><path class="p" d="M1256.844,297.137a6.683,6.683,0,0,1,2.317-7.679l.148.211a6.422,6.422,0,0,0-2.221,7.376Z" transform="translate(-1120.056 -191.575)"/><path class="p" d="M1009.449,318.74c-.082-.1-8.1-9.622-16.329-8.531l-.026-.2c8.327-1.11,16.432,8.512,16.513,8.6Z" transform="translate(-954.2 -204.463)"/><path class="ag" d="M1511.057,315.028c-1.251-2.753-4.789-3.1-4.811-3.105l.022-.255c.037,0,3.727.37,5.041,3.253Z" transform="translate(-1277.438 -205.566)"/><path class="al" d="M1015.815,280.745s5.1-16.822,19.319-11.625a28.945,28.945,0,0,1,14.149,13.287" transform="translate(-968.512 -178.136)"/><path class="d" d="M990.535,250.928s10.97,8.882,8.7,21.935" transform="translate(-952.588 -167.305)"/><path class="d" d="M992.3,280.871h-.688c.063-11.613-12.295-15.914-12.42-15.962l.218-.651C979.543,264.317,992.367,268.758,992.3,280.871Z" transform="translate(-945.445 -175.702)"/><path class="g" d="M1234.834,125.248s-6.166,13.3,1.11,23.171" transform="translate(-1104.938 -88.138)"/><path class="ac" d="M1691.146,223.808c-.259.259-.522.452-.781.714h0Z" transform="translate(-1393.417 -150.222)"/><path class="d" d="M1530.445,313.976s.205-34.789,29.53-28" transform="translate(-1292.682 -188.83)"/><path class="d" d="M1441.455,352.127s22.065-4.156,35.5,6.554" transform="translate(-1236.627 -230.551)"/><path class="d" d="M1476.632,358.4c-13.156-10.488-35-6.525-35.221-6.484l-.126-.674c.222-.044,22.375-4.071,35.777,6.621Z" transform="translate(-1236.519 -230.002)"/><path class="o" d="M1124.873,315.06c1.48-2.076,4.219-2.724,6.687-3.179l8.175-1.558a5.551,5.551,0,0,1,2.076-.13c.585.13,1.11.455,1.688.585a8.361,8.361,0,0,0,2.857.193c12.72-.777,26.025-2.221,37.7,2.857,2.143.91,4.545,2.728,4.071,5.063-.326,1.817-2.221,2.791-3.96,3.375a29.212,29.212,0,0,1-6.292,1.3,58.149,58.149,0,0,1-7.528-.063l-26.643-1.366a27.738,27.738,0,0,1-6.554-.91c-4.415-1.429-7.92-5.322-12.461-5.97" transform="translate(-1037.096 -204.608)"/><path class="n" d="M1175.105,323.562c-1.6,0-3.216-.081-4.811-.163l-26.673-1.366a27.944,27.944,0,0,1-6.583-.914,25.213,25.213,0,0,1-5.47-2.828c-2.187-1.366-4.441-2.776-6.973-3.138l.037-.255c2.591.37,4.863,1.795,7.073,3.175a25.174,25.174,0,0,0,5.407,2.8,28.03,28.03,0,0,0,6.525.9l26.672,1.362a58.479,58.479,0,0,0,7.513.067,29.233,29.233,0,0,0,6.266-1.292c2.35-.785,3.616-1.85,3.871-3.275.425-2.195-1.8-3.982-4.012-4.922-10.636-4.608-22.668-3.819-34.3-3.061-1.11.074-2.22.148-3.331.215a8.509,8.509,0,0,1-2.9-.2,5,5,0,0,1-.858-.3,5.034,5.034,0,0,0-.822-.285,5.462,5.462,0,0,0-2.024.129l-8.179,1.558c-2.428.448-5.141,1.11-6.6,3.131l-.211-.152c1.517-2.109,4.289-2.776,6.765-3.231l8.179-1.558a5.653,5.653,0,0,1,2.124-.13,5.1,5.1,0,0,1,.87.3,5,5,0,0,0,.822.285,8.393,8.393,0,0,0,2.82.193l3.331-.215c11.669-.763,23.734-1.551,34.418,3.079,2.313.981,4.619,2.865,4.164,5.2-.27,1.521-1.6,2.657-4.045,3.475a29.3,29.3,0,0,1-6.322,1.3C1176.956,323.532,1176.019,323.562,1175.105,323.562Z" transform="translate(-1037.033 -204.384)"/><path class="o" d="M1171.338,320.6s18.564.067,22.52-1.621l8.512-4.545,5.181-.844a10.172,10.172,0,0,0,3.9,2.339.94.94,0,0,1,.518,1.48c-.585.585-1.688.973-3.894.13l-2.661.844,6.291,2.221s4.282,1.688,1.362,4.071a2.08,2.08,0,0,1,.456,2.661s-.37,1.688-4.071.648c0,0,1.947.91,1.232,2.531,0,0-.455,2.143-3.568.585,0,0-1.947,3.5-5,2.335l-6.229-2.465a7.4,7.4,0,0,0-4.071-.455l-24.8,3.831s-5.71-3.96-5.71-4.286-1.036-5.97-.844-6.488a19.652,19.652,0,0,1,1.429-2.591C1162.123,320.6,1171.338,320.6,1171.338,320.6Z" transform="translate(-1059.613 -206.775)"/><path class="n" d="M1166.722,334.258l-.041-.03c-2.632-1.821-5.77-4.071-5.77-4.389,0-.085-.108-.74-.219-1.447a28.94,28.94,0,0,1-.614-5.085,19.161,19.161,0,0,1,1.454-2.642c.255-.37,6.776-.429,9.567-.429h0c.189,0,18.582.048,22.472-1.61l8.512-4.552,5.255-.855.048.048a10.2,10.2,0,0,0,3.838,2.3,1.17,1.17,0,0,1,.785.781.963.963,0,0,1-.2.922c-.814.814-2.157.873-3.993.181l-2.25.714,5.921,2.076c.1.037,2.22.9,2.45,2.3a2.136,2.136,0,0,1-.929,1.913,2.271,2.271,0,0,1,.37,2.713h0a1.317,1.317,0,0,1-.629.74,4.16,4.16,0,0,1-2.887.174,1.879,1.879,0,0,1,.659,2.28,1.646,1.646,0,0,1-.866,1.047,3.248,3.248,0,0,1-2.772-.348c-.37.585-2.284,3.364-5.093,2.291l-6.2-2.483a7.216,7.216,0,0,0-4.016-.448Zm-5.551-4.441a61.343,61.343,0,0,0,5.614,4.171l24.733-3.819a7.407,7.407,0,0,1,4.157.463l6.228,2.465c2.913,1.11,4.811-2.247,4.837-2.28l.059-.107.111.055a3.125,3.125,0,0,0,2.65.4,1.425,1.425,0,0,0,.74-.9c.663-1.514-1.088-2.354-1.162-2.387l.088-.241c1.947.544,2.931.318,3.416.03a1.077,1.077,0,0,0,.514-.585,1.962,1.962,0,0,0-.4-2.524l-.14-.1.133-.107a1.972,1.972,0,0,0,.958-1.773c-.2-1.258-2.265-2.087-2.287-2.1l-6.662-2.332,3.072-.973h.041c1.754.674,3.02.64,3.756-.1a.7.7,0,0,0,.145-.674.9.9,0,0,0-.607-.6,10.094,10.094,0,0,1-3.9-2.324l-5.107.833-8.479,4.534c-3.949,1.684-21.835,1.647-22.575,1.639-3.43,0-9.012.092-9.382.348a19.611,19.611,0,0,0-1.4,2.557,34.893,34.893,0,0,0,.629,4.948C1161.079,329.206,1161.171,329.676,1161.171,329.817Z" transform="translate(-1059.369 -206.542)"/><line class="am" x2="2.594" y2="0.581" transform="translate(150.795 117.265)"/><rect class="n" width="0.259" height="2.661" transform="translate(150.774 117.392) rotate(-77.32)"/><path class="l" d="M1280.556,322.538s-1.429,1.036.063,1.425" transform="translate(-1134.886 -212.413)"/><path class="n" d="M1280.365,323.906c-.455-.118-.714-.318-.766-.588-.1-.5.581-1.01.659-1.07l.152.211c-.163.118-.614.522-.559.81.041.207.337.326.581.37Z" transform="translate(-1134.666 -212.23)"/><path class="l" d="M1289.793,322.538s.37.259-.648.581" transform="translate(-1140.685 -212.413)"/><path class="n" d="M1289.113,323.032l-.078-.248c.6-.189.633-.329.633-.333l.126-.233a.279.279,0,0,1,.125.27C1289.89,322.706,1289.635,322.88,1289.113,323.032Z" transform="translate(-1140.616 -212.211)"/><path class="t" d="M1056.633,299.653l13.238-1.036s7.4,3.634,13.76,2.143a1.188,1.188,0,0,1,1.362.711c.652,1.625.715,4.933-10.363,4.219a22.38,22.38,0,0,0,9.408,2.272l10.451,2.335s3.827,2.924-1.04,4.349l-16.225-1.362,12.85,3.7a3.307,3.307,0,0,1,2.076,1.621,1.833,1.833,0,0,1-.844,2.79,4.4,4.4,0,0,1-2.591.326l-2.531-.389s-1.688,2.92-11.228,1.425l-1.559,1.17a4.639,4.639,0,0,1-3.7.777l-6.75-1.48s-7.2-2.465-11.68-7.983l-2.591-.585s-12.332-.13-19.533-5.84l-7.528-7.724s1.11-13.109,12.783-11.68a20.065,20.065,0,0,1,10.773,6.166,11.311,11.311,0,0,0,5.322,3.5A11.765,11.765,0,0,0,1056.633,299.653Z" transform="translate(-972.165 -191.478)"/><path class="o" d="M1145.175,376.9s4.023.777,7.591,1.166" transform="translate(-1049.997 -246.654)"/><path class="an" d="M1158.325,368.477h1.036a8.173,8.173,0,0,1,2.143.259l6.166,1.429,4.541,1.169" transform="translate(-1058.28 -241.35)"/><path class="an" d="M1156.915,326.271c1.04,1.817,5.585,3.309,5.585,3.309h.581a22.323,22.323,0,0,1-3.242-1.232c8.956.518,10.644-1.48,10.644-3.179C1165.29,328.347,1156.915,326.271,1156.915,326.271Z" transform="translate(-1057.392 -214.069)"/><path class="d" d="M985.222,304.03a17.149,17.149,0,0,0-8.956-1.88l-4.811,4.811c3.113-.322,7.591,1.754,10.448,2.92a44.146,44.146,0,0,1,8.179,4.611c2.854,1.88,5.118,4,8.512,3.616C993.812,308.249,988.209,305.133,985.222,304.03Z" transform="translate(-940.569 -199.548)"/><path class="y" d="M1215.394,194.046c.148,9.552-8.257,17.331-18.5,17.331s-18.5-7.731-18.5-17.331,8.257-17.328,18.5-17.328S1215.246,184.5,1215.394,194.046Z" transform="translate(-1070.916 -120.559)"/><ellipse class="o" cx="2.661" cy="2.683" rx="2.661" ry="2.683" transform="translate(135.711 77.52)"/><path class="n" d="M1257.06,239.714a2.813,2.813,0,1,1,2.79-2.835v.022A2.8,2.8,0,0,1,1257.06,239.714Zm0-5.366a2.557,2.557,0,1,0,2.535,2.58V236.9A2.546,2.546,0,0,0,1257.06,234.348Z" transform="translate(-1118.688 -156.698)"/><ellipse class="o" cx="2.661" cy="2.683" rx="2.661" ry="2.683" transform="translate(110.248 77.52)"/><path class="n" d="M1188.25,239.714a2.813,2.813,0,1,1,2.791-2.835v.022A2.805,2.805,0,0,1,1188.25,239.714Zm0-5.366a2.557,2.557,0,1,0,2.531,2.583v-.03A2.546,2.546,0,0,0,1188.25,234.348Z" transform="translate(-1075.344 -156.698)"/><path class="o" d="M1216.534,187.506l-12.005-2.3-13.764,4.441,1.044,21.728a14.958,14.958,0,0,0,2.22,7.916h0a9.8,9.8,0,0,0,8.142,4.811l.341.1a7.311,7.311,0,0,0,4.319-.1h0a9.8,9.8,0,0,0,8.142-4.811h0a14.954,14.954,0,0,0,2.22-7.916l1.525-21.04Z" transform="translate(-1078.715 -125.907)"/><path class="n" d="M1204.317,224.281a7.494,7.494,0,0,1-2.039-.285l-.326-.093a9.861,9.861,0,0,1-8.253-4.863,15.176,15.176,0,0,1-2.243-7.987l-1.051-21.835.093-.03,13.793-4.441h.033l12.058,2.306.029.037,2.262,2.857V190l-1.525,21.04a15.174,15.174,0,0,1-2.243,7.979,10.012,10.012,0,0,1-8.25,4.863A7.422,7.422,0,0,1,1204.317,224.281Zm-13.645-34.844,1.04,21.628a14.919,14.919,0,0,0,2.22,7.857,9.611,9.611,0,0,0,8.053,4.741h.033l.344.1a7.185,7.185,0,0,0,4.245-.1h.037a9.75,9.75,0,0,0,8.053-4.745,14.884,14.884,0,0,0,2.22-7.846l1.521-21-2.172-2.742-11.928-2.28Z" transform="translate(-1078.488 -125.617)"/><path class="o" d="M1224.785,254.254s1.558-2.531,3.246.063" transform="translate(-1100.144 -168.703)"/><path class="n" d="M1227.753,254.167c-.481-.74-.988-1.11-1.51-1.11h0c-.862,0-1.5,1.033-1.506,1.044l-.222-.133a2.446,2.446,0,0,1,1.724-1.17h0a2.19,2.19,0,0,1,1.725,1.232Z" transform="translate(-1099.974 -168.483)"/><path class="v" d="M1243.312,236.79a4.543,4.543,0,0,0-3.494-.518l-.134-.315a4.789,4.789,0,0,1,3.779.522Z" transform="translate(-1109.53 -157.767)"/><path class="v" d="M1210.027,236.189l-.152-.311c2.317-1.11,3.7-.548,3.778-.522l-.137.315.067-.155-.067.155A4.6,4.6,0,0,0,1210.027,236.189Z" transform="translate(-1090.752 -157.392)"/><ellipse class="v" cx="0.907" cy="1.162" rx="0.907" ry="1.162" transform="translate(120.914 80.707)"/><ellipse class="v" cx="0.907" cy="1.162" rx="0.907" ry="1.162" transform="translate(130.1 80.592)"/><path class="v" d="M1225.155,266.02a5.074,5.074,0,0,1-2.18-.548l.17-.3c.1.056,2.561,1.4,4.2-.485l.259.226A3.138,3.138,0,0,1,1225.155,266.02Z" transform="translate(-1099.004 -175.972)"/><path class="u" d="M1181.991,200.436s15.125.907,23.967-10.311c0,0,1.262,11.473,8.323,9.733l.5-8.764-.966-4.089-5-4.93-9.855-3.4-6.461,1.181-7.365,3.9s-.892-.389-2.757,2.853c-2.591,4.537-2.176,6.688-2.176,6.688Z" transform="translate(-1072.046 -121.794)"/><path class="y" d="M1208.636,176.907s-5.648-9.319-19.582-4.271a17.449,17.449,0,0,0-10.1,15.233l17.764-.455,6.158-2.776Z" transform="translate(-1071.275 -117.044)"/><path class="y" d="M1256.735,185.358s12.75,1.924,8.016,18.612a19.987,19.987,0,0,1-4.108,6.477l.074-1.11s1.206-1.976,1.391-2.465.91-2.887.91-2.887l.322-2.176-2.072-7.872Z" transform="translate(-1120.27 -126.002)"/><path class="u" d="M1354.075,62.164s7.505-16.491,28.752-8.235c0,0,17.851,11.937,13.41,31.922l-5.168-11.589-16.48-5.973Z" transform="translate(-1181.585 -41.756)"/><path class="e" d="M1532.565,302.88c4.6-9.236,3.195-9.3,6.082-12.566,4.331-4.811,12.518-8.569,23.843-6.219C1562.49,284.094,1545.679,285.872,1532.565,302.88Z" transform="translate(-1294.017 -187.743)"/><path class="e" d="M996.861,316.357c-4.44-8.91-3.709-7.543-6.495-10.69-4.177-4.641-11.45-9.7-22.376-7.434C967.99,298.233,984.209,299.949,996.861,316.357Z" transform="translate(-938.386 -196.751)"/><path class="f" d="M984,351.123" transform="translate(-948.471 -230.419)"/><path class="e" d="M976.111,227.184c8.142,1.48,16.266,9.667,16.078,9.34a30.222,30.222,0,0,0-20.277-14.179,14.264,14.264,0,0,0-5.851-.192c-3.675.748-6.465,3.394-8.686,5.881C957.375,228.033,967.969,225.7,976.111,227.184Z" transform="translate(-931.7 -149.04)"/></g></g></g></g></svg>