<svg xmlns="http://www.w3.org/2000/svg" width="84.187" height="56.451" viewBox="0 0 84.187 56.451"><defs><style>.a{fill:#fff;}.b{fill:#ea0c90;}.c{fill:#ffd527;}</style></defs><g transform="translate(-2770.447 -749.447)"><g transform="translate(2821.207 754.301)"><path class="a" d="M3808.577,866.342l-.083-.517,28.985-4.944a4.66,4.66,0,0,0,3.917-4.667l-.4-27.522a4.659,4.659,0,0,0-5.4-4.533l-6.915,1.225-.092-.516,6.919-1.226a5.183,5.183,0,0,1,6.01,5.042l.4,27.522a5.184,5.184,0,0,1-4.358,5.192Z" transform="translate(-3808.494 -823.575)"/></g><g transform="translate(2774.877 764.319)"><path class="a" d="M2843.91,1015.53a5.184,5.184,0,0,1-5.181-5.065l-.625-27.5a5.184,5.184,0,0,1,4.358-5.235l7.462-1.153.08.518-7.46,1.153a4.677,4.677,0,0,0-3.916,4.706l.625,27.5a4.66,4.66,0,0,0,5.4,4.494l.6-.1.083.517-.6.1A5.185,5.185,0,0,1,2843.91,1015.53Z" transform="translate(-2838.103 -976.58)"/></g><g transform="translate(2783.282 791.653)"><path class="b" d="M3000.612,1403.206l-31.241,5.031a2.418,2.418,0,0,1-2.8-2.339l-.088-4.384a2.419,2.419,0,0,1,2.034-2.437l31.2-5.022a2.42,2.42,0,0,1,2.8,2.318l.128,4.375A2.419,2.419,0,0,1,3000.612,1403.206Z" transform="translate(-2966.479 -1394.023)"/></g><g transform="translate(2770.447 749.447)"><path class="c" d="M2772.594,796.973A5.146,5.146,0,0,1,2771,793.35l-.551-24.238a8.923,8.923,0,0,1,7.5-9.012l65.775-10.588a5.181,5.181,0,0,1,4.156,1.148l-.337.4a4.656,4.656,0,0,0-3.736-1.031l-65.776,10.588a8.4,8.4,0,0,0-7.062,8.483l.551,24.238a4.625,4.625,0,0,0,1.433,3.257Z" transform="translate(-2770.447 -749.447)"/></g><g transform="translate(2789.649 753.708)"><g transform="translate(0 7.594)"><path class="a" d="M3066.837,930.788a2.335,2.335,0,0,1-.15.454.139.139,0,0,1-.105.089.1.1,0,0,1-.062-.014,2.128,2.128,0,0,0-.892-.062c-.364.059-1.151.227-1.152,1.779,0,1.274.782,1.409,1.146,1.35a1.072,1.072,0,0,0,.592-.264l0-.891-.481.078a.128.128,0,0,1-.15-.143l0-.4a.2.2,0,0,1,.163-.194l1.07-.174a.133.133,0,0,1,.158.142l-.009,2.151a.193.193,0,0,1-.155.193l-.153.025a.234.234,0,0,1-.2-.071l-.081-.082a1.725,1.725,0,0,1-.821.372c-.975.159-1.851-.264-1.844-1.969.007-1.888.876-2.467,1.852-2.626a2.31,2.31,0,0,1,1.186.126A.146.146,0,0,1,3066.837,930.788Z" transform="translate(-3063.711 -930.508)"/></g><g transform="translate(3.806 6.991)"><path class="a" d="M3125.25,924.756c.053.143.086.249.158.285a.086.086,0,0,1,.059.086l0,.286c0,.143-.232.229-.4.256-.357.058-.448-.277-.549-.524l-.141-.455-1.448.235-.282.93c-.033.117-.09.182-.177.2l-.481.078a.133.133,0,0,1-.157-.141l1.324-4.355a.347.347,0,0,1,.228-.252l.553-.09a.224.224,0,0,1,.223.179Zm-1.594-2.264-.5,1.665.99-.161Z" transform="translate(-3121.834 -921.29)"/></g><g transform="translate(7.991 6.149)"><path class="a" d="M3188.327,913.049a.193.193,0,0,1-.2-.095l-1.594-2.638-.013,2.86a.186.186,0,0,1-.148.191l-.458.075a.133.133,0,0,1-.158-.142l.013-4.189a.193.193,0,0,1,.156-.192l.56-.091a.185.185,0,0,1,.173.1l1.565,2.547.006-2.763a.193.193,0,0,1,.156-.192l.458-.075a.129.129,0,0,1,.15.143l-.014,4.189a.186.186,0,0,1-.148.191Z" transform="translate(-3185.753 -908.442)"/></g><g transform="translate(11.805 5.69)"><path class="a" d="M3247.416,904.884c.053.143.085.249.159.285a.086.086,0,0,1,.059.086l0,.286c0,.143-.232.229-.4.256-.356.058-.448-.277-.549-.524l-.141-.455-1.449.236-.282.93c-.033.117-.09.182-.177.2l-.48.078a.133.133,0,0,1-.157-.141l1.324-4.355a.346.346,0,0,1,.228-.252l.553-.09a.224.224,0,0,1,.223.179Zm-1.594-2.264-.5,1.665.99-.161Z" transform="translate(-3244.001 -901.418)"/></g><g transform="translate(17.518 4.604)"><path class="a" d="M3331.258,887.861l.006-2.349a.193.193,0,0,1,.155-.192l.459-.075a.129.129,0,0,1,.15.143l-.01,2.374c0,1.21.452,1.216.838,1.153s.839-.216.836-1.426l.01-2.374a.193.193,0,0,1,.155-.192l.459-.075a.129.129,0,0,1,.15.143l-.006,2.349c-.005,1.76-.622,2.147-1.6,2.307S3331.253,889.621,3331.258,887.861Z" transform="translate(-3331.258 -884.846)"/></g><g transform="translate(21.558 3.943)"><path class="a" d="M3395.53,879.345a.194.194,0,0,1-.2-.094l-1.595-2.638-.013,2.86a.186.186,0,0,1-.148.191l-.459.075a.133.133,0,0,1-.157-.142l.013-4.189a.193.193,0,0,1,.155-.192l.561-.091a.185.185,0,0,1,.173.1l1.565,2.547.006-2.763a.193.193,0,0,1,.155-.192l.458-.075a.129.129,0,0,1,.15.143l-.013,4.19a.186.186,0,0,1-.148.191Z" transform="translate(-3392.956 -874.738)"/></g><g transform="translate(26.907 2.998)"><path class="a" d="M3476.212,865.154a.258.258,0,0,1-.275-.178l-1.3-3.921a.193.193,0,0,1,.156-.192l.466-.076c.087-.014.14.033.179.138l1.035,3.151,1.061-3.492a.241.241,0,0,1,.185-.2l.466-.076a.129.129,0,0,1,.15.143l-1.325,4.347a.373.373,0,0,1-.263.266Z" transform="translate(-3474.642 -860.309)"/></g><g transform="translate(30.38 2.668)"><path class="a" d="M3531.1,858.74c.053.143.085.249.158.285a.085.085,0,0,1,.059.086l0,.286c0,.143-.231.229-.4.256-.357.058-.448-.277-.549-.524l-.141-.455-1.448.236-.282.929c-.033.117-.09.182-.177.2l-.48.078a.133.133,0,0,1-.158-.141l1.324-4.355a.346.346,0,0,1,.228-.252l.553-.09a.224.224,0,0,1,.223.179Zm-1.593-2.264-.5,1.665.99-.161Z" transform="translate(-3527.684 -855.274)"/></g><g transform="translate(34.565 2.227)"><path class="a" d="M3592.37,852.306l1.652-.269a.129.129,0,0,1,.15.143l0,.4a.193.193,0,0,1-.156.193l-2.257.367a.133.133,0,0,1-.157-.142l.013-4.19a.193.193,0,0,1,.156-.192l.458-.075a.129.129,0,0,1,.15.143Z" transform="translate(-3591.601 -848.538)"/></g><g transform="translate(37.761 1.395)"><path class="a" d="M3641.169,838.752v1.154l1.776-.289a.129.129,0,0,1,.15.143l0,.4a.193.193,0,0,1-.155.192l-2.373.386a.138.138,0,0,1-.164-.14l.013-4.189a.2.2,0,0,1,.163-.194l2.373-.386a.133.133,0,0,1,.157.141l0,.4a.193.193,0,0,1-.156.192l-1.776.289,0,1.17,1.3-.211a.129.129,0,0,1,.15.143l0,.4a.2.2,0,0,1-.163.194Z" transform="translate(-3640.401 -835.826)"/></g><g transform="translate(42.637 0.744)"><path class="a" d="M3715.036,830.656a.133.133,0,0,1-.157-.141l.013-4.189a.193.193,0,0,1,.156-.193l1.346-.219c.954-.155,1.46.344,1.457,1.379l-.007,1.291a1.68,1.68,0,0,1-1.462,1.854Zm2.053-3.224c0-.645-.346-.843-.732-.78l-.706.115,0,3.057.706-.115a.916.916,0,0,0,.731-1.018Z" transform="translate(-3714.879 -825.886)"/></g><g transform="translate(46.335 0)"><path class="a" d="M3772.117,817.453v1.154l1.776-.289a.129.129,0,0,1,.151.143l0,.4a.193.193,0,0,1-.155.193l-2.373.386a.138.138,0,0,1-.165-.14l.013-4.189a.2.2,0,0,1,.163-.194l2.373-.386a.134.134,0,0,1,.158.142l0,.4a.194.194,0,0,1-.156.192l-1.776.289,0,1.17,1.3-.211a.129.129,0,0,1,.15.143l0,.4a.2.2,0,0,1-.163.194Z" transform="translate(-3771.349 -814.526)"/></g></g><g transform="translate(2785.117 793.987)"><g transform="translate(0 4.883)"><path class="c" d="M2995.837,1507.929c.2-.032.849-.191.85-.708.006-.916-2.2.051-2.2-1.548,0-.683.276-1.207,1.51-1.408a5.249,5.249,0,0,1,.943,0,.133.133,0,0,1,.112.124c0,.045-.007.174-.024.416a.164.164,0,0,1-.135.12c-.429,0-.759.011-.848.025-.562.092-.833.158-.834.541,0,.841,2.2-.087,2.2,1.645-.009.857-.573,1.323-1.664,1.5a2.421,2.421,0,0,1-1.069-.081.152.152,0,0,1-.109-.147l.159-.446a.133.133,0,0,1,.1-.1.124.124,0,0,1,.049,0A2.882,2.882,0,0,0,2995.837,1507.929Z" transform="translate(-2994.492 -1504.242)"/></g><g transform="translate(3.399 4.53)"><path class="c" d="M3046.42,1499.107a.182.182,0,0,1,.146-.181l.432-.07a.121.121,0,0,1,.142.134l-.013,3.948a.175.175,0,0,1-.14.18l-.432.07a.126.126,0,0,1-.148-.133Z" transform="translate(-3046.407 -1498.854)"/></g><g transform="translate(4.778 3.929)"><path class="c" d="M3069.886,1494.011a.182.182,0,0,1-.19-.089l-1.5-2.486-.012,2.695a.175.175,0,0,1-.14.18l-.432.07a.126.126,0,0,1-.148-.133l.012-3.947a.182.182,0,0,1,.147-.181l.528-.086a.174.174,0,0,1,.163.094l1.475,2.4.006-2.6a.182.182,0,0,1,.146-.181l.432-.07a.121.121,0,0,1,.142.135l-.012,3.947a.175.175,0,0,1-.14.18Z" transform="translate(-3067.461 -1489.67)"/></g><g transform="translate(9.677 3.309)"><path class="c" d="M3143.63,1483.89c.2-.032.849-.191.849-.708.006-.916-2.2.051-2.195-1.548,0-.683.275-1.207,1.51-1.408a5.211,5.211,0,0,1,.943,0,.132.132,0,0,1,.112.124c0,.045-.007.174-.024.416a.164.164,0,0,1-.135.12c-.429,0-.758.011-.847.025-.563.092-.833.158-.834.541,0,.841,2.2-.087,2.2,1.645-.009.857-.573,1.323-1.664,1.5a2.424,2.424,0,0,1-1.069-.081.152.152,0,0,1-.108-.148l.159-.446a.133.133,0,0,1,.1-.1.127.127,0,0,1,.049,0A2.884,2.884,0,0,0,3143.63,1483.89Z" transform="translate(-3142.284 -1480.203)"/></g><g transform="translate(13.015 2.724)"><path class="c" d="M3193.268,1473.766c.006-1.779.778-2.317,1.7-2.466s1.7.136,1.692,1.915c0,1.666-.766,2.262-1.7,2.414S3193.264,1475.432,3193.268,1473.766Zm2.668-.434c0-1.463-.56-1.409-.972-1.342s-.975.2-.976,1.659c-.007,1.3.545,1.359.97,1.29S3195.929,1474.631,3195.936,1473.332Z" transform="translate(-3193.268 -1471.265)"/></g><g transform="translate(16.986 2.156)"><path class="c" d="M3255.318,1462.632c.9-.146,1.378.2,1.376,1.186a1.581,1.581,0,0,1-.531,1.279l.279.765c.075.2.122.273.185.315a.077.077,0,0,1,.056.081v.27c0,.135-.239.219-.4.245-.274.045-.369-.105-.436-.3l-.384-1.062-.837.136-.007,1.3a.176.176,0,0,1-.14.18l-.432.07a.126.126,0,0,1-.148-.134l.013-3.948a.182.182,0,0,1,.146-.181Zm.656,1.3c0-.457-.258-.678-.622-.619l-.72.117v1.425l.72-.117A.747.747,0,0,0,3255.973,1463.935Z" transform="translate(-3253.903 -1462.6)"/></g><g transform="translate(19.986 1.493)"><path class="c" d="M3302.4,1452.479a.126.126,0,0,1,.148.133l0,.375a.181.181,0,0,1-.146.181l-.906.147-.008,3.414a.175.175,0,0,1-.14.18l-.432.07a.125.125,0,0,1-.148-.134l.008-3.414-.906.147a.121.121,0,0,1-.142-.135l0-.375a.189.189,0,0,1,.154-.182Z" transform="translate(-3299.729 -1452.477)"/></g><g transform="translate(23.247 1.007)"><path class="c" d="M3350.256,1447.806v1.087l1.674-.272a.121.121,0,0,1,.142.135l0,.375a.182.182,0,0,1-.146.181l-2.236.364a.13.13,0,0,1-.155-.132l.013-3.948a.189.189,0,0,1,.153-.183l2.236-.364a.125.125,0,0,1,.148.133l0,.375a.182.182,0,0,1-.146.181l-1.674.272,0,1.1,1.221-.2a.121.121,0,0,1,.142.134l0,.375a.189.189,0,0,1-.153.182Z" transform="translate(-3349.532 -1445.048)"/></g><g transform="translate(26.142 0.588)"><path class="c" d="M3393.746,1441.156c.006-1.779.777-2.317,1.7-2.466s1.7.136,1.691,1.915c0,1.666-.765,2.262-1.7,2.414S3393.742,1442.822,3393.746,1441.156Zm2.668-.434c0-1.463-.56-1.409-.972-1.342s-.974.2-.976,1.659c-.007,1.3.545,1.359.97,1.29S3396.407,1442.021,3396.414,1440.723Z" transform="translate(-3393.746 -1438.656)"/></g><g transform="translate(30.019 0)"><path class="c" d="M3454.3,1433.356c.2-.032.849-.191.849-.708.006-.916-2.2.051-2.2-1.548,0-.683.275-1.207,1.51-1.408a5.2,5.2,0,0,1,.943,0,.132.132,0,0,1,.112.124c0,.045-.007.174-.023.416a.165.165,0,0,1-.135.12c-.429,0-.759.011-.848.025-.562.092-.833.158-.834.541,0,.841,2.2-.087,2.2,1.645-.009.856-.573,1.323-1.664,1.5a2.426,2.426,0,0,1-1.069-.081.152.152,0,0,1-.109-.147l.16-.446a.132.132,0,0,1,.1-.1.128.128,0,0,1,.049,0A2.887,2.887,0,0,0,3454.3,1433.356Z" transform="translate(-3452.952 -1429.669)"/></g></g><g transform="translate(2785.302 761.533)"><g transform="translate(0 0)"><g transform="translate(0 7.077)"><path class="b" d="M3010.211,1048.353l-4.423,1.62-1.016-.745.012-1.634a2.909,2.909,0,0,0-.2-1.424.662.662,0,0,0-.693-.2,1.094,1.094,0,0,0-.8.551,2.673,2.673,0,0,0-.282,1.325,3.244,3.244,0,0,0,.291,1.614,3.465,3.465,0,0,0,1.645,1.082q3.9,1.644,4.909,2.938t1,4.536a8.748,8.748,0,0,1-.578,3.564,5.572,5.572,0,0,1-2.2,2.223,10.055,10.055,0,0,1-3.782,1.36,8.083,8.083,0,0,1-4.034-.226,3.407,3.407,0,0,1-2.174-1.87,10.345,10.345,0,0,1-.484-3.745l.013-1.444,5.459-.875,1.016.745-1.035,1.938a3.189,3.189,0,0,0,.22,1.557.778.778,0,0,0,.816.223,1.179,1.179,0,0,0,.876-.589,2.785,2.785,0,0,0,.294-1.381,3.633,3.633,0,0,0-.529-2.46,13.778,13.778,0,0,0-2.734-1.562,21.335,21.335,0,0,1-2.884-1.591,3.785,3.785,0,0,1-1.161-1.582,7.023,7.023,0,0,1-.437-2.813,8.631,8.631,0,0,1,.7-3.811,5.665,5.665,0,0,1,2.152-2.176,9.805,9.805,0,0,1,3.56-1.233,8.9,8.9,0,0,1,3.872.1,3.2,3.2,0,0,1,2.111,1.476,8.8,8.8,0,0,1,.5,3.641Z" transform="translate(-2997.32 -1042.105)"/></g><g transform="translate(13.586 4.349)"><path class="b" d="M3215.786,1000.455l1.016.745-7.713,23.224-3.263,1.43-1.016-.745,6.781-23.976Z" transform="translate(-3204.811 -1000.455)"/></g><g transform="translate(29.532 2.292)"><path class="b" d="M3459.118,978.511a3.266,3.266,0,0,1,1.91,1.158q.673.867.7,4.533a11.583,11.583,0,0,1-.5,4.024,5.306,5.306,0,0,1-2.045,2.409,9.958,9.958,0,0,1-4.107,1.471,8.081,8.081,0,0,1-3.979-.139,3.754,3.754,0,0,1-2.106-1.721,9.585,9.585,0,0,1-.646-4.164,17.6,17.6,0,0,1,.305-3.525,4.372,4.372,0,0,1,1.961-2.674,2.574,2.574,0,0,1-1.565-1.307,5.653,5.653,0,0,1-.524-2.632,6.278,6.278,0,0,1,1.6-4.527,8.235,8.235,0,0,1,4.8-2.2q3.691-.6,5.106.685a5.307,5.307,0,0,1,1.435,4.087,5.792,5.792,0,0,1-.448,2.648A6.029,6.029,0,0,1,3459.118,978.511Zm-3.168-4.226a3.291,3.291,0,0,0-.207-1.445q-.2-.328-.77-.237a.914.914,0,0,0-.746.509,3.9,3.9,0,0,0-.19,1.482l.006,1.675a2.747,2.747,0,0,0,.227,1.34.682.682,0,0,0,.75.261.922.922,0,0,0,.748-.5,4.213,4.213,0,0,0,.188-1.577Zm.152,9.149a3.278,3.278,0,0,0-.272-1.64.788.788,0,0,0-.835-.281,1.039,1.039,0,0,0-.8.531,4.084,4.084,0,0,0-.236,1.735l.013,2.86a3.617,3.617,0,0,0,.28,1.8.824.824,0,0,0,.859.271.984.984,0,0,0,.805-.545,5.446,5.446,0,0,0,.2-1.906Z" transform="translate(-3448.345 -969.028)"/></g><g transform="translate(44.215)"><path class="b" d="M3685.772,940.96l.093,7.355a17.661,17.661,0,0,1-.229,3.7,5.97,5.97,0,0,1-1.125,2.324,6.131,6.131,0,0,1-2.095,1.77,9.179,9.179,0,0,1-2.764.881,10.247,10.247,0,0,1-3.36.083,3.8,3.8,0,0,1-2.144-1.081,4.975,4.975,0,0,1-1.146-1.855,11.835,11.835,0,0,1-.362-3.345l-.058-7.7a15.4,15.4,0,0,1,.5-4.635,5.613,5.613,0,0,1,2.1-2.767,8.617,8.617,0,0,1,3.823-1.534,7.724,7.724,0,0,1,3.29.1,4.487,4.487,0,0,1,2.182,1.195,4.268,4.268,0,0,1,1,1.9A17.93,17.93,0,0,1,3685.772,940.96Zm-5.607-.948a7.8,7.8,0,0,0-.194-2.172q-.177-.415-.812-.312a.967.967,0,0,0-.818.6,7.406,7.406,0,0,0-.181,2.2l.1,10.761a7.487,7.487,0,0,0,.212,2.285q.192.365.817.264a.954.954,0,0,0,.815-.6,7.1,7.1,0,0,0,.171-2.115Z" transform="translate(-3672.581 -934.029)"/></g></g><g transform="translate(1.016 0.745)"><g transform="translate(0 7.077)"><path class="c" d="M3025.724,1059.73l-5.438.875.012-1.634a2.908,2.908,0,0,0-.2-1.424.662.662,0,0,0-.692-.2,1.093,1.093,0,0,0-.8.551,2.676,2.676,0,0,0-.282,1.325,3.241,3.241,0,0,0,.291,1.614,3.463,3.463,0,0,0,1.646,1.082q3.9,1.644,4.909,2.938t1,4.536a8.736,8.736,0,0,1-.578,3.564,5.57,5.57,0,0,1-2.2,2.223,10.054,10.054,0,0,1-3.783,1.36,8.079,8.079,0,0,1-4.034-.226,3.407,3.407,0,0,1-2.173-1.87,10.34,10.34,0,0,1-.484-3.745l.013-1.444,5.459-.875-.019,2.683a3.194,3.194,0,0,0,.22,1.557.777.777,0,0,0,.816.223,1.18,1.18,0,0,0,.876-.589,2.786,2.786,0,0,0,.294-1.381,3.634,3.634,0,0,0-.529-2.46,13.782,13.782,0,0,0-2.735-1.562,21.422,21.422,0,0,1-2.883-1.591,3.789,3.789,0,0,1-1.161-1.582,7.024,7.024,0,0,1-.437-2.813,8.636,8.636,0,0,1,.7-3.811,5.662,5.662,0,0,1,2.152-2.176,9.807,9.807,0,0,1,3.56-1.234,8.9,8.9,0,0,1,3.873.1,3.2,3.2,0,0,1,2.111,1.476,8.8,8.8,0,0,1,.5,3.641Z" transform="translate(-3012.834 -1053.482)"/></g><g transform="translate(13.586 4.349)"><path class="c" d="M3231.3,1011.832l-6.7,23.969-4.279.685,6.781-23.976Z" transform="translate(-3220.325 -1011.832)"/></g><g transform="translate(29.532 2.292)"><path class="c" d="M3474.632,989.887a3.27,3.27,0,0,1,1.91,1.158q.673.867.7,4.533a11.593,11.593,0,0,1-.5,4.024,5.306,5.306,0,0,1-2.045,2.41,9.957,9.957,0,0,1-4.108,1.471,8.078,8.078,0,0,1-3.979-.139,3.755,3.755,0,0,1-2.107-1.721,9.585,9.585,0,0,1-.646-4.164,17.629,17.629,0,0,1,.306-3.525,4.368,4.368,0,0,1,1.96-2.674,2.572,2.572,0,0,1-1.565-1.307,5.65,5.65,0,0,1-.524-2.632,6.278,6.278,0,0,1,1.6-4.527,8.238,8.238,0,0,1,4.8-2.2q3.69-.6,5.107.685a5.308,5.308,0,0,1,1.435,4.087,5.791,5.791,0,0,1-.448,2.648A6.021,6.021,0,0,1,3474.632,989.887Zm-3.169-4.225a3.293,3.293,0,0,0-.206-1.445q-.2-.328-.77-.237a.914.914,0,0,0-.746.509,3.909,3.909,0,0,0-.189,1.482l.005,1.675a2.743,2.743,0,0,0,.227,1.34.682.682,0,0,0,.75.261.92.92,0,0,0,.748-.5,4.2,4.2,0,0,0,.188-1.577Zm.153,9.149a3.266,3.266,0,0,0-.273-1.64.786.786,0,0,0-.835-.281,1.04,1.04,0,0,0-.8.531,4.083,4.083,0,0,0-.236,1.735l.013,2.86a3.619,3.619,0,0,0,.281,1.8.825.825,0,0,0,.859.271.984.984,0,0,0,.805-.545,5.434,5.434,0,0,0,.2-1.906Z" transform="translate(-3463.859 -980.405)"/></g><g transform="translate(44.215)"><path class="c" d="M3701.286,952.337l.093,7.355a17.679,17.679,0,0,1-.229,3.7,5.97,5.97,0,0,1-1.125,2.324,6.136,6.136,0,0,1-2.1,1.77,9.183,9.183,0,0,1-2.764.881,10.253,10.253,0,0,1-3.36.083,3.8,3.8,0,0,1-2.145-1.081,4.974,4.974,0,0,1-1.145-1.855,11.827,11.827,0,0,1-.362-3.345l-.058-7.7a15.4,15.4,0,0,1,.5-4.636,5.617,5.617,0,0,1,2.1-2.767,8.621,8.621,0,0,1,3.824-1.534,7.726,7.726,0,0,1,3.29.1,4.488,4.488,0,0,1,2.182,1.195,4.261,4.261,0,0,1,1,1.9A17.941,17.941,0,0,1,3701.286,952.337Zm-5.607-.948a7.8,7.8,0,0,0-.193-2.172q-.177-.415-.812-.312a.966.966,0,0,0-.818.6,7.4,7.4,0,0,0-.181,2.2l.1,10.761a7.47,7.47,0,0,0,.212,2.285q.192.365.817.264a.954.954,0,0,0,.815-.6,7.111,7.111,0,0,0,.171-2.115Z" transform="translate(-3688.095 -945.406)"/></g></g></g></g></svg>