<svg xmlns="http://www.w3.org/2000/svg" xmlns:xlink="http://www.w3.org/1999/xlink" width="161.208" height="67.834" viewBox="0 0 161.208 67.834"><defs><style>.a,.b{fill:#fff;}.b{fill-rule:evenodd;}.c{fill:#5ccdff;mix-blend-mode:multiply;isolation:isolate;}.d,.e{fill:#00a3e9;}.e{opacity:0.665;}.f{opacity:0.413;fill:url(#aa);}.g{opacity:0.651;fill:url(#ab);}.h{filter:url(#as);}.i{filter:url(#aq);}.j{filter:url(#ao);}.k{filter:url(#am);}.l{filter:url(#ak);}.m{filter:url(#ai);}.n{filter:url(#ag);}.o{filter:url(#ae);}.p{filter:url(#ac);}.q{filter:url(#y);}.r{filter:url(#w);}.s{filter:url(#u);}.t{filter:url(#s);}.u{filter:url(#q);}.v{filter:url(#o);}.w{filter:url(#m);}.x{filter:url(#k);}.y{filter:url(#i);}.z{filter:url(#g);}.aa{filter:url(#e);}.ab{filter:url(#c);}.ac{filter:url(#a);}</style><filter id="a" x="0" y="0" width="32.452" height="49.548" filterUnits="userSpaceOnUse"><feOffset dy="3" input="SourceAlpha"/><feGaussianBlur stdDeviation="3" result="b"/><feFlood flood-color="#00427b" flood-opacity="0.4"/><feComposite operator="in" in2="b"/><feComposite in="SourceGraphic"/></filter><filter id="c" x="15.334" y="0.353" width="35.095" height="48.843" filterUnits="userSpaceOnUse"><feOffset dy="3" input="SourceAlpha"/><feGaussianBlur stdDeviation="3" result="d"/><feFlood flood-color="#00427b" flood-opacity="0.4"/><feComposite operator="in" in2="d"/><feComposite in="SourceGraphic"/></filter><filter id="e" x="34.368" y="0.353" width="32.981" height="48.843" filterUnits="userSpaceOnUse"><feOffset dy="3" input="SourceAlpha"/><feGaussianBlur stdDeviation="3" result="f"/><feFlood flood-color="#00427b" flood-opacity="0.4"/><feComposite operator="in" in2="f"/><feComposite in="SourceGraphic"/></filter><filter id="g" x="52.257" y="0.353" width="31.218" height="48.843" filterUnits="userSpaceOnUse"><feOffset dy="3" input="SourceAlpha"/><feGaussianBlur stdDeviation="3" result="h"/><feFlood flood-color="#00427b" flood-opacity="0.4"/><feComposite operator="in" in2="h"/><feComposite in="SourceGraphic"/></filter><filter id="i" x="68.471" y="0.353" width="33.069" height="48.843" filterUnits="userSpaceOnUse"><feOffset dy="3" input="SourceAlpha"/><feGaussianBlur stdDeviation="3" result="j"/><feFlood flood-color="#00427b" flood-opacity="0.4"/><feComposite operator="in" in2="j"/><feComposite in="SourceGraphic"/></filter><filter id="k" x="16.323" y="38.136" width="44.325" height="27.512" filterUnits="userSpaceOnUse"><feOffset dy="3" input="SourceAlpha"/><feGaussianBlur stdDeviation="3" result="l"/><feFlood flood-color="#00427b" flood-opacity="0.4"/><feComposite operator="in" in2="l"/><feComposite in="SourceGraphic"/></filter><filter id="m" x="49.512" y="40.017" width="24.547" height="25.631" filterUnits="userSpaceOnUse"><feOffset dy="3" input="SourceAlpha"/><feGaussianBlur stdDeviation="3" result="n"/><feFlood flood-color="#00427b" flood-opacity="0.4"/><feComposite operator="in" in2="n"/><feComposite in="SourceGraphic"/></filter><filter id="o" x="71.957" y="40.013" width="21.577" height="25.508" filterUnits="userSpaceOnUse"><feOffset dy="3" input="SourceAlpha"/><feGaussianBlur stdDeviation="3" result="p"/><feFlood flood-color="#00427b" flood-opacity="0.4"/><feComposite operator="in" in2="p"/><feComposite in="SourceGraphic"/></filter><filter id="q" x="43.397" y="39.985" width="23.267" height="25.634" filterUnits="userSpaceOnUse"><feOffset dy="3" input="SourceAlpha"/><feGaussianBlur stdDeviation="3" result="r"/><feFlood flood-color="#00427b" flood-opacity="0.4"/><feComposite operator="in" in2="r"/><feComposite in="SourceGraphic"/></filter><filter id="s" x="56.835" y="40.007" width="24.337" height="27.828" filterUnits="userSpaceOnUse"><feOffset dy="3" input="SourceAlpha"/><feGaussianBlur stdDeviation="3" result="t"/><feFlood flood-color="#00427b" flood-opacity="0.4"/><feComposite operator="in" in2="t"/><feComposite in="SourceGraphic"/></filter><filter id="u" x="75.925" y="39.985" width="24.793" height="25.634" filterUnits="userSpaceOnUse"><feOffset dy="3" input="SourceAlpha"/><feGaussianBlur stdDeviation="3" result="v"/><feFlood flood-color="#00427b" flood-opacity="0.4"/><feComposite operator="in" in2="v"/><feComposite in="SourceGraphic"/></filter><filter id="w" x="64.32" y="40.14" width="24.456" height="25.53" filterUnits="userSpaceOnUse"><feOffset dy="3" input="SourceAlpha"/><feGaussianBlur stdDeviation="3" result="x"/><feFlood flood-color="#00427b" flood-opacity="0.4"/><feComposite operator="in" in2="x"/><feComposite in="SourceGraphic"/></filter><filter id="y" x="0.337" y="36.126" width="31.403" height="31.399" filterUnits="userSpaceOnUse"><feOffset dy="3" input="SourceAlpha"/><feGaussianBlur stdDeviation="3" result="z"/><feFlood flood-color="#00427b" flood-opacity="0.4"/><feComposite operator="in" in2="z"/><feComposite in="SourceGraphic"/></filter><linearGradient id="aa" x1="0.5" x2="0.5" y2="1" gradientUnits="objectBoundingBox"><stop offset="0" stop-color="#00a3e9"/><stop offset="0.419" stop-color="#029ee0"/><stop offset="1" stop-color="#0a7eaf"/></linearGradient><linearGradient id="ab" x1="0.164" y1="0.516" x2="1.058" y2="0.281" gradientUnits="objectBoundingBox"><stop offset="0" stop-color="#38b6ff"/><stop offset="1" stop-color="#0077bc"/></linearGradient><filter id="ac" x="97.556" y="16.139" width="27.578" height="39.682" filterUnits="userSpaceOnUse"><feOffset dy="3" input="SourceAlpha"/><feGaussianBlur stdDeviation="3" result="ad"/><feFlood flood-color="#00427b" flood-opacity="0.4"/><feComposite operator="in" in2="ad"/><feComposite in="SourceGraphic"/></filter><filter id="ae" x="110.414" y="16.369" width="34.532" height="39.682" filterUnits="userSpaceOnUse"><feOffset dy="3" input="SourceAlpha"/><feGaussianBlur stdDeviation="3" result="af"/><feFlood flood-color="#00427b" flood-opacity="0.4"/><feComposite operator="in" in2="af"/><feComposite in="SourceGraphic"/></filter><filter id="ag" x="129.904" y="16.057" width="30.782" height="30.367" filterUnits="userSpaceOnUse"><feOffset dy="3" input="SourceAlpha"/><feGaussianBlur stdDeviation="3" result="ah"/><feFlood flood-color="#00427b" flood-opacity="0.4"/><feComposite operator="in" in2="ah"/><feComposite in="SourceGraphic"/></filter><filter id="ai" x="130.217" y="30.215" width="20.588" height="20.848" filterUnits="userSpaceOnUse"><feOffset dy="3" input="SourceAlpha"/><feGaussianBlur stdDeviation="3" result="aj"/><feFlood flood-color="#00427b" flood-opacity="0.4"/><feComposite operator="in" in2="aj"/><feComposite in="SourceGraphic"/></filter><filter id="ak" x="132.894" y="30.153" width="20.263" height="20.972" filterUnits="userSpaceOnUse"><feOffset dy="3" input="SourceAlpha"/><feGaussianBlur stdDeviation="3" result="al"/><feFlood flood-color="#00427b" flood-opacity="0.4"/><feComposite operator="in" in2="al"/><feComposite in="SourceGraphic"/></filter><filter id="am" x="135.267" y="30.153" width="20.589" height="20.972" filterUnits="userSpaceOnUse"><feOffset dy="3" input="SourceAlpha"/><feGaussianBlur stdDeviation="3" result="an"/><feFlood flood-color="#00427b" flood-opacity="0.4"/><feComposite operator="in" in2="an"/><feComposite in="SourceGraphic"/></filter><filter id="ao" x="137.847" y="30.215" width="20.522" height="20.866" filterUnits="userSpaceOnUse"><feOffset dy="3" input="SourceAlpha"/><feGaussianBlur stdDeviation="3" result="ap"/><feFlood flood-color="#00427b" flood-opacity="0.4"/><feComposite operator="in" in2="ap"/><feComposite in="SourceGraphic"/></filter><filter id="aq" x="140.277" y="30.153" width="20.932" height="20.972" filterUnits="userSpaceOnUse"><feOffset dy="3" input="SourceAlpha"/><feGaussianBlur stdDeviation="3" result="ar"/><feFlood flood-color="#00427b" flood-opacity="0.4"/><feComposite operator="in" in2="ar"/><feComposite in="SourceGraphic"/></filter><filter id="as" x="99.027" y="6.888" width="41.839" height="24.232" filterUnits="userSpaceOnUse"><feOffset dy="3" input="SourceAlpha"/><feGaussianBlur stdDeviation="3" result="at"/><feFlood flood-color="#00427b" flood-opacity="0.4"/><feComposite operator="in" in2="at"/><feComposite in="SourceGraphic"/></filter></defs><g transform="translate(-6.017 -1.297)"><g transform="translate(15.017 7.297)"><g transform="translate(0)"><g class="ac" transform="matrix(1, 0, 0, 1, -9, -6)"><path class="a" d="M1315.228,343.072v4.1c0,4.935-2.467,7.755-7.226,7.755s-7.226-2.82-7.226-7.755V331.132c0-4.935,2.467-7.755,7.226-7.755s7.226,2.82,7.226,7.755v3h-4.582v-3.3c0-2.2-.969-3.04-2.512-3.04s-2.511.837-2.511,3.04v16.655c0,2.2.969,3,2.511,3s2.512-.793,2.512-3v-4.406Z" transform="translate(-1291.78 -317.38)"/></g><g class="ab" transform="matrix(1, 0, 0, 1, -9, -6)"><path class="a" d="M1370.07,345.45l-6.124-20.62h5.067l3.7,14.055,3.7-14.055h4.626l-6.125,20.62v10.222h-4.847Z" transform="translate(-1339.61 -318.48)"/></g><g class="aa" transform="matrix(1, 0, 0, 1, -9, -6)"><path class="a" d="M1456.858,331.924v1.1c0,3.173-.969,5.2-3.128,6.213,2.6,1.013,3.613,3.349,3.613,6.609v2.511c0,4.759-2.511,7.314-7.358,7.314h-7.622V324.83h7.314C1454.7,324.83,1456.858,327.165,1456.858,331.924Zm-9.65-2.688v8.151h1.895c1.807,0,2.908-.793,2.908-3.26v-1.718c0-2.2-.749-3.173-2.468-3.173Zm0,12.557v9.473h2.776c1.63,0,2.512-.749,2.512-3.04v-2.688c0-2.864-.925-3.745-3.128-3.745Z" transform="translate(-1398.99 -318.48)"/></g><g class="z" transform="matrix(1, 0, 0, 1, -9, -6)"><path class="a" d="M1520.9,337.828h6.653v4.406H1520.9v9.033h8.371v4.406h-13.218V324.83h13.218v4.406H1520.9Z" transform="translate(-1454.8 -318.48)"/></g><g class="y" transform="matrix(1, 0, 0, 1, -9, -6)"><path class="a" d="M1592.991,355.673a9.487,9.487,0,0,1-.441-3.789v-4.847c0-2.864-.969-3.921-3.173-3.921H1587.7v12.557h-4.847V324.83h7.314c5.023,0,7.182,2.335,7.182,7.094v2.423c0,3.172-1.014,5.243-3.173,6.257,2.423,1.013,3.217,3.349,3.217,6.565v4.759a9.087,9.087,0,0,0,.529,3.745Zm-5.287-26.437v9.473h1.894c1.807,0,2.908-.793,2.908-3.26v-3.04c0-2.2-.749-3.173-2.467-3.173Z" transform="translate(-1505.39 -318.48)"/></g><g transform="translate(0.337 36.126)"><g transform="translate(15.986 2.01)"><g class="x" transform="matrix(1, 0, 0, 1, -25.32, -44.14)"><path class="a" d="M1386.924,482.368c-2.109,0-3.6,1.522-3.61,3.988a3.593,3.593,0,0,0,3.624,3.643,3.44,3.44,0,0,0,2.161-.492v-1.248a4.181,4.181,0,0,1-1.812.364,2.027,2.027,0,0,1-2.184-1.6l-.013-.088h1.318a6.4,6.4,0,0,0,2.664-.384,1.353,1.353,0,0,0,.791-1.357,2.824,2.824,0,0,0-2.938-2.822m.859,3.232a6,6,0,0,1-1.78.166h-.919l.005-.079.014-.251a1.68,1.68,0,0,1,1.655-1.666,1.793,1.793,0,0,1,1.083.3,1.079,1.079,0,0,1,.417.9.614.614,0,0,1-.475.633m2.987-.387v4.658h1.729v-4.324a1.911,1.911,0,0,1,.352-1.273,1.275,1.275,0,0,1,1.023-.4,2.822,2.822,0,0,1,.47.038v-1.37a1.921,1.921,0,0,0-.875-.18,2.578,2.578,0,0,0-2.7,2.849m-22.749,4.658h1.727v-9.384h-1.727Zm6.384-7.5a3.052,3.052,0,0,0-3.316,3.127v4.376h1.717v-4.25a1.967,1.967,0,0,1,.4-1.29,1.325,1.325,0,0,1,1.047-.465,1.494,1.494,0,0,1,1.18.46,2.121,2.121,0,0,1,.42,1.432v4.113h1.714v-4.277a3.026,3.026,0,0,0-3.161-3.226m6.2-1.881h-1.709l.006,6.771a2.459,2.459,0,0,0,2.743,2.741c.793,0,1.27-.259,1.466-.672V488.26a3.153,3.153,0,0,1-1.242.2,1.227,1.227,0,0,1-.933-.334,1.541,1.541,0,0,1-.331-1.089v-3.169h1.5c.731,0,1.037-.467,1.041-.812v-.686H1380.6Z" transform="translate(-1342.7 -436.35)"/></g><g class="w" transform="matrix(1, 0, 0, 1, -25.32, -44.14)"><path class="a" d="M1510.507,492.413a1.354,1.354,0,0,0,.791-1.357,2.823,2.823,0,0,0-2.937-2.822c-2.109,0-3.6,1.522-3.61,3.988a3.592,3.592,0,0,0,3.622,3.643,3.445,3.445,0,0,0,2.162-.492v-1.248a4.188,4.188,0,0,1-1.813.364,2.027,2.027,0,0,1-2.185-1.6l-.012-.088h1.318a6.4,6.4,0,0,0,2.663-.384m-3.987-.781.006-.079.012-.251a1.68,1.68,0,0,1,1.653-1.666,1.789,1.789,0,0,1,1.085.3,1.072,1.072,0,0,1,.418.9.615.615,0,0,1-.475.633,6,6,0,0,1-1.78.166Z" transform="translate(-1446.24 -442.22)"/></g><g class="v" transform="matrix(1, 0, 0, 1, -25.32, -44.14)"><path class="a" d="M1597.217,491.067v4.658h1.731V491.4a1.91,1.91,0,0,1,.353-1.273,1.277,1.277,0,0,1,1.023-.4,2.814,2.814,0,0,1,.471.038V488.4a1.922,1.922,0,0,0-.876-.18,2.579,2.579,0,0,0-2.7,2.849" transform="translate(-1516.26 -442.21)"/></g><g class="u" transform="matrix(1, 0, 0, 1, -25.32, -44.14)"><path class="a" d="M1481.966,495.739c-1.262,0-2.2-.69-2.2-1.434v-.827h.063a3.292,3.292,0,0,0,2.061.691c.841,0,1.247-.257,1.247-.8,0-.419-.242-.621-1.427-.8-1.449-.216-2.148-.826-2.148-1.935a2.671,2.671,0,0,1,2.912-2.531c1.555,0,2.19.852,2.19,1.556v.69h-.063a2.888,2.888,0,0,0-1.959-.675c-1.045,0-1.375.337-1.375.811,0,.366.2.515,1.375.717,1.422.244,2.187.907,2.187,2.072,0,1.543-1.018,2.463-2.861,2.463" transform="translate(-1427.16 -442.12)"/></g><g class="t" transform="matrix(1, 0, 0, 1, -25.32, -44.14)"><path class="a" d="M1541.23,493.621c.012.3.027.69.027.934a3.248,3.248,0,0,1-3.36,3.465c-1.413,0-2.38-.73-2.38-1.6V495.6h.076a2.927,2.927,0,0,0,2.178.785c1.232,0,1.792-.622,1.792-1.678,0-.107,0-.257-.012-.38,0-.107-.012-.3-.012-.364v-.175a1.748,1.748,0,0,1-1.768,1.082,2.793,2.793,0,0,1-2.851-2.952,3.434,3.434,0,0,1,3.485-3.722c1.707,0,2.8,1.327,2.8,3.2v1.245c0,.244.012.663.025.988m-4.568-1.935a1.48,1.48,0,0,0,1.375,1.668c.861,0,1.478-.684,1.478-1.859,0-1.148-.542-1.71-1.3-1.71a1.7,1.7,0,0,0-1.556,1.9" transform="translate(-1469.08 -442.19)"/></g><g class="s" transform="matrix(1, 0, 0, 1, -25.32, -44.14)"><path class="a" d="M1617.041,488.105a3.411,3.411,0,0,1,3.318,3.7c0,2.192-1.212,3.938-3.475,3.938a3.4,3.4,0,0,1-3.318-3.681c0-2.194,1.211-3.952,3.474-3.952m-.157,1.532c-1.043,0-1.574.9-1.574,2.159,0,1.508.531,2.412,1.734,2.412,1.058,0,1.573-.9,1.573-2.145,0-1.523-.543-2.426-1.733-2.426" transform="translate(-1528.64 -442.12)"/></g><g class="r" transform="matrix(1, 0, 0, 1, -25.32, -44.14)"><path class="a" d="M1568.906,496.272a3.051,3.051,0,0,0,3.3-3.138v-4.391h-1.71v4.266a1.981,1.981,0,0,1-.4,1.292,1.317,1.317,0,0,1-1.043.468,1.486,1.486,0,0,1-1.177-.462,2.136,2.136,0,0,1-.417-1.438v-4.127h-1.709v4.293a3.025,3.025,0,0,0,3.152,3.237" transform="translate(-1492.43 -442.6)"/></g></g><g class="q" transform="matrix(1, 0, 0, 1, -9.34, -42.13)"><path class="b" d="M1303.954,472.207a1.79,1.79,0,0,0-1.789,1.789v11.61h11.611a1.79,1.79,0,0,0,1.791-1.79V472.207Zm8.482,9.671-7.141,1.29V475.96l7.141-1.29Z" transform="translate(-1292.83 -430.08)"/></g></g></g></g><g transform="translate(106.835 2.667)"><g transform="matrix(0.035, 0.999, -0.999, 0.035, 55.201, 0)"><circle class="c" cx="26.028" cy="26.028" r="26.028" transform="translate(1.589 1.59)"/><circle class="d" cx="26.028" cy="26.028" r="26.028" transform="translate(3.179 3.179)"/><circle class="e" cx="27.617" cy="27.617" r="27.617" transform="translate(0 0)"/><circle class="f" cx="26.028" cy="26.028" r="26.028" transform="translate(3.179 3.179)"/><circle class="g" cx="26.028" cy="26.028" r="26.028" transform="translate(1.617 0.795)"/></g><g transform="translate(5.738 20.687)"><g class="p" transform="matrix(1, 0, 0, 1, -106.56, -22.06)"><path class="a" d="M1907.833,456.911V443.527a2.937,2.937,0,0,1-1.9.689,3.213,3.213,0,0,1-2.1-.754,2.645,2.645,0,0,1-.82-1.968,2.319,2.319,0,0,1,1.279-2.3,3.054,3.054,0,0,0,2,.722,2.847,2.847,0,0,0,2.788-2.46h1.41c1.378,0,2.1.755,2.1,2.23v17.221a1.943,1.943,0,0,1-2.1,2.231h-.623C1908.521,459.141,1907.833,458.354,1907.833,456.911Z" transform="translate(-1796.45 -415.32)"/></g><g class="o" transform="matrix(1, 0, 0, 1, -106.56, -22.06)"><path class="a" d="M1988.816,459.258c-1.345-.82-2.1-1.837-2.1-2.821a2.674,2.674,0,0,1,2-2.263,7.062,7.062,0,0,0,5.839,2.854c2.722,0,4.4-1.345,4.4-3.477s-1.509-3.379-4.231-3.379a6.824,6.824,0,0,0-4.363,1.312c-1.9-.066-2.854-.886-2.854-2.821v-7.02c0-1.706.722-2.69,2.329-2.69H2000.1c1.509,0,2.263.623,2.263,1.9v.164c0,1.279-.722,1.87-2.263,1.87h-8.562v4.756a10.3,10.3,0,0,1,3.871-.787c4.724,0,7.84,2.559,7.84,6.725,0,4.3-3.313,7.052-8.627,7.052A11.4,11.4,0,0,1,1988.816,459.258Z" transform="translate(-1867.3 -416.59)"/></g><g class="n" transform="matrix(1, 0, 0, 1, -106.56, -22.06)"><path class="a" d="M2111.768,440.517v-.147a2.807,2.807,0,0,1,2.979-2.851,2.773,2.773,0,0,1,2.943,2.832v.147a2.964,2.964,0,0,1-5.922.018Zm.938,8.442a1.311,1.311,0,0,1,.5-.938l9.251-10.538c.092-.11,1.1.166,1.1.828a1.615,1.615,0,0,1-.5.975l-9.25,10.52C2113.717,449.914,2112.706,449.6,2112.706,448.958Zm3.255-8.368V440.3a1.248,1.248,0,0,0-1.232-1.4,1.229,1.229,0,0,0-1.232,1.4v.294a1.239,1.239,0,0,0,1.251,1.361A1.213,1.213,0,0,0,2115.96,440.59Zm2.667,6.345v-.147a2.818,2.818,0,0,1,2.98-2.85,2.763,2.763,0,0,1,2.942,2.832v.147a2.964,2.964,0,0,1-5.922.018Zm4.212.055V446.7a1.258,1.258,0,0,0-1.232-1.4,1.229,1.229,0,0,0-1.232,1.4v.294a1.24,1.24,0,1,0,2.465,0Z" transform="translate(-1972.86 -415.4)"/></g><g class="m" transform="matrix(1, 0, 0, 1, -106.56, -22.06)"><path class="a" d="M2114.3,556.876a.33.33,0,0,1,.339-.361h.722a1.358,1.358,0,0,1,1.527,1.413,1.386,1.386,0,0,1-1.55,1.435h-.678a.359.359,0,0,1-.361-.357Zm1.941,1.057a.806.806,0,0,0-.9-.863h-.4v1.739h.392A.816.816,0,0,0,2116.246,557.933Z" transform="translate(-1975.09 -520.3)"/></g><g class="l" transform="matrix(1, 0, 0, 1, -106.56, -22.06)"><path class="a" d="M2136.006,558.411c0-.18.224-.343.247-.321a1.159,1.159,0,0,0,.845.383c.339,0,.52-.123.52-.344,0-.255-.287-.308-.621-.383-.453-.1-.92-.269-.92-.854,0-.528.422-.876,1.109-.876a1.4,1.4,0,0,1,.819.211.392.392,0,0,1,.2.313.423.423,0,0,1-.255.339,1.021,1.021,0,0,0-.758-.348c-.308,0-.493.128-.493.335,0,.246.255.282.607.361.515.114.965.326.965.863,0,.568-.418.9-1.167.9a1.432,1.432,0,0,1-.92-.26A.408.408,0,0,1,2136.006,558.411Z" transform="translate(-1994.11 -519.86)"/></g><g class="k" transform="matrix(1, 0, 0, 1, -106.56, -22.06)"><path class="a" d="M2156.71,556.016a1.388,1.388,0,0,1,.832.238.567.567,0,0,1,.259.409c0,.286-.365.352-.374.33a.778.778,0,0,0-.7-.387.819.819,0,0,0-.819.894.832.832,0,0,0,.828.9.728.728,0,0,0,.7-.427c.009-.026.388.04.388.326a.611.611,0,0,1-.273.436,1.388,1.388,0,0,1-.858.256,1.486,1.486,0,0,1,.009-2.972Z" transform="translate(-2010.98 -519.86)"/></g><g class="j" transform="matrix(1, 0, 0, 1, -106.56, -22.06)"><path class="a" d="M2177.1,557.083h-.643c-.194,0-.3-.1-.3-.277v-.022c0-.176.105-.268.3-.268h1.924c.2,0,.3.092.3.268v.022c0,.18-.1.277-.3.277h-.629v2a.264.264,0,0,1-.291.295h-.093c-.176,0-.268-.1-.268-.295Z" transform="translate(-2029.31 -520.3)"/></g><g class="i" transform="matrix(1, 0, 0, 1, -106.56, -22.06)"><path class="a" d="M2195.864,557.5a1.427,1.427,0,0,1,1.47-1.488,1.486,1.486,0,1,1-1.47,1.488Zm2.289,0a.832.832,0,0,0-.823-.911.819.819,0,0,0-.819.907.825.825,0,1,0,1.642,0Z" transform="translate(-2046.59 -519.86)"/></g></g><g class="h" transform="matrix(1, 0, 0, 1, -100.82, -1.37)"><path class="a" d="M2.553-16h.2a.551.551,0,0,0,.609-.628v-1.865H5.973v1.865c0,.412.2.628.572.628h.206a.548.548,0,0,0,.6-.628v-4.882c0-.422-.206-.628-.6-.628H6.545c-.375,0-.572.206-.572.628v1.846H3.359v-1.846a.547.547,0,0,0-.609-.628h-.2c-.375,0-.581.206-.581.628v4.882C1.972-16.212,2.178-16,2.553-16Zm5.6-1.246c0,.787.581,1.312,1.537,1.312a1.827,1.827,0,0,0,1.584-.787,1.873,1.873,0,0,0,.075.309.682.682,0,0,0,.693.44c.253,0,.5-.084.5-.15v-2.7c0-1.228-.7-1.893-2.155-1.893a2.464,2.464,0,0,0-1.78.534.836.836,0,0,0-.281.6c0,.609.843.544.853.525a1.146,1.146,0,0,1,1.124-.665.809.809,0,0,1,.928.825.576.576,0,0,1,.009.131h-.15C9.15-18.732,8.157-18.264,8.157-17.242Zm3.083-.525a1.031,1.031,0,0,1-1.134.984c-.44,0-.712-.216-.712-.562,0-.515.553-.712,1.593-.75h.253Zm2.352,1.49a3.009,3.009,0,0,0,1.574.347c1.284,0,2.015-.553,2.015-1.471,0-1.031-1.031-1.237-1.677-1.378-.618-.141-.975-.206-.975-.534,0-.29.272-.478.778-.478a1.816,1.816,0,0,1,1.34.618.656.656,0,0,0,.422-.553.676.676,0,0,0-.112-.375,2.01,2.01,0,0,0-1.734-.609c-1.181,0-1.9.59-1.9,1.481,0,1.031.975,1.237,1.6,1.368.609.131.975.2.975.553,0,.29-.281.469-.8.469a2,2,0,0,1-1.509-.618.581.581,0,0,0-.4.525A.8.8,0,0,0,13.592-16.277Zm6.2.375a1.366,1.366,0,0,0,.984-.337A.669.669,0,0,0,21-16.746a.519.519,0,0,0-.328-.515.671.671,0,0,1-.572.309c-.365,0-.506-.225-.506-.675v-1.949H20.4c.375,0,.544-.169.544-.487v-.084c0-.3-.159-.459-.534-.459h-.8v-.581c0-.487-.234-.637-.581-.637h-.122c-.375,0-.59.206-.59.637v.581H18.08c-.365,0-.534.178-.534.487v.075c0,.3.169.469.544.469h.234v2.1C18.324-16.437,18.793-15.9,19.8-15.9Zm1.631-1.34c0,.787.581,1.312,1.537,1.312a1.827,1.827,0,0,0,1.584-.787,1.873,1.873,0,0,0,.075.309.682.682,0,0,0,.693.44c.253,0,.5-.084.5-.15v-2.7c0-1.228-.7-1.893-2.155-1.893a2.464,2.464,0,0,0-1.78.534.836.836,0,0,0-.281.6c0,.609.843.544.853.525a1.146,1.146,0,0,1,1.124-.665.809.809,0,0,1,.928.825.576.576,0,0,1,.009.131h-.15C22.419-18.732,21.426-18.264,21.426-17.242Zm3.083-.525a1.031,1.031,0,0,1-1.134.984c-.44,0-.712-.216-.712-.562,0-.515.553-.712,1.593-.75h.253Z" transform="translate(106.06 35.02)"/></g></g></g></svg>