<svg xmlns="http://www.w3.org/2000/svg" xmlns:xlink="http://www.w3.org/1999/xlink" width="28.644" height="28.672" viewBox="0 0 28.644 28.672"><defs><style>.a{fill:none;}.b{clip-path:url(#a);}.c{clip-path:url(#b);}.d{fill:#18aa22;}.e{clip-path:url(#c);}</style><clipPath id="a"><path class="a" d="M1685.412-916.836a14.211,14.211,0,0,0-10.09-4.164,14.282,14.282,0,0,0-10.1,4.16A14.068,14.068,0,0,0,1661-906.8v.007a14.127,14.127,0,0,0,1.745,6.71l-1.706,7.751,7.841-1.784a14.35,14.35,0,0,0,6.436,1.529h.006a14.286,14.286,0,0,0,10.1-4.161,14.048,14.048,0,0,0,4.217-10.043A14.118,14.118,0,0,0,1685.412-916.836Zm-10.09,22.016h-.005a12.1,12.1,0,0,1-5.75-1.457l-.371-.2-5.213,1.186,1.132-5.147-.218-.376a11.957,11.957,0,0,1-1.659-5.976,12.048,12.048,0,0,1,12.083-11.97,11.986,11.986,0,0,1,8.511,3.511,11.892,11.892,0,0,1,3.574,8.464A12.042,12.042,0,0,1,1675.322-894.82Z"/></clipPath><clipPath id="b"><path class="a" d="M447-35H1887V-935H447Z"/></clipPath><clipPath id="c"><path class="a" d="M1671.425-913.056h-.628a1.206,1.206,0,0,0-.874.408,3.658,3.658,0,0,0-1.146,2.723,6.348,6.348,0,0,0,1.337,3.377c.164.218,2.266,3.62,5.6,4.929,2.768,1.088,3.331.871,3.931.817a3.309,3.309,0,0,0,2.212-1.552,2.718,2.718,0,0,0,.191-1.552c-.082-.136-.3-.218-.628-.381s-1.933-.967-2.234-1.076-.518-.163-.737.164-.862,1.081-1.053,1.3-.382.246-.71.082a9.061,9.061,0,0,1-2.623-1.627,10.032,10.032,0,0,1-1.841-2.3c-.191-.327-.021-.5.143-.666.148-.146.347-.346.51-.537a2.183,2.183,0,0,0,.32-.545.6.6,0,0,0-.027-.572c-.082-.163-.711-1.778-1-2.424h0c-.246-.544-.5-.562-.737-.572Z"/></clipPath></defs><g transform="translate(-1219 -14)"><g class="b" transform="translate(-442 935)"><g class="c"><path class="d" d="M1656-887.328h38.644V-926H1656Z"/></g></g><g class="e" transform="translate(-442 935)"><g class="c"><path class="d" d="M1663.777-895.748h23.315v-22.308h-23.315Z"/></g></g></g></svg>