<svg xmlns="http://www.w3.org/2000/svg" width="58" height="58" viewBox="0 0 58 58">
  <g id="Grupo_23814" data-name="Grupo 23814" transform="translate(2679 11499)">
    <g id="Grupo_23099" data-name="Grupo 23099" transform="translate(-2671.702 -11485.143)">
      <g id="Grupo_23094" data-name="Grupo 23094" transform="translate(4.561)">
        <path id="Trazado_21520" data-name="Trazado 21520" d="M4930.188,931.316h-28.852a.654.654,0,0,1-.653-.616,3.57,3.57,0,0,0-3.559-3.36.654.654,0,0,1-.654-.654V911.279a.654.654,0,0,1,.654-.654,3.57,3.57,0,0,0,3.559-3.36.654.654,0,0,1,.653-.616h28.852a.653.653,0,0,1,.652.616,3.57,3.57,0,0,0,3.56,3.36.654.654,0,0,1,.654.654v15.408a.654.654,0,0,1-.654.654,3.57,3.57,0,0,0-3.56,3.36A.653.653,0,0,1,4930.188,931.316Zm-28.275-1.307h27.7a4.884,4.884,0,0,1,4.136-3.932V911.889a4.883,4.883,0,0,1-4.136-3.932h-27.7a4.883,4.883,0,0,1-4.136,3.932v14.188A4.883,4.883,0,0,1,4901.913,930.009Z" transform="translate(-4896.47 -906.649)" fill="#0855c4"/>
      </g>
      <g id="Grupo_23095" data-name="Grupo 23095" transform="translate(15.432 4.478)">
        <path id="Trazado_21521" data-name="Trazado 21521" d="M5019.793,968.538a1.919,1.919,0,0,1-.895-.223l-2.979-1.566a.327.327,0,0,0-.3,0l-2.979,1.566a1.919,1.919,0,0,1-2.785-2.023l.569-3.316a.329.329,0,0,0-.095-.29l-2.409-2.349a1.919,1.919,0,0,1,1.063-3.274l3.33-.484a.328.328,0,0,0,.247-.179l1.49-3.017a1.906,1.906,0,0,1,1.721-1.07h0a1.906,1.906,0,0,1,1.721,1.07l1.489,3.017a.329.329,0,0,0,.247.179l3.33.484a1.919,1.919,0,0,1,1.063,3.274l-2.41,2.349a.328.328,0,0,0-.094.29l.569,3.316a1.923,1.923,0,0,1-1.89,2.246Zm-4.025-14.918a.6.6,0,0,0-.549.341l-1.489,3.017a1.635,1.635,0,0,1-1.231.895l-3.33.484a.612.612,0,0,0-.339,1.044l2.41,2.349a1.636,1.636,0,0,1,.47,1.447l-.568,3.317a.612.612,0,0,0,.888.645l2.979-1.566a1.635,1.635,0,0,1,1.521,0l2.979,1.566a.612.612,0,0,0,.888-.645l-.569-3.316a1.636,1.636,0,0,1,.471-1.447l2.41-2.349a.612.612,0,0,0-.339-1.044l-3.33-.484a1.636,1.636,0,0,1-1.231-.895l-1.489-3.017h0A.6.6,0,0,0,5015.768,953.62Z" transform="translate(-5007.336 -952.313)" fill="#00adee"/>
      </g>
      <g id="Grupo_23096" data-name="Grupo 23096" transform="translate(8.757 4.305)">
        <path id="Trazado_21522" data-name="Trazado 21522" d="M4942.848,963.506a1.646,1.646,0,0,1-1.618-1.921l.445-2.59a.114.114,0,0,0-.033-.1l-1.881-1.834a1.642,1.642,0,0,1,.91-2.8l2.6-.378a.113.113,0,0,0,.085-.062l1.163-2.356a1.632,1.632,0,0,1,1.473-.915h0a1.631,1.631,0,0,1,1.472.915l.918,1.86a.654.654,0,0,1-1.172.579l-.918-1.86a.326.326,0,0,0-.3-.187h0a.327.327,0,0,0-.3.187l-1.163,2.356a1.419,1.419,0,0,1-1.069.777l-2.6.378a.334.334,0,0,0-.186.571l1.882,1.834a1.419,1.419,0,0,1,.408,1.257l-.444,2.59a.334.334,0,0,0,.485.352l2.326-1.223a1.42,1.42,0,0,1,1.321,0l.584.307a.654.654,0,0,1-.608,1.157l-.584-.307a.114.114,0,0,0-.1,0l-2.326,1.223A1.64,1.64,0,0,1,4942.848,963.506Z" transform="translate(-4939.264 -950.55)" fill="#00adee"/>
      </g>
      <g id="Grupo_23097" data-name="Grupo 23097" transform="translate(29.763 4.305)">
        <path id="Trazado_21523" data-name="Trazado 21523" d="M5159.086,963.506a1.643,1.643,0,0,1-.766-.19l-2.326-1.223a.114.114,0,0,0-.1,0l-.584.307a.654.654,0,0,1-.608-1.157l.584-.307a1.419,1.419,0,0,1,1.321,0l2.326,1.223a.334.334,0,0,0,.485-.353l-.444-2.59a1.421,1.421,0,0,1,.409-1.257l1.881-1.834a.335.335,0,0,0-.185-.571l-2.6-.378a1.422,1.422,0,0,1-1.069-.777l-1.163-2.356a.326.326,0,0,0-.3-.187h0a.325.325,0,0,0-.3.187l-.918,1.86a.654.654,0,0,1-1.172-.579l.918-1.86a1.632,1.632,0,0,1,1.473-.915h0a1.632,1.632,0,0,1,1.472.915l1.163,2.356a.114.114,0,0,0,.085.062l2.6.378a1.642,1.642,0,0,1,.91,2.8l-1.882,1.834a.113.113,0,0,0-.032.1l.444,2.59a1.645,1.645,0,0,1-1.617,1.921Z" transform="translate(-5153.484 -950.55)" fill="#00adee"/>
      </g>
      <g id="Grupo_23098" data-name="Grupo 23098" transform="translate(0 6.69)">
        <path id="Trazado_21524" data-name="Trazado 21524" d="M4882.376,999.717a.666.666,0,0,1-.092-.007l-28.2-4.007a.653.653,0,0,1-.559-.7,3.517,3.517,0,0,0-3.006-3.77.653.653,0,0,1-.555-.739l2.14-15.06a.654.654,0,1,1,1.294.184l-2.054,14.456a4.83,4.83,0,0,1,3.5,4.417l27.059,3.845a4.926,4.926,0,0,1,4.591-3.3l.092-.646a.654.654,0,1,1,1.294.184l-.176,1.238a.654.654,0,0,1-.726.557,3.6,3.6,0,0,0-3.957,2.826A.653.653,0,0,1,4882.376,999.717Z" transform="translate(-4849.957 -974.871)" fill="#0855c4"/>
      </g>
    </g>
    <g id="Elipse_1477" data-name="Elipse 1477" transform="translate(-2679 -11499)" fill="none" stroke="#454a6c" stroke-width="1">
      <circle cx="29" cy="29" r="29" stroke="none"/>
      <circle cx="29" cy="29" r="28.5" fill="none"/>
    </g>
  </g>
</svg>
