<svg xmlns="http://www.w3.org/2000/svg" width="59.373" height="58.008" viewBox="0 0 59.373 58.008">
  <g id="Grupo_23811" data-name="Grupo 23811" transform="translate(3199 11499)">
    <g id="Elipse_1477" data-name="Elipse 1477" transform="translate(-3199 -11499)" fill="none" stroke="#454a6c" stroke-width="1">
      <circle cx="29" cy="29" r="29" stroke="none"/>
      <circle cx="29" cy="29" r="28.5" fill="none"/>
    </g>
    <g id="Grupo_23111" data-name="Grupo 23111" transform="translate(-3192.573 -11497.426)">
      <g id="Grupo_23085" data-name="Grupo 23085" transform="translate(8.684 18.965)">
        <path id="Trazado_21513" data-name="Trazado 21513" d="M5574.645,1040.211h-15.13v-1.229h15.13c2.329,0,11.74-3.056,12.565-3.641a102.2,102.2,0,0,0,7.57-8.541,3.09,3.09,0,0,0-2.841-.9c-1.531.177-3.668,2.932-4.516,4.109a1.53,1.53,0,0,1-.207.26l-.12.109-7.03,1.588-.134-.03c-.083-.018-.257-.071-.752-.22-.895-.27-2.56-.774-4.144-1.184a3.768,3.768,0,0,1-1.64-1.265c-.89-1.023-.89-1.305-.89-1.426,0-1.064.528-1.324,1.4-1.757.182-.09.389-.192.629-.318a8.138,8.138,0,0,1,.9-.365c1.177-.428,2.955-1.076,3.645-2.655.4-.919.444-1.736.109-2.082-.385-.4-1.419-.318-2.766.217-.665.264-2.2.745-3.969,1.3-2.432.764-5.452,1.713-7.138,2.392a12.281,12.281,0,0,0-2.293,2.207c-.383.433-.746.843-1.069,1.152l-.178.17h-2.264v-1.229h1.764c.249-.254.531-.573.827-.907a12.684,12.684,0,0,1,2.625-2.474l.04-.023.042-.017c1.724-.7,4.8-1.666,7.275-2.443,1.75-.55,3.261-1.025,3.884-1.272,1.934-.769,3.315-.745,4.1.071.714.739.763,1.988.134,3.429-.9,2.063-3.061,2.849-4.351,3.318a7.6,7.6,0,0,0-.753.3c-.252.131-.465.237-.652.329a3.66,3.66,0,0,0-.682.382.293.293,0,0,0-.031.138,5.451,5.451,0,0,0,1.6,1.634c1.607.417,3.288.925,4.191,1.2l.543.163,6.364-1.437c2.074-2.872,3.875-4.415,5.354-4.586,2.189-.254,3.813.779,4.287,1.931l.131.318-.2.278a98.163,98.163,0,0,1-8.091,9.138C5586.774,1037.156,5577.059,1040.211,5574.645,1040.211Z" transform="translate(-5559.515 -1019.182)" fill="#0855c4"/>
      </g>
      <g id="Grupo_23086" data-name="Grupo 23086" transform="translate(31.187 0)">
        <path id="Trazado_21514" data-name="Trazado 21514" d="M5783.811,843.376a4.649,4.649,0,1,1,4.648-4.649A4.654,4.654,0,0,1,5783.811,843.376Z" transform="translate(-5779.161 -834.077)" fill="#fff"/>
      </g>
      <g id="Grupo_23087" data-name="Grupo 23087" transform="translate(21.295 6.907)">
        <path id="Trazado_21515" data-name="Trazado 21515" d="M5687.254,910.788a4.649,4.649,0,1,1,4.648-4.649A4.654,4.654,0,0,1,5687.254,910.788Zm0-8.069a3.42,3.42,0,1,0,3.419,3.42A3.423,3.423,0,0,0,5687.254,902.718Z" transform="translate(-5682.605 -901.489)" fill="#0855c4"/>
      </g>
      <g id="Grupo_23088" data-name="Grupo 23088" transform="translate(31.187 14.172)">
        <path id="Trazado_21516" data-name="Trazado 21516" d="M5783.81,981.7a4.649,4.649,0,1,1,4.649-4.649A4.655,4.655,0,0,1,5783.81,981.7Zm0-8.069a3.42,3.42,0,1,0,3.419,3.42A3.424,3.424,0,0,0,5783.81,973.635Z" transform="translate(-5779.161 -972.406)" fill="#0855c4"/>
      </g>
      <g id="Grupo_23089" data-name="Grupo 23089" transform="translate(0 23.635)">
        <path id="Trazado_21517" data-name="Trazado 21517" d="M5484.051,1083.143h-9.3v-18.377h9.3Zm-8.069-1.229h6.84V1066h-6.84Z" transform="translate(-5474.753 -1064.766)" fill="#0855c4"/>
      </g>
      <g id="Grupo_23090" data-name="Grupo 23090" transform="translate(4.035 27.275)">
        <rect id="Rectángulo_5901" data-name="Rectángulo 5901" width="1.229" height="3.026" fill="#0855c4"/>
      </g>
    </g>
    <g id="Grupo_23112" data-name="Grupo 23112" transform="translate(-3161.386 -11497.426)">
      <path id="Trazado_21514-2" data-name="Trazado 21514" d="M5783.811,843.376a4.649,4.649,0,1,1,4.648-4.649A4.654,4.654,0,0,1,5783.811,843.376Zm0-8.069a3.42,3.42,0,1,0,3.419,3.42A3.423,3.423,0,0,0,5783.81,835.306Z" transform="translate(-5779.161 -834.077)" fill="#0855c4"/>
    </g>
    <g id="Grupo_23113" data-name="Grupo 23113" transform="translate(-3162.647 -11464.041)">
      <circle id="Elipse_1476" data-name="Elipse 1476" cx="11.479" cy="11.479" r="11.479" transform="translate(0 0.091)" fill="#f8f9fc"/>
      <g id="Grupo_23110" data-name="Grupo 23110" transform="translate(0 0)">
        <g id="Grupo_23092" data-name="Grupo 23092" transform="translate(0 0)">
          <path id="Trazado_21518" data-name="Trazado 21518" d="M6114.031,1096.214a11.51,11.51,0,1,1,11.51-11.51A11.523,11.523,0,0,1,6114.031,1096.214Zm0-21.654a10.144,10.144,0,1,0,10.144,10.144A10.155,10.155,0,0,0,6114.031,1074.56Z" transform="translate(-6102.521 -1073.194)" fill="#00aef0"/>
        </g>
        <path id="Trazado_21519" data-name="Trazado 21519" d="M6165.618,1135.13l5.056-5.056a.82.82,0,0,0-1.16-1.16l-5.055,5.056-5.056-5.056a.82.82,0,0,0-1.16,1.16l5.056,5.056-5.056,5.056a.82.82,0,0,0,1.16,1.16l5.056-5.056,5.055,5.056a.82.82,0,1,0,1.16-1.16Z" transform="translate(-6152.948 -1123.62)" fill="#00aef0"/>
      </g>
    </g>
  </g>
</svg>
