<svg xmlns="http://www.w3.org/2000/svg" width="56.963" height="56.963" viewBox="0 0 56.963 56.963">
  <g id="Grupo_23813" data-name="Grupo 23813" transform="translate(2939.086 11498.057)">
    <g id="Grupo_23809" data-name="Grupo 23809" transform="translate(-2939.086 -11498.057)">
      <g id="Grupo_3645" data-name="Grupo 3645" transform="translate(3.883)">
        <path id="Trazado_5493" data-name="Trazado 5493" d="M-78.585,1901.329l-.631-.369a28.609,28.609,0,0,1,24.6-14.117,28.5,28.5,0,0,1,21.392,9.677l-.549.482a27.77,27.77,0,0,0-20.843-9.429A27.876,27.876,0,0,0-78.585,1901.329Z" transform="translate(79.216 -1886.843)" fill="#454a6c"/>
      </g>
      <g id="Grupo_3646" data-name="Grupo 3646" transform="translate(0 12.557)">
        <path id="Trazado_5494" data-name="Trazado 5494" d="M-61.362,1965.622a28.514,28.514,0,0,1-28.482-28.481,28.376,28.376,0,0,1,1.788-9.953l.685.255a27.644,27.644,0,0,0-1.742,9.7,27.782,27.782,0,0,0,27.751,27.751,27.782,27.782,0,0,0,27.751-27.751,27.613,27.613,0,0,0-4.739-15.516l.605-.409a28.341,28.341,0,0,1,4.864,15.925A28.514,28.514,0,0,1-61.362,1965.622Z" transform="translate(89.844 -1921.216)" fill="#454a6c"/>
      </g>
      <g id="Grupo_3647" data-name="Grupo 3647" transform="translate(15.42 25.662)">
        <path id="Trazado_5495" data-name="Trazado 5495" d="M-36.49,1987.683l-1.461,0,.009-6.581a.837.837,0,0,0-.312-.6c-1.442-1.3-6.329-5.647-8.7-6.991a1.277,1.277,0,0,1-.68-1.153,1.216,1.216,0,0,1,.747-1.053,6.687,6.687,0,0,1,6.081.221l-2.651-9.987a1.25,1.25,0,0,1,.257-1,2.862,2.862,0,0,1,1.871-.961,2.11,2.11,0,0,1,2.168,1.13l1.922,4.345.41-6.2a2.448,2.448,0,0,1,2.483-1.75,1.858,1.858,0,0,1,1.8,1.59l.384,4.962,1.534-4.235a1.979,1.979,0,0,1,2.542-1c.423.148,1.793.716,1.631,1.787l-.888,4.386,1.1-1.67a2.018,2.018,0,0,1,2.323-.665,3.2,3.2,0,0,1,1.093.679,1.353,1.353,0,0,1,.5,1.469l-.023.057-2.338,5.214a13.768,13.768,0,0,0-.776,3.855,12.282,12.282,0,0,1-2.636,7.311,1.111,1.111,0,0,0-.285.856l.734,5.5-1.448.194-.734-5.5a2.551,2.551,0,0,1,.616-1.991,10.842,10.842,0,0,0,2.295-6.442,15.234,15.234,0,0,1,.867-4.3l.023-.057,2.265-5.05a1.759,1.759,0,0,0-.63-.42.6.6,0,0,0-.62.091l-5.249,7.966,2.34-11.556a2.24,2.24,0,0,0-.64-.338.62.62,0,0,0-.685.116l-3.841,10.608L-34,1958.8c0-.049-.155-.221-.464-.247a1.386,1.386,0,0,0-.905.459l-.8,12.06-4.325-9.775a.709.709,0,0,0-.685-.267,1.594,1.594,0,0,0-.81.339l3.807,14.332-1.884-1.812a5.333,5.333,0,0,0-5.792-1.431,81.82,81.82,0,0,1,8.58,6.954,2.271,2.271,0,0,1,.795,1.691Zm1.107-28.653Z" transform="translate(47.632 -1957.09)" fill="#0855c4"/>
      </g>
      <g id="Grupo_3648" data-name="Grupo 3648" transform="translate(24.727 14.853)">
        <rect id="Rectángulo_2444" data-name="Rectángulo 2444" width="1.461" height="3.806" transform="translate(0 0.615) rotate(-24.879)" fill="#0855c4"/>
      </g>
      <g id="Grupo_3649" data-name="Grupo 3649" transform="translate(32.823 15.573)">
        <rect id="Rectángulo_2445" data-name="Rectángulo 2445" width="3.806" height="1.461" transform="translate(0 3.151) rotate(-55.875)" fill="#0855c4"/>
      </g>
      <g id="Grupo_3650" data-name="Grupo 3650" transform="translate(29.439 12.266)">
        <rect id="Rectángulo_2446" data-name="Rectángulo 2446" width="5.234" height="1.461" transform="translate(0 5.219) rotate(-85.659)" fill="#0855c4"/>
      </g>
      <g id="Grupo_3651" data-name="Grupo 3651" transform="translate(36.441 7.094)">
        <path id="Trazado_5496" data-name="Trazado 5496" d="M23.165,1927.163l-13.256-3.035.572-3.974a63.111,63.111,0,0,1,2.3-10.065L14,1906.263l13.239,3.032-1.032,3.066a61.589,61.589,0,0,0-2.877,13.222ZM11.547,1923l10.336,2.366a63.035,63.035,0,0,1,2.939-13.476l.517-1.536-10.353-2.371-.807,2.544a61.74,61.74,0,0,0-2.251,9.831Z" transform="translate(-9.909 -1906.263)" fill="#00adee"/>
      </g>
      <g id="Grupo_3652" data-name="Grupo 3652" transform="translate(5.603 13.359)">
        <rect id="Rectángulo_2447" data-name="Rectángulo 2447" width="7.753" height="1.461" transform="translate(0 4.717) rotate(-37.48)" fill="#00adee"/>
      </g>
      <g id="Grupo_3653" data-name="Grupo 3653" transform="translate(8.098 16.442)">
        <rect id="Rectángulo_2448" data-name="Rectángulo 2448" width="7.753" height="1.461" transform="translate(0 4.717) rotate(-37.48)" fill="#00adee"/>
      </g>
      <g id="Grupo_3654" data-name="Grupo 3654" transform="translate(42.598 12.918)">
        <rect id="Rectángulo_2449" data-name="Rectángulo 2449" width="1.461" height="5.286" transform="translate(0 1.437) rotate(-79.607)" fill="#00adee"/>
      </g>
      <g id="Grupo_3655" data-name="Grupo 3655" transform="translate(41.888 16.252)">
        <rect id="Rectángulo_2450" data-name="Rectángulo 2450" width="1.461" height="5.286" transform="translate(0 1.437) rotate(-79.607)" fill="#00adee"/>
      </g>
      <g id="Grupo_3656" data-name="Grupo 3656" transform="translate(41.154 19.585)">
        <rect id="Rectángulo_2451" data-name="Rectángulo 2451" width="1.461" height="5.286" transform="translate(0 1.437) rotate(-79.607)" fill="#00adee"/>
      </g>
      <g id="Grupo_3657" data-name="Grupo 3657" transform="translate(0.041 7.399)">
        <path id="Trazado_5497" data-name="Trazado 5497" d="M-78.124,1930.969l-2.811-2.951a59.227,59.227,0,0,1-6.555-8.241l-2.243-3.4,11.661-9.275,1.759,2.781a57.683,57.683,0,0,0,8.7,10.682l1.162,1.12Zm-9.654-14.284,1.507,2.288a57.763,57.763,0,0,0,6.393,8.037l1.89,1.983,9.325-7.417a59.157,59.157,0,0,1-8.886-10.915l-.888-1.4Z" transform="translate(89.733 -1907.098)" fill="#00adee"/>
      </g>
    </g>
  </g>
</svg>
