<svg xmlns="http://www.w3.org/2000/svg" xmlns:xlink="http://www.w3.org/1999/xlink" width="92" height="94" viewBox="0 0 92 94"><defs><style>.a{fill:#f1f4f9;}.b{clip-path:url(#c);}.c{fill:#00a9ff;}.d{fill:#19467c;}.e{fill:#ffae97;}.f{fill:#e2896f;}.g{fill:#d35907;}.h{fill:#fff;}.i{fill:#49587e;}.j{filter:url(#a);}</style><filter id="a" x="0" y="0" width="92" height="94" filterUnits="userSpaceOnUse"><feOffset dy="3" input="SourceAlpha"/><feGaussianBlur stdDeviation="3" result="b"/><feFlood flood-color="#004596" flood-opacity="0.102"/><feComposite operator="in" in2="b"/><feComposite in="SourceGraphic"/></filter><clipPath id="c"><ellipse class="a" cx="37" cy="38" rx="37" ry="38"/></clipPath></defs><g transform="translate(9 6)"><g class="j" transform="matrix(1, 0, 0, 1, -9, -6)"><ellipse class="a" cx="37" cy="38" rx="37" ry="38" transform="translate(9 6)"/></g><g class="b"><g transform="translate(-0.018 12.491)"><g transform="translate(61.052 49.49)"><path class="c" d="M3637.269-1242.317q-2.032.331-4.06.659l-2.058-16.128A149.272,149.272,0,0,1,3637.269-1242.317Z" transform="translate(-3631.151 1257.785)"/></g><g transform="translate(44.619 38.95)"><path class="c" d="M3657.544-1298.917c2.963,4.506,3.678,14.086,4.006,17.574-5.539.9-10.086,2.17-15.629,2.816l-4.141-29.806S3653.687-1304.784,3657.544-1298.917Z" transform="translate(-3641.781 1308.334)"/></g><g transform="translate(28.329)"><path class="d" d="M3686.772-1483.983a13.241,13.241,0,0,1,.511-1.525c.159-.658-.072-1.043-.019-1.68a5.7,5.7,0,0,1,1.71-2.9,4.315,4.315,0,0,1,2.309-1.407c1.22-2.21,5.05-4,7.021-2.484a2.186,2.186,0,0,1,2.956.315c1.593-1.13,4.062-2.107,5.839-.9a3.4,3.4,0,0,1,1.435,2.268,2.836,2.836,0,0,1,1.175.657,2.8,2.8,0,0,1,.8,1.375c.105.407.019.895.156,1.29.255.735.761.9,1.233,1.356a3.7,3.7,0,0,1,1.018,3.46,4.615,4.615,0,0,1-.946,1.889,4.938,4.938,0,0,0-1.185,1.9c-.113.4-.089.863-.2,1.275-.948,3.692-5.264,3.956-8.364,4.56a11.551,11.551,0,0,0-3.257,1.038c-.949.5-1.744,1.235-2.658,1.794a9.7,9.7,0,0,1-5.405,1.188,15.45,15.45,0,0,0,.879,3.246c.174.355-.358.669-.533.312a19.856,19.856,0,0,1-1-3.625c-.407-1.461-1.539-2.5-1.937-3.962-.36-1.323-.31-2.719-.651-4.047a7.163,7.163,0,0,1-.5-3.306A4.484,4.484,0,0,1,3686.772-1483.983Z" transform="translate(-3686.753 1495.115)"/></g><g transform="translate(31.295 19.138)"><path class="e" d="M3748.7-1391.87l-.205,3.047-.323,4.912-.44,6.554-7.457,1.079-4.681-3.458,1.741-23.6s6.371,1.6,6.654,1.88S3748.7-1391.87,3748.7-1391.87Z" transform="translate(-3735.593 1403.339)"/></g><g transform="translate(35.251 30.089)"><path class="f" d="M3745.523-1347.26l-.323,4.912a24.929,24.929,0,0,1-2.935-1.412,12.313,12.313,0,0,1-5.687-7.065,26.916,26.916,0,0,0,5.71,2.96A10.81,10.81,0,0,0,3745.523-1347.26Z" transform="translate(-3736.578 1350.825)"/></g><g transform="translate(32.115 9.564)"><path class="e" d="M3720.447-1442.483q-.031.4-.063.8c-.435,5.4-.54,11.281-3.75,15.007-3.589,4.165-10.188,1.746-13.178-2.07-2.029-2.592-2.2-4.05-2.39-7.268-.223-3.8.2-13.234.2-13.234h19.122S3720.6-1444.634,3720.447-1442.483Z" transform="translate(-3701 1449.253)"/></g><g transform="translate(37.848 18.152)"><path class="d" d="M3760.774-1407.915a.6.6,0,0,0-.358-.149.615.615,0,0,0-.568.308,2.626,2.626,0,0,0,.053,2.366.487.487,0,0,0,.757-.006A2.11,2.11,0,0,0,3760.774-1407.915Z" transform="translate(-3759.592 1408.065)"/></g><g transform="translate(47.202 18.435)"><path class="d" d="M3715.919-1406.558a.6.6,0,0,0-.359-.149.615.615,0,0,0-.568.308,2.628,2.628,0,0,0,.053,2.366.487.487,0,0,0,.758-.006A2.11,2.11,0,0,0,3715.919-1406.558Z" transform="translate(-3714.737 1406.708)"/></g><g transform="translate(43.24 19.986)"><path class="g" d="M3730.679-1393.962c.747,0,1.777-.054,2.044-1.115a2.387,2.387,0,0,0-.061-.943c-.02-.105-.039-.2-.05-.285a24.483,24.483,0,0,0-.581-2.968l-.4.1a23.912,23.912,0,0,1,.571,2.917c.011.09.032.2.054.312a2.2,2.2,0,0,1,.066.761c-.188.746-.872.809-1.766.8l-.017.208.016.208Z" transform="translate(-3730.536 1399.272)"/></g><g transform="translate(39.731 26.654)"><path class="g" d="M3727.8-1365.048a3.6,3.6,0,0,0,3.338-1.8l-.376-.18a3.229,3.229,0,0,1-3.152,1.56,3.562,3.562,0,0,1-3.167-1.828l-.379.174a3.972,3.972,0,0,0,3.529,2.07C3727.665-1365.049,3727.734-1365.048,3727.8-1365.048Z" transform="translate(-3724.066 1367.296)"/></g><g transform="translate(35.677 14.953)"><path class="d" d="M3749.281-1422.388a.941.941,0,0,1,.207-.162,6.159,6.159,0,0,1,4.5-.705c.518.121,1.731.995.634,1.339a1.868,1.868,0,0,1-.775.006,36.127,36.127,0,0,0-4.135.054c-.214,0-.488-.051-.53-.261A.308.308,0,0,1,3749.281-1422.388Z" transform="translate(-3749.181 1423.411)"/></g><g transform="translate(45.805 15.338)"><path class="d" d="M3706.4-1420.538a.935.935,0,0,0-.207-.162,6.16,6.16,0,0,0-4.5-.705c-.518.122-1.731.995-.634,1.339a1.875,1.875,0,0,0,.775.006,36.049,36.049,0,0,1,4.136.054c.214,0,.488-.051.53-.261A.309.309,0,0,0,3706.4-1420.538Z" transform="translate(-3700.614 1421.56)"/></g><g transform="translate(31.044 7.305)"><path class="d" d="M3695.339-1450.722v0c.2-2.13-.532-4.173-.474-6.293.032-1.19.209-2.073,1.45-2.366a33.481,33.481,0,0,1,6.066-.552c2.257-.1,4.527-.166,6.786-.145a14.549,14.549,0,0,1,5.2.789c.745.292,2.586,1.077,2.321,2.2-.246,1.04-2.086,1.188-2.9,1.054a3.322,3.322,0,0,1-1.576-.715,4.764,4.764,0,0,1-2.164-.164c-.447-.116-.409-.2-.826-.141-.192.025-.485.237-.724.271a4.043,4.043,0,0,1-2.775-.763,2.459,2.459,0,0,1-2.129.625c-.7-.13-1.327-.711-2.05-.716-1.7-.012-2.365,1.73-2.679,3.08-.353,1.521-1.082,6.679-3.549,4.282A.288.288,0,0,1,3695.339-1450.722Z" transform="translate(-3694.861 1460.084)"/></g><g transform="translate(30.602 16.109)"><path class="e" d="M3787.05-1415.991a2.062,2.062,0,0,0-2.318-1.866c-2.158.129-1.7,4.721-.866,6.728a7.236,7.236,0,0,0,2.8,3.126Z" transform="translate(-3783.173 1417.863)"/></g><g transform="translate(32.401 19.258)"><path class="g" d="M3788.549-1399.022l.32-.267-.007-.008a2.037,2.037,0,0,1-.7-1.359,4.174,4.174,0,0,1,.421-1.642c.042-.106.085-.211.125-.316l-.389-.15c-.04.1-.081.206-.123.31a4.494,4.494,0,0,0-.45,1.812A2.416,2.416,0,0,0,3788.549-1399.022Z" transform="translate(-3787.744 1402.765)"/></g><g transform="translate(11.761 37.971)"><path class="h" d="M3676.334-1307.107c1.389-1.081,10.034-4.477,14.51-5.249,1.179-.2,2.087-.358,2.853-.469a16.387,16.387,0,0,1,1.945-.192,19.844,19.844,0,0,1,3.964.352,80.813,80.813,0,0,0,9.283.617c2.525.579,7.568,4.421,10.05,14.869.751,3.157,2.482,10.768,3.021,13.926-11.787,1.792-24.671-1.392-36.831-2.65-2.189-.313-5.257,2.007-7.447,1.8C3676.266-1294.069,3675.6-1306.537,3676.334-1307.107Z" transform="translate(-3676.033 1313.025)"/></g><g transform="translate(10.288 37.941)"><path class="c" d="M3797.709-1307.274c1.235-2.573,9.417-4.734,12.04-5.4s8.366-.465,8.366-.465-2.029,13.943-3.575,27.587c-2.391-.066-4.794-.213-7.212-.463q-5.285-.755-10.571-1.1c.073-.273.149-.535.231-.782C3799.511-1295.533,3796.474-1304.7,3797.709-1307.274Z" transform="translate(-3796.758 1313.171)"/></g><g transform="translate(0 42.214)"><path class="c" d="M3860.716-1291.671a.322.322,0,0,1,.279-.158,9.03,9.03,0,0,1,2.119-.839.309.309,0,0,1,.164.6,8.517,8.517,0,0,0-1.263.438c4.507,1.144,6.876,5.155,7.546,9.674a60.194,60.194,0,0,1,.524,12.118q-6.409-.9-12.819-1.208a74.128,74.128,0,0,0-7.721-.346c1.548-4.267,3.288-8.807,3.957-10.141C3855.338-1285.2,3857.118-1289.545,3860.716-1291.671Z" transform="translate(-3849.545 1292.678)"/></g><g transform="translate(60.546 57.911)"><path class="i" d="M3654.8-1217.17c.04-.394.641-.25.6.141a26.622,26.622,0,0,0-.064,4.279l-.6.1A27.861,27.861,0,0,1,3654.8-1217.17Z" transform="translate(-3654.673 1217.403)"/></g><g transform="translate(9.863 48.089)"><path class="i" d="M3872.875-1264.131c-.136-.374.461-.535.6-.164,1.354,3.743,2.8,7.467,4.022,11.255a38.181,38.181,0,0,1,1.278,4.908c-.214-.023-.428-.043-.642-.065a38.325,38.325,0,0,0-1.231-4.679C3875.672-1256.664,3874.229-1260.388,3872.875-1264.131Z" transform="translate(-3872.855 1264.506)"/></g><g transform="translate(29.032 42.65)"><path class="i" d="M3805.339-1290.363c.059-.391.654-.225.6.164l-.281,1.857c-.059.391-.654.225-.6-.164Z" transform="translate(-3805.054 1290.586)"/></g><g transform="translate(26.889 60.732)"><path class="i" d="M3816.373-1201.885c-.041.391-.658.4-.618,0q.088-.847.175-1.7c.041-.391.659-.4.618,0Q3816.461-1202.733,3816.373-1201.885Z" transform="translate(-3815.753 1203.876)"/></g><g transform="translate(31.646 37.56)"><path class="e" d="M3750.415-1313.642s-2.811,2.427-5.609,1.887a26.1,26.1,0,0,1-6.6-2.832s7.489-.41,7.566-.41S3750.415-1313.642,3750.415-1313.642Z" transform="translate(-3738.204 1314.996)"/></g></g></g></g></svg>