<svg xmlns="http://www.w3.org/2000/svg" xmlns:xlink="http://www.w3.org/1999/xlink" width="92" height="94" viewBox="0 0 92 94"><defs><style>.a{fill:#f1f4f9;}.b{fill:#19467c;}.c{fill:#ffae97;}.d{fill:#e2896f;}.e{fill:#d35907;}.f{filter:url(#a);}</style><filter id="a" x="0" y="0" width="92" height="94" filterUnits="userSpaceOnUse"><feOffset dy="3" input="SourceAlpha"/><feGaussianBlur stdDeviation="3" result="b"/><feFlood flood-color="#004596" flood-opacity="0.102"/><feComposite operator="in" in2="b"/><feComposite in="SourceGraphic"/></filter></defs><g transform="translate(-279 -1197)"><g transform="translate(0 369)"><g class="f" transform="matrix(1, 0, 0, 1, 279, 828)"><ellipse class="a" cx="37" cy="38" rx="37" ry="38" transform="translate(9 6)"/></g></g><g transform="translate(299.43 1208.092)"><path class="b" d="M3730.744-1476.451a22.185,22.185,0,0,0-.857-2.556c-.267-1.1.121-1.748.032-2.816-.15-1.8-1.7-3.566-2.868-4.856a7.236,7.236,0,0,0-3.871-2.36c-2.045-3.705-8.466-6.7-11.771-4.165a3.665,3.665,0,0,0-4.956.528c-2.671-1.894-6.811-3.532-9.79-1.508a5.7,5.7,0,0,0-2.406,3.8,4.757,4.757,0,0,0-1.971,1.1,4.688,4.688,0,0,0-1.346,2.3c-.176.682-.031,1.5-.261,2.163-.427,1.232-1.275,1.5-2.068,2.273a6.2,6.2,0,0,0-1.707,5.8,7.734,7.734,0,0,0,1.586,3.167,8.28,8.28,0,0,1,1.987,3.193c.19.672.15,1.448.327,2.137,1.59,6.189,8.825,6.632,14.022,7.645a19.373,19.373,0,0,1,5.46,1.741c1.591.846,2.924,2.07,4.456,3.007,2.793,1.709,5.863,2.038,9.063,1.992a25.928,25.928,0,0,1-1.474,5.442c-.292.6.6,1.121.894.523.956-1.951,1.106-4.015,1.68-6.078.682-2.45,2.581-4.191,3.248-6.642.6-2.219.52-4.559,1.091-6.785.494-1.929,1.239-3.6.842-5.543A7.517,7.517,0,0,0,3730.744-1476.451Z" transform="translate(-3686.753 1495.115)"/><g transform="translate(17.075 32.086)"><path class="c" d="M3736.242-1384.11l.344,5.109.542,8.235,3.982-.272,7.878-.913,8.14-3.125-1.831-28.263s-10.682,2.675-11.156,3.151S3736.242-1384.11,3736.242-1384.11Z" transform="translate(-3736.242 1403.339)"/></g><g transform="translate(17.419 50.446)"><path class="d" d="M3736.578-1344.847l.542,8.235a41.728,41.728,0,0,0,4.921-2.368,20.64,20.64,0,0,0,9.534-11.845,45.125,45.125,0,0,1-9.573,4.962A18.123,18.123,0,0,1,3736.578-1344.847Z" transform="translate(-3736.578 1350.825)"/></g><g transform="translate(4.981 16.034)"><path class="c" d="M3701.09-1437.9q.052.667.105,1.333c.729,9.06.906,18.914,6.287,25.161,6.017,6.983,17.082,2.927,22.094-3.471,3.4-4.346,3.685-6.79,4.007-12.186.375-6.372-.329-22.187-.329-22.187H3701.2S3700.839-1441.509,3701.09-1437.9Z" transform="translate(-3701 1449.253)"/></g><g transform="translate(25.466 30.434)"><path class="b" d="M3760.206-1407.814a1,1,0,0,1,.6-.25,1.031,1.031,0,0,1,.953.517,4.4,4.4,0,0,1-.089,3.967.817.817,0,0,1-1.27-.01C3759.508-1404.414,3759.23-1406.958,3760.206-1407.814Z" transform="translate(-3759.592 1408.065)"/></g><g transform="translate(9.784 30.908)"><path class="b" d="M3715.352-1406.457a1,1,0,0,1,.6-.25,1.03,1.03,0,0,1,.953.517,4.406,4.406,0,0,1-.089,3.967.817.817,0,0,1-1.271-.01C3714.653-1403.057,3714.376-1405.6,3715.352-1406.457Z" transform="translate(-3714.737 1406.708)"/></g><g transform="translate(15.307 33.508)"><path class="e" d="M3734.01-1390.37c-1.253,0-2.979-.091-3.427-1.868a4,4,0,0,1,.1-1.581c.034-.176.065-.341.083-.478a40.97,40.97,0,0,1,.974-4.976l.678.173a40.1,40.1,0,0,0-.957,4.891c-.02.15-.054.33-.091.523a3.687,3.687,0,0,0-.111,1.277c.315,1.251,1.461,1.356,2.96,1.34l.029.35-.026.35Z" transform="translate(-3730.536 1399.272)"/></g><g transform="matrix(1, 0.017, -0.017, 1, 13.079, 44.584)"><path class="e" d="M6.264,0a6.03,6.03,0,0,1,5.6,3.02l-.631.3C11.174,3.209,9.84.554,5.945.705A5.972,5.972,0,0,0,.636,3.77L0,3.477A6.659,6.659,0,0,1,5.917.007C6.035,0,6.15,0,6.264,0Z"/></g><g transform="matrix(-0.891, -0.454, 0.454, -0.891, 30.572, 29.774)"><path class="b" d="M.167.891a1.577,1.577,0,0,0,.348.272A10.326,10.326,0,0,0,8.067,2.345C8.935,2.142,10.969.678,9.13.1A3.131,3.131,0,0,0,7.83.09,60.57,60.57,0,0,1,.9,0C.538,0,.08.086.008.438A.517.517,0,0,0,.167.891Z" transform="translate(0 0)"/></g><g transform="translate(14.71 25.678) rotate(150)"><path class="b" d="M9.708.891a1.567,1.567,0,0,1-.347.272A10.327,10.327,0,0,1,1.809,2.346C.941,2.142-1.093.678.746.1a3.144,3.144,0,0,1,1.3-.01A60.439,60.439,0,0,0,8.979,0c.359,0,.817.086.888.438A.518.518,0,0,1,9.708.891Z" transform="translate(0 0)"/></g><g transform="translate(2.835 12.247)"><path class="b" d="M3730.7-1444.387v0c-.333-3.572.893-7,.795-10.551-.055-1.995-.351-3.476-2.432-3.967a56.145,56.145,0,0,0-10.17-.926c-3.785-.169-7.589-.278-11.376-.244a24.386,24.386,0,0,0-8.716,1.322c-1.25.49-4.335,1.805-3.891,3.686.412,1.744,3.5,1.992,4.869,1.767a5.573,5.573,0,0,0,2.642-1.2,7.989,7.989,0,0,0,3.627-.274c.749-.195.686-.328,1.384-.236.322.042.814.4,1.215.455a6.78,6.78,0,0,0,4.652-1.279,4.122,4.122,0,0,0,3.569,1.049c1.174-.218,2.224-1.192,3.437-1.2,2.851-.02,3.966,2.9,4.491,5.164.592,2.55,1.814,11.2,5.951,7.179A.483.483,0,0,0,3730.7-1444.387Z" transform="translate(-3694.861 1460.084)"/></g><g transform="translate(33.709 27.008)"><path class="c" d="M3783.173-1414.725a3.457,3.457,0,0,1,3.887-3.128c3.618.216,2.846,7.916,1.453,11.281a12.133,12.133,0,0,1-4.693,5.241Z" transform="translate(-3783.173 1417.863)"/></g><g transform="translate(35.309 32.287)"><path class="e" d="M3788.281-1396.49l-.537-.448.012-.014a3.415,3.415,0,0,0,1.174-2.278,7,7,0,0,0-.706-2.754c-.071-.178-.142-.354-.21-.53l.653-.252c.066.172.136.346.207.52a7.531,7.531,0,0,1,.754,3.039A4.05,4.05,0,0,1,3788.281-1396.49Z" transform="translate(-3787.744 1402.765)"/></g><g transform="translate(18.154 60.247)"><path class="c" d="M3738.5-1312.188a13.268,13.268,0,0,0,8.64,1.526c4.691-.906,11.174-5.959,11.174-5.959s-12.064,2.725-12.194,2.725S3738.5-1312.188,3738.5-1312.188Z" transform="translate(-3738.497 1316.621)"/></g></g></g></svg>