<svg xmlns="http://www.w3.org/2000/svg" width="101.914" height="76.677" viewBox="0 0 101.914 76.677">
  <g id="Grupo_23079" data-name="Grupo 23079" transform="translate(-248.31 -2347.436)">
    <g id="Grupo_17457" data-name="Grupo 17457" transform="translate(269.558 2364.257)">
      <g id="Grupo_17438" data-name="Grupo 17438" transform="translate(32.789 51.201)">
        <path id="Trazado_15297" data-name="Trazado 15297" d="M-545.852,469.939l-1.7,5.068a3.891,3.891,0,0,1-3.686,2.64h-3.583a3.885,3.885,0,0,1-3.713-2.742L-560.354,469Z" transform="translate(560.354 -468.999)" fill="#014699"/>
      </g>
      <g id="Grupo_17439" data-name="Grupo 17439" transform="translate(44.829 49.91)">
        <path id="Trazado_15298" data-name="Trazado 15298" d="M-529.738,467.355l-2.53,7.426a3.708,3.708,0,0,1-3.511,2.521h-3.851a3.7,3.7,0,0,1-3.537-2.613l-1.858-6.035Z" transform="translate(545.025 -467.355)" fill="#00aef0"/>
      </g>
      <g id="Grupo_17440" data-name="Grupo 17440" transform="translate(15.426 49.479)">
        <path id="Trazado_15299" data-name="Trazado 15299" d="M-567.423,469.469l-1.749,5.2a3.7,3.7,0,0,1-3.5,2.517h-3.864a3.692,3.692,0,0,1-3.531-2.607l-2.392-7.77Z" transform="translate(582.46 -466.806)" fill="#014699"/>
      </g>
      <g id="Grupo_17441" data-name="Grupo 17441" transform="translate(9.548 1.438)">
        <path id="Trazado_15300" data-name="Trazado 15300" d="M-588.026,418.815l-1.4-3.442a7.072,7.072,0,0,1,2.349-8.345h0a7.068,7.068,0,0,1,9.071.558l6.075,5.764-11.044,5.464Z" transform="translate(589.944 -405.643)" fill="#0096dd"/>
      </g>
      <g id="Grupo_17442" data-name="Grupo 17442" transform="translate(11.126 5.11)">
        <path id="Trazado_15301" data-name="Trazado 15301" d="M-586.436,417.828l-1.089-2.122a3.7,3.7,0,0,1,1.095-4.669h0a3.7,3.7,0,0,1,5.039.613l2.409,2.9Z" transform="translate(587.935 -410.317)" fill="#1c5cc1"/>
      </g>
      <g id="Grupo_17443" data-name="Grupo 17443" transform="translate(4.784 6.83)">
        <path id="Trazado_15302" data-name="Trazado 15302" d="M-551.011,412.507h-21.745a23.254,23.254,0,0,0-23.253,23.253h0a23.254,23.254,0,0,0,23.253,23.253h21.745a23.253,23.253,0,0,0,23.253-23.253h0A23.253,23.253,0,0,0-551.011,412.507Z" transform="translate(596.009 -412.507)" fill="#00aef0"/>
      </g>
      <g id="Grupo_17444" data-name="Grupo 17444" transform="translate(19.24 18.082)">
        <ellipse id="Elipse_1298" data-name="Elipse 1298" cx="1.851" cy="1.851" rx="1.851" ry="1.851" fill="#1c5cc1"/>
      </g>
      <g id="Grupo_17445" data-name="Grupo 17445" transform="translate(9.064 17.283)">
        <ellipse id="Elipse_1299" data-name="Elipse 1299" cx="1.851" cy="1.851" rx="1.851" ry="1.851" fill="#1c5cc1"/>
      </g>
      <g id="Grupo_17446" data-name="Grupo 17446" transform="translate(7.816 40.338)">
        <path id="Trazado_15303" data-name="Trazado 15303" d="M-589.156,457.057a4.106,4.106,0,0,1-2.993-1.433l.477-.456a3.481,3.481,0,0,0,2.512,1.228h0a4.3,4.3,0,0,0,2.729-1.228l.477.456A4.9,4.9,0,0,1-589.156,457.057Z" transform="translate(592.149 -455.168)" fill="#1c5cc1"/>
      </g>
      <g id="Grupo_17447" data-name="Grupo 17447" transform="translate(34.253 2.973)">
        <path id="Trazado_15304" data-name="Trazado 15304" d="M-553.319,411.453v7.781s-5.1-.855-5.171-1.98,3.63-9.658,3.63-9.658Z" transform="translate(558.49 -407.596)" fill="#00aef0"/>
      </g>
      <g id="Grupo_17448" data-name="Grupo 17448" transform="translate(39.425 6.836)" opacity="0.09" style="mix-blend-mode: normal;isolation: isolate">
        <path id="Trazado_15305" data-name="Trazado 15305" d="M-550.784,417.135l-1.122-4.62,11.077.06c7.17,0,13.43,3.719,17.849,9.2a22.455,22.455,0,0,0-13.572-4.54Z" transform="translate(551.906 -412.515)" fill="#1c5cc1"/>
      </g>
      <g id="Grupo_17449" data-name="Grupo 17449" transform="translate(40.299 8.49)">
        <rect id="Rectángulo_3757" data-name="Rectángulo 3757" width="12.041" height="1.29" rx="0.645" fill="#1c5cc1"/>
      </g>
      <g id="Grupo_17450" data-name="Grupo 17450" transform="translate(41.503 24.322)">
        <path id="Trazado_15306" data-name="Trazado 15306" d="M-547.56,434.777a1.7,1.7,0,0,0-1.7,1.705v11.134h11.1a1.7,1.7,0,0,0,1.7-1.705V434.777Zm8.081,9.239-6.834,1.27v-6.929l6.834-1.247Z" transform="translate(549.26 -434.777)" fill="#fff"/>
      </g>
      <g id="Grupo_17451" data-name="Grupo 17451" transform="translate(0 23.091)">
        <path id="Trazado_15307" data-name="Trazado 15307" d="M-595.628,433.21h0a6.473,6.473,0,0,0-6.472,6.474v.71a6.473,6.473,0,0,0,6.472,6.474h0a6.473,6.473,0,0,0,6.472-6.474v-.71A6.473,6.473,0,0,0-595.628,433.21Z" transform="translate(602.1 -433.21)" fill="#1c5cc1"/>
      </g>
      <g id="Grupo_17452" data-name="Grupo 17452" transform="translate(7.355 26.961)">
        <ellipse id="Elipse_1300" data-name="Elipse 1300" cx="0.564" cy="2.96" rx="0.564" ry="2.96" fill="#00aef0"/>
      </g>
      <g id="Grupo_17453" data-name="Grupo 17453" transform="translate(3.461 26.961)">
        <ellipse id="Elipse_1301" data-name="Elipse 1301" cx="0.564" cy="2.96" rx="0.564" ry="2.96" fill="#00aef0"/>
      </g>
      <g id="Grupo_17454" data-name="Grupo 17454" transform="translate(23.811 0)">
        <path id="Trazado_15308" data-name="Trazado 15308" d="M-555.554,413.512l-.826-3.838a7.417,7.417,0,0,0-6.761-5.847h0a7.419,7.419,0,0,0-7.414,4.742l-1.231,3.214Z" transform="translate(571.785 -403.811)" fill="#00aef0"/>
      </g>
      <g id="Grupo_17455" data-name="Grupo 17455" transform="translate(24.741 2.96)">
        <path id="Trazado_15309" data-name="Trazado 15309" d="M-570.6,413.384l7.184,6.787.8-9.107a3.2,3.2,0,0,0-2.716-3.448h0A3.208,3.208,0,0,0-568.7,409.4Z" transform="translate(570.601 -407.58)" fill="#1c5cc1"/>
      </g>
      <g id="Grupo_17456" data-name="Grupo 17456" transform="translate(27.001 51.201)">
        <path id="Trazado_15310" data-name="Trazado 15310" d="M-553.221,469.939l-1.7,5.068a3.891,3.891,0,0,1-3.686,2.64h-3.583a3.883,3.883,0,0,1-3.712-2.742L-567.723,469Z" transform="translate(567.723 -468.999)" fill="#00aef0"/>
      </g>
    </g>
    <path id="Trazado_21500" data-name="Trazado 21500" d="M408.439,40.3h0a13.722,13.722,0,0,0-11.294-11.294h0a13.722,13.722,0,0,0,11.294-11.294h0a13.722,13.722,0,0,0,11.294,11.294h0A13.722,13.722,0,0,0,408.439,40.3Z" transform="translate(-91.069 2329.723)" fill="#fdb62f"/>
    <path id="Trazado_21501" data-name="Trazado 21501" d="M404.532,32.486h0a8.974,8.974,0,0,0-7.387-7.387h0a8.974,8.974,0,0,0,7.387-7.387h0a8.974,8.974,0,0,0,7.387,7.387h0A8.975,8.975,0,0,0,404.532,32.486Z" transform="translate(-61.694 2391.627)" fill="#fdb62f"/>
    <path id="Trazado_21502" data-name="Trazado 21502" d="M404.463,32.349h0a8.891,8.891,0,0,0-7.318-7.318h0a8.891,8.891,0,0,0,7.318-7.318h0a8.891,8.891,0,0,0,7.318,7.318h0A8.891,8.891,0,0,0,404.463,32.349Z" transform="translate(-148.835 2365.904)" fill="#fdb62f"/>
  </g>
</svg>
