<svg xmlns="http://www.w3.org/2000/svg" width="14" height="14" viewBox="0 0 14 14"><defs><style>.a{fill:#c4d9f0;}.b{fill:#fff;}</style></defs><g transform="translate(-7284 -1035)"><circle class="a" cx="7" cy="7" r="7" transform="translate(7284 1035)"/><path class="b" d="M1.1-.585l4.74-2.55a.8.8,0,0,0,.45-.825.8.8,0,0,0-.45-.825L1.1-7.35a.854.854,0,0,0-.435.69c-.015.3.15.63.735.93L4.8-3.96l-3.4,1.74c-.585.315-.75.645-.735.945C.69-.855,1-.555,1.1-.585Z" transform="translate(7288 1046)"/></g></svg>