<svg xmlns="http://www.w3.org/2000/svg" width="1121.541" height="268.688" viewBox="0 0 1121.541 268.688">
  <g id="Grupo_23035" data-name="Grupo 23035" transform="translate(-161.46 -641)">
    <g id="Inversión" transform="translate(355.486 653.443)">
      <g id="Grupo_23005" data-name="Grupo 23005" style="mix-blend-mode: normal;isolation: isolate">
        <path id="Trazado_21351" data-name="Trazado 21351" d="M325.382,655.732c0-1.385.678-2.062,1.94-2.062h.615a1.8,1.8,0,0,1,2,2.062v16.035a1.807,1.807,0,0,1-2,2.061h-.615c-1.262,0-1.94-.707-1.94-2.061Z" transform="translate(-325.382 -651.116)" fill="#0855c4"/>
        <path id="Trazado_21352" data-name="Trazado 21352" d="M347.066,663.809v7.232c0,1.568-.831,2.061-1.939,2.061h-.463c-1.137,0-1.938-.461-1.938-2.061v-6.555c0-2-1.017-3.233-2.771-3.233a3.627,3.627,0,0,0-3.292,1.97v7.818c0,1.568-.8,2.061-1.909,2.061h-.462c-1.169,0-1.97-.461-1.97-2.061V658.3c0-.154.769-.492,1.632-.492a2.49,2.49,0,0,1,2.584,2.523,5.7,5.7,0,0,1,4.956-2.708C345.4,657.622,347.066,660.392,347.066,663.809Z" transform="translate(-324.107 -650.39)" fill="#0855c4"/>
        <path id="Trazado_21353" data-name="Trazado 21353" d="M346.286,659.046c-.062-.247,1.077-1.294,2.37-1.294,1.046,0,1.908.492,2.462,2.247l3.016,8.832L357.273,660c.554-1.754,1.448-2.247,2.37-2.247,1.323,0,2.432,1.046,2.339,1.294L356.6,672a2.443,2.443,0,0,1-2.431,1.139c-1.016,0-2.062-.217-2.431-1.109Z" transform="translate(-321.543 -650.366)" fill="#0855c4"/>
        <path id="Trazado_21354" data-name="Trazado 21354" d="M367.982,657.622a7.15,7.15,0,0,1,7.48,7.51v.276c-.031.739-.246,1.139-1.047,1.139h-10.4l.094.492a4.169,4.169,0,0,0,4.308,3.233,4.478,4.478,0,0,0,4.216-2.185c.031-.063,2.123.122,2.123,1.845a2.937,2.937,0,0,1-1.662,2.34,9.205,9.205,0,0,1-4.8,1.139c-4.894,0-8.095-3.047-8.095-7.818A7.634,7.634,0,0,1,367.982,657.622Zm-.03,2.986a3.885,3.885,0,0,0-3.879,3.569h7.386A3.408,3.408,0,0,0,367.952,660.608Z" transform="translate(-318.988 -650.39)" fill="#0855c4"/>
        <path id="Trazado_21355" data-name="Trazado 21355" d="M385.856,660.146a2.247,2.247,0,0,1-1.385,2.278,3,3,0,0,0-1.97-.739c-2.093,0-3.016,1.845-3.016,4.861v4.494c0,1.568-.8,2.061-1.908,2.061h-.462c-1.169,0-1.97-.461-1.97-2.061V658.3c0-.154.739-.492,1.631-.492a2.4,2.4,0,0,1,2.37,1.631,6.916,6.916,0,0,1,.215,1.046,3.75,3.75,0,0,1,3.724-2.862A2.464,2.464,0,0,1,385.856,660.146Z" transform="translate(-316.243 -650.39)" fill="#0855c4"/>
        <path id="Trazado_21356" data-name="Trazado 21356" d="M384.9,670.025a1.907,1.907,0,0,1,1.323-1.723,6.569,6.569,0,0,0,4.955,2.03c1.693,0,2.617-.585,2.617-1.537,0-1.171-1.2-1.385-3.2-1.817-2.063-.431-5.264-1.107-5.264-4.493,0-2.922,2.37-4.862,6.249-4.862,3.046,0,4.924.831,5.693,2a2.214,2.214,0,0,1,.369,1.231,2.161,2.161,0,0,1-1.385,1.816,5.965,5.965,0,0,0-4.4-2.032c-1.662,0-2.554.616-2.554,1.57,0,1.077,1.169,1.294,3.2,1.755,2.124.46,5.51,1.138,5.51,4.524,0,3.016-2.4,4.832-6.618,4.832a9.883,9.883,0,0,1-5.17-1.139A2.619,2.619,0,0,1,384.9,670.025Z" transform="translate(-314.452 -650.39)" fill="#0855c4"/>
        <path id="Trazado_21357" data-name="Trazado 21357" d="M400.405,652.11a2.254,2.254,0,1,1-2.431,2.247A2.172,2.172,0,0,1,400.405,652.11Zm-2.185,8.8c0-1.569.831-2.093,1.939-2.093h.462c1.139,0,1.939.492,1.939,2.093v11.142c0,1.568-.8,2.061-1.939,2.061h-.431c-1.169,0-1.97-.461-1.97-2.061Z" transform="translate(-312.051 -651.402)" fill="#0855c4"/>
        <path id="Trazado_21358" data-name="Trazado 21358" d="M412.064,658.744a7.561,7.561,0,0,1,7.971,7.91c0,4.678-3.262,7.878-8.032,7.878a7.535,7.535,0,0,1-7.971-7.94C404.032,661.977,407.294,658.744,412.064,658.744Zm-.031,3.385a4.507,4.507,0,1,0,4.155,4.525C416.188,664.007,414.465,662.129,412.033,662.129Zm-2.739-5.355c0-.954,2.093-5.262,4.647-5.262a1.7,1.7,0,0,1,1.754,1.816c0,2.339-4.493,3.878-5.786,3.878C409.51,657.205,409.294,657.113,409.294,656.774Z" transform="translate(-310.938 -651.512)" fill="#0855c4"/>
        <path id="Trazado_21359" data-name="Trazado 21359" d="M434.373,663.809v7.232c0,1.568-.831,2.061-1.939,2.061h-.462c-1.139,0-1.939-.461-1.939-2.061v-6.555c0-2-1.016-3.233-2.77-3.233a3.629,3.629,0,0,0-3.293,1.97v7.818c0,1.568-.8,2.061-1.908,2.061H421.6c-1.169,0-1.97-.461-1.97-2.061V658.3c0-.154.769-.492,1.631-.492a2.491,2.491,0,0,1,2.585,2.523,5.7,5.7,0,0,1,4.955-2.708C432.711,657.622,434.373,660.392,434.373,663.809Z" transform="translate(-308.073 -650.39)" fill="#0855c4"/>
      </g>
    </g>
    <g id="Inversión-2" data-name="Inversión" transform="translate(162.48 723.471)">
      <g id="Grupo_23006" data-name="Grupo 23006" style="mix-blend-mode: normal;isolation: isolate">
        <path id="Trazado_21360" data-name="Trazado 21360" d="M162.972,728.984V712.642a1.641,1.641,0,0,1,1.693-1.785h6.555c4.34,0,6.71,1.816,6.71,5.171,0,2.153-1.231,3.6-3.508,4.278,2.954.676,4.308,2.553,4.308,4.893,0,3.723-2.37,5.57-7.571,5.57h-6.495A1.641,1.641,0,0,1,162.972,728.984Zm7.849-9.449c2.339,0,3.816-1.231,3.816-3.139,0-1.97-1.293-2.984-3.879-2.984h-4.646v6.123Zm.123,8.678c3.2,0,4.524-.953,4.524-3.261q0-3.141-4.432-3.14h-4.924v6.4Z" transform="translate(-162.203 -710.641)" fill="#454a6c"/>
        <path id="Trazado_21361" data-name="Trazado 21361" d="M188.044,721.139h.4v-.308c0-2.245-1.291-3.478-3.661-3.478a4.472,4.472,0,0,0-4.248,2.525c0,.03-1.877,0-1.877-1.477a2.69,2.69,0,0,1,1.016-1.848A7.863,7.863,0,0,1,185,714.861c4.185,0,6.464,2.155,6.464,5.91v9.077c0,.154-.555.34-1.108.34a1.651,1.651,0,0,1-1.755-1.354,4.583,4.583,0,0,1-.122-1.016,6.4,6.4,0,0,1-5.325,2.554c-3.17,0-5.047-1.694-5.047-4.217C178.1,722.74,181.366,721.263,188.044,721.139Zm.4,1.908-.831.032c-4.307.154-6.524.953-6.524,2.954,0,1.323,1.046,2.153,2.8,2.153,2.648,0,4.555-1.661,4.555-4Z" transform="translate(-159.424 -709.906)" fill="#454a6c"/>
        <path id="Trazado_21362" data-name="Trazado 21362" d="M206.1,721.2v7.509c0,1.108-.585,1.445-1.354,1.445h-.34c-.8,0-1.353-.337-1.353-1.445V721.57c0-2.491-1.263-4.032-3.416-4.032a4.475,4.475,0,0,0-4.156,2.586v8.586c0,1.108-.585,1.445-1.354,1.445h-.339c-.8,0-1.354-.337-1.354-1.445v-13.3a1.512,1.512,0,0,1,1.108-.339c.831,0,1.846.431,1.909,2.4a5.741,5.741,0,0,1,4.924-2.616C204.279,714.861,206.1,717.538,206.1,721.2Z" transform="translate(-156.793 -709.906)" fill="#454a6c"/>
        <path id="Trazado_21363" data-name="Trazado 21363" d="M213.956,714.861a7.407,7.407,0,0,1,4.832,1.539,3.685,3.685,0,0,1,1.508,2.554c0,1.263-1.723,1.509-1.816,1.354a4.389,4.389,0,0,0-4.462-2.892,4.9,4.9,0,0,0-4.862,5.2c0,3.047,2.062,5.262,4.862,5.262a4.416,4.416,0,0,0,4.462-2.892c.092-.155,1.816.062,1.816,1.385a3.639,3.639,0,0,1-1.539,2.524,7.314,7.314,0,0,1-4.8,1.539,7.787,7.787,0,0,1,0-15.573Z" transform="translate(-154.252 -709.906)" fill="#454a6c"/>
        <path id="Trazado_21364" data-name="Trazado 21364" d="M227.464,714.861a7.787,7.787,0,1,1-7.786,7.755A7.475,7.475,0,0,1,227.464,714.861Zm-.031,2.493a4.973,4.973,0,0,0-4.955,5.263,5.026,5.026,0,0,0,4.955,5.325,4.966,4.966,0,0,0,4.924-5.262C232.357,719.6,230.3,717.354,227.433,717.354Z" transform="translate(-151.789 -709.906)" fill="#454a6c"/>
        <path id="Trazado_21365" data-name="Trazado 21365" d="M234.29,727.264a1.552,1.552,0,0,1,1.2-1.385,6.1,6.1,0,0,0,4.987,2.216c2.093,0,3.261-.769,3.261-2,0-1.509-1.384-1.785-3.816-2.309-2.184-.461-5.2-1.139-5.2-4.278,0-2.77,2.309-4.647,5.91-4.647,2.831,0,4.615.893,5.324,1.939a1.809,1.809,0,0,1,.369,1.046,1.619,1.619,0,0,1-1.231,1.416,5.354,5.354,0,0,0-4.339-2.091c-2.094,0-3.2.8-3.2,2.03,0,1.355,1.293,1.663,3.694,2.185,2.276.492,5.447,1.17,5.447,4.37,0,2.833-2.339,4.648-6.156,4.648a8.843,8.843,0,0,1-5.078-1.294A2.424,2.424,0,0,1,234.29,727.264Z" transform="translate(-149.105 -709.906)" fill="#454a6c"/>
        <path id="Trazado_21366" data-name="Trazado 21366" d="M246.3,735.6a4.762,4.762,0,0,1,.246-1.232l7.324-23.574a1.178,1.178,0,0,1,.615-.123c.646,0,1.693.154,1.693,1.416a5,5,0,0,1-.246,1.231L248.64,736.9c0,.062-.308.123-.615.123C247.347,737.019,246.3,736.834,246.3,735.6Z" transform="translate(-146.899 -710.675)" fill="#454a6c"/>
        <path id="Trazado_21367" data-name="Trazado 21367" d="M172.447,733.719a9.656,9.656,0,0,1,5.633,1.6,3.737,3.737,0,0,1,1.877,2.616,1.853,1.853,0,0,1-1.846,1.723,6.432,6.432,0,0,0-5.632-3.076c-4.031,0-6.864,3.046-6.864,7.477,0,4.4,2.925,7.51,6.926,7.51a5.9,5.9,0,0,0,5.755-3.479c.062-.154,1.97.217,1.97,1.694a4.186,4.186,0,0,1-1.97,2.862,9.8,9.8,0,0,1-5.941,1.785c-5.909,0-10.033-4.247-10.033-10.31C162.322,738.027,166.478,733.719,172.447,733.719Z" transform="translate(-162.322 -706.443)" fill="#454a6c"/>
        <path id="Trazado_21368" data-name="Trazado 21368" d="M189.059,744.339h.4v-.308c0-2.247-1.291-3.476-3.662-3.476a4.472,4.472,0,0,0-4.247,2.523c0,.03-1.877,0-1.877-1.477a2.7,2.7,0,0,1,1.016-1.848,7.86,7.86,0,0,1,5.324-1.691c4.187,0,6.464,2.154,6.464,5.909v9.079c0,.154-.554.338-1.108.338a1.651,1.651,0,0,1-1.754-1.354,4.569,4.569,0,0,1-.124-1.016,6.4,6.4,0,0,1-5.324,2.554c-3.169,0-5.047-1.693-5.047-4.216C179.118,745.94,182.381,744.463,189.059,744.339Zm.4,1.909-.83.031c-4.31.154-6.525.954-6.525,2.954,0,1.323,1.046,2.154,2.8,2.154,2.648,0,4.555-1.662,4.555-4Z" transform="translate(-159.237 -705.645)" fill="#454a6c"/>
        <path id="Trazado_21369" data-name="Trazado 21369" d="M189.726,758.375a1.7,1.7,0,0,1,.708-1.416,2.806,2.806,0,0,0,1.97.862c1.323,0,1.846-.708,1.846-2.37V740.708c0-1.107.585-1.477,1.385-1.477h.308c.8,0,1.354.338,1.354,1.477v14.927c0,3.016-1.539,4.709-4.432,4.709a3.758,3.758,0,0,1-2.677-.862A1.511,1.511,0,0,1,189.726,758.375Zm6.124-25.514A1.771,1.771,0,1,1,194,734.646,1.668,1.668,0,0,1,195.85,732.861Z" transform="translate(-157.289 -706.6)" fill="#454a6c"/>
        <path id="Trazado_21370" data-name="Trazado 21370" d="M208.636,744.339h.4v-.308c0-2.247-1.293-3.476-3.662-3.476a4.47,4.47,0,0,0-4.247,2.523c0,.03-1.877,0-1.877-1.477a2.692,2.692,0,0,1,1.016-1.848,7.858,7.858,0,0,1,5.324-1.691c4.185,0,6.463,2.154,6.463,5.909v9.079c0,.154-.554.338-1.108.338a1.651,1.651,0,0,1-1.754-1.354,4.578,4.578,0,0,1-.123-1.016,6.4,6.4,0,0,1-5.324,2.554c-3.17,0-5.047-1.693-5.047-4.216C198.7,745.94,201.958,744.463,208.636,744.339Zm.4,1.909-.831.031c-4.308.154-6.524.954-6.524,2.954,0,1.323,1.046,2.154,2.8,2.154,2.647,0,4.555-1.662,4.555-4Z" transform="translate(-155.642 -705.645)" fill="#454a6c"/>
        <path id="Trazado_21371" data-name="Trazado 21371" d="M212.112,750.464a1.553,1.553,0,0,1,1.2-1.385A6.094,6.094,0,0,0,218.3,751.3c2.093,0,3.262-.769,3.262-2,0-1.509-1.385-1.785-3.816-2.308-2.185-.462-5.2-1.139-5.2-4.279,0-2.77,2.308-4.646,5.909-4.646,2.831,0,4.617.891,5.324,1.938a1.81,1.81,0,0,1,.369,1.048,1.616,1.616,0,0,1-1.231,1.414,5.352,5.352,0,0,0-4.339-2.091c-2.093,0-3.2.8-3.2,2.031,0,1.353,1.293,1.662,3.693,2.184,2.279.492,5.447,1.171,5.447,4.371,0,2.831-2.339,4.646-6.155,4.646a8.841,8.841,0,0,1-5.078-1.291A2.428,2.428,0,0,1,212.112,750.464Z" transform="translate(-153.178 -705.645)" fill="#454a6c"/>
      </g>
    </g>
    <g id="Inversión-3" data-name="Inversión" transform="translate(161.46 831.839)">
      <g id="Grupo_23007" data-name="Grupo 23007" style="mix-blend-mode: normal;isolation: isolate">
        <path id="Trazado_21372" data-name="Trazado 21372" d="M161.469,824.563l7.554-19.6c.309-.928,1.03-1.511,3.331-1.511s2.952.583,3.261,1.511l7.726,19.57c.172.411-1.237,1.579-2.747,1.579-1.1,0-2.231-.584-2.918-2.4l-1.34-3.468h-8.069l-1.373,3.536c-.618,1.752-1.682,2.335-2.746,2.335C162.706,826.109,161.332,825.009,161.469,824.563Zm13.8-8.136-3.021-8.069-3.022,8.069Z" transform="translate(-161.46 -802.005)" fill="#0855c4"/>
        <path id="Trazado_21373" data-name="Trazado 21373" d="M198.186,816.033v7.9c0,1.751-.927,2.3-2.163,2.3h-.516c-1.27,0-2.163-.516-2.163-2.3v-7.246c0-2.3-1.167-3.673-3.09-3.673-2.266,0-3.673,1.476-3.673,3.914v7c0,1.751-.928,2.3-2.164,2.3H183.9c-1.27,0-2.163-.516-2.163-2.3V802.779a2.6,2.6,0,0,1,1.819-.55c1.407,0,3.022.756,3.022,3.881v5.871a6,6,0,0,1,5.355-3.022C196.331,808.959,198.186,812.118,198.186,816.033Z" transform="translate(-157.736 -802.229)" fill="#0855c4"/>
        <path id="Trazado_21374" data-name="Trazado 21374" d="M206.794,807.915c5.289,0,8.893,3.605,8.893,8.824s-3.639,8.79-8.96,8.79-8.894-3.571-8.894-8.858C197.833,811.52,201.473,807.915,206.794,807.915Zm-.034,3.776a4.669,4.669,0,0,0-4.668,4.98c0,2.917,1.957,5.047,4.668,5.047a4.683,4.683,0,0,0,4.636-4.979C211.4,813.786,209.473,811.691,206.76,811.691Z" transform="translate(-154.78 -801.185)" fill="#0855c4"/>
        <path id="Trazado_21375" data-name="Trazado 21375" d="M227.182,810.731a2.5,2.5,0,0,1-1.545,2.54,3.351,3.351,0,0,0-2.2-.824c-2.335,0-3.365,2.06-3.365,5.425v5.014c0,1.751-.894,2.3-2.129,2.3h-.515c-1.3,0-2.2-.516-2.2-2.3V808.671c0-.173.824-.55,1.819-.55a2.675,2.675,0,0,1,2.643,1.82,7.633,7.633,0,0,1,.241,1.167,4.184,4.184,0,0,1,4.153-3.194C226.015,807.915,227.182,809.015,227.182,810.731Z" transform="translate(-151.584 -801.185)" fill="#0855c4"/>
        <path id="Trazado_21376" data-name="Trazado 21376" d="M239.159,810.731a2.5,2.5,0,0,1-1.545,2.54,3.351,3.351,0,0,0-2.2-.824c-2.335,0-3.365,2.06-3.365,5.425v5.014c0,1.751-.894,2.3-2.129,2.3h-.515c-1.3,0-2.2-.516-2.2-2.3V808.671c0-.173.824-.55,1.819-.55a2.675,2.675,0,0,1,2.643,1.82,7.635,7.635,0,0,1,.241,1.167,4.184,4.184,0,0,1,4.153-3.194C237.992,807.915,239.159,809.015,239.159,810.731Z" transform="translate(-149.385 -801.185)" fill="#0855c4"/>
        <path id="Trazado_21377" data-name="Trazado 21377" d="M246.553,807.915c5.287,0,8.893,3.605,8.893,8.824s-3.639,8.79-8.961,8.79-8.893-3.571-8.893-8.858C237.592,811.52,241.232,807.915,246.553,807.915Zm-.034,3.776a4.67,4.67,0,0,0-4.669,4.98c0,2.917,1.958,5.047,4.669,5.047a4.682,4.682,0,0,0,4.635-4.979C251.154,813.786,249.232,811.691,246.519,811.691Z" transform="translate(-147.478 -801.185)" fill="#0855c4"/>
        <path id="Trazado_21378" data-name="Trazado 21378" d="M161.933,845.094c0-1.407,1.751-2.677,1.922-2.507a9.047,9.047,0,0,0,6.592,2.989c2.644,0,4.052-.962,4.052-2.679,0-1.992-2.231-2.4-4.841-2.988-3.537-.791-7.176-2.094-7.176-6.662,0-4.119,3.3-6.832,8.652-6.832a10.9,10.9,0,0,1,6.387,1.649,3.048,3.048,0,0,1,1.545,2.437,3.3,3.3,0,0,1-1.991,2.644,7.954,7.954,0,0,0-5.906-2.713c-2.4,0-3.846,1-3.846,2.61,0,1.922,1.992,2.2,4.738,2.816,4.017.891,7.52,2.54,7.52,6.728,0,4.429-3.262,7-9.1,7-3.434,0-5.837-.892-7.175-2.026A3.177,3.177,0,0,1,161.933,845.094Z" transform="translate(-161.373 -797.787)" fill="#0855c4"/>
        <path id="Trazado_21379" data-name="Trazado 21379" d="M187.149,831.115a7.976,7.976,0,0,1,8.344,8.378v.309c-.035.824-.275,1.27-1.168,1.27h-11.6l.1.549a4.651,4.651,0,0,0,4.807,3.605,4.994,4.994,0,0,0,4.7-2.437c.034-.069,2.37.137,2.37,2.059a3.277,3.277,0,0,1-1.855,2.61,10.258,10.258,0,0,1-5.356,1.27c-5.459,0-9.03-3.4-9.03-8.721A8.517,8.517,0,0,1,187.149,831.115Zm-.034,3.331a4.333,4.333,0,0,0-4.326,3.983h8.241C190.89,835.99,189.414,834.446,187.114,834.446Z" transform="translate(-158.338 -796.924)" fill="#0855c4"/>
        <path id="Trazado_21380" data-name="Trazado 21380" d="M193.513,851.248c0-2.368,2.2-3.982,5.219-4.429a2.116,2.116,0,0,1-.619-1.544,2.351,2.351,0,0,1,1.168-1.924c-2.885-.823-4.6-2.883-4.6-5.528,0-3.6,3.192-6.352,7.622-6.352a8.645,8.645,0,0,1,3.571.79l.755-1.407a2.6,2.6,0,0,1,2.4-1.682A2.63,2.63,0,0,1,211.4,831.2l-2.885,2.849a5.487,5.487,0,0,1,1.477,3.708c0,3.468-2.85,5.871-7.211,5.974-.239,0-.446.034-.687.034a.628.628,0,0,0,.24.549c.24.824,1.683.927,4.017,1.546,2.37.617,4.841,1.887,4.841,4.7,0,3.228-3.3,5.287-9.03,5.287C196.19,855.849,193.513,854.339,193.513,851.248Zm13.149-.206c0-1.1-1.2-1.545-2.782-1.956-.479-.1-.994-.24-1.545-.343-2.471.172-4.359,1.03-4.359,2.472,0,1.27,1.442,1.992,4.291,1.992S206.662,852.416,206.662,851.042Zm-1.1-13.286a3.245,3.245,0,0,0-6.489,0,3.244,3.244,0,0,0,6.489,0Z" transform="translate(-155.573 -797.281)" fill="#0855c4"/>
        <path id="Trazado_21381" data-name="Trazado 21381" d="M226.28,833.624V847.8c0,.172-.858.549-1.819.549a2.685,2.685,0,0,1-2.713-1.819,5.645,5.645,0,0,1-.172-.927,6.328,6.328,0,0,1-5.528,3.055c-4.361,0-6.18-3.055-6.18-6.936v-8.1c0-1.752.892-2.335,2.094-2.335h.549c1.27,0,2.164.55,2.164,2.335v7.381c0,2.267,1.167,3.605,3.158,3.605a4.072,4.072,0,0,0,3.64-2.2v-8.79c0-1.752.858-2.335,2.094-2.335h.515C225.388,831.289,226.28,831.839,226.28,833.624Z" transform="translate(-152.57 -796.892)" fill="#0855c4"/>
        <path id="Trazado_21382" data-name="Trazado 21382" d="M238.753,833.931a2.509,2.509,0,0,1-1.545,2.541,3.353,3.353,0,0,0-2.2-.825c-2.334,0-3.364,2.061-3.364,5.425v5.014c0,1.751-.894,2.3-2.129,2.3H229c-1.3,0-2.2-.515-2.2-2.3V831.871c0-.173.823-.55,1.819-.55a2.676,2.676,0,0,1,2.643,1.821,7.535,7.535,0,0,1,.24,1.167,4.187,4.187,0,0,1,4.155-3.194C237.586,831.115,238.753,832.214,238.753,833.931Z" transform="translate(-149.459 -796.924)" fill="#0855c4"/>
        <path id="Trazado_21383" data-name="Trazado 21383" d="M246.147,831.115c5.287,0,8.893,3.605,8.893,8.824s-3.64,8.79-8.961,8.79-8.893-3.571-8.893-8.858C237.186,834.72,240.826,831.115,246.147,831.115Zm-.034,3.777a4.669,4.669,0,0,0-4.669,4.979c0,2.919,1.958,5.047,4.669,5.047a4.681,4.681,0,0,0,4.635-4.978C250.748,836.986,248.826,834.892,246.113,834.892Z" transform="translate(-147.553 -796.924)" fill="#0855c4"/>
      </g>
    </g>
    <g id="Ganancia" transform="translate(626.061 654.652)">
      <g id="Grupo_23008" data-name="Grupo 23008" style="mix-blend-mode: normal;isolation: isolate">
        <path id="Trazado_21384" data-name="Trazado 21384" d="M572.7,664.936v8.107a2.129,2.129,0,0,1-1.45.413c-.975,0-1.922-.413-2.159-2.277a1.745,1.745,0,0,1-.059-.414c-1.095,1.8-3.166,2.9-6.035,2.9-5.414,0-9.023-4.143-9.023-9.882,0-5.827,4.082-10,10.088-10a10.076,10.076,0,0,1,5.443,1.361,3.571,3.571,0,0,1,1.952,2.84,2.258,2.258,0,0,1-2.277,2.07,5.941,5.941,0,0,0-4.911-2.514c-3.4,0-5.858,2.574-5.858,6.389,0,3.788,2.189,6.39,5.592,6.39,2.484,0,4.29-1.271,4.673-3.195l.09-.947h-3.285c-1.391,0-2.07-.383-2.07-1.567v-.179c0-1.243.68-1.567,2.1-1.567H570.9C572.258,662.866,572.7,663.576,572.7,664.936Z" transform="translate(-553.976 -652.304)" fill="#0855c4"/>
        <path id="Trazado_21385" data-name="Trazado 21385" d="M580.986,663.986h.473a1.807,1.807,0,0,0-.03-.413c-.059-1.687-1.095-2.6-2.93-2.6a3.617,3.617,0,0,0-3.55,2.1c-.03.059-2.692.265-2.692-1.657a2.64,2.64,0,0,1,.887-1.893c.976-1.007,2.841-1.687,5.621-1.687,4.585,0,6.8,2.1,6.8,5.976v8.52c0,.207-.769.472-1.568.472a2.153,2.153,0,0,1-2.189-1.389,5.9,5.9,0,0,1-.237-.977,5.769,5.769,0,0,1-5,2.486c-3.018,0-4.852-1.657-4.852-4.143C571.726,665.554,574.861,664.074,580.986,663.986Zm.473,2.1h-.8c-3.283.118-5.029.74-5.029,2.367,0,1.094.858,1.774,2.248,1.774,2.071,0,3.551-1.272,3.581-3.106Z" transform="translate(-550.716 -651.561)" fill="#0855c4"/>
        <path id="Trazado_21386" data-name="Trazado 21386" d="M600.121,663.778v6.953c0,1.509-.8,1.981-1.863,1.981h-.444c-1.095,0-1.864-.444-1.864-1.981v-6.3c0-1.922-.977-3.106-2.663-3.106a3.489,3.489,0,0,0-3.165,1.894v7.514c0,1.509-.769,1.981-1.833,1.981h-.444c-1.125,0-1.894-.444-1.894-1.981V658.484c0-.148.74-.475,1.568-.475A2.4,2.4,0,0,1,590,660.436a5.47,5.47,0,0,1,4.762-2.6C598.524,657.833,600.121,660.495,600.121,663.778Z" transform="translate(-548.104 -651.561)" fill="#0855c4"/>
        <path id="Trazado_21387" data-name="Trazado 21387" d="M609.085,663.986h.473a1.8,1.8,0,0,0-.03-.413c-.059-1.687-1.095-2.6-2.93-2.6a3.617,3.617,0,0,0-3.55,2.1c-.03.059-2.692.265-2.692-1.657a2.635,2.635,0,0,1,.887-1.893c.977-1.007,2.841-1.687,5.621-1.687,4.585,0,6.8,2.1,6.8,5.976v8.52c0,.207-.769.472-1.568.472a2.153,2.153,0,0,1-2.189-1.389,5.916,5.916,0,0,1-.237-.977,5.768,5.768,0,0,1-5,2.486c-3.017,0-4.852-1.657-4.852-4.143C599.825,665.554,602.96,664.074,609.085,663.986Zm.473,2.1h-.8c-3.283.118-5.029.74-5.029,2.367,0,1.094.858,1.774,2.248,1.774,2.071,0,3.551-1.272,3.58-3.106Z" transform="translate(-545.556 -651.561)" fill="#0855c4"/>
        <path id="Trazado_21388" data-name="Trazado 21388" d="M628.221,663.778v6.953c0,1.509-.8,1.981-1.864,1.981h-.444c-1.095,0-1.863-.444-1.863-1.981v-6.3c0-1.922-.977-3.106-2.663-3.106a3.487,3.487,0,0,0-3.165,1.894v7.514c0,1.509-.769,1.981-1.835,1.981h-.444c-1.123,0-1.893-.444-1.893-1.981V658.484c0-.148.74-.475,1.568-.475a2.4,2.4,0,0,1,2.485,2.427,5.474,5.474,0,0,1,4.763-2.6C626.623,657.833,628.221,660.495,628.221,663.778Z" transform="translate(-542.944 -651.561)" fill="#0855c4"/>
        <path id="Trazado_21389" data-name="Trazado 21389" d="M635.468,657.833a7.314,7.314,0,0,1,4.733,1.45,3.478,3.478,0,0,1,1.42,2.484c0,1.687-2.249,2.011-2.338,1.835a3.558,3.558,0,0,0-3.638-2.4,4.228,4.228,0,0,0,0,8.432,3.609,3.609,0,0,0,3.638-2.4c.089-.177,2.338.059,2.338,1.863a3.333,3.333,0,0,1-1.45,2.427,7.177,7.177,0,0,1-4.7,1.478,7.588,7.588,0,0,1,0-15.175Z" transform="translate(-540.395 -651.561)" fill="#0855c4"/>
        <path id="Trazado_21390" data-name="Trazado 21390" d="M643.612,652.534a2.167,2.167,0,1,1-2.338,2.159A2.087,2.087,0,0,1,643.612,652.534Zm-2.1,8.462c0-1.51.8-2.013,1.863-2.013h.444c1.095,0,1.864.475,1.864,2.013V671.7c0,1.509-.769,1.981-1.864,1.981H643.4c-1.124,0-1.893-.444-1.893-1.981Z" transform="translate(-537.944 -652.534)" fill="#0855c4"/>
        <path id="Trazado_21391" data-name="Trazado 21391" d="M656.359,663.986h.473a1.807,1.807,0,0,0-.03-.413c-.059-1.687-1.094-2.6-2.928-2.6a3.616,3.616,0,0,0-3.55,2.1c-.03.059-2.693.265-2.693-1.657a2.637,2.637,0,0,1,.888-1.893c.977-1.007,2.84-1.687,5.621-1.687,4.585,0,6.8,2.1,6.8,5.976v8.52c0,.207-.769.472-1.567.472a2.154,2.154,0,0,1-2.19-1.389,5.923,5.923,0,0,1-.237-.977,5.768,5.768,0,0,1-5,2.486c-3.017,0-4.852-1.657-4.852-4.143C647.1,665.554,650.236,664.074,656.359,663.986Zm.473,2.1h-.8c-3.284.118-5.029.74-5.029,2.367,0,1.094.858,1.774,2.249,1.774,2.07,0,3.55-1.272,3.579-3.106Z" transform="translate(-536.874 -651.561)" fill="#0855c4"/>
      </g>
    </g>
    <g id="Total" transform="translate(923.267 654.643)">
      <g id="Grupo_23009" data-name="Grupo 23009" style="mix-blend-mode: normal;isolation: isolate">
        <path id="Trazado_21392" data-name="Trazado 21392" d="M811.655,657.744h-4.493c-1.354,0-2.093-.677-2.093-1.939v-.154c0-1.231.739-1.877,2.093-1.877H820.61c1.385,0,2.093.646,2.093,1.877v.154c0,1.262-.708,1.939-2.093,1.939h-4.4v14a1.842,1.842,0,0,1-2.031,2.061h-.646c-1.231,0-1.877-.707-1.877-2.061Z" transform="translate(-805.069 -652.297)" fill="#0855c4"/>
        <path id="Trazado_21393" data-name="Trazado 21393" d="M827.011,657.622a7.561,7.561,0,0,1,7.972,7.91c0,4.678-3.263,7.878-8.033,7.878a7.535,7.535,0,0,1-7.971-7.94C818.979,660.854,822.241,657.622,827.011,657.622Zm-.031,3.385a4.507,4.507,0,1,0,4.156,4.525C831.136,662.884,829.412,661.007,826.98,661.007Z" transform="translate(-802.514 -651.59)" fill="#0855c4"/>
        <path id="Trazado_21394" data-name="Trazado 21394" d="M836.093,668.809v-6.894h-.769c-1.231,0-1.785-.555-1.785-1.54v-.245c0-1.017.554-1.6,1.754-1.6h.8v-1.908c0-1.414.708-2.093,1.939-2.093h.4c1.139,0,1.908.492,1.908,2.093v1.908h2.616c1.231,0,1.754.524,1.754,1.509v.276c0,1.046-.554,1.6-1.785,1.6h-2.647v6.4c0,1.477.462,2.216,1.662,2.216a2.2,2.2,0,0,0,1.877-1.017,1.706,1.706,0,0,1,1.077,1.693,2.194,2.194,0,0,1-.739,1.662,4.482,4.482,0,0,1-3.231,1.109C837.632,673.979,836.093,672.225,836.093,668.809Z" transform="translate(-799.84 -652.158)" fill="#0855c4"/>
        <path id="Trazado_21395" data-name="Trazado 21395" d="M853.934,664.023h.492a1.966,1.966,0,0,0-.03-.431c-.063-1.753-1.139-2.708-3.048-2.708a3.764,3.764,0,0,0-3.693,2.186c-.031.06-2.8.276-2.8-1.723a2.748,2.748,0,0,1,.922-1.971c1.016-1.046,2.954-1.754,5.847-1.754,4.771,0,7.079,2.185,7.079,6.217V672.7c0,.217-.8.492-1.631.492a2.242,2.242,0,0,1-2.278-1.445,6.449,6.449,0,0,1-.246-1.017,6,6,0,0,1-5.2,2.586c-3.139,0-5.047-1.723-5.047-4.31C844.3,665.654,847.565,664.115,853.934,664.023Zm.492,2.185H853.6c-3.415.123-5.232.769-5.232,2.462,0,1.14.892,1.848,2.339,1.848,2.154,0,3.694-1.324,3.724-3.232Z" transform="translate(-797.864 -651.59)" fill="#0855c4"/>
        <path id="Trazado_21396" data-name="Trazado 21396" d="M859.174,671.977V653.018a2.406,2.406,0,0,1,1.631-.492c1.294,0,2.708.677,2.708,3.477v15.973c0,1.568-.8,2.061-1.907,2.061h-.463C860,674.038,859.174,673.577,859.174,671.977Z" transform="translate(-795.133 -652.526)" fill="#0855c4"/>
      </g>
    </g>
    <g id="Bruno_abrió_una_cuenta_de_ahorro_en_un_banco" data-name="Bruno abrió una cuenta de ahorro en un banco" transform="translate(1110.151 731.096)" style="mix-blend-mode: normal;isolation: isolate">
      <g id="Grupo_23010" data-name="Grupo 23010" style="mix-blend-mode: normal;isolation: isolate">
        <path id="Trazado_21397" data-name="Trazado 21397" d="M966.964,729.7V726.35h-3.091c-.682,0-.916-.3-.916-.788v-.128c0-.49.234-.788.916-.788h3.091v-3.154c0-.66.319-.917.81-.917h.17c.469,0,.81.257.81.917v3.154h3.091c.682,0,.916.3.916.788v.128c0,.49-.234.788-.916.788h-3.091V729.7c0,.66-.341.917-.81.917h-.17C967.283,730.614,966.964,730.357,966.964,729.7Z" transform="translate(-962.957 -716.482)" fill="#0855c4"/>
        <path id="Trazado_21398" data-name="Trazado 21398" d="M973.749,730.987a2.5,2.5,0,0,1-1.342-1.811c0-.747.98-1.194,1.044-1.088a4.343,4.343,0,0,0,3.879,2.047c2.024,0,3.3-1.065,3.3-2.728s-1.151-2.663-3.111-2.663a5.12,5.12,0,0,0-3.218.937c-.917-.064-1.343-.512-1.343-1.363v-5.244a1.1,1.1,0,0,1,1.129-1.236h6.927q1.023,0,1.023.895v.108c0,.574-.341.872-1.023.872H974.9v3.943a6.849,6.849,0,0,1,2.834-.618c2.984,0,4.945,1.683,4.945,4.348,0,2.75-2.046,4.519-5.35,4.519A6.817,6.817,0,0,1,973.749,730.987Z" transform="translate(-961.221 -716.984)" fill="#0855c4"/>
        <path id="Trazado_21399" data-name="Trazado 21399" d="M982.145,721.122v-.191a3.235,3.235,0,0,1,3.324-3.261,3.188,3.188,0,0,1,3.325,3.218v.192a3.254,3.254,0,0,1-3.345,3.261A3.184,3.184,0,0,1,982.145,721.122Zm1,9.953c0-.384.149-.639.618-1.129l10.719-12.339c.087-.085.98.148.98.788a1.9,1.9,0,0,1-.6,1.151l-10.742,12.318C984.041,731.97,983.146,731.672,983.146,731.075Zm4.007-9.911v-.318a1.723,1.723,0,0,0-1.7-1.855,1.7,1.7,0,0,0-1.684,1.855v.318a1.716,1.716,0,0,0,1.7,1.833A1.689,1.689,0,0,0,987.153,721.165Zm2.771,7.418v-.192a3.253,3.253,0,0,1,3.345-3.261,3.183,3.183,0,0,1,3.3,3.218v.192a3.236,3.236,0,0,1-3.325,3.261A3.189,3.189,0,0,1,989.924,728.583Zm5.029.041v-.318a1.724,1.724,0,0,0-1.706-1.855,1.7,1.7,0,0,0-1.683,1.855v.318a1.7,1.7,0,1,0,3.389,0Z" transform="translate(-959.433 -717.03)" fill="#0855c4"/>
        <path id="Trazado_21400" data-name="Trazado 21400" d="M998.488,726.644c0-3.24,2.025-5.393,4.86-5.393a4.136,4.136,0,0,1,3.516,1.684v-5.585a1.107,1.107,0,0,1,.768-.234c.66,0,1.344.341,1.344,1.812v11.913c0,.767-.385,1-.939,1h-.213c-.554,0-.937-.235-.937-1v-.788a4.1,4.1,0,0,1-3.6,1.983C1000.534,732.037,998.488,729.884,998.488,726.644Zm8.4-1.534a3.2,3.2,0,0,0-3.155-2.111c-1.918,0-3.2,1.45-3.2,3.645,0,2.132,1.321,3.644,3.154,3.644a3.087,3.087,0,0,0,3.2-3.005Z" transform="translate(-956.432 -717.117)" fill="#0855c4"/>
        <path id="Trazado_21401" data-name="Trazado 21401" d="M1014.26,720.61c2.963,0,4.923,2.089,4.923,5.158v.17c0,.447-.149.618-.639.618h-7.565a2.226,2.226,0,0,0,.042.383,3.331,3.331,0,0,0,3.453,2.792,3.374,3.374,0,0,0,3.218-1.7c.043-.043,1.108.149,1.108,1.044a2.054,2.054,0,0,1-1.13,1.493,6.076,6.076,0,0,1-3.239.831,5.1,5.1,0,0,1-5.413-5.35A5.194,5.194,0,0,1,1014.26,720.61Zm-.02,1.6a3.27,3.27,0,0,0-3.241,2.92h6.138A2.816,2.816,0,0,0,1014.24,722.209Z" transform="translate(-954.498 -716.475)" fill="#0855c4"/>
        <path id="Trazado_21402" data-name="Trazado 21402" d="M1022.393,730.843V717.351a1.1,1.1,0,0,1,.766-.234c.662,0,1.343.341,1.343,1.812v11.913c0,.767-.384,1-.937,1h-.214C1022.8,731.845,1022.393,731.61,1022.393,730.843Z" transform="translate(-952.042 -717.117)" fill="#0855c4"/>
        <path id="Trazado_21403" data-name="Trazado 21403" d="M1031.33,720.61a5.393,5.393,0,1,1-5.393,5.371A5.178,5.178,0,0,1,1031.33,720.61Zm-.02,1.727a3.443,3.443,0,0,0-3.432,3.644,3.48,3.48,0,0,0,3.432,3.687,3.675,3.675,0,0,0,0-7.332Z" transform="translate(-951.391 -716.475)" fill="#0855c4"/>
        <path id="Trazado_21404" data-name="Trazado 21404" d="M967.619,737.01a1.226,1.226,0,1,1-1.278,1.236A1.154,1.154,0,0,1,967.619,737.01Zm-1.108,5.434c0-.767.4-1.024.959-1.024h.214c.553,0,.937.235.937,1.024v8.418c0,.767-.385,1-.937,1h-.214c-.554,0-.959-.236-.959-1Z" transform="translate(-962.335 -713.464)" fill="#0855c4"/>
        <path id="Trazado_21405" data-name="Trazado 21405" d="M980.015,745v5.2c0,.767-.4,1-.937,1h-.234c-.554,0-.937-.235-.937-1v-4.944c0-1.727-.875-2.792-2.366-2.792a3.1,3.1,0,0,0-2.877,1.79V750.2c0,.767-.4,1-.937,1h-.234c-.554,0-.937-.235-.937-1v-9.206a1.046,1.046,0,0,1,.767-.235c.575,0,1.278.3,1.321,1.664a3.978,3.978,0,0,1,3.41-1.813C978.757,740.61,980.015,742.465,980.015,745Z" transform="translate(-961.562 -712.802)" fill="#0855c4"/>
        <path id="Trazado_21406" data-name="Trazado 21406" d="M979.786,741.355c-.042-.129.426-.619,1.109-.619.6,0,.98.257,1.342,1.258l2.579,7.225,2.663-7.225c.363-1,.768-1.258,1.3-1.258.661,0,1.129.513,1.087.619l-3.73,9.207c-.192.47-.618.662-1.3.662-.726,0-1.087-.149-1.279-.619Z" transform="translate(-959.867 -712.779)" fill="#0855c4"/>
        <path id="Trazado_21407" data-name="Trazado 21407" d="M994.172,740.61c2.963,0,4.924,2.089,4.924,5.158v.17c0,.447-.149.618-.639.618h-7.566a2.219,2.219,0,0,0,.043.383,3.33,3.33,0,0,0,3.453,2.792,3.372,3.372,0,0,0,3.218-1.7c.043-.043,1.108.149,1.108,1.044a2.055,2.055,0,0,1-1.131,1.493,6.074,6.074,0,0,1-3.238.831,5.1,5.1,0,0,1-5.413-5.35A5.194,5.194,0,0,1,994.172,740.61Zm-.02,1.6a3.27,3.27,0,0,0-3.241,2.92h6.138A2.816,2.816,0,0,0,994.152,742.209Z" transform="translate(-958.187 -712.802)" fill="#0855c4"/>
        <path id="Trazado_21408" data-name="Trazado 21408" d="M1005.545,741.975a1.052,1.052,0,0,1-.639,1.088,1.983,1.983,0,0,0-1.3-.449c-1.662,0-2.322,1.62-2.322,3.985v3.6c0,.767-.406,1-.937,1h-.234c-.555,0-.939-.235-.939-1v-9.206a1.047,1.047,0,0,1,.767-.235,1.208,1.208,0,0,1,1.237,1.024,3.922,3.922,0,0,1,.085.767,2.6,2.6,0,0,1,2.6-1.94C1004.927,740.61,1005.545,741.122,1005.545,741.975Z" transform="translate(-956.306 -712.802)" fill="#0855c4"/>
        <path id="Trazado_21409" data-name="Trazado 21409" d="M1006.775,748.366v-5.413h-.746c-.662,0-.917-.277-.917-.788v-.149c0-.511.256-.788.917-.788h.746v-1.578c0-.724.362-1,.938-1h.213c.554,0,.917.213.917,1v1.578h2.323c.66,0,.895.256.895.767v.149c0,.533-.256.81-.916.81h-2.324v5.178c0,1.279.363,1.9,1.364,1.9a1.734,1.734,0,0,0,1.45-.726c.064-.063.6.236.6.9a1.265,1.265,0,0,1-.447.937,2.883,2.883,0,0,1-1.94.619C1007.734,751.756,1006.775,750.583,1006.775,748.366Z" transform="translate(-955.215 -713.163)" fill="#0855c4"/>
        <path id="Trazado_21410" data-name="Trazado 21410" d="M1013.753,737.01a1.226,1.226,0,1,1-1.278,1.236A1.153,1.153,0,0,1,1013.753,737.01Zm-1.109,5.434c0-.767.406-1.024.96-1.024h.212c.555,0,.939.235.939,1.024v8.418c0,.767-.384,1-.939,1h-.212c-.554,0-.96-.236-.96-1Z" transform="translate(-953.863 -713.464)" fill="#0855c4"/>
        <path id="Trazado_21411" data-name="Trazado 21411" d="M1016.164,746.644c0-3.24,2.024-5.393,4.86-5.393a4.139,4.139,0,0,1,3.515,1.684v-5.584a1.1,1.1,0,0,1,.767-.234c.661,0,1.342.341,1.342,1.812v11.913c0,.767-.383,1-.937,1h-.213c-.554,0-.937-.236-.937-1v-.788a4.1,4.1,0,0,1-3.6,1.983C1018.211,752.037,1016.164,749.884,1016.164,746.644Zm8.4-1.534a3.2,3.2,0,0,0-3.154-2.11c-1.918,0-3.2,1.45-3.2,3.645,0,2.132,1.321,3.644,3.154,3.644a3.085,3.085,0,0,0,3.2-3.005Z" transform="translate(-953.185 -713.444)" fill="#0855c4"/>
        <path id="Trazado_21412" data-name="Trazado 21412" d="M1032.086,740.61a5.393,5.393,0,1,1-5.393,5.371A5.178,5.178,0,0,1,1032.086,740.61Zm-.021,1.727a3.443,3.443,0,0,0-3.431,3.644,3.48,3.48,0,0,0,3.431,3.687,3.675,3.675,0,0,0,0-7.332Z" transform="translate(-951.252 -712.802)" fill="#0855c4"/>
      </g>
    </g>
    <g id="Bruno_abrió_una_cuenta_de_ahorro_en_un_banco-2" data-name="Bruno abrió una cuenta de ahorro en un banco" transform="translate(1114.766 833.963)">
      <g id="Grupo_23011" data-name="Grupo 23011" style="mix-blend-mode: normal;isolation: isolate">
        <path id="Trazado_21413" data-name="Trazado 21413" d="M970.9,816.49v-2.978h-2.76c-.9,0-1.279-.441-1.279-1.1v-.155c0-.639.375-1.081,1.279-1.081h2.76v-2.847c0-.883.442-1.281,1.1-1.281h.265c.617,0,1.1.4,1.1,1.281v2.847h2.759c.905,0,1.282.442,1.282,1.081v.155c0,.663-.376,1.1-1.282,1.1h-2.759v2.978c0,.905-.485,1.281-1.1,1.281H972C971.337,817.771,970.9,817.4,970.9,816.49Z" transform="translate(-966.856 -803.469)" fill="#0855c4"/>
        <path id="Trazado_21414" data-name="Trazado 21414" d="M978.786,817.242v-9.005a1.97,1.97,0,0,1-1.28.464,2.163,2.163,0,0,1-1.412-.508,1.782,1.782,0,0,1-.552-1.325,1.555,1.555,0,0,1,.861-1.543,2.057,2.057,0,0,0,1.346.485,1.915,1.915,0,0,0,1.876-1.656h.949c.927,0,1.412.508,1.412,1.5v11.587a1.307,1.307,0,0,1-1.412,1.5h-.42C979.25,818.743,978.786,818.213,978.786,817.242Z" transform="translate(-965.26 -804)" fill="#0855c4"/>
        <path id="Trazado_21415" data-name="Trazado 21415" d="M982.439,812.191v-1.413c0-4.127,2.363-6.754,6.246-6.754s6.225,2.605,6.225,6.733v1.391c0,4.149-2.34,6.774-6.225,6.774C984.779,818.921,982.439,816.317,982.439,812.191Zm9.225.2v-1.832c0-2.516-1.082-3.907-2.979-3.907-1.942,0-2.957,1.347-2.957,3.864v1.876c0,2.493,1.037,3.861,2.957,3.861C990.626,816.251,991.664,814.905,991.664,812.39Z" transform="translate(-963.994 -804.024)" fill="#0855c4"/>
        <path id="Trazado_21416" data-name="Trazado 21416" d="M993.661,812.191v-1.413c0-4.127,2.361-6.754,6.245-6.754s6.225,2.605,6.225,6.733v1.391c0,4.149-2.339,6.774-6.225,6.774C996,818.921,993.661,816.317,993.661,812.191Zm9.225.2v-1.832c0-2.516-1.082-3.907-2.981-3.907-1.941,0-2.956,1.347-2.956,3.864v1.876c0,2.493,1.037,3.861,2.956,3.861C1001.848,816.251,1002.886,814.905,1002.886,812.39Z" transform="translate(-961.933 -804.024)" fill="#0855c4"/>
        <path id="Trazado_21417" data-name="Trazado 21417" d="M1004.565,807.708v-.178a3.369,3.369,0,0,1,3.576-3.421,3.327,3.327,0,0,1,3.531,3.4v.176a3.556,3.556,0,0,1-7.107.023Zm1.127,10.13a1.571,1.571,0,0,1,.6-1.126l11.1-12.646c.111-.133,1.326.2,1.326.992a1.945,1.945,0,0,1-.6,1.171l-11.1,12.625C1006.9,818.986,1005.692,818.611,1005.692,817.838Zm3.9-10.042v-.353a1.5,1.5,0,0,0-1.478-1.678,1.475,1.475,0,0,0-1.478,1.678v.353a1.488,1.488,0,0,0,1.5,1.633A1.455,1.455,0,0,0,1009.6,807.8Zm3.2,7.614v-.176a3.382,3.382,0,0,1,3.575-3.422,3.316,3.316,0,0,1,3.531,3.4v.175a3.556,3.556,0,0,1-7.105.022Zm5.053.066v-.354a1.509,1.509,0,0,0-1.478-1.677,1.475,1.475,0,0,0-1.478,1.677v.354a1.488,1.488,0,1,0,2.957,0Z" transform="translate(-959.931 -804.021)" fill="#0855c4"/>
        <path id="Trazado_21418" data-name="Trazado 21418" d="M1019.273,817.747l4.857-12.6c.2-.6.662-.971,2.141-.971s1.9.374,2.1.971l4.965,12.58c.11.265-.794,1.016-1.766,1.016a2,2,0,0,1-1.876-1.545l-.859-2.229h-5.187l-.883,2.273c-.4,1.126-1.082,1.5-1.766,1.5C1020.067,818.74,1019.185,818.034,1019.273,817.747Zm8.874-5.231-1.944-5.187-1.942,5.187Z" transform="translate(-957.231 -803.996)" fill="#0855c4"/>
        <path id="Trazado_21419" data-name="Trazado 21419" d="M1031.649,806.095a1.655,1.655,0,0,1,1.7-1.81h3.62c4.766,0,7.658,2.672,7.658,7.085,0,4.436-2.958,7.2-7.768,7.2h-3.4a1.8,1.8,0,0,1-1.811-1.788Zm9.734,5.3c0-2.759-1.7-4.326-4.5-4.326h-2.009v8.718h1.964C1039.661,815.784,1041.383,814.194,1041.383,811.393Z" transform="translate(-954.957 -803.976)" fill="#0855c4"/>
        <path id="Trazado_21420" data-name="Trazado 21420" d="M1043.766,805.689c0-.993.485-1.478,1.39-1.478h.442a1.288,1.288,0,0,1,1.435,1.478v11.5a1.3,1.3,0,0,1-1.435,1.478h-.442c-.9,0-1.39-.508-1.39-1.478Z" transform="translate(-952.732 -803.989)" fill="#0855c4"/>
        <path id="Trazado_21421" data-name="Trazado 21421" d="M1055.048,804.024a6.952,6.952,0,0,1,4.171,1.192,2.841,2.841,0,0,1,1.3,2.054c0,1.435-1.832,1.765-1.876,1.655a3.9,3.9,0,0,0-3.487-1.942c-2.384,0-4.1,1.787-4.1,4.481a4.171,4.171,0,0,0,4.149,4.5,3.646,3.646,0,0,0,3.531-2.14c.046-.134,1.944.2,1.944,1.633a3.062,3.062,0,0,1-1.368,2.184,7.438,7.438,0,0,1-11.61-6.157A7.1,7.1,0,0,1,1055.048,804.024Z" transform="translate(-952.01 -804.024)" fill="#0855c4"/>
        <path id="Trazado_21422" data-name="Trazado 21422" d="M1059.572,805.689c0-.993.485-1.478,1.391-1.478h.442a1.288,1.288,0,0,1,1.435,1.478v11.5a1.3,1.3,0,0,1-1.435,1.478h-.442c-.905,0-1.391-.508-1.391-1.478Z" transform="translate(-949.829 -803.989)" fill="#0855c4"/>
        <path id="Trazado_21423" data-name="Trazado 21423" d="M1063.468,811.484a7.152,7.152,0,0,1,7.372-7.461,7.449,7.449,0,1,1-7.372,7.461Zm11.476,0c0-2.693-1.7-4.569-4.126-4.569-2.451,0-4.106,1.81-4.106,4.548,0,2.714,1.677,4.568,4.127,4.568C1073.267,816.031,1074.944,814.2,1074.944,811.484Z" transform="translate(-949.113 -804.024)" fill="#0855c4"/>
        <path id="Trazado_21424" data-name="Trazado 21424" d="M1076.87,817.188V805.822c0-1.038.509-1.611,1.412-1.611h.4a1.8,1.8,0,0,1,1.656.927l6.157,8.5v-7.946c0-.971.442-1.478,1.391-1.478h.31c.882,0,1.345.508,1.345,1.478v11.367c0,1.059-.529,1.611-1.391,1.611h-.264a1.582,1.582,0,0,1-1.545-.817l-6.4-8.805v8.144a1.29,1.29,0,0,1-1.412,1.478h-.309C1077.311,818.667,1076.87,818.159,1076.87,817.188Z" transform="translate(-946.652 -803.989)" fill="#0855c4"/>
        <path id="Trazado_21425" data-name="Trazado 21425" d="M1088.092,817.747l4.855-12.6c.2-.6.662-.971,2.141-.971s1.9.374,2.1.971l4.967,12.58c.11.265-.8,1.016-1.766,1.016a2,2,0,0,1-1.876-1.545l-.86-2.229h-5.187l-.883,2.273c-.4,1.126-1.082,1.5-1.766,1.5C1088.886,818.74,1088,818.034,1088.092,817.747Zm8.873-5.231-1.943-5.187-1.941,5.187Z" transform="translate(-944.592 -803.996)" fill="#0855c4"/>
        <path id="Trazado_21426" data-name="Trazado 21426" d="M1100.468,816.791v-11.1c0-.993.486-1.478,1.368-1.478h.464c.948,0,1.412.485,1.412,1.478V815.71h5.342c.993,0,1.5.463,1.5,1.368v.088a1.307,1.307,0,0,1-1.5,1.413h-6.886A1.593,1.593,0,0,1,1100.468,816.791Z" transform="translate(-942.318 -803.989)" fill="#0855c4"/>
        <path id="Trazado_21427" data-name="Trazado 21427" d="M967.4,825.629a1.655,1.655,0,0,1,1.7-1.811h3.62c4.766,0,7.658,2.672,7.658,7.085,0,4.436-2.958,7.2-7.768,7.2h-3.4a1.8,1.8,0,0,1-1.811-1.789Zm9.734,5.3c0-2.759-1.7-4.326-4.5-4.326h-2.009v8.717h1.964C975.408,835.317,977.13,833.727,977.13,830.926Z" transform="translate(-966.757 -800.389)" fill="#0855c4"/>
        <path id="Trazado_21428" data-name="Trazado 21428" d="M979.363,836.31V825.629a1.611,1.611,0,0,1,1.7-1.811h7.945c1.016,0,1.5.442,1.5,1.3v.11c0,.883-.485,1.3-1.5,1.3h-6.4v3.024h4.68c1.059,0,1.5.4,1.5,1.213v.066c0,.862-.463,1.258-1.5,1.258h-4.68v3.333h6.511c1.016,0,1.478.374,1.478,1.213v.11c0,.906-.463,1.347-1.478,1.347h-8.055A1.594,1.594,0,0,1,979.363,836.31Z" transform="translate(-964.559 -800.389)" fill="#0855c4"/>
        <path id="Trazado_21429" data-name="Trazado 21429" d="M994.573,836.324v-11.1c0-.993.487-1.478,1.368-1.478h.464c.949,0,1.412.485,1.412,1.478v10.021h5.342c.993,0,1.5.464,1.5,1.368v.088a1.308,1.308,0,0,1-1.5,1.413h-6.885A1.594,1.594,0,0,1,994.573,836.324Z" transform="translate(-961.766 -800.402)" fill="#0855c4"/>
        <path id="Trazado_21430" data-name="Trazado 21430" d="M1002.271,831.017a7.153,7.153,0,0,1,7.373-7.459,7.449,7.449,0,1,1-7.373,7.459Zm11.478,0c0-2.693-1.7-4.569-4.129-4.569-2.449,0-4.1,1.81-4.1,4.547,0,2.714,1.677,4.568,4.127,4.568C1012.071,835.564,1013.749,833.731,1013.749,831.017Z" transform="translate(-960.352 -800.436)" fill="#0855c4"/>
        <path id="Trazado_21431" data-name="Trazado 21431" d="M967.546,844.756c0-.993.485-1.478,1.391-1.478h.441a1.288,1.288,0,0,1,1.435,1.478v11.5a1.3,1.3,0,0,1-1.435,1.478h-.441c-.905,0-1.391-.507-1.391-1.478Z" transform="translate(-966.729 -796.815)" fill="#0855c4"/>
        <path id="Trazado_21432" data-name="Trazado 21432" d="M971.87,856.255V844.89c0-1.038.509-1.612,1.412-1.612h.4a1.8,1.8,0,0,1,1.656.928l6.157,8.5v-7.946c0-.971.442-1.478,1.391-1.478h.31c.882,0,1.345.508,1.345,1.478v11.368c0,1.058-.529,1.61-1.391,1.61h-.264a1.581,1.581,0,0,1-1.545-.816l-6.4-8.807v8.145a1.29,1.29,0,0,1-1.412,1.478h-.309C972.311,857.734,971.87,857.227,971.87,856.255Z" transform="translate(-965.935 -796.815)" fill="#0855c4"/>
        <path id="Trazado_21433" data-name="Trazado 21433" d="M988.078,856.542l-4.967-12.182c-.133-.309.905-1.082,1.965-1.082a1.892,1.892,0,0,1,1.831,1.5l3.134,9.072,3.113-9.072a1.832,1.832,0,0,1,1.742-1.5c1.037,0,2.031.794,1.92,1.082l-4.9,12.182a1.787,1.787,0,0,1-1.943,1.237A1.736,1.736,0,0,1,988.078,856.542Z" transform="translate(-963.873 -796.815)" fill="#0855c4"/>
        <path id="Trazado_21434" data-name="Trazado 21434" d="M995.226,855.844V845.163a1.61,1.61,0,0,1,1.7-1.81h7.945c1.016,0,1.5.441,1.5,1.3v.11c0,.883-.486,1.3-1.5,1.3h-6.4v3.024h4.679c1.06,0,1.5.4,1.5,1.214v.065c0,.862-.462,1.259-1.5,1.259H998.47v3.332h6.511c1.014,0,1.478.375,1.478,1.214v.109c0,.906-.464,1.347-1.478,1.347h-8.056A1.593,1.593,0,0,1,995.226,855.844Z" transform="translate(-961.646 -796.801)" fill="#0855c4"/>
        <path id="Trazado_21435" data-name="Trazado 21435" d="M1005.59,855.933v-10.77a1.61,1.61,0,0,1,1.7-1.81h4.193c3.708,0,5.607,1.545,5.607,4.458a3.873,3.873,0,0,1-3.024,4.039,3.564,3.564,0,0,1-.707.134l3.752,4.545c.134.155-.485,1.192-1.876,1.192-.948,0-1.456-.4-2.14-1.323l-3.134-3.907h-1.126v3.752a1.315,1.315,0,0,1-1.435,1.478h-.442C1006.075,857.72,1005.59,857.081,1005.59,855.933Zm5.673-5.761c1.742,0,2.582-.815,2.582-2.14,0-1.413-.883-2.141-2.649-2.141h-2.405v4.281Z" transform="translate(-959.742 -796.801)" fill="#0855c4"/>
        <path id="Trazado_21436" data-name="Trazado 21436" d="M1020.024,846.2H1016.8c-.971,0-1.5-.485-1.5-1.39V844.7c0-.883.53-1.346,1.5-1.346h9.645c.993,0,1.5.463,1.5,1.346v.111c0,.9-.506,1.39-1.5,1.39h-3.157v10.042a1.321,1.321,0,0,1-1.457,1.478h-.463c-.883,0-1.347-.507-1.347-1.478Z" transform="translate(-957.959 -796.801)" fill="#0855c4"/>
        <path id="Trazado_21437" data-name="Trazado 21437" d="M1026.747,844.756c0-.993.485-1.478,1.391-1.478h.442a1.288,1.288,0,0,1,1.435,1.478v11.5a1.3,1.3,0,0,1-1.435,1.478h-.442c-.906,0-1.391-.507-1.391-1.478Z" transform="translate(-955.857 -796.815)" fill="#0855c4"/>
        <path id="Trazado_21438" data-name="Trazado 21438" d="M1031.071,845.163a1.654,1.654,0,0,1,1.7-1.81h3.618c4.768,0,7.66,2.67,7.66,7.084,0,4.436-2.958,7.2-7.768,7.2h-3.4a1.8,1.8,0,0,1-1.811-1.788Zm9.734,5.3c0-2.759-1.7-4.326-4.5-4.326h-2.009v8.718h1.964C1039.083,854.851,1040.805,853.262,1040.805,850.459Z" transform="translate(-955.063 -796.801)" fill="#0855c4"/>
        <path id="Trazado_21439" data-name="Trazado 21439" d="M1042.609,850.552a7.154,7.154,0,0,1,7.373-7.461,7.449,7.449,0,1,1-7.373,7.461Zm11.478,0c0-2.694-1.7-4.57-4.129-4.57-2.449,0-4.1,1.81-4.1,4.547,0,2.714,1.677,4.568,4.127,4.568C1052.41,855.1,1054.087,853.266,1054.087,850.552Z" transform="translate(-952.944 -796.849)" fill="#0855c4"/>
      </g>
    </g>
    <g id="Grupo_23012" data-name="Grupo 23012" transform="translate(287.566 697.815)">
      <rect id="Rectángulo_5869" data-name="Rectángulo 5869" width="261.586" height="100.61" fill="#ededed"/>
    </g>
    <g id="S_38400" data-name="S 38400" transform="translate(359.296 741.001)">
      <g id="Grupo_23013" data-name="Grupo 23013" style="mix-blend-mode: normal;isolation: isolate">
        <path id="Trazado_21440" data-name="Trazado 21440" d="M328.6,741.579a1.937,1.937,0,0,1,1.39-1.628,6.942,6.942,0,0,0,5.769,2.93c2.662,0,4.171-1.1,4.171-2.989,0-2.159-2.248-2.662-4.793-3.254-2.958-.681-6.035-1.715-6.035-5.59,0-3.255,2.811-5.563,6.894-5.563a8.656,8.656,0,0,1,5.414,1.57,2.527,2.527,0,0,1,1.153,1.832,2.01,2.01,0,0,1-1.419,1.687A6.275,6.275,0,0,0,336.026,728c-2.4,0-3.964,1.154-3.964,2.928,0,2.1,1.864,2.426,4.526,3.048,3.254.739,6.391,2.011,6.391,5.709,0,3.521-2.722,5.711-7.189,5.711a9.15,9.15,0,0,1-6.213-1.983A2.7,2.7,0,0,1,328.6,741.579Z" transform="translate(-328.601 -725.485)" fill="#454a6c"/>
        <path id="Trazado_21441" data-name="Trazado 21441" d="M341.75,749.6a4.555,4.555,0,0,1,.237-1.184l7.041-22.662a1.139,1.139,0,0,1,.592-.117c.621,0,1.626.148,1.626,1.36a4.813,4.813,0,0,1-.237,1.184L344,750.842c0,.058-.3.117-.592.117C342.756,750.959,341.75,750.781,341.75,749.6Z" transform="translate(-326.186 -725.457)" fill="#454a6c"/>
        <path id="Trazado_21442" data-name="Trazado 21442" d="M356.549,743.886a3.754,3.754,0,0,1-1.774-2.779,1.578,1.578,0,0,1,1.774-1.57c.74,2.19,2.722,3.373,5.267,3.373,2.721,0,4.437-1.3,4.437-3.373,0-2.218-1.509-3.372-4.379-3.372h-1.36c-1.065,0-1.45-.443-1.45-1.095v-.176c0-.8.473-1.095,1.391-1.095h1.774c2.338,0,3.581-1.095,3.581-2.9,0-1.835-1.509-2.959-4.024-2.959a4.783,4.783,0,0,0-4.673,2.9,1.6,1.6,0,0,1-1.776-1.51,3.474,3.474,0,0,1,1.776-2.544,8.6,8.6,0,0,1,4.7-1.3c4.408,0,6.952,1.894,6.952,5.177a4.011,4.011,0,0,1-3.254,4.084,4.968,4.968,0,0,1,3.727,4.911c0,3.578-2.752,5.74-7.425,5.74A8.911,8.911,0,0,1,356.549,743.886Z" transform="translate(-323.794 -725.485)" fill="#454a6c"/>
        <path id="Trazado_21443" data-name="Trazado 21443" d="M368.95,739.923c0-2.219,1.33-3.936,3.875-4.764a4.309,4.309,0,0,1-3.313-4.318c0-3.166,2.751-5.356,6.981-5.356,4.289,0,6.892,2.071,6.892,5.3a4.4,4.4,0,0,1-3.282,4.35c2.6.8,3.874,2.514,3.874,4.793,0,3.195-2.988,5.442-7.514,5.442C371.79,745.365,368.95,743.235,368.95,739.923Zm12.04-.238c0-2.041-1.686-3.4-4.526-3.4-2.869,0-4.526,1.331-4.526,3.4,0,1.953,1.687,3.344,4.556,3.344C379.451,743.029,380.99,741.756,380.99,739.685Zm-.5-8.668c0-1.893-1.449-3.195-4.023-3.195-2.662,0-4.023,1.243-4.023,3.195,0,1.835,1.509,3.077,4.053,3.077S380.487,732.941,380.487,731.017Z" transform="translate(-321.191 -725.485)" fill="#454a6c"/>
        <path id="Trazado_21444" data-name="Trazado 21444" d="M393.129,743.732v-3.876h-7.84c-1.154,0-1.864-.592-1.864-1.419v-.651a3.148,3.148,0,0,1,.858-1.893l6.834-8.847a2.519,2.519,0,0,1,2.6-1.36c1.657,0,2.279.561,2.279,1.981v9.7h2.1c.917,0,1.332.385,1.332,1.184v.148c0,.8-.414,1.153-1.332,1.153H396v3.876c0,.916-.414,1.39-1.3,1.39h-.326A1.254,1.254,0,0,1,393.129,743.732Zm.117-6.3v-9.26l-7.07,9.26Z" transform="translate(-311.272 -725.448)" fill="#454a6c"/>
        <path id="Trazado_21445" data-name="Trazado 21445" d="M398.649,736.431v-1.952c0-5.532,3.048-8.995,7.959-8.995,4.97,0,7.987,3.433,7.987,8.965v1.923c0,5.531-3.047,9.023-7.987,9.023C401.638,745.4,398.649,741.964,398.649,736.431Zm12.9.09v-2.131c0-4.024-1.835-6.391-4.941-6.391s-4.881,2.308-4.881,6.331v2.159c0,4.024,1.8,6.331,4.881,6.331C409.773,742.822,411.548,740.543,411.548,736.521Z" transform="translate(-308.476 -725.485)" fill="#454a6c"/>
        <path id="Trazado_21446" data-name="Trazado 21446" d="M414.524,736.431v-1.952c0-5.532,3.047-8.995,7.958-8.995,4.97,0,7.988,3.433,7.988,8.965v1.923c0,5.531-3.048,9.023-7.988,9.023C417.512,745.4,414.524,741.964,414.524,736.431Zm12.9.09v-2.131c0-4.024-1.833-6.391-4.941-6.391s-4.881,2.308-4.881,6.331v2.159c0,4.024,1.805,6.331,4.881,6.331C425.648,742.822,427.422,740.543,427.422,736.521Z" transform="translate(-305.56 -725.485)" fill="#454a6c"/>
        <path id="Trazado_22298" data-name="Trazado 22298" d="M1.081,48.657c-.242.907,1.118,1.209,1.511.695L5.1,45.484A2.807,2.807,0,0,0,5.8,43.671V43.52c0-.937-.514-1.42-1.269-1.42H4.254c-1.027,0-1.269.483-1.541,1.42Z" transform="translate(64.046 -27.812)" fill="#454a6c"/>
      </g>
    </g>
    <g id="Grupo_23014" data-name="Grupo 23014" transform="translate(557.438 697.815)">
      <rect id="Rectángulo_5870" data-name="Rectángulo 5870" width="261.586" height="100.61" fill="#ededed"/>
    </g>
    <g id="S_38400-2" data-name="S 38400" transform="translate(638.754 741.001)">
      <g id="Grupo_23015" data-name="Grupo 23015" style="mix-blend-mode: normal;isolation: isolate">
        <path id="Trazado_21447" data-name="Trazado 21447" d="M564.7,741.579a1.938,1.938,0,0,1,1.391-1.628,6.94,6.94,0,0,0,5.769,2.93c2.662,0,4.171-1.1,4.171-2.989,0-2.159-2.248-2.662-4.793-3.254-2.958-.681-6.035-1.715-6.035-5.59,0-3.255,2.811-5.563,6.893-5.563a8.652,8.652,0,0,1,5.413,1.57,2.525,2.525,0,0,1,1.154,1.832,2.01,2.01,0,0,1-1.419,1.687A6.275,6.275,0,0,0,572.126,728c-2.4,0-3.964,1.154-3.964,2.928,0,2.1,1.863,2.426,4.526,3.048,3.254.739,6.391,2.011,6.391,5.709,0,3.521-2.723,5.711-7.19,5.711a9.147,9.147,0,0,1-6.213-1.983A2.7,2.7,0,0,1,564.7,741.579Z" transform="translate(-564.7 -725.485)" fill="#454a6c"/>
        <path id="Trazado_21448" data-name="Trazado 21448" d="M577.851,749.6a4.548,4.548,0,0,1,.235-1.184l7.042-22.662a1.138,1.138,0,0,1,.592-.117c.62,0,1.626.148,1.626,1.36a4.815,4.815,0,0,1-.237,1.184L580.1,750.842c0,.058-.3.117-.592.117C578.856,750.959,577.851,750.781,577.851,749.6Z" transform="translate(-562.285 -725.457)" fill="#454a6c"/>
        <path id="Trazado_21449" data-name="Trazado 21449" d="M591.073,743.732V730.005a2.79,2.79,0,0,1-1.98.8,2.717,2.717,0,0,1-1.717-.563,1.926,1.926,0,0,1-.65-1.478,1.572,1.572,0,0,1,.857-1.509,2.408,2.408,0,0,0,1.746.68,2.438,2.438,0,0,0,2.4-2.248h1.036c.888,0,1.332.472,1.332,1.39v16.656c0,.916-.444,1.39-1.332,1.39h-.383C591.516,745.121,591.073,744.648,591.073,743.732Z" transform="translate(-560.655 -725.448)" fill="#454a6c"/>
        <path id="Trazado_21450" data-name="Trazado 21450" d="M598.438,744.3a2.739,2.739,0,0,1-1.538-2.16,1.625,1.625,0,0,1,1.271-1.538,5.581,5.581,0,0,0,4.674,2.307c3.313,0,5.059-1.746,5.3-5.5a9.753,9.753,0,0,0,0-1.33,8.094,8.094,0,0,1-5.413,2.07c-3.936,0-6.479-2.16-6.479-5.769v-.118a6.756,6.756,0,0,1,7.1-6.744c4.852,0,7.811,3.283,7.811,8.816v2.042c0,5.945-2.9,9.023-8.2,9.023A8.34,8.34,0,0,1,598.438,744.3Zm9.644-10.621c0-.178-.03-.356-.03-.533-.266-3.283-1.834-5.237-4.615-5.237a4.085,4.085,0,0,0-4.26,4.112v.148c0,2.367,1.48,3.7,4.171,3.7A6.623,6.623,0,0,0,608.083,733.676Z" transform="translate(-551.663 -725.48)" fill="#454a6c"/>
        <path id="Trazado_21451" data-name="Trazado 21451" d="M611,743.354v-.74c0-3.934,3.047-5.68,5.917-7.1,2.515-1.243,4.763-2.19,4.763-4.26,0-1.981-1.449-3.165-3.9-3.165a4.538,4.538,0,0,0-4.675,3.668c0,.089-2.011.118-2.011-1.479a4.293,4.293,0,0,1,1.746-3.136,8.029,8.029,0,0,1,5.147-1.657c4.172,0,6.688,2.16,6.688,5.711,0,3.431-2.722,4.791-5.621,6.123-2.515,1.124-4.586,2.19-5.088,4.232a3.9,3.9,0,0,0-.12.857h9.7c1,0,1.449.414,1.449,1.184v.177c0,.8-.444,1.242-1.449,1.242h-10.65C611.562,745.01,611,744.567,611,743.354Z" transform="translate(-548.954 -725.485)" fill="#454a6c"/>
        <path id="Trazado_21452" data-name="Trazado 21452" d="M624.624,736.431v-1.952c0-5.532,3.047-8.995,7.959-8.995,4.97,0,7.987,3.433,7.987,8.965v1.923c0,5.531-3.048,9.023-7.987,9.023C627.611,745.4,624.624,741.964,624.624,736.431Zm12.9.09v-2.131c0-4.024-1.833-6.391-4.939-6.391s-4.881,2.308-4.881,6.331v2.159c0,4.024,1.8,6.331,4.881,6.331C635.747,742.822,637.522,740.543,637.522,736.521Z" transform="translate(-546.452 -725.485)" fill="#454a6c"/>
        <path id="Trazado_21453" data-name="Trazado 21453" d="M641.778,735.213c-.414-.236-.534-.591-.179-1.242l1.539-2.515-2.662-1.123c-.681-.3-.74-.563-.592-1.095l.028-.118c.148-.474.416-.651,1.126-.534l2.869.711.237-2.87c.089-.768.355-.916.858-.916h.118c.472,0,.768.148.857.916l.179,2.87,2.869-.711c.71-.117,1.006.09,1.154.534l.029.118c.148.532.089.8-.592,1.095l-2.721,1.123,1.567,2.515c.385.651.207.975-.176,1.242l-.09.06c-.354.265-.71.324-1.213-.237l-1.952-2.279-1.922,2.279c-.534.561-.83.5-1.243.237Z" transform="translate(-543.662 -725.48)" fill="#454a6c"/>
        <path id="Trazado_22299" data-name="Trazado 22299" d="M1.081,48.657c-.242.907,1.118,1.209,1.511.695L5.1,45.484A2.807,2.807,0,0,0,5.8,43.671V43.52c0-.937-.514-1.42-1.269-1.42H4.254c-1.027,0-1.269.483-1.541,1.42Z" transform="translate(35.587 -26.325)" fill="#454a6c"/>
      </g>
    </g>
    <g id="Grupo_23016" data-name="Grupo 23016" transform="translate(827.31 697.815)">
      <rect id="Rectángulo_5871" data-name="Rectángulo 5871" width="261.586" height="100.61" fill="#ededed"/>
    </g>
    <g id="S_38400-3" data-name="S 38400" transform="translate(908.626 741.001)">
      <g id="Grupo_23017" data-name="Grupo 23017" style="mix-blend-mode: normal;isolation: isolate">
        <path id="Trazado_21454" data-name="Trazado 21454" d="M792.7,741.579a1.938,1.938,0,0,1,1.391-1.628,6.94,6.94,0,0,0,5.769,2.93c2.662,0,4.171-1.1,4.171-2.989,0-2.159-2.248-2.662-4.793-3.254-2.958-.681-6.036-1.715-6.036-5.59,0-3.255,2.811-5.563,6.894-5.563a8.652,8.652,0,0,1,5.413,1.57,2.525,2.525,0,0,1,1.154,1.832,2.009,2.009,0,0,1-1.419,1.687A6.275,6.275,0,0,0,800.126,728c-2.4,0-3.964,1.154-3.964,2.928,0,2.1,1.863,2.426,4.526,3.048,3.254.739,6.391,2.011,6.391,5.709,0,3.521-2.722,5.711-7.19,5.711a9.147,9.147,0,0,1-6.213-1.983A2.7,2.7,0,0,1,792.7,741.579Z" transform="translate(-792.7 -725.485)" fill="#454a6c"/>
        <path id="Trazado_21455" data-name="Trazado 21455" d="M805.851,749.6a4.548,4.548,0,0,1,.235-1.184l7.042-22.662a1.138,1.138,0,0,1,.592-.117c.62,0,1.626.148,1.626,1.36a4.814,4.814,0,0,1-.237,1.184L808.1,750.842c0,.058-.3.117-.592.117C806.856,750.959,805.851,750.781,805.851,749.6Z" transform="translate(-790.285 -725.457)" fill="#454a6c"/>
        <path id="Trazado_21456" data-name="Trazado 21456" d="M824.253,743.732v-3.876h-7.839c-1.154,0-1.864-.592-1.864-1.419v-.651a3.147,3.147,0,0,1,.858-1.893l6.834-8.847a2.518,2.518,0,0,1,2.6-1.36c1.656,0,2.279.561,2.279,1.981v9.7h2.1c.917,0,1.332.385,1.332,1.184v.148c0,.8-.414,1.153-1.332,1.153h-2.1v3.876c0,.916-.415,1.39-1.3,1.39H825.5A1.255,1.255,0,0,1,824.253,743.732Zm.118-6.3v-9.26l-7.07,9.26Z" transform="translate(-788.687 -725.448)" fill="#454a6c"/>
        <path id="Trazado_21457" data-name="Trazado 21457" d="M829.774,736.431v-1.952c0-5.532,3.048-8.995,7.959-8.995,4.97,0,7.987,3.433,7.987,8.965v1.923c0,5.531-3.047,9.023-7.987,9.023C832.763,745.4,829.774,741.964,829.774,736.431Zm12.9.09v-2.131c0-4.024-1.835-6.391-4.941-6.391s-4.881,2.308-4.881,6.331v2.159c0,4.024,1.8,6.331,4.881,6.331C840.9,742.822,842.673,740.543,842.673,736.521Z" transform="translate(-785.891 -725.485)" fill="#454a6c"/>
        <path id="Trazado_21458" data-name="Trazado 21458" d="M846.625,743.886a3.753,3.753,0,0,1-1.776-2.779,1.578,1.578,0,0,1,1.776-1.57c.74,2.19,2.72,3.373,5.266,3.373,2.721,0,4.437-1.3,4.437-3.373,0-2.218-1.51-3.372-4.378-3.372h-1.362c-1.064,0-1.449-.443-1.449-1.095v-.176c0-.8.474-1.095,1.39-1.095H852.3c2.338,0,3.58-1.095,3.58-2.9,0-1.835-1.51-2.959-4.024-2.959a4.786,4.786,0,0,0-4.674,2.9,1.6,1.6,0,0,1-1.774-1.51,3.476,3.476,0,0,1,1.774-2.544,8.609,8.609,0,0,1,4.705-1.3c4.407,0,6.951,1.894,6.951,5.177a4.011,4.011,0,0,1-3.254,4.084,4.968,4.968,0,0,1,3.727,4.911c0,3.578-2.752,5.74-7.425,5.74A8.908,8.908,0,0,1,846.625,743.886Z" transform="translate(-776.123 -725.485)" fill="#454a6c"/>
        <path id="Trazado_21459" data-name="Trazado 21459" d="M859.05,743.354v-.74c0-3.934,3.047-5.68,5.917-7.1,2.514-1.243,4.762-2.19,4.762-4.26,0-1.981-1.449-3.165-3.9-3.165a4.535,4.535,0,0,0-4.674,3.668c0,.089-2.011.118-2.011-1.479a4.29,4.29,0,0,1,1.746-3.136,8.029,8.029,0,0,1,5.147-1.657c4.172,0,6.686,2.16,6.686,5.711,0,3.431-2.723,4.791-5.621,6.123-2.514,1.124-4.585,2.19-5.089,4.232a3.982,3.982,0,0,0-.118.857h9.7c1.006,0,1.45.414,1.45,1.184v.177c0,.8-.444,1.242-1.45,1.242h-10.65C859.611,745.01,859.05,744.567,859.05,743.354Z" transform="translate(-773.515 -725.485)" fill="#454a6c"/>
        <path id="Trazado_21460" data-name="Trazado 21460" d="M872.674,736.431v-1.952c0-5.532,3.047-8.995,7.958-8.995,4.971,0,7.988,3.433,7.988,8.965v1.923c0,5.531-3.048,9.023-7.988,9.023C875.662,745.4,872.674,741.964,872.674,736.431Zm12.9.09v-2.131c0-4.024-1.835-6.391-4.941-6.391s-4.881,2.308-4.881,6.331v2.159c0,4.024,1.8,6.331,4.881,6.331C883.8,742.822,885.572,740.543,885.572,736.521Z" transform="translate(-771.013 -725.485)" fill="#454a6c"/>
        <path id="Trazado_22300" data-name="Trazado 22300" d="M1.081,48.657c-.242.907,1.118,1.209,1.511.695L5.1,45.484A2.807,2.807,0,0,0,5.8,43.671V43.52c0-.937-.514-1.42-1.269-1.42H4.254c-1.027,0-1.269.483-1.541,1.42Z" transform="translate(59.79 -28.325)" fill="#454a6c"/>
      </g>
    </g>
    <g id="Grupo_23018" data-name="Grupo 23018" transform="translate(287.566 809.078)">
      <rect id="Rectángulo_5872" data-name="Rectángulo 5872" width="261.586" height="100.61" fill="#e2f7ff"/>
    </g>
    <g id="S_38400-4" data-name="S 38400" transform="translate(359.119 852.206)">
      <g id="Grupo_23019" data-name="Grupo 23019" style="mix-blend-mode: normal;isolation: isolate">
        <path id="Trazado_21461" data-name="Trazado 21461" d="M328.451,835.555c0-1.214,1.508-2.309,1.656-2.161a7.8,7.8,0,0,0,5.68,2.574c2.279,0,3.492-.829,3.492-2.307,0-1.716-1.923-2.071-4.172-2.574-3.047-.681-6.182-1.8-6.182-5.738,0-3.551,2.84-5.887,7.455-5.887a9.4,9.4,0,0,1,5.5,1.419,2.626,2.626,0,0,1,1.33,2.1,2.835,2.835,0,0,1-1.715,2.277,6.854,6.854,0,0,0-5.089-2.336c-2.071,0-3.313.857-3.313,2.248,0,1.657,1.715,1.894,4.082,2.427,3.461.768,6.478,2.19,6.478,5.8,0,3.817-2.81,6.035-7.839,6.035-2.958,0-5.029-.768-6.183-1.746A2.738,2.738,0,0,1,328.451,835.555Z" transform="translate(-328.451 -819.431)" fill="#0855c4"/>
        <path id="Trazado_21462" data-name="Trazado 21462" d="M341.925,843.524a4.933,4.933,0,0,1,.237-1.243l7.1-22.572a1.728,1.728,0,0,1,.888-.148c.858,0,2.129.206,2.129,1.656a5.16,5.16,0,0,1-.236,1.243l-7.071,22.572a1.929,1.929,0,0,1-.888.148C343.2,845.18,341.925,844.913,341.925,843.524Z" transform="translate(-325.976 -819.413)" fill="#0855c4"/>
        <path id="Trazado_21463" data-name="Trazado 21463" d="M357.473,837.979a3.771,3.771,0,0,1-1.923-2.928,2.157,2.157,0,0,1,2.574-2.07c.621,1.983,2.4,3.047,4.733,3.047,2.307,0,3.757-1.036,3.757-2.722,0-1.745-1.154-2.631-3.4-2.631h-1c-1.45,0-2.012-.534-2.012-1.48v-.238c0-1.036.651-1.48,1.953-1.48h1.419c1.776,0,2.722-.857,2.722-2.248,0-1.478-1.3-2.4-3.491-2.4a4.2,4.2,0,0,0-4.26,2.751,2.128,2.128,0,0,1-2.515-2.042,3.527,3.527,0,0,1,1.863-2.779,9.208,9.208,0,0,1,5-1.3c4.822,0,7.514,1.894,7.514,5.265,0,2.012-1.154,3.343-3.343,3.994a4.928,4.928,0,0,1,3.727,4.853c0,3.7-2.869,5.857-7.9,5.857A9.512,9.512,0,0,1,357.473,837.979Z" transform="translate(-323.474 -819.431)" fill="#0855c4"/>
        <path id="Trazado_21464" data-name="Trazado 21464" d="M370,833.842c0-2.248,1.3-3.875,3.9-4.643a4.254,4.254,0,0,1-3.343-4.29c0-3.255,2.958-5.473,7.425-5.473,4.526,0,7.308,2.129,7.308,5.414a4.293,4.293,0,0,1-3.285,4.289c2.634.768,3.9,2.425,3.9,4.7,0,3.314-3.106,5.532-7.987,5.532C372.958,839.375,370,837.275,370,833.842Zm11.686-.472c0-1.746-1.42-2.9-3.728-2.9-2.337,0-3.727,1.124-3.727,2.9,0,1.686,1.419,2.869,3.757,2.869C380.355,836.239,381.686,835.144,381.686,833.37Zm-.386-8.048c0-1.6-1.242-2.722-3.343-2.722-2.129,0-3.313,1.095-3.313,2.722,0,1.568,1.272,2.663,3.343,2.663C380.029,827.985,381.3,826.95,381.3,825.322Z" transform="translate(-320.821 -819.436)" fill="#0855c4"/>
        <path id="Trazado_21465" data-name="Trazado 21465" d="M394.321,837.179v-2.9h-7.07c-1.509,0-2.426-.771-2.426-1.864v-.71a3.982,3.982,0,0,1,.917-2.278l5.857-8.135c.858-1.36,1.42-1.656,3.581-1.656,2.248,0,3.165.74,3.165,2.84V831h1.45c1.332,0,1.863.474,1.863,1.568v.148c0,1.125-.531,1.568-1.863,1.568h-1.45v2.9c0,1.3-.592,2.011-1.833,2.011H396.1C394.943,839.19,394.321,838.422,394.321,837.179Zm.178-6.095V822.8l-5.917,8.283Z" transform="translate(-311.098 -819.399)" fill="#0855c4"/>
        <path id="Trazado_21466" data-name="Trazado 21466" d="M400.4,830.406v-1.894c0-5.531,3.165-9.051,8.372-9.051s8.342,3.491,8.342,9.023v1.863c0,5.562-3.135,9.082-8.342,9.082C403.535,839.429,400.4,835.939,400.4,830.406Zm12.367.268v-2.457c0-3.371-1.45-5.235-3.995-5.235-2.6,0-3.964,1.8-3.964,5.177v2.515c0,3.343,1.391,5.176,3.964,5.176C411.376,835.85,412.767,834.045,412.767,830.674Z" transform="translate(-308.238 -819.431)" fill="#0855c4"/>
        <path id="Trazado_21467" data-name="Trazado 21467" d="M416.45,830.406v-1.894c0-5.531,3.165-9.051,8.372-9.051s8.342,3.491,8.342,9.023v1.863c0,5.562-3.135,9.082-8.342,9.082C419.585,839.429,416.45,835.939,416.45,830.406Zm12.366.268v-2.457c0-3.371-1.45-5.235-3.994-5.235-2.6,0-3.964,1.8-3.964,5.177v2.515c0,3.343,1.391,5.176,3.964,5.176C427.426,835.85,428.815,834.045,428.815,830.674Z" transform="translate(-305.29 -819.431)" fill="#0855c4"/>
      </g>
    </g>
    <g id="Grupo_23020" data-name="Grupo 23020" transform="translate(557.438 809.078)">
      <rect id="Rectángulo_5873" data-name="Rectángulo 5873" width="261.586" height="100.61" fill="#e2f7ff"/>
    </g>
    <g id="S_38400-5" data-name="S 38400" transform="translate(638.578 852.206)">
      <g id="Grupo_23021" data-name="Grupo 23021" style="mix-blend-mode: normal;isolation: isolate">
        <path id="Trazado_21468" data-name="Trazado 21468" d="M564.551,835.555c0-1.214,1.508-2.309,1.656-2.161a7.8,7.8,0,0,0,5.68,2.574c2.278,0,3.49-.829,3.49-2.307,0-1.716-1.923-2.071-4.171-2.574-3.047-.681-6.183-1.8-6.183-5.738,0-3.551,2.841-5.887,7.456-5.887a9.39,9.39,0,0,1,5.5,1.419,2.625,2.625,0,0,1,1.332,2.1,2.837,2.837,0,0,1-1.715,2.277,6.854,6.854,0,0,0-5.09-2.336c-2.07,0-3.312.857-3.312,2.248,0,1.657,1.715,1.894,4.083,2.427,3.461.768,6.478,2.19,6.478,5.8,0,3.817-2.811,6.035-7.839,6.035-2.959,0-5.029-.768-6.183-1.746A2.741,2.741,0,0,1,564.551,835.555Z" transform="translate(-564.551 -819.431)" fill="#0855c4"/>
        <path id="Trazado_21469" data-name="Trazado 21469" d="M578.025,843.524a4.942,4.942,0,0,1,.238-1.243l7.1-22.572a1.729,1.729,0,0,1,.888-.148c.857,0,2.129.206,2.129,1.656a5.169,5.169,0,0,1-.237,1.243l-7.07,22.572a1.929,1.929,0,0,1-.888.148C579.3,845.18,578.025,844.913,578.025,843.524Z" transform="translate(-562.077 -819.413)" fill="#0855c4"/>
        <path id="Trazado_21470" data-name="Trazado 21470" d="M589.322,837.979a3.772,3.772,0,0,1-1.922-2.928,2.156,2.156,0,0,1,2.573-2.07c.623,1.983,2.4,3.047,4.733,3.047,2.308,0,3.758-1.036,3.758-2.722,0-1.745-1.155-2.631-3.4-2.631h-1.006c-1.449,0-2.011-.534-2.011-1.48v-.238c0-1.036.651-1.48,1.953-1.48h1.419c1.776,0,2.723-.857,2.723-2.248,0-1.478-1.3-2.4-3.492-2.4a4.2,4.2,0,0,0-4.259,2.751,2.128,2.128,0,0,1-2.515-2.042,3.527,3.527,0,0,1,1.863-2.779,9.208,9.208,0,0,1,5-1.3c4.822,0,7.514,1.894,7.514,5.265,0,2.012-1.154,3.343-3.343,3.994a4.927,4.927,0,0,1,3.726,4.853c0,3.7-2.868,5.857-7.9,5.857A9.516,9.516,0,0,1,589.322,837.979Z" transform="translate(-560.355 -819.431)" fill="#0855c4"/>
        <path id="Trazado_21471" data-name="Trazado 21471" d="M601.85,833.842c0-2.248,1.3-3.875,3.9-4.643a4.256,4.256,0,0,1-3.343-4.29c0-3.255,2.959-5.473,7.426-5.473,4.526,0,7.307,2.129,7.307,5.414a4.292,4.292,0,0,1-3.283,4.289c2.634.768,3.9,2.425,3.9,4.7,0,3.314-3.106,5.532-7.987,5.532C604.808,839.375,601.85,837.275,601.85,833.842Zm11.686-.472c0-1.746-1.422-2.9-3.729-2.9-2.337,0-3.727,1.124-3.727,2.9,0,1.686,1.419,2.869,3.757,2.869C612.2,836.239,613.536,835.144,613.536,833.37Zm-.386-8.048c0-1.6-1.242-2.722-3.343-2.722-2.131,0-3.314,1.095-3.314,2.722,0,1.568,1.274,2.663,3.344,2.663C611.878,827.985,613.15,826.95,613.15,825.322Z" transform="translate(-557.701 -819.436)" fill="#0855c4"/>
        <path id="Trazado_21472" data-name="Trazado 21472" d="M626.171,837.179v-2.9H619.1c-1.51,0-2.426-.771-2.426-1.864v-.71a3.988,3.988,0,0,1,.916-2.278l5.858-8.135c.858-1.36,1.42-1.656,3.581-1.656,2.248,0,3.165.74,3.165,2.84V831h1.449c1.332,0,1.864.474,1.864,1.568v.148c0,1.125-.533,1.568-1.864,1.568h-1.449v2.9c0,1.3-.592,2.011-1.833,2.011h-.415C626.793,839.19,626.171,838.422,626.171,837.179Zm.178-6.095V822.8l-5.917,8.283Z" transform="translate(-546.978 -819.399)" fill="#0855c4"/>
        <path id="Trazado_21473" data-name="Trazado 21473" d="M632.25,830.406v-1.894c0-5.531,3.165-9.051,8.372-9.051s8.342,3.491,8.342,9.023v1.863c0,5.562-3.135,9.082-8.342,9.082C635.385,839.429,632.25,835.939,632.25,830.406Zm12.366.268v-2.457c0-3.371-1.449-5.235-3.994-5.235-2.6,0-3.964,1.8-3.964,5.177v2.515c0,3.343,1.39,5.176,3.964,5.176C643.225,835.85,644.615,834.045,644.615,830.674Z" transform="translate(-544.118 -819.431)" fill="#0855c4"/>
        <path id="Trazado_21474" data-name="Trazado 21474" d="M648.3,830.406v-1.894c0-5.531,3.165-9.051,8.372-9.051s8.342,3.491,8.342,9.023v1.863c0,5.562-3.137,9.082-8.342,9.082C651.435,839.429,648.3,835.939,648.3,830.406Zm12.366.268v-2.457c0-3.371-1.45-5.235-3.994-5.235-2.6,0-3.965,1.8-3.965,5.177v2.515c0,3.343,1.391,5.176,3.965,5.176C659.275,835.85,660.665,834.045,660.665,830.674Z" transform="translate(-541.171 -819.431)" fill="#0855c4"/>
        <path id="Trazado_22296" data-name="Trazado 22296" d="M2.823,35.83l2.486-3.462a3.476,3.476,0,0,0,1.007-2.36V29.82c0-1.322-.661-1.92-1.762-1.92H4.082c-1.448,0-1.794.629-2.108,1.92l-1.416,5C.274,36.113,2.068,36.648,2.823,35.83Z" transform="translate(-213.694 -13.518)" fill="#0855c4"/>
      </g>
    </g>
    <g id="Grupo_23024" data-name="Grupo 23024" transform="translate(827.31 809.078)">
      <g id="Grupo_23022" data-name="Grupo 23022" transform="translate(3.551 3.551)">
        <rect id="Rectángulo_5874" data-name="Rectángulo 5874" width="254.484" height="93.508" fill="#e2f7ff"/>
      </g>
      <g id="Grupo_23023" data-name="Grupo 23023">
        <path id="Trazado_21475" data-name="Trazado 21475" d="M978.484,790.1v86.406H731.1V790.1H978.484m7.1-7.1H724V883.61H985.586V783Z" transform="translate(-724 -783)" fill="#0855c4"/>
      </g>
    </g>
    <g id="S_38400-6" data-name="S 38400" transform="translate(888.913 848.283)">
      <g id="Grupo_23025" data-name="Grupo 23025" style="mix-blend-mode: normal;isolation: isolate">
        <path id="Trazado_21476" data-name="Trazado 21476" d="M776.045,835.469c0-1.457,1.811-2.77,1.99-2.593a9.359,9.359,0,0,0,6.817,3.091c2.734,0,4.19-.994,4.19-2.77,0-2.06-2.308-2.486-5.007-3.091-3.657-.815-7.421-2.165-7.421-6.888,0-4.261,3.409-7.066,8.948-7.066a11.275,11.275,0,0,1,6.6,1.7,3.152,3.152,0,0,1,1.6,2.521,3.4,3.4,0,0,1-2.061,2.734,8.221,8.221,0,0,0-6.107-2.805c-2.486,0-3.977,1.03-3.977,2.7,0,1.988,2.06,2.273,4.9,2.912,4.155.923,7.777,2.628,7.777,6.959,0,4.581-3.373,7.244-9.41,7.244-3.55,0-6.037-.923-7.422-2.094A3.294,3.294,0,0,1,776.045,835.469Z" transform="translate(-776.045 -816.116)" fill="#0855c4"/>
        <path id="Trazado_21477" data-name="Trazado 21477" d="M792.216,845.033a5.946,5.946,0,0,1,.283-1.49l8.522-27.094a2.075,2.075,0,0,1,1.065-.178c1.03,0,2.557.249,2.557,1.989a6.205,6.205,0,0,1-.284,1.491l-8.485,27.094a2.351,2.351,0,0,1-1.066.176C793.743,847.022,792.216,846.7,792.216,845.033Z" transform="translate(-773.075 -816.094)" fill="#0855c4"/>
        <path id="Trazado_21478" data-name="Trazado 21478" d="M806.491,837.913l9.481-16.938h-10.05c-1.527,0-2.308-.6-2.308-2.06v-.32c0-1.42.781-2.024,2.308-2.024h12.286c2.948,0,3.409,1.243,3.409,2.592v.356c0,1.313-.959,2.768-1.6,3.9l-7.954,14.523a3.005,3.005,0,0,1-2.663,1.845C807.7,839.794,806.277,838.267,806.491,837.913Z" transform="translate(-770.982 -816.039)" fill="#0855c4"/>
        <path id="Trazado_21479" data-name="Trazado 21479" d="M820.354,829.29v-2.06c0-6.853,3.943-11.079,10.3-11.079a10.75,10.75,0,0,1,5.822,1.385,3.691,3.691,0,0,1,1.989,3.089c0,2.024-2.45,2.415-2.557,2.344a5.406,5.406,0,0,0-4.865-2.628c-3.3,0-5.149,1.882-5.467,5.468a9.478,9.478,0,0,0-.072,1.7,8.885,8.885,0,0,1,6.214-2.415c4.581,0,7.67,2.486,7.67,6.781v.179c0,4.721-3.729,8.06-9.09,8.06C824.011,840.12,820.354,835.823,820.354,829.29Zm14.026,3.088V832.2c0-2.415-1.491-3.728-4.155-3.728a6.65,6.65,0,0,0-4.616,2.059v.426c.249,3.337,1.883,5.255,4.581,5.255C832.64,836.215,834.38,834.651,834.38,832.379Z" transform="translate(-767.908 -816.116)" fill="#0855c4"/>
        <path id="Trazado_21480" data-name="Trazado 21480" d="M838.145,833.414c0-2.7,1.562-4.651,4.686-5.575-2.733-.888-4.011-2.663-4.011-5.148,0-3.906,3.551-6.569,8.912-6.569,5.433,0,8.771,2.557,8.771,6.5,0,2.486-1.314,4.261-3.942,5.149,3.16.923,4.687,2.912,4.687,5.645,0,3.978-3.727,6.641-9.586,6.641C841.7,840.055,838.145,837.534,838.145,833.414Zm14.025-.567c0-2.1-1.7-3.48-4.473-3.48-2.805,0-4.474,1.349-4.474,3.48,0,2.024,1.7,3.443,4.508,3.443C850.573,836.29,852.17,834.977,852.17,832.847Zm-.462-9.659c0-1.917-1.49-3.267-4.011-3.267-2.557,0-3.978,1.314-3.978,3.267,0,1.882,1.528,3.2,4.013,3.2C850.181,826.384,851.708,825.141,851.708,823.188Z" transform="translate(-752.64 -816.122)" fill="#0855c4"/>
        <path id="Trazado_21481" data-name="Trazado 21481" d="M856.354,829.29v-2.273c0-6.64,3.8-10.866,10.049-10.866s10.014,4.19,10.014,10.83v2.236c0,6.677-3.764,10.9-10.014,10.9C860.118,840.12,856.354,835.93,856.354,829.29Zm14.844.318v-2.946c0-4.048-1.741-6.285-4.8-6.285-3.125,0-4.758,2.166-4.758,6.214v3.017c0,4.014,1.669,6.214,4.758,6.214C869.528,835.823,871.2,833.657,871.2,829.609Z" transform="translate(-749.296 -816.116)" fill="#0855c4"/>
        <path id="Trazado_21482" data-name="Trazado 21482" d="M875.615,829.29v-2.273c0-6.64,3.8-10.866,10.048-10.866s10.014,4.19,10.014,10.83v2.236c0,6.677-3.764,10.9-10.014,10.9C879.379,840.12,875.615,835.93,875.615,829.29Zm14.842.318v-2.946c0-4.048-1.739-6.285-4.794-6.285-3.124,0-4.757,2.166-4.757,6.214v3.017c0,4.014,1.668,6.214,4.757,6.214C888.788,835.823,890.457,833.657,890.457,829.609Z" transform="translate(-745.759 -816.116)" fill="#0855c4"/>
        <path id="Trazado_22297" data-name="Trazado 22297" d="M2.823,35.83l2.486-3.462a3.476,3.476,0,0,0,1.007-2.36V29.82c0-1.322-.661-1.92-1.762-1.92H4.082c-1.448,0-1.794.629-2.108,1.92l-1.416,5C.274,36.113,2.068,36.648,2.823,35.83Z" transform="translate(-190.028 -9.595)" fill="#0855c4"/>
        <path id="Trazado_22301" data-name="Trazado 22301" d="M3.291,37.447,6.284,33.28A4.185,4.185,0,0,0,7.5,30.438v-.227c0-1.591-.8-2.311-2.122-2.311H4.807c-1.743,0-2.159.758-2.538,2.311l-1.7,6.024C.222,37.788,2.382,38.432,3.291,37.447Z" transform="translate(74.763 -9.153)" fill="#0855c4"/>
      </g>
    </g>
    <g id="Grupo_23026" data-name="Grupo 23026" transform="translate(310.055 641)">
      <path id="Trazado_21484" data-name="Trazado 21484" d="M487.628,689.529H302.979A16,16,0,0,1,287,673.55V656.979A16,16,0,0,1,302.979,641H487.628a16,16,0,0,1,15.979,15.979V673.55A16,16,0,0,1,487.628,689.529ZM302.979,644.551a12.442,12.442,0,0,0-12.428,12.428V673.55a12.442,12.442,0,0,0,12.428,12.428H487.628a12.442,12.442,0,0,0,12.428-12.428V656.979a12.442,12.442,0,0,0-12.428-12.428Z" transform="translate(-287 -641)" fill="#ddd"/>
    </g>
    <g id="Grupo_23027" data-name="Grupo 23027" transform="translate(579.927 641)">
      <path id="Trazado_21485" data-name="Trazado 21485" d="M715.628,689.529H530.979A16,16,0,0,1,515,673.55V656.979A16,16,0,0,1,530.979,641H715.628a16,16,0,0,1,15.979,15.979V673.55A16,16,0,0,1,715.628,689.529ZM530.979,644.551a12.442,12.442,0,0,0-12.428,12.428V673.55a12.442,12.442,0,0,0,12.428,12.428H715.628a12.442,12.442,0,0,0,12.428-12.428V656.979a12.442,12.442,0,0,0-12.428-12.428Z" transform="translate(-515 -641)" fill="#ddd"/>
    </g>
    <g id="Grupo_23028" data-name="Grupo 23028" transform="translate(849.799 641)">
      <path id="Trazado_21486" data-name="Trazado 21486" d="M943.628,689.529H758.979A16,16,0,0,1,743,673.55V656.979A16,16,0,0,1,758.979,641H943.628a16,16,0,0,1,15.979,15.979V673.55A16,16,0,0,1,943.628,689.529ZM758.979,644.551a12.442,12.442,0,0,0-12.428,12.428V673.55a12.442,12.442,0,0,0,12.428,12.428H943.628a12.442,12.442,0,0,0,12.428-12.428V656.979a12.442,12.442,0,0,0-12.428-12.428Z" transform="translate(-743 -641)" fill="#ddd"/>
    </g>
  </g>
</svg>
