<svg xmlns="http://www.w3.org/2000/svg" xmlns:xlink="http://www.w3.org/1999/xlink" width="211.187" height="120.911" viewBox="0 0 211.187 120.911"><defs><style>.a{fill:#fff;}.aa,.ac,.af,.ai,.b,.f,.n,.p,.r,.v,.y{fill:none;}.c{clip-path:url(#a);}.d{opacity:0.397;}.e{fill:#00adee;}.f{stroke:#00adee;}.aa,.ac,.af,.ag,.ai,.f,.n,.p,.r,.v,.y{stroke-miterlimit:10;}.g{fill:#ffb38a;}.h{fill:#014699;}.i{fill:#00aef0;}.j{fill:#0096dd;}.ag,.k{fill:#1c5cc1;}.l{opacity:0.09;}.l,.u{isolation:isolate;}.m{fill:#ffae97;}.n{stroke:#0061bc;}.aa,.n{stroke-width:0.75px;}.o{fill:#00447f;}.p{stroke:#b5b5b5;}.q{fill:#00457f;}.r{stroke:#002168;stroke-width:3px;}.s{fill:#002168;}.t{fill:url(#b);}.u{fill:#d98a32;opacity:0.38;}.v{stroke:#00529c;stroke-width:0.5px;}.w{fill:#ffc75c;}.x{fill:#031e58;}.y{stroke:#00447f;stroke-width:2px;}.z{fill:#fbfffb;}.aa{stroke:#ff6700;}.ab{fill:#00418b;}.ac{stroke:#00418b;}.ad{fill:#003868;}.ae{fill:#00adef;}.af,.ag,.ai{stroke:#fff;}.ah{fill:#b5b5b5;}.ai{stroke-width:1.3px;}.aj{clip-path:url(#c);}.ak{fill:#b95027;}.al{clip-path:url(#d);}.am{fill:#fdb62f;}</style><clipPath id="a"><rect class="a" width="207" height="119" transform="translate(8701.563 1608.817)"/></clipPath><linearGradient id="b" x1="671.683" y1="29.746" x2="671.683" y2="30.724" gradientUnits="objectBoundingBox"><stop offset="0" stop-color="#ffb65e"/><stop offset="1" stop-color="#fc7125"/></linearGradient><clipPath id="c"><path class="b" d="M78.092-351.411s7.082,1.443,8.642.45c0,0-5.355,10.5-8.642-.45" transform="translate(-78.092 351.411)"/></clipPath><clipPath id="d"><path class="b" d="M86.74-350.781s-2.129.579-8.172-.63a7.4,7.4,0,0,0,.458,1.373s4.321,1.148,6.246.758a1.33,1.33,0,0,0,.8-.562Z" transform="translate(-78.568 351.411)"/></clipPath></defs><g transform="translate(-91 -1386)"><g class="c" transform="translate(-8608.563 -222.817)"><g transform="translate(8705.013 1613.113)"><g class="d" transform="translate(0 26.779)"><g transform="translate(11.272 66.165)"><path class="e" d="M2649.029,848.645h-98.5v-7.383h98.5Zm-97.672-.831H2648.2v-5.721h-96.842Z" transform="translate(-2550.526 -841.262)"/></g><g transform="translate(30.185 0)"><path class="e" d="M2683.3,709.183h-75.874v-67H2683.3Zm-75.043-.831h74.212V643.018H2608.26Z" transform="translate(-2607.429 -642.187)"/></g><g transform="translate(30.185 0)"><path class="e" d="M2662,648.318h-54.57v-6.131H2662Zm-53.739-.831h52.908v-4.469H2608.26Z" transform="translate(-2607.429 -642.187)"/></g><g transform="translate(83.924 0)"><path class="e" d="M2791.253,709.183h-22.135v-67h22.135Zm-21.3-.831h20.473V643.018h-20.473Z" transform="translate(-2769.118 -642.187)"/></g><g transform="translate(20.246 92.707)"><path class="e" d="M2627.128,935.943h-.831v-13.99l-99.841.271v-.831l100.672-.271Z" transform="translate(-2526.456 -921.122)"/></g><g transform="translate(134.343 58.833)"><path class="e" d="M2973.581,836.493h-52.764V819.2h52.764Zm-51.933-.831h51.1V820.034h-51.1Z" transform="translate(-2920.817 -819.203)"/></g><g transform="translate(134.343 75.292)"><path class="e" d="M2973.581,886.013h-52.764v-17.29h52.764Zm-51.933-.831h51.1V869.554h-51.1Z" transform="translate(-2920.817 -868.723)"/></g><g transform="translate(134.343 91.751)"><path class="e" d="M2973.581,935.533h-52.764V918.244h52.764Zm-51.933-.831h51.1V919.075h-51.1Z" transform="translate(-2920.817 -918.244)"/></g><g transform="translate(143.041 23.033)"><path class="e" d="M2967.663,729.629h-20.674l2.846-18.142h14.39Zm-19.7-.831h18.7l-3.124-16.48h-12.991Z" transform="translate(-2946.989 -711.487)"/></g><g transform="translate(151.738 40.344)"><path class="e" d="M2976.958,780.865h-3.8V763.572h3.8Zm-2.97-.831h2.139V764.4h-2.139Z" transform="translate(-2973.157 -763.572)"/></g><g transform="translate(147.298 56.806)"><path class="e" d="M2972.507,815.962H2959.8V813.1h12.711Zm-11.881-.831h11.05v-1.2h-11.05Z" transform="translate(-2959.796 -813.104)"/></g><g transform="translate(152.467 105.288)"><path class="e" d="M2991.867,962.728h-16.518l1.453-3.752H2990.4Zm-15.3-.831h14.087l-.82-2.09h-12.457Z" transform="translate(-2975.349 -958.976)"/></g><g transform="translate(152.467 88.83)"><path class="e" d="M2991.867,913.208h-16.518l1.453-3.752H2990.4Zm-15.3-.831h14.087l-.82-2.09h-12.457Z" transform="translate(-2975.349 -909.456)"/></g><g transform="translate(152.467 72.371)"><path class="e" d="M2991.867,863.687h-16.518l1.453-3.752H2990.4Zm-15.3-.831h14.087l-.82-2.09h-12.457Z" transform="translate(-2975.349 -859.935)"/></g><g transform="translate(0.954 108.255)"><path class="e" d="M139,0H342.158V.74H139Z" transform="translate(-139 0)"/></g><g transform="translate(92.44 109.796)"><path class="f" d="M2794.742,972.537" transform="translate(-2794.742 -972.537)"/></g><g transform="translate(0 77.532)"><g transform="translate(10.727 15.389)"><path class="e" d="M3159.408,928.22a3.058,3.058,0,0,1-1.912-.66,3.323,3.323,0,0,1-1.027-3.869,2.827,2.827,0,0,1,1.611-1.587c2.732-1.125,7.538.9,7.741.986l.518.221-.364.43C3163.08,927.164,3160.942,928.22,3159.408,928.22Zm.668-5.629a4.457,4.457,0,0,0-1.68.281,2,2,0,0,0-1.157,1.131,2.522,2.522,0,0,0,.766,2.9c1.572,1.216,4.031.06,6.956-3.258A15.674,15.674,0,0,0,3160.076,922.591Z" transform="translate(-3156.225 -921.764)"/></g><g transform="translate(0 8.053)"><path class="e" d="M3127.778,908.944a3.233,3.233,0,0,1-.383-.023c-1.817-.216-3.876-1.9-3.369-8.669l.042-.561.524.205c.206.081,5.053,2.006,6.212,4.724a2.825,2.825,0,0,1,.036,2.261A3.329,3.329,0,0,1,3127.778,908.944Zm-2.961-8.047c-.24,4.416.7,6.965,2.677,7.2a2.524,2.524,0,0,0,2.578-1.531,2,2,0,0,0-.032-1.619C3129.222,903.032,3126.078,901.462,3124.817,900.9Z" transform="translate(-3123.948 -899.692)"/></g><g transform="translate(13.467 7.911)"><path class="e" d="M3167.4,905.14a2.821,2.821,0,0,1-2.066-.863,3.055,3.055,0,0,1-.52-3.538,2.592,2.592,0,0,1,1.606-1.307c2.568-.782,6.728,1.453,6.9,1.548l.495.269-.4.394C3170.717,904.281,3168.779,905.14,3167.4,905.14Zm.266-5.047a3.45,3.45,0,0,0-1,.134,1.769,1.769,0,0,0-1.112.9,2.218,2.218,0,0,0,.374,2.568c1.276,1.285,3.57.488,6.488-2.24A12.683,12.683,0,0,0,3167.664,900.093Z" transform="translate(-3164.469 -899.266)"/></g><g transform="translate(12.132)"><path class="e" d="M3163.481,883.15a3.178,3.178,0,0,1-.362-.021,3.057,3.057,0,0,1-2.617-2.437,2.592,2.592,0,0,1,.438-2.024c1.515-2.215,6.159-3.07,6.357-3.105l.554-.1-.068.559C3167.075,881.817,3165.125,883.15,3163.481,883.15Zm3.4-6.65c-1.248.291-4.219,1.122-5.255,2.637a1.768,1.768,0,0,0-.308,1.395,2.217,2.217,0,0,0,1.9,1.771C3165.015,882.508,3166.306,880.454,3166.88,876.5Z" transform="translate(-3160.45 -875.463)"/></g><g transform="translate(4.426 2.559)"><path class="e" d="M3140.932,891.449l-.1,0c-1.718-.061-3.728-1.451-3.552-7.722l.016-.562.533.181c.19.064,4.655,1.6,5.823,4.017a2.589,2.589,0,0,1,.131,2.067A3.058,3.058,0,0,1,3140.932,891.449Zm-2.835-7.116c-.022,3.995.951,6.22,2.761,6.284a2.219,2.219,0,0,0,2.139-1.469,1.766,1.766,0,0,0-.1-1.425C3142.1,886.07,3139.288,884.806,3138.1,884.332Z" transform="translate(-3137.265 -883.162)"/></g><g transform="translate(6.758 0.384)"><path class="e" d="M3145.1,899.41l-.818-.146c2.313-13.019,11.752-22.551,11.847-22.646l.586.588C3156.624,877.3,3147.367,886.655,3145.1,899.41Z" transform="translate(-3144.283 -876.618)"/></g><g transform="translate(0.221 8.59)"><path class="e" d="M3132.134,912.56l-7.52-10.776.682-.475,7.217,10.342,11.728-2.025.141.819Z" transform="translate(-3124.614 -901.309)"/></g><g transform="translate(4.636 3.157)"><path class="e" d="M3143.825,893.959l-5.929-8.522.682-.475,5.637,8.1,10.6-1.485.115.823Z" transform="translate(-3137.896 -884.962)"/></g><g transform="translate(2.311 22.573)"><path class="e" d="M3132.845,951.991l-1.943-8.612h9.792l-.887,8.563-.826-.086.792-7.646h-7.832l1.715,7.6Z" transform="translate(-3130.901 -943.379)"/></g><g transform="translate(3.841 26.293)"><path class="e" d="M3142.932,956.068a1.407,1.407,0,0,1-1.021-.438.594.594,0,0,0-.933,0,1.406,1.406,0,0,1-2.04,0,.592.592,0,0,0-.931,0,1.4,1.4,0,0,1-2.039,0,.605.605,0,0,0-.465-.226v-.831a1.405,1.405,0,0,1,1.019.438.59.59,0,0,0,.93,0,1.406,1.406,0,0,1,2.039,0,.607.607,0,0,0,.466.227.614.614,0,0,0,.467-.227,1.407,1.407,0,0,1,2.04,0,.614.614,0,0,0,.467.227Z" transform="translate(-3135.504 -954.572)"/></g></g><g transform="translate(170.747 55.788)"><path class="e" d="M3043.909,813.917H3030.35v-3.876h13.559Zm-12.728-.831h11.9v-2.214h-11.9Z" transform="translate(-3030.35 -810.041)"/></g><g transform="translate(91.417 11.795)"><line class="a" y2="36.489" transform="translate(0.416 0)"/><rect class="e" width="0.831" height="36.489"/></g><g transform="translate(97.806 11.795)"><line class="a" y2="36.489" transform="translate(0.415 0)"/><rect class="e" width="0.831" height="36.489"/></g><g transform="translate(155.05 23.406)"><rect class="e" width="0.831" height="17.4" transform="translate(0 0.084) rotate(-5.785)"/></g><g transform="translate(148.476 23.406)"><rect class="e" width="17.4" height="0.831" transform="matrix(0.101, -0.995, 0.995, 0.101, 0, 17.311)"/></g></g><g transform="translate(39.014 0)"><path class="g" d="M-584.65,469.944c1.289-.174,2.79-.465,4.3-.8.393-.086.786-.176,1.176-.267a17.888,17.888,0,0,0,2.373-1.546s2.426-2.473-1.739-1.63c0,0-7.278,1.9-8.986,4.934-.013.041-.023.082-.036.123.056-.026.108-.053.166-.078A10.326,10.326,0,0,1-584.65,469.944Z" transform="translate(700.989 -393.453)"/><g transform="translate(100.987 44.424)"><g transform="translate(18.079 28.231)"><path class="h" d="M-552.358,469.517l-.938,2.795a2.146,2.146,0,0,1-2.032,1.456H-557.3a2.142,2.142,0,0,1-2.047-1.512l-1-3.257Z" transform="translate(560.354 -468.999)"/></g><g transform="translate(24.718 27.519)"><path class="i" d="M-536.6,467.355l-1.395,4.094a2.045,2.045,0,0,1-1.936,1.39h-2.123A2.041,2.041,0,0,1-544,471.4l-1.025-3.328Z" transform="translate(545.025 -467.355)"/></g><g transform="translate(8.506 27.282)"><path class="h" d="M-574.169,468.274l-.965,2.866a2.037,2.037,0,0,1-1.93,1.388h-2.13a2.036,2.036,0,0,1-1.947-1.437l-1.319-4.284Z" transform="translate(582.46 -466.806)"/></g><g transform="translate(5.265 0.793)"><path class="j" d="M-588.886,412.906l-.771-1.9a3.9,3.9,0,0,1,1.3-4.6h0a3.9,3.9,0,0,1,5,.307l3.349,3.178-6.089,3.013Z" transform="translate(589.944 -405.643)"/></g><g transform="translate(6.135 2.818)"><path class="k" d="M-587.109,414.459l-.6-1.17a2.04,2.04,0,0,1,.6-2.575h0a2.041,2.041,0,0,1,2.778.338l1.328,1.6Z" transform="translate(587.935 -410.317)"/></g><g transform="translate(2.638 3.766)"><path class="i" d="M-571.2,412.507h-11.99a12.821,12.821,0,0,0-12.821,12.821h0a12.821,12.821,0,0,0,12.821,12.821h11.99a12.821,12.821,0,0,0,12.821-12.821h0A12.821,12.821,0,0,0-571.2,412.507Z" transform="translate(596.009 -412.507)"/></g><g transform="translate(10.609 9.97)"><circle class="k" cx="1.021" cy="1.021" r="1.021"/></g><g transform="translate(4.998 9.53)"><circle class="k" cx="1.021" cy="1.021" r="1.021"/></g><g transform="translate(4.31 22.241)"><path class="k" d="M-590.5,456.21a2.264,2.264,0,0,1-1.651-.79l.263-.251a1.919,1.919,0,0,0,1.385.677h0a2.369,2.369,0,0,0,1.5-.677l.263.252A2.7,2.7,0,0,1-590.5,456.21Z" transform="translate(592.149 -455.168)"/></g><g transform="translate(18.886 1.639)"><path class="i" d="M-555.639,409.723v4.29s-2.815-.471-2.851-1.092,2-5.325,2-5.325Z" transform="translate(558.49 -407.596)"/></g><g class="l" transform="translate(21.738 3.769)"><path class="k" d="M-551.288,415.062l-.618-2.547,6.108.033a12.723,12.723,0,0,1,9.841,5.07,12.381,12.381,0,0,0-7.483-2.5Z" transform="translate(551.906 -412.515)"/></g><g transform="translate(22.22 4.681)"><rect class="k" width="6.639" height="0.711" rx="0.356"/></g><g transform="translate(22.884 13.41)"><path class="a" d="M-548.323,434.777a.939.939,0,0,0-.937.94v6.139h6.122a.939.939,0,0,0,.937-.94v-6.139Zm4.456,5.094-3.768.7v-3.821l3.768-.688Z" transform="translate(549.26 -434.777)"/></g><g transform="translate(0 12.732)"><path class="k" d="M-598.531,433.21h0a3.569,3.569,0,0,0-3.569,3.569v.391a3.569,3.569,0,0,0,3.569,3.569h0a3.569,3.569,0,0,0,3.569-3.569v-.391A3.569,3.569,0,0,0-598.531,433.21Z" transform="translate(602.1 -433.21)"/></g><g transform="translate(4.055 14.866)"><ellipse class="i" cx="0.311" cy="1.632" rx="0.311" ry="1.632"/></g><g transform="translate(1.908 14.866)"><ellipse class="i" cx="0.311" cy="1.632" rx="0.311" ry="1.632"/></g><g transform="translate(13.129 0)"><path class="i" d="M-562.835,409.16l-.455-2.116a4.089,4.089,0,0,0-3.728-3.224h0a4.091,4.091,0,0,0-4.088,2.614l-.679,1.772Z" transform="translate(571.785 -403.811)"/></g><g transform="translate(13.641 1.632)"><path class="k" d="M-570.6,410.78l3.961,3.742.442-5.022a1.767,1.767,0,0,0-1.5-1.9h0a1.769,1.769,0,0,0-1.856.984Z" transform="translate(570.601 -407.58)"/></g><g transform="translate(14.888 28.231)"><path class="i" d="M-559.727,469.517l-.939,2.795a2.145,2.145,0,0,1-2.032,1.456h-1.976a2.141,2.141,0,0,1-2.047-1.512l-1-3.257Z" transform="translate(567.723 -468.999)"/></g></g><path class="m" d="M-626.909,470.329s.059-1.468-2.016-.428c0,0-4.795,1.734-7.168,1.734a28.531,28.531,0,0,0,6.226-3.092s1.264-1.685-3.756-.107c0,0-3.392.993-7.079,1.852-.39.091-.783.18-1.176.267-1.505.332-3.006.622-4.3.8a10.327,10.327,0,0,0-2.751.741c-.058.025-.11.052-.166.078a5.734,5.734,0,0,0-3.108,2.894l-3.738,8.3c-3.423,6.348-5.873,10.647-5.873,10.647l-8.937-10.746c-8.936,0-14.365,8.346-14.365,8.346l.111,2.363c12.039,22.083,26.145,21.455,26.145,21.455,9.564-4.8,10.155-24.446,10.155-24.446a42.467,42.467,0,0,1,1.221-5.934l3.014-5.815s13.88-1.834,18.567-7.441C-625.9,471.79-624.952,470.267-626.909,470.329Z" transform="translate(762.512 -394.86)"/><path class="n" d="M-863.112,756.737" transform="translate(874.781 -577.123)"/><path class="o" d="M-775.518,686.018l4.8,26.884-65.695.591,2.179-21.9C-834.2,691.594-813.147,671.062-775.518,686.018Z" transform="translate(857.941 -529.078)"/><path class="p" d="M-710.078,718.042c4.505-13.552,0-22.821,0-22.821v-4.69l-1.034-1.994h5.465l.074,6.389s5.059,15.805-1.4,23.117" transform="translate(778.912 -534.108)"/><path class="p" d="M-682.512,705.037s-.111,7.9,6.462,10.524" transform="translate(760.873 -544.515)"/><path class="p" d="M-785.112,703.685s36.965.554,42.283-2.548" transform="translate(825.585 -542.055)"/><path class="q" d="M-799.153,310.437s-3.582,4.8-1.329,12.592l2.807-2.807a27.134,27.134,0,0,1,.3-3.767C-797.233,316.345-799.153,310.437-799.153,310.437Z" transform="translate(835.749 -295.633)"/><path class="r" d="M-760.9,336.515a.946.946,0,0,0-.369-.48,1.088,1.088,0,0,0-1.588.111,1.256,1.256,0,0,0-.258.554" transform="translate(811.709 -311.592)"/><path class="r" d="M-741,335.615a.945.945,0,0,0-.369-.48,1.088,1.088,0,0,0-1.588.111,1.255,1.255,0,0,0-.258.554" transform="translate(799.158 -311.024)"/><path class="s" d="M-770.858,330.674l4.321-1.219a.42.42,0,0,0,.259-.369l-.185-.591a.419.419,0,0,0-.369-.258l-4.321,1.219a.42.42,0,0,0-.259.369l.185.554A.28.28,0,0,0-770.858,330.674Z" transform="translate(816.944 -306.859)"/><path class="s" d="M-743.817,329.393l4.505.443a.389.389,0,0,0,.369-.3l.074-.591a.389.389,0,0,0-.3-.369l-4.505-.443a.389.389,0,0,0-.369.3l-.074.591A.335.335,0,0,0-743.817,329.393Z" transform="translate(799.726 -306.796)"/><path class="t" d="M-748.382,342.237l2.88,6.869-3.951.849-.258-7.607Z" transform="translate(803.257 -315.69)"/><path class="u" d="M-799.508,331.337s-3.656-.111-3.1,4.21C-802.573,335.546-802.2,331.964-799.508,331.337Z" transform="translate(836.657 -308.814)"/><path class="v" d="M-764.312,331.837" transform="translate(812.466 -309.13)"/><path class="v" d="M-754.612,331.337" transform="translate(806.348 -308.815)"/><path class="v" d="M-734.412,331.837" transform="translate(793.607 -309.13)"/><path class="v" d="M-742.112,331.237" transform="translate(798.464 -308.752)"/><path class="w" d="M-796.535,362.317l-1.477-.48v.369c.3.074.554.111.849.185A1.936,1.936,0,0,1-796.535,362.317Z" transform="translate(833.721 -328.052)"/><path class="w" d="M-799.712,355.137v.369h0Z" transform="translate(834.794 -323.826)"/><path class="w" d="M-799.338,355.359l.258.185,1.108-.369c-.185,0-.443.074-.591.074a5.913,5.913,0,0,1-.849-.111v.369C-799.412,355.359-799.338,355.359-799.338,355.359Z" transform="translate(834.604 -323.826)"/><path class="m" d="M-773.184,296.085l-21.64-2.548-2.917,13.331a1.53,1.53,0,0,0-.591-.074c-2.327-.074.369,1.994.3,4.69-.074,2.326-.443,3.36,1.477,3.84.3.074-2.253,1.145-1.957,1.145a1.531,1.531,0,0,0,.591-.074l-1.108.369,19.572,16.618c3.545-.665,5.281-5.428,6.389-8.863l.074-22.748v-.258Z" transform="translate(834.521 -284.973)"/><path class="w" d="M-799.712,355.848v.185l.443-.111-.258-.185S-799.6,355.737-799.712,355.848Z" transform="translate(834.793 -324.204)"/><path class="m" d="M-801.029,356.437s1.773,13.516-1.883,17.1l11.263,15.584,10.451,5.244a32.766,32.766,0,0,0,3.1-4.21c.554-1.034-2.622-13-2.622-13s-1.034-1.588,1.034-6.278l-11.263-7.792Z" transform="translate(836.812 -324.646)"/><ellipse class="x" cx="0.775" cy="0.997" rx="0.775" ry="0.997" transform="translate(51.515 24.258)"/><ellipse class="x" cx="0.775" cy="0.997" rx="0.775" ry="0.997" transform="translate(57.682 24.258)"/><line class="y" y1="0.443" x2="3.656" transform="translate(49.484 22.264)"/><line class="y" x1="2.88" y1="0.443" transform="translate(58.051 22.449)"/><path class="z" d="M-746.048,367.937l-3.767.3C-749.888,368.233-746.9,371.63-746.048,367.937Z" transform="translate(803.323 -331.899)"/><path class="b" d="M-796.912,399.4a6.832,6.832,0,0,0,.923-.665C-796.321,399-796.617,399.143-796.912,399.4Z" transform="translate(833.028 -351.325)"/><path class="aa" d="M-745.026,338.637v.48a3.032,3.032,0,0,0,.7,2.1c1.145,1.145,2.511,3.323-1.588,4.727" transform="translate(800.861 -313.419)"/><path class="o" d="M-731.121,361.008l.665-3.471.443,5.982-1.7-.259Z" transform="translate(791.904 -325.34)"/><g transform="translate(39.439 21.304)"><path class="ab" d="M-787.912,328.037l.074.3A.4.4,0,0,1-787.912,328.037Z" transform="translate(787.912 -328.037)"/></g><path class="w" d="M-800.8,329.037a3.025,3.025,0,0,0-1.108.258,8.914,8.914,0,0,0,.443,1.293,3.17,3.17,0,0,0,.96,1.329c.111.074.3.111.443.185v-2.844A1.013,1.013,0,0,0-800.8,329.037Z" transform="translate(836.181 -307.364)"/><path class="ac" d="M-770.412,335.537" transform="translate(816.313 -311.464)"/><g transform="translate(30.846 10.595)"><path class="x" d="M-801.481,301.549a5.156,5.156,0,0,0-.443,3.693,6.534,6.534,0,0,1,.3,1.145,7.551,7.551,0,0,1-.849,3.176,8.812,8.812,0,0,0-.443,2.733,8.708,8.708,0,0,1,0,1.7,1.374,1.374,0,0,1-1.108,1.145,1.849,1.849,0,0,0-1.293-1.773c-.739-.3-2.991.3-3.767.369.369-2.437,1.108-5.65-.554-7.533a5.717,5.717,0,0,1-1.477-2.179c-.369-1.588.96-2.991,2.179-4.025a2.619,2.619,0,0,1,2.179-.923,3.207,3.207,0,0,1,1.145.739,10.922,10.922,0,0,0,3.878,2.068" transform="translate(811.182 -299.039)"/></g><path class="ad" d="M-729.912,293.5l.554,12.223s2.622-3.4,3.878-4.025c1.292-.591,0-5.724,0-5.724l-2.548-2.548-.591-.591Z" transform="translate(790.769 -284.532)"/><g transform="translate(35.488)"><path class="x" d="M-795.325,285.964a19.253,19.253,0,0,0,9.195,2.363c4.321-.185,8.161-2.548,11.78-4.8a7.429,7.429,0,0,1,1.883-.923,2.307,2.307,0,0,1,1.957.48,2.307,2.307,0,0,1,.591,1.477,6.925,6.925,0,0,1-2.844,6.462c.074.591.111,1.219.259,1.883a5.5,5.5,0,0,0,1.588-.849,9.3,9.3,0,0,0,3.213-4.21,12.359,12.359,0,0,0,.111-8.161,32.489,32.489,0,0,0-3.582-7.5,4.437,4.437,0,0,0-1.034-1.293,3.305,3.305,0,0,0-3.36-.185,13.078,13.078,0,0,0-2.843,1.994,6.128,6.128,0,0,1-3.1,1.514,5.979,5.979,0,0,1-1.81-.111c-1.145-.185-2.363-.443-3.545-.665a9.432,9.432,0,0,0-2.253-.3,6.476,6.476,0,0,0-4.062,1.625,21.086,21.086,0,0,0-2.991,3.287c-.739.923-1.4,1.809-2.142,2.733a.993.993,0,0,0-.3.665.829.829,0,0,0,.3.554c1.108,1.477,2.253,2.917,3.36,4.321" transform="translate(798.612 -270.347)"/></g><path class="m" d="M-806.594,330.737c-1.4.665-3.656,1.7-3.287,5.1.3,2.659,1.957,4.505,3.877,4.505a3.111,3.111,0,0,0,.665-.111" transform="translate(841.233 -308.436)"/><path class="k" d="M-861.846,409.137-882.526,418a13.378,13.378,0,0,0-7.312,7.5c-1.957,4.911-4.21,13.442-4.875,27.253a104.016,104.016,0,0,1,21.64,3.4l11.189-45.791v-1.219Z" transform="translate(894.712 -357.885)"/><path class="k" d="M-784.1,441.8s-13.146-20.9-14.365-22.083c-1.219-1.219-20.384-10.672-20.384-10.672,2.179,1.92-2.326,13.036-2.326,13.036l-8.937-14.882c-7.644.443-12.112-5.465-12.112-5.465-7.792,2.363-22.489,31.13-22.489,31.13l11.374,88.184a10.538,10.538,0,0,1,2.659-2.363l.111-2.991,1.957,1.81c15.325-7.607,55.54-6.979,55.54-6.979v-1.219c-2.991-9.564-5.355-59.122-5.355-59.122C-792.444,441.176-784.1,441.8-784.1,441.8Z" transform="translate(875.79 -353.217)"/><path class="ae" d="M-745.512,427.441s3.434-9.971,10.3-6.536c0,0-2.326-7.312-9.306-8.567l.886,3.508C-743.592,415.882-742.41,417.433-745.512,427.441Z" transform="translate(800.609 -359.903)"/><path class="af" d="M-821.112,419.137c5.428,3.471,8.383,13.922,13.331,18.058" transform="translate(848.291 -364.192)"/><path class="ag" d="M-748.643,455.837a14.286,14.286,0,0,0-.554,9.9" transform="translate(803.333 -387.339)"/><circle class="a" cx="0.665" cy="0.665" r="0.665" transform="translate(43.76 55.425)"/><circle class="a" cx="0.665" cy="0.665" r="0.665" transform="translate(46.677 59.34)"/><circle class="a" cx="0.665" cy="0.665" r="0.665" transform="translate(49.373 63.697)"/><circle class="a" cx="0.665" cy="0.665" r="0.665" transform="translate(52.142 68.572)"/><path class="x" d="M-795.576,337.8s.143,5.48,4.095,6.994c0,0,13.183-3.767,18.353.739,0,0,2,14.83-9.818,14.165,0,0-16.174,1.292-16.654-22.083l-.111-2.659,4.062-1.219Z" transform="translate(834.793 -310.328)"/><path class="p" d="M-813.912,738.353V723.508s16.839,4.616,20.2-3.471" transform="translate(843.75 -553.976)"/><path class="p" d="M-813.912,726.883s20.754,3.951,21.234-8.346" transform="translate(843.75 -553.03)"/><path class="m" d="M-842.814,590.581l.332-.074c-1.034-.776-1.773-1.4-1.773-1.4-2.991-3.582-9.564-5.355-9.564-5.355l-1.219-.591c-11.928-7.792-21.824-28.4-21.824-28.4l3.471-25.222c-4.579-1.7-20.421-3.1-20.421-3.1l.591,31.019c2.363,10.155,25.665,29.875,25.665,29.875l2.991,4.21,1.292,3.028.258-.037,3.323,7.976c12.7,2.327,15.62-4.062,15.62-4.062l-1.772-4.616c9.86,7.533,9.86,1.145,9.86,1.145C-837.534,594.532-840.747,592.169-842.814,590.581Z" transform="translate(894.144 -431.868)"/><path class="aa" d="M-863.273,594.469l-1.292-3.028-2.991-4.21s-23.3-19.719-25.665-29.875l-.591-31.019" transform="translate(894.144 -431.805)"/><circle class="ah" cx="0.923" cy="0.923" r="0.923" transform="translate(69.685 157.967)"/><circle class="ah" cx="0.665" cy="0.665" r="0.665" transform="translate(29.284 166.8)"/><path class="ah" d="M-826.794,725.705v-.554a8.84,8.84,0,0,1-5.244-1.514l-.074.591A9.346,9.346,0,0,0-826.794,725.705Z" transform="translate(855.229 -556.246)"/><path class="ah" d="M-828.081,730.82l.074-.554a8.915,8.915,0,0,1-4.431-1.329l-.074.591A9.148,9.148,0,0,0-828.081,730.82Z" transform="translate(855.481 -559.589)"/><path class="ag" d="M-868.589,495.137l-1.588,7.533a14.5,14.5,0,0,1-.923,3.287l-.406.886-1.108,3.84s-4.21-2.068-21.9-3.656l.148-4.431c14.586.554,22.858,4.21,22.858,4.21" transform="translate(894.586 -412.127)"/><path class="aa" d="M-628.583,538.737s-5.465,5.059-3.656,11" transform="translate(729.397 -439.626)"/><path class="ag" d="M-684.812,512.428s7.164-9.121,14.771-7.976l-2.548-3.914a17.265,17.265,0,0,0-12.223,6.389" transform="translate(762.324 -415.532)"/><line class="af" x2="0.222" y2="18.907" transform="translate(77.29 80.204)"/><path class="ae" d="M-804.861,406.887s-6.979.48-7.238,7.5c0,0-5.835-6.573-10.414-7.792a15.141,15.141,0,0,1,7.349-5.355C-815.126,401.237-813.206,405.041-804.861,406.887Z" transform="translate(849.174 -352.902)"/><g transform="translate(39.203 7.666)"><path class="k" d="M-787.983,295.29c1.514-3.8,6.389-2.585,9.527-2.511,1.625.037,3.877.332,4.911-1.256.185-.3-.3-.591-.48-.3-.96,1.477-3.877,1.034-5.354.96a28.77,28.77,0,0,0-4.727-.148,5.139,5.139,0,0,0-4.432,3.1c-.111.332.443.48.554.148Z" transform="translate(788.552 -291.106)"/></g><g transform="translate(41.059 11.442)"><path class="k" d="M-783.151,303.512c1.625-1.4,4.284-1.219,6.315-1.256a20.289,20.289,0,0,0,4.505-.48c.3-.074.148-.48-.111-.443-3.287.775-8.272-.517-11,1.846-.222.185.074.517.3.332Z" transform="translate(783.525 -301.331)"/></g><path class="aa" d="M-547.291,479.035a25.7,25.7,0,0,0,7.3-4.138" transform="translate(675.586 -399.361)"/><g transform="translate(39.513 21.599)"><path class="ai" d="M-764.591,335.12a3.589,3.589,0,0,0,3.59,3.588,3.59,3.59,0,0,0,3.627-3.552,3.541,3.541,0,0,0-.061-.673h-7.1A3.9,3.9,0,0,0-764.591,335.12Z" transform="translate(773.129 -332.398)"/><path class="ai" d="M-742.2,334.483a3.924,3.924,0,0,0-.057.637,3.468,3.468,0,0,0,3.352,3.573,3.468,3.468,0,0,0,3.352-3.573,3.471,3.471,0,0,0-.058-.637Z" transform="translate(759.044 -332.398)"/><line class="ai" x2="5.677" transform="translate(13.678 2.085)"/><line class="ai" x1="8.749" y1="2.126"/></g><g transform="translate(48.555 34.565)"><g class="aj"><path class="ak" d="M91.613-341.544H73.092v-14.867H91.613Z" transform="translate(-78.032 351.471)"/></g><g class="al"><path class="a" d="M91.619-344.319H73.568v-12.091H91.619Z" transform="translate(-78.508 351.471)"/></g></g></g><path class="am" d="M403.373,30.168h0a7.566,7.566,0,0,0-6.227-6.227h0a7.566,7.566,0,0,0,6.227-6.227h0A7.566,7.566,0,0,0,409.6,23.94h0A7.566,7.566,0,0,0,403.373,30.168Z" transform="translate(-226.061 12.931)"/><path class="am" d="M401.218,25.859h0a4.948,4.948,0,0,0-4.073-4.073h0a4.948,4.948,0,0,0,4.073-4.073h0a4.948,4.948,0,0,0,4.073,4.073h0A4.948,4.948,0,0,0,401.218,25.859Z" transform="translate(-210.96 51.663)"/><path class="am" d="M401.18,25.783h0a4.9,4.9,0,0,0-4.035-4.035h0a4.9,4.9,0,0,0,4.035-4.035h0a4.9,4.9,0,0,0,4.035,4.035h0A4.9,4.9,0,0,0,401.18,25.783Z" transform="translate(-271.817 29.839)"/></g></g><path class="e" d="M0,0H211.187V1.595H0Z" transform="translate(91 1505.317)"/></g></svg>