<svg xmlns="http://www.w3.org/2000/svg" width="339.578" height="229.214" viewBox="0 0 339.578 229.214">
  <g id="Grupo_23075" data-name="Grupo 23075" transform="translate(2215.325 8718)">
    <g id="Grupo_23005" data-name="Grupo 23005" transform="translate(-2215.325 -8670.854)" style="mix-blend-mode: normal;isolation: isolate">
      <path id="Trazado_21351" data-name="Trazado 21351" d="M325.382,654.872c0-.807.4-1.2,1.131-1.2h.359a1.047,1.047,0,0,1,1.166,1.2v9.346a1.053,1.053,0,0,1-1.166,1.2h-.359c-.735,0-1.131-.412-1.131-1.2Z" transform="translate(-325.382 -652.181)" fill="#0855c4"/>
      <path id="Trazado_21352" data-name="Trazado 21352" d="M340.917,661.228v4.215c0,.914-.484,1.2-1.13,1.2h-.27c-.663,0-1.129-.268-1.129-1.2v-3.821c0-1.167-.593-1.884-1.615-1.884a2.114,2.114,0,0,0-1.919,1.148v4.557c0,.914-.467,1.2-1.113,1.2h-.269c-.682,0-1.148-.268-1.148-1.2v-7.427c0-.09.448-.287.951-.287a1.452,1.452,0,0,1,1.506,1.471,3.322,3.322,0,0,1,2.889-1.578C339.948,657.622,340.917,659.236,340.917,661.228Z" transform="translate(-327.535 -653.407)" fill="#0855c4"/>
      <path id="Trazado_21353" data-name="Trazado 21353" d="M346.285,658.506c-.036-.144.628-.754,1.381-.754.61,0,1.112.287,1.435,1.309l1.758,5.148,1.83-5.148c.323-1.022.844-1.309,1.381-1.309.771,0,1.418.61,1.363.754l-3.139,7.552a1.424,1.424,0,0,1-1.417.664c-.592,0-1.2-.126-1.417-.646Z" transform="translate(-331.863 -653.447)" fill="#0855c4"/>
      <path id="Trazado_21354" data-name="Trazado 21354" d="M364.734,657.622a4.167,4.167,0,0,1,4.36,4.377v.161c-.018.431-.144.664-.611.664H362.42l.055.287A2.43,2.43,0,0,0,364.986,665a2.61,2.61,0,0,0,2.457-1.274c.018-.037,1.238.071,1.238,1.075a1.712,1.712,0,0,1-.969,1.364,5.366,5.366,0,0,1-2.8.664,4.348,4.348,0,0,1-4.718-4.557A4.449,4.449,0,0,1,364.734,657.622Zm-.017,1.741a2.264,2.264,0,0,0-2.261,2.08h4.305A1.986,1.986,0,0,0,364.717,659.363Z" transform="translate(-336.177 -653.407)" fill="#0855c4"/>
      <path id="Trazado_21355" data-name="Trazado 21355" d="M381.388,659.093a1.309,1.309,0,0,1-.807,1.328,1.751,1.751,0,0,0-1.148-.43c-1.22,0-1.758,1.076-1.758,2.833v2.62c0,.914-.466,1.2-1.112,1.2h-.269c-.682,0-1.148-.268-1.148-1.2v-7.427c0-.09.431-.287.951-.287a1.4,1.4,0,0,1,1.381.951,4.024,4.024,0,0,1,.126.61,2.186,2.186,0,0,1,2.171-1.668A1.436,1.436,0,0,1,381.388,659.093Z" transform="translate(-340.813 -653.407)" fill="#0855c4"/>
      <path id="Trazado_21356" data-name="Trazado 21356" d="M384.9,664.852a1.111,1.111,0,0,1,.771-1,3.829,3.829,0,0,0,2.888,1.183c.987,0,1.525-.341,1.525-.9,0-.682-.7-.807-1.866-1.059-1.2-.251-3.068-.645-3.068-2.619,0-1.7,1.381-2.834,3.642-2.834,1.775,0,2.87.484,3.318,1.167a1.29,1.29,0,0,1,.215.718,1.26,1.26,0,0,1-.807,1.058,3.477,3.477,0,0,0-2.566-1.185c-.969,0-1.489.359-1.489.915,0,.628.682.754,1.866,1.023,1.238.268,3.211.663,3.211,2.637,0,1.758-1.4,2.816-3.857,2.816a5.761,5.761,0,0,1-3.014-.664A1.527,1.527,0,0,1,384.9,664.852Z" transform="translate(-343.836 -653.407)" fill="#0855c4"/>
      <path id="Trazado_21357" data-name="Trazado 21357" d="M399.391,652.11a1.314,1.314,0,1,1-1.417,1.309A1.266,1.266,0,0,1,399.391,652.11Zm-1.274,5.13c0-.915.484-1.22,1.13-1.22h.269c.664,0,1.13.287,1.13,1.22v6.494c0,.914-.466,1.2-1.13,1.2h-.251c-.682,0-1.148-.268-1.148-1.2Z" transform="translate(-347.892 -651.697)" fill="#0855c4"/>
      <path id="Trazado_21358" data-name="Trazado 21358" d="M408.714,655.727a4.6,4.6,0,1,1-4.682,4.575A4.407,4.407,0,0,1,408.714,655.727ZM408.7,657.7a2.627,2.627,0,1,0,2.422,2.638A2.439,2.439,0,0,0,408.7,657.7Zm-1.6-3.121c0-.556,1.22-3.067,2.709-3.067a.989.989,0,0,1,1.022,1.058c0,1.363-2.619,2.26-3.372,2.26C407.225,654.83,407.1,654.777,407.1,654.579Z" transform="translate(-349.77 -651.512)" fill="#0855c4"/>
      <path id="Trazado_21359" data-name="Trazado 21359" d="M428.224,661.228v4.215c0,.914-.484,1.2-1.13,1.2h-.269c-.664,0-1.13-.268-1.13-1.2v-3.821c0-1.167-.592-1.884-1.614-1.884a2.115,2.115,0,0,0-1.919,1.148v4.557c0,.914-.466,1.2-1.112,1.2h-.269c-.682,0-1.148-.268-1.148-1.2v-7.427c0-.09.448-.287.951-.287a1.452,1.452,0,0,1,1.507,1.471,3.321,3.321,0,0,1,2.888-1.578C427.256,657.622,428.224,659.236,428.224,661.228Z" transform="translate(-354.608 -653.407)" fill="#0855c4"/>
    </g>
    <g id="Grupo_23008" data-name="Grupo 23008" transform="translate(-2214.026 -8614.023)" style="mix-blend-mode: normal;isolation: isolate">
      <path id="Trazado_21384" data-name="Trazado 21384" d="M564.891,660.284v4.725a1.241,1.241,0,0,1-.845.241c-.569,0-1.12-.241-1.258-1.327a1.013,1.013,0,0,1-.035-.241,3.872,3.872,0,0,1-3.518,1.69c-3.156,0-5.259-2.415-5.259-5.76a5.6,5.6,0,0,1,5.88-5.828,5.873,5.873,0,0,1,3.173.793,2.082,2.082,0,0,1,1.138,1.655,1.316,1.316,0,0,1-1.327,1.207,3.463,3.463,0,0,0-2.862-1.465,3.422,3.422,0,0,0-3.414,3.724c0,2.208,1.276,3.725,3.259,3.725a2.535,2.535,0,0,0,2.724-1.862l.052-.552h-1.914c-.811,0-1.207-.224-1.207-.913v-.1c0-.724.4-.914,1.224-.914h3.138C564.632,659.078,564.891,659.492,564.891,660.284Z" transform="translate(-553.976 -652.922)" fill="#0855c4"/>
      <path id="Trazado_21385" data-name="Trazado 21385" d="M577.123,661.419h.276a1.054,1.054,0,0,0-.017-.241,1.489,1.489,0,0,0-1.708-1.518,2.108,2.108,0,0,0-2.069,1.225c-.017.034-1.569.154-1.569-.966a1.539,1.539,0,0,1,.517-1.1,4.532,4.532,0,0,1,3.276-.983c2.673,0,3.966,1.224,3.966,3.483v4.966c0,.121-.448.275-.914.275a1.255,1.255,0,0,1-1.276-.81,3.446,3.446,0,0,1-.138-.569,3.363,3.363,0,0,1-2.914,1.449c-1.759,0-2.828-.966-2.828-2.415C571.726,662.333,573.553,661.471,577.123,661.419Zm.276,1.225h-.466c-1.914.069-2.931.431-2.931,1.38,0,.637.5,1.034,1.31,1.034a1.9,1.9,0,0,0,2.087-1.81Z" transform="translate(-559.48 -654.177)" fill="#0855c4"/>
      <path id="Trazado_21386" data-name="Trazado 21386" d="M594.21,661.3v4.052c0,.88-.465,1.155-1.086,1.155h-.259c-.638,0-1.087-.259-1.087-1.155v-3.673c0-1.12-.569-1.81-1.552-1.81a2.033,2.033,0,0,0-1.845,1.1v4.38c0,.88-.448,1.155-1.069,1.155h-.259c-.655,0-1.1-.259-1.1-1.155v-7.139c0-.086.431-.277.914-.277a1.4,1.4,0,0,1,1.449,1.414,3.188,3.188,0,0,1,2.776-1.517C593.279,657.833,594.21,659.384,594.21,661.3Z" transform="translate(-563.891 -654.177)" fill="#0855c4"/>
      <path id="Trazado_21387" data-name="Trazado 21387" d="M605.222,661.419h.276a1.046,1.046,0,0,0-.017-.241,1.489,1.489,0,0,0-1.707-1.518,2.108,2.108,0,0,0-2.069,1.225c-.017.034-1.569.154-1.569-.966a1.536,1.536,0,0,1,.517-1.1,4.532,4.532,0,0,1,3.276-.983c2.673,0,3.966,1.224,3.966,3.483v4.966c0,.121-.448.275-.914.275a1.255,1.255,0,0,1-1.276-.81,3.441,3.441,0,0,1-.138-.569,3.362,3.362,0,0,1-2.914,1.449c-1.759,0-2.828-.966-2.828-2.415C599.825,662.333,601.652,661.471,605.222,661.419Zm.276,1.225h-.466c-1.914.069-2.931.431-2.931,1.38,0,.637.5,1.034,1.31,1.034a1.9,1.9,0,0,0,2.087-1.81Z" transform="translate(-568.193 -654.177)" fill="#0855c4"/>
      <path id="Trazado_21388" data-name="Trazado 21388" d="M622.31,661.3v4.052c0,.88-.466,1.155-1.087,1.155h-.259c-.638,0-1.086-.259-1.086-1.155v-3.673c0-1.12-.569-1.81-1.552-1.81a2.032,2.032,0,0,0-1.845,1.1v4.38c0,.88-.448,1.155-1.069,1.155h-.259c-.655,0-1.1-.259-1.1-1.155v-7.139c0-.086.431-.277.914-.277a1.4,1.4,0,0,1,1.448,1.414,3.19,3.19,0,0,1,2.776-1.517C621.378,657.833,622.31,659.384,622.31,661.3Z" transform="translate(-572.604 -654.177)" fill="#0855c4"/>
      <path id="Trazado_21389" data-name="Trazado 21389" d="M632.321,657.833a4.263,4.263,0,0,1,2.759.845,2.027,2.027,0,0,1,.828,1.448c0,.983-1.311,1.172-1.363,1.069a2.074,2.074,0,0,0-2.121-1.4,2.465,2.465,0,0,0,0,4.915,2.1,2.1,0,0,0,2.121-1.4c.052-.1,1.363.034,1.363,1.086a1.943,1.943,0,0,1-.845,1.414,4.183,4.183,0,0,1-2.742.862,4.423,4.423,0,0,1,0-8.845Z" transform="translate(-576.906 -654.177)" fill="#0855c4"/>
      <path id="Trazado_21390" data-name="Trazado 21390" d="M642.637,652.534a1.263,1.263,0,1,1-1.363,1.258A1.216,1.216,0,0,1,642.637,652.534Zm-1.224,4.932c0-.88.465-1.173,1.086-1.173h.259c.638,0,1.087.277,1.087,1.173v6.242c0,.88-.448,1.155-1.087,1.155h-.242c-.655,0-1.1-.259-1.1-1.155Z" transform="translate(-581.046 -652.534)" fill="#0855c4"/>
      <path id="Trazado_21391" data-name="Trazado 21391" d="M652.5,661.419h.276a1.054,1.054,0,0,0-.017-.241,1.488,1.488,0,0,0-1.707-1.518,2.107,2.107,0,0,0-2.069,1.225c-.017.034-1.57.154-1.57-.966a1.537,1.537,0,0,1,.517-1.1,4.531,4.531,0,0,1,3.276-.983c2.673,0,3.966,1.224,3.966,3.483v4.966c0,.121-.448.275-.913.275a1.256,1.256,0,0,1-1.276-.81,3.454,3.454,0,0,1-.138-.569,3.362,3.362,0,0,1-2.914,1.449c-1.759,0-2.828-.966-2.828-2.415C647.1,662.333,648.927,661.471,652.5,661.419Zm.276,1.225h-.466c-1.914.069-2.931.431-2.931,1.38,0,.637.5,1.034,1.311,1.034a1.9,1.9,0,0,0,2.086-1.81Z" transform="translate(-582.852 -654.177)" fill="#0855c4"/>
    </g>
    <g id="Grupo_23009" data-name="Grupo 23009" transform="translate(-2181.566 -8558.108)" style="mix-blend-mode: normal;isolation: isolate">
      <path id="Trazado_21392" data-name="Trazado 21392" d="M808.908,656.088h-2.619c-.789,0-1.22-.395-1.22-1.13v-.09c0-.717.43-1.094,1.22-1.094h7.839c.807,0,1.22.377,1.22,1.094v.09c0,.735-.412,1.13-1.22,1.13h-2.565v8.162a1.074,1.074,0,0,1-1.184,1.2H810c-.718,0-1.094-.412-1.094-1.2Z" transform="translate(-805.069 -652.913)" fill="#0855c4"/>
      <path id="Trazado_21393" data-name="Trazado 21393" d="M823.661,657.622a4.6,4.6,0,1,1-4.682,4.575A4.407,4.407,0,0,1,823.661,657.622Zm-.018,1.973a2.627,2.627,0,1,0,2.422,2.638A2.44,2.44,0,0,0,823.643,659.6Z" transform="translate(-809.382 -654.106)" fill="#0855c4"/>
      <path id="Trazado_21394" data-name="Trazado 21394" d="M835.028,662.852v-4.018h-.448c-.718,0-1.04-.324-1.04-.9v-.143c0-.593.323-.933,1.022-.933h.466v-1.112c0-.824.413-1.22,1.13-1.22h.233c.664,0,1.112.287,1.112,1.22v1.112h1.525c.718,0,1.022.306,1.022.88v.161c0,.61-.323.933-1.04.933h-1.543v3.731c0,.861.269,1.292.969,1.292a1.283,1.283,0,0,0,1.094-.593.994.994,0,0,1,.628.986,1.279,1.279,0,0,1-.43.969,2.612,2.612,0,0,1-1.883.646C835.925,665.865,835.028,664.843,835.028,662.852Z" transform="translate(-813.897 -653.147)" fill="#0855c4"/>
      <path id="Trazado_21395" data-name="Trazado 21395" d="M849.916,661.353h.287a1.147,1.147,0,0,0-.017-.251,1.549,1.549,0,0,0-1.777-1.579,2.194,2.194,0,0,0-2.152,1.274c-.018.035-1.632.161-1.632-1a1.6,1.6,0,0,1,.537-1.149,4.718,4.718,0,0,1,3.408-1.022c2.781,0,4.126,1.273,4.126,3.623v5.166c0,.126-.466.287-.951.287a1.307,1.307,0,0,1-1.328-.842,3.751,3.751,0,0,1-.143-.593,3.5,3.5,0,0,1-3.031,1.507c-1.83,0-2.942-1-2.942-2.512C844.3,662.3,846.2,661.407,849.916,661.353Zm.287,1.274h-.484c-1.99.072-3.049.448-3.049,1.435,0,.664.52,1.077,1.363,1.077a1.974,1.974,0,0,0,2.17-1.884Z" transform="translate(-817.234 -654.106)" fill="#0855c4"/>
      <path id="Trazado_21396" data-name="Trazado 21396" d="M859.174,663.863v-11.05a1.4,1.4,0,0,1,.951-.287c.754,0,1.579.395,1.579,2.027v9.31c0,.914-.466,1.2-1.111,1.2h-.27C859.658,665.064,859.174,664.8,859.174,663.863Z" transform="translate(-821.846 -652.526)" fill="#0855c4"/>
    </g>
    <g id="Grupo_23012" data-name="Grupo 23012" transform="translate(-2134.831 -8691.513)">
      <rect id="Rectángulo_5869" data-name="Rectángulo 5869" width="124.647" height="49.859" fill="#ededed"/>
    </g>
    <g id="S_38400" data-name="S 38400" transform="translate(-2118.471 -8674.374)">
      <g id="Grupo_23013" data-name="Grupo 23013" style="mix-blend-mode: normal;isolation: isolate">
        <path id="Trazado_21440" data-name="Trazado 21440" d="M328.6,738.023a1.509,1.509,0,0,1,1.083-1.268,5.408,5.408,0,0,0,4.494,2.282c2.074,0,3.25-.853,3.25-2.328,0-1.682-1.751-2.074-3.734-2.535-2.3-.53-4.7-1.336-4.7-4.355,0-2.536,2.19-4.334,5.37-4.334a6.744,6.744,0,0,1,4.218,1.223,1.969,1.969,0,0,1,.9,1.427,1.565,1.565,0,0,1-1.106,1.314,4.889,4.889,0,0,0-3.987-2c-1.866,0-3.088.9-3.088,2.281,0,1.637,1.452,1.89,3.526,2.375,2.535.575,4.978,1.567,4.978,4.447,0,2.743-2.121,4.449-5.6,4.449a7.128,7.128,0,0,1-4.84-1.545A2.1,2.1,0,0,1,328.6,738.023Z" transform="translate(-328.601 -725.485)" fill="#454a6c"/>
        <path id="Trazado_21441" data-name="Trazado 21441" d="M341.75,744.3a3.549,3.549,0,0,1,.184-.922l5.486-17.655a.887.887,0,0,1,.461-.091c.484,0,1.267.115,1.267,1.06a3.75,3.75,0,0,1-.184.922L343.5,745.272c0,.045-.231.091-.461.091C342.534,745.363,341.75,745.225,341.75,744.3Z" transform="translate(-329.625 -725.497)" fill="#454a6c"/>
        <path id="Trazado_21442" data-name="Trazado 21442" d="M356.157,739.82a2.925,2.925,0,0,1-1.382-2.165,1.23,1.23,0,0,1,1.382-1.223,4.013,4.013,0,0,0,4.1,2.628c2.12,0,3.457-1.014,3.457-2.628,0-1.728-1.176-2.627-3.412-2.627h-1.06c-.83,0-1.13-.345-1.13-.853v-.137c0-.622.369-.853,1.084-.853h1.382c1.821,0,2.789-.853,2.789-2.258,0-1.429-1.176-2.305-3.135-2.305a3.726,3.726,0,0,0-3.64,2.259,1.244,1.244,0,0,1-1.383-1.177A2.707,2.707,0,0,1,356.6,726.5a6.7,6.7,0,0,1,3.664-1.014c3.434,0,5.416,1.475,5.416,4.033a3.124,3.124,0,0,1-2.535,3.181,3.87,3.87,0,0,1,2.9,3.826c0,2.788-2.144,4.471-5.784,4.471A6.942,6.942,0,0,1,356.157,739.82Z" transform="translate(-330.64 -725.485)" fill="#454a6c"/>
        <path id="Trazado_21443" data-name="Trazado 21443" d="M368.95,736.733a3.84,3.84,0,0,1,3.019-3.711,3.357,3.357,0,0,1-2.581-3.364c0-2.467,2.143-4.173,5.439-4.173,3.342,0,5.369,1.614,5.369,4.126A3.431,3.431,0,0,1,377.639,733a3.761,3.761,0,0,1,3.018,3.734c0,2.489-2.327,4.24-5.854,4.24C371.162,740.973,368.95,739.313,368.95,736.733Zm9.38-.185c0-1.59-1.313-2.65-3.526-2.65-2.235,0-3.526,1.037-3.526,2.65,0,1.521,1.314,2.6,3.549,2.6C377.131,739.152,378.33,738.161,378.33,736.547Zm-.392-6.753c0-1.474-1.129-2.489-3.134-2.489-2.074,0-3.134.968-3.134,2.489,0,1.429,1.176,2.4,3.157,2.4S377.938,731.293,377.938,729.795Z" transform="translate(-331.744 -725.485)" fill="#454a6c"/>
        <path id="Trazado_21444" data-name="Trazado 21444" d="M390.984,739.744v-3.02h-6.108c-.9,0-1.452-.461-1.452-1.106v-.507a2.452,2.452,0,0,1,.669-1.474l5.324-6.892a1.963,1.963,0,0,1,2.028-1.06c1.291,0,1.775.437,1.775,1.544v7.559h1.636c.715,0,1.037.3,1.037.922v.115c0,.622-.323.9-1.037.9H393.22v3.02c0,.714-.323,1.083-1.014,1.083h-.254A.977.977,0,0,1,390.984,739.744Zm.091-4.909v-7.214l-5.508,7.214Z" transform="translate(-324.779 -725.5)" fill="#454a6c"/>
        <path id="Trazado_21445" data-name="Trazado 21445" d="M398.649,734.012v-1.521c0-4.31,2.374-7.007,6.2-7.007,3.872,0,6.222,2.674,6.222,6.984v1.5c0,4.309-2.374,7.029-6.222,7.029C400.977,741,398.649,738.323,398.649,734.012Zm10.049.07v-1.66c0-3.135-1.429-4.979-3.849-4.979s-3.8,1.8-3.8,4.932v1.682c0,3.135,1.405,4.932,3.8,4.932C407.315,738.991,408.7,737.216,408.7,734.083Z" transform="translate(-325.965 -725.485)" fill="#454a6c"/>
        <path id="Trazado_21446" data-name="Trazado 21446" d="M414.524,734.012v-1.521c0-4.31,2.373-7.007,6.2-7.007,3.872,0,6.223,2.674,6.223,6.984v1.5c0,4.309-2.374,7.029-6.223,7.029C416.851,741,414.524,738.323,414.524,734.012Zm10.048.07v-1.66c0-3.135-1.428-4.979-3.849-4.979s-3.8,1.8-3.8,4.932v1.682c0,3.135,1.406,4.932,3.8,4.932C423.19,738.991,424.572,737.216,424.572,734.083Z" transform="translate(-327.202 -725.485)" fill="#454a6c"/>
        <path id="Trazado_22298" data-name="Trazado 22298" d="M1.081,48.657c-.242.907,1.118,1.209,1.511.695L5.1,45.484A2.807,2.807,0,0,0,5.8,43.671V43.52c0-.937-.514-1.42-1.269-1.42H4.254c-1.027,0-1.269.483-1.541,1.42Z" transform="translate(49.785 -31.524)" fill="#454a6c"/>
      </g>
    </g>
    <g id="Grupo_23014" data-name="Grupo 23014" transform="translate(-2134.831 -8634.096)">
      <rect id="Rectángulo_5870" data-name="Rectángulo 5870" width="124.647" height="49.859" fill="#ededed"/>
    </g>
    <g id="S_38400-2" data-name="S 38400" transform="translate(-2111.459 -8616.957)">
      <g id="Grupo_23015" data-name="Grupo 23015" style="mix-blend-mode: normal;isolation: isolate">
        <path id="Trazado_21447" data-name="Trazado 21447" d="M564.7,738.023a1.51,1.51,0,0,1,1.084-1.268,5.406,5.406,0,0,0,4.494,2.282c2.074,0,3.25-.853,3.25-2.328,0-1.682-1.751-2.074-3.734-2.535-2.3-.53-4.7-1.336-4.7-4.355,0-2.536,2.19-4.334,5.37-4.334a6.741,6.741,0,0,1,4.217,1.223,1.967,1.967,0,0,1,.9,1.427,1.565,1.565,0,0,1-1.106,1.314,4.889,4.889,0,0,0-3.987-2c-1.867,0-3.088.9-3.088,2.281,0,1.637,1.451,1.89,3.526,2.375,2.535.575,4.979,1.567,4.979,4.447,0,2.743-2.121,4.449-5.6,4.449a7.126,7.126,0,0,1-4.84-1.545A2.105,2.105,0,0,1,564.7,738.023Z" transform="translate(-564.7 -725.485)" fill="#454a6c"/>
        <path id="Trazado_21448" data-name="Trazado 21448" d="M577.851,744.3a3.544,3.544,0,0,1,.183-.922l5.486-17.655a.887.887,0,0,1,.461-.091c.483,0,1.267.115,1.267,1.06a3.75,3.75,0,0,1-.184.922L579.6,745.272c0,.045-.23.091-.461.091C578.634,745.363,577.851,745.225,577.851,744.3Z" transform="translate(-565.724 -725.497)" fill="#454a6c"/>
        <path id="Trazado_21449" data-name="Trazado 21449" d="M590.112,739.744V729.051a2.174,2.174,0,0,1-1.543.622,2.117,2.117,0,0,1-1.338-.439,1.5,1.5,0,0,1-.506-1.152,1.225,1.225,0,0,1,.668-1.176,1.876,1.876,0,0,0,1.36.53,1.9,1.9,0,0,0,1.866-1.751h.807c.692,0,1.037.368,1.037,1.083v12.976c0,.714-.346,1.083-1.037,1.083h-.3C590.458,740.827,590.112,740.458,590.112,739.744Z" transform="translate(-566.415 -725.5)" fill="#454a6c"/>
        <path id="Trazado_21450" data-name="Trazado 21450" d="M597.955,740.146a2.134,2.134,0,0,1-1.2-1.683,1.266,1.266,0,0,1,.99-1.2,4.348,4.348,0,0,0,3.641,1.8c2.581,0,3.941-1.36,4.126-4.287a7.6,7.6,0,0,0,0-1.036,6.306,6.306,0,0,1-4.217,1.613c-3.066,0-5.048-1.683-5.048-4.494v-.092a5.263,5.263,0,0,1,5.531-5.254c3.78,0,6.085,2.558,6.085,6.868v1.591c0,4.632-2.259,7.029-6.385,7.029A6.5,6.5,0,0,1,597.955,740.146Zm7.513-8.274c0-.138-.023-.278-.023-.415-.208-2.558-1.428-4.08-3.6-4.08a3.183,3.183,0,0,0-3.319,3.2v.115c0,1.844,1.153,2.882,3.25,2.882A5.16,5.16,0,0,0,605.468,731.872Z" transform="translate(-561.157 -725.487)" fill="#454a6c"/>
        <path id="Trazado_21451" data-name="Trazado 21451" d="M611,739.406v-.576c0-3.065,2.373-4.425,4.61-5.532,1.959-.968,3.711-1.706,3.711-3.319,0-1.544-1.129-2.466-3.042-2.466a3.535,3.535,0,0,0-3.642,2.858c0,.069-1.567.092-1.567-1.153a3.345,3.345,0,0,1,1.36-2.443,6.256,6.256,0,0,1,4.009-1.291c3.25,0,5.21,1.683,5.21,4.449,0,2.673-2.121,3.733-4.379,4.77-1.959.876-3.572,1.706-3.964,3.3a3.042,3.042,0,0,0-.093.668h7.56c.783,0,1.129.323,1.129.922v.138c0,.622-.346.967-1.129.967h-8.3C611.438,740.7,611,740.35,611,739.406Z" transform="translate(-562.306 -725.485)" fill="#454a6c"/>
        <path id="Trazado_21452" data-name="Trazado 21452" d="M624.624,734.012v-1.521c0-4.31,2.373-7.007,6.2-7.007,3.872,0,6.222,2.674,6.222,6.984v1.5c0,4.309-2.375,7.029-6.222,7.029C626.951,741,624.624,738.323,624.624,734.012Zm10.048.07v-1.66c0-3.135-1.428-4.979-3.848-4.979s-3.8,1.8-3.8,4.932v1.682c0,3.135,1.405,4.932,3.8,4.932C633.289,738.991,634.672,737.216,634.672,734.083Z" transform="translate(-563.367 -725.485)" fill="#454a6c"/>
        <path id="Trazado_21453" data-name="Trazado 21453" d="M641.345,733.069c-.323-.184-.416-.46-.139-.967l1.2-1.959-2.074-.875c-.53-.23-.576-.439-.461-.853l.022-.092c.115-.369.324-.507.877-.416l2.235.554.184-2.236c.069-.6.277-.714.668-.714h.092c.368,0,.6.115.668.714l.139,2.236,2.235-.554c.553-.091.784.07.9.416l.023.092c.115.414.069.622-.461.853l-2.12.875,1.221,1.959c.3.507.161.76-.138.967l-.07.047c-.276.207-.553.253-.945-.184l-1.521-1.775-1.5,1.775c-.416.437-.646.391-.968.184Z" transform="translate(-564.551 -725.487)" fill="#454a6c"/>
      </g>
      <path id="Trazado_22306" data-name="Trazado 22306" d="M1.081,48.657c-.242.907,1.118,1.209,1.511.695L5.1,45.484A2.807,2.807,0,0,0,5.8,43.671V43.52c0-.937-.514-1.42-1.269-1.42H4.254c-1.027,0-1.269.483-1.541,1.42Z" transform="translate(26.774 -32.166)" fill="#454a6c"/>
    </g>
    <g id="Grupo_23016" data-name="Grupo 23016" transform="translate(-2134.831 -8576.679)">
      <rect id="Rectángulo_5871" data-name="Rectángulo 5871" width="124.647" height="49.859" fill="#ededed"/>
    </g>
    <g id="S_38400-3" data-name="S 38400" transform="translate(-2115.355 -8559.54)">
      <g id="Grupo_23017" data-name="Grupo 23017" style="mix-blend-mode: normal;isolation: isolate">
        <path id="Trazado_21454" data-name="Trazado 21454" d="M792.7,738.023a1.51,1.51,0,0,1,1.083-1.268,5.406,5.406,0,0,0,4.494,2.282c2.074,0,3.25-.853,3.25-2.328,0-1.682-1.751-2.074-3.734-2.535-2.3-.53-4.7-1.336-4.7-4.355,0-2.536,2.19-4.334,5.37-4.334a6.741,6.741,0,0,1,4.217,1.223,1.968,1.968,0,0,1,.9,1.427,1.565,1.565,0,0,1-1.106,1.314,4.888,4.888,0,0,0-3.987-2c-1.867,0-3.088.9-3.088,2.281,0,1.637,1.451,1.89,3.526,2.375,2.535.575,4.979,1.567,4.979,4.447,0,2.743-2.121,4.449-5.6,4.449a7.126,7.126,0,0,1-4.84-1.545A2.1,2.1,0,0,1,792.7,738.023Z" transform="translate(-792.7 -725.485)" fill="#454a6c"/>
        <path id="Trazado_21455" data-name="Trazado 21455" d="M805.851,744.3a3.542,3.542,0,0,1,.183-.922l5.486-17.655a.887.887,0,0,1,.461-.091c.483,0,1.267.115,1.267,1.06a3.755,3.755,0,0,1-.184.922L807.6,745.272c0,.045-.23.091-.461.091C806.634,745.363,805.851,745.225,805.851,744.3Z" transform="translate(-793.724 -725.497)" fill="#454a6c"/>
        <path id="Trazado_21456" data-name="Trazado 21456" d="M822.109,739.744v-3.02H816c-.9,0-1.452-.461-1.452-1.106v-.507a2.452,2.452,0,0,1,.669-1.474l5.324-6.892a1.962,1.962,0,0,1,2.028-1.06c1.29,0,1.775.437,1.775,1.544v7.559h1.636c.714,0,1.037.3,1.037.922v.115c0,.622-.323.9-1.037.9h-1.636v3.02c0,.714-.324,1.083-1.014,1.083h-.254A.978.978,0,0,1,822.109,739.744Zm.092-4.909v-7.214l-5.508,7.214Z" transform="translate(-794.402 -725.5)" fill="#454a6c"/>
        <path id="Trazado_21457" data-name="Trazado 21457" d="M829.774,734.012v-1.521c0-4.31,2.375-7.007,6.2-7.007,3.872,0,6.222,2.674,6.222,6.984v1.5c0,4.309-2.374,7.029-6.222,7.029C832.1,741,829.774,738.323,829.774,734.012Zm10.049.07v-1.66c0-3.135-1.429-4.979-3.849-4.979s-3.8,1.8-3.8,4.932v1.682c0,3.135,1.405,4.932,3.8,4.932C838.44,738.991,839.823,737.216,839.823,734.083Z" transform="translate(-795.588 -725.485)" fill="#454a6c"/>
        <path id="Trazado_21458" data-name="Trazado 21458" d="M846.233,739.82a2.924,2.924,0,0,1-1.383-2.165,1.229,1.229,0,0,1,1.383-1.223,4.011,4.011,0,0,0,4.1,2.628c2.12,0,3.457-1.014,3.457-2.628,0-1.728-1.177-2.627-3.411-2.627H849.32c-.829,0-1.129-.345-1.129-.853v-.137c0-.622.369-.853,1.083-.853h1.383c1.821,0,2.789-.853,2.789-2.258,0-1.429-1.177-2.305-3.135-2.305a3.728,3.728,0,0,0-3.641,2.259,1.244,1.244,0,0,1-1.382-1.177,2.707,2.707,0,0,1,1.382-1.982,6.706,6.706,0,0,1,3.665-1.014c3.433,0,5.416,1.475,5.416,4.033a3.124,3.124,0,0,1-2.535,3.181,3.87,3.87,0,0,1,2.9,3.826c0,2.788-2.144,4.471-5.784,4.471A6.939,6.939,0,0,1,846.233,739.82Z" transform="translate(-788.762 -725.485)" fill="#454a6c"/>
        <path id="Trazado_21459" data-name="Trazado 21459" d="M859.05,739.406v-.576c0-3.065,2.373-4.425,4.61-5.532,1.959-.968,3.71-1.706,3.71-3.319,0-1.544-1.129-2.466-3.042-2.466a3.533,3.533,0,0,0-3.641,2.858c0,.069-1.567.092-1.567-1.153a3.342,3.342,0,0,1,1.36-2.443,6.256,6.256,0,0,1,4.009-1.291c3.25,0,5.209,1.683,5.209,4.449,0,2.673-2.121,3.733-4.379,4.77-1.959.876-3.572,1.706-3.964,3.3a3.1,3.1,0,0,0-.092.668h7.559c.784,0,1.13.323,1.13.922v.138c0,.622-.346.967-1.13.967h-8.3C859.487,740.7,859.05,740.35,859.05,739.406Z" transform="translate(-789.868 -725.485)" fill="#454a6c"/>
        <path id="Trazado_21460" data-name="Trazado 21460" d="M872.674,734.012v-1.521c0-4.31,2.374-7.007,6.2-7.007,3.873,0,6.223,2.674,6.223,6.984v1.5c0,4.309-2.374,7.029-6.223,7.029C875,741,872.674,738.323,872.674,734.012Zm10.048.07v-1.66c0-3.135-1.429-4.979-3.849-4.979s-3.8,1.8-3.8,4.932v1.682c0,3.135,1.406,4.932,3.8,4.932C881.339,738.991,882.722,737.216,882.722,734.083Z" transform="translate(-790.929 -725.485)" fill="#454a6c"/>
        <path id="Trazado_22307" data-name="Trazado 22307" d="M1.081,48.657c-.242.907,1.118,1.209,1.511.695L5.1,45.484A2.807,2.807,0,0,0,5.8,43.671V43.52c0-.937-.514-1.42-1.269-1.42H4.254c-1.027,0-1.269.483-1.541,1.42Z" transform="translate(47.125 -30.639)" fill="#454a6c"/>
      </g>
    </g>
    <g id="Grupo_23018" data-name="Grupo 23018" transform="translate(-2002.394 -8691.513)">
      <rect id="Rectángulo_5872" data-name="Rectángulo 5872" width="124.647" height="49.859" fill="#e2f7ff"/>
    </g>
    <g id="S_38400-4" data-name="S 38400" transform="translate(-1986.813 -8672.815)">
      <g id="Grupo_23019" data-name="Grupo 23019" style="mix-blend-mode: normal;isolation: isolate">
        <path id="Trazado_21461" data-name="Trazado 21461" d="M328.451,832c0-.946,1.175-1.8,1.29-1.684a6.077,6.077,0,0,0,4.425,2.006c1.775,0,2.72-.646,2.72-1.8,0-1.337-1.5-1.614-3.25-2.005-2.374-.53-4.816-1.405-4.816-4.47,0-2.766,2.212-4.587,5.807-4.587a7.321,7.321,0,0,1,4.287,1.106,2.046,2.046,0,0,1,1.036,1.637,2.208,2.208,0,0,1-1.336,1.774,5.339,5.339,0,0,0-3.964-1.82c-1.614,0-2.581.668-2.581,1.751,0,1.291,1.336,1.475,3.18,1.89,2.7.6,5.047,1.706,5.047,4.516,0,2.974-2.189,4.7-6.107,4.7a7.491,7.491,0,0,1-4.817-1.36A2.133,2.133,0,0,1,328.451,832Z" transform="translate(-328.451 -819.438)" fill="#0855c4"/>
        <path id="Trazado_21462" data-name="Trazado 21462" d="M341.925,838.229a3.844,3.844,0,0,1,.184-.968l5.532-17.585a1.347,1.347,0,0,1,.692-.115c.669,0,1.659.16,1.659,1.29a4.019,4.019,0,0,1-.183.968L344.3,839.4a1.5,1.5,0,0,1-.692.115C342.916,839.519,341.925,839.312,341.925,838.229Z" transform="translate(-329.5 -819.446)" fill="#0855c4"/>
        <path id="Trazado_21463" data-name="Trazado 21463" d="M357.048,833.887a2.938,2.938,0,0,1-1.5-2.281,1.68,1.68,0,0,1,2.006-1.613,3.543,3.543,0,0,0,3.688,2.374c1.8,0,2.927-.807,2.927-2.121,0-1.359-.9-2.05-2.651-2.05h-.783c-1.13,0-1.568-.416-1.568-1.153v-.185c0-.807.507-1.153,1.521-1.153H361.8c1.383,0,2.121-.668,2.121-1.751,0-1.152-1.014-1.866-2.719-1.866a3.275,3.275,0,0,0-3.319,2.143,1.658,1.658,0,0,1-1.96-1.591,2.748,2.748,0,0,1,1.451-2.165,7.174,7.174,0,0,1,3.9-1.014c3.757,0,5.854,1.475,5.854,4.1a3.127,3.127,0,0,1-2.6,3.111,3.839,3.839,0,0,1,2.9,3.781c0,2.881-2.235,4.563-6.153,4.563A7.41,7.41,0,0,1,357.048,833.887Z" transform="translate(-330.562 -819.438)" fill="#0855c4"/>
        <path id="Trazado_21464" data-name="Trazado 21464" d="M370,830.659c0-1.751,1.014-3.019,3.042-3.617a3.314,3.314,0,0,1-2.6-3.342c0-2.536,2.3-4.264,5.784-4.264,3.526,0,5.693,1.659,5.693,4.218A3.344,3.344,0,0,1,379.357,827c2.052.6,3.042,1.889,3.042,3.664,0,2.582-2.42,4.31-6.222,4.31C372.3,834.969,370,833.333,370,830.659Zm9.1-.368c0-1.36-1.107-2.259-2.9-2.259-1.82,0-2.9.876-2.9,2.259,0,1.313,1.106,2.235,2.927,2.235C378.067,832.526,379.1,831.673,379.1,830.291Zm-.3-6.27c0-1.244-.967-2.121-2.6-2.121-1.659,0-2.581.853-2.581,2.121,0,1.222.991,2.075,2.6,2.075C377.813,826.1,378.8,825.29,378.8,824.021Z" transform="translate(-331.687 -819.436)" fill="#0855c4"/>
        <path id="Trazado_21465" data-name="Trazado 21465" d="M392.223,833.3v-2.258h-5.508c-1.176,0-1.89-.6-1.89-1.452v-.553a3.1,3.1,0,0,1,.715-1.775l4.563-6.338c.669-1.059,1.106-1.29,2.789-1.29,1.751,0,2.466.576,2.466,2.212v6.637h1.13c1.037,0,1.451.369,1.451,1.222v.115c0,.876-.414,1.222-1.451,1.222h-1.13V833.3c0,1.014-.461,1.567-1.428,1.567h-.323C392.707,834.869,392.223,834.271,392.223,833.3Zm.138-4.748V822.1l-4.61,6.453Z" transform="translate(-325.842 -819.451)" fill="#0855c4"/>
        <path id="Trazado_21466" data-name="Trazado 21466" d="M400.4,827.988v-1.475c0-4.309,2.466-7.051,6.522-7.051s6.5,2.719,6.5,7.029v1.451c0,4.333-2.443,7.075-6.5,7.075C402.843,835.017,400.4,832.3,400.4,827.988Zm9.634.208v-1.914c0-2.626-1.13-4.079-3.112-4.079-2.028,0-3.088,1.405-3.088,4.033v1.96c0,2.6,1.083,4.032,3.088,4.032C408.951,832.228,410.034,830.822,410.034,828.2Z" transform="translate(-327.055 -819.438)" fill="#0855c4"/>
        <path id="Trazado_21467" data-name="Trazado 21467" d="M416.45,827.988v-1.475c0-4.309,2.466-7.051,6.522-7.051s6.5,2.719,6.5,7.029v1.451c0,4.333-2.443,7.075-6.5,7.075C418.893,835.017,416.45,832.3,416.45,827.988Zm9.633.208v-1.914c0-2.626-1.13-4.079-3.111-4.079-2.028,0-3.088,1.405-3.088,4.033v1.96c0,2.6,1.083,4.032,3.088,4.032C425,832.228,426.083,830.822,426.083,828.2Z" transform="translate(-328.305 -819.438)" fill="#0855c4"/>
        <path id="Trazado_22304" data-name="Trazado 22304" d="M2.755,35.594l2.412-3.359a3.373,3.373,0,0,0,.977-2.29v-.183c0-1.282-.641-1.862-1.71-1.862H3.976c-1.4,0-1.74.611-2.046,1.862L.556,34.617C.282,35.869,2.022,36.388,2.755,35.594Z" transform="translate(50.279 39.899)" fill="#0855c4"/>
        <path id="Trazado_22305" data-name="Trazado 22305" d="M2.755,35.594l2.412-3.359a3.373,3.373,0,0,0,.977-2.29v-.183c0-1.282-.641-1.862-1.71-1.862H3.976c-1.4,0-1.74.611-2.046,1.862L.556,34.617C.282,35.869,2.022,36.388,2.755,35.594Z" transform="translate(50.279 -16.101)" fill="#0855c4"/>
      </g>
    </g>
    <g id="Grupo_23020" data-name="Grupo 23020" transform="translate(-2002.394 -8634.096)">
      <rect id="Rectángulo_5873" data-name="Rectángulo 5873" width="124.647" height="49.859" fill="#e2f7ff"/>
    </g>
    <g id="S_38400-5" data-name="S 38400" transform="translate(-1985.255 -8615.398)">
      <g id="Grupo_23021" data-name="Grupo 23021" style="mix-blend-mode: normal;isolation: isolate">
        <path id="Trazado_21468" data-name="Trazado 21468" d="M564.551,832c0-.946,1.175-1.8,1.29-1.684a6.075,6.075,0,0,0,4.425,2.006c1.775,0,2.719-.646,2.719-1.8,0-1.337-1.5-1.614-3.25-2.005-2.374-.53-4.817-1.405-4.817-4.47,0-2.766,2.213-4.587,5.808-4.587a7.315,7.315,0,0,1,4.286,1.106,2.045,2.045,0,0,1,1.037,1.637,2.21,2.21,0,0,1-1.336,1.774,5.34,5.34,0,0,0-3.965-1.82c-1.613,0-2.58.668-2.58,1.751,0,1.291,1.336,1.475,3.18,1.89,2.7.6,5.047,1.706,5.047,4.516,0,2.974-2.19,4.7-6.107,4.7a7.49,7.49,0,0,1-4.817-1.36A2.135,2.135,0,0,1,564.551,832Z" transform="translate(-564.551 -819.438)" fill="#0855c4"/>
        <path id="Trazado_21469" data-name="Trazado 21469" d="M578.025,838.229a3.852,3.852,0,0,1,.185-.968l5.531-17.585a1.348,1.348,0,0,1,.692-.115c.668,0,1.659.16,1.659,1.29a4.027,4.027,0,0,1-.185.968L580.4,839.4a1.5,1.5,0,0,1-.692.115C579.016,839.519,578.025,839.312,578.025,838.229Z" transform="translate(-565.601 -819.446)" fill="#0855c4"/>
        <path id="Trazado_21470" data-name="Trazado 21470" d="M588.9,833.887a2.938,2.938,0,0,1-1.5-2.281,1.68,1.68,0,0,1,2-1.613,3.544,3.544,0,0,0,3.688,2.374c1.8,0,2.928-.807,2.928-2.121,0-1.359-.9-2.05-2.651-2.05h-.784c-1.129,0-1.567-.416-1.567-1.153v-.185c0-.807.507-1.153,1.522-1.153h1.106c1.383,0,2.121-.668,2.121-1.751,0-1.152-1.014-1.866-2.72-1.866a3.275,3.275,0,0,0-3.318,2.143,1.658,1.658,0,0,1-1.96-1.591,2.748,2.748,0,0,1,1.451-2.165,7.174,7.174,0,0,1,3.9-1.014c3.757,0,5.854,1.475,5.854,4.1a3.127,3.127,0,0,1-2.6,3.111,3.839,3.839,0,0,1,2.9,3.781c0,2.881-2.234,4.563-6.152,4.563A7.413,7.413,0,0,1,588.9,833.887Z" transform="translate(-566.331 -819.438)" fill="#0855c4"/>
        <path id="Trazado_21471" data-name="Trazado 21471" d="M601.85,830.659c0-1.751,1.013-3.019,3.041-3.617a3.315,3.315,0,0,1-2.6-3.342c0-2.536,2.305-4.264,5.785-4.264,3.526,0,5.692,1.659,5.692,4.218A3.343,3.343,0,0,1,611.207,827c2.052.6,3.042,1.889,3.042,3.664,0,2.582-2.42,4.31-6.222,4.31C604.154,834.969,601.85,833.333,601.85,830.659Zm9.1-.368c0-1.36-1.107-2.259-2.9-2.259-1.82,0-2.9.876-2.9,2.259,0,1.313,1.106,2.235,2.927,2.235C609.917,832.526,610.954,831.673,610.954,830.291Zm-.3-6.27c0-1.244-.967-2.121-2.6-2.121-1.66,0-2.582.853-2.582,2.121,0,1.222.992,2.075,2.605,2.075C609.662,826.1,610.653,825.29,610.653,824.021Z" transform="translate(-567.456 -819.436)" fill="#0855c4"/>
        <path id="Trazado_21472" data-name="Trazado 21472" d="M624.073,833.3v-2.258h-5.508c-1.176,0-1.89-.6-1.89-1.452v-.553a3.107,3.107,0,0,1,.714-1.775l4.563-6.338c.669-1.059,1.107-1.29,2.789-1.29,1.751,0,2.466.576,2.466,2.212v6.637h1.129c1.037,0,1.452.369,1.452,1.222v.115c0,.876-.415,1.222-1.452,1.222h-1.129V833.3c0,1.014-.461,1.567-1.428,1.567h-.324C624.557,834.869,624.073,834.271,624.073,833.3Zm.138-4.748V822.1l-4.61,6.453Z" transform="translate(-558.611 -819.451)" fill="#0855c4"/>
        <path id="Trazado_21473" data-name="Trazado 21473" d="M632.25,827.988v-1.475c0-4.309,2.466-7.051,6.522-7.051s6.5,2.719,6.5,7.029v1.451c0,4.333-2.443,7.075-6.5,7.075C634.693,835.017,632.25,832.3,632.25,827.988Zm9.633.208v-1.914c0-2.626-1.129-4.079-3.111-4.079-2.028,0-3.088,1.405-3.088,4.033v1.96c0,2.6,1.083,4.032,3.088,4.032C640.8,832.228,641.883,830.822,641.883,828.2Z" transform="translate(-559.824 -819.438)" fill="#0855c4"/>
        <path id="Trazado_21474" data-name="Trazado 21474" d="M648.3,827.988v-1.475c0-4.309,2.466-7.051,6.522-7.051s6.5,2.719,6.5,7.029v1.451c0,4.333-2.444,7.075-6.5,7.075C650.743,835.017,648.3,832.3,648.3,827.988Zm9.633.208v-1.914c0-2.626-1.13-4.079-3.111-4.079-2.028,0-3.089,1.405-3.089,4.033v1.96c0,2.6,1.083,4.032,3.089,4.032C656.85,832.228,657.933,830.822,657.933,828.2Z" transform="translate(-561.074 -819.438)" fill="#0855c4"/>
        <path id="Trazado_22302" data-name="Trazado 22302" d="M2.755,35.594l2.412-3.359a3.373,3.373,0,0,0,.977-2.29v-.183c0-1.282-.641-1.862-1.71-1.862H3.976c-1.4,0-1.74.611-2.046,1.862L.556,34.617C.282,35.869,2.022,36.388,2.755,35.594Z" transform="translate(43.371 41.451)" fill="#0855c4"/>
        <path id="Trazado_22303" data-name="Trazado 22303" d="M2.755,35.594l2.412-3.359a3.373,3.373,0,0,0,.977-2.29v-.183c0-1.282-.641-1.862-1.71-1.862H3.976c-1.4,0-1.74.611-2.046,1.862L.556,34.617C.282,35.869,2.022,36.388,2.755,35.594Z" transform="translate(48.721 -17.518)" fill="#0855c4"/>
      </g>
    </g>
    <g id="Grupo_23024" data-name="Grupo 23024" transform="translate(-2002.394 -8576.679)">
      <g id="Grupo_23022" data-name="Grupo 23022" transform="translate(0 0)">
        <rect id="Rectángulo_5874" data-name="Rectángulo 5874" width="124.647" height="49.859" fill="#e2f7ff" stroke="#0855c4" stroke-width="4"/>
      </g>
    </g>
    <g id="S_38400-6" data-name="S 38400" transform="translate(-2002.718 -8561.223)">
      <g id="Grupo_23025" data-name="Grupo 23025" transform="translate(7.503 1.683)" style="mix-blend-mode: normal;isolation: isolate">
        <path id="Trazado_21476" data-name="Trazado 21476" d="M776.045,830.228c0-1.062,1.32-2.018,1.45-1.89a6.82,6.82,0,0,0,4.967,2.252c1.992,0,3.053-.724,3.053-2.018,0-1.5-1.682-1.811-3.649-2.252-2.665-.594-5.408-1.578-5.408-5.019,0-3.105,2.484-5.149,6.521-5.149a8.216,8.216,0,0,1,4.813,1.242,2.3,2.3,0,0,1,1.164,1.837,2.481,2.481,0,0,1-1.5,1.993,5.991,5.991,0,0,0-4.45-2.044c-1.811,0-2.9.75-2.9,1.967,0,1.449,1.5,1.656,3.571,2.122,3.027.673,5.667,1.915,5.667,5.071,0,3.338-2.458,5.279-6.857,5.279a8.425,8.425,0,0,1-5.408-1.526A2.4,2.4,0,0,1,776.045,830.228Z" transform="translate(-776.045 -816.126)" fill="#0855c4"/>
        <path id="Trazado_21477" data-name="Trazado 21477" d="M792.216,837.231a4.33,4.33,0,0,1,.206-1.086l6.21-19.743a1.512,1.512,0,0,1,.776-.129c.75,0,1.863.181,1.863,1.449a4.521,4.521,0,0,1-.207,1.087l-6.183,19.743a1.713,1.713,0,0,1-.777.129C793.328,838.68,792.216,838.447,792.216,837.231Z" transform="translate(-778.268 -816.143)" fill="#0855c4"/>
        <path id="Trazado_21478" data-name="Trazado 21478" d="M805.711,832.123l6.909-12.343H805.3c-1.113,0-1.682-.44-1.682-1.5v-.233c0-1.035.569-1.475,1.682-1.475h8.953c2.149,0,2.484.906,2.484,1.889v.26a6.667,6.667,0,0,1-1.164,2.845l-5.8,10.583a2.19,2.19,0,0,1-1.941,1.345C806.59,833.494,805.555,832.381,805.711,832.123Z" transform="translate(-779.835 -816.184)" fill="#0855c4"/>
        <path id="Trazado_21479" data-name="Trazado 21479" d="M820.354,825.726v-1.5c0-4.994,2.873-8.073,7.5-8.073a7.833,7.833,0,0,1,4.243,1.009,2.69,2.69,0,0,1,1.449,2.251c0,1.475-1.785,1.76-1.863,1.708a3.939,3.939,0,0,0-3.545-1.915c-2.406,0-3.752,1.371-3.984,3.985a6.907,6.907,0,0,0-.053,1.242,6.474,6.474,0,0,1,4.528-1.76c3.338,0,5.589,1.811,5.589,4.941v.13c0,3.441-2.717,5.873-6.624,5.873C823.019,833.617,820.354,830.486,820.354,825.726Zm10.221,2.25v-.128c0-1.76-1.087-2.717-3.027-2.717a4.846,4.846,0,0,0-3.364,1.5v.311c.181,2.431,1.372,3.83,3.338,3.83A2.807,2.807,0,0,0,830.575,827.976Z" transform="translate(-782.136 -816.126)" fill="#0855c4"/>
        <path id="Trazado_21480" data-name="Trazado 21480" d="M838.145,828.723c0-1.966,1.138-3.389,3.415-4.063a3.72,3.72,0,0,1-2.923-3.751c0-2.846,2.588-4.787,6.494-4.787,3.959,0,6.391,1.863,6.391,4.735a3.754,3.754,0,0,1-2.872,3.752c2.3.673,3.416,2.122,3.416,4.114,0,2.9-2.716,4.84-6.986,4.84C840.733,833.562,838.145,831.725,838.145,828.723Zm10.22-.413c0-1.528-1.241-2.536-3.259-2.536-2.044,0-3.26.983-3.26,2.536,0,1.475,1.242,2.509,3.285,2.509C847.2,830.819,848.365,829.862,848.365,828.31Zm-.336-7.038c0-1.4-1.086-2.381-2.923-2.381-1.863,0-2.9.957-2.9,2.381,0,1.371,1.114,2.329,2.924,2.329C846.916,823.6,848.029,822.694,848.029,821.271Z" transform="translate(-774.796 -816.122)" fill="#0855c4"/>
        <path id="Trazado_21481" data-name="Trazado 21481" d="M856.354,825.726V824.07c0-4.839,2.769-7.918,7.323-7.918s7.3,3.053,7.3,7.892v1.629c0,4.866-2.743,7.944-7.3,7.944C859.1,833.617,856.354,830.564,856.354,825.726Zm10.817.232v-2.147c0-2.95-1.269-4.58-3.494-4.58-2.277,0-3.467,1.578-3.467,4.528v2.2c0,2.925,1.216,4.528,3.467,4.528C865.954,830.486,867.171,828.908,867.171,825.958Z" transform="translate(-777.299 -816.126)" fill="#0855c4"/>
        <path id="Trazado_21482" data-name="Trazado 21482" d="M875.615,825.726V824.07c0-4.839,2.768-7.918,7.322-7.918s7.3,3.053,7.3,7.892v1.629c0,4.866-2.743,7.944-7.3,7.944C878.358,833.617,875.615,830.564,875.615,825.726Zm10.815.232v-2.147c0-2.95-1.267-4.58-3.493-4.58-2.276,0-3.467,1.578-3.467,4.528v2.2c0,2.925,1.215,4.528,3.467,4.528C885.214,830.486,886.43,828.908,886.43,825.958Z" transform="translate(-779.947 -816.126)" fill="#0855c4"/>
      </g>
      <path id="Trazado_22301" data-name="Trazado 22301" d="M2.755,35.594l2.412-3.359a3.373,3.373,0,0,0,.977-2.29v-.183c0-1.282-.641-1.862-1.71-1.862H3.976c-1.4,0-1.74.611-2.046,1.862L.556,34.617C.282,35.869,2.022,36.388,2.755,35.594Z" transform="translate(60.834 -12.724)" fill="#0855c4"/>
    </g>
    <text id="Bancos_Cajas" data-name="Bancos/Cajas" transform="translate(-2123.924 -8702)" fill="#454a6c" font-size="17" font-family="OmnesMedium, Omnes"><tspan x="0" y="0">Bancos/Cajas</tspan></text>
    <text id="_5_de_lo_invertido" data-name="+5% de lo invertido" transform="translate(-2134.831 -8505.345)" fill="#454a6c" font-size="15" font-family="OmnesMedium, Omnes" letter-spacing="-0.02em"><tspan x="0" y="0">+5% de lo invertido</tspan></text>
    <text id="_100_adicional_de_lo_invertido" data-name="+100% adicional
de lo invertido" transform="translate(-1944.057 -8506.786)" fill="#0855c4" font-size="16" font-family="Omnes-Semibold, Omnes" font-weight="600" letter-spacing="-0.015em"><tspan x="-56" y="0">+100% adicional</tspan><tspan x="-50" y="15">de lo invertido</tspan></text>
    <text id="Ahorro_Seguro" data-name="Ahorro Seguro" transform="translate(-1995.382 -8702)" fill="#0855c4" font-size="17" font-family="OmnesSemiBold, Omnes"><tspan x="0" y="0">Ahorro Seguro</tspan></text>
  </g>
</svg>
