<svg xmlns="http://www.w3.org/2000/svg" xmlns:xlink="http://www.w3.org/1999/xlink" width="542.905" height="683.368" viewBox="0 0 542.905 683.368">
  <defs>
    <linearGradient id="linear-gradient" x1="671.683" y1="29.746" x2="671.683" y2="30.724" gradientUnits="objectBoundingBox">
      <stop offset="0" stop-color="#ffb65e"/>
      <stop offset="1" stop-color="#fc7125"/>
    </linearGradient>
    <clipPath id="clip-path">
      <path id="Trazado_15368" data-name="Trazado 15368" d="M78.092-351.411s26.242,5.349,32.022,1.669c.009.009-19.843,38.916-32.022-1.669" transform="translate(-78.092 351.411)" fill="none"/>
    </clipPath>
    <clipPath id="clip-path-2">
      <path id="Trazado_15370" data-name="Trazado 15370" d="M108.849-349.077s-7.889,2.145-30.281-2.333a27.425,27.425,0,0,0,1.7,5.088s16.011,4.254,23.146,2.809a4.929,4.929,0,0,0,2.98-2.082Z" transform="translate(-78.568 351.411)" fill="none"/>
    </clipPath>
  </defs>
  <g id="Grupo_23037" data-name="Grupo 23037" transform="translate(-168.758 -2828)">
    <g id="Grupo_23036" data-name="Grupo 23036" transform="translate(169 2828)">
      <g id="Grupo_17466" data-name="Grupo 17466">
        <path id="Trazado_15296" data-name="Trazado 15296" d="M-576.758,481.886c4.778-.644,10.338-1.721,15.916-2.95,1.456-.32,2.912-.651,4.357-.988,3.469-2.527,7.016-3.648,8.795-5.728,0,0,8.99-9.163-6.445-6.042,0,0-26.971,7.028-33.3,18.285-.048.152-.086.305-.133.457.207-.1.4-.2.615-.289A38.261,38.261,0,0,1-576.758,481.886Z" transform="translate(1007.866 -198.44)" fill="#ffb38a"/>
        <g id="Grupo_17457" data-name="Grupo 17457" transform="translate(374.219 164.617)">
          <g id="Grupo_17438" data-name="Grupo 17438" transform="translate(66.995 104.614)">
            <path id="Trazado_15297" data-name="Trazado 15297" d="M-530.724,470.92l-3.478,10.356a7.951,7.951,0,0,1-7.531,5.394h-7.321a7.938,7.938,0,0,1-7.586-5.6L-560.354,469Z" transform="translate(560.354 -468.999)" fill="#014699"/>
          </g>
          <g id="Grupo_17439" data-name="Grupo 17439" transform="translate(91.595 101.976)">
            <path id="Trazado_15298" data-name="Trazado 15298" d="M-513.791,467.355l-5.169,15.172a7.576,7.576,0,0,1-7.174,5.15H-534a7.562,7.562,0,0,1-7.227-5.339l-3.8-12.331Z" transform="translate(545.025 -467.355)" fill="#00aef0"/>
          </g>
          <g id="Grupo_17440" data-name="Grupo 17440" transform="translate(31.518 101.095)">
            <path id="Trazado_15299" data-name="Trazado 15299" d="M-551.737,472.246l-3.574,10.619a7.549,7.549,0,0,1-7.153,5.143h-7.894a7.544,7.544,0,0,1-7.215-5.326l-4.887-15.876Z" transform="translate(582.46 -466.806)" fill="#014699"/>
          </g>
          <g id="Grupo_17441" data-name="Grupo 17441" transform="translate(19.508 2.939)">
            <path id="Trazado_15300" data-name="Trazado 15300" d="M-586.025,432.556l-2.858-7.032a14.449,14.449,0,0,1,4.8-17.05h0a14.442,14.442,0,0,1,18.534,1.139l12.411,11.778L-575.7,432.556Z" transform="translate(589.944 -405.643)" fill="#0096dd"/>
          </g>
          <g id="Grupo_17442" data-name="Grupo 17442" transform="translate(22.733 10.441)">
            <path id="Trazado_15301" data-name="Trazado 15301" d="M-584.873,425.664l-2.224-4.335a7.558,7.558,0,0,1,2.237-9.541h0a7.564,7.564,0,0,1,10.295,1.253l4.922,5.927Z" transform="translate(587.935 -410.317)" fill="#1c5cc1"/>
          </g>
          <g id="Grupo_17443" data-name="Grupo 17443" transform="translate(9.775 13.955)">
            <path id="Trazado_15302" data-name="Trazado 15302" d="M-504.069,412.507H-548.5a47.511,47.511,0,0,0-47.511,47.511h0A47.511,47.511,0,0,0-548.5,507.528h44.429a47.51,47.51,0,0,0,47.511-47.511h0A47.51,47.51,0,0,0-504.069,412.507Z" transform="translate(596.009 -412.507)" fill="#00aef0"/>
          </g>
          <g id="Grupo_17444" data-name="Grupo 17444" transform="translate(39.312 36.945)">
            <circle id="Elipse_1298" data-name="Elipse 1298" cx="3.782" cy="3.782" r="3.782" fill="#1c5cc1"/>
          </g>
          <g id="Grupo_17445" data-name="Grupo 17445" transform="translate(18.52 35.313)">
            <circle id="Elipse_1299" data-name="Elipse 1299" cx="3.782" cy="3.782" r="3.782" fill="#1c5cc1"/>
          </g>
          <g id="Grupo_17446" data-name="Grupo 17446" transform="translate(15.969 82.418)">
            <path id="Trazado_15303" data-name="Trazado 15303" d="M-586.033,459.028a8.39,8.39,0,0,1-6.116-2.927l.974-.931a7.112,7.112,0,0,0,5.132,2.508h.01a8.778,8.778,0,0,0,5.575-2.51l.974.932A10,10,0,0,1-586.033,459.028Z" transform="translate(592.149 -455.168)" fill="#1c5cc1"/>
          </g>
          <g id="Grupo_17447" data-name="Grupo 17447" transform="translate(69.986 6.074)">
            <path id="Trazado_15304" data-name="Trazado 15304" d="M-547.924,415.477v15.9s-10.43-1.746-10.564-4.046,7.416-19.733,7.416-19.733Z" transform="translate(558.49 -407.596)" fill="#00aef0"/>
          </g>
          <g id="Grupo_17448" data-name="Grupo 17448" transform="translate(80.552 13.968)" opacity="0.09" style="mix-blend-mode: normal;isolation: isolate">
            <path id="Trazado_15305" data-name="Trazado 15305" d="M-549.614,421.955l-2.292-9.44,22.633.122c14.65,0,27.439,7.6,36.468,18.789-7.234-5.8-17.732-9.276-27.73-9.276Z" transform="translate(551.906 -412.515)" fill="#1c5cc1"/>
          </g>
          <g id="Grupo_17449" data-name="Grupo 17449" transform="translate(82.339 17.346)">
            <rect id="Rectángulo_3757" data-name="Rectángulo 3757" width="24.601" height="2.636" rx="0.819" fill="#1c5cc1"/>
          </g>
          <g id="Grupo_17450" data-name="Grupo 17450" transform="translate(84.798 49.694)">
            <path id="Trazado_15306" data-name="Trazado 15306" d="M-545.787,434.777a3.478,3.478,0,0,0-3.473,3.484l0,.063v22.686h22.686a3.479,3.479,0,0,0,3.473-3.484V434.777Zm16.512,18.877-13.963,2.595V442.092l13.963-2.548Z" transform="translate(549.26 -434.777)" fill="#fff"/>
          </g>
          <g id="Grupo_17451" data-name="Grupo 17451" transform="translate(0 47.179)">
            <path id="Trazado_15307" data-name="Trazado 15307" d="M-588.876,433.21h0A13.225,13.225,0,0,0-602.1,446.437v1.451a13.225,13.225,0,0,0,13.224,13.227h0a13.225,13.225,0,0,0,13.224-13.227v-1.451A13.225,13.225,0,0,0-588.876,433.21Z" transform="translate(602.1 -433.21)" fill="#1c5cc1"/>
          </g>
          <g id="Grupo_17452" data-name="Grupo 17452" transform="translate(15.027 55.087)">
            <ellipse id="Elipse_1300" data-name="Elipse 1300" cx="1.153" cy="6.048" rx="1.153" ry="6.048" fill="#00aef0"/>
          </g>
          <g id="Grupo_17453" data-name="Grupo 17453" transform="translate(7.072 55.087)">
            <ellipse id="Elipse_1301" data-name="Elipse 1301" cx="1.153" cy="6.048" rx="1.153" ry="6.048" fill="#00aef0"/>
          </g>
          <g id="Grupo_17454" data-name="Grupo 17454" transform="translate(48.65 0)">
            <path id="Trazado_15308" data-name="Trazado 15308" d="M-538.621,423.632l-1.687-7.841a15.153,15.153,0,0,0-13.814-11.946h0a15.16,15.16,0,0,0-15.148,9.688l-2.515,6.567Z" transform="translate(571.785 -403.811)" fill="#00aef0"/>
          </g>
          <g id="Grupo_17455" data-name="Grupo 17455" transform="translate(50.55 6.048)">
            <path id="Trazado_15309" data-name="Trazado 15309" d="M-570.6,419.438l14.678,13.867,1.639-18.608a6.547,6.547,0,0,0-5.549-7.045h0a6.555,6.555,0,0,0-6.877,3.648Z" transform="translate(570.601 -407.58)" fill="#1c5cc1"/>
          </g>
          <g id="Grupo_17456" data-name="Grupo 17456" transform="translate(55.169 104.614)">
            <path id="Trazado_15310" data-name="Trazado 15310" d="M-538.092,470.92l-3.479,10.356a7.949,7.949,0,0,1-7.531,5.394h-7.321a7.935,7.935,0,0,1-7.585-5.6L-567.723,469Z" transform="translate(567.723 -468.999)" fill="#00aef0"/>
          </g>
        </g>
        <path id="Trazado_15311" data-name="Trazado 15311" d="M-469.436,477.276s.22-5.438-7.47-1.586c0,0-17.767,6.425-26.561,6.425,0,0,15.229-5.405,23.07-11.456,0,0,4.684-6.245-13.918-.4,0,0-12.569,3.68-26.234,6.864-1.445.337-2.9.668-4.357.988-5.578,1.229-11.138,2.306-15.916,2.95a38.268,38.268,0,0,0-10.195,2.745c-.215.093-.408.193-.614.289-8.919,4.109-11.5,10.412-11.516,10.724L-577,525.567c-12.685,23.524-21.764,39.455-21.764,39.455L-631.88,525.2c-33.115,0-53.231,30.926-53.231,30.926l.411,8.758c44.61,81.831,96.883,79.5,96.883,79.5,35.442-17.789,37.631-90.588,37.631-90.588a157.327,157.327,0,0,1,4.525-21.989l11.169-21.548s51.436-6.8,68.8-27.573C-465.69,482.69-462.187,477.048-469.436,477.276Z" transform="translate(971.93 -197.618)" fill="#ffae97"/>
        <path id="Trazado_15312" data-name="Trazado 15312" d="M-863.112,756.737" transform="translate(906.354 -91.158)" fill="none" stroke="#0061bc" stroke-width="0.75"/>
        <path id="Trazado_15313" data-name="Trazado 15313" d="M-610.762,700.78l17.789,99.62-243.439,2.189,8.074-81.146C-828.2,721.443-750.2,645.36-610.762,700.78Z" transform="translate(916.19 -119.221)" fill="#00447f"/>
        <path id="Trazado_15314" data-name="Trazado 15314" d="M-707.28,797.873c16.695-50.221,0-84.568,0-84.568V695.926l-3.832-7.389h20.252l.274,23.673s18.747,58.568-5.2,85.662" transform="translate(962.351 -116.283)" fill="none" stroke="#b5b5b5" stroke-width="1"/>
        <path id="Trazado_15315" data-name="Trazado 15315" d="M-682.512,705.037s-.41,29.284,23.947,39" transform="translate(972.888 -110.204)" fill="none" stroke="#b5b5b5" stroke-width="1"/>
        <path id="Trazado_15316" data-name="Trazado 15316" d="M-785.112,710.579s136.977,2.053,156.683-9.442" transform="translate(935.089 -111.641)" fill="none" stroke="#b5b5b5" stroke-width="1"/>
        <path id="Trazado_15317" data-name="Trazado 15317" d="M-793.544,310.437s-13.274,17.789-4.926,46.663l10.4-10.4s.411-13.547,1.095-13.958C-786.428,332.331-793.544,310.437-793.544,310.437Z" transform="translate(929.153 -255.577)" fill="#00457f"/>
        <path id="Trazado_15318" data-name="Trazado 15318" d="M-754.9,338.609a3.5,3.5,0,0,0-1.369-1.779,4.03,4.03,0,0,0-5.884.411,4.652,4.652,0,0,0-.958,2.053" transform="translate(943.194 -246.256)" fill="none" stroke="#002168" stroke-width="3"/>
        <path id="Trazado_15319" data-name="Trazado 15319" d="M-735,337.71a3.5,3.5,0,0,0-1.368-1.779,4.03,4.03,0,0,0-5.884.411,4.651,4.651,0,0,0-.958,2.053" transform="translate(950.526 -246.587)" fill="none" stroke="#002168" stroke-width="3"/>
        <path id="Trazado_15320" data-name="Trazado 15320" d="M-769.359,337.268l16.01-4.516a1.556,1.556,0,0,0,.958-1.368l-.684-2.189a1.555,1.555,0,0,0-1.368-.958l-16.01,4.516a1.556,1.556,0,0,0-.958,1.368l.684,2.053A1.037,1.037,0,0,0-769.359,337.268Z" transform="translate(940.136 -249.02)" fill="#002168"/>
        <path id="Trazado_15321" data-name="Trazado 15321" d="M-743.017,332.79l16.695,1.642a1.441,1.441,0,0,0,1.369-1.095l.274-2.189a1.441,1.441,0,0,0-1.095-1.368l-16.695-1.642a1.441,1.441,0,0,0-1.368,1.095l-.274,2.189A1.243,1.243,0,0,0-743.017,332.79Z" transform="translate(950.194 -249.057)" fill="#002168"/>
        <path id="Trazado_15322" data-name="Trazado 15322" d="M-744.786,342.237l10.673,25.452-14.642,3.147-.958-28.189Z" transform="translate(948.131 -243.862)" fill="url(#linear-gradient)"/>
        <path id="Trazado_15323" data-name="Trazado 15323" d="M-790.96,331.337s-13.547-.411-11.495,15.6C-802.318,346.937-800.95,333.664-790.96,331.337Z" transform="translate(928.622 -247.878)" fill="#d98a32" opacity="0.38" style="mix-blend-mode: normal;isolation: isolate"/>
        <path id="Trazado_15324" data-name="Trazado 15324" d="M-764.312,331.837" transform="translate(942.752 -247.694)" fill="none" stroke="#00529c" stroke-width="0.5"/>
        <path id="Trazado_15325" data-name="Trazado 15325" d="M-754.612,331.337" transform="translate(946.326 -247.878)" fill="none" stroke="#00529c" stroke-width="0.5"/>
        <path id="Trazado_15326" data-name="Trazado 15326" d="M-734.412,331.837" transform="translate(953.768 -247.694)" fill="none" stroke="#00529c" stroke-width="0.5"/>
        <path id="Trazado_15327" data-name="Trazado 15327" d="M-742.112,331.237" transform="translate(950.931 -247.915)" fill="none" stroke="#00529c" stroke-width="0.5"/>
        <path id="Trazado_15328" data-name="Trazado 15328" d="M-792.538,363.616l-5.474-1.779v1.368c1.095.274,2.053.41,3.147.684A7.176,7.176,0,0,1-792.538,363.616Z" transform="translate(930.337 -236.641)" fill="#ffc75c"/>
        <path id="Trazado_15329" data-name="Trazado 15329" d="M-799.712,355.137v1.368h0Z" transform="translate(929.71 -239.11)" fill="#ffc75c"/>
        <path id="Trazado_15330" data-name="Trazado 15330" d="M-799.138,355.958l.958.684,4.105-1.368c-.684,0-1.642.274-2.189.274a21.9,21.9,0,0,1-3.147-.411v1.368C-799.412,355.958-799.138,355.958-799.138,355.958Z" transform="translate(929.821 -239.11)" fill="#ffc75c"/>
        <path id="Trazado_15331" data-name="Trazado 15331" d="M-702.578,302.979l-80.188-9.442-10.81,49.4a5.672,5.672,0,0,0-2.189-.274c-8.621-.274,1.368,7.389,1.095,17.379-.274,8.621-1.642,12.453,5.474,14.231,1.095.274-8.347,4.242-7.253,4.242a5.673,5.673,0,0,0,2.189-.274l-4.105,1.368,72.525,61.578c13.137-2.463,19.568-20.116,23.673-32.842l.274-84.294v-.958Z" transform="translate(929.87 -261.804)" fill="#ffae97"/>
        <path id="Trazado_15332" data-name="Trazado 15332" d="M-799.712,356.148v.684l1.642-.41-.958-.684S-799.3,355.737-799.712,356.148Z" transform="translate(929.71 -238.889)" fill="#ffc75c"/>
        <path id="Trazado_15333" data-name="Trazado 15333" d="M-795.933,356.437s6.568,50.084-6.979,63.357l41.736,57.747,38.726,19.431s9.716-11.495,11.495-15.6c2.053-3.832-9.716-48.168-9.716-48.168s-3.831-5.884,3.832-23.263l-41.736-28.873Z" transform="translate(928.531 -238.631)" fill="#ffae97"/>
        <ellipse id="Elipse_1302" data-name="Elipse 1302" cx="2.874" cy="3.695" rx="2.874" ry="3.695" transform="translate(190.893 89.891)" fill="#031e58"/>
        <ellipse id="Elipse_1303" data-name="Elipse 1303" cx="2.874" cy="3.695" rx="2.874" ry="3.695" transform="translate(213.745 89.891)" fill="#031e58"/>
        <line id="Línea_96" data-name="Línea 96" y1="1.642" x2="13.547" transform="translate(183.367 82.501)" fill="none" stroke="#00447f" stroke-width="2"/>
        <line id="Línea_97" data-name="Línea 97" x1="10.673" y1="1.642" transform="translate(215.114 83.186)" fill="none" stroke="#00447f" stroke-width="2"/>
        <path id="Trazado_15334" data-name="Trazado 15334" d="M-735.853,367.937l-13.958,1.095C-750.084,369.032-739,381.621-735.853,367.937Z" transform="translate(948.093 -234.394)" fill="#fbfffb"/>
        <path id="Trazado_15335" data-name="Trazado 15335" d="M-796.912,401.2a25.337,25.337,0,0,0,3.421-2.463C-794.723,399.695-795.817,400.242-796.912,401.2Z" transform="translate(930.742 -223.047)" fill="none"/>
        <path id="Trazado_15336" data-name="Trazado 15336" d="M-742.628,338.637v1.779c.137,3.01.547,5.61,2.6,7.8,4.242,4.242,9.305,12.316-5.884,17.516" transform="translate(949.531 -245.188)" fill="none" stroke="#ff6700" stroke-width="0.75"/>
        <path id="Trazado_15337" data-name="Trazado 15337" d="M-729.522,370.4l2.463-12.863,1.642,22.168-6.295-.958Z" transform="translate(954.762 -238.226)" fill="#00447f"/>
        <g id="Grupo_17458" data-name="Grupo 17458" transform="translate(146.146 78.943)">
          <path id="Trazado_15338" data-name="Trazado 15338" d="M-787.912,328.037l.274,1.095A1.474,1.474,0,0,1-787.912,328.037Z" transform="translate(787.912 -328.037)" fill="#00418b"/>
        </g>
        <path id="Trazado_15339" data-name="Trazado 15339" d="M-797.807,329.037a11.209,11.209,0,0,0-4.105.958,33.066,33.066,0,0,0,1.642,4.789c.958,1.779,1.779,3.831,3.558,4.926.411.274,1.095.411,1.642.684V329.858A3.752,3.752,0,0,0-797.807,329.037Z" transform="translate(928.9 -248.725)" fill="#ffc75c"/>
        <path id="Trazado_15340" data-name="Trazado 15340" d="M-770.412,335.537" transform="translate(940.505 -246.331)" fill="none" stroke="#00418b" stroke-width="1"/>
        <g id="Grupo_17459" data-name="Grupo 17459" transform="translate(114.303 39.262)">
          <path id="Trazado_15341" data-name="Trazado 15341" d="M-775.234,308.341a19.106,19.106,0,0,0-1.642,13.684,24.18,24.18,0,0,1,1.095,4.242c.411,4.105-1.779,7.937-3.147,11.768a32.659,32.659,0,0,0-1.642,10.126c0,2.053.41,4.242,0,6.295s-2.053,4.105-4.105,4.242c.274-2.874-2.053-5.61-4.79-6.568-2.737-1.095-11.084,1.095-13.958,1.368,1.369-9.032,4.105-20.937-2.053-27.916-2.052-2.463-4.789-4.926-5.474-8.074-1.368-5.884,3.558-11.084,8.075-14.916,2.188-2.053,5.2-4.105,8.074-3.421,1.641.411,2.874,1.642,4.242,2.737a40.468,40.468,0,0,0,14.368,7.663" transform="translate(811.182 -299.039)" fill="#031e58"/>
        </g>
        <path id="Trazado_15342" data-name="Trazado 15342" d="M-729.912,295.3l2.052,45.294s9.716-12.589,14.368-14.916c4.789-2.189,0-21.21,0-21.21l-9.442-9.442-2.189-2.189Z" transform="translate(955.425 -262.061)" fill="#003868"/>
        <g id="Grupo_17460" data-name="Grupo 17460" transform="translate(131.504)">
          <path id="Trazado_15343" data-name="Trazado 15343" d="M-786.433,328.217c10.537,5.2,22.3,9.305,34.073,8.758,16.01-.684,30.242-9.442,43.652-17.789a27.537,27.537,0,0,1,6.979-3.421c2.463-.411,5.474,0,7.253,1.779a8.547,8.547,0,0,1,2.189,5.474c1.368,9.031-3.147,18.747-10.537,23.947.274,2.189.411,4.516.958,6.979a20.4,20.4,0,0,0,5.884-3.147,34.453,34.453,0,0,0,11.905-15.6c3.832-9.442,3.421-20.252.411-30.242-2.874-9.853-7.937-18.884-13.274-27.779a16.439,16.439,0,0,0-3.832-4.789c-3.421-2.737-8.347-2.463-12.452-.684s-7.253,4.789-10.537,7.389c-3.421,2.737-7.253,5.2-11.495,5.611a22.157,22.157,0,0,1-6.705-.411c-4.242-.684-8.758-1.642-13.137-2.463a34.951,34.951,0,0,0-8.347-1.095c-5.474,0-10.81,2.463-15.052,6.021-4.242,3.421-7.663,7.937-11.084,12.179-2.737,3.421-5.2,6.705-7.937,10.126a3.679,3.679,0,0,0-1.095,2.463,3.071,3.071,0,0,0,1.095,2.053c4.105,5.474,8.347,10.81,12.453,16.01" transform="translate(798.612 -270.347)" fill="#031e58"/>
        </g>
        <path id="Trazado_15344" data-name="Trazado 15344" d="M-797.593,330.737c-5.2,2.463-13.547,6.295-12.179,18.884,1.095,9.853,7.253,16.695,14.368,16.695a11.522,11.522,0,0,0,2.463-.41" transform="translate(925.949 -248.099)" fill="#ffae97"/>
        <path id="Trazado_15345" data-name="Trazado 15345" d="M-772.924,409.137l-76.631,32.842a49.575,49.575,0,0,0-27.094,27.779c-7.253,18.2-15.6,49.81-18.063,100.988,0,0,42.557,1.642,80.188,12.589l41.463-169.682v-4.516Z" transform="translate(894.712 -219.216)" fill="#1c5cc1"/>
        <path id="Trazado_15346" data-name="Trazado 15346" d="M-565.989,550.209s-48.715-77.452-53.231-81.831c-4.516-4.516-75.536-39.547-75.536-39.547,8.073,7.116-8.621,48.3-8.621,48.3l-33.116-55.147c-28.326,1.642-44.884-20.252-44.884-20.252-28.873,8.758-83.336,115.357-83.336,115.357l42.147,326.775a39.049,39.049,0,0,1,9.853-8.758l.411-11.084,7.253,6.705c56.789-28.189,205.808-25.863,205.808-25.863v-4.516c-11.084-35.442-19.842-219.082-19.842-219.082C-596.915,547.883-565.989,550.209-565.989,550.209Z" transform="translate(905.764 -221.942)" fill="#1c5cc1"/>
        <path id="Trazado_15347" data-name="Trazado 15347" d="M-745.512,468.3s12.726-36.947,38.179-24.221c0,0-8.621-27.094-34.484-31.747l3.284,13C-738.4,425.474-734.017,431.221-745.512,468.3Z" transform="translate(949.678 -218.037)" fill="#00adef"/>
        <path id="Trazado_15348" data-name="Trazado 15348" d="M-821.112,419.137c20.116,12.863,31.063,51.589,49.4,66.915" transform="translate(921.827 -215.532)" fill="none" stroke="#fff" stroke-width="1"/>
        <path id="Trazado_15349" data-name="Trazado 15349" d="M-745.425,455.837a52.939,52.939,0,0,0-2.053,36.673" transform="translate(948.086 -202.011)" fill="#1c5cc1" stroke="#fff" stroke-width="1"/>
        <circle id="Elipse_1304" data-name="Elipse 1304" cx="2.463" cy="2.463" r="2.463" transform="translate(162.157 205.384)" fill="#fff"/>
        <circle id="Elipse_1305" data-name="Elipse 1305" cx="2.463" cy="2.463" r="2.463" transform="translate(172.967 219.889)" fill="#fff"/>
        <circle id="Elipse_1306" data-name="Elipse 1306" cx="2.463" cy="2.463" r="2.463" transform="translate(182.956 236.037)" fill="#fff"/>
        <circle id="Elipse_1307" data-name="Elipse 1307" cx="2.463" cy="2.463" r="2.463" transform="translate(193.219 254.1)" fill="#fff"/>
        <path id="Trazado_15350" data-name="Trazado 15350" d="M-784.386,348.789s.531,20.308,15.173,25.919c0,0,48.852-13.958,68.01,2.737,0,0,7.406,54.954-36.383,52.491,0,0-59.936,4.789-61.715-81.831l-.411-9.853,15.052-4.516Z" transform="translate(929.71 -246.994)" fill="#031e58"/>
        <path id="Trazado_15352" data-name="Trazado 15352" d="M-813.912,787.91V732.9s62.4,17.105,74.852-12.863" transform="translate(924.479 -104.678)" fill="none" stroke="#b5b5b5" stroke-width="1"/>
        <path id="Trazado_15353" data-name="Trazado 15353" d="M-813.912,749.463s76.9,14.642,78.683-30.926" transform="translate(924.479 -105.231)" fill="none" stroke="#b5b5b5" stroke-width="1"/>
        <path id="Trazado_15354" data-name="Trazado 15354" d="M-704.835,764.129l1.231-.274c-3.832-2.874-6.568-5.2-6.568-5.2-11.084-13.274-35.442-19.842-35.442-19.842l-4.516-2.189C-794.329,707.751-831,631.394-831,631.394l12.863-93.462c-16.968-6.295-75.673-11.495-75.673-11.495l2.189,114.946c8.758,37.631,95.1,110.7,95.1,110.7l11.084,15.6,4.789,11.221.958-.137,12.316,29.558c47.073,8.621,57.884-15.052,57.884-15.052l-6.568-17.105c36.536,27.915,36.536,4.242,36.536,4.242C-685.267,778.771-697.172,770.013-704.835,764.129Z" transform="translate(895.044 -176.002)" fill="#ffae97"/>
        <path id="Trazado_15355" data-name="Trazado 15355" d="M-780.645,778.808l-4.789-11.221-11.084-15.6s-86.346-73.073-95.1-110.7l-2.189-114.946" transform="translate(895.044 -176.039)" fill="none" stroke="#ff6700" stroke-width="0.75"/>
        <circle id="Elipse_1308" data-name="Elipse 1308" cx="3.421" cy="3.421" r="3.421" transform="translate(258.225 585.366)" fill="#b5b5b5"/>
        <circle id="Elipse_1309" data-name="Elipse 1309" cx="2.463" cy="2.463" r="2.463" transform="translate(108.515 618.096)" fill="#b5b5b5"/>
        <path id="Trazado_15356" data-name="Trazado 15356" d="M-812.407,731.3v-2.053c-11.768-.274-17.516-4.242-19.431-5.611l-.274,2.189C-829.238,727.879-823.217,731.026-812.407,731.3Z" transform="translate(917.774 -103.352)" fill="#b5b5b5"/>
        <path id="Trazado_15357" data-name="Trazado 15357" d="M-816.091,735.916l.274-2.053c-8.347-.684-13.547-2.874-16.421-4.926l-.274,2.189A33.9,33.9,0,0,0-816.091,735.916Z" transform="translate(917.627 -101.4)" fill="#b5b5b5"/>
        <path id="Trazado_15358" data-name="Trazado 15358" d="M-798.45,495.137l-5.884,27.915a53.736,53.736,0,0,1-3.421,12.179l-1.505,3.284-4.105,14.231s-15.6-7.663-81.146-13.547l.547-16.421c54.052,2.053,84.7,15.6,84.7,15.6" transform="translate(894.786 -187.533)" fill="#1c5cc1" stroke="#fff" stroke-width="1"/>
        <path id="Trazado_15359" data-name="Trazado 15359" d="M-617.7,538.737s-20.253,18.747-13.547,40.779" transform="translate(991.273 -171.47)" fill="none" stroke="#ff6700" stroke-width="0.75"/>
        <path id="Trazado_15360" data-name="Trazado 15360" d="M-684.812,544.6s26.547-33.8,54.736-29.558l-9.442-14.505s-25.042-.137-45.294,23.674" transform="translate(972.04 -185.543)" fill="#1c5cc1" stroke="#fff" stroke-width="1"/>
        <line id="Línea_98" data-name="Línea 98" x2="0.821" y2="70.062" transform="translate(286.408 297.204)" fill="none" stroke="#fff" stroke-width="1"/>
        <path id="Trazado_15361" data-name="Trazado 15361" d="M-757.1,422.174s-25.863,1.779-26.821,27.779c0,0-21.621-24.358-38.589-28.873,0,0,9.716-14.368,27.231-19.842C-795.144,401.237-788.028,415.331-757.1,422.174Z" transform="translate(921.311 -222.126)" fill="#00adef"/>
        <g id="Grupo_17462" data-name="Grupo 17462" transform="translate(145.271 28.406)">
          <g id="Grupo_17461" data-name="Grupo 17461">
            <path id="Trazado_15362" data-name="Trazado 15362" d="M-786.445,306.612c5.61-14.095,23.673-9.579,35.3-9.305,6.021.137,14.368,1.232,18.2-4.652.684-1.095-1.095-2.189-1.779-1.095-3.558,5.474-14.368,3.831-19.842,3.558-5.747-.274-11.631-1.232-17.516-.547-7.389.958-13.684,4.516-16.421,11.495-.411,1.232,1.642,1.779,2.053.547Z" transform="translate(788.551 -291.106)" fill="#1c5cc1"/>
          </g>
        </g>
        <g id="Grupo_17464" data-name="Grupo 17464" transform="translate(152.15 42.398)">
          <g id="Grupo_17463" data-name="Grupo 17463">
            <path id="Trazado_15363" data-name="Trazado 15363" d="M-782.139,309.413c6.021-5.2,15.874-4.516,23.4-4.653a75.184,75.184,0,0,0,16.695-1.779c1.095-.274.547-1.779-.411-1.642-12.179,2.874-30.652-1.916-40.778,6.842-.821.684.273,1.916,1.094,1.232Z" transform="translate(783.524 -301.331)" fill="#1c5cc1"/>
          </g>
        </g>
        <path id="Trazado_15364" data-name="Trazado 15364" d="M-547.291,490.231c12.863-3.756,27.059-15.334,27.059-15.334" transform="translate(1022.704 -194.989)" fill="none" stroke="#ff6700" stroke-width="0.75"/>
        <g id="Grupo_17465" data-name="Grupo 17465" transform="translate(146.42 80.038)">
          <path id="Trazado_15365" data-name="Trazado 15365" d="M-764.591,336.842a13.3,13.3,0,0,0,13.3,13.3,13.3,13.3,0,0,0,13.439-13.161,13.147,13.147,0,0,0-.227-2.493h-26.3A14.5,14.5,0,0,0-764.591,336.842Z" transform="translate(796.23 -326.757)" fill="none" stroke="#fff" stroke-width="1.3"/>
          <path id="Trazado_15366" data-name="Trazado 15366" d="M-742.046,334.483a14.494,14.494,0,0,0-.213,2.359c0,7.315,5.564,13.242,12.42,13.242s12.42-5.927,12.42-13.242a12.873,12.873,0,0,0-.214-2.359Z" transform="translate(804.457 -326.757)" fill="none" stroke="#fff" stroke-width="1.3"/>
          <line id="Línea_99" data-name="Línea 99" x2="21.035" transform="translate(50.687 7.725)" fill="none" stroke="#fff" stroke-width="1.3"/>
          <line id="Línea_100" data-name="Línea 100" x1="32.42" y1="7.88" fill="none" stroke="#fff" stroke-width="1.3"/>
        </g>
      </g>
      <g id="Grupo_17470" data-name="Grupo 17470" transform="translate(179.924 128.086)">
        <g id="Grupo_17468" data-name="Grupo 17468" clip-path="url(#clip-path)">
          <path id="Trazado_15367" data-name="Trazado 15367" d="M141.724-301.319H73.092v-55.092h68.631Z" transform="translate(-91.397 338.106)" fill="#b95027"/>
        </g>
        <g id="Grupo_17469" data-name="Grupo 17469" clip-path="url(#clip-path-2)">
          <path id="Trazado_15369" data-name="Trazado 15369" d="M140.458-311.6H73.568v-44.806h66.89Z" transform="translate(-91.872 338.106)" fill="#fff"/>
        </g>
      </g>
    </g>
    <path id="Trazado_21500" data-name="Trazado 21500" d="M420.222,63.866h0A28.036,28.036,0,0,0,397.145,40.79h0a28.036,28.036,0,0,0,23.076-23.077h0A28.036,28.036,0,0,0,443.3,40.79h0A28.037,28.037,0,0,0,420.222,63.866Z" transform="translate(238.181 2914.344)" fill="#fdb62f"/>
    <path id="Trazado_21501" data-name="Trazado 21501" d="M412.237,47.9h0a18.336,18.336,0,0,0-15.092-15.092h0a18.336,18.336,0,0,0,15.092-15.092h0A18.336,18.336,0,0,0,427.33,32.805h0A18.337,18.337,0,0,0,412.237,47.9Z" transform="translate(284.334 3044.366)" fill="#fdb62f"/>
    <path id="Trazado_21502" data-name="Trazado 21502" d="M412.1,47.618h0a18.166,18.166,0,0,0-14.952-14.952h0A18.166,18.166,0,0,0,412.1,17.713h0A18.166,18.166,0,0,0,427.05,32.665h0A18.166,18.166,0,0,0,412.1,47.618Z" transform="translate(104.703 2975.497)" fill="#fdb62f"/>
  </g>
</svg>
