<svg xmlns="http://www.w3.org/2000/svg" xmlns:xlink="http://www.w3.org/1999/xlink" width="92" height="94" viewBox="0 0 92 94"><defs><style>.a{fill:#fff;}.ag,.aj,.ao,.ar,.b,.c,.o,.u{fill:none;}.c{clip-rule:evenodd;}.d{fill:#f1f4f9;}.e{clip-path:url(#c);}.f{clip-path:url(#d);}.g{fill:#ec9170;}.h{clip-path:url(#e);}.i{fill:#ffae97;}.j{clip-path:url(#f);}.k{clip-path:url(#g);}.l{clip-path:url(#h);}.m{clip-path:url(#i);}.n{fill:#e3aa83;}.o{stroke:#3761b7;}.ag,.aj,.ao,.ar,.o{stroke-width:0.601px;}.p{clip-path:url(#j);}.q{fill:#3761b7;}.r{clip-path:url(#k);}.s{fill:#f0caa9;}.t{clip-path:url(#l);}.u{stroke:#142566;stroke-width:0.735px;}.v{clip-path:url(#m);}.w{fill:#142566;}.x{clip-path:url(#n);}.y{clip-path:url(#o);}.z{opacity:0;}.aa{fill:url(#p);}.ab{fill:url(#q);}.ac{clip-path:url(#r);}.ad{clip-path:url(#s);}.ae{fill:#162457;}.af{clip-path:url(#t);}.ag{stroke:#27477b;}.ah{clip-path:url(#u);}.ai{fill:#fafffa;}.aj{stroke:#b95027;}.ak{clip-path:url(#v);}.al{fill:#27477b;}.am{clip-path:url(#w);}.an{fill:#de6718;}.ao{stroke:#de6718;}.ap{clip-path:url(#x);}.aq{fill:#254387;}.ar{stroke:#fff;}.as{clip-path:url(#y);}.at{fill:#031e58;}.au{clip-path:url(#z);}.av{fill:#1e3760;}.aw{clip-path:url(#aa);}.ax{clip-path:url(#ab);}.ay{fill:#3a5bbb;}.az{clip-path:url(#ac);}.ba{clip-path:url(#ad);}.bb{clip-path:url(#ae);}.bc{clip-path:url(#af);}.bd{fill:#b95027;}.be{clip-path:url(#ag);}.bf{clip-path:url(#ah);}.bg{fill:#124aa3;}.bh{clip-path:url(#ai);}.bi{clip-path:url(#aj);}.bj{fill:#e6e6e6;}.bk{clip-path:url(#ak);}.bl{fill:#1b5bc0;}.bm{clip-path:url(#al);}.bn{clip-path:url(#am);}.bo{opacity:0.4;isolation:isolate;}.bp{clip-path:url(#an);}.bq{clip-path:url(#ao);}.br{clip-path:url(#ap);}.bs{fill:#001a51;}.bt{clip-path:url(#aq);}.bu{clip-path:url(#ar);}.bv{clip-path:url(#as);}.bw{filter:url(#a);}</style><filter id="a" x="0" y="0" width="92" height="94" filterUnits="userSpaceOnUse"><feOffset dy="3" input="SourceAlpha"/><feGaussianBlur stdDeviation="3" result="b"/><feFlood flood-color="#004596" flood-opacity="0.102"/><feComposite operator="in" in2="b"/><feComposite in="SourceGraphic"/></filter><clipPath id="c"><ellipse class="a" cx="37" cy="38" rx="37" ry="38"/></clipPath><clipPath id="d"><path class="b" d="M175.537-190.965a6.384,6.384,0,0,1-3.008.351,3.211,3.211,0,0,1-1.512-1.224s-1-.844-1.023-1.366a4.53,4.53,0,0,1,.164-1.195l2.045.979,1.875.9,1.118.044Z" transform="translate(-169.992 194.399)"/></clipPath><clipPath id="e"><path class="b" d="M166.441-203.983c1.307-1.226,2.692-2.363,4.1-3.47l.548-.429s.522.344.224.768c-.055.078-.238.281-.506.565a.751.751,0,0,1,.392-.042.883.883,0,0,1,1,.24.19.19,0,0,1,.2.091c.1.164.2.336.293.508a.849.849,0,0,1,.541,1.151,6.659,6.659,0,0,1,.321,4.16c-.086.321-.193.667-.311,1.02a5.4,5.4,0,0,1-1.308,2.049,5.393,5.393,0,0,1-1.365.58l-.344-1.5s-2.287.794-2.373.846a1.314,1.314,0,0,1-.76.328,1.367,1.367,0,0,1-.614-.2,2.741,2.741,0,0,1-1.472-2.1c-.1-.562-.434-.856-.4-1.427A5.413,5.413,0,0,1,166.441-203.983Z" transform="translate(-164.599 207.882)"/></clipPath><clipPath id="f"><path class="c" d="M152.978-215.451l4.154,2.846,6.641-8.222-5.592-8.222Z" transform="translate(-152.978 229.048)"/></clipPath><clipPath id="g"><path class="b" d="M27.218-217.316c.148-.128.3-.254.449-.37a.189.189,0,0,1,.219-.015.879.879,0,0,1,1.011.121.744.744,0,0,1,.351.175c-.151-.356-.251-.609-.276-.7-.132-.5,1.282-.763,1.282-.763s1.535,3.867,2.33,5.692c.663,1.518,1.984,3.384,1.988,5.07a.436.436,0,0,1-.394.426,4,4,0,0,1,.919,1.648.822.822,0,0,1-.4.933,1.8,1.8,0,0,1,.312,1.185.814.814,0,0,1-1.1.6,1.436,1.436,0,0,1-.539-.362.7.7,0,0,1-.976.136,9.55,9.55,0,0,1-2.412-2.8c-.366-.534-.725-1.072-1.129-1.578-.062-.078-1.367-1.755-2.132-1.7.029.176.055.354.1.53a5.2,5.2,0,0,1,.248,2.349.673.673,0,0,1-1.092.374c-1.489-1.156-1.483-4.617-1.4-6.313a6.2,6.2,0,0,1,1.733-3.76A.841.841,0,0,1,27.218-217.316Z" transform="translate(-24.554 218.869)"/></clipPath><clipPath id="h"><path class="b" d="M103.145-367.956a6.256,6.256,0,0,1-.308-.756,2.892,2.892,0,0,0-1.671,2.749,2.7,2.7,0,0,0,2.459,2.893,2.049,2.049,0,0,0,.495-.061l.047-3.921a1.346,1.346,0,0,1-.311-.1,1.6,1.6,0,0,1-.713-.808" transform="translate(-101.164 368.712)"/></clipPath><clipPath id="i"><path class="b" d="M87.98-378.295l-1.86-1.378-1.228-.334a.623.623,0,0,0-.708.333.293.293,0,0,0,.139.379l1.348.579.929,1.432-1.981-.642-1.2.622a.38.38,0,0,0-.211.439.409.409,0,0,0,.539.322l.864-.27,3.383,1.2s-4.169.033-3.824,1.458l2.5-.5.586-1.958Z" transform="translate(-83.194 380.025)"/></clipPath><clipPath id="j"><path class="b" d="M83.883-364.486a.344.344,0,0,0-.363.324.344.344,0,0,0,.324.363.344.344,0,0,0,.363-.324.344.344,0,0,0-.324-.363" transform="translate(-83.519 364.486)"/></clipPath><clipPath id="k"><path class="b" d="M84.627-372.611l-.068-.693s2.55-3.839,2.5-3.947c-.046-.136-2.172-4.341-2.172-4.341l-2.416-.453a.55.55,0,0,0-.665.52.311.311,0,0,0,.222.3l1.83.5.459,1.751-2.046-1.388-1.777-.019a.375.375,0,0,0-.331.22.375.375,0,0,0,.263.519l1.264.177,1.476,1.594-2.185-.785-1.3.033a.311.311,0,0,0-.306.248.311.311,0,0,0,.244.385l1.156.2,1.217,1.5a3.875,3.875,0,0,0-1.917,2.494l.157,1.946Z" transform="translate(-79.366 382.058)"/></clipPath><clipPath id="l"><path class="b" d="M70.767-334.778l7.362-6.542,11.841,6.153,3.107,2.121s1.592,7.158-.792,8.35-8.752,1.989-9.147,2.387-3.977.394-5.569-.4-2.785-1.592-3.581-1.989-4.771-4.773-4.771-4.773Z" transform="translate(-69.217 341.32)"/></clipPath><clipPath id="m"><path class="b" d="M86.085-369.168l-3.136.886a.188.188,0,0,0-.13.232l.133.473a.188.188,0,0,0,.232.13l3.136-.886a.189.189,0,0,0,.13-.233l-.133-.473a.186.186,0,0,0-.232-.129" transform="translate(-82.812 369.176)"/></clipPath><clipPath id="n"><path class="b" d="M73.5-368.746l-3.245-.29a.189.189,0,0,0-.2.171l-.044.489a.187.187,0,0,0,.171.2l3.245.29a.186.186,0,0,0,.2-.171l.044-.489a.19.19,0,0,0-.171-.2" transform="translate(-70.003 369.037)"/></clipPath><clipPath id="o"><path class="b" d="M72.956-362.752l.51,5.679,3.433-.309-.512-5.679Z" transform="translate(-72.956 363.061)"/></clipPath><linearGradient id="p" x1="0.597" y1="0.083" x2="0.597" y2="2.669" gradientUnits="objectBoundingBox"><stop offset="0"/><stop offset="0" stop-color="#ecb464"/><stop offset="0.1" stop-color="#ebad5f"/><stop offset="0.2" stop-color="#e9a659"/><stop offset="0.3" stop-color="#e8a054"/><stop offset="0.4" stop-color="#e6994f"/><stop offset="0.5" stop-color="#e5924a"/><stop offset="0.6" stop-color="#e48b44"/><stop offset="0.7" stop-color="#e2843f"/><stop offset="0.8" stop-color="#e17e3a"/><stop offset="0.9" stop-color="#df7734"/><stop offset="1" stop-color="#de702f"/><stop offset="1"/></linearGradient><linearGradient id="q" x1="0.58" y1="0.11" x2="0.585" y2="0.134" gradientUnits="objectBoundingBox"><stop offset="0" stop-color="#ecb464"/><stop offset="0.1" stop-color="#ebad5f"/><stop offset="0.2" stop-color="#e9a659"/><stop offset="0.3" stop-color="#e8a054"/><stop offset="0.4" stop-color="#e6994f"/><stop offset="0.5" stop-color="#e5924a"/><stop offset="0.6" stop-color="#e48b44"/><stop offset="0.7" stop-color="#e2843f"/><stop offset="0.8" stop-color="#e17e3a"/><stop offset="0.9" stop-color="#df7734"/><stop offset="1" stop-color="#de702f"/></linearGradient><clipPath id="r"><path class="b" d="M73.445-385.274l-2.087,9.465a2.746,2.746,0,0,0-.427-.058c-1.657-.033,0,1.551-.058,3.442-.032,1.646-.861.177-.7,3.316v.4l1.056-.362a2.783,2.783,0,0,1-.43.04,2.558,2.558,0,0,1-.623-.09l-1.11,14.987,14.8,1.776-1.027-5.53c.315.036.8.951,1.11.933,2.817-.166,4.152-3.75,4.951-6.372l.061-16.155v-.184l-.155-3.79Z" transform="translate(-69.066 385.274)"/></clipPath><clipPath id="s"><path class="b" d="M84.2-364.747a.761.761,0,0,0-.706.807.761.761,0,0,0,.706.806.761.761,0,0,0,.706-.806.761.761,0,0,0-.706-.807" transform="translate(-83.491 364.747)"/></clipPath><clipPath id="t"><path class="b" d="M72.818-364.914a.7.7,0,0,0-.659.742.7.7,0,0,0,.659.742.7.7,0,0,0,.659-.742.7.7,0,0,0-.659-.742" transform="translate(-72.16 364.914)"/></clipPath><clipPath id="u"><path class="b" d="M77.167-350.7l-2.7.213s2.1,2.419,2.7-.213" transform="translate(-74.469 350.702)"/></clipPath><clipPath id="v"><path class="b" d="M70.079-352.41l.431-2.34-.146,4.337-1.2-.166Z" transform="translate(-69.161 354.75)"/></clipPath><clipPath id="w"><path class="b" d="M88.82-342.572h1.9L89.3-348.084,79-356.4l.4,4.98a9.573,9.573,0,0,0,6.322,8.34,9.643,9.643,0,0,0,3.092.51" transform="translate(-79.002 356.402)"/></clipPath><clipPath id="x"><path class="b" d="M96.815-369.2l.025.218a1.433,1.433,0,0,0-.025-.218" transform="translate(-96.815 369.197)"/></clipPath><clipPath id="y"><path class="b" d="M102.528-381.225c-.381.836,1,.525,1.3,1.4.112.268-1.23,1.8-1.156,2.081a5.305,5.305,0,0,1-.453,2.294,5.042,5.042,0,0,0-.148,1.978,4.6,4.6,0,0,1,.083,1.2.99.99,0,0,1-.707.883,1.326,1.326,0,0,0-.987-1.2,10.328,10.328,0,0,0-2.634.445c.157-1.762.489-4.051-.733-5.322a4.112,4.112,0,0,1-1.162-1.475c-.348-1.088.55-2.141,1.373-2.934a1.926,1.926,0,0,1,1.529-.749c.312.086,1.623-.485,1.869-.273.847.618.8,1.77,1.824,1.977" transform="translate(-95.849 382.949)"/></clipPath><clipPath id="z"><path class="b" d="M63.654-385.05l.362,8.68a15.454,15.454,0,0,1,2.77-2.853c.9-.449,0-4.044,0-4.044l-1.808-1.808-.448-.449Z" transform="translate(-63.654 385.524)"/></clipPath><clipPath id="aa"><path class="b" d="M64.293-384.871a13.686,13.686,0,0,0,6.535,1.682c3.049-.137,5.787-1.808,8.39-3.4a4.535,4.535,0,0,1,1.36-.629,1.535,1.535,0,0,1,1.4.34,1.813,1.813,0,0,1,.434,1.052,4.815,4.815,0,0,1-2.048,4.571c.054.441.036.937.09,1.378a4.826,4.826,0,0,0,1.208-.681,6.922,6.922,0,0,0,2.3-2.977,9,9,0,0,0,.094-5.787,22.208,22.208,0,0,0-2.561-5.3,3.365,3.365,0,0,0-.744-.926,2.386,2.386,0,0,0-2.376-.123,9.878,9.878,0,0,0-2.039,1.428,4.479,4.479,0,0,1-2.21,1.086,4.93,4.93,0,0,1-1.277-.079c-.839-.133-1.675-.286-2.5-.463a7.473,7.473,0,0,0-1.614-.236,4.693,4.693,0,0,0-2.893,1.151,13.982,13.982,0,0,0-2.127,2.325l-1.508,1.92a.758.758,0,0,0-.218.481.768.768,0,0,0,.2.4l2.4,3.08" transform="translate(-61.987 395.931)"/></clipPath><clipPath id="ab"><path class="b" d="M64.988-382.819c2.147.423,4.264.991,6.456.564a14.982,14.982,0,0,0,5.324-2.466c1.7-1.124,3.979-2.965,5.848-1.086.123.126-.069.319-.191.191-1.852-1.888-4.148.238-5.787,1.284a18.646,18.646,0,0,1-3.458,1.826c-2.839,1.085-5.4.506-8.282-.062-.173-.032-.1-.3.072-.261Z" transform="translate(-64.798 386.615)"/></clipPath><clipPath id="ac"><path class="b" d="M69.609-385.477c2.109-1.982,4.7-1.447,7.316-1.682,2-.189,3.085-1.414,4.654-2.448a6.43,6.43,0,0,1,4.022-1.041c.173,0,.173.281,0,.272-2.131-.108-3.523.745-5.139,1.964a7.013,7.013,0,0,1-2.39,1.342c-2.857.771-5.837-.5-8.271,1.787-.126.116-.322-.075-.191-.194" transform="translate(-69.566 390.666)"/></clipPath><clipPath id="ad"><path class="b" d="M81.006-350.45a3.584,3.584,0,0,0-.229,2.071s-3.449.2-3.975-2.071a18.2,18.2,0,0,0,4.2,0" transform="translate(-76.803 350.45)"/></clipPath><clipPath id="ae"><path class="b" d="M71.428-364.876s.112,4.662,2.943,5.74c0,0,9.042-2.792,12.723.4,0,0,1.714,9.858-6.661,9.4,0,0-11.733,1.761-11.234-14.977v-3.979l1.23-1.041Z" transform="translate(-69.183 369.332)"/></clipPath><clipPath id="af"><path class="b" d="M78.092-351.411s4.054.826,4.947.258c0,0-3.065,6.011-4.947-.258" transform="translate(-78.092 351.411)"/></clipPath><clipPath id="ag"><path class="b" d="M83.246-351.05s-1.219.331-4.678-.36a4.236,4.236,0,0,0,.262.786,11.673,11.673,0,0,0,3.575.434.761.761,0,0,0,.46-.322Z" transform="translate(-78.568 351.411)"/></clipPath><clipPath id="ah"><path class="b" d="M30.829-322.752s3.614,1.915,5.624,9.29c1.446,5.3,3.534,17.9,5.239,23.327s3.046,6.892,3.29,10.79a39.177,39.177,0,0,0,1.827,10.478c1.1,3.168,1.219,4.386.731,5.483s-5.849,3.046-5.849,3.046Z" transform="translate(-30.829 322.752)"/></clipPath><clipPath id="ai"><path class="b" d="M90.825-270.413c.1,2.193-3.29,4.934-9.548,4.386a46.23,46.23,0,0,0-4.635-.176c-3.758.036-6.624.548-9.483.811-.132.015-.263.022-.4.029-.234.015-.467.029-.695.029-.476.015-.936.015-1.382-.015l-.373-.022c-.168-.007-.329-.015-.489-.029-.036,0-.065-.007-.1-.007a19.4,19.4,0,0,1-3.969-.8s-.234-1.711-.592-4.328c0-.022-.007-.036-.007-.058-.044-.3-.087-.621-.132-.943,0-.022-.007-.036-.007-.058-.036-.248-.065-.5-.1-.76-1.244-9.088-3.428-25.1-3.363-25.287.1-.277,2.01-35.932,2.01-35.932l5.863-2.975s5.724,4.5,8.889,6.383c.161.1.322.183.467.263a5.221,5.221,0,0,0,1.17.518c2.01.469,5.519-3.707,5.519-3.707l2.588,2.325s4.174,8.364,4.321,8.5,3.531,24.63,3.531,25.178c0,.4.438,13.24.71,21.012v.007C90.724-273.191,90.8-271,90.825-270.413Z" transform="translate(-55.549 336.552)"/></clipPath><clipPath id="aj"><path class="b" d="M66.681-283.874a239.183,239.183,0,0,0,.388-32.634c.8,1.586,1.482,2.907,1.539,2.958.154.139,3.531,24.63,3.531,25.178,0,.4.438,13.24.71,21.012v.007c.1,2.888.183,5.074.205,5.666.1,2.193-3.29,4.934-9.548,4.386a46.2,46.2,0,0,0-4.635-.176c-1.148.011-2.213.067-3.219.147.717-1.17,1.432-2.347,2.157-3.532C62.244-268.208,66.126-275.695,66.681-283.874Z" transform="translate(-55.652 316.508)"/></clipPath><clipPath id="ak"><path class="b" d="M121.313-334.723s2.391,4.514,3.031,17.034-1.554,29.883-1.919,35.092.519,22.39-1.112,24.765-2.544,1.28-6.93,1.1-8.225.457-9.87-.458-2.468-.822-2.468-2.376,4.02-24.765,5.117-30.98.457-36.818,2.468-38.879S121.313-334.723,121.313-334.723Z" transform="translate(-102.045 334.723)"/></clipPath><clipPath id="al"><path class="b" d="M148.555-327.685s-4.629,1.974-6.327,3.74c-3.2,3.329-7.856,25.84-9.229,32.747s-1.443,6.906-3.3,9.587a26.518,26.518,0,0,0-3.993,10.409c-.679,4.018-4.614,5.711-4.492,7.538s8.439,6.092,9.642,5.727,6.524-10.516,7.119-11.369a14.272,14.272,0,0,1,3.031-4.018c1.949-1.709,8.706-19.98,9.228-22.3s.455-18.037,0-20.108S148.555-327.685,148.555-327.685Z" transform="translate(-121.215 327.685)"/></clipPath><clipPath id="am"><path class="b" d="M37.62-330.445A45.022,45.022,0,0,1,41.684-318.6c5.283,31.466,6.144,60.861,7.3,61.771,2.315,1.827,5.605-1.585,8.164-1.827s2.156-3.291,1.4-6.86c-1.409-6.643-5.361-18.776-5.727-28.147s-4.542-28.712-5.758-31.479C46.526-326.358,37.62-330.445,37.62-330.445Z" transform="translate(-37.62 330.445)"/></clipPath><clipPath id="an"><rect class="b" width="10.179" height="49.764"/></clipPath><clipPath id="ao"><path class="b" d="M118.575-274.592l-.349-.1c.373-1.262,9.135-30.973,8.862-38.219-.274-7.331-5.257-10.242-5.468-10.363l.18-.317c.219.125,5.371,3.135,5.654,10.667C127.728-305.623,118.949-275.856,118.575-274.592Z" transform="translate(-118.226 323.595)"/></clipPath><clipPath id="ap"><path class="b" d="M127.745-274.236H117V-324h10.745Z" transform="translate(-117 324)"/></clipPath><clipPath id="aq"><rect class="b" width="10.745" height="52.026"/></clipPath><clipPath id="ar"><path class="b" d="M52.056-258.93l-9.731-51.15-.358.068,9.731,51.15Z" transform="translate(-41.967 310.08)"/></clipPath><clipPath id="as"><path class="b" d="M51.31-258.974H40V-311H51.31Z" transform="translate(-40 311)"/></clipPath></defs><g transform="translate(9 6)"><g class="bw" transform="matrix(1, 0, 0, 1, -9, -6)"><ellipse class="d" cx="37" cy="38" rx="37" ry="38" transform="translate(9 6)"/></g><g class="e" transform="translate(0 0)"><g transform="translate(-14.839 9.159)"><g class="f" transform="translate(0.555 113.967)"><path class="g" d="M176.192-189.862h-11.2V-199.4h11.2Z" transform="translate(-167.819 196.571)"/></g><g class="h" transform="translate(0 106.342)"><path class="i" d="M174.4-196.136H159.6v-16.746H174.4Z" transform="translate(-162.426 210.055)"/></g><g class="j" transform="translate(4.927 94.372)"><path class="i" d="M164.427-211.95H147.978v-22.1h16.449Z" transform="translate(-150.806 231.221)"/></g><g class="k" transform="translate(77.785 100.128)"><path class="i" d="M35.77-202.609H19.554v-21.26H35.77Z" transform="translate(-22.382 221.042)"/></g><g class="l" transform="translate(42.018 15.393)"><path class="i" d="M104.823-362.414H96.164v-11.3h8.659Z" transform="translate(-98.992 370.884)"/></g><g class="m" transform="translate(50.388 8.995)"><path class="n" d="M88.645-373.5H78.194v-11.523H88.645Z" transform="translate(-81.022 382.197)"/></g><g transform="translate(50.343 18.922)"><path class="o" d="M5.25,0,0,.875" transform="translate(0)"/></g><g class="p" transform="translate(54.312 17.782)"><path class="q" d="M84.863-363.142H78.519v-6.344h6.344Z" transform="translate(-81.347 366.659)"/></g><g class="r" transform="translate(49.653 7.845)"><path class="s" d="M87.717-371.191H74.366v-15.867H87.717Z" transform="translate(-77.194 384.23)"/></g><g class="t" transform="translate(38.709 30.882)"><path class="i" d="M94.251-321.394H64.217V-346.32H94.251Z" transform="translate(-67.044 343.493)"/></g><g transform="translate(54.009 17.129)"><path class="u" d="M1.546.549A.8.8,0,0,0,.182.28.788.788,0,0,0,0,.685" transform="translate(0 0)"/></g><g transform="translate(59.22 16.912)"><path class="u" d="M1.546.553A.76.76,0,0,0,1.3.191.793.793,0,0,0,.186.276l0,.006A.788.788,0,0,0,0,.686" transform="translate(0 0)"/></g><g class="v" transform="translate(51.756 15.13)"><path class="w" d="M87.111-366.786h-9.3v-7.39h9.3Z" transform="translate(-80.639 371.348)"/></g><g class="x" transform="translate(58.978 15.209)"><path class="w" d="M74.324-367.227H65v-6.81h9.321Z" transform="translate(-67.831 371.209)"/></g><g class="y" transform="translate(57.031 18.588)"><g class="z" transform="translate(-57.156 -18.627)"><path class="aa" d="M29.4-32.939H-72.956V191H29.4Z" transform="translate(72.956 32.939)"/></g><g transform="translate(-57.156 -18.627)"><path class="ab" d="M29.4-32.939H-72.956V191H29.4Z" transform="translate(72.956 32.939)"/></g></g><g class="ac" transform="translate(43.28 6.026)"><path class="i" d="M89.615-351.7H64.066v-38.573H89.615Z" transform="translate(-66.893 387.447)"/></g><g class="ad" transform="translate(53.605 17.634)"><path class="ae" d="M85.557-362.48H78.491v-7.267h7.066Z" transform="translate(-81.318 366.92)"/></g><g class="af" transform="translate(60.107 17.54)"><path class="ae" d="M74.132-362.776H67.16v-7.138h6.972Z" transform="translate(-69.987 367.087)"/></g><g transform="translate(52.764 15.599)"><path class="ag" d="M0,.376,1.684,0" transform="translate(0)"/></g><g transform="translate(60.918 15.459)"><path class="ag" d="M1.7.279,0,0" transform="translate(0)"/></g><g class="ah" transform="translate(57.421 25.577)"><path class="ai" d="M77.822-348.819H69.469V-355.7h8.353Z" transform="translate(-72.296 352.875)"/></g><g transform="translate(58.507 18.293)"><path class="aj" d="M.692,0V.4A2.3,2.3,0,0,0,1.27,2.073C2.171,2.965,3.255,4.7,0,5.809" transform="translate(0)"/></g><g class="ak" transform="translate(61.771 23.288)"><path class="al" d="M71.165-349.758h-7v-9.992h7Z" transform="translate(-66.989 356.922)"/></g><g class="am" transform="translate(45.837 22.354)"><path class="an" d="M91.374-341.917H74V-361.4H91.374Z" transform="translate(-76.829 358.575)"/></g><g transform="translate(57.344 35.049)"><path class="ao" d="M0,0,.98,5.288" transform="translate(0)"/></g><g class="ap" transform="translate(47.457 15.118)"><path class="aq" d="M97.495-368.324h-5.68V-374.2h5.68Z" transform="translate(-94.642 371.369)"/></g><g transform="translate(51.843 17.045)"><path class="ar" d="M0,.607A3.407,3.407,0,0,0,6.814.642,3.321,3.321,0,0,0,6.756,0H.054A3.735,3.735,0,0,0,0,.607Z" transform="translate(0)"/></g><g transform="translate(59.63 17.045)"><path class="ar" d="M.054,0A3.717,3.717,0,0,0,0,.607a3.3,3.3,0,0,0,3.165,3.41A3.3,3.3,0,0,0,6.33.607,3.422,3.422,0,0,0,6.276,0Z" transform="translate(0)"/></g><g transform="translate(56.697 17.045)"><path class="ar" d="M0,.123H5.36" transform="translate(0 -0.123)"/></g><g transform="translate(45.279 15.096)"><path class="ar" d="M6.763,1.989,0,0"/></g><g class="as" transform="translate(40.046 7.342)"><path class="at" d="M104.486-370.735H90.849v-17.214h13.637Z" transform="translate(-93.677 385.121)"/></g><g class="au" transform="translate(62.704 5.885)"><path class="av" d="M67.839-375.715H58.654v-14.809h9.185Z" transform="translate(-61.481 387.697)"/></g><g class="aw" transform="translate(44.677)"><path class="at" d="M85.142-379.226H56.987v-21.7H85.142Z" transform="translate(-59.815 398.104)"/></g><g class="ax" transform="translate(47.73 5.269)"><path class="ay" d="M83.31-381.24H59.8v-10.375H83.31Z" transform="translate(-62.626 388.787)"/></g><g class="az" transform="translate(46.726 2.977)"><path class="ay" d="M86.386-384.591H64.566v-11.075h21.82Z" transform="translate(-67.394 392.839)"/></g><g class="ba" transform="translate(54.595 25.72)"><path class="a" d="M81.661-347.719H71.8v-7.731h9.858Z" transform="translate(-74.63 352.622)"/></g><g class="bb" transform="translate(45.053 15.042)"><path class="at" d="M87.893-348.627H64.183v-25.705h23.71Z" transform="translate(-67.01 371.504)"/></g><g class="bc" transform="translate(53.123 25.176)"><path class="bd" d="M83.694-347.9h-10.6v-8.51h10.6Z" transform="translate(-75.92 353.583)"/></g><g class="be" transform="translate(53.123 25.176)"><path class="a" d="M83.9-349.49H73.568v-6.921H83.9Z" transform="translate(-76.395 353.583)"/></g><g class="bf" transform="translate(67.813 41.383)"><path class="bg" d="M48.468-259.683H25.829v-68.069H48.468Z" transform="translate(-28.656 324.924)"/></g><g class="bh" transform="translate(35.54 33.579)"><path class="a" d="M91.482-264.668H50.549v-76.884H91.482Z" transform="translate(-53.377 338.724)"/></g><g class="bi" transform="translate(53.356 44.914)"><path class="bj" d="M73.711-256.575H50.652v-64.933H73.711Z" transform="translate(-53.48 318.68)"/></g><g class="bk" transform="translate(22.11 34.613)"><path class="bl" d="M125.114-255.67H97.045v-84.053h28.069Z" transform="translate(-99.872 336.895)"/></g><g class="bm" transform="translate(4.295 38.593)"><path class="bl" d="M151.258-257.259H116.215v-75.426h35.044Z" transform="translate(-119.042 329.857)"/></g><g class="bn" transform="translate(59.46 37.032)"><path class="ay" d="M59.772-255.64H32.62v-79.805H59.772Z" transform="translate(-35.448 332.618)"/></g><g class="bo" transform="translate(25.888 40.677)"><g class="bp" transform="translate(0)"><g class="bq" transform="translate(0.252 0.229)"><g class="br" transform="translate(-0.817 -0.229)"><path class="bs" d="M128.115-273.937H113.226V-328.6h14.889Z" transform="translate(-115.236 325.997)"/></g></g></g></g><g class="bo" transform="translate(68.301 48.029)"><g class="bt" transform="translate(0)"><g class="bu" transform="translate(0.109 0.52)"><g class="bv" transform="translate(-0.109 -0.52)"><path class="bs" d="M52.822-259.221,42.034-315.927,36.12-314.8,46.908-258.1Z" transform="translate(-39.318 313.141)"/></g></g></g></g></g></g></g></svg>