<svg xmlns="http://www.w3.org/2000/svg" xmlns:xlink="http://www.w3.org/1999/xlink" width="92" height="94" viewBox="0 0 92 94"><defs><style>.a{fill:#f1f4f9;}.b{fill:#1a477c;}.c{fill:#ffae97;}.d{fill:#031e58;}.e{fill:#162457;}.f{fill:#ff6700;}.g{fill:#19467c;}.h{fill:#fff;}.i{fill:none;stroke:#fff;stroke-miterlimit:10;}.j{filter:url(#a);}</style><filter id="a" x="0" y="0" width="92" height="94" filterUnits="userSpaceOnUse"><feOffset dy="3" input="SourceAlpha"/><feGaussianBlur stdDeviation="3" result="b"/><feFlood flood-color="#004596" flood-opacity="0.102"/><feComposite operator="in" in2="b"/><feComposite in="SourceGraphic"/></filter></defs><g transform="translate(-279 -828)"><g class="j" transform="matrix(1, 0, 0, 1, 279, 828)"><ellipse class="a" cx="37" cy="38" rx="37" ry="38" transform="translate(9 6)"/></g><g transform="translate(-2113.838 336.747)"><path class="b" d="M2516.464,534.86l-1.2,15.608s3.885-3.885,5.627-4.489.871-7.235.871-7.235l-2.88-3.617-.738-.871Z" transform="translate(-61.443 -18.542)"/><ellipse class="c" cx="3.82" cy="5.359" rx="3.82" ry="5.359" transform="translate(2417.438 529.699) rotate(-6.04)"/><path class="c" d="M2453.073,574.912l-3.553,2.009a12.953,12.953,0,0,1-7.9,1.528h0l-5.157-.6a12.6,12.6,0,0,1-7.037-3.213l-2.292-2.078a12.941,12.941,0,0,1-2.143-9.645l6.433-37.314,29.471,3.617-3.617,37.314A12.989,12.989,0,0,1,2453.073,574.912Z" transform="translate(-5.535 -13.19)"/><path class="d" d="M2425.548,599.191a10.56,10.56,0,0,0,2.88,4.29l1.146,1a13.05,13.05,0,0,0,7.1,3.014l5.161.6h0a12.986,12.986,0,0,0,7.9-1.528l3.549-2.009a12.661,12.661,0,0,0,4.2-8.373l1.811-20.3.065-1.811-3.617,14.271a5.294,5.294,0,0,1-5.894,4.351l-16.063-1.971a5.39,5.39,0,0,1-4.687-5.894l.47-10.921-1.475-.466-3.083,19.192A12.767,12.767,0,0,0,2425.548,599.191Z" transform="translate(-5.545 -42.768)"/><ellipse class="e" cx="1.539" cy="1.207" rx="1.539" ry="1.207" transform="translate(2442.276 538.295) rotate(-83.04)"/><ellipse class="e" cx="1.539" cy="1.207" rx="1.539" ry="1.207" transform="translate(2432.784 537.156) rotate(-83.04)"/><path class="f" d="M2470.914,598.162l-.073-.348c1.75-.351,2.831-1.062,3.2-2.109.764-2.086-1.474-4.878-1.5-4.9l-.046-.061.344-2.754.352.046-.329,2.605c.344.439,2.292,3.056,1.528,5.188C2473.958,597,2472.782,597.784,2470.914,598.162Z" transform="translate(-33.992 -51.747)"/><rect class="g" width="0.355" height="4.068" transform="matrix(0.296, -0.955, 0.955, 0.296, 2443.101, 531.792)"/><rect class="g" width="4.026" height="0.355" transform="translate(2431.723 530.964) rotate(-3.81)"/><path class="d" d="M2435.829,520.653c3.484,2.292,7.3,4.152,11.391,4.424,5.558.4,10.849-1.944,15.876-4.221a7.031,7.031,0,0,1,2.613-.806,2.85,2.85,0,0,1,2.475.94,3.333,3.333,0,0,1,.539,2.009,8.573,8.573,0,0,1-4.691,7.7c0,.8-.064,1.673-.064,2.475a9.62,9.62,0,0,0,2.292-.936,12.821,12.821,0,0,0,4.821-4.825,15.653,15.653,0,0,0,1.409-10.314,38.819,38.819,0,0,0-3.484-10.05,5.492,5.492,0,0,0-1.146-1.807,4.271,4.271,0,0,0-4.29-.737,18.338,18.338,0,0,0-4.019,2.078,8.013,8.013,0,0,1-4.221,1.471,8.49,8.49,0,0,1-2.292-.382q-2.212-.6-4.42-1.406a14.357,14.357,0,0,0-2.88-.806,8.743,8.743,0,0,0-5.428,1.41,25.341,25.341,0,0,0-4.355,3.682c-1.069,1-2.074,2.078-3.147,3.083a1.246,1.246,0,0,0-.466.8,1.4,1.4,0,0,0,.268.737q1.8,3.014,3.617,6.028" transform="translate(-10.199 0)"/><path class="d" d="M2446.921,617.321s10.853-3.148,18.558,2.674l-5.161,2.414-5.157,1.337-5.761-1.528Z" transform="translate(-19.209 -69.351)"/><path class="h" d="M2446.314,584.67a6.649,6.649,0,0,1-.871-.057,6.932,6.932,0,0,1-4.641-2.651,6.757,6.757,0,0,1-1.371-5.023h0a8.493,8.493,0,0,1,.275-1.238l.057-.164,13.324,1.646.027.157a3.769,3.769,0,0,1,0,1.276,6.918,6.918,0,0,1-2.651,4.634A6.776,6.776,0,0,1,2446.314,584.67ZM2439.85,577a6.342,6.342,0,0,0,1.287,4.706,6.494,6.494,0,0,0,4.358,2.491,6.33,6.33,0,0,0,4.707-1.291,6.494,6.494,0,0,0,2.49-4.355,3.429,3.429,0,0,0,.023-.989l-12.656-1.578A8.643,8.643,0,0,0,2439.85,577Z" transform="translate(-14.545 -44.053)"/><path class="h" d="M2485.094,589.418A6.081,6.081,0,0,1,2480.25,587a6.9,6.9,0,0,1-1.146-6.41l.053-.164,12.488,1.528v.187a7.206,7.206,0,0,1-.073,1.242A6.732,6.732,0,0,1,2485.094,589.418Zm-5.619-8.53a6.814,6.814,0,0,0-.207.944,6.62,6.62,0,0,0,1.318,4.9,5.728,5.728,0,0,0,3.854,2.216,6.279,6.279,0,0,0,6.731-5.642,5.756,5.756,0,0,0,.065-.989Z" transform="translate(-38.889 -47.075)"/><rect class="h" width="0.424" height="10.463" transform="translate(2434.666 533.064) rotate(-83.01)"/><path class="d" d="M2428.311,533.526a6.338,6.338,0,0,0-1.146,4.622,12.482,12.482,0,0,1,.2,1.528c0,1.406-.936,2.613-1.608,3.885a9.04,9.04,0,0,0-.936,3.484,7.6,7.6,0,0,1-.267,2.143c-.267.669-.806,1.341-1.528,1.341.2-1-.271-4.152-1.146-4.622a2.318,2.318,0,0,0-3.148,1.07,10.28,10.28,0,0,0-1.341-8.706,7.475,7.475,0,0,1-1.528-3.014c-.267-2.078,1.742-3.617,3.484-4.691.871-.6,2.009-1.207,3.014-.8a3.567,3.567,0,0,1,1.341,1.146,13.028,13.028,0,0,0,4.622,3.213" transform="translate(0 -15.684)"/><path class="i" d="M2458.562,622.636s-.533,3.2,3.781,4.13c3.092.667,4.968-2.4,4.968-2.4" transform="translate(-26.391 -73.161)"/></g><g transform="matrix(0.966, 0.259, -0.259, 0.966, -7216.343, -1967.074)"><g transform="translate(7990.697 807.503)"><path class="c" d="M150.12,87.18h-7.738c-2.02,0-7.341-2.614-7.341-5.721V74.245c0-.556,1.535-3.955,4-3.955,2.41,0,3.359-1.845,3.359-4.255V62.007A1.007,1.007,0,0,1,143.407,61a3.558,3.558,0,0,1,3.558,3.558v4.5h3.155a1.007,1.007,0,0,1,1.007,1.007V86.173A1.007,1.007,0,0,1,150.12,87.18Z" transform="translate(-135.041 -61)"/><path class="c" d="M351.146,253.031H342V248.5h9.146a2.266,2.266,0,0,1,0,4.531Z" transform="translate(-327.928 -235.913)"/><path class="c" d="M342,181h7.8a2.266,2.266,0,0,1,0,4.531H342Z" transform="translate(-327.928 -172.945)"/></g><path class="c" d="M348.461,388.031H342V383.5h6.461a2.266,2.266,0,0,1,0,4.531Z" transform="translate(7662.769 445.652)"/><path class="c" d="M349.8,320.531H342V316h7.8a2.266,2.266,0,0,1,0,4.531Z" transform="translate(7662.769 508.621)"/></g></g></svg>