<svg xmlns="http://www.w3.org/2000/svg" width="144" height="33" viewBox="0 0 144 33">
  <g id="Grupo_24290" data-name="Grupo 24290" transform="translate(-44 -74)">
    <path id="Rectángulo_5882" data-name="Rectángulo 5882" d="M10,0H144a0,0,0,0,1,0,0V23a10,10,0,0,1-10,10H0a0,0,0,0,1,0,0V10A10,10,0,0,1,10,0Z" transform="translate(44 74)" fill="#00aded"/>
    <path id="Trazado_22292" data-name="Trazado 22292" d="M2.94,10.484c0,.372.18.564.528.564h.168a.5.5,0,0,0,.552-.564V4.34H6.312a.492.492,0,0,0,.564-.528v-.06c0-.336-.192-.516-.564-.516H.816c-.372,0-.576.18-.576.516v.06c0,.336.2.528.576.528H2.94Zm3.48-2.34a2.869,2.869,0,0,0,3.048,3.012,3.415,3.415,0,0,0,1.824-.468,1.156,1.156,0,0,0,.636-.84c0-.5-.6-.612-.624-.588a1.9,1.9,0,0,1-1.812.96A1.875,1.875,0,0,1,7.548,8.648a1.322,1.322,0,0,1-.024-.216h4.26c.276,0,.36-.1.36-.348v-.1a2.688,2.688,0,0,0-2.772-2.9A2.925,2.925,0,0,0,6.42,8.144Zm4.572-.516H7.536A1.841,1.841,0,0,1,9.36,5.984,1.585,1.585,0,0,1,10.992,7.628Zm8.5.792a1.405,1.405,0,0,1-1.476,1.392,1.554,1.554,0,0,1-1.5-1.716,1.53,1.53,0,0,1,1.524-1.728,1.485,1.485,0,0,1,1.452.936Zm0-2.52a2.227,2.227,0,0,0-1.872-.888A2.759,2.759,0,0,0,14.88,8.084a2.775,2.775,0,0,0,2.712,3.072,2.091,2.091,0,0,0,1.9-1.1v.192c0,.624.312.8.768.8h.18c.432,0,.744-.192.744-.8V4.016c0-1.092-.552-1.356-1.056-1.356-.336,0-.636.132-.636.192Zm4.188,1.644a1.5,1.5,0,0,1,1.5-1.356,1.307,1.307,0,0,1,1.368,1.356Zm0,.984h4.032c.312,0,.4-.168.408-.468V7.94A2.794,2.794,0,0,0,25.2,5.012,2.989,2.989,0,0,0,22.14,8.12a2.915,2.915,0,0,0,3.168,3.036c1.632,0,2.532-.708,2.532-1.332,0-.684-.8-.792-.816-.768a1.773,1.773,0,0,1-1.656.864A1.577,1.577,0,0,1,23.676,8.528ZM30.42,5.936c-.216-.672-.552-.852-.96-.852-.5,0-.948.4-.912.492l2.124,5.064c.144.348.54.432.948.432a.952.952,0,0,0,.948-.444l2.1-5.052c.036-.1-.4-.492-.912-.492-.36,0-.708.18-.924.852L31.608,9.452Zm7.812,5.22A2.936,2.936,0,0,0,41.364,8.1a3.126,3.126,0,0,0-6.252-.012A2.935,2.935,0,0,0,38.232,11.156Zm.012-1.332A1.641,1.641,0,0,1,36.6,8.084a1.642,1.642,0,1,1,3.276.012A1.635,1.635,0,0,1,38.244,9.824Zm4.908,1.224h.18c.432,0,.744-.192.744-.8V4.016c0-1.092-.552-1.356-1.056-1.356-.336,0-.636.132-.636.192v7.392C42.384,10.868,42.708,11.048,43.152,11.048Zm3.612-5.112c-.216-.672-.552-.852-.96-.852-.5,0-.948.4-.912.492l2.124,5.064c.144.348.54.432.948.432a.952.952,0,0,0,.948-.444l2.1-5.052c.036-.1-.4-.492-.912-.492-.36,0-.708.18-.924.852L47.952,9.452Zm6.228,1.608a1.5,1.5,0,0,1,1.5-1.356A1.307,1.307,0,0,1,55.86,7.544Zm0,.984h4.032c.312,0,.4-.168.408-.468V7.94a2.794,2.794,0,0,0-2.916-2.928,2.989,2.989,0,0,0-3.06,3.108,2.915,2.915,0,0,0,3.168,3.036c1.632,0,2.532-.708,2.532-1.332,0-.684-.8-.792-.816-.768a1.773,1.773,0,0,1-1.656.864A1.577,1.577,0,0,1,52.992,8.528ZM60.024,6.02A.971.971,0,0,0,59,5.084a.938.938,0,0,0-.636.192v4.968c0,.624.312.8.768.8h.18c.432,0,.744-.192.744-.8v-3.1a1.367,1.367,0,0,1,1.164-.72q1.008,0,1.008,1.224v2.592c0,.624.324.8.768.8h.18c.432,0,.744-.192.744-.8v-3.1a1.367,1.367,0,0,1,1.164-.72c.672,0,1.02.408,1.02,1.188v2.628c0,.624.312.8.768.8h.168c.444,0,.756-.192.756-.8V7.34c0-1.38-.624-2.328-2.112-2.328a2.206,2.206,0,0,0-1.98,1.2,1.828,1.828,0,0,0-1.872-1.2A2.1,2.1,0,0,0,60.024,6.02Zm11.8,5.136A2.936,2.936,0,0,0,74.952,8.1,3.126,3.126,0,0,0,68.7,8.084,2.935,2.935,0,0,0,71.82,11.156Zm.012-1.332a1.641,1.641,0,0,1-1.644-1.74,1.642,1.642,0,1,1,3.276.012A1.635,1.635,0,0,1,71.832,9.824Zm6.24,1.308c1.608,0,2.58-.72,2.58-1.9,0-1.332-1.332-1.608-2.16-1.788-.792-.168-1.248-.24-1.248-.66,0-.372.36-.576,1-.576a2.315,2.315,0,0,1,1.716.78.864.864,0,0,0,.54-.72c0-.672-.78-1.248-2.364-1.248-1.488,0-2.448.756-2.448,1.9,0,1.332,1.26,1.6,2.064,1.776s1.26.24,1.26.684c0,.372-.372.564-1.032.564a2.619,2.619,0,0,1-1.932-.78.806.806,0,0,0-.516.7C75.528,10.532,76.356,11.132,78.072,11.132ZM84.9,7.544a1.5,1.5,0,0,1,1.5-1.356,1.307,1.307,0,0,1,1.368,1.356Zm0,.984h4.032c.312,0,.4-.168.408-.468V7.94a2.794,2.794,0,0,0-2.916-2.928,2.989,2.989,0,0,0-3.06,3.108,2.915,2.915,0,0,0,3.168,3.036c1.632,0,2.532-.708,2.532-1.332,0-.684-.8-.792-.816-.768a1.773,1.773,0,0,1-1.656.864A1.577,1.577,0,0,1,84.9,8.528Zm6.192,2.52h.18c.432,0,.744-.192.744-.8V4.016c0-1.092-.552-1.356-1.056-1.356-.336,0-.636.132-.636.192v7.392C90.324,10.868,90.648,11.048,91.092,11.048Zm8.58-2.628A1.405,1.405,0,0,1,98.2,9.812,1.554,1.554,0,0,1,96.7,8.1,1.53,1.53,0,0,1,98.22,6.368a1.485,1.485,0,0,1,1.452.936Zm0-2.52A2.227,2.227,0,0,0,97.8,5.012a2.759,2.759,0,0,0-2.736,3.072,2.775,2.775,0,0,0,2.712,3.072,2.091,2.091,0,0,0,1.9-1.1v.192c0,.624.312.8.768.8h.18c.432,0,.744-.192.744-.8V4.016c0-1.092-.552-1.356-1.056-1.356-.336,0-.636.132-.636.192Zm5.772,5.256a2.936,2.936,0,0,0,3.132-3.06,3.126,3.126,0,0,0-6.252-.012A2.935,2.935,0,0,0,105.444,11.156Zm.012-1.332a1.641,1.641,0,0,1-1.644-1.74,1.642,1.642,0,1,1,3.276.012A1.635,1.635,0,0,1,105.456,9.824Zm5.784-2.5a1.552,1.552,0,0,1,2.976.768A1.536,1.536,0,0,1,112.7,9.812a1.4,1.4,0,0,1-1.464-1.4Zm0,2.82a2.09,2.09,0,0,0,1.872,1.008,2.789,2.789,0,0,0,2.736-3.084,2.745,2.745,0,0,0-2.712-3.06,2.239,2.239,0,0,0-1.9.96V4.016c0-1.092-.552-1.356-1.056-1.356-.336,0-.636.132-.636.192v7.392c0,.624.312.8.768.8h.18c.432,0,.744-.192.744-.8Zm6.384.9h.18c.432,0,.744-.192.744-.8V4.016c0-1.092-.552-1.356-1.056-1.356-.336,0-.636.132-.636.192v7.392C116.856,10.868,117.18,11.048,117.624,11.048Zm3.468-3.5a1.5,1.5,0,0,1,1.5-1.356,1.307,1.307,0,0,1,1.368,1.356Zm0,.984h4.032c.312,0,.4-.168.408-.468V7.94a2.794,2.794,0,0,0-2.916-2.928,2.989,2.989,0,0,0-3.06,3.108,2.915,2.915,0,0,0,3.168,3.036c1.632,0,2.532-.708,2.532-1.332,0-.684-.8-.792-.816-.768a1.773,1.773,0,0,1-1.656.864A1.577,1.577,0,0,1,121.092,8.528ZM3.936,15.084a2.3,2.3,0,0,0-2.028,1.08,2.046,2.046,0,0,0-.036-.336.688.688,0,0,0-.708-.66.59.59,0,0,0-.432.132v7.488c0,.432.216.564.528.564h.132c.3,0,.528-.132.528-.564V20.076a2.229,2.229,0,0,0,1.98,1.08,2.777,2.777,0,0,0,2.736-3.048A2.744,2.744,0,0,0,3.936,15.084Zm-.252,5.088A1.724,1.724,0,0,1,1.908,18.48V17.268a1.853,1.853,0,0,1,3.576.852A1.834,1.834,0,0,1,3.684,20.172ZM7.4,18.108a2.9,2.9,0,0,0,3.024,3.048,2.9,2.9,0,0,0,3.024-3.024,2.915,2.915,0,0,0-3.012-3.048A2.908,2.908,0,0,0,7.4,18.108Zm4.944.024a1.936,1.936,0,0,1-1.92,2.052A1.96,1.96,0,0,1,8.5,18.108a1.931,1.931,0,1,1,3.852.024Zm4.86-3.048a1.461,1.461,0,0,0-1.464,1.092,2.153,2.153,0,0,0-.048-.432.679.679,0,0,0-.7-.576.59.59,0,0,0-.432.132v5.184c0,.432.216.564.528.564h.132c.3,0,.528-.132.528-.564V18.456c0-1.332.372-2.244,1.308-2.244a1.118,1.118,0,0,1,.732.252.591.591,0,0,0,.36-.612C18.156,15.372,17.808,15.084,17.208,15.084Zm3.276,3.024a2.919,2.919,0,0,0,3,3.048,2.849,2.849,0,0,0,1.872-.6,1.418,1.418,0,0,0,.6-.984c0-.516-.672-.6-.708-.54a1.722,1.722,0,0,1-1.74,1.128,1.918,1.918,0,0,1-1.9-2.052,1.911,1.911,0,0,1,1.9-2.028,1.712,1.712,0,0,1,1.74,1.128c.036.06.708-.036.708-.528a1.436,1.436,0,0,0-.588-1,2.885,2.885,0,0,0-1.884-.6A2.919,2.919,0,0,0,20.484,18.108Zm6.2,1.38c0,.984.732,1.644,1.968,1.644a2.5,2.5,0,0,0,2.076-1,1.785,1.785,0,0,0,.048.4.644.644,0,0,0,.684.528c.216,0,.432-.072.432-.132v-3.54c0-1.464-.888-2.3-2.52-2.3a3.064,3.064,0,0,0-2.076.66,1.048,1.048,0,0,0-.4.72c0,.576.732.588.732.576a1.744,1.744,0,0,1,1.656-.984,1.255,1.255,0,0,1,1.428,1.356v.12h-.156C27.96,17.58,26.688,18.156,26.688,19.488Zm4.032-.768a1.617,1.617,0,0,1-1.776,1.56c-.684,0-1.092-.324-1.092-.84,0-.78.864-1.092,2.544-1.152l.324-.012Zm4.932,2.436A2.308,2.308,0,0,0,37.68,20.04v.444c0,.432.216.564.528.564h.12c.312,0,.528-.132.528-.564V13.776c0-.828-.384-1.02-.756-1.02a.617.617,0,0,0-.432.132v3.144a2.33,2.33,0,0,0-1.98-.948,2.76,2.76,0,0,0-2.736,3.036A2.761,2.761,0,0,0,35.652,21.156ZM37.68,18.48a1.738,1.738,0,0,1-1.8,1.692A1.857,1.857,0,0,1,34.1,18.12a1.828,1.828,0,0,1,1.8-2.052,1.8,1.8,0,0,1,1.776,1.188Zm2.3,1.008c0,.984.732,1.644,1.968,1.644a2.5,2.5,0,0,0,2.076-1,1.785,1.785,0,0,0,.048.4.644.644,0,0,0,.684.528c.216,0,.432-.072.432-.132v-3.54c0-1.464-.888-2.3-2.52-2.3a3.064,3.064,0,0,0-2.076.66,1.048,1.048,0,0,0-.4.72c0,.576.732.588.732.576a1.744,1.744,0,0,1,1.656-.984,1.255,1.255,0,0,1,1.428,1.356v.12H43.86C41.256,17.58,39.984,18.156,39.984,19.488Zm4.032-.768a1.617,1.617,0,0,1-1.776,1.56c-.684,0-1.092-.324-1.092-.84,0-.78.864-1.092,2.544-1.152l.324-.012Zm4.656,1.92a3.447,3.447,0,0,0,1.98.5c1.488,0,2.4-.708,2.4-1.812,0-1.248-1.236-1.512-2.124-1.7-.936-.2-1.44-.324-1.44-.852,0-.48.432-.792,1.248-.792a2.087,2.087,0,0,1,1.692.816.631.631,0,0,0,.48-.552.7.7,0,0,0-.144-.408,2.463,2.463,0,0,0-2.076-.756c-1.4,0-2.3.732-2.3,1.812,0,1.224,1.176,1.488,2.028,1.668.948.2,1.488.312,1.488.9,0,.48-.456.78-1.272.78a2.376,2.376,0,0,1-1.944-.864.607.607,0,0,0-.468.54A.947.947,0,0,0,48.672,20.64Zm5.184-2.532a3.024,3.024,0,1,0,6.048.024,3.024,3.024,0,1,0-6.048-.024Zm4.944.024a1.936,1.936,0,0,1-1.92,2.052,1.96,1.96,0,0,1-1.932-2.076,1.931,1.931,0,1,1,3.852.024Zm2.808,2.916h.12c.312,0,.528-.132.528-.564V13.776c0-.828-.384-1.02-.756-1.02a.617.617,0,0,0-.432.132v7.6C61.068,20.916,61.3,21.048,61.608,21.048Zm4.164-7.668a.643.643,0,0,0,.708.684.69.69,0,1,0,.012-1.38A.65.65,0,0,0,65.772,13.38Zm.1,7.1c0,.432.228.564.54.564h.12c.312,0,.528-.132.528-.564v-4.74c0-.444-.216-.576-.528-.576h-.12c-.312,0-.54.144-.54.576Zm5.808-5.4a2.239,2.239,0,0,0-1.92,1.02c-.024-.768-.42-.936-.744-.936a.59.59,0,0,0-.432.132v5.184c0,.432.216.564.528.564h.132c.3,0,.528-.132.528-.564V17.136a1.744,1.744,0,0,1,1.62-1.008c.84,0,1.332.6,1.332,1.572v2.784c0,.432.216.564.528.564h.132c.3,0,.528-.132.528-.564V17.556C73.908,16.128,73.2,15.084,71.676,15.084Zm5.184,5.64c.108.264.312.348.72.348.384,0,.624-.108.732-.372l2.1-5.184c.024-.06-.24-.348-.612-.348-.3,0-.528.144-.732.708l-1.5,4.068-1.452-4.068c-.2-.564-.42-.708-.756-.708-.384,0-.648.276-.624.348Zm3.972-2.58a2.869,2.869,0,0,0,3.048,3.012,3.415,3.415,0,0,0,1.824-.468,1.156,1.156,0,0,0,.636-.84c0-.5-.6-.612-.624-.588a1.9,1.9,0,0,1-1.812.96,1.875,1.875,0,0,1-1.944-1.572,1.322,1.322,0,0,1-.024-.216H86.2c.276,0,.36-.1.36-.348v-.1a2.688,2.688,0,0,0-2.772-2.9A2.925,2.925,0,0,0,80.832,18.144Zm4.572-.516H81.948a1.841,1.841,0,0,1,1.824-1.644A1.585,1.585,0,0,1,85.4,17.628Zm4.9-2.544a1.461,1.461,0,0,0-1.464,1.092,2.152,2.152,0,0,0-.048-.432.679.679,0,0,0-.7-.576.59.59,0,0,0-.432.132v5.184c0,.432.216.564.528.564h.132c.3,0,.528-.132.528-.564V18.456c0-1.332.372-2.244,1.308-2.244a1.118,1.118,0,0,1,.732.252.591.591,0,0,0,.36-.612C91.248,15.372,90.9,15.084,90.3,15.084Zm3.984,6.072a1.623,1.623,0,0,0,1.092-.348.712.712,0,0,0,.252-.528c0-.372-.3-.54-.336-.5a.977.977,0,0,1-.816.408c-.564,0-.768-.348-.768-1.068V16.2h1.308c.372,0,.516-.156.516-.456V15.66c0-.288-.132-.432-.5-.432H93.72V14.34c0-.444-.2-.564-.516-.564h-.12c-.324,0-.528.156-.528.564v.888h-.42c-.372,0-.516.156-.516.444v.084c0,.288.144.444.516.444h.42v3.048C92.556,20.5,93.1,21.156,94.284,21.156Zm2.244-7.776a.643.643,0,0,0,.708.684.69.69,0,1,0,.012-1.38A.65.65,0,0,0,96.528,13.38Zm.1,7.1c0,.432.228.564.54.564h.12c.312,0,.528-.132.528-.564v-4.74c0-.444-.216-.576-.528-.576h-.12c-.312,0-.54.144-.54.576Zm5.064.672a2.308,2.308,0,0,0,2.028-1.116v.444c0,.432.216.564.528.564h.12c.312,0,.528-.132.528-.564V13.776c0-.828-.384-1.02-.756-1.02a.617.617,0,0,0-.432.132v3.144a2.33,2.33,0,0,0-1.98-.948,2.76,2.76,0,0,0-2.736,3.036A2.761,2.761,0,0,0,101.688,21.156Zm2.028-2.676a1.738,1.738,0,0,1-1.8,1.692,1.857,1.857,0,0,1-1.776-2.052,1.828,1.828,0,0,1,1.8-2.052,1.8,1.8,0,0,1,1.776,1.188Zm2.292-.372a3.024,3.024,0,1,0,6.048.024,3.024,3.024,0,1,0-6.048-.024Zm4.944.024a1.936,1.936,0,0,1-1.92,2.052,1.96,1.96,0,0,1-1.932-2.076,1.931,1.931,0,1,1,3.852.024Z" transform="translate(53 79)" fill="#fff"/>
  </g>
</svg>
