<svg xmlns="http://www.w3.org/2000/svg" width="39.73" height="39.73" viewBox="0 0 39.73 39.73">
  <g id="Grupo_23078" data-name="Grupo 23078" transform="translate(-649.664 -3089.359)">
    <g id="Grupo_23038" data-name="Grupo 23038" transform="translate(649.664 3089.359)">
      <g id="Grupo_17406" data-name="Grupo 17406" transform="translate(0 0)">
        <circle id="Elipse_1150" data-name="Elipse 1150" cx="19.865" cy="19.865" r="19.865" fill="#00aef0"/>
      </g>
    </g>
    <g id="Grupo_23039" data-name="Grupo 23039" transform="translate(659.895 3098.263)">
      <g id="Grupo_3687" data-name="Grupo 3687" transform="translate(0 0)">
        <path id="Trazado_5527" data-name="Trazado 5527" d="M883.746,2009.511a1.493,1.493,0,0,1-.455-.072,13.319,13.319,0,0,1-9.179-12.814v-3.809a2.473,2.473,0,0,1,1.835-2.413l7.8-2.815,7.8,2.815a2.473,2.473,0,0,1,1.835,2.413v3.809a13.32,13.32,0,0,1-9.178,12.814A1.487,1.487,0,0,1,883.746,2009.511Zm0-19.615-7.238,2.605a.314.314,0,0,0-.226.315v3.809a7.947,7.947,0,1,0,14.927,0v-3.809a.314.314,0,0,0-.226-.315l-.124-.037Z" transform="translate(-874.112 -1987.588)" fill="#fff"/>
      </g>
      <g id="Grupo_3690" data-name="Grupo 3690" transform="translate(4.848 6.537)">
        <path id="Trazado_5530" data-name="Trazado 5530" d="M886.428,2006.9l-3.382-3.865,1.633-1.43,1.91,2.183,4.473-4.154,1.477,1.591Z" transform="translate(-883.046 -1999.634)" fill="#fff"/>
      </g>
    </g>
  </g>
</svg>
