<svg xmlns="http://www.w3.org/2000/svg" width="39.508" height="39.501" viewBox="0 0 39.508 39.501">
  <g id="Grupo_20438" data-name="Grupo 20438" transform="translate(-139.556 -58.555)">
    <path id="Trazado_17480" data-name="Trazado 17480" d="M99.719,117.609H82.972a1.194,1.194,0,0,1-1.159-1.482l.86-3.455a5.493,5.493,0,0,1,3.618-3.9l6.395-2.132c.737-.309,1.24-1.566,1.323-3.386-.86-.8-2.3-2.4-2.3-4.125a1.18,1.18,0,0,0-.049-.377,1.189,1.189,0,0,1-.581-.629,11.241,11.241,0,0,1-.8-3.324,1.234,1.234,0,0,1,.033-.285,2.333,2.333,0,0,1,.705-1.186c.008-.142.016-.295.024-.457.041-.782.1-1.823.1-3.119,0-3.131,3.671-7.96,8.549-7.96,4.114,0,6.209,2.16,6.7,3.7.989.583,1.929,1.619,1.929,4.262v3.59a2.45,2.45,0,0,1,.718,1.078,1.181,1.181,0,0,1,.062.379l-1.3.035-1.028.344a.753.753,0,0,0,.352.1,1.194,1.194,0,0,1-1.194-1.194v-4.33c0-1.832-.508-2.089-.845-2.257a1.516,1.516,0,0,1-.969-1.344c-.061-.256-1.154-1.974-4.426-1.974-3.5,0-6.161,3.714-6.161,5.572,0,1.348-.056,2.431-.1,3.244-.024.452-.043.815-.043,1.086a1.194,1.194,0,0,1-.686,1.081,10.5,10.5,0,0,0,.466,1.716,2.757,2.757,0,0,1,.936,2.249,4.839,4.839,0,0,0,1.878,2.679,1.2,1.2,0,0,1,.431.919c0,3.193-1.025,5.378-2.886,6.15l-6.478,2.163a3.116,3.116,0,0,0-2.054,2.216l-.492,1.968H99.719Zm-7.84-18.779h0A0,0,0,0,1,91.879,98.831Zm0,0" transform="translate(58.033 -22.987)" fill="#0855c4" stroke="#fff" stroke-width="0.5"/>
    <path id="Trazado_17481" data-name="Trazado 17481" d="M262.394,247.086a1.2,1.2,0,0,1-.465-.094c-.387-.164-9.485-4.1-9.485-12.186v-6.653a1.192,1.192,0,0,1,.812-1.13l8.756-2.956a1.185,1.185,0,0,1,.764,0l8.756,2.956a1.193,1.193,0,0,1,.812,1.13v6.653c0,8.09-9.1,12.024-9.485,12.186A1.205,1.205,0,0,1,262.394,247.086Zm-7.562-18.075v5.795c0,5.6,5.847,8.917,7.56,9.768,1.711-.856,7.563-4.192,7.563-9.768v-5.795l-7.562-2.553Z" transform="translate(-93.53 -149.281)" fill="#00aded" stroke="#fff" stroke-width="0.5"/>
    <path id="Trazado_17482" data-name="Trazado 17482" d="M301.561,298.739c-.022,0-.043,0-.065,0a1.2,1.2,0,0,1-.868-.446l-3.184-3.98,1.866-1.493,2.351,2.939,4.628-4.628,1.689,1.689-5.572,5.572a1.2,1.2,0,0,1-.845.349Z" transform="translate(-133.492 -208.892)" fill="#0855c4" stroke="#fff" stroke-width="0.5"/>
  </g>
</svg>
