<svg xmlns="http://www.w3.org/2000/svg" xmlns:xlink="http://www.w3.org/1999/xlink" width="220.962" height="195.374" viewBox="0 0 220.962 195.374"><defs><style>.a,.ag,.f{fill:none;}.b{fill:#ffaf97;}.c{fill:#00aef0;}.d{fill:#f4876e;}.e{fill:#000061;}.f{stroke:#000061;}.ag,.f{stroke-miterlimit:10;}.g{fill:#162a42;}.h{fill:#cee2ff;}.i{clip-path:url(#a);}.j{fill:#031f59;}.k{fill:#f56c72;}.l{fill:#e0585e;}.m{fill:#d93c64;}.n{fill:#ea0c90;}.o{fill:#efeaea;}.p{fill:#003aa0;}.q{fill:#175ec6;}.r{clip-path:url(#b);}.s{fill:#422645;}.t{fill:#de4343;}.u{fill:#00adef;}.v{fill:#32436d;}.w{clip-path:url(#c);}.x{fill:#d3cbcb;}.y{fill:#5d5e75;}.z{fill:#f9858e;}.aa{fill:#ff409e;}.ab{fill:#ef0a82;}.ac{clip-path:url(#d);}.ad{fill:#ffc422;}.ae{fill:#fff;}.af{fill:#d8d8d8;}.ag{stroke:#fff;stroke-width:2px;}</style><clipPath id="a"><rect class="a" width="49.691" height="42.261" rx="3.505"/></clipPath><clipPath id="b"><rect class="a" width="49.691" height="42.261"/></clipPath><clipPath id="c"><rect class="a" width="48.876" height="41.567" rx="3.505"/></clipPath><clipPath id="d"><rect class="a" width="48.437" height="41.194" rx="3.505"/></clipPath></defs><g transform="translate(-101.372 -53.364)"><path class="b" d="M1490.579,338.517s3.271,9.814-1.963,15.7L1486,364.032l9.813,11.122,26.169-3.925,6.542-17.664s-11.745-6.3-10.126-34.882l-27.82,10.022Z" transform="translate(-1351.916 -147.843)"/><path class="c" d="M1472.984,369.151s-25.862-1.412-36.984,26.066c0,0,33.366,43.179,110.565-1.308,0,0-7.766-24.679-37.576-24.77C1508.99,369.139,1480.526,412.434,1472.984,369.151Z" transform="translate(-1334.628 -165.289)"/><path class="d" d="M1494.214,349.564,1513.7,340s-4.3,18.448-19.487,15.439C1494.214,355.439,1494.355,349.316,1494.214,349.564Z" transform="translate(-1354.756 -155.214)"/><ellipse class="b" cx="23.225" cy="31.403" rx="23.225" ry="31.403" transform="translate(120.672 132.12)"/><path class="e" d="M1504.28,281.464c-2.571,1.437-5.673-.6-7.572-2.92s-3.583-5.195-6.374-6.063a25.469,25.469,0,0,0-4.521-.463,9.974,9.974,0,0,1-6.825-4.156c-1.49,4.059-6.162,5.652-10.287,5.888-5.776.331-12.139-1.344-15.522-6.286-2-2.921-2.7-6.586-3.242-10.142a18.481,18.481,0,0,1-.286-4.729,13.451,13.451,0,0,1,1.985-5.413A24.584,24.584,0,0,1,1468.823,236c7.744-1.25,16.156,1.017,21.7,6.85a2.163,2.163,0,0,0,1.273.839,2.039,2.039,0,0,0,1.168-.435c3.36-2.109,7.269-3.872,11.093-3.006,5.588,1.267,8.86,7.938,8.478,13.944a3.7,3.7,0,0,0,.364,2.474,3.4,3.4,0,0,0,1.579.945c6.494,2.572,10.263,11.023,8,17.928-.8,2.421-2.215,4.633-2.58,7.165a23.518,23.518,0,0,1-.434,3.388c-.969,3.255-5.026,4.487-8.1,3.4s-5.351-3.76-7.48-6.33" transform="translate(-1339.327 -119.14)"/><ellipse class="b" cx="6.497" cy="4.907" rx="6.497" ry="4.907" transform="translate(159.313 165.238) rotate(-24.797)"/><ellipse class="e" cx="1.308" cy="1.963" rx="1.308" ry="1.963" transform="translate(129.177 164.832)"/><ellipse class="e" cx="1.308" cy="1.963" rx="1.308" ry="1.963" transform="translate(145.206 165.159)"/><path class="f" d="M1488.308,310s3.271,5.234-1.308,12.43l4.968,1.587" transform="translate(-1352.262 -144.841)"/><path class="f" d="M1492.5,338.29s1.308-1.309,5.561-2.29" transform="translate(-1354.164 -153.831)"/><path class="e" d="M1458.345,280.482s-13.024-6.544-8.6-20.882l9.661-.6v12.43Z" transform="translate(-1339.064 -127.207)"/><path class="b" d="M1462.252,394.575s-2.687-18.794-1.373-26.548,11.761-23.548,14.934-21.779-3.78,14.258-3.78,14.258,10.358,4.969,11.362,8.559-8.155,12.022-8.786,15.508a121.854,121.854,0,0,0-.794,12.489Z" transform="translate(-1343.105 -157.327)"/><path class="g" d="M1481.309,400.314a9.733,9.733,0,0,1-5.471,5.488c-.577.2-.211,1.1.364.88a10.766,10.766,0,0,0,5.957-5.94C1482.414,400.185,1481.564,399.756,1481.309,400.314Z" transform="translate(-1348.302 -175.978)"/><path class="g" d="M1488.591,374.038c-.621-1.413-2.013-1.5-3.354-1.634-1.408-.144-2.09-1.217-2.958-2.182a4.02,4.02,0,0,0-3.364-1.226.476.476,0,0,0,.047.951,3.112,3.112,0,0,1,2.909,1.259,5.262,5.262,0,0,0,2.55,2.02c1.214.314,2.843-.094,3.369,1.377a8.466,8.466,0,0,1,.2,3.358c-.04.6.881.781.938.164A8.486,8.486,0,0,0,1488.591,374.038Z" transform="translate(-1349.315 -165.239)"/><path class="e" d="M1481.664,345.032c-1.843-.291-3.635,1.517-4.492,2.955-.312.524.561.928.865.4.581-1.011,3.467-3.836,4.389-1.7.55,1.276-.167,3.116-.589,4.327-.963,2.762-2.505,5.272-3.5,8.009-.209.574.719.805.924.232.385-1.074.954-2.1,1.441-3.127.687-1.452,1.356-2.917,1.9-4.427C1483.25,349.916,1484.74,345.516,1481.664,345.032Z" transform="translate(-1348.841 -156.943)"/><path class="f" d="M1546,262.122s5.888-5.234,1.963-11.122" transform="translate(-1372.662 -124.441)"/><g transform="translate(199.809 74.188)"><rect class="h" width="49.691" height="42.261" rx="3.505"/><g class="i"><path class="j" d="M1498.056,805.6a7.81,7.81,0,0,0-1.156-3.7,8.885,8.885,0,0,0-3.047-2.19.326.326,0,0,0-.2-.033c.013-.131.032-.26.039-.392.022-.438-.66-.437-.682,0-.134,2.645-1.879,5.459-.732,8.086a5.8,5.8,0,0,0,5.277,3.021C1499.541,810.159,1498.244,806.722,1498.056,805.6Z" transform="translate(-1477.567 -785.965)"/><path class="j" d="M1511.967,806.7a.346.346,0,0,0-.443.5,1.114,1.114,0,0,0-.123.077.282.282,0,0,0-.341-.1,6.648,6.648,0,0,0-4.482,5.433,3.606,3.606,0,0,0,.672,2.894,1.742,1.742,0,0,0,.91.5,4.5,4.5,0,0,1,1.415.392,3.557,3.557,0,0,0,4.626-2.011C1515.159,811.98,1514.365,808.009,1511.967,806.7Z" transform="translate(-1479.281 -786.865)"/><path class="k" d="M1522.344,849.176c-.4-4.641-.86-9.277-1.29-13.914-.291-3.136-.354-6.558-2.37-9.128-2.12-2.7-5.671-4.086-8.626-5.542a17.645,17.645,0,0,0-4.405-1.807,21.3,21.3,0,0,0-5.7.165,1.016,1.016,0,0,0-1.177-.182c-4.239,1.78-9.573,3.7-12.834,7.154-3.145,3.332-2.468,8.794-2.6,13.064a56.835,56.835,0,0,0,1.158,15.558c.69,2.773,2.351,9.251,5.307,10.266a1.325,1.325,0,0,0,1.5-.626l.042-.076a1.357,1.357,0,0,0-.947-2,23.051,23.051,0,0,1-1.965-4.121,27.538,27.538,0,0,1-1.167-3.391c1.88.43,3.731,1.97,5.412,2.694a25.958,25.958,0,0,0,5.169,1.613,33.914,33.914,0,0,0,11.5.182c3.28-.473,7.145-1.107,10.133-2.672C1522.43,854.864,1522.614,852.278,1522.344,849.176Z" transform="translate(-1476.559 -788.267)"/><path class="k" d="M1503.963,821.692h0a4.207,4.207,0,0,1-4.207-4.207v-9.639h8.412v9.639A4.206,4.206,0,0,1,1503.963,821.692Z" transform="translate(-1478.488 -787.004)"/><path class="l" d="M1508.181,811.474a14.73,14.73,0,0,0-4.1-.2,10.864,10.864,0,0,0-4.244.977l-.069.035v3.582c1.623,1.461,3.406,2.436,5.7,1.856a10.2,10.2,0,0,0,2.712-1.211Z" transform="translate(-1478.489 -787.399)"/><path class="k" d="M1503.445,790.666c-9.273.143-8.5,8.1-8.471,8.454.271,3.8.288,6.9,1.862,9.494.977,1.607,4.224,5.4,6.589,5.446,1.581.032,4.265-2.436,5.27-4.111a19.3,19.3,0,0,0,2.964-10.731C1511.561,794.711,1513.438,790.513,1503.445,790.666Z" transform="translate(-1477.925 -784.993)"/><path class="k" d="M1494.029,805.856c.435.638,2.055,1.981,2.633.937.3-.536-.2-1.14-.461-1.577l-.23-.382c.244.408.88.007.651-.431-.365-.7-1.4-2.912-2.5-2.018C1493.235,803.109,1493.041,804.413,1494.029,805.856Z" transform="translate(-1477.74 -786.34)"/><path class="j" d="M1500.269,804.262c0,.5-.263.9-.587.9s-.587-.4-.587-.9.262-.9.587-.9S1500.269,803.766,1500.269,804.262Z" transform="translate(-1478.411 -786.479)"/><path class="j" d="M1509.75,804.143c0,.5-.263.9-.587.9s-.587-.4-.587-.9.262-.9.587-.9S1509.75,803.648,1509.75,804.143Z" transform="translate(-1479.52 -786.466)"/><path class="l" d="M1505.311,808.031c-.515.083-1.028.18-1.172-.557a3.522,3.522,0,0,1,.113-1c.086-.61.141-.787.237-1.4.077-.494-.678-.706-.756-.208-.111.711-.18.989-.28,1.7a3.008,3.008,0,0,0,0,1.474c.331.879,1.29.867,2.069.741C1506.015,808.705,1505.8,807.95,1505.311,808.031Z" transform="translate(-1478.909 -786.622)"/><path class="m" d="M1506.087,811.213a9.2,9.2,0,0,1-3.364.014.309.309,0,0,0-.22.541l0,.007a2.294,2.294,0,0,0,3.837-.056.361.361,0,0,0-.258-.507Z" transform="translate(-1478.797 -787.397)"/><path class="j" d="M1510.755,801.853a5.266,5.266,0,0,0-2.772-.581c-.367.062-1.459.465-.829,1.015.284.247,2.374.128,3.47.292C1511.11,802.651,1511.3,802.06,1510.755,801.853Z" transform="translate(-1479.331 -786.23)"/><path class="j" d="M1497.51,802.07a.9.9,0,0,1,.327-.38,4,4,0,0,1,2.8-.455c.364.079,1.437.532.782,1.052-.3.235-2.4-.092-3.437.3C1497.446,802.786,1497.323,802.472,1497.51,802.07Z" transform="translate(-1478.215 -786.22)"/><path class="k" d="M1514.23,802.208c-1.1-.894-2.134,1.316-2.5,2.019-.227.437.408.839.652.431l-.23.381c-.261.438-.758,1.041-.462,1.577.579,1.044,2.2-.3,2.634-.936C1515.312,804.236,1515.118,802.932,1514.23,802.208Z" transform="translate(-1479.874 -786.32)"/><path class="l" d="M1513.208,803.839a2.163,2.163,0,0,1-.489,1.188c-.32.386.231.943.554.555a3.082,3.082,0,0,0,.719-1.743C1514.038,803.337,1513.253,803.339,1513.208,803.839Z" transform="translate(-1479.994 -786.491)"/><path class="l" d="M1495.258,803.879a2.16,2.16,0,0,0,.489,1.188c.32.386-.231.943-.554.555a3.08,3.08,0,0,1-.719-1.743C1494.428,803.377,1495.213,803.38,1495.258,803.879Z" transform="translate(-1477.87 -786.496)"/><path class="j" d="M1505.624,791.516c-1.237-.755-3.536-.3-4.859-.117a12.867,12.867,0,0,0-2.959.734,12.351,12.351,0,0,1-3.725,1.247.546.546,0,0,0-.734.019c-1.576,2.182-3.259,7.467,0,9.176,3.384,1.776,5.668-3.768,7.045-5.727a9.231,9.231,0,0,1,2.754-2.747c.8-.466,2.025-.458,2.738-1.007C1506.55,792.58,1506.3,791.931,1505.624,791.516Z" transform="translate(-1477.52 -785.044)"/><path class="n" d="M1512.445,853.211c-1.252-10.05-1.061-20.256-2.806-30.242a.684.684,0,0,0-1.348-.066q-2.264,9.271-4.526,18.544c-1.815-6.683-4.719-13.176-7.128-19.629a.682.682,0,0,0-1.278.473c.525,1.408,1.075,2.818,1.632,4.232a.706.706,0,0,0-.236.169c-5.573,5.977-3.953,15.65-3.448,23.081.52,7.65,2.888,15.313,10.67,17.406,2.042.55,7-.2,8.434-2.344C1514.24,862.088,1512.813,856.163,1512.445,853.211Z" transform="translate(-1477.662 -788.589)"/><path class="j" d="M1513.126,795.219a6.3,6.3,0,0,0-3.846-5.476,16.012,16.012,0,0,0-4.41-.926c-1.969-2.25-5.206-1.434-7.555.468-1.542,1.248-3.463,2.7-4.349,4.534-.854,1.769-.472,3.735-.032,5.557a.574.574,0,0,0,.038.08c.029.1.054.2.086.3a.764.764,0,0,0,.319.409c1.79.968,3.161-.36,4.436-1.622,2.092-2.071,4.212-5.845,7.6-5.433a.332.332,0,0,0,.085-.007.344.344,0,0,0,.108.12c2.208,1.519,3.192,5.815,5.582,7.07C1512.99,801.243,1513.168,796.385,1513.126,795.219Z" transform="translate(-1477.634 -784.618)"/><path class="o" d="M1513.3,805.791c-.229-.372-.819-.03-.588.344a2.011,2.011,0,0,1,.312,1.139.341.341,0,0,0,.682,0A2.689,2.689,0,0,0,1513.3,805.791Z" transform="translate(-1479.997 -786.745)"/><path class="p" d="M1528.53,932.771c-.98-10.985-2.149-21.744-2.664-32.763-.519-11.13-.164-22.263-.516-33.4a181.85,181.85,0,0,0-5.39-35.69c-2.272-8.4-6.727-7.694-14.025-11.8a1.453,1.453,0,0,0-.3-.178.848.848,0,0,0-.766-.6,36.556,36.556,0,0,0-3.828.365,25.607,25.607,0,0,1-4.433-.332.348.348,0,0,0-.42.238l-.164.565-.066.015c-8.461,1.736-13.214,5.825-15.542,13.7-3.052,10.314-3.579,24.78-4.07,35.438-.531,11.535-2.064,22.84-3.315,34.3-1.318,12.082-1.5,24.246-1.615,36.387a.7.7,0,0,0,.5.657c5.484,1.977,22.266,3.45,24.783,3.27a.7.7,0,0,0,.682-.682c1.381-20.484,3.528-41.087,3.9-61.617.367-20.217-4.453-39.41-4.477-59.6-.033-.268-.057-.489-.079-.691a18.651,18.651,0,0,0,7.793-.015q.137,30.928.274,61.855c.088,20-1.083,40.541,2.505,60.3a.688.688,0,0,0,1,.407,116.02,116.02,0,0,1,19.6-8.711.62.62,0,0,0,.331-.156C1528.583,933.788,1528.728,933.48,1528.53,932.771Z" transform="translate(-1475.171 -788.23)"/><path class="q" d="M1493.215,836.048a30.4,30.4,0,0,0-1.873-8.78c-.17-.4-.758-.056-.588.344a25.269,25.269,0,0,1,1.629,7.052,19.686,19.686,0,0,0-2.07-4.375c-.234-.369-.824-.028-.589.343a19.127,19.127,0,0,1,2.481,5.895.307.307,0,0,0,.406.229q.032.3.064.609.516,4.771,1.033,9.541c.046.431.727.436.68,0Q1493.8,841.477,1493.215,836.048Z" transform="translate(-1477.308 -789.256)"/></g></g><g transform="translate(117.943 53.364)"><path class="h" d="M4.348,0h41a4.348,4.348,0,0,1,4.348,4.348V39.575a2.686,2.686,0,0,1-2.686,2.686H4.348A4.348,4.348,0,0,1,0,37.913V4.348A4.348,4.348,0,0,1,4.348,0Z" transform="translate(0)"/><g transform="translate(0)"><g class="r"><path class="k" d="M1448.329,827.178c-1.43-5.706-9.136-6.383-13.079-9.941-.555-.5-1.4.3-.841.8l.015.013-4.4-.374a.612.612,0,0,0-1.014-.439c-3.943,3.557-11.649,4.235-13.079,9.941-.609,2.427,8.3,26.105,9.134,29.124.442,1.6-5.511.441-3.8,1.044,2.505.884,7.872.505,10.466.363.132-.008.265-.02.4-.028.133.008.265.02.4.028,2.594.142,5.9.653,8.408-.231,1.711-.6-2.842,2.506-2.4.9.832-3.02,1.193,1.6,2.872-2.576C1442.323,853.537,1448.937,829.6,1448.329,827.178Z" transform="translate(-1406.81 -788.26)"/><path class="k" d="M1433.9,820.59h0a3.67,3.67,0,0,1-3.67-3.67v-8.41h7.34v8.41A3.67,3.67,0,0,1,1433.9,820.59Z" transform="translate(-1408.486 -787.257)"/><path class="l" d="M1437.585,811.675a12.818,12.818,0,0,0-3.576-.17,9.461,9.461,0,0,0-3.7.852l-.06.029v3.126c1.417,1.275,2.973,2.126,4.974,1.619a8.913,8.913,0,0,0,2.366-1.057Z" transform="translate(-1408.487 -787.602)"/><path class="k" d="M1433.365,793.5c-8.09.207-7.341,7.146-7.316,7.451.27,3.314.313,6.02,1.708,8.266.866,1.393,2.623,4.01,5.824,4.023,1.994.008,3.077-1.258,4.205-2.536,2.159-2.447,2.921-6.683,2.821-9.816C1440.481,796.959,1442.08,793.279,1433.365,793.5Z" transform="translate(-1407.993 -785.5)"/><path class="k" d="M1425.269,808.151c.386.552,1.811,1.71,2.306.794.254-.47-.184-.993-.417-1.371l-.2-.331c.216.353.767,0,.564-.382-.325-.609-1.25-2.528-2.2-1.739C1424.552,805.761,1424.394,806.9,1425.269,808.151Z" transform="translate(-1407.836 -786.839)"/><path class="l" d="M1426.458,806.534a1.884,1.884,0,0,0,.437,1.033c.283.333-.193.825-.479.488a2.7,2.7,0,0,1-.643-1.515C1425.729,806.1,1426.414,806.1,1426.458,806.534Z" transform="translate(-1407.964 -786.988)"/><path class="k" d="M1442.93,808.094c-.386.552-1.81,1.71-2.305.794-.254-.47.183-.992.417-1.371l.2-.332c-.217.354-.766,0-.564-.381.325-.609,1.25-2.528,2.2-1.739C1443.647,805.705,1443.805,806.844,1442.93,808.094Z" transform="translate(-1409.693 -786.832)"/><path class="l" d="M1441.975,806.478a1.872,1.872,0,0,1-.438,1.032c-.281.334.195.825.479.489a2.69,2.69,0,0,0,.644-1.515C1442.7,806.047,1442.02,806.043,1441.975,806.478Z" transform="translate(-1409.799 -786.982)"/><path class="s" d="M1430.832,805.023c0,.433-.221.786-.5.789s-.517-.345-.521-.778.222-.786.505-.788S1430.827,804.59,1430.832,805.023Z" transform="translate(-1408.436 -786.758)"/><path class="s" d="M1438.74,805.256c0,.433-.221.786-.505.788s-.516-.345-.52-.778.222-.786.5-.788S1438.736,804.823,1438.74,805.256Z" transform="translate(-1409.362 -786.785)"/><path class="l" d="M1435.247,807.411c-.448.077-.895.166-1.028-.476a3.061,3.061,0,0,1,.09-.871c.069-.534.115-.689.193-1.22.063-.432-.6-.61-.661-.176-.09.622-.147.864-.229,1.487a2.628,2.628,0,0,0,.011,1.286c.3.764,1.134.744,1.811.628C1435.868,807.994,1435.677,807.337,1435.247,807.411Z" transform="translate(-1408.873 -786.778)"/><path class="t" d="M1436.124,810.366a16.622,16.622,0,0,1-3.6.046c-.323-.031-.472.262-.231.343l0,0a3.547,3.547,0,0,0,4.1-.076.13.13,0,0,0,.02-.033C1436.567,810.539,1436.412,810.331,1436.124,810.366Z" transform="translate(-1408.714 -787.474)"/><path class="s" d="M1439.834,802.45a.778.778,0,0,0-.3-.314,3.624,3.624,0,0,0-2.479-.3c-.318.08-1.248.5-.653.926a16.149,16.149,0,0,0,2.946.2C1439.846,802.994,1440.013,802.787,1439.834,802.45Z" transform="translate(-1409.185 -786.465)"/><path class="s" d="M1428.9,802.756a13.246,13.246,0,0,0,2.845-.01c.606-.434-.252-.98-.55-1.094a3.021,3.021,0,0,0-2.4.153.825.825,0,0,0-.314.334C1428.273,802.506,1428.415,802.752,1428.9,802.756Z" transform="translate(-1408.27 -786.434)"/><g transform="translate(4.765 30.869)"><path class="u" d="M1451.107,839.752c-.813-4.357-1.347-9.253-3.581-13.09a8.641,8.641,0,0,0-3.928-4.2c-.014-.009-.026-.019-.04-.029s-.042-.021-.062-.032c-1.753-1.037-3.774-1.853-5.613-2.8-3.835,2.125-8.642,2.683-12.239-.2-1.3.7-2.713,1.31-4.068,1.975a23,23,0,0,0-3.022,1.739,8.7,8.7,0,0,0-3.385,3.5c-2.609,5.865-3.652,12.837-4.167,19.286a.6.6,0,0,0,.436.573,15.632,15.632,0,0,0,4.792.472c.268,2.8.093,11.384.39,13.539.277,2.007-.688,5.158.662,6.825.94,1.163,2.121,1.183,3.5,1.272,2.9.185,7.736.8,10.605,1.157,2.411.3,7.8-.619,10.193-.934,1.481-.194,3.891-.115,5.052-1.19s.659-3.331.621-4.651c-.062-2.184-2.14-11.551-1.557-15.529,2.029-.2,4.059-.61,5.188-1.686C1452.536,844.166,1451.469,841.688,1451.107,839.752Z" transform="translate(-1411 -819.401)"/><path class="u" d="M1441.685,863.338c-.048.148-.094.3-.138.458C1441.1,865.4,1442.479,863.27,1441.685,863.338Z" transform="translate(-1414.564 -824.542)"/></g><path class="o" d="M1435.446,842.148q8.088.205,16.169,0c-.044-.2-.091-.4-.138-.591q-8.011.207-16.031,0a178.392,178.392,0,0,0-23.985.849c-.023.2-.046.4-.068.6A178.046,178.046,0,0,1,1435.446,842.148Zm-18.644,9.809c.025.2.051.4.077.593,6.361-.1,12.727-.164,19.083.162,2.992.154,6.907.564,9.9.763.031-.192-.057-.42-.025-.619-3.021-.2-6.847-.583-9.871-.738C1429.58,851.789,1423.188,851.853,1416.8,851.957Zm33.094-18.563c-.046-.2-.094-.4-.144-.6-12.083-.476-24.2-1.037-36.272-.834-.059.2-.115.4-.17.6C1425.491,832.346,1437.708,832.916,1449.9,833.394Zm-15.543-8.695,11.031-.547c-.231-.194-.475-.38-.724-.558l-9.73.481c-2.849.141-5.717.38-8.57.26a55.575,55.575,0,0,1-7.505-.923,1.8,1.8,0,0,0-.229.183l-.417.3a61.284,61.284,0,0,0,7.6,1.008A81.016,81.016,0,0,0,1434.352,824.7Z" transform="translate(-1406.282 -789.001)"/><path class="v" d="M1417.67,836.336a.3.3,0,0,0-.594,0l.069,10.4a.3.3,0,0,0,.594,0Q1417.7,841.535,1417.67,836.336Z" transform="translate(-1406.947 -790.48)"/><path class="j" d="M1442.1,799.852c-.5-.863-.936-1.313-.747-2.444a3.263,3.263,0,0,0-.23-2.585,2.673,2.673,0,0,0-.749-.915c-.5-.344-1.092-.312-1.433-.932s-.255-1.135-1.092-1.416c-1.056-.356-1.633.372-2.45.707a1.1,1.1,0,0,0-.293-.453,1.462,1.462,0,0,0-.675-.552,1.309,1.309,0,0,0-1.029.009c-.265.113-.553.421-.857.546a3.478,3.478,0,0,0-1.738-.428,1.75,1.75,0,0,0-.864.374c-.343.282-.507.79-.881,1.022a2.311,2.311,0,0,0-1.052,0c-1.206.3-1.122,1.489-1.844,2.251a6.968,6.968,0,0,1-1.07.813,2.282,2.282,0,0,0-1.1,1.2,1.6,1.6,0,0,0,.09,1.066,2.721,2.721,0,0,1-.359,1.422c-.52.965-1.011,2.034-.239,2.977a1.735,1.735,0,0,0,1.62.614c.007.005.014.008.02.013.133.111.158.375.3.486a1.555,1.555,0,0,0,.952.451c1.39.056,1.147-1.465,1.93-2.148a6.113,6.113,0,0,0,.5-.464,1.216,1.216,0,0,0,.855-.115,1.714,1.714,0,0,0,.531-.551c.485-.612.552-.473,1.265-.485a.891.891,0,0,0,.905-.865c.18-1.258-.581-3.759,1.647-3.577a1.246,1.246,0,0,0,.272.035.407.407,0,0,0,.273-.193,1.18,1.18,0,0,1,1.231-.335c.579.178.795.676.954,1.647a3.19,3.19,0,0,0,.163,1.106c.5,1.068,1.878.367,1.918,2.114.018.751-.376,1.528.137,2.216a1.136,1.136,0,0,0,.527.391.927.927,0,0,0,.606.772c.781.262,1.018-.525,1.375-.971.437-.546.945-.767.963-1.594A2.379,2.379,0,0,0,1442.1,799.852Z" transform="translate(-1407.649 -785.227)"/><path class="o" d="M1447.74,866.156c-10.143-.483-20.265-.776-30.426-.807.016.2.033.368.053.511,0,.026,0,.056.008.082,10.169.033,20.3.328,30.452.812C1447.8,866.566,1447.772,866.365,1447.74,866.156Z" transform="translate(-1406.974 -793.909)"/></g></g></g><g transform="translate(249.279 143.297)"><rect class="h" width="48.876" height="41.567" rx="3.505"/><g class="w"><g transform="translate(2.004 4.286)"><path class="x" d="M1683.222,805.214c-.175-1.974-2.487-4.435-3.756-1.812-.914,1.889-.942,4.092-1.759,6.036a12.9,12.9,0,0,0-1.154,4.71.281.281,0,0,0-.271.325,1.328,1.328,0,0,0,1.588,1.3,2.537,2.537,0,0,0,.568-.161,8.877,8.877,0,0,1,2.1-.552,1.455,1.455,0,0,0,1.1-.393,1.654,1.654,0,0,0,.37-.987c.129-1.269-.454-2.079.181-3.37A9.734,9.734,0,0,0,1683.222,805.214Z" transform="translate(-1648.892 -790.483)"/><path class="k" d="M1669.455,971.285a.682.682,0,0,0-.486-.484c-2.237-.5-5.121.534-7.249,1.128a.633.633,0,0,0-.486.611.617.617,0,0,0-.143.423c.227,7.38.678,14.75,1.4,22.1q.262,2.672.567,5.339c.109.942-.052,2.855.476,3.653.66,1,1.545.718,2.77.722a.7.7,0,0,0,.669-.511c.79-5.573,1.092-11.208,1.524-16.817.238-3.091.484-6.181.713-9.273C1669.367,976.006,1669.947,973.412,1669.455,971.285Z" transform="translate(-1646.894 -812.63)"/><path class="s" d="M1666.625,1014.909a.351.351,0,0,0-.58.154c-.3.988-.058,2.123-.481,3.07a15.631,15.631,0,0,0-.882,1.736.32.32,0,0,0,.3.419c-.022.059-.041.119-.064.177a.354.354,0,0,0-.424.326,2.888,2.888,0,0,1-.2.887c-.018.029-.034.062-.053.09-.612.895-2.077.88-3.046.967a.357.357,0,0,0-.346.348c0,.025,0,.046,0,.07a1.7,1.7,0,0,1-.718-1.248.347.347,0,0,0-.694,0c-.022,1.739.423,2.944,1.713,3.022,2.286.142,3.024-1.009,3.848-1.893,1.059-1.136,1.083-2.908,1.669-4.283C1667.152,1017.628,1667.582,1015.892,1666.625,1014.909Z" transform="translate(-1646.678 -818.435)"/><path class="k" d="M1667.116,1006.528c.217-1.278-2.248.557-3.4.435-.013-.4-.036-.808-.082-1.215-.049-.439-.743-.443-.694,0,.536,4.838-1.467,9.229-2.736,13.782-.206.739-.713,2.025.15,2.579.771.5,2.635-.085,3.343-.443,1.634-.824.865-2.067,1.63-3.492a11.542,11.542,0,0,0,1.12-1.932,8.483,8.483,0,0,0,.308-2.152c.058-1.1-.1-2.385-.063-3.483A32.06,32.06,0,0,1,1667.116,1006.528Z" transform="translate(-1646.733 -817.2)"/><path class="s" d="M1667.186,1015.881c.058-1.1-.579-3.688-.547-4.786.013-.441.057-1.182.154-2.084-1.285.082-2.582-.056-3.865.058-.275,3.755-2.218,7.311-3.235,10.96-.207.738-.594,2,.269,2.552.772.5,3.039.264,3.748-.094,1.634-.825,1.1-2.136,1.865-3.561a12.581,12.581,0,0,0,1.013-2.1C1666.808,1016.137,1667.147,1016.6,1667.186,1015.881Z" transform="translate(-1646.675 -817.672)"/><path class="y" d="M1677.456,909.43c-.124-5.2-.362-10.4-.766-15.588-.362-4.653-.3-10-1.6-14.509-.9-3.118-3.939-2.783-6.656-2.736a97.456,97.456,0,0,0-13.637,1.259,1.175,1.175,0,0,0-1,.186.83.83,0,0,0-.5.875c-3.41,9.11-2.49,20.151-2.314,29.691.1,5.682.48,11.381.029,17.056-.4,5.1-1.43,10.135-2.053,15.209q-.978,7.968-1.213,16-.117,4.013-.048,8.026c.027,1.623-.265,3.974.371,5.527,1.22,2.976,7.021,2.364,9.51,2.5a86.194,86.194,0,0,0,16.544-.772,1,1,0,0,0,.727-.727c1.989-9.85,1.911-20.045,2.254-30.051C1677.469,930.736,1677.709,920.081,1677.456,909.43Z" transform="translate(-1645.127 -800.255)"/><path class="o" d="M1665.268,811.523c-.678-4.468-1.727-8.913-2.586-13.35a.286.286,0,0,0-.285-.248c.069-.307-.319-.623-.568-.334a7.906,7.906,0,0,0-1.9,3.883c-.322,1.92.243,3.775-.261,5.7-.32,1.217-.739,2.575-.13,3.781a2.857,2.857,0,0,0,.744.9,22.915,22.915,0,0,0,2.381,1.924C1664.6,815.035,1665.539,813.307,1665.268,811.523Z" transform="translate(-1646.649 -789.854)"/><path class="x" d="M1664.788,813.866c.041-.226.087-.451.144-.677a.339.339,0,0,0-.354-.426l.068-.287a.352.352,0,0,0-.479-.4h0a.323.323,0,0,0-.2-.36c-.05-.088-.1-.174-.156-.26.014-.062.027-.124.041-.187a.33.33,0,0,0-.429-.4c-.014-.019-.026-.038-.039-.057q.138-.654.277-1.308a.348.348,0,0,0-.67-.185l-.007.021a.366.366,0,0,0-.418.067c.034-.111.068-.221.1-.333.134-.435-.511-.593-.67-.184l-.081.208-.067-.068a.335.335,0,0,0-.147-.077c.073-.274.143-.548.218-.821a.352.352,0,0,0-.252-.419l.061-.194c.108-.344-.265-.505-.509-.365a.355.355,0,0,0-.246-.1c.05-.244.094-.489.128-.735a.348.348,0,0,0-.358-.425.338.338,0,0,1,.445.006c.333.3.826-.194.491-.491-.7-.62-1.309-.327-1.811.294a8.647,8.647,0,0,1-.209,2.492c-.32,1.216-.739,2.574-.13,3.78a2.857,2.857,0,0,0,.744.9,22.82,22.82,0,0,0,2.381,1.924c1,.65,1.733.5,2.173-.039A3.95,3.95,0,0,0,1664.788,813.866Z" transform="translate(-1646.649 -790.852)"/><path class="k" d="M1671.1,825.033h0a4.288,4.288,0,0,1-4.288-4.289v-9.827h8.577v9.827A4.288,4.288,0,0,1,1671.1,825.033Z" transform="translate(-1647.647 -791.621)"/><path class="l" d="M1675.4,814.673a14.985,14.985,0,0,0-4.178-.2,11.067,11.067,0,0,0-4.328,1l-.07.035v3.653c1.655,1.489,3.473,2.484,5.811,1.892a10.4,10.4,0,0,0,2.765-1.235Z" transform="translate(-1647.649 -792.081)"/><path class="z" d="M1678.947,798.513c-1.394-1.463-2.031-3.211-4.105-4.111-2.414-1.048-5.5-.67-8.121-.606-5.45,1.919-4.888,7.709-4.867,8.008.278,3.875.775,8.476,2.156,11.24a7.041,7.041,0,0,0,12.108,1c2.256-3.76,2.827-8.477,2.748-12.138C1678.84,800.729,1678.945,799.577,1678.947,798.513Z" transform="translate(-1646.991 -789.354)"/><path class="z" d="M1660.939,808.842c.444.65,2.094,2.019,2.685.955.3-.546-.2-1.161-.472-1.607l-.234-.39c.249.416.9.006.665-.439-.373-.716-1.43-2.969-2.548-2.057C1660.13,806.041,1659.933,807.37,1660.939,808.842Z" transform="translate(-1646.786 -790.854)"/><ellipse class="s" cx="0.599" cy="0.916" rx="0.599" ry="0.916" transform="translate(18.512 15.724)"/><path class="s" d="M1677.051,807.8c0,.505-.268.915-.6.915s-.6-.41-.6-.915.267-.916.6-.916S1677.051,807.291,1677.051,807.8Z" transform="translate(-1648.836 -791.09)"/><path class="l" d="M1672.569,811.349c-.524.085-1.047.183-1.195-.569a3.59,3.59,0,0,1,.115-1.017c.087-.623.144-.8.24-1.423.078-.5-.691-.72-.771-.213-.113.724-.183,1.008-.284,1.734a3.066,3.066,0,0,0,0,1.5c.338.9,1.316.883,2.109.755C1673.287,812.037,1673.073,811.268,1672.569,811.349Z" transform="translate(-1648.141 -791.216)"/><path class="m" d="M1673.522,814.506a14.569,14.569,0,0,1-4.274.016c-.382-.056-.563.415-.279.551l.005.008a3.342,3.342,0,0,0,4.877-.057.313.313,0,0,0,.024-.053C1674.047,814.793,1673.867,814.454,1673.522,814.506Z" transform="translate(-1647.912 -792.092)"/><path class="o" d="M1678.78,804.487a.917.917,0,0,0-.353-.37,4.079,4.079,0,0,0-2.87-.314c-.367.1-1.435.618-.74,1.113.313.223,2.438-.222,3.515.121C1678.883,805.212,1678.993,804.886,1678.78,804.487Z" transform="translate(-1648.67 -790.668)"/><path class="o" d="M1664.295,804.687a.916.916,0,0,1,.354-.37,4.079,4.079,0,0,1,2.87-.314c.366.1,1.434.618.74,1.113-.312.223-2.44-.222-3.515.121C1664.192,805.412,1664.083,805.086,1664.295,804.687Z" transform="translate(-1647.303 -790.694)"/><path class="z" d="M1681.82,805.22c-1.118-.912-2.175,1.341-2.548,2.057-.232.446.415.854.664.439l-.234.39c-.268.446-.774,1.061-.471,1.608.591,1.065,2.24-.3,2.685-.954C1682.923,807.287,1682.726,805.958,1681.82,805.22Z" transform="translate(-1649.268 -790.844)"/><path class="l" d="M1680.8,806.907a2.2,2.2,0,0,1-.5,1.212c-.326.393.237.961.565.565a3.142,3.142,0,0,0,.733-1.777C1681.64,806.394,1680.841,806.4,1680.8,806.907Z" transform="translate(-1649.407 -791.043)"/><path class="o" d="M1671.572,792.693c-7.933-.426-9.788,4.058-9.956,5.092-.285,1.76-.764,4.286.182,5.762.181.281.469.368.656.2a3.129,3.129,0,0,0,.783-1.874c.373-2.679.83-4.952,3.663-5.833a12.225,12.225,0,0,1,7.122.017c2.96,1.035,4.084,3.549,3.874,6.6a1.187,1.187,0,0,0,.106.725.431.431,0,0,0,.788-.095,7.944,7.944,0,0,0,.6-4.166C1679.31,797.64,1679.11,793.1,1671.572,792.693Z" transform="translate(-1646.914 -789.221)"/><path class="o" d="M1681.16,797.21a3.913,3.913,0,0,0-.234-1.387c-.537-1.484-1.937-2.1-2.591-3.533-.4-.88-.517-1.528-1.4-2.042a5.379,5.379,0,0,0-3.186-.46,7.184,7.184,0,0,1-3.134-.215c-.563-.2-1.081-.533-1.653-.714a2.851,2.851,0,0,0-2.6.366c-2.083,1.422-1.986,4.253-1.245,6.475a.351.351,0,0,0,.5.212.347.347,0,0,0,.33.142c1.527-.225,3.076-.69,4.265.639.51.571.837,1.315,1.323,1.911,1.2,1.469,2.895,1.039,4.1,2.351.86.937,1.7,1.982,2.948,2.172.7,1.465,1.991,2.7,3.279,1.719C1684.171,803.09,1682.123,799.572,1681.16,797.21Z" transform="translate(-1647.361 -788.699)"/><path class="x" d="M1662.186,801.415a7.037,7.037,0,0,1-.678,1.936c-.208.4.392.746.6.35a7.707,7.707,0,0,0,.747-2.1C1662.943,801.163,1662.273,800.977,1662.186,801.415Z" transform="translate(-1646.943 -790.339)"/><path class="x" d="M1668.941,791.656a3.133,3.133,0,0,0-3.026,2.309.347.347,0,0,0,.67.184,2.429,2.429,0,0,1,2.356-1.8A.347.347,0,0,0,1668.941,791.656Z" transform="translate(-1647.527 -789.088)"/><path class="x" d="M1670.712,794.272a3.163,3.163,0,0,0-2.027-.508c-.441.04-.446.735,0,.694a2.543,2.543,0,0,1,1.676.413C1670.736,795.116,1671.084,794.515,1670.712,794.272Z" transform="translate(-1647.849 -789.363)"/><path class="x" d="M1682.857,804.625a5.3,5.3,0,0,1-1.818-2.433,3.352,3.352,0,0,0-1.525-1.577c-.4-.2-.749.4-.351.6.967.5,1.209,1.314,1.675,2.214a4.839,4.839,0,0,0,1.667,1.8C1682.879,805.472,1683.227,804.871,1682.857,804.625Z" transform="translate(-1649.248 -790.261)"/><path class="x" d="M1684.756,803.351a5.4,5.4,0,0,1-1.37-1.627c-.216-.392-.816-.042-.6.35a5.9,5.9,0,0,0,1.479,1.769C1684.609,804.12,1685.1,803.632,1684.756,803.351Z" transform="translate(-1649.741 -790.39)"/><path class="aa" d="M1677.558,820.1c-.03-.212-.269-.309-.523-.227-.929.3-1.708.837-2.657,1.055a18.687,18.687,0,0,0-1.955.571c-1.331.451-2.015.08-3.165-.215-1.043-.267-1.792-.118-2.6-.77-.426-.341-1.043-.742-1.546-.266-.644.609.865,1.779.748,2.4a.264.264,0,0,0,.183.283.237.237,0,0,0,.161.2,12.721,12.721,0,0,0,8.593.241.36.36,0,0,0,.389-.176c.4-.933,1.276-1.313,1.992-2.05A1.119,1.119,0,0,0,1677.558,820.1Z" transform="translate(-1647.402 -792.795)"/><path class="aa" d="M1688.848,852.9c-.412-4.73-.877-9.457-1.315-14.186-.269-2.9-.352-6.044-1.9-8.559,1.009-.9,1.607-2.161.078-3.074-1.057-.63-2.66-.226-3.823-.464l-.013,0a60.184,60.184,0,0,0-5.549-2.855,18.01,18.01,0,0,0-4.491-1.842,21.685,21.685,0,0,0-5.812.169,1.037,1.037,0,0,0-1.2-.186,87.629,87.629,0,0,0-8.039,3.6,1.091,1.091,0,0,0-.239.123c-.05.034-.1.06-.151.093-.238.134-.472.271-.7.41a16.143,16.143,0,0,1-4.728,1.267c-1.146.214-2.232.775-2.329,2.029a1.032,1.032,0,0,0,.516.9,5.038,5.038,0,0,0,1.448.464c-.126.228-.24.462-.346.7a1.328,1.328,0,0,0-.4.236c-2.725,2.415-2.509,7.969-2.714,11.274-.321,5.188-1.517,10.216-2.132,15.364-.9,7.545.275,18.084,8.152,21.518a15.081,15.081,0,0,0,10.878.762c3.96-1.15,5.147-2.818,4.731-6.953a51.168,51.168,0,0,0-2.036-10.438A36.319,36.319,0,0,0,1675.6,863c3.344-.482,7.285-1.128,10.332-2.724C1688.936,858.7,1689.124,856.067,1688.848,852.9Z" transform="translate(-1644.745 -793.049)"/><path class="p" d="M1661.835,809.187a1.059,1.059,0,0,0-1.042,1.041v.029a1.087,1.087,0,0,0,.606.947c0,.184,0,.369,0,.553-1.189.506-.914,3.021-.82,3.97.043.441.738.446.695,0-.012-.115-.03-.311-.048-.536a.369.369,0,0,0,.493-.1c-.019.2-.034.339-.038.369-.068.437.6.625.669.184.095-.616.677-3.47-.257-3.84,0-.184,0-.368,0-.552a1.039,1.039,0,0,0,.782-1v-.029A1.053,1.053,0,0,0,1661.835,809.187Z" transform="translate(-1646.814 -791.393)"/><path class="p" d="M1680.756,808.987a1.059,1.059,0,0,0-1.041,1.041v.029a1.087,1.087,0,0,0,.606.947q0,.277,0,.553c-1.188.506-.913,3.022-.819,3.971.043.44.738.445.694,0-.011-.116-.03-.312-.047-.537a.368.368,0,0,0,.492-.1c-.019.2-.034.339-.038.369-.068.437.6.625.67.185.095-.617.676-3.471-.257-3.841,0-.184,0-.368,0-.552a1.038,1.038,0,0,0,.781-1v-.029A1.053,1.053,0,0,0,1680.756,808.987Z" transform="translate(-1649.303 -791.367)"/><path class="ab" d="M1667.614,822.1c-.183-.406-.782-.054-.6.351a2.577,2.577,0,0,1,.22,1.125.348.348,0,0,0,.695,0A3.365,3.365,0,0,0,1667.614,822.1Z" transform="translate(-1647.669 -793.068)"/><path class="ab" d="M1669.566,822.778c.029-.447-.666-.445-.695,0a4.364,4.364,0,0,0,.024.826c.054.438.748.444.694,0A4.4,4.4,0,0,1,1669.566,822.778Z" transform="translate(-1647.917 -793.137)"/><path class="ab" d="M1676.05,822.123a5.609,5.609,0,0,0-.278,1.233c-.052.443.643.439.695,0a4.78,4.78,0,0,1,.253-1.048C1676.869,821.886,1676.2,821.7,1676.05,822.123Z" transform="translate(-1648.825 -793.064)"/><path class="ab" d="M1674.035,822.677q-.042.369-.083.737c-.051.444.644.44.694,0q.041-.369.084-.737C1674.779,822.233,1674.084,822.236,1674.035,822.677Z" transform="translate(-1648.585 -793.124)"/><path class="ab" d="M1672.249,822.878c-.021-.445-.716-.447-.694,0q.026.542.052,1.085c.022.445.717.447.7,0Q1672.276,823.42,1672.249,822.878Z" transform="translate(-1648.271 -793.15)"/><path class="ab" d="M1685.649,831.82a6.355,6.355,0,0,0-1.551,1.036c-.661.619-1.1,1.672-1.83,2.17-1.21.83-3.166-.057-4.53.46-1.829.693-3.191,2.232-5.319,2.235-1.042,0-1.68-.58-2.627-.683a4.563,4.563,0,0,0-1.841.292,8.15,8.15,0,0,1-2.733.677,5.667,5.667,0,0,1-2.96-1.221c-.986-.7-1.947-1.9-3.2-2.136a5.292,5.292,0,0,0-1.667.171,3.022,3.022,0,0,1-2.916-.91,5.313,5.313,0,0,0-2.42-1.853.347.347,0,0,0-.184.67c1.449.387,1.963,1.934,3.2,2.633,1.515.851,3.05-.524,4.6.281,1.413.734,2.366,2.083,3.9,2.692a5.42,5.42,0,0,0,4.052-.158,5.321,5.321,0,0,1,3.454.056,4.589,4.589,0,0,0,1.925.117,10.836,10.836,0,0,0,4.091-1.715c1.748-1.029,3.314-.177,5.06-.812a2.8,2.8,0,0,0,1.321-1.042,7.024,7.024,0,0,1,2.521-2.359C1686.4,832.22,1686.048,831.621,1685.649,831.82Z" transform="translate(-1645.65 -794.365)"/><path class="ab" d="M1658.091,827.651a15.562,15.562,0,0,0-1.894,1.009c-.379.237-.031.838.35.6a15.63,15.63,0,0,1,1.894-1.01C1658.849,828.068,1658.5,827.469,1658.091,827.651Z" transform="translate(-1646.229 -793.817)"/><path class="ab" d="M1659.495,828.507a13.327,13.327,0,0,0-1.444,1.229c-.319.314.172.805.491.491a12.2,12.2,0,0,1,1.3-1.12C1660.2,828.844,1659.855,828.241,1659.495,828.507Z" transform="translate(-1646.481 -793.926)"/><path class="ab" d="M1685.722,829.567l-1-1.264c-.277-.351-.765.144-.492.492l1,1.264C1685.506,830.41,1686,829.915,1685.722,829.567Z" transform="translate(-1649.927 -793.892)"/><path class="ab" d="M1684.179,830.666c-.134-.252-.267-.5-.4-.755-.209-.394-.81-.044-.6.351l.4.754C1683.789,831.411,1684.388,831.06,1684.179,830.666Z" transform="translate(-1649.793 -794.096)"/><path class="ab" d="M1669.564,834.221a3.9,3.9,0,0,1-.212.952c-.148.422.523.6.669.184a4.6,4.6,0,0,0,.236-1.136C1670.3,833.776,1669.6,833.779,1669.564,834.221Z" transform="translate(-1647.978 -794.642)"/><path class="ab" d="M1657.465,839.209c.058-.442-.637-.438-.694,0a26.408,26.408,0,0,0-.031,6.606c.053.438.749.443.7,0A26.385,26.385,0,0,1,1657.465,839.209Z" transform="translate(-1646.297 -795.298)"/><path class="ab" d="M1689.266,839.142c-.1-.435-.77-.251-.67.184a18.389,18.389,0,0,1,.413,5.623c-.035.446.659.443.694,0A18.977,18.977,0,0,0,1689.266,839.142Z" transform="translate(-1650.51 -795.3)"/><path class="l" d="M1668.058,812.791a2.977,2.977,0,0,0-.534,1.031.347.347,0,0,0,.67.184,2.107,2.107,0,0,1,.355-.724C1668.819,812.932,1668.331,812.437,1668.058,812.791Z" transform="translate(-1647.738 -791.851)"/><path class="l" d="M1676.062,813.3a2.9,2.9,0,0,0-.694-.734c-.355-.271-.7.332-.35.6a1.941,1.941,0,0,1,.445.485C1675.706,814.018,1676.308,813.671,1676.062,813.3Z" transform="translate(-1648.707 -791.828)"/></g></g></g><g transform="translate(273.897 58.684)"><rect class="h" width="48.437" height="41.194" rx="3.505"/><g transform="translate(0 0.077)"><g class="ac"><path class="ad" d="M1620.291,862.294a69.339,69.339,0,0,0-5.569-24.211c-.283-.649-1.964-1.671-1.682-1.026.79,1.807,1.513,3.691,2.169,5.624a.508.508,0,0,0-.376.153c-2.031,1.984-2.624,4.554-2.99,7.294-.562,4.2-.964,8.437-1.443,12.653q-.73,6.44-1.463,12.88c-.466,4.1-.986,8.038.314,12.04a.558.558,0,0,0,1.008.131c2.319-4.5,4.655-8.995,6.957-13.505C1619.232,870.38,1620.583,866.794,1620.291,862.294Z" transform="translate(-1572.294 -798.084)"/><path class="ad" d="M1598.031,844.582c-.15-4.557.234-9.344-3.18-12.845-2.312-2.372-6.18-4.061-9.754-5.523a3.933,3.933,0,0,1-.936,1.667,3.5,3.5,0,0,1-4.951,0c-.089-.1-.193-.194-.289-.289a5.68,5.68,0,0,1-.958.166c-.106.009-.212.022-.318.034q-.335.053-.67.1c-.784.116-1.575.234-2.367.278a3.432,3.432,0,0,1-3.361-2.658,41.618,41.618,0,0,0-9.9,4.479,18.025,18.025,0,0,0-7.159,11.052c-1.266,5.345-1,11.1-.678,16.546.271,4.539.669,9.926,3.716,13.546a1.206,1.206,0,0,0,.2.189q.745,3.139,1.49,6.278c.384,1.618.48,3.242,2.033,4.135,2.8,1.609,7.626,1.619,10.287-.129,3.26-2.142,4.316-6.2,5.071-9.775.433-2.053.773-4.121,1.031-6.2q.4,2.748.826,5.491c.592,3.751.41,8.249,4.4,9.973,2.229.963,7.706,2.462,9.6.307,1.037-1.176,1.245-3.192,1.573-4.634.089-.39.164-.78.243-1.17C1598.637,866.207,1598.369,854.8,1598.031,844.582Z" transform="translate(-1554.239 -794.375)"/><path class="ad" d="M1589.35,823.575a10.482,10.482,0,0,0-4.579-.538c-1.674.587-3.393,1.1-5.137,1.7-.984,8.987,3,17.478,6.266,25.773a.325.325,0,0,0,.4.175.283.283,0,0,0,.335-.187c1.161-3.9,3.355-7.474,4.665-11.336a46.286,46.286,0,0,0,2.354-11.727c.042-.6.129-1.3.163-1.99C1592.216,824.785,1590.673,824.177,1589.35,823.575Z" transform="translate(-1562.824 -793.533)"/><path class="ad" d="M1558.951,865.953a36.807,36.807,0,0,0-5.3-17.606.5.5,0,0,0-.411-.255,24.532,24.532,0,0,1,4.836-10.939c.454-.541-.323-1.325-.78-.78a25.51,25.51,0,0,0-5.147,11.832,151.482,151.482,0,0,0-2.123,16.442,158.839,158.839,0,0,0,.467,22.9c.139,1.435-.23,1.884.827,1.838,1.529-.067,3.86-.248,5.135-.369a.573.573,0,0,0,.551-.552C1557.9,881.085,1559.209,873.4,1558.951,865.953Z" transform="translate(-1553.112 -797.868)"/><path class="k" d="M2.779,0H4.764A2.779,2.779,0,0,1,7.544,2.779V8.643a3.772,3.772,0,0,1-3.772,3.772h0A3.772,3.772,0,0,1,0,8.643V2.779A2.779,2.779,0,0,1,2.779,0Z" transform="translate(19.67 20.205)"/><path class="l" d="M1591.649,812.954a11.939,11.939,0,0,0-3.3-.374,8.8,8.8,0,0,0-3.481.567l-.057.023-.188,2.9c1.236,1.266,2.626,2.148,4.51,1.8a8.272,8.272,0,0,0,2.255-.836Z" transform="translate(-1564.505 -790.145)"/><path class="k" d="M1587.682,789.056c-8.306-.413-8.074,6.759-8.071,7.072.023,3.417-.142,6.194,1.115,8.6.781,1.5,2.379,4.311,5.659,4.571,2.043.162,3.251-1.053,4.5-2.275,2.4-2.341,3.508-6.624,3.646-9.843C1594.709,793.147,1593.992,789.37,1587.682,789.056Z" transform="translate(-1562.866 -782.443)"/><path class="k" d="M1601.186,803.529c-.929-.864-1.986,1.054-2.354,1.661-.229.378.316.774.558.423l-.228.329c-.26.376-.739.887-.505,1.383.458.968,1.984-.14,2.412-.684C1602.036,805.407,1601.938,804.229,1601.186,803.529Z" transform="translate(-1569.076 -787.112)"/><path class="k" d="M1577.9,805.205c.353.595,1.724,1.891,2.3.991.3-.462-.113-1.031-.322-1.437l-.183-.356c.194.38.786.057.608-.347-.286-.65-1.087-2.687-2.12-1.951C1577.353,802.7,1577.1,803.856,1577.9,805.205Z" transform="translate(-1562.148 -786.666)"/><path class="l" d="M1579.732,804.3a1.747,1.747,0,0,0,.333.986c.238.328-.237.75-.477.419a2.5,2.5,0,0,1-.49-1.447C1579.088,803.849,1579.722,803.893,1579.732,804.3Z" transform="translate(-1562.698 -787.329)"/><path class="l" d="M1600.279,805.494a1.753,1.753,0,0,1-.333.987c-.238.328.236.75.477.419a2.494,2.494,0,0,0,.49-1.447C1600.922,805.046,1600.29,805.089,1600.279,805.494Z" transform="translate(-1569.497 -787.72)"/><path class="s" d="M1585.11,804.331c-.026.4-.26.712-.522.7s-.453-.356-.427-.757.26-.712.522-.694S1585.136,803.93,1585.11,804.331Z" transform="translate(-1564.354 -787.198)"/><path class="s" d="M1596.246,804.851c-.026.4-.26.712-.522.694s-.453-.355-.427-.756.26-.712.522-.7S1596.271,804.449,1596.246,804.851Z" transform="translate(-1567.997 -787.368)"/><path class="ae" d="M1591.122,812.334c-1.528-.089-2.005-.184-3.8-.233-.344-.009-.525.338-.28.475l0,.007a2.971,2.971,0,0,0,4.339.231.22.22,0,0,0,.025-.046C1591.571,812.62,1591.432,812.352,1591.122,812.334Z" transform="translate(-1565.26 -789.988)"/><path class="o" d="M1596.75,801.654a.8.8,0,0,0-.279-.352,3.3,3.3,0,0,0-2.421-.434c-.317.07-1.253.48-.691.963a14.576,14.576,0,0,0,2.886.353C1596.734,802.239,1596.908,802.024,1596.75,801.654Z" transform="translate(-1567.306 -786.289)"/><path class="o" d="M1582.594,801.269a16.457,16.457,0,0,0,3.138.024c.666-.421-.282-.968-.612-1.083a3.689,3.689,0,0,0-2.65.122.85.85,0,0,0-.347.324C1581.9,801.015,1582.063,801.26,1582.594,801.269Z" transform="translate(-1563.657 -786.035)"/><path class="l" d="M1590.115,807.075c-1.038.271-1.019-1.1-.865-1.752.119-.5.272-1,.409-1.492.094-.341-.427-.524-.521-.181-.259.939-.792,2.119-.446,3.1a1.272,1.272,0,0,0,1.535.869C1590.569,807.526,1590.46,806.985,1590.115,807.075Z" transform="translate(-1565.8 -787.163)"/><path class="af" d="M1593.852,808.7c-.031-.244-.25-.477-.351-.449-.919-.112-1.09.675-1.387,1.462a5.985,5.985,0,0,1-5.857,3.415c-1.208-.1-4.477-.572-5.041-3.341-.415-2.036-.263-1.978-.8-2.455a.566.566,0,0,0-.705-.071.351.351,0,0,0-.214.25,12.976,12.976,0,0,0,.857,7.941,6.5,6.5,0,0,0,5.562,3.309c1.989.158,4.694-.466,5.975-2.206A12.026,12.026,0,0,0,1593.852,808.7Z" transform="translate(-1562.739 -788.376)"/><path class="o" d="M1591.9,811.644a17.953,17.953,0,0,0-3.269-1.213.282.282,0,0,0-.171.006c-.015,0-.026-.008-.042-.006a18.02,18.02,0,0,0-3.383.843.28.28,0,0,0-.165.405c.61,1.132,2.554.867,3.59.037.942.931,2.829,1.4,3.559.349A.28.28,0,0,0,1591.9,811.644Z" transform="translate(-1564.576 -789.438)"/><path class="af" d="M1594.531,791.071c-.555-1.1-1.773-2.774-3.166-2.231-.27-2.069-4.107-1.56-5.487-1.694-1.354-.131-2.556-.318-3.761.5a3.641,3.641,0,0,0-1.562,2.7.182.182,0,0,0,0,.04,4.293,4.293,0,0,0-1.276,2.766c-.095.953-.123,1.923-.137,2.88-.006.46-.087.762.3,1.029a.277.277,0,0,0,.335-.043c.672-.742.739-2.041,1.041-2.973.632-1.958,1.717-3.366,3.936-3.2,2.058.151,4.439,1.028,5.98-.71a4.08,4.08,0,0,0,.635,1.3c.432.55,1.1.838,1.533,1.383,1.042,1.309.621,3.436,1.23,4.942a.293.293,0,0,0,.334.176.22.22,0,0,0,.252-.195C1595.058,795.716,1595.482,792.958,1594.531,791.071Z" transform="translate(-1562.711 -781.786)"/><path class="x" d="M1580.97,814.609l-.668,1.338c-.158.316.317.6.476.279l.668-1.338C1581.6,814.57,1581.129,814.29,1580.97,814.609Z" transform="translate(-1563.082 -790.762)"/><path class="x" d="M1582.026,817.9q-.1.465-.2.932c-.076.346.456.494.531.147q.1-.466.2-.932C1582.633,817.7,1582.1,817.556,1582.026,817.9Z" transform="translate(-1563.588 -791.821)"/><path class="x" d="M1594.629,818.74c-.12-.331-.653-.188-.532.147a3.254,3.254,0,0,1,.133,1.816c-.074.346.458.494.532.146A3.8,3.8,0,0,0,1594.629,818.74Z" transform="translate(-1567.599 -792.098)"/><path class="x" d="M1596.579,818.911c-.147-.322-.623-.042-.476.278a1.439,1.439,0,0,1,.092.929c-.077.346.454.493.532.147A2.07,2.07,0,0,0,1596.579,818.911Z" transform="translate(-1568.252 -792.169)"/><path class="ag" d="M1576.444,827.715l3.383,3.715a1.507,1.507,0,0,0,2.09.134l3.635-3.087,3.339,3.147a1.508,1.508,0,0,0,2.212-.156l2.419-3.027" transform="translate(-1561.83 -795.096)"/><line class="ag" y2="15.93" transform="translate(23.723 33.381)"/><circle class="ae" cx="0.598" cy="0.598" r="0.598" transform="translate(24.635 39.324)"/></g></g></g></g></svg>