<svg xmlns="http://www.w3.org/2000/svg" width="288" height="51" viewBox="0 0 288 51"><defs><style>.a,.c{fill:#0855c4;}.a{opacity:0.075;}.b{fill:#00adee;}</style></defs><g transform="translate(-40 -355)"><circle class="a" cx="25.5" cy="25.5" r="25.5" transform="translate(40 355)"/><circle class="a" cx="25.5" cy="25.5" r="25.5" transform="translate(115 355)"/><circle class="a" cx="25.5" cy="25.5" r="25.5" transform="translate(194 355)"/><circle class="a" cx="25.5" cy="25.5" r="25.5" transform="translate(277 355)"/><g transform="translate(50.429 358.81)"><g transform="translate(0 30.099)"><path class="b" d="M245.65,1612.809h-3.162a1.752,1.752,0,0,1-1.75-1.75v-3.505H247.4v3.505A1.752,1.752,0,0,1,245.65,1612.809Zm-3.706-4.05v2.3a.545.545,0,0,0,.544.544h3.162a.545.545,0,0,0,.544-.544v-2.3Z" transform="translate(-240.738 -1607.554)"/></g><g transform="translate(24.18 30.099)"><path class="b" d="M345.913,1612.809h-3.162a1.752,1.752,0,0,1-1.75-1.75v-3.505h6.661v3.505A1.752,1.752,0,0,1,345.913,1612.809Zm-3.706-4.05v2.3a.545.545,0,0,0,.544.544h3.162a.545.545,0,0,0,.544-.544v-2.3Z" transform="translate(-341.001 -1607.554)"/></g><g transform="translate(2.731 4.874)"><path class="b" d="M253.262,1516.009l-1.2-.121.69-6.81c.359-3.544,2.5-6.116,5.084-6.116h14.352c2.606,0,4.746,2.594,5.089,6.168l.649,6.761-1.2.116-.649-6.761c-.278-2.895-1.95-5.078-3.889-5.078H257.836c-1.924,0-3.594,2.164-3.884,5.032Z" transform="translate(-252.062 -1502.962)"/></g><g transform="translate(0 16.248)"><path class="c" d="M271.58,1565.2H240.739v-8.234a7.191,7.191,0,0,1,1.573-4.526,6.073,6.073,0,0,1,4.707-2.31H265.3a6.074,6.074,0,0,1,4.707,2.31,7.192,7.192,0,0,1,1.573,4.526Zm-29.635-1.206h28.43v-7.028a5.981,5.981,0,0,0-1.3-3.767,4.873,4.873,0,0,0-3.771-1.864H247.019a4.873,4.873,0,0,0-3.771,1.864,5.982,5.982,0,0,0-1.3,3.767Z" transform="translate(-240.739 -1550.125)"/></g><g transform="translate(26.908 22.839)"><path class="c" d="M355.668,1581.965h-1.66c-.951,0-1.7-.992-1.7-2.257s.745-2.257,1.7-2.257h1.66v1.206h-1.66c-.173,0-.49.4-.49,1.051s.317,1.051.49,1.051h1.66Z" transform="translate(-352.312 -1577.451)"/></g><g transform="translate(0.261 22.839)"><path class="c" d="M243.67,1581.966h-1.851v-1.206h1.851c.291,0,.616-.45.616-1.051s-.325-1.052-.616-1.052h-1.851v-1.206h1.851a2.309,2.309,0,0,1,0,4.515Z" transform="translate(-241.819 -1577.451)"/></g><g transform="translate(5.923 22.575)"><path class="c" d="M281.964,1581.4H267.02a1.726,1.726,0,0,1-1.724-1.724v-1.594a1.726,1.726,0,0,1,1.724-1.724h14.944a1.726,1.726,0,0,1,1.724,1.724v1.594A1.726,1.726,0,0,1,281.964,1581.4Zm-14.944-3.836a.519.519,0,0,0-.518.518v1.594a.519.519,0,0,0,.518.518h14.944a.519.519,0,0,0,.518-.518v-1.594a.519.519,0,0,0-.518-.518Z" transform="translate(-265.296 -1576.357)"/></g><g transform="translate(76.121 6.849)"><path class="c" d="M573.276,1541.054a1.887,1.887,0,0,1-1.859-2.16l1.228-8.415-10.5,1.816a1.585,1.585,0,0,1-1.527-.756l-.484-.665a3.679,3.679,0,0,1-.618-2.468l.2-1.87-3.143-6.471a1.946,1.946,0,0,1-.079-1.474.737.737,0,0,1,.521-.382l3.192-.589a.894.894,0,0,1,.944.555l2.376,4.063a1.089,1.089,0,0,0,1.122.522l5.321-.92-4.152-7.7a1.886,1.886,0,0,1,1.339-2.754l1.215-.21a2.561,2.561,0,0,1,2.337,1.1l7.856,7.641,6.128-1.06c2.384-.411,4.939,1.765,6.655,5.684h0a2.782,2.782,0,0,1,.037,2.26,1.043,1.043,0,0,1-.736.565l-10.139,1.753-3.135,10.005a2.143,2.143,0,0,1-1.628,1.531l-2.14.37A1.948,1.948,0,0,1,573.276,1541.054Zm.8-12.046-1.468,10.061a.68.68,0,0,0,.789.769l2.14-.37a.938.938,0,0,0,.683-.7l3.355-10.707,10.76-1.86a1.748,1.748,0,0,0-.1-1.17c-1.46-3.334-3.557-5.291-5.345-4.98l-6.734,1.165-8.363-8.138c-.424-.511-.869-.771-1.225-.708l-1.214.21a.68.68,0,0,0-.483.994l4.947,9.175-6.972,1.206a2.3,2.3,0,0,1-2.368-1.1l-2.333-3.99-2.55.47a1.316,1.316,0,0,0,.074.25l3.277,6.744-.24,2.214a2.5,2.5,0,0,0,.394,1.629l.484.665c.163.224.308.284.346.277Zm-16.843-9.612-.011,0Z" transform="translate(-556.374 -1511.15)"/></g><g transform="translate(95.17 15.331)"><rect class="c" width="5.294" height="1.206" transform="matrix(0.985, -0.17, 0.17, 0.985, 0, 0.902)"/></g><g transform="translate(99.391 18.237)"><circle class="b" cx="1.132" cy="1.132" r="1.132" transform="translate(0 0)"/></g><g transform="translate(95.359 18.934)"><circle class="b" cx="1.132" cy="1.132" r="1.132"/></g><g transform="translate(91.47 19.606)"><circle class="b" cx="1.132" cy="1.132" r="1.132" transform="translate(0 0)"/></g><g transform="translate(183.572 25.596)"><path class="b" d="M1001.992,1595.969l-.036-.807c-.173-3.829.349-5.8,1.642-6.2.938-.293,2.043.309,3.38,1.839a18.82,18.82,0,0,1,1.581,2.118l.4.642Zm2.078-5.876a.371.371,0,0,0-.112.016c-.157.049-.894.48-.824,4.189l3.984-1.378C1005.894,1591.151,1004.649,1590.093,1004.069,1590.093Z" transform="translate(-1001.924 -1588.886)"/></g><g transform="translate(183.304 16.168)"><rect class="b" width="1.206" height="11.079" transform="matrix(0.99, -0.142, 0.142, 0.99, 0, 0.171)"/></g><g transform="translate(153.363 6.337)"><path class="c" d="M891.9,1526.819a2.087,2.087,0,0,1-.939-.222l-13.121-6.614a2.143,2.143,0,0,1,.04-3.847l14.445-6.908a2.089,2.089,0,0,1,1.88.042l12.738,6.8a2.144,2.144,0,0,1-.085,3.825l-14.061,6.724A2.089,2.089,0,0,1,891.9,1526.819Zm1.325-16.589a.877.877,0,0,0-.378.086l-14.446,6.908a.937.937,0,0,0-.017,1.683l13.121,6.613a.885.885,0,0,0,.774.008l14.062-6.724a.938.938,0,0,0,.037-1.674l-12.738-6.8A.881.881,0,0,0,893.224,1510.231Z" transform="translate(-876.661 -1509.026)"/></g><g transform="translate(157.427 18.411)"><path class="c" d="M905.1,1576.954c-5.617,0-11.587-1.478-11.587-4.216v-13.644h1.206v13.644c0,1.257,3.95,3.011,10.382,3.011s10.381-1.753,10.381-3.011v-13.644h1.206v13.644C916.687,1575.476,910.718,1576.954,905.1,1576.954Z" transform="translate(-893.513 -1559.093)"/></g><g transform="translate(160.605 19.847)"><rect class="c" width="1.206" height="3.781" transform="translate(0 0)"/></g><g transform="translate(237.396 0)"><path class="c" d="M1253.593,1518.348h-28.486v-33.137a2.463,2.463,0,0,1,2.461-2.461h23.564a2.463,2.463,0,0,1,2.461,2.461Zm-27.28-1.206h26.074v-31.931a1.257,1.257,0,0,0-1.255-1.255h-23.564a1.257,1.257,0,0,0-1.255,1.255Z" transform="translate(-1225.107 -1482.75)"/></g><g transform="translate(248.165 28.249)"><path class="b" d="M1277.107,1607.233h-7.349v-7.349h7.349Zm-6.143-1.206h4.937v-4.937h-4.937Z" transform="translate(-1269.758 -1599.884)"/></g><g transform="translate(242.82 6.715)"><path class="b" d="M1254.656,1516.443h-7.061v-5.85h7.061Zm-5.855-1.206h4.649V1511.8H1248.8Z" transform="translate(-1247.595 -1510.593)"/></g><g transform="translate(254.092 6.715)"><path class="b" d="M1301.4,1516.443h-7.061v-5.85h7.061Zm-5.855-1.206h4.65V1511.8h-4.65Z" transform="translate(-1294.337 -1510.593)"/></g><g transform="translate(242.82 17.173)"><path class="b" d="M1254.656,1559.809h-7.061v-5.85h7.061Zm-5.855-1.206h4.649v-3.438H1248.8Z" transform="translate(-1247.595 -1553.959)"/></g><g transform="translate(254.092 17.173)"><path class="b" d="M1301.4,1559.809h-7.061v-5.85h7.061Zm-5.855-1.206h4.65v-3.438h-4.65Z" transform="translate(-1294.337 -1553.959)"/></g></g></g></svg>