<svg xmlns="http://www.w3.org/2000/svg" width="186.159" height="182.667" viewBox="0 0 186.159 182.667"><defs><style>.a,.b{fill:#bbd7ff;}.a{opacity:0.46;}.c{fill:#1c5cc1;}.d{fill:#296cce;}.e{fill:#0a46a5;}.f{fill:#054491;}.g{fill:#0a9e33;}.h{fill:#cdbb7c;}.i{fill:#42e56d;}.j{fill:#92ffb1;}.k{fill:#0a9b32;}.l{fill:#14c149;}.aa,.m,.n{fill:none;stroke-miterlimit:10;}.m{stroke:#003aa0;stroke-width:0.5px;}.n{stroke:#1c5cc1;stroke-width:0.15px;}.o{fill:#082c60;}.p{opacity:0.43;}.q{fill:#566889;}.r{opacity:0.22;}.s{fill:#2d3951;}.t{fill:#f6f8fa;}.u{fill:#faba2b;}.v{fill:#ff409e;}.w{fill:#ffaf97;}.x{fill:#00aef0;}.y{fill:#f4876e;}.z{fill:#000061;}.aa{stroke:#000061;}.ab{fill:#162a42;}.ac{fill:#008eef;}</style></defs><g transform="translate(0 13.953)"><path class="a" d="M1609.665,253.163v32.022l-17.665.285,17.665,10.163v13.6a4.164,4.164,0,0,0,4.164,4.163h72.592a4.163,4.163,0,0,0,4.163-4.163V253.163a4.163,4.163,0,0,0-4.163-4.163h-72.592A4.164,4.164,0,0,0,1609.665,253.163Z" transform="translate(-1504.426 -186.244)"/><path class="a" d="M1583.332,137.21h-73.764a4.568,4.568,0,0,0-4.568,4.568v44.54a4.568,4.568,0,0,0,4.568,4.568h2.887V205.5l11.742-14.611h59.135a4.568,4.568,0,0,0,4.568-4.568v-44.54A4.568,4.568,0,0,0,1583.332,137.21Z" transform="translate(-1466.265 -151.163)"/><ellipse class="b" cx="26.838" cy="19.085" rx="26.838" ry="19.085" transform="translate(54.539 -6.497)"/><ellipse class="b" cx="21.884" cy="29.51" rx="21.884" ry="29.51" transform="translate(109.976 106.876) rotate(-67.814)"/><g transform="translate(117.777 71.32)"><path class="c" d="M1689.116,320.268v4.915s-.906.548-3.691.548-3.585-.548-3.585-.548v-2.96Z" transform="translate(-1649.67 -279.354)"/><path class="c" d="M1666.869,322.031v2.96s-.8.548-3.585.548-3.7-.548-3.7-.548v-5.35Z" transform="translate(-1642.867 -279.162)"/><path class="c" d="M1702.754,292.937l5.99.222a11.567,11.567,0,0,1-1.905,11.753,13.838,13.838,0,0,1-7.692,1.107Z" transform="translate(-1654.962 -270.998)"/><path class="d" d="M1708.452,304.467a12.039,12.039,0,0,1-1.705,3.11,12.608,12.608,0,0,1-5.1,1h0c-.161,0-.324,0-.486-.008l1.129-4.1Z" transform="translate(-1655.577 -274.523)"/><path class="c" d="M1666.521,274.751c11.135,0,19.636,6.327,21.137,14.591a14.1,14.1,0,0,1,.177,4.935,31.6,31.6,0,0,1-1.366,4.016c-3.015,6.382-10.542,10.894-19.948,10.894-12.3,0-21.407-7.7-21.407-17.216S1654.226,274.751,1666.521,274.751Z" transform="translate(-1638.442 -265.438)"/><path class="d" d="M1685.774,322.484l2.785-.747v3.242a12.583,12.583,0,0,1-2.785-.248Z" transform="translate(-1650.873 -279.803)"/><path class="e" d="M1698.943,291.486a1.582,1.582,0,1,1-1.582-1.582A1.58,1.58,0,0,1,1698.943,291.486Z" transform="translate(-1653.932 -270.07)"/><path class="c" d="M1693.541,272.966v5.068l-4.053,2.32a4.857,4.857,0,0,1-.721-2.554A4.8,4.8,0,0,1,1693.541,272.966Z" transform="translate(-1651.788 -264.892)"/><path class="d" d="M1661.151,320.972l2.527.829v3.067a11.681,11.681,0,0,1-2.527-.235Z" transform="translate(-1643.345 -279.569)"/><path class="f" d="M1677.98,279.966a.869.869,0,0,0,.2-1.714,26.166,26.166,0,0,0-6.029-.689h0a26.138,26.138,0,0,0-5.814.64.868.868,0,1,0,.385,1.692,24.525,24.525,0,0,1,5.429-.6h0a24.423,24.423,0,0,1,5.627.644A.927.927,0,0,0,1677.98,279.966Z" transform="translate(-1644.723 -266.297)"/><g transform="translate(19.507)"><g transform="translate(0 2.612)"><path class="g" d="M1670.206,267.148v.221l.983,4.814h-.646a6.006,6.006,0,0,1-1-.176c-.177-.087-.792-.235-2.113-.617a3.512,3.512,0,0,1-1.82-1.027c-.1-.082-.576-.587-1-1.093C1665.141,268.371,1669.364,267.345,1670.206,267.148Z" transform="translate(-1663.909 -265.725)"/><path class="h" d="M1672.817,267.1l-.146.033V267.1Z" transform="translate(-1666.373 -265.711)"/><path class="i" d="M1663.675,267.773a.4.4,0,0,0-.075-.2v-.007c.011-.374.6-.762,2.114-1.321a37.145,37.145,0,0,1,4.183-1.145v.612l-.525.778h.525v.033c-.841.2-5.064,1.223-5.6,2.123a6.523,6.523,0,0,1-.632-.843A.051.051,0,0,0,1663.675,267.773Z" transform="translate(-1663.6 -265.099)"/></g><path class="i" d="M1676,265.211s.382-3.611.47-3.875c0,0-4.817.88-4.756,1.673a8.414,8.414,0,0,0,1.438,2.847" transform="translate(-1666.082 -261.336)"/><g transform="translate(0 5.078)"><path class="j" d="M1664.066,270.65l-.466-2a10.954,10.954,0,0,0,2.847,1.2c6.135,1.585,9.746.734,9.746.734l-.2,1.355A30.064,30.064,0,0,1,1664.066,270.65Z" transform="translate(-1663.6 -268.651)"/><path class="k" d="M1664.271,271.53a30.064,30.064,0,0,0,11.928,1.293l-.622,4.222-1.66.786-2.831-1.016a11.577,11.577,0,0,1-4.977,2.255c-.214-.719-.4-1.349-.4-1.349Z" transform="translate(-1663.805 -269.531)"/><path class="h" d="M1674.727,280.159c-2.521,1.191-7.033,3.316-7.118,3.294a15.535,15.535,0,0,1-.69-2.056c3.715-1.061,4.976-2.255,4.976-2.255Z" transform="translate(-1664.615 -271.859)"/></g><path class="g" d="M1682.414,267.142l1.174-1.145s-.763-.821-4.314-1.145a13.7,13.7,0,0,0-2.416-.026c-.215.056-.059,1.793-.029,1.88" transform="translate(-1667.62 -262.387)"/><g transform="translate(5.637 1.643)"><path class="j" d="M1671.808,265.247l-.089-1.544a14.419,14.419,0,0,0,2.612,1.263,19.12,19.12,0,0,0,7.72.7l-.246,1.272C1680.56,266.99,1674.7,267.106,1671.808,265.247Z" transform="translate(-1671.719 -263.703)"/><path class="j" d="M1680.287,280.263l-7.648-.587-.071-1.227a51.441,51.441,0,0,0,8.149-.044l-.167.861Z" transform="translate(-1671.979 -268.198)"/></g><path class="l" d="M1681.845,267.622l-1.348,6.968s0,.364-.178.37a39.006,39.006,0,0,1-7.971-.326l-.5-8.707C1674.739,267.786,1680.6,267.67,1681.845,267.622Z" transform="translate(-1666.121 -262.74)"/><path class="j" d="M1675.97,272.268a2.026,2.026,0,1,0,2.371-1.99A2.2,2.2,0,0,0,1675.97,272.268Z" transform="translate(-1667.37 -264.062)"/><path class="g" d="M1676.716,272.732a1.492,1.492,0,1,0,1.746-1.465A1.623,1.623,0,0,0,1676.716,272.732Z" transform="translate(-1667.601 -264.367)"/><path class="j" d="M1667.378,278.339c.211,1.21,1,2.084,1.757,1.952s1.2-1.221.993-2.431-1-2.084-1.757-1.952S1667.168,277.129,1667.378,278.339Z" transform="translate(-1664.739 -265.787)"/><path class="g" d="M1668.056,278.745c.143.821.676,1.413,1.191,1.323s.817-.828.674-1.648-.676-1.413-1.191-1.323S1667.913,277.925,1668.056,278.745Z" transform="translate(-1664.952 -266.152)"/></g><path class="c" d="M1678.591,280.777s-7.17-1.709-12.321-.078v3.619l2.194,2.108,5.106.2s3.242-2.118,3.335-2.308S1678.591,280.777,1678.591,280.777Z" transform="translate(-1644.91 -267.041)"/><path class="m" d="M1700.236,313.226a2.375,2.375,0,0,1-2.7-1.09" transform="translate(-1654.471 -276.868)"/><path class="n" d="M1643.369,292.776a3.364,3.364,0,0,1-6.047-.1c-.3-.644-.305-1.565.318-1.905.66-.36,1.53.341,1.507,1.091a1.841,1.841,0,0,1-1.408,1.566,5.4,5.4,0,0,1-2.235,0" transform="translate(-1635.503 -270.306)"/></g><g transform="translate(63.485 -6.369)"><g transform="translate(0 2.231)"><path class="o" d="M1547.425,151.121l-4.262.414s-3.372.616-3.062,3.8l.42,4.318c-.013-.133-.219-2.217.085.873a3.154,3.154,0,0,0,1.327,2.4,1.477,1.477,0,0,1,.628,1.065l2.168,22.3a1.845,1.845,0,0,0,2.015,1.657l.3-.029,2.647-.258-2.36-24.273,1.279-.124Z" transform="translate(-1540.08 -151.121)"/></g><g transform="translate(3.077 0)"><rect class="c" width="27.335" height="12.2" rx="1.744" transform="translate(0 2.646) rotate(-5.554)"/></g><g class="p" transform="translate(3.216 0.137)"><path class="o" d="M1571.847,149.476v.009l-27.188,2.644-.021-.215a1.458,1.458,0,0,1,1.323-1.393l24.286-2.361A1.465,1.465,0,0,1,1571.847,149.476Z" transform="translate(-1544.639 -148.153)"/></g><g transform="translate(4.276 12.222)"><rect class="c" width="26.496" height="24.386" rx="1.744" transform="translate(0 2.564) rotate(-5.554)"/></g><g transform="translate(4.449 12.356)"><path class="q" d="M1572.605,166.333l-26.219,2.549a1.466,1.466,0,0,1,1.289-1.122l23.449-2.28A1.471,1.471,0,0,1,1572.605,166.333Z" transform="translate(-1546.386 -165.473)"/></g><g transform="translate(4.449 12.356)"><path class="o" d="M1572.605,166.333l-26.219,2.549a1.466,1.466,0,0,1,1.289-1.122l23.449-2.28A1.471,1.471,0,0,1,1572.605,166.333Z" transform="translate(-1546.386 -165.473)"/></g><g transform="translate(6.342 3.12)"><rect class="b" width="21.355" height="6.891" transform="translate(0 2.067) rotate(-5.554)"/></g><g class="r" transform="translate(25.516 3.12)"><rect class="c" width="2.091" height="6.891" transform="translate(0 0.202) rotate(-5.554)"/></g><g transform="translate(6.646 18.137)"><rect class="s" width="4.556" height="4.291" rx="1.269" transform="translate(0 0.441) rotate(-5.554)"/></g><g transform="translate(7.194 23.777)"><rect class="s" width="4.556" height="4.291" rx="1.269" transform="translate(0 0.441) rotate(-5.554)"/></g><g transform="translate(12.233 17.594)"><rect class="s" width="4.556" height="4.291" rx="1.269" transform="translate(0 0.441) rotate(-5.554)"/></g><g transform="translate(12.781 23.234)"><rect class="s" width="4.556" height="4.291" rx="1.269" transform="translate(0 0.441) rotate(-5.554)"/></g><g transform="translate(18.398 22.687)"><rect class="s" width="4.556" height="4.291" rx="1.269" transform="translate(0 0.441) rotate(-5.554)"/></g><g transform="translate(7.753 29.518)"><rect class="s" width="4.556" height="4.291" rx="1.269" transform="translate(0 0.441) rotate(-5.554)"/></g><g transform="translate(13.339 28.974)"><rect class="s" width="4.556" height="4.291" rx="1.269" transform="translate(0 0.441) rotate(-5.554)"/></g><g transform="translate(18.956 28.428)"><rect class="s" width="4.556" height="4.291" rx="1.269" transform="translate(0 0.441) rotate(-5.554)"/></g><g transform="translate(17.849 17.047)"><rect class="s" width="4.556" height="4.291" rx="1.269" transform="translate(0 0.441) rotate(-5.554)"/></g><g transform="translate(8.169 23.682)"><rect class="b" width="4.556" height="4.291" rx="1.269" transform="translate(0 0.441) rotate(-5.554)"/></g><g transform="translate(13.743 23.14)"><rect class="b" width="4.556" height="4.291" rx="1.269" transform="translate(0 0.441) rotate(-5.554)"/></g><g transform="translate(19.316 22.598)"><rect class="b" width="4.556" height="4.291" rx="1.269" transform="translate(0 0.441) rotate(-5.554)"/></g><g transform="translate(8.728 29.423)"><rect class="b" width="4.556" height="4.291" rx="1.269" transform="translate(0 0.441) rotate(-5.554)"/></g><g transform="translate(14.301 28.881)"><rect class="b" width="4.556" height="4.291" rx="1.269" transform="translate(0 0.441) rotate(-5.554)"/></g><g transform="translate(19.875 28.339)"><rect class="t" width="4.556" height="4.291" rx="1.269" transform="translate(0 0.441) rotate(-5.554)"/></g><g transform="translate(23.415 16.506)"><rect class="s" width="4.556" height="4.291" rx="1.269" transform="translate(0 0.441) rotate(-5.554)"/></g><g transform="translate(23.963 22.146)"><rect class="s" width="4.556" height="10.059" rx="1.269" transform="translate(0 0.441) rotate(-5.554)"/></g><g transform="translate(7.621 18.042)"><rect class="u" width="4.556" height="4.291" rx="1.269" transform="translate(0 0.441) rotate(-5.554)"/></g><g transform="translate(13.194 17.5)"><rect class="u" width="4.556" height="4.291" rx="1.269" transform="translate(0 0.441) rotate(-5.554)"/></g><g transform="translate(18.768 16.958)"><rect class="v" width="4.556" height="4.291" rx="1.269" transform="translate(0 0.441) rotate(-5.554)"/></g><g transform="translate(24.342 16.416)"><rect class="b" width="4.556" height="4.291" rx="1.269" transform="translate(0 0.441) rotate(-5.554)"/></g><g transform="translate(24.888 22.038)"><rect class="b" width="4.556" height="10.136" rx="1.269" transform="translate(0 0.441) rotate(-5.554)"/></g><g transform="translate(6.536 35.247)"><path class="o" d="M1549.344,200.478a1.464,1.464,0,0,0,1.562,1.108l23.45-2.28a1.468,1.468,0,0,0,1.319-1.389Z" transform="translate(-1549.344 -197.918)"/></g></g><path class="w" d="M1489.929,335.7s2.807,8.421-1.684,13.473L1486,357.6l8.421,9.543,22.455-3.368,5.614-15.157s-10.078-5.409-8.688-29.931l-23.871,8.6Z" transform="translate(-1457.931 -216.808)"/><path class="x" d="M1467.734,369.15s-22.191-1.211-31.734,22.366c0,0,28.63,37.051,94.872-1.123,0,0-6.664-21.176-32.242-21.254C1498.63,369.139,1474.206,406.289,1467.734,369.15Z" transform="translate(-1436 -238.94)"/><path class="y" d="M1494.214,348.207,1510.935,340s-3.689,15.83-16.721,13.248C1494.214,353.248,1494.335,347.993,1494.214,348.207Z" transform="translate(-1461.534 -226.159)"/><ellipse class="w" cx="19.929" cy="26.946" rx="19.929" ry="26.946" transform="translate(16.56 68.65)"/><path class="z" d="M1496.517,274.964c-2.206,1.233-4.868-.514-6.5-2.506s-3.075-4.457-5.469-5.2a21.853,21.853,0,0,0-3.879-.4,8.559,8.559,0,0,1-5.856-3.566c-1.278,3.483-5.287,4.85-8.827,5.052-4.956.284-10.416-1.154-13.319-5.394-1.716-2.507-2.319-5.651-2.782-8.7a15.858,15.858,0,0,1-.245-4.058,11.542,11.542,0,0,1,1.7-4.644,21.735,21.735,0,0,1,33.365-3.712,1.856,1.856,0,0,0,1.093.72,1.749,1.749,0,0,0,1-.373c2.883-1.81,6.237-3.323,9.519-2.579,4.795,1.087,7.6,6.812,7.274,11.965a3.177,3.177,0,0,0,.313,2.123,2.916,2.916,0,0,0,1.355.811c5.572,2.207,8.806,9.458,6.861,15.383-.682,2.078-1.9,3.975-2.214,6.148a20.194,20.194,0,0,1-.372,2.907c-.831,2.793-4.313,3.85-6.948,2.921s-4.591-3.226-6.419-5.431" transform="translate(-1441.961 -180.397)"/><ellipse class="w" cx="5.575" cy="4.21" rx="5.575" ry="4.21" transform="translate(49.717 97.067) rotate(-24.797)"/><ellipse class="z" cx="1.123" cy="1.684" rx="1.123" ry="1.684" transform="translate(23.858 96.719)"/><ellipse class="z" cx="1.123" cy="1.684" rx="1.123" ry="1.684" transform="translate(37.612 97)"/><path class="aa" d="M1488.123,310s2.807,4.491-1.123,10.666l4.262,1.362" transform="translate(-1458.37 -213)"/><path class="aa" d="M1492.5,337.965s1.123-1.123,4.772-1.965" transform="translate(-1460.782 -224.405)"/><path class="z" d="M1456.994,277.433s-11.175-5.615-7.377-17.918l8.29-.515v10.666Z" transform="translate(-1441.628 -190.63)"/><path class="w" d="M1462.006,387.7s-2.306-16.127-1.178-22.779,10.092-20.206,12.814-18.687-3.244,12.234-3.244,12.234,8.888,4.264,9.749,7.344-7,10.315-7.539,13.307a104.551,104.551,0,0,0-.682,10.716Z" transform="translate(-1446.754 -228.84)"/><path class="ab" d="M1480.491,400.277a8.351,8.351,0,0,1-4.694,4.709c-.5.173-.181.94.313.755a9.238,9.238,0,0,0,5.112-5.1C1481.439,400.166,1480.71,399.8,1480.491,400.277Z" transform="translate(-1453.347 -252.5)"/><path class="ab" d="M1487.156,373.322c-.533-1.213-1.727-1.284-2.878-1.4-1.208-.124-1.793-1.045-2.538-1.872a3.449,3.449,0,0,0-2.887-1.052.409.409,0,0,0,.04.816,2.67,2.67,0,0,1,2.5,1.081,4.516,4.516,0,0,0,2.188,1.733c1.041.269,2.439-.08,2.891,1.182a7.264,7.264,0,0,1,.175,2.881c-.034.515.756.67.805.14A7.281,7.281,0,0,0,1487.156,373.322Z" transform="translate(-1454.632 -238.876)"/><path class="z" d="M1481.017,345.027c-1.582-.25-3.119,1.3-3.854,2.536-.268.45.482.8.743.341.5-.867,2.975-3.292,3.766-1.458.472,1.1-.144,2.674-.506,3.713-.826,2.37-2.15,4.524-3.006,6.872-.18.493.617.691.793.2.33-.921.818-1.8,1.236-2.683.589-1.246,1.163-2.5,1.634-3.8C1482.378,349.218,1483.656,345.443,1481.017,345.027Z" transform="translate(-1454.03 -228.352)"/><path class="ac" d="M1458.086,416l13.192,2.651,1.811,8.446s-11.73-1.539-16.174-5.757Z" transform="translate(-1445.174 -259.495)"/><path class="aa" d="M1546,260.543s5.052-4.491,1.684-9.543" transform="translate(-1484.249 -187.121)"/></g></svg>