<svg xmlns="http://www.w3.org/2000/svg" xmlns:xlink="http://www.w3.org/1999/xlink" width="380.363" height="100.073" viewBox="0 0 380.363 100.073"><defs><style>.a{fill:none;}.b{fill:#fff;}.c{fill:#c69749;}.d{clip-path:url(#a);}</style><clipPath id="a"><rect class="a" width="253.793" height="30.946"/></clipPath></defs><g transform="translate(-332.529 -84.181)"><g transform="translate(375.418 117.905)"><g transform="translate(3.379 52.338)"><path class="b" d="M43.535,101.688V91.734c0-.858.42-1.28,1.184-1.28h.4a1.115,1.115,0,0,1,1.242,1.28V95.5h5.33V91.734c0-.858.4-1.28,1.166-1.28h.42c.8,0,1.222.421,1.222,1.28v9.954a1.117,1.117,0,0,1-1.222,1.281h-.42c-.765,0-1.166-.439-1.166-1.281v-3.8h-5.33v3.8a1.123,1.123,0,0,1-1.242,1.281h-.4c-.764,0-1.184-.439-1.184-1.281" transform="translate(-43.535 -89.309)"/><path class="b" d="M62.115,97.166h.306A1.165,1.165,0,0,0,62.4,96.9a1.649,1.649,0,0,0-1.892-1.682,2.335,2.335,0,0,0-2.292,1.356c-.019.038-1.739.172-1.739-1.07a1.709,1.709,0,0,1,.573-1.222,5.028,5.028,0,0,1,3.63-1.089c2.962,0,4.4,1.356,4.4,3.858v5.5c0,.134-.5.306-1.012.306a1.392,1.392,0,0,1-1.414-.9,3.763,3.763,0,0,1-.153-.63,3.723,3.723,0,0,1-3.229,1.605c-1.949,0-3.133-1.071-3.133-2.674,0-2.083,2.026-3.039,5.98-3.1m.306,1.356h-.516c-2.12.076-3.248.477-3.248,1.528,0,.707.555,1.147,1.452,1.147a2.1,2.1,0,0,0,2.312-2.007Z" transform="translate(-42.765 -89.142)"/><path class="b" d="M66.521,100.891a1.185,1.185,0,0,1,.821-1.07,4.077,4.077,0,0,0,3.076,1.261c1.052,0,1.625-.363,1.625-.956,0-.725-.745-.858-1.987-1.126-1.28-.267-3.267-.689-3.267-2.79,0-1.816,1.472-3.019,3.878-3.019,1.891,0,3.057.516,3.535,1.242a1.372,1.372,0,0,1,.229.765,1.334,1.334,0,0,1-.858,1.126,3.709,3.709,0,0,0-2.733-1.26c-1.031,0-1.585.381-1.585.974,0,.669.726.8,1.986,1.089,1.318.286,3.421.707,3.421,2.809,0,1.872-1.491,3-4.109,3a6.149,6.149,0,0,1-3.21-.707,1.631,1.631,0,0,1-.821-1.338" transform="translate(-42.13 -89.142)"/><path class="b" d="M77.2,99.915V95.635H76.72c-.764,0-1.108-.344-1.108-.956v-.153c0-.63.344-.994,1.089-.994h.5V92.348c0-.879.439-1.3,1.2-1.3h.247c.707,0,1.184.306,1.184,1.3v1.184h1.626c.763,0,1.089.326,1.089.937v.172c0,.65-.344.994-1.109.994H79.795v3.974c0,.917.288,1.375,1.032,1.375a1.37,1.37,0,0,0,1.166-.63,1.059,1.059,0,0,1,.667,1.05,1.363,1.363,0,0,1-.457,1.031,2.789,2.789,0,0,1-2.007.688c-2.045,0-3-1.089-3-3.209" transform="translate(-41.575 -89.273)"/><path class="b" d="M89.762,97.166h.306a1.166,1.166,0,0,0-.019-.267,1.649,1.649,0,0,0-1.892-1.682,2.335,2.335,0,0,0-2.292,1.356c-.019.038-1.739.172-1.739-1.07a1.7,1.7,0,0,1,.573-1.222,5.028,5.028,0,0,1,3.63-1.089c2.962,0,4.4,1.356,4.4,3.858v5.5c0,.134-.5.306-1.012.306a1.392,1.392,0,0,1-1.414-.9,3.764,3.764,0,0,1-.153-.63,3.723,3.723,0,0,1-3.229,1.605c-1.949,0-3.133-1.071-3.133-2.674,0-2.083,2.026-3.039,5.98-3.1m.306,1.356h-.516C87.432,98.6,86.3,99,86.3,100.05c0,.707.555,1.147,1.452,1.147a2.1,2.1,0,0,0,2.312-2.007Z" transform="translate(-41.075 -89.142)"/><path class="b" d="M99.065,102.235a2.438,2.438,0,0,1-1.243-1.892,1.394,1.394,0,0,1,1.663-1.337,2.937,2.937,0,0,0,3.056,1.968c1.491,0,2.427-.67,2.427-1.758,0-1.127-.745-1.7-2.2-1.7h-.648c-.937,0-1.3-.344-1.3-.956v-.153c0-.668.42-.956,1.262-.956H103c1.146,0,1.757-.553,1.757-1.452,0-.955-.84-1.547-2.255-1.547a2.718,2.718,0,0,0-2.751,1.776,1.373,1.373,0,0,1-1.624-1.318,2.275,2.275,0,0,1,1.2-1.8,5.953,5.953,0,0,1,3.229-.84c3.113,0,4.852,1.222,4.852,3.4a2.592,2.592,0,0,1-2.159,2.579,3.183,3.183,0,0,1,2.408,3.133c0,2.388-1.854,3.783-5.1,3.783a6.151,6.151,0,0,1-3.5-.936" transform="translate(-40.217 -89.32)"/><path class="b" d="M111.539,101.731V93.936a1.71,1.71,0,0,1-1.108.4,1.871,1.871,0,0,1-1.222-.439,1.54,1.54,0,0,1-.478-1.146,1.35,1.35,0,0,1,.745-1.338,1.778,1.778,0,0,0,1.165.421,1.661,1.661,0,0,0,1.625-1.434h.821c.8,0,1.222.439,1.222,1.3v10.03c0,.841-.42,1.3-1.222,1.3h-.364c-.783,0-1.184-.458-1.184-1.3" transform="translate(-39.55 -89.312)"/><path class="b" d="M120.431,98.3c0-2.962,1.757-4.891,4.338-4.891a3.494,3.494,0,0,1,2.941,1.413V89.968a1.5,1.5,0,0,1,1.013-.306c.8,0,1.681.421,1.681,2.158v9.916c0,.975-.478,1.281-1.184,1.281h-.268c-.611,0-1.069-.21-1.164-.937-.02-.209-.038-.419-.038-.649a3.386,3.386,0,0,1-3.039,1.777c-2.522,0-4.279-1.986-4.279-4.91m7.3-1.243a2.365,2.365,0,0,0-2.312-1.49,2.429,2.429,0,0,0-2.426,2.732,2.481,2.481,0,0,0,2.389,2.751,2.241,2.241,0,0,0,2.349-2.236Z" transform="translate(-38.835 -89.357)"/><path class="b" d="M136.857,93.192a4.438,4.438,0,0,1,4.642,4.66v.173c-.019.458-.153.708-.65.708h-6.458l.058.306a2.589,2.589,0,0,0,2.675,2.006,2.777,2.777,0,0,0,2.617-1.357c.019-.037,1.318.076,1.318,1.147a1.82,1.82,0,0,1-1.03,1.452,5.7,5.7,0,0,1-2.982.707c-3.037,0-5.024-1.891-5.024-4.852a4.739,4.739,0,0,1,4.834-4.948m-.02,1.853a2.412,2.412,0,0,0-2.408,2.217h4.586a2.118,2.118,0,0,0-2.178-2.217" transform="translate(-38.127 -89.142)"/><path class="b" d="M146.422,98.3c0-2.962,1.758-4.891,4.338-4.891a3.493,3.493,0,0,1,2.941,1.413V89.968a1.5,1.5,0,0,1,1.013-.306c.8,0,1.681.421,1.681,2.158v9.916c0,.975-.478,1.281-1.185,1.281h-.267c-.611,0-1.069-.21-1.164-.937-.02-.209-.038-.419-.038-.649a3.386,3.386,0,0,1-3.039,1.777c-2.521,0-4.279-1.986-4.279-4.91m7.3-1.243a2.365,2.365,0,0,0-2.312-1.49,2.429,2.429,0,0,0-2.426,2.732,2.481,2.481,0,0,0,2.389,2.751,2.241,2.241,0,0,0,2.349-2.236Z" transform="translate(-37.247 -89.357)"/><path class="b" d="M159.937,89.375a1.4,1.4,0,1,1-1.51,1.394,1.347,1.347,0,0,1,1.51-1.394m-1.356,5.464c0-.974.515-1.3,1.2-1.3h.288c.707,0,1.2.306,1.2,1.3v6.916c0,.975-.5,1.281-1.2,1.281h-.27c-.725,0-1.221-.288-1.221-1.281Z" transform="translate(-36.513 -89.375)"/><path class="b" d="M168.215,93.192a4.725,4.725,0,0,1,3.057.936,2.248,2.248,0,0,1,.917,1.605c0,1.089-1.452,1.3-1.51,1.184a2.3,2.3,0,0,0-2.35-1.547,2.73,2.73,0,0,0,0,5.445,2.331,2.331,0,0,0,2.35-1.547c.058-.116,1.51.038,1.51,1.2a2.153,2.153,0,0,1-.937,1.567,4.629,4.629,0,0,1-3.037.955,4.9,4.9,0,0,1,0-9.8" transform="translate(-36.213 -89.142)"/><path class="b" d="M175.184,89.375a1.4,1.4,0,1,1-1.51,1.394,1.347,1.347,0,0,1,1.51-1.394m-1.357,5.464c0-.974.516-1.3,1.2-1.3h.287c.707,0,1.2.306,1.2,1.3v6.916c0,.975-.5,1.281-1.2,1.281h-.268c-.725,0-1.222-.288-1.222-1.281Z" transform="translate(-35.581 -89.375)"/><path class="b" d="M183.422,93.192a4.437,4.437,0,0,1,4.642,4.66v.173c-.019.458-.153.708-.65.708h-6.458l.058.306a2.589,2.589,0,0,0,2.675,2.006,2.777,2.777,0,0,0,2.617-1.357c.019-.037,1.318.076,1.318,1.147a1.82,1.82,0,0,1-1.03,1.452,5.7,5.7,0,0,1-2.982.707c-3.037,0-5.024-1.891-5.024-4.852a4.739,4.739,0,0,1,4.834-4.948m-.02,1.853a2.412,2.412,0,0,0-2.408,2.217h4.586a2.118,2.118,0,0,0-2.178-2.217" transform="translate(-35.281 -89.142)"/><path class="b" d="M204.637,96.9v4.622c0,.975-.5,1.281-1.184,1.281h-.286c-.726,0-1.222-.286-1.222-1.281v-4.2c0-1.223-.536-1.873-1.625-1.873a2.172,2.172,0,0,0-1.835,1.147v4.928c0,.975-.5,1.281-1.184,1.281h-.286c-.708,0-1.222-.286-1.222-1.281V97.376c0-1.281-.536-1.93-1.605-1.93a2.169,2.169,0,0,0-1.834,1.147v4.928c0,.975-.5,1.281-1.184,1.281h-.288c-.725,0-1.222-.286-1.222-1.281v-7.91c0-.1.478-.306,1.012-.306.67,0,1.394.288,1.605,1.529a3.348,3.348,0,0,1,2.884-1.643,2.949,2.949,0,0,1,2.981,1.91,3.484,3.484,0,0,1,3.133-1.91c2.368,0,3.363,1.509,3.363,3.706" transform="translate(-34.604 -89.142)"/><path class="b" d="M208.925,102.1a.982.982,0,0,1-1.108.917h-.288c-.707,0-1.222-.286-1.222-1.3V89.969a1.512,1.512,0,0,1,1.032-.306c.783,0,1.662.42,1.662,2.158v3.114a3.508,3.508,0,0,1,3-1.528c2.521,0,4.3,1.891,4.3,4.872,0,2.9-1.757,4.929-4.318,4.929a3.3,3.3,0,0,1-3-1.662Zm2.427-6.534A2.422,2.422,0,0,0,209,97.094V98.91a2.218,2.218,0,0,0,2.33,2.14,2.77,2.77,0,0,0,.02-5.484" transform="translate(-33.587 -89.357)"/><path class="b" d="M224.547,94.758a1.392,1.392,0,0,1-.86,1.413,1.865,1.865,0,0,0-1.222-.459c-1.3,0-1.873,1.147-1.873,3.02v2.789c0,.975-.5,1.281-1.184,1.281h-.286c-.726,0-1.223-.286-1.223-1.281v-7.91c0-.1.459-.306,1.012-.306a1.49,1.49,0,0,1,1.472,1.013,4.256,4.256,0,0,1,.134.648,2.328,2.328,0,0,1,2.312-1.776,1.53,1.53,0,0,1,1.719,1.567" transform="translate(-32.878 -89.142)"/><path class="b" d="M229.9,93.192a4.437,4.437,0,0,1,4.642,4.66v.173c-.019.458-.153.708-.65.708h-6.457l.057.306a2.589,2.589,0,0,0,2.675,2.006,2.777,2.777,0,0,0,2.617-1.357c.019-.037,1.319.076,1.319,1.147a1.822,1.822,0,0,1-1.031,1.452,5.7,5.7,0,0,1-2.982.707c-3.037,0-5.024-1.891-5.024-4.852a4.739,4.739,0,0,1,4.834-4.948m-.019,1.853a2.413,2.413,0,0,0-2.409,2.217h4.586a2.117,2.117,0,0,0-2.177-2.217" transform="translate(-32.44 -89.142)"/></g><path class="b" d="M44.213,66.527c0-9.8,5.816-16.188,14.352-16.188a11.569,11.569,0,0,1,9.738,4.68V38.959c0-.254,1.58-1.012,3.352-1.012,2.655,0,5.564,1.391,5.564,7.144V77.909c0,3.225-1.582,4.237-3.921,4.237h-.886c-2.023,0-3.541-.7-3.857-3.1-.063-.7-.126-1.392-.126-2.15a11.2,11.2,0,0,1-10.054,5.881c-8.348,0-14.164-6.577-14.164-16.251m24.153-4.111a7.826,7.826,0,0,0-7.651-4.931c-4.806,0-8.031,3.478-8.031,9.042,0,5.374,3.288,9.105,7.9,9.105,4.237,0,7.778-2.972,7.778-7.4Z" transform="translate(-44.213 -36.365)"/><path class="b" d="M94.785,49.167c9.167,0,15.365,6.387,15.365,15.429v.569c-.064,1.518-.507,2.339-2.151,2.339H86.628l.19,1.012c.948,4.047,4.3,6.64,8.851,6.64,4.617,0,7.272-2.023,8.663-4.49.064-.127,4.363.253,4.363,3.794,0,1.707-1.2,3.478-3.414,4.806A18.9,18.9,0,0,1,95.417,81.6c-10.055,0-16.63-6.26-16.63-16.061,0-9.421,6.7-16.377,16-16.377M94.721,55.3c-4.237,0-7.4,3.035-7.968,7.335h15.175c-.252-4.49-2.971-7.335-7.208-7.335" transform="translate(-40.601 -35.193)"/><path class="b" d="M111.874,77.909V38.958c0-.253,1.582-1.012,3.351-1.012,2.655,0,5.564,1.391,5.564,7.145V77.909c0,3.225-1.643,4.237-3.921,4.237h-.948c-2.339,0-4.047-.949-4.047-4.237" transform="translate(-37.145 -36.366)"/><path class="b" d="M131.968,79.238l13.912-36.1c.569-1.706,1.9-2.782,6.133-2.782s5.438,1.076,6.007,2.782l14.227,36.043c.316.758-2.275,2.908-5.058,2.908-2.023,0-4.11-1.075-5.374-4.426l-2.466-6.388H144.488l-2.529,6.514c-1.138,3.225-3.1,4.3-5.058,4.3-2.655,0-5.184-2.023-4.933-2.846m25.419-14.985-5.563-14.859-5.565,14.859Z" transform="translate(-35.048 -36.114)"/><path class="b" d="M202.267,63.2V78.058c0,3.225-1.706,4.237-3.983,4.237h-.948c-2.34,0-3.985-.949-3.985-4.237V64.589c0-4.11-2.086-6.639-5.69-6.639A7.455,7.455,0,0,0,180.9,62V78.058c0,3.225-1.643,4.237-3.921,4.237h-.948c-2.4,0-4.047-.949-4.047-4.237V51.88c0-.316,1.58-1.012,3.351-1.012,2.4,0,4.805,1.2,5.311,5.184a11.7,11.7,0,0,1,10.18-5.564c8.032,0,11.444,5.691,11.444,12.71M177.481,45.62a3.236,3.236,0,0,1-.949-2.465c0-3.479,2.339-6.64,5.88-6.64a8.855,8.855,0,0,1,4.174,1.265,17.118,17.118,0,0,1,4.173,3.414c.7-2.213,2.276-4.426,3.921-4.426a3.281,3.281,0,0,1,2.212.822,3.2,3.2,0,0,1,.95,2.53c0,3.477-2.4,6.576-5.881,6.576a7.809,7.809,0,0,1-4.3-1.329,17.906,17.906,0,0,1-4.047-3.414c-.759,2.213-2.213,4.426-3.921,4.426a3.242,3.242,0,0,1-2.212-.759" transform="translate(-30.867 -36.515)"/><path class="b" d="M220.253,49.167c9.737,0,16.377,6.64,16.377,16.251S229.926,81.6,220.125,81.6s-16.377-6.576-16.377-16.314c0-9.484,6.7-16.124,16.505-16.124m-.064,6.956c-4.994,0-8.6,3.857-8.6,9.168,0,5.375,3.6,9.3,8.6,9.3,4.933,0,8.536-3.92,8.536-9.168,0-5.438-3.542-9.3-8.536-9.3" transform="translate(-27.548 -35.193)"/></g><path class="c" d="M42.578,44.585H41.365c-5.875,0-7.517-2.716-7.517-7.517V34.536a1.668,1.668,0,0,0-3.335,0v2.533c0,5.617-3.362,7.517-7.517,7.517h-.937a1.669,1.669,0,0,0,0,3.338h.933c4.919,0,7.52,1.649,7.52,7.524v2.526a1.668,1.668,0,1,0,3.335,0V55.446c0-5.389,3.314-7.524,7.522-7.524h1.208a1.669,1.669,0,1,0,0-3.338m-10.4,4.154a2.484,2.484,0,1,1,2.482-2.482,2.48,2.48,0,0,1-2.482,2.482" transform="translate(330.331 81.404)"/><path class="c" d="M14.922,33.52a2.147,2.147,0,1,1-2.148-2.142,2.152,2.152,0,0,1,2.148,2.142m-2.148-4.554a4.559,4.559,0,1,0,4.558,4.554,4.562,4.562,0,0,0-4.558-4.554" transform="translate(324.314 83.764)"/><g transform="translate(332.541 143.732)"><path class="c" d="M20.731,76.844s1.2-9.668,0-9.668c-1.239,0,0,9.668,0,9.668" transform="translate(-0.576 -66.375)"/><path class="c" d="M20.731,97.061s-1.239,9.685,0,9.685c1.2,0,0-9.685,0-9.685" transform="translate(-0.576 -67.228)"/><path class="c" d="M10.5,87.084s-9.69-1.229-9.69,0c0,1.211,9.69,0,9.69,0" transform="translate(-0.024 -66.927)"/><path class="c" d="M30.7,87.084s9.673,1.211,9.673,0c0-1.229-9.673,0-9.673,0" transform="translate(-0.877 -66.927)"/><path class="c" d="M13.491,79.85s-5.989-7.7-6.852-6.845,6.852,6.845,6.852,6.845" transform="translate(-0.188 -66.539)"/><path class="c" d="M27.771,94.143s5.99,7.7,6.852,6.84-6.852-6.84-6.852-6.84" transform="translate(-0.793 -67.144)"/><path class="c" d="M13.491,94.143s-7.709,5.979-6.852,6.84,6.852-6.84,6.852-6.84" transform="translate(-0.188 -67.144)"/><path class="c" d="M27.771,79.85s7.719-5.978,6.852-6.845-6.852,6.845-6.852,6.845" transform="translate(-0.793 -66.539)"/><path class="c" d="M16.815,77.626s-2.581-9.409-3.709-8.944,3.709,8.944,3.709,8.944" transform="translate(-0.37 -66.417)"/><path class="c" d="M24.554,96.3s2.571,9.412,3.69,8.952c1.119-.478-3.69-8.952-3.69-8.952" transform="translate(-0.701 -67.206)"/><path class="c" d="M11.274,90.914s-9.4,2.576-8.953,3.7c.469,1.122,8.953-3.7,8.953-3.7" transform="translate(-0.066 -67.052)"/><path class="c" d="M29.942,83.17s9.408-2.576,8.944-3.711-8.944,3.711-8.944,3.711" transform="translate(-0.855 -66.721)"/><path class="c" d="M11.274,83.17S2.79,78.339,2.321,79.459c-.452,1.135,8.953,3.711,8.953,3.711" transform="translate(-0.066 -66.721)"/><path class="c" d="M29.942,90.914s8.476,4.826,8.944,3.7-8.944-3.7-8.944-3.7" transform="translate(-0.855 -67.052)"/><path class="c" d="M16.815,96.3s-4.838,8.474-3.709,8.952c1.128.46,3.709-8.952,3.709-8.952" transform="translate(-0.37 -67.206)"/><path class="c" d="M24.554,77.626s4.809-8.48,3.69-8.944-3.69,8.944-3.69,8.944" transform="translate(-0.701 -66.417)"/><path class="c" d="M10.9,72.932s-.845-4.068-2.179-3.145S10.9,72.932,10.9,72.932" transform="translate(-0.241 -66.446)"/><path class="c" d="M3.784,84.018S.3,81.734.017,83.323c-.3,1.6,3.767.695,3.767.695" transform="translate(-0.001 -66.82)"/><path class="c" d="M6.579,96.852S2.5,97.7,3.426,99.029c.932,1.347,3.153-2.177,3.153-2.177" transform="translate(-0.094 -67.222)"/><path class="c" d="M17.655,103.927s-2.275,3.489-.686,3.783.686-3.783.686-3.783" transform="translate(-0.469 -67.424)"/><path class="c" d="M30.493,101.152s.85,4.072,2.181,3.145c1.349-.918-2.181-3.145-2.181-3.145" transform="translate(-0.871 -67.344)"/><path class="c" d="M37.582,90.135s3.472,2.273,3.762.68-3.762-.68-3.762-.68" transform="translate(-1.073 -67.023)"/><path class="c" d="M34.8,77.275s4.068-.855,3.154-2.186S34.8,77.275,34.8,77.275" transform="translate(-0.994 -66.592)"/><path class="c" d="M23.777,70.139s2.274-3.481.674-3.773-.674,3.773-.674,3.773" transform="translate(-0.671 -66.351)"/><path class="c" d="M17.655,70.139s.908-4.056-.686-3.773.686,3.773.686,3.773" transform="translate(-0.469 -66.351)"/><path class="c" d="M6.579,77.275s-2.222-3.531-3.153-2.186,3.153,2.186,3.153,2.186" transform="translate(-0.094 -66.592)"/><path class="c" d="M3.784,90.135s-4.069-.923-3.767.68c.283,1.593,3.767-.68,3.767-.68" transform="translate(-0.001 -67.023)"/><path class="c" d="M10.9,101.152S7.386,103.379,8.72,104.3s2.179-3.145,2.179-3.145" transform="translate(-0.241 -67.344)"/><path class="c" d="M23.777,103.927s-.923,4.065.674,3.783-.674-3.783-.674-3.783" transform="translate(-0.671 -67.424)"/><path class="c" d="M34.8,96.852s2.229,3.524,3.154,2.177c.913-1.329-3.154-2.177-3.154-2.177" transform="translate(-0.994 -67.222)"/><path class="c" d="M37.582,84.018s4.057.91,3.762-.695c-.29-1.589-3.762.695-3.762.695" transform="translate(-1.073 -66.82)"/><path class="c" d="M30.493,72.932s3.53-2.218,2.181-3.145c-1.331-.923-2.181,3.145-2.181,3.145" transform="translate(-0.871 -66.446)"/></g><g transform="translate(588.709 87.019)"><path class="b" d="M279.3,83.4c0-3.291,1.954-5.435,4.819-5.435a3.882,3.882,0,0,1,3.268,1.571V74.146a1.66,1.66,0,0,1,1.126-.339c.892,0,1.868.467,1.868,2.4V87.221c0,1.084-.53,1.424-1.316,1.424h-.3a1.117,1.117,0,0,1-1.295-1.042c-.021-.232-.043-.466-.043-.721a3.758,3.758,0,0,1-3.374,1.974c-2.8,0-4.756-2.208-4.756-5.455m8.108-1.381a2.625,2.625,0,0,0-2.569-1.655c-1.612,0-2.695,1.167-2.695,3.036a2.756,2.756,0,0,0,2.651,3.056,2.491,2.491,0,0,0,2.608-2.368c0-.038,0-.077,0-.116Z" transform="translate(-230.52 -7.889)"/><path class="b" d="M291.266,86.427a1.32,1.32,0,0,1,.914-1.186,4.527,4.527,0,0,0,3.418,1.4c1.17,0,1.806-.4,1.806-1.061,0-.807-.828-.955-2.207-1.253-1.424-.3-3.628-.768-3.628-3.1,0-2.017,1.635-3.355,4.309-3.355,2.1,0,3.4.573,3.927,1.379a1.546,1.546,0,0,1,.255.85,1.487,1.487,0,0,1-.956,1.256,4.106,4.106,0,0,0-3.035-1.4c-1.147,0-1.762.424-1.762,1.081,0,.744.805.893,2.207,1.211,1.466.317,3.8.786,3.8,3.121,0,2.08-1.656,3.334-4.565,3.334a6.839,6.839,0,0,1-3.567-.786,1.809,1.809,0,0,1-.913-1.485" transform="translate(-230.239 -7.793)"/><path class="b" d="M306.282,77.872a5.239,5.239,0,0,1,3.4,1.041A2.49,2.49,0,0,1,310.7,80.7c0,1.21-1.612,1.444-1.673,1.316a2.553,2.553,0,0,0-2.611-1.72,3.034,3.034,0,0,0,0,6.05,2.589,2.589,0,0,0,2.611-1.719c.063-.128,1.673.042,1.673,1.337a2.388,2.388,0,0,1-1.039,1.741,5.157,5.157,0,0,1-3.376,1.06,5.445,5.445,0,0,1,0-10.889" transform="translate(-230.014 -7.793)"/><path class="b" d="M312.565,85.253V80.5h-.531c-.849,0-1.231-.383-1.231-1.061v-.17c0-.7.383-1.1,1.211-1.1h.552V76.847c0-.976.488-1.443,1.338-1.443h.278c.786,0,1.316.34,1.316,1.443v1.316h1.8c.85,0,1.211.361,1.211,1.041v.19c0,.722-.383,1.1-1.232,1.1h-1.829v4.417c0,1.019.319,1.527,1.147,1.527a1.515,1.515,0,0,0,1.295-.7,1.178,1.178,0,0,1,.742,1.168,1.513,1.513,0,0,1-.509,1.146,3.092,3.092,0,0,1-2.229.768c-2.271,0-3.333-1.209-3.333-3.566" transform="translate(-229.779 -7.851)"/><path class="b" d="M324.39,77.872a5.217,5.217,0,0,1,5.5,4.919c.009.179.009.358,0,.537a5.539,5.539,0,0,1-11.039.553,5.517,5.517,0,0,1,0-.6,5.228,5.228,0,0,1,5.541-5.412m-.021,2.335a3.109,3.109,0,1,0,2.857,3.342c.006-.074.009-.147.01-.22a2.883,2.883,0,0,0-2.867-3.122" transform="translate(-229.59 -7.793)"/><path class="b" d="M292.251,32.584v4.175c0,.925-.49,1.216-1.143,1.216h-.272c-.671,0-1.143-.272-1.143-1.216V32.93c0-1.217-.617-1.943-1.634-1.943a1.857,1.857,0,0,0-1.941,2.07v3.7c0,.925-.491,1.217-1.143,1.217H284.7c-.671,0-1.143-.273-1.143-1.217V25.58a1.372,1.372,0,0,1,.961-.291c.744,0,1.6.4,1.6,2.051v3.1a3.167,3.167,0,0,1,2.83-1.6c2.326,0,3.3,1.67,3.3,3.738" transform="translate(-230.42 -9.03)"/><path class="b" d="M298.723,32.538h.291a1.056,1.056,0,0,0-.018-.254,1.566,1.566,0,0,0-1.8-1.6,2.217,2.217,0,0,0-2.177,1.288c-.018.038-1.653.164-1.653-1.013a1.621,1.621,0,0,1,.546-1.162,4.772,4.772,0,0,1,3.447-1.034c2.813,0,4.175,1.288,4.175,3.666v5.223c0,.127-.471.29-.962.29a1.321,1.321,0,0,1-1.343-.853,3.676,3.676,0,0,1-.145-.6,3.539,3.539,0,0,1-3.065,1.525c-1.849,0-2.975-1.015-2.975-2.541,0-1.976,1.923-2.884,5.68-2.94m.291,1.289h-.49c-2.014.072-3.084.453-3.084,1.452,0,.67.525,1.088,1.378,1.088a2,2,0,0,0,2.2-1.9Z" transform="translate(-230.197 -8.948)"/><path class="b" d="M302.209,36.078a1.122,1.122,0,0,1,.78-1.014,3.874,3.874,0,0,0,2.922,1.2c1,0,1.542-.344,1.542-.908,0-.689-.706-.817-1.886-1.071-1.216-.254-3.1-.656-3.1-2.649,0-1.725,1.4-2.868,3.684-2.868,1.8,0,2.9.49,3.357,1.179a1.318,1.318,0,0,1,.218.726,1.276,1.276,0,0,1-.817,1.075,3.518,3.518,0,0,0-2.595-1.2c-.981,0-1.506.362-1.506.925,0,.635.688.762,1.886,1.035,1.252.271,3.249.67,3.249,2.667,0,1.778-1.416,2.848-3.9,2.848a5.812,5.812,0,0,1-3.048-.671,1.54,1.54,0,0,1-.781-1.269" transform="translate(-229.981 -8.948)"/><path class="b" d="M311.6,35.075V31.009h-.453c-.725,0-1.053-.327-1.053-.906v-.145c0-.6.329-.944,1.035-.944h.472V27.888c0-.835.418-1.234,1.143-1.234h.238c.671,0,1.125.292,1.125,1.234v1.125h1.543c.726,0,1.034.309,1.034.889v.163c0,.617-.328.944-1.053.944h-1.563v3.776c0,.87.273,1.306.98,1.306a1.3,1.3,0,0,0,1.107-.6,1,1,0,0,1,.635,1,1.3,1.3,0,0,1-.434.98,2.643,2.643,0,0,1-1.907.655c-1.941,0-2.848-1.033-2.848-3.048" transform="translate(-229.796 -8.998)"/><path class="b" d="M322.763,32.538h.291a1.169,1.169,0,0,0-.018-.254,1.566,1.566,0,0,0-1.8-1.595,2.215,2.215,0,0,0-2.177,1.288c-.019.037-1.652.164-1.652-1.014a1.622,1.622,0,0,1,.544-1.161,4.772,4.772,0,0,1,3.447-1.034c2.813,0,4.175,1.287,4.175,3.665v5.222c0,.127-.472.29-.962.29a1.321,1.321,0,0,1-1.343-.853,3.7,3.7,0,0,1-.145-.6,3.537,3.537,0,0,1-3.066,1.525c-1.849,0-2.975-1.015-2.975-2.541,0-1.976,1.924-2.884,5.681-2.94m.29,1.289h-.49c-2.013.072-3.084.453-3.084,1.452,0,.67.525,1.088,1.378,1.088a2,2,0,0,0,2.2-1.9Z" transform="translate(-229.631 -8.948)"/><path class="b" d="M273.611,70.278V50.858a4.258,4.258,0,0,1-2.758,1,4.661,4.661,0,0,1-3.046-1.1,3.836,3.836,0,0,1-1.189-2.855c0-2.334,1.665-3.428,1.856-3.333a4.423,4.423,0,0,0,2.9,1.046,4.133,4.133,0,0,0,4.048-3.569h2.046c2,0,3.045,1.094,3.045,3.236V70.278c0,2.093-1.046,3.236-3.045,3.236h-.908c-1.953,0-2.951-1.142-2.951-3.236" transform="translate(-230.819 -8.636)"/><path class="b" d="M287.89,71.839c-1.953-1.189-3.047-2.665-3.047-4.092,0-2.047,2.666-3.523,2.9-3.284A10.255,10.255,0,0,0,296.22,68.6c3.949,0,6.378-1.954,6.378-5.046s-2.19-4.9-6.14-4.9a9.906,9.906,0,0,0-6.328,1.9c-2.761-.094-4.142-1.284-4.142-4.093V46.28c0-2.476,1.046-3.9,3.38-3.9h14.9c2.189,0,3.283.907,3.283,2.759v.238c0,1.857-1.046,2.713-3.283,2.713h-12.42v6.9a14.925,14.925,0,0,1,5.616-1.139c6.853,0,11.372,3.712,11.372,9.757,0,6.235-4.807,10.232-12.519,10.232a16.511,16.511,0,0,1-8.423-2" transform="translate(-230.39 -8.628)"/><path class="b" d="M310.986,56.433a7.113,7.113,0,0,1,7.052-7.173q.064,0,.129,0a7.169,7.169,0,1,1-7.179,7.291c0-.039,0-.079,0-.118m7.179-2.729a2.721,2.721,0,1,0,2.721,2.722,2.72,2.72,0,0,0-2.721-2.722" transform="translate(-229.775 -8.466)"/><path class="b" d="M335.482,73.484a7.16,7.16,0,1,1,7.171-7.148,7.16,7.16,0,0,1-7.171,7.148m-2.694-7.147a2.654,2.654,0,0,0,2.609,2.695h.091a2.715,2.715,0,0,0,.087-5.429h-.087a2.681,2.681,0,0,0-2.7,2.665v.069" transform="translate(-229.367 -8.233)"/><path class="b" d="M320.861,73.716a1.223,1.223,0,0,1-1.352-1.083,1.207,1.207,0,0,1,.092-.618,12.171,12.171,0,0,1,.829-1.717q5.47-10.059,10.954-20.11a1.479,1.479,0,0,1,1.934-.8l.012.005a1.192,1.192,0,0,1,.774,1.488,8.963,8.963,0,0,1-.69,1.425q-5.432,10-10.874,20a6,6,0,0,1-.568.894,1.33,1.33,0,0,1-1.111.512" transform="translate(-229.575 -8.466)"/><path class="c" d="M259.989,25.215h1.1c5.36,0,6.86,2.473,6.86,6.859v2.3a1.521,1.521,0,1,0,3.042,0v-2.3c0-5.13,3.07-6.859,6.862-6.859h.854a1.522,1.522,0,1,0,0-3.044h-.852c-4.492,0-6.864-1.5-6.864-6.865V13a1.521,1.521,0,1,0-3.042,0v2.3c0,4.916-3.021,6.865-6.86,6.865h-1.1a1.522,1.522,0,0,0,0,3.044m9.484-3.789a2.267,2.267,0,1,1-2.259,2.259,2.26,2.26,0,0,1,2.259-2.259" transform="translate(-231.01 -9.355)"/><path class="c" d="M264.4,27.387l-3.466,3.463a1.014,1.014,0,1,0,1.436,1.433l3.465-3.464a1.014,1.014,0,0,0-1.435-1.432" transform="translate(-230.959 -8.988)"/><path class="c" d="M276.461,15.319l-3.471,3.464a1.014,1.014,0,0,0,1.437,1.432l3.47-3.463a1.014,1.014,0,0,0-1.436-1.433" transform="translate(-230.676 -9.272)"/><path class="c" d="M265.832,18.782l-3.466-3.464a1.014,1.014,0,1,0-1.435,1.434l3.466,3.462a1.014,1.014,0,1,0,1.435-1.432" transform="translate(-230.96 -9.272)"/><path class="c" d="M277.893,30.849l-3.466-3.463a1.014,1.014,0,1,0-1.436,1.433l3.469,3.463a1.013,1.013,0,1,0,1.433-1.433" transform="translate(-230.676 -8.988)"/><path class="c" d="M252.431,59.186A1.989,1.989,0,1,1,250.44,57.2a1.994,1.994,0,0,1,1.991,1.985m-1.991-4.22a4.225,4.225,0,1,0,4.224,4.22,4.228,4.228,0,0,0-4.224-4.22" transform="translate(-231.299 -19.691)"/><path class="c" d="M262.913,96.992h-.6c-2.923,0-3.742-1.354-3.742-3.744V91.987a.83.83,0,1,0-1.66,0v1.261c0,2.8-1.674,3.744-3.745,3.744H252.7a.83.83,0,0,0,0,1.66h.463c2.452,0,3.747.819,3.747,3.743v1.261a.83.83,0,1,0,1.66,0V102.4a3.393,3.393,0,0,1,3.744-3.743h.6a.83.83,0,0,0,0-1.66m-5.177,2.069a1.238,1.238,0,1,1,1.233-1.235,1.237,1.237,0,0,1-1.233,1.235" transform="translate(-225.574 -8.967)"/><path class="c" d="M251.566,81.329h-.978c-4.738,0-6.066-2.2-6.066-6.07V73.217a1.344,1.344,0,1,0-2.689,0V75.26c0,4.537-2.714,6.07-6.068,6.07h-.754a1.344,1.344,0,0,0,0,2.689h.751c3.973,0,6.072,1.328,6.072,6.066v2.043a1.344,1.344,0,1,0,2.689,0V90.085c0-4.347,2.674-6.066,6.07-6.066h.975a1.344,1.344,0,1,0,0-2.689m-8.391,3.351a2.007,2.007,0,1,1,2-2,2,2,0,0,1-2,2" transform="translate(-233.668 -12.708)"/><path class="c" d="M306.587,106.639A48.673,48.673,0,0,1,257.97,58.021a48.1,48.1,0,0,1,5.391-22.273,1.536,1.536,0,0,1,2.729,1.409,45.037,45.037,0,0,0-5.049,20.864,45.537,45.537,0,1,0,20.083-37.768,1.536,1.536,0,0,1-1.72-2.546,48.622,48.622,0,1,1,47.377,84.552,48.23,48.23,0,0,1-20.193,4.379" transform="translate(-231.022 -9.404)"/></g><g transform="translate(353.276 84.181)"><g class="d" transform="translate(0 0)"><path class="b" d="M0,8.438A1.7,1.7,0,0,1,1.848,6.5H2.4c1.214,0,1.85.636,1.85,1.936v8.985c0,2.975,1.27,4.507,3.785,4.507,2.572,0,3.786-1.474,3.786-4.536V8.438A1.689,1.689,0,0,1,13.667,6.5h.578c1.213,0,1.819.636,1.819,1.936v8.985c0,5.374-2.773,8.206-8.062,8.206-5.259,0-8-2.773-8-8.177Zm5.374-3.67C5.374,3.871,7.484,0,9.851,0a1.594,1.594,0,0,1,1.706,1.647c0,2.224-4.392,3.525-5.578,3.525-.4,0-.606-.087-.606-.4" transform="translate(0 0)"/><path class="b" d="M15.3,22.423V4.624a2.249,2.249,0,0,1,1.532-.462c1.214,0,2.542.636,2.542,3.264v15c0,1.473-.75,1.935-1.792,1.935h-.432c-1.071,0-1.85-.434-1.85-1.935" transform="translate(3.924 1.068)"/><path class="b" d="M22.547,19.339V12.867h-.723c-1.156,0-1.676-.52-1.676-1.445v-.23c0-.954.52-1.5,1.646-1.5h.753V7.9c0-1.331.663-1.966,1.819-1.966h.376c1.069,0,1.792.462,1.792,1.966V9.688h2.455c1.156,0,1.647.491,1.647,1.416v.26c0,.983-.52,1.5-1.676,1.5H26.476v6.01c0,1.386.434,2.08,1.559,2.08A2.063,2.063,0,0,0,29.8,20a1.6,1.6,0,0,1,1.012,1.59,2.06,2.06,0,0,1-.694,1.561,4.212,4.212,0,0,1-3.035,1.04c-3.091,0-4.535-1.647-4.535-4.854" transform="translate(5.168 1.522)"/><path class="b" d="M32.411,3.794A2.038,2.038,0,0,1,34.694,5.9a2.024,2.024,0,0,1-2.283,2.108A2.052,2.052,0,0,1,30.128,5.9a2.039,2.039,0,0,1,2.283-2.11M30.36,12.058c0-1.474.779-1.965,1.819-1.965h.434c1.071,0,1.821.462,1.821,1.965V22.517c0,1.473-.75,1.935-1.821,1.935h-.4c-1.1,0-1.85-.432-1.85-1.935Z" transform="translate(7.729 0.973)"/><path class="b" d="M58.717,14.274v6.993c0,1.473-.751,1.935-1.792,1.935h-.434c-1.1,0-1.848-.432-1.848-1.935V14.91c0-1.85-.81-2.831-2.457-2.831a3.28,3.28,0,0,0-2.773,1.733v7.455c0,1.473-.753,1.935-1.792,1.935h-.434c-1.069,0-1.848-.432-1.848-1.935V15c0-1.936-.81-2.918-2.428-2.918a3.282,3.282,0,0,0-2.774,1.733v7.455c0,1.473-.751,1.935-1.792,1.935h-.434c-1.1,0-1.848-.432-1.848-1.935V9.3c0-.145.722-.462,1.53-.462,1.012,0,2.11.434,2.428,2.312a5.065,5.065,0,0,1,4.363-2.485,4.461,4.461,0,0,1,4.508,2.89,5.264,5.264,0,0,1,4.737-2.89c3.584,0,5.086,2.282,5.086,5.605" transform="translate(9.251 2.224)"/><path class="b" d="M64.886,14.679h.462a1.856,1.856,0,0,0-.028-.4c-.058-1.647-1.071-2.543-2.861-2.543a3.535,3.535,0,0,0-3.468,2.052c-.029.058-2.629.26-2.629-1.618a2.577,2.577,0,0,1,.867-1.848c.954-.983,2.773-1.647,5.489-1.647,4.48,0,6.646,2.052,6.646,5.837v8.322c0,.2-.75.462-1.53.462A2.106,2.106,0,0,1,65.7,21.932a5.907,5.907,0,0,1-.231-.954,5.631,5.631,0,0,1-4.883,2.428c-2.948,0-4.738-1.62-4.738-4.046,0-3.149,3.062-4.594,9.043-4.681m.462,2.052h-.78c-3.207.116-4.91.721-4.91,2.311,0,1.069.837,1.734,2.2,1.734,2.022,0,3.468-1.243,3.5-3.033Z" transform="translate(14.325 2.224)"/><path class="b" d="M79.805,8.669A7.1,7.1,0,0,1,87.291,16.1c0,4.392-3.063,7.4-7.542,7.4a7.075,7.075,0,0,1-7.484-7.455c0-4.334,3.062-7.368,7.54-7.368m-.028,3.178a3.93,3.93,0,0,0-3.93,4.191,3.926,3.926,0,1,0,7.831.058,3.925,3.925,0,0,0-3.9-4.248" transform="translate(18.538 2.224)"/><path class="b" d="M101.175,16.039c0,4.392-2.658,7.454-6.53,7.454a4.987,4.987,0,0,1-4.507-2.572v5.837c0,1.474-.75,1.965-1.791,1.965h-.433c-1.1,0-1.85-.462-1.85-1.965V9.3c0-.145.722-.462,1.561-.462a2.281,2.281,0,0,1,2.341,1.965c.028.116.058.4.085.636a4.943,4.943,0,0,1,4.624-2.774c3.814,0,6.5,2.861,6.5,7.37m-3.9.028c0-2.485-1.474-4.131-3.584-4.131a3.664,3.664,0,0,0-3.553,2.312V16.9a3.347,3.347,0,0,0,3.5,3.324c2.2,0,3.64-1.676,3.64-4.162" transform="translate(22.078 2.224)"/><path class="b" d="M106.922,8.669a7.1,7.1,0,0,1,7.484,7.426c0,4.392-3.062,7.4-7.54,7.4a7.076,7.076,0,0,1-7.485-7.455c0-4.334,3.063-7.368,7.542-7.368m-.029,3.178a3.93,3.93,0,0,0-3.929,4.191,3.926,3.926,0,1,0,7.829.058,3.924,3.924,0,0,0-3.9-4.248" transform="translate(25.494 2.224)"/><path class="b" d="M123.237,11.039a2.1,2.1,0,0,1-1.3,2.137,2.827,2.827,0,0,0-1.85-.694c-1.965,0-2.832,1.734-2.832,4.566v4.219c0,1.473-.75,1.935-1.792,1.935h-.432c-1.1,0-1.85-.434-1.85-1.935V9.3c0-.145.694-.462,1.532-.462a2.251,2.251,0,0,1,2.224,1.532,6.173,6.173,0,0,1,.2.983,3.522,3.522,0,0,1,3.5-2.688,2.314,2.314,0,0,1,2.6,2.37" transform="translate(29.034 2.224)"/><path class="b" d="M124.2,19.339V12.867h-.721c-1.156,0-1.676-.52-1.676-1.445v-.23c0-.954.52-1.5,1.646-1.5h.751V7.9c0-1.331.665-1.966,1.821-1.966h.376c1.069,0,1.792.462,1.792,1.966V9.688h2.455c1.156,0,1.647.491,1.647,1.416v.26c0,.983-.52,1.5-1.676,1.5h-2.484v6.01c0,1.386.433,2.08,1.559,2.08A2.063,2.063,0,0,0,131.457,20a1.6,1.6,0,0,1,1.012,1.59,2.06,2.06,0,0,1-.694,1.561,4.212,4.212,0,0,1-3.035,1.04c-3.091,0-4.536-1.647-4.536-4.854" transform="translate(31.247 1.522)"/><path class="b" d="M145.37,10.772V22.7c0,.145-.721.462-1.532.462a2.26,2.26,0,0,1-2.282-1.53,4.746,4.746,0,0,1-.145-.782,5.325,5.325,0,0,1-4.653,2.572c-3.668,0-5.2-2.572-5.2-5.835V10.772c0-1.474.75-1.965,1.762-1.965h.462c1.069,0,1.821.462,1.821,1.965v6.211c0,1.907.983,3.035,2.659,3.035a3.429,3.429,0,0,0,3.062-1.848v-7.4c0-1.474.721-1.965,1.763-1.965h.432c1.1,0,1.85.462,1.85,1.965" transform="translate(33.748 2.259)"/><path class="b" d="M158.831,14.477v6.79c0,1.473-.78,1.935-1.821,1.935h-.434c-1.069,0-1.819-.432-1.819-1.935V15.112c0-1.877-.954-3.033-2.6-3.033a3.406,3.406,0,0,0-3.091,1.848v7.339c0,1.473-.751,1.935-1.792,1.935h-.433c-1.1,0-1.85-.432-1.85-1.935V9.3c0-.145.724-.462,1.532-.462a2.339,2.339,0,0,1,2.428,2.369A5.345,5.345,0,0,1,153.6,8.669c3.669,0,5.23,2.6,5.23,5.808" transform="translate(37.194 2.224)"/><path class="b" d="M160.5,3.794A2.038,2.038,0,0,1,162.78,5.9,2.024,2.024,0,0,1,160.5,8.012,2.052,2.052,0,0,1,158.214,5.9a2.039,2.039,0,0,1,2.283-2.11m-2.051,8.264c0-1.474.779-1.965,1.819-1.965h.434c1.071,0,1.821.462,1.821,1.965V22.517c0,1.473-.75,1.935-1.821,1.935h-.4c-1.1,0-1.85-.432-1.85-1.935Z" transform="translate(40.586 0.973)"/><path class="b" d="M163.573,17.222c0-4.48,2.659-7.4,6.559-7.4a5.291,5.291,0,0,1,4.451,2.141V4.625a2.248,2.248,0,0,1,1.53-.462c1.214,0,2.543.633,2.543,3.263v15c0,1.473-.722,1.935-1.792,1.935h-.4c-.925,0-1.617-.318-1.763-1.416-.029-.318-.058-.636-.058-.981a5.116,5.116,0,0,1-4.594,2.686c-3.814,0-6.472-3-6.472-7.425m11.037-1.879a3.576,3.576,0,0,0-3.5-2.254c-2.2,0-3.669,1.591-3.669,4.133,0,2.455,1.5,4.16,3.611,4.16A3.389,3.389,0,0,0,174.61,18Z" transform="translate(41.961 1.068)"/><path class="b" d="M186.508,14.679h.462a1.855,1.855,0,0,0-.028-.4c-.058-1.647-1.071-2.543-2.861-2.543a3.535,3.535,0,0,0-3.468,2.052c-.029.058-2.629.26-2.629-1.618a2.577,2.577,0,0,1,.867-1.848c.954-.983,2.773-1.647,5.489-1.647,4.48,0,6.646,2.052,6.646,5.837v8.322c0,.2-.75.462-1.53.462a2.106,2.106,0,0,1-2.139-1.358,5.9,5.9,0,0,1-.231-.954,5.631,5.631,0,0,1-4.883,2.428c-2.948,0-4.738-1.62-4.738-4.046,0-3.149,3.062-4.594,9.043-4.681m.462,2.052h-.78c-3.207.116-4.912.721-4.912,2.311,0,1.069.838,1.734,2.2,1.734,2.022,0,3.468-1.243,3.5-3.033Z" transform="translate(45.524 2.224)"/><path class="b" d="M189.977,17.222c0-4.48,2.659-7.4,6.559-7.4a5.291,5.291,0,0,1,4.451,2.141V4.625a2.248,2.248,0,0,1,1.53-.462c1.214,0,2.543.633,2.543,3.263v15c0,1.473-.723,1.935-1.792,1.935h-.4c-.925,0-1.617-.318-1.763-1.416-.029-.318-.058-.636-.058-.981a5.116,5.116,0,0,1-4.594,2.686c-3.814,0-6.472-3-6.472-7.425m11.037-1.879a3.576,3.576,0,0,0-3.5-2.254c-2.2,0-3.669,1.591-3.669,4.133,0,2.455,1.5,4.16,3.611,4.16A3.389,3.389,0,0,0,201.014,18Z" transform="translate(48.734 1.068)"/></g></g></g></svg>