<svg xmlns="http://www.w3.org/2000/svg" xmlns:xlink="http://www.w3.org/1999/xlink" width="308.928" height="145.928" viewBox="0 0 308.928 145.928"><defs><style>.a{fill:none;}.b{fill:#bbd7ff;opacity:0.72;}.c{fill:#0d2d7c;opacity:0.51;}.d{fill:#fff;}.e{clip-path:url(#a);}.f{fill:#f56c72;}.g{fill:#e0585e;}.h{fill:#422645;}.i{fill:#de4343;}.j{fill:#00adef;}.k{fill:#efeaea;}.l{fill:#32436d;}.m{fill:#031f59;}.n{clip-path:url(#b);}.o{fill:#d93c64;}.p{fill:#ea0c90;}.q{fill:#003aa0;}.r{fill:#175ec6;}.s{fill:#ff409e;}</style><clipPath id="a"><rect class="a" width="70.826" height="60.235"/></clipPath><clipPath id="b"><rect class="a" width="70.826" height="60.235" rx="3.505"/></clipPath></defs><g transform="translate(-33.149 -28)"><g transform="translate(17.149 -99)"><rect class="b" width="273.714" height="90.933" transform="translate(33.832 171.147)"/><rect class="c" width="64.126" height="52.029" rx="4.267" transform="translate(186.623 196.936)"/><rect class="c" width="64.126" height="52.029" rx="4.267" transform="translate(93.828 196.936)"/><g transform="translate(82.402 187.205)"><path class="d" d="M4.348,0h62.13a4.348,4.348,0,0,1,4.348,4.348v53.2a2.686,2.686,0,0,1-2.686,2.686H4.348A4.348,4.348,0,0,1,0,55.887V4.348A4.348,4.348,0,0,1,4.348,0Z" transform="translate(0)"/><g transform="translate(0)"><g class="e"><path class="f" d="M1462.12,831.473c-2.037-8.133-13.022-9.1-18.641-14.169-.792-.714-1.991.425-1.2,1.14l.022.019-6.268-.534a.872.872,0,0,0-1.446-.625c-5.619,5.071-16.6,6.036-18.642,14.169-.868,3.46,11.833,37.209,13.018,41.511.631,2.285-7.855.629-5.417,1.489,3.571,1.26,11.22.72,14.917.518.189-.011.377-.029.567-.04.189.011.378.029.568.04,3.7.2,8.412.931,11.984-.329,2.44-.86-4.051,3.572-3.42,1.288,1.185-4.3,1.7,2.275,4.094-3.671C1453.56,869.044,1462.987,834.933,1462.12,831.473Z" transform="translate(-1402.942 -776.003)"/><path class="f" d="M1435.465,825.728h0a5.231,5.231,0,0,1-5.23-5.23V808.51H1440.7V820.5A5.231,5.231,0,0,1,1435.465,825.728Z" transform="translate(-1399.237 -778.218)"/><path class="g" d="M1440.707,811.768a18.281,18.281,0,0,0-5.1-.243,13.484,13.484,0,0,0-5.28,1.215l-.085.042v4.455c2.019,1.817,4.238,3.03,7.09,2.308a12.718,12.718,0,0,0,3.373-1.506Z" transform="translate(-1399.234 -777.457)"/><path class="f" d="M1436.489,793.506c-11.531.295-10.463,10.185-10.428,10.62.385,4.723.446,8.581,2.435,11.782,1.235,1.986,3.738,5.715,8.3,5.734,2.842.011,4.386-1.794,5.993-3.615,3.078-3.487,4.163-9.526,4.021-13.991C1446.632,798.434,1448.912,793.189,1436.489,793.506Z" transform="translate(-1400.326 -782.101)"/><path class="f" d="M1425.521,809.519c.551.787,2.581,2.438,3.287,1.131.362-.67-.263-1.415-.594-1.954l-.29-.472c.309.5,1.093,0,.8-.545-.463-.868-1.782-3.6-3.134-2.478C1424.5,806.113,1424.275,807.737,1425.521,809.519Z" transform="translate(-1400.674 -779.143)"/><path class="g" d="M1426.75,806.672a2.687,2.687,0,0,0,.623,1.473c.4.475-.276,1.176-.682.7a3.845,3.845,0,0,1-.916-2.159C1425.712,806.058,1426.687,806.052,1426.75,806.672Z" transform="translate(-1400.39 -778.813)"/><path class="f" d="M1443.943,809.463c-.55.787-2.58,2.438-3.286,1.132-.362-.67.261-1.415.594-1.955l.289-.473c-.308.5-1.092,0-.8-.544.464-.868,1.782-3.6,3.134-2.478C1444.965,806.057,1445.191,807.681,1443.943,809.463Z" transform="translate(-1396.571 -779.157)"/><path class="g" d="M1442.2,806.616a2.665,2.665,0,0,1-.625,1.471c-.4.476.278,1.177.683.7a3.836,3.836,0,0,0,.918-2.16C1443.236,806,1442.261,806,1442.2,806.616Z" transform="translate(-1396.336 -778.827)"/><path class="h" d="M1431.268,805.354c.006.617-.316,1.12-.719,1.124s-.736-.492-.742-1.109.316-1.12.72-1.124S1431.262,804.737,1431.268,805.354Z" transform="translate(-1399.347 -779.321)"/><path class="h" d="M1439.176,805.587c.005.617-.316,1.12-.72,1.124s-.735-.492-.741-1.109.316-1.12.718-1.124S1439.17,804.97,1439.176,805.587Z" transform="translate(-1397.303 -779.26)"/><path class="g" d="M1435.975,808.685c-.638.109-1.275.237-1.465-.678a4.353,4.353,0,0,1,.129-1.242c.1-.761.164-.981.275-1.739.089-.615-.852-.87-.943-.251-.128.886-.21,1.232-.326,2.12a3.746,3.746,0,0,0,.017,1.834c.422,1.089,1.616,1.061,2.581.895C1436.86,809.515,1436.588,808.579,1435.975,808.685Z" transform="translate(-1398.383 -779.276)"/><path class="i" d="M1437.8,810.368a23.684,23.684,0,0,1-5.127.065c-.461-.044-.673.374-.33.489l0,.006c1.48,1.17,4.526,1.2,5.85-.108a.19.19,0,0,0,.029-.048C1438.435,810.615,1438.214,810.318,1437.8,810.368Z" transform="translate(-1398.735 -777.739)"/><path class="h" d="M1441.377,802.753a1.112,1.112,0,0,0-.429-.448,5.164,5.164,0,0,0-3.533-.425c-.453.113-1.778.715-.93,1.319.381.273,3.286.235,4.2.289C1441.395,803.529,1441.632,803.234,1441.377,802.753Z" transform="translate(-1397.693 -779.969)"/><path class="h" d="M1429.114,803.3c.881.008,3.666.266,4.055-.014.864-.619-.358-1.4-.784-1.559a4.3,4.3,0,0,0-3.427.218,1.177,1.177,0,0,0-.448.476C1428.226,802.946,1428.428,803.3,1429.114,803.3Z" transform="translate(-1399.715 -780.038)"/><g transform="translate(6.791 43.999)"><path class="j" d="M1468.165,848.408c-1.159-6.21-1.92-13.188-5.1-18.658-1.026-2.674-3.114-4.5-5.6-5.99-.021-.012-.037-.027-.057-.041s-.059-.03-.088-.045c-2.5-1.479-5.379-2.64-8-3.992-5.466,3.03-12.318,3.825-17.445-.28-1.854.992-3.866,1.868-5.8,2.815a32.734,32.734,0,0,0-4.307,2.478c-2,1.433-3.788,2.653-4.825,4.986-3.718,8.359-5.205,18.3-5.939,27.489a.85.85,0,0,0,.622.817,22.281,22.281,0,0,0,6.83.673c.381,3.986.132,16.226.555,19.3.4,2.861-.98,7.352.944,9.727,1.34,1.658,3.022,1.687,4.985,1.813,4.128.264,11.026,1.145,15.116,1.649,3.437.422,11.123-.883,14.529-1.332,2.11-.277,5.547-.164,7.2-1.7s.939-4.747.885-6.63c-.088-3.112-3.05-16.463-2.219-22.134,2.892-.285,5.786-.87,7.394-2.4C1470.2,854.7,1468.681,851.168,1468.165,848.408Z" transform="translate(-1411.001 -819.401)"/><path class="j" d="M1441.782,863.338c-.068.21-.135.424-.2.652C1440.954,866.275,1442.914,863.242,1441.782,863.338Z" transform="translate(-1403.127 -808.042)"/></g><path class="k" d="M1445.676,850.116q11.528.293,23.046,0c-.063-.283-.13-.564-.2-.842q-11.418.294-22.849,0a254.219,254.219,0,0,0-34.186,1.211c-.033.287-.065.573-.1.858A253.844,253.844,0,0,1,1445.676,850.116ZM1419.1,864.1c.036.286.073.569.111.845,9.066-.146,18.141-.234,27.2.232,4.265.219,9.845.8,14.1,1.087.044-.273-.081-.6-.036-.882-4.305-.282-9.759-.831-14.069-1.052C1437.315,863.858,1428.2,863.949,1419.1,864.1Zm47.17-26.458c-.065-.285-.135-.57-.206-.854-17.221-.678-34.486-1.477-51.7-1.189-.084.282-.164.565-.243.85C1431.487,836.145,1448.9,836.957,1466.272,837.639Zm-22.154-12.393,15.723-.779c-.33-.277-.676-.541-1.032-.8l-13.868.686c-4.061.2-8.149.541-12.215.371a79.213,79.213,0,0,1-10.7-1.315,2.547,2.547,0,0,0-.327.26l-.594.425a87.4,87.4,0,0,0,10.827,1.437A115.443,115.443,0,0,0,1444.118,825.246Z" transform="translate(-1404.108 -774.365)"/><path class="l" d="M1417.923,836.458a.424.424,0,0,0-.847,0q.049,7.411.1,14.822a.424.424,0,0,0,.847,0Q1417.972,843.868,1417.923,836.458Z" transform="translate(-1402.638 -771.098)"/><path class="m" d="M1450.184,803.549c-.707-1.23-1.333-1.871-1.064-3.484.242-1.445.452-2.3-.329-3.685a3.809,3.809,0,0,0-1.068-1.3c-.714-.491-1.557-.445-2.043-1.328s-.364-1.617-1.557-2.019c-1.506-.507-2.328.53-3.493,1.008a1.57,1.57,0,0,0-.418-.645,2.084,2.084,0,0,0-.963-.786,1.863,1.863,0,0,0-1.466.012c-.378.161-.789.6-1.222.778a4.96,4.96,0,0,0-2.477-.61,2.5,2.5,0,0,0-1.231.534c-.488.4-.722,1.127-1.256,1.456a3.3,3.3,0,0,0-1.5,0c-1.718.429-1.6,2.122-2.628,3.208a9.921,9.921,0,0,1-1.525,1.159,3.255,3.255,0,0,0-1.571,1.708,2.283,2.283,0,0,0,.128,1.519,3.878,3.878,0,0,1-.511,2.027c-.741,1.376-1.442,2.9-.341,4.244a2.474,2.474,0,0,0,2.31.875c.01.007.02.011.028.019.19.158.225.535.434.693a2.215,2.215,0,0,0,1.357.643c1.982.08,1.635-2.088,2.751-3.062a8.757,8.757,0,0,0,.707-.662,1.734,1.734,0,0,0,1.218-.163,2.442,2.442,0,0,0,.756-.785c.691-.872.787-.675,1.8-.691a1.27,1.27,0,0,0,1.29-1.233c.257-1.793-.827-5.358,2.347-5.1a1.767,1.767,0,0,0,.387.049.581.581,0,0,0,.389-.276,1.683,1.683,0,0,1,1.754-.477c.824.253,1.132.963,1.359,2.347a4.541,4.541,0,0,0,.232,1.576c.711,1.522,2.676.523,2.734,3.013.025,1.071-.536,2.179.2,3.159a1.618,1.618,0,0,0,.751.558,1.321,1.321,0,0,0,.864,1.1c1.114.374,1.45-.747,1.959-1.384.624-.778,1.347-1.094,1.373-2.272A3.393,3.393,0,0,0,1450.184,803.549Z" transform="translate(-1401.086 -782.703)"/><path class="k" d="M1460.682,866.5c-14.457-.688-28.885-1.106-43.367-1.15.023.279.047.525.076.729.005.038.007.08.011.117,14.495.046,28.935.467,43.4,1.158C1460.769,867.083,1460.727,866.8,1460.682,866.5Z" transform="translate(-1402.577 -763.523)"/></g></g></g><g transform="translate(177.582 186.955)"><rect class="d" width="70.826" height="60.235" rx="3.505"/><g class="n"><path class="m" d="M1500.68,808.425c-.31-1.838-.467-3.746-1.647-5.267a12.663,12.663,0,0,0-4.343-3.121.465.465,0,0,0-.29-.047c.019-.186.045-.371.055-.559.032-.624-.94-.623-.972,0-.191,3.769-2.677,7.78-1.043,11.525a8.261,8.261,0,0,0,7.521,4.305C1502.8,814.921,1500.949,810.022,1500.68,808.425Z" transform="translate(-1471.477 -780.436)"/><path class="m" d="M1514.277,806.719a.493.493,0,0,0-.632.717,1.52,1.52,0,0,0-.175.11.4.4,0,0,0-.486-.142,9.475,9.475,0,0,0-6.389,7.744,5.138,5.138,0,0,0,.958,4.125,2.482,2.482,0,0,0,1.3.716,6.419,6.419,0,0,1,2.016.559c2.383,1.21,5.586-.33,6.593-2.866C1518.827,814.245,1517.7,808.584,1514.277,806.719Z" transform="translate(-1467.69 -778.447)"/><path class="f" d="M1538.964,862.164c-.575-6.615-1.226-13.222-1.838-19.832-.415-4.47-.5-9.347-3.378-13.011-3.022-3.854-8.084-5.825-12.295-7.9a25.162,25.162,0,0,0-6.279-2.576c-2.579-.472-5.467-.024-8.125.236a1.448,1.448,0,0,0-1.677-.259c-6.042,2.537-13.645,5.274-18.293,10.2-4.483,4.75-3.518,12.534-3.713,18.62-.236,7.408-.148,14.95,1.651,22.175.984,3.953,3.351,13.186,7.565,14.632a1.889,1.889,0,0,0,2.135-.892l.06-.108a1.935,1.935,0,0,0-1.349-2.856c-.8-.767-2.437-5.017-2.8-5.874a39.141,39.141,0,0,1-1.662-4.833c2.679.613,5.317,2.808,7.713,3.84a37.011,37.011,0,0,0,7.367,2.3,48.34,48.34,0,0,0,16.391.259c4.675-.675,10.184-1.578,14.443-3.808C1539.086,870.272,1539.349,866.585,1538.964,862.164Z" transform="translate(-1473.704 -775.349)"/><path class="f" d="M1505.752,827.581h0a6,6,0,0,1-6-6v-13.74h11.99v13.74A6,6,0,0,1,1505.752,827.581Z" transform="translate(-1469.442 -778.139)"/><path class="g" d="M1511.759,811.581a21,21,0,0,0-5.843-.279,15.481,15.481,0,0,0-6.05,1.392l-.1.049v5.106c2.313,2.083,4.855,3.472,8.125,2.645a14.54,14.54,0,0,0,3.865-1.727Z" transform="translate(-1469.439 -777.267)"/><path class="f" d="M1507.059,790.668c-13.217.2-12.111,11.552-12.074,12.049.386,5.418.41,9.839,2.654,13.532,1.392,2.29,6.021,7.695,9.392,7.763,2.252.045,6.079-3.473,7.512-5.86a27.508,27.508,0,0,0,4.225-15.3C1518.628,796.434,1521.3,790.449,1507.059,790.668Z" transform="translate(-1470.686 -782.582)"/><path class="f" d="M1494.31,807.422c.62.909,2.929,2.823,3.753,1.335.423-.764-.284-1.625-.658-2.248l-.327-.545c.348.582,1.254.01.928-.614-.519-1-2-4.151-3.563-2.876C1493.179,803.506,1492.9,805.365,1494.31,807.422Z" transform="translate(-1471.094 -779.605)"/><path class="m" d="M1500.769,804.644c0,.707-.375,1.28-.837,1.28s-.837-.572-.837-1.28.374-1.28.837-1.28S1500.769,803.937,1500.769,804.644Z" transform="translate(-1469.613 -779.298)"/><path class="m" d="M1510.25,804.525c0,.707-.375,1.28-.837,1.28s-.837-.573-.837-1.28.374-1.28.837-1.28S1510.25,803.819,1510.25,804.525Z" transform="translate(-1467.162 -779.329)"/><path class="g" d="M1506.143,809.5c-.734.118-1.465.257-1.671-.794a5.027,5.027,0,0,1,.161-1.423c.123-.87.2-1.121.337-1.99.109-.7-.966-1.006-1.077-.3-.159,1.013-.257,1.409-.4,2.425a4.285,4.285,0,0,0,0,2.1c.472,1.252,1.838,1.236,2.949,1.056C1507.147,810.457,1506.846,809.381,1506.143,809.5Z" transform="translate(-1468.512 -778.982)"/><path class="o" d="M1507.657,811.216a13.11,13.11,0,0,1-4.794.02.44.44,0,0,0-.314.772l.006.01a3.269,3.269,0,0,0,5.47-.079.438.438,0,0,0,.028-.074A.415.415,0,0,0,1507.657,811.216Z" transform="translate(-1468.76 -777.27)"/><path class="m" d="M1512.368,802.117a7.5,7.5,0,0,0-3.95-.828c-.523.088-2.08.663-1.181,1.447.4.352,3.384.182,4.945.415C1512.875,803.254,1513.139,802.412,1512.368,802.117Z" transform="translate(-1467.579 -779.849)"/><path class="m" d="M1497.545,802.461a1.29,1.29,0,0,1,.466-.542,5.708,5.708,0,0,1,3.985-.648c.518.112,2.047.758,1.114,1.5-.42.335-3.422-.131-4.9.427C1497.455,803.482,1497.278,803.034,1497.545,802.461Z" transform="translate(-1470.044 -779.87)"/><path class="f" d="M1515.349,802.3c-1.563-1.275-3.042,1.875-3.563,2.877-.323.623.581,1.2.928.614-.108.181-.218.362-.327.544-.372.624-1.081,1.484-.658,2.248.825,1.489,3.133-.427,3.754-1.334C1516.891,805.188,1516.615,803.33,1515.349,802.3Z" transform="translate(-1466.38 -779.651)"/><path class="g" d="M1513.457,804a3.083,3.083,0,0,1-.7,1.694c-.456.55.329,1.344.789.79a4.389,4.389,0,0,0,1.025-2.484C1514.64,803.283,1513.522,803.287,1513.457,804Z" transform="translate(-1466.116 -779.272)"/><path class="g" d="M1495.592,804.039a3.078,3.078,0,0,0,.7,1.694c.456.55-.329,1.344-.789.79a4.389,4.389,0,0,1-1.025-2.484C1494.41,803.323,1495.528,803.328,1495.592,804.039Z" transform="translate(-1470.808 -779.262)"/><path class="m" d="M1511.64,791.695c-1.763-1.076-5.04-.422-6.926-.167a18.346,18.346,0,0,0-4.217,1.046c-1.805.7-3.372,1.664-5.31,1.777a.778.778,0,0,0-1.046.028c-2.247,3.11-4.646,10.644,0,13.079,4.823,2.531,8.079-5.37,10.042-8.163a13.159,13.159,0,0,1,3.926-3.915c1.136-.665,2.887-.653,3.9-1.435C1512.959,793.211,1512.608,792.286,1511.64,791.695Z" transform="translate(-1471.581 -782.469)"/><path class="p" d="M1520.845,866.745c-1.784-14.325-1.513-28.872-4-43.1a.975.975,0,0,0-1.921-.094q-3.226,13.215-6.451,26.43c-2.587-9.526-6.727-18.78-10.16-27.977a.971.971,0,0,0-1.821.675c.749,2.007,1.533,4.017,2.325,6.032a1,1,0,0,0-.336.24c-7.943,8.519-5.635,22.306-4.915,32.9.742,10.9,4.117,21.826,15.208,24.81,2.91.784,9.981-.282,12.021-3.342C1523.4,879.4,1521.37,870.953,1520.845,866.745Z" transform="translate(-1471.268 -774.638)"/><path class="m" d="M1521.918,798.521a8.983,8.983,0,0,0-5.482-7.805,22.829,22.829,0,0,0-6.286-1.319c-2.806-3.207-7.421-2.044-10.768.667-2.2,1.78-4.936,3.844-6.2,6.462-1.217,2.521-.673,5.324-.045,7.92a.792.792,0,0,0,.054.115c.042.143.076.287.123.429a1.089,1.089,0,0,0,.454.583c2.551,1.379,4.505-.513,6.323-2.312,2.981-2.951,6-8.332,10.827-7.744a.471.471,0,0,0,.121-.01.5.5,0,0,0,.154.171c3.147,2.165,4.55,8.289,7.956,10.077C1521.725,807.106,1521.978,800.182,1521.918,798.521Z" transform="translate(-1471.33 -783.41)"/><path class="k" d="M1513.568,805.859c-.327-.53-1.168-.043-.838.491a2.867,2.867,0,0,1,.444,1.624.486.486,0,0,0,.972,0A3.835,3.835,0,0,0,1513.568,805.859Z" transform="translate(-1466.107 -778.712)"/><path class="q" d="M1552.822,981.447c-1.4-15.657-3.063-30.993-3.8-46.7-.74-15.864-.234-31.733-.736-47.6-.464-14.688-3.837-36.647-7.682-50.87-3.238-11.977-9.588-10.967-19.991-16.818a2.063,2.063,0,0,0-.428-.254,1.209,1.209,0,0,0-1.091-.852c-1.689-.168-3.708.49-5.456.52a36.515,36.515,0,0,1-6.319-.473.5.5,0,0,0-.6.339l-.234.806c-.032.007-.061.015-.095.021-12.059,2.474-18.834,8.3-22.152,19.521-4.35,14.7-5.1,35.32-5.8,50.511-.757,16.442-2.942,32.555-4.725,48.893-1.879,17.221-2.132,34.558-2.3,51.863a1,1,0,0,0,.712.936c7.816,2.818,31.736,4.917,35.323,4.66a1,1,0,0,0,.971-.972c1.969-29.2,5.028-58.562,5.561-87.824.523-28.816-6.347-56.172-6.381-84.954-.047-.381-.082-.7-.112-.984a26.579,26.579,0,0,0,11.107-.021q.2,44.082.391,88.164c.126,28.5-1.544,57.784,3.57,85.952a.98.98,0,0,0,1.426.58,165.4,165.4,0,0,1,27.933-12.415.886.886,0,0,0,.472-.223C1552.9,982.9,1553.105,982.458,1552.822,981.447Z" transform="translate(-1476.77 -775.429)"/><path class="r" d="M1494.723,839.858c-.464-4.283-.971-8.517-2.669-12.515-.243-.574-1.08-.079-.838.49a36.019,36.019,0,0,1,2.322,10.052,28.072,28.072,0,0,0-2.95-6.236c-.334-.526-1.175-.041-.839.49a27.259,27.259,0,0,1,3.537,8.4.438.438,0,0,0,.578.326q.046.434.092.869.735,6.8,1.472,13.6c.065.615,1.037.622.97,0Q1495.561,847.6,1494.723,839.858Z" transform="translate(-1472.05 -773.164)"/></g></g><rect class="a" width="308.928" height="145.928" transform="translate(16 127)"/><g transform="translate(195.405 136.017)"><path class="s" d="M1580.3,744.742h0a.88.88,0,0,1-.523,0h0A25.252,25.252,0,0,1,1562,720.621v-7.8a2.879,2.879,0,0,1,2.25-2.81l15.791-5.532,15.79,5.532a2.878,2.878,0,0,1,2.25,2.81v7.8A25.252,25.252,0,0,1,1580.3,744.742Z" transform="translate(-1562 -704.479)"/><g transform="translate(10.728 13.496)"><path class="d" d="M1583.69,737.12l-5.1-4.793,1.921-2.046,3.248,3.051,9.127-7.986,1.848,2.113Z" transform="translate(-1578.588 -725.346)"/></g></g><g transform="translate(99.926 136.017)"><path class="s" d="M1580.3,744.742h0a.88.88,0,0,1-.523,0h0A25.252,25.252,0,0,1,1562,720.621v-7.8a2.879,2.879,0,0,1,2.25-2.81l15.791-5.532,15.79,5.532a2.878,2.878,0,0,1,2.25,2.81v7.8A25.252,25.252,0,0,1,1580.3,744.742Z" transform="translate(-1562 -704.479)"/><g transform="translate(10.728 13.496)"><path class="d" d="M1583.69,737.12l-5.1-4.793,1.921-2.046,3.248,3.051,9.127-7.986,1.848,2.113Z" transform="translate(-1578.588 -725.346)"/></g></g></g></g></svg>