<svg xmlns="http://www.w3.org/2000/svg" xmlns:xlink="http://www.w3.org/1999/xlink" width="844.442" height="447.344" viewBox="0 0 844.442 447.344"><defs><clipPath id="a"><path d="M1444.275-497.314l-8.6,13.9s-3.275,10.537,17.078,11.928L1463-497.351Z" transform="translate(-1435.477 497.351)" fill="none" clip-rule="evenodd"/></clipPath><clipPath id="b"><path d="M447-63.307H1841.709V-935H447Z" transform="translate(-447 935)" fill="none"/></clipPath><clipPath id="c"><path d="M1544.818-485.375l2.907-1.025" transform="translate(-1544.818 486.4)" fill="none"/></clipPath><clipPath id="e"><path d="M1548.227-477.358l2.908-1.025" transform="translate(-1548.227 478.383)" fill="none"/></clipPath><clipPath id="g"><path d="M1551.319-470.157l2.908-1.031" transform="translate(-1551.319 471.188)" fill="none"/></clipPath><clipPath id="i"><rect width="186.408" height="223.922" transform="translate(-3)" fill="#fff"/></clipPath><clipPath id="j"><rect width="606.771" height="318.34" fill="none"/></clipPath><clipPath id="k"><path d="M766.558,180.141l-6.55,15.731,9.041,1.918.561-17.369Z" transform="translate(-760.008 -180.141)" fill="none"/></clipPath><clipPath id="l"><path d="M5.277,7.632c1.185,2.6-4.351,1.4-5.262,4.1-.348.832,5.621,11.487,6.238,13.841a15.7,15.7,0,0,1,.461,6.151,14.3,14.3,0,0,0-.26,3.737,3.076,3.076,0,0,0,2.2,2.745,4.122,4.122,0,0,1,3.068-3.74,9.732,9.732,0,0,1,8.017,2.157c-.486-5.479-1.349-13.368,2.452-17.322,1.371-1.405,3.017-2.711,3.613-4.587,1.082-3.383-3.266-8.563-5.329-10.179C16.6.815,9.576-.5,8.813.163,6.18,2.086,8.5,7.924,5.3,8.566" transform="translate(0 0)" fill="none"/></clipPath><clipPath id="m"><path d="M0,3253.884H3042.593V0H0Z" fill="none"/></clipPath><clipPath id="n"><path d="M11.45,1.453,10.277,28.044S4.2,20.676,1.293,19.3s0-12.39,0-12.39L7.156,1.376,8.609,0Z" transform="translate(0 0)" fill="none"/></clipPath><clipPath id="o"><path d="M0,3206.2H3173.99V0H0Z" fill="none"/></clipPath><clipPath id="p"><path d="M62.785,34.387c-6.341,3.125-13.259,5.536-20.32,5.23C32.989,39.19,24.476,34,16.379,29.035a14.071,14.071,0,0,0-4.228-1.958A4.774,4.774,0,0,0,7.79,28.133a5.635,5.635,0,0,0-1.35,3.273,14.968,14.968,0,0,0,6.366,14.21c-.167,1.371-.112,2.914-.279,4.285a14.977,14.977,0,0,1-3.754-2.115A21.5,21.5,0,0,1,1.631,38.53c-2.25-5.62-2-12.143-.294-17.992S6.083,9.292,9.3,4.056a10.437,10.437,0,0,1,2.313-2.88C13.66-.41,16.63-.241,19,.792a30.8,30.8,0,0,1,6.341,4.442,13.917,13.917,0,0,0,6.869,3.374,15.352,15.352,0,0,0,3.97-.245c2.607-.414,5.206-.89,7.779-1.441a23.183,23.183,0,0,1,5.018-.731,14.587,14.587,0,0,1,8.995,3.577A43.478,43.478,0,0,1,64.587,17l4.689,5.969a2.364,2.364,0,0,1,.678,1.5,2.4,2.4,0,0,1-.608,1.251l-7.457,9.578" fill="none"/></clipPath><clipPath id="r"><path d="M54.93,11.8c-6.677,1.314-13.259,3.081-20.073,1.754C28.852,12.429,23.344,9.215,18.3,5.887,13.008,2.39,5.933-3.333.123,2.511c-.382.393.215.993.6.6,5.758-5.872,12.9.741,17.991,3.991a57.959,57.959,0,0,0,10.751,5.677c8.828,3.375,16.8,1.572,25.75-.194.539-.1.315-.923-.224-.812Z" transform="translate(0 0)" fill="none"/></clipPath><clipPath id="t"><path d="M50.123,16.135c-6.556-6.164-14.615-4.5-22.746-5.229-6.205-.586-9.59-4.4-14.469-7.611A19.972,19.972,0,0,0,.4.058C-.135.058-.135.933.4.9,7.028.565,11.355,3.217,16.382,7.01a21.8,21.8,0,0,0,7.431,4.173c8.883,2.4,18.146-1.553,25.716,5.555.391.363,1-.232.594-.6" transform="translate(0 0)" fill="none"/></clipPath><filter id="v" x="298.59" y="0" width="89.904" height="89.105" filterUnits="userSpaceOnUse"><feOffset dy="3" input="SourceAlpha"/><feGaussianBlur stdDeviation="3" result="w"/><feFlood flood-opacity="0.161"/><feComposite operator="in" in2="w"/><feComposite in="SourceGraphic"/></filter></defs><g transform="translate(-847.697 -281.146)"><g transform="translate(863.697 258.766)" opacity="0.4"><g transform="translate(0 361.421)"><g transform="translate(6.853 53.445)"><path d="M3180.3,944.186a10.626,10.626,0,0,0,6.64-2.294,11.541,11.541,0,0,0,3.565-13.438,9.821,9.821,0,0,0-5.6-5.51c-9.487-3.908-26.18,3.123-26.885,3.425l-1.8.766,1.262,1.492C3167.545,940.517,3174.969,944.186,3180.3,944.186Zm-2.323-19.551a15.48,15.48,0,0,1,5.836.978,6.939,6.939,0,0,1,4.018,3.928,8.757,8.757,0,0,1-2.658,10.07c-5.458,4.224-14,.208-24.158-11.313C3164.375,927.051,3171.7,924.635,3177.975,924.635Z" transform="translate(-3156.225 -921.764)" fill="#00adee"/></g><g transform="translate(54.544 27.967)"><path d="M3135.341,931.825a11.212,11.212,0,0,0,1.329-.08c6.309-.75,13.464-6.582,11.7-30.106l-.145-1.947-1.819.712c-.714.28-17.547,6.966-21.573,16.406a9.815,9.815,0,0,0-.126,7.853A11.563,11.563,0,0,0,3135.341,931.825Zm10.284-27.949c.834,15.336-2.44,24.189-9.3,25a8.762,8.762,0,0,1-8.954-5.317,6.944,6.944,0,0,1,.111-5.621C3130.325,911.29,3141.243,905.841,3145.625,903.876Z" transform="translate(-3123.948 -899.692)" fill="#00adee"/></g><g transform="translate(0 27.476)"><path d="M3186.759,919.666a9.8,9.8,0,0,0,7.175-3,10.61,10.61,0,0,0,1.807-12.289,9.006,9.006,0,0,0-5.58-4.539c-8.918-2.717-23.366,5.045-23.974,5.375l-1.718.934,1.4,1.367C3175.233,916.682,3181.965,919.666,3186.759,919.666Zm-.923-17.528a11.977,11.977,0,0,1,3.487.466,6.135,6.135,0,0,1,3.861,3.113,7.7,7.7,0,0,1-1.3,8.919c-4.432,4.462-12.4,1.694-22.535-7.779C3172.666,905.273,3179.961,902.138,3185.835,902.138Z" transform="translate(-3164.469 -899.266)" fill="#00adee"/></g><g transform="translate(11.404)"><path d="M3175.625,902.159a11.012,11.012,0,0,0,1.259-.072,10.614,10.614,0,0,0,9.09-8.465,9.007,9.007,0,0,0-1.521-7.03c-5.264-7.693-21.392-10.661-22.077-10.784l-1.924-.345.236,1.94C3163.144,897.529,3169.917,902.159,3175.625,902.159Zm-11.8-23.094c4.335,1.01,14.652,3.9,18.25,9.158a6.133,6.133,0,0,1,1.069,4.843,7.7,7.7,0,0,1-6.585,6.152C3170.3,899.93,3165.815,892.8,3163.822,879.065Z" transform="translate(-3160.451 -875.463)" fill="#00adee"/></g><g transform="translate(40.702 8.887)"><path d="M3147.693,911.942c.121,0,.241,0,.363-.007,5.965-.212,12.946-5.038,12.335-26.82l-.055-1.953-1.851.628c-.659.223-16.166,5.56-20.224,13.952a9,9,0,0,0-.456,7.177A10.62,10.62,0,0,0,3147.693,911.942Zm9.847-24.715c.077,13.873-3.3,21.6-9.588,21.825a7.705,7.705,0,0,1-7.43-5.1,6.138,6.138,0,0,1,.335-4.95C3143.633,893.262,3153.4,888.871,3157.54,887.226Z" transform="translate(-3137.265 -883.162)" fill="#00adee"/></g><g transform="translate(12.584 1.333)"><path d="M3184.625,955.773l2.841-.506c-8.032-45.214-40.814-78.32-41.144-78.649l-2.038,2.043C3144.606,878.984,3176.753,911.477,3184.625,955.773Z" transform="translate(-3144.283 -876.618)" fill="#00adee"/></g><g transform="translate(9.818 29.834)"><path d="M3167.15,940.384l26.115-37.425-2.367-1.65-25.064,35.919-40.728-7.033-.492,2.843Z" transform="translate(-3124.614 -901.309)" fill="#00adee"/></g><g transform="translate(3.967 10.965)"><path d="M3176.475,916.207l20.592-29.6-2.369-1.648L3175.12,913.1l-36.823-5.158-.4,2.859Z" transform="translate(-3137.896 -884.962)" fill="#00adee"/></g><g transform="translate(37.204 78.395)"><path d="M3158.16,973.287l6.748-29.908H3130.9l3.08,29.739,2.87-.3-2.75-26.555h27.2l-5.956,26.386Z" transform="translate(-3130.901 -943.379)" fill="#00adee"/></g><g transform="translate(40.101 91.314)"><path d="M3135.5,959.766a4.89,4.89,0,0,0,3.545-1.523,2.062,2.062,0,0,1,3.24,0,4.882,4.882,0,0,0,7.085,0,2.057,2.057,0,0,1,3.233,0,4.875,4.875,0,0,0,7.081,0,2.1,2.1,0,0,1,1.614-.785v-2.886a4.877,4.877,0,0,0-3.54,1.521,2.051,2.051,0,0,1-3.23,0,4.881,4.881,0,0,0-7.081,0,2.107,2.107,0,0,1-1.618.787,2.134,2.134,0,0,1-1.621-.787,4.886,4.886,0,0,0-7.086,0,2.132,2.132,0,0,1-1.622.787Z" transform="translate(-3135.504 -954.572)" fill="#00adee"/></g></g><g transform="translate(426.714 41.945)"><g transform="translate(0 185.408)"><path d="M2550.526,861.95h295.123V841.262H2550.526Zm292.633-2.328H2553.015V843.59h290.144Z" transform="translate(-2550.526 -841.262)" fill="#00adee"/></g><g transform="translate(10.415)"><path d="M2607.429,829.923h212.615V642.187H2607.429Zm210.286-2.328H2609.758V644.515h207.958Z" transform="translate(-2607.429 -642.187)" fill="#00adee"/></g><g transform="translate(70.113)"><path d="M2607.429,659.368h152.917V642.187H2607.429Zm150.589-2.328h-148.26V644.515h148.26Z" transform="translate(-2607.429 -642.187)" fill="#00adee"/></g><g transform="translate(10.415)"><path d="M2769.118,829.923h62.026V642.187h-62.026Zm59.7-2.328h-57.369V644.515h57.369Z" transform="translate(-2769.118 -642.187)" fill="#00adee"/><g transform="translate(38.701 33.053)"><line y2="102.249" transform="translate(1.164 0)" fill="#fff"/><rect width="2.328" height="102.249" fill="#00adee"/></g><g transform="translate(20.796 33.053)"><line y2="102.249" transform="translate(1.165 0)" fill="#fff"/><rect width="2.328" height="102.249" fill="#00adee"/></g></g><g transform="translate(220.899)"><path d="M2769.118,829.923h62.026V642.187h-62.026Zm59.7-2.328h-57.369V644.515h57.369Z" transform="translate(-2769.118 -642.187)" fill="#00adee"/><g transform="translate(38.701 33.053)"><line y2="102.249" transform="translate(1.164 0)" fill="#fff"/><rect width="2.328" height="102.249" fill="#00adee"/></g><g transform="translate(20.796 33.053)"><line y2="102.249" transform="translate(1.165 0)" fill="#fff"/><rect width="2.328" height="102.249" fill="#00adee"/></g></g><g transform="translate(38.421 208.965)" clip-path="url(#a)"><g transform="translate(-957.387 -423.884)" clip-path="url(#b)"><path d="M1430.476-466.8h37.207v-35.551h-37.207Z" transform="translate(-477.932 921.392)" fill="#fff"/></g></g><g transform="translate(144.323 219.572)" clip-path="url(#c)"><g transform="translate(-1063.289 -434.491)" clip-path="url(#b)"><path d="M1539.818-480.689h12.593V-491.4h-12.593Z" transform="translate(-481.372 921.048)" fill="#ffc75b"/></g></g><g transform="translate(147.625 227.337)" clip-path="url(#e)"><g transform="translate(-1066.591 -442.255)" clip-path="url(#b)"><path d="M1543.227-472.672h12.593v-10.711h-12.593Z" transform="translate(-481.479 920.796)" fill="#ffc75b"/></g></g><g transform="translate(150.619 234.305)" clip-path="url(#g)"><g transform="translate(-1069.586 -449.224)" clip-path="url(#b)"><path d="M1546.319-465.472h12.593v-10.716h-12.593Z" transform="translate(-481.576 920.569)" fill="#ffc75b"/></g></g></g><g transform="translate(645.034 245.386)" clip-path="url(#i)"><g transform="translate(29.058 12.127)"><g transform="translate(0 97.263)"><path d="M2920.817,866.175h143.35V819.2h-143.35Zm141.092-2.257H2923.074V821.46h138.834Z" transform="translate(-2920.817 -819.203)" fill="#00adee"/></g><g transform="translate(0 141.978)"><path d="M2920.817,915.7h143.35V868.723h-143.35Zm141.092-2.257H2923.074V870.98h138.834Z" transform="translate(-2920.817 -868.723)" fill="#00adee"/></g><g transform="translate(0 186.694)"><path d="M2920.817,965.216h143.35V918.244h-143.35Zm141.092-2.257H2923.074V920.5h138.834Z" transform="translate(-2920.817 -918.244)" fill="#00adee"/></g><g transform="translate(63.549)"><path d="M2946.989,760.775h56.168l-7.731-49.288h-39.094Zm53.53-2.257h-50.806l8.488-44.773H2993.5Z" transform="translate(-2946.989 -711.487)" fill="#00adee"/></g><g transform="translate(85.761 47.031)"><path d="M2973.157,810.555h10.327V763.572h-10.327Zm8.07-2.257h-5.812V765.829h5.813Z" transform="translate(-2973.157 -763.572)" fill="#00adee"/></g><g transform="translate(73.619 91.756)"><path d="M2959.8,820.869h34.534V813.1H2959.8Zm32.276-2.257h-30.019v-3.25h30.019Z" transform="translate(-2959.796 -813.104)" fill="#00adee"/></g><g transform="translate(49.232 178.759)"><path d="M2975.349,919.649h44.877l-3.948-10.193h-36.931Zm41.582-2.257H2978.66l2.227-5.678h33.845Z" transform="translate(-2975.349 -909.456)" fill="#00adee"/></g><g transform="translate(49.232 134.043)"><path d="M2975.349,870.128h44.877l-3.948-10.193h-36.931Zm41.582-2.257H2978.66l2.227-5.678h33.845Z" transform="translate(-2975.349 -859.935)" fill="#00adee"/></g><g transform="translate(7.608 88.991)"><path d="M3030.35,820.571h36.838v-10.53H3030.35Zm34.581-2.257h-32.323V812.3h32.323Z" transform="translate(-3030.35 -810.041)" fill="#00adee"/></g><g transform="translate(80.081 1.015)"><rect width="2.257" height="47.271" transform="translate(2.245 47.258) rotate(-174.215)" fill="#00adee"/></g><g transform="translate(97.942 1.015)"><rect width="47.271" height="2.257" transform="translate(4.766 47.258) rotate(-95.786)" fill="#00adee"/></g></g></g></g><g transform="translate(1047.771 410.149)"><g transform="translate(0)"><g clip-path="url(#j)"><g transform="translate(301.448 175.87)"><g transform="translate(0.692 0.693)"><rect width="270.106" height="146.68" rx="10.648" fill="#a5caef"/></g><path d="M1053.143,388.454H822.389a20.392,20.392,0,0,1-20.369-20.369V260.757a20.392,20.392,0,0,1,20.369-20.369h230.753a20.392,20.392,0,0,1,20.369,20.369V368.085A20.392,20.392,0,0,1,1053.143,388.454ZM822.389,241.774a19,19,0,0,0-18.983,18.983V368.085a19,19,0,0,0,18.983,18.983h230.753a19,19,0,0,0,18.983-18.983V260.757a19,19,0,0,0-18.983-18.983Z" transform="translate(-802.02 -240.388)" fill="#a5caef"/></g><g transform="translate(31.342 175.87)"><g transform="translate(0.692 0.693)"><rect width="270.106" height="146.68" rx="10.648" fill="#a5caef"/></g><path d="M906.97,388.454H676.216a20.391,20.391,0,0,1-20.367-20.369V260.757a20.391,20.391,0,0,1,20.367-20.369H906.97a20.394,20.394,0,0,1,20.371,20.369V368.085A20.394,20.394,0,0,1,906.97,388.454ZM676.216,241.774a19,19,0,0,0-18.981,18.983V368.085a19,19,0,0,0,18.981,18.983H906.97a19.005,19.005,0,0,0,18.985-18.983V260.757a19.005,19.005,0,0,0-18.985-18.983Z" transform="translate(-655.849 -240.388)" fill="#a5caef"/></g><g transform="translate(31.342 195.546)"><g transform="translate(0.691 0.693)"><path d="M906.652,251.411H675.9c-10.867,0-19.678,8.142-19.678,18.183v90.638c0,10.041,8.811,18.183,19.678,18.183H906.652c10.867,0,19.678-8.142,19.678-18.183V269.594C926.33,259.553,917.52,251.411,906.652,251.411Z" transform="translate(-656.223 -251.411)" fill="#d3e2f4"/></g><path d="M906.97,379.426H676.216c-11.231,0-20.367-8.467-20.367-18.876V269.912c0-10.409,9.136-18.876,20.367-18.876H906.97c11.231,0,20.371,8.467,20.371,18.876V360.55C927.341,370.959,918.2,379.426,906.97,379.426Zm-230.753-127c-10.466,0-18.981,7.848-18.981,17.49V360.55c0,9.644,8.515,17.49,18.981,17.49H906.97c10.468,0,18.985-7.846,18.985-17.49V269.912c0-9.642-8.517-17.49-18.985-17.49Z" transform="translate(-655.849 -251.036)" fill="#d3e2f4"/></g><g transform="translate(301.448 195.546)"><g transform="translate(0.693 0.693)"><path d="M1052.825,251.411H822.071c-10.867,0-19.676,8.142-19.676,18.183v90.638c0,10.041,8.809,18.183,19.676,18.183h230.753c10.867,0,19.676-8.142,19.676-18.183V269.594C1072.5,259.553,1063.692,251.411,1052.825,251.411Z" transform="translate(-802.395 -251.411)" fill="#d3e2f4"/></g><path d="M1053.143,379.426H822.389c-11.231,0-20.369-8.467-20.369-18.876V269.912c0-10.409,9.138-18.876,20.369-18.876h230.753c11.231,0,20.369,8.467,20.369,18.876V360.55C1073.511,370.959,1064.374,379.426,1053.143,379.426Zm-230.753-127c-10.468,0-18.983,7.848-18.983,17.49V360.55c0,9.644,8.515,17.49,18.983,17.49h230.753c10.468,0,18.983-7.846,18.983-17.49V269.912c0-9.642-8.515-17.49-18.983-17.49Z" transform="translate(-802.02 -251.036)" fill="#d3e2f4"/></g><g transform="translate(32.033 243.493)"><path d="M675.9,356.734H906.652a19.677,19.677,0,0,0,19.678-19.676c-97.937,7.005-209.736-17.143-270.107-60.074v60.074A19.677,19.677,0,0,0,675.9,356.734Z" transform="translate(-656.223 -276.983)" fill="none"/></g><g transform="translate(302.141 243.493)"><path d="M822.071,356.734h230.753a19.676,19.676,0,0,0,19.676-19.676c-97.936,7.005-209.736-17.143-270.106-60.074v60.074A19.676,19.676,0,0,0,822.071,356.734Z" transform="translate(-802.395 -276.983)" fill="none"/></g><g transform="translate(1.155 268.439)"><g transform="translate(0.693 0.693)"><path d="M716.667,340.5a24.431,24.431,0,0,0,1.927-9.544V315.379a24.521,24.521,0,0,0-24.52-24.521H664.407a24.52,24.52,0,0,0-24.519,24.521v15.579a24.536,24.536,0,0,0,.964,6.833" transform="translate(-639.888 -290.858)" fill="#a5caef"/></g><path d="M717.624,341.089l-1.277-.538a23.693,23.693,0,0,0,1.87-9.274V315.7a23.852,23.852,0,0,0-23.825-23.827H664.725A23.853,23.853,0,0,0,640.9,315.7v15.581a23.854,23.854,0,0,0,.939,6.641l-1.332.386a25.231,25.231,0,0,1-.992-7.027V315.7a25.242,25.242,0,0,1,25.212-25.212h29.668A25.24,25.24,0,0,1,719.6,315.7v15.581A25.065,25.065,0,0,1,717.624,341.089Z" transform="translate(-639.513 -290.483)" fill="#a5caef"/></g><g transform="translate(1.155 278.164)"><g transform="translate(0.693 0.693)"><path d="M717.669,335.209a24.525,24.525,0,0,0,.926-6.693V320.64a24.52,24.52,0,0,0-24.52-24.519H664.407a24.52,24.52,0,0,0-24.519,24.519v7.876a24.539,24.539,0,0,0,.964,6.835" transform="translate(-639.888 -296.121)" fill="#d3e2f4"/></g><path d="M640.505,335.861a25.212,25.212,0,0,1-.992-7.027V320.96a25.243,25.243,0,0,1,25.212-25.214h29.668A25.242,25.242,0,0,1,719.6,320.96v7.874a25.191,25.191,0,0,1-.95,6.882l-1.332-.379a23.867,23.867,0,0,0,.9-6.5V320.96a23.854,23.854,0,0,0-23.825-23.828H664.725A23.854,23.854,0,0,0,640.9,320.96v7.874a23.863,23.863,0,0,0,.939,6.641Z" transform="translate(-639.513 -295.746)" fill="#d3e2f4"/></g><g transform="translate(523.034 268.439)"><g transform="translate(0.691 0.693)"><path d="M999.366,339.816a24.464,24.464,0,0,0,1.649-8.857V315.379a24.519,24.519,0,0,0-24.52-24.521H946.829a24.521,24.521,0,0,0-24.521,24.521v15.579a24.448,24.448,0,0,0,1.648,8.855" transform="translate(-922.308 -290.858)" fill="#a5caef"/></g><path d="M1000.33,340.385l-1.292-.5a23.747,23.747,0,0,0,1.6-8.606V315.7a23.853,23.853,0,0,0-23.826-23.827H947.146A23.853,23.853,0,0,0,923.32,315.7v15.581a23.693,23.693,0,0,0,1.6,8.6l-1.292.5a25.076,25.076,0,0,1-1.694-9.106V315.7a25.242,25.242,0,0,1,25.212-25.212h29.666a25.242,25.242,0,0,1,25.212,25.212v15.581A25.138,25.138,0,0,1,1000.33,340.385Z" transform="translate(-921.934 -290.483)" fill="#a5caef"/></g><g transform="translate(523.034 278.621)"><g transform="translate(0.691 0.693)"><path d="M999.366,335.175c.63-2.081,1.649-5.475,1.649-7.75v-7.55c0-12.983-10.977-23.507-24.52-23.507H946.829c-13.543,0-24.521,10.524-24.521,23.507v7.55a22.573,22.573,0,0,0,1.65,8.493" transform="translate(-922.308 -296.368)" fill="#d3e2f4"/></g><path d="M923.632,336.495a23.233,23.233,0,0,1-1.7-8.752v-7.55c0-13.343,11.311-24.2,25.212-24.2h29.666c13.9,0,25.212,10.856,25.212,24.2v7.55c0,2.4-1.049,5.873-1.676,7.95l-1.329-.4a31.438,31.438,0,0,0,1.619-7.549v-7.55c0-12.578-10.688-22.814-23.826-22.814H947.146c-13.138,0-23.826,10.235-23.826,22.814v7.55a21.886,21.886,0,0,0,1.6,8.232Z" transform="translate(-921.934 -295.993)" fill="#d3e2f4"/></g><g transform="translate(299.625 4.778)"><g transform="translate(133.309 80.238)"><path d="M890.216,192.559c17.743,31.445,32.179,55.427,49.922,86.872.488.977-3.182,1.347-3.914,2.2-.488.5-3.914,3.552-4.529,3.67-3.8.5-.7,4.039-4.527,4.527-2.2.244-1.222,2.792-3.426,2.325-2.692-.608-5.017-2.325-7.34-3.79-8.687-5.874-19.091-10.276-24.6-19.332-2.567-4.187-3.788-8.931-5.135-13.578-2.692-9.426-5.756-18.6-9.3-27.657-2.567-6.482-5.387-13.452-3.67-20.186,1.221-5.017,4.773-9.069,8.2-12.97a10.7,10.7,0,0,1,3.544-3.056,3.679,3.679,0,0,1,4.283.734c.244.244.37.732,0,.857-.244.244-.488-.488-.118-.37" transform="translate(-873.175 -191.221)" fill="#ffaf97"/></g><g transform="translate(133.061 79.994)"><path d="M924.365,292.57a2.455,2.455,0,0,1-.558-.07,20.225,20.225,0,0,1-6.344-3.127l-1.081-.7c-2.149-1.452-4.444-2.84-6.663-4.187-6.795-4.115-13.828-8.373-18-15.23-2.352-3.8-3.594-8.136-4.793-12.336l-.377-1.3c-2.792-9.733-5.819-18.776-9.295-27.629l-.083-.224c-2.609-6.578-5.3-13.382-3.592-20.114,1.234-5.045,4.779-9.071,8.2-13.013l.048-.057a10.756,10.756,0,0,1,3.622-3.112c1.4-.6,3.489-.6,4.577.8a1.094,1.094,0,0,1,.251.425l.259-.146c8.874,15.727,17.058,29.821,24.97,43.447s16.047,27.705,24.95,43.425a.617.617,0,0,1,0,.517c-.209.5-1.088.787-2.092,1.123a5.238,5.238,0,0,0-1.87.837c-.342.349-3.929,3.607-4.662,3.753-1.737.224-1.89,1.075-2.092,2.094a2.5,2.5,0,0,1-2.471,2.463,1.735,1.735,0,0,0-1.493,1.227C925.552,291.962,925.25,292.57,924.365,292.57ZM887.33,191.582a4.407,4.407,0,0,0-1.674.334,10.348,10.348,0,0,0-3.489,2.986l-.057.063c-3.391,3.873-6.893,7.877-8.092,12.809-1.676,6.58.99,13.314,3.572,19.824l.083.222c3.489,8.868,6.523,17.919,9.308,27.672l.377,1.3c1.194,4.187,2.421,8.478,4.738,12.218,4.11,6.76,11.093,10.982,17.839,15.064,2.227,1.345,4.522,2.735,6.678,4.185l1.081.7a20.074,20.074,0,0,0,6.181,3.069c.957.209,1.166-.209,1.48-.837a2.2,2.2,0,0,1,1.863-1.493c1.717-.224,1.877-1.081,2.051-2.094a2.475,2.475,0,0,1,2.476-2.463,33.9,33.9,0,0,0,4.383-3.6,5.205,5.205,0,0,1,2.092-.97c.754-.244,1.689-.551,1.807-.844a.1.1,0,0,0,0-.111c-8.86-15.705-17.037-29.786-24.942-43.4s-15.992-27.533-24.791-43.14a.552.552,0,0,1-.334.39.369.369,0,0,1-.453,0,.572.572,0,0,1-.181-.656.356.356,0,0,1,.4-.174.324.324,0,0,0-.063-.07,2.9,2.9,0,0,0-2.33-.983Zm2.448,1.164-.139.4h0a.158.158,0,0,0,.083-.035h0a.128.128,0,0,0-.083,0l.1-.055h0a.078.078,0,0,0,.05-.057.44.44,0,0,0-.007-.272Z" transform="translate(-873.042 -191.089)" fill="#d54f1f"/></g><g transform="translate(120.815 85.195)" opacity="0.19" style="isolation:isolate"><path d="M879.922,197.38c8.687,9.419,9.3,23.862,15.664,35.115,6.113,10.522,17,17.618,23.492,27.91a63.98,63.98,0,0,1,6.852,16.64c.488,2.094.852,4.527-.614,6.118-1.1.978-2.694,1.1-4.187,1.221l-14.805.739a5.476,5.476,0,0,1-2.448-.244c-1.591-.614-2.325-2.33-3.056-3.8a456.035,456.035,0,0,0-28.607-54.693c-3.056-4.884-6.237-10.278-5.749-16.049.488-4.884,3.552-9.069,6.608-12.845,1.22-1.473,2.567-3.182,4.527-3.552s4.185,1.717,3.3,3.426" transform="translate(-866.414 -193.904)" fill="#ff6700"/></g><g transform="translate(0 101.353)"><path d="M809.751,203.282c-9.672,41.649-12.325,81.994-2.663,94.846,1.591,2.2.043-8.073,2.365-6.608.739.488,4.884,6.732,5.874,6.606,2.938-.488,7.222-2.936,7.955-5.874,1.835-6.852,6.726-5.017,9.175-11.623a22.963,22.963,0,0,0,.857-5.995c.7-17.128,5.507-33.644,10.278-50.04.37-1.473-.976-3.308-1.347-4.773-.613-1.961-2.567-3.055-4.4-4.039-3.426-1.709-9.426-9.175-13.34-9.906-3.79-.615-11.571-4.79-14.753-2.593" transform="translate(-801.034 -202.648)" fill="#ffaf97"/></g><g transform="translate(104.956 59.184)"><path d="M904.7,204.054s-9.182-22.879-44.536-24.226l-2.33,14.561,14.073,9.77Z" transform="translate(-857.832 -179.828)" fill="#ff409e"/></g><g transform="translate(8.105 56.803)"><path d="M940.234,199.516c-2.094-.852-4.185-2.443-4.884-4.647-.37-.732-.37-1.591-.7-2.448a8.531,8.531,0,0,0-3.424-3.788c-6.734-4.411-15.539-4.187-23.123-6.852-2.938-1.1-5.876-2.574-8.938-3.064s-6.113.126-9.174.739c-12.231,2.443-24.47,4.766-36.708,7.216-8.561,1.715-17.374,3.426-24.714,8.323-1.465.978-2.79,1.835-4.185,2.687a31.7,31.7,0,0,0-5.994,4.409,24.142,24.142,0,0,0-4.653,5.261,53.531,53.531,0,0,0-8.317,17c5.017-.978,9.175.983,12.231,3.306,5.5,4.773,10.4,12.477,15.051,16.886l.244.118c3.426,2.094,13.953,3.67,14.2,7.709.608,8.813-8.567,18.839-4.186,26.513,2.938-.976,5.387-3.182,8.079-4.771s6.238-2.569,8.931-.852c1.1.7,1.955,1.835,3.3,2.2,2.45.741,4.529-1.709,5.874-3.914,8.073-11.987,19.09-22.509,32.794-26.918,5.261-1.709,10.884-2.441,16.271-4.032a58.519,58.519,0,0,0,13.332-5.756c1.473-.852-.362.857.741-.49,0,0-.371-.488.976-1.1,4.884-2.443,10.034-23.982,15.908-28.014C946.688,200.011,945.816,201.72,940.234,199.516Z" transform="translate(-805.42 -178.539)" fill="#ff409e"/></g><g transform="translate(130.624 80.239)"><path d="M887.415,191.336c-9.182,6.364-6.244,21.288-15.546,27.036-.362.244,0,.859.5.615,9.419-5.876,6.481-20.681,15.537-27.044C888.267,191.58,887.778,190.967,887.415,191.336Z" transform="translate(-871.723 -191.222)" fill="#ef1485"/></g><g transform="translate(103.847 79.74)"><path d="M866.909,190.952h-2.569l-7.109,11.01s11.254,17.01,14.31,21.9a31.19,31.19,0,0,0,4.527,5.261,56.278,56.278,0,0,0,11.381-5.135c.369-.244.488-.244.613-.244,0-.126.118-.126.118-.244,0,0-.362-.488.978-1.1,1.961-.976,3.921-4.884,5.874-9.544C886.975,193.031,866.909,190.952,866.909,190.952Z" transform="translate(-857.232 -190.952)" fill="#ef1485"/></g><g transform="translate(24.276)"><path d="M878.518,211.049s-3.08,27.123-12.255,30.364c0,0,36.072,3.847,49.081-21.158,0,0-5.374-35.738-25.131-57.018-9.637-10.381-22.829-16.588-36.93-15.26-8.735.824-19.085,3.733-26.223,11.948,0,0-25.726,26.826-4.488,83.352l29.137-4.18.645-29.023Z" transform="translate(-814.171 -147.8)" fill="#031f59"/></g><g transform="translate(28.402 93.594)"><path d="M827.888,200.35l-4.727,1.39s-3.819,5-6.758,17.6c3.426,4.039,6.608,8.569,9.768,11.507l.488.488c1.1,1.1-1.1-.488,0,0,.371-3.426.739-28.9,1.229-30.985Z" transform="translate(-816.404 -198.449)" fill="#ef1485"/></g><g transform="translate(11.043 96.885)"><path d="M807.568,201.434c9.3-3.3,17.618,8.694,21.169,15.177.244.37.857.118.7-.246-3.788-6.85-12.475-18.963-22.145-15.537a.334.334,0,1,0,.111.66.322.322,0,0,0,.133-.054Z" transform="translate(-807.01 -200.23)" fill="#ef1485"/></g><g transform="translate(83.55 107.88)"><path d="M846.248,206.18l.7.739v-.244Z" transform="translate(-846.248 -206.18)" fill="#fca73b"/></g><g transform="translate(60.754 62.581)"><path d="M833.922,208.08s-.769,8.144,10.956,9.315l21.8,6.565.578-42.294Z" transform="translate(-833.911 -181.666)" fill="#ffaf97"/></g><g transform="translate(38.095 30.893)"><path d="M824.077,184.556s11.364-9.768,5.581-20.038l-8.009,3.55.5,9.071Z" transform="translate(-821.649 -164.518)" fill="#031f59"/></g><g transform="translate(62.426 194.02)"><path d="M835.38,257.442c-.12-1.591-.364-3.056-.49-4.645C834.528,254.505,835.631,259.4,835.38,257.442Z" transform="translate(-834.816 -252.796)" fill="#ffbe53"/></g><g transform="translate(65.681 189.491)"><path d="M837.192,254.992c-.126-1.591-.37-3.056-.488-4.647C836.216,252.18,837.312,257.071,837.192,254.992Z" transform="translate(-836.578 -250.345)" fill="#ffbe53"/></g><g transform="translate(44.556 87.435)"><path d="M923.843,276.862c4.187-15.664,3.308-33.282-2.692-47.962-8.561-21.044-26.918-33.282-43.8-33.77-17.246-.488-36.7,11.163-46.125,32.913-6.364,14.652-7.676,32.177-4.187,47.841C846.515,283.225,885.3,293.377,923.843,276.862Z" transform="translate(-825.145 -195.116)" fill="#031f59"/></g><g transform="translate(64.192 125.133)"><path d="M897.092,224.817s11.017,11.165,8.079,46.984l-67.54.364s-6.488-42.457,4.773-56.648Z" transform="translate(-835.772 -215.517)" fill="#021333"/></g><g transform="translate(73.747 172.331)"><path d="M841.934,261.994c16.27,5.993,32.423,11.861,48.693,17.862,5.017,1.835,10.034,3.67,15.295,4.283,6.852.852,13.83-.244,20.8-1.473a12.828,12.828,0,0,0,4.771-1.464c3.064-1.837,4.039-5.632,4.884-9.071,1.221-4.884,2.325-9.908,3.544-14.805a7.51,7.51,0,0,0,.244-4.039,7.107,7.107,0,0,0-1.709-2.687,30.232,30.232,0,0,0-31.933-7.835c-5.017,1.835-9.664,5.017-14.925,4.884a41.6,41.6,0,0,1-6.977-1.1c-6.606-1.1-13.332.244-19.822,1.465-4.646.983-9.3,1.835-13.576,3.8s-8.2,5.017-10.278,9.175" transform="translate(-840.943 -241.059)" fill="#ffc5b4"/></g><g transform="translate(31.558 145.757)"><path d="M823.364,258.321c-5.017,2.245-6.118,8.637-4.655,13.576a8.672,8.672,0,0,0,2.206,3.838,10.318,10.318,0,0,0,3.67,2.023c11.5,4.261,24.593,1.343,35.849-3.258s22.026-10.659,34.139-13.013q3.343-.574,6.606-1.46a32.181,32.181,0,0,0,7.1-3.7c6.978-4.6,13.578-9.98,21.532-13.013a42.183,42.183,0,0,1,19.7-2.471,28.1,28.1,0,0,0-4.764-12.227,4.712,4.712,0,0,0-1.229-1.349,4.613,4.613,0,0,0-2.448-.558c-6.726-.338-13.209,2.471-18.839,5.945-5.63,3.365-10.891,7.41-17.01,9.988-8.561,3.7-18.351,4.152-27.77,4.939-19.209,1.452-38.667,4.038-56.4,11.108" transform="translate(-818.111 -226.678)" fill="#fdc0ae"/></g><g transform="translate(30.711 145.531)"><path d="M836.628,280.372a35.207,35.207,0,0,1-12.327-2.09,10.541,10.541,0,0,1-3.759-2.071,8.989,8.989,0,0,1-2.289-3.969c-1.491-5.026-.314-11.612,4.806-13.9l.189.423c-4.88,2.182-5.987,8.509-4.55,13.355a8.528,8.528,0,0,0,2.16,3.759,10.132,10.132,0,0,0,3.591,1.972c9.707,3.592,21.768,2.491,35.864-3.263,3.159-1.292,6.34-2.722,9.413-4.106,7.937-3.574,16.141-7.266,24.932-8.975,2.223-.379,4.448-.87,6.623-1.46a32.127,32.127,0,0,0,7.057-3.685c1.689-1.114,3.382-2.288,5.015-3.428,5.2-3.611,10.572-7.343,16.668-9.666a42.737,42.737,0,0,1,19.6-2.524,28.156,28.156,0,0,0-4.708-11.882,4.509,4.509,0,0,0-1.181-1.3,4.364,4.364,0,0,0-2.312-.51c-5.7-.286-11.877,1.652-18.819,5.934-1.766,1.055-3.524,2.193-5.226,3.3a77.612,77.612,0,0,1-11.895,6.745c-7.791,3.367-16.627,4.071-25.172,4.751q-1.405.111-2.8.227c-17.487,1.321-37.885,3.679-56.608,11.135l-.17-.431c18.778-7.478,39.221-9.842,56.739-11.167.929-.078,1.865-.152,2.8-.227,8.508-.676,17.3-1.377,25.026-4.712a77.367,77.367,0,0,0,11.826-6.71c1.7-1.105,3.467-2.247,5.237-3.3,7.022-4.33,13.246-6.273,19.059-6a3.85,3.85,0,0,1,3.88,2.027,28.6,28.6,0,0,1,4.821,12.362l.039.292-.294-.033a42.2,42.2,0,0,0-19.682,2.467c-6.044,2.3-11.394,6.019-16.568,9.616-1.641,1.138-3.336,2.314-5.024,3.428a32.556,32.556,0,0,1-7.173,3.742c-2.208.6-4.448,1.094-6.68,1.475-8.731,1.7-16.914,5.379-24.824,8.94-3.077,1.386-6.261,2.818-9.43,4.113C851.739,278.582,843.755,280.372,836.628,280.372Z" transform="translate(-817.653 -226.555)" fill="#d54f1f"/></g><g transform="translate(6.706 177.106)"><path d="M807.48,261.414a10.158,10.158,0,0,1-2.792-6.608c-.244-3.8,1.347-7.591,2.792-11.163" transform="translate(-804.663 -243.643)" fill="#ffc75c"/></g><g transform="translate(6.524 177.071)"><path d="M807.45,261.541a10.269,10.269,0,0,1-2.86-6.711c-.244-3.788,1.291-7.5,2.792-11.087l.048-.118.3.126-.048.118c-1.473,3.552-2.993,7.229-2.79,10.941a9.935,9.935,0,0,0,2.79,6.5Z" transform="translate(-804.564 -243.624)" fill="#fca73b"/></g><g transform="translate(62.13 131.008)"><ellipse cx="4.284" cy="5.993" rx="4.284" ry="5.993" fill="#fdc0ae"/></g><g transform="translate(118.904 131.008)"><ellipse cx="4.284" cy="5.993" rx="4.284" ry="5.993" fill="#ffcdaa"/></g><g transform="translate(67.37 102.375)"><path d="M893.309,203.2H837.492V247a20.528,20.528,0,0,0,4.884,13.214h0a23.193,23.193,0,0,0,17.862,8.073h10.283a23.19,23.19,0,0,0,17.862-8.073h0A20.527,20.527,0,0,0,893.266,247Z" transform="translate(-837.492 -203.201)" fill="#fdc0ae"/></g><g transform="translate(61.034 92.274)"><path d="M840.427,236.469s4.026-10.165,18.462-20.073c0,0,2.825-8.315,15.182-4.889l8.323,11.86,3.916.615,20.31,26.3-.488-30-5.756-11.751s-7.341-4.766-9.176-4.766-14.561-6-14.561-6-11.861.244-12.6,0-10.766.983-13.214,1.229c-2.569.244-8.073,2.936-8.073,2.936s-5.993,8.931-7.584,6.978c-.739-.977-1.1,10.4-1.1,11.5S840.427,236.469,840.427,236.469Z" transform="translate(-834.063 -197.735)" fill="#031f59"/></g><g transform="translate(78.789 99.932)"><path d="M844.023,211.3s-2.6,14.192,6.336,22.265l16.792-.488a23.4,23.4,0,0,1-4.283-9.908s2.79,7.214,8.073,9.908h5.385A50.048,50.048,0,0,1,872.141,225s4.186,5.749,8.317,8.073h8.317l-2.094-15.413-8.805-7.1-10.034-7.1-10.522-1.584-7.674,4.185Z" transform="translate(-843.671 -201.879)" fill="#031f59"/></g><g transform="translate(50.557 95.691)"><path d="M841.2,207.419l-5.941-7.221a1.773,1.773,0,0,0-2.975.473l-3.774,10.845a1.744,1.744,0,0,0,2.136,2.286l9.548-2.842,6.4,6.978a1.758,1.758,0,0,0,2.482.159,1.777,1.777,0,0,0,.493-.724l3.7-9.783a1.81,1.81,0,0,0-1.981-2.419Z" transform="translate(-828.393 -199.584)" fill="#0af"/></g><g transform="translate(60.807 102.401)"><path d="M835.49,209.353l-.523-.174a1.415,1.415,0,0,1-.972-1.75l.017-.052,1.016-3.136a1.418,1.418,0,0,1,1.752-.972l.052.017.523.172a1.415,1.415,0,0,1,.961,1.755l-.015.046-.972,3.147A1.727,1.727,0,0,1,835.49,209.353Z" transform="translate(-833.94 -203.215)" fill="none"/></g><g transform="translate(93.333 144.826)"><path d="M851.793,227.733l-.251-.412.976-.614a2.979,2.979,0,0,1,3.579.133l.614.5-.3.377-.614-.488a2.513,2.513,0,0,0-3.008-.12Z" transform="translate(-851.542 -226.174)" fill="#d54f1f"/></g><g transform="translate(108.871 146.302)"><ellipse cx="5.017" cy="3.426" rx="5.017" ry="3.426" fill="#ffa17a"/></g><g transform="translate(73.147 146.302)"><ellipse cx="5.017" cy="3.426" rx="5.017" ry="3.426" fill="#ff9c5d"/></g><g transform="translate(95.161 150.53)"><path d="M855.726,233.391a8.745,8.745,0,0,1-3.195-.6l.264-.593a7.035,7.035,0,0,0,8.89-2.938l.551.349A7.424,7.424,0,0,1,855.726,233.391Z" transform="translate(-852.531 -229.261)" fill="#00347e"/></g><g transform="translate(70.824 125.133)"><circle cx="11.498" cy="11.498" r="11.498" fill="#fffbf5"/></g><g transform="translate(70.656 124.967)"><path d="M850.936,238.758A11.666,11.666,0,1,1,862.6,227.093h0A11.675,11.675,0,0,1,850.936,238.758Zm0-23.024a11.345,11.345,0,1,0,11.338,11.351v-.015a11.351,11.351,0,0,0-11.338-11.316Z" transform="translate(-839.27 -215.427)" fill="#00457f"/></g><g transform="translate(97.372 125.133)"><circle cx="11.498" cy="11.498" r="11.498" fill="#fffbf5"/></g><g transform="translate(97.204 124.967)"><path d="M865.3,238.758a11.666,11.666,0,1,1,11.666-11.666h0A11.679,11.679,0,0,1,865.3,238.758Zm0-23.024a11.345,11.345,0,1,0,11.346,11.344v-.007A11.353,11.353,0,0,0,865.3,215.754Z" transform="translate(-853.637 -215.427)" fill="#00457f"/></g><g transform="translate(81.778 136.555)"><path d="M851.394,224.546a2.945,2.945,0,0,0-2.868-2.2,2.841,2.841,0,0,0-2.637,1.877l-.6-.244a3.487,3.487,0,0,1,3.238-2.282,3.587,3.587,0,0,1,3.489,2.694Z" transform="translate(-845.289 -221.698)" fill="#00347e"/></g><g transform="translate(102.948 136.555)"><path d="M862.848,224.546a2.941,2.941,0,0,0-2.866-2.2,2.836,2.836,0,0,0-2.639,1.877l-.6-.244a3.486,3.486,0,0,1,3.237-2.282,3.585,3.585,0,0,1,3.487,2.694Z" transform="translate(-856.745 -221.698)" fill="#00347e"/></g><g transform="translate(79.504 132.296)"><path d="M844.561,221.978l-.5-.412c2.4-2.9,4.884-2.358,6.978-1.438l-.259.593C848.942,219.919,846.773,219.284,844.561,221.978Z" transform="translate(-844.058 -219.393)" fill="#00347e"/></g><g transform="translate(103.722 132.174)"><path d="M863.792,221.81c-2.36-2.594-4.439-1.933-6.357-1.026l-.272-.586c2.044-.963,4.452-1.744,7.1,1.179Z" transform="translate(-857.164 -219.327)" fill="#00347e"/></g><g transform="translate(93.658 136.503)"><path d="M851.982,222.757l-.264-.349a2.958,2.958,0,0,1,3.908,0l-.307.312A2.522,2.522,0,0,0,851.982,222.757Z" transform="translate(-851.718 -221.67)" fill="#00457f"/></g><g transform="translate(35.283 175)"><path d="M821.089,249.068c-1.639-2.149-.7-6.384-.649-6.565l.467.1c0,.043-.935,4.187.571,6.161Z" transform="translate(-820.127 -242.503)" fill="#ff6700"/></g><g transform="translate(31.87 176.367)"><path d="M821.881,246.983a4.186,4.186,0,0,1-3.042-1.5,3.072,3.072,0,0,1-.523-2.24l.32.063a2.753,2.753,0,0,0,.468,1.988,3.862,3.862,0,0,0,2.792,1.4Z" transform="translate(-818.28 -243.243)" fill="#fca73b"/></g><g transform="translate(12.578 177.868)" opacity="0.19" style="isolation:isolate"><path d="M821.8,264c2.323,0,5.379-4.4,5.379-4.4a12.9,12.9,0,0,1,3.552-13.458,2.1,2.1,0,0,0-1.227-.364h1.1a6.494,6.494,0,0,1-3.544-1.715c-2.323,2.692-4.527,5.385-6.852,7.953a13.793,13.793,0,0,1-3.306,3.182c-.734.488-1.591.857-2.324,1.345a10.325,10.325,0,0,0-1.709,1.591c-1.227,1.347-2.574,2.687-3.8,4.034a4.688,4.688,0,0,0-1.1,1.591,3.921,3.921,0,0,0-.12,1.227l.364.118C814.33,262.53,821.8,264,821.8,264Z" transform="translate(-807.84 -244.055)" fill="#ff6700"/></g><g transform="translate(152.136 148.877)"><path d="M891.074,230.431l-7.71-1.591.1-.474,7.71,1.591Z" transform="translate(-883.364 -228.366)" fill="#d75527"/></g><g transform="translate(151.327 211.427)"><path d="M890.344,264.616a16.653,16.653,0,0,1-7.418-1.981l.251-.419c.07.043,7.033,4.039,12.46.377l.274.4A9.757,9.757,0,0,1,890.344,264.616Z" transform="translate(-882.926 -262.216)" fill="#ed9232"/></g><g transform="translate(100.139 150.064)"><path d="M955.358,247.882s-2.79-11.012-26.43-12.238c0,0-12.97-1.591-21.167-5.623,0,0-9.539-4.041-19.942,4.032L873.013,246.66s-7.953,11.618-16.745,13.578c0,0-1.227,5.141,5.379,3.55l-2.323,3.67a24.659,24.659,0,0,0-3.056,7.46l-.752,3.572a5.133,5.133,0,0,0,.249,4.039c.852,1.34,3.182,1.835,5.869-1.1,0,0,.857,8.2,7.591,1.22l2.094-3.426-.859,4.647a4.4,4.4,0,0,0,.7,3.064c.978,1.22,2.692,2.092,5.5-1.473l7.222-13.578-3.308,10.034s-3.544,4.4-1.709,6.118c0,0,2.569,2.792,7.955-3.552l5.015-9.419s10.4-13.955,13.216-20.931l3.18-.608s4.187,4.4,12.357,6.6c0,0,6.852,2.574,7.34,6.364,0,0,6.748-1.48,14.458-8.7,0,0,11.115-5.49,14.415-6.083Z" transform="translate(-855.225 -229.009)" fill="#ffaf97"/></g><g transform="translate(99.902 149.87)"><path d="M880.72,288.96a2.654,2.654,0,0,1-1.905-.7c-1.89-1.767,1.312-5.937,1.674-6.4l2.408-7.29-5.889,11.072q-2.093,2.658-3.823,2.657h0a2.673,2.673,0,0,1-2.094-1.151,4.657,4.657,0,0,1-.787-3.237l.621-3.369-1.4,2.295c-2.275,2.373-4.145,3.293-5.582,2.79-1.6-.551-2.177-2.652-2.358-3.62a5.254,5.254,0,0,1-3.949,1.87,2.563,2.563,0,0,1-1.968-1.166,5.348,5.348,0,0,1-.272-4.235l.7-3.529a24.808,24.808,0,0,1,3.091-7.543l2.009-3.182c-2.029.4-3.487.161-4.354-.7a3.755,3.755,0,0,1-.747-3.267v-.146h.148c8.617-1.911,16.535-13.367,16.612-13.48l.048-.048,14.805-12.6c10.4-8.081,20.1-4.117,20.194-4.075,8.079,3.977,20.973,5.581,21.1,5.581,23.3,1.208,26.464,11.771,26.632,12.4l1.569,4.054-.286.055c-3.2.593-13.116,9.635-13.222,9.725-7.717,7.229-15.685,5.095-15.768,5.072l-.153-.041V266.6c-.46-3.607-7.116-6.14-7.186-6.168a28.842,28.842,0,0,1-12.349-6.573l-2.923.565c-2.868,6.978-13.1,20.715-13.194,20.855l-5,9.383c-2.388,2.833-4.522,4.263-6.379,4.3Zm3.077-17.121.447.188-3.35,10.11c-.941,1.172-3.1,4.507-1.73,5.784a2.2,2.2,0,0,0,1.634.558c1.171-.035,3.16-.769,5.965-4.082l4.989-9.378c.125-.174,10.429-14.038,13.2-20.931l.05-.118,3.446-.663.091.1c.042.043,4.187,4.381,12.246,6.538.3.111,6.822,2.594,7.493,6.4,1.109.244,8.219,1.5,15.155-4.995.4-.37,9.615-8.764,13.179-9.768l-1.4-3.559c0-.111-3.077-10.856-26.207-12.057-.146,0-13.116-1.646-21.26-5.651-.083-.035-9.53-3.879-19.689,4.012l-14.77,12.56c-.44.626-8.2,11.608-16.745,13.619a3.169,3.169,0,0,0,.641,2.665c.824.809,2.325.963,4.474.447l.586-.14-2.652,4.187a24.416,24.416,0,0,0-2.994,7.43l-.7,3.544a4.981,4.981,0,0,0,.2,3.851,2.1,2.1,0,0,0,1.606.95c1.2.105,2.567-.636,3.892-2.094l.364-.4.055.538c0,.035.349,3.1,2.094,3.711,1.262.434,2.959-.453,5.065-2.63l2.727-4.514-1.1,5.952a4.189,4.189,0,0,0,.7,2.873,2.17,2.17,0,0,0,1.7.957h0c.99,0,2.142-.817,3.426-2.435Z" transform="translate(-855.097 -228.904)" fill="#d54f1f"/></g><g transform="translate(106.324 185.577)"><path d="M859.026,265.2l-.453-.181,2.937-7.221,5.519-9.573.419.244-5.505,9.538Z" transform="translate(-858.572 -248.227)" fill="#d54f1f"/></g><g transform="translate(114.794 190.245)"><g transform="translate(0 0)"><g transform="translate(0)"><rect width="13.466" height="0.481" transform="translate(0 11.871) rotate(-61.83)" fill="#d54f1f"/></g></g></g><g transform="translate(149.987 169.794)"><path d="M885.745,239.686s-.362,2.567-3.544,5.379" transform="translate(-882.201 -239.686)" fill="#ffc75c"/></g><g transform="translate(149.826 169.759)"><path d="M882.435,245.262l-.321-.362c3.064-2.714,3.489-5.213,3.489-5.233l.482.07C886.042,239.843,885.673,242.424,882.435,245.262Z" transform="translate(-882.114 -239.667)" fill="#d54f1f"/></g><g transform="translate(106.43 174.867)"><g transform="translate(0 0)"><g transform="translate(0)"><rect width="12.217" height="0.321" transform="translate(0 10.031) rotate(-55.19)" fill="#d54f1f"/></g></g></g><g transform="translate(101.168 178.481)" opacity="0.19" style="isolation:isolate"><path d="M855.782,248.419s5.505,2.094,9.907-4.032l-4.4,6.362C861.161,250.869,856.884,252.34,855.782,248.419Z" transform="translate(-855.782 -244.387)" fill="#ff6700"/></g><g transform="translate(145.829 182.277)"><path d="M889.021,252.776c-2.358-5.191-9.029-5.847-9.069-5.854l.041-.48c.07,0,7.027.7,9.5,6.133Z" transform="translate(-879.951 -246.441)" fill="#d54f1f"/></g><g transform="translate(34.33 19.923)"><path d="M855.141,232.546h0c-6.929,1.232-22.472-10.372-26.1-27.428l-9.428-37.288,62.881-9.249-3.71,50.137C878.526,220.069,866.481,232.986,855.141,232.546Z" transform="translate(-819.612 -158.581)" fill="#ffaf97"/></g><g transform="translate(34.46 50.776)"><g transform="translate(0 0)"><g transform="translate(0)"><ellipse cx="5.662" cy="7.169" rx="5.662" ry="7.169" transform="translate(0 5.579) rotate(-29.516)" fill="#ffaf97"/></g></g></g><g transform="translate(39.904 64.413)"><circle cx="1.961" cy="1.961" r="1.961" fill="#fff"/></g><g transform="translate(27.609 113.121)"><path d="M830.026,209.016l-14.051,56.639h10.149l10.567-43.3Z" transform="translate(-815.975 -209.016)" fill="#ff409e"/></g><g transform="translate(57.853 58.144)"><path d="M838.363,195.864l-4.586-2.552a2.734,2.734,0,0,1-1.389-1.948,3.056,3.056,0,0,1,.724-2.554c2.969-3.492,1.521-9.365,1.5-9.426l.445-.12c.019.059,1.58,6.109-1.6,9.849a2.6,2.6,0,0,0-.617,2.171A2.283,2.283,0,0,0,834,192.908l4.588,2.554Z" transform="translate(-832.342 -179.265)" fill="#d54f1f"/></g><g transform="translate(50.984 56.623)"><g transform="translate(0.022 0.078)"><ellipse cx="1.555" cy="2.215" rx="1.555" ry="2.215" transform="matrix(0.995, -0.102, 0.102, 0.995, 0, 0.317)" fill="#031f59"/></g><path d="M830.533,183.321c-.926,0-1.759-.976-1.89-2.256h0a2.977,2.977,0,0,1,.321-1.743,1.578,1.578,0,0,1,1.207-.872,1.463,1.463,0,0,1,1.1.357,2.834,2.834,0,0,1,.927,1.892,2.988,2.988,0,0,1-.322,1.743,1.577,1.577,0,0,1-1.207.872A1.082,1.082,0,0,1,830.533,183.321Zm-1.432-2.3c.111,1.09.784,1.888,1.521,1.839a1.136,1.136,0,0,0,.85-.639,2.537,2.537,0,0,0,.266-1.469,2.378,2.378,0,0,0-.763-1.584,1.055,1.055,0,0,0-.757-.255,1.136,1.136,0,0,0-.85.639,2.521,2.521,0,0,0-.266,1.469Z" transform="translate(-828.624 -178.442)" fill="#031f59"/></g><g transform="translate(72.812 55.143)"><g transform="translate(0.213 0.216)"><ellipse cx="2.215" cy="1.555" rx="2.215" ry="1.555" transform="matrix(0.009, -1, 1, 0.009, 0, 4.431)" fill="#031f59"/></g><path d="M842.213,182.532H842.2c-.985-.007-1.776-1.111-1.767-2.461h0a2.836,2.836,0,0,1,.75-1.972,1.485,1.485,0,0,1,1.044-.458h.015a1.582,1.582,0,0,1,1.282.758,2.981,2.981,0,0,1,.482,1.7C844,181.448,843.194,182.532,842.213,182.532Zm-1.314-2.458c-.005,1.1.578,1.99,1.308,2h.006c.728,0,1.327-.881,1.336-1.972a2.5,2.5,0,0,0-.4-1.438,1.136,1.136,0,0,0-.905-.558h-.009a1.031,1.031,0,0,0-.723.325,2.362,2.362,0,0,0-.612,1.646Z" transform="translate(-840.437 -177.641)" fill="#031f59"/></g><g transform="translate(46.133 50.917)"><path d="M826,178.078a8.663,8.663,0,0,1,2.286-1.512,12.961,12.961,0,0,1,2.445-.852,13.155,13.155,0,0,1,2.565-.357,8.79,8.79,0,0,1,2.724.3l.031.135c-1.656.462-3.328.852-4.993,1.281-1.676.379-3.341.8-5.026,1.144Z" transform="translate(-825.999 -175.354)" fill="#031f59"/></g><g transform="translate(69.531 49.775)"><path d="M838.674,175.459a8.733,8.733,0,0,1,2.659-.663,12.754,12.754,0,0,1,2.589.013,13.037,13.037,0,0,1,2.539.517,8.761,8.761,0,0,1,2.469,1.184l-.015.139c-1.715-.115-3.422-.3-5.133-.456-1.707-.2-3.419-.36-5.12-.6Z" transform="translate(-838.661 -174.736)" fill="#031f59"/></g><g transform="translate(61.404 75.61)"><path d="M845.982,188.717s-9.528,2.7-11.719,1.536C834.263,190.253,842.606,203.984,845.982,188.717Z" transform="translate(-834.263 -188.717)" fill="#031f59"/></g><g transform="translate(47.866 15.456)"><path d="M826.937,169.19c.835,5.61,4.838,10.174,8.877,14.157a18.689,18.689,0,0,0,5.789,4.317,6.885,6.885,0,0,0,6.889-.639,27.655,27.655,0,0,1-5.327-12.07c4.315,5.181,9.008,10.494,15.348,12.782,4.871,1.761,12.443,3.9,17.128,1.682,1.024-.484.033-3.483.7-4.4a8.231,8.231,0,0,0,1.183-3.709c1.081-7.227,2.044-15.045-1.436-21.469a4.542,4.542,0,0,0-1.138-1.488,5.087,5.087,0,0,0-2.223-.8,82.061,82.061,0,0,0-35.041,1.1,14.269,14.269,0,0,0-4.749,1.89c-1.929,1.349-3.134,3.483-4.248,5.558" transform="translate(-826.937 -156.164)" fill="#031f59"/></g><g transform="translate(32.585 24.12)"><path d="M833.513,164.7a33.668,33.668,0,0,0,5.8,17.435l-6.116,1.512a1.376,1.376,0,0,1-.861.024,1.339,1.339,0,0,1-.549-.582,33.191,33.191,0,0,1-4.128-10.25c-.584,4.653,1.378,9.193,2.354,13.78.054.248.741,1.842.6,2.049a.813.813,0,0,1-.9.257c-1.975-.408-3.91,2.256-5.887,1.848-.577-.118-1.97-4.71-2.445-5.059a3.967,3.967,0,0,1-1.246-2.4,68.2,68.2,0,0,1-1.454-14.354c-.041-2.123.009-4.435,1.34-6.091a6.239,6.239,0,0,1,5.47-1.972,16.481,16.481,0,0,1,5.7,1.962" transform="translate(-818.667 -160.853)" fill="#031f59"/></g><g transform="translate(43.825 23.397)"><path d="M824.75,160.461s4.485,19.26,20.73,25.037a14.37,14.37,0,0,0,7.606-1.427s-9.9-8.526-8.175-18.2Z" transform="translate(-824.75 -160.461)" fill="#031f59"/></g><g transform="translate(41.044 32.645)"><path d="M829.7,165.466s4.333,12.821,10.051,15.838l-8.463,1.643s-7.828-4.8-8.04-16.989Z" transform="translate(-823.245 -165.466)" fill="#031f59"/></g><g transform="translate(88.261 46.649)"><g transform="translate(0 0)"><ellipse cx="6.812" cy="5.622" rx="6.812" ry="5.622" transform="translate(0 13.221) rotate(-76.049)" fill="#ffaf97"/></g></g><g transform="translate(95.286 58.262)"><g transform="translate(0 0)"><g transform="translate(0)"><circle cx="2.063" cy="2.063" r="2.063" transform="translate(0 0.149) rotate(-2.069)" fill="#fff"/></g></g></g></g><g transform="translate(240.963 32.661)"><path d="M769.319,168.481l6.017-4.455,3.973-1.081a2.018,2.018,0,0,1,2.291,1.074h0a.955.955,0,0,1-.447,1.227l-4.357,1.874-3,4.631,6.406-2.073,3.89,2.014a1.227,1.227,0,0,1,.68,1.421h0a1.324,1.324,0,0,1-1.744,1.04l-2.8-.874-10.941,3.873s13.48.105,12.364,4.718l-8.071-1.61-1.9-6.331Z" transform="translate(-769.288 -162.889)" fill="#f7ad83"/></g><g transform="translate(306.071 136.784)"><g transform="translate(0 0)"><circle cx="2.057" cy="2.057" r="2.057" transform="translate(0 0.229) rotate(-3.195)" fill="#fff"/></g></g><g transform="translate(288.222 120.158)"><path d="M794.863,210.239a2.765,2.765,0,0,1,.523.142Z" transform="translate(-794.863 -210.239)" fill="#ff7434"/></g><g transform="translate(301.201 152.006)"><circle cx="0.771" cy="0.771" r="0.771" fill="#0061bc"/></g><g transform="translate(327.898 197.983)"><path d="M829,254.26l-10.932,5.588-1.735-1.877,3.027-2.657s4.233-2.554,4.4-2.648c.253-.1,2.472-.31,2.472-.31Z" transform="translate(-816.334 -252.355)" fill="#ff409e"/></g><g transform="translate(330.213 201.228)"><path d="M828.528,254.111l-10.941,5.418,1.717,3.08,2.258.475s3.54-1.142,3.879-1.247a20.11,20.11,0,0,0,3.492-2,3.113,3.113,0,0,0,.771-1.587c.061-.432.27-1.3.27-1.3Z" transform="translate(-817.587 -254.111)" fill="#ff409e"/></g><g transform="translate(331.535 202.784)"><path d="M827.75,254.953s5.3,8.886,9.221,14.5l-8.992,4.965s-5.039-4.182-9.677-13.449Z" transform="translate(-818.302 -254.953)" fill="#ff409e"/></g><g transform="translate(331.174 203.586)"><path d="M830.451,255.387l-12.344,6.44,2.539.889a5.761,5.761,0,0,0,4.438-.419l2-1.057a6.21,6.21,0,0,0,3.241-4.987Z" transform="translate(-818.107 -255.387)" fill="#ffc422"/></g><g transform="translate(327.391 196.29)"><path d="M817.986,254.978l6.517-3.195a3.342,3.342,0,0,1,4.363,1.3l3.234,5.656-1.415.765-3.234-5.656c-.006-.085-.091-.079-.181-.161-1.839.874-7.519,3.681-9.605,4.742a1.208,1.208,0,0,0,.2.5l3.5,5.812-1.606.432-3.224-5.484a3.21,3.21,0,0,1-.32-2.642A3.545,3.545,0,0,1,817.986,254.978Z" transform="translate(-816.059 -251.439)" fill="#ffc422"/></g><g transform="translate(316.178 142.677)"><g transform="translate(0 0)"><g transform="translate(0)"><circle cx="1.114" cy="1.114" r="1.114" transform="matrix(0.998, -0.056, 0.056, 0.998, 0, 0.124)" fill="#0061bc"/></g></g></g><g transform="translate(309.913 176.3)"><path d="M806.6,242.489l.09.081c.3.669,1.955,4.267,3,6.1l2.053-1.659a14.873,14.873,0,0,0,.166-3.186,12.077,12.077,0,0,0-1.247-2.334,6.5,6.5,0,0,0-1.336-.869" transform="translate(-806.601 -240.621)" fill="#0af"/></g><g transform="translate(298.149 142.159)"><path d="M802.78,229.83s-1.707-1.364-2.545-5.608l1.857-2.077,1.822.327,1.316.527-.133.695Z" transform="translate(-800.235 -222.145)" fill="#ffcdaa"/></g><g transform="translate(325.212 166.2)"><path d="M819.8,243.334l-2.6-8.179s-2.171,2.609-2.249,2.785-.07,3.352-.061,3.524a7.708,7.708,0,0,0,.22.844Z" transform="translate(-814.88 -235.155)" fill="#0af"/></g><g transform="translate(301.969 145.3)"><path d="M829.654,255.63l-5.767-18.73-3.7-10.191c-2.859.052-11.562.741-15.465,7.015l-2.424-1.506c5.581-8.971,18.419-8.391,18.97-8.352l.943.05,4.379,12.076,5.789,18.8Z" transform="translate(-802.302 -223.845)" fill="#0061bc"/></g><g transform="translate(239.406 63.355)"><g transform="translate(0 0)"><g transform="translate(0)"><rect width="2.855" height="17.215" transform="translate(0 2.816) rotate(-80.538)" fill="#0061bc"/></g></g></g><g transform="translate(241.499 61.017)"><g transform="translate(0 0)"><g transform="translate(0)"><circle cx="1.114" cy="1.114" r="1.114" transform="translate(0 0.124) rotate(-3.195)" fill="#0061bc"/></g></g></g><g transform="translate(233.957 28.936)"><path d="M773.375,191.427l.218-2.243s-8.245-12.414-8.094-12.765c.148-.438,7.027-14.04,7.027-14.04l7.815-1.465a1.782,1.782,0,0,1,2.153,1.682h0a1,1,0,0,1-.717.985L775.86,165.2l-1.487,5.662,6.615-4.488,5.747-.063a1.2,1.2,0,0,1,1.07.711h0a1.215,1.215,0,0,1-.85,1.68l-4.087.571-4.777,5.159,7.068-2.541,4.211.109a1,1,0,0,1,.989.8h0a1,1,0,0,1-.787,1.245l-3.742.637-3.934,4.854a12.545,12.545,0,0,1,6.2,8.066l-.506,6.294Z" transform="translate(-765.497 -160.873)" fill="#ffcdaa"/></g><g transform="translate(269.657 38.366)"><path d="M788.94,165.976s8.256,10.971,3.11,28.971l-6.42-6.421s-.246-8.41-.772-8.7S788.94,165.976,788.94,165.976Z" transform="translate(-784.816 -165.976)" fill="#00457f"/></g><g transform="translate(215.396 117.337)"><path d="M829.287,215.976l-24.562-7.264-25.731,5.146-21.86,7.72s-5.145,23.146,2.563,27,28.3,6.434,29.579,7.72,12.865,1.275,18.011-1.286,9.007-5.146,11.581-6.434,15.426-15.439,15.426-15.439Z" transform="translate(-755.452 -208.712)" fill="#ffaf97"/></g><g transform="translate(250.997 240.849)"><path d="M774.718,301.376a229.647,229.647,0,0,0,26.48-25.824h64.855l-6.222,25.824Z" transform="translate(-774.718 -275.552)" fill="#0075dc"/></g><g transform="translate(235.696 54.681)"><path d="M772.907,181.646l-6.469-2.108a6.853,6.853,0,0,1,11.749-2.306,6.737,6.737,0,0,1,1.563,3.528Z" transform="translate(-766.438 -174.805)" fill="#002168"/></g><g transform="translate(218.82 53.974)"><path d="M762.559,182.408l-.19-.235.072.081A1.352,1.352,0,0,0,762.559,182.408Zm1.314-1.149-6.567-2.018a6.722,6.722,0,0,1,2.151-3.213,6.833,6.833,0,0,1,9.589.787l.192.237a6.5,6.5,0,0,1,1.4,3.328Z" transform="translate(-757.305 -174.422)" fill="#002168"/></g><g transform="translate(240.116 52.356)"><g transform="translate(0 0)"><g transform="translate(0)"><rect width="2.807" height="11.755" rx="0.329" transform="translate(0 2.701) rotate(-74.22)" fill="#002168"/></g></g></g><g transform="translate(216.79 52.701)"><g transform="translate(0 0)"><rect width="11.755" height="2.807" rx="0.329" transform="translate(0 1.047) rotate(-5.11)" fill="#002168"/></g></g><g transform="translate(223.815 64.541)"><g clip-path="url(#k)"><rect width="9.602" height="17.649" fill="#ffb65e"/></g></g><g transform="translate(271.15 55.231)" opacity="0.38" style="isolation:isolate"><path d="M785.624,175.1s8.41-.224,7.1,9.661C792.711,184.764,791.8,176.554,785.624,175.1Z" transform="translate(-785.624 -175.103)" fill="#d98a32"/></g><g transform="translate(271.067 81.091)"><path d="M785.579,190.172l3.4-1.075v.783a8.751,8.751,0,0,1-2.011.375A9.251,9.251,0,0,1,785.579,190.172Z" transform="translate(-785.579 -189.097)" fill="#ffc75c"/></g><g transform="translate(213.844 23.054)"><g transform="translate(0)"><path d="M805.143,157.69l6.748,30.61a9.137,9.137,0,0,1,1.38-.188c5.357-.105,0,5.019.187,11.135.105,5.322,2.785.573,2.269,10.725v1.3l-3.415-1.17a9.021,9.021,0,0,0,1.391.127,8.145,8.145,0,0,0,2.012-.292l3.591,48.468-47.86,5.743,3.321-17.884c-1.018.118-2.572,3.077-3.59,3.018-9.112-.538-13.427-12.128-16.012-20.607l-.2-52.135v-.708l-1.28-.372.893-6.935Z" transform="translate(-753.686 -157.69)" fill="#ffaf97"/></g></g><g transform="translate(241.506 60.598)"><ellipse cx="2.281" cy="2.608" rx="2.281" ry="2.608" fill="#031f59"/></g><g transform="translate(220.786 60.292)"><ellipse cx="2.129" cy="2.398" rx="2.129" ry="2.398" fill="#031f59"/></g><g transform="translate(241.618 52.968)"><path d="M776.467,177.186l-6.824-1.217.583-2.091,6.824,1.217Z" transform="translate(-769.643 -173.878)" fill="#031f59"/></g><g transform="translate(216.736 52.506)"><g transform="translate(0 0)"><g transform="translate(0)"><rect width="5.581" height="2.141" transform="translate(0 0.901) rotate(-9.291)" fill="#031f59"/></g></g></g><g transform="translate(225.008 86.283)"><path d="M760.654,191.907l8.726.691S762.572,200.422,760.654,191.907Z" transform="translate(-760.654 -191.907)" fill="#fbfffb"/></g><g transform="translate(138.703 190.798)"><path d="M734.732,251.276l-20.783,91.943,22.374,17.427,30.024-63.779,2.339-24.07,2.34-17.158s-5.849-3.077-5.124-6.153S734.732,251.276,734.732,251.276Z" transform="translate(-713.949 -248.467)" fill="#ffaf97"/></g><g transform="translate(159.23 142.261)"><path d="M750.168,222.2l-4.585,3.018a32.161,32.161,0,0,0-10.995,16.293l-9.531,32.807,31.578,3.346.972-23.392-2.445-16.433C754.776,234.961,750.168,222.2,750.168,222.2Z" transform="translate(-725.057 -222.2)" fill="#1c5cc1"/></g><g transform="translate(46.057 303.399)"><path d="M785.09,309.4l-94.62,11.111a34.209,34.209,0,0,0-25.8,40.925l0,.011,25.4,143.545,38.011,5.392V376.034l65.6-.61,29.427-53.8Z" transform="translate(-663.812 -309.402)" fill="#0098ff"/></g><g transform="translate(169.463 122.75)"><path d="M892.655,226.475l-5.987-1.966c-22.071-6.843-29.451-9.286-42.9-12.865,1.286-.34-5.438,29.895-27.007,34.385-15.7,3.263-32.362-2.1-31.17-29.671,0-.527-40.012,14.678-40.012,14.678L730.6,395.214l137.617,18,26.059-107.838Z" transform="translate(-730.595 -211.641)" fill="#1c5cc1"/></g><g transform="translate(166.902 190.612)"><path d="M863.866,248.366s-16.374,63.055-134.656,120.927L869.4,382.158,895.13,275.419Z" transform="translate(-729.209 -248.366)" fill="#134aa3"/></g><g transform="translate(298.389 129.15)"><path d="M853.442,277l-53.077,2.151,6.235-64.047,24.246,7.369a30.03,30.03,0,0,1,7.589,3.507A32.2,32.2,0,0,1,853,256.579Z" transform="translate(-800.365 -215.105)" fill="#1c5cc1"/></g><g transform="translate(171.67 288.463)"><path d="M765.326,303.658,737.7,313.014c-4.246,1.731-3.941,5.579-5.521,9.884h0a6.348,6.348,0,0,0,3,7.8l5.847,3.066a6.3,6.3,0,0,0,8.506-2.618c.076-.142.144-.288.209-.434l1.17-2.585,12.105-1.8a13.79,13.79,0,0,0,10.258-7.367l.748-1.475,10.071-1.5-5.381-14.667-10.679,1.591A11.935,11.935,0,0,0,765.326,303.658Z" transform="translate(-731.789 -301.319)" fill="#ffaf97"/></g><g transform="translate(291.92 159.598)"><g transform="translate(0 0)"><g transform="translate(0)"><rect width="41.833" height="1.428" transform="translate(0 41.564) rotate(-83.499)" fill="#132787"/></g></g></g><g transform="translate(271.453 112.309)"><path d="M787.93,207.58c-.926-.63-1.626-1.17-2.142-1.589A21.1,21.1,0,0,0,787.93,207.58Z" transform="translate(-785.788 -205.991)" fill="none"/></g><g transform="translate(208.88 192.251)"><path d="M841.1,249.253l-2.619,64.631-86.551,35.673V364.88l107.79-12.867A31.438,31.438,0,0,0,887.3,324.06l7.262-69.569Z" transform="translate(-751.926 -249.253)" fill="#ffaf97"/></g><g transform="translate(291.641 180.041)"><path d="M796.713,264.819l56.983,4.2a2.89,2.89,0,0,0,3.088-2.633l1.462-17.193a2.337,2.337,0,0,0-2.114-2.545l-.061-.005-56.785-4Z" transform="translate(-796.713 -242.645)" fill="#132787"/></g><g transform="translate(222.688 62.728)"><path d="M766.785,198.346c-4.269-1.449-6.713-3.4-7.266-5.791-.625-2.707,1.284-5.3,3-7a7.039,7.039,0,0,0,1.744-5.085V179.16h.856v1.286a7.884,7.884,0,0,1-1.981,5.7c-1.575,1.563-3.319,3.893-2.781,6.216.48,2.084,2.737,3.825,6.706,5.176Z" transform="translate(-759.398 -179.16)" fill="#d54f1f"/></g><g transform="translate(215.3 78.88)"><path d="M756.792,195.468,755.4,187.9l.468,14.024,3.895-.538Z" transform="translate(-755.4 -187.901)" fill="#00457f"/></g><g transform="translate(233.3 75.863)" opacity="0.19" style="isolation:isolate"><path d="M771.282,230.994h-6.141l4.6-17.825,33.3-26.9-1.31,16.106a30.959,30.959,0,0,1-20.445,26.97A31.3,31.3,0,0,1,771.282,230.994Z" transform="translate(-765.141 -186.268)" fill="#ff6700"/></g><g transform="translate(230.108 116.784)"><path d="M764.816,225.775l-1.4-.262,3.17-17.1,1.4.262Z" transform="translate(-763.414 -208.413)" fill="#d54f1f"/></g><g transform="translate(265.874 52.46)"><path d="M782.85,173.6l-.082.7A4.976,4.976,0,0,1,782.85,173.6Z" transform="translate(-782.769 -173.603)" fill="#00418b"/></g><g transform="translate(273.535 53.265)"><path d="M788.669,174.039a5.792,5.792,0,0,1,2.5.586,26.054,26.054,0,0,1-.994,2.9,5.972,5.972,0,0,1-2.258,3.029,3.488,3.488,0,0,1-1.005.373v-6.6A5.835,5.835,0,0,1,788.669,174.039Z" transform="translate(-786.915 -174.039)" fill="#ffc75c"/></g><g transform="translate(229.02 57.979)"><path d="M774.557,191.057a11.736,11.736,0,0,1-11.534-13.883l.109-.584H786l.1.593a13.032,13.032,0,0,1,.185,2.079v0a11.747,11.747,0,0,1-11.671,11.793Zm-10.222-13.039a10.485,10.485,0,0,0-.083,1.36,10.318,10.318,0,0,0,10.306,10.25h.052a10.317,10.317,0,0,0,10.252-10.355h0a12.421,12.421,0,0,0-.08-1.255Z" transform="translate(-762.825 -176.59)" fill="#fff"/></g><g transform="translate(205.406 57.979)"><path d="M760.993,191.013c-6.037,0-10.947-5.268-10.947-11.745a11.646,11.646,0,0,1,.187-2.09l.105-.588h21.313l.1.591a12.438,12.438,0,0,1,.187,2.083C771.94,185.744,767.03,191.013,760.993,191.013Zm-9.444-12.994a10.423,10.423,0,0,0-.076,1.249c0,5.688,4.271,10.317,9.52,10.317s9.52-4.629,9.52-10.317a11.831,11.831,0,0,0-.078-1.249Z" transform="translate(-750.046 -176.59)" fill="#fff"/></g><g transform="translate(218.739 57.979)"><rect width="17.334" height="1.428" fill="#fff"/></g><g transform="translate(250.922 51.713)"><g transform="translate(0 0)"><g transform="translate(0)"><rect width="22.798" height="1.427" transform="translate(0 6.416) rotate(-16.345)" fill="#fff"/></g></g></g><g transform="translate(165.604 195.783)" opacity="0.19" style="isolation:isolate"><path d="M736.226,251.164,728.506,294.9l10.608-5.3,3.544-37.135Z" transform="translate(-728.506 -251.164)" fill="#ff6700"/></g><g transform="translate(158.256 182.584)"><path d="M726.65,257.02l18.5,3.066.667-14.515-17.3-1.545a2.341,2.341,0,0,0-2.469,2.023l-1.462,7.755A2.712,2.712,0,0,0,726.65,257.02Z" transform="translate(-724.53 -244.021)" fill="#132787"/></g><g transform="translate(178.168 166.008)"><path d="M736.728,267.759l-1.422-.134,3.029-32.574,1.422.134Z" transform="translate(-735.306 -235.051)" fill="#132787"/></g><g transform="translate(78.035 233.233)"><path d="M786.078,271.431,681.118,273.4l18.117,80.2,101.592-.538Z" transform="translate(-681.118 -271.431)" fill="#fff"/></g><g transform="translate(100.013 308.894)"><rect width="93.885" height="1.428" fill="#b9d4ef"/></g><g transform="translate(91.463 303.622)"><path d="M906.574,321.265,762.525,309.684c-18.946-1.94-38.175,13.85-41.671,32.585L688.384,518.026l33.544,9.579s36.738-90.6,57.31-151.043l85.229.481c17.146.608,30.832-10.374,35.216-28.071Z" transform="translate(-688.384 -309.522)" fill="#0af"/></g><g transform="translate(113.463 313.42)"><path d="M703,506.224l-2.713-.893,49.5-150.341a15.2,15.2,0,0,1,14.842-10.339l66.949,2.234c13.988.824,24.639-2.267,31.721-9.171,9.574-9.334,9.245-22.657,9.239-22.79l2.853-.1c.022.593.4,14.674-10.073,24.909-7.678,7.5-19.068,10.878-33.871,10l-66.912-2.23a12.227,12.227,0,0,0-12.037,8.382Z" transform="translate(-700.29 -314.825)" fill="#1c5cc1"/></g><g transform="translate(269.394 267.619)"><path d="M804.328,311.2c-2.3-19.508-19.482-19.733-19.654-19.733v-1.428c.185,0,18.629.24,21.072,21Z" transform="translate(-784.674 -290.039)" fill="#d54f1f"/></g><g transform="translate(258.085 271.576)"><path d="M799.965,309.515c-5.73-18.316-20.53-15.894-21.156-15.781l-.255-1.406c.168-.024,16.657-2.788,22.775,16.762Z" transform="translate(-778.554 -292.18)" fill="#d54f1f"/></g><g transform="translate(253.242 274.286)"><path d="M791.372,312.9c-1.144-17.1-14.857-17.806-15.439-17.828l.05-1.427c.153.006,15.581.752,16.814,19.159Z" transform="translate(-775.933 -293.647)" fill="#d54f1f"/></g><g transform="translate(245.655 276.6)"><path d="M786.711,313.141l-1.425-.105c.462-6.059-1.1-10.64-4.631-13.621a12.823,12.823,0,0,0-8.12-3.069l-.709-1.218c.741-.571,4.346-.083,7.377,1.574C783.042,298.8,787.456,303.358,786.711,313.141Z" transform="translate(-771.827 -294.899)" fill="#d54f1f"/></g><g transform="translate(239.921 277.653)"><path d="M779.732,313.824l-1.408-.235c2.247-13.547-9.114-16.611-9.6-16.736l.349-1.384C769.206,295.5,782.2,298.961,779.732,313.824Z" transform="translate(-768.724 -295.469)" fill="#d54f1f"/></g><g transform="translate(295.322 255.921)"><path d="M825.852,296.962c-6.785-14.456-26.727-11.612-26.931-11.588l-.216-1.41c.212-.031,21.2-3.034,28.438,12.39Z" transform="translate(-798.705 -283.709)" fill="#d54f1f"/></g><g transform="translate(295.431 202.66)" opacity="0.19" style="isolation:isolate"><path d="M800.985,254.886l-2.221,54.235s15.064-2.047,23.8,6.455l3.882-58.82Z" transform="translate(-798.764 -254.886)" fill="#ff6700"/></g><g transform="translate(229.277 86.747)"><path d="M762.964,192.158s1.242,2.1.739,6.695c0,0,11.154.638,12.854-6.695C776.557,192.158,765.669,193.182,762.964,192.158Z" transform="translate(-762.964 -192.158)" fill="#fff"/></g><g transform="translate(215.336 52.214)"><path d="M806.555,187.88s-.362,15.075-9.52,18.56c0,0-29.241-9.029-41.146,1.288,0,0-5.545,31.883,21.542,30.409,0,0,37.943,5.7,36.329-48.433V176.839l-3.977-3.369Z" transform="translate(-755.42 -173.47)" fill="#031f59"/></g><g transform="translate(231.631 84.99)"><path d="M780.237,191.207s-13.112,2.672-16,.835C764.238,192.042,774.154,211.48,780.237,191.207Z" transform="translate(-764.238 -191.207)" fill="#d54f1f"/></g><g transform="translate(232.503 84.99)"><path d="M764.71,192.371s3.941,1.074,15.127-1.164a13.734,13.734,0,0,1-.848,2.545s-8,2.125-11.564,1.4a2.469,2.469,0,0,1-1.491-1.042Z" transform="translate(-764.71 -191.207)" fill="#fff"/></g><g transform="translate(76.433 -37.141)"><rect width="541.751" height="415.225" fill="none"/></g><g transform="translate(122.018 257.509)"><circle cx="13.369" cy="13.369" r="13.369" fill="#d3e2f4"/></g><g transform="translate(437.601 205.882)"><g transform="translate(0.726 0.916)"><path d="M876.094,280.177s21.374-27.236,47.463-22.5" transform="translate(-876.094 -257.125)" fill="#d3e2f4"/></g><path d="M877.155,281.168l-1.454-1.142c.218-.275,22.01-27.615,48.355-22.836l-.333,1.818C898.506,254.42,877.366,280.9,877.155,281.168Z" transform="translate(-875.701 -256.63)" fill="#d3e2f4"/><g transform="translate(0.395 0.501)"><path d="M876.578,280.63l-.663-.521A77.063,77.063,0,0,1,889.948,267c7.916-5.719,20.218-12.015,33.837-9.546l-.151.831c-13.31-2.411-25.39,3.768-33.173,9.387A76.251,76.251,0,0,0,876.578,280.63Z" transform="translate(-875.915 -256.901)" fill="#d3e2f4"/></g></g><g transform="translate(472.586 176.064)"><g transform="translate(0.894 0.92)"><path d="M895.118,260.107s5.521-21.884,36.614-18.822" transform="translate(-895.118 -240.991)" fill="#a5caef"/></g><path d="M896.425,260.755l-1.791-.451c.056-.227,6.072-22.614,37.6-19.517l-.179,1.84c-12.44-1.229-22.542,1.541-29.233,8.007A23.978,23.978,0,0,0,896.425,260.755Z" transform="translate(-894.634 -240.493)" fill="#a5caef"/></g><g transform="translate(273.29 56.637)"><path d="M786.782,175.892s11.667-1.1,10.313,10.38a9.451,9.451,0,0,1-8.36,9.241l-1.567-3.65Z" transform="translate(-786.782 -175.864)" fill="#ffaf97"/></g><g transform="translate(-7.417 -151.931)"><rect width="647.644" height="470.018" fill="none"/></g><g transform="translate(348.729 75.27)"><path d="M848.675,209.435c-11.645,0-20.971-14.149-21.068-14.3l.386-.251c.1.146,9.287,14.086,20.678,14.086.4,0,.808-.019,1.218-.055,8.073-.713,15.276-8.443,21.4-22.971l.427.179c-6.2,14.7-13.534,22.522-21.79,23.252C849.508,209.417,849.089,209.435,848.675,209.435Z" transform="translate(-827.607 -185.947)" fill="#d54f1f"/></g><g transform="translate(382.314 66.078)"><path d="M857.324,180.973s-2.26,15.3-11.542,20.583c0,0,7.477,8.04,16.372,5.2l5.63-10.446Z" transform="translate(-845.782 -180.973)" fill="#031f59"/></g><g transform="translate(363.512 33.245)"><path d="M835.607,166.472c.523,3.611,3.271,6.593,6.481,8.328s6.87,2.417,10.464,3.047a26.241,26.241,0,0,1,6.109,1.574,8.579,8.579,0,0,1,4.538,4.195l7.8-2.591-6.275-11.289-15.555-6.532H841.6Z" transform="translate(-835.607 -163.205)" fill="#031f59"/></g><path d="M917.81,255.679s-29.7,1.124-40.121,26.3" transform="translate(-436.415 -51.553)" fill="#d3e2f4" stroke="#a5caef" stroke-miterlimit="10" stroke-width="1"/></g></g><g transform="matrix(0.996, -0.087, 0.087, 0.996, 198.419, 8.592)"><g transform="translate(58.309 20.553)" clip-path="url(#l)"><g transform="translate(-2231.61 -430.579)" clip-path="url(#m)"><path d="M0,57.066H45.945V0H0Z" transform="translate(2222.271 422.286)" fill="#162457"/></g></g><g transform="matrix(0.999, 0.035, -0.035, 0.999, 3.422, 18.523)" clip-path="url(#n)"><g transform="translate(-2270.212 -422.046)" clip-path="url(#o)"><path d="M0,48.863H33.492V0H0Z" transform="translate(2259.191 411.636)" fill="#1e3760"/></g></g><g transform="translate(0 0)" clip-path="url(#p)"><g transform="translate(-2173.3 -410.026)" clip-path="url(#m)"><path d="M0,71.029H91.083V0H0Z" transform="translate(2162.736 399.461)" fill="#162457"/></g></g><g transform="translate(4.942 16.38)" clip-path="url(#r)"><g transform="translate(-2178.242 -426.406)" clip-path="url(#m)"><path d="M0,35.8H76.647V0H0Z" transform="translate(2167.678 415.842)" fill="#3a5bbb"/></g></g><g transform="translate(13.325 9.257)" clip-path="url(#t)"><g transform="translate(-2186.626 -419.283)" clip-path="url(#m)"><path d="M0,37.98H71.387V0H0Z" transform="translate(2176.062 408.719)" fill="#3a5bbb"/></g></g></g></g><g transform="translate(847.697 287.146)"><g transform="translate(0 14.617)"><g transform="translate(34.504 17.141)"><path d="M3049.8-507.892l12.588-130.021a33.224,33.224,0,0,0-31.736-34.65l-260.571,4.483a33.223,33.223,0,0,0-34.65,31.734s6.195,74.177,14.46,122.642c5.428,31.819,26.47,38.214,78.573,38.214,77.634-2.407,125.6-2.419,126.789-.778,18.6,25.588,47.233,24.645,47.233,24.645s-11.679-15.8,1.89-24.3c.043-.2,1.816-.127,1.864-.325l8.909.1A33.224,33.224,0,0,0,3049.8-507.892Z" transform="translate(-2735.433 672.563)" fill="#00adee"/></g><g transform="translate(61.444 64.169)"><path d="M2762.131-586.594c-5.2.061-9.547-3.651-9.625-10.283-.088-7.576,4.827-15.009,12.449-15.1a9.192,9.192,0,0,1,8.218,4.262l2.156-10.669c.462-2.53,1.395-3.383,3.178-3.4l.742-.009c1.881-.022,3.572.75,3.058,3.333l-5.055,25.108c-.615,2.68-.057,3.663,1.829,3.988.049.049-.271,2.48-3.832,2.522-3.417.038-4.925-1.825-4.957-4.7A9.3,9.3,0,0,1,2762.131-586.594Zm4.024-19.949c-4.554.054-6.926,4.437-6.876,8.793.042,3.515,2.293,5.617,5.163,5.584,3.317-.04,6.159-2.645,6.906-6.516l.75-3.623C2771.028-604.917,2769.472-606.581,2766.155-606.543Z" transform="translate(-2749.796 662.939)" fill="#fff"/><path d="M2775.091-601.293c.04,3.366,2.143,5.421,5.955,5.375a8.611,8.611,0,0,0,7.09-3.6c.095-.149,2.971.313,3,2.59a3.788,3.788,0,0,1-1.3,2.985c-1.811,1.8-4.668,2.925-8.828,2.973-7.92.092-11.732-4.22-11.8-10.11a14.817,14.817,0,0,1,15.023-15.276c6.138-.071,9.587,2.761,9.634,6.968.059,4.952-3.074,7.958-13.818,8.083-1.483.017-3.121-.062-4.953-.141Zm4.258-4.307c6.781-.08,8.646-1.636,8.625-3.517-.016-1.287-1.369-2.558-3.991-2.527-3.663.042-6.606,2.6-8,5.933C2777.221-605.626,2778.36-605.588,2779.349-605.6Z" transform="translate(-2737.494 666.948)" fill="#fff"/><path d="M2788.667-601.79c-.118-10.247,7.451-19.247,17.946-19.368,5.247-.061,8.383,1.584,10.237,3.4a6.407,6.407,0,0,1,2.077,4.036c.043,3.811-4.505,4.359-4.755,4.064a7.293,7.293,0,0,0-7.435-4.962c-6.039.069-10.58,5.519-10.506,11.905.061,5.049,3.415,8.375,8.216,8.319a9.2,9.2,0,0,0,7.922-4.2c.145-.2,3.621.649,3.654,3.472a4.955,4.955,0,0,1-1.693,3.385,14.879,14.879,0,0,1-10.25,3.882C2794.774-587.752,2788.768-593.129,2788.667-601.79Z" transform="translate(-2723.153 663.407)" fill="#fff"/><path d="M2806.591-602.05c-.122-10.443,7.352-19.195,17.845-19.316,9.653-.113,14.924,6.212,15.014,13.936.122,10.443-7.352,19.243-17.847,19.367C2811.9-587.951,2806.681-594.327,2806.591-602.05Zm25.539-4.8c-.054-4.552-2.968-8.182-8.067-8.123-5.394.063-10.232,5.318-10.151,12.347.054,4.6,2.968,8.232,8.064,8.172C2827.32-594.518,2832.211-599.773,2832.129-606.852Z" transform="translate(-2709.948 663.254)" fill="#fff"/><path d="M2833.424-591.668l-5.512-26.967c-.155-.643,2.15-2.451,4.427-2.477,1.93-.023,3.182,1.2,3.457,3.474l3.2,19.817,12.647-23.615c.049-.149,5.445-.113,5.487,3.55.014,1.139-.471,2.134-1.587,3.93l-13.6,22.733a4.738,4.738,0,0,1-4.522,2.577C2834.945-588.617,2833.842-589.643,2833.424-591.668Z" transform="translate(-2694.245 663.171)" fill="#fff"/><path d="M2844.028-592.465l5.148-25.656c.519-2.282,1.5-3.333,3.578-3.357l1.089-.014c1.978-.023,3.131,1.2,2.664,3.484l-5.149,25.656c-.467,2.333-1.5,3.335-3.575,3.359l-1.089.014C2844.714-588.957,2843.561-590.181,2844.028-592.465Z" transform="translate(-2682.441 663.162)" fill="#fff"/><path d="M2851.368-593.944l4.725-23.669a4.219,4.219,0,0,1,4.509-3.816l6.186-.071c9.752-.115,15.6,4.965,15.7,13.135.116,10.047-6.365,18.787-19.778,18.943l-7.625.089C2852.064-589.3,2850.711-590.767,2851.368-593.944Zm12.254-1.676c7.873-.092,11.623-5.533,11.552-11.721-.059-5.047-3.365-8.029-9.007-7.963l-3.315.038-3.929,19.7Z" transform="translate(-2677.076 663.156)" fill="#fff"/><path d="M2870.061-607.747a5.775,5.775,0,0,1,1.152-3.331,3.141,3.141,0,0,1,2.614-.872l11.233-.132c1.931-.021,2.88.71,2.9,2.147a5.934,5.934,0,0,1-1.148,3.38,3.324,3.324,0,0,1-2.614.872l-11.237.13C2871.028-605.531,2870.077-606.262,2870.061-607.747Z" transform="translate(-2663.184 670.095)" fill="#fff"/><path d="M2885.606-592.875l3.978-19.9a4.647,4.647,0,0,1-2.762,1.023,4.329,4.329,0,0,1-3.031-.955,3.376,3.376,0,0,1-.918-2.464,4.411,4.411,0,0,1,2.426-4.238,4.79,4.79,0,0,0,3.38,1.15c2.077-.024,3.791-1.53,4.608-3.767l1.931-.021c2.177-.026,3.23,1.051,2.713,3.432l-5.195,25.853c-.469,2.333-1.5,3.336-3.575,3.359l-.891.01C2886.29-589.367,2885.138-590.593,2885.606-592.875Z" transform="translate(-2653.746 662.754)" fill="#fff"/><path d="M2893.8-591.841a4.75,4.75,0,0,1-1.477-3.251c-.033-3.018,3.476-3.654,3.576-3.456a7.6,7.6,0,0,0,6.924,3.731c4.752-.056,7.437-3.105,8.809-8.666a15.244,15.244,0,0,1-7.99,2.369c-5.791.068-9.837-2.9-9.9-8.5-.082-6.93,5-12.633,13.37-12.731,7.867-.092,12.576,4.606,12.663,12.081.047,4.008-1.389,12.541-5.792,17.1-2.445,2.5-5.4,4.073-10.691,4.135C2898.188-588.971,2895.6-590.08,2893.8-591.841Zm18.67-16.405a11.688,11.688,0,0,0,.223-2.133c.2-4.21-2.006-6.61-5.717-6.567a6.055,6.055,0,0,0-6.265,6.41c.034,2.919,1.839,4.729,5.552,4.686A9.173,9.173,0,0,0,2912.469-608.246Z" transform="translate(-2646.784 662.534)" fill="#fff"/><path d="M2772.888-563.01c-5.2.061-9.2-3.557-9.273-9.794-.091-7.722,5.314-15.507,13.087-15.6a8.49,8.49,0,0,1,7.821,4.264c.91-2.833,2.48-3.989,5.054-4.019,1.386-.017,2.482.565,2.435.815l-3.508,17.566c-.562,2.68-.057,3.663,1.829,3.989.051.047-.269,2.478-3.833,2.52-3.513.04-5.023-1.874-4.958-4.894A10.128,10.128,0,0,1,2772.888-563.01Zm4.819-19.957c-4.606.052-7.375,4.689-7.322,9.094.038,3.317,2.19,5.323,4.964,5.29,3.563-.042,6.6-2.947,7.347-6.77l.655-3.423C2782.479-581.34,2780.724-583,2777.708-582.967Z" transform="translate(-2741.611 687.542)" fill="#fff"/><path d="M2794.464-559.1c-5.2.059-9.548-3.652-9.624-10.285-.089-7.574,4.822-15.007,12.447-15.1a9.194,9.194,0,0,1,8.218,4.26l2.154-10.667c.466-2.532,1.4-3.385,3.18-3.406l.741-.009c1.879-.021,3.571.75,3.057,3.333l-5.052,25.108c-.615,2.68-.058,3.663,1.829,3.989.05.047-.271,2.478-3.833,2.52-3.417.04-4.924-1.825-4.957-4.7A9.3,9.3,0,0,1,2794.464-559.1Zm4.023-19.95c-4.554.054-6.928,4.437-6.877,8.793.041,3.515,2.294,5.618,5.165,5.585,3.317-.038,6.159-2.647,6.906-6.518l.75-3.623C2803.361-577.42,2801.8-579.086,2798.488-579.048Z" transform="translate(-2725.973 683.197)" fill="#fff"/><path d="M2801.618-574.431c-.086-7.376,5.031-14.318,13.5-14.415,7.229-.085,11.638,4.715,11.711,10.952.087,7.376-5.03,14.318-13.495,14.415C2806.1-563.394,2801.691-568.146,2801.618-574.431Zm19.124-3.095c-.042-3.515-2.5-6.06-5.763-6.022-4.309.049-7.327,4.241-7.275,8.8a5.719,5.719,0,0,0,5.762,5.971C2817.775-568.829,2820.794-573.021,2820.742-577.526Z" transform="translate(-2713.612 687.214)" fill="#fff"/><path d="M2850.708-589.16c4.554-.052,7.513,3.279,7.565,7.734a31.445,31.445,0,0,1-1.3,7.095,26.2,26.2,0,0,0-1.124,5.36c.016,1.386.713,1.922,2,2.1.149,0-.363,2.876-4.175,2.919-3.267.038-4.771-1.627-4.8-4.2a22.993,22.993,0,0,1,1.121-6,26.7,26.7,0,0,0,.978-5.209c-.028-2.475-1.481-3.943-3.611-3.918s-3.6.983-5.16,3.277l-2.528,12.6c-.514,2.531-1.542,3.336-3.325,3.355l-.743.009c-1.831.023-3.423-.7-2.909-3.283l2.058-10.322c.654-3.276-.756-5.486-3.332-5.455-2.178.026-3.6.981-5.16,3.227l-2.529,12.654c-.512,2.581-1.544,3.335-3.328,3.355l-.74.009c-1.882.023-3.424-.7-2.911-3.284l4.163-20.839a3.1,3.1,0,0,1,1.928-.469c1.978-.023,3.871,1,3.908,4.015a9.548,9.548,0,0,1,8.017-4.549,6.829,6.829,0,0,1,7.088,5.163C2843.851-586.9,2846.649-589.113,2850.708-589.16Z" transform="translate(-2702.534 686.983)" fill="#fff"/><path d="M2842.149-566.167l3-14.837c.513-2.532,1.4-3.383,3.177-3.406l.743-.007c1.881-.023,3.575.7,3.059,3.331l-3.043,15.037c-.514,2.678-.055,3.711,1.978,3.986.051.049-.319,2.478-4.033,2.522C2842.524-559.487,2841.354-562.247,2842.149-566.167Zm4.708-25.056a3.9,3.9,0,0,1,4.01-4.106c2.477-.03,3.876,1.191,3.9,2.975a3.9,3.9,0,0,1-4.01,4.106C2848.278-588.22,2846.876-589.441,2846.857-591.223Z" transform="translate(-2683.919 682.438)" fill="#fff"/><path d="M2848.66-574.979c-.088-7.574,5.874-14.327,13.648-14.417,4.106-.047,6.944,1.256,8.646,2.919a5.683,5.683,0,0,1,1.877,3.889c.042,3.612-4.312,3.764-4.418,3.368a5.473,5.473,0,0,0-5.893-4.583c-4.5.052-7.477,4.1-7.429,8.2a5.7,5.7,0,0,0,6.159,5.969,6.66,6.66,0,0,0,5.849-3.484c.146-.25,3.272.358,3.3,2.784a4.808,4.808,0,0,1-1.594,3.236,11.489,11.489,0,0,1-8.083,3.064C2853.74-563.948,2848.742-567.95,2848.66-574.979Z" transform="translate(-2678.952 686.809)" fill="#fff"/><path d="M2863.119-566.411l3-14.837c.514-2.532,1.4-3.383,3.178-3.4l.744-.011c1.881-.021,3.574.7,3.059,3.333l-3.043,15.037c-.514,2.678-.057,3.713,1.977,3.986.052.049-.318,2.478-4.031,2.522C2863.494-559.733,2862.324-562.491,2863.119-566.411Zm4.71-25.055a3.9,3.9,0,0,1,4.012-4.107c2.477-.03,3.874,1.191,3.9,2.975a3.9,3.9,0,0,1-4.01,4.106C2869.251-588.462,2867.85-589.685,2867.829-591.465Z" transform="translate(-2668.469 682.259)" fill="#fff"/><path d="M2870.015-566.847l5.007-24.912c.516-2.53,1.4-3.381,3.178-3.4l.744-.007c1.881-.023,3.572.75,3.056,3.331l-5.054,25.11c-.514,2.678-.055,3.712,1.979,3.984.05.05-.32,2.48-4.03,2.524C2870.39-560.169,2869.219-562.927,2870.015-566.847Z" transform="translate(-2663.389 682.556)" fill="#fff"/><path d="M2876.91-566.57l3-14.839c.514-2.53,1.4-3.383,3.178-3.4l.743-.009c1.881-.021,3.575.7,3.059,3.331l-3.042,15.037c-.514,2.678-.057,3.713,1.976,3.986.052.049-.317,2.48-4.031,2.524C2877.283-559.892,2876.115-562.652,2876.91-566.57Zm4.708-25.056a3.9,3.9,0,0,1,4.012-4.107c2.477-.028,3.875,1.193,3.9,2.975a3.9,3.9,0,0,1-4.01,4.106C2883.041-588.623,2881.639-589.844,2881.618-591.626Z" transform="translate(-2658.308 682.14)" fill="#fff"/><path d="M2883.48-575.384c-.085-7.376,5.031-14.316,13.495-14.415,7.229-.085,11.64,4.717,11.713,10.954.087,7.374-5.03,14.316-13.495,14.415C2887.966-564.347,2883.553-569.1,2883.48-575.384Zm19.122-3.095c-.04-3.513-2.5-6.06-5.762-6.021-4.309.05-7.326,4.243-7.274,8.8a5.718,5.718,0,0,0,5.763,5.973C2899.635-569.78,2902.656-573.974,2902.6-578.479Z" transform="translate(-2653.298 686.512)" fill="#fff"/><g transform="translate(-9.591 -4.071)"><path d="M2751.028-619.484l4.019-20.066a3.381,3.381,0,0,1,3.616-3.06l5.917-.069c6.156-.072,9.6,2.43,9.66,7.275.069,6-3.578,10.012-11.285,10.1l-4.884.056-1.2,5.854c-.337,1.793-1.161,2.677-2.869,2.695l-.836.01C2751.578-616.671,2750.653-617.652,2751.028-619.484Zm12.353-10.232c3.179-.038,5.143-1.849,5.1-5.026-.023-2.184-1.469-3.4-4.447-3.364l-3.5.04-1.65,8.4Z" transform="translate(-2734.244 645.768)" fill="#fff"/><path d="M2775.5-639.87c1.948-.022,3.471,1.072,3.491,2.7a3.551,3.551,0,0,1-2.462,3.566,3.447,3.447,0,0,0-2.715-1.122c-2.5.03-4.059,2.828-4.885,6.928l-1.05,5.375c-.413,1.992-1.12,2.677-2.549,2.693l-.6.006c-1.507.018-2.867-.562-2.452-2.633l3.34-16.723a2.467,2.467,0,0,1,1.545-.375c1.588-.018,3.147.8,3.139,3.381C2771.513-638.432,2773.243-639.842,2775.5-639.87Z" transform="translate(-2723.14 648.539)" fill="#fff"/><path d="M2776.7-619.672c-4.843.056-6.989-3.455-5.939-8.79l1.688-8.481c.411-2.071,1.157-2.716,2.55-2.732l.593-.006c1.511-.018,2.909.562,2.458,2.673l-1.654,8.083c-.566,2.746.49,4.6,2.992,4.573,1.946-.024,3.207-.991,4.414-2.911l1.954-9.837c.411-2.069,1.118-2.712,2.548-2.73l.6-.006c1.507-.018,2.867.562,2.454,2.673l-2.4,12.065c-.453,2.15-.085,2.939,1.427,3.2.08.038-.216,1.99-3.075,2.021-2.661.032-3.91-1.384-3.936-3.648A7.832,7.832,0,0,1,2776.7-619.672Z" transform="translate(-2714.969 648.573)" fill="#fff"/><path d="M2786.259-628.006c.033,2.7,1.721,4.351,4.777,4.315a6.907,6.907,0,0,0,5.689-2.887c.077-.119,2.385.25,2.407,2.077a3.045,3.045,0,0,1-1.044,2.4c-1.454,1.447-3.749,2.347-7.085,2.387-6.354.073-9.412-3.387-9.467-8.113a11.885,11.885,0,0,1,12.05-12.255c4.925-.058,7.695,2.214,7.734,5.591.046,3.971-2.468,6.382-11.088,6.483-1.191.014-2.5-.05-3.973-.113Zm3.415-3.455c5.442-.064,6.937-1.312,6.917-2.822-.011-1.033-1.1-2.053-3.2-2.029a7.254,7.254,0,0,0-6.419,4.764C2787.968-631.481,2788.881-631.451,2789.674-631.461Z" transform="translate(-2704.095 648.325)" fill="#fff"/><path d="M2793.311-616.242c-1.073.014-1.992-.453-1.956-.651l4.881-24.447c.413-2.031,1.12-2.714,2.552-2.73l.635-.008c1.469-.016,2.867.6,2.415,2.675l-1.612,8.238a7.323,7.323,0,0,1,6.078-3.247c4.167-.049,7.658,2.889,7.72,8.252.073,6.076-3.87,12.041-9.986,12.112a7.2,7.2,0,0,1-6.6-3.7C2796.716-617.235,2795.5-616.266,2793.311-616.242Zm5.446-9.833c-.558,3.143,1.138,5.665,4.4,5.627,3.574-.042,5.48-3.481,5.438-6.973-.032-2.822-1.841-4.547-4.182-4.521a6.322,6.322,0,0,0-5.091,3.08Z" transform="translate(-2694.414 644.391)" fill="#fff"/><path d="M2810.854-619.958c-4.17.05-7.382-2.853-7.44-7.859-.072-6.2,4.265-12.442,10.5-12.515a6.815,6.815,0,0,1,6.277,3.423c.729-2.271,1.99-3.2,4.055-3.225,1.11-.014,1.99.453,1.954.651l-2.813,14.1c-.453,2.15-.048,2.939,1.468,3.2.038.038-.215,1.99-3.076,2.021-2.819.034-4.029-1.5-3.979-3.926A8.123,8.123,0,0,1,2810.854-619.958Zm3.866-16.014c-3.693.044-5.915,3.763-5.875,7.3.031,2.659,1.759,4.269,3.983,4.243a6.4,6.4,0,0,0,5.9-5.433l.524-2.746A4.431,4.431,0,0,0,2814.72-635.972Z" transform="translate(-2682.529 648.083)" fill="#fff"/><path d="M8.224-20.075c.037-2.405-1.406-3.182-2.886-3.182a2.3,2.3,0,0,0-1.443.333L.6-7.384C.194-5.46,1.452-4.9,2.858-4.9h.555c1.332,0,2-.629,2.405-2.479l1.036-5c.814-3.811,2.294-6.4,4.625-6.4A3.219,3.219,0,0,1,14-17.707,3.3,3.3,0,0,0,16.327-21c0-1.517-1.406-2.553-3.219-2.553C11-23.554,9.371-22.259,8.224-20.075Zm22.9,3.774-.518,2.553a5.956,5.956,0,0,1-5.55,5,3.652,3.652,0,0,1-3.663-4c0-3.293,2.109-6.734,5.55-6.734A4.127,4.127,0,0,1,31.128-16.3ZM29.685-8.383c-.074,2.257,1.036,3.7,3.663,3.7,2.664,0,2.923-1.813,2.886-1.85-1.406-.259-1.776-1-1.332-3l2.775-13.1c.037-.185-.777-.629-1.813-.629-1.924,0-3.108.851-3.811,2.96a6.35,6.35,0,0,0-5.809-3.256c-5.809,0-9.916,5.772-9.916,11.545,0,4.662,2.96,7.4,6.845,7.4A7.57,7.57,0,0,0,29.685-8.383Zm-3.7-17.391c.259.444,3.922.518,6.956-1.184a3.208,3.208,0,0,0,1.887-2.59,2.128,2.128,0,0,0-2.183-2.22,3.879,3.879,0,0,0-2,.555C28.131-29.77,25.763-26.255,25.985-25.774Zm19.759,9.139a5.78,5.78,0,0,1,4.736-2.775c2.183,0,3.848,1.628,3.848,4.255,0,3.256-1.813,6.438-5.143,6.438-3.034,0-4.588-2.368-4.033-5.291ZM46.188-20c.074-2.442-1.369-3.256-2.886-3.256a2.3,2.3,0,0,0-1.443.333L37.048-.353c-.407,1.924.851,2.516,2.257,2.516h.555c1.332,0,2.035-.629,2.405-2.516l1.665-7.7a6.509,6.509,0,0,0,6.031,3.441c5.7,0,9.435-5.513,9.435-11.175,0-5-3.219-7.77-7.1-7.77A6.94,6.94,0,0,0,46.188-20Zm21.979-6.105A2.914,2.914,0,0,0,71.2-29.141c0-1.332-1.036-2.257-2.886-2.257a2.914,2.914,0,0,0-3.034,3.034C65.28-27.032,66.317-26.107,68.167-26.107ZM65.132-4.683c2.775,0,3.071-1.813,3.034-1.85-1.517-.222-1.85-1-1.443-3l2.405-11.212c.407-1.961-.851-2.516-2.257-2.516h-.555c-1.332,0-2,.629-2.405,2.516L61.543-9.678C60.914-6.755,61.765-4.683,65.132-4.683ZM85.779-16.264l-.592,2.7c-.592,2.886-2.738,4.81-5.217,4.81-2.146,0-3.811-1.591-3.811-4.218,0-3.256,1.813-6.512,5.217-6.512C83.855-19.483,85-18.225,85.779-16.264ZM84.336-8.235c0,2.146,1.11,3.552,3.663,3.552,2.664,0,2.923-1.813,2.886-1.85-1.406-.259-1.813-1-1.332-3l4-18.723c.407-1.924-.851-2.516-2.257-2.516h-.555c-1.332,0-2.035.629-2.405,2.516l-1.7,7.955a6.872,6.872,0,0,0-6.105-3.256c-5.7,0-9.435,5.513-9.435,11.175,0,4.958,3.219,7.77,7.1,7.77A6.949,6.949,0,0,0,84.336-8.235ZM108.425-16.3l-.518,2.553a5.956,5.956,0,0,1-5.55,5,3.652,3.652,0,0,1-3.663-4c0-3.293,2.109-6.734,5.55-6.734A4.127,4.127,0,0,1,108.425-16.3Zm-1.443,7.918c-.074,2.257,1.036,3.7,3.663,3.7,2.664,0,2.923-1.813,2.886-1.85-1.406-.259-1.776-1-1.332-3l2.775-13.1c.037-.185-.777-.629-1.813-.629-1.924,0-3.108.851-3.811,2.96a6.35,6.35,0,0,0-5.809-3.256c-5.809,0-9.916,5.772-9.916,11.545,0,4.662,2.96,7.4,6.845,7.4A7.57,7.57,0,0,0,106.982-8.383Z" transform="translate(157.367 30.75)" fill="#fff"/></g></g><path d="M2883.533-632.771l-149.261,2.36a18.09,18.09,0,0,1-18.6-20.412l.871-8.434a23.749,23.749,0,0,1,22.85-20.817l149.261-2.359a18.086,18.086,0,0,1,18.594,20.411l-.87,8.434A23.747,23.747,0,0,1,2883.533-632.771Z" transform="translate(-2715.566 682.433)" fill="#fff"/><g transform="translate(13.404 12.3)"><path d="M2723.658-651.059l4.181-12.963c.507-1.139.9-1.631,1.754-1.645,1.336-.019,1.664.462,1.728,2.039l-.98,13.158c.073,2.3-1.245,3.295-3.347,3.326C2723.921-647.1,2722.565-648.5,2723.658-651.059Zm4.13-19.07a4.561,4.561,0,0,1,1-3.13c.519-.533,1.08-.783,2.536-.8,1.86-.028,2.761.646,2.784,2.062a4.532,4.532,0,0,1-.966,3.128c-.559.533-1.081.745-2.577.766C2728.749-668.081,2727.809-668.713,2727.789-670.129Z" transform="translate(-2723.284 676.299)" fill="#ea0b90"/><path d="M2742-647.114c-6.914.1-11.426-4.08-11.528-11.115-.126-8.411,6.035-15.983,14.972-16.114,4.165-.061,7.26,1.27,8.938,2.9a4.6,4.6,0,0,1,1.543,3.091c.043,2.992-3.553,3.046-3.72,2.845a7.1,7.1,0,0,0-6.567-3.744c-5.255.076-9.148,4.745-9.067,10.447.027,4.488,2.774,7.157,6.9,7.1a6.668,6.668,0,0,0,4.628-1.643c1.038-.988,1.554-1.6,2.163-4.158l-4.731.07c-1.415.019-2.192-.575-2.205-1.506a4.3,4.3,0,0,1,.815-2.438,2.5,2.5,0,0,1,1.973-.594l7.763-.115c1.818-.026,2.52.893,2.1,2.881L2753.8-648.1c-.038.161-.721.5-1.731.511a2.478,2.478,0,0,1-2.792-2.669A9.344,9.344,0,0,1,2742-647.114Z" transform="translate(-2717.99 676.091)" fill="#ea0b90"/><path d="M2764.515-654.3c1.368,2.2,2.108,2.881,3.928,3.017.2.036.332,3.312-3.672,3.369-2.344.035-3.652-.877-5.649-4.488l-2.82-4.932-2.426.036-1.316,6.772c-.379,1.827-1.213,2.728-2.953,2.755l-.808.012c-1.618.023-2.565-.974-2.187-2.841l4.027-20.442a3.449,3.449,0,0,1,3.677-3.128l6.509-.1c6.51-.1,9.863,2.4,9.933,7.135.073,4.974-3.031,8.417-8.564,9.023Zm-5-7.449c3.519-.05,5.233-1.9,5.19-4.687-.03-2.1-1.584-3.211-4.455-3.17l-4.042.059-1.544,7.869Z" transform="translate(-2706.158 676.145)" fill="#ea0b90"/><path d="M2760.2-650.365c-.016-1.051.339-1.785,1.247-3.293l11.164-19.214c.669-1.143,1.469-1.721,3.816-1.756,2.669-.038,3.447.719,3.664,1.808L2784.834-650c.088.484-1.589,1.924-3.369,1.951-1.533.023-2.477-.853-2.789-2.749l-.828-4.113-9.543.141-3.821,7.011C2764.4-647.635,2760.241-647.452,2760.2-650.365Zm17.26-8.99-1.837-9.438-5.32,9.544Z" transform="translate(-2696.087 675.882)" fill="#ea0b90"/><path d="M2782.147-651.084l3.612-18.293-5.7.083c-1.659.024-2.559-.649-2.574-1.742a4.955,4.955,0,0,1,.931-2.8c.436-.451,1-.662,2.334-.681l17.632-.259c1.615-.024,2.515.651,2.532,1.742a4.693,4.693,0,0,1-.931,2.8c-.436.452-.96.662-2.294.681l-5.945.087-3.653,18.457c-.377,1.825-1.212,2.728-2.95,2.753l-.809.012C2782.674-648.22,2781.769-649.217,2782.147-651.084Z" transform="translate(-2683.351 675.77)" fill="#ea0b90"/><path d="M2790.47-651.219l4.139-20.97c.42-1.867,1.218-2.728,2.915-2.753l.89-.014c1.615-.024,2.562.974,2.185,2.84l-4.142,20.971c-.377,1.907-1.214,2.728-2.912,2.753l-.892.014C2791.038-648.354,2790.092-649.352,2790.47-651.219Z" transform="translate(-2673.845 675.642)" fill="#ea0b90"/><path d="M2797.751-650.812a4.52,4.52,0,0,1-1.543-3.131,3.289,3.289,0,0,1,2.382-2.987,9.6,9.6,0,0,0,8.192,4.246c2.911-.042,4.267-1.277,4.238-3.3-.026-1.82-2.058-2.478-4.7-3.451-3.171-1.207-6.671-2.854-6.739-7.383-.064-4.408,3.234-8.38,10.108-8.481,4.083-.061,6.888,1.032,8.488,2.586a3.97,3.97,0,0,1,1.377,2.85c.033,2.225-2.458,3.354-2.583,3.152a8.425,8.425,0,0,0-7.334-3.935c-2.589.038-4.189,1.4-4.163,3.135.03,1.942,2.141,2.6,5.031,3.727,3.415,1.245,6.916,2.852,6.979,7.1.071,4.892-3.354,8.541-10.671,8.649C2802.562-647.97,2799.474-649.139,2797.751-650.812Z" transform="translate(-2669.558 675.39)" fill="#ea0b90"/><path d="M2809.9-650.493a4.555,4.555,0,0,1,1.005-3.128c.518-.533,1.082-.785,2.537-.806,1.86-.026,2.758.646,2.781,2.061a4.369,4.369,0,0,1-1.005,3.13c-.519.533-1.042.743-2.538.766C2810.863-648.444,2809.923-649.078,2809.9-650.493Zm2.829-8.413.939-13.118c-.033-2.306,1.287-3.3,3.388-3.326,3.076-.045,4.429,1.351,3.335,3.915l-4.218,12.923c-.469,1.179-.866,1.671-1.756,1.683C2813.127-656.808,2812.756-657.289,2812.731-658.906Z" transform="translate(-2659.467 675.351)" fill="#ea0b90"/></g></g><g transform="translate(307.59 0)"><g transform="matrix(1, 0, 0, 1, -307.59, -6)" filter="url(#v)"><ellipse cx="35.952" cy="35.553" rx="35.952" ry="35.553" transform="translate(307.59 6)" fill="#fff"/></g><g transform="translate(11.279 10.303)"><g transform="translate(0 0)"><path d="M542.889-121.912a1.926,1.926,0,0,0,.415-1.2,1.938,1.938,0,0,0-1.938-1.939,1.939,1.939,0,0,0-1.939,1.939,1.935,1.935,0,0,0,.156.761l.005.013a1.924,1.924,0,0,0,.247.414,7.383,7.383,0,0,1,.687,6.178h1.683A7.379,7.379,0,0,1,542.889-121.912Z" transform="translate(-516.473 125.05)" fill="#08c4c4"/><path d="M526.75-115.66a1.484,1.484,0,0,0-.059-.977,1.494,1.494,0,0,0-1.954-.8,1.493,1.493,0,0,0-.8,1.953,1.482,1.482,0,0,0,.336.5l.009.007a1.477,1.477,0,0,0,.3.222,5.694,5.694,0,0,1,2.321,4.192l1.2-.5A5.69,5.69,0,0,1,526.75-115.66Z" transform="translate(-509.055 121.489)" fill="#08c4c4"/><path d="M505.207-94.3a1.483,1.483,0,0,0-.733-.648,1.5,1.5,0,0,0-1.951.812,1.5,1.5,0,0,0,.813,1.951,1.492,1.492,0,0,0,.588.113h.011a1.488,1.488,0,0,0,.368-.054,5.69,5.69,0,0,1,4.606,1.322L509.4-92A5.688,5.688,0,0,1,505.207-94.3Z" transform="translate(-498.884 110.797)" fill="#08c4c4"/><path d="M505.08-65.125a1.483,1.483,0,0,0-.977.059,1.5,1.5,0,0,0-.805,1.954,1.5,1.5,0,0,0,1.954.805,1.5,1.5,0,0,0,.5-.337l.007-.007a1.509,1.509,0,0,0,.223-.3,5.689,5.689,0,0,1,4.192-2.321l-.5-1.2A5.687,5.687,0,0,1,505.08-65.125Z" transform="translate(-499.251 97.212)" fill="#08c4c4"/><path d="M526.443-46.035a1.49,1.49,0,0,0-.648.733,1.5,1.5,0,0,0,.813,1.951,1.494,1.494,0,0,0,1.145,0,1.494,1.494,0,0,0,.809-.81,1.492,1.492,0,0,0,.113-.588.051.051,0,0,0,0-.011,1.489,1.489,0,0,0-.054-.368,5.69,5.69,0,0,1,1.322-4.6l-1.2-.495a5.689,5.689,0,0,1-2.3,4.191Z" transform="translate(-509.943 89.499)" fill="#08c4c4"/><path d="M555.62-45.9a1.483,1.483,0,0,0,.059.977,1.5,1.5,0,0,0,1.954.805,1.5,1.5,0,0,0,.805-1.954,1.489,1.489,0,0,0-.337-.5l-.008-.007a1.51,1.51,0,0,0-.3-.222,5.689,5.689,0,0,1-2.321-4.192l-1.2.5A5.689,5.689,0,0,1,555.62-45.9Z" transform="translate(-523.529 89.86)" fill="#08c4c4"/><path d="M574.7-64.8a1.483,1.483,0,0,0,.733.648,1.494,1.494,0,0,0,1.947-.814,1.5,1.5,0,0,0-.812-1.951,1.488,1.488,0,0,0-.588-.113h-.011a1.492,1.492,0,0,0-.367.054,5.69,5.69,0,0,1-4.6-1.322l-.494,1.2A5.688,5.688,0,0,1,574.7-64.8Z" transform="translate(-531.242 98.081)" fill="#08c4c4"/><path d="M574.836-93.99a1.489,1.489,0,0,0,.977-.059,1.494,1.494,0,0,0,.8-1.954,1.5,1.5,0,0,0-1.954-.805,1.487,1.487,0,0,0-.5.336l-.007.008a1.48,1.48,0,0,0-.223.3,5.692,5.692,0,0,1-4.192,2.321l.5,1.2A5.689,5.689,0,0,1,574.836-93.99Z" transform="translate(-530.88 111.686)" fill="#08c4c4"/><path d="M555.943-115.533a1.483,1.483,0,0,0,.648-.733,1.5,1.5,0,0,0-.813-1.951,1.5,1.5,0,0,0-1.95.813,1.487,1.487,0,0,0-.113.588v.011a1.482,1.482,0,0,0,.054.368,5.69,5.69,0,0,1-1.323,4.606l1.2.494a5.689,5.689,0,0,1,2.3-4.194Z" transform="translate(-522.659 121.856)" fill="#08c4c4"/><path d="M512.363-110.53a1.93,1.93,0,0,0-.554-1.142,1.939,1.939,0,0,0-2.742,0,1.939,1.939,0,0,0,0,2.741,1.942,1.942,0,0,0,.648.424h.014a1.946,1.946,0,0,0,.467.119,7.383,7.383,0,0,1,4.855,3.881l1.191-1.191A7.379,7.379,0,0,1,512.363-110.53Z" transform="translate(-501.778 118.963)" fill="#08c4c4"/><path d="M498.828-80.9a1.93,1.93,0,0,0-1.2-.415,1.938,1.938,0,0,0-1.939,1.939,1.938,1.938,0,0,0,1.939,1.939,1.933,1.933,0,0,0,.761-.156l.012-.005a1.964,1.964,0,0,0,.415-.247A7.381,7.381,0,0,1,505-78.532v-1.683a7.379,7.379,0,0,1-6.167-.682Z" transform="translate(-495.69 104.267)" fill="#08c4c4"/><path d="M510.21-53.871a1.931,1.931,0,0,0-1.142.554,1.94,1.94,0,0,0,0,2.742,1.939,1.939,0,0,0,2.742,0,1.935,1.935,0,0,0,.424-.648.089.089,0,0,0,0-.013,1.946,1.946,0,0,0,.119-.468,7.382,7.382,0,0,1,3.882-4.855l-1.191-1.191a7.381,7.381,0,0,1-4.833,3.879Z" transform="translate(-501.778 93.071)" fill="#08c4c4"/><path d="M539.842-41.755a1.932,1.932,0,0,0-.415,1.2,1.938,1.938,0,0,0,1.938,1.939,1.939,1.939,0,0,0,1.939-1.939,1.923,1.923,0,0,0-.156-.76.07.07,0,0,0-.005-.013,1.92,1.92,0,0,0-.247-.414,7.382,7.382,0,0,1-.689-6.178h-1.683A7.381,7.381,0,0,1,539.842-41.755Z" transform="translate(-516.473 88.399)" fill="#08c4c4"/><path d="M566.869-51.719a1.929,1.929,0,0,0,.554,1.142,1.938,1.938,0,0,0,2.741,0,1.938,1.938,0,0,0,0-2.742,1.926,1.926,0,0,0-.648-.424H569.5a1.949,1.949,0,0,0-.468-.119,7.384,7.384,0,0,1-4.855-3.882l-1.191,1.191a7.379,7.379,0,0,1,3.879,4.834Z" transform="translate(-527.669 93.072)" fill="#08c4c4"/><path d="M578.989-77.851a1.929,1.929,0,0,0,1.2.415,1.939,1.939,0,0,0,1.94-1.939,1.939,1.939,0,0,0-1.94-1.939,1.934,1.934,0,0,0-.76.156l-.013.005a1.933,1.933,0,0,0-.414.247,7.384,7.384,0,0,1-6.178.687v1.683A7.38,7.38,0,0,1,578.989-77.851Z" transform="translate(-532.341 104.267)" fill="#08c4c4"/><path d="M569.021-108.377a1.929,1.929,0,0,0,1.142-.554,1.939,1.939,0,0,0,0-2.742,1.939,1.939,0,0,0-2.742,0,1.929,1.929,0,0,0-.424.648.1.1,0,0,0,0,.014,1.932,1.932,0,0,0-.119.467A7.383,7.383,0,0,1,563-105.688l1.191,1.191A7.379,7.379,0,0,1,569.021-108.377Z" transform="translate(-527.668 118.964)" fill="#08c4c4"/></g><path d="M15.859,0A15.859,15.859,0,1,1,0,15.859,15.859,15.859,0,0,1,15.859,0Z" transform="translate(9.034 9.034)" fill="#0ac4c4"/><path d="M13.726,0A13.726,13.726,0,1,1,0,13.726,13.726,13.726,0,0,1,13.726,0Z" transform="translate(11.167 11.167)" fill="#78d8d8"/><g transform="translate(12.795 12.33)"><circle cx="1.707" cy="1.707" r="1.707" transform="translate(7.135 0)" fill="#fff"/><circle cx="1.707" cy="1.707" r="1.707" transform="translate(0 6.747)" fill="#fff"/><circle cx="1.707" cy="1.707" r="1.707" transform="translate(0.233 15.743)" fill="#fff"/><circle cx="1.707" cy="1.707" r="1.707" transform="translate(9.306 21.016)" fill="#fff"/><circle cx="1.707" cy="1.707" r="1.707" transform="translate(17.448 19.309)" fill="#fff"/><circle cx="1.707" cy="1.707" r="1.707" transform="translate(20.085 5.971)" fill="#fff"/><circle cx="0.93" cy="0.93" r="0.93" transform="translate(17.371 1.939)" fill="#fff"/><circle cx="0.93" cy="0.93" r="0.93" transform="translate(12.718 2.482)" fill="#fff"/><circle cx="0.93" cy="0.93" r="0.93" transform="translate(5.04 5.04)" fill="#fff"/><circle cx="0.93" cy="0.93" r="0.93" transform="translate(3.179 10.392)" fill="#fff"/><circle cx="0.93" cy="0.93" r="0.93" transform="translate(5.351 18.379)" fill="#fff"/><circle cx="0.93" cy="0.93" r="0.93" transform="translate(13.106 18.223)" fill="#fff"/><circle cx="0.93" cy="0.93" r="0.93" transform="translate(22.256 13.571)" fill="#fff"/><circle cx="0.93" cy="0.93" r="0.93" transform="translate(17.448 11.632)" fill="#fff"/><circle cx="0.93" cy="0.93" r="0.93" transform="translate(8.375 11.632)" fill="#fff"/><circle cx="0.93" cy="0.93" r="0.93" transform="translate(11.167 8.452)" fill="#fff"/><circle cx="0.93" cy="0.93" r="0.93" transform="translate(12.097 13.338)" fill="#fff"/></g></g></g></g></g></svg>