<svg xmlns="http://www.w3.org/2000/svg" xmlns:xlink="http://www.w3.org/1999/xlink" width="996" height="582" viewBox="0 0 996 582"><defs><clipPath id="a"><rect width="996" height="582" transform="translate(962 232)" fill="red"/></clipPath><clipPath id="b"><rect width="151.616" height="141.922" fill="none"/></clipPath></defs><g transform="translate(-962 -232)" clip-path="url(#a)"><g transform="translate(805.313 239.23)"><g transform="translate(568.105 264.539)"><path d="M672.713,298.508s41.588,18.085,46.615,76.737h6.025" transform="translate(-672.713 -298.508)" fill="none"/></g><g transform="translate(615.487 264.539)"><path d="M786.45,298.508s-41.588,18.085-46.616,76.737H733.81" transform="translate(-733.81 -298.508)" fill="none"/></g><g transform="translate(608.089 340.9)"><rect width="5.429" height="0.776" transform="translate(0 0)" fill="#0af"/></g><g transform="translate(613.517 340.9)"><rect width="5.223" height="0.776" transform="translate(0 0)" fill="#0af"/></g><g transform="translate(637.821 340.9)"><rect width="3.024" height="0.776" transform="translate(0 0)" fill="#0af"/></g><g transform="translate(383.526 310.646)"><g transform="translate(0)"><g transform="translate(43.275 19.174)"><path d="M525.769,478.4c3.348,6.763,10.207,28.8,15.545,46.717,17.73-1.678,35.746-2.094,47.371-2.281,27.538-.436,101.113,4.11,101.113,4.11s-17.518,12.238-20.936,19.737a6.165,6.165,0,0,0-.56,1.9c-.019.2-.036.387-.054.575l2.6-.025a5.761,5.761,0,0,1,.874-2.216c.029-.037.072-.077.1-.113,9.9-11.765,21.319-19.494,25.547-19.873,17.843-1.629,40.87-1.4,66.579-1.9,25.726.5,48.751.266,66.593,1.9,4.186.379,15.368,7.938,25.209,19.475.149.168.295.341.441.511a5.745,5.745,0,0,1,.875,2.216l2.6.025c-.018-.188-.036-.378-.055-.575a6.8,6.8,0,0,0-.766-2.331c-3.857-7.519-20.728-19.3-20.728-19.3s73.561-4.546,101.114-4.11c11.627.179,29.642.593,47.371,2.274,5.338-17.912,12.194-39.948,15.542-46.71,5.332-10.775,10.366-26.793,35.258-28.361l-2.4-39.023c-.957-15.581-11.841-28.33-24.183-28.33,0,0-92.455,3.791-246.862,3.791-160.547,0-246.86-3.791-246.86-3.791-12.343,0-23.227,12.749-24.185,28.33l-2.4,39.023C515.4,451.6,520.436,467.622,525.769,478.4Z" transform="translate(-490.51 -382.683)" fill="#a9cbfc"/></g><g transform="translate(440.688 62.22)"><path d="M1002.974,533.4c.071,2.415,1.745,4.22,3.951,4.007,0,0,12.083-1.162,43.513-1.337,17.421-.091,28.87.185,35.635.447,5.465.207,7.858.416,7.858.416.109.006.217.01.326.015h.014a3.944,3.944,0,0,0,3.77-4.06s-.093-1.621-.2-4.632c-.264-6.943-.65-21.384-.272-40.7.508-25.7,3.108-33.627,2.234-45.279-.178-2.4-1.733-4.264-3.969-4.077l-.2.019c-1.941.141-17.693,1.245-43.311,1.376-26.468.139-43.47-.958-43.47-.958-2.213-.136-3.974,1.719-4.12,4.139a122.043,122.043,0,0,0,.105,13.56c.295,6.5.714,15.2.365,31.709-.367,18.077-1.23,26.8-1.778,33.5A107.631,107.631,0,0,0,1002.974,533.4Z" transform="translate(-1002.95 -438.188)" fill="#d9eaff"/></g><g transform="translate(98.397 61.431)"><path d="M654.359,532.04c-.075,2.414-1.686,4.224-3.8,4.02,0,0-11.583-1.121-41.721-1.187-16.7-.031-27.684.284-34.171.569-5.241.227-7.537.443-7.537.443-.1.007-.207.01-.312.016H566.8a3.845,3.845,0,0,1-3.6-4.046s.093-1.621.2-4.631c.274-6.943.686-21.381.379-40.688-.413-25.7-2.883-33.609-2.011-45.26.177-2.4,1.674-4.27,3.816-4.09l.192.019c1.861.135,16.962,1.184,41.527,1.227,25.38.048,41.686-1.107,41.686-1.107,2.123-.143,3.806,1.7,3.938,4.124a127.126,127.126,0,0,1-.14,13.557c-.3,6.5-.728,15.2-.442,31.7.3,18.072,1.1,26.792,1.608,33.485A112.063,112.063,0,0,1,654.359,532.04Z" transform="translate(-561.586 -437.172)" fill="#d9eaff"/></g><g transform="translate(98.277 167.257)" opacity="0.2"><path d="M595.4,599.223H963.057s26.5.966,33.971-25.595h-435.6S569.087,603.087,595.4,599.223Z" transform="translate(-561.432 -573.628)" fill="#46a1d9"/></g><g transform="translate(0 79.518)"><path d="M1030.913,461.005c-43.571-5.741-51.8,38.756-51.8,38.756l-8.714,44.5s-5.81,26.794-34.373,25.358c-27.327-1.373-173.406-.119-186-.008-12.591-.111-158.67-1.365-186,.008-28.563,1.435-34.372-25.358-34.372-25.358l-8.714-44.5s-8.23-44.5-51.8-38.756-33.4,47.847-33.4,47.847,15.008,66.507,22.754,106.22,37.277,36.965,37.277,36.965h508.516s29.532,2.748,37.278-36.965,22.754-106.22,22.754-106.22S1074.484,466.747,1030.913,461.005Z" transform="translate(-434.71 -460.494)" fill="#a9cbfc"/></g><g transform="translate(245.727 138.067)"><path d="M907.482,605.591H754.2s-3.173-16.465-2.557-29.686c.443-9.349.627-19.878,2.189-21.735.024-.031.06-.064.085-.095,8.267-9.774,17.8-16.2,21.329-16.511,14.9-1.354,34.124-1.163,55.589-1.575,21.479.412,40.7.221,55.6,1.575,3.5.315,12.831,6.6,21.049,16.181.124.14.246.284.368.425,1.564,1.857,1.745,12.386,2.19,21.735C910.658,589.125,907.482,605.591,907.482,605.591Z" transform="translate(-751.56 -535.989)" fill="#a9cbfc"/></g><g transform="translate(386.924 136.219)"><path d="M1078.926,595c-21.781,8.223-127.918,10.059-127.918,10.059s2.459-15.9,1.8-28.74c-.75-14.827-.664-15.409-1.232-21.3a5.642,5.642,0,0,0-.639-1.937c-3.221-6.248-17.308-16.036-17.308-16.036s61.419-3.778,84.424-3.415c14.368.22,40.422.866,60.091,4.722,11.831,2.327,21.548,5.618,24.627,11.061C1114.031,569.331,1099.236,587.333,1078.926,595Z" transform="translate(-933.625 -533.606)" fill="#a9cbfc"/></g><g transform="translate(89.945 136.219)"><path d="M704.642,576.315c-.651,12.842,1.809,28.74,1.809,28.74S603.408,602.688,578.53,595c-22.064-6.822-34.8-27.438-23.839-45.582,3.016-4.991,8.228-6.8,15.868-8.984,19.915-5.716,52.217-6.533,68.849-6.8,22.992-.362,84.424,3.415,84.424,3.415s-14.627,10.167-17.481,16.4a5.087,5.087,0,0,0-.468,1.576C705.32,560.906,705.4,561.488,704.642,576.315Z" transform="translate(-550.688 -533.606)" fill="#a9cbfc"/></g><g transform="translate(243.4 138.825)"><path d="M904.482,601.157H751.2s-3.173-15.185-2.557-27.378c.443-8.622.627-18.333,2.189-20.045.024-.029.06-.059.085-.087,8.267-9.015,17.8-14.938,21.329-15.228,14.9-1.249,34.124-1.073,55.589-1.453,21.479.38,40.7.2,55.6,1.453,3.5.29,12.831,6.083,21.049,14.924.124.129.246.261.368.392,1.564,1.712,1.745,11.423,2.19,20.045C907.658,585.972,904.482,601.157,904.482,601.157Z" transform="translate(-748.56 -536.966)" fill="#a9cbfc"/></g><g transform="translate(384.598 137.121)"><path d="M1075.926,591.386c-21.781,7.584-127.918,9.278-127.918,9.278s2.459-14.663,1.8-26.506c-.75-13.674-.664-14.212-1.232-19.64a4.923,4.923,0,0,0-.639-1.786c-3.221-5.761-17.308-14.79-17.308-14.79s61.419-3.484,84.424-3.149c14.368.2,40.422.8,60.091,4.355,11.831,2.147,21.548,5.181,24.627,10.2C1111.031,567.717,1096.236,584.318,1075.926,591.386Z" transform="translate(-930.625 -534.769)" fill="#a9cbfc"/></g><g transform="translate(87.618 137.121)"><path d="M701.642,574.157c-.651,11.843,1.809,26.506,1.809,26.506s-103.043-2.183-127.921-9.278c-22.064-6.292-34.8-25.3-23.839-42.038,3.016-4.6,8.228-6.269,15.868-8.287,19.915-5.271,52.217-6.024,68.849-6.27,22.992-.334,84.424,3.149,84.424,3.149s-14.627,9.378-17.481,15.124a4.418,4.418,0,0,0-.468,1.453C702.32,559.946,702.4,560.483,701.642,574.157Z" transform="translate(-547.688 -534.769)" fill="#a9cbfc"/></g><g transform="translate(245.727 146.192)"><path d="M904.454,591.168H754.145s-3.111-10.574-2.507-19.066c.434-6,.615-12.767,2.147-13.959.023-.02.059-.041.084-.061,8.107-6.277,17.454-10.4,20.915-10.6,14.609-.87,33.462-.748,54.51-1.012,21.063.264,39.913.142,54.521,1.012,3.428.2,12.582,4.235,20.64,10.392.122.089.241.181.361.273,1.535,1.192,1.712,7.954,2.148,13.959C907.568,580.593,904.454,591.168,904.454,591.168Z" transform="translate(-751.56 -546.466)" fill="#d9eaff"/></g><g transform="translate(399.657 144.488)"><path d="M1060.753,584.141c-16.595,5.34-97.466,6.533-97.466,6.533s1.874-10.326,1.369-18.666c-.572-9.631-.506-10.008-.939-13.832a3.287,3.287,0,0,0-.487-1.258c-2.454-4.058-13.187-10.416-13.187-10.416s46.8-2.453,64.326-2.218c10.947.143,30.8.562,45.785,3.067,9.016,1.511,16.419,3.649,18.764,7.185C1087.5,567.472,1076.228,579.164,1060.753,584.141Z" transform="translate(-950.043 -544.269)" fill="#d9eaff"/></g><g transform="translate(101.853 144.488)"><path d="M698.443,572.935c-.56,8.619,1.555,19.291,1.555,19.291s-88.615-1.589-110.01-6.752c-18.975-4.579-29.93-18.417-20.5-30.595,2.593-3.35,7.076-4.562,13.646-6.031,17.126-3.836,44.906-4.385,59.21-4.563,19.773-.243,72.6,2.292,72.6,2.292s-12.578,6.825-15.033,11.006a2.879,2.879,0,0,0-.4,1.057C699.025,562.592,699.1,562.983,698.443,572.935Z" transform="translate(-566.044 -544.269)" fill="#d9eaff"/></g><g transform="translate(535.869 11.044)" opacity="0.3"><g transform="translate(0)"><path d="M1127.922,373.588a3.172,3.172,0,0,1-2.242-.969l.3-.316c2.027,1.943,4.19-.017,4.282-.1l.3.321A4.38,4.38,0,0,1,1127.922,373.588Z" transform="translate(-1125.68 -372.201)" fill="#009fde"/></g></g><g transform="translate(524.2 11.299)" opacity="0.3"><g transform="translate(0)"><path d="M1112.876,373.916a3.171,3.171,0,0,1-2.242-.969l.3-.316c2.029,1.943,4.19-.016,4.282-.1l.3.321A4.38,4.38,0,0,1,1112.876,373.916Z" transform="translate(-1110.634 -372.529)" fill="#009fde"/></g></g><g transform="translate(529.078 14.143)" opacity="0.3"><g transform="translate(0)"><path d="M1119.572,378.346a1.115,1.115,0,0,1-.759-.3l-1.889-1.742,5.1-.111-1.618,1.781a1.115,1.115,0,0,1-.781.368Zm-1.553-1.625,1.09,1.007a.651.651,0,0,0,.495.179.672.672,0,0,0,.476-.223l.933-1.028Z" transform="translate(-1116.924 -376.197)" fill="#009fde"/></g></g><g transform="translate(509.203 6.172)" opacity="0.3"><rect width="0.438" height="14.617" transform="matrix(0.496, -0.868, 0.868, 0.496, 0, 0.38)" fill="#009fde"/></g><g transform="translate(521.025)" opacity="0.3"><g transform="translate(0)"><path d="M1106.932,365.595l-.393-.191,3.625-7.444.393.191Z" transform="translate(-1106.539 -357.96)" fill="#009fde"/></g></g><g transform="translate(510.091 16.528)" opacity="0.3"><rect width="11.965" height="0.438" transform="matrix(0.993, -0.119, 0.119, 0.993, 0, 1.428)" fill="#009fde"/></g><g transform="translate(531.522 15.664)" opacity="0.3"><g transform="translate(0)"><path d="M1120.146,381.43l-.071-3.263.438-.009.071,3.263Z" transform="translate(-1120.075 -378.158)" fill="#009fde"/></g></g><g transform="translate(545.893 7.894)" opacity="0.3"><g transform="translate(0)"><rect width="14.17" height="0.438" transform="translate(0 4.906) rotate(-20.254)" fill="#009fde"/></g></g><g transform="translate(545.942 17.762)"><g transform="translate(0)"><line x1="13.925" y1="1.369" fill="#009fde"/></g></g><g transform="translate(4.437 84.688)"><path d="M1029.676,467.672c-43.062-5.742-51.2,38.756-51.2,38.756l-8.612,44.5s-5.742,26.795-33.971,25.359c-27.009-1.373-171.383-.119-183.827-.008-12.444-.111-156.819-1.366-183.826.008-28.229,1.435-33.971-25.359-33.971-25.359l-8.612-44.5s-8.134-44.5-51.2-38.756-33.014,47.847-33.014,47.847,14.832,66.507,22.488,106.22S500.778,658.7,500.778,658.7H1003.36s29.186,2.748,36.842-36.965,22.488-106.22,22.488-106.22S1072.739,473.413,1029.676,467.672Z" transform="translate(-440.431 -467.16)" fill="#d9eaff"/></g><g transform="translate(33.205 114.147)"><circle cx="14.115" cy="14.115" r="14.115" fill="#a9cbfc"/></g><g transform="translate(570.715 114.147)"><g transform="translate(0)"><circle cx="14.115" cy="14.115" r="14.115" fill="#a9cbfc"/></g></g></g></g><g transform="translate(679.461 186.321)"><g transform="translate(24.241 63.412)"><path d="M848.231,286.665l9.112-5.929,5.879-1.249a2.871,2.871,0,0,1,3.308,1.76h0a1.348,1.348,0,0,1-.764,1.746l-.035.013-6.553,2.4-4.706,6.441,9.524-2.5,5.517,3.258a1.96,1.96,0,0,1,.911,2.134h0a1.975,1.975,0,0,1-2.6,1.411l-4.044-1.485-16.226,4.705s19.646,1.249,17.6,7.889l-11.571-2.97-2.247-9.312Z" transform="translate(-847.557 -279.417)" fill="#e4ac84"/></g><g transform="translate(42.096 40.181)"><path d="M872.808,373.194c-6.615-25.489,2.771-52.824,11.583-76.864,15.927-43.412,60.588-46.084,87.162-46.832,27.048-.762,30.656,10.5,48.679,45.646,11.858,23.129,21.657,54.646,15.927,80C1005.679,387.236,933.121,400.192,872.808,373.194Z" transform="translate(-870.58 -249.462)" fill="#031f59"/></g><g transform="translate(0 101.279)"><path d="M920.662,413.845,846.794,403.5l16.564-70.148-23.978-5.105-21.83,71.147a28.8,28.8,0,0,0-1.1,11.334,29.358,29.358,0,0,0,22.405,25.251l76.914,19.546Z" transform="translate(-816.3 -328.243)" fill="#0af"/></g><g transform="translate(110.679 183.086)"><path d="M1053.314,437.285l-94.3-3.557,23.529,184.933,57.367,1.785Z" transform="translate(-959.013 -433.728)" fill="#ff409e"/></g><g transform="translate(173.555 186.468)"><path d="M1057.458,621.425h29.832a17.4,17.4,0,0,0,17.353-17.446q0-.352-.016-.7l-5.892-140.223a26.037,26.037,0,0,0-25.975-24.964H1070.1a26.037,26.037,0,0,0-25.987,25.351l-4.006,140.111C1039.846,613.324,1041.931,621.425,1057.458,621.425Z" transform="translate(-1040.089 -438.09)" fill="#be166f"/></g><g transform="translate(179.847 187.117)"><path d="M1065.52,621.613h29.832a17.35,17.35,0,0,0,17.353-17.347c0-.242-.005-.485-.015-.727l-5.779-137.052a28.771,28.771,0,0,0-28.709-27.56h0a25.987,25.987,0,0,0-25.987,25.251l-4.007,139.586a17.363,17.363,0,0,0,16.869,17.842C1065.225,621.61,1065.373,621.613,1065.52,621.613Z" transform="translate(-1048.201 -438.927)" fill="#ff409e"/></g><g transform="translate(191.175 331.933)"><path d="M1100.117,630.051a6.248,6.248,0,0,0,2.5-.287,4.608,4.608,0,0,0,2.185-2.247v8.026a16.476,16.476,0,0,1-16.476,16.476h-9.037a16.476,16.476,0,0,1-16.476-16.476v-9.886c.475.15.961.262,1.448.375A192.945,192.945,0,0,0,1100.117,630.051Z" transform="translate(-1062.808 -625.658)" fill="#fbc23b"/></g><g transform="translate(191.075 297.183)"><path d="M1076.6,586.342c3.508,3.382,5.654,7.951,9,11.5s8.812,6,13.056,3.607a9,9,0,0,0,4.182-6.69,15.853,15.853,0,0,0-1.323-7.976c-.587-1.423-1.249-3.2-.225-4.344a5.067,5.067,0,0,1,3.433-1.585v36.61a4.605,4.605,0,0,1-2.185,2.247,6.245,6.245,0,0,1-2.5.287,192.95,192.95,0,0,1-35.91-4.019c-.487-.112-.974-.225-1.448-.375V580.85A20.1,20.1,0,0,1,1076.6,586.342Z" transform="translate(-1062.679 -580.85)" fill="#fbc23b"/></g><g transform="translate(188.825 334.373)"><path d="M1091.748,635.731c-2.337,0-4.584-1.311-6.6-2.49l-.095-.055c-2.23-1.3-5.1-2.659-7.546-1.618a9.026,9.026,0,0,0-2.327,1.638,12.558,12.558,0,0,1-1.883,1.44,8.2,8.2,0,0,1-5.649.7c-.152.206-.382.084-.568-.015s-.523-.278-1.042-.547q-.273-.128-.539-.278l.081-.152a23.578,23.578,0,0,1-5.8-5.193l.506-.363a24.54,24.54,0,0,0,6.617,5.672,7.563,7.563,0,0,0,6.093-.376,12.167,12.167,0,0,0,1.773-1.364,9.567,9.567,0,0,1,2.492-1.741c2.7-1.153,5.749.278,8.105,1.653l.094.055c2.287,1.335,4.882,2.846,7.432,2.282a10.19,10.19,0,0,0,3.739-2.065c.478-.356.972-.724,1.476-1.05,1.89-1.222,4.523-1.8,6.147-.319l-.42.461c-1.378-1.254-3.7-.712-5.387.382-.487.315-.972.677-1.443,1.027a10.818,10.818,0,0,1-3.976,2.174A5.916,5.916,0,0,1,1091.748,635.731Z" transform="translate(-1059.778 -628.804)" fill="#e94992"/></g><g transform="translate(79.697 184.459)"><path d="M942.794,435.6s-30.406-4.194-22.38,41.94l10.211-7Z" transform="translate(-919.064 -435.499)" fill="#ff409e"/></g><g transform="translate(102.316 150.27)"><rect width="27.111" height="44.935" fill="#fdc0ae"/></g><g transform="translate(158.613 104.559)"><ellipse cx="7.739" cy="6.104" rx="7.739" ry="6.104" transform="matrix(0.179, -0.984, 0.984, 0.179, 0, 15.228)" fill="#ffaf97"/></g><g transform="translate(68.29 57.304)"><path d="M904.355,280.916l48.68-9.375h47.356l.088,74.356a34.684,34.684,0,0,1-8.363,22.467h0a39.752,39.752,0,0,1-30.356,13.73H944.285a39.752,39.752,0,0,1-30.356-13.73h0a34.821,34.821,0,0,1-8.363-22.467Z" transform="translate(-904.355 -271.541)" fill="#fdc0ae"/></g><g transform="translate(55.883 40.213)"><path d="M995.365,311.617s-4.418-14-28.846-30.843c0,0-7.1-13.63-28.222-7.826l-14.129,20.183-5.941-8.438-14.479,18.336L900,310.169l-3.633,2.185-8.014-16.015,12.382-20.37s10.722-14.554,13.818-14.554,19.26-11.858,19.26-11.858,20.146.412,21.307,0,18.211,1.648,22.467,2.047,13.73,4.93,13.73,4.93,10.26,15.141,12.969,11.808c1.248-1.585,1.935,17.674,1.935,19.522S995.365,311.617,995.365,311.617Z" transform="translate(-888.357 -249.502)" fill="#031f59"/></g><g transform="translate(121.9 122.498)" opacity="0.42"><ellipse cx="8.126" cy="5.517" rx="8.126" ry="5.517" fill="#ff6700"/></g><g transform="translate(73.732 123.746)" opacity="0.42"><ellipse cx="7.651" cy="5.193" rx="7.651" ry="5.193" fill="#ff6700"/></g><g transform="translate(62.486 47.032)"><path d="M896.871,287.578s99.519,28.709,102.152,29.432-2.259-15.452-2.259-15.452l-9.224-16.876-21.07-13.818-18.336-7.389L929.985,258.3l-7.664,2.908s-5.092,7.278-11.633,5.305C908.579,265.872,896.871,287.578,896.871,287.578Z" transform="translate(-896.871 -258.295)" fill="#031f59"/></g><g transform="translate(60.476 94.289)"><circle cx="17.275" cy="17.275" r="17.275" transform="translate(0.312 0.312)" fill="#fbddca"/><path d="M911.867,354.4a17.587,17.587,0,1,1,17.588-17.587A17.607,17.607,0,0,1,911.867,354.4Zm0-34.55a16.963,16.963,0,1,0,16.963,16.962A16.982,16.982,0,0,0,911.867,319.854Z" transform="translate(-894.28 -319.23)" fill="#19467c"/></g><g transform="translate(104.225 94.126)"><circle cx="17.35" cy="17.35" r="17.35" transform="translate(0.312 0.313)" fill="#fbddca"/><path d="M968.354,354.345a17.662,17.662,0,1,1,17.662-17.662A17.682,17.682,0,0,1,968.354,354.345Zm0-34.7a17.038,17.038,0,1,0,17.038,17.038A17.057,17.057,0,0,0,968.354,319.644Z" transform="translate(-950.692 -319.02)" fill="#19467c"/></g><g transform="translate(74.069 120.153)" opacity="0.24" style="isolation:isolate"><path d="M919.184,352.592c-3.533,0-6.49,1.635-7.377,3.844a17.944,17.944,0,0,0,3.969.986,17.115,17.115,0,0,0,10.273-1.922A8.534,8.534,0,0,0,919.184,352.592Z" transform="translate(-911.807 -352.58)" fill="#f29b61"/></g><g transform="translate(96.464 116.879)"><path d="M942.175,356.463c-1.325-1.828-1.771-3.509-1.323-5a5.381,5.381,0,0,1,3.073-3.107l.33.876a4.5,4.5,0,0,0-2.507,2.507c-.356,1.192.043,2.594,1.186,4.171Z" transform="translate(-940.684 -348.359)" fill="#eb671c"/></g><g transform="translate(102.316 167.895)"><path d="M948.23,414.141h15.54l-15.54,8.176Z" transform="translate(-948.23 -414.141)" fill="#f7957f"/></g><g transform="translate(42.077 185.195)"><path d="M931.393,436.773h0c-4.893.449-17.312,13.343-19.1,24.152l-41.74,210.059h136.366L1003,472.284l-5.417-22.305-39.731-13.531Z" transform="translate(-870.556 -436.448)" fill="#1c5cc1"/></g><g transform="translate(111.577 219.47)"><circle cx="2.996" cy="2.996" r="2.996" fill="#fff"/></g><g transform="translate(99.982 179.44)"><path d="M974.665,434.782s-38.482,15.852-27.46.7l5.255-4.992,9.461-1.461Z" transform="translate(-945.22 -429.028)" fill="#fdc0ae"/></g><g transform="translate(120.027 186.68)"><path d="M1006.255,445.49s-10.547-4.992-16.826,18.886c0,0-8.612,25.426,16.826,99.219L991.4,571.409s-39.942-107.22-7.863-132.683a1.747,1.747,0,0,1,1.61-.274Z" transform="translate(-971.068 -438.363)" fill="#ff409e"/></g><g transform="translate(86.95 193.595)"><path d="M928.417,447.28a4.361,4.361,0,0,1,.811.25Z" transform="translate(-928.417 -447.28)" fill="#ed7241"/></g><g transform="translate(97.159 185.195)"><path d="M945.851,437.984c-9.025,13.73,28-1.536,28-1.536s-23.79,26.474-26.611,7.489C947.236,443.913,935.491,447.994,945.851,437.984Z" transform="translate(-941.58 -436.448)" fill="#fff"/></g><g transform="translate(103.277 240.964)"><circle cx="1.086" cy="1.086" r="1.086" fill="#2361aa"/></g><g transform="translate(95.288 185.67)"><path d="M946.995,444.05s-8.339,6.241-7.8,1.248c0,0,.1-2.621,6.915-8.238C946.108,437.085,939.842,444.711,946.995,444.05Z" transform="translate(-939.168 -437.06)" fill="#fff"/></g><g transform="translate(95.469 107.508)"><path d="M939.79,338.454l-.389-.489c4.506-3.581,9.539-.361,9.589-.329l-.341.523C948.458,338.035,943.937,335.156,939.79,338.454Z" transform="translate(-939.401 -336.275)" fill="#19467c"/></g><g transform="translate(137.864 310.764)"><path d="M1012.828,601.357l-16.364,7.189-2.4-2.845,4.569-3.645s6.341-3.332,6.653-3.482a34.157,34.157,0,0,1,3.67-.213Z" transform="translate(-994.067 -598.361)" fill="#e94992"/></g><g transform="translate(140.91 315.732)"><path d="M1014.408,604.767l-16.414,6.965,2.209,4.568,3.208.824s5.243-1.336,5.779-1.5a38.012,38.012,0,0,0,5.305-2.571,4.991,4.991,0,0,0,1.248-2.185l.487-1.909Z" transform="translate(-997.994 -604.767)" fill="#e94992"/></g><g transform="translate(142.869 317.978)"><path d="M1014.651,607.664s7,13.355,12.294,21.893l-13.431,6.515s-6.94-6.54-12.994-20.27Z" transform="translate(-1000.521 -607.664)" fill="#e94992"/></g><g transform="translate(142.121 319.363)"><path d="M1017.98,609.45l-18.424,8.376,3.657,1.436a8.471,8.471,0,0,0,6.44-.225l3.008-1.348a8.813,8.813,0,0,0,5.118-7.027Z" transform="translate(-999.556 -609.45)" fill="#fbc23b"/></g><g transform="translate(137.321 308.258)"><path d="M996.332,599.645l9.786-4.156a4.992,4.992,0,0,1,6.241,2.247l4.194,8.5-2.1,1.036-4.181-8.475c0-.088-.138-.15-.2-.25L995.8,604.626a2.113,2.113,0,0,0,.2.712l4.581,8.737-2.4.474-4.269-8.188a4.905,4.905,0,0,1,2.122-6.6c.123-.063.247-.121.375-.173Z" transform="translate(-993.367 -595.13)" fill="#fbc23b"/></g><g transform="translate(150.683 322.597)"><path d="M1037.033,613.619l-3.146,5.255a21.217,21.217,0,0,1-14.217,10.335l-9.074,1.847s8.5,15.89,26.662,14.979Z" transform="translate(-1010.596 -613.619)" fill="#be166f"/></g><g transform="translate(131.948 197.547)"><path d="M986.438,523.715l13.893-52.524c1.685-8.738,12.27-20.458,20.359-18.624a14.342,14.342,0,0,1,11.326,16.825c-.029.147-.06.292-.092.437l-7.489,29.794c-.362-.212-28.184,77.476-16.226,34.363C1010.653,525.038,996.149,525.088,986.438,523.715Z" transform="translate(-986.438 -452.376)" fill="#0af"/></g><g transform="translate(100.208 207.654)"><path d="M978.076,482.067c1.547-1.248,3.395-1.9,4.993-2.945a6.629,6.629,0,0,0,3.37-4.618c.2-1.985-1.573-4.169-3.445-3.682a6.823,6.823,0,0,0-2.4,1.684,6.939,6.939,0,0,1-6.891,1.311c-4.269-1.7-6.166-7.963-10.722-8.387-3.232-.3-5.8,2.6-7.814,5.229l-3.745,4.931c-2.671,3.495-5.442,7.264-5.866,11.7a12.31,12.31,0,0,0,1.8,7.576,2.367,2.367,0,0,0,.974.974c.824.361,1.71-.212,2.5-.749a43.691,43.691,0,0,1,16.4-7.377c4.007-.886,8.837-1.7,10.485-5.567" transform="translate(-945.511 -465.407)" fill="#fdc0ae"/></g><g transform="translate(102.84 225.963)"><path d="M976.565,489.951s-21.107-5.83-27.66,11.633l13.107,44.4,26.923-13.83Z" transform="translate(-948.905 -489.016)" fill="#0af"/></g><g transform="translate(103.564 231.379)"><path d="M1016.917,502.9s-21.219,108.593-51.45,53.56a87.257,87.257,0,0,1-8.014-20.6l-7.614-30.206,27.66-6.865,6.241,18.723L989.132,496Z" transform="translate(-949.839 -495.999)" fill="#0af"/></g><g transform="translate(98.929 206.462)"><path d="M967.408,467.98l-2.5-2.8a4,4,0,0,0-5.642-.278,4.119,4.119,0,0,0-.387.4l-14.017,16.8a4.144,4.144,0,0,0-.824,3.907l1.873,6.1,8.824-12.919L963.7,472Z" transform="translate(-943.863 -463.871)" fill="#fdc0ae"/></g><g transform="translate(193.991 222.432)"><path d="M1098.872,500.526a2.779,2.779,0,0,1-.509-.047l-29.623-5.447a2.808,2.808,0,0,1-2.254-3.27l.919-5a2.809,2.809,0,0,1,3.27-2.254l29.622,5.448a2.808,2.808,0,0,1,2.254,3.27l-.919,5A2.813,2.813,0,0,1,1098.872,500.526Zm-.4-.661a2.188,2.188,0,0,0,2.544-1.753l.919-5a2.186,2.186,0,0,0-1.753-2.543l-29.622-5.448a2.19,2.19,0,0,0-2.544,1.754l-.919,5a2.184,2.184,0,0,0,1.753,2.544Z" transform="translate(-1066.439 -484.463)" fill="#be166f"/></g><g transform="translate(193.993 243.069)"><path d="M1098.874,527.135a2.773,2.773,0,0,1-.509-.047l-29.622-5.448a2.807,2.807,0,0,1-2.254-3.27l.918-5a2.814,2.814,0,0,1,3.271-2.254l29.622,5.447a2.808,2.808,0,0,1,2.254,3.27l-.919,5A2.813,2.813,0,0,1,1098.874,527.135Zm-.4-.66a2.189,2.189,0,0,0,2.543-1.754l.919-5a2.184,2.184,0,0,0-1.753-2.543l-29.622-5.447a2.189,2.189,0,0,0-2.544,1.753l-.918,5a2.185,2.185,0,0,0,1.753,2.543Z" transform="translate(-1066.442 -511.074)" fill="#be166f"/></g><g transform="translate(194.001 263.057)"><path d="M1098.889,552.91a2.834,2.834,0,0,1-.515-.048l-29.622-5.447a2.811,2.811,0,0,1-2.254-3.27l.918-5a2.808,2.808,0,0,1,3.27-2.254l29.622,5.447a2.811,2.811,0,0,1,2.254,3.27l-.918,5a2.812,2.812,0,0,1-2.755,2.3Zm-28.716-15.439a2.184,2.184,0,0,0-2.143,1.79l-.919,5a2.188,2.188,0,0,0,1.753,2.544l29.622,5.447a2.185,2.185,0,0,0,2.544-1.753l.918-5a2.188,2.188,0,0,0-1.753-2.544l-29.623-5.447A2.257,2.257,0,0,0,1070.174,537.471Z" transform="translate(-1066.452 -536.846)" fill="#be166f"/></g><g transform="translate(125.807 228.77)"><circle cx="1.623" cy="1.623" r="1.623" fill="#2361aa"/></g><g transform="translate(99.32 226.497)"><path d="M947.662,500.977s-2.41-2.134-3.3-8.35l2.883-2.921,2.671.6,1.835.886-.275,1Z" transform="translate(-944.367 -489.705)" fill="#fdc0ae"/></g><g transform="translate(105.544 234.332)"><path d="M990.59,544.8l-6.866-27.76-4.912-16.369a40.551,40.551,0,0,0-9.745.494c-5,.875-11.835,3.168-16.042,9.128l-.634-.447c8.336-11.809,26.576-9.942,26.759-9.923l.255.028,5.067,16.885,6.87,27.778Z" transform="translate(-952.392 -499.807)" fill="#1c5cc1"/></g><g transform="translate(114.897 106.758)"><path d="M972.417,339.29h-.776a3.207,3.207,0,1,0-6.414,0h-.776a3.982,3.982,0,0,1,7.965,0Z" transform="translate(-964.452 -335.308)" fill="#031f59"/></g><g transform="translate(77.413 106.758)"><path d="M924.085,339.29h-.776a3.207,3.207,0,0,0-6.414,0h-.776a3.983,3.983,0,0,1,7.966,0Z" transform="translate(-916.119 -335.308)" fill="#031f59"/></g><g transform="translate(99.433 129.651)"><path d="M944.525,364.827a2.815,2.815,0,0,0,0,.324,6.253,6.253,0,0,0,12.481.774Z" transform="translate(-944.512 -364.827)" fill="#fff"/></g><g transform="translate(66.106 28.172)"><path d="M909.028,233.976l-7.489,37.908s61.286,44.074,124.246,13.031V246.221Z" transform="translate(-901.539 -233.976)" fill="#0af"/></g><g transform="translate(27.461)"><path d="M966.356,197.651,851.709,211.044l97.072,35.062,112.787-15Z" transform="translate(-851.709 -197.651)" fill="#0af"/></g><g transform="translate(123.335 33.452)"><path d="M975.857,255.1l-.524,4.968,113.5-14.591.487-4.693Z" transform="translate(-975.333 -240.784)" fill="#1c5cc1"/></g><g transform="translate(26.95 13.393)"><path d="M947.96,249.3l-96.4-34.375-.512,4.831,96.386,34.513Z" transform="translate(-851.05 -214.92)" fill="#1c5cc1"/></g><g transform="translate(140.664 14.634)"><path d="M1114.96,294.464c-6.423-1.541-10.023-8.069-11.155-13.189a53.778,53.778,0,0,1-.794-12.312c.021-1.642.042-3.338,0-4.992a62.49,62.49,0,0,0-3.948-20.242c-.99-2.641-2.338-5.54-4.818-7.012a14.557,14.557,0,0,0-6.632-1.454l-30.853-1.823c-6.873-.457-14.655-.974-20.325-5.668a36.275,36.275,0,0,1-3.075-3.039,20.152,20.152,0,0,0-4.876-4.236,17.654,17.654,0,0,0-6.833-1.684,89.151,89.151,0,0,0-23.654.861l-.317-1.845a90.8,90.8,0,0,1,24.1-.883,19.454,19.454,0,0,1,7.551,1.885,21.764,21.764,0,0,1,5.4,4.626,35.369,35.369,0,0,0,2.907,2.881c5.2,4.3,12.659,4.8,19.242,5.236l30.774,1.821a16.48,16.48,0,0,1,7.485,1.679c3.046,1.8,4.576,5.055,5.682,8a64.379,64.379,0,0,1,4.066,20.849c.044,1.691.022,3.406,0,5.065a52.337,52.337,0,0,0,.751,11.883c1.015,4.594,4.181,10.434,9.764,11.774Z" transform="translate(-997.677 -216.52)" fill="#fbc23b"/></g><g transform="translate(256.727 89.43)"><path d="M1148.173,319.047l7.751,8.425,5.878-14.054-10.922-.45a3.159,3.159,0,0,0-3.145,2.2l-.249.762A3.169,3.169,0,0,0,1148.173,319.047Z" transform="translate(-1147.334 -312.965)" fill="#eb671c"/></g><g transform="translate(20.686 108.471)"><rect width="1.247" height="25.06" transform="translate(0 1.218) rotate(-77.487)" fill="#2361aa"/></g><g transform="translate(23.867 104)"><circle cx="1.585" cy="1.585" r="1.585" fill="#2361aa"/></g><g transform="translate(102.072 185.694)"><rect width="0.312" height="3.42" fill="#d2882e"/></g><g transform="translate(149.797 323.483)"><path d="M1009.454,630.077s15.677,3.67,26.55-15.315c0,0,2.708,8.912,2.708,9.636s-4.606,9.349-4.606,9.349l-4.381,2.646-8.974,1.248-9.574-4.993Z" transform="translate(-1009.454 -614.762)" fill="#be166f"/></g><g transform="translate(142.579 192.867)"><path d="M1000.727,454.6l-.58-.23c.044-.112,4.6-11.244,15.85-7.105l-.215.586C1005.106,443.918,1000.9,454.16,1000.727,454.6Z" transform="translate(-1000.147 -446.34)" fill="#be166f"/></g><g transform="translate(14.066 57.669)"><path d="M844.724,315.9l.475-3.257s-10.96-18.724-10.76-19.248,11.383-19.871,11.383-19.871l11.534-1.486a2.633,2.633,0,0,1,2.948,2.275,2.562,2.562,0,0,1,.022.346h0a1.411,1.411,0,0,1-1.123,1.373l-8.738,1.835-2.659,8.113,9.986-6.041,8.4.35a1.709,1.709,0,0,1,1.522,1.073h0a1.71,1.71,0,0,1-1.435,2.322l-6.041.561-7.365,7.065,10.509-3.071,6.092.45a1.46,1.46,0,0,1,1.323,1.248h0a1.46,1.46,0,0,1-1.19,1.688l-.059.009-5.454.637-6.066,6.765a18.511,18.511,0,0,1,8.363,12.208l-1.248,9.062Z" transform="translate(-834.437 -272.012)" fill="#fdc0ae"/></g></g><g transform="translate(216.011 433.705)"><g transform="translate(0 0)" clip-path="url(#b)"><g transform="translate(9.289 30.72)"><g transform="translate(15.867 15.355)"><path d="M303.941,653.53h-6.38l-.03-.354c-2.586-30.168-15.057-49.336-25.064-60.1-10.846-11.67-21.216-16.267-21.32-16.312l.309-.711c.1.046,10.6,4.69,21.552,16.466,10.062,10.817,22.591,30.037,25.264,60.24h5.668Z" transform="translate(-251.147 -576.048)" fill="#89baf5"/></g><g transform="translate(26.725 7.27)"><path d="M267.5,582.093s-7.033-13.652,3.218-16.47c0,0,8.442,6.024-3.218,16.47" transform="translate(-265.149 -565.623)" fill="#a9cbfc"/></g><g transform="translate(22.848 28.477)"><path d="M260.149,596.272s9.449-7.434,13.068,0c-.046-.195-3.424,7.432-13.068,0" transform="translate(-260.149 -592.968)" fill="#a9cbfc"/></g><g transform="translate(40.434 21.335)"><path d="M292.567,583.759s3.619,16.47-8.017,16.47c-.012,0-7.25-8.831,8.017-16.47" transform="translate(-282.825 -583.759)" fill="#a9cbfc"/></g><g transform="translate(53.436 37.805)"><path d="M317.633,605s-.8,24.121-17.077,20.1c0,0-7.078-14.866,17.077-20.1" transform="translate(-299.59 -604.996)" fill="#a9cbfc"/></g><g transform="translate(30.889 43.428)"><path d="M270.517,616.473s12.861,10.847,18.325.607C288.808,617.08,284.386,606.623,270.517,616.473Z" transform="translate(-270.517 -612.247)" fill="#a9cbfc"/></g><g transform="translate(41.597 71.361)"><path d="M284.325,652.493s12.862,10.847,18.325.6c-.1,0-4.524-10.446-18.325-.6" transform="translate(-284.325 -648.264)" fill="#a9cbfc"/></g><g transform="translate(63.404 15.355)"><path d="M318.824,653.53h-6.38v-.776h5.669c2.674-30.2,15.2-49.423,25.264-60.24,10.954-11.776,21.447-16.42,21.552-16.466l.309.711c-.1.045-10.474,4.642-21.32,16.312-10.007,10.768-22.478,29.936-25.064,60.1Z" transform="translate(-312.444 -576.048)" fill="#89baf5"/></g><g transform="translate(95.506 1.84)"><path d="M356.737,558.622s-9.047,18.692,4.821,22.107c.218.033,11.455-8.636-4.821-22.107" transform="translate(-353.837 -558.622)" fill="#a9cbfc"/></g><g transform="translate(96.187 28.477)"><path d="M367.781,596.272s-9.449-7.434-13.057,0c-.206-.195,3.205,7.432,13.057,0" transform="translate(-354.716 -592.968)" fill="#a9cbfc"/></g><g transform="translate(115.677 7.695)"><path d="M402.754,569.365s-19.08-9.644-22.907,4.581c0,.035,8.648,11.946,22.907-4.581" transform="translate(-379.847 -566.171)" fill="#a9cbfc"/></g><path d="M230.688,556.249s2.553,21.226,16.513,16.523c.029-.019,5.146-13.821-16.513-16.523" transform="translate(-230.688 -556.249)" fill="#a9cbfc"/><g transform="translate(81.152 21.335)"><path d="M335.861,583.759s-3.619,16.47,8.017,16.47c.057,0,7.491-8.831-8.017-16.47" transform="translate(-335.329 -583.759)" fill="#a9cbfc"/></g><g transform="translate(83.486 43.589)"><path d="M356.717,617.013s-12.862,10.847-18.326.6c-.641-1.489,4.455-10.446,18.326-.6" transform="translate(-338.338 -612.454)" fill="#a9cbfc"/></g><g transform="translate(72.888 65.806)"><path d="M350.19,647.06s-17.889,15.072-25.517.8c0,0,6.218-14.66,25.517-.8" transform="translate(-324.673 -641.101)" fill="#a9cbfc"/></g><g transform="translate(26.673 91.943)"><path d="M326.564,737.695H281.356L265.081,674.8h77.551Z" transform="translate(-265.081 -674.804)" fill="#1c5cc1"/></g></g></g></g><g transform="translate(206.687 147.177)"><rect width="820.831" height="429.827" fill="none"/></g></g></g></svg>