<svg xmlns="http://www.w3.org/2000/svg" xmlns:xlink="http://www.w3.org/1999/xlink" width="844.526" height="441.451" viewBox="0 0 844.526 441.451">
  <defs>
    <clipPath id="clip-path">
      <rect id="Rectángulo_3335" data-name="Rectángulo 3335" width="844.526" height="441.451" fill="none"/>
    </clipPath>
    <clipPath id="clip-path-2">
      <path id="Trazado_6788" data-name="Trazado 6788" d="M766.852,180.141l-6.844,16.437,9.447,2,.587-18.148Z" transform="translate(-760.008 -180.141)" fill="none"/>
    </clipPath>
    <clipPath id="clip-path-3">
      <path id="Trazado_11955" data-name="Trazado 11955" d="M5.514,7.975C6.752,10.69.967,9.433.015,12.261c-.364.87,5.873,12,6.518,14.462a16.406,16.406,0,0,1,.481,6.427,14.948,14.948,0,0,0-.271,3.905,3.214,3.214,0,0,0,2.3,2.868,4.307,4.307,0,0,1,3.206-3.908,10.17,10.17,0,0,1,8.377,2.254c-.508-5.725-1.409-13.968,2.562-18.1,1.433-1.468,3.152-2.832,3.775-4.793,1.13-3.535-3.413-8.948-5.568-10.636C17.343.851,10.006-.518,9.209.171,6.458,2.179,8.878,8.28,5.538,8.951" transform="translate(0 0)" fill="none"/>
    </clipPath>
    <clipPath id="clip-path-4">
      <path id="Trazado_11954" data-name="Trazado 11954" d="M0,3399.921H3179.147V0H0Z" fill="none"/>
    </clipPath>
    <clipPath id="clip-path-5">
      <path id="Trazado_11958" data-name="Trazado 11958" d="M11.964,1.519,10.739,29.3S4.392,21.6,1.351,20.17s0-12.946,0-12.946L7.478,1.438,9,0Z" transform="translate(0 0)" fill="none"/>
    </clipPath>
    <clipPath id="clip-path-6">
      <path id="Trazado_11957" data-name="Trazado 11957" d="M0,3350.093H3316.442V0H0Z" fill="none"/>
    </clipPath>
    <clipPath id="clip-path-7">
      <path id="Trazado_11961" data-name="Trazado 11961" d="M65.6,35.93c-6.625,3.265-13.854,5.784-21.232,5.464-9.9-.446-18.8-5.873-27.257-11.057A14.7,14.7,0,0,0,12.7,28.292,4.988,4.988,0,0,0,8.14,29.4a5.888,5.888,0,0,0-1.411,3.42,15.64,15.64,0,0,0,6.652,14.847c-.174,1.433-.117,3.045-.291,4.477a15.648,15.648,0,0,1-3.923-2.21A22.469,22.469,0,0,1,1.7,40.26C-.647,34.388-.387,27.572,1.4,21.461S6.356,9.709,9.716,4.238a10.907,10.907,0,0,1,2.417-3.009c2.139-1.658,5.243-1.481,7.721-.4a32.183,32.183,0,0,1,6.625,4.641,14.543,14.543,0,0,0,7.178,3.525,16.047,16.047,0,0,0,4.148-.256c2.724-.433,5.44-.93,8.129-1.506a24.218,24.218,0,0,1,5.244-.764,15.241,15.241,0,0,1,9.4,3.738,45.424,45.424,0,0,1,6.91,7.553L72.385,24a2.47,2.47,0,0,1,.709,1.563,2.511,2.511,0,0,1-.636,1.307L64.666,36.873" fill="none"/>
    </clipPath>
    <clipPath id="clip-path-9">
      <path id="Trazado_11964" data-name="Trazado 11964" d="M57.395,12.331C50.419,13.7,43.541,15.55,36.421,14.164c-6.275-1.177-12.03-4.535-17.3-8.012C13.592,2.5,6.2-3.483.128,2.624c-.4.411.225,1.038.622.623,6.016-6.135,13.476.775,18.8,4.17a60.561,60.561,0,0,0,11.233,5.932c9.224,3.526,17.551,1.643,26.906-.2.563-.1.329-.965-.234-.848Z" transform="translate(0 0)" fill="none"/>
    </clipPath>
    <clipPath id="clip-path-11">
      <path id="Trazado_11967" data-name="Trazado 11967" d="M52.373,16.859c-6.851-6.44-15.271-4.7-23.767-5.464C22.122,10.784,18.585,6.8,13.487,3.443A20.868,20.868,0,0,0,.422.061c-.563,0-.563.914,0,.881C7.343.591,11.865,3.362,17.117,7.324a22.782,22.782,0,0,0,7.765,4.36c9.281,2.5,18.96-1.622,26.871,5.8.408.38,1.044-.243.62-.629" transform="translate(0 0)" fill="none"/>
    </clipPath>
  </defs>
  <g id="home_familia_protegida" transform="translate(1149.16 -367.336)">
    <g id="Grupo_14813" data-name="Grupo 14813" transform="translate(-1149.16 367.336)" clip-path="url(#clip-path)">
      <ellipse id="Elipse_1041" data-name="Elipse 1041" cx="25.871" cy="3.894" rx="25.871" ry="3.894" transform="translate(857.088 453.587)" opacity="0.1" style="mix-blend-mode: multiply;isolation: isolate"/>
      <g id="Grupo_14613" data-name="Grupo 14613" transform="translate(499.651 290.157)">
        <g id="Grupo_14612" data-name="Grupo 14612" transform="translate(0.75 0.751)">
          <rect id="Rectángulo_3320" data-name="Rectángulo 3320" width="292.883" height="159.048" rx="10.648" fill="#a9cbfc"/>
        </g>
        <path id="Trazado_12414" data-name="Trazado 12414" d="M-397,808.273H-647.214A22.111,22.111,0,0,1-669.3,786.186V669.808a22.111,22.111,0,0,1,22.087-22.087H-397a22.111,22.111,0,0,1,22.087,22.087V786.186A22.111,22.111,0,0,1-397,808.273ZM-647.214,649.224A20.6,20.6,0,0,0-667.8,669.808V786.186a20.606,20.606,0,0,0,20.584,20.584H-397a20.607,20.607,0,0,0,20.584-20.584V669.808A20.606,20.606,0,0,0-397,649.224Z" transform="translate(669.301 -647.721)" fill="#a9cbfc"/>
      </g>
      <g id="Grupo_14615" data-name="Grupo 14615" transform="translate(206.769 290.157)">
        <g id="Grupo_14614" data-name="Grupo 14614" transform="translate(0.75 0.751)">
          <rect id="Rectángulo_3321" data-name="Rectángulo 3321" width="292.883" height="159.048" rx="10.648" fill="#a9cbfc"/>
        </g>
        <path id="Trazado_12415" data-name="Trazado 12415" d="M-680.024,808.273H-930.235a22.11,22.11,0,0,1-22.085-22.087V669.808a22.109,22.109,0,0,1,22.085-22.087h250.212a22.114,22.114,0,0,1,22.089,22.087V786.186a22.114,22.114,0,0,1-22.09,22.087ZM-930.235,649.224a20.605,20.605,0,0,0-20.583,20.584V786.186a20.606,20.606,0,0,0,20.582,20.584h250.213a20.609,20.609,0,0,0,20.586-20.584V669.808a20.608,20.608,0,0,0-20.586-20.584Z" transform="translate(952.32 -647.721)" fill="#a9cbfc"/>
      </g>
      <g id="Grupo_14617" data-name="Grupo 14617" transform="translate(206.769 311.493)">
        <g id="Grupo_14616" data-name="Grupo 14616" transform="translate(0.749 0.751)">
          <path id="Trazado_12416" data-name="Trazado 12416" d="M-680.049,669.064h-250.21c-11.784,0-21.338,8.828-21.338,19.716v98.281c0,10.888,9.554,19.716,21.338,19.716h250.21c11.784,0,21.338-8.828,21.338-19.716V688.78C-658.712,677.892-668.266,669.064-680.049,669.064Z" transform="translate(951.596 -669.064)" fill="#d9eaff"/>
        </g>
        <path id="Trazado_12417" data-name="Trazado 12417" d="M-680.024,807.555H-930.235c-12.178,0-22.085-9.181-22.085-20.467V688.8c0-11.287,9.907-20.467,22.085-20.467h250.212c12.178,0,22.089,9.181,22.089,20.467v98.281C-657.935,798.374-667.846,807.555-680.024,807.555ZM-930.235,669.841c-11.349,0-20.582,8.51-20.582,18.965v98.281c0,10.457,9.233,18.965,20.582,18.965h250.212c11.351,0,20.586-8.508,20.586-18.965V688.8c0-10.452-9.235-18.965-20.586-18.965Z" transform="translate(952.32 -668.338)" fill="#d9eaff"/>
      </g>
      <g id="Grupo_14619" data-name="Grupo 14619" transform="translate(499.651 311.493)">
        <g id="Grupo_14618" data-name="Grupo 14618" transform="translate(0.751 0.751)">
          <path id="Trazado_12418" data-name="Trazado 12418" d="M-397.025,669.064H-647.24c-11.784,0-21.336,8.828-21.336,19.716v98.281c0,10.888,9.552,19.716,21.336,19.716h250.215c11.784,0,21.336-8.828,21.336-19.716V688.78C-375.693,677.892-385.245,669.064-397.025,669.064Z" transform="translate(668.575 -669.064)" fill="#d9eaff"/>
        </g>
        <path id="Trazado_12419" data-name="Trazado 12419" d="M-397,807.555H-647.214c-12.178,0-22.087-9.181-22.087-20.467V688.8c0-11.287,9.909-20.467,22.087-20.467H-397c12.178,0,22.087,9.181,22.087,20.467v98.281C-374.917,798.374-384.824,807.555-397,807.555ZM-647.214,669.841c-11.351,0-20.584,8.51-20.584,18.965v98.281c0,10.457,9.233,18.965,20.584,18.965H-397c11.351,0,20.584-8.508,20.584-18.965V688.8c0-10.452-9.233-18.965-20.584-18.965Z" transform="translate(669.301 -668.338)" fill="#d9eaff"/>
      </g>
      <g id="Grupo_14620" data-name="Grupo 14620" transform="translate(207.52 363.483)">
        <path id="Trazado_12420" data-name="Trazado 12420" d="M-930.26,805.052h250.212a21.337,21.337,0,0,0,21.338-21.337h0c-106.2,7.6-227.421-18.588-292.884-65.14v65.14a21.336,21.336,0,0,0,21.334,21.336Z" transform="translate(951.594 -718.577)" fill="none"/>
      </g>
      <g id="Grupo_14621" data-name="Grupo 14621" transform="translate(500.407 363.483)">
        <path id="Trazado_12421" data-name="Trazado 12421" d="M-647.24,805.052h250.215a21.335,21.335,0,0,0,21.336-21.334h0c-106.193,7.6-227.421-18.588-292.882-65.14v65.14a21.335,21.335,0,0,0,21.329,21.333Z" transform="translate(668.571 -718.577)" fill="none"/>
      </g>
      <g id="Grupo_14623" data-name="Grupo 14623" transform="translate(174.032 390.53)">
        <g id="Grupo_14622" data-name="Grupo 14622" transform="translate(0.755 0.752)">
          <path id="Trazado_12422" data-name="Trazado 12422" d="M-899.97,799.272a26.507,26.507,0,0,0,2.09-10.349V772.031a26.588,26.588,0,0,0-26.588-26.589h-32.168a26.588,26.588,0,0,0-26.587,26.588h0v16.893a26.6,26.6,0,0,0,1.046,7.41" transform="translate(983.224 -745.441)" fill="#a9cbfc"/>
        </g>
        <path id="Trazado_12423" data-name="Trazado 12423" d="M-899.251,799.588l-1.385-.583a25.708,25.708,0,0,0,2.027-10.057v-16.9a25.864,25.864,0,0,0-25.834-25.836h-32.168a25.864,25.864,0,0,0-25.836,25.836v16.9a25.854,25.854,0,0,0,1.018,7.2l-1.449.414a27.355,27.355,0,0,1-1.076-7.62V772.053a27.368,27.368,0,0,1,27.339-27.339h32.169a27.368,27.368,0,0,1,27.34,27.339v16.9a27.191,27.191,0,0,1-2.145,10.635Z" transform="translate(983.954 -744.714)" fill="#a9cbfc"/>
      </g>
      <g id="Grupo_14625" data-name="Grupo 14625" transform="translate(174.036 402.113)">
        <g id="Grupo_14624" data-name="Grupo 14624" transform="translate(0.751 0.844)">
          <path id="Trazado_12424" data-name="Trazado 12424" d="M-898.885,804.349a33.36,33.36,0,0,0,1-8.155v-9.6c0-16.5-11.9-29.876-26.587-29.876H-956.64c-14.684,0-26.587,13.375-26.587,29.876h0v9.6a33.367,33.367,0,0,0,1.046,8.329" transform="translate(983.224 -756.722)" fill="#cce3ff"/>
        </g>
        <path id="Trazado_12425" data-name="Trazado 12425" d="M-982.874,804.785a34.292,34.292,0,0,1-1.076-8.562v-9.594c.016-16.959,12.246-30.7,27.339-30.723h32.169c15.091.021,27.32,13.765,27.337,30.723v9.594a34.26,34.26,0,0,1-1.035,8.385l-1.449-.466a32.491,32.491,0,0,0,.972-7.923v-9.594c-.018-16.021-11.569-29-25.825-29.029h-32.169c-14.261.022-25.817,13.008-25.836,29.033v9.594a32.458,32.458,0,0,0,1.018,8.092Z" transform="translate(983.95 -755.906)" fill="#cce3ff"/>
      </g>
      <g id="Grupo_14627" data-name="Grupo 14627" transform="translate(739.923 390.53)">
        <g id="Grupo_14626" data-name="Grupo 14626" transform="translate(0.746 0.752)">
          <path id="Trazado_12426" data-name="Trazado 12426" d="M-352.842,798.527a26.548,26.548,0,0,0,1.787-9.6v-16.9a26.587,26.587,0,0,0-26.586-26.589H-409.81A26.588,26.588,0,0,0-436.4,772.03v16.893a26.514,26.514,0,0,0,1.787,9.6" transform="translate(436.4 -745.441)" fill="#a9cbfc"/>
        </g>
        <path id="Trazado_12427" data-name="Trazado 12427" d="M-352.115,798.825l-1.4-.545a25.763,25.763,0,0,0,1.735-9.331v-16.9a25.864,25.864,0,0,0-25.836-25.836h-32.166a25.865,25.865,0,0,0-25.836,25.836v16.9a25.682,25.682,0,0,0,1.735,9.329l-1.4.545a27.2,27.2,0,0,1-1.837-9.875v-16.9a27.368,27.368,0,0,1,27.339-27.339h32.167a27.37,27.37,0,0,1,27.339,27.339v16.9a27.278,27.278,0,0,1-1.84,9.877Z" transform="translate(437.121 -744.714)" fill="#a9cbfc"/>
      </g>
      <g id="Grupo_14629" data-name="Grupo 14629" transform="translate(739.922 402.607)">
        <g id="Grupo_14628" data-name="Grupo 14628" transform="translate(0.747 0.829)">
          <path id="Trazado_12428" data-name="Trazado 12428" d="M-352.842,803.543c.683-2.486,1.787-6.541,1.787-9.259v-9.018c0-15.505-11.9-28.082-26.587-28.082H-409.81c-14.685,0-26.589,12.571-26.589,28.082v9.02a29.37,29.37,0,0,0,1.789,10.147" transform="translate(436.4 -757.185)" fill="#cce3ff"/>
        </g>
        <path id="Trazado_12429" data-name="Trazado 12429" d="M-435.281,804.768a30.214,30.214,0,0,1-1.841-10.455v-9.02c0-15.94,12.264-28.91,27.339-28.91h32.167c15.074,0,27.339,12.969,27.339,28.91v9.02c0,2.862-1.138,7.015-1.817,9.5l-1.44-.478c.659-2.4,1.759-6.4,1.759-9.018V785.3c0-15.027-11.59-27.249-25.836-27.249h-32.171c-14.246,0-25.836,12.228-25.836,27.249v9.02a28.456,28.456,0,0,0,1.731,9.834Z" transform="translate(437.122 -756.384)" fill="#cce3ff"/>
      </g>
      <g id="Grupo_14705" data-name="Grupo 14705" transform="translate(497.674 104.639)">
        <g id="Grupo_14630" data-name="Grupo 14630" transform="translate(144.551 86.974)">
          <path id="Trazado_12430" data-name="Trazado 12430" d="M-513.052,553.975c19.24,34.1,34.892,60.1,54.132,94.2.529,1.06-3.45,1.46-4.243,2.38-.529.537-4.243,3.851-4.911,3.979-4.116.537-.755,4.381-4.909,4.909-2.391.265-1.325,3.028-3.715,2.521-2.919-.659-5.44-2.521-7.959-4.109-9.417-6.37-20.7-11.142-26.669-20.963-2.783-4.54-4.107-9.684-5.568-14.723-2.919-10.221-6.241-20.169-10.085-29.989-2.783-7.029-5.841-14.591-3.979-21.888,1.325-5.44,5.174-9.831,8.89-14.064a11.6,11.6,0,0,1,3.843-3.311,3.989,3.989,0,0,1,4.644.8c.264.265.4.794,0,.931-.265.265-.529-.529-.128-.4" transform="translate(531.529 -552.496)" fill="#ffaf97"/>
        </g>
        <g id="Grupo_14631" data-name="Grupo 14631" transform="translate(144.283 86.739)">
          <path id="Trazado_12431" data-name="Trazado 12431" d="M-476.136,662.307a2.653,2.653,0,0,1-.605-.077,21.947,21.947,0,0,1-6.879-3.39l-1.173-.755c-2.331-1.575-4.819-3.08-7.225-4.541-7.367-4.462-14.994-9.079-19.518-16.514-2.551-4.116-3.9-8.822-5.2-13.376l-.409-1.415c-3.028-10.555-6.313-20.36-10.078-29.959l-.09-.242c-2.829-7.133-5.749-14.511-3.9-21.81,1.338-5.47,5.181-9.831,8.9-14.11l.052-.062a11.646,11.646,0,0,1,3.927-3.375c1.513-.649,3.783-.649,4.967.864a1.188,1.188,0,0,1,.272.46l.281-.158c9.624,17.053,18.5,32.336,27.076,47.111s17.4,30.042,27.054,47.086a.672.672,0,0,1,0,.561c-.227.545-1.181.854-2.268,1.218a5.654,5.654,0,0,0-2.027.908c-.37.379-4.259,3.912-5.055,4.069-1.883.242-2.05,1.166-2.268,2.27a2.709,2.709,0,0,1-2.679,2.671,1.879,1.879,0,0,0-1.62,1.331C-474.849,661.648-475.176,662.307-476.136,662.307Zm-40.158-109.5a4.771,4.771,0,0,0-1.815.362,11.2,11.2,0,0,0-3.782,3.238l-.062.068c-3.677,4.2-7.474,8.542-8.774,13.89-1.817,7.135,1.074,14.436,3.873,21.5l.09.24c3.783,9.616,7.073,19.429,10.093,30.006l.409,1.415c1.295,4.541,2.624,9.193,5.137,13.246,4.456,7.33,12.028,11.908,19.344,16.334,2.414,1.459,4.9,2.966,7.244,4.539l1.172.758a21.755,21.755,0,0,0,6.7,3.328c1.035.227,1.265-.227,1.605-.908a2.386,2.386,0,0,1,2.02-1.619c1.863-.242,2.036-1.172,2.224-2.27a2.683,2.683,0,0,1,2.685-2.671,36.863,36.863,0,0,0,4.753-3.9,5.62,5.62,0,0,1,2.268-1.051c.818-.265,1.832-.6,1.959-.916a.11.11,0,0,0,0-.12c-9.608-17.03-18.474-32.3-27.046-47.065s-17.34-29.855-26.881-46.775a.6.6,0,0,1-.363.423.4.4,0,0,1-.49,0,.619.619,0,0,1-.2-.711.385.385,0,0,1,.431-.188.374.374,0,0,0-.068-.076,3.144,3.144,0,0,0-2.527-1.066Zm2.655,1.263-.15.432h0a.18.18,0,0,0,.09-.038h0a.135.135,0,0,0-.09,0l.1-.06h0a.088.088,0,0,0,.054-.062.486.486,0,0,0-.008-.295Z" transform="translate(531.787 -552.268)" fill="#d54f1f"/>
        </g>
        <g id="Grupo_14632" data-name="Grupo 14632" transform="translate(131.005 92.378)" opacity="0.19">
          <path id="Trazado_12432" data-name="Trazado 12432" d="M-529.974,561.486c9.417,10.213,10.085,25.871,16.985,38.076,6.628,11.409,18.438,19.1,25.473,30.264a69.352,69.352,0,0,1,7.43,18.044c.529,2.271.923,4.909-.665,6.634-1.2,1.06-2.921,1.2-4.54,1.325l-16.054.8a5.939,5.939,0,0,1-2.654-.265c-1.725-.665-2.521-2.527-3.311-4.116a494.537,494.537,0,0,0-31.02-59.3c-3.312-5.3-6.763-11.144-6.234-17.4.529-5.3,3.852-9.831,7.165-13.928,1.323-1.6,2.783-3.45,4.909-3.851s4.538,1.863,3.579,3.715" transform="translate(544.618 -557.717)" fill="#ff6700"/>
        </g>
        <g id="Grupo_14633" data-name="Grupo 14633" transform="translate(0 109.9)">
          <path id="Trazado_12433" data-name="Trazado 12433" d="M-661.76,575.336c-10.487,45.161-13.364,88.908-2.887,102.844,1.725,2.38.047-8.754,2.565-7.165.8.529,5.3,7.3,6.37,7.163,3.186-.529,7.831-3.184,8.626-6.369,1.99-7.43,7.294-5.44,9.948-12.6a24.882,24.882,0,0,0,.931-6.5c.757-18.572,5.971-36.482,11.144-54.26.4-1.6-1.058-3.587-1.46-5.174-.665-2.126-2.783-3.312-4.773-4.381-3.715-1.853-10.221-9.948-14.465-10.742-4.109-.668-12.547-5.194-16-2.812" transform="translate(671.212 -574.649)" fill="#ffaf97"/>
        </g>
        <g id="Grupo_14634" data-name="Grupo 14634" transform="translate(113.806 64.175)">
          <path id="Trazado_12434" data-name="Trazado 12434" d="M-510.42,556.733s-9.956-24.808-48.291-26.269l-2.527,15.789,15.26,10.594Z" transform="translate(561.238 -530.464)" fill="#ff409e"/>
        </g>
        <g id="Grupo_14635" data-name="Grupo 14635" transform="translate(8.79 61.593)">
          <path id="Trazado_12435" data-name="Trazado 12435" d="M-516.536,550.715c-2.271-.924-4.538-2.649-5.3-5.04-.4-.794-.4-1.725-.758-2.655a9.245,9.245,0,0,0-3.713-4.107c-7.3-4.783-16.85-4.54-25.073-7.43-3.186-1.2-6.372-2.794-9.692-3.322s-6.623.137-9.948.8c-13.263,2.649-26.533,5.167-39.8,7.825-9.284,1.863-18.834,3.715-26.8,9.025-1.589,1.06-3.026,1.99-4.539,2.913a34.365,34.365,0,0,0-6.5,4.781,26.161,26.161,0,0,0-5.045,5.7,58.038,58.038,0,0,0-9.019,18.438c5.44-1.06,9.948,1.066,13.263,3.585,5.969,5.174,11.28,13.529,16.321,18.31l.265.128c3.715,2.27,15.129,3.979,15.394,8.359.659,9.556-9.289,20.428-4.539,28.749,3.186-1.058,5.841-3.45,8.76-5.174s6.765-2.785,9.684-.924c1.2.758,2.119,1.99,3.578,2.38,2.657.8,4.911-1.853,6.37-4.243,8.754-13,20.7-24.407,35.56-29.183,5.7-1.853,11.8-2.647,17.642-4.372a63.525,63.525,0,0,0,14.457-6.241c1.6-.924-.393.931.8-.531,0,0-.4-.529,1.058-1.194,5.3-2.649,10.88-26,17.25-30.376C-509.537,551.251-510.483,553.1-516.536,550.715Z" transform="translate(662.718 -527.97)" fill="#ff409e"/>
        </g>
        <g id="Grupo_14636" data-name="Grupo 14636" transform="translate(141.64 87.005)">
          <path id="Trazado_12436" data-name="Trazado 12436" d="M-517.326,552.649c-9.956,6.9-6.77,23.082-16.857,29.316-.393.265,0,.931.539.668,10.213-6.372,7.027-22.425,16.847-29.325C-516.4,552.916-516.934,552.249-517.326,552.649Z" transform="translate(534.342 -552.526)" fill="#ef1485"/>
        </g>
        <g id="Grupo_14637" data-name="Grupo 14637" transform="translate(112.605 86.463)">
          <path id="Trazado_12437" data-name="Trazado 12437" d="M-551.906,552h-2.785l-7.709,11.94s12.2,18.444,15.517,23.748a33.774,33.774,0,0,0,4.909,5.7,61.063,61.063,0,0,0,12.341-5.569c.4-.265.529-.265.666-.265,0-.137.128-.137.128-.265,0,0-.393-.529,1.06-1.2,2.126-1.058,4.252-5.3,6.37-10.349C-530.145,554.256-551.906,552-551.906,552Z" transform="translate(562.399 -552.002)" fill="#ef1485"/>
        </g>
        <g id="Grupo_14638" data-name="Grupo 14638" transform="translate(24.422)">
          <path id="Trazado_12438" data-name="Trazado 12438" d="M-575.938,537.033s-3.341,29.411-13.289,32.925c0,0,42.3,2.685,56.408-24.429,0,0-9.015-37.265-30.438-60.339-10.452-11.257-24.754-17.987-40.049-16.546-9.471.894-20.7,4.047-28.435,12.956,0,0-30.252,29.318-7.223,90.612l33.95-4.76.7-31.47Z" transform="translate(647.612 -468.45)" fill="#031f59"/>
        </g>
        <g id="Grupo_14639" data-name="Grupo 14639" transform="translate(30.798 103.547)">
          <path id="Trazado_12439" data-name="Trazado 12439" d="M-629,568.51l-5.126,1.507s-4.139,5.422-7.328,19.085c3.715,4.381,7.165,9.291,10.592,12.477l.529.529c1.2,1.194-1.194-.529,0,0C-629.928,598.392-629.53,570.772-629,568.51Z" transform="translate(641.451 -568.51)" fill="#ef1485"/>
        </g>
        <g id="Grupo_14640" data-name="Grupo 14640" transform="translate(11.983 105.052)">
          <path id="Trazado_12440" data-name="Trazado 12440" d="M-659.03,571.273c10.085-3.579,19.1,9.427,22.954,16.454.265.4.931.128.755-.267-4.107-7.428-13.527-20.561-24.009-16.847a.362.362,0,0,0-.237.146.362.362,0,0,0-.063.271.363.363,0,0,0,.147.237.363.363,0,0,0,.271.063h0a.349.349,0,0,0,.144-.058Z" transform="translate(659.632 -569.965)" fill="#ef1485"/>
        </g>
        <g id="Grupo_14641" data-name="Grupo 14641" transform="translate(90.597 116.976)">
          <path id="Trazado_12441" data-name="Trazado 12441" d="M-583.666,581.487l.757.8v-.264Z" transform="translate(583.666 -581.487)" fill="#fca73b"/>
        </g>
        <g id="Grupo_14642" data-name="Grupo 14642" transform="translate(65.877 67.857)">
          <path id="Trazado_12442" data-name="Trazado 12442" d="M-607.542,562.664s-.834,8.83,11.88,10.1l23.636,7.119.627-45.861Z" transform="translate(607.553 -534.022)" fill="#ffaf97"/>
        </g>
        <g id="Grupo_14643" data-name="Grupo 14643" transform="translate(41.307 33.494)">
          <path id="Trazado_12443" data-name="Trazado 12443" d="M-628.662,522.548s12.323-10.592,6.051-21.732l-8.685,3.849.537,9.831Z" transform="translate(631.296 -500.816)" fill="#031f59"/>
        </g>
        <g id="Grupo_14644" data-name="Grupo 14644" transform="translate(67.69 210.381)">
          <path id="Trazado_12444" data-name="Trazado 12444" d="M-605.19,676.784c-.13-1.725-.394-3.312-.531-5.038C-606.114,673.6-604.917,678.909-605.19,676.784Z" transform="translate(605.801 -671.746)" fill="#ffbe53"/>
        </g>
        <g id="Grupo_14645" data-name="Grupo 14645" transform="translate(71.221 205.469)">
          <path id="Trazado_12445" data-name="Trazado 12445" d="M-601.725,672.04c-.136-1.725-.4-3.312-.529-5.04C-602.781,668.99-601.594,674.294-601.725,672.04Z" transform="translate(602.389 -667)" fill="#ffbe53"/>
        </g>
        <g id="Grupo_14646" data-name="Grupo 14646" transform="translate(48.312 94.808)">
          <path id="Trazado_12446" data-name="Trazado 12446" d="M-517.5,648.7c4.54-16.985,3.587-36.088-2.919-52.005-9.283-22.818-29.183-36.088-47.5-36.617-18.7-.529-39.793,12.108-50.014,35.688-6.9,15.887-8.323,34.89-4.54,51.876C-601.353,655.6-559.3,666.611-517.5,648.7Z" transform="translate(624.526 -560.066)" fill="#031f59"/>
        </g>
        <g id="Grupo_14647" data-name="Grupo 14647" transform="translate(69.603 135.683)">
          <path id="Trazado_12447" data-name="Trazado 12447" d="M-537.46,609.65s11.946,12.108,8.76,50.946l-73.235.394s-7.037-46.036,5.174-61.426Z" transform="translate(603.953 -599.564)" fill="#021333"/>
        </g>
        <g id="Grupo_14648" data-name="Grupo 14648" transform="translate(79.967 186.899)">
          <path id="Trazado_12448" data-name="Trazado 12448" d="M-592.864,671.718c17.642,6.5,35.157,12.862,52.8,19.367,5.44,1.99,10.88,3.979,16.584,4.644,7.429.924,15-.265,22.554-1.6a13.906,13.906,0,0,0,5.174-1.587c3.322-1.992,4.379-6.106,5.3-9.831,1.325-5.3,2.521-10.744,3.843-16.054a8.14,8.14,0,0,0,.264-4.38,7.716,7.716,0,0,0-1.853-2.913,32.781,32.781,0,0,0-34.626-8.5c-5.44,1.99-10.479,5.44-16.184,5.3-2.526,0-5.045-.757-7.566-1.2-7.163-1.194-14.457.265-21.494,1.589-5.038,1.066-10.085,1.99-14.721,4.116s-8.891,5.44-11.144,9.948" transform="translate(593.938 -649.055)" fill="#fdc0ae"/>
        </g>
        <g id="Grupo_14649" data-name="Grupo 14649" transform="translate(34.219 158.047)">
          <path id="Trazado_12449" data-name="Trazado 12449" d="M-632.449,655.488c-5.44,2.435-6.635,9.365-5.047,14.721a9.394,9.394,0,0,0,2.392,4.162,11.189,11.189,0,0,0,3.979,2.194c12.467,4.621,26.667,1.457,38.872-3.533s23.884-11.557,37.018-14.11q3.621-.621,7.163-1.583a34.94,34.94,0,0,0,7.694-4.017c7.566-4.987,14.723-10.821,23.347-14.11a45.73,45.73,0,0,1,21.357-2.679,30.475,30.475,0,0,0-5.166-13.258,5.109,5.109,0,0,0-1.333-1.462,5,5,0,0,0-2.654-.6c-7.294-.366-14.322,2.679-20.428,6.446-6.106,3.649-11.81,8.035-18.444,10.83-9.283,4.017-19.9,4.5-30.114,5.356-20.828,1.575-41.927,4.379-61.16,12.045" transform="translate(638.145 -621.175)" fill="#fdc0ae"/>
        </g>
        <g id="Grupo_14650" data-name="Grupo 14650" transform="translate(33.302 157.799)">
          <path id="Trazado_12450" data-name="Trazado 12450" d="M-618.456,679.293a38.178,38.178,0,0,1-13.366-2.266,11.431,11.431,0,0,1-4.075-2.247,9.749,9.749,0,0,1-2.484-4.3c-1.616-5.451-.34-12.591,5.212-15.076l.207.458c-5.292,2.367-6.492,9.227-4.933,14.481a9.241,9.241,0,0,0,2.342,4.075,11,11,0,0,0,3.893,2.138c10.525,3.9,23.6,2.7,38.888-3.538,3.426-1.4,6.875-2.951,10.207-4.45,8.606-3.876,17.5-7.878,27.034-9.728,2.41-.414,4.822-.944,7.181-1.583a34.88,34.88,0,0,0,7.652-4c1.832-1.209,3.667-2.484,5.438-3.717,5.637-3.915,11.463-7.963,18.074-10.481a46.349,46.349,0,0,1,21.255-2.737,30.528,30.528,0,0,0-5.1-12.889,4.891,4.891,0,0,0-1.28-1.415,4.727,4.727,0,0,0-2.506-.553c-6.181-.31-12.878,1.791-20.406,6.434-1.916,1.144-3.821,2.38-5.667,3.574a84.222,84.222,0,0,1-12.9,7.313c-8.448,3.651-18.029,4.414-27.294,5.151q-1.524.119-3.035.246c-18.962,1.432-41.084,3.989-61.381,12.075l-.184-.467c20.362-8.109,42.533-10.671,61.524-12.108q1.512-.126,3.037-.246c9.225-.734,18.763-1.492,27.136-5.109a83.956,83.956,0,0,0,12.824-7.275c1.847-1.2,3.759-2.436,5.678-3.583,7.614-4.7,14.363-6.8,20.666-6.506a4.173,4.173,0,0,1,4.208,2.2,31.01,31.01,0,0,1,5.228,13.4l.042.317-.319-.036A45.761,45.761,0,0,0-517,639.52c-6.554,2.5-12.355,6.526-17.965,10.427-1.78,1.235-3.622,2.508-5.448,3.717a35.37,35.37,0,0,1-7.778,4.058c-2.4.651-4.824,1.186-7.244,1.6-9.468,1.839-18.34,5.832-26.918,9.693-3.336,1.5-6.789,3.056-10.224,4.46C-602.071,677.352-610.731,679.293-618.456,679.293Z" transform="translate(639.031 -620.935)" fill="#d54f1f"/>
        </g>
        <g id="Grupo_14651" data-name="Grupo 14651" transform="translate(7.27 192.037)">
          <path id="Trazado_12451" data-name="Trazado 12451" d="M-661.131,673.293a11.017,11.017,0,0,1-3.028-7.165c-.265-4.116,1.46-8.231,3.028-12.108" transform="translate(664.186 -654.02)" fill="#ffc75c"/>
        </g>
        <g id="Grupo_14652" data-name="Grupo 14652" transform="translate(7.072 192.006)">
          <path id="Trazado_12452" data-name="Trazado 12452" d="M-661.246,673.417a11.134,11.134,0,0,1-3.1-7.277c-.265-4.107,1.4-8.133,3.028-12.022l.052-.128.325.137-.052.128c-1.6,3.851-3.246,7.838-3.026,11.864A10.773,10.773,0,0,0-661,673.17Z" transform="translate(664.378 -653.99)" fill="#fca73b"/>
        </g>
        <g id="Grupo_14653" data-name="Grupo 14653" transform="translate(67.37 142.054)">
          <ellipse id="Elipse_1042" data-name="Elipse 1042" cx="4.645" cy="6.499" rx="4.645" ry="6.499" transform="translate(0 0)" fill="#fdc0ae"/>
        </g>
        <g id="Grupo_14654" data-name="Grupo 14654" transform="translate(128.93 142.054)">
          <ellipse id="Elipse_1043" data-name="Elipse 1043" cx="4.645" cy="6.499" rx="4.645" ry="6.499" transform="translate(0 0)" fill="#fdc0ae"/>
        </g>
        <g id="Grupo_14655" data-name="Grupo 14655" transform="translate(73.052 111.006)">
          <path id="Trazado_12453" data-name="Trazado 12453" d="M-540.1,575.718h-60.52v47.5a22.257,22.257,0,0,0,5.3,14.329h0a25.144,25.144,0,0,0,19.367,8.754H-564.8a25.146,25.146,0,0,0,19.367-8.754h0a22.262,22.262,0,0,0,5.3-14.329Z" transform="translate(600.62 -575.718)" fill="#fdc0ae"/>
        </g>
        <g id="Grupo_14656" data-name="Grupo 14656" transform="translate(66.183 100.056)">
          <path id="Trazado_12454" data-name="Trazado 12454" d="M-600.359,607.134s4.366-11.022,20.019-21.766c0,0,3.063-9.017,16.462-5.3l9.025,12.86,4.243.667,22.023,28.52-.529-32.529-6.241-12.741s-7.961-5.167-9.95-5.167-15.789-6.506-15.789-6.506-12.862.265-13.66,0-11.673,1.066-14.329,1.333c-2.785.265-8.754,3.184-8.754,3.184s-6.5,9.684-8.223,7.566c-.8-1.06-1.2,11.28-1.2,12.469S-600.359,607.134-600.359,607.134Z" transform="translate(607.257 -565.136)" fill="#031f59"/>
        </g>
        <g id="Grupo_14657" data-name="Grupo 14657" transform="translate(85.435 108.358)">
          <path id="Trazado_12455" data-name="Trazado 12455" d="M-588.272,583.372s-2.821,15.388,6.87,24.142l18.207-.529a25.366,25.366,0,0,1-4.644-10.744s3.026,7.822,8.754,10.744h5.839a54.233,54.233,0,0,1-4.539-8.754s4.539,6.234,9.019,8.754h9.019l-2.27-16.713-9.548-7.694-10.877-7.7-11.409-1.717-8.321,4.539Z" transform="translate(588.654 -573.159)" fill="#031f59"/>
        </g>
        <g id="Grupo_14658" data-name="Grupo 14658" transform="translate(54.82 103.763)">
          <path id="Trazado_12456" data-name="Trazado 12456" d="M-604.353,577.212l-6.442-7.831a1.923,1.923,0,0,0-2.712-.193,1.92,1.92,0,0,0-.513.71l-4.092,11.76a1.89,1.89,0,0,0,1.092,2.44,1.887,1.887,0,0,0,1.224.043l10.348-3.082,6.939,7.566a1.9,1.9,0,0,0,1.309.644,1.905,1.905,0,0,0,1.381-.471h0a1.938,1.938,0,0,0,.535-.785l4.013-10.607a1.967,1.967,0,0,0-1.164-2.526,1.966,1.966,0,0,0-.984-.1Z" transform="translate(618.238 -568.719)" fill="#0af"/>
        </g>
        <g id="Grupo_14659" data-name="Grupo 14659" transform="translate(65.938 111.037)">
          <path id="Trazado_12457" data-name="Trazado 12457" d="M-605.815,582.4l-.567-.188a1.534,1.534,0,0,1-.919-.732,1.534,1.534,0,0,1-.131-1.168l.018-.056,1.1-3.4a1.537,1.537,0,0,1,1.9-1.053l.056.018.567.186a1.533,1.533,0,0,1,1.042,1.9h0l-.017.05-1.053,3.415a1.874,1.874,0,0,1-1.995,1.028Z" transform="translate(607.494 -575.747)" fill="none"/>
        </g>
        <g id="Grupo_14660" data-name="Grupo 14660" transform="translate(101.204 157.038)">
          <path id="Trazado_12458" data-name="Trazado 12458" d="M-573.144,621.891l-.272-.447,1.058-.665a3.23,3.23,0,0,1,3.881.144l.665.537-.325.414-.665-.529a2.725,2.725,0,0,0-3.262-.13Z" transform="translate(573.416 -620.2)" fill="#d54f1f"/>
        </g>
        <g id="Grupo_14661" data-name="Grupo 14661" transform="translate(118.051 158.638)" opacity="0.54">
          <ellipse id="Elipse_1044" data-name="Elipse 1044" cx="5.439" cy="3.715" rx="5.439" ry="3.715" transform="translate(0 0)" fill="#ff6700"/>
        </g>
        <g id="Grupo_14662" data-name="Grupo 14662" transform="translate(79.316 158.638)" opacity="0.54">
          <ellipse id="Elipse_1045" data-name="Elipse 1045" cx="5.439" cy="3.715" rx="5.439" ry="3.715" transform="translate(0 0)" fill="#ff6700"/>
        </g>
        <g id="Grupo_14663" data-name="Grupo 14663" transform="translate(103.186 163.223)">
          <path id="Trazado_12459" data-name="Trazado 12459" d="M-568.036,630.655a9.491,9.491,0,0,1-3.465-.649l.287-.644a7.63,7.63,0,0,0,9.64-3.186l.6.379a8.052,8.052,0,0,1-7.062,4.1Z" transform="translate(571.501 -626.176)" fill="#00347e"/>
        </g>
        <g id="Grupo_14664" data-name="Grupo 14664" transform="translate(76.797 135.685)">
          <circle id="Elipse_1046" data-name="Elipse 1046" cx="12.468" cy="12.468" r="12.468" transform="translate(0 0)" fill="#fff"/>
        </g>
        <g id="Grupo_14665" data-name="Grupo 14665" transform="translate(76.617 135.505)">
          <path id="Trazado_12460" data-name="Trazado 12460" d="M-584.528,624.69a12.649,12.649,0,0,1-12.647-12.649,12.648,12.648,0,0,1,12.652-12.649,12.648,12.648,0,0,1,12.646,12.647v0a12.66,12.66,0,0,1-12.651,12.649Zm0-24.966a12.3,12.3,0,0,0-12.309,12.294,12.3,12.3,0,0,0,12.294,12.308,12.3,12.3,0,0,0,12.309-12.294v-.016a12.308,12.308,0,0,0-12.294-12.27Z" transform="translate(597.175 -599.392)" fill="#031f59"/>
        </g>
        <g id="Grupo_14666" data-name="Grupo 14666" transform="translate(105.583 135.685)">
          <circle id="Elipse_1047" data-name="Elipse 1047" cx="12.468" cy="12.468" r="12.468" transform="translate(0 0)" fill="#fff"/>
        </g>
        <g id="Grupo_14667" data-name="Grupo 14667" transform="translate(105.401 135.505)">
          <path id="Trazado_12461" data-name="Trazado 12461" d="M-556.711,624.69a12.649,12.649,0,0,1-12.649-12.649,12.648,12.648,0,0,1,12.65-12.649,12.649,12.649,0,0,1,12.648,12.648h0a12.664,12.664,0,0,1-12.649,12.649Zm0-24.966a12.3,12.3,0,0,0-12.3,12.3,12.3,12.3,0,0,0,12.3,12.3,12.3,12.3,0,0,0,12.3-12.3v-.008a12.315,12.315,0,0,0-12.3-12.27Z" transform="translate(569.36 -599.392)" fill="#031f59"/>
        </g>
        <g id="Grupo_14668" data-name="Grupo 14668" transform="translate(88.558 147.063)">
          <path id="Trazado_12462" data-name="Trazado 12462" d="M-579.021,613.645a3.2,3.2,0,0,0-3.1-2.38,3.078,3.078,0,0,0-2.859,2.036l-.651-.265a3.78,3.78,0,0,1,3.51-2.474,3.888,3.888,0,0,1,3.782,2.919Z" transform="translate(585.636 -610.561)" fill="#00347e"/>
        </g>
        <g id="Grupo_14669" data-name="Grupo 14669" transform="translate(111.512 147.063)">
          <path id="Trazado_12463" data-name="Trazado 12463" d="M-556.84,613.645a3.2,3.2,0,0,0-3.1-2.38A3.073,3.073,0,0,0-562.8,613.3l-.649-.265a3.78,3.78,0,0,1,3.51-2.474,3.892,3.892,0,0,1,3.783,2.919Z" transform="translate(563.455 -610.561)" fill="#00347e"/>
        </g>
        <g id="Grupo_14670" data-name="Grupo 14670" transform="translate(101.557 148.01)">
          <path id="Trazado_12464" data-name="Trazado 12464" d="M-572.788,612.657l-.287-.379a3.208,3.208,0,0,1,4.243,0l-.332.339A2.735,2.735,0,0,0-572.788,612.657Z" transform="translate(573.075 -611.476)" fill="#031f59"/>
        </g>
        <g id="Grupo_14671" data-name="Grupo 14671" transform="translate(38.258 189.756)">
          <path id="Trazado_12465" data-name="Trazado 12465" d="M-633.2,658.935c-1.777-2.331-.758-6.923-.7-7.119l.507.112c0,.047-1.014,4.54.621,6.68Z" transform="translate(634.242 -651.816)" fill="#ff6700"/>
        </g>
        <g id="Grupo_14672" data-name="Grupo 14672" transform="translate(34.558 191.239)">
          <path id="Trazado_12466" data-name="Trazado 12466" d="M-633.912,657.3a4.539,4.539,0,0,1-3.3-1.627,3.331,3.331,0,0,1-.567-2.429l.347.068a2.981,2.981,0,0,0,.507,2.156,4.189,4.189,0,0,0,3.028,1.513Z" transform="translate(637.817 -653.249)" fill="#fca73b"/>
        </g>
        <g id="Grupo_14673" data-name="Grupo 14673" transform="translate(13.634 192.865)" opacity="0.19">
          <path id="Trazado_12467" data-name="Trazado 12467" d="M-642.9,676.443c2.519,0,5.833-4.775,5.833-4.775a13.986,13.986,0,0,1,3.851-14.591,2.274,2.274,0,0,0-1.331-.394h1.194a7.041,7.041,0,0,1-3.843-1.863c-2.519,2.919-4.909,5.839-7.429,8.623a14.977,14.977,0,0,1-3.585,3.45c-.8.529-1.725.931-2.521,1.459a11.123,11.123,0,0,0-1.857,1.727c-1.331,1.461-2.794,2.913-4.116,4.374a5.062,5.062,0,0,0-1.194,1.725,4.237,4.237,0,0,0-.13,1.331l.394.128C-650.995,674.854-642.9,676.443-642.9,676.443Z" transform="translate(658.036 -654.82)" fill="#ff6700"/>
        </g>
        <g id="Grupo_14674" data-name="Grupo 14674" transform="translate(164.965 161.427)">
          <path id="Trazado_12468" data-name="Trazado 12468" d="M-503.441,626.683l-8.361-1.725.1-.517,8.36,1.725Z" transform="translate(511.802 -624.441)" fill="#d54f1f"/>
        </g>
        <g id="Grupo_14675" data-name="Grupo 14675" transform="translate(164.09 229.254)">
          <path id="Trazado_12469" data-name="Trazado 12469" d="M-504.605,692.588a18.052,18.052,0,0,1-8.043-2.148l.272-.455c.076.047,7.626,4.38,13.511.414l.3.43a10.59,10.59,0,0,1-6.04,1.759Z" transform="translate(512.648 -689.984)" fill="#d54f1f"/>
        </g>
        <g id="Grupo_14676" data-name="Grupo 14676" transform="translate(108.575 162.717)">
          <path id="Trazado_12470" data-name="Trazado 12470" d="M-457.708,646.152s-3.026-11.94-28.659-13.271c0,0-14.064-1.725-22.952-6.1,0,0-10.343-4.382-21.628,4.372L-547,644.824s-8.623,12.6-18.158,14.723c0,0-1.331,5.575,5.832,3.85l-2.518,3.987a26.747,26.747,0,0,0-3.312,8.088l-.815,3.873a5.564,5.564,0,0,0,.27,4.381c.924,1.449,3.45,1.99,6.363-1.194,0,0,.931,8.888,8.231,1.323l2.271-3.715-.931,5.04a4.774,4.774,0,0,0,.758,3.322c1.06,1.323,2.919,2.268,5.969-1.6l7.831-14.723-3.587,10.88s-3.843,4.773-1.853,6.634c0,0,2.785,3.028,8.626-3.851l5.438-10.213s11.273-15.132,14.331-22.7l3.448-.659s4.54,4.775,13.4,7.157c0,0,7.43,2.794,7.959,6.9,0,0,7.317-1.6,15.677-9.436,0,0,12.052-5.954,15.626-6.6Z" transform="translate(566.293 -625.687)" fill="#ffaf97"/>
        </g>
        <g id="Grupo_14677" data-name="Grupo 14677" transform="translate(108.309 162.506)">
          <path id="Trazado_12471" data-name="Trazado 12471" d="M-538.749,690.6a2.879,2.879,0,0,1-2.07-.755c-2.05-1.915,1.423-6.438,1.815-6.939l2.611-7.9-6.386,12q-2.27,2.881-4.146,2.881h0a2.9,2.9,0,0,1-2.27-1.248,5.048,5.048,0,0,1-.854-3.51l.673-3.653-1.513,2.484c-2.466,2.573-4.494,3.57-6.053,3.026-1.733-.6-2.36-2.876-2.557-3.925a5.7,5.7,0,0,1-4.282,2.027,2.78,2.78,0,0,1-2.134-1.265,5.792,5.792,0,0,1-.3-4.593l.755-3.829a26.9,26.9,0,0,1,3.352-8.175l2.173-3.45c-2.2.43-3.781.174-4.721-.755a4.071,4.071,0,0,1-.809-3.542v-.158h.16c9.343-2.07,17.929-14.5,18.014-14.617l.052-.052L-531.18,631c11.273-8.762,21.79-4.464,21.9-4.418,8.76,4.312,22.742,6.051,22.879,6.051,25.261,1.31,28.7,12.764,28.872,13.445l1.7,4.4-.31.06c-3.472.644-16.631,7.9-15.482,9.223a110.477,110.477,0,0,1-15.951,6.823l-.167-.044v-.173c-.5-3.912-7.716-6.658-7.792-6.688a31.276,31.276,0,0,1-13.391-7.127l-3.17.613c-3.11,7.566-14.2,22.456-14.307,22.614l-5.424,10.175c-2.587,3.071-4.9,4.623-6.917,4.657Zm3.336-18.564.484.207-3.632,10.962c-1.02,1.27-3.366,4.887-1.875,6.271a2.383,2.383,0,0,0,1.772.6c1.271-.038,3.426-.834,6.468-4.426l5.41-10.168c.137-.188,11.309-15.222,14.312-22.7l.054-.128,3.737-.724.1.1c.046.046,4.54,4.751,13.278,7.089.325.12,7.4,2.813,8.125,6.934,1.2.265,8.023-.894,16.432-5.417.439-.4,10.425-9.5,14.29-10.592l-1.514-3.851c0-.12-3.336-11.771-28.416-13.074-.158,0-14.222-1.785-23.052-6.127-.09-.038-10.333-4.206-21.349,4.346L-546.8,644.967c-.477.679-8.89,12.587-18.158,14.767a3.435,3.435,0,0,0,.7,2.889c.893.878,2.521,1.044,4.851.485l.635-.152-2.875,4.54a26.425,26.425,0,0,0-3.246,8.057l-.755,3.843a5.394,5.394,0,0,0,.218,4.176,2.277,2.277,0,0,0,1.741,1.035c1.3.114,2.783-.689,4.22-2.27l.394-.43.06.583c0,.038.379,3.366,2.271,4.023,1.368.471,3.208-.49,5.492-2.851l2.958-4.9-1.188,6.454a4.546,4.546,0,0,0,.758,3.116,2.352,2.352,0,0,0,1.839,1.035h0c1.074,0,2.322-.886,3.715-2.641Z" transform="translate(566.55 -625.483)" fill="#d54f1f"/>
        </g>
        <g id="Grupo_14678" data-name="Grupo 14678" transform="translate(115.29 201.225)">
          <path id="Trazado_12472" data-name="Trazado 12472" d="M-559.312,681.306l-.492-.2,3.185-7.831,5.985-10.38.454.265-5.969,10.342Z" transform="translate(559.804 -662.899)" fill="#d54f1f"/>
        </g>
        <g id="Grupo_14680" data-name="Grupo 14680" transform="translate(124.474 206.286)">
          <g id="Grupo_14679" data-name="Grupo 14679">
            <rect id="Rectángulo_3322" data-name="Rectángulo 3322" width="14.602" height="0.522" transform="translate(0 12.872) rotate(-61.83)" fill="#d54f1f"/>
          </g>
        </g>
        <g id="Grupo_14681" data-name="Grupo 14681" transform="translate(162.635 184.112)">
          <path id="Trazado_12473" data-name="Trazado 12473" d="M-510.211,646.362s-.393,2.783-3.843,5.832" transform="translate(514.054 -646.362)" fill="#ffc75c"/>
        </g>
        <g id="Grupo_14682" data-name="Grupo 14682" transform="translate(162.461 184.074)">
          <path id="Trazado_12474" data-name="Trazado 12474" d="M-513.873,652.392l-.349-.393c3.322-2.943,3.783-5.652,3.783-5.674l.523.077C-509.963,646.515-510.363,649.315-513.873,652.392Z" transform="translate(514.222 -646.325)" fill="#d54f1f"/>
        </g>
        <g id="Grupo_14685" data-name="Grupo 14685" transform="translate(115.405 189.612)">
          <g id="Grupo_14684" data-name="Grupo 14684">
            <g id="Grupo_14683" data-name="Grupo 14683">
              <rect id="Rectángulo_3323" data-name="Rectángulo 3323" width="13.247" height="0.348" transform="matrix(0.571, -0.821, 0.821, 0.571, 0, 10.877)" fill="#d54f1f"/>
            </g>
          </g>
        </g>
        <g id="Grupo_14686" data-name="Grupo 14686" transform="translate(109.7 193.531)" opacity="0.19">
          <path id="Trazado_12475" data-name="Trazado 12475" d="M-565.206,659.836s5.969,2.27,10.742-4.372l-4.773,6.9C-559.374,662.493-564.012,664.087-565.206,659.836Z" transform="translate(565.206 -655.464)" fill="#ff6700"/>
        </g>
        <g id="Grupo_14687" data-name="Grupo 14687" transform="translate(158.13 197.65)">
          <path id="Trazado_12476" data-name="Trazado 12476" d="M-508.576,666.309c-2.557-5.629-9.79-6.339-9.831-6.348l.044-.517c.077,0,7.62.755,10.3,6.65Z" transform="translate(518.407 -659.444)" fill="#d54f1f"/>
        </g>
        <g id="Grupo_14688" data-name="Grupo 14688" transform="translate(37.227 21.602)">
          <path id="Trazado_12477" data-name="Trazado 12477" d="M-596.714,569.527h0c-7.514,1.336-24.367-11.247-28.3-29.741l-10.222-40.433,68.183-10.029-4.024,54.364C-571.358,556-584.417,570-596.714,569.527Z" transform="translate(635.238 -489.325)" fill="#ffaf97"/>
        </g>
        <g id="Grupo_14689" data-name="Grupo 14689" transform="translate(29.94 122.659)">
          <path id="Trazado_12478" data-name="Trazado 12478" d="M-627.044,586.979l-15.236,61.415h11.006l11.456-46.944Z" transform="translate(642.28 -586.979)" fill="#ff409e"/>
        </g>
        <g id="Grupo_14690" data-name="Grupo 14690" transform="translate(61.823 61.394)">
          <path id="Trazado_12479" data-name="Trazado 12479" d="M-604.947,545.779l-4.967-2.769a2.957,2.957,0,0,1-1.507-2.112,3.311,3.311,0,0,1,.785-2.769c3.22-3.786,1.65-10.155,1.631-10.219l.483-.133c.02.066,1.714,6.623-1.738,10.68a2.825,2.825,0,0,0-.67,2.354,2.465,2.465,0,0,0,1.254,1.759l4.973,2.769Z" transform="translate(611.471 -527.777)" fill="#d54f1f"/>
        </g>
        <g id="Grupo_14692" data-name="Grupo 14692" transform="translate(55.281 61.398)">
          <g id="Grupo_14691" data-name="Grupo 14691" transform="translate(0.027 0.083)">
            <ellipse id="Elipse_1048" data-name="Elipse 1048" cx="1.686" cy="2.402" rx="1.686" ry="2.402" transform="translate(0 0.344) rotate(-5.853)" fill="#031f59"/>
          </g>
          <path id="Trazado_12480" data-name="Trazado 12480" d="M-615.719,533.069c-1,0-1.907-1.058-2.05-2.446h0a3.224,3.224,0,0,1,.349-1.89,1.709,1.709,0,0,1,1.308-.946,1.588,1.588,0,0,1,1.19.387,3.071,3.071,0,0,1,1.006,2.052,3.244,3.244,0,0,1-.349,1.89,1.711,1.711,0,0,1-1.308.946A1.388,1.388,0,0,1-615.719,533.069Zm-1.552-2.5c.12,1.182.85,2.048,1.649,1.994a1.233,1.233,0,0,0,.922-.693,2.758,2.758,0,0,0,.289-1.593,2.575,2.575,0,0,0-.828-1.717,1.143,1.143,0,0,0-.822-.276,1.231,1.231,0,0,0-.922.693,2.723,2.723,0,0,0-.289,1.593Z" transform="translate(617.793 -527.781)" fill="#031f59"/>
        </g>
        <g id="Grupo_14694" data-name="Grupo 14694" transform="translate(78.954 59.792)">
          <g id="Grupo_14693" data-name="Grupo 14693" transform="translate(0.23 0.235)">
            <ellipse id="Elipse_1049" data-name="Elipse 1049" cx="2.402" cy="1.686" rx="2.402" ry="1.686" transform="translate(0 4.804) rotate(-89.484)" fill="#031f59"/>
          </g>
          <path id="Trazado_12481" data-name="Trazado 12481" d="M-592.99,531.533H-593c-1.068-.008-1.926-1.2-1.916-2.669h0a3.072,3.072,0,0,1,.813-2.138,1.61,1.61,0,0,1,1.132-.5h.017a1.715,1.715,0,0,1,1.391.822,3.235,3.235,0,0,1,.523,1.847C-591.057,530.357-591.928,531.533-592.99,531.533Zm-1.425-2.665c-.006,1.188.627,2.158,1.419,2.164h.006c.79,0,1.438-.956,1.449-2.138a2.714,2.714,0,0,0-.435-1.559,1.23,1.23,0,0,0-.982-.605h-.01a1.116,1.116,0,0,0-.783.353,2.558,2.558,0,0,0-.663,1.785Z" transform="translate(594.916 -526.229)" fill="#031f59"/>
        </g>
        <g id="Grupo_14695" data-name="Grupo 14695" transform="translate(50.024 55.202)">
          <path id="Trazado_12482" data-name="Trazado 12482" d="M-622.872,524.755a9.4,9.4,0,0,1,2.484-1.639,13.973,13.973,0,0,1,2.651-.924,14.251,14.251,0,0,1,2.782-.387,9.515,9.515,0,0,1,2.954.321l.034.146c-1.8.5-3.609.924-5.414,1.389-1.817.414-3.622.865-5.451,1.242Z" transform="translate(622.872 -521.793)" fill="#031f59"/>
        </g>
        <g id="Grupo_14696" data-name="Grupo 14696" transform="translate(75.395 53.965)">
          <path id="Trazado_12483" data-name="Trazado 12483" d="M-598.341,521.388a9.448,9.448,0,0,1,2.883-.724,13.767,13.767,0,0,1,2.808.014,14.134,14.134,0,0,1,2.753.561,9.476,9.476,0,0,1,2.677,1.284l-.017.15c-1.863-.124-3.711-.33-5.567-.495-1.851-.216-3.707-.391-5.552-.645Z" transform="translate(598.356 -520.598)" fill="#031f59"/>
        </g>
        <g id="Grupo_14697" data-name="Grupo 14697" transform="translate(66.13 82.284)">
          <path id="Trazado_12484" data-name="Trazado 12484" d="M-594.646,547.963s-10.257,3.18-12.663,1.973C-607.309,549.936-597.9,564.6-594.646,547.963Z" transform="translate(607.309 -547.963)" fill="#d54f1f"/>
        </g>
        <g id="Grupo_14698" data-name="Grupo 14698" transform="translate(51.904 16.759)">
          <path id="Trazado_12485" data-name="Trazado 12485" d="M-621.056,498.77c.905,6.083,5.246,11.033,9.624,15.35a20.263,20.263,0,0,0,6.277,4.681c2.43,1,5.444.98,7.47-.693a29.986,29.986,0,0,1-5.777-13.088c4.679,5.618,9.768,11.383,16.643,13.86,5.278,1.909,13.492,4.224,18.572,1.823,1.11-.525.036-3.777.758-4.771a8.946,8.946,0,0,0,1.282-4.021c1.172-7.837,2.216-16.314-1.552-23.279a4.917,4.917,0,0,0-1.235-1.613,5.517,5.517,0,0,0-2.41-.871,88.979,88.979,0,0,0-38,1.19,15.456,15.456,0,0,0-5.149,2.05c-2.091,1.462-3.4,3.777-4.606,6.027" transform="translate(621.056 -484.645)" fill="#031f59"/>
        </g>
        <g id="Grupo_14699" data-name="Grupo 14699" transform="translate(35.34 26.128)">
          <path id="Trazado_12486" data-name="Trazado 12486" d="M-620.971,497.893a36.5,36.5,0,0,0,6.292,18.9l-6.632,1.639a1.493,1.493,0,0,1-.931.026,1.448,1.448,0,0,1-.595-.631,36,36,0,0,1-4.477-11.114c-.633,5.045,1.5,9.969,2.553,14.941.058.268.8,2,.647,2.222a.883.883,0,0,1-.98.278c-2.142-.443-4.243,2.446-6.384,2-.621-.128-2.136-5.107-2.651-5.485a4.3,4.3,0,0,1-1.345-2.607,73.869,73.869,0,0,1-1.577-15.565c-.045-2.3.01-4.809,1.449-6.6a6.765,6.765,0,0,1,5.931-2.138,17.845,17.845,0,0,1,6.177,2.128" transform="translate(637.062 -493.698)" fill="#031f59"/>
        </g>
        <g id="Grupo_14700" data-name="Grupo 14700" transform="translate(47.521 25.369)">
          <path id="Trazado_12487" data-name="Trazado 12487" d="M-625.291,492.965s4.864,20.884,22.477,27.148a15.584,15.584,0,0,0,8.247-1.547s-10.74-9.245-8.865-19.731Z" transform="translate(625.291 -492.965)" fill="#031f59"/>
        </g>
        <g id="Grupo_14701" data-name="Grupo 14701" transform="translate(44.505 35.398)">
          <path id="Trazado_12488" data-name="Trazado 12488" d="M-621.208,502.656s4.7,13.9,10.9,17.179l-9.177,1.781s-8.486-5.205-8.718-18.42Z" transform="translate(628.205 -502.656)" fill="#031f59"/>
        </g>
        <g id="Grupo_14703" data-name="Grupo 14703" transform="translate(96.442 51.717)">
          <g id="Grupo_14702" data-name="Grupo 14702">
            <ellipse id="Elipse_1050" data-name="Elipse 1050" cx="6.512" cy="5.375" rx="6.512" ry="5.375" transform="translate(0 12.64) rotate(-76.049)" fill="#ffaf97"/>
          </g>
        </g>
        <g id="Grupo_14704" data-name="Grupo 14704" transform="translate(102.031 63.253)">
          <circle id="Elipse_1051" data-name="Elipse 1051" cx="2.237" cy="2.237" r="2.237" transform="translate(0 0)" fill="#fff"/>
        </g>
        <path id="Trazado_12489" data-name="Trazado 12489" d="M-581.19,549.992c-.1.463-.207.894-.321,1.308a14.092,14.092,0,0,0,1.438-.959l-1.119-1.958-13.909,2.166,1.363,2.656s.391.084,1.035.169c-.744-.972-1.2-1.719-1.2-1.719C-591.522,552.92-581.19,549.992-581.19,549.992Z" transform="translate(673.864 -465.665)" fill="#ffaf97"/>
        <path id="Trazado_12490" data-name="Trazado 12490" d="M-594.929,549.279c.1-.414.2-.852.289-1.316,0,0-10.257,3.18-12.663,1.973,0,0,.473.736,1.242,1.689A18.105,18.105,0,0,0-594.929,549.279Z" transform="translate(673.439 -465.679)" fill="#fff"/>
      </g>
      <g id="Grupo_14707" data-name="Grupo 14707" transform="translate(504.785 247.896)">
        <circle id="Elipse_1052" data-name="Elipse 1052" cx="2.23" cy="2.23" r="2.23" transform="translate(0 0)" fill="#fff"/>
      </g>
      <g id="Grupo_14708" data-name="Grupo 14708" transform="translate(485.31 229.748)">
        <path id="Trazado_12492" data-name="Trazado 12492" d="M-683.159,589.346a2.923,2.923,0,0,1,.567.154Z" transform="translate(683.159 -589.346)" fill="#ff7434"/>
      </g>
      <g id="Grupo_14709" data-name="Grupo 14709" transform="translate(499.384 264.28)">
        <circle id="Elipse_1053" data-name="Elipse 1053" cx="0.836" cy="0.836" r="0.836" transform="translate(0 0)" fill="#0061bc"/>
      </g>
      <g id="Grupo_14710" data-name="Grupo 14710" transform="translate(528.332 314.135)">
        <path id="Trazado_12493" data-name="Trazado 12493" d="M-627.85,672.957l-11.854,6.059-1.881-2.036,3.282-2.881s4.591-2.769,4.771-2.872c.274-.111,2.681-.336,2.681-.336Z" transform="translate(641.586 -670.891)" fill="#ff409e"/>
      </g>
      <g id="Grupo_14711" data-name="Grupo 14711" transform="translate(530.843 317.653)">
        <path id="Trazado_12494" data-name="Trazado 12494" d="M-627.3,674.291l-11.863,5.875,1.863,3.34,2.448.517s3.839-1.242,4.206-1.353a21.883,21.883,0,0,0,3.787-2.166,3.376,3.376,0,0,0,.835-1.721c.066-.469.293-1.413.293-1.413Z" transform="translate(639.16 -674.291)" fill="#ff409e"/>
      </g>
      <g id="Grupo_14712" data-name="Grupo 14712" transform="translate(532.273 319.341)">
        <path id="Trazado_12495" data-name="Trazado 12495" d="M-627.533,675.922s5.751,9.635,10,15.73l-9.75,5.381s-5.464-4.535-10.493-14.583Z" transform="translate(637.778 -675.922)" fill="#ff409e"/>
      </g>
      <g id="Grupo_14713" data-name="Grupo 14713" transform="translate(531.885 320.21)">
        <path id="Trazado_12496" data-name="Trazado 12496" d="M-624.768,676.762l-13.385,6.983,2.753.963a6.25,6.25,0,0,0,4.813-.455l2.173-1.147A6.737,6.737,0,0,0-624.9,677.7Z" transform="translate(638.153 -676.762)" fill="#ffc422"/>
      </g>
      <g id="Grupo_14714" data-name="Grupo 14714" transform="translate(527.791 312.294)">
        <path id="Trazado_12497" data-name="Trazado 12497" d="M-640.029,672.954l7.067-3.465a3.622,3.622,0,0,1,4.73,1.411l3.506,6.134-1.535.828-3.5-6.131c-.006-.092-.1-.086-.2-.174-1.993.948-8.153,3.992-10.415,5.141a1.312,1.312,0,0,0,.216.547l3.795,6.3-1.741.469-3.5-5.947a3.479,3.479,0,0,1-.347-2.865,3.841,3.841,0,0,1,1.924-2.248Z" transform="translate(642.109 -669.113)" fill="#ffc422"/>
      </g>
      <g id="Grupo_14715" data-name="Grupo 14715" transform="translate(515.69 254.23)">
        <circle id="Elipse_1054" data-name="Elipse 1054" cx="1.207" cy="1.207" r="1.207" transform="translate(0 0)" fill="#0061bc"/>
      </g>
      <g id="Grupo_14716" data-name="Grupo 14716" transform="translate(508.829 290.625)">
        <path id="Trazado_12498" data-name="Trazado 12498" d="M-660.432,650.2l.1.088c.321.724,2.119,4.627,3.254,6.613l2.226-1.8a16.219,16.219,0,0,0,.18-3.454,13.066,13.066,0,0,0-1.353-2.53,7.066,7.066,0,0,0-1.449-.942" transform="translate(660.432 -648.173)" fill="#0af"/>
      </g>
      <g id="Grupo_14717" data-name="Grupo 14717" transform="translate(496.074 253.606)">
        <path id="Trazado_12499" data-name="Trazado 12499" d="M-670,620.734s-1.851-1.479-2.759-6.081l2.014-2.252,1.975.355,1.426.571-.144.753Z" transform="translate(672.758 -612.401)" fill="#ffcdaa"/>
      </g>
      <g id="Grupo_14718" data-name="Grupo 14718" transform="translate(525.419 279.672)">
        <path id="Trazado_12500" data-name="Trazado 12500" d="M-639.069,646.458l-2.821-8.869s-2.354,2.829-2.438,3.02-.077,3.634-.066,3.821a8.266,8.266,0,0,0,.238.916Z" transform="translate(644.401 -637.589)" fill="#0af"/>
      </g>
      <g id="Grupo_14719" data-name="Grupo 14719" transform="translate(500.222 257.011)">
        <path id="Trazado_12501" data-name="Trazado 12501" d="M-639.1,650.156l-6.254-20.309-4.007-11.05c-3.1.056-12.537.8-16.765,7.606l-2.628-1.633c6.052-9.728,19.973-9.1,20.57-9.057l1.021.054,4.749,13.094,6.277,20.387Z" transform="translate(668.75 -615.691)" fill="#0061bc"/>
      </g>
      <g id="Grupo_14723" data-name="Grupo 14723" transform="translate(434.712 165.684)">
        <circle id="Elipse_1055" data-name="Elipse 1055" cx="1.208" cy="1.208" r="1.208" transform="translate(0 0)" fill="#0061bc"/>
      </g>
      <g id="Grupo_14726" data-name="Grupo 14726" transform="translate(406.343 226.688)">
        <path id="Trazado_12504" data-name="Trazado 12504" d="M-679.406,594.265l-26.633-7.876-27.9,5.576-23.7,8.371s-5.579,25.1,2.78,29.286,30.691,6.977,32.073,8.372,13.95,1.383,19.53-1.4,9.766-5.58,12.557-6.977,16.726-16.741,16.726-16.741Z" transform="translate(759.467 -586.389)" fill="#ffaf97"/>
      </g>
      <g id="Grupo_14727" data-name="Grupo 14727" transform="translate(444.946 360.615)">
        <path id="Trazado_12505" data-name="Trazado 12505" d="M-722.164,743.808a249.029,249.029,0,0,0,28.713-28h70.323l-6.746,28Z" transform="translate(722.164 -715.806)" fill="#0075dc"/>
      </g>
      <g id="Grupo_14738" data-name="Grupo 14738" transform="translate(466.799 159.341)" opacity="0.38">
        <path id="Trazado_12509" data-name="Trazado 12509" d="M-701.047,521.311s9.119-.242,7.7,10.476C-693.363,531.79-694.35,522.887-701.047,521.311Z" transform="translate(701.047 -521.311)" fill="#d98a32"/>
      </g>
      <g id="Grupo_14739" data-name="Grupo 14739" transform="translate(466.709 187.385)">
        <path id="Trazado_12510" data-name="Trazado 12510" d="M-701.134,549.576l3.691-1.166v.85a9.488,9.488,0,0,1-2.18.407,9.952,9.952,0,0,1-1.511-.091Z" transform="translate(701.134 -548.41)" fill="#ffc75c"/>
      </g>
      <g id="Grupo_14747" data-name="Grupo 14747" transform="translate(323.183 306.343)">
        <path id="Trazado_12514" data-name="Trazado 12514" d="M-817.29,666.409l-22.536,99.7,24.261,18.9,32.556-69.157,2.532-26.1,2.536-18.6s-6.342-3.336-5.556-6.673S-817.29,666.409-817.29,666.409Z" transform="translate(839.826 -663.362)" fill="#ffaf97"/>
      </g>
      <g id="Grupo_14748" data-name="Grupo 14748" transform="translate(345.445 253.714)">
        <path id="Trazado_12515" data-name="Trazado 12515" d="M-791.09,612.505l-4.967,3.272a34.865,34.865,0,0,0-11.922,17.667l-10.335,35.574,34.241,3.628,1.053-25.365-2.656-17.819C-786.09,626.342-791.09,612.505-791.09,612.505Z" transform="translate(818.314 -612.505)" fill="#1c5cc1"/>
      </g>
      <g id="Grupo_14749" data-name="Grupo 14749" transform="translate(222.725 428.438)">
        <path id="Trazado_12516" data-name="Trazado 12516" d="M-805.4,781.345-908,793.394a37.093,37.093,0,0,0-27.98,44.372v.015l27.547,155.649,41.216,5.847V853.6l71.136-.661,31.909-58.338Z" transform="translate(936.901 -781.345)" fill="#0098ff"/>
      </g>
      <g id="Grupo_14750" data-name="Grupo 14750" transform="translate(356.531 232.558)">
        <path id="Trazado_12517" data-name="Trazado 12517" d="M-631.872,608.147l-6.492-2.132c-23.932-7.42-31.935-10.068-46.52-13.95,1.394-.368-5.9,32.416-29.286,37.285-17.019,3.538-35.091-2.282-33.8-32.173,0-.571-43.386,15.915-43.386,15.915L-807.6,791.114l149.226,19.518,28.25-116.932Z" transform="translate(807.601 -592.062)" fill="#1c5cc1"/>
      </g>
      <g id="Grupo_14751" data-name="Grupo 14751" transform="translate(353.757 306.143)">
        <path id="Trazado_12518" data-name="Trazado 12518" d="M-664.271,663.168s-17.755,68.372-146.011,131.124l152.013,13.95,27.9-115.74Z" transform="translate(810.282 -663.168)" fill="#134aa3"/>
      </g>
      <g id="Grupo_14752" data-name="Grupo 14752" transform="translate(496.335 239.497)">
        <path id="Trazado_12519" data-name="Trazado 12519" d="M-614.954,665.882l-57.552,2.333,6.761-69.448,26.285,7.991a32.555,32.555,0,0,1,8.229,3.8,34.916,34.916,0,0,1,15.792,33.177Z" transform="translate(672.506 -598.767)" fill="#1c5cc1"/>
      </g>
      <g id="Grupo_14753" data-name="Grupo 14753" transform="translate(358.93 412.244)">
        <path id="Trazado_12520" data-name="Trazado 12520" d="M-768.918,768.232l-29.956,10.142c-4.6,1.877-4.274,6.049-5.987,10.718h0a6.883,6.883,0,0,0,3.247,8.458l6.339,3.324a6.831,6.831,0,0,0,9.224-2.84c.082-.154.156-.31.227-.471l1.269-2.8,13.123-1.95a14.953,14.953,0,0,0,11.123-7.989l.811-1.6,10.92-1.623-5.835-15.9-11.579,1.725A12.89,12.89,0,0,0-768.918,768.232Z" transform="translate(805.283 -765.696)" fill="#ffaf97"/>
      </g>
      <g id="Grupo_14756" data-name="Grupo 14756" transform="translate(489.32 272.513)">
        <g id="Grupo_14755" data-name="Grupo 14755">
          <g id="Grupo_14754" data-name="Grupo 14754">
            <rect id="Rectángulo_3329" data-name="Rectángulo 3329" width="45.361" height="1.549" transform="translate(0 45.069) rotate(-83.499)" fill="#132787"/>
          </g>
        </g>
      </g>
      <g id="Grupo_14757" data-name="Grupo 14757" transform="translate(467.127 221.236)">
        <path id="Trazado_12521" data-name="Trazado 12521" d="M-698.408,582.844c-1-.683-1.759-1.269-2.322-1.723A22.887,22.887,0,0,0-698.408,582.844Z" transform="translate(700.73 -581.121)" fill="none"/>
      </g>
      <g id="Grupo_14758" data-name="Grupo 14758" transform="translate(399.278 307.919)">
        <path id="Trazado_12522" data-name="Trazado 12522" d="M-669.606,664.885l-2.84,70.081L-766.3,773.648v16.615l116.879-13.952A34.09,34.09,0,0,0-619.508,746l7.874-75.436Z" transform="translate(766.294 -664.885)" fill="#ffaf97"/>
      </g>
      <g id="Grupo_14759" data-name="Grupo 14759" transform="translate(489.017 294.678)">
        <path id="Trazado_12523" data-name="Trazado 12523" d="M-679.577,676.136l61.788,4.553a3.134,3.134,0,0,0,3.349-2.855l1.584-18.643a2.535,2.535,0,0,0-2.288-2.759h0l-.066-.006-61.574-4.336Z" transform="translate(679.577 -652.09)" fill="#132787"/>
      </g>
      <g id="Grupo_14764" data-name="Grupo 14764" transform="translate(461.078 156.337)">
        <path id="Trazado_12528" data-name="Trazado 12528" d="M-706.487,518.408l-.088.76A5.354,5.354,0,0,1-706.487,518.408Z" transform="translate(706.575 -518.408)" fill="#00418b"/>
      </g>
      <g id="Grupo_14772" data-name="Grupo 14772" transform="translate(352.353 311.748)" opacity="0.19">
        <path id="Trazado_12532" data-name="Trazado 12532" d="M-803.268,668.585-811.639,716l11.5-5.746,3.842-40.266Z" transform="translate(811.639 -668.585)" fill="#ff6700"/>
      </g>
      <g id="Grupo_14773" data-name="Grupo 14773" transform="translate(344.385 297.437)">
        <path id="Trazado_12533" data-name="Trazado 12533" d="M-817.04,668.852l20.063,3.324.724-15.739-18.757-1.675a2.538,2.538,0,0,0-2.677,2.194l-1.585,8.409A2.94,2.94,0,0,0-817.04,668.852Z" transform="translate(819.338 -654.756)" fill="#132787"/>
      </g>
      <g id="Grupo_14774" data-name="Grupo 14774" transform="translate(365.981 279.465)">
        <path id="Trazado_12534" data-name="Trazado 12534" d="M-796.928,672.854l-1.542-.145,3.285-35.321,1.542.145Z" transform="translate(798.47 -637.389)" fill="#132787"/>
      </g>
      <g id="Grupo_14775" data-name="Grupo 14775" transform="translate(257.641 352.373)">
        <path id="Trazado_12535" data-name="Trazado 12535" d="M-790.427,707.842l-111.77,2.091a.982.982,0,0,0-.964,1,.975.975,0,0,0,.024.2l19.38,85.789,110.159-.585-15.844-87.686a.982.982,0,0,0-.985-.809Z" transform="translate(903.161 -707.842)" fill="#fff"/>
      </g>
      <g id="Grupo_14776" data-name="Grupo 14776" transform="translate(281.23 434.399)">
        <rect id="Rectángulo_3332" data-name="Rectángulo 3332" width="101.801" height="1.548" fill="#b9d4ef"/>
      </g>
      <g id="Grupo_14777" data-name="Grupo 14777" transform="translate(271.959 428.682)">
        <path id="Trazado_12536" data-name="Trazado 12536" d="M-652.741,794.313l-156.191-12.557c-20.544-2.1-41.394,15.018-45.185,35.333l-35.208,190.577,36.373,10.387s39.836-98.238,62.143-163.78l92.412.517c18.592.659,33.432-11.249,38.186-30.438Z" transform="translate(889.325 -781.581)" fill="#0af"/>
      </g>
      <g id="Grupo_14778" data-name="Grupo 14778" transform="translate(295.816 439.311)">
        <path id="Trazado_12537" data-name="Trazado 12537" d="M-863.331,999.385l-2.941-.967L-812.6,835.4a16.475,16.475,0,0,1,16.094-11.211l72.594,2.423c15.168.894,26.718-2.459,34.4-9.944,10.381-10.121,10.025-24.567,10.018-24.711l3.093-.1c.024.644.433,15.911-10.922,27.01-8.325,8.137-20.676,11.8-36.728,10.846l-72.555-2.418a13.257,13.257,0,0,0-13.052,9.089Z" transform="translate(866.272 -791.852)" fill="#1c5cc1"/>
      </g>
      <g id="Grupo_14779" data-name="Grupo 14779" transform="translate(464.895 389.638)">
        <path id="Trazado_12538" data-name="Trazado 12538" d="M-681.575,766.8c-2.491-21.153-21.125-21.4-21.312-21.4v-1.552c.2,0,20.2.261,22.849,22.767Z" transform="translate(702.887 -743.852)" fill="#d54f1f"/>
      </g>
      <g id="Grupo_14780" data-name="Grupo 14780" transform="translate(452.633 393.934)">
        <path id="Trazado_12539" data-name="Trazado 12539" d="M-691.519,766.8c-6.209-19.861-22.261-17.233-22.941-17.111l-.276-1.524c.182-.026,18.061-3.024,24.7,18.175Z" transform="translate(714.736 -748.003)" fill="#d54f1f"/>
      </g>
      <g id="Grupo_14781" data-name="Grupo 14781" transform="translate(447.381 396.871)">
        <path id="Trazado_12540" data-name="Trazado 12540" d="M-703.07,771.72c-1.242-18.538-16.11-19.307-16.741-19.332l.054-1.547c.167.006,16.9.815,18.232,20.775Z" transform="translate(719.811 -750.841)" fill="#d54f1f"/>
      </g>
      <g id="Grupo_14782" data-name="Grupo 14782" transform="translate(439.154 399.38)">
        <path id="Trazado_12541" data-name="Trazado 12541" d="M-711.621,773.046l-1.545-.114c.5-6.57-1.188-11.538-5.021-14.769a13.9,13.9,0,0,0-8.8-3.328l-.769-1.321c.8-.621,4.713-.09,8,1.708C-715.6,757.5-710.817,762.439-711.621,773.046Z" transform="translate(727.761 -753.266)" fill="#d54f1f"/>
      </g>
      <g id="Grupo_14783" data-name="Grupo 14783" transform="translate(432.937 400.521)">
        <path id="Trazado_12542" data-name="Trazado 12542" d="M-721.833,774.27l-1.526-.255c2.436-14.689-9.882-18.006-10.41-18.147l.379-1.5C-733.246,754.407-719.158,758.156-721.833,774.27Z" transform="translate(733.769 -754.368)" fill="#d54f1f"/>
      </g>
      <g id="Grupo_14784" data-name="Grupo 14784" transform="translate(493.009 376.963)">
        <path id="Trazado_12543" data-name="Trazado 12543" d="M-646.284,745.974c-7.358-15.675-28.981-12.591-29.2-12.565l-.235-1.529c.231-.034,22.986-3.29,30.839,13.435Z" transform="translate(675.72 -731.603)" fill="#d54f1f"/>
      </g>
      <g id="Grupo_14785" data-name="Grupo 14785" transform="translate(493.127 319.206)" opacity="0.19">
        <path id="Trazado_12544" data-name="Trazado 12544" d="M-673.2,675.792l-2.409,58.809s16.334-2.22,25.808,7l4.21-63.78Z" transform="translate(675.606 -675.792)" fill="#ff6700"/>
      </g>
      <g id="Grupo_14790" data-name="Grupo 14790" transform="translate(305.091 378.679)">
        <circle id="Elipse_1058" data-name="Elipse 1058" cx="14.496" cy="14.496" r="14.496" transform="translate(0 0)" fill="#d3e2f4"/>
      </g>
      <g id="Grupo_14793" data-name="Grupo 14793" transform="translate(647.285 322.696)">
        <g id="Grupo_14791" data-name="Grupo 14791" transform="translate(0.788 0.999)">
          <path id="Trazado_12549" data-name="Trazado 12549" d="M-525.878,705.124s23.181-29.533,51.465-24.4" transform="translate(525.878 -680.129)" fill="#d3e2f4"/>
        </g>
        <path id="Trazado_12550" data-name="Trazado 12550" d="M-525.062,705.775l-1.577-1.242c.236-.3,23.866-29.943,52.433-24.762l-.36,1.971C-501.907,676.772-524.834,705.485-525.062,705.775Z" transform="translate(526.639 -679.164)" fill="#d3e2f4"/>
        <g id="Grupo_14792" data-name="Grupo 14792" transform="translate(0.423 0.549)">
          <path id="Trazado_12551" data-name="Trazado 12551" d="M-525.506,705.423l-.724-.565a83.525,83.525,0,0,1,15.212-14.216c8.584-6.2,21.922-13.028,36.69-10.349l-.165.9c-14.433-2.615-27.527,4.086-35.97,10.179a82.683,82.683,0,0,0-15.043,14.051Z" transform="translate(526.23 -679.695)" fill="#d3e2f4"/>
        </g>
      </g>
      <g id="Grupo_14795" data-name="Grupo 14795" transform="translate(684.626 290.366)">
        <g id="Grupo_14794" data-name="Grupo 14794" transform="translate(0.983 0.915)">
          <path id="Trazado_12552" data-name="Trazado 12552" d="M-489.606,667.83s6.076-21.774,40.283-18.731" transform="translate(489.606 -648.807)" fill="#a9cbfc"/>
        </g>
        <path id="Trazado_12553" data-name="Trazado 12553" d="M-488.59,668.085l-1.966-.449c.062-.227,6.682-22.5,41.366-19.42l-.2,1.832c-13.685-1.222-24.8,1.535-32.163,7.968a23.468,23.468,0,0,0-7.037,10.069Z" transform="translate(490.556 -647.923)" fill="#a9cbfc"/>
      </g>
      <g id="Grupo_14800" data-name="Grupo 14800" transform="translate(164.741 55.36)">
        <rect id="Rectángulo_3333" data-name="Rectángulo 3333" width="794.15" height="395.215" fill="none"/>
      </g>
      <g id="Grupo_14802" data-name="Grupo 14802" transform="translate(550.92 181.074)">
        <path id="Trazado_12559" data-name="Trazado 12559" d="M-596.915,567.78c-12.625,0-22.74-15.343-22.844-15.5l.414-.272c.1.158,10.07,15.274,22.421,15.274.437,0,.876-.02,1.32-.06,8.754-.773,16.565-9.155,23.209-24.908l.463.2c-6.727,15.937-14.675,24.422-23.628,25.212C-596.011,567.76-596.466,567.78-596.915,567.78Z" transform="translate(619.759 -542.312)" fill="#d54f1f"/>
      </g>
      <g id="Grupo_14803" data-name="Grupo 14803" transform="translate(587.338 171.108)">
        <path id="Trazado_12560" data-name="Trazado 12560" d="M-572.053,532.681S-574.5,549.267-584.568,555c0,0,8.107,8.718,17.753,5.642l6.106-11.326Z" transform="translate(584.568 -532.681)" fill="#031f59"/>
      </g>
      <g id="Grupo_14804" data-name="Grupo 14804" transform="translate(566.95 135.511)">
        <path id="Trazado_12561" data-name="Trazado 12561" d="M-604.269,501.82c.567,3.915,3.546,7.149,7.027,9.031s7.451,2.621,11.347,3.3a28.38,28.38,0,0,1,6.623,1.708,9.3,9.3,0,0,1,4.921,4.553l8.456-2.81-6.8-12.24-16.868-7.084h-8.2Z" transform="translate(604.269 -498.283)" fill="#031f59"/>
      </g>
      <path id="Trazado_12562" data-name="Trazado 12562" d="M-479.286,677.327s-32.21,1.218-43.5,28.512" transform="translate(1174.059 -356.532)" fill="#d3e2f4" stroke="#a5caef" stroke-miterlimit="10" stroke-width="1"/>
      <rect id="Rectángulo_3334" data-name="Rectángulo 3334" width="657.937" height="345.184" transform="translate(172.784 99.457)" fill="none"/>
      <path id="Trazado_12563" data-name="Trazado 12563" d="M-958.274,823.533a14.343,14.343,0,0,0-10.878,4.478c-4.48,4.8-5.079,11.932-5.442,18.484" transform="translate(1158.313 -351.437)" fill="none" stroke="#274587" stroke-miterlimit="10" stroke-width="0.25"/>
      <g id="Grupo_14812" data-name="Grupo 14812" transform="translate(27.563 334.894)">
        <path id="Trazado_12564" data-name="Trazado 12564" d="M-294.9,707.538c-.38.456-.781.887-1.2,1.3a8.247,8.247,0,0,1-1.125,1.453.722.722,0,0,1-.145.2,17.821,17.821,0,0,1-3.322,3.012c-.855.535-1.769.938-2.63,1.453a6.434,6.434,0,0,1-2.27.828c-.6.1-1.092.337-1.7-.082-.874-.6-1.245-1.953-.323-2.435a1.1,1.1,0,0,1,.143-.127c.172-.114.332-.252.508-.359a1.891,1.891,0,0,1,.581-.238c.155-.075.306-.153.461-.228,1.125-.7,2.2-1.465,3.3-2.2a.849.849,0,0,1,.136-.072,3.685,3.685,0,0,1,.767-.467,25.162,25.162,0,0,0,5.333-5.112,39.7,39.7,0,0,0-9.059-10.742,54.217,54.217,0,0,1-1.185,5.937c-.874,3.211-1.612,6.709-3.773,9.1a1.653,1.653,0,0,1-1.147.586,1.291,1.291,0,0,1-.379-.049,1.585,1.585,0,0,1-.722-.182c-1.675-.864-1.422-2.731-.494-4.043a24.11,24.11,0,0,1,1.536-1.875c.214-.247.434-.492.63-.753.047-.068.091-.137.133-.208a1.225,1.225,0,0,0,.086-.2c-.009.026-.027.08-.058.176a1.523,1.523,0,0,1,.774-.926,1.06,1.06,0,0,1,.08-.242c.051-.112.092-.222.138-.336.275-1.06.5-2.1.715-3.037a37,37,0,0,0-.366-6.914,33.668,33.668,0,0,0-7.87-3.32,26.851,26.851,0,0,1-.006,6.944A14.191,14.191,0,0,1-318.8,700.4c-.413.833-1.453.379-1.926-.406-.655-1.093.151-2.163.411-3.115a13.218,13.218,0,0,0,.45-3.394,23.976,23.976,0,0,0-1.207-6.975c-1.678-.355-3.3-.615-4.807-.811a27.823,27.823,0,0,0-.648,5.687c0,.389,0,1.063-.43,1.134a.854.854,0,0,1-.58-.169,2.667,2.667,0,0,1-.988-1.329c-.708-1.92-.3-3.811.042-5.607-3.315-.3-5.562-.269-5.562-.269a64.98,64.98,0,0,0-3.274,10.673,20.426,20.426,0,0,0,5.388,2.244,10.07,10.07,0,0,0,2.793.3,2.542,2.542,0,0,1,2.319,1.014,1.115,1.115,0,0,1,.294.792c-.121.878-1.631.691-2.22.827-2.917.676-6.175.134-9.325-.85a35.429,35.429,0,0,0-.065,9.757c.6.112,1.215.209,1.818.279.23,0,.458-.008.685-.016a15.192,15.192,0,0,0,5-1.12,29.055,29.055,0,0,0,4.311-2.44,2.353,2.353,0,0,1,.754-.344,1.016,1.016,0,0,1,.848.2,1.2,1.2,0,0,1,.287,1.327,4.7,4.7,0,0,1-1.444,1.706,20.185,20.185,0,0,1-2.353,1.538,13.926,13.926,0,0,1-5.315,1.708,34.649,34.649,0,0,1-3.955.142,44.355,44.355,0,0,0,2.61,7.2c.1-.009.209-.018.315-.024,1.825-.358,3.644-.729,5.478-1.042a1.162,1.162,0,0,1,.339,0c.6-.141,1.2-.292,1.8-.46a.834.834,0,0,1,.1-.021,16.894,16.894,0,0,0,5.482-3.125.885.885,0,0,1,.94-.183,1.457,1.457,0,0,1,1.121.4c6.217,5.59-8.444,8.638-13.5,8.313a30.1,30.1,0,0,0,5.028,6.341,31.627,31.627,0,0,0,3.422,2.57,10.324,10.324,0,0,0,6.406,1.523c4.744-.6,4.068-7.679,9.213-11.092s11.679-.218,14.073-4.358C-292.94,715.924-293.152,711.857-294.9,707.538Z" transform="translate(356.495 -682.075)" fill="#a9cbfc"/>
        <path id="Trazado_12565" data-name="Trazado 12565" d="M-345.742,743.626l-.029-.007c-3.806-.859-7.947-1.711-12.407-2.516a34.214,34.214,0,0,0,1.578,4.014,7.258,7.258,0,0,1,4.027-1.168,2.155,2.155,0,0,1,1.2.466.724.724,0,0,1,.267.393c.055.326-.428.461-.706.539a19.225,19.225,0,0,0-3.9,1.592c.537,1.045,1.154,2.159,1.851,3.293a17.385,17.385,0,0,0,5.343-.477,9.965,9.965,0,0,0,2.412-1.024c.641-.384,1.2-1.174,2.258-.963.761.151,1.466.763.951,1.234a10.856,10.856,0,0,1-4.186,2.321,19.657,19.657,0,0,1-5.129,1.4,24.487,24.487,0,0,0,4.552,4.958,33.473,33.473,0,0,0,5.677-1.367c.7-.374,1.486-.783,2.27-1.228.079-.059.157-.113.232-.176a.985.985,0,0,1,.414-.2,3.321,3.321,0,0,0,.917-.583,10.194,10.194,0,0,0,.879-.653,7.583,7.583,0,0,0,1.2-.956,7.636,7.636,0,0,1,.643-.93,1.491,1.491,0,0,1,1.265-.416,1.317,1.317,0,0,1,.978.675.972.972,0,0,1-.091.924c-1.228,2.043-3.909,3.4-6.323,4.8-1.452.842-3.019,1.585-4.606,2.306a45.5,45.5,0,0,0,11.067,4.113,18.907,18.907,0,0,0,3.014-5.169,2.778,2.778,0,0,1,.2-.676.651.651,0,0,1,.026-.118c.33-.984.676-1.946.924-2.915.017-.128.037-.256.053-.384a1.276,1.276,0,0,1,.024-.469c.036-.15.1-.294.141-.443a.7.7,0,0,1,.06-.131c.111-.762,1.3-.786,2.028-.277.509.356.464.76.556,1.217a4.289,4.289,0,0,1-.028,1.826c-.175.735-.318,1.532-.566,2.3a15.061,15.061,0,0,1-1.766,3.208.671.671,0,0,1-.131.154,7.045,7.045,0,0,1-.957,1.179c-.26.41-.534.811-.83,1.2,3.717.509,6.632.135,8.7-1.812,2.857-2.693-.72-7.354.433-11.773C-324.358,749.4-333.117,746.478-345.742,743.626Z" transform="translate(358.179 -686.85)" fill="#84b7f4"/>
        <path id="Trazado_12566" data-name="Trazado 12566" d="M-337.316,695.818a20.437,20.437,0,0,0,5.388,2.244,10.072,10.072,0,0,0,2.793.3,2.542,2.542,0,0,1,2.319,1.014,1.115,1.115,0,0,1,.294.792c-.121.878-1.631.691-2.22.827-2.917.676-6.175.133-9.325-.85a35.428,35.428,0,0,0-.065,9.757c.6.112,1.215.209,1.818.279.23,0,.458-.008.685-.016a15.189,15.189,0,0,0,5-1.12,29.058,29.058,0,0,0,4.311-2.44,2.355,2.355,0,0,1,.754-.344,1.016,1.016,0,0,1,.848.2,1.2,1.2,0,0,1,.287,1.327,4.7,4.7,0,0,1-1.444,1.706,20.2,20.2,0,0,1-2.353,1.538,13.928,13.928,0,0,1-5.315,1.708,34.593,34.593,0,0,1-3.955.142,44.356,44.356,0,0,0,2.61,7.2c.1-.009.209-.018.315-.024,1.825-.358,3.644-.729,5.478-1.042a1.139,1.139,0,0,1,.339,0c.6-.141,1.2-.292,1.8-.46a.7.7,0,0,1,.1-.021,16.894,16.894,0,0,0,5.482-3.124.885.885,0,0,1,.94-.183,1.457,1.457,0,0,1,1.121.4c6.217,5.59-8.444,8.638-13.5,8.313a30.082,30.082,0,0,0,5.028,6.341,31.4,31.4,0,0,0,3.422,2.57,10.325,10.325,0,0,0,6.406,1.523c4.744-.6,4.067-7.679,9.213-11.092-2.523-4.661-20.983-31.335-25.3-38.131a64.984,64.984,0,0,0-3.274,10.671Z" transform="translate(356.495 -682.075)" fill="#84b7f4"/>
        <g id="Grupo_14805" data-name="Grupo 14805" transform="translate(66.623)">
          <path id="Trazado_12567" data-name="Trazado 12567" d="M-283.629,699.766c.321.426.656.833,1,1.227a7.472,7.472,0,0,0,.894,1.355.614.614,0,0,0,.112.184A16.5,16.5,0,0,0-279,705.393c.683.521,1.426.93,2.1,1.434a5.042,5.042,0,0,0,1.848.859c.5.119.894.357,1.484.016.841-.486,1.379-1.674.648-2.152a.855.855,0,0,0-.106-.122c-.133-.111-.252-.242-.39-.348a1.471,1.471,0,0,0-.473-.242c-.124-.075-.247-.153-.371-.228-.885-.68-1.728-1.422-2.615-2.137a.743.743,0,0,0-.113-.072,2.9,2.9,0,0,0-.627-.456,25.343,25.343,0,0,1-4.377-4.839,42.315,42.315,0,0,1,9.13-9.1c.284,1.81.529,3.607.884,5.356.592,2.908.725,6.073,2.252,8.31a1.265,1.265,0,0,0,.92.583,1.206,1.206,0,0,0,.345-.025,1.513,1.513,0,0,0,.672-.123,2.457,2.457,0,0,0,1.387-1.53,2.457,2.457,0,0,0-.27-2.048,16.2,16.2,0,0,0-1.091-1.753c-.157-.231-.316-.462-.466-.705-.035-.062-.067-.128-.1-.192a1.584,1.584,0,0,1-.057-.178l.034.16a2.521,2.521,0,0,0-.61-.866.914.914,0,0,0-.05-.22c-.037-.1-.063-.2-.1-.306-.157-.959-.29-1.9-.438-2.745-.058-1.972.275-4.087.376-6.146a28.726,28.726,0,0,1,6.826-2.544c.055,2.076.184,4.167.413,6.191a16.315,16.315,0,0,0,.884,5.441c.275.764,1.23.414,1.7-.26.66-.937.04-1.936-.134-2.8a16,16,0,0,1-.293-3.05,36.137,36.137,0,0,1,.631-6.154c1.457-.228,2.889-.373,4.224-.469a18.194,18.194,0,0,1,.819,5.1c0,.347.006.947.366,1.034a.678.678,0,0,0,.491-.121,2.182,2.182,0,0,0,.84-1.132,8.458,8.458,0,0,0-.2-5c2.957-.094,4.973.054,4.973.054a49.228,49.228,0,0,1,2.4,9.687,15.67,15.67,0,0,1-4.528,1.716,7.883,7.883,0,0,1-2.339.118,2.107,2.107,0,0,0-2.006.781,1.067,1.067,0,0,0-.3.691c.044.785,1.331.7,1.817.854a14.031,14.031,0,0,0,7.761-.265,31.4,31.4,0,0,1-.473,8.7c-.551.068-1.107.123-1.656.153-.206-.016-.412-.031-.615-.05A12.712,12.712,0,0,1-251.9,703a20.891,20.891,0,0,1-3.449-2.4,1.81,1.81,0,0,0-.606-.347.927.927,0,0,0-.766.129,1.2,1.2,0,0,0-.455,1.169,3.56,3.56,0,0,0,1.01,1.6,14.584,14.584,0,0,0,1.868,1.5,11.574,11.574,0,0,0,4.6,1.8,32.393,32.393,0,0,0,3.631.335,38.884,38.884,0,0,1-2.986,6.282c-.1-.014-.2-.026-.3-.038-1.728-.414-3.444-.861-5.13-1.218a1.094,1.094,0,0,0-.317-.016c-.554-.157-1.1-.324-1.644-.5a.709.709,0,0,0-.091-.024,12.673,12.673,0,0,1-4.585-3.075.752.752,0,0,0-.815-.213,1.438,1.438,0,0,0-1.066.294c-6.444,4.654,6.934,8.147,11.766,8.124a32.4,32.4,0,0,1-4.793,5.386c-1.646,1.239-1.635,1.239-2.971,2.111a8.42,8.42,0,0,1-5.6,1.018c-4.416-.781-4.3-7.059-8.488-10.374s-9.754-.813-11.485-4.63C-285.826,707.14-285.565,703.524-283.629,699.766Z" transform="translate(285.34 -681.789)" fill="#a9cbfc"/>
          <path id="Trazado_12568" data-name="Trazado 12568" d="M-247.621,681.874s-2.016-.148-4.973-.054a8.458,8.458,0,0,1,.2,5,2.178,2.178,0,0,1-.84,1.132.678.678,0,0,1-.491.121c-.359-.088-.362-.688-.366-1.034a18.194,18.194,0,0,0-.819-5.1c-1.334.1-2.767.242-4.224.469a36.137,36.137,0,0,0-.631,6.154,16,16,0,0,0,.293,3.052c.174.86.794,1.86.134,2.8-.474.673-1.429,1.024-1.7.259a16.315,16.315,0,0,1-.884-5.441c-.229-2.024-.358-4.114-.413-6.191a28.726,28.726,0,0,0-6.826,2.544c-.1,2.059-.434,4.174-.376,6.146.148.842.281,1.785.438,2.745.032.1.059.206.1.306a.913.913,0,0,1,.05.22,2.522,2.522,0,0,1,.61.866l-.034-.16a1.583,1.583,0,0,0,.057.178c.031.064.063.13.1.192.149.243.308.474.466.705a16.251,16.251,0,0,1,1.091,1.753,2.457,2.457,0,0,1,.27,2.048,2.457,2.457,0,0,1-1.387,1.53,1.53,1.53,0,0,1-.672.124,1.24,1.24,0,0,1-.345.024,1.265,1.265,0,0,1-.92-.583c-1.527-2.236-1.66-5.4-2.252-8.31-.355-1.749-.6-3.547-.884-5.356a42.333,42.333,0,0,0-9.13,9.1,25.324,25.324,0,0,0,4.377,4.84,2.9,2.9,0,0,1,.627.456.748.748,0,0,1,.113.072c.887.714,1.73,1.457,2.615,2.137.124.075.247.153.371.228a1.471,1.471,0,0,1,.473.242c.138.1.257.237.39.348a.853.853,0,0,1,.106.122c.732.478.194,1.667-.647,2.152-.591.341-.98.1-1.485-.016a5.026,5.026,0,0,1-1.848-.858c-.677-.5-1.419-.914-2.1-1.434a16.475,16.475,0,0,1-2.621-2.862.6.6,0,0,1-.112-.183,7.475,7.475,0,0,1-.894-1.355c-.345-.394-.68-.8-1-1.227-1.936,3.758-2.2,7.374-.947,10.133,1.731,3.817,7.3,1.314,11.485,4.63C-267.982,710.245-247.621,681.874-247.621,681.874Z" transform="translate(285.34 -681.789)" fill="#a9cbfc"/>
        </g>
        <g id="Grupo_14806" data-name="Grupo 14806" transform="translate(85.357 45.538)">
          <path id="Trazado_12569" data-name="Trazado 12569" d="M-253.869,733.5a.679.679,0,0,0-.059.312,30.777,30.777,0,0,0,.265,4.489,11.169,11.169,0,0,0,1.288,5.073c.491.868,2.635.123,2.134-.759a9.921,9.921,0,0,1-1.173-4.029.574.574,0,0,0,.005-.07c-.006-.423.007-.848,0-1.285a.739.739,0,0,0,.057-.237c.074-1.309.045-2.659.013-4.015.009-.077.016-.153.023-.229a41.461,41.461,0,0,1,5.652-1.035c-.114.981-.234,1.946-.292,2.9a10.818,10.818,0,0,0,.486,3.933,14.078,14.078,0,0,0,.7,1.776,2.814,2.814,0,0,0,.966,1.158,1.014,1.014,0,0,0,1.034-.045.739.739,0,0,0,.3-.549,1.411,1.411,0,0,0-.107-.546,23.8,23.8,0,0,1-1.029-3.222,13.81,13.81,0,0,1-.247-3.714c.014-.167.029-.337.043-.506.1-.438.2-.882.313-1.324a22.909,22.909,0,0,1,6.595.982,22.841,22.841,0,0,0-1.348,6.676c.011.423-.343,1.443.239,1.611a.834.834,0,0,0,.589-.127A1.894,1.894,0,0,0-236.4,739.2a9.113,9.113,0,0,1,.524-1.942,23.2,23.2,0,0,1,1.861-3.72,46.373,46.373,0,0,1,7.126,3.532,30.836,30.836,0,0,1-.927,3.784,6.552,6.552,0,0,0-3.746-.558,1.961,1.961,0,0,0-1.016.562.655.655,0,0,0-.191.384c-.009.3.439.361.7.4a17.313,17.313,0,0,1,3.685.953c-.354,1-.771,2.073-1.259,3.171a15.7,15.7,0,0,1-4.839.219,8.98,8.98,0,0,1-2.283-.625c-.621-.266-1.216-.9-2.138-.589-.663.228-1.22.862-.7,1.22a9.8,9.8,0,0,0,4.028,1.57,17.789,17.789,0,0,0,4.76.636,22.111,22.111,0,0,1-3.474,4.988,30.255,30.255,0,0,1-5.247-.536c-.67-.25-1.425-.52-2.18-.824-.078-.044-.155-.083-.23-.13a.89.89,0,0,0-.4-.133,2.966,2.966,0,0,1-.891-.411,9.232,9.232,0,0,1-.866-.478,6.874,6.874,0,0,1-1.187-.711,6.915,6.915,0,0,0-.688-.755,1.347,1.347,0,0,0-1.183-.22,1.19,1.19,0,0,0-.793.723.878.878,0,0,0,.193.816c1.346,1.68,3.911,2.569,6.241,3.532,1.4.578,2.894,1.053,4.4,1.505a41.108,41.108,0,0,1-9.407,5.023,17.073,17.073,0,0,1-3.322-4.261,2.537,2.537,0,0,0-.259-.582.573.573,0,0,0-.037-.1c-.414-.841-.841-1.66-1.18-2.5-.031-.112-.064-.224-.094-.337a1.15,1.15,0,0,0-.078-.418c-.05-.13-.125-.251-.18-.379a.636.636,0,0,0-.07-.11c-.191-.669-1.26-.545-1.849,0-.413.38-.324.736-.35,1.157a3.88,3.88,0,0,0,.247,1.631c.244.636.469,1.332.785,1.99a13.627,13.627,0,0,0,1.969,2.658.6.6,0,0,0,.136.121,6.292,6.292,0,0,0,1,.939c.282.336.575.662.888.976-3.265.906-5.92.924-8-.568-2.883-2.065-.246-6.669-1.813-10.485s-6.5-3.774-6.1-7.16a8.307,8.307,0,0,1,2.117-4.427A11.648,11.648,0,0,0-258,744.806c1.014.629,2.685-.947,1.651-1.59a9.289,9.289,0,0,1-2.547-2.333,16.84,16.84,0,0,1-1.364-4.324,25.659,25.659,0,0,1,6.391-3.059Z" transform="translate(264.858 -731.575)" fill="#a9cbfc"/>
          <path id="Trazado_12570" data-name="Trazado 12570" d="M-226.889,737.074a46.386,46.386,0,0,0-7.126-3.532,23.2,23.2,0,0,0-1.861,3.72,9.111,9.111,0,0,0-.524,1.942,1.894,1.894,0,0,1-1.014,1.513.828.828,0,0,1-.588.127c-.583-.167-.229-1.188-.24-1.611a22.84,22.84,0,0,1,1.348-6.676,22.907,22.907,0,0,0-6.6-.982c-.108.442-.216.885-.313,1.324-.014.169-.029.338-.043.506a13.81,13.81,0,0,0,.247,3.714,23.8,23.8,0,0,0,1.029,3.222,1.409,1.409,0,0,1,.107.546.739.739,0,0,1-.3.549,1.014,1.014,0,0,1-1.034.045,2.813,2.813,0,0,1-.966-1.158,14.072,14.072,0,0,1-.705-1.776,10.818,10.818,0,0,1-.486-3.933c.058-.95.177-1.915.292-2.9a41.451,41.451,0,0,0-5.652,1.035c-.007.076-.014.152-.023.229.032,1.357.061,2.707-.013,4.015a.739.739,0,0,1-.057.237c.008.437,0,.862,0,1.285a.583.583,0,0,1-.005.07,9.921,9.921,0,0,0,1.173,4.029c.5.882-1.643,1.627-2.134.759a11.17,11.17,0,0,1-1.288-5.073,30.781,30.781,0,0,1-.265-4.489.668.668,0,0,1,.06-.312,25.648,25.648,0,0,0-6.389,3.056,16.839,16.839,0,0,0,1.364,4.324,9.29,9.29,0,0,0,2.547,2.333c1.034.643-.637,2.219-1.651,1.59a11.648,11.648,0,0,1-4.722-6.074,8.307,8.307,0,0,0-2.117,4.427c-.393,3.386,4.535,3.345,6.1,7.16C-254.919,747.642-235.618,740.121-226.889,737.074Z" transform="translate(264.858 -731.575)" fill="#a9cbfc"/>
        </g>
        <g id="Grupo_14807" data-name="Grupo 14807" transform="translate(46.983 40.61)">
          <path id="Trazado_12571" data-name="Trazado 12571" d="M-285.7,789.7c-.6-12.815-5.773-42.335-21.111-62.336l1.539-1.181c15.63,20.382,20.9,50.4,21.508,63.426Z" transform="translate(306.813 -726.187)" fill="#84b7f4"/>
        </g>
        <g id="Grupo_14808" data-name="Grupo 14808" transform="translate(67.91 32.208)">
          <path id="Trazado_12572" data-name="Trazado 12572" d="M-283.718,778.9c-.016-.849-.039-1.8-.065-2.837-.338-13.7-1.043-42.206,10-59.065l1.623,1.063c-10.712,16.353-10.017,44.451-9.685,57.955.026,1.042.049,2,.066,2.847Z" transform="translate(283.933 -717.001)" fill="#84b7f4"/>
        </g>
        <g id="Grupo_14809" data-name="Grupo 14809" transform="translate(35.905 64.005)">
          <path id="Trazado_12573" data-name="Trazado 12573" d="M-287.751,789.879h-1.976c.01-20.172-20.415-32.187-29.2-36.416l.885-1.7C-308.929,756.153-287.741,768.649-287.751,789.879Z" transform="translate(318.924 -751.765)" fill="#84b7f4"/>
        </g>
        <g id="Grupo_14810" data-name="Grupo 14810" transform="translate(67.923 63.381)">
          <path id="Trazado_12574" data-name="Trazado 12574" d="M-282,783.293l-1.917-.3c1.856-11.906,6.063-25.01,23.2-31.911l.724,1.8C-276.23,759.421-280.23,771.925-282,783.293Z" transform="translate(283.919 -751.083)" fill="#84b7f4"/>
        </g>
        <g id="Grupo_14811" data-name="Grupo 14811" transform="translate(43.438 85.994)">
          <path id="Trazado_12575" data-name="Trazado 12575" d="M-310.688,775.8v47.8a8.135,8.135,0,0,0,8.327,7.877h29.715a8.136,8.136,0,0,0,8.328-7.876V775.8Z" transform="translate(310.688 -775.805)" fill="#1c5cc1"/>
          <path id="Trazado_12576" data-name="Trazado 12576" d="M-302.361,833.34h29.715a8.369,8.369,0,0,0,7.691-4.87c-19.14-1.191-40.1-7.6-45.732-30.923v27.917a8.135,8.135,0,0,0,8.326,7.876Z" transform="translate(310.688 -777.66)" fill="#1c5cc1"/>
        </g>
      </g>
      <g id="Grupo_14814" data-name="Grupo 14814" transform="translate(-6186.21 -2037.396)">
        <g id="Grupo_14814-2" data-name="Grupo 14814" transform="translate(6619.599 2176.981)">
          <g id="Grupo_6189" data-name="Grupo 6189">
            <path id="Trazado_6771" data-name="Trazado 6771" d="M769.321,168.732l6.287-4.655,4.151-1.13a2.109,2.109,0,0,1,2.394,1.122h0a1,1,0,0,1-.467,1.282l-4.553,1.958L774,172.148l6.694-2.166,4.064,2.1a1.282,1.282,0,0,1,.711,1.485h0a1.384,1.384,0,0,1-1.823,1.087l-2.921-.913-11.432,4.047s14.085.11,12.919,4.929l-8.434-1.682-1.983-6.615Z" transform="translate(-769.288 -162.889)" fill="#f7ad83"/>
          </g>
        </g>
        <g id="Grupo_14815" data-name="Grupo 14815" transform="translate(6617.972 2209.053)">
          <g id="Grupo_6231" data-name="Grupo 6231" transform="translate(0 0)">
            <rect id="Rectángulo_2622" data-name="Rectángulo 2622" width="2.983" height="17.988" transform="translate(0 2.942) rotate(-80.538)" fill="#0061bc"/>
          </g>
        </g>
        <g id="Grupo_14816" data-name="Grupo 14816" transform="translate(6620.158 2206.61)">
          <g id="Grupo_6234" data-name="Grupo 6234" transform="translate(0 0)">
            <circle id="Elipse_891" data-name="Elipse 891" cx="1.164" cy="1.164" r="1.164" transform="translate(0 0.13) rotate(-3.195)" fill="#0061bc"/>
          </g>
        </g>
        <g id="Grupo_14817" data-name="Grupo 14817" transform="translate(6612.279 2173.09)">
          <g id="Grupo_6237" data-name="Grupo 6237">
            <path id="Trazado_6782" data-name="Trazado 6782" d="M773.728,192.8l.228-2.344s-8.615-12.971-8.457-13.338c.154-.458,7.343-14.67,7.343-14.67l8.165-1.531a1.862,1.862,0,0,1,2.249,1.757h0a1.048,1.048,0,0,1-.749,1.029l-6.182,1.689-1.554,5.916,6.912-4.69,6-.066a1.252,1.252,0,0,1,1.118.743h0a1.27,1.27,0,0,1-.888,1.755l-4.271.6-4.991,5.391,7.386-2.655,4.4.114a1.04,1.04,0,0,1,1.033.838h0a1.05,1.05,0,0,1-.823,1.3l-3.91.666-4.111,5.072a13.108,13.108,0,0,1,6.478,8.428l-.529,6.576Z" transform="translate(-765.497 -160.873)" fill="#ffcdaa"/>
          </g>
        </g>
        <g id="Grupo_14818" data-name="Grupo 14818" transform="translate(6649.58 2182.942)">
          <g id="Grupo_6240" data-name="Grupo 6240">
            <path id="Trazado_6783" data-name="Trazado 6783" d="M789.125,165.976s8.627,11.463,3.25,30.271l-6.708-6.71s-.257-8.787-.807-9.092S789.125,165.976,789.125,165.976Z" transform="translate(-784.816 -165.976)" fill="#00457f"/>
          </g>
        </g>
        <g id="Grupo_14819" data-name="Grupo 14819" transform="translate(6614.096 2199.99)">
          <g id="Grupo_6249" data-name="Grupo 6249">
            <path id="Trazado_6786" data-name="Trazado 6786" d="M773.2,181.953l-6.76-2.2a7.161,7.161,0,0,1,12.276-2.41,7.039,7.039,0,0,1,1.633,3.686Z" transform="translate(-766.438 -174.805)" fill="#002168"/>
          </g>
        </g>
        <g id="Grupo_14820" data-name="Grupo 14820" transform="translate(6596.462 2199.251)">
          <g id="Grupo_6252" data-name="Grupo 6252">
            <path id="Trazado_6787" data-name="Trazado 6787" d="M762.794,182.767l-.2-.245.075.085A1.426,1.426,0,0,0,762.794,182.767Zm1.373-1.2-6.862-2.108a7.024,7.024,0,0,1,2.248-3.358,7.14,7.14,0,0,1,10.019.823l.2.247a6.793,6.793,0,0,1,1.465,3.477Z" transform="translate(-757.305 -174.422)" fill="#002168"/>
          </g>
        </g>
        <g id="Grupo_14821" data-name="Grupo 14821" transform="translate(6618.713 2197.56)">
          <g id="Grupo_6255" data-name="Grupo 6255" transform="translate(0 0)">
            <rect id="Rectángulo_2623" data-name="Rectángulo 2623" width="2.933" height="12.282" rx="0.329" transform="translate(0 2.822) rotate(-74.22)" fill="#002168"/>
          </g>
        </g>
        <g id="Grupo_14822" data-name="Grupo 14822" transform="translate(6594.34 2197.92)">
          <g id="Grupo_6258" data-name="Grupo 6258" transform="translate(0)">
            <rect id="Rectángulo_2624" data-name="Rectángulo 2624" width="12.282" height="2.933" rx="0.329" transform="translate(0 1.094) rotate(-5.11)" fill="#002168"/>
          </g>
        </g>
        <g id="Grupo_14823" data-name="Grupo 14823" transform="translate(6601.681 2210.292)">
          <g id="Grupo_6263" data-name="Grupo 6263" clip-path="url(#clip-path-2)">
            <g id="Grupo_6262" data-name="Grupo 6262">
              <g id="Grupo_6261" data-name="Grupo 6261">
                <rect id="Rectángulo_2625" data-name="Rectángulo 2625" width="10.033" height="18.441" fill="#ffb65e"/>
              </g>
            </g>
          </g>
        </g>
        <g id="Grupo_14824" data-name="Grupo 14824" transform="translate(6651.14 2200.564)">
          <g id="Grupo_6266" data-name="Grupo 6266">
            <path id="Trazado_6789" data-name="Trazado 6789" d="M785.624,175.1s8.787-.234,7.418,10.094C793.029,185.2,792.077,176.619,785.624,175.1Z" transform="translate(-785.624 -175.103)" fill="#d98a32"/>
          </g>
        </g>
        <g id="Grupo_14825" data-name="Grupo 14825" transform="translate(6651.053 2227.585)">
          <g id="Grupo_6269" data-name="Grupo 6269">
            <path id="Trazado_6790" data-name="Trazado 6790" d="M785.579,190.221l3.557-1.124v.819a9.144,9.144,0,0,1-2.1.392A9.663,9.663,0,0,1,785.579,190.221Z" transform="translate(-785.579 -189.097)" fill="#ffc75c"/>
          </g>
        </g>
        <g id="Grupo_14826" data-name="Grupo 14826" transform="translate(6591.262 2166.944)">
          <g id="Grupo_6272" data-name="Grupo 6272" transform="translate(0)">
            <path id="Trazado_6791" data-name="Trazado 6791" d="M807.453,157.69l7.051,31.984a9.55,9.55,0,0,1,1.442-.2c5.6-.11,0,5.244.2,11.635.11,5.561,2.91.6,2.371,11.206v1.357l-3.568-1.222a9.423,9.423,0,0,0,1.454.133,8.508,8.508,0,0,0,2.1-.305l3.752,50.643-50.008,6,3.47-18.686c-1.064.124-2.687,3.215-3.752,3.153-9.521-.562-14.029-12.672-16.73-21.532l-.209-54.475v-.74l-1.337-.389.933-7.247Z" transform="translate(-753.686 -157.69)" fill="#ffaf97"/>
          </g>
        </g>
        <g id="Grupo_14827" data-name="Grupo 14827" transform="translate(6620.166 2206.172)">
          <g id="Grupo_6275" data-name="Grupo 6275">
            <ellipse id="Elipse_892" data-name="Elipse 892" cx="2.383" cy="2.725" rx="2.383" ry="2.725" fill="#031f59"/>
          </g>
        </g>
        <g id="Grupo_14828" data-name="Grupo 14828" transform="translate(6598.516 2205.853)">
          <g id="Grupo_6278" data-name="Grupo 6278">
            <ellipse id="Elipse_893" data-name="Elipse 893" cx="2.224" cy="2.505" rx="2.224" ry="2.505" fill="#031f59"/>
          </g>
        </g>
        <g id="Grupo_14829" data-name="Grupo 14829" transform="translate(6620.283 2198.2)">
          <g id="Grupo_6281" data-name="Grupo 6281">
            <path id="Trazado_6792" data-name="Trazado 6792" d="M776.773,177.335l-7.13-1.272.609-2.185,7.131,1.272Z" transform="translate(-769.643 -173.878)" fill="#031f59"/>
          </g>
        </g>
        <g id="Grupo_14830" data-name="Grupo 14830" transform="translate(6594.284 2197.717)">
          <g id="Grupo_6284" data-name="Grupo 6284" transform="translate(0 0)">
            <rect id="Rectángulo_2626" data-name="Rectángulo 2626" width="5.832" height="2.238" transform="translate(0 0.941) rotate(-9.291)" fill="#031f59"/>
          </g>
        </g>
        <g id="Grupo_14831" data-name="Grupo 14831" transform="translate(6602.928 2233.01)">
          <g id="Grupo_6287" data-name="Grupo 6287">
            <path id="Trazado_6793" data-name="Trazado 6793" d="M760.654,191.907l9.117.722S762.658,200.8,760.654,191.907Z" transform="translate(-760.654 -191.907)" fill="#fbfffb"/>
          </g>
        </g>
        <g id="Grupo_14832" data-name="Grupo 14832" transform="translate(6651.457 2260.204)">
          <g id="Grupo_6314" data-name="Grupo 6314">
            <path id="Trazado_6801" data-name="Trazado 6801" d="M788.026,207.651c-.967-.658-1.7-1.222-2.238-1.66A22.06,22.06,0,0,0,788.026,207.651Z" transform="translate(-785.788 -205.991)" fill="none"/>
          </g>
        </g>
        <g id="Grupo_14833" data-name="Grupo 14833" transform="translate(6600.503 2208.398)">
          <g id="Grupo_6323" data-name="Grupo 6323">
            <path id="Trazado_6804" data-name="Trazado 6804" d="M767.117,199.208c-4.46-1.514-7.015-3.551-7.592-6.051-.653-2.829,1.342-5.538,3.132-7.312a7.355,7.355,0,0,0,1.823-5.314V179.16h.894V180.5a8.237,8.237,0,0,1-2.07,5.957c-1.645,1.633-3.468,4.068-2.906,6.5.5,2.178,2.859,4,7.007,5.408Z" transform="translate(-759.398 -179.16)" fill="#d54f1f"/>
          </g>
        </g>
        <g id="Grupo_14834" data-name="Grupo 14834" transform="translate(6592.784 2225.275)">
          <g id="Grupo_6326" data-name="Grupo 6326">
            <path id="Trazado_6805" data-name="Trazado 6805" d="M756.855,195.808,755.4,187.9l.489,14.653,4.07-.562Z" transform="translate(-755.4 -187.901)" fill="#00457f"/>
          </g>
        </g>
        <g id="Grupo_14835" data-name="Grupo 14835" transform="translate(6611.591 2222.122)">
          <g id="Grupo_6329" data-name="Grupo 6329">
            <path id="Trazado_6806" data-name="Trazado 6806" d="M771.557,233h-6.416l4.8-18.625,34.793-28.109L803.369,203.1a32.349,32.349,0,0,1-21.362,28.18A32.7,32.7,0,0,1,771.557,233Z" transform="translate(-765.141 -186.268)" fill="#ff6700"/>
          </g>
        </g>
        <g id="Grupo_14836" data-name="Grupo 14836" transform="translate(6608.256 2264.88)">
          <g id="Grupo_6332" data-name="Grupo 6332">
            <path id="Trazado_6807" data-name="Trazado 6807" d="M764.879,226.554l-1.465-.274,3.312-17.867,1.465.274Z" transform="translate(-763.414 -208.413)" fill="#d54f1f"/>
          </g>
        </g>
        <g id="Grupo_14837" data-name="Grupo 14837" transform="translate(6645.627 2197.669)">
          <g id="Grupo_6335" data-name="Grupo 6335">
            <path id="Trazado_6808" data-name="Trazado 6808" d="M782.854,173.6l-.085.732A5.193,5.193,0,0,1,782.854,173.6Z" transform="translate(-782.769 -173.603)" fill="#00418b"/>
          </g>
        </g>
        <g id="Grupo_14838" data-name="Grupo 14838" transform="translate(6653.633 2198.51)">
          <g id="Grupo_6338" data-name="Grupo 6338">
            <path id="Trazado_6809" data-name="Trazado 6809" d="M788.747,174.039a6.052,6.052,0,0,1,2.616.612,27.242,27.242,0,0,1-1.039,3.031,6.241,6.241,0,0,1-2.36,3.165,3.643,3.643,0,0,1-1.05.39v-6.891A6.1,6.1,0,0,1,788.747,174.039Z" transform="translate(-786.915 -174.039)" fill="#ffc75c"/>
          </g>
        </g>
        <g id="Grupo_14839" data-name="Grupo 14839" transform="translate(6607.12 2203.436)">
          <g id="Grupo_6341" data-name="Grupo 6341">
            <path id="Trazado_6810" data-name="Trazado 6810" d="M775.084,191.706A12.263,12.263,0,0,1,763.032,177.2l.114-.61h23.894l.108.62a13.612,13.612,0,0,1,.193,2.172v0a12.274,12.274,0,0,1-12.2,12.322ZM764.4,178.083a10.961,10.961,0,0,0-.087,1.421,10.781,10.781,0,0,0,10.768,10.71h.054a10.78,10.78,0,0,0,10.712-10.82h0a12.945,12.945,0,0,0-.083-1.311Z" transform="translate(-762.825 -176.59)" fill="#fff"/>
          </g>
        </g>
        <g id="Grupo_14840" data-name="Grupo 14840" transform="translate(6582.446 2203.436)">
          <g id="Grupo_6344" data-name="Grupo 6344">
            <path id="Trazado_6811" data-name="Trazado 6811" d="M761.484,191.66c-6.308,0-11.438-5.5-11.438-12.272a12.165,12.165,0,0,1,.2-2.184l.11-.614h22.27l.106.618a13.013,13.013,0,0,1,.195,2.176C772.922,186.155,767.792,191.66,761.484,191.66Zm-9.868-13.577a10.9,10.9,0,0,0-.079,1.305c0,5.943,4.462,10.78,9.948,10.78s9.948-4.837,9.948-10.78a12.354,12.354,0,0,0-.081-1.305Z" transform="translate(-750.046 -176.59)" fill="#fff"/>
          </g>
        </g>
        <g id="Grupo_14841" data-name="Grupo 14841" transform="translate(6596.378 2203.436)">
          <g id="Grupo_6347" data-name="Grupo 6347">
            <rect id="Rectángulo_2628" data-name="Rectángulo 2628" width="18.112" height="1.492" fill="#fff"/>
          </g>
        </g>
        <g id="Grupo_14842" data-name="Grupo 14842" transform="translate(6630.004 2196.888)">
          <g id="Grupo_6350" data-name="Grupo 6350" transform="translate(0)">
            <rect id="Rectángulo_2629" data-name="Rectángulo 2629" width="23.821" height="1.491" transform="translate(0 6.704) rotate(-16.345)" fill="#fff"/>
          </g>
        </g>
        <g id="Grupo_14843" data-name="Grupo 14843" transform="translate(6607.388 2233.495)">
          <g id="Grupo_6395" data-name="Grupo 6395">
            <path id="Trazado_6825" data-name="Trazado 6825" d="M762.964,192.158s1.3,2.2.773,7c0,0,11.654.666,13.431-7C777.167,192.158,765.791,193.228,762.964,192.158Z" transform="translate(-762.964 -192.158)" fill="#fff"/>
          </g>
        </g>
        <g id="Grupo_14844" data-name="Grupo 14844" transform="translate(6592.822 2197.412)">
          <g id="Grupo_6398" data-name="Grupo 6398">
            <path id="Trazado_6826" data-name="Trazado 6826" d="M808.85,188.526s-.378,15.752-9.948,19.393c0,0-30.553-9.434-42.993,1.346,0,0-5.794,33.314,22.509,31.773,0,0,39.645,5.953,37.96-50.606V176.99l-4.155-3.52Z" transform="translate(-755.42 -173.47)" fill="#031f59"/>
          </g>
        </g>
        <g id="Grupo_14845" data-name="Grupo 14845" transform="translate(6609.847 2231.659)">
          <g id="Grupo_6403" data-name="Grupo 6403">
            <g id="Grupo_6402" data-name="Grupo 6402">
              <g id="Grupo_6401" data-name="Grupo 6401">
                <path id="Trazado_6827" data-name="Trazado 6827" d="M780.955,191.207s-13.7,2.792-16.717.873C764.238,192.08,774.6,212.39,780.955,191.207Z" transform="translate(-764.238 -191.207)" fill="#d54f1f"/>
              </g>
            </g>
          </g>
        </g>
        <g id="Grupo_14846" data-name="Grupo 14846" transform="translate(6610.759 2231.659)">
          <g id="Grupo_6407" data-name="Grupo 6407">
            <g id="Grupo_6406" data-name="Grupo 6406">
              <path id="Trazado_6828" data-name="Trazado 6828" d="M764.71,192.423s4.118,1.122,15.805-1.216a14.35,14.35,0,0,1-.886,2.659s-8.359,2.22-12.083,1.465a2.58,2.58,0,0,1-1.558-1.089Z" transform="translate(-764.71 -191.207)" fill="#fff"/>
            </g>
          </g>
        </g>
        <g id="Grupo_14847" data-name="Grupo 14847" transform="translate(6653.376 2202.034)">
          <path id="Trazado_6835" data-name="Trazado 6835" d="M786.782,175.893s12.191-1.145,10.776,10.845c0,0,.041,8.335-8.735,9.656l-1.637-3.813Z" transform="translate(-786.782 -175.864)" fill="#ffaf97"/>
        </g>
        <g id="Grupo_14848" data-name="Grupo 14848" transform="matrix(0.996, -0.087, 0.087, 0.996, 6575.145, 2151.833)">
          <g id="Grupo_13849" data-name="Grupo 13849" transform="translate(60.926 21.475)" clip-path="url(#clip-path-3)">
            <g id="Grupo_13848" data-name="Grupo 13848" transform="translate(-2331.767 -449.904)" clip-path="url(#clip-path-4)">
              <path id="Trazado_11953" data-name="Trazado 11953" d="M0,59.627H48.007V0H0Z" transform="translate(2322.01 441.239)" fill="#162457"/>
            </g>
          </g>
          <g id="Grupo_13851" data-name="Grupo 13851" transform="matrix(0.999, 0.035, -0.035, 0.999, 3.576, 19.355)" clip-path="url(#clip-path-5)">
            <g id="Grupo_13850" data-name="Grupo 13850" transform="translate(-2372.102 -440.988)" clip-path="url(#clip-path-6)">
              <path id="Trazado_11956" data-name="Trazado 11956" d="M0,51.057H35V0H0Z" transform="translate(2360.586 430.11)" fill="#1e3760"/>
            </g>
          </g>
          <g id="Grupo_13853" data-name="Grupo 13853" transform="translate(0 0)" clip-path="url(#clip-path-7)">
            <g id="Grupo_13852" data-name="Grupo 13852" transform="translate(-2270.841 -428.428)" clip-path="url(#clip-path-4)">
              <path id="Trazado_11959" data-name="Trazado 11959" d="M0,74.217H95.171V0H0Z" transform="translate(2259.802 417.389)" fill="#162457"/>
            </g>
          </g>
          <g id="Grupo_13855" data-name="Grupo 13855" transform="translate(5.164 17.115)" clip-path="url(#clip-path-9)">
            <g id="Grupo_13854" data-name="Grupo 13854" transform="translate(-2276.004 -445.543)" clip-path="url(#clip-path-4)">
              <path id="Trazado_11962" data-name="Trazado 11962" d="M0,37.41H80.087V0H0Z" transform="translate(2264.966 434.506)" fill="#3a5bbb"/>
            </g>
          </g>
          <g id="Grupo_13857" data-name="Grupo 13857" transform="translate(13.923 9.673)" clip-path="url(#clip-path-11)">
            <g id="Grupo_13856" data-name="Grupo 13856" transform="translate(-2284.764 -438.101)" clip-path="url(#clip-path-4)">
              <path id="Trazado_11965" data-name="Trazado 11965" d="M0,39.685H74.591V0H0Z" transform="translate(2273.726 427.062)" fill="#3a5bbb"/>
            </g>
          </g>
        </g>
      </g>
    </g>
  </g>
</svg>
