<svg xmlns="http://www.w3.org/2000/svg" width="384.535" height="317.411" viewBox="0 0 384.535 317.411"><defs><style>.a{fill:#1c5cc1;}.b{fill:#ff409e;}.c{fill:#0af;}.d{fill:#d3892f;}.e{fill:#ffc764;}.ae,.af,.f{fill:none;}.g{fill:#ffcdab;}.h{fill:#ffbf00;}.i{fill:#966605;}.j{fill:#003b7c;}.k{fill:#ffcdaa;}.l{fill:#ed9232;}.m{fill:#ffecd3;}.n{fill:#00457f;}.o{fill:#d8a119;}.p{fill:#ff7f00;}.q{fill:#f9be9d;}.r{fill:#fca63b;}.s{fill:#012a4f;}.t{fill:#157dd1;}.u{fill:#ff6700;}.v{fill:#fff;}.w{fill:#92d8f4;}.x{fill:#ff7434;}.y{fill:#d6097f;}.z{fill:#73cae5;}.aa{fill:#002e66;}.ab{fill:#ffb38a;}.ac{fill:#f48d64;}.ad{fill:#ae907b;}.ae{stroke:#003b7c;}.ae,.af{stroke-miterlimit:10;}.af{stroke:#0af;stroke-width:2px;}.ag{fill:#b7b7b7;}</style></defs><g transform="translate(-0.008 -21.332)"><g transform="translate(43.966 56.271)"><g transform="translate(0 23.17)"><path class="a" d="M123,245.488s18.335,16.834,15.047,35.6c0,0,26.341-.322,37.028,19.8,0,0,27.02.5,36.241,15.9,0,0,35.026-5.218,50.9,7.863,0,0,28.843-14.94,50.931-5.683,0,0,6.719-23.911,25.162-24.947,0,0-36.885-43.318-38.422-43.676s-43.032-18.121-47.035-18.442c-4-.286-42.174-8.006-42.174-8.006l-29.165,2.645-16.334,4.468Z" transform="translate(-123 -223.9)"/></g><g transform="translate(116.802)"><path class="b" d="M449.8,169.768s3.789-11.008,7.148-10.687c0,0,3.717-.858-1.644,13.26Z" transform="translate(-449.8 -159.072)"/></g><g transform="translate(0 3.12)"><path class="c" d="M123,209.44s37.349-45.105,102.041-41.424c0,0,17.263,9.793,34.49,8.9,0,0,51.253,16.405,78.773,81.025l-56.256-37.814L187.62,199.4Z" transform="translate(-123 -167.802)"/></g><g transform="translate(26.598 41.312)"><path class="c" d="M197.519,303.659c7.255-13.439,20.837-26.127,23.8-28.807a.744.744,0,0,1,1.072.071h0a.747.747,0,0,1-.071,1.072c-2.9,2.609-16.369,15.19-23.482,28.414a.8.8,0,0,1-1.036.322h0A.816.816,0,0,1,197.519,303.659Z" transform="translate(-197.418 -274.658)"/></g><g transform="translate(63.663 52.049)"><path class="c" d="M301.185,337.081c4.5-10.687,18.764-28.557,21.659-32.1a.747.747,0,0,1,1.072-.107h0a.78.78,0,0,1,.107,1.072c-2.788,3.467-17.048,21.337-21.445,31.738a.766.766,0,0,1-.965.429h0A.814.814,0,0,1,301.185,337.081Z" transform="translate(-301.122 -304.699)"/></g><g transform="translate(132.91 66.798)"><path class="c" d="M500.813,385.043c.929-11.58-3.5-33.99-4.432-38.457a.766.766,0,0,0-.893-.608h0a.8.8,0,0,0-.608.893c.893,4.36,5.29,26.806,4.4,38.028a.761.761,0,0,0,.679.822h0A.746.746,0,0,0,500.813,385.043Z" transform="translate(-494.869 -345.966)"/></g><g transform="translate(142.32 17.579)"><path class="a" d="M536.96,239.761c-2.573-14.189-13.188-27.413-15.583-30.237a.779.779,0,0,1,.071-1.072h0a.789.789,0,0,1,1.108.072c2.5,2.967,13.331,16.441,15.941,30.987a.773.773,0,0,1-.643.894h0A.83.83,0,0,1,536.96,239.761Z" transform="translate(-521.198 -208.258)"/></g><g transform="translate(66.938 5.438)"><path class="a" d="M310.612,198.988h0a.754.754,0,0,1-.179-1.072,67.462,67.462,0,0,1,20.515-18.764,56.921,56.921,0,0,1,10.258-4.825.748.748,0,0,1,.965.5h0a.769.769,0,0,1-.5.929,64.533,64.533,0,0,0-30.022,23.017A.715.715,0,0,1,310.612,198.988Z" transform="translate(-310.286 -174.286)"/></g></g><g transform="translate(11.156 326.519)"><rect class="c" width="373.029" height="0.715"/></g><g transform="translate(356.272 318.978)"><path class="c" d="M1025.071,898.246H996.8V894.1h28.271Zm-27.521-.715h26.842v-2.716H997.551Z" transform="translate(-996.8 -894.1)"/></g><g transform="translate(356.272 310.364)"><path class="c" d="M1025.071,876.791H996.8V870h28.271Zm-27.521-.715h26.842v-5.361H997.551Z" transform="translate(-996.8 -870)"/></g><g transform="translate(359.524 322.766)"><rect class="c" width="0.715" height="4.039"/></g><g transform="translate(380.862 322.766)"><rect class="c" width="0.715" height="4.039"/></g><g transform="translate(379.325 316.798)"><rect class="c" width="0.715" height="2.538"/></g><g transform="translate(362.991 316.798)"><rect class="c" width="0.715" height="2.538"/></g><g transform="translate(41.643 318.192)"><path class="c" d="M147.63,896.4H116.5v-4.5h31.13Zm-30.416-.715h29.7v-3.074h-29.7Z" transform="translate(-116.5 -891.9)"/></g><g transform="translate(41.643 308.684)"><path class="c" d="M147.63,872.734H116.5V865.3h31.13Zm-30.416-.715h29.7v-6h-29.7Z" transform="translate(-116.5 -865.3)"/></g><g transform="translate(45.217 322.337)"><rect class="c" width="0.715" height="4.468"/></g><g transform="translate(68.771 322.337)"><rect class="c" width="0.715" height="4.468"/></g><g transform="translate(67.091 315.761)"><rect class="c" width="0.715" height="2.824"/></g><g transform="translate(49.042 315.761)"><rect class="c" width="0.715" height="2.824"/></g><g transform="translate(132.039 157.194)"><g transform="translate(1.664 1.378)"><path class="d" d="M376.586,445.514c.143-.036.25.179.322.25a2.181,2.181,0,0,0,.572.429,6.583,6.583,0,0,1,.5.5.468.468,0,0,1,.143.465.721.721,0,0,1-.429.429,8.081,8.081,0,0,1-.786.393.466.466,0,0,1-.429.036.522.522,0,0,1-.143-.429c.036-.179.179-.25.25-.393a1.323,1.323,0,0,0-.643.286c-.143.072-.322.25-.5.25-.214.036-.465-.072-.429-.25a.6.6,0,0,1,.071-.179,1.6,1.6,0,0,1,.786-.822,7.74,7.74,0,0,0-1.072.643c-.143.072-.322.25-.536.143a.334.334,0,0,1-.179-.357,1.493,1.493,0,0,1,.143-.357,4.129,4.129,0,0,1,2.109-1.251" transform="translate(-374.075 -445.3)"/></g><g transform="translate(4.211 4.345)"><path class="e" d="M381.2,453.6Z" transform="translate(-381.2 -453.6)"/></g><g transform="translate(4.246 4.381)"><path class="e" d="M381.3,453.7l.179.143A.164.164,0,0,1,381.3,453.7Z" transform="translate(-381.3 -453.7)"/></g><g transform="translate(6.963 11.064)"><path class="f" d="M389.15,472.543c.107.036.179.143.25.179a5.418,5.418,0,0,0-.5-.322C388.936,472.436,389.079,472.471,389.15,472.543Z" transform="translate(-388.9 -472.4)"/></g><path class="g" d="M421.094,468.877l1.751,8.685c-17.263,4.182-38.171-16.548-45-23.911-.393-.322-.786-.572-1.037-.786-.107-.036-.179-.143-.25-.179-.107-.036-.179-.143-.322-.143a2.027,2.027,0,0,0-.322-.214h0c-.286-.107-.536-.286-.786-.393a9.283,9.283,0,0,1-4.539-4.432,10.364,10.364,0,0,0-.894-2.037c-.143-.179-.357-.429-.25-.679.143-.322.608-.25.929-.072a6.788,6.788,0,0,1,1.394,1.108,4.3,4.3,0,0,0,.965,1,1.2,1.2,0,0,0,1.322.072,1.179,1.179,0,0,0,.429-.858,3.372,3.372,0,0,0-.608-2.252,2.866,2.866,0,0,0-2-1.179c-.465-.071-1-.036-1.322-.322-.071-.036-.071-.143-.036-.215a.834.834,0,0,1,.429-.357,3.674,3.674,0,0,1,3,.107,1.014,1.014,0,0,0,.608.25c.286,0,.465-.107.751-.107a2.44,2.44,0,0,1,1.144.25,4.513,4.513,0,0,1,2.43,1.608,3.745,3.745,0,0,1,.536,1.859h0a12.423,12.423,0,0,0,2.788,6.541C402.794,467.626,421.165,468.913,421.094,468.877Z" transform="translate(-369.419 -441.444)"/><g transform="translate(6.57 10.85)"><path class="e" d="M388.122,472.014c-.143-.071-.179-.143-.322-.214h0S387.943,471.907,388.122,472.014Z" transform="translate(-387.8 -471.8)"/></g><g transform="translate(5.315 0.621)"><path class="d" d="M384.366,443.187c-.072-.036-.107.072-.036.107a3.1,3.1,0,0,1,.822,1.108c.179.357.357.715.536,1.036,0,.036.107-.036.107-.071-.25-.429-.5-.894-.751-1.322a3.989,3.989,0,0,0-.679-.858Z" transform="translate(-384.291 -443.18)"/></g><g transform="translate(6.759 0.62)"><path class="d" d="M388.392,443.187c0-.036-.107.072-.036.072a4.665,4.665,0,0,1,1.215,2.216c0,.036.107.036.107-.036a4.608,4.608,0,0,0-1.287-2.252Z" transform="translate(-388.331 -443.18)"/></g></g><g transform="translate(140.896 169.008)"><path class="h" d="M444.595,484.793c-5.325,1.823-11.151,1.036-16.691.179-2.645-.393-5.325-.822-7.97-1.251a29.7,29.7,0,0,1-5-1.072,34.07,34.07,0,0,1-6-2.824c-3.217-1.787-6.433-3.574-9.65-5.325-1.322,2.966-2.252,4.646-5.075,6.29a37.8,37.8,0,0,0,8.328,7.863,99.874,99.874,0,0,0,13.8,7.935c7.72,3.538,15.547,7.112,23.875,8.864a1.187,1.187,0,0,0,.786,0,1.38,1.38,0,0,0,.679-.858c2.323-5.5,4.682-11.687,2.609-17.3" transform="translate(-394.2 -474.5)"/></g><g transform="translate(178.954 144.341)"><path class="i" d="M556.873,419.928c-1.037-2.073-6.684-9.328-13.26-12.438s-14.368-1.68-14.368-1.68-7.827-1.43-14.368,1.68c-6.576,3.11-12.223,10.365-13.26,12.438s-1.537,4.825.25,6.541c1.358,1.287-.572,7.756,12.438,8.22,3.824.143,6.147,4.289,7.935,5.075,3.753,1.608,6.97-1.251,6.97-1.251s3.252,2.859,6.969,1.251c1.823-.786,10.043-3.574,13.224-5.754s8.363-.965,7.148-7.506C556.158,424,557.91,422,556.873,419.928Z" transform="translate(-500.682 -405.482)"/></g><g transform="translate(183.928 139.836)"><path class="j" d="M538.082,436.2l17.191-8.971,5.683-2.645c.25-4.575,1.072-9.042-.179-13.3-3.288-11.08-10.186-17.37-18.3-18.3-8.292-.965-18.085,4.182-23.482,14.9-2.109,4.182-3.86,11.759-4.4,16.584l1.823.071Z" transform="translate(-514.6 -392.879)"/></g><g transform="translate(185.652 142.977)"><path class="c" d="M525.491,405.4l-2.752-3.431a.844.844,0,0,0-1.179-.107.52.52,0,0,0-.214.322l-1.858,5.075a.816.816,0,0,0,.465,1.072.92.92,0,0,0,.536.036l4.5-1.287,2.966,3.324a.844.844,0,0,0,1.18.107,1.957,1.957,0,0,0,.25-.322l1.787-4.575a.844.844,0,0,0-.5-1.108.88.88,0,0,0-.429-.036Z" transform="translate(-519.423 -401.667)"/></g><g transform="translate(190.857 134.811)"><g transform="translate(0.541)"><path class="j" d="M538.108,397.72s.643-5.04,8.471-9.507c0,0,3.61-4.11,9.793-1.859l3.789,6.4.75,1.036,9.936,15.69,1.573-17.3-2.466-6.255s-3.574-2.752-4.5-2.824-7.22-3.681-7.22-3.681-6.076-.357-6.433-.536-5.54.072-6.827.072a19.459,19.459,0,0,0-4.253,1.179s-3.431,4.325-4.182,3.252c-.322-.536-1,5.254-1.036,5.826C535.464,389.821,538.108,397.72,538.108,397.72Z" transform="translate(-535.499 -378.82)"/></g><g transform="translate(0 18.678)"><ellipse class="k" cx="3.074" cy="2.18" rx="3.074" ry="2.18" transform="translate(0 6.128) rotate(-85.389)"/></g><g transform="translate(29.31 21.418)"><ellipse class="k" cx="3.074" cy="2.18" rx="3.074" ry="2.18" transform="translate(0 6.128) rotate(-85.389)"/></g><g transform="translate(2.515 4.282)"><path class="k" d="M571.322,393.087,542.837,390.8l-1.787,22.374a10.454,10.454,0,0,0,1.966,6.934h0a11.981,11.981,0,0,0,8.792,4.861l5.254.429A11.828,11.828,0,0,0,566.5,422h0a10.546,10.546,0,0,0,3.038-6.541Z" transform="translate(-541.022 -390.8)"/></g><g transform="translate(14.802 25.49)"><path class="l" d="M575.543,450.947l-.143-.25.608-.322a1.782,1.782,0,0,1,2.109.25l.322.322-.179.214-.322-.322a1.456,1.456,0,0,0-1.751-.214Z" transform="translate(-575.4 -450.139)"/></g><g transform="translate(4.652 15.469)"><circle class="m" cx="5.897" cy="5.897" r="5.897"/></g><g transform="translate(4.558 15.375)"><path class="n" d="M552.228,433.761a5.97,5.97,0,1,1,6.433-5.468h0A5.946,5.946,0,0,1,552.228,433.761ZM553.193,422a5.809,5.809,0,1,0,5.325,6.255h0A5.852,5.852,0,0,0,553.193,422Z" transform="translate(-546.737 -421.837)"/></g><g transform="translate(18.198 16.541)"><circle class="m" cx="5.897" cy="5.897" r="5.897"/></g><g transform="translate(18.102 16.446)"><path class="n" d="M590.626,436.794a2.358,2.358,0,0,1-.5-.036,5.962,5.962,0,0,1-4.075-2.073,5.852,5.852,0,0,1-1.394-4.36,5.962,5.962,0,0,1,2.073-4.074,5.852,5.852,0,0,1,4.36-1.394,5.961,5.961,0,0,1,4.075,2.073,5.852,5.852,0,0,1,1.394,4.36A5.933,5.933,0,0,1,590.626,436.794Zm0-11.759a5.685,5.685,0,0,0-3.753,1.394,5.8,5.8,0,1,0,4.217-1.358A2.036,2.036,0,0,0,590.626,425.036Z" transform="translate(-584.633 -424.833)"/></g><g transform="translate(16.446 20.525)"><path class="n" d="M580.107,436.73l-.107-.179a1.533,1.533,0,0,1,2.037.179l-.179.143A1.312,1.312,0,0,0,580.107,436.73Z" transform="translate(-580 -436.247)"/></g><g transform="translate(22.938 20.562)"><circle class="j" cx="0.679" cy="0.679" r="0.679" transform="translate(0.156 0.197)"/><path class="j" d="M599,438.048a1.042,1.042,0,0,1-.322-.072.811.811,0,0,1-.429-1.108.978.978,0,0,1,.465-.465.992.992,0,0,1,.643,0,.977.977,0,0,1,.465.465.991.991,0,0,1,0,.643.846.846,0,0,1-.465.465A.706.706,0,0,1,599,438.048Zm0-1.322a.558.558,0,0,0-.465.286h0a.485.485,0,0,0,.25.643.417.417,0,0,0,.357,0,.635.635,0,0,0,.286-.25.417.417,0,0,0,0-.357.963.963,0,0,0-.25-.286A.389.389,0,0,0,599,436.725Z" transform="translate(-598.165 -436.35)"/></g><g transform="translate(10.138 20.031)"><circle class="j" cx="0.679" cy="0.679" r="0.679" transform="translate(0.161 0.156)"/><path class="j" d="M563.19,436.557a1.045,1.045,0,0,1-.322-.071.978.978,0,0,1-.465-.465.99.99,0,0,1,0-.643h0a.811.811,0,0,1,1.108-.429.978.978,0,0,1,.465.465.992.992,0,0,1,0,.643.846.846,0,0,1-.465.465C563.4,436.521,563.3,436.557,563.19,436.557Zm-.465-1.036a.418.418,0,0,0,0,.357.636.636,0,0,0,.25.286.609.609,0,0,0,.357,0,.636.636,0,0,0,.286-.25.417.417,0,0,0,0-.357.964.964,0,0,0-.25-.286.485.485,0,0,0-.643.25Z" transform="translate(-562.35 -434.865)"/></g></g><g transform="translate(180.89 131.082)"><path class="h" d="M506.1,394.483s6.4-25.948,27.449-26.091c0,0,18.085-.965,25.841,24.84C559.39,393.232,530.082,374.789,506.1,394.483Z" transform="translate(-506.1 -368.387)"/></g><g transform="translate(197.081 178.301)"><path class="k" d="M564.874,501.108s-3.36,7.613,4.932,7.577l-3.538,10.83-11.08-1.251-3.11-7.684L551.4,507.9s6.9.929,5.29-7.4Z" transform="translate(-551.4 -500.5)"/></g><g transform="translate(167.433 177.443)"><path class="h" d="M539.948,581.2c-1.716-7.649-4.646-40.209-6.791-49.144-2.109-8.935,1.644-22.267,1.43-22.946s-5.254-5.862-11.83-8.685a49.426,49.426,0,0,0-7.184-2.323c-4.539,2.287-8.077,7.005-11.258,11.687.357-5.29-3.181-8.185-6.219-11.4a53.808,53.808,0,0,0-5.683,2.037c-6.576,2.788-11.616,8.006-11.83,8.685s3.538,14.01,1.43,22.946-8.721,39.53-10.4,47.178c-1.716,7.648-3.824,17.87-2.967,18.871.858,1.036,38.958,1.537,38.958,1.537s38.1-.5,38.958-1.537C547.382,597.1,541.664,588.847,539.948,581.2Z" transform="translate(-468.447 -498.1)"/></g><g transform="translate(200.436 196.493)"><path class="o" d="M563.508,628.029c.25-3.038.179-8.971.072-15.869-.107-6.433-.214-13.725-.072-19.908.322-12.652,0-29.308,0-29.486-.143-4.325.357-8.077,1.394-10.258l-2.287-1.108c-1.68,3.5-1.751,8.685-1.644,11.437,0,.143.322,16.763,0,29.343-.179,6.255-.036,13.546.072,20.015.107,6.827.214,12.724-.036,15.619a60.768,60.768,0,0,0-.107,8.864c.071,1.037.143,1.859.214,2.538.929,0,1.787.036,2.573.036A57.827,57.827,0,0,1,563.508,628.029Z" transform="translate(-560.788 -551.4)"/></g><g transform="translate(206.695 194.492)"><path class="p" d="M581.66,547.48a1.68,1.68,0,1,1-1.68-1.68A1.7,1.7,0,0,1,581.66,547.48Z" transform="translate(-578.3 -545.8)"/><g transform="translate(0 17.406)"><path class="p" d="M581.66,596.18a1.68,1.68,0,1,1-1.68-1.68A1.678,1.678,0,0,1,581.66,596.18Z" transform="translate(-578.3 -594.5)"/></g><g transform="translate(0 34.776)"><path class="p" d="M581.66,644.78a1.68,1.68,0,1,1-1.68-1.68A1.678,1.678,0,0,1,581.66,644.78Z" transform="translate(-578.3 -643.1)"/><g transform="translate(1.465 0.393)"><path class="p" d="M582.4,644.379a.169.169,0,0,0,.179.179.885.885,0,0,1,.893.893.834.834,0,0,1-.357.715.2.2,0,0,0,.25.322,1.252,1.252,0,0,0,.5-1,1.281,1.281,0,0,0-1.287-1.287A.192.192,0,0,0,582.4,644.379Z" transform="translate(-582.4 -644.2)"/></g><g transform="translate(1.43 2.573)"><circle class="p" cx="0.25" cy="0.25" r="0.25"/></g></g></g><g transform="translate(248.499 175.17)"><path class="q" d="M699.065,492.977h0a12.336,12.336,0,0,1,7.148-1.108c.893.143,1.894.286,2.931.429a20.489,20.489,0,0,1,12.223,6.648l1.859,2.109,5.075,10.436,8.685,5.468-15.4,8.828-11.83-13.4L696.6,504.021l-.929-2.645A6.759,6.759,0,0,1,699.065,492.977Z" transform="translate(-695.263 -491.74)"/></g><g transform="translate(201.906 149.851)"><path class="r" d="M564.9,420.9l.322.393v-.107Z" transform="translate(-564.9 -420.9)"/></g><g transform="translate(224.995 170.397)"><g transform="translate(54.005 1.526)"><path class="d" d="M782.745,482.67a4.059,4.059,0,0,1,1.751,1.716,1.526,1.526,0,0,1,.071.393.338.338,0,0,1-.25.286c-.179.036-.357-.143-.465-.286a7.038,7.038,0,0,0-.893-.894,1.678,1.678,0,0,1,.572.965.389.389,0,0,1,.036.179c-.036.179-.286.214-.465.143a3.788,3.788,0,0,1-.429-.357,1.422,1.422,0,0,0-.572-.429c.036.143.179.25.143.429s-.071.322-.214.357a.431.431,0,0,1-.429-.143,5.219,5.219,0,0,1-.679-.572.722.722,0,0,1-.322-.5.545.545,0,0,1,.25-.429,3.532,3.532,0,0,1,.608-.393,2.755,2.755,0,0,0,.679-.286c.107-.072.25-.25.393-.179" transform="translate(-780.6 -482.654)"/></g><g transform="translate(55.184 4.223)"><path class="e" d="M783.9,490.2Z" transform="translate(-783.9 -490.2)"/></g><g transform="translate(54.934 4.295)"><path class="e" d="M783.2,490.471l.214-.071C783.414,490.436,783.307,490.507,783.2,490.471Z" transform="translate(-783.2 -490.4)"/></g><g transform="translate(50.395 10.121)"><path class="f" d="M771.072,506.7c-.143.036-.357.143-.572.214a.683.683,0,0,1,.286-.107A1.467,1.467,0,0,1,771.072,506.7Z" transform="translate(-770.5 -506.7)"/></g><g transform="translate(0 0.081)"><path class="g" d="M674.855,487.077a12.329,12.329,0,0,0,4.253-5.719h0a3.593,3.593,0,0,1,.965-1.68,4.658,4.658,0,0,1,2.716-1,2.627,2.627,0,0,1,1.179,0c.25.071.429.214.715.286a1.36,1.36,0,0,0,.643-.107,3.664,3.664,0,0,1,2.931.572.908.908,0,0,1,.322.465.137.137,0,0,1-.107.179c-.393.214-.929.036-1.358,0a2.946,2.946,0,0,0-2.216.679,3.393,3.393,0,0,0-1.108,2.037,1.25,1.25,0,0,0,.214.929,1.194,1.194,0,0,0,1.322.25,4.127,4.127,0,0,0,1.179-.751,6.6,6.6,0,0,1,1.608-.751c.322-.072.786-.036.893.286.072.25-.214.429-.393.608a10.911,10.911,0,0,0-1.358,1.751,9.358,9.358,0,0,1-5.433,3.252,3.034,3.034,0,0,1-.858.179h0a1.945,1.945,0,0,0-.357.143c-.107,0-.214.071-.322.071a.682.682,0,0,1-.286.107c-.322.143-.751.322-1.179.536-8.363,5.576-33.489,20.873-49.323,12.8l3.717-8.042C633.074,494.19,651.231,497.228,674.855,487.077Z" transform="translate(-629.5 -478.611)"/></g><g transform="translate(51.002 10.013)"><path class="e" d="M772.557,506.4h0a1.5,1.5,0,0,0-.358.143A3,3,0,0,0,772.557,506.4Z" transform="translate(-772.2 -506.4)"/></g><g transform="translate(52.994 0.356)"><path class="d" d="M779.677,479.387a5.116,5.116,0,0,0-.858.679c-.357.357-.715.751-1.036,1.108-.036.036.036.143.072.107.25-.286.5-.608.786-.894a4.327,4.327,0,0,1,1.072-.894c.036-.036.036-.143-.036-.107Z" transform="translate(-777.773 -479.38)"/></g><g transform="translate(51.71)"><path class="d" d="M775.974,478.39a4.661,4.661,0,0,0-1.787,1.93c-.036.036.071.107.107.036a4.876,4.876,0,0,1,1.716-1.894c.036.036,0-.107-.036-.072Z" transform="translate(-774.18 -478.384)"/></g></g><g transform="translate(59.819 187.951)"><path class="q" d="M210.01,527.5c-34.383,28.521-41.638,47.786-42.6,57.65a11.739,11.739,0,0,0,4.9,10.687l11.33,8.042L202.4,573.213l19.693-40.244L210.01,527.5Z" transform="translate(-167.355 -527.5)"/></g><g transform="translate(163.234 189.738)"><path class="q" d="M456.7,543.33l4.968,18.728a5.091,5.091,0,0,0-.786.286c-2.967,1.5,1.394,2.788,3.038,6.183,1.5,2.967-1.358,1.108,1.787,6.541l.357.751,1.573-1.608a4.9,4.9,0,0,1-.715.465,7.829,7.829,0,0,1-1.179.429l12.867,41.853,33.1-10.293L499.8,582.18c1.573-2.43,1.072,2.216,1.608,1.894,4.861-2.895,3.967-10.508,2.966-15.869l-14.69-28.772-.179-.322-3.753-6.612Z" transform="translate(-456.7 -532.5)"/></g><g transform="translate(166.272 216.044)"><path class="a" d="M465.2,606.1" transform="translate(-465.2 -606.1)"/></g><g transform="translate(156.542 220.261)"><path class="p" d="M450.1,617.9a12.66,12.66,0,0,0-2.073,2.5c-1.322,1.93-2.681,3.9-4,5.826-2.395,3.5-4.861,7.112-5.719,11.258-1.108,5.468.751,11.044,2.895,16.191a3,3,0,0,0,1.215,1.644c1.43.679,2.681-1.108,3.5-2.43a11.315,11.315,0,0,1,9.114-5.111c2.144-.036,5.683-2.287,4.039-.893s-2.216.25,0,0c.393-.036.465-1.43.322-1.787-.929-2.18,1.179-5.075,1.93-7.327l-1.966-1.823Z" transform="translate(-437.975 -617.9)"/></g><g transform="translate(167.861 253.536)"><path class="s" d="M480.638,711s5.683,22.159,30.63,8.185l9.936,48.286,1.144,28.7H472.382s-3-50.038-2.716-50.86,6.183-16.834,5.933-17.406S480.638,711,480.638,711Z" transform="translate(-469.646 -711)"/></g><g transform="translate(137.572 253.536)"><path class="c" d="M419.855,711s14.4,12.974,11.616,22.946c0,0-5,30.523-14.547,37.492l-16.87-4.789L384.9,732.731l15.154-18.407Z" transform="translate(-384.9 -711)"/></g><g transform="translate(166.808 264.651)"><path class="t" d="M467.2,790.529l-.5-.5c8.542-8.471,13.081-35.884,13.153-36.17v-.036c.894-3.145.072-7.005-2.43-11.366l.608-.357c2.573,4.539,3.431,8.542,2.5,11.9-.072.429-1.215,7.22-3.36,14.94C474.206,779.628,470.846,786.919,467.2,790.529Z" transform="translate(-466.7 -742.1)"/></g><g transform="translate(197.989 239.772)"><path class="c" d="M646.816,673.243s-21.087,3.074-40.1.786c0,0-32.453-3.467-42.818,0,0,0,1.108,13.367-4.289,22.624-.357.608-.751,1.144-1.144,1.716-1.859,2.395-8.757,13.081-.715,28.557a50.822,50.822,0,0,1,2.323,5.111l15.3,39.387,37.671-.536.536-9.293c1.716-21.3,1.394-36.813.536-47.25.107-.143.25-.286.357-.429,3.717-4.4,18.585-2.645,27.413-3.431l13.832-.929Z" transform="translate(-553.94 -672.489)"/></g><g transform="translate(201.593 249.104)"><path class="t" d="M585.031,787.452,570.2,749.46a52.839,52.839,0,0,0-2.287-5.075c-8.042-15.476-1.465-26.055.751-28.95a17.626,17.626,0,0,0,1.144-1.68c2.824-4.861,3.824-10.937,4.146-15.154l.715.071c-.322,4.289-1.358,10.472-4.253,15.44a16.779,16.779,0,0,1-1.179,1.751c-2.144,2.788-8.506,13.117-.679,28.2a46.638,46.638,0,0,1,2.323,5.147L585.71,787.2Z" transform="translate(-564.024 -698.6)"/></g><g transform="translate(316.349 296.032)"><path class="j" d="M885.136,830.043a.356.356,0,0,1-.036-.143C885.1,829.936,885.136,830.007,885.136,830.043Z" transform="translate(-885.1 -829.9)"/></g><g transform="translate(253.052 260.541)"><path class="t" d="M740.882,747.9l13.832-.929-3.789-15.512c-2.823,5.147-8.864,12.116-20.551,9.829a14.2,14.2,0,0,0-8.756.107,9.116,9.116,0,0,0-1.037.465c-1.215.608-7.327,2.716-12.581-11.258.5,1.358,4.432,11.973,5.182,21.159a3.783,3.783,0,0,1,.357-.429C717.221,746.934,732.054,748.685,740.882,747.9Z" transform="translate(-708 -730.6)"/></g><g transform="translate(214.451 238.309)"><path class="k" d="M617.728,670.685l1.036,31.738s8.542,13.045,4.754,16.477l-8.22,3.753a3.8,3.8,0,0,1-5.326-3.574V706c0-.822-9.972-31.416-9.972-31.416S613.51,663.823,617.728,670.685Z" transform="translate(-600 -668.397)"/></g><g transform="translate(87.392 238.382)"><path class="c" d="M304.867,681.074,259.654,668.6,244.5,699.409l35.241,13.653Z" transform="translate(-244.5 -668.6)"/></g><g transform="translate(184.61 207.324)"><rect class="n" width="3.467" height="1.072" transform="matrix(0.551, -0.835, 0.835, 0.551, 0, 2.893)"/></g><g transform="translate(195.321 202.448)"><rect class="n" width="1.072" height="3.467" transform="translate(0 1.07) rotate(-86.219)"/></g><g transform="translate(194.615 211.147)"><path class="u" d="M548.86,603.623l-.25-.25c1.823-1.93,2.573-3.538,2.252-4.861-.357-1.465-2.037-2.252-3.36-2.681a4.728,4.728,0,0,1-2.645-2.538l-.357-.715.322-.179.357.751a4.49,4.49,0,0,0,2.466,2.323c1.394.429,3.181,1.322,3.574,2.931C551.577,599.834,550.79,601.585,548.86,603.623Z" transform="translate(-544.5 -592.4)"/></g><g transform="translate(156.114 205.857)"><path class="s" d="M448.008,577.6a7.26,7.26,0,0,0,1.859,5,13.3,13.3,0,0,1,1.144,1.287c.894,1.287.786,3,1,4.575a9.974,9.974,0,0,0,1.287,3.753,8.6,8.6,0,0,1,1.072,2.144,1.942,1.942,0,0,1-.608,2.144,2.666,2.666,0,0,0-2.752-1.394c-1.108.107-3.538,2.323-4.5,2.895-1.108-3.36-2.287-7.827-5.576-9.185a8.559,8.559,0,0,1-3.324-1.787c-1.5-1.716-.679-4.4.214-6.469.465-1.108,1.072-2.323,2.216-2.573a4.4,4.4,0,0,1,1.93.179,14.6,14.6,0,0,0,6.219.072" transform="translate(-436.777 -577.6)"/></g><g transform="translate(163.88 221.012)"><path class="k" d="M460.971,621.072A11.69,11.69,0,0,1,459.72,620a5.86,5.86,0,0,0-.465,6.433c1.43,2.859,4.646,4.146,7.041,2.9a3.106,3.106,0,0,0,.822-.572l-3.538-7.041a2.024,2.024,0,0,1-.643.107A2.943,2.943,0,0,1,460.971,621.072Z" transform="translate(-458.508 -620)"/></g><g transform="translate(167.44 215.122)"><rect class="v" width="13.546" height="0.465" transform="translate(0 4.578) rotate(-19.756)"/></g><g transform="translate(72.416 233.628)"><path class="w" d="M225.331,655.3,202.6,687.431l7.148,5.468,2.573-1.537,1.859,3.074s7.72,5.79,10.15-4.074l11.33-28.593s-2.43-4.825-5.576-3.253C230.085,658.481,230.085,658.481,225.331,655.3Z" transform="translate(-202.6 -655.3)"/></g><g transform="translate(122.42 252.011)"><circle class="x" cx="1.322" cy="1.322" r="1.322" transform="matrix(0.986, -0.167, 0.167, 0.986, 0, 0.442)"/></g><g transform="translate(101.938 119.221)"><path class="f" d="M285.557,336.129c.214-.25.465-.465.679-.679l-1.036-.25C285.307,335.522,285.45,335.808,285.557,336.129Z" transform="translate(-285.2 -335.2)"/></g><g transform="translate(124.42 272.086)"><path class="v" d="M370.51,765.009s28.378,19.229,29.844,64.513H352.21l-4.11-37.135v-17.8l.929-8.149-.715-1.894L351.5,762.9Z" transform="translate(-348.1 -762.9)"/></g><g transform="translate(153.012 246.861)"><path class="k" d="M454.942,694.6s-5.182,25.09-4.682,27.378a5.838,5.838,0,0,0,1.358,4s2.216,4.289-2.18,5.9l-5.4,2.18s-3.4,2-4.182,3.9c0,0-7.4,6.684-11.759,0,0,0,9.579-11.366,9.471-17.048l-.465-24.84C437.107,696.032,456.228,688.741,454.942,694.6Z" transform="translate(-428.1 -692.323)"/></g><g transform="translate(167.881 219.332)"><path class="s" d="M476.812,620.8s4.468,8.185,10.508,7.506c0,0,14.01-13.9,23.482-11.616,0,0,11.616,16.62-3.717,23.482,0,0-19.264,13.868-33.74-16.369L469.7,616.73l2.824-1.43Z" transform="translate(-469.7 -615.3)"/></g><g transform="translate(90.966 206.864)"><path class="j" d="M312.9,581.84a29.25,29.25,0,0,0-27.092,4.825,25.426,25.426,0,0,0-8.077,10.687,56.216,56.216,0,0,1-8.113,14.189.322.322,0,0,1-.179-.036v.214a19.564,19.564,0,0,1-10.186,6.147,27.181,27.181,0,0,0-4.754,1.18c.179,1.215,1.644,1.751,2.5,2.645,1.144,1.215,1.144,3.074,1.108,4.753a1.278,1.278,0,0,0,.179.822,1.6,1.6,0,0,0,.465.357c1.215.643,2.43,1.251,3.646,1.894a5.518,5.518,0,0,0,1.5.608,7.734,7.734,0,0,0,2.037.071c3.074-.25,6.147-.572,9.221-1l-1.859,5.325c-.572,1.179-1.144,2.323-1.751,3.467,1.5.679,3.252.5,4.861.858,3.538.786,6.112,3.967,9.507,5.218a19.291,19.291,0,0,0,5.361.822c.179,0,.322.036.5.036a8.811,8.811,0,0,1,3.145,4.289h17.942s19.55-2.966,28.914,2.216C351.215,656.646,341.815,575.872,312.9,581.84Z" transform="translate(-254.5 -580.417)"/></g><g transform="translate(71.416 273.229)"><path class="b" d="M254.019,766.1s15.226,34.6,3.252,65.513H199.8l23.267-45.677a22.71,22.71,0,0,1,9.042-8.864Z" transform="translate(-199.8 -766.1)"/></g><g transform="translate(272.638 200.139)"><path class="q" d="M820.808,602.988c-4.539-9.829-11.187-21.588-40.709-41.388l-17.3,5.754L785.317,601.2,804.76,628.65l11.223-7.827A14.32,14.32,0,0,0,820.808,602.988Z" transform="translate(-762.8 -561.6)"/></g><g transform="translate(113.233 162.117)"><path class="q" d="M316.8,463.825l6.541-8.4s2.645-1.287,5.325,2.538Z" transform="translate(-316.8 -455.218)"/></g><g transform="translate(123.633 282.2)"><path class="y" d="M348.009,838.378l-.322-.107c8.4-23.589-1.68-46.678-1.787-46.928l.322-.143C346.329,791.414,356.444,814.646,348.009,838.378Z" transform="translate(-345.9 -791.2)"/></g><g transform="translate(103.69 322.409)"><path class="y" d="M290.1,919.533s4.074-2.18,5.29-15.833Z" transform="translate(-290.1 -903.7)"/><g transform="translate(3.824 4.897)"><path class="y" d="M300.8,921.26s3.932,1.037,7.4-3.86Z" transform="translate(-300.8 -917.4)"/></g></g><g transform="translate(215.631 305.432)"><circle class="t" cx="1.787" cy="1.787" r="1.787"/></g><g transform="translate(221.993 321.301)"><circle class="t" cx="1.787" cy="1.787" r="1.787"/></g><g transform="translate(209.019 291.171)"><circle class="t" cx="1.787" cy="1.787" r="1.787"/></g><g transform="translate(281.609 235.921)"><path class="w" d="M787.9,667.285c1.573-.143,2.967-.214,4,.465a7.347,7.347,0,0,1,2.287,2.824c2.752,5.075,3.574,10.937,4.36,16.655.465,3.288.894,6.576,1.358,9.864a12.68,12.68,0,0,0,.536,2.573c1.072,3.074,4.36,5.039,7.613,5.254a4.967,4.967,0,0,0,3.681-1,12.649,12.649,0,0,0,1.394-1.93,5.346,5.346,0,0,1,4.075-2.037,6.4,6.4,0,0,0,2.859-.179,3.3,3.3,0,0,0,1.465-1.644,9.2,9.2,0,0,0,.072-7.22,17.746,17.746,0,0,0-4.217-6.04,29.987,29.987,0,0,1-2.538-2.681,33.092,33.092,0,0,1-2.073-3.646,39.023,39.023,0,0,0-3.252-4.682c-2.9-3.753-7.684-7.684-10.293-11.616a1.105,1.105,0,0,0-1.787-.143,9.287,9.287,0,0,1-2.43,2.18,4.344,4.344,0,0,1-1.787.25,7.094,7.094,0,0,0-3.217.751c-1,.572-1.966.894-2.109,2" transform="translate(-787.9 -661.715)"/></g><g transform="translate(293.616 249.033)"><path class="w" d="M821.5,720.667s-.465,14.582,13.689,6.9c0,0,1.394-2.18,5.683-3,0,0,8.4-4.682,1.465-11.866,0,0-8.006-11.115-10.436-14.3l-5.111,11.795Z" transform="translate(-821.495 -698.4)"/></g><g transform="translate(286.934 238.671)"><path class="z" d="M802.8,669.478s5.683-1,9.65,8.649C812.45,678.163,810.949,668.513,802.8,669.478Z" transform="translate(-802.8 -669.41)"/></g><g transform="translate(113.733 231.662)"><path class="aa" d="M369.345,684.826c-.322-3.431-1.251-6.862-.822-10.293.286-2.359,1.215-4.611,1.358-6.969a23.194,23.194,0,0,0-.715-6.255c-.786-3.824-1.608-7.684-2.395-11.509l-1.072,2.823c-4.9-2.859-11.044-1.287-16.477.357-4.146,1.251-8.328,2.538-12.474,3.789-3.789,1.144-7.9,2.538-10.15,5.826-2.395,3.538-1.93,8.185-3.109,12.295a20.6,20.6,0,0,1-5.29,8.506c3.145,1.036,5.576,3.86,8.757,5a19.3,19.3,0,0,0,5.361.822c.179,0,.322.036.5.036a8.811,8.811,0,0,1,3.145,4.289h17.942a92.47,92.47,0,0,1,14.118-.822A13.436,13.436,0,0,0,369.345,684.826Z" transform="translate(-318.2 -649.8)"/></g><g transform="translate(120.252 240.681)"><ellipse class="ab" cx="4.396" cy="6.219" rx="4.396" ry="6.219" transform="translate(0 2.721) rotate(-18.029)"/></g><g transform="translate(127.815 261.971)"><path class="ab" d="M378.794,750.076c-.036.071-.107.143-.143.214-.858-1.394-3-1.465-3.967-2.824-.608-.858-.608-2-1.215-2.859a8.312,8.312,0,0,0-1.608-1.358,8.963,8.963,0,0,1-1.859-2.43c-.786-1.287-1.573-2.538-2.323-3.824l.107.036a93.483,93.483,0,0,0,11.759,3.181l.25-1.93L361.317,734.6,357.6,744.75c8.006,41.281,26.27,35.348,26.27,35.348C398.6,774.344,382.047,753.9,378.794,750.076Z" transform="translate(-357.6 -734.6)"/></g><g transform="translate(137.894 264.401)"><path class="ac" d="M385.8,741.4c.786,1.287,1.573,2.538,2.323,3.824a10.211,10.211,0,0,0,1.859,2.43,9.8,9.8,0,0,1,1.608,1.358c.608.822.608,2,1.215,2.859.965,1.322,3.109,1.43,3.967,2.824.036-.071.107-.143.143-.214-.322-.393-.536-.608-.536-.608l1.287-9.221a90.759,90.759,0,0,1-11.759-3.181Z" transform="translate(-385.8 -741.4)"/></g><g transform="translate(124.813 221.298)"><path class="ab" d="M367.857,669.3h0c8.685,1.358,17.585-7.255,18.442-14.832l2.395-33.454L349.2,620.8l2.967,30.916C353.2,659.329,355.455,667.728,367.857,669.3Z" transform="translate(-349.2 -620.8)"/></g><g transform="translate(149.617 242.063)"><path class="u" d="M419.279,688.514l2.216-2.073a1.464,1.464,0,0,0,.465-1.179,1.564,1.564,0,0,0-.715-1.215c-2.216-1.573-2.216-5.111-2.216-5.147H418.6c0,.143,0,3.789,2.43,5.5a1.31,1.31,0,0,1,.536.893,1.006,1.006,0,0,1-.322.822l-2.216,2.073Z" transform="translate(-418.6 -678.9)"/></g><g transform="translate(112.569 215.876)"><path class="j" d="M327.938,631.747a18.472,18.472,0,0,1,2.538,3.86c-.25-3-.393-6.4,1.644-8.614,1.751-1.894,4.5-2.287,6.934-3.074,5.826-1.966,10.365-6.755,13.367-12.116a19.556,19.556,0,0,1-5.79,11.115,44.084,44.084,0,0,0,7.506-.429,7.66,7.66,0,0,0,2.5-.679c1.573-.822,2.5-2.5,3.288-4.11a6.694,6.694,0,0,1-.071,4.182c-.179.465-.322,1.072.071,1.358a1.079,1.079,0,0,0,.751.072,6.013,6.013,0,0,1,4.4,1.144c1.859-2.395,5-9.114,3.9-11.937-.929-2.287-5.9-1.287-7.291-3.324a7.8,7.8,0,0,0-1.5-1.751A7.313,7.313,0,0,0,357,606.156a29.365,29.365,0,0,0-14.9,1.072c-4.789,1.5-11.509-.786-15.726,1.93-3.181,2.037-4.039,8.971-6.576,11.795A18.648,18.648,0,0,0,314.964,631a1.087,1.087,0,0,0,.107.751,1.006,1.006,0,0,0,.894.322,44.03,44.03,0,0,0,11.652-.929" transform="translate(-314.944 -605.631)"/></g><g transform="translate(155.014 238.096)"><ellipse class="j" cx="1.179" cy="1.716" rx="1.179" ry="1.716"/></g><g transform="translate(133.962 234.486)"><path class="j" d="M384.7,657.807a9.5,9.5,0,0,1-2.323,1.179,18.831,18.831,0,0,1-2.43.679,14.475,14.475,0,0,1-2.5.25,9.315,9.315,0,0,1-2.609-.214l-.036-.107c1.644-.357,3.288-.643,4.9-1,1.644-.286,3.288-.608,4.932-.894Z" transform="translate(-374.8 -657.7)"/></g><g transform="translate(152.655 234.259)"><path class="j" d="M427.136,657.293a6.149,6.149,0,0,1,2.109-.214,8.992,8.992,0,0,1,1.966.286,9.111,9.111,0,0,1,1.894.643,6.707,6.707,0,0,1,1.751,1.144l-.036.107c-1.287-.25-2.573-.572-3.86-.893s-2.573-.643-3.86-1Z" transform="translate(-427.1 -657.066)"/></g><g transform="translate(142.576 254.108)"><path class="j" d="M398.9,712.6s7.4,1.858,9.042.893C407.942,713.493,401.866,724.252,398.9,712.6Z" transform="translate(-398.9 -712.6)"/></g><g transform="translate(111.637 99.063)"><g transform="translate(3.668)"><path class="ad" d="M324.53,366.58l-1.93-.751L355.732,278.8l2.573.572Z" transform="translate(-322.6 -278.8)"/></g><g transform="translate(0 78.666)"><path class="b" d="M331.624,513.447a1.568,1.568,0,1,0-2.287,2.144c1.394,1.5.179,4.539.143,4.611a7.241,7.241,0,0,1-13.51-5.218l5.79-14.94-2.931-1.144-5.79,14.94a10.394,10.394,0,0,0,19.372,7.541C332.482,521.2,334.447,516.485,331.624,513.447Z" transform="translate(-312.337 -498.9)"/></g></g><g transform="translate(102.117 164.505)"><path class="q" d="M288.488,482.165l2.43-10.937a5.087,5.087,0,0,1,3.038-3.61L307,462.293l7.577-.393s3.217,3.824-4.754,5.361l-6.648,3.538,7.649.286a2.254,2.254,0,0,1,2.073,1.644,3.742,3.742,0,0,1-.643,3.145l-1.179,2.752s5.075,3.145-5.826,8.471c0,0-3.181,4.682-7.72,5.182l-2.931,4.182-8.9-10.651Z" transform="translate(-285.7 -461.9)"/></g><g transform="translate(201.62 257.646)"><path class="t" d="M564.779,747.84l-.679-.286a10.718,10.718,0,0,1,6.469-5.861c3.574-1.036,7.792,0,12.545,3.109-1.18-3.681-5.111-16.477-4.718-22.3l.715.036c-.465,6.541,4.968,22.874,5,23.017l.357,1.036-.894-.608c-4.9-3.467-9.221-4.682-12.8-3.61A10.275,10.275,0,0,0,564.779,747.84Z" transform="translate(-564.1 -722.5)"/></g><g transform="translate(177.245 170.152)"><path class="ae" d="M495.9,477.7" transform="translate(-495.9 -477.7)"/></g><g transform="translate(178.96 144.633)"><path class="h" d="M529.615,412.8c13.367,0,24.59,6.112,27.7,14.4a11.277,11.277,0,0,0,.5-3.288c0-9.722-12.8-17.62-28.557-17.62S500.7,414.2,500.7,423.92a11.461,11.461,0,0,0,.893,4.36C504.1,419.488,515.675,412.8,529.615,412.8Z" transform="translate(-500.7 -406.3)"/></g><g transform="translate(198.654 170.438)"><path class="k" d="M569.024,478.714s-1.68,6.791,5.754,7.148l-11.83,11.83L555.8,485.255s5.218-.143,4.5-6.755Z" transform="translate(-555.8 -478.5)"/></g><g transform="translate(179.56 149.486)"><path class="p" d="M544.346,422.6a29.2,29.2,0,0,0-13.4-2.681,28.663,28.663,0,0,0-13.4,2.681c-3.646,1.716-15.512,8.042-15.154,16.906.143,3.824,4.825,4.611,8.935,5.325l1.072.179c4.4.822,8.006,3.4,11.08,7.827a18.385,18.385,0,0,1,3.181,8.506,22.639,22.639,0,0,0-1.465,4.789c-.322,1.823-.786,5.54.071,5.719,1.144.286,2.109-3.717,2.395-5.361.929-5.29,3.753-8.685,7.935-13.224,3.967-4.289,9.15-7.4,13.832-8.292l1.072-.179c4.11-.715,8.757-1.537,8.935-5.325C559.893,430.644,547.991,424.354,544.346,422.6Zm5.969,19.121-1.108.214c-7.363,1.394-12.9,6.684-14.94,8.935a54.27,54.27,0,0,0-5.79,7.184,22.617,22.617,0,0,0-3.288-7.327c-3.467-4.968-7.541-7.827-12.438-8.757l-1.108-.214c-4.36-.751-6.684-1.573-6.934-2.43-.214-4.932,6.934-10.579,13.617-13.725a28.191,28.191,0,0,1,12.652-2.5,27.569,27.569,0,0,1,12.652,2.5c6.719,3.181,13.832,8.828,13.617,13.76C557,440.151,554.639,440.973,550.314,441.724Z" transform="translate(-502.378 -419.878)"/></g><g transform="translate(160.656 177.489)"><path class="s" d="M456.532,532.314c4.539-.071,9.221-.751,13.153-3,5.29-3.038,8.614-8.542,11.795-13.725a9.061,9.061,0,0,1,1.823-2.359,3.1,3.1,0,0,1,2.824-.679,3.884,3.884,0,0,1,1.751,1.465,9.16,9.16,0,0,1,.357,9.757c.5.751,1.072,2.252,1.573,3a12.568,12.568,0,0,0,1.573-2.681,13.583,13.583,0,0,0,1.358-7.4,18.138,18.138,0,0,0-5.147-10.4,43.238,43.238,0,0,0-9.4-7.077,6.273,6.273,0,0,0-2.18-.965,4.679,4.679,0,0,0-4.325,1.966,20.708,20.708,0,0,0-2.323,4.4,8.965,8.965,0,0,1-2.931,3.967,10.465,10.465,0,0,1-2.323,1.037c-1.608.536-3.217,1-4.861,1.465a14.9,14.9,0,0,0-3.074,1.072,9.225,9.225,0,0,0-4.039,4.682,27.806,27.806,0,0,0-1.644,6.076l-.929,4.789a1.581,1.581,0,0,0,.036,1.072,1.6,1.6,0,0,0,.715.572l7.112,3.288" transform="translate(-449.486 -498.227)"/></g><g transform="translate(193.721 188.809)"><path class="s" d="M542,533.26l7.291,13.868.894-9.436-1.68-5.683-2.252-2.109-3.217.5Z" transform="translate(-542 -529.9)"/></g><g transform="translate(212.232 226.163)"><path class="p" d="M614.559,676.511V645.452a10.757,10.757,0,0,0-8.077-10.687l-.715-.143a9.4,9.4,0,0,0-7.613,1.68h0a11.41,11.41,0,0,0-3.753,12.724l9.829,29.057Z" transform="translate(-593.79 -634.412)"/></g><g transform="translate(222.6 177.086)"><path class="h" d="M622.8,500.174c5.039,2.5,12.652,3.646,18.264,3.538,2.681-.036,5.4-.107,8.077-.179a30.484,30.484,0,0,0,5.111-.393,36.121,36.121,0,0,0,6.326-2c3.431-1.358,6.862-2.681,10.258-4.039.929,3.145,1.644,4.9,4.217,6.9a38.037,38.037,0,0,1-9.293,6.719,99.555,99.555,0,0,1-14.725,6.04c-8.113,2.5-16.334,5-24.8,5.647a1.219,1.219,0,0,1-.786-.107,1.487,1.487,0,0,1-.572-.929c-1.573-5.754-3.109-12.188-.322-17.513" transform="translate(-622.8 -497.1)"/></g><g transform="translate(248.001 179.461)"><path class="q" d="M715.647,526.174l-5.933-1.144a17.764,17.764,0,0,1-7.005-3l-6.076-4.325a5.933,5.933,0,0,1-2.466-4.289l-.286-3.181a3.3,3.3,0,0,1,.822-2.466,10.279,10.279,0,0,0,2.287-3.431.732.732,0,0,1,.572-.536c1.215-.215,4.11-.107,1.894,6.112,0,0,5.075,4.718,7.97,5.04Z" transform="translate(-693.87 -503.745)"/></g><g transform="translate(251.086 180.157)"><path class="d" d="M704.537,506.161a2.746,2.746,0,0,1-.107,1.072c-.036.071-.036.143-.107.214a.385.385,0,0,1-.286.072,4.8,4.8,0,0,1-1.43-.25.114.114,0,0,1-.107-.107.131.131,0,0,1,.036-.107,8.91,8.91,0,0,0,.572-1.179,1.433,1.433,0,0,1,1.179-.107" transform="translate(-702.5 -505.694)"/></g><g transform="translate(253.23 179.338)"><path class="p" d="M713.4,512.8c-2.5-.25-4.718-2.788-4.789-2.895l-.107-.107.071-.143c1.608-4.182.286-5.862.286-5.9l.393-.357c.071.071,1.537,1.894-.107,6.29.465.5,2.323,2.43,4.325,2.609Z" transform="translate(-708.5 -503.4)"/></g><g transform="translate(268.706 299.177)"><path class="c" d="M810.165,866.757h-50.18v-.715h50.18A4.592,4.592,0,0,0,814.7,861.4a4.545,4.545,0,0,0-4.539-4.539h-.107l-.643.036.25-.536a5.008,5.008,0,0,0,.5-2.037,4.469,4.469,0,0,0-4.468-4.468,4.526,4.526,0,0,0-2.252.608l-.429.25-.107-.5a2.443,2.443,0,0,0-2.359-1.93,2.562,2.562,0,0,0-1.036.215l-.572.286.071-.643a6.046,6.046,0,0,0,.036-.786,6.3,6.3,0,0,0-11.4-3.681l-.536.715-.107-.894a3.9,3.9,0,0,0-6.719-2.109l-.429.465-.179-.643a2.4,2.4,0,0,0-2.323-1.787A2.447,2.447,0,0,0,775,841.273l-.143.608-.465-.429a4,4,0,0,0-2.716-1.072,4.159,4.159,0,0,0-3.36,1.966l-.214.322-.322-.214a4.492,4.492,0,0,0-2.645-.858,4.545,4.545,0,0,0-4.539,4.539,4.806,4.806,0,0,0,.608,2.43l.465.822-.894-.286a6.127,6.127,0,0,0-1.966-.322,6.3,6.3,0,0,0-6.29,6.291,6.19,6.19,0,0,0,.429,2.287l-.679.25a7.767,7.767,0,0,1-.465-2.538,7.017,7.017,0,0,1,7.005-7.005,6.472,6.472,0,0,1,1.43.143,5.49,5.49,0,0,1-.357-2.073,5.244,5.244,0,0,1,8.006-4.468,4.8,4.8,0,0,1,3.753-2,4.667,4.667,0,0,1,2.788.929,3.114,3.114,0,0,1,5.683-.107,4.615,4.615,0,0,1,7.4,2.109,7.01,7.01,0,0,1,12.223,4.682v.322a2.788,2.788,0,0,1,.786-.107,3.134,3.134,0,0,1,2.931,2.037,5.177,5.177,0,0,1,7.4,4.682,6.08,6.08,0,0,1-.357,1.859,5.352,5.352,0,0,1-.322,10.686Z" transform="translate(-751.8 -838.7)"/></g><g transform="translate(265.275 316.512)"><path class="c" d="M754.066,897.922h0l-10.258-.071a.7.7,0,0,1-.608-.322,6.585,6.585,0,0,1-1-3.574,6.755,6.755,0,0,1,13.51,0,6.676,6.676,0,0,1-1.072,3.646A.607.607,0,0,1,754.066,897.922Zm0-.715h0a6.176,6.176,0,0,0,.965-3.252,6.04,6.04,0,1,0-12.081,0,6.187,6.187,0,0,0,.894,3.181Z" transform="translate(-742.2 -887.2)"/></g><g transform="translate(292.402 308.541)"><path class="c" d="M823.068,877.195c-2.752,0-4.968-2.752-4.968-6.147s2.216-6.147,4.968-6.147,4.968,2.752,4.968,6.147S825.82,877.195,823.068,877.195Zm0-11.616c-2.359,0-4.253,2.43-4.253,5.433s1.93,5.433,4.253,5.433,4.253-2.43,4.253-5.433S825.427,865.579,823.068,865.579Z" transform="translate(-818.1 -864.9)"/></g><g transform="translate(299.372 313.419)"><path class="c" d="M841.21,888.466a3.344,3.344,0,0,1-1.537-.357A3.823,3.823,0,0,1,837.6,885l.715-.107a3.193,3.193,0,0,0,1.68,2.573c1.716.822,3.967-.286,5.04-2.466a5.113,5.113,0,0,0,.465-3.288,3.036,3.036,0,0,0-1.608-2.18,3.322,3.322,0,0,0-3.431.5l-.429-.572a4.108,4.108,0,0,1,4.182-.572,3.837,3.837,0,0,1,2,2.681,6.014,6.014,0,0,1-.5,3.753A5.4,5.4,0,0,1,841.21,888.466Z" transform="translate(-837.6 -878.547)"/></g><g transform="translate(286.551 313.407)"><path class="c" d="M806.829,888.445a5.241,5.241,0,0,1-4.468-3.145,5.558,5.558,0,0,1-.5-3.753,3.744,3.744,0,0,1,2-2.681,4.028,4.028,0,0,1,4.253.643l-.429.572a3.4,3.4,0,0,0-3.5-.572,3.035,3.035,0,0,0-1.608,2.18,5.113,5.113,0,0,0,.465,3.288c1.072,2.18,3.324,3.288,5.039,2.466a3.242,3.242,0,0,0,1.68-2.752l.715.072a3.6,3.6,0,0,1-3.646,3.681Z" transform="translate(-801.728 -878.514)"/></g><g transform="translate(290.329 313.617)"><path class="c" d="M819.806,892.9,812.3,883.6l.536-.465,6.255,7.756V879.1h.715Z" transform="translate(-812.3 -879.1)"/></g><g transform="translate(297.201 318.641)"><rect class="c" width="9.614" height="0.715" transform="translate(0 7.576) rotate(-51.998)"/></g><g transform="translate(293.117 259.398)"><path class="af" d="M820.1,727.4" transform="translate(-820.1 -727.4)"/></g><g transform="translate(215.845 194.17)"><path class="p" d="M613.336,548.474H603.9V544.9h9.436Zm-8.721-.715h8.006v-2.145h-8.006Z" transform="translate(-603.9 -544.9)"/></g><g transform="translate(215.845 197.029)"><path class="p" d="M608.618,559.655a4.713,4.713,0,0,1-4.718-4.718V552.9h9.436v2.037A4.736,4.736,0,0,1,608.618,559.655Zm-4-6.04v1.322a4,4,0,1,0,8.006,0v-1.322Z" transform="translate(-603.9 -552.9)"/></g><g transform="translate(7.761 256.574)"><path class="c" d="M42.323,777.4H33.352A11.654,11.654,0,0,1,21.7,765.749v-34.6A11.654,11.654,0,0,1,33.352,719.5h8.971a11.654,11.654,0,0,1,11.652,11.652v34.6A11.631,11.631,0,0,1,42.323,777.4Zm-8.971-57.186a10.937,10.937,0,0,0-10.937,10.937v34.6a10.937,10.937,0,0,0,10.937,10.937h8.971a10.937,10.937,0,0,0,10.937-10.937v-34.6a10.937,10.937,0,0,0-10.937-10.937Z" transform="translate(-21.7 -719.5)"/><g transform="translate(8.823 19.693)"><g transform="translate(2.078)"><g transform="translate(4.897)"><rect class="c" width="0.715" height="50.609"/></g><g transform="translate(0 50.216)"><rect class="c" width="10.722" height="0.715"/></g></g><g transform="translate(7.081 24.334)"><rect class="c" width="9.185" height="0.715" transform="matrix(0.771, -0.636, 0.636, 0.771, 0, 5.844)"/></g><g transform="translate(0 24.306)"><rect class="c" width="0.715" height="9.185" transform="matrix(0.636, -0.771, 0.771, 0.636, 0, 0.551)"/></g><g transform="translate(7.066 14.617)"><rect class="c" width="9.185" height="0.715" transform="matrix(0.771, -0.636, 0.636, 0.771, 0, 5.844)"/></g><g transform="translate(0.01 14.615)"><rect class="c" width="0.715" height="9.185" transform="matrix(0.636, -0.771, 0.771, 0.636, 0, 0.551)"/></g><g transform="translate(7.074 4.929)"><rect class="c" width="9.185" height="0.715" transform="matrix(0.771, -0.636, 0.636, 0.771, 0, 5.844)"/></g><g transform="translate(0.02 4.924)"><rect class="c" width="0.715" height="9.185" transform="matrix(0.636, -0.771, 0.771, 0.636, 0, 0.551)"/></g></g></g><g transform="translate(330.645 261.471)"><path class="c" d="M939,782.451h-.286A13.637,13.637,0,0,1,925.1,768.834V746.817A13.637,13.637,0,0,1,938.717,733.2H939a13.637,13.637,0,0,1,13.617,13.617V768.87A13.606,13.606,0,0,1,939,782.451Zm-.286-48.5a12.92,12.92,0,0,0-12.9,12.9V768.87a12.92,12.92,0,0,0,12.9,12.9H939a12.92,12.92,0,0,0,12.9-12.9V746.853a12.92,12.92,0,0,0-12.9-12.9Z" transform="translate(-925.1 -733.2)"/><g transform="translate(7.518 16.798)"><g transform="translate(5.885)"><rect class="c" width="0.715" height="49.072"/></g><g transform="translate(5.985 20.591)"><rect class="c" width="7.792" height="0.715" transform="translate(0 4.955) rotate(-39.489)"/></g><g transform="translate(0 20.601)"><rect class="c" width="0.715" height="7.792" transform="matrix(0.636, -0.771, 0.771, 0.636, 0, 0.551)"/></g><g transform="translate(5.989 12.37)"><rect class="c" width="7.792" height="0.715" transform="translate(0 4.955) rotate(-39.489)"/></g><g transform="translate(0.003 12.371)"><rect class="c" width="0.715" height="7.792" transform="matrix(0.636, -0.771, 0.771, 0.636, 0, 0.551)"/></g><g transform="translate(5.992 4.148)"><rect class="c" width="7.792" height="0.715" transform="translate(0 4.955) rotate(-39.489)"/></g><g transform="translate(0.008 4.157)"><rect class="c" width="0.715" height="7.792" transform="matrix(0.636, -0.771, 0.771, 0.636, 0, 0.551)"/></g></g></g><g transform="translate(129.437 217.96)"><g transform="translate(0 0)"><rect class="c" width="9.471" height="0.572" transform="translate(0 9.156) rotate(-75.179)"/></g></g><g transform="translate(267.362 167.788)"><g transform="translate(0 0)"><rect class="ag" width="9.471" height="0.572" transform="translate(0 8.8) rotate(-68.291)"/></g></g><g transform="translate(262.213 256.911)"><g transform="translate(0 0)"><rect class="c" width="9.471" height="0.572" transform="translate(0 8.8) rotate(-68.291)"/></g></g><g transform="translate(83.158 179.849)"><g transform="translate(0 0)"><rect class="ag" width="9.471" height="0.572" transform="translate(0 9.156) rotate(-75.179)"/></g></g><g transform="translate(166.284 289.818)"><g transform="translate(0 0)"><rect class="c" width="14.118" height="0.572" transform="translate(0 13.441) rotate(-72.199)"/></g></g><g transform="translate(0.008 21.332)"><g transform="translate(16.068 18.614)"><g transform="translate(0 0)"><rect class="ag" width="25.662" height="0.572" transform="matrix(0.351, -0.936, 0.936, 0.351, 0, 24.027)"/></g></g><g transform="translate(34.913 22.791)"><g transform="translate(0 0)"><rect class="ag" width="25.662" height="0.572" transform="translate(0 24.03) rotate(-69.457)"/></g></g><g transform="translate(75.299 25.4)"><g transform="translate(0 0)"><rect class="ag" width="25.662" height="0.572" transform="translate(0 24.03) rotate(-69.457)"/></g></g><g transform="translate(98.188 2.921)"><g transform="translate(0 0)"><rect class="ag" width="25.662" height="0.572" transform="translate(0 24.03) rotate(-69.457)"/></g></g><g transform="translate(26.731 93.52)"><g transform="translate(0 0)"><rect class="ag" width="25.662" height="0.572" transform="translate(0 24.03) rotate(-69.457)"/></g></g><g transform="translate(72.947 2.781)"><g transform="translate(0 0)"><rect class="ag" width="9.471" height="0.572" transform="translate(0 9.156) rotate(-75.179)"/></g></g><g transform="translate(50.611 123.877)"><g transform="translate(0 0)"><rect class="ag" width="9.471" height="0.572" transform="translate(0 9.156) rotate(-75.179)"/></g></g><g transform="translate(57.826 36.83)"><g transform="translate(0 0)"><rect class="ag" width="9.471" height="0.572" transform="translate(0 8.798) rotate(-68.271)"/></g></g><g transform="translate(163.432 41.892)"><g transform="translate(0 0)"><rect class="ag" width="25.662" height="0.572" transform="translate(0 24.03) rotate(-69.457)"/></g></g><g transform="translate(144.242 0)"><g transform="translate(0)"><rect class="ag" width="9.471" height="0.572" transform="matrix(0.37, -0.929, 0.929, 0.37, 0, 8.799)"/></g></g><g transform="translate(21.996 175.668)"><g transform="translate(0 0)"><rect class="ag" width="9.471" height="0.572" transform="matrix(0.37, -0.929, 0.929, 0.37, 0, 8.799)"/></g></g><g transform="translate(100.431 39.907)"><g transform="translate(0 0)"><rect class="ag" width="9.471" height="0.572" transform="matrix(0.37, -0.929, 0.929, 0.37, 0, 8.799)"/></g></g><g transform="translate(149.602 41.488)"><g transform="translate(0 0)"><rect class="ag" width="9.471" height="0.572" transform="matrix(0.37, -0.929, 0.929, 0.37, 0, 8.799)"/></g></g><g transform="translate(179.598 62.422)"><g transform="translate(0 0)"><rect class="ag" width="9.471" height="0.572" transform="matrix(0.37, -0.929, 0.929, 0.37, 0, 8.799)"/></g></g><g transform="translate(229.629 57.571)"><g transform="translate(0 0)"><rect class="ag" width="25.662" height="0.572" transform="translate(0 24.03) rotate(-69.457)"/></g></g><g transform="translate(299.51 77.86)"><g transform="translate(0 0)"><rect class="ag" width="25.662" height="0.572" transform="translate(0 24.03) rotate(-69.457)"/></g></g><g transform="translate(353.034 151.074)"><g transform="translate(0 0)"><rect class="ag" width="25.662" height="0.572" transform="translate(0 24.03) rotate(-69.457)"/></g></g><g transform="translate(326.676 45.866)"><g transform="translate(0 0)"><rect class="ag" width="9.471" height="0.572" transform="translate(0 9.156) rotate(-75.179)"/></g></g><g transform="translate(170.761 5.085)"><g transform="translate(0 0)"><rect class="ag" width="9.471" height="0.572" transform="matrix(0.37, -0.929, 0.929, 0.37, 0, 8.799)"/></g></g><g transform="translate(285.766 89.987)"><g transform="translate(0 0)"><rect class="ag" width="9.471" height="0.572" transform="translate(0 8.8) rotate(-68.291)"/></g></g><g transform="translate(365.043 193.308)"><g transform="translate(0 0)"><rect class="ag" width="9.471" height="0.572" transform="translate(0 8.8) rotate(-68.291)"/></g></g><g transform="translate(317.23 99.647)"><g transform="translate(0 0)"><rect class="ag" width="9.471" height="0.572" transform="matrix(0.37, -0.929, 0.929, 0.37, 0, 8.799)"/></g></g><g transform="translate(227.848 16.014)"><g transform="translate(0 0)"><rect class="ag" width="9.471" height="0.572" transform="matrix(0.37, -0.929, 0.929, 0.37, 0, 8.799)"/></g></g><g transform="translate(262.283 15.951)"><g transform="translate(0 0)"><rect class="ag" width="9.471" height="0.572" transform="translate(0 8.8) rotate(-68.291)"/></g></g><g transform="translate(0 111.268)"><g transform="translate(0 0)"><rect class="ag" width="9.471" height="0.572" transform="translate(0 8.8) rotate(-68.291)"/></g></g><g transform="translate(293.898 39.536)"><g transform="translate(0 0)"><rect class="ag" width="9.471" height="0.572" transform="translate(0 9.156) rotate(-75.179)"/></g></g><g transform="translate(325.187 130.036)"><g transform="translate(0 0)"><rect class="ag" width="9.471" height="0.572" transform="translate(0 9.156) rotate(-75.179)"/></g></g><g transform="translate(260.544 38.923)"><g transform="translate(0 0)"><rect class="ag" width="20.837" height="0.572" transform="translate(0 19.697) rotate(-70.962)"/></g></g><g transform="translate(197.367 15.944)"><g transform="translate(0)"><rect class="ag" width="20.623" height="0.572" transform="translate(0 19.573) rotate(-71.645)"/></g></g><g transform="translate(204.804 59.111)"><g transform="translate(0)"><rect class="ag" width="20.623" height="0.572" transform="translate(0 19.573) rotate(-71.639)"/></g></g><g transform="translate(124.163 24.383)"><g transform="translate(0 0)"><rect class="ag" width="25.662" height="0.572" transform="matrix(0.351, -0.936, 0.936, 0.351, 0, 24.03)"/></g></g><g transform="translate(29.995 68.583)"><g transform="translate(0 0)"><rect class="ag" width="9.471" height="0.572" transform="translate(0 9.156) rotate(-75.179)"/></g></g><g transform="translate(87.812 199.397)"><g transform="translate(0 0)"><rect class="ag" width="9.471" height="0.572" transform="translate(0 9.156) rotate(-75.179)"/></g></g><g transform="translate(70.396 62.407)"><g transform="translate(0 0)"><rect class="ag" width="9.471" height="0.572" transform="matrix(0.37, -0.929, 0.929, 0.37, 0, 8.799)"/></g></g><g transform="translate(4.767 69.598)"><g transform="translate(0 0)"><rect class="ag" width="9.471" height="0.572" transform="translate(0 8.8) rotate(-68.291)"/></g></g><g transform="translate(131.127 62.415)"><g transform="translate(0 0)"><rect class="ag" width="9.471" height="0.572" transform="matrix(0.37, -0.929, 0.929, 0.37, 0, 8.799)"/></g></g><g transform="translate(288.799 118.475)"><g transform="translate(0 0)"><rect class="ag" width="25.662" height="0.572" transform="matrix(0.351, -0.936, 0.936, 0.351, 0, 24.03)"/></g></g><g transform="translate(286.346 152.249)"><g transform="translate(0 0)"><rect class="ag" width="9.471" height="0.572" transform="translate(0 9.156) rotate(-75.179)"/></g></g><g transform="translate(325.176 175.533)"><g transform="translate(0 0)"><rect class="ag" width="9.471" height="0.572" transform="translate(0 9.156) rotate(-75.179)"/></g></g><g transform="translate(57.507 152.073)"><g transform="translate(0 0)"><rect class="ag" width="9.471" height="0.572" transform="translate(0 9.156) rotate(-75.179)"/></g></g><g transform="translate(53.634 193.143)"><g transform="translate(0 0)"><rect class="ag" width="9.471" height="0.572" transform="translate(0 9.156) rotate(-75.179)"/></g></g><g transform="translate(242.498 125.934)"><g transform="translate(0 0)"><rect class="ag" width="9.471" height="0.572" transform="translate(0 9.156) rotate(-75.179)"/></g></g><g transform="translate(264.757 101.952)"><g transform="translate(0 0)"><rect class="ag" width="9.471" height="0.572" transform="translate(0 9.156) rotate(-75.179)"/></g></g><g transform="translate(302.274 176.195)"><g transform="translate(0 0)"><rect class="ag" width="9.471" height="0.572" transform="translate(0 8.8) rotate(-68.291)"/></g></g><g transform="translate(242.002 197.815)"><g transform="translate(0 0)"><rect class="ag" width="9.471" height="0.572" transform="matrix(0.37, -0.929, 0.929, 0.37, 0, 8.799)"/></g></g><g transform="translate(262.747 192.253)"><g transform="translate(0 0)"><rect class="ag" width="9.471" height="0.572" transform="matrix(0.37, -0.929, 0.929, 0.37, 0, 8.799)"/></g></g><g transform="translate(304.29 146.085)"><g transform="translate(0 0)"><rect class="ag" width="9.471" height="0.572" transform="matrix(0.37, -0.929, 0.929, 0.37, 0, 8.799)"/></g></g><g transform="translate(351.531 118.796)"><g transform="translate(0 0)"><rect class="ag" width="9.471" height="0.572" transform="translate(0 8.8) rotate(-68.291)"/></g></g><g transform="translate(342.373 203.388)"><g transform="translate(0 0)"><rect class="ag" width="9.471" height="0.572" transform="translate(0 8.8) rotate(-68.291)"/></g></g><g transform="translate(276.13 121.628)"><g transform="translate(0 0)"><rect class="ag" width="9.471" height="0.572" transform="translate(0 9.156) rotate(-75.179)"/></g></g><g transform="translate(339.879 149.536)"><g transform="translate(0 0)"><rect class="ag" width="9.471" height="0.572" transform="translate(0 9.156) rotate(-75.179)"/></g></g><g transform="translate(17.162 143.015)"><g transform="translate(0 0)"><rect class="ag" width="9.471" height="0.572" transform="translate(0 9.156) rotate(-75.179)"/></g></g><g transform="translate(248.386 78.28)"><g transform="translate(0 0)"><rect class="ag" width="25.662" height="0.572" transform="translate(0 24.033) rotate(-69.465)"/></g></g></g><g transform="translate(137.608 237.972)"><path class="j" d="M392.434,668.685a9.917,9.917,0,0,0-2-.393,6.688,6.688,0,0,0-1.894.107,2.188,2.188,0,0,0-.465.107l-.214.072a.509.509,0,0,1-.214.071l-.465.179-.429.214-.214.107-.214.143-.429.25a7.384,7.384,0,0,1-.893.536,7.835,7.835,0,0,1,.608-.893l.393-.393a2.069,2.069,0,0,1,.429-.357,5.238,5.238,0,0,1,.465-.322,2.187,2.187,0,0,1,.5-.25c.072-.036.179-.071.25-.107l.25-.072c.179-.036.357-.107.536-.143a5.139,5.139,0,0,1,2.216.072A4.432,4.432,0,0,1,392.434,668.685Z" transform="translate(-385 -667.453)"/></g><g transform="translate(188.074 211.576)"><circle class="n" cx="1.322" cy="1.322" r="1.322"/></g><g transform="translate(197.331 207.18)"><circle class="n" cx="1.322" cy="1.322" r="1.322"/></g><g transform="translate(180.033 208.931)"><path class="v" d="M510.491,597.673a7.426,7.426,0,0,1-2.144-.322,7.059,7.059,0,0,1-4.11-3.467h0a8.058,8.058,0,0,1-.465-1.179l-.072-.179,12.259-6.326.107.143a5.459,5.459,0,0,1,.679,1.072,7.013,7.013,0,0,1-3,9.471A7.633,7.633,0,0,1,510.491,597.673Zm-6.255-4.968a6.76,6.76,0,0,0,.393.893h0a6.6,6.6,0,0,0,11.723-6.076,5.635,5.635,0,0,0-.536-.858Z" transform="translate(-503.7 -586.2)"/></g><g transform="translate(193.864 202.176)"><path class="v" d="M549.155,578.523a6.733,6.733,0,0,1-2.037-.322,7.121,7.121,0,0,1-4.182-3.646,5.791,5.791,0,0,1-.465-1.179l-.072-.179,11.4-5.9.107.143a7.841,7.841,0,0,1,.679,1.072,6.887,6.887,0,0,1-2.609,9.293A6.021,6.021,0,0,1,549.155,578.523Zm-6.183-5.075a7.09,7.09,0,0,0,4.325,4.289,5.876,5.876,0,0,0,4.539-.322,6.4,6.4,0,0,0,2.395-8.649c-.143-.286-.322-.572-.5-.858Z" transform="translate(-542.4 -567.3)"/></g><g transform="translate(194.844 224.518)"><path class="v" d="M550.487,630.272a3.734,3.734,0,0,0-2.43.572,6.928,6.928,0,0,0-2.395,1.751,2.428,2.428,0,0,0-.143,2.788,1.128,1.128,0,0,0,1,.465,1.376,1.376,0,0,0,.929-.679c.214-.322.322-.715.536-1.072.572-1,1.716-1.466,2.609-2.18a2.051,2.051,0,0,0,.679-.786,1,1,0,0,0-.036-1,.688.688,0,0,0-.929-.214" transform="translate(-545.14 -629.811)"/></g><g transform="translate(196.259 225.385)"><path class="v" d="M553.639,632.617s-.894-1.5-4.539,1.465l1.716,1.037,1.537-1.608Z" transform="translate(-549.1 -632.237)"/></g><g transform="translate(195.223 224.478)"><path class="v" d="M546.2,632.773a5.932,5.932,0,0,1,5.111-3.074l-2,1.751-1.68,1.43Z" transform="translate(-546.2 -629.699)"/></g><g transform="translate(231.25 189.631)"><path class="p" d="M647.715,544.28l-.715-.036c.036-.357.643-8.4,1.787-12.045l.679.214C648.358,535.989,647.751,544.209,647.715,544.28Z" transform="translate(-647 -532.2)"/></g><g transform="translate(244.581 242.814)"><path class="t" d="M691.52,695.225A38.312,38.312,0,0,0,684.3,681.5l.536-.5a38.58,38.58,0,0,1,7.4,14.01Z" transform="translate(-684.3 -681)"/></g><g transform="translate(224.351 147.85)"><path class="p" d="M637.993,424.771c-.036-.071-3.9-6.362-10.293-8.971l.214-.5c6.541,2.681,10.508,9.15,10.544,9.221Z" transform="translate(-627.7 -415.3)"/></g><g transform="translate(181.033 147.85)"><path class="p" d="M506.965,422.913l-.465-.25a16.9,16.9,0,0,1,9.007-7.363l.179.5A16.751,16.751,0,0,0,506.965,422.913Z" transform="translate(-506.5 -415.3)"/></g><g transform="translate(183.249 165.97)"><path class="j" d="M514.273,466l-1.573,8.864,3.681.679,1-3.431v3.753h4.11s5.433,1.394,5.647-1.394l-3.324-4.5s-4.146-1.859-4.575-2S514.273,466,514.273,466Z" transform="translate(-512.7 -466)"/></g><g transform="translate(217.68 163.611)"><path class="j" d="M622.138,459.4s-1.108,5.933,2.645,9.293l-3.217,3.717s-2.323-.465-3.61-3.789c0,0-.536,3.324,1.251,4.932l-8.042-.322s-4.039-2.288-1-5.4l6.684-4.36Z" transform="translate(-609.033 -459.4)"/></g><g transform="translate(197.867 151.53)"><path class="j" d="M553.922,427.708l-.322-.107a3.231,3.231,0,0,1,1.573-1.751,3.308,3.308,0,0,1,2.609.036l-.143.322a2.669,2.669,0,0,0-3.717,1.5Z" transform="translate(-553.6 -425.598)"/></g><g transform="translate(214.13 151.261)"><path class="j" d="M602.96,426.545a2.806,2.806,0,0,0-1.751-1.322,2.58,2.58,0,0,0-1.894.429l-.214-.286a2.915,2.915,0,0,1,2.18-.465,3.091,3.091,0,0,1,1.966,1.465Z" transform="translate(-599.1 -424.846)"/></g><g transform="translate(204.587 163.826)"><path class="j" d="M572.507,460a3.9,3.9,0,0,0-.107.929,2.977,2.977,0,1,0,5.862,0,2.7,2.7,0,0,0-.036-.536A24.547,24.547,0,0,1,572.507,460Z" transform="translate(-572.4 -460)"/></g></g></svg>