<svg xmlns="http://www.w3.org/2000/svg" xmlns:xlink="http://www.w3.org/1999/xlink" width="962" height="582" viewBox="0 0 962 582"><defs><clipPath id="a"><rect width="962" height="582" transform="translate(996 232)" fill="#fff"/></clipPath></defs><g transform="translate(-996 -232)" clip-path="url(#a)"><g transform="translate(990.273 298.293)"><line x1="118.72" transform="translate(253.967 568.64)" fill="none" stroke="#009fde" stroke-miterlimit="10" stroke-width="0.925"/><path d="M746.532,456.334H304.223c-18.387-19.827-29.384-44.953-29.384-72.292,0-64.066,60.358-116,134.814-116a153.837,153.837,0,0,1,49.033,7.916c29.454-51.493,91.032-86.932,162.238-86.932,99.814,0,180.729,69.624,180.729,155.511C801.653,388.424,780.516,428.06,746.532,456.334Z" transform="translate(-42.065 -7.322)" fill="#a9cbfc"/><rect width="445.518" height="35.305" transform="translate(705.39 484.318) rotate(-180)" fill="#cce3ff"/><path d="M307.016,493.047c2.241,0,130.012-7.285,203.985,14.01s224.721-8.406,254.982-28.581L753.654,512.1H313.18Z" transform="translate(-48.265 -63.087)" fill="#46a1d9" opacity="0.2"/><path d="M305.828,675.021H282.851l2.732-34.465.105.078v-.078H756.634l2.732,34.465H736.39l-7.512-11.768H313.339Z" transform="translate(-43.609 -94.314)" fill="#a9cbfc"/><ellipse cx="83.549" cy="58.352" rx="83.549" ry="58.352" transform="translate(244.131 336.373)" fill="#84b7f4"/><ellipse cx="86.021" cy="34.184" rx="86.021" ry="34.184" transform="translate(611.425 420.941) rotate(-45)" fill="#84b7f4"/><path d="M226.506,401.881h0c16.686-5.952,35.3,2.569,41.372,18.935l34.315,92.548H724.263l65.485-176.611c6.069-16.366,24.686-24.887,41.372-18.935h0c16.687,5.952,25.375,24.211,19.306,40.578L778.375,552.714a32.41,32.41,0,0,1-31.524,20.808v.926H277.606v-.923a32.354,32.354,0,0,1-29.524-20.811L207.2,442.458C201.131,426.093,209.819,407.833,226.506,401.881Z" transform="translate(-28.661 -31.769)" fill="#a9cbfc"/><path d="M233.893,405.949h0a31.757,31.757,0,0,1,40.578,18.935l33.656,92.548h413.96L786.313,340.82a31.755,31.755,0,0,1,40.577-18.935h0a31.757,31.757,0,0,1,18.935,40.577L775.159,556.781a31.783,31.783,0,0,1-30.919,20.807v.927H284.011v-.923a31.772,31.772,0,0,1-28.957-20.811l-40.1-110.255A31.756,31.756,0,0,1,233.893,405.949Z" transform="translate(-30.163 -32.553)" fill="#cce3ff"/><rect width="653.813" height="350.641" transform="translate(171.819 151.021)" fill="none"/><g transform="translate(56.498 151.35)"><path d="M928.622,229.566a50.536,50.536,0,0,1-2.545,33.97c-2,4.49-4.706,8.7-5.962,13.45-2.164,7.939-.605,17.342-5.907,23.589-3.538,4.129-9.472,5.839-12.086,10.641-1.945,3.554-1.471,7.981-.061,11.655s3.78,6.888,5.639,10.355c8.924,16.58,5.589,39.535-7.763,53.426a9.843,9.843,0,0,1-4.352,3c-2.45.617-4.88-.609-7.02-1.833-18.251-10.415-35.208-23.822-55.38-29.709-17.9-5.23-37.34-4.2-55.051-10.021-2.113-.691-4.328-1.581-5.579-3.467s-1.258-4.119-1.1-6.311c1.061-14.652,10.958-27.264,21.511-37.447,5.727-5.532,12.062-11.09,14.569-18.709,2.026-6.159,1.213-12.778,2-19.223a40.135,40.135,0,0,1,10.886-22.886c4.209-4.332,9.444-7.733,12.755-12.839,3.7-5.7,4.562-12.916,8.379-18.541,3.624-5.381,9.448-8.652,15.044-11.715,7.9-4.335,17.147-8.768,25.177-5.283,3.807,1.632,6.7,4.865,9.445,7.988l12.728,14.4" transform="translate(-194.228 -158.94)" fill="#031f59"/><path d="M897.512,184.177c26.881,1.192,47.671,24.718,46.437,52.546s-24.024,49.42-50.906,48.228-47.671-24.718-46.437-52.546,24.026-49.421,50.906-48.228" transform="translate(-208.71 -157.729)" fill="#031f59"/><path d="M283.747,460.123s17.344-11.029,27.009-51.612,94.682-19.4,147.453-5.82S517.7,366,551.656,373.126,675.25,271.864,726.677,315.719s76.349,64.623,76.349,64.623L740.14,506.207l-450.3-18.847Z" transform="translate(-100.28 -181.061)" fill="none"/><path d="M170.854,387.514s3.31,20.372,16.893,30.806c0,0-5.374,3.975-14.594,2.864s-14.582,18.455-28.59,20.783-16.1-4.226-40.5-17.807S52.868,409.81,56.9,401.14s15.622-.711,31.378-1.277S169.119,391.791,170.854,387.514Z" transform="translate(-56.498 -196.913)" fill="#f9c8ac"/><path d="M295.324,362.054s1.138.153,12.951,12.554c0,0-8.511,20.705-17.451,18.187s-15.665,18.87-29.864,19.014-15.262-6.656-37.278-23.833-48.37-22.061-43.047-30.006,15.545,1.7,31.2,3.571S292.951,366.013,295.324,362.054Z" transform="translate(-80.281 -190.625)" fill="#f9c8ac"/><path d="M225.117,408.806s-30.775-18.641-25.166-45.359c0,0,122.311-69.156,144.328-62.069s60.833,24.959,60.833,24.959,17.144,120.145,71.816,160.492c0,0-62.289-14.279-148.211-116.407C328.717,370.422,234.181,413.422,225.117,408.806Z" transform="translate(-84.004 -180.22)" fill="#134aa3"/><path d="M319.348,395.529s39.085-26.216,44.9-37.054c0,0,32.893,84.887,118.323,122.1,0,0,9.533,13.064,17.489,17.349,0,0-70.888-23.088-148.211-116.407Z" transform="translate(-107.139 -191.318)" fill="#132787"/><path d="M583.542,385.6,472.854,265.52s-9.546-12.783-37.193,2.564A534.134,534.134,0,0,1,381.2,294.11l58.959,24.455s16.851,120.413,71.816,160.492c0,0,39.217-16.52,57.769-16.82C569.75,462.237,560.271,428.951,583.542,385.6Z" transform="translate(-119.056 -172.448)" fill="#134aa3"/><path d="M666.763,301.078s-12.852,19.023-26.88,12.292c0,0-16.491,82.232-5.043,80.466,1.061-.164,9.284,4.415,56.839-22.761s40.652-37.8,63.944-45.2,42.221-1.92,42.221-1.92,6.719.509,6.246-3.094-22.406-12.581-32.564-11.556-32,13.749-53.53,33.652-38.746,32.833-38.746,32.833Z" transform="translate(-167.142 -180.26)" fill="#ff409e"/><path d="M666.231,280.047s-3.558-11.6-2.538-21.952a177.632,177.632,0,0,0,.2-23.587l-20.739,5.26-2.287-5.438s3.29,1.831,5.881-5.919,6.186-6.467,4.5-12.722,1.687-6.386-.406-9.85,5.923-13.221-3.316-13.911-23.792,39.254-18.277,47.926,16.1,35.9,10.1,52.486C639.352,292.339,651.852,300.267,666.231,280.047Z" transform="translate(-166.611 -159.229)" fill="#f9c8ac"/><path d="M721.773,278.432s-11.656-25.377-11.363-46.221-13.1-56.2-20.368-53.784,8.332,6.9,4.156,25.045c0,0-8.982-6.508-13.191-1.849s-7.5,17.154-4.74,26.125,17.094,19.93,17.821,66.873C694.088,294.62,706.878,291.255,721.773,278.432Z" transform="translate(-175.707 -156.607)" fill="#f9c8ac"/><path d="M644.926,229.523l.154.366a2.6,2.6,0,0,0,3.054,1.507l21.888-5.73a2.6,2.6,0,0,0,1.871-1.913l16.439-69.022a2.6,2.6,0,0,0-3.472-3.024L662.55,160.4a2.6,2.6,0,0,0-1.566,1.746L654.7,185.486a2.682,2.682,0,0,0-.018,1.278,8.723,8.723,0,0,1-.29,4.566c-.974,2.977-1.625,5.756-.754,6.708s.659,3.365.147,4.606.059,5.8.642,6.911-.17,3.048-1.592,5.021a20.8,20.8,0,0,0-3.447,6.448c-.441,1.628-1.61,4.169-3.292,5.2A2.664,2.664,0,0,0,644.926,229.523Z" transform="translate(-169.826 -151.447)" fill="#fff" stroke="#009ee2" stroke-miterlimit="10" stroke-width="0.94"/><path d="M697.358,154.366h0a1.194,1.194,0,0,1,.171.94l-16.91,71.668a1.214,1.214,0,0,1-2.2.377l-.383-.589a1.2,1.2,0,0,1-.161-.934l17.295-71.079A1.213,1.213,0,0,1,697.358,154.366Z" transform="translate(-176.207 -151.891)" fill="#fff" stroke="#009ee2" stroke-miterlimit="10" stroke-width="0.94"/><path d="M645.8,249.02h0a.293.293,0,0,1,.22-.272l26.042-5.01c.375-.072.865.6.785,1.076l-.053.315a.288.288,0,0,1-.222.265l-25.989,4.7C646.213,250.156,645.729,249.495,645.8,249.02Z" transform="translate(-170.032 -169.212)" fill="#fff" stroke="#009ee2" stroke-miterlimit="10" stroke-width="0.94"/><path d="M746.758,342.915l18.5,46.98s59.872-34.927,81.612-39.889,38.253,9.494,47.042-26.92,15.007-43,15.007-43l-32.236-4.549s-16.251,42.944-53.8,43.93C822.886,319.468,775.714,305.368,746.758,342.915Z" transform="translate(-189.483 -175.34)" fill="#031f59"/><path d="M856.228,288.72s-3.455,20.915-12.326,30.915c0,0,25.556.15,43.454-39.225C887.356,280.409,863.9,293.133,856.228,288.72Z" transform="translate(-208.199 -176.278)" fill="#f9c8ac"/><path d="M875.727,287.789c1.335-.517-2,9.392-11.85,13.063A25.721,25.721,0,0,0,850.162,313.2s7.119-16.433,7.273-23.062C857.435,290.138,862.544,292.893,875.727,287.789Z" transform="translate(-209.405 -177.696)" fill="#d2501e" opacity="0.2"/><path d="M862.572,199.23s-18.88,24.428-17.96,52.559c.474,14.26,9.061,23.923,20.877,23.77,11.034-.141,25.8-3.792,37.234-19.173l14.121-38.946Z" transform="translate(-208.329 -160.638)" fill="#f9c8ac"/><path d="M884.107,237.75c1.109.333,1.645,1.811,1.2,3.3s-1.708,2.432-2.816,2.1-1.644-1.81-1.2-3.3,1.707-2.433,2.816-2.1" transform="translate(-215.372 -168.046)" fill="#004d92"/><path d="M861.991,228.593c1.108.332,1.644,1.811,1.2,3.3s-1.708,2.432-2.815,2.1-1.645-1.81-1.2-3.3,1.708-2.432,2.817-2.1" transform="translate(-211.111 -166.282)" fill="#004d92"/><path d="M859.917,261.651s1.9,7.174,10.244,2.743" transform="translate(-211.284 -172.664)" fill="none" stroke="#eb652a" stroke-miterlimit="10" stroke-width="0.91"/><path d="M855.6,251.576l-1.494-5.339a2.5,2.5,0,0,1,2.26-3.114c5.088-.672,9.842-6.273,9.842-6.273" transform="translate(-210.151 -167.886)" fill="none" stroke="#eb652a" stroke-miterlimit="10" stroke-width="0.91"/><path d="M882.413,231.685s5.932-.79,8.857,5.671" transform="translate(-215.618 -166.885)" fill="none" stroke="#004d92" stroke-miterlimit="10" stroke-width="0.91"/><path d="M858.915,221.358s4.646-1.014,8.31,3.795" transform="translate(-211.091 -164.884)" fill="none" stroke="#004d92" stroke-miterlimit="10" stroke-width="0.91"/><path d="M919.306,256.518a6.13,6.13,0,1,1-8.01,3.317,6.132,6.132,0,0,1,8.01-3.317" transform="translate(-221.093 -171.585)" fill="#f9c8ac"/><path d="M628.171,410.429S605.8,443.92,615.125,486.9a30.645,30.645,0,0,1,18.7,1.867c9.358,4.348,25.6,5.489,36.752,1.068s42.552-18.9,42.552-18.9-17.151.363-27-81.536C686.128,389.4,640.551,416.315,628.171,410.429Z" transform="translate(-163.685 -197.277)" fill="#fff"/><path d="M750.713,344.946s14.075-10.19,21.224-9.874c0,0-8.858,3.4-19.555,16.549Z" transform="translate(-190.245 -186.808)" fill="#fff"/><path d="M773.4,400.236c-1.891,1.46,34.265-34.717,62.251-32.353C835.655,367.883,798.855,380.577,773.4,400.236Z" transform="translate(-194.603 -193.109)" fill="#fff"/><path d="M852.506,217.342s3.073-13.686,11.609-16.015l16-10.725s-24.864-7.583-27.612,26.74" transform="translate(-209.857 -158.839)" fill="#031f59"/><path d="M923.639,215.445c-4.476-5.769-20.3-19.247-41.079-27.261l-11.55,3.272s-.71,30.888,32.3,40.218c0,0,14.426,3.357,20.76-6.266a8.575,8.575,0,0,0-.432-9.963" transform="translate(-213.421 -158.51)" fill="#031f59"/><path d="M869.909,190.375A22.455,22.455,0,0,1,872,188.992a33.058,33.058,0,0,1,46.6,13.742c2.438,4.9,5.408,11.178,8.3,18.1L916.855,222.4l-24.678-16.655Z" transform="translate(-213.21 -157.757)" fill="#031f59"/><path d="M696.118,151.429s3.945.526,4.5,2.236c0,0-1.98-.474-2.366.316C698.253,153.982,697.84,151.4,696.118,151.429Z" transform="translate(-179.727 -151.429)" fill="#fff" stroke="#009ee2" stroke-miterlimit="10" stroke-width="0.94"/><path d="M522.214,506.221s24.055,8.651,48.184,2.98,41.878,5.79,68.446,5.283,68.312-1.184,103.784-21.943S814.6,456.267,835.418,392.3c0,0-164.869,100.836-196.33,100.846s-17.141-12.558-59.741-2.088S534.705,509.585,522.214,506.221Z" transform="translate(-146.223 -197.835)" fill="#ef1485"/><path d="M726.268,302.325s-19.262,16.281-27.685,16.188c0,0,2.8,133.133,37.5,139.307S865,410.867,870.647,368.982,798.212,358.606,759,387.627Z" transform="translate(-180.202 -180.5)" fill="#ff409e"/><path d="M381.2,302.124l58.959,24.455S458.34,448.3,511.98,487.071" transform="translate(-119.056 -180.462)" fill="none" stroke="#132787" stroke-miterlimit="10" stroke-width="1"/></g></g><g transform="translate(1700.647 335.396)" opacity="0.301"><g transform="translate(0 12.571)"><path d="M3158.02,2210.049H2962.548a4.407,4.407,0,0,1,0-8.813H3158.02Z" transform="translate(-2958.143 -2117.702)" fill="#7ab0fa"/><path d="M3031.5,2239.613h-31.727v-78.25a5.288,5.288,0,0,1,5.283-5.282h21.164a5.282,5.282,0,0,1,5.279,5.282Z" transform="translate(-2922.757 -2156.082)" fill="#a9cbfc"/></g><rect width="24.959" height="69.025" transform="translate(108.747 27.08)" fill="#4f92f2"/><rect width="24.959" height="69.025" transform="translate(163.233 27.08)" fill="#cce3ff"/><g transform="translate(133.702)"><path d="M3059.942,2245.389h-29.528v-90.82a5.286,5.286,0,0,1,5.282-5.282h18.964a5.282,5.282,0,0,1,5.282,5.282Z" transform="translate(-3030.414 -2149.287)" fill="#95c3f6"/></g><rect width="29.527" height="9.336" transform="translate(133.704 13.075)" fill="#4f92f2"/><rect width="31.829" height="9.336" transform="translate(76.915 77.969)" fill="#4f92f2"/><rect width="31.829" height="9.334" transform="translate(76.915 22.411)" fill="#4f92f2"/><line y1="28.915" transform="translate(28.253 45.439)" fill="none" stroke="#599af4" stroke-linecap="round" stroke-miterlimit="10" stroke-width="1.412"/><path d="M2975.31,2190.428s-.529-10.756,13.19-10.756c0,0,2.118,10.756-13.19,10.756" transform="translate(-2943.554 -2123.46)" fill="#599af4"/><path d="M2975.31,2183.113s-.529-10.758,13.19-10.758c0,0,2.118,10.758-13.19,10.758" transform="translate(-2943.554 -2129.679)" fill="#599af4"/><path d="M2977.646,2190.428s.526-10.756-13.2-10.756c0,0-2.117,10.756,13.2,10.756" transform="translate(-2952.867 -2123.46)" fill="#599af4"/><path d="M2977.646,2183.113s.526-10.758-13.2-10.758c0,0-2.117,10.758,13.2,10.758" transform="translate(-2952.867 -2129.679)" fill="#599af4"/><path d="M2970.737,2212.263l-4.692-19.084a2.383,2.383,0,0,1,2.32-2.96h24.918a2.391,2.391,0,0,1,2.322,2.96l-4.7,19.084Z" transform="translate(-2953.334 -2115.865)" fill="#b6cbe8"/></g></g></svg>