<svg xmlns="http://www.w3.org/2000/svg" xmlns:xlink="http://www.w3.org/1999/xlink" width="990" height="582" viewBox="0 0 990 582"><defs><clipPath id="a"><rect width="990" height="582" transform="translate(996 232)" fill="#fff"/></clipPath><clipPath id="b"><rect width="142" height="94" transform="translate(0 0)" fill="#fff"/></clipPath><clipPath id="c"><rect width="89.352" height="75.998" rx="3.505" fill="none"/></clipPath><clipPath id="d"><rect width="94.629" height="80.487" rx="3.505" fill="none"/></clipPath><clipPath id="e"><rect width="100.917" height="85.835" rx="3.505" fill="none"/></clipPath></defs><g transform="translate(-996 -232)" clip-path="url(#a)"><g transform="translate(151.517 480.489)"><path d="M1621.966,405.965H888l82.56-162.4,48.084-3.629,33.568,52.621,456.347,1.815,10.887-55.342,52.62-.907Z" transform="translate(0 -19.769)" fill="#d3e2f4"/><path d="M1557.8,258.656a67.6,67.6,0,0,1,45.662-35.8c4.137-.953,8.592-1.433,12.7-.481,7.957,1.751,14,7.957,19.052,14.162a215.5,215.5,0,0,1,48.366,142.075" transform="translate(-62.123 -18.261)" fill="#d3e2f4"/><path d="M1659.56,271.093c-2.722-8.165-26.31-47.177-41.734-48.992-3.466-.8-20.867,0-40.826,14.516C1624.177,223.916,1639.6,242.968,1659.56,271.093Z" transform="translate(-63.904 -18.264)" fill="#a5caef"/><path d="M1037.443,258.656c-9.7-17.982-28.479-31.5-49.953-35.8a34.71,34.71,0,0,0-14-.481c-8.592,1.751-15.278,7.957-20.867,14.162-35.483,39.456-54.571,91.006-52.82,142.075" transform="translate(-1.085 -18.261)" fill="#d3e2f4"/><path d="M978,237.123" transform="translate(-8.347 -19.677)" fill="#a5caef" stroke="#a5caef" stroke-miterlimit="10" stroke-width="8"/><path d="M1011.906,303.513l16.031-12.393,6.841-13.046-.317-.318.317.318.318-.481c-4.772-6.995-9.98-13.836-15.423-20.359-9.544-11.141-22.11-22.436-36.753-21.166a28.535,28.535,0,0,0-5.244.907l1.588,6.686C979.127,243.707,1017,265.98,1011.906,303.513Z" transform="translate(-8.317 -19.57)" fill="#d3e2f4"/><path d="M1318.307,112.772c-.8-4.137-1.914-8.592-4.781-11.794-3.629-3.983-9.227-5.1-14.516-5.888a160.093,160.093,0,0,0-76.844,8.428l-.163-2.54c-28.315,15.423-65.7,12.565-89.891,34.04-8.274,7.322-14.316,17.029-20.359,26.256-7.957,12.094-16.548,23.861-25.621,35.156-8.265,8.437-16.222,17.029-22.745,26.728-3.184,4.772-6.051,9.871-9.544,14.643-7.639,10.5-17.982,18.771-27.054,28.125-3.629,3.81-7.158,7.793-9.381,12.565a21.528,21.528,0,0,0-2.069,12.094,10.893,10.893,0,0,0,2.223,6.042,15.2,15.2,0,0,0,4.137,4.291h0a12.292,12.292,0,0,0,6.052,1.914l-.318,1.588c10.651-4.609,16.539-15.9,23.062-25.457q1.924-2.613,3.819-5.244a41.735,41.735,0,0,1,10.343,5.09,80.4,80.4,0,0,1,9.073,7.476l-.163.163c1.433,3.175,2.722,33.251,40.091,26.564l56.957-37.86,16.911-33.831-4.772-29.939-13.046-4.3c.907-.318,2.068-.635,3.021-.953,9.862-3.184,19.887-6.351,30.384-6.841,10.343-.481,3.38,42.5,11.5,49.023,9.227,7.476,19.869-.091,24.5,10.887,1.27,3.184,6.632,3.9,9.98,4.536,2.069.318,12.742-9.086,14.657-9.875,5.244-2.386,29.939,46.769,20.041-12.094-.318-1.751-1.433-6.351-.318-7.793a13.46,13.46,0,0,0,2.069-4.935c3.819-16.866,4.772-34.838,12.892-50.117,6.351-12.085,17.02-21.955,20.676-35.156C1321.963,133.775,1320.375,123.115,1318.307,112.772Z" transform="translate(-11.796 -6.369)" fill="#1c5cc1"/><path d="M1169.94,192.638c-9.072,3.5-15.913,11.3-21.484,19.406s-10.179,16.866-17.02,23.87c-5.09,5.443-11.459,9.7-16.548,15.115a90.817,90.817,0,0,0-8.592,10.5c-8.909,11.93-17.973,24.024-26.882,35.954,3.021,3.339,6.042,6.523,9.073,9.862.8.8,1.588,1.751,2.722,1.6a3.213,3.213,0,0,0,2.232-1.279,114.663,114.663,0,0,0,11.794-13.2c6.205-7.957,11.141-16.866,17.664-24.659,9.862-11.93,22.59-21,32.933-32.461s18.29-26.882,15.115-41.842a38.647,38.647,0,0,0-1.116-4.128" transform="translate(-17.754 -15.433)" fill="#134aa3"/><path d="M1205.93,214.373a42.112,42.112,0,0,0-1.116-4.291c-.318-.907-1.751-.318-1.424.635l.907,3.82c.318.953,1.905.8,1.588-.163Z" transform="translate(-29.248 -17.127)" fill="#e83b0d"/><path d="M1356.6,209.418,1323.515,247.6s7.158,42.16,7.957,45.508,34.04,14.952,34.04,14.952h44.229l28.007-4.772,1.751-40.89Z" transform="translate(-40.394 -17.107)" fill="#ef1485"/><path d="M1508.6,166.748s-11.939-29.749-57.91-31.5l-3.03,18.934,18.3,12.7Z" transform="translate(-51.908 -10.228)" fill="#ff409e"/><path d="M1307.8,197.058c-8.111,42.006-12.565,104.207,0,120.918,2.069,2.858-2.386-8.592.635-6.686.962.635,6.351,8.755,7.639,8.592,3.82-.635,9.39-3.82,10.343-7.639,2.386-8.909,8.746-6.523,11.93-15.115.907-2.54.907-5.244,1.116-7.793.907-22.273,7.158-43.748,13.364-65.068.481-1.914-1.27-4.3-1.751-6.206-.8-2.549-3.339-3.974-5.725-5.253-4.454-2.223-12.257-11.93-17.347-12.883-4.926-.8-16.067-5.725-20.2-2.867" transform="translate(-38.209 -15.879)" fill="#ffb38a"/><path d="M1351.766,225.894c-.8-2.54-3.339-3.974-5.725-5.244-2.722-1.433-6.523-5.253-10.343-8.592-.318,2.223-.481,4.455-.8,6.677a52.512,52.512,0,0,0-.481,8.592c0,2.232.327,4.455.163,6.686a29.647,29.647,0,0,1-1.905,7.312,79.117,79.117,0,0,0-3.5,20.213c-.318,6.042,0,12.4-3.184,17.5a39.037,39.037,0,0,1-3.974,4.772,39.12,39.12,0,0,0-7.8,15.115c7-5.444,14.008-10.824,20.867-16.231a14.2,14.2,0,0,1,3.339-2.069c1.116-.481,2.223-.635,3.339-1.116,2.386-16.067,7-31.981,11.613-47.73C1354.152,230.194,1352.238,227.808,1351.766,225.894Z" transform="translate(-39.531 -17.352)" fill="#ea9f78"/><path d="M1510.46,167.16c23.071,40.89,41.842,72.072,64.914,112.962.635,1.27-4.137,1.751-5.09,2.858-.635.644-5.09,4.618-5.888,4.772-4.936.644-.907,5.253-5.888,5.888-2.867.318-1.588,3.629-4.455,3.021-3.5-.789-6.523-3.021-9.544-4.926-11.3-7.639-24.822-13.364-31.98-25.14-3.339-5.444-4.927-11.613-6.677-17.655-3.5-12.257-7.485-24.187-12.094-35.963-3.339-8.428-7-17.492-4.772-26.247,1.588-6.523,6.206-11.794,10.66-16.866a13.945,13.945,0,0,1,4.609-3.974c1.914-.8,4.3-.635,5.571.953.318.318.481.953,0,1.116-.318.318-.635-.635-.154-.481" transform="translate(-55.678 -13.026)" fill="#ffb38a"/><path d="M1554.682,297.028a3.107,3.107,0,0,1-.726-.091c-3.021-.68-5.679-2.4-8.247-4.065l-1.406-.907c-2.794-1.887-5.779-3.692-8.664-5.443-8.837-5.353-17.982-10.887-23.407-19.805-3.057-4.935-4.672-10.579-6.233-16.04l-.49-1.7c-3.629-12.656-7.567-24.414-12.085-35.927l-.109-.29c-3.393-8.555-6.9-17.4-4.672-26.156,1.606-6.559,6.215-11.794,10.669-16.92l.063-.073a13.947,13.947,0,0,1,4.709-4.046c1.815-.78,4.536-.78,5.952,1.034a1.426,1.426,0,0,1,.327.553l.336-.191c11.54,20.449,22.182,38.776,32.47,56.494s20.867,36.027,32.443,56.467a.8.8,0,0,1,0,.671c-.272.653-1.415,1.025-2.722,1.461a6.822,6.822,0,0,0-2.431,1.089c-.445.454-5.108,4.69-6.061,4.881-2.259.29-2.458,1.4-2.722,2.722s-.517,2.849-3.212,3.2a2.259,2.259,0,0,0-1.942,1.6C1556.225,296.239,1555.835,297.028,1554.682,297.028Zm-48.157-131.315a5.767,5.767,0,0,0-2.177.435,13.456,13.456,0,0,0-4.536,3.883l-.073.082c-4.409,5.035-8.964,10.243-10.524,16.657-2.177,8.555,1.288,17.31,4.645,25.775l.109.29c4.536,11.531,8.483,23.3,12.1,35.982l.49,1.7c1.551,5.444,3.148,11.023,6.16,15.886,5.344,8.791,14.425,14.28,23.2,19.588,2.894,1.751,5.879,3.556,8.682,5.444l1.406.907c2.522,1.633,5.135,3.33,8.038,3.992,1.243.272,1.515-.272,1.923-1.089a2.868,2.868,0,0,1,2.422-1.942c2.232-.29,2.441-1.406,2.667-2.722s.517-2.858,3.221-3.2c.59-.118,4.79-3.774,5.7-4.681a6.8,6.8,0,0,1,2.722-1.261c.98-.318,2.2-.717,2.35-1.1a.135.135,0,0,0,0-.145c-11.522-20.422-22.155-38.731-32.434-56.44s-20.794-35.8-32.234-56.1a.724.724,0,0,1-.436.508.479.479,0,0,1-.59,0,.744.744,0,0,1-.236-.853.463.463,0,0,1,.517-.227.39.39,0,0,0-.082-.091,3.764,3.764,0,0,0-3.03-1.279Zm3.184,1.515-.181.517h0a.184.184,0,0,0,.109-.045h0a.2.2,0,0,0-.109,0l.127-.073h0a.1.1,0,0,0,.063-.073.561.561,0,0,0-.009-.354Z" transform="translate(-55.645 -12.994)" fill="#e57d59"/><path d="M1487.959,177.046c11.3,12.248,12.094,31.028,20.368,45.662,7.948,13.681,22.11,22.908,30.547,36.29a83.192,83.192,0,0,1,8.909,21.638c.635,2.722,1.107,5.888-.8,7.957-1.433,1.27-3.5,1.433-5.444,1.588l-19.252.962a7.1,7.1,0,0,1-3.184-.318c-2.068-.8-3.021-3.03-3.974-4.935a593.227,593.227,0,0,0-37.2-71.119c-3.974-6.351-8.111-13.364-7.476-20.867.635-6.351,4.618-11.794,8.592-16.7,1.588-1.914,3.339-4.137,5.888-4.618s5.444,2.232,4.291,4.455" transform="translate(-54.016 -13.685)" fill="#ea9f78"/><path d="M1484.154,159.11c-2.722-1.107-5.444-3.175-6.351-6.042-.481-.953-.481-2.069-.907-3.184a11.093,11.093,0,0,0-4.454-4.926c-8.755-5.734-20.2-5.443-30.066-8.909-3.82-1.433-7.639-3.348-11.622-3.983s-7.948.163-11.93.962c-15.9,3.175-31.817,6.2-47.73,9.381-11.132,2.232-22.59,4.455-32.135,10.823-1.905,1.27-3.629,2.386-5.444,3.493a41.1,41.1,0,0,0-7.793,5.734,31.4,31.4,0,0,0-6.051,6.841,69.591,69.591,0,0,0-10.814,22.11c6.523-1.27,11.93,1.279,15.9,4.3,7.158,6.206,13.527,16.222,19.569,21.955l.318.154c4.455,2.722,18.145,4.772,18.463,10.025.789,11.459-11.141,24.5-5.443,34.476,3.819-1.27,7-4.137,10.506-6.206s8.111-3.339,11.613-1.107c1.433.907,2.54,2.386,4.291,2.858,3.185.962,5.888-2.223,7.639-5.09,10.5-15.587,24.822-29.268,42.641-35,6.841-2.223,14.153-3.175,21.157-5.244a76.11,76.11,0,0,0,17.337-7.485c1.914-1.107-.472,1.116.962-.635,0,0-.481-.635,1.27-1.433,6.351-3.175,13.046-31.182,20.685-36.426C1492.546,159.754,1491.412,161.977,1484.154,159.11Z" transform="translate(-39.034 -9.911)" fill="#ff409e"/><path d="M1351.9,194.25l-.907-6.042s-9.227,7.476-13.046,23.861c4.454,5.253,8.592,11.141,12.7,14.961l.635.635c1.433,1.433,2.54,3.5,3.974,4.137.481-4.455,1.6-12.248,2.232-14.961C1358.576,211.279,1351.9,194.25,1351.9,194.25Z" transform="translate(-41.732 -15.14)" fill="#ef1485"/><path d="M1504.859,165.573c-11.939,8.274-8.12,27.68-20.214,35.156-.472.318,0,1.116.644.8,12.248-7.639,8.428-26.891,20.2-35.165C1505.966,165.89,1505.331,165.092,1504.859,165.573Z" transform="translate(-55.321 -13.027)" fill="#ef1485"/><path d="M1313.791,190.848c12.094-4.291,22.908,11.3,27.526,19.733.318.481,1.116.154.907-.318-4.926-8.909-16.222-24.659-28.8-20.2a.436.436,0,1,0,.317.789Z" transform="translate(-39.424 -15.239)" fill="#ef1485"/><path d="M1458.659,164.708h-3.339l-9.245,14.316s14.634,22.119,18.608,28.479a40.566,40.566,0,0,0,5.888,6.841,73.22,73.22,0,0,0,14.8-6.677c.481-.318.635-.318.8-.318,0-.163.154-.163.154-.318,0,0-.472-.635,1.27-1.433,2.549-1.27,5.1-6.351,7.639-12.411C1484.751,167.412,1458.659,164.708,1458.659,164.708Z" transform="translate(-51.761 -12.96)" fill="#ef1485"/><path d="M1244.382,129.808s-21.774,41.371,20.522,56.8l3.339-21-8.111-17.338Z" transform="translate(-32.534 -9.723)" fill="#ffcdaa"/><path d="M1123.3,297.015s-7.158,6.351-3.629,13.2l9.98-6.523s1.905-4.772,2.068-5.244.789-3.629.789-3.629l-.907-1.751Z" transform="translate(-21.397 -24.865)" fill="#0061bc"/><path d="M1416.985,205.038l.907.962v-.318Z" transform="translate(-49.063 -16.701)" fill="#fca73b"/><path d="M1267.469,151.876l-9.544,44.065,19.733-3.493,2.386.472a19.524,19.524,0,0,0,22.908-13.681l7.793-27.68Z" transform="translate(-34.31 -11.741)" fill="#ffcdaa"/><g transform="translate(1219.641 155.731)" opacity="0.35"><path d="M1269.458,175.93l-3.819,32.144-12.094-19.415L1258,169.1Z" transform="translate(-1253.545 -169.098)" fill="#e98920"/></g><ellipse cx="12.729" cy="9.073" rx="12.729" ry="9.073" transform="translate(1276.754 114.197) rotate(-70.05)" fill="#ffcdaa"/><ellipse cx="9.073" cy="12.729" rx="9.073" ry="12.729" transform="translate(1204.795 85.41) rotate(-6.04)" fill="#ffcdaa"/><path d="M1309.109,163.444l-8.437,4.772a30.776,30.776,0,0,1-18.771,3.629h0l-12.248-1.433a29.937,29.937,0,0,1-16.712-7.63l-5.443-4.935a30.734,30.734,0,0,1-5.09-22.908l15.278-88.62,69.994,8.592-8.592,88.62A30.844,30.844,0,0,1,1309.109,163.444Z" transform="translate(-32.828 -1.98)" fill="#ffaf97"/><path d="M1243.716,155.3a25.085,25.085,0,0,0,6.841,10.188l2.722,2.386c4.609,4.137,10.651,6.351,16.857,7.158l12.257,1.433h0a30.843,30.843,0,0,0,18.771-3.629l8.428-4.772a30.077,30.077,0,0,0,9.98-19.887l4.3-48.2.154-4.3-8.592,33.895a12.574,12.574,0,0,1-14,10.334l-38.15-4.681a12.8,12.8,0,0,1-11.132-14l1.116-25.938-3.5-1.107-7.322,45.58A30.328,30.328,0,0,0,1243.716,155.3Z" transform="translate(-32.83 -6.419)" fill="#162457"/><ellipse cx="3.656" cy="2.867" rx="3.656" ry="2.867" transform="translate(1263.786 105.826) rotate(-83.04)" fill="#00347e"/><ellipse cx="3.656" cy="2.867" rx="3.656" ry="2.867" transform="translate(1241.24 103.119) rotate(-83.04)" fill="#00347e"/><path d="M1288.167,132.877l-.172-.826c4.155-.835,6.723-2.522,7.612-5.008,1.814-4.954-3.5-11.586-3.557-11.649l-.109-.145.817-6.541.835.109-.78,6.187c.816,1.043,5.443,7.258,3.629,12.32C1295.4,130.11,1292.6,131.979,1288.167,132.877Z" transform="translate(-37.099 -7.766)" fill="#ff6700"/><rect width="0.844" height="9.662" transform="matrix(0.296, -0.955, 0.955, 0.296, 1265.744, 90.381)" fill="#00347e"/><rect width="9.562" height="0.844" transform="translate(1238.722 88.415) rotate(-3.81)" fill="#00347e"/><path d="M1335.143,54.961l-2.858,37.07s9.227-9.227,13.364-10.66,2.069-17.183,2.069-17.183l-6.841-8.592-1.751-2.069Z" transform="translate(-41.207 -2.648)" fill="#00457f"/><path d="M1257.778,63.926c8.274,5.444,17.347,9.862,27.054,10.506,13.2.953,25.766-4.618,37.705-10.025a16.7,16.7,0,0,1,6.206-1.914,6.77,6.77,0,0,1,5.879,2.232A7.905,7.905,0,0,1,1335.9,69.5a20.359,20.359,0,0,1-11.141,18.3c0,1.905-.154,3.974-.154,5.879a22.841,22.841,0,0,0,5.443-2.223A30.44,30.44,0,0,0,1341.5,79.993c4.137-7.312,4.772-16.222,3.348-24.5s-4.618-16.231-8.274-23.87a13.038,13.038,0,0,0-2.722-4.291c-2.549-2.549-6.686-2.867-10.188-1.751-3.493.907-6.351,3.184-9.544,4.935-3.021,1.905-6.351,3.493-10.025,3.493a20.166,20.166,0,0,1-5.443-.907q-5.253-1.433-10.5-3.339a34.035,34.035,0,0,0-6.841-1.914A20.762,20.762,0,0,0,1268.42,31.2a60.163,60.163,0,0,0-10.343,8.746c-2.54,2.386-4.926,4.935-7.476,7.322a2.958,2.958,0,0,0-1.107,1.905,3.329,3.329,0,0,0,.635,1.751q4.283,7.158,8.592,14.316" transform="translate(-33.528)" fill="#162457"/><path d="M1264.075,139.212s25.775-7.476,44.074,6.351l-12.257,5.734-12.248,3.175-13.681-3.629Z" transform="translate(-34.881 -10.408)" fill="#162457"/><path d="M1273.01,117.95a15.777,15.777,0,0,1-2.068-.136,16.466,16.466,0,0,1-11.023-6.3,16.05,16.05,0,0,1-3.257-11.93h0a20.241,20.241,0,0,1,.653-2.939l.136-.39,31.645,3.91.063.372a8.937,8.937,0,0,1,0,3.03,16.43,16.43,0,0,1-6.3,11A16.092,16.092,0,0,1,1273.01,117.95Zm-15.351-18.227a15.069,15.069,0,0,0,3.057,11.177,15.423,15.423,0,0,0,10.352,5.915,15.032,15.032,0,0,0,11.177-3.066,15.423,15.423,0,0,0,5.915-10.343,8.155,8.155,0,0,0,.054-2.35l-30.057-3.747A20.649,20.649,0,0,0,1257.659,99.724Z" transform="translate(-34.181 -6.611)" fill="#fff"/><path d="M1310.948,122.5a14.879,14.879,0,0,1-1.669-.1,14.613,14.613,0,0,1-9.835-5.643,16.393,16.393,0,0,1-2.722-15.224l.127-.39,29.658,3.629v.445a17.128,17.128,0,0,1-.172,2.949C1325.319,116.381,1318.569,122.5,1310.948,122.5ZM1297.6,102.246a16.313,16.313,0,0,0-.49,2.241,15.722,15.722,0,0,0,3.13,11.649,13.605,13.605,0,0,0,9.154,5.262c7.73.907,14.915-5.1,15.986-13.4a13.673,13.673,0,0,0,.154-2.35Z" transform="translate(-37.834 -7.065)" fill="#fff"/><rect width="1.007" height="24.85" transform="translate(1245.711 93.403) rotate(-83.01)" fill="#fff"/><path d="M1288.08,147.116c-4.264,0-8.165-2.776-8.365-2.912l.245-.345s5.126,3.629,9.844,2.667a8.028,8.028,0,0,0,5.28-4.028l.363.209a8.4,8.4,0,0,1-5.562,4.228A8.815,8.815,0,0,1,1288.08,147.116Z" transform="translate(-36.331 -10.9)" fill="#fff"/><path d="M1262.616,59.6a15.052,15.052,0,0,0-2.722,10.978,29.6,29.6,0,0,1,.472,3.629c0,3.339-2.223,6.206-3.82,9.227a21.478,21.478,0,0,0-2.223,8.274c-.163,1.751,0,3.5-.635,5.09s-1.914,3.184-3.629,3.184c.472-2.386-.644-9.862-2.722-10.978s-6.042-.8-7.476,2.54a24.411,24.411,0,0,0-3.184-20.676c-1.424-2.232-3.339-4.455-3.629-7.158-.635-4.935,4.137-8.592,8.274-11.141,2.068-1.433,4.772-2.867,7.158-1.905a8.47,8.47,0,0,1,3.185,2.722,30.941,30.941,0,0,0,10.978,7.63" transform="translate(-31.998 -2.354)" fill="#162457"/><g transform="translate(1291.05 49.07)"><path d="M1418.412,142.548s-2.921,16.576-9.272,27.463c0,0,27.837,9.024,43.548-4.536,0,0,14.3-51.059-7.148-84.358-10.464-16.247-26.7-27.736-45.956-29.32-11.93-.98-26.528.455-38.079,9.786,0,0-40.964,29.888-25.938,110.89l40.138,1.345,7.8-38.826Z" transform="translate(-1332.254 -51.534)" fill="#031f59"/></g><path d="M1392.937,174.69h0c-16.866,1.433-31.981-8.274-35.156-22.591l-13.046-59.18,81.653-12.7L1424,146.084C1423.648,160.845,1410.121,173.257,1392.937,174.69Z" transform="translate(-42.362 -5.124)" fill="#ffb38a"/><ellipse cx="11.93" cy="8.428" rx="11.93" ry="8.428" transform="matrix(0.146, -0.989, 0.989, 0.146, 1372.481, 130.667)" fill="#ffb38a"/><ellipse cx="8.428" cy="11.93" rx="8.428" ry="11.93" transform="translate(1297.864 117.166) rotate(-17.59)" fill="#ffb38a"/><ellipse cx="3.021" cy="3.82" rx="3.021" ry="3.82" transform="matrix(0.997, -0.08, 0.08, 0.997, 1354.766, 118.806)" fill="#003c6f"/><ellipse cx="3.021" cy="3.82" rx="3.021" ry="3.82" transform="matrix(0.997, -0.08, 0.08, 0.997, 1331.071, 119.127)" fill="#003c6f"/><path d="M1395.259,161.76a13.424,13.424,0,0,1-4.954-1.061l.354-.771s4.1,1.814,7.312.49a5.932,5.932,0,0,0,3.257-3.629l.78.3a6.712,6.712,0,0,1-3.72,4.074A7.926,7.926,0,0,1,1395.259,161.76Z" transform="translate(-46.588 -12.226)" fill="#00347e"/><path d="M1392.969,150.735l-4.618-3.5a2.778,2.778,0,0,1-1.116-2.15,3.129,3.129,0,0,1,1.1-2.477c3.919-3.475,3.2-10.225,3.194-10.3l.844-.091c0,.29.771,7.258-3.484,11.023a2.278,2.278,0,0,0-.807,1.814,1.933,1.933,0,0,0,.78,1.515l4.618,3.5Z" transform="translate(-46.304 -9.947)" fill="#ff6700"/><path d="M1359.381,95.452c2.069,2.722,1.914,6.523.907,9.708-1.107,3.175-2.858,6.206-3.819,9.544-1.742,6.351-2.776,4.854-.073,10.887-2.722,1.152-5.317-1.969-6.913-6.106-.789-1.914.626-.5-1.279-1.452-.8-.318-1.6-.481-2.386-.8-1.914-.635-3.348-2.386-4.455-4.137a26.619,26.619,0,0,1-3.348-11.132,19.566,19.566,0,0,1,2.722-10.179,9.146,9.146,0,0,1,9.871-4.618c4.455.635,7.312,5.09,8.909,9.073" transform="translate(-41.739 -5.751)" fill="#162457"/><path d="M1355.059,88.623c6.042,9.227,17.818,13.046,28.8,13.518,6.841.163,14-.635,20.359,1.6,4.454,1.588,8.437,4.455,12.574,6.677s9.227,3.629,13.681,2.069a47.426,47.426,0,0,0-.318-11.613c-.317-3.629-2.068-7.322-1.116-10.978,2.722-10.66-1.588-10.66-5.888-13.2a12.714,12.714,0,0,0-4.927-1.6,169.283,169.283,0,0,0-40.091-3.339c-5.443.154-10.824.635-15.6,3.184a19.33,19.33,0,0,0-9.073,10.978,3.123,3.123,0,0,0-.154,2.386,1.46,1.46,0,0,0,1.87.878,1.444,1.444,0,0,0,.2-.089" transform="translate(-43.142 -4.329)" fill="#162457"/><circle cx="2.549" cy="2.549" r="2.549" transform="translate(1383.509 128.196)" fill="#ff7434"/><circle cx="2.549" cy="2.549" r="2.549" transform="translate(1305.703 134.401)" fill="#ff7434"/><path d="M1401.9,120.754a15.691,15.691,0,0,1,5.443-1.116,6.285,6.285,0,0,1,2.858.635,18.188,18.188,0,0,1,2.549,1.279c-.907-.163-1.751-.481-2.722-.635a13.733,13.733,0,0,0-2.722-.327C1405.56,120.436,1403.809,120.754,1401.9,120.754Z" transform="translate(-47.663 -8.78)" fill="#00447f"/><path d="M1381.358,121.7c-1.914.154-3.629.154-5.444.472a6.827,6.827,0,0,0-2.549.8c-.8.318-1.588.8-2.54,1.116a28.6,28.6,0,0,1,2.386-1.6,7.939,7.939,0,0,1,2.722-.953A10.426,10.426,0,0,1,1381.358,121.7Z" transform="translate(-44.782 -8.93)" fill="#00447f"/><path d="M1362.358,96.29c2.069,2.867,5.253,4.618,8.592,6.042a49.17,49.17,0,0,0,14.961,3.82c4.137.481,8.428.318,12.4,1.116a31.068,31.068,0,0,1,13.373,6.042c1.742,1.433,3.493,3.03,5.244,4.618,5.888,4.935,13.364,8.428,21,8.111a40.6,40.6,0,0,0-1.751-8.746,24.9,24.9,0,0,0-2.549-6.523,26.13,26.13,0,0,0-6.2-6.351,59.372,59.372,0,0,0-8.755-6.351,42.731,42.731,0,0,0-18.145-5.253,154.158,154.158,0,0,0-19.052.163l-17.5.953c-1.6.163-3.629.481-4.137,2.069" transform="translate(-43.763 -6.272)" fill="#162457"/><path d="M1380.505,178.477s3.629,10.5,1.751,19.406l30.847-6.841-1.433-15.115Z" transform="translate(-45.68 -14.001)" fill="#ffb38a"/><path d="M1354.992,120.754s14.779-12.7,7.258-26.056l-10.415,4.618.644,11.794Z" transform="translate(-43.02 -6.467)" fill="#162457"/><path d="M1340.525,290.492s26.41-24.5,41.362-30.384l15.423,18.771,29.749,14.316,9.553,13.21s-.318,5.09,0,5.888-23.87,5.444-23.87,5.444l-35.791-2.069Z" transform="translate(-41.971 -21.808)" fill="#0af"/><path d="M1387.44,334.54c-.154-2.069-.472-3.974-.635-6.042C1386.333,330.721,1387.767,337.09,1387.44,334.54Z" transform="translate(-46.255 -28.152)" fill="#ffbe53"/><path d="M1392.173,328.05c-.163-2.069-.481-3.974-.635-6.042C1390.9,324.394,1392.328,330.754,1392.173,328.05Z" transform="translate(-46.688 -27.55)" fill="#ffbe53"/><path d="M1489.435,282.031c5.444-20.368,4.3-43.276-3.5-62.364-11.132-27.363-35-43.276-56.957-43.911-22.427-.635-47.721,14.516-59.978,42.795-8.274,19.052-9.98,41.842-5.443,62.21C1388.884,290.306,1439.318,303.506,1489.435,282.031Z" transform="translate(-43.879 -13.983)" fill="#031f59"/><path d="M1468.974,241.862s14.325,14.516,10.506,61.094l-87.822.472s-8.437-55.206,6.206-73.66Z" transform="translate(-46.49 -18.994)" fill="#021333"/><path d="M1404.223,324.635c21.157,7.793,42.16,15.423,63.317,23.226,6.523,2.386,13.046,4.772,19.887,5.57,8.909,1.107,17.982-.318,27.045-1.914a16.658,16.658,0,0,0,6.206-1.905c3.983-2.386,13.677-5.348,14.775-9.821,1.588-6.351,9.3-12.683,10.887-19.052.582-1.689-14.009-5.678-14.385-7.426a9.273,9.273,0,0,0-2.223-3.493c-10.179-11.141-27.363-15.423-41.525-10.188-6.523,2.386-12.565,6.523-19.406,6.351-3.03,0-6.052-.907-9.073-1.433-8.592-1.433-17.338.318-25.775,1.905-6.042,1.279-12.094,2.386-17.655,4.935s-10.66,6.523-13.364,11.93" transform="translate(-47.76 -25.268)" fill="#ffcdaa"/><path d="M1349.3,304.034c-6.523,3.184-7.957,12.248-6.051,19.252a12.634,12.634,0,0,0,2.867,5.443,13.189,13.189,0,0,0,4.772,2.867c14.951,6.042,31.98,1.905,46.615-4.618s28.642-15.115,44.392-18.453a84.876,84.876,0,0,0,8.592-2.069,40.719,40.719,0,0,0,9.227-5.253c9.072-6.523,17.655-14.153,28-18.453a50.664,50.664,0,0,1,25.612-3.5c-.759-6.166.795-.361-2.527-5.611-.4-.735-6.607.529-7.258,0-.959-.575-5.158,2.637-5.443-3.629-8.746-.481-10.824-3.112-18.145,1.814-7.322,4.772-16.262,6.319-24.219,9.975-11.132,5.253-23.861,5.888-36.109,7-24.977,2.059-50.28,5.725-73.342,15.75" transform="translate(-42.151 -22.622)" fill="#ffcdaa"/><path d="M1310.511,327.366a13.214,13.214,0,0,1-3.629-8.592c-.317-4.935,1.751-9.871,3.629-14.516" transform="translate(-38.848 -25.903)" fill="#ffc75c"/><path d="M1310.341,327.506a13.354,13.354,0,0,1-3.72-8.728c-.318-4.926,1.678-9.753,3.629-14.416l.063-.154.39.163-.063.154c-1.914,4.618-3.892,9.4-3.629,14.226a12.917,12.917,0,0,0,3.629,8.456Z" transform="translate(-38.824 -25.899)" fill="#fca73b"/><ellipse cx="5.571" cy="7.793" rx="5.571" ry="7.793" transform="translate(1340.069 218.413)" fill="#ffcdaa"/><ellipse cx="5.571" cy="7.793" rx="5.571" ry="7.793" transform="translate(1413.892 218.413)" fill="#ffcdaa"/><path d="M1466.375,197.148H1393.8v56.957a26.713,26.713,0,0,0,6.351,17.183h0a30.155,30.155,0,0,0,23.226,10.5h13.373a30.155,30.155,0,0,0,23.226-10.5h0a26.713,26.713,0,0,0,6.351-17.183Z" transform="translate(-46.912 -15.969)" fill="#ffcdaa"/><path d="M1392.989,233.039s.635-12.892,19.406-25.775c0,0,8.274-11.141,24.342-6.686L1447.56,216l5.089.8,26.41,34.2-.635-39.012-7.485-15.278s-9.544-6.2-11.93-6.2-18.934-7.8-18.934-7.8-15.423.318-16.385,0-14,1.279-17.183,1.6c-3.339.318-10.5,3.82-10.5,3.82s-7.793,11.613-9.862,9.073c-.962-1.27-1.433,13.527-1.433,14.951S1392.989,233.039,1392.989,233.039Z" transform="translate(-46.07 -14.626)" fill="#031f59"/><path d="M1410.665,205.9s5.09,18.453,16.712,28.95l13.364-.635s-4.618-5.888-5.57-12.883c0,0,3.629,9.381,10.5,12.883h7s-4.137-6.523-5.443-10.5c0,0,5.443,7.476,10.814,10.5h10.814l-2.722-20.041-11.45-9.227-13.046-9.236-13.682-2.059-9.98,5.443Z" transform="translate(-48.477 -15.644)" fill="#031f59"/><path d="M1386.356,197.664l-7.639-8.12a2.115,2.115,0,0,0-3.5.8l-3.629,13.2a2.078,2.078,0,0,0,2.722,2.549l11.132-4.137,8.165,7.793a2.1,2.1,0,0,0,3.493-.907l3.629-11.93a2.16,2.16,0,0,0-2.549-2.722Z" transform="translate(-44.844 -15.205)" fill="#0af"/><path d="M1386.794,204.464l-.635-.163a1.687,1.687,0,0,1-1.294-2.005c0-.021.009-.043.015-.064l.962-3.81a1.687,1.687,0,0,1,2.005-1.294l.063.014.635.163a1.688,1.688,0,0,1,1.284,2.012.522.522,0,0,1-.014.056l-.907,3.82A2.058,2.058,0,0,1,1386.794,204.464Z" transform="translate(-46.08 -15.964)" fill="#0061bc"/><path d="M1431.332,260.021l-.327-.535,1.27-.8a3.874,3.874,0,0,1,4.654.172l.8.644-.39.49-.8-.635a3.267,3.267,0,0,0-3.91-.154Z" transform="translate(-50.363 -21.612)" fill="#ed9232"/><ellipse cx="6.523" cy="4.455" rx="6.523" ry="4.455" transform="translate(1400.846 238.3)" fill="#ff9c5d"/><ellipse cx="6.523" cy="4.455" rx="6.523" ry="4.455" transform="translate(1354.395 238.3)" fill="#ff9c5d"/><path d="M1437.78,271.539a11.342,11.342,0,0,1-4.155-.78l.345-.771a9.144,9.144,0,0,0,11.558-3.819l.717.454A9.653,9.653,0,0,1,1437.78,271.539Z" transform="translate(-50.606 -22.371)" fill="#00347e"/><circle cx="14.951" cy="14.951" r="14.951" transform="translate(1351.374 210.774)" fill="#ffecd3"/><path d="M1413.674,259.866a15.169,15.169,0,1,1,15.169-15.169h0A15.178,15.178,0,0,1,1413.674,259.866Zm0-29.939a14.752,14.752,0,1,0,14.743,14.761v-.018a14.761,14.761,0,0,0-14.743-14.716Z" transform="translate(-47.349 -18.972)" fill="#00457f"/><circle cx="14.951" cy="14.951" r="14.951" transform="translate(1385.895 210.774)" fill="#ffecd3"/><path d="M1451.724,259.866a15.169,15.169,0,1,1,15.169-15.169h0A15.187,15.187,0,0,1,1451.724,259.866Zm0-29.939a14.752,14.752,0,1,0,14.752,14.752v-.009a14.762,14.762,0,0,0-14.752-14.716Z" transform="translate(-50.878 -18.972)" fill="#00457f"/><path d="M1422.383,249.84a3.828,3.828,0,0,0-3.729-2.858,3.694,3.694,0,0,0-3.429,2.441l-.78-.318a4.537,4.537,0,0,1,4.21-2.967,4.663,4.663,0,0,1,4.536,3.5Z" transform="translate(-48.827 -20.513)" fill="#00347e"/><path d="M1452.723,249.84a3.828,3.828,0,0,0-3.729-2.858,3.684,3.684,0,0,0-3.429,2.441l-.78-.318a4.537,4.537,0,0,1,4.21-2.967,4.663,4.663,0,0,1,4.536,3.5Z" transform="translate(-51.641 -20.513)" fill="#00347e"/><path d="M1411.838,243.394l-.653-.535c3.121-3.774,6.351-3.066,9.073-1.869l-.336.771C1417.536,240.718,1414.714,239.892,1411.838,243.394Z" transform="translate(-48.525 -19.947)" fill="#00347e"/><path d="M1454.514,243.088c-3.067-3.375-5.77-2.513-8.265-1.334l-.354-.762c2.658-1.252,5.788-2.268,9.236,1.533Z" transform="translate(-51.744 -19.93)" fill="#00347e"/><path d="M1436.788,247.377a3.951,3.951,0,0,0-5.253,0" transform="translate(-50.413 -20.536)" fill="#ffd9a3"/><path d="M1431.706,247.6l-.381-.508a4.293,4.293,0,0,1,5.661,0l-.445.454A3.655,3.655,0,0,0,1431.706,247.6Z" transform="translate(-50.393 -20.502)" fill="#00457f"/><path d="M1330.276,283.286l7.158-5.734a19.053,19.053,0,0,1,18.771-3.021l24.187,8.909,17.655,10.025s8.428,9.98,12.411,10.978c0,0,.472,6.351-7.639,4.137l4.618,7.957.318,7.957s-2.55,5.725-7.476,2.386c0,0-3.348,10.5-9.708,5.09,0,0-5.725,8.428-9.98,0,0,0-1.27,4.609-7.639,1.588l-15-13.881s-10.343-8.111-13.364-14.471c0,0-8.592,6.677-4.936,17.655,0,0-3.974,5.725-6.995,5.725,0,0-9.708-1.742-17.5,1.279l-5.571-2.386-2.386-23.071Z" transform="translate(-38.881 -23.031)" fill="#ffb38a"/><path d="M1385.022,335.971h-.236c-1.615-.1-3.039-1.225-4.237-3.33a4.052,4.052,0,0,1-1.905,1.815c-1.524.708-3.511.481-5.906-.653l-.073-.054L1357.7,319.9c-.39-.308-10.034-7.911-13.255-14.208a16.018,16.018,0,0,0-4.536,17.056l.054.154-.091.127c-.163.236-4.11,5.861-7.258,5.861-.154,0-9.771-1.7-17.392,1.252h-.118l-5.861-2.5-2.413-23.416.109-.109,23.089-21.175,7.158-5.725a19.425,19.425,0,0,1,19.052-3.066l24.187,8.909,17.791,10.116c.082.1,8.41,9.98,12.239,10.887l.227.054v.227a4.987,4.987,0,0,1-1.588,3.928c-1.27,1.052-3.193,1.3-5.716.726l4.273,7.449.327,8.029v.073a6.859,6.859,0,0,1-3.629,3.457,4.816,4.816,0,0,1-3.937-.717c-.481,1.306-2.214,5.444-5.235,6.351a5,5,0,0,1-4.582-1.252C1389.921,333.249,1387.662,335.971,1385.022,335.971Zm-4.591-4.926.363.717c1.161,2.268,2.513,3.475,4.028,3.565h.2c2.722,0,5.226-3.575,5.253-3.629l.2-.29.263.227c1.5,1.279,2.94,1.724,4.264,1.343,3.193-.907,4.917-6.233,4.935-6.287l.127-.4.354.236a4.438,4.438,0,0,0,3.756.853,6,6,0,0,0,3.23-3.048l-.318-7.793-4.963-8.555.744.2c2.722.735,4.663.6,5.888-.408a4.267,4.267,0,0,0,1.361-3.175c-4.01-1.243-11.631-10.179-12.312-10.978l-17.61-9.98-24.133-8.882a18.817,18.817,0,0,0-18.463,2.967l-7.158,5.725L1307.5,304.5l2.359,22.681,5.271,2.259c7.775-2.958,17.455-1.261,17.555-1.243,2.531,0,6-4.636,6.6-5.444-3.556-10.969,5-17.782,5.09-17.855l.308-.236.163.354c2.958,6.224,13.173,14.28,13.273,14.362l14.942,13.872c2.2,1.034,3.983,1.252,5.317.644a3.564,3.564,0,0,0,1.815-2.059Z" transform="translate(-38.847 -22.995)" fill="#e57d59"/><path d="M1409.149,330.371h-.626v-3.72l-9.018-13.609.526-.345,9.118,13.763Z" transform="translate(-47.442 -26.686)" fill="#e57d59"/><path d="M1398.5,336.256l-.617-.127.771-4-7.557-11.186.517-.354,7.712,11.4Z" transform="translate(-46.662 -27.418)" fill="#e57d59"/><path d="M1386.849,336.679l-.154-2.921-6.46-7.712.49-.408,6.587,7.884.163,3.121Z" transform="translate(-45.654 -27.886)" fill="#e57d59"/><rect width="0.415" height="11.985" transform="translate(1348.476 278.209) rotate(-36.409)" fill="#fca73b"/><path d="M1349.057,309.775c-2.132-2.794-.907-8.3-.844-8.537l.608.136c0,.054-1.216,5.443.744,8.011Z" transform="translate(-42.647 -25.623)" fill="#e57d59"/><path d="M1347.6,308.061a5.442,5.442,0,0,1-3.956-1.951,4,4,0,0,1-.68-2.912l.417.082a3.575,3.575,0,0,0,.608,2.586,5.027,5.027,0,0,0,3.629,1.815Z" transform="translate(-42.193 -25.805)" fill="#fca73b"/><path d="M1333.41,331.277c3.021,0,6.995-5.725,6.995-5.725-3.175-9.862,3.348-16.231,4.618-17.5a2.72,2.72,0,0,0-1.6-.472h1.433a8.449,8.449,0,0,1-4.609-2.232c-3.021,3.5-5.888,7-8.909,10.343a17.914,17.914,0,0,1-4.3,4.137c-.953.635-2.069,1.116-3.021,1.751a13.377,13.377,0,0,0-2.223,2.069c-1.6,1.751-3.348,3.493-4.935,5.244a6.116,6.116,0,0,0-1.434,2.069,5.122,5.122,0,0,0-.154,1.6l.472.154C1323.7,329.372,1333.41,331.277,1333.41,331.277Z" transform="translate(-39.629 -26.004)" fill="#ea9f78"/><path d="M1405.935,302.188s7.793,9.871,13.518,6.351c0,0-1.27,5.244-7.793,2.223Z" transform="translate(-48.038 -25.711)" fill="#ea9f78"/><path d="M1523.769,356.569a21.651,21.651,0,0,1-9.644-2.577l.327-.544c.091.054,9.145,5.253,16.2.49l.354.517A12.7,12.7,0,0,1,1523.769,356.569Z" transform="translate(-58.073 -30.466)" fill="#ed9232"/><path d="M1570.964,290.039s-3.629-14.316-34.367-15.913c0,0-16.866-2.069-27.526-7.312,0,0-12.4-5.253-25.929,5.244l-19.252,16.394s-10.343,15.106-21.774,17.655c0,0-1.6,6.686,6.995,4.618l-3.021,4.772a31.974,31.974,0,0,0-3.974,9.7l-.98,4.645c-.472,1.588-.635,3.82.327,5.253,1.107,1.742,4.137,2.386,7.63-1.434,0,0,1.116,10.66,9.871,1.588l2.722-4.455-1.116,6.042a5.722,5.722,0,0,0,.907,3.983c1.27,1.588,3.5,2.722,7.158-1.914l9.39-17.655-4.3,13.046s-4.609,5.725-2.223,7.957c0,0,3.339,3.629,10.343-4.618l6.523-12.248s13.518-18.145,17.183-27.217l4.137-.789s5.444,5.725,16.067,8.583c0,0,8.909,3.348,9.544,8.274,0,0,10.18,2.867,20.2-6.523,0,0,13.046-11.93,17.338-12.7Z" transform="translate(-51.268 -22.308)" fill="#ffb38a"/><path d="M1473.739,343.315a3.445,3.445,0,0,1-2.477-.907c-2.459-2.3,1.706-7.721,2.177-8.32l3.13-9.481-7.657,14.4q-2.722,3.457-4.972,3.457h0a3.474,3.474,0,0,1-2.722-1.5,6.054,6.054,0,0,1-1.025-4.21l.808-4.382-1.815,2.985c-2.958,3.085-5.389,4.282-7.258,3.629-2.078-.717-2.831-3.448-3.066-4.709-1.724,1.715-3.529,2.577-5.135,2.431a3.331,3.331,0,0,1-2.558-1.515c-1.016-1.524-.853-3.847-.354-5.507l.907-4.591a32.231,32.231,0,0,1,4.019-9.807l2.613-4.137c-2.64.517-4.536.209-5.661-.907-1.588-1.579-1-4.137-.971-4.246v-.19h.191c11.2-2.486,21.5-17.383,21.6-17.528l.063-.064,19.252-16.385c13.518-10.506,26.129-5.353,26.256-5.3,10.506,5.171,27.272,7.258,27.435,7.258,30.293,1.57,34.412,15.305,34.63,16.122l2.041,5.271-.372.073c-4.164.771-17.056,12.529-17.192,12.647-10.034,9.4-20.395,6.623-20.5,6.6l-.2-.054v-.209c-.6-4.69-9.254-7.984-9.345-8.02a37.538,37.538,0,0,1-16.058-8.546l-3.8.735c-3.729,9.073-17.029,26.936-17.156,27.118l-6.505,12.2c-3.1,3.683-5.879,5.543-8.292,5.589Zm4-22.264.581.245-4.355,13.146c-1.225,1.524-4.037,5.861-2.25,7.521a2.846,2.846,0,0,0,2.123.726c1.524-.045,4.11-1,7.757-5.307l6.487-12.193c.163-.227,13.563-18.254,17.165-27.218l.063-.154,4.482-.862.118.127c.054.054,5.443,5.7,15.922,8.5.39.145,8.873,3.375,9.744,8.319,1.443.318,10.687,1.951,19.705-6.5.526-.481,12.5-11.4,17.138-12.7l-1.814-4.627c0-.145-4-14.117-34.076-15.677-.191,0-17.056-2.141-27.644-7.349-.109-.045-12.393-5.044-25.6,5.217L1464.077,288.6c-.572.816-10.66,15.1-21.774,17.71a4.129,4.129,0,0,0,.835,3.466c1.071,1.052,3.021,1.252,5.815.581l.762-.181-3.448,5.443a31.749,31.749,0,0,0-3.892,9.662l-.907,4.609c-.445,1.479-.635,3.629.263,5.008a2.721,2.721,0,0,0,2.087,1.234c1.56.136,3.339-.826,5.063-2.722l.472-.517.073.7c0,.045.454,4.037,2.722,4.827,1.642.563,3.847-.59,6.587-3.42l3.547-5.87-1.424,7.739a5.446,5.446,0,0,0,.907,3.738,2.82,2.82,0,0,0,2.2,1.243h0c1.288,0,2.785-1.061,4.455-3.166Z" transform="translate(-51.237 -22.283)" fill="#e57d59"/><path d="M1450.215,338.472l-.59-.236,3.819-9.39,7.176-12.448.544.318-7.158,12.4Z" transform="translate(-52.09 -27.029)" fill="#e57d59"/><rect width="17.51" height="0.626" transform="translate(1408.549 310.875) rotate(-61.83)" fill="#e57d59"/><path d="M1516.814,293.778s-.472,3.339-4.609,6.995" transform="translate(-57.895 -24.931)" fill="#ffc75c"/><path d="M1512.392,301l-.417-.472c3.983-3.529,4.536-6.777,4.536-6.8l.626.091C1517.083,293.955,1516.6,297.312,1512.392,301Z" transform="translate(-57.873 -24.927)" fill="#e57d59"/><rect width="15.886" height="0.417" transform="translate(1397.672 288.486) rotate(-55.19)" fill="#ed9232"/><path d="M1442.235,311.472s7.158,2.722,12.883-5.244l-5.725,8.274C1449.23,314.656,1443.668,316.571,1442.235,311.472Z" transform="translate(-51.405 -26.086)" fill="#ea9f78"/><path d="M1392.348,184.742a37.693,37.693,0,0,1-10.733-1.706l.209-.6c.082,0,7.966,2.667,14.952,1.261l.118.626A23.3,23.3,0,0,1,1392.348,184.742Z" transform="translate(-45.782 -14.605)" fill="#e57d59"/><path d="M1128.2,295.341l-21.965,24.986,36.118,4.772,22.591-16.548L1157,295.668l-9.871-3.82h-11.613Z" transform="translate(-20.241 -24.752)" fill="#ffb38a"/><path d="M1142.379,325.4h-.127l-36.707-4.845,22.445-25.494,7.458-3.529h11.731l9.98,3.856,8.165,13.228Zm-35.573-5.335,35.383,4.672,22.255-16.331-7.748-12.547-9.708-3.756H1135.5l-7.194,3.438Z" transform="translate(-20.177 -24.723)" fill="#e57d59"/><path d="M1243.784,252.141c4.609,2.232,24.714,10.842,29.486,13.237,3.629,1.742,8.338,3.928,11.2,6.8,4.455,4.137,6.06,7.6,8.292,13.164a34.733,34.733,0,0,1,2.54,8.755c.318,2.386,0,4.772.481,7.158.472,2.54,1.751,4.772,2.54,7.158.644,2.386.644,5.443-1.107,7.158.472-6.995-5.57-12.7-11.458-16.7a39.919,39.919,0,0,0-13.2-6.051c-5.1-1.424-9.236.8-14.008,3.184-6.995,3.339-10.5,13.364-17.183,17.347-3.81,2.223-11.132-2.386-15.423-1.6-18.453,3.5-39.012,5.253-55.043-4.609a57.849,57.849,0,0,1-5.09-3.5c-1.6-1.116-3.184-2.232-4.772-3.184-5.888-3.629-12.574-5.725-19.052-7.957-6.2-2.069-13.836-3.629-18.453.8-2.386,2.386-3.339,5.725-4.137,9.072-3.819-3.819-2.722-11.459,2.232-14.008,1.27-.635,2.722-.907,3.974-1.588,5.571-2.867,9.4-7.458,13.7-11.794a44.718,44.718,0,0,1,12.629-8.347c9.236-4.455,25.095-9.753,34.167-14.516,8.274-4.291,6.487-9.435,15.714-9.753,10.814-.327,21.475.635,32.3,1.588,4.609.481,9.381.907,13.364,3.184,4.609,2.722-1.914,3.23,3.021,4.981" transform="translate(-21.249 -20.156)" fill="#0af"/><path d="M1121.675,289.619s31.3-27.617,56.123-32.071l-16.512,18.862-9.073,8.437-5.443,3.974Z" transform="translate(-21.673 -21.571)" fill="#0af"/><path d="M1198.655,273.258a39.211,39.211,0,0,0,6.664,16.208c5.443,7.258,29.032,7.258,34.475,3.629s7.226-11.88,7.226-11.88Z" transform="translate(-28.813 -23.028)" fill="#e8bb9b"/><path d="M1259.155,311.077a20.16,20.16,0,0,1,4.935-6.523,28.8,28.8,0,0,1,21.956-7.639c7.476.635,14.153,5.888,19.406,12.257a11.836,11.836,0,0,1,1.27,1.742l2.386,3.629a33.859,33.859,0,0,1,.962,5.888" transform="translate(-34.424 -25.21)" fill="#ffcdaa"/><path d="M1310.127,321.928c.163,3.81-.635,6.206-.907,12.4-.318,4.3-1.116,9.072-4.137,11.622a10.108,10.108,0,0,1-7,1.742c-10.978-.154-21.774-5.444-30.547-13.037-5.244-4.464-10.5-11.141-9.227-18.617a12.842,12.842,0,0,1,1.116-3.5" transform="translate(-34.328 -26.671)" fill="#ffcdaa"/><path d="M1299.086,348.039h-1.107c-10.288-.145-21.212-4.808-30.729-13.119-4.1-3.475-10.76-10.551-9.336-18.907a13.074,13.074,0,0,1,1.134-3.575l.581.254a12.528,12.528,0,0,0-1.089,3.411c-1.37,8.056,5.126,14.942,9.073,18.336,9.417,8.22,20.2,12.829,30.348,12.974a9.668,9.668,0,0,0,6.8-1.687c2.994-2.522,3.72-7.412,4.01-11.386.145-2.822.39-4.827.6-6.6a33.566,33.566,0,0,0,.354-5.779h.635a33.827,33.827,0,0,1-.363,5.888c-.209,1.76-.454,3.747-.59,6.55-.308,4.11-1.061,9.154-4.255,11.84A9.641,9.641,0,0,1,1299.086,348.039Z" transform="translate(-34.291 -26.662)" fill="#e57d59"/><path d="M1173.293,308.5l-.617-.118c2.631-13.772-10.515-20.595-10.651-20.667l.281-.562C1162.442,287.221,1176.015,294.261,1173.293,308.5Z" transform="translate(-25.416 -24.316)" fill="#0061bc"/><path d="M1174.358,308.751l-.563-.29c5.879-11.749.408-19,.354-19.052l.49-.39C1174.7,289.072,1180.4,296.639,1174.358,308.751Z" transform="translate(-26.507 -24.49)" fill="#0061bc"/><path d="M1258.8,308.47c0-.127-.481-12.7,13.391-19.052l.263.572c-13.491,6.206-13.028,18.345-13.019,18.472Z" transform="translate(-34.392 -24.527)" fill="#0061bc"/><path d="M1257.493,308.283c-4.337-11.713,5.58-18.762,5.679-18.825l.363.517c-.1.063-9.608,6.841-5.444,18.082Z" transform="translate(-34.168 -24.531)" fill="#0061bc"/><path d="M1033.187,331.547c-.2-.236-19.86-23.589-40.028-20.912l-.063-.5c20.413-2.722,40.282,20.867,40.482,21.085Z" transform="translate(-9.747 -26.428)" fill="#0061bc"/><path d="M1518.039,319.906c-3.066-6.75-11.74-7.6-11.794-7.612l.055-.626c.091,0,9.136.907,12.357,7.975Z" transform="translate(-57.342 -26.591)" fill="#ed9232"/><path d="M1015.815,299.065s12.511-41.238,47.359-28.5a70.959,70.959,0,0,1,34.684,32.572" transform="translate(-11.855 -22.552)" fill="#132787"/><path d="M990.535,250.928s26.891,21.774,21.32,53.773" transform="translate(-9.51 -20.957)" fill="#d3e2f4"/><path d="M1011.33,304.984h-1.687c.154-28.47-30.139-39.012-30.447-39.13l.535-1.6C980.048,264.4,1011.484,275.29,1011.33,304.984Z" transform="translate(-8.458 -22.193)" fill="#d3e2f4"/><path d="M1238.374,125.248s-15.115,32.616,2.722,56.8" transform="translate(-31.942 -9.3)" fill="#1c5cc1"/><path d="M1692.279,223.808c-.635.635-1.279,1.107-1.914,1.751h0Z" transform="translate(-74.419 -18.442)" fill="#0af"/><path d="M1530.445,355.886s.5-85.282,72.39-68.631" transform="translate(-59.586 -24.126)" fill="#d3e2f4"/><path d="M1441.455,353.279s54.09-10.188,87.023,16.067" transform="translate(-51.333 -30.27)" fill="#d3e2f4"/><path d="M1527.937,369.919c-32.253-25.711-85.808-15.995-86.343-15.9l-.308-1.651c.544-.109,54.852-9.98,87.7,16.231Z" transform="translate(-51.317 -30.189)" fill="#d3e2f4"/><path d="M1125.13,322.187c3.629-5.09,10.343-6.677,16.394-7.793l20.041-3.82a13.609,13.609,0,0,1,5.09-.318c1.433.318,2.722,1.116,4.137,1.433a20.494,20.494,0,0,0,7,.472c31.182-1.905,63.8-5.444,92.431,7,5.253,2.232,11.141,6.686,9.98,12.411-.8,4.455-5.444,6.841-9.708,8.274a71.607,71.607,0,0,1-15.423,3.175,142.494,142.494,0,0,1-18.454-.154l-65.313-3.348c-5.444-.318-10.823-.635-16.067-2.232-10.823-3.5-19.415-13.046-30.547-14.634" transform="translate(-21.953 -26.45)" fill="#ffcdaa"/><path d="M1248.417,343.547c-3.928,0-7.884-.2-11.794-.4l-65.385-3.348c-5.335-.308-10.887-.635-16.14-2.241-4.781-1.542-9.172-4.282-13.409-6.931-5.362-3.348-10.887-6.8-17.093-7.694l.091-.626c6.351.907,11.921,4.4,17.338,7.784,4.21,2.631,8.555,5.344,13.255,6.868,5.217,1.579,10.7,1.905,15.995,2.214l65.385,3.339a143.4,143.4,0,0,0,18.417.163,71.65,71.65,0,0,0,15.36-3.166c5.761-1.923,8.864-4.536,9.49-8.029,1.043-5.38-4.4-9.762-9.835-12.066-26.074-11.3-55.569-9.363-84.093-7.5-2.722.181-5.443.363-8.165.526a20.85,20.85,0,0,1-7.1-.49,12.261,12.261,0,0,1-2.1-.726,12.331,12.331,0,0,0-2.014-.7,13.392,13.392,0,0,0-4.963.318l-20.05,3.819c-5.952,1.1-12.6,2.722-16.185,7.675l-.517-.372c3.72-5.171,10.515-6.8,16.584-7.92l20.05-3.82a13.854,13.854,0,0,1,5.208-.318,12.552,12.552,0,0,1,2.132.735,12.276,12.276,0,0,0,2.014.7,20.589,20.589,0,0,0,6.913.472l8.165-.526c28.606-1.869,58.182-3.8,84.374,7.548,5.67,2.4,11.323,7.022,10.207,12.756-.662,3.729-3.91,6.514-9.916,8.519a71.815,71.815,0,0,1-15.5,3.194C1252.953,343.475,1250.657,343.547,1248.417,343.547Z" transform="translate(-21.944 -26.417)" fill="#e57d59"/><path d="M1187.154,330.771s45.508.163,55.206-3.974l20.867-11.141,12.7-2.069s4.3,4.3,9.553,5.734a2.3,2.3,0,0,1,1.27,3.629c-1.434,1.433-4.137,2.386-9.544.318l-6.523,2.069,15.423,5.443s10.5,4.137,3.339,9.98c0,0,3.021,2.069,1.116,6.523,0,0-.907,4.137-9.98,1.588,0,0,4.772,2.232,3.021,6.206,0,0-1.116,5.253-8.746,1.433,0,0-4.772,8.592-12.257,5.725l-15.269-6.042a18.15,18.15,0,0,0-9.98-1.116l-60.786,9.39s-14-9.708-14-10.506-2.54-14.634-2.069-15.9a48.052,48.052,0,0,1,3.5-6.351C1164.563,330.771,1187.154,330.771,1187.154,330.771Z" transform="translate(-25.269 -26.769)" fill="#ffcdaa"/><path d="M1176.4,364.8l-.1-.073c-6.451-4.464-14.144-9.98-14.144-10.76,0-.209-.263-1.815-.535-3.547-.989-6.06-1.814-11.576-1.506-12.466a47.057,47.057,0,0,1,3.566-6.478c.626-.907,16.612-1.052,23.452-1.052h0c.463,0,45.553.118,55.088-3.947l20.867-11.159,12.883-2.1.118.118s4.3,4.246,9.408,5.643a2.867,2.867,0,0,1,1.923,1.914,2.359,2.359,0,0,1-.5,2.259c-2,2-5.289,2.141-9.789.445l-5.516,1.751,14.516,5.09c.236.091,5.444,2.2,6.006,5.634.254,1.579-.517,3.148-2.277,4.69.753.717,2.522,2.9.907,6.65h0a3.228,3.228,0,0,1-1.542,1.815c-1.588.907-3.965,1.089-7.077.426a4.606,4.606,0,0,1,1.615,5.589,4.036,4.036,0,0,1-2.123,2.568c-1.669.807-3.956.517-6.8-.853-.907,1.433-5.6,8.247-12.484,5.616l-15.2-6.088a17.685,17.685,0,0,0-9.844-1.1Zm-13.609-10.887c.526.907,8.646,6.677,13.763,10.225l60.631-9.363a18.152,18.152,0,0,1,10.189,1.134l15.269,6.042c7.14,2.722,11.794-5.507,11.858-5.589l.145-.263.272.136c2.776,1.388,4.963,1.715,6.5.98a3.5,3.5,0,0,0,1.814-2.2c1.624-3.711-2.667-5.77-2.849-5.852l.218-.59c4.772,1.334,7.185.78,8.374.073a2.64,2.64,0,0,0,1.261-1.433c1.814-4.2-.907-6.115-.989-6.187l-.345-.245.327-.263c1.814-1.461,2.568-2.921,2.35-4.346-.49-3.085-5.552-5.117-5.607-5.144l-16.33-5.716,7.53-2.386h.1c4.3,1.651,7.4,1.57,9.209-.245a1.717,1.717,0,0,0,.354-1.651,2.215,2.215,0,0,0-1.488-1.479,24.743,24.743,0,0,1-9.563-5.7l-12.52,2.041-20.785,11.114c-9.68,4.128-53.528,4.037-55.342,4.019-8.41,0-22.091.227-23,.853a48.094,48.094,0,0,0-3.439,6.269c-.3.8.907,8.456,1.542,12.13C1162.568,352.411,1162.795,353.563,1162.795,353.908Z" transform="translate(-25.233 -26.734)" fill="#e57d59"/><line x2="6.36" y2="1.424" transform="translate(1257.664 312.44)" fill="none"/><rect width="0.635" height="6.523" transform="translate(1257.611 312.752) rotate(-77.32)" fill="#e57d59"/><path d="M1281.45,322.538s-3.5,2.54.154,3.493" transform="translate(-36.352 -27.599)" fill="#ffb38a"/><path d="M1281.491,326.312c-1.116-.29-1.751-.78-1.878-1.443-.236-1.234,1.424-2.477,1.615-2.622l.372.517c-.4.29-1.506,1.279-1.37,1.987.1.508.825.8,1.424.907Z" transform="translate(-36.32 -27.572)" fill="#e57d59"/><path d="M1290.733,322.538s.907.635-1.588,1.424" transform="translate(-37.206 -27.599)" fill="#ffb38a"/><path d="M1289.225,324.214l-.19-.608c1.479-.463,1.551-.807,1.551-.816l.308-.572a.688.688,0,0,1,.308.662C1291.131,323.416,1290.5,323.842,1289.225,324.214Z" transform="translate(-37.196 -27.569)" fill="#e57d59"/><path d="M1107.459,314.674l32.452-2.54s18.145,8.909,33.732,5.253a2.912,2.912,0,0,1,3.339,1.742c1.6,3.983,1.751,12.094-25.4,10.343a54.864,54.864,0,0,0,23.062,5.57l25.621,5.725s9.381,7.167-2.55,10.66l-39.774-3.339,31.5,9.072a8.1,8.1,0,0,1,5.09,3.974c1.116,2.232,1.6,4.935-2.068,6.841a10.776,10.776,0,0,1-6.351.8l-6.206-.953s-4.137,7.158-27.526,3.493l-3.819,2.867a11.374,11.374,0,0,1-9.073,1.905l-16.548-3.629s-17.655-6.042-28.633-19.569l-6.351-1.433s-30.229-.318-47.885-14.316L1021.615,318.2s2.722-32.135,31.336-28.633a49.191,49.191,0,0,1,26.41,15.115,27.722,27.722,0,0,0,13.046,8.592C1096.962,314.81,1102.369,315.79,1107.459,314.674Z" transform="translate(-12.393 -24.516)" fill="#ffaf97"/><path d="M1145.175,376.9s9.862,1.905,18.608,2.858" transform="translate(-23.853 -32.641)" fill="#ffcdaa"/><path d="M1158.325,368.478h2.54a20.027,20.027,0,0,1,5.253.635l15.115,3.5,11.132,2.867" transform="translate(-25.072 -31.86)" fill="#ff6700" opacity="0.32"/><path d="M1156.915,327.872c2.549,4.455,13.69,8.111,13.69,8.111h1.424a54.765,54.765,0,0,1-7.948-3.021c21.956,1.27,26.093-3.629,26.093-7.793C1177.446,332.961,1156.915,327.872,1156.915,327.872Z" transform="translate(-24.942 -27.843)" fill="#ff6700" opacity="0.32"/><path d="M1005.2,306.808a42.042,42.042,0,0,0-21.956-4.609l-11.794,11.794c7.63-.789,18.608,4.3,25.612,7.158,7.158,2.867,13.681,7,20.05,11.3,6.995,4.609,12.547,9.816,20.867,8.864C1026.262,317.151,1012.526,309.512,1005.2,306.808Z" transform="translate(-7.74 -25.705)" fill="#d3e2f4"/><path d="M1269.11,219.2c.363,23.416-20.241,42.487-45.363,42.487s-45.363-18.952-45.363-42.487,20.241-42.477,45.363-42.477S1268.747,195.788,1269.11,219.2Z" transform="translate(-26.933 -14.074)" fill="#031f59"/><ellipse cx="6.523" cy="6.578" rx="6.523" ry="6.578" transform="translate(1220.684 215.011)" fill="#ffcdaa"/><path d="M1261.175,247.878a6.895,6.895,0,1,1,6.841-6.95v.054A6.876,6.876,0,0,1,1261.175,247.878Zm0-13.155a6.269,6.269,0,1,0,6.215,6.324v-.064A6.242,6.242,0,0,0,1261.175,234.723Z" transform="translate(-33.967 -19.395)" fill="#e57d59"/><ellipse cx="6.523" cy="6.578" rx="6.523" ry="6.578" transform="translate(1158.266 215.011)" fill="#ffcdaa"/><path d="M1192.364,247.878a6.895,6.895,0,1,1,6.841-6.95v.054A6.876,6.876,0,0,1,1192.364,247.878Zm0-13.155a6.269,6.269,0,1,0,6.206,6.333v-.073A6.242,6.242,0,0,0,1192.364,234.723Z" transform="translate(-27.585 -19.395)" fill="#e57d59"/><path d="M1253.937,190.842l-29.431-5.634L1190.765,196.1l2.558,53.265a36.666,36.666,0,0,0,5.443,19.406h0c4.8,7.476,12.212,11.794,19.96,11.794l.835.236a17.923,17.923,0,0,0,10.588-.236h0c7.8,0,15.069-4.3,19.959-11.794h0a36.666,36.666,0,0,0,5.443-19.406l3.738-51.577Z" transform="translate(-28.081 -14.862)" fill="#ffcdaa"/><path d="M1224.508,281.661a18.376,18.376,0,0,1-5-.7l-.8-.227c-8,0-15.369-4.364-20.232-11.921a37.2,37.2,0,0,1-5.5-19.579l-2.577-53.528.227-.073,33.813-10.887h.082l29.558,5.652.073.091,5.543,7v.118l-3.738,51.577a37.193,37.193,0,0,1-5.5,19.56c-4.99,7.557-12.357,11.9-20.223,11.921A18.2,18.2,0,0,1,1224.508,281.661Zm-33.45-85.418,2.55,53.02a36.579,36.579,0,0,0,5.443,19.261c4.745,7.385,11.939,11.622,19.742,11.622h.082l.844.245a17.614,17.614,0,0,0,10.406-.236h.091c7.666,0,14.861-4.237,19.742-11.631a36.494,36.494,0,0,0,5.444-19.234l3.729-51.477-5.326-6.723-29.241-5.589Z" transform="translate(-28.048 -14.819)" fill="#e57d59"/><path d="M1224.785,255.861s3.819-6.206,7.957.154" transform="translate(-31.237 -21.163)" fill="#ffcdaa"/><path d="M1232.453,256.155c-1.179-1.814-2.422-2.722-3.7-2.722h0c-2.114,0-3.683,2.531-3.693,2.558l-.544-.327c.073-.118,1.769-2.831,4.228-2.867h0c1.506,0,2.93,1.016,4.228,3.021Z" transform="translate(-31.212 -21.13)" fill="#e57d59"/><path d="M1248.576,238.246c-5.335-2.595-8.528-1.279-8.564-1.27l-.327-.771c.145-.064,3.629-1.479,9.263,1.279Z" transform="translate(-32.619 -19.553)" fill="#00347e"/><path d="M1210.247,237.638l-.372-.762c5.679-2.722,9.073-1.343,9.263-1.279l-.336.771.163-.381-.163.381S1215.545,235.061,1210.247,237.638Z" transform="translate(-29.854 -19.497)" fill="#00347e"/><ellipse cx="2.223" cy="2.849" rx="2.223" ry="2.849" transform="translate(1184.412 222.822)" fill="#00347e"/><ellipse cx="2.223" cy="2.849" rx="2.223" ry="2.849" transform="translate(1206.931 222.541)" fill="#00347e"/><path d="M1228.319,267.954a12.436,12.436,0,0,1-5.344-1.343l.417-.735c.254.136,6.278,3.429,10.3-1.188l.635.553A7.693,7.693,0,0,1,1228.319,267.954Z" transform="translate(-31.069 -22.233)" fill="#00347e"/><path d="M1184.621,232.015s37.079,2.223,58.754-25.276c0,0,3.094,28.125,20.4,23.861l1.234-21.484-2.368-10.025-12.257-12.085-24.16-8.329-15.841,2.894-18.054,9.572s-2.186-.953-6.759,6.995c-6.351,11.123-5.335,16.394-5.335,16.394Z" transform="translate(-27.099 -14.256)" fill="#162457"/><path d="M1251.717,185.282s-13.845-22.845-48-10.47c0,0-22.881,8.864-24.759,37.342l43.548-1.116,15.1-6.8Z" transform="translate(-26.986 -13.556)" fill="#031f59"/><path d="M1256.735,185.358s31.255,4.718,19.651,45.626a48.99,48.99,0,0,1-10.07,15.877l.181-2.722s2.958-4.845,3.411-6.042,2.232-7.077,2.232-7.077l.789-5.335-5.081-19.3Z" transform="translate(-34.2 -14.875)" fill="#031f59"/><path d="M1354.075,77.474s18.4-40.427,70.484-20.186c0,0,43.761,29.263,32.874,78.255l-12.67-28.411-40.4-14.643Z" transform="translate(-43.228 -2.471)" fill="#162457"/><path d="M1532.565,331.19c11.282-22.64,7.831-22.809,14.911-30.806,10.615-11.794,30.688-21.007,58.45-15.246C1605.925,285.138,1564.713,289.5,1532.565,331.19Z" transform="translate(-59.783 -23.966)" fill="#a5caef"/><path d="M1038.765,343.474c-10.884-21.842-9.092-18.492-15.921-26.206-10.24-11.378-28.069-23.781-54.853-18.223C967.99,299.045,1007.749,303.251,1038.765,343.474Z" transform="translate(-7.419 -25.293)" fill="#a5caef"/><path d="M984,351.123" transform="translate(-8.904 -30.25)" fill="#a5caef" stroke="#a5caef" stroke-miterlimit="10" stroke-width="8"/><path d="M1003.3,234.807c19.959,3.629,39.875,23.7,39.415,22.9-10.1-17.589-28.518-30.53-49.707-34.759-5.679-1.17-10.243-1.325-14.344-.472-9.009,1.833-15.85,8.319-21.293,14.416C957.375,236.889,983.345,231.178,1003.3,234.807Z" transform="translate(-6.434 -18.268)" fill="#a5caef"/></g><g transform="translate(76 11)"><path d="M0,0H175.519V127.859H0Z" transform="translate(1630.826 408.535)" fill="#fff"/><g transform="translate(-3 -1.72)" opacity="0.418"><rect width="175.519" height="127.859" transform="translate(1633.826 410.255)" fill="#a5caef"/><g transform="translate(1652 426.389)"><rect width="141.732" height="95.709" transform="translate(0.03 0)" fill="#fff"/><g transform="translate(0 2.331)" clip-path="url(#b)"><g transform="translate(-20.186 7.566)"><g transform="translate(94.579 9.837)"><g clip-path="url(#c)"><g transform="translate(25.749 23.376)"><path d="M1241.576,2592.844c-.39-2.322-.589-4.728-2.078-6.646a16,16,0,0,0-5.479-3.938.586.586,0,0,0-.365-.057c.024-.235.057-.469.069-.706.041-.787-1.184-.785-1.224,0-.242,4.757-3.379,9.818-1.317,14.541,1.369,3.134,6.012,5.85,9.489,5.433C1244.246,2601.041,1241.914,2594.858,1241.576,2592.844Z" transform="translate(-1230.483 -2580.906)" fill="#162458"/></g><g transform="translate(49.009 35.59)"><path d="M1267.76,2595.432a.622.622,0,0,0-.8.906,1.971,1.971,0,0,0-.22.138.508.508,0,0,0-.614-.179,11.951,11.951,0,0,0-8.057,9.77c-.2,1.713-.084,3.885,1.207,5.206a3.132,3.132,0,0,0,1.637.9,8.147,8.147,0,0,1,2.544.7c3.006,1.527,7.046-.415,8.317-3.614C1273.5,2604.927,1272.072,2597.785,1267.76,2595.432Z" transform="translate(-1257.995 -2595.352)" fill="#162458"/></g><g transform="translate(12.068 54.62)"><path d="M1284.562,2672.773c-.725-8.345-1.547-16.682-2.32-25.023-.523-5.64-.636-11.792-4.261-16.414-3.813-4.863-10.2-7.35-15.511-9.967-2.509-1.236-5.143-2.741-7.92-3.25-3.255-.6-6.9-.03-10.251.3a1.831,1.831,0,0,0-2.117-.329c-7.621,3.2-17.213,6.657-23.075,12.867-5.657,5.991-4.439,15.813-4.685,23.491-.3,9.347-.189,18.864,2.083,27.98,1.243,4.986,4.228,16.636,9.544,18.46a2.382,2.382,0,0,0,2.692-1.125l.077-.136a2.442,2.442,0,0,0-1.7-3.6c-1-.968-3.075-6.329-3.532-7.411a49.549,49.549,0,0,1-2.1-6.1c3.38.774,6.709,3.543,9.732,4.845a46.677,46.677,0,0,0,9.3,2.9,60.888,60.888,0,0,0,20.677.327c5.9-.852,12.848-1.989,18.221-4.805C1284.716,2683,1285.048,2678.351,1284.562,2672.773Z" transform="translate(-1214.301 -2617.858)" fill="#fff"/></g><g transform="translate(38.242 37.482)"><path d="M1252.824,2622.488h0a7.564,7.564,0,0,1-7.564-7.564V2597.59h15.127v17.334A7.562,7.562,0,0,1,1252.824,2622.488Z" transform="translate(-1245.26 -2597.59)" fill="#ffcdaa"/></g><g transform="translate(38.263 42.84)"><path d="M1260.412,2604.382a26.36,26.36,0,0,0-7.37-.353,19.544,19.544,0,0,0-7.633,1.756c-.036.02-.084.041-.124.063v6.442c2.919,2.627,6.125,4.381,10.25,3.336a18.336,18.336,0,0,0,4.876-2.177Z" transform="translate(-1245.285 -2603.926)" fill="#ffcdaa"/></g><g transform="translate(30.608 10.195)"><path d="M1251.511,2565.325c-16.675.257-15.279,14.574-15.234,15.2.489,6.837.519,12.416,3.349,17.075,1.755,2.889,7.6,9.707,11.848,9.795,2.843.056,7.669-4.383,9.476-7.394a34.7,34.7,0,0,0,5.331-19.3C1266.1,2572.6,1269.477,2565.048,1251.511,2565.325Z" transform="translate(-1236.231 -2565.318)" fill="#ffcdaa"/></g><g transform="translate(28.102 28.476)"><path d="M1234.453,2593.559c.784,1.146,3.7,3.561,4.737,1.683.533-.966-.361-2.049-.832-2.835-.137-.23-.275-.46-.413-.688.439.734,1.58.011,1.172-.775-.657-1.262-2.523-5.238-4.5-3.63C1233.026,2588.617,1232.678,2590.962,1234.453,2593.559Z" transform="translate(-1233.266 -2586.938)" fill="#ffcdaa"/></g><g transform="translate(37.193 30.364)"><path d="M1246.13,2590.787c0,.892-.472,1.615-1.055,1.615s-1.056-.723-1.056-1.615.473-1.616,1.056-1.616S1246.13,2589.9,1246.13,2590.787Z" transform="translate(-1244.019 -2589.171)" fill="#162458"/></g><g transform="translate(52.246 30.175)"><path d="M1263.936,2590.562c0,.89-.473,1.615-1.057,1.615s-1.055-.725-1.055-1.615.473-1.616,1.055-1.616S1263.936,2589.671,1263.936,2590.562Z" transform="translate(-1261.824 -2588.947)" fill="#162458"/></g><g transform="translate(43.957 32.305)"><path d="M1255.536,2597.659c-.925.151-1.846.324-2.107-1a6.3,6.3,0,0,1,.2-1.794c.154-1.1.254-1.415.424-2.512.139-.885-1.219-1.267-1.359-.373-.2,1.278-.323,1.779-.5,3.061a5.4,5.4,0,0,0,0,2.65c.6,1.581,2.321,1.558,3.72,1.331C1256.8,2598.874,1256.424,2597.516,1255.536,2597.659Z" transform="translate(-1252.019 -2591.467)" fill="#c3595e"/></g><g transform="translate(42.432 42.819)"><path d="M1256.856,2603.911a16.545,16.545,0,0,1-6.049.027.554.554,0,0,0-.395.972.1.1,0,0,0,.006.014,4.127,4.127,0,0,0,6.9-.1.508.508,0,0,0,.036-.1A.524.524,0,0,0,1256.856,2603.911Z" transform="translate(-1250.216 -2603.901)" fill="#bb3e63"/></g><g transform="translate(49.685 26.98)"><path d="M1265.616,2586.284c-1.642-.631-3.234-1.344-4.985-1.045-.66.111-2.623.837-1.491,1.826.511.444,4.269.229,6.24.522C1266.253,2587.719,1266.585,2586.657,1265.616,2586.284Z" transform="translate(-1258.795 -2585.169)" fill="#162458"/></g><g transform="translate(34.547 26.849)"><path d="M1241.037,2586.668a1.6,1.6,0,0,1,.587-.684,7.2,7.2,0,0,1,5.026-.82c.655.143,2.584.957,1.407,1.893-.53.421-4.317-.166-6.181.539C1240.923,2587.955,1240.7,2587.39,1241.037,2586.668Z" transform="translate(-1240.889 -2585.014)" fill="#162458"/></g><g transform="translate(57.047 28.195)"><path d="M1272.235,2586.984c-1.972-1.61-3.838,2.365-4.495,3.629-.409.786.732,1.507,1.171.774l-.413.688c-.471.785-1.364,1.869-.83,2.834,1.04,1.878,3.951-.538,4.735-1.684C1274.18,2590.63,1273.831,2588.286,1272.235,2586.984Z" transform="translate(-1267.504 -2586.606)" fill="#ffcdaa"/></g><g transform="translate(58.671 30.522)"><path d="M1270.478,2590.033a3.887,3.887,0,0,1-.88,2.138c-.575.693.416,1.7,1,1a5.538,5.538,0,0,0,1.292-3.134C1271.969,2589.129,1270.558,2589.135,1270.478,2590.033Z" transform="translate(-1269.424 -2589.357)" fill="#c3595e"/></g><g transform="translate(29.854 30.585)"><path d="M1236.752,2590.108a3.882,3.882,0,0,0,.879,2.139c.575.693-.416,1.7-1,1a5.546,5.546,0,0,1-1.292-3.135C1235.26,2589.2,1236.67,2589.211,1236.752,2590.108Z" transform="translate(-1235.338 -2589.433)" fill="#c3595e"/></g><g transform="translate(25.106 10.885)"><path d="M1255.153,2566.887c-2.225-1.357-6.357-.534-8.738-.211a23.048,23.048,0,0,0-5.32,1.321c-2.277.879-4.255,2.1-6.7,2.241a.981.981,0,0,0-1.32.035c-2.836,3.923-5.861,13.428,0,16.5,6.086,3.192,10.193-6.778,12.67-10.3a16.636,16.636,0,0,1,4.951-4.941c1.434-.838,3.643-.823,4.924-1.811C1256.818,2568.8,1256.375,2567.633,1255.153,2566.887Z" transform="translate(-1229.723 -2566.133)" fill="#162458"/></g><g transform="translate(27.032 58.987)"><path d="M1267.513,2680.249c-2.252-18.073-1.909-36.427-5.046-54.385a1.231,1.231,0,0,0-2.425-.118q-4.069,16.671-8.138,33.345c-3.265-12.018-8.487-23.695-12.818-35.3a1.226,1.226,0,0,0-2.3.852c.945,2.533,1.934,5.069,2.934,7.609a1.311,1.311,0,0,0-.423.3c-10.02,10.749-7.11,28.145-6.2,41.511.934,13.755,5.192,27.535,19.185,31.3,3.671.988,12.591-.356,15.165-4.216C1270.74,2696.213,1268.175,2685.556,1267.513,2680.249Z" transform="translate(-1232.001 -2623.023)" fill="#c8148b"/></g><g transform="translate(26.652 5.108)"><path d="M1268.72,2573.257a11.331,11.331,0,0,0-6.915-9.849,28.783,28.783,0,0,0-7.931-1.663c-3.54-4.047-9.361-2.578-13.585.84-2.773,2.245-6.228,4.852-7.821,8.154-1.535,3.183-.85,6.716-.058,9.993a1.333,1.333,0,0,0,.069.145c.053.181.1.362.155.542a1.386,1.386,0,0,0,.573.735c3.219,1.739,5.684-.649,7.976-2.919,3.761-3.723,7.574-10.509,13.659-9.77a.572.572,0,0,0,.152-.011.651.651,0,0,0,.2.215c3.97,2.732,5.74,10.457,10.036,12.715C1268.476,2584.09,1268.8,2575.353,1268.72,2573.257Z" transform="translate(-1231.551 -2559.3)" fill="#162458"/></g><g transform="translate(58.723 33.963)"><path d="M1270.638,2593.717c-.414-.67-1.473-.055-1.058.619a3.63,3.63,0,0,1,.562,2.047.612.612,0,0,0,1.223,0A4.821,4.821,0,0,0,1270.638,2593.717Z" transform="translate(-1269.486 -2593.428)" fill="#ffcdaa"/></g><g transform="translate(-6.755 54.125)"><path d="M1294.736,2823.079c-1.763-19.755-3.863-39.1-4.789-58.918-.935-20.016-.3-40.036-.929-60.054-.586-18.534-4.841-46.239-9.691-64.184-4.086-15.113-12.1-13.838-25.219-21.218a2.679,2.679,0,0,0-.541-.323,1.522,1.522,0,0,0-1.377-1.074c-2.13-.212-4.677.617-6.883.656a45.89,45.89,0,0,1-7.973-.6.625.625,0,0,0-.753.429q-.148.508-.3,1.017c-.039.01-.075.019-.117.027-15.214,3.121-23.76,10.475-27.949,24.629-5.486,18.549-6.433,44.562-7.317,63.73-.955,20.744-3.713,41.074-5.962,61.689-2.37,21.725-2.689,43.6-2.9,65.434a1.262,1.262,0,0,0,.9,1.18c9.859,3.556,40.037,6.2,44.563,5.881a1.263,1.263,0,0,0,1.225-1.227c2.482-36.836,6.343-73.887,7.014-110.807.661-36.355-8.006-70.87-8.05-107.186-.059-.479-.1-.878-.142-1.239a33.531,33.531,0,0,0,14.012-.029q.246,55.618.494,111.237c.159,35.958-1.948,72.906,4.5,108.443a1.236,1.236,0,0,0,1.8.732,208.738,208.738,0,0,1,35.241-15.665,1.094,1.094,0,0,0,.594-.282C1294.833,2824.907,1295.094,2824.355,1294.736,2823.079Z" transform="translate(-1192.036 -2617.274)" fill="#223d9b"/></g><g transform="translate(22.23 68.035)"><path d="M1232.694,2649.838c-.585-5.405-1.224-10.746-3.366-15.791-.307-.723-1.362-.1-1.058.617a45.478,45.478,0,0,1,2.929,12.683,35.41,35.41,0,0,0-3.723-7.867c-.421-.665-1.48-.05-1.057.618a34.379,34.379,0,0,1,4.46,10.6.554.554,0,0,0,.73.411c.039.365.077.731.116,1.1q.927,8.579,1.856,17.158c.084.774,1.308.784,1.224,0Q1233.749,2659.6,1232.694,2649.838Z" transform="translate(-1226.321 -2633.725)" fill="#3a5ec1"/></g></g></g><g transform="translate(0 9.837)"><g transform="translate(0)"><g clip-path="url(#d)"><g transform="translate(22.723 7.647)"><path d="M1621.635,2597.932c-.989-2.038-2.345-3.9-3.157-6.025-.984-2.575-.524-4.658-.149-7.3a12.423,12.423,0,0,0-2.425-9.446,12.025,12.025,0,0,0-3.1-2.854c-.722-.454-1.477-.7-2.224-1.1-1.407-.752-1.8-1.794-2.805-2.886-1.792-1.942-4.928-2.22-7.372-1.626a9.569,9.569,0,0,0-3.666,1.777c-1.366,1.086-2.182,2.647-3.411,3.84-1.776.361-6.03.648-7.656,2.743-2.415,3.106-2.055,7.577-3.781,10.946-1.532,2.99-4.028,5.207-4.661,8.742a8.676,8.676,0,0,0,.177,3.728,17.484,17.484,0,0,1,.916,3.93c.024,1.085-.233,2.165-.28,3.246a9.353,9.353,0,0,0,3.368,7.8,4.493,4.493,0,0,0,2.964.955,22.188,22.188,0,0,1,3.327-.2,8.552,8.552,0,0,0,1.944.33c2.474-.2,3.239-3.187,3.636-5.193.75-3.8.134-7.674.014-11.5-.155-5.011,1.861-9.234,2.494-14.083.009-.059.009-.12.016-.178.667,3.176,1.138,6.385,1.51,9.611.565,4.9.913,9.882,3.86,13.949.42,3.545,2.311,7.249,6.309,7.5,2.556.163,3.517-1.712,5.725-2.547a6.71,6.71,0,0,1,2.508-.336,5.388,5.388,0,0,0,7.5-3.882C1624.095,2604.6,1623.064,2600.877,1621.635,2597.932Z" transform="translate(-1577.104 -2566.411)" fill="#162458"/></g><g transform="translate(28.459 33.616)"><path d="M1593.93,2612.337a19.03,19.03,0,0,0,.307-2.516,30.731,30.731,0,0,0-2.082-4.564c-.745-1.4-2.428-4.784-4.575-4.654a1.336,1.336,0,0,0-1.388.983,9.091,9.091,0,0,1-.215-4.777c.328-1.4-1.832-2-2.16-.6-.957,4.087.535,6.275,1.6,10.091.871,3.12-.667,6.855.85,9.75a5.362,5.362,0,0,0,.816,1.145,5.086,5.086,0,0,1,1.266,0,8.575,8.575,0,0,0,1.944.33C1592.768,2617.328,1593.533,2614.342,1593.93,2612.337Z" transform="translate(-1583.511 -2595.413)" fill="#0f1830"/></g><g transform="translate(49.27 33.378)"><path d="M1618.331,2602.03a12.3,12.3,0,0,1-.558-5.806c.1-1.44-2.14-1.433-2.241,0a15.762,15.762,0,0,0,.037,2.885,1.164,1.164,0,0,0-1.034.016,1.12,1.12,0,0,0-1.57.345,17.039,17.039,0,0,0-1.986,4.68,1.1,1.1,0,0,0-1.27.185c-3.385,3.449-4.047,9.977-1.022,12.869a6.035,6.035,0,0,0,1.884.427c2.555.161,3.517-1.713,5.726-2.549a6.787,6.787,0,0,1,2.508-.337c.19.078.383.145.578.2a10.155,10.155,0,0,0,1.476-3.771,9.917,9.917,0,0,0-.731-5.91C1619.617,2604.126,1618.808,2603.2,1618.331,2602.03Z" transform="translate(-1606.754 -2595.147)" fill="#0f1830"/></g><g transform="translate(13.58 54.09)"><path d="M1628.083,2637.318c-2.7-10.758-17.224-12.035-24.657-18.741-1.047-.945-2.633.562-1.585,1.506l.029.026-8.29-.706a1.152,1.152,0,0,0-1.911-.827c-7.434,6.706-21.961,7.983-24.657,18.741-1.148,4.575,6.454,13.1,7.371,17.612,1.288,6.336,4.415,23.5,5.742,29.829,1.21,5.773,2.539,1.778,4.107,7.471.834,3.022-6.51,1.081-3.285,2.22,4.724,1.664,10.96.7,15.85.432.251-.013.5-.038.751-.052.251.014.5.039.752.052,4.889.269,11.125,1.232,15.848-.432,3.227-1.139-5.357,4.723-4.523,1.7,1.568-5.692,4.577-7.3,5.787-13.071.86-4.1-3.539,16.082-.374,8.215,1.724-4.278,3.841-30.77,4.3-33C1620.25,2653.777,1629.23,2641.893,1628.083,2637.318Z" transform="translate(-1566.893 -2618.277)" fill="#ffcdaa"/></g><g transform="translate(37.496 39.825)"><path d="M1600.522,2625.121h0a6.919,6.919,0,0,1-6.919-6.919v-15.856h13.838V2618.2A6.919,6.919,0,0,1,1600.522,2625.121Z" transform="translate(-1593.603 -2602.346)" fill="#ffcdaa"/></g><g transform="translate(37.513 44.727)" opacity="0.182"><path d="M1607.461,2608.238a24.153,24.153,0,0,0-6.742-.324,17.873,17.873,0,0,0-6.982,1.605c-.033.019-.077.039-.113.057v5.893c2.671,2.4,5.605,4.007,9.377,3.052a16.832,16.832,0,0,0,4.461-1.991Z" transform="translate(-1593.624 -2607.821)" fill="#c3595e"/></g><g transform="translate(30.512 14.865)"><path d="M1599.781,2574.479c-15.253.234-13.977,13.333-13.935,13.907.447,6.251.474,11.355,3.064,15.618,1.6,2.643,4.866,7.608,10.9,7.7,3.759.054,5.826-2.315,7.977-4.7,4.117-4.571,5.634-12.546,5.5-18.452C1613.13,2581.134,1616.217,2574.225,1599.781,2574.479Z" transform="translate(-1585.803 -2574.472)" fill="#ffcdaa"/></g><g transform="translate(54.767 31.54)"><path d="M1617.22,2593.438c-1.8-1.469-3.511,2.166-4.112,3.321-.374.72.67,1.381,1.072.71l-.377.627c-.431.721-1.248,1.713-.76,2.594.952,1.718,3.615-.493,4.331-1.541C1619,2596.777,1618.682,2594.631,1617.22,2593.438Z" transform="translate(-1612.893 -2593.094)" fill="#ffcdaa"/></g><g transform="translate(20.917 59.83)"><path d="M1618.479,2647.761q-.768-10.984-.894-21.992a1.121,1.121,0,0,0-2.24,0q.109,10.5.825,20.976a62.5,62.5,0,0,1-34.737.436c-.569-6.492-1.219-12.977-1.861-19.463-.14-1.422-2.382-1.436-2.24,0,.648,6.542,1.3,13.082,1.877,19.629-.017.026-.046.044-.058.075a63.128,63.128,0,0,1-4.063,7.506c.078.248.151.493.2.718,1.283,6.321,4.4,23.422,5.73,29.783,6.038,6.053,18.395,6.489,26.225,5.334a14.587,14.587,0,0,0,8.057-3.711,17.35,17.35,0,0,0,.977-3.091c-.128.619-.322,1.583-.531,2.677a15.726,15.726,0,0,0,1.623-1.931c1.309-9.4,2.536-24.063,2.869-25.7a16.3,16.3,0,0,1,1.445-3.61A76.669,76.669,0,0,0,1618.479,2647.761Z" transform="translate(-1575.088 -2624.687)" fill="#223d9b"/></g><g transform="translate(56.253 33.669)" opacity="0.182"><path d="M1615.517,2596.089a3.554,3.554,0,0,1-.806,1.955c-.526.634.381,1.551.91.913a5.06,5.06,0,0,0,1.183-2.868C1616.88,2595.264,1615.59,2595.269,1615.517,2596.089Z" transform="translate(-1614.552 -2595.472)" fill="#c3595e"/></g><g transform="translate(28.324 31.658)"><path d="M1584.445,2599.283c.717,1.047,3.381,3.258,4.333,1.54.488-.881-.329-1.874-.761-2.595l-.376-.628c.4.67,1.445.01,1.07-.709-.6-1.156-2.307-4.791-4.11-3.32C1583.14,2594.763,1582.822,2596.908,1584.445,2599.283Z" transform="translate(-1583.359 -2593.225)" fill="#ffcdaa"/></g><g transform="translate(30.15 33.786)" opacity="0.182"><path d="M1586.692,2596.218a3.553,3.553,0,0,0,.806,1.957c.526.636-.381,1.551-.911.912a5.071,5.071,0,0,1-1.183-2.868C1585.328,2595.394,1586.617,2595.4,1586.692,2596.218Z" transform="translate(-1585.4 -2595.602)" fill="#c3595e"/></g><g transform="translate(36.535 33.314)"><ellipse cx="0.966" cy="1.477" rx="0.966" ry="1.477" fill="#3e2a46"/></g><g transform="translate(50.258 33.422)"><ellipse cx="0.966" cy="1.477" rx="0.966" ry="1.477" fill="#3e2a46"/></g><g transform="translate(42.629 34.763)" opacity="0.182"><path d="M1602.553,2602.359c-.845.137-1.69.295-1.927-.917a5.786,5.786,0,0,1,.185-1.643c.142-1,.232-1.294.389-2.3.126-.81-1.115-1.16-1.244-.342-.182,1.17-.3,1.627-.459,2.8a4.936,4.936,0,0,0,0,2.426c.545,1.444,2.123,1.425,3.4,1.217C1603.713,2603.469,1603.366,2602.227,1602.553,2602.359Z" transform="translate(-1599.336 -2596.694)" fill="#c3595e"/></g><g transform="translate(41.024 44.598)"><path d="M1603.618,2607.684a18.7,18.7,0,0,1-5.533.02c-.5-.073-.729.542-.362.718l.006.01c1.585,1.751,4.87,1.848,6.313-.073a.284.284,0,0,0,.032-.07C1604.3,2608.057,1604.064,2607.616,1603.618,2607.684Z" transform="translate(-1597.544 -2607.677)" fill="#fff"/></g><g transform="translate(47.314 28.928)"><path d="M1612.75,2591.244a1.658,1.658,0,0,0-.727-.552,9.506,9.506,0,0,0-5.634-.164c-.706.2-2.74,1.163-1.336,1.879.632.321,5.226-.062,6.676-.1C1612.858,2592.285,1613.2,2591.862,1612.75,2591.244Z" transform="translate(-1604.57 -2590.177)" fill="#3e2a46"/></g><g transform="translate(33.084 28.777)"><path d="M1589.843,2592.147c1.394.03,5.812.408,6.421.085,1.354-.715-.6-1.674-1.279-1.878a8.826,8.826,0,0,0-5.42.172,1.608,1.608,0,0,0-.7.554C1588.425,2591.7,1588.757,2592.122,1589.843,2592.147Z" transform="translate(-1588.676 -2590.008)" fill="#3e2a46"/></g><g transform="translate(28.736 13.054)"><path d="M1610.881,2575.2c-5.134-3.262-10.027-3.492-15.728-1.4a.563.563,0,0,0-.372.586.473.473,0,0,0-.441.036.491.491,0,0,0-.543-.16c-1.866.553-3.361.361-4.774,1.87a12.257,12.257,0,0,0-2.212,4.024,64.9,64.9,0,0,0-2.706,7.907c-.224.928-.591,1.989.2,2.8,2.245,2.293,3.767-3.18,4.4-4.192.882-1.409,2.35-2.309,3.025-3.846,1.141-2.6.4-3.891,2.9-5.79,2.191.3,2.282,4.576,3.478,5.81a2.575,2.575,0,0,0,1.783.8c1.234.14,1.591-.172,2.93.392,1.58.666,1.075.469,2.148,1.72,1.474,1.723,2.8,1.539,4.9,1.13,2.12-.413,4.52.422,5.517-1.958C1617.045,2580.991,1613.976,2577.169,1610.881,2575.2Z" transform="translate(-1583.82 -2572.448)" fill="#162458"/></g><g transform="translate(50.17 24.84)"><path d="M1618.781,2589.658c-.359-2.511-3.118-5.077-5.742-3.511a1.7,1.7,0,0,0-.914,1.3c-.845-.489-2-.767-2.527-1.446-.882-1.139-2.456.458-1.584,1.584.982,1.27,2.809,1.206,3.784,2.626.9,1.316,1.246,2.563,2.8,3.293C1617.6,2594.916,1619.178,2592.442,1618.781,2589.658Z" transform="translate(-1607.758 -2585.611)" fill="#162458"/></g><g transform="translate(7.086 66.913)"><path d="M1573.4,2643.125a37.3,37.3,0,0,0-2.363-8.774l.02-.021c.916-.9-.47-2.345-1.379-1.455-4.3,4.211-5.779,11.273-6.775,17.286-1.384,8.342-.48,16.866-1.689,25.211-1.129,7.791-2.106,14.425-1.232,22.428.8,7.355,2.028,14.653,3.469,21.892a73.212,73.212,0,0,0-1.312,11.277c0,.406,0,.748.007,1.062-.135,1.9-.526,4.227.032,5.956.5,1.546,2,2.651,3.3,3.51a.516.516,0,0,0,.743-.2c.313.389.641.772.985,1.152a.564.564,0,0,0,.936-.545,15.265,15.265,0,0,1-.649-3.553c.07.276.149.554.247.833.52,1.49,1.011,3.12,2.429,3.959a.566.566,0,0,0,.822-.632,57.258,57.258,0,0,1-1.831-6.348,22.727,22.727,0,0,1-.208-3.615,10.75,10.75,0,0,0,.688-3.727c-.084-2.252-1.119-4.321-1.7-6.486.049-.018.084-.035.087-.047,1.506-12.864,3.176-28.166,3.423-41.157.254-13.306,1.437-23.536,5.091-33.139C1576.877,2647.1,1574,2642.9,1573.4,2643.125Z" transform="translate(-1559.64 -2632.597)" fill="#ffcdaa"/></g><g transform="translate(64.48 66.913)"><path d="M1626.912,2643.125a37.193,37.193,0,0,1,2.364-8.774l-.021-.021c-.914-.9.47-2.345,1.38-1.455,4.3,4.211,5.779,11.273,6.776,17.286,1.382,8.342.48,16.866,1.688,25.211,1.129,7.791,2.106,14.425,1.234,22.428-.8,7.355-2.029,14.653-3.471,21.892a73.2,73.2,0,0,1,1.311,11.277c0,.406,0,.748-.007,1.062.136,1.9.528,4.227-.031,5.956-.5,1.546-2,2.651-3.3,3.51a.514.514,0,0,1-.742-.2c-.314.389-.641.772-.986,1.152a.564.564,0,0,1-.936-.545,15.354,15.354,0,0,0,.65-3.553c-.07.276-.149.554-.246.833-.52,1.49-1.013,3.12-2.43,3.959a.567.567,0,0,1-.823-.632,56.506,56.506,0,0,0,1.832-6.348,22.6,22.6,0,0,0,.208-3.615,10.813,10.813,0,0,1-.688-3.727c.085-2.252,1.121-4.321,1.7-6.486-.048-.018-.084-.035-.086-.047-1.506-12.864-3.176-28.166-3.422-41.157-.255-13.306-1.437-23.536-5.093-33.139C1623.43,2647.1,1626.308,2642.9,1626.912,2643.125Z" transform="translate(-1623.741 -2632.597)" fill="#ffcdaa"/></g></g></g></g><g transform="translate(41.368)"><g clip-path="url(#e)"><g transform="translate(4.138 8.851)"><g transform="translate(56.55 24.324)"><path d="M1461.475,2585.208c-.362-4.076-5.134-9.158-7.755-3.743-1.888,3.9-1.947,8.448-3.631,12.464a26.619,26.619,0,0,0-2.383,9.726.582.582,0,0,0-.561.671,2.743,2.743,0,0,0,3.28,2.682,5.387,5.387,0,0,0,1.173-.33,18.183,18.183,0,0,1,4.328-1.141,3.013,3.013,0,0,0,2.271-.812,3.424,3.424,0,0,0,.765-2.04c.266-2.618-.939-4.292.372-6.959A20.112,20.112,0,0,0,1461.475,2585.208Z" transform="translate(-1447.142 -2579.112)" fill="#cfc9c9"/></g><g transform="translate(29.311 326.346)"><path d="M1411.441,3167.684a1.412,1.412,0,0,0-1-1c-4.62-1.025-10.575,1.1-14.969,2.331a1.308,1.308,0,0,0-1,1.262,1.278,1.278,0,0,0-.3.874c.469,15.24,1.4,30.458,2.885,45.633q.539,5.519,1.171,11.025c.224,1.947-.106,5.9.983,7.543,1.364,2.064,3.191,1.484,5.719,1.49a1.444,1.444,0,0,0,1.381-1.054c1.631-11.507,2.256-23.142,3.147-34.725.491-6.382,1-12.764,1.472-19.149C1411.258,3177.432,1412.455,3172.077,1411.441,3167.684Z" transform="translate(-1394.169 -3166.414)" fill="#d76c71"/></g><g transform="translate(26.357 405.506)"><path d="M1403.253,3320.551a.724.724,0,0,0-1.2.318c-.628,2.041-.121,4.383-.993,6.342a32.153,32.153,0,0,0-1.82,3.584.66.66,0,0,0,.619.864c-.046.122-.084.245-.133.367a.729.729,0,0,0-.875.673,6,6,0,0,1-.4,1.83c-.039.06-.07.13-.109.187-1.264,1.846-4.29,1.818-6.29,2a.737.737,0,0,0-.716.718c0,.053.006.1.006.146a3.512,3.512,0,0,1-1.483-2.576.717.717,0,0,0-1.433,0c-.046,3.59.874,6.077,3.537,6.24,4.719.292,6.243-2.085,7.945-3.909,2.187-2.345,2.238-6,3.446-8.845C1404.341,3326.166,1405.23,3322.582,1403.253,3320.551Z" transform="translate(-1388.423 -3320.343)" fill="#3e2a46"/></g><g transform="translate(27.112 388.663)"><path d="M1404.866,3289.887c.446-2.64-4.643,1.149-7.03.9-.027-.834-.075-1.67-.168-2.509-.1-.907-1.535-.916-1.433,0,1.11,9.99-3.028,19.058-5.648,28.459-.425,1.525-1.473,4.181.311,5.325,1.593,1.023,5.438-.174,6.9-.913,3.373-1.7,1.784-4.27,3.364-7.212.754-1.4,1.812-2.427,2.314-3.99a17.562,17.562,0,0,0,.637-4.445c.119-2.265-.2-4.925-.131-7.192A65.812,65.812,0,0,1,1404.866,3289.887Z" transform="translate(-1389.891 -3287.593)" fill="#d76c71"/></g><g transform="translate(26.325 395.107)"><path d="M1404.385,3314.311c.12-2.266-1.194-7.615-1.129-9.884.027-.912.118-2.44.318-4.3-2.652.169-5.331-.115-7.98.12-.566,7.753-4.58,15.1-6.681,22.632-.425,1.525-1.226,4.127.558,5.272,1.593,1.023,6.273.543,7.737-.2,3.373-1.7,2.27-4.409,3.851-7.352a26.227,26.227,0,0,0,2.09-4.336C1403.606,3314.839,1404.306,3315.795,1404.385,3314.311Z" transform="translate(-1388.361 -3300.124)" fill="#3e2a46"/></g><g transform="translate(5.22 157.579)"><path d="M1408.848,2906.1c-.255-10.74-.749-21.476-1.582-32.187-.747-9.609-.626-20.657-3.309-29.961-1.857-6.439-8.132-5.746-13.74-5.649a201.13,201.13,0,0,0-28.159,2.6,2.422,2.422,0,0,0-2.059.382,1.713,1.713,0,0,0-1.03,1.809c-7.042,18.813-5.141,41.61-4.779,61.311.216,11.732.993,23.5.062,35.221-.835,10.531-2.954,20.927-4.241,31.406q-2.02,16.453-2.5,33.047-.242,8.285-.1,16.576c.056,3.351-.545,8.2.769,11.411,2.518,6.148,14.494,4.883,19.635,5.165a178.081,178.081,0,0,0,34.16-1.594,2.076,2.076,0,0,0,1.5-1.5c4.105-20.34,3.947-41.392,4.652-62.055C1408.875,2950.1,1409.372,2928.094,1408.848,2906.1Z" transform="translate(-1347.318 -2838.236)" fill="#5e5e73"/></g><g transform="translate(25.965 15.74)"><path d="M1400.14,2591.426c-1.4-9.227-3.565-18.4-5.34-27.568a.589.589,0,0,0-.589-.511c.142-.636-.657-1.288-1.172-.69a16.333,16.333,0,0,0-3.928,8.017c-.665,3.966.5,7.8-.539,11.762-.66,2.513-1.526,5.316-.269,7.806a5.912,5.912,0,0,0,1.536,1.865,47.557,47.557,0,0,0,4.915,3.972C1398.755,2598.678,1400.7,2595.11,1400.14,2591.426Z" transform="translate(-1387.661 -2562.42)" fill="#ece8e8"/></g><g transform="translate(25.965 29.353)"><path d="M1399.149,2607.063c.083-.466.18-.931.3-1.4a.7.7,0,0,0-.731-.88l.14-.593a.727.727,0,0,0-.991-.833h0a.671.671,0,0,0-.406-.743c-.1-.181-.214-.357-.323-.536.029-.128.055-.256.084-.384a.682.682,0,0,0-.887-.832c-.027-.038-.053-.079-.08-.116q.286-1.35.572-2.7a.717.717,0,0,0-1.383-.38l-.013.043a.756.756,0,0,0-.863.137q.106-.343.212-.687c.277-.9-1.057-1.224-1.383-.381-.056.144-.111.288-.167.433-.046-.046-.093-.1-.138-.141a.686.686,0,0,0-.3-.16c.151-.564.3-1.132.45-1.7a.723.723,0,0,0-.52-.864l.126-.4c.223-.71-.547-1.043-1.051-.753a.724.724,0,0,0-.507-.2c.1-.5.193-1.009.265-1.518a.718.718,0,0,0-.739-.876.7.7,0,0,1,.918.012c.688.611,1.706-.4,1.014-1.015-1.44-1.279-2.7-.673-3.738.61a17.805,17.805,0,0,1-.432,5.144c-.66,2.513-1.526,5.316-.269,7.805a5.921,5.921,0,0,0,1.536,1.866,47.322,47.322,0,0,0,4.916,3.973c2.066,1.343,3.579,1.033,4.486-.082A8.173,8.173,0,0,0,1399.149,2607.063Z" transform="translate(-1387.661 -2588.892)" fill="#cfc9c9"/></g><g transform="translate(39.57 39.846)"><path d="M1422.975,2638.444h0a8.855,8.855,0,0,1-8.855-8.855V2609.3h17.71v20.294A8.855,8.855,0,0,1,1422.975,2638.444Z" transform="translate(-1414.12 -2609.295)" fill="#d76c71"/></g><g transform="translate(39.594 46.119)"><path d="M1431.877,2622.026a30.95,30.95,0,0,0-8.629-.411,22.844,22.844,0,0,0-8.935,2.055l-.146.072v7.543c3.418,3.075,7.172,5.128,12,3.906a21.5,21.5,0,0,0,5.71-2.549Z" transform="translate(-1414.167 -2621.494)" fill="#eeac94"/></g><g transform="translate(30.634 8.927)"><path d="M1432.088,2559.156c-2.879-3.021-4.2-6.629-8.477-8.489-4.984-2.163-11.362-1.382-16.768-1.251-11.253,3.962-10.093,15.919-10.049,16.537.572,8,1.6,17.5,4.451,23.211,2.061,4.122,5.618,8.133,13.34,8.242a13.893,13.893,0,0,0,11.661-6.182c4.66-7.766,5.839-17.505,5.674-25.066C1431.867,2563.734,1432.085,2561.354,1432.088,2559.156Z" transform="translate(-1396.741 -2549.171)" fill="#ffcdaa"/></g><g transform="translate(27.833 29.393)"><path d="M1392.683,2596.718c.917,1.343,4.326,4.17,5.544,1.971.625-1.127-.421-2.4-.972-3.318l-.483-.805c.514.859,1.85.013,1.371-.907-.768-1.479-2.953-6.132-5.261-4.25C1391.013,2590.935,1390.6,2593.68,1392.683,2596.718Z" transform="translate(-1391.294 -2588.968)" fill="#ffcdaa"/></g><g transform="translate(38.222 32.469)"><ellipse cx="1.236" cy="1.891" rx="1.236" ry="1.891" fill="#3e2a46"/></g><g transform="translate(55.785 32.607)"><path d="M1448.126,2597.108c0,1.045-.553,1.892-1.236,1.892s-1.236-.847-1.236-1.892.553-1.89,1.236-1.89S1448.126,2596.064,1448.126,2597.108Z" transform="translate(-1445.654 -2595.218)" fill="#3e2a46"/></g><g transform="translate(46.32 34.324)"><path d="M1431.364,2605.807c-1.083.177-2.163.38-2.467-1.173a7.414,7.414,0,0,1,.238-2.1c.18-1.285.3-1.656.5-2.94.162-1.038-1.427-1.485-1.59-.437-.234,1.5-.379,2.082-.589,3.581a6.325,6.325,0,0,0,0,3.1c.7,1.85,2.717,1.824,4.354,1.559C1432.848,2607.228,1432.4,2605.639,1431.364,2605.807Z" transform="translate(-1427.247 -2598.557)" fill="#c3595e" opacity="0.28"/></g><g transform="translate(43.191 46.273)"><path d="M1430.849,2621.8a30.084,30.084,0,0,1-8.825.032c-.79-.115-1.162.857-.575,1.138,0,0,0,.01.009.014,2.528,2.775,7.768,2.927,10.07-.116a.573.573,0,0,0,.05-.11C1431.932,2622.4,1431.56,2621.7,1430.849,2621.8Z" transform="translate(-1421.161 -2621.793)" fill="#bb3e63"/></g><g transform="translate(53.515 26.849)"><path d="M1449.9,2585.71a1.871,1.871,0,0,0-.729-.764,8.419,8.419,0,0,0-5.926-.649c-.756.207-2.962,1.277-1.529,2.3.646.461,5.036-.458,7.259.25C1450.108,2587.207,1450.335,2586.532,1449.9,2585.71Z" transform="translate(-1441.239 -2584.022)" fill="#ece8e8"/></g><g transform="translate(34.877 27.208)"><path d="M1405.2,2586.407a1.885,1.885,0,0,1,.729-.764,8.416,8.416,0,0,1,5.926-.648c.757.207,2.962,1.275,1.528,2.3-.645.461-5.036-.458-7.258.251C1404.989,2587.9,1404.762,2587.23,1405.2,2586.407Z" transform="translate(-1404.992 -2584.72)" fill="#ece8e8"/></g><g transform="translate(61.674 29.243)"><path d="M1462.647,2589.12c-2.309-1.883-4.494,2.77-5.262,4.249-.479.92.857,1.766,1.371.906l-.482.8c-.552.921-1.6,2.191-.973,3.319,1.219,2.2,4.627-.63,5.545-1.97C1464.923,2593.389,1464.515,2590.644,1462.647,2589.12Z" transform="translate(-1457.107 -2588.678)" fill="#ffcdaa"/></g><g transform="translate(63.576 31.967)" opacity="0.28"><path d="M1462.039,2594.765a4.543,4.543,0,0,1-1.03,2.5c-.673.812.488,1.986,1.166,1.168a6.489,6.489,0,0,0,1.514-3.67C1463.785,2593.708,1462.134,2593.715,1462.039,2594.765Z" transform="translate(-1460.806 -2593.975)" fill="#c3595e"/></g><g transform="translate(29.579 7.11)"><path d="M1416.025,2545.7c-16.379-.881-20.21,8.381-20.556,10.514-.589,3.634-1.579,8.851.377,11.9.373.582.968.76,1.353.407a6.471,6.471,0,0,0,1.618-3.871c.77-5.531,1.713-10.225,7.562-12.044a25.251,25.251,0,0,1,14.707.034c6.111,2.138,8.432,7.329,8,13.622a2.454,2.454,0,0,0,.219,1.5.892.892,0,0,0,1.627-.2c1.35-2.609,1.406-5.568,1.24-8.6S1431.588,2546.534,1416.025,2545.7Z" transform="translate(-1394.69 -2545.639)" fill="#ece8e8"/></g><g transform="translate(35.676)"><path d="M1440.658,2549.388a8.063,8.063,0,0,0-.483-2.866c-1.107-3.064-4-4.329-5.349-7.3-.827-1.816-1.067-3.155-2.892-4.216-2.026-1.179-4.359-1.117-6.578-.951a14.827,14.827,0,0,1-6.469-.446c-1.163-.423-2.234-1.1-3.413-1.474a5.885,5.885,0,0,0-5.361.754c-4.3,2.938-4.1,8.783-2.571,13.371a.726.726,0,0,0,1.038.438.717.717,0,0,0,.682.293c3.153-.465,6.351-1.423,8.806,1.32,1.056,1.179,1.73,2.717,2.734,3.947,2.474,3.031,5.976,2.144,8.464,4.855,1.776,1.934,3.5,4.091,6.088,4.483,1.451,3.027,4.111,5.579,6.771,3.549C1446.874,2561.529,1442.646,2554.263,1440.658,2549.388Z" transform="translate(-1406.546 -2531.813)" fill="#ece8e8"/></g><g transform="translate(29.984 22.357)"><path d="M1396.966,2575.8a14.578,14.578,0,0,1-1.4,4c-.429.816.808,1.542,1.238.723a15.916,15.916,0,0,0,1.543-4.339C1398.526,2575.282,1397.145,2574.9,1396.966,2575.8Z" transform="translate(-1395.478 -2575.286)" fill="#cfc9c9"/></g><g transform="translate(37.94 5.302)"><path d="M1417.223,2542.122a6.467,6.467,0,0,0-6.246,4.77.718.718,0,0,0,1.383.381,5.014,5.014,0,0,1,4.863-3.717A.717.717,0,0,0,1417.223,2542.122Z" transform="translate(-1410.949 -2542.122)" fill="#cfc9c9"/></g><g transform="translate(42.334 9.059)"><path d="M1424.366,2550.5a6.534,6.534,0,0,0-4.184-1.049c-.911.083-.92,1.518,0,1.435a5.247,5.247,0,0,1,3.46.853C1424.417,2552.249,1425.136,2551.009,1424.366,2550.5Z" transform="translate(-1419.495 -2549.429)" fill="#cfc9c9"/></g><g transform="translate(61.406 21.297)"><path d="M1464.572,2581.592c-1.953-1.292-2.775-3-3.753-5.024a6.918,6.918,0,0,0-3.149-3.256c-.82-.421-1.546.815-.724,1.237,2,1.028,2.5,2.713,3.459,4.572a9.976,9.976,0,0,0,3.442,3.708C1464.62,2583.34,1465.339,2582.1,1464.572,2581.592Z" transform="translate(-1456.584 -2573.225)" fill="#cfc9c9"/></g><g transform="translate(68.133 23.051)"><path d="M1473.831,2580.352a11.15,11.15,0,0,1-2.83-3.361c-.445-.809-1.684-.086-1.238.723a12.182,12.182,0,0,0,3.055,3.652C1473.531,2581.939,1474.552,2580.93,1473.831,2580.352Z" transform="translate(-1469.668 -2576.637)" fill="#cfc9c9"/></g><g transform="translate(36.227 55.849)"><path d="M1433.656,2640.942c-.061-.437-.554-.638-1.078-.468-1.92.622-3.528,1.73-5.488,2.18a38.4,38.4,0,0,0-4.037,1.178c-2.748.93-4.161.164-6.536-.445-2.154-.552-3.7-.244-5.374-1.589-.879-.7-2.154-1.531-3.193-.55-1.331,1.259,1.788,3.673,1.544,4.952a.545.545,0,0,0,.38.585.486.486,0,0,0,.331.422c4.86,2.2,12.628,2.417,17.742.5a.741.741,0,0,0,.8-.362c.82-1.928,2.636-2.712,4.114-4.234A2.31,2.31,0,0,0,1433.656,2640.942Z" transform="translate(-1407.618 -2640.413)" fill="#46a9f2"/></g><g transform="translate(0 59.312)"><path d="M1428.23,2711.436c-.849-9.769-1.811-19.529-2.717-29.294-.556-6-.727-12.481-3.928-17.674,2.083-1.856,3.317-4.462.16-6.346-2.182-1.3-5.492-.467-7.894-.961l-.027-.006a124.034,124.034,0,0,0-11.458-5.9c-2.939-1.448-6.022-3.208-9.272-3.8-3.809-.7-8.075-.037-12,.347a2.14,2.14,0,0,0-2.478-.384,180.639,180.639,0,0,0-16.6,7.426,2.316,2.316,0,0,0-.494.252c-.1.071-.207.124-.312.192-.491.275-.974.559-1.453.847-3.1,1.605-6.15,1.939-9.765,2.615-2.366.444-4.607,1.6-4.809,4.19a2.138,2.138,0,0,0,1.066,1.858,10.436,10.436,0,0,0,2.99.956c-.261.47-.5.955-.715,1.448a2.686,2.686,0,0,0-.819.489c-5.627,4.984-5.181,16.456-5.6,23.28-.662,10.715-3.133,21.1-4.4,31.726-1.863,15.58.568,37.342,16.831,44.433a31.133,31.133,0,0,0,22.46,1.573c8.179-2.374,10.627-5.819,9.769-14.357a105.633,105.633,0,0,0-4.2-21.555,74.915,74.915,0,0,0,18.311-.5c6.9-.995,15.041-2.329,21.332-5.623C1428.411,2723.412,1428.8,2717.967,1428.23,2711.436Z" transform="translate(-1337.166 -2647.149)" fill="#46a9f2"/></g><g transform="translate(28.223 36.741)"><path d="M1394.843,2603.259a2.187,2.187,0,0,0-2.151,2.151v.06a2.242,2.242,0,0,0,1.253,1.954q0,.572,0,1.143c-2.455,1.044-1.885,6.239-1.692,8.2.09.91,1.524.918,1.433,0-.023-.24-.062-.643-.1-1.108a.763.763,0,0,0,1.018-.2c-.04.412-.07.7-.08.762-.139.9,1.242,1.292,1.383.381.2-1.273,1.4-7.166-.531-7.931,0-.381,0-.761,0-1.141a2.144,2.144,0,0,0,1.615-2.057v-.06A2.175,2.175,0,0,0,1394.843,2603.259Z" transform="translate(-1392.052 -2603.257)" fill="#223d9b"/></g><g transform="translate(62.154 36.382)"><path d="M1460.83,2602.562a2.187,2.187,0,0,0-2.15,2.151v.059a2.245,2.245,0,0,0,1.251,1.955q0,.571,0,1.143c-2.455,1.044-1.885,6.237-1.692,8.2.09.91,1.525.919,1.434,0-.024-.239-.062-.642-.1-1.108a.762.762,0,0,0,1.017-.2c-.039.412-.07.7-.079.762-.139.9,1.242,1.292,1.383.38.2-1.273,1.4-7.166-.531-7.931q0-.571,0-1.141a2.143,2.143,0,0,0,1.615-2.058v-.059A2.174,2.174,0,0,0,1460.83,2602.562Z" transform="translate(-1458.04 -2602.56)" fill="#223d9b"/></g><g transform="translate(39.874 59.581)"><path d="M1416.019,2648.043c-.378-.839-1.615-.112-1.238.724a5.331,5.331,0,0,1,.454,2.324.717.717,0,0,0,1.434,0A6.973,6.973,0,0,0,1416.019,2648.043Z" transform="translate(-1414.711 -2647.671)" fill="#fff"/></g><g transform="translate(43.248 60.519)"><path d="M1422.726,2650.183c.06-.92-1.374-.917-1.434,0a9.12,9.12,0,0,0,.049,1.708c.111.9,1.546.915,1.434,0A9.079,9.079,0,0,1,1422.726,2650.183Z" transform="translate(-1421.272 -2649.494)" fill="#fff"/></g><g transform="translate(55.633 59.516)"><path d="M1445.938,2648.037a11.628,11.628,0,0,0-.573,2.546c-.107.915,1.327.907,1.434,0a10,10,0,0,1,.522-2.165C1447.629,2647.546,1446.244,2647.171,1445.938,2648.037Z" transform="translate(-1445.359 -2647.546)" fill="#fff"/></g><g transform="translate(52.369 60.341)"><path d="M1439.19,2649.833q-.088.762-.173,1.523c-.1.916,1.331.909,1.434,0q.087-.761.173-1.523C1440.727,2648.918,1439.292,2648.926,1439.19,2649.833Z" transform="translate(-1439.011 -2649.15)" fill="#fff"/></g><g transform="translate(48.076 60.697)"><path d="M1432.1,2650.533c-.044-.92-1.478-.925-1.434,0q.054,1.118.108,2.239c.045.918,1.479.924,1.434,0Q1432.151,2651.652,1432.1,2650.533Z" transform="translate(-1430.661 -2649.841)" fill="#fff"/></g><g transform="translate(12.336 77.261)"><path d="M1431.41,2682.133a13.173,13.173,0,0,0-3.2,2.141c-1.365,1.278-2.28,3.451-3.779,4.482-2.5,1.714-6.536-.119-9.353.948-3.777,1.431-6.589,4.609-10.984,4.617-2.152,0-3.468-1.2-5.424-1.411a9.438,9.438,0,0,0-3.8.6c-1.855.588-3.639,1.468-5.643,1.4a11.708,11.708,0,0,1-6.111-2.521c-2.036-1.45-4.021-3.921-6.607-4.411a10.975,10.975,0,0,0-3.44.351c-2.55.3-4.217-.016-6.021-1.879-1.57-1.622-2.732-3.221-5-3.826a.718.718,0,0,0-.381,1.383c2.992.8,4.053,3.994,6.617,5.437,3.128,1.759,6.3-1.081,9.495.579,2.92,1.517,4.886,4.3,8.059,5.56,2.941,1.167,5.454.674,8.367-.327,2.594-.891,4.5-.578,7.131.117a9.467,9.467,0,0,0,3.973.241c3.232-.448,5.707-1.929,8.447-3.541,3.609-2.125,6.843-.365,10.447-1.677a5.774,5.774,0,0,0,2.728-2.152c1.61-2.068,2.781-3.667,5.2-4.873C1432.96,2682.96,1432.234,2681.724,1431.41,2682.133Z" transform="translate(-1361.157 -2682.051)" fill="#cc127f"/></g><g transform="translate(20.244 69.795)"><path d="M1380.784,2667.6a32.214,32.214,0,0,0-3.911,2.086c-.781.488-.062,1.729.723,1.238a32.349,32.349,0,0,1,3.911-2.085C1382.348,2668.464,1381.62,2667.229,1380.784,2667.6Z" transform="translate(-1376.536 -2667.533)" fill="#fff"/></g><g transform="translate(23.675 71.272)"><path d="M1386.4,2670.544a27.362,27.362,0,0,0-2.983,2.538c-.658.648.356,1.662,1.014,1.014a25.01,25.01,0,0,1,2.694-2.314C1387.862,2671.24,1387.147,2669.993,1386.4,2670.544Z" transform="translate(-1383.207 -2670.406)" fill="#fff"/></g><g transform="translate(70.67 70.812)"><path d="M1477.838,2672.369l-2.056-2.61c-.571-.725-1.579.3-1.014,1.013l2.055,2.61C1477.394,2674.107,1478.4,2673.085,1477.838,2672.369Z" transform="translate(-1474.602 -2669.51)" fill="#fff"/></g><g transform="translate(68.84 73.599)"><path d="M1473.2,2676.846q-.413-.779-.829-1.558c-.433-.815-1.672-.091-1.238.723l.829,1.558C1472.4,2678.385,1473.633,2677.662,1473.2,2676.846Z" transform="translate(-1471.042 -2674.931)" fill="#fff"/></g><g transform="translate(44.088 81.042)"><path d="M1423.387,2690.091a7.987,7.987,0,0,1-.437,1.965c-.306.873,1.08,1.248,1.382.381a9.5,9.5,0,0,0,.488-2.346C1424.9,2689.172,1423.466,2689.177,1423.387,2690.091Z" transform="translate(-1422.907 -2689.404)" fill="#cc127f"/></g><g transform="translate(21.166 89.992)"><path d="M1380.223,2707.489c.119-.913-1.315-.9-1.433,0a54.467,54.467,0,0,0-.062,13.641c.109.905,1.544.915,1.434,0A54.507,54.507,0,0,1,1380.223,2707.489Z" transform="translate(-1378.329 -2706.808)" fill="#cc127f"/></g><g transform="translate(78.618 90.019)"><path d="M1491.462,2707.373c-.208-.9-1.591-.519-1.383.38a37.936,37.936,0,0,1,.851,11.61c-.073.921,1.362.916,1.434,0A39.229,39.229,0,0,0,1491.462,2707.373Z" transform="translate(-1490.058 -2706.86)" fill="#cc127f"/></g><g transform="translate(40.821 42.987)" opacity="0.28"><path d="M1417.686,2615.655a6.16,6.16,0,0,0-1.1,2.128.718.718,0,0,0,1.383.382,4.334,4.334,0,0,1,.733-1.5C1419.258,2615.948,1418.251,2614.925,1417.686,2615.655Z" transform="translate(-1416.553 -2615.404)" fill="#c3595e"/></g><g transform="translate(54.024 42.672)" opacity="0.28"><path d="M1444.686,2616.449a6.02,6.02,0,0,0-1.432-1.517c-.734-.558-1.449.686-.724,1.238a4.01,4.01,0,0,1,.918,1C1443.953,2617.94,1445.2,2617.222,1444.686,2616.449Z" transform="translate(-1442.228 -2614.791)" fill="#c3595e"/></g></g></g></g></g></g></g></g></g></g></svg>