<svg xmlns="http://www.w3.org/2000/svg" xmlns:xlink="http://www.w3.org/1999/xlink" width="996" height="582" viewBox="0 0 996 582"><defs><clipPath id="a"><rect width="996" height="582" transform="translate(10361 5234)" fill="#fff" stroke="#707070" stroke-width="1"/></clipPath><clipPath id="b"><path d="M1544.818-485.089l3.716-1.311" transform="translate(-1544.818 486.4)" fill="none"/></clipPath><clipPath id="c"><path d="M447,178.944H2229.309V-935H447Z" transform="translate(-447 935)" fill="none"/></clipPath><clipPath id="d"><path d="M1548.227-477.072l3.716-1.311" transform="translate(-1548.227 478.383)" fill="none"/></clipPath><clipPath id="f"><path d="M1551.319-469.871l3.716-1.317" transform="translate(-1551.319 471.188)" fill="none"/></clipPath></defs><g transform="translate(-10361 -5234)" clip-path="url(#a)"><g transform="translate(10343 5234)"><g transform="translate(493.448 474.997)" clip-path="url(#b)"><g transform="translate(-1358.786 -555.239)" clip-path="url(#c)"><path d="M1539.818-477.713h16.093V-491.4h-16.093Z" transform="translate(-187.22 1040.451)" fill="#ffc75b"/></g></g><g transform="translate(497.668 484.919)" clip-path="url(#d)"><g transform="translate(-1363.006 -565.161)" clip-path="url(#c)"><path d="M1543.227-469.7h16.092v-13.687h-16.092Z" transform="translate(-186.411 1042.356)" fill="#ffc75b"/></g></g><g transform="translate(501.495 493.824)" clip-path="url(#f)"><g transform="translate(-1366.833 -574.067)" clip-path="url(#c)"><path d="M1546.319-462.493h16.093v-13.695h-16.093Z" transform="translate(-185.675 1044.067)" fill="#ffc75b"/></g></g><path d="M3067.953,867.415H2920.817V819.2h147.135ZM2923.134,865.1h142.5V821.517h-142.5Z" transform="translate(-2150.228 -471.762)" fill="#00adee"/><path d="M3067.953,916.937H2920.817V868.723h147.135Zm-144.819-2.317h142.5V871.04h-142.5Z" transform="translate(-2150.228 -475.386)" fill="#00adee"/><path d="M3067.953,966.457H2920.817V918.244h147.135Zm-144.819-2.317h142.5V920.561h-142.5Z" transform="translate(-2150.228 -479.011)" fill="#00adee"/><path d="M3004.641,762.077h-57.648l7.936-50.59h40.131ZM2949.7,759.76h52.147l-8.712-45.956h-36.226Z" transform="translate(-2152.143 -463.878)" fill="#00adee"/><path d="M2983.757,811.792h-10.6v-48.22h10.6Zm-8.283-2.317h5.966V765.889h-5.966Z" transform="translate(-2154.058 -467.69)" fill="#00adee"/><path d="M2995.242,821.071H2959.8V813.1h35.446Zm-33.129-2.317h30.812v-3.336h-30.808Z" transform="translate(-2153.08 -471.315)" fill="#00adee"/><path d="M3021.412,969.438h-46.062l4.053-10.462h37.906Zm-42.68-2.317h39.282l-2.285-5.828H2980.99Z" transform="translate(-2154.219 -481.992)" fill="#00adee"/><path d="M3021.412,919.918h-46.062l4.053-10.462h37.906Zm-42.68-2.317h39.282l-2.285-5.828H2980.99Z" transform="translate(-2154.219 -478.368)" fill="#00adee"/><path d="M3021.412,870.4h-46.062l4.053-10.462h37.906Zm-42.68-2.317h39.282l-2.285-5.828H2980.99Z" transform="translate(-2154.219 -474.743)" fill="#00adee"/><line x1="819.247" transform="translate(132.838 486.288)" fill="#fff"/><path d="M131,0H819.247V2.317H131Z" transform="translate(132.837 485.129)" fill="#00adee"/><path d="M2794.742,972.537" transform="translate(-2235 -482.984)" fill="none" stroke="#00adee" stroke-miterlimit="10" stroke-width="1"/><g transform="translate(409.979 391.654)"><path d="M3154.765,969.563l5.909-26.183H3130.9l2.7,26.036,2.512-.261-2.408-23.249h23.812l-5.213,23.1Z" transform="translate(-3098.332 -874.745)" fill="#00adee"/><g transform="translate(0 0)"><path d="M3177.294,941.394a9.3,9.3,0,0,0,5.813-2.008,10.106,10.106,0,0,0,3.122-11.765,8.6,8.6,0,0,0-4.9-4.825c-8.306-3.422-22.92,2.735-23.538,3l-1.573.671,1.105,1.307C3166.126,938.182,3172.626,941.394,3177.294,941.394Zm-2.033-17.117a13.547,13.547,0,0,1,5.109.856,6.077,6.077,0,0,1,3.519,3.436,7.667,7.667,0,0,1-2.325,8.816c-4.779,3.7-12.256.182-21.15-9.9,2.935-1.089,9.35-3.2,14.844-3.2Z" transform="translate(-3150.219 -874.974)" fill="#00adee"/><path d="M3133.921,927.824a9.782,9.782,0,0,0,1.163-.07c5.524-.657,11.787-5.76,10.244-26.357l-.127-1.7-1.593.624c-.625.246-15.36,6.1-18.887,14.363a8.59,8.59,0,0,0-.11,6.872A10.124,10.124,0,0,0,3133.921,927.824Zm9-24.469c.73,13.426-2.136,21.177-8.138,21.891a7.673,7.673,0,0,1-7.839-4.655,6.078,6.078,0,0,1,.1-4.921C3129.529,909.846,3139.088,905.075,3142.924,903.355Z" transform="translate(-3076.197 -875.206)" fill="#00adee"/><path d="M3183.979,917.126a8.578,8.578,0,0,0,6.282-2.627,9.289,9.289,0,0,0,1.584-10.751,7.883,7.883,0,0,0-4.885-3.974c-7.808-2.379-20.456,4.417-20.989,4.706l-1.5.818,1.223,1.2C3173.888,914.513,3179.782,917.126,3183.979,917.126Zm-.809-15.345a10.482,10.482,0,0,1,3.053.4,5.372,5.372,0,0,1,3.38,2.729,6.744,6.744,0,0,1-1.136,7.808c-3.881,3.907-10.855,1.483-19.729-6.81C3171.64,904.525,3178.028,901.78,3183.17,901.78Z" transform="translate(-3164.467 -875.211)" fill="#00adee"/><path d="M3173.737,898.835a9.684,9.684,0,0,0,1.1-.063,9.3,9.3,0,0,0,7.958-7.411,7.882,7.882,0,0,0-1.332-6.154c-4.609-6.735-18.729-9.333-19.328-9.442l-1.685-.3.207,1.7C3162.809,894.782,3168.74,898.835,3173.737,898.835ZM3163.4,878.617c3.8.884,12.828,3.412,15.978,8.018a5.37,5.37,0,0,1,.936,4.244,6.738,6.738,0,0,1-5.76,5.386c-5.482.618-9.408-5.628-11.154-17.648Z" transform="translate(-3150.47 -875.462)" fill="#00adee"/><path d="M3146.395,908.358c.1,0,.211,0,.317-.006,5.222-.186,11.334-4.411,10.8-23.48l-.049-1.71-1.617.55c-.577.2-14.148,4.868-17.706,12.215a7.877,7.877,0,0,0-.4,6.284A9.3,9.3,0,0,0,3146.395,908.358Zm8.621-21.638c.067,12.146-2.891,18.911-8.394,19.108a6.747,6.747,0,0,1-6.505-4.467,5.373,5.373,0,0,1,.294-4.333c2.431-5.024,10.986-8.868,14.607-10.308Z" transform="translate(-3101.635 -875.381)" fill="#00adee"/><path d="M3179.6,945.917l2.487-.443c-7.032-39.584-35.732-68.568-36.021-68.856l-1.784,1.789C3144.566,878.69,3172.71,907.137,3179.6,945.917Z" transform="translate(-3133.269 -875.45)" fill="#00adee"/><path d="M3161.854,935.519l22.863-32.765-2.073-1.445L3160.7,932.755l-35.656-6.157-.43,2.489Z" transform="translate(-3116.021 -875.19)" fill="#00adee"/><path d="M3171.679,912.317l18.023-25.912-2.075-1.443-17.14,24.636-32.237-4.516-.352,2.5Z" transform="translate(-3134.433 -875.362)" fill="#00adee"/><path d="M3135.5,959.119a4.281,4.281,0,0,0,3.1-1.333,1.806,1.806,0,0,1,2.837,0,4.274,4.274,0,0,0,6.2,0,1.8,1.8,0,0,1,2.83,0,4.269,4.269,0,0,0,6.2,0,1.836,1.836,0,0,1,1.415-.687v-2.526a4.269,4.269,0,0,0-3.1,1.332,1.8,1.8,0,0,1-2.829,0,4.274,4.274,0,0,0-6.2,0,1.845,1.845,0,0,1-1.415.689,1.869,1.869,0,0,1-1.415-.69,4.278,4.278,0,0,0-6.2,0,1.869,1.869,0,0,1-1.42.689Z" transform="translate(-3100.399 -874.628)" fill="#00adee"/></g></g><path d="M3068.161,820.847h-37.814V810.041h37.814Zm-35.5-2.317h33.18v-6.174h-33.18Z" transform="translate(-2158.244 -471.091)" fill="#00adee"/><line y2="101.751" transform="translate(558.046 216.273)" fill="#fff"/><line y2="101.751" transform="translate(575.863 216.273)" fill="#fff"/><rect width="2.316" height="48.52" transform="translate(828.335 248.884) rotate(-5.785)" fill="#00adee"/><rect width="48.52" height="2.316" transform="translate(810.001 296.923) rotate(-84.204)" fill="#00adee"/><rect width="595.731" height="70.831" transform="translate(322.393 510.74)" fill="#264d91"/><rect width="646.733" height="35.553" transform="translate(292.812 510.545)" fill="#3a5cbe"/><g transform="translate(474.931 231.575)"><path d="M2437.214,1483.251l8.58,27.862a18.325,18.325,0,0,0,17.517,12.941h16.914a18.359,18.359,0,0,0,17.394-12.461l8.037-23.917Z" transform="translate(-2282.473 -1241.607)" fill="#294896"/><path d="M2498.529,1482.783l8.767,28.481a17.475,17.475,0,0,0,16.693,12.336h18.172a17.5,17.5,0,0,0,16.567-11.9l11.942-35.043Z" transform="translate(-2286.961 -1241.125)" fill="#00adee"/><path d="M2348.786,1474.465l11.288,36.672a17.424,17.424,0,0,0,16.664,12.3H2395a17.44,17.44,0,0,0,16.52-11.88l8.253-24.527Z" transform="translate(-2276.001 -1240.964)" fill="#294896"/><path d="M2351.76,1292l52.12-25.787-28.668-27.2a33.356,33.356,0,0,0-42.806-2.632h0a33.371,33.371,0,0,0-11.087,39.389l6.605,16.241Z" transform="translate(-2273.811 -1223.06)" fill="#0e96db"/><path d="M2369.152,1268.512l-11.365-13.686a17.47,17.47,0,0,0-23.778-2.881h0a17.458,17.458,0,0,0-5.169,22.034l5.14,10.01Z" transform="translate(-2274.399 -1224.429)" fill="#3a5cbe"/><path d="M2506.984,1257.3a109.734,109.734,0,0,1,109.734,109.74h0v0a109.734,109.734,0,0,1-109.734,109.734H2404.359a109.74,109.74,0,0,1-109.74-109.745h0A109.739,109.739,0,0,1,2404.353,1257.3Z" transform="translate(-2272.036 -1225.07)" fill="#00adee"/><circle cx="8.738" cy="8.738" r="8.738" transform="translate(90.8 85.333)" fill="#3a5cbe"/><circle cx="8.738" cy="8.738" r="8.738" transform="translate(42.772 81.561)" fill="#3a5cbe"/><path d="M2310.287,1429.88l1.816-1.74a16.683,16.683,0,0,0,12.072,5.889h0a20.593,20.593,0,0,0,13.095-5.889l1.815,1.74a22.8,22.8,0,0,1-14.891,6.667A19.092,19.092,0,0,1,2310.287,1429.88Z" transform="translate(-2273.183 -1237.574)" fill="#3a5cbe"/><path d="M2461.8,1237.669s-17.442,40.264-17.13,45.578,24.4,9.343,24.4,9.343v-36.727Z" transform="translate(-2283.018 -1223.633)" fill="#00adee"/><g transform="translate(186.068 32.262)" opacity="0.09"><path d="M2543.478,1279.584a105.968,105.968,0,0,1,64.048,21.429c-20.853-25.849-50.4-43.4-84.233-43.4l-52.278-.278,5.283,21.8Z" transform="translate(-2471.015 -1257.334)" fill="#3a5cbe"/></g><path d="M2532.282,1268.8h0a3.046,3.046,0,0,1-3.046,3.045h-50.731a3.047,3.047,0,0,1-3.046-3.045h0a3.047,3.047,0,0,1,3.046-3.046h50.731a3.045,3.045,0,0,1,3.045,3.045Z" transform="translate(-2285.272 -1225.688)" fill="#3a5cbe"/><path d="M2489.64,1346.373a8.031,8.031,0,0,0-8.022,8.041v52.55h52.4a8.037,8.037,0,0,0,8.022-8.051h0V1346.37Zm38.136,43.6-32.253,5.995v-32.7l32.253-5.884Z" transform="translate(-2285.723 -1231.589)" fill="#fff"/><path d="M2331.346,1370.647v3.363a30.55,30.55,0,0,1-30.547,30.552h0a30.551,30.551,0,0,1-30.547-30.547v-3.367A30.552,30.552,0,0,1,2300.8,1340.1h0a30.55,30.55,0,0,1,30.546,30.547Z" transform="translate(-2270.253 -1231.13)" fill="#3a5cbe"/><ellipse cx="2.661" cy="13.969" rx="2.661" ry="13.969" transform="translate(34.716 127.235)" fill="#00adee"/><ellipse cx="2.661" cy="13.969" rx="2.661" ry="13.969" transform="translate(16.338 127.235)" fill="#00adee"/><path d="M2391.5,1260.146l5.808-15.17a35.022,35.022,0,0,1,34.99-22.375h0a35,35,0,0,1,31.906,27.592l3.893,18.11Z" transform="translate(-2279.127 -1222.525)" fill="#00adee"/><path d="M2405.215,1246.185a15.135,15.135,0,0,1,15.885-8.426h0a15.121,15.121,0,0,1,12.817,16.275l-3.785,42.978-33.9-32.031Z" transform="translate(-2279.473 -1223.627)" fill="#3a5cbe"/><path d="M2407.743,1483.251l8.58,27.862a18.331,18.331,0,0,0,17.517,12.941h16.913a18.359,18.359,0,0,0,17.395-12.461l8.036-23.917Z" transform="translate(-2280.316 -1241.607)" fill="#00adee"/></g><g transform="translate(475.141 224.917)"><path d="M430.932,85.285h0A41.047,41.047,0,0,0,397.146,51.5h0a41.047,41.047,0,0,0,33.786-33.786h0A41.047,41.047,0,0,0,464.718,51.5h0a41.048,41.048,0,0,0-33.786,33.786Z" transform="translate(-133.741 -17.713)" fill="#fdb62f"/><path d="M421.308,66.039h0a29.356,29.356,0,0,0-24.163-24.163h0a29.356,29.356,0,0,0,24.163-24.163h0a29.356,29.356,0,0,0,24.163,24.163h0a29.357,29.357,0,0,0-24.163,24.163Z" transform="translate(-74.276 198.468)" fill="#fdb62f"/><path d="M414.25,51.913h0a20.775,20.775,0,0,0-17.1-17.1h0a20.775,20.775,0,0,0,17.1-17.1h0a20.775,20.775,0,0,0,17.1,17.1h0a20.775,20.775,0,0,0-17.1,17.1Z" transform="translate(-397.15 24.927)" fill="#fdb62f"/></g></g></g></svg>