<svg xmlns="http://www.w3.org/2000/svg" width="188.021" height="30.745" viewBox="0 0 188.021 30.745"><defs><style>.a{fill:#0855c4;fill-rule:evenodd;}.b{fill:#00adee;}</style></defs><path class="a" d="M10.217,8.839A4.039,4.039,0,0,0,6.2,12.856V38.888H32.232a4.022,4.022,0,0,0,4.017-4.056V8.8H10.217ZM29.258,30.507,13.23,33.4V17.259l16.029-2.9Z" transform="translate(-6.2 -8.8)"/><path class="b" d="M149.87,24.81c-4.712,0-8.072,3.4-8.111,8.961a8.1,8.1,0,0,0,8.111,8.188c2.433,0,3.978-.386,4.828-1.12V38.058a9.406,9.406,0,0,1-4.055.811c-2.549,0-4.558-1.39-4.905-3.592l-.039-.193h2.974c2.781,0,4.751-.232,5.987-.85a3.025,3.025,0,0,0,1.777-3.051,6.277,6.277,0,0,0-6.566-6.373m1.931,7.223a13.256,13.256,0,0,1-3.978.386h-2.047v-.193l.039-.579a3.767,3.767,0,0,1,3.708-3.747,4.217,4.217,0,0,1,2.433.657,2.39,2.39,0,0,1,.927,2.008,1.4,1.4,0,0,1-1.081,1.468m6.721-.85V41.612h3.862V31.917a4.434,4.434,0,0,1,.773-2.858,2.861,2.861,0,0,1,2.279-.888,8.226,8.226,0,0,1,1.043.077v-3.09a4.564,4.564,0,0,0-1.97-.386c-4.287.039-5.987,3.09-5.987,6.412M107.5,41.612h3.862V20.6H107.5Zm14.291-16.8c-5.176,0-7.416,3.553-7.454,7.03v9.772H118.2v-9.5a4.4,4.4,0,0,1,.888-2.9,2.941,2.941,0,0,1,2.356-1.043,3.224,3.224,0,0,1,2.626,1.043A4.742,4.742,0,0,1,125,32.419V41.65h3.862V32.033a6.729,6.729,0,0,0-7.068-7.223m13.9-4.21h-3.824V35.779c.039,3.862,1.97,6.141,6.141,6.141,1.777,0,2.858-.579,3.283-1.506V38.019a7.014,7.014,0,0,1-2.781.425,2.809,2.809,0,0,1-2.086-.734,3.4,3.4,0,0,1-.734-2.433V28.17h3.36c1.622,0,2.317-1.043,2.317-1.815V24.81H135.7Z" transform="translate(-68.374 -16.042)"/><path class="b" d="M313.039,40.786a3.025,3.025,0,0,0,1.777-3.051,6.347,6.347,0,0,0-6.6-6.334c-4.712,0-8.072,3.4-8.111,8.961a8.1,8.1,0,0,0,8.111,8.188c2.433,0,3.978-.386,4.867-1.12V44.648a9.4,9.4,0,0,1-4.056.811c-2.549,0-4.558-1.39-4.905-3.592l-.039-.193h2.974c2.781,0,4.751-.27,5.987-.888m-8.922-1.738v-.193l.039-.579a3.767,3.767,0,0,1,3.708-3.747,4.217,4.217,0,0,1,2.433.657,2.39,2.39,0,0,1,.927,2.008,1.416,1.416,0,0,1-1.082,1.429,13.256,13.256,0,0,1-3.978.386h-2.047Z" transform="translate(-186.585 -22.671)"/><path class="b" d="M430.5,37.812V48.24h3.9V38.545a4.434,4.434,0,0,1,.773-2.858,2.861,2.861,0,0,1,2.279-.888,8.232,8.232,0,0,1,1.043.077v-3.09a4.565,4.565,0,0,0-1.97-.386c-4.287.039-5.987,3.09-6.025,6.412" transform="translate(-266.619 -22.671)"/><path class="b" d="M270.107,48.472c-2.82,0-4.944-1.545-4.944-3.206V43.412h.154a7.444,7.444,0,0,0,4.635,1.545c1.892,0,2.781-.579,2.781-1.777,0-.927-.541-1.39-3.206-1.777-3.244-.5-4.828-1.854-4.828-4.326,0-3.051,2.588-5.678,6.527-5.678,3.476,0,4.905,1.893,4.905,3.476v1.545h-.155a6.46,6.46,0,0,0-4.4-1.506c-2.356,0-3.09.772-3.09,1.815,0,.811.464,1.159,3.09,1.622,3.206.541,4.905,2.047,4.905,4.635.039,3.438-2.24,5.485-6.373,5.485" transform="translate(-164.858 -22.671)"/><path class="b" d="M356.714,43.628c.039.657.077,1.545.077,2.086,0,4.094-2.588,7.763-7.532,7.763-3.167,0-5.33-1.622-5.33-3.592V48.031h.155a6.5,6.5,0,0,0,4.867,1.777c2.781,0,4.017-1.39,4.017-3.747a6.54,6.54,0,0,0-.039-.85c0-.232-.039-.657-.039-.811v-.386c-.309,1.2-1.777,2.433-3.978,2.433a6.281,6.281,0,0,1-6.412-6.6c0-4.6,2.858-8.343,7.8-8.343,3.824,0,6.3,2.974,6.3,7.184v2.781a17.379,17.379,0,0,1,.116,2.163M346.478,39.3c0,2.163,1.236,3.747,3.09,3.747,1.931,0,3.322-1.545,3.322-4.171,0-2.588-1.2-3.824-2.9-3.824-2.009,0-3.515,1.777-3.515,4.249" transform="translate(-212.608 -22.732)"/><path class="b" d="M461.3,31.3c4.712,0,7.454,3.94,7.454,8.3,0,4.905-2.7,8.845-7.8,8.845-4.712,0-7.454-3.9-7.454-8.266.039-4.944,2.742-8.884,7.8-8.884m-.348,3.438c-2.356,0-3.515,2.008-3.515,4.828,0,3.4,1.2,5.407,3.9,5.407,2.356,0,3.515-2.047,3.515-4.828,0-3.4-1.236-5.407-3.9-5.407" transform="translate(-280.736 -22.61)"/><path class="b" d="M393.329,49.079c5.137,0,7.416-3.553,7.416-7.03V32.2h-3.824v9.579a4.4,4.4,0,0,1-.888,2.9,2.941,2.941,0,0,1-2.356,1.043,3.224,3.224,0,0,1-2.626-1.043,4.741,4.741,0,0,1-.927-3.206V32.2H386.3v9.617c-.039,4.712,3.128,7.261,7.029,7.261" transform="translate(-239.491 -23.162)"/></svg>