<?xml version="1.0" encoding="utf-8"?>
<!-- Generator: Adobe Illustrator 23.0.6, SVG Export Plug-In . SVG Version: 6.00 Build 0)  -->
<svg version="1.1" id="Capa_1" xmlns="http://www.w3.org/2000/svg" xmlns:xlink="http://www.w3.org/1999/xlink" x="0px" y="0px"
	 viewBox="0 0 124 31" style="enable-background:new 0 0 124 31;" xml:space="preserve">
<style type="text/css">
	.st0{fill-rule:evenodd;clip-rule:evenodd;fill:#FFFFFF;}
	.st1{fill:#FFFFFF;}
</style>
<g id="Grupo_1883" transform="translate(-362 -106.907)">
	<path id="Trazado_3522" class="st0" d="M369.3,115.1c-1.3,0-2.3,1.1-2.4,2.4v15.3h15.3c1.3,0,2.4-1.1,2.4-2.4c0,0,0,0,0,0v-15.3
		L369.3,115.1L369.3,115.1z M380.5,127.8l-9.4,1.7V120l9.4-1.7V127.8z"/>
	<path id="Trazado_3523" class="st1" d="M414.7,120.2c-2.8,0-4.7,2-4.8,5.2c0,2.6,2.1,4.8,4.7,4.8c0,0,0,0,0.1,0
		c1,0.1,2-0.1,2.8-0.7V128c-0.7,0.3-1.6,0.5-2.4,0.5c-1.4,0.1-2.6-0.8-2.9-2.1l0-0.1h1.7c1.2,0.1,2.4-0.1,3.5-0.5
		c0.7-0.3,1.1-1,1-1.8c0-2-1.6-3.7-3.6-3.7C414.9,120.2,414.8,120.2,414.7,120.2 M415.8,124.4c-0.8,0.2-1.5,0.3-2.3,0.2h-1.2v-0.1
		l0-0.3c0-1.2,1-2.2,2.2-2.2c0.5,0,1,0.1,1.4,0.4c0.4,0.3,0.6,0.7,0.5,1.2C416.5,124,416.2,124.3,415.8,124.4 M419.8,123.9v6.1h2.3
		v-5.7c0-0.6,0.1-1.2,0.5-1.7c0.3-0.4,0.8-0.6,1.3-0.5c0.2,0,0.4,0,0.6,0v-1.8c-0.4-0.2-0.8-0.2-1.2-0.2
		C420.8,120.2,419.8,122,419.8,123.9 M389.9,130h2.3v-12.3h-2.3L389.9,130z M398.3,120.2c-2.2-0.2-4.2,1.5-4.4,3.7
		c0,0.1,0,0.3,0,0.4v5.7h2.3v-5.6c0-0.6,0.2-1.2,0.5-1.7c0.3-0.4,0.9-0.6,1.4-0.6c0.6,0,1.1,0.2,1.5,0.6c0.4,0.5,0.6,1.2,0.5,1.9
		v5.4h2.3v-5.6c0.2-2.2-1.5-4.1-3.6-4.2C398.6,120.2,398.4,120.2,398.3,120.2 M406.4,117.7h-2.2v8.9c0,2.3,1.2,3.6,3.6,3.6
		c1,0,1.7-0.3,1.9-0.9v-1.4c-0.5,0.2-1.1,0.3-1.6,0.2c-0.4,0-0.9-0.1-1.2-0.4c-0.3-0.4-0.5-0.9-0.4-1.4v-4.2h2c1,0,1.4-0.6,1.4-1.1
		v-0.9h-3.3V117.7z"/>
	<path id="Trazado_3524" class="st1" d="M441.1,125.7c0.7-0.3,1.1-1,1-1.8c0-2.1-1.7-3.7-3.7-3.7c0,0-0.1,0-0.1,0
		c-2.8,0-4.7,2-4.8,5.2c0,2.6,2.1,4.8,4.7,4.8c0,0,0,0,0.1,0c1,0.1,2-0.1,2.9-0.7v-1.6c-0.7,0.3-1.6,0.5-2.4,0.5
		c-1.4,0.1-2.6-0.8-2.9-2.1l0-0.1h1.7C438.7,126.3,439.9,126.1,441.1,125.7 M435.8,124.7v-0.1l0-0.3c0-1.2,1-2.2,2.2-2.2
		c0.5,0,1,0.1,1.4,0.4c0.4,0.3,0.6,0.7,0.5,1.2c0,0.4-0.3,0.7-0.6,0.8c-0.8,0.2-1.5,0.3-2.3,0.2L435.8,124.7L435.8,124.7z"/>
	<path id="Trazado_3525" class="st1" d="M463,123.9v6.1h2.3v-5.7c0-0.6,0.1-1.2,0.5-1.7c0.3-0.4,0.8-0.6,1.3-0.5c0.2,0,0.4,0,0.6,0
		v-1.8c-0.4-0.2-0.8-0.2-1.2-0.2C464,120.2,463,122,463,123.9"/>
	<path id="Trazado_3526" class="st1" d="M428.6,130.2c-1.7,0-2.9-0.9-2.9-1.9v-1.1h0.1c0.8,0.6,1.7,0.9,2.7,0.9c1.1,0,1.6-0.3,1.6-1
		c0-0.5-0.3-0.8-1.9-1c-1.9-0.3-2.8-1.1-2.8-2.5c0-1.8,1.5-3.3,3.8-3.3c2,0,2.9,1.1,2.9,2v0.9h-0.1c-0.7-0.6-1.6-0.9-2.6-0.9
		c-1.4,0-1.8,0.5-1.8,1.1c0,0.5,0.3,0.7,1.8,0.9c1.9,0.3,2.9,1.2,2.9,2.7C432.4,129,431.1,130.2,428.6,130.2"/>
	<path id="Trazado_3527" class="st1" d="M451.4,127.3c0,0.4,0,0.9,0,1.2c0.2,2.4-1.6,4.4-4,4.5c-0.1,0-0.3,0-0.4,0
		c-1.9,0-3.1-0.9-3.1-2.1v-1.1h0.1c0.8,0.7,1.8,1.1,2.9,1c1.6,0,2.4-0.8,2.4-2.2c0-0.2,0-0.3,0-0.5c0-0.1,0-0.4,0-0.5v-0.2
		c-0.4,0.9-1.3,1.5-2.3,1.4c-2,0-3.7-1.6-3.8-3.6c0-0.1,0-0.2,0-0.3c0-2.7,1.7-4.9,4.6-4.9c2.2,0,3.7,1.7,3.7,4.2v1.6
		C451.4,126.4,451.4,126.9,451.4,127.3 M445.4,124.8c0,1.3,0.7,2.2,1.8,2.2c1.1,0,1.9-0.9,1.9-2.4c0-1.5-0.7-2.2-1.7-2.2
		C446.2,122.4,445.3,123.4,445.4,124.8C445.4,124.7,445.4,124.7,445.4,124.8"/>
	<path id="Trazado_3528" class="st1" d="M472.8,120.1c2.8,0,4.4,2.3,4.4,4.9c0,2.9-1.6,5.2-4.6,5.2c-2.8,0-4.4-2.3-4.4-4.8
		C468.2,122.5,469.8,120.1,472.8,120.1 M472.6,122.2c-1.4,0-2.1,1.2-2.1,2.8c0,2,0.7,3.2,2.3,3.2c1.4,0,2.1-1.2,2.1-2.8
		C474.8,123.3,474.1,122.2,472.6,122.2"/>
	<path id="Trazado_3529" class="st1" d="M457.1,130.2c2.2,0.2,4.1-1.5,4.3-3.7c0-0.2,0-0.3,0-0.5v-5.8h-2.2v5.6
		c0,0.6-0.2,1.2-0.5,1.7c-0.3,0.4-0.9,0.6-1.4,0.6c-0.6,0-1.1-0.2-1.5-0.6c-0.4-0.5-0.6-1.2-0.5-1.9v-5.4H453v5.6
		c-0.2,2.2,1.4,4.1,3.6,4.2C456.8,130.2,456.9,130.2,457.1,130.2"/>
</g>
</svg>
