<svg xmlns="http://www.w3.org/2000/svg" xmlns:xlink="http://www.w3.org/1999/xlink" width="519.62" height="39.737" viewBox="0 0 519.62 39.737">
  <defs>
    <clipPath id="clip-path">
      <path id="Trazado_3678" data-name="Trazado 3678" d="M769.335-921a1.335,1.335,0,0,1,1.335,1.336v36.057a1.335,1.335,0,0,1-1.335,1.335A1.335,1.335,0,0,1,768-883.607v-36.057A1.335,1.335,0,0,1,769.335-921Z" transform="translate(-768 921)" fill="#0033a1" clip-rule="evenodd"/>
    </clipPath>
    <clipPath id="clip-path-2">
      <path id="Trazado_3677" data-name="Trazado 3677" d="M447,266.912H2370.058V-935H447Z" transform="translate(-447 935)" fill="#0033a1"/>
    </clipPath>
  </defs>
  <g id="Grupo_13852" data-name="Grupo 13852" transform="translate(-168 -107)">
    <g id="Grupo_2895" data-name="Grupo 2895" transform="translate(420.682 107.571)" clip-path="url(#clip-path)">
      <g id="Grupo_2894" data-name="Grupo 2894" transform="translate(-428.682 -18.696)" clip-path="url(#clip-path-2)">
        <path id="Trazado_3676" data-name="Trazado 3676" d="M763-873.917h16.025V-926H763Z" transform="translate(-340.996 938.019)" fill="#0033a1"/>
      </g>
    </g>
    <g id="Grupo_13585" data-name="Grupo 13585" transform="translate(-87.685 -280.975)">
      <path id="Trazado_11536" data-name="Trazado 11536" d="M255.685,427.712h35.166a4.975,4.975,0,0,0,4.957-4.973V387.975H260.644a4.99,4.99,0,0,0-4.959,4.975v34.762Zm9.476-6.337,20.87-3.647V395.91l-20.87,3.665v21.8Z" transform="translate(0 0)" fill="#0033a1" fill-rule="evenodd"/>
      <path id="Trazado_11537" data-name="Trazado 11537" d="M373.675,401.1c3.33,0,6.017,2.9,6.017,7.488s-2.687,7.6-6.017,7.6a5.428,5.428,0,0,1-4.417-2.158,7.66,7.66,0,0,1-1.419-4.837,9.411,9.411,0,0,1,1.114-5.436,5.7,5.7,0,0,1,4.721-2.653Zm-5.647-10.527-.066,9.648c2.785-2.833,5.89-3.518,9.771-2.463,4.374,1.2,6.87,5.3,6.929,10.924.113,7.2-4.907,11.707-10.844,11.755-6.509.064-11-4.51-10.953-11.164v-18.7Zm-9.553,5.953h1.509v5.148h-1.509v-.016a4.193,4.193,0,0,0-2.912,1.232,4.073,4.073,0,0,0-1.194,2.9h.016v14.206H349.22V405.785h.009a9.225,9.225,0,0,1,9.247-9.231v-.032ZM338.239,411.16h-7.467a3.358,3.358,0,0,0,.259.747,6.39,6.39,0,0,0,5.163,3.954h.016c.306.048.642.1.965.127a8.791,8.791,0,0,0,.953.05h0a11.135,11.135,0,0,0,5.5-1.35,13.339,13.339,0,0,1-.075,3.414c-.433,2.172-4.337,2.333-5.774,2.333v.016a13.3,13.3,0,0,1-1.364-.064,11.964,11.964,0,0,1-1.369-.177h0c-6-1.067-9.249-6.253-9.008-11.975v-.1h0c.157-4.814,2.848-9.106,7.5-10.524h.016l.079-.034.016-.016a9.926,9.926,0,0,1,9.455,1.936,11.862,11.862,0,0,1,1.194,1.276,7.973,7.973,0,0,1,.935,1.475l.032.048h0a7.008,7.008,0,0,1,.769,3.041,5.06,5.06,0,0,1-1.028,3.053,6.2,6.2,0,0,1-2.251,1.791v.016a10.289,10.289,0,0,1-4.519.962Zm-7.562-3.89h7.789c1.732,0,3.729-.881,2.735-3.182l-.032-.048h0a4.827,4.827,0,0,0-.4-.717,4.025,4.025,0,0,0-.635-.751,5.032,5.032,0,0,0-5.261-1.3v-.016l-.066.032h0a7.734,7.734,0,0,0-.992.429,5.052,5.052,0,0,0-.865.595,8.212,8.212,0,0,0-2.272,4.957Zm-13.434-16.491v6.033h8.414l-.193,1.932c-.193,1.716-1.169,2.206-3.1,2.256h-5.116v10.956h0a12,12,0,0,0,.1,1.364c.336,1.707,1.321,2.172,2.928,2.333a12.6,12.6,0,0,0,5.341-.626c.193,1.877-.064,4.374-1.137,4.787a14.8,14.8,0,0,1-4.639.524,12.959,12.959,0,0,1-2.14-.218,8.775,8.775,0,0,1-3.811-2.018c-1.6-1.807-1.691-3.87-1.786-6.017l-.016-.129V390.778ZM297,396.523h1.854v.032a9.229,9.229,0,0,1,9.263,9.231h0v14.206h-5.148V405.785h.016a4.15,4.15,0,0,0-4.131-4.131v.016H297v-.016a4.2,4.2,0,0,0-2.912,1.232,4.111,4.111,0,0,0-1.194,2.9h.016v14.206h-5.148V405.785h0A9.195,9.195,0,0,1,297,396.555v-.032Zm-19.047-6.194h5.211v29.662h-5.211V390.329Zm140.12,6.194h1.838v.032a9.21,9.21,0,0,1,9.267,9.231h.016v14.206h-5.182V405.785h.03a3.964,3.964,0,0,0-1.235-2.912,4.118,4.118,0,0,0-2.9-1.219v.016h-1.854v-.016a4.039,4.039,0,0,0-2.892,1.232,3.974,3.974,0,0,0-1.237,2.9h.016v14.206h-5.166V405.785h.016a9.2,9.2,0,0,1,9.262-9.231v-.032Zm15.293-6.194h5.213v29.662H433.37V390.329Zm19.7,7.283h-5.163l-9.342,10.574L449,419.957h5.152l-10.429-11.771,9.351-10.574ZM400.82,409.828v-.109a25.242,25.242,0,0,1-3.4.077,9.8,9.8,0,0,0-4.217.674,3.028,3.028,0,0,0-1.748,2.317h0v.161h0a2.937,2.937,0,0,0,2.478,3.443h.045v.016a8.488,8.488,0,0,0,4.725-.579,3.913,3.913,0,0,0,1.884-2.848,15.319,15.319,0,0,0,.227-3.152Zm-6.355-13.064c2.578-.193,5.615.032,7.726,1.645a7.313,7.313,0,0,1,2.131,2.526,11.256,11.256,0,0,1,.733,3.92v6.884c0,3.386-1.083,6.405-4.526,7.962a10.105,10.105,0,0,1-3.795.8c-5.822.143-10.218-2.8-9.766-8.157.288-3.854,3.6-5.517,7.449-5.792,1.827-.127,5.023.275,6.176.016a8.833,8.833,0,0,0-.563-3.529,3.05,3.05,0,0,0-1.786-1.793,10.04,10.04,0,0,0-4.192-.452,10.618,10.618,0,0,0-5.139,1.555l.016-2a3.655,3.655,0,0,1,.4-1.859c.772-1.23,3.507-1.612,5.132-1.725Z" transform="translate(28.278 2.989)" fill="#00bb31" fill-rule="evenodd"/>
    </g>
    <path id="Trazado_11957" data-name="Trazado 11957" d="M12.93.12H9.81L.78-21H4.44L11.4-4.44,18.36-21h3.57ZM28.14,0H24.9V-14.73h3.24ZM26.52-17.37a1.975,1.975,0,0,1-1.455-.585,1.975,1.975,0,0,1-.585-1.455,2.026,2.026,0,0,1,.585-1.47,1.95,1.95,0,0,1,1.455-.6,1.915,1.915,0,0,1,1.425.6,2.026,2.026,0,0,1,.585,1.47,1.975,1.975,0,0,1-.585,1.455A1.939,1.939,0,0,1,26.52-17.37ZM39.12.39a6.573,6.573,0,0,1-5.13-2.25,7.918,7.918,0,0,1-2.01-5.52,7.877,7.877,0,0,1,2.01-5.49,6.573,6.573,0,0,1,5.13-2.25,6.257,6.257,0,0,1,5.25,2.4V-21h3.24V0H44.37V-2.01A6.257,6.257,0,0,1,39.12.39Zm.87-2.85a4.754,4.754,0,0,0,2.58-.735,5.054,5.054,0,0,0,1.8-1.9V-9.66a5.087,5.087,0,0,0-1.815-1.875,4.777,4.777,0,0,0-2.565-.735,4.451,4.451,0,0,0-3.39,1.44,4.8,4.8,0,0,0-1.35,3.45A4.943,4.943,0,0,0,36.6-3.87,4.5,4.5,0,0,0,39.99-2.46Zm26.07-.06a1.805,1.805,0,0,0,.87-.21V-.27a3.178,3.178,0,0,1-1.89.48,2.811,2.811,0,0,1-3.09-2.1A6.872,6.872,0,0,1,56.52.39,5.991,5.991,0,0,1,52.56-.93,4.448,4.448,0,0,1,51-4.56a4.2,4.2,0,0,1,1.71-3.6,6.693,6.693,0,0,1,4.2-1.29,9.493,9.493,0,0,1,4.71,1.14v-.81q0-3.21-4.32-3.21a8.66,8.66,0,0,0-4.65,1.32v-2.85a10.614,10.614,0,0,1,5.37-1.26,7.692,7.692,0,0,1,4.965,1.485A5.034,5.034,0,0,1,64.83-9.48v5.49a1.574,1.574,0,0,0,.345,1.08A1.128,1.128,0,0,0,66.06-2.52ZM61.62-4.17v-1.8a7.875,7.875,0,0,0-3.93-1.05,4.592,4.592,0,0,0-2.535.6,1.9,1.9,0,0,0-.915,1.68A1.993,1.993,0,0,0,55.095-3a3.984,3.984,0,0,0,2.325.6,5.82,5.82,0,0,0,2.34-.5A5.431,5.431,0,0,0,61.62-4.17ZM85.65,0H78.24V-21h7.41a11.739,11.739,0,0,1,8.25,2.94,9.789,9.789,0,0,1,3.21,7.56A9.823,9.823,0,0,1,93.9-2.91,11.743,11.743,0,0,1,85.65,0ZM81.54-17.97V-3.03h3.81A8.762,8.762,0,0,0,91.5-5.04a7.056,7.056,0,0,0,2.22-5.46,7.056,7.056,0,0,0-2.22-5.46,8.762,8.762,0,0,0-6.15-2.01ZM100.23-7.38a7.656,7.656,0,0,1,2.1-5.52,7.235,7.235,0,0,1,5.46-2.22,6.239,6.239,0,0,1,3.87,1.2,7.636,7.636,0,0,1,3.12,6.66v.84H103.5a4.243,4.243,0,0,0,1.785,2.91,6.366,6.366,0,0,0,3.765,1.05,9.121,9.121,0,0,0,4.74-1.32v2.73A9.237,9.237,0,0,1,108.36.39a8.352,8.352,0,0,1-5.79-2.16A7.283,7.283,0,0,1,100.23-7.38Zm3.3-1.5h7.98a3.681,3.681,0,0,0-1.05-2.43,3.692,3.692,0,0,0-2.82-1.08,4.1,4.1,0,0,0-2.835,1A3.749,3.749,0,0,0,103.53-8.88Zm22.74,9h-2.94l-6.6-14.85h3.57l4.59,10.65,4.53-10.65h3.45Zm16.29-2.58a4.692,4.692,0,0,0,3.45-1.41,4.755,4.755,0,0,0,1.38-3.51,4.718,4.718,0,0,0-1.38-3.48,4.692,4.692,0,0,0-3.45-1.41,4.728,4.728,0,0,0-3.48,1.41,4.718,4.718,0,0,0-1.38,3.48,4.755,4.755,0,0,0,1.38,3.51A4.728,4.728,0,0,0,142.56-2.46Zm0,2.85a7.939,7.939,0,0,1-5.82-2.25,7.455,7.455,0,0,1-2.28-5.52,7.42,7.42,0,0,1,2.28-5.49,7.939,7.939,0,0,1,5.82-2.25,7.965,7.965,0,0,1,5.79,2.25,7.42,7.42,0,0,1,2.28,5.49,7.518,7.518,0,0,1-2.28,5.52A7.965,7.965,0,0,1,142.56.39Zm15.33,0a3.749,3.749,0,0,1-2.7-.945,3.874,3.874,0,0,1-.99-2.925V-21h3.24V-4.38q0,1.8,1.62,1.8a2.385,2.385,0,0,0,1.23-.3V-.09A5.227,5.227,0,0,1,157.89.39Zm16.08-5.43v-9.69h3.24V0h-3.24V-1.95a7.043,7.043,0,0,1-5.4,2.34,5.089,5.089,0,0,1-4.035-1.62,6.584,6.584,0,0,1-1.425-4.5v-9h3.24v8.28q0,3.81,3.45,3.81a4.7,4.7,0,0,0,2.37-.675A4.9,4.9,0,0,0,173.97-5.04ZM188.73.39a7.892,7.892,0,0,1-5.64-2.19,7.45,7.45,0,0,1-2.31-5.61,7.259,7.259,0,0,1,2.31-5.55,8.059,8.059,0,0,1,5.67-2.16,9.323,9.323,0,0,1,4.44,1.02v2.79a9.139,9.139,0,0,0-3.96-.96,5.287,5.287,0,0,0-3.72,1.38,4.62,4.62,0,0,0-1.5,3.51,4.654,4.654,0,0,0,1.5,3.54,5.287,5.287,0,0,0,3.72,1.38,7.937,7.937,0,0,0,4.2-1.11V-.81A9.323,9.323,0,0,1,188.73.39ZM200.94,0H197.7V-14.73h3.24Zm-1.62-17.37a1.975,1.975,0,0,1-1.455-.585,1.975,1.975,0,0,1-.585-1.455,2.026,2.026,0,0,1,.585-1.47,1.95,1.95,0,0,1,1.455-.6,1.915,1.915,0,0,1,1.425.6,2.026,2.026,0,0,1,.585,1.47,1.975,1.975,0,0,1-.585,1.455A1.939,1.939,0,0,1,199.32-17.37ZM212.88-2.46a4.692,4.692,0,0,0,3.45-1.41,4.755,4.755,0,0,0,1.38-3.51,4.718,4.718,0,0,0-1.38-3.48,4.692,4.692,0,0,0-3.45-1.41,4.728,4.728,0,0,0-3.48,1.41,4.718,4.718,0,0,0-1.38,3.48,4.755,4.755,0,0,0,1.38,3.51A4.728,4.728,0,0,0,212.88-2.46Zm0,2.85a7.939,7.939,0,0,1-5.82-2.25,7.455,7.455,0,0,1-2.28-5.52,7.42,7.42,0,0,1,2.28-5.49,7.939,7.939,0,0,1,5.82-2.25,7.965,7.965,0,0,1,5.79,2.25,7.42,7.42,0,0,1,2.28,5.49,7.518,7.518,0,0,1-2.28,5.52A7.965,7.965,0,0,1,212.88.39Zm1.17-17.64h-2.94l2.85-4.2h4.05Zm13.71,7.56V0h-3.24V-14.73h3.24v1.95a7.043,7.043,0,0,1,5.4-2.34A5.089,5.089,0,0,1,237.2-13.5,6.584,6.584,0,0,1,238.62-9V0h-3.24V-8.28q0-3.81-3.45-3.81a4.7,4.7,0,0,0-2.37.675A4.9,4.9,0,0,0,227.76-9.69Z" transform="translate(449 140)" fill="#0033a1"/>
  </g>
</svg>
