<svg xmlns="http://www.w3.org/2000/svg" xmlns:xlink="http://www.w3.org/1999/xlink" width="241.024" height="19.553" viewBox="0 0 241.024 19.553"><defs><style>.a,.b{fill:none;}.a{clip-rule:evenodd;}.c{fill:#0854c4;}.d{clip-path:url(#a);}.e{clip-path:url(#b);}.f{fill:#00aded;}.g{clip-path:url(#c);}.h{clip-path:url(#e);}.i{clip-path:url(#g);}.j{clip-path:url(#i);}.k{clip-path:url(#k);}.l{clip-path:url(#m);}.m{clip-path:url(#o);}.n{isolation:isolate;}.o{clip-path:url(#q);}.p{clip-path:url(#r);}.q{clip-path:url(#s);}.r{clip-path:url(#t);}</style><clipPath id="a"><path class="a" d="M627.075-917.11h-2.386l.008,9.659c.013,2.451,1.221,3.9,3.829,3.91,1.108,0,1.773-.37,2.047-.959v-1.521a4.316,4.316,0,0,1-1.734.281,1.691,1.691,0,0,1-1.3-.476,2.23,2.23,0,0,1-.461-1.553v-4.52h2.089a1.291,1.291,0,0,0,1.453-1.159v-.979h-3.542Zm-8.65,2.683a4.306,4.306,0,0,0-4.629,4.461v6.243h2.4v-6.063a2.846,2.846,0,0,1,.556-1.839,1.833,1.833,0,0,1,1.462-.664,2.06,2.06,0,0,1,1.647.656,3.071,3.071,0,0,1,.586,2.043v5.867h2.393v-6.1a4.271,4.271,0,0,0-4.413-4.6Zm-8.911,10.7h2.41V-917.11h-2.41Zm31.756-6.645v6.645h2.414v-6.168a2.769,2.769,0,0,1,.492-1.816,1.759,1.759,0,0,1,1.428-.569,3.82,3.82,0,0,1,.657.054v-1.954a2.638,2.638,0,0,0-1.222-.256c-2.7,0-3.76,1.962-3.77,4.064Zm-4.17.551a8.191,8.191,0,0,1-2.484.237h-1.284l.008-.113.019-.358a2.371,2.371,0,0,1,2.31-2.377,2.463,2.463,0,0,1,1.512.423,1.552,1.552,0,0,1,.583,1.286.874.874,0,0,1-.664.9Zm-1.2-4.61c-2.944,0-5.03,2.171-5.039,5.689a5.07,5.07,0,0,0,5.059,5.2,4.718,4.718,0,0,0,3.016-.7v-1.78a5.725,5.725,0,0,1-2.53.519,2.839,2.839,0,0,1-3.049-2.288l-.018-.125h1.84a8.763,8.763,0,0,0,3.718-.549A1.936,1.936,0,0,0,640-910.4a3.98,3.98,0,0,0-4.1-4.025Z" transform="translate(-609.514 917.11)"/></clipPath><clipPath id="b"><path class="b" d="M447-353.118h931.012V-935H447Z" transform="translate(-447 935)"/></clipPath><clipPath id="c"><path class="a" d="M683.642-908.114l.009-.114.017-.358a2.372,2.372,0,0,1,2.307-2.377,2.456,2.456,0,0,1,1.514.424,1.541,1.541,0,0,1,.583,1.286.873.873,0,0,1-.663.9,8.188,8.188,0,0,1-2.485.237ZM689.207-907a1.936,1.936,0,0,0,1.1-1.935,3.979,3.979,0,0,0-4.1-4.025c-2.944,0-5.032,2.171-5.039,5.689a5.069,5.069,0,0,0,5.056,5.2,4.729,4.729,0,0,0,3.019-.7v-1.78a5.733,5.733,0,0,1-2.53.519,2.84,2.84,0,0,1-3.05-2.288l-.017-.125h1.84a8.748,8.748,0,0,0,3.717-.549Z" transform="translate(-681.172 912.96)"/></clipPath><clipPath id="e"><path class="a" d="M729.632-908.905v6.645h2.416v-6.168a2.767,2.767,0,0,1,.492-1.816,1.761,1.761,0,0,1,1.428-.569,3.8,3.8,0,0,1,.657.054v-1.954a2.638,2.638,0,0,0-1.223-.256c-2.7,0-3.759,1.962-3.77,4.064" transform="translate(-729.632 912.97)"/></clipPath><clipPath id="g"><path class="a" d="M671.328-902.141c-1.761,0-3.076-.984-3.076-2.045v-1.179h.089a4.533,4.533,0,0,0,2.877.986c1.174,0,1.741-.367,1.741-1.142,0-.6-.338-.886-1.992-1.138-2.023-.309-3-1.178-3-2.76a3.759,3.759,0,0,1,4.065-3.611c2.171,0,3.057,1.215,3.057,2.22v.984H675a3.98,3.98,0,0,0-2.735-.963c-1.459,0-1.919.48-1.919,1.157,0,.522.285.734,1.919,1.023,1.986.349,3.053,1.294,3.053,2.955,0,2.2-1.421,3.513-3.993,3.513" transform="translate(-667.969 913.03)"/></clipPath><clipPath id="i"><path class="a" d="M699.414-908c0,1.365.769,2.38,1.919,2.38,1.2,0,2.063-.975,2.063-2.653,0-1.638-.756-2.439-1.811-2.439-1.237,0-2.172,1.133-2.172,2.712m6.377,2.76c.017.424.038.984.038,1.332,0,2.607-1.6,4.943-4.69,4.943-1.973,0-3.322-1.041-3.322-2.277v-1.178h.106a4.038,4.038,0,0,0,3.04,1.12,2.179,2.179,0,0,0,2.5-2.394c0-.153,0-.366-.017-.542,0-.153-.016-.424-.016-.519v-.25a2.441,2.441,0,0,1-2.468,1.543,3.944,3.944,0,0,1-3.98-4.211c0-2.935,1.773-5.31,4.865-5.31,2.382,0,3.907,1.893,3.907,4.559v1.776c0,.348.018.945.036,1.41" transform="translate(-696.983 912.984)"/></clipPath><clipPath id="k"><path class="a" d="M742.831-910.845c-1.456,0-2.2,1.288-2.2,3.079,0,2.151.741,3.441,2.42,3.441,1.476,0,2.2-1.29,2.2-3.06,0-2.173-.758-3.46-2.42-3.46m.22-2.185c2.941,0,4.632,2.509,4.632,5.272,0,3.127-1.691,5.617-4.851,5.617-2.941,0-4.632-2.49-4.632-5.251,0-3.129,1.69-5.638,4.85-5.638" transform="translate(-738.201 913.03)"/></clipPath><clipPath id="m"><path class="a" d="M717.543-901.948a4.306,4.306,0,0,0,4.612-4.477v-6.264h-2.387v6.085a2.866,2.866,0,0,1-.556,1.843,1.82,1.82,0,0,1-1.456.668,2.049,2.049,0,0,1-1.643-.66,3.092,3.092,0,0,1-.583-2.051l0-5.887h-2.386v6.124a4.27,4.27,0,0,0,4.4,4.618" transform="translate(-713.144 912.689)"/></clipPath><clipPath id="o"><path class="a" d="M575-921.544h18.709v19.114H575Z" transform="translate(-575 921.544)"/></clipPath><clipPath id="q"><rect class="b" width="19" height="20" transform="translate(0 0.027)"/></clipPath><clipPath id="r"><path class="a" d="M589.338-907.749l-9.969,1.841v-10.283l9.969-1.841ZM577.5-921.544a2.531,2.531,0,0,0-2.5,2.565v16.549h16.207a2.533,2.533,0,0,0,2.5-2.567l0-16.547Z" transform="translate(-575 921.544)"/></clipPath><clipPath id="s"><path class="b" d="M575-901.957h18.75V-922H575Z" transform="translate(-575 922)"/></clipPath><clipPath id="t"><path class="a" d="M768.646-921a.647.647,0,0,1,.647.647V-902.9a.646.646,0,0,1-.647.646A.646.646,0,0,1,768-902.9v-17.456A.646.646,0,0,1,768.646-921Z" transform="translate(-768 921)"/></clipPath></defs><g transform="translate(-128 -17.456)"><g transform="translate(263.5 21.149)"><path class="c" d="M3.776-4.4,5.2-8.176S6.624-4.4,6.608-4.4ZM7.1-2.64l.624,1.632A1.448,1.448,0,0,0,9.088.112c.7,0,1.36-.544,1.28-.736L6.752-9.744c-.144-.432-.448-.7-1.52-.7s-1.408.272-1.536.7L.16-.608C.08-.4.736.112,1.392.112a1.374,1.374,0,0,0,1.3-1.088l.64-1.664Zm6.5-3.936V-9.312c0-1.456-.736-1.808-1.408-1.808-.448,0-.848.176-.848.256v9.856c0,.832.416,1.072,1.024,1.072h.24c.576,0,.992-.256.992-1.072V-4.272A1.657,1.657,0,0,1,15.328-6.1c.9,0,1.44.64,1.44,1.728v3.36c0,.832.416,1.072,1.024,1.072h.24c.576,0,.992-.256.992-1.072v-3.68c0-1.824-.864-3.3-2.912-3.3A2.809,2.809,0,0,0,13.6-6.576ZM24.384.208a3.914,3.914,0,0,0,4.176-4.08,3.931,3.931,0,0,0-4.144-4.112,3.957,3.957,0,0,0-4.192,4.1A3.914,3.914,0,0,0,24.384.208ZM24.4-1.568a2.188,2.188,0,0,1-2.192-2.32A2.193,2.193,0,0,1,24.4-6.224a2.194,2.194,0,0,1,2.176,2.352A2.181,2.181,0,0,1,24.4-1.568ZM32.08-6.56A1.318,1.318,0,0,0,30.7-7.888a1.251,1.251,0,0,0-.848.256v6.624c0,.832.416,1.072,1.024,1.072h.24c.576,0,.992-.256.992-1.072V-3.344c0-1.568.48-2.528,1.584-2.528a1.484,1.484,0,0,1,1.024.384,1.167,1.167,0,0,0,.72-1.184,1.287,1.287,0,0,0-1.456-1.312A1.931,1.931,0,0,0,32.08-6.56Zm6.64,0a1.318,1.318,0,0,0-1.376-1.328,1.251,1.251,0,0,0-.848.256v6.624c0,.832.416,1.072,1.024,1.072h.24c.576,0,.992-.256.992-1.072V-3.344c0-1.568.48-2.528,1.584-2.528a1.484,1.484,0,0,1,1.024.384,1.167,1.167,0,0,0,.72-1.184,1.287,1.287,0,0,0-1.456-1.312A1.931,1.931,0,0,0,38.72-6.56ZM46.88.208a3.914,3.914,0,0,0,4.176-4.08,3.931,3.931,0,0,0-4.144-4.112,3.957,3.957,0,0,0-4.192,4.1A3.914,3.914,0,0,0,46.88.208ZM46.9-1.568A2.188,2.188,0,0,1,44.7-3.888,2.193,2.193,0,0,1,46.9-6.224a2.194,2.194,0,0,1,2.176,2.352A2.181,2.181,0,0,1,46.9-1.568ZM58.64.208c2.736,0,4.24-1.216,4.24-3.28,0-1.952-1.632-2.736-3.5-3.152-1.28-.288-2.208-.368-2.208-1.264,0-.752.656-1.232,1.792-1.232a3.72,3.72,0,0,1,2.752,1.28,1.544,1.544,0,0,0,.944-1.232c0-.88-1.216-1.888-3.728-1.888-2.48,0-4.032,1.28-4.032,3.2,0,2.112,1.7,2.752,3.36,3.12,1.216.272,2.256.416,2.256,1.344,0,.8-.656,1.264-1.888,1.264a4.191,4.191,0,0,1-3.088-1.424,1.477,1.477,0,0,0-.9,1.184C54.64-.928,55.888.208,58.64.208Zm7.168-4.816a2,2,0,0,1,2-1.808,1.743,1.743,0,0,1,1.824,1.808Zm0,1.312h5.376c.416,0,.528-.224.544-.624v-.16a3.725,3.725,0,0,0-3.888-3.9A3.985,3.985,0,0,0,63.76-3.84,3.887,3.887,0,0,0,67.984.208c2.176,0,3.376-.944,3.376-1.776,0-.912-1.072-1.056-1.088-1.024A2.363,2.363,0,0,1,68.064-1.44,2.1,2.1,0,0,1,65.808-3.3ZM76.144,0c1.024.224,2,.368,2,.992,0,.608-.72.96-2.016.96s-1.936-.336-1.936-.88C74.192.448,75.024.08,76.144,0Zm.016-3.584a1.415,1.415,0,0,1-1.488-1.472,1.39,1.39,0,0,1,1.472-1.456,1.407,1.407,0,0,1,1.5,1.456A1.407,1.407,0,0,1,76.16-3.584Zm1.68-4.048a4.223,4.223,0,0,0-1.7-.336c-2.064,0-3.552,1.264-3.552,2.944a2.685,2.685,0,0,0,2.144,2.576,1.143,1.143,0,0,0-.528.912.928.928,0,0,0,.288.72c-1.424.192-2.448.928-2.448,2.016,0,1.488,1.248,2.176,4.032,2.176,2.672,0,4.224-.96,4.224-2.464,0-1.312-1.152-1.9-2.256-2.208-1.264-.32-2.016-.368-2.016-.8a.569.569,0,0,1,.032-.16h.112c2.176,0,3.568-1.136,3.568-2.8a2.482,2.482,0,0,0-.7-1.744c.016,0,1.36-1.3,1.36-1.3a1.219,1.219,0,0,0-1.1-.96,1.2,1.2,0,0,0-1.12.784Zm8.736,6.464A1.276,1.276,0,0,0,87.92.064c.464,0,.848-.176.848-.256V-6.8c0-.832-.416-1.088-1.024-1.088H87.52c-.592,0-1.008.272-1.008,1.088v4.1a1.873,1.873,0,0,1-1.68,1.024c-.944,0-1.472-.64-1.472-1.68V-6.8c0-.832-.432-1.088-1.024-1.088H82.1c-.576,0-.992.272-.992,1.088v3.776c0,1.808.848,3.232,2.9,3.232A2.965,2.965,0,0,0,86.576-1.168ZM92.688-6.56a1.318,1.318,0,0,0-1.376-1.328,1.251,1.251,0,0,0-.848.256v6.624c0,.832.416,1.072,1.024,1.072h.24c.576,0,.992-.256.992-1.072V-3.344c0-1.568.48-2.528,1.584-2.528a1.484,1.484,0,0,1,1.024.384,1.167,1.167,0,0,0,.72-1.184,1.287,1.287,0,0,0-1.456-1.312A1.931,1.931,0,0,0,92.688-6.56Zm8.16,6.768a3.914,3.914,0,0,0,4.176-4.08,3.931,3.931,0,0,0-4.144-4.112,3.957,3.957,0,0,0-4.192,4.1A3.914,3.914,0,0,0,100.848.208Zm.016-1.776a2.188,2.188,0,0,1-2.192-2.32,2.193,2.193,0,0,1,2.192-2.336,2.194,2.194,0,0,1,2.176,2.352A2.181,2.181,0,0,1,100.864-1.568Z" transform="translate(0.5 10.851)"/></g><g class="d" transform="translate(150.314 20.323)"><g class="e" transform="translate(-105.071 -11.567)"><path class="f" d="M604.514-902.076h43.213V-922.11H604.514Z" transform="translate(-502.675 930.444)"/></g></g><g class="g" transform="translate(196.644 23.005)"><g class="e" transform="translate(-151.401 -14.249)"><path class="f" d="M676.172-900.609h15.6V-917.96h-15.6Z" transform="translate(-528.004 928.977)"/></g></g><g class="h" transform="translate(227.975 23)"><g class="e" transform="translate(-182.732 -14.243)"><path class="f" d="M724.632-900.795h11.459v-17.175H724.632Z" transform="translate(-545.133 928.98)"/></g></g><g class="i" transform="translate(188.108 22.961)"><g class="e" transform="translate(-142.865 -14.204)"><path class="f" d="M662.969-900.675h13.817V-918.03H662.969Z" transform="translate(-523.337 929.002)"/></g></g><g class="j" transform="translate(206.867 22.99)"><g class="e" transform="translate(-161.623 -14.234)"><path class="f" d="M691.983-897.5H707.3v-20.484H691.983Z" transform="translate(-533.593 928.985)"/></g></g><g class="k" transform="translate(233.515 22.96)"><g class="e" transform="translate(-188.272 -14.204)"><path class="f" d="M733.2-900.675h15.947V-918.03H733.2Z" transform="translate(-548.162 929.002)"/></g></g><g class="l" transform="translate(217.315 23.181)"><g class="e" transform="translate(-172.071 -14.425)"><path class="f" d="M708.144-900.482h15.477v-17.207H708.144Z" transform="translate(-539.305 928.881)"/></g></g><g class="m" transform="translate(128 17.456)"><g class="e" transform="translate(-82.757 -8.7)"><g class="n" transform="translate(82.757 8.217)"><g class="o"><g class="p" transform="translate(0 0.482)"><g class="q" transform="translate(0 -0.295)"><path class="c" d="M570-900.965h25.175v-25.579H570Z" transform="translate(-573.233 923.606)"/></g></g></g></g></g></g><g class="r" transform="translate(252.781 17.808)"><g class="e" transform="translate(-207.538 -9.052)"><path class="c" d="M763-900.785h7.758V-926H763Z" transform="translate(-558.695 931.819)"/></g></g></g></svg>