<svg xmlns="http://www.w3.org/2000/svg" xmlns:xlink="http://www.w3.org/1999/xlink" width="602.492" height="40.388" viewBox="0 0 602.492 40.388"><defs><clipPath id="a"><path d="M645.787-917.11h-4.928l.017,19.951c.027,5.063,2.523,8.047,7.909,8.076,2.288-.006,3.662-.765,4.228-1.981v-3.143a8.914,8.914,0,0,1-3.582.58,3.492,3.492,0,0,1-2.692-.983,4.606,4.606,0,0,1-.953-3.207v-9.336H650.1c2.11,0,2.992-1.376,3-2.394v-2.021h-7.317Zm-17.867,5.541c-6.646.007-9.543,4.65-9.561,9.214v12.895h4.951v-12.523a5.88,5.88,0,0,1,1.148-3.8,3.786,3.786,0,0,1,3.019-1.37,4.255,4.255,0,0,1,3.4,1.354,6.344,6.344,0,0,1,1.21,4.22l0,12.119h4.944v-12.6c-.011-6.139-4.1-9.493-9.115-9.505ZM609.514-889.46h4.979v-27.65h-4.979Zm65.594-13.726,0,13.726H680.1V-902.2a5.719,5.719,0,0,1,1.015-3.751,3.633,3.633,0,0,1,2.95-1.175,7.9,7.9,0,0,1,1.357.112v-4.037a5.448,5.448,0,0,0-2.524-.529c-5.587.009-7.768,4.052-7.787,8.395Zm-8.613,1.139a16.923,16.923,0,0,1-5.131.489h-2.651l.015-.234.039-.74a4.9,4.9,0,0,1,4.771-4.91,5.087,5.087,0,0,1,3.123.875,3.206,3.206,0,0,1,1.2,2.656,1.806,1.806,0,0,1-1.371,1.864Zm-2.475-9.522c-6.081.007-10.39,4.484-10.409,11.751a10.472,10.472,0,0,0,10.45,10.734c3.142,0,5.094-.5,6.229-1.451v-3.677a11.824,11.824,0,0,1-5.225,1.073c-3.253.01-5.871-1.809-6.3-4.727l-.037-.259h3.8c3.575,0,6.091-.329,7.68-1.133a4,4,0,0,0,2.279-4,8.221,8.221,0,0,0-8.47-8.314Z" transform="translate(-609.514 917.11)" fill="none" clip-rule="evenodd"/></clipPath><clipPath id="b"><path d="M447,266.912H2370.058V-935H447Z" transform="translate(-447 935)" fill="none"/></clipPath><clipPath id="c"><path d="M686.273-902.95l.018-.234.035-.74a4.9,4.9,0,0,1,4.766-4.909,5.073,5.073,0,0,1,3.127.875,3.183,3.183,0,0,1,1.2,2.656,1.8,1.8,0,0,1-1.37,1.864,16.918,16.918,0,0,1-5.133.489Zm11.495,2.3a4,4,0,0,0,2.281-4,8.22,8.22,0,0,0-8.468-8.314c-6.082.007-10.393,4.484-10.409,11.751a10.471,10.471,0,0,0,10.444,10.734c3.143,0,5.1-.5,6.235-1.451V-895.6a11.841,11.841,0,0,1-5.227,1.073c-3.255.01-5.873-1.809-6.3-4.727l-.035-.259h3.8c3.57,0,6.1-.329,7.677-1.134Z" transform="translate(-681.172 912.961)" fill="none" clip-rule="evenodd"/></clipPath><clipPath id="e"><path d="M729.632-904.575v13.726h4.991v-12.74a5.715,5.715,0,0,1,1.017-3.752,3.637,3.637,0,0,1,2.949-1.175,7.847,7.847,0,0,1,1.357.112v-4.037a5.448,5.448,0,0,0-2.526-.529c-5.583.009-7.765,4.052-7.788,8.395" transform="translate(-729.632 912.97)" fill="none" clip-rule="evenodd"/></clipPath><clipPath id="g"><path d="M674.908-890.537c-3.638,0-6.354-2.032-6.354-4.225V-897.2h.183a9.364,9.364,0,0,0,5.942,2.036c2.424,0,3.6-.758,3.6-2.358,0-1.235-.7-1.83-4.114-2.351-4.178-.638-6.193-2.433-6.193-5.7,0-4.031,3.333-7.459,8.4-7.459,4.485,0,6.314,2.51,6.314,4.585v2.032H682.5a8.221,8.221,0,0,0-5.649-1.988c-3.013,0-3.964.992-3.964,2.39,0,1.078.589,1.517,3.964,2.113,4.1.72,6.307,2.673,6.307,6.1,0,4.547-2.936,7.257-8.248,7.257" transform="translate(-667.969 913.03)" fill="none" clip-rule="evenodd"/></clipPath><clipPath id="i"><path d="M702-902.689c0,2.821,1.588,4.916,3.965,4.916,2.481,0,4.262-2.014,4.262-5.479,0-3.383-1.562-5.038-3.74-5.038-2.555,0-4.486,2.34-4.486,5.6m13.172,5.7c.036.877.079,2.033.079,2.751,0,5.384-3.3,10.209-9.688,10.209-4.075,0-6.863-2.15-6.863-4.7v-2.434h.219a8.341,8.341,0,0,0,6.279,2.313c3.553,0,5.167-1.832,5.167-4.945,0-.315,0-.757-.034-1.119,0-.315-.033-.877-.033-1.073v-.516c-.408,1.552-2.278,3.187-5.1,3.187-4.811,0-8.22-3.629-8.22-8.7,0-6.062,3.663-10.968,10.049-10.968,4.921,0,8.071,3.91,8.071,9.417v3.668c0,.718.036,1.953.074,2.912" transform="translate(-696.983 912.984)" fill="none" clip-rule="evenodd"/></clipPath><clipPath id="k"><path d="M747.764-908.518c-3.008,0-4.538,2.66-4.538,6.36,0,4.444,1.53,7.108,5,7.108,3.05,0,4.537-2.665,4.537-6.321,0-4.488-1.566-7.148-5-7.148m.454-4.512c6.074,0,9.568,5.182,9.568,10.89,0,6.459-3.494,11.6-10.019,11.6-6.075,0-9.567-5.144-9.567-10.847,0-6.464,3.492-11.646,10.018-11.646" transform="translate(-738.201 913.03)" fill="none" clip-rule="evenodd"/></clipPath><clipPath id="m"><path d="M722.231-890.5c6.622-.011,9.513-4.667,9.527-9.247v-12.939h-4.93v12.57a5.922,5.922,0,0,1-1.148,3.808,3.761,3.761,0,0,1-3.007,1.38,4.232,4.232,0,0,1-3.393-1.363,6.387,6.387,0,0,1-1.2-4.236l0-12.159h-4.929v12.649c.011,6.163,4.084,9.524,9.087,9.538" transform="translate(-713.144 912.689)" fill="none" clip-rule="evenodd"/></clipPath><clipPath id="o"><path d="M575-921.544h38.645v39.48H575Z" transform="translate(-575 921.544)" fill="none" clip-rule="evenodd"/></clipPath><clipPath id="q"><rect width="39" height="42" transform="translate(-0.419 -0.09)" fill="none"/></clipPath><clipPath id="r"><path d="M604.615-893.05l-20.591,3.8v-21.24l20.591-3.8Zm-24.456-28.494a5.228,5.228,0,0,0-5.159,5.3v34.183h33.477a5.233,5.233,0,0,0,5.164-5.3l0-34.178Z" transform="translate(-575 921.544)" fill="none" clip-rule="evenodd"/></clipPath><clipPath id="s"><path d="M575-880.6h38.728V-922H575Z" transform="translate(-575 922)" fill="none"/></clipPath><clipPath id="t"><path d="M769.335-921a1.335,1.335,0,0,1,1.335,1.336v36.057a1.335,1.335,0,0,1-1.335,1.335A1.335,1.335,0,0,1,768-883.607v-36.057A1.335,1.335,0,0,1,769.335-921Z" transform="translate(-768 921)" fill="none" clip-rule="evenodd"/></clipPath></defs><g transform="translate(-11763.938 -5232.845)"><g transform="translate(11593 5126)"><g transform="translate(451.37 113.19)"><path d="M4.185,0H15.531c1.426,0,2.108-.713,2.108-1.984V-2.17c0-1.178-.682-1.8-2.108-1.8H6.386V-8.339h6.572c1.457,0,2.108-.651,2.108-1.86v-.124c0-1.116-.62-1.767-2.108-1.767H6.386v-3.968h8.99c1.426,0,2.108-.651,2.108-1.922v-.155c0-1.209-.682-1.922-2.108-1.922H4.185A2.261,2.261,0,0,0,1.8-17.515v15A2.237,2.237,0,0,0,4.185,0ZM24.552-12.8a2.567,2.567,0,0,0-2.666-2.48,2.424,2.424,0,0,0-1.643.5V-1.953c0,1.612.806,2.077,1.984,2.077h.465c1.116,0,1.922-.5,1.922-2.077V-9.827a3.668,3.668,0,0,1,3.348-1.984c1.767,0,2.79,1.24,2.79,3.255v6.6c0,1.612.806,2.077,1.984,2.077H33.2c1.116,0,1.922-.5,1.922-2.077V-9.207c0-3.472-1.674-6.262-5.642-6.262A5.676,5.676,0,0,0,24.552-12.8Zm24.8,6.138a3.63,3.63,0,0,1-3.813,3.6c-2.263,0-3.875-1.829-3.875-4.433,0-2.728,1.55-4.464,3.937-4.464a3.837,3.837,0,0,1,3.751,2.418Zm0-6.51a5.752,5.752,0,0,0-4.836-2.294c-4.185,0-7.068,3.131-7.068,7.936C37.448-2.79,40.362.4,44.454.4a5.4,5.4,0,0,0,4.9-2.852v.5c0,1.612.806,2.077,1.984,2.077H51.8c1.116,0,1.922-.5,1.922-2.077V-18.042c0-2.821-1.426-3.5-2.728-3.5-.868,0-1.643.341-1.643.5ZM64.263.4C69.1.4,72.354-2.79,72.354-7.5a7.616,7.616,0,0,0-8.029-7.967c-4.805,0-8.122,3.255-8.122,7.936C56.2-2.79,59.458.4,64.263.4Zm.031-3.441a4.24,4.24,0,0,1-4.247-4.5,4.249,4.249,0,0,1,4.247-4.526A4.251,4.251,0,0,1,68.51-7.5,4.225,4.225,0,0,1,64.294-3.038ZM80.414.341c4.154,0,6.665-1.86,6.665-4.9,0-3.441-3.441-4.154-5.58-4.619-2.046-.434-3.224-.62-3.224-1.7,0-.961.93-1.488,2.573-1.488a5.981,5.981,0,0,1,4.433,2.015,2.233,2.233,0,0,0,1.4-1.86c0-1.736-2.015-3.224-6.107-3.224-3.844,0-6.324,1.953-6.324,4.9,0,3.441,3.255,4.123,5.332,4.588,2.046.434,3.255.62,3.255,1.767,0,.961-.961,1.457-2.666,1.457a6.767,6.767,0,0,1-4.991-2.015,2.081,2.081,0,0,0-1.333,1.8C73.842-1.209,75.981.341,80.414.341ZM96.875.4c4.836,0,8.091-3.193,8.091-7.9a7.616,7.616,0,0,0-8.029-7.967c-4.805,0-8.122,3.255-8.122,7.936C88.815-2.79,92.07.4,96.875.4Zm.031-3.441a4.24,4.24,0,0,1-4.247-4.5,4.249,4.249,0,0,1,4.247-4.526A4.251,4.251,0,0,1,101.122-7.5,4.225,4.225,0,0,1,96.906-3.038Zm23,3.441c4.526,0,6.448-2.635,6.448-4.061,0-1.86-2.356-2.108-2.418-1.953A3.822,3.822,0,0,1,120.094-3.1a4.144,4.144,0,0,1-4.123-4.433,4.118,4.118,0,0,1,4.123-4.4,3.768,3.768,0,0,1,3.844,2.511c.093.155,2.418-.155,2.418-1.922,0-1.426-1.829-4.092-6.448-4.092a7.653,7.653,0,0,0-7.967,7.9A7.626,7.626,0,0,0,119.908.4Zm16.027,0c4.836,0,8.091-3.193,8.091-7.9A7.616,7.616,0,0,0,136-15.469c-4.805,0-8.122,3.255-8.122,7.936C127.875-2.79,131.13.4,135.935.4Zm.031-3.441a4.24,4.24,0,0,1-4.247-4.5,4.249,4.249,0,0,1,4.247-4.526A4.251,4.251,0,0,1,140.182-7.5,4.225,4.225,0,0,1,135.966-3.038Zm14.88-9.765a2.567,2.567,0,0,0-2.666-2.48,2.424,2.424,0,0,0-1.643.5V-1.953c0,1.612.806,2.077,1.984,2.077h.465c1.116,0,1.922-.5,1.922-2.077V-9.827a3.669,3.669,0,0,1,3.348-1.984c1.767,0,2.79,1.24,2.79,3.255v6.6c0,1.612.806,2.077,1.984,2.077h.465c1.116,0,1.922-.5,1.922-2.077V-9.207c0-3.472-1.674-6.262-5.642-6.262A5.676,5.676,0,0,0,150.846-12.8Zm30.07,6.138a3.63,3.63,0,0,1-3.813,3.6c-2.263,0-3.875-1.829-3.875-4.433,0-2.728,1.55-4.464,3.937-4.464a3.837,3.837,0,0,1,3.751,2.418Zm0-6.51a5.752,5.752,0,0,0-4.836-2.294c-4.185,0-7.068,3.131-7.068,7.936,0,4.743,2.914,7.936,7.006,7.936a5.4,5.4,0,0,0,4.9-2.852v.5c0,1.612.806,2.077,1.984,2.077h.465c1.116,0,1.922-.5,1.922-2.077V-18.042c0-2.821-1.426-3.5-2.728-3.5-.868,0-1.643.341-1.643.5Zm10.819,4.247a3.872,3.872,0,0,1,3.875-3.5,3.377,3.377,0,0,1,3.534,3.5Zm0,2.542h10.416c.806,0,1.023-.434,1.054-1.209V-7.9a7.218,7.218,0,0,0-7.533-7.564,7.721,7.721,0,0,0-7.9,8.029c0,4.774,3.255,7.843,8.184,7.843,4.216,0,6.541-1.829,6.541-3.441,0-1.767-2.077-2.046-2.108-1.984a4.579,4.579,0,0,1-4.278,2.232A4.075,4.075,0,0,1,191.735-6.386Zm17.422-6.7c-.558-1.736-1.426-2.2-2.48-2.2-1.3,0-2.449,1.023-2.356,1.271L209.808-.93c.372.9,1.4,1.116,2.449,1.116a2.46,2.46,0,0,0,2.449-1.147l5.425-13.051c.093-.248-1.023-1.271-2.356-1.271-.93,0-1.829.465-2.387,2.2L212.226-4ZM229.338.4c4.836,0,8.091-3.193,8.091-7.9a7.616,7.616,0,0,0-8.029-7.967c-4.8,0-8.122,3.255-8.122,7.936C221.278-2.79,224.533.4,229.338.4Zm.031-3.441a4.24,4.24,0,0,1-4.247-4.5,4.249,4.249,0,0,1,4.247-4.526A4.251,4.251,0,0,1,233.585-7.5,4.225,4.225,0,0,1,229.369-3.038ZM242.048.124h.465c1.116,0,1.922-.5,1.922-2.077V-18.042c0-2.821-1.426-3.5-2.728-3.5-.868,0-1.643.341-1.643.5v19.1C240.064-.341,240.9.124,242.048.124Zm16.275-2.387a2.471,2.471,0,0,0,2.6,2.387c.9,0,1.643-.341,1.643-.5v-12.8c0-1.612-.806-2.108-1.984-2.108h-.434c-1.147,0-1.953.527-1.953,2.108v7.936a3.629,3.629,0,0,1-3.255,1.984c-1.829,0-2.852-1.24-2.852-3.255v-6.665c0-1.612-.837-2.108-1.984-2.108h-.465c-1.116,0-1.922.527-1.922,2.108v7.316c0,3.5,1.643,6.262,5.611,6.262A5.745,5.745,0,0,0,258.323-2.263ZM273.017.4c4.526,0,6.448-2.635,6.448-4.061,0-1.86-2.356-2.108-2.418-1.953A3.822,3.822,0,0,1,273.2-3.1a4.144,4.144,0,0,1-4.123-4.433,4.118,4.118,0,0,1,4.123-4.4,3.769,3.769,0,0,1,3.844,2.511c.093.155,2.418-.155,2.418-1.922,0-1.426-1.829-4.092-6.448-4.092a7.653,7.653,0,0,0-7.967,7.9A7.626,7.626,0,0,0,273.017.4Zm11.1-18.042a2.14,2.14,0,0,0,2.418-2.232,2.118,2.118,0,0,0-2.418-2.2,2.158,2.158,0,0,0-2.449,2.2A2.165,2.165,0,0,0,284.115-17.639ZM283.9.124h.465c1.116,0,1.922-.5,1.922-2.077V-13.175c0-1.612-.775-2.108-1.953-2.108h-.465c-1.116,0-1.953.527-1.953,2.108V-1.953C281.914-.341,282.751.124,283.9.124ZM296.949.4c4.836,0,8.091-3.193,8.091-7.9a7.616,7.616,0,0,0-8.029-7.967c-4.805,0-8.122,3.255-8.122,7.936C288.889-2.79,292.144.4,296.949.4Zm.031-3.441a4.24,4.24,0,0,1-4.247-4.5,4.249,4.249,0,0,1,4.247-4.526A4.251,4.251,0,0,1,301.2-7.5,4.225,4.225,0,0,1,296.98-3.038ZM294.965-17.36c.248.372,3.162.4,5.58-1.054a2.9,2.9,0,0,0,1.519-2.356,1.835,1.835,0,0,0-1.984-1.7,2.9,2.9,0,0,0-1.55.527C296.484-20.677,294.748-17.763,294.965-17.36ZM311.86-12.8a2.567,2.567,0,0,0-2.666-2.48,2.424,2.424,0,0,0-1.643.5V-1.953c0,1.612.806,2.077,1.984,2.077H310c1.116,0,1.922-.5,1.922-2.077V-9.827a3.668,3.668,0,0,1,3.348-1.984c1.767,0,2.79,1.24,2.79,3.255v6.6c0,1.612.806,2.077,1.984,2.077h.465c1.116,0,1.922-.5,1.922-2.077V-9.207c0-3.472-1.674-6.262-5.642-6.262A5.676,5.676,0,0,0,311.86-12.8Z" transform="translate(-0.37 24.81)" fill="#0854c4"/></g><g transform="translate(217.03 112.767)" clip-path="url(#a)"><g transform="translate(-217.03 -23.891)" clip-path="url(#b)"><path d="M604.514-880.729h89.258V-922.11H604.514Z" transform="translate(-394.161 939.324)" fill="#00aded"/></g></g><g transform="translate(312.727 118.308)" clip-path="url(#c)"><g transform="translate(-312.727 -29.433)" clip-path="url(#b)"><path d="M676.172-882.121H708.4v-35.84H676.172Z" transform="translate(-370.123 940.716)" fill="#00aded"/></g></g><g transform="translate(377.443 118.296)" clip-path="url(#e)"><g transform="translate(-377.443 -29.421)" clip-path="url(#b)"><path d="M724.632-882.494H748.3V-917.97H724.632Z" transform="translate(-353.866 940.713)" fill="#00aded"/></g></g><g transform="translate(295.095 118.215)" clip-path="url(#g)"><g transform="translate(-295.095 -29.34)" clip-path="url(#b)"><path d="M662.97-882.183H691.51V-918.03H662.97Z" transform="translate(-374.552 940.693)" fill="#00aded"/></g></g><g transform="translate(333.842 118.276)" clip-path="url(#i)"><g transform="translate(-333.842 -29.402)" clip-path="url(#b)"><path d="M691.983-875.673h31.627v-42.311H691.983Z" transform="translate(-364.819 940.708)" fill="#00aded"/></g></g><g transform="translate(388.886 118.215)" clip-path="url(#k)"><g transform="translate(-388.886 -29.34)" clip-path="url(#b)"><path d="M733.2-882.183h32.94V-918.03H733.2Z" transform="translate(-350.992 940.693)" fill="#00aded"/></g></g><g transform="translate(355.424 118.67)" clip-path="url(#m)"><g transform="translate(-355.424 -29.795)" clip-path="url(#b)"><path d="M708.144-882.147h31.969v-35.542H708.144Z" transform="translate(-359.397 940.807)" fill="#00aded"/></g></g><g transform="translate(170.939 106.845)" clip-path="url(#o)"><g transform="translate(-170.939 -17.97)" clip-path="url(#b)"><g transform="translate(171.419 17.215)" style="isolation:isolate"><g transform="translate(0 0)" clip-path="url(#q)"><g transform="translate(-0.481 0.754)" clip-path="url(#r)"><g transform="translate(0 -0.609)" clip-path="url(#s)"><path d="M570-873.709h52v-52.835H570Z" transform="translate(-576.677 920.476)" fill="#0854c4"/></g></g></g></g></g></g><g transform="translate(428.682 107.571)" clip-path="url(#t)"><g transform="translate(-428.682 -18.696)" clip-path="url(#b)"><path d="M763-873.917h16.025V-926H763Z" transform="translate(-340.996 938.019)" fill="#0854c4"/></g></g></g></g></svg>