<svg xmlns="http://www.w3.org/2000/svg" width="107.94" height="21.055" viewBox="0 0 107.94 21.055"><defs><style>.a{fill:#515154;}.b{fill:#04499a;}</style></defs><g transform="translate(-14.45 -13.735)"><path class="a" d="M530.125,57.319v3.664c-1.784.323-2.809-.247-2.847-1.974-.057-2.487-.095-4.974.038-7.441.152-2.885,1.746-4.822,4.138-5.277a4.807,4.807,0,0,1,5.752,2.98,7.485,7.485,0,0,1-.475,6.929C535.364,58.211,533.219,58.591,530.125,57.319Zm4.822-5.182a10.892,10.892,0,0,0-.171-1.367,2.24,2.24,0,0,0-2.259-1.936,2.126,2.126,0,0,0-2.259,1.9,6.9,6.9,0,0,0-.19,2.069c.19,1.784,1.348,3,2.677,2.942C534.111,55.668,534.946,54.415,534.946,52.137Z" transform="translate(-415.436 -26.279)"/><path class="a" d="M440.781,51.83c-.019,3.664-1.86,5.942-4.537,5.942-3.873-.019-5.885-2.012-5.847-5.771.038-3.341,1.86-5.657,4.67-5.961a5.058,5.058,0,0,1,5.771,4.062A3.591,3.591,0,0,1,440.781,51.83Zm-2.582.285c0-2.3-.873-3.607-2.468-3.664-1.557-.057-2.544,1.253-2.563,3.36-.019,2.278.911,3.512,2.62,3.512C437.383,55.3,438.2,54.24,438.2,52.114Z" transform="translate(-336.989 -26.142)"/><path class="a" d="M186.441,57.671H183.8c0-2.6-.19-5.144.057-7.631.266-2.7,2.43-4.138,5.372-3.986a4.571,4.571,0,0,1,4.613,4.442c.133,2.335.019,4.689.019,7.024a4.352,4.352,0,0,1-2.7.038c0-2.012.038-4.043,0-6.056-.038-2.05-.835-3.056-2.354-3.094s-2.316.949-2.354,3.037C186.4,53.476,186.441,55.507,186.441,57.671Z" transform="translate(-137.148 -26.175)"/><path class="a" d="M286.857,53.114c.873,2.468,2.164,2.9,5.923,2.183.645,1.538-.019,2.24-1.519,2.449-2.487.361-4.746-.095-6.283-2.259a6.2,6.2,0,0,1-.228-6.872,5.072,5.072,0,0,1,5.277-2.7,4.3,4.3,0,0,1,3.493,2.031c1.557,2.449.55,4.613-2.316,4.917C289.818,53.058,288.432,53.039,286.857,53.114Zm1.253-1.481c1.822-.038,3.531-.854,3.474-1.727-.076-1.386-1.1-1.727-2.24-1.765a2.6,2.6,0,0,0-2.563,2.487C286.838,51.6,287.426,51.729,288.11,51.634Z" transform="translate(-218.239 -26.06)"/><path class="a" d="M247.66,30.7h2.468c.513.854-.057,1.8.38,2.677,1.158.532,2.487-.076,3.8.4.209,3.208-2.525,1.708-3.948,2.43v3.379c0,3.284.418,3.645,3.74,3.36.588,1.595-.076,2.373-1.652,2.582-2.639.323-4.651-1.139-4.746-3.74C247.565,38.16,247.66,34.535,247.66,30.7Z" transform="translate(-188.913 -13.745)"/><path class="a" d="M387.155,54.817c.494,1.4-.019,2.05-1.2,2.43a6.074,6.074,0,0,1-6.663-2.012,6.608,6.608,0,0,1,.133-7.5,6,6,0,0,1,6.53-1.879,1.654,1.654,0,0,1,1.253,2.392c-2.031-.266-4.309-1.025-5.562,1.519a3.816,3.816,0,0,0,.361,4.138C383.359,55.785,385.257,55.215,387.155,54.817Z" transform="translate(-294.695 -25.788)"/><path class="a" d="M499.109,48.432c-2.563.475-2.866.816-2.9,3.417-.019,1.955,0,3.91,0,5.866a5.014,5.014,0,0,1-2.771.133c.095-2.828-.266-5.657.228-8.447.437-2.449,2.088-3.341,5.163-3C499.336,47.008,498.957,47.748,499.109,48.432Z" transform="translate(-388.027 -26.408)"/><path class="a" d="M161.406,44.884a4.494,4.494,0,0,1-2.506.019V30.609c.778-.361,1.576-.095,2.506-.209Z" transform="translate(-117.029 -13.502)"/><path class="a" d="M345.642,57.966c0-2.715-.095-5.239.019-7.764.152-2.847,2.031-4.1,5.258-3.664.55.588.171,1.31.3,1.936-2.677.664-2.866.911-2.885,3.626,0,1.841-.019,3.683-.038,5.524,0,.057-.057.114-.152.247A5.14,5.14,0,0,1,345.642,57.966Z" transform="translate(-268.292 -26.508)"/><path class="b" d="M35.53,13.747c-6.245,0-12.263-.038-18.3.019-1.8.019-2.715,1.177-2.715,3.208-.019,4.955-.019,9.928,0,14.883a5.435,5.435,0,0,0,.266,2.885c5.961,0,11.94.038,17.9-.019,1.8-.019,2.79-1.177,2.809-3.17C35.549,25.706,35.53,19.86,35.53,13.747ZM18.977,30.224a2.207,2.207,0,0,1-.076-.342A2.207,2.207,0,0,0,18.977,30.224Zm1.8.4c-.475,0-.93-.019-1.4-.019.038-3.645.095-7.308.133-10.953,3.664-.626,7.346-1.272,11.01-1.9.019,3.664.038,7.327.057,10.972-3.094.607-6.188,1.2-9.3,1.8C21.1,30.566,20.933,30.6,20.781,30.623ZM31.031,18.189a.962.962,0,0,1,.038.247A.362.362,0,0,0,31.031,18.189Zm3.929,5.2c0,2.544.019,5.106,0,7.65.019-2.544,0-5.106,0-7.65s-.038-5.106.019-7.65C34.923,18.284,34.961,20.847,34.961,23.39Z" transform="translate(0)"/></g></svg>