<svg xmlns="http://www.w3.org/2000/svg" width="265.809" height="24.778" viewBox="0 0 265.809 24.778"><defs><style>.a,.b{fill:#fff;}.a{fill-rule:evenodd;}.c{isolation:isolate;}</style></defs><g transform="translate(-200.933 -794.181)"><g transform="translate(200.933 794.181)"><path class="a" d="M204.169,794.213a3.256,3.256,0,0,0-3.236,3.236v20.978h20.978a3.241,3.241,0,0,0,3.236-3.245v-21H204.169Zm15.345,17.46L206.6,814.007V801l12.916-2.334Z" transform="translate(-200.933 -794.181)"/><g transform="translate(31.528 3.673)"><path class="b" d="M260.911,800.584c-3.8,0-6.5,2.738-6.536,7.221a6.524,6.524,0,0,0,6.45,6.6h.087a6.054,6.054,0,0,0,3.89-.9v-2.241a7.553,7.553,0,0,1-3.268.654,3.682,3.682,0,0,1-3.953-2.895l-.032-.156h2.4a11.592,11.592,0,0,0,4.824-.685,2.439,2.439,0,0,0,1.431-2.459,5.058,5.058,0,0,0-4.975-5.139c-.1,0-.211,0-.316,0m1.556,5.82a10.624,10.624,0,0,1-3.206.311h-1.65v-.156l.031-.467a3.036,3.036,0,0,1,2.987-3.019,3.406,3.406,0,0,1,1.961.53,1.927,1.927,0,0,1,.747,1.618,1.13,1.13,0,0,1-.871,1.182m5.416-.685v8.4h3.112v-7.81a3.577,3.577,0,0,1,.622-2.3,2.307,2.307,0,0,1,1.831-.716,6.9,6.9,0,0,1,.841.062v-2.49a3.693,3.693,0,0,0-1.586-.311c-3.455.032-4.824,2.49-4.824,5.167m-41.107,8.4h3.112V797.191h-3.112Zm11.515-13.539a5.548,5.548,0,0,0-6.007,5.665v7.874h3.112v-7.656a3.546,3.546,0,0,1,.716-2.335,2.376,2.376,0,0,1,1.9-.841,2.6,2.6,0,0,1,2.116.841,3.824,3.824,0,0,1,.747,2.583v7.444h3.112v-7.749a5.42,5.42,0,0,0-5-5.811,5.282,5.282,0,0,0-.694-.008m11.2-3.393h-3.081v12.225c.031,3.112,1.586,4.949,4.949,4.949,1.431,0,2.3-.467,2.646-1.214v-1.932a5.627,5.627,0,0,1-2.241.343,2.26,2.26,0,0,1-1.683-.587,2.741,2.741,0,0,1-.592-1.961v-5.727h2.708c1.307,0,1.867-.841,1.867-1.464v-1.245h-4.575Z" transform="translate(-226.768 -797.191)"/></g><g transform="translate(91.471 7.033)"><path class="b" d="M286.315,807.511a2.44,2.44,0,0,0,1.431-2.459,5.114,5.114,0,0,0-5.119-5.108c-.068,0-.135,0-.2,0-3.8,0-6.5,2.738-6.536,7.221a6.524,6.524,0,0,0,6.45,6.6h.087a6.22,6.22,0,0,0,3.921-.9v-2.243a7.553,7.553,0,0,1-3.268.654,3.682,3.682,0,0,1-3.953-2.895l-.032-.156h2.4a11.486,11.486,0,0,0,4.824-.716m-7.189-1.4v-.156l.03-.467a3.036,3.036,0,0,1,2.987-3.019,3.406,3.406,0,0,1,1.961.53,1.926,1.926,0,0,1,.747,1.618,1.14,1.14,0,0,1-.871,1.152,10.622,10.622,0,0,1-3.206.311h-1.65Z" transform="translate(-275.888 -799.944)"/></g><g transform="translate(132.052 7.035)"><path class="b" d="M309.146,805.112v8.4h3.144V805.7a3.577,3.577,0,0,1,.622-2.3,2.307,2.307,0,0,1,1.831-.716,6.9,6.9,0,0,1,.841.062v-2.49a3.692,3.692,0,0,0-1.586-.311c-3.455.032-4.824,2.49-4.856,5.167" transform="translate(-309.141 -799.946)"/></g><g transform="translate(80.452 7.035)"><path class="b" d="M271.218,813.7c-2.272,0-3.983-1.245-3.983-2.583v-1.494h.122a5.992,5.992,0,0,0,3.734,1.245c1.525,0,2.241-.467,2.241-1.431,0-.747-.436-1.12-2.583-1.431-2.614-.405-3.89-1.494-3.89-3.485,0-2.459,2.086-4.575,5.26-4.575,2.807,0,3.953,1.525,3.953,2.807V804h-.122a5.214,5.214,0,0,0-3.548-1.214c-1.9,0-2.49.622-2.49,1.464,0,.654.373.934,2.49,1.307,2.583.436,3.953,1.65,3.953,3.734.032,2.77-1.8,4.42-5.135,4.42" transform="translate(-266.858 -799.946)"/></g><g transform="translate(104.657 7.066)"><path class="b" d="M298.157,809.744c.032.53.062,1.245.062,1.68a5.873,5.873,0,0,1-5.476,6.247,5.651,5.651,0,0,1-.593.009c-2.552,0-4.294-1.307-4.294-2.895v-1.492h.122a5.23,5.23,0,0,0,3.921,1.431c2.241,0,3.236-1.12,3.236-3.019a5.141,5.141,0,0,0-.032-.685c0-.187-.032-.53-.032-.654v-.311a3.151,3.151,0,0,1-3.206,1.961,5.059,5.059,0,0,1-5.172-4.946c0-.126,0-.25,0-.376,0-3.7,2.3-6.723,6.287-6.723,3.081,0,5.073,2.4,5.073,5.789V808a14.091,14.091,0,0,1,.093,1.743m-8.247-3.485c0,1.743,1,3.019,2.49,3.019,1.556,0,2.676-1.245,2.676-3.361,0-2.086-.965-3.081-2.335-3.081-1.618,0-2.832,1.432-2.832,3.423" transform="translate(-286.693 -799.971)"/></g><g transform="translate(139.215 7.002)"><path class="b" d="M321.3,799.92c3.8,0,6.007,3.173,6.007,6.691,0,3.953-2.178,7.127-6.287,7.127-3.8,0-6.007-3.144-6.007-6.661.032-3.983,2.21-7.159,6.287-7.159m-.279,2.77c-1.9,0-2.832,1.618-2.832,3.891,0,2.738.965,4.358,3.144,4.358,1.9,0,2.832-1.65,2.832-3.891,0-2.738-1-4.358-3.144-4.358" transform="translate(-315.011 -799.919)"/></g><g transform="translate(118.282 7.283)"><path class="b" d="M303.54,813.75a5.515,5.515,0,0,0,5.98-5.665v-7.936h-3.081v7.719a3.546,3.546,0,0,1-.716,2.335,2.369,2.369,0,0,1-1.9.841,2.593,2.593,0,0,1-2.116-.841,3.82,3.82,0,0,1-.747-2.583v-7.47h-3.084V807.9a5.4,5.4,0,0,0,5.665,5.852" transform="translate(-297.857 -800.149)"/></g></g><g class="c" transform="translate(369.572 799.396)"><g class="c"><path class="b" d="M342.934,801.047l3.12,9.186,3.1-9.186a1.847,1.847,0,0,1,1.757-1.494c1.032,0,2.021.791,1.89,1.078l-4.879,12.128a1.811,1.811,0,0,1-1.933,1.231,1.731,1.731,0,0,1-1.89-1.231l-4.966-12.128c-.132-.287.923-1.078,1.977-1.078A1.928,1.928,0,0,1,342.934,801.047Z" transform="translate(-339.122 -798.212)"/><path class="b" d="M351.425,800.015a1.743,1.743,0,1,1,1.737,1.582A1.53,1.53,0,0,1,351.425,800.015Zm.176,12.7v-7.954c0-1.12.593-1.495,1.385-1.495h.329c.835,0,1.384.353,1.384,1.495v7.954c0,1.122-.571,1.473-1.362,1.473h-.33C352.194,814.188,351.6,813.857,351.6,812.715Z" transform="translate(-336.411 -798.454)"/><path class="b" d="M355.619,808.692c0-3.406,2.043-5.625,5.01-5.625a4.108,4.108,0,0,1,3.428,1.626v-5.581c0-.11.549-.352,1.164-.352.924,0,1.934.483,1.934,2.482v11.4c0,1.122-.571,1.473-1.362,1.473h-.329c-.836,0-1.407-.331-1.407-1.473V812.3a3.814,3.814,0,0,1-3.472,2.022C357.685,814.318,355.619,812.054,355.619,808.692Zm8.437.615v-2.043a2.739,2.739,0,0,0-2.659-1.715c-1.691,0-2.79,1.231-2.79,3.142,0,1.868,1.142,3.164,2.746,3.164A2.573,2.573,0,0,0,364.056,809.307Z" transform="translate(-335.487 -798.386)"/><path class="b" d="M366.527,810.4c0-2.461,2.2-3.582,6.9-3.649h.351a1.944,1.944,0,0,0-2.2-2.131,2.742,2.742,0,0,0-2.659,1.649c0,.044-2,.11-2-1.318,0-1.341,1.582-2.659,4.856-2.659,3.384,0,5.053,1.538,5.053,4.417v6.349c0,.154-.571.351-1.164.351a1.727,1.727,0,0,1-1.824-1.691,4.4,4.4,0,0,1-3.714,1.781C367.889,813.5,366.527,812.221,366.527,810.4Zm7.25-1.341v-.615l-.571.023c-2.439.065-3.712.549-3.712,1.714,0,.79.636,1.3,1.669,1.3A2.423,2.423,0,0,0,373.777,809.057Z" transform="translate(-333.083 -797.609)"/><path class="b" d="M379.577,806.8a7.053,7.053,0,0,1,7.339-7.405c3.778,0,5.471,2.065,5.471,3.208,0,1.406-1.823,1.757-1.868,1.647a3.952,3.952,0,0,0-3.471-1.934,4.123,4.123,0,0,0-4.132,4.46,4.17,4.17,0,0,0,4.154,4.484,3.65,3.65,0,0,0,3.538-2.153c.043-.111,1.933.24,1.933,1.646,0,1.209-1.757,3.429-5.669,3.429A7.014,7.014,0,0,1,379.577,806.8Z" transform="translate(-330.208 -798.247)"/><path class="b" d="M391.241,810.4c0-2.461,2.2-3.582,6.9-3.649h.351a1.944,1.944,0,0,0-2.2-2.131,2.742,2.742,0,0,0-2.659,1.649c0,.044-2,.11-2-1.318,0-1.341,1.583-2.659,4.857-2.659,3.383,0,5.053,1.538,5.053,4.417v6.349c0,.154-.571.351-1.164.351a1.726,1.726,0,0,1-1.824-1.691,4.4,4.4,0,0,1-3.714,1.781C392.6,813.5,391.241,812.221,391.241,810.4Zm7.25-1.341v-.615l-.571.023c-2.439.065-3.714.549-3.714,1.714,0,.79.637,1.3,1.671,1.3A2.423,2.423,0,0,0,398.491,809.057Z" transform="translate(-327.637 -797.609)"/><path class="b" d="M400.924,811.162a1.474,1.474,0,0,1,.945-1.273,4.8,4.8,0,0,0,3.538,1.428c1.208,0,1.89-.353,1.89-1.032,0-.813-.858-.946-2.308-1.253-1.472-.329-3.779-.813-3.779-3.252,0-2.087,1.759-3.471,4.482-3.471,2.9,0,4.351,1.054,4.351,2.286a1.56,1.56,0,0,1-1.01,1.318,4.235,4.235,0,0,0-3.142-1.429c-1.164,0-1.823.373-1.823,1.054,0,.77.857.88,2.286,1.208,1.516.331,3.954.836,3.954,3.275,0,2.154-1.779,3.472-4.724,3.472C402.441,813.492,400.924,812.393,400.924,811.162Z" transform="translate(-325.504 -797.605)"/><path class="b" d="M413.2,805.024a3.858,3.858,0,0,1,3.472-1.956c2.79,0,3.977,2.021,3.977,4.526v5.053c0,1.122-.571,1.473-1.363,1.473h-.329c-.835,0-1.406-.331-1.406-1.473v-4.614c0-1.494-.747-2.374-1.956-2.374a2.281,2.281,0,0,0-2.394,2.505v4.482c0,1.122-.571,1.473-1.362,1.473h-.331c-.835,0-1.406-.331-1.406-1.473V799.112c0-.11.549-.352,1.165-.352.923,0,1.933.483,1.933,2.482Z" transform="translate(-323.481 -798.386)"/></g></g><g transform="translate(359.986 796.736)"><rect class="b" width="2.441" height="19.946"/></g></g></svg>