<svg xmlns="http://www.w3.org/2000/svg" xmlns:xlink="http://www.w3.org/1999/xlink" width="567.276" height="40.388" viewBox="0 0 567.276 40.388"><defs><style>.a,.b{fill:none;}.a{clip-rule:evenodd;}.c{fill:#0854c4;}.d{clip-path:url(#a);}.e{clip-path:url(#b);}.f{fill:#00aded;}.g{clip-path:url(#c);}.h{clip-path:url(#e);}.i{clip-path:url(#g);}.j{clip-path:url(#i);}.k{clip-path:url(#k);}.l{clip-path:url(#m);}.m{clip-path:url(#o);}.n{isolation:isolate;}.o{clip-path:url(#q);}.p{clip-path:url(#r);}.q{clip-path:url(#s);}.r{clip-path:url(#t);}</style><clipPath id="a"><path class="a" d="M645.787-917.11h-4.928l.017,19.951c.027,5.063,2.523,8.047,7.909,8.076,2.288-.006,3.662-.765,4.228-1.981v-3.143a8.914,8.914,0,0,1-3.582.58,3.492,3.492,0,0,1-2.692-.983,4.606,4.606,0,0,1-.953-3.207v-9.336H650.1c2.11,0,2.992-1.376,3-2.394v-2.021h-7.317Zm-17.867,5.541c-6.646.007-9.543,4.65-9.561,9.214v12.895h4.951v-12.523a5.88,5.88,0,0,1,1.148-3.8,3.786,3.786,0,0,1,3.019-1.37,4.255,4.255,0,0,1,3.4,1.354,6.344,6.344,0,0,1,1.21,4.22l0,12.119h4.944v-12.6c-.011-6.139-4.1-9.493-9.115-9.505ZM609.514-889.46h4.979v-27.65h-4.979Zm65.594-13.726,0,13.726H680.1V-902.2a5.719,5.719,0,0,1,1.015-3.751,3.633,3.633,0,0,1,2.95-1.175,7.9,7.9,0,0,1,1.357.112v-4.037a5.448,5.448,0,0,0-2.524-.529c-5.587.009-7.768,4.052-7.787,8.395Zm-8.613,1.139a16.923,16.923,0,0,1-5.131.489h-2.651l.015-.234.039-.74a4.9,4.9,0,0,1,4.771-4.91,5.087,5.087,0,0,1,3.123.875,3.206,3.206,0,0,1,1.2,2.656,1.806,1.806,0,0,1-1.371,1.864Zm-2.475-9.522c-6.081.007-10.39,4.484-10.409,11.751a10.472,10.472,0,0,0,10.45,10.734c3.142,0,5.094-.5,6.229-1.451v-3.677a11.824,11.824,0,0,1-5.225,1.073c-3.253.01-5.871-1.809-6.3-4.727l-.037-.259h3.8c3.575,0,6.091-.329,7.68-1.133a4,4,0,0,0,2.279-4,8.221,8.221,0,0,0-8.47-8.314Z" transform="translate(-609.514 917.11)"/></clipPath><clipPath id="b"><path class="b" d="M447,266.912H2370.058V-935H447Z" transform="translate(-447 935)"/></clipPath><clipPath id="c"><path class="a" d="M686.273-902.95l.018-.234.035-.74a4.9,4.9,0,0,1,4.766-4.909,5.073,5.073,0,0,1,3.127.875,3.183,3.183,0,0,1,1.2,2.656,1.8,1.8,0,0,1-1.37,1.864,16.918,16.918,0,0,1-5.133.489Zm11.495,2.3a4,4,0,0,0,2.281-4,8.22,8.22,0,0,0-8.468-8.314c-6.082.007-10.393,4.484-10.409,11.751a10.471,10.471,0,0,0,10.444,10.734c3.143,0,5.1-.5,6.235-1.451V-895.6a11.841,11.841,0,0,1-5.227,1.073c-3.255.01-5.873-1.809-6.3-4.727l-.035-.259h3.8c3.57,0,6.1-.329,7.677-1.134Z" transform="translate(-681.172 912.961)"/></clipPath><clipPath id="e"><path class="a" d="M729.632-904.575v13.726h4.991v-12.74a5.715,5.715,0,0,1,1.017-3.752,3.637,3.637,0,0,1,2.949-1.175,7.847,7.847,0,0,1,1.357.112v-4.037a5.448,5.448,0,0,0-2.526-.529c-5.583.009-7.765,4.052-7.788,8.395" transform="translate(-729.632 912.97)"/></clipPath><clipPath id="g"><path class="a" d="M674.908-890.537c-3.638,0-6.354-2.032-6.354-4.225V-897.2h.183a9.364,9.364,0,0,0,5.942,2.036c2.424,0,3.6-.758,3.6-2.358,0-1.235-.7-1.83-4.114-2.351-4.178-.638-6.193-2.433-6.193-5.7,0-4.031,3.333-7.459,8.4-7.459,4.485,0,6.314,2.51,6.314,4.585v2.032H682.5a8.221,8.221,0,0,0-5.649-1.988c-3.013,0-3.964.992-3.964,2.39,0,1.078.589,1.517,3.964,2.113,4.1.72,6.307,2.673,6.307,6.1,0,4.547-2.936,7.257-8.248,7.257" transform="translate(-667.969 913.03)"/></clipPath><clipPath id="i"><path class="a" d="M702-902.689c0,2.821,1.588,4.916,3.965,4.916,2.481,0,4.262-2.014,4.262-5.479,0-3.383-1.562-5.038-3.74-5.038-2.555,0-4.486,2.34-4.486,5.6m13.172,5.7c.036.877.079,2.033.079,2.751,0,5.384-3.3,10.209-9.688,10.209-4.075,0-6.863-2.15-6.863-4.7v-2.434h.219a8.341,8.341,0,0,0,6.279,2.313c3.553,0,5.167-1.832,5.167-4.945,0-.315,0-.757-.034-1.119,0-.315-.033-.877-.033-1.073v-.516c-.408,1.552-2.278,3.187-5.1,3.187-4.811,0-8.22-3.629-8.22-8.7,0-6.062,3.663-10.968,10.049-10.968,4.921,0,8.071,3.91,8.071,9.417v3.668c0,.718.036,1.953.074,2.912" transform="translate(-696.983 912.984)"/></clipPath><clipPath id="k"><path class="a" d="M747.764-908.518c-3.008,0-4.538,2.66-4.538,6.36,0,4.444,1.53,7.108,5,7.108,3.05,0,4.537-2.665,4.537-6.321,0-4.488-1.566-7.148-5-7.148m.454-4.512c6.074,0,9.568,5.182,9.568,10.89,0,6.459-3.494,11.6-10.019,11.6-6.075,0-9.567-5.144-9.567-10.847,0-6.464,3.492-11.646,10.018-11.646" transform="translate(-738.201 913.03)"/></clipPath><clipPath id="m"><path class="a" d="M722.231-890.5c6.622-.011,9.513-4.667,9.527-9.247v-12.939h-4.93v12.57a5.922,5.922,0,0,1-1.148,3.808,3.761,3.761,0,0,1-3.007,1.38,4.232,4.232,0,0,1-3.393-1.363,6.387,6.387,0,0,1-1.2-4.236l0-12.159h-4.929v12.649c.011,6.163,4.084,9.524,9.087,9.538" transform="translate(-713.144 912.689)"/></clipPath><clipPath id="o"><path class="a" d="M575-921.544h38.645v39.48H575Z" transform="translate(-575 921.544)"/></clipPath><clipPath id="q"><rect class="b" width="39" height="42" transform="translate(-0.419 -0.09)"/></clipPath><clipPath id="r"><path class="a" d="M604.615-893.05l-20.591,3.8v-21.24l20.591-3.8Zm-24.456-28.494a5.228,5.228,0,0,0-5.159,5.3v34.183h33.477a5.233,5.233,0,0,0,5.164-5.3l0-34.178Z" transform="translate(-575 921.544)"/></clipPath><clipPath id="s"><path class="b" d="M575-880.6h38.728V-922H575Z" transform="translate(-575 922)"/></clipPath><clipPath id="t"><path class="a" d="M769.335-921a1.335,1.335,0,0,1,1.335,1.336v36.057a1.335,1.335,0,0,1-1.335,1.335A1.335,1.335,0,0,1,768-883.607v-36.057A1.335,1.335,0,0,1,769.335-921Z" transform="translate(-768 921)"/></clipPath></defs><g transform="translate(-170.938 -106.845)"><path class="c" d="M8.556.4c5.3,0,8.215-2.356,8.215-6.355,0-3.782-3.162-5.3-6.789-6.107C7.5-12.617,5.7-12.772,5.7-14.508c0-1.457,1.271-2.387,3.472-2.387a7.207,7.207,0,0,1,5.332,2.48A2.991,2.991,0,0,0,16.337-16.8c0-1.7-2.356-3.658-7.223-3.658-4.805,0-7.812,2.48-7.812,6.2,0,4.092,3.286,5.332,6.51,6.045,2.356.527,4.371.806,4.371,2.6,0,1.55-1.271,2.449-3.658,2.449A8.119,8.119,0,0,1,2.542-5.921,2.863,2.863,0,0,0,.806-3.627C.806-1.8,3.224.4,8.556.4ZM22.444-8.928a3.872,3.872,0,0,1,3.875-3.5,3.377,3.377,0,0,1,3.534,3.5Zm0,2.542H32.86c.806,0,1.023-.434,1.054-1.209V-7.9a7.218,7.218,0,0,0-7.533-7.564A7.721,7.721,0,0,0,18.476-7.44C18.476-2.666,21.731.4,26.66.4,30.876.4,33.2-1.426,33.2-3.038c0-1.767-2.077-2.046-2.108-1.984A4.579,4.579,0,0,1,26.815-2.79,4.075,4.075,0,0,1,22.444-6.386ZM42.47,0c1.984.434,3.875.713,3.875,1.922,0,1.178-1.4,1.86-3.906,1.86s-3.751-.651-3.751-1.7C38.688.868,40.3.155,42.47,0ZM42.5-6.944A2.742,2.742,0,0,1,39.618-9.8a2.693,2.693,0,0,1,2.852-2.821A2.727,2.727,0,0,1,45.384-9.8,2.726,2.726,0,0,1,42.5-6.944Zm3.255-7.843a8.181,8.181,0,0,0-3.286-.651c-4,0-6.882,2.449-6.882,5.7,0,2.387,1.581,4.247,4.154,4.991a2.214,2.214,0,0,0-1.023,1.767,1.8,1.8,0,0,0,.558,1.4c-2.759.372-4.743,1.8-4.743,3.906,0,2.883,2.418,4.216,7.812,4.216,5.177,0,8.184-1.86,8.184-4.774,0-2.542-2.232-3.689-4.371-4.278-2.449-.62-3.906-.713-3.906-1.55a1.1,1.1,0,0,1,.062-.31h.217c4.216,0,6.913-2.2,6.913-5.425a4.81,4.81,0,0,0-1.364-3.379c.031,0,2.635-2.511,2.635-2.511a2.363,2.363,0,0,0-2.139-1.86,2.314,2.314,0,0,0-2.17,1.519ZM62.682-2.263a2.471,2.471,0,0,0,2.6,2.387c.9,0,1.643-.341,1.643-.5v-12.8c0-1.612-.806-2.108-1.984-2.108h-.434c-1.147,0-1.953.527-1.953,2.108v7.936A3.629,3.629,0,0,1,59.3-3.255c-1.829,0-2.852-1.24-2.852-3.255v-6.665c0-1.612-.837-2.108-1.984-2.108H54c-1.116,0-1.922.527-1.922,2.108v7.316C52.08-2.356,53.723.4,57.691.4A5.745,5.745,0,0,0,62.682-2.263ZM74.524-12.71c-.279-2.046-1.519-2.573-2.666-2.573a2.424,2.424,0,0,0-1.643.5V-1.953c0,1.612.806,2.077,1.984,2.077h.465c1.116,0,1.922-.5,1.922-2.077V-6.479c0-3.038.93-4.9,3.069-4.9a2.875,2.875,0,0,1,1.984.744,2.261,2.261,0,0,0,1.395-2.294c0-1.55-1.054-2.542-2.821-2.542A3.742,3.742,0,0,0,74.524-12.71ZM90.334.4c4.836,0,8.091-3.193,8.091-7.9A7.616,7.616,0,0,0,90.4-15.469c-4.805,0-8.122,3.255-8.122,7.936C82.274-2.79,85.529.4,90.334.4Zm.031-3.441a4.24,4.24,0,0,1-4.247-4.5,4.249,4.249,0,0,1,4.247-4.526A4.251,4.251,0,0,1,94.581-7.5,4.225,4.225,0,0,1,90.365-3.038ZM114.824.341c5.673,0,8.649-3.038,8.649-8.835V-18.1c0-1.4-.651-2.077-1.953-2.077h-.62a1.813,1.813,0,0,0-1.984,2.077v9.61c0,3.286-1.3,4.867-4.061,4.867-2.728,0-4.092-1.643-4.092-4.867V-18.1c0-1.4-.682-2.077-1.984-2.077h-.589a1.826,1.826,0,0,0-1.984,2.077v9.672C106.206-2.635,109.151.341,114.824.341ZM131.068-12.8a2.567,2.567,0,0,0-2.666-2.48,2.424,2.424,0,0,0-1.643.5V-1.953c0,1.612.806,2.077,1.984,2.077h.465c1.116,0,1.922-.5,1.922-2.077V-9.827a3.668,3.668,0,0,1,3.348-1.984c1.767,0,2.79,1.24,2.79,3.255v6.6c0,1.612.806,2.077,1.984,2.077h.465c1.116,0,1.922-.5,1.922-2.077V-9.207c0-3.472-1.674-6.262-5.642-6.262A5.676,5.676,0,0,0,131.068-12.8ZM147.1-17.639a2.14,2.14,0,0,0,2.418-2.232,2.118,2.118,0,0,0-2.418-2.2,2.158,2.158,0,0,0-2.449,2.2A2.165,2.165,0,0,0,147.1-17.639ZM146.878.124h.465c1.116,0,1.922-.5,1.922-2.077V-13.175c0-1.612-.775-2.108-1.953-2.108h-.465c-1.116,0-1.953.527-1.953,2.108V-1.953C144.894-.341,145.731.124,146.878.124Zm9.331-13.206c-.558-1.736-1.426-2.2-2.48-2.2-1.3,0-2.449,1.023-2.356,1.271L156.86-.93c.372.9,1.4,1.116,2.449,1.116a2.46,2.46,0,0,0,2.449-1.147l5.425-13.051c.093-.248-1.023-1.271-2.356-1.271-.93,0-1.829.465-2.387,2.2L159.278-4ZM172.3-8.928a3.872,3.872,0,0,1,3.875-3.5,3.377,3.377,0,0,1,3.534,3.5Zm0,2.542h10.416c.806,0,1.023-.434,1.054-1.209V-7.9a7.218,7.218,0,0,0-7.533-7.564,7.721,7.721,0,0,0-7.9,8.029c0,4.774,3.255,7.843,8.184,7.843,4.216,0,6.541-1.829,6.541-3.441,0-1.767-2.077-2.046-2.108-1.984a4.579,4.579,0,0,1-4.278,2.232A4.075,4.075,0,0,1,172.3-6.386Zm18.2-6.324c-.279-2.046-1.519-2.573-2.666-2.573a2.424,2.424,0,0,0-1.643.5V-1.953c0,1.612.806,2.077,1.984,2.077h.465c1.116,0,1.922-.5,1.922-2.077V-6.479c0-3.038.93-4.9,3.069-4.9a2.875,2.875,0,0,1,1.984.744,2.261,2.261,0,0,0,1.4-2.294c0-1.55-1.054-2.542-2.821-2.542A3.742,3.742,0,0,0,190.495-12.71ZM204.6.341c4.154,0,6.665-1.86,6.665-4.9,0-3.441-3.441-4.154-5.58-4.619-2.046-.434-3.224-.62-3.224-1.7,0-.961.93-1.488,2.573-1.488a5.981,5.981,0,0,1,4.433,2.015,2.233,2.233,0,0,0,1.395-1.86c0-1.736-2.015-3.224-6.107-3.224-3.844,0-6.324,1.953-6.324,4.9,0,3.441,3.255,4.123,5.332,4.588,2.046.434,3.255.62,3.255,1.767,0,.961-.961,1.457-2.666,1.457a6.767,6.767,0,0,1-4.991-2.015,2.081,2.081,0,0,0-1.333,1.8C198.028-1.209,200.167.341,204.6.341Zm11.532-17.98a2.14,2.14,0,0,0,2.418-2.232,2.118,2.118,0,0,0-2.418-2.2,2.158,2.158,0,0,0-2.449,2.2A2.165,2.165,0,0,0,216.132-17.639ZM215.915.124h.465c1.116,0,1.922-.5,1.922-2.077V-13.175c0-1.612-.775-2.108-1.953-2.108h-.465c-1.116,0-1.953.527-1.953,2.108V-1.953C213.931-.341,214.768.124,215.915.124Zm7.161-11.842v6.944c0,3.41,1.55,5.177,4.9,5.177,2.48,0,4-1.24,4-2.759a1.709,1.709,0,0,0-1.054-1.7,2.373,2.373,0,0,1-1.953,1.023c-1.178,0-1.674-.744-1.674-2.232v-6.448h2.666c1.271,0,1.829-.558,1.829-1.612v-.248c0-1.023-.527-1.55-1.767-1.55h-2.635V-17.05c0-1.612-.775-2.108-1.953-2.108h-.372a1.836,1.836,0,0,0-1.984,2.108v1.922h-.744c-1.24,0-1.829.558-1.829,1.612v.279c0,.992.589,1.519,1.829,1.519ZM239.94-2.511c-1.457,0-2.356-.713-2.356-1.829,0-1.643,1.8-2.325,5.239-2.418l.806-.031v.868A3.418,3.418,0,0,1,239.94-2.511Zm3.689-6.665h-.5C236.5-9.083,233.4-7.5,233.4-4.03c0,2.573,1.922,4.371,5.084,4.371A6.188,6.188,0,0,0,243.722-2.2,2.459,2.459,0,0,0,246.3.217c.837,0,1.643-.279,1.643-.5V-9.238c0-4.061-2.356-6.231-7.13-6.231-4.619,0-6.851,1.86-6.851,3.751,0,2.015,2.821,1.922,2.821,1.86a3.871,3.871,0,0,1,3.751-2.325C242.544-12.183,243.629-11.129,243.629-9.176Zm11.78-3.534c-.279-2.046-1.519-2.573-2.666-2.573a2.424,2.424,0,0,0-1.643.5V-1.953c0,1.612.806,2.077,1.984,2.077h.465c1.116,0,1.922-.5,1.922-2.077V-6.479c0-3.038.93-4.9,3.069-4.9a2.875,2.875,0,0,1,1.984.744,2.261,2.261,0,0,0,1.4-2.294c0-1.55-1.054-2.542-2.821-2.542A3.742,3.742,0,0,0,255.409-12.71Zm10.881-4.929a2.14,2.14,0,0,0,2.418-2.232,2.118,2.118,0,0,0-2.418-2.2,2.158,2.158,0,0,0-2.449,2.2A2.165,2.165,0,0,0,266.29-17.639ZM266.073.124h.465c1.116,0,1.922-.5,1.922-2.077V-13.175c0-1.612-.775-2.108-1.953-2.108h-.465c-1.116,0-1.953.527-1.953,2.108V-1.953C264.089-.341,264.926.124,266.073.124ZM279.124.4c4.836,0,8.091-3.193,8.091-7.9a7.616,7.616,0,0,0-8.029-7.967c-4.805,0-8.122,3.255-8.122,7.936C271.064-2.79,274.319.4,279.124.4Zm.031-3.441a4.24,4.24,0,0,1-4.247-4.5,4.249,4.249,0,0,1,4.247-4.526A4.251,4.251,0,0,1,283.371-7.5,4.225,4.225,0,0,1,279.155-3.038Z" transform="translate(451 138)"/><g class="d" transform="translate(217.03 112.767)"><g class="e" transform="translate(-217.03 -23.891)"><path class="f" d="M604.514-880.729h89.258V-922.11H604.514Z" transform="translate(-394.161 939.324)"/></g></g><g class="g" transform="translate(312.727 118.308)"><g class="e" transform="translate(-312.727 -29.433)"><path class="f" d="M676.172-882.121H708.4v-35.84H676.172Z" transform="translate(-370.123 940.716)"/></g></g><g class="h" transform="translate(377.443 118.296)"><g class="e" transform="translate(-377.443 -29.421)"><path class="f" d="M724.632-882.494H748.3V-917.97H724.632Z" transform="translate(-353.866 940.713)"/></g></g><g class="i" transform="translate(295.095 118.215)"><g class="e" transform="translate(-295.095 -29.34)"><path class="f" d="M662.97-882.183H691.51V-918.03H662.97Z" transform="translate(-374.552 940.693)"/></g></g><g class="j" transform="translate(333.842 118.276)"><g class="e" transform="translate(-333.842 -29.402)"><path class="f" d="M691.983-875.673h31.627v-42.311H691.983Z" transform="translate(-364.819 940.708)"/></g></g><g class="k" transform="translate(388.886 118.215)"><g class="e" transform="translate(-388.886 -29.34)"><path class="f" d="M733.2-882.183h32.94V-918.03H733.2Z" transform="translate(-350.992 940.693)"/></g></g><g class="l" transform="translate(355.424 118.67)"><g class="e" transform="translate(-355.424 -29.795)"><path class="f" d="M708.144-882.147h31.969v-35.542H708.144Z" transform="translate(-359.397 940.807)"/></g></g><g class="m" transform="translate(170.938 106.845)"><g class="e" transform="translate(-170.939 -17.97)"><g class="n" transform="translate(171.419 17.215)"><g class="o" transform="translate(0 0)"><g class="p" transform="translate(-0.481 0.754)"><g class="q" transform="translate(0 -0.609)"><path class="c" d="M570-873.709h52v-52.835H570Z" transform="translate(-576.677 920.476)"/></g></g></g></g></g></g><g class="r" transform="translate(428.682 107.571)"><g class="e" transform="translate(-428.682 -18.696)"><path class="c" d="M763-873.917h16.025V-926H763Z" transform="translate(-340.996 938.019)"/></g></g></g></svg>