<svg xmlns="http://www.w3.org/2000/svg" width="514.938" height="30.907" viewBox="0 0 514.938 30.907"><defs><style>.a,.e{fill:#0855c4;}.a{fill-rule:evenodd;}.b{fill:#00adee;}.c{fill:none;stroke:#0855c4;stroke-width:2px;}.d{isolation:isolate;}</style></defs><g transform="translate(-140 -24.092)"><g transform="translate(140 24.092)"><path class="a" d="M10.217,8.839A4.039,4.039,0,0,0,6.2,12.856V38.888H32.232a4.022,4.022,0,0,0,4.017-4.056V8.8H10.217ZM29.258,30.507,13.23,33.4V17.259l16.029-2.9Z" transform="translate(-6.2 -8.8)"/><path class="b" d="M149.87,24.81c-4.712,0-8.072,3.4-8.111,8.961a8.1,8.1,0,0,0,8.111,8.188c2.433,0,3.978-.386,4.828-1.12V38.058a9.406,9.406,0,0,1-4.055.811c-2.549,0-4.558-1.39-4.905-3.592l-.039-.193h2.974c2.781,0,4.751-.232,5.987-.85a3.025,3.025,0,0,0,1.777-3.051,6.277,6.277,0,0,0-6.566-6.373m1.931,7.223a13.256,13.256,0,0,1-3.978.386h-2.047v-.193l.039-.579a3.767,3.767,0,0,1,3.708-3.747,4.217,4.217,0,0,1,2.433.657,2.39,2.39,0,0,1,.927,2.008,1.4,1.4,0,0,1-1.081,1.468m6.721-.85V41.612h3.862V31.917a4.434,4.434,0,0,1,.773-2.858,2.861,2.861,0,0,1,2.279-.888,8.226,8.226,0,0,1,1.043.077v-3.09a4.564,4.564,0,0,0-1.97-.386c-4.287.039-5.987,3.09-5.987,6.412M107.5,41.612h3.862V20.6H107.5Zm14.291-16.8c-5.176,0-7.416,3.553-7.454,7.03v9.772H118.2v-9.5a4.4,4.4,0,0,1,.888-2.9,2.941,2.941,0,0,1,2.356-1.043,3.224,3.224,0,0,1,2.626,1.043A4.742,4.742,0,0,1,125,32.419V41.65h3.862V32.033a6.729,6.729,0,0,0-7.068-7.223m13.9-4.21h-3.824V35.779c.039,3.862,1.97,6.141,6.141,6.141,1.777,0,2.858-.579,3.283-1.506V38.019a7.014,7.014,0,0,1-2.781.425,2.809,2.809,0,0,1-2.086-.734,3.4,3.4,0,0,1-.734-2.433V28.17h3.36c1.622,0,2.317-1.043,2.317-1.815V24.81H135.7Z" transform="translate(-68.374 -16.042)"/><path class="b" d="M313.039,40.786a3.025,3.025,0,0,0,1.777-3.051,6.347,6.347,0,0,0-6.6-6.334c-4.712,0-8.072,3.4-8.111,8.961a8.1,8.1,0,0,0,8.111,8.188c2.433,0,3.978-.386,4.867-1.12V44.648a9.4,9.4,0,0,1-4.056.811c-2.549,0-4.558-1.39-4.905-3.592l-.039-.193h2.974c2.781,0,4.751-.27,5.987-.888m-8.922-1.738v-.193l.039-.579a3.767,3.767,0,0,1,3.708-3.747,4.217,4.217,0,0,1,2.433.657,2.39,2.39,0,0,1,.927,2.008,1.416,1.416,0,0,1-1.082,1.429,13.256,13.256,0,0,1-3.978.386h-2.047Z" transform="translate(-186.585 -22.671)"/><path class="b" d="M430.5,37.812V48.24h3.9V38.545a4.434,4.434,0,0,1,.773-2.858,2.861,2.861,0,0,1,2.279-.888,8.232,8.232,0,0,1,1.043.077v-3.09a4.565,4.565,0,0,0-1.97-.386c-4.287.039-5.987,3.09-6.025,6.412" transform="translate(-266.619 -22.671)"/><path class="b" d="M270.107,48.472c-2.82,0-4.944-1.545-4.944-3.206V43.412h.154a7.444,7.444,0,0,0,4.635,1.545c1.892,0,2.781-.579,2.781-1.777,0-.927-.541-1.39-3.206-1.777-3.244-.5-4.828-1.854-4.828-4.326,0-3.051,2.588-5.678,6.527-5.678,3.476,0,4.905,1.893,4.905,3.476v1.545h-.155a6.46,6.46,0,0,0-4.4-1.506c-2.356,0-3.09.772-3.09,1.815,0,.811.464,1.159,3.09,1.622,3.206.541,4.905,2.047,4.905,4.635.039,3.438-2.24,5.485-6.373,5.485" transform="translate(-164.858 -22.671)"/><path class="b" d="M356.714,43.628c.039.657.077,1.545.077,2.086,0,4.094-2.588,7.763-7.532,7.763-3.167,0-5.33-1.622-5.33-3.592V48.031h.155a6.5,6.5,0,0,0,4.867,1.777c2.781,0,4.017-1.39,4.017-3.747a6.54,6.54,0,0,0-.039-.85c0-.232-.039-.657-.039-.811v-.386c-.309,1.2-1.777,2.433-3.978,2.433a6.281,6.281,0,0,1-6.412-6.6c0-4.6,2.858-8.343,7.8-8.343,3.824,0,6.3,2.974,6.3,7.184v2.781a17.379,17.379,0,0,1,.116,2.163M346.478,39.3c0,2.163,1.236,3.747,3.09,3.747,1.931,0,3.322-1.545,3.322-4.171,0-2.588-1.2-3.824-2.9-3.824-2.009,0-3.515,1.777-3.515,4.249" transform="translate(-212.608 -22.732)"/><path class="b" d="M461.3,31.3c4.712,0,7.454,3.94,7.454,8.3,0,4.905-2.7,8.845-7.8,8.845-4.712,0-7.454-3.9-7.454-8.266.039-4.944,2.742-8.884,7.8-8.884m-.348,3.438c-2.356,0-3.515,2.008-3.515,4.828,0,3.4,1.2,5.407,3.9,5.407,2.356,0,3.515-2.047,3.515-4.828,0-3.4-1.236-5.407-3.9-5.407" transform="translate(-280.736 -22.61)"/><path class="b" d="M393.329,49.079c5.137,0,7.416-3.553,7.416-7.03V32.2h-3.824v9.579a4.4,4.4,0,0,1-.888,2.9,2.941,2.941,0,0,1-2.356,1.043,3.224,3.224,0,0,1-2.626-1.043,4.741,4.741,0,0,1-.927-3.206V32.2H386.3v9.617c-.039,4.712,3.128,7.261,7.029,7.261" transform="translate(-239.491 -23.162)"/></g><path class="c" d="M19708.334,7152v24.752" transform="translate(-19365.438 -7123.738)"/><g class="d" transform="translate(-357.432 -3425.618)"><g class="d"><path class="e" d="M727.727,3470.841h-6.162l-1.014,2.7c-.468,1.326-1.274,1.768-2.106,1.768-1.066,0-2.132-.832-2-1.17l5.746-14.847c.208-.7.754-1.144,2.5-1.144,1.768,0,2.236.442,2.471,1.144l5.876,14.821c.129.312-.937,1.2-2.081,1.2a2.352,2.352,0,0,1-2.209-1.82Zm-5.408-2.86h4.629l-2.315-6.111Z"/><path class="e" d="M733.889,3468.787a6.412,6.412,0,0,1,6.682-6.6c3.874,0,5.408,2.21,5.408,3.431,0,1.483-1.95,1.743-2.028,1.613a3.161,3.161,0,0,0-3.224-2.107,3.446,3.446,0,0,0-3.458,3.667,3.484,3.484,0,0,0,3.458,3.744,3.206,3.206,0,0,0,3.224-2.106c.052-.156,2.028.078,2.028,1.638,0,1.2-1.612,3.406-5.408,3.406A6.4,6.4,0,0,1,733.889,3468.787Z"/><path class="e" d="M746.914,3464.028v-.233c0-.885.495-1.353,1.535-1.353h.624v-1.612a1.54,1.54,0,0,1,1.664-1.767h.311c.988,0,1.639.416,1.639,1.767v1.612h2.21c1.04,0,1.482.443,1.482,1.3v.208c0,.884-.469,1.353-1.509,1.353h-2.261v5.408c0,1.248.416,1.872,1.4,1.872a1.991,1.991,0,0,0,1.638-.858,1.434,1.434,0,0,1,.883,1.429c0,1.275-1.273,2.315-3.353,2.315-2.809,0-4.108-1.483-4.108-4.342V3465.3h-.624C747.409,3465.3,746.914,3464.86,746.914,3464.028Z"/><path class="e" d="M767.143,3473.233a4.776,4.776,0,0,1-4.16,2.236c-3.328,0-4.707-2.34-4.707-5.252v-6.137c0-1.326.676-1.767,1.612-1.767h.391c.962,0,1.664.416,1.664,1.767v5.591c0,1.689.857,2.73,2.391,2.73a3.045,3.045,0,0,0,2.731-1.665v-6.656c0-1.326.676-1.767,1.637-1.767h.365c.988,0,1.664.416,1.664,1.767v10.738c0,.131-.624.416-1.378.416A2.106,2.106,0,0,1,767.143,3473.233Z"/><path class="e" d="M772.836,3471.751c0-2.912,2.6-4.238,8.164-4.316h.416a2.3,2.3,0,0,0-2.6-2.523,3.248,3.248,0,0,0-3.147,1.95c0,.052-2.366.13-2.366-1.559,0-1.586,1.872-3.147,5.746-3.147,4,0,5.981,1.821,5.981,5.227v7.514c0,.182-.676.416-1.378.416a2.044,2.044,0,0,1-2.159-2,5.2,5.2,0,0,1-4.394,2.106C774.449,3475.417,772.836,3473.909,772.836,3471.751Zm8.58-1.586v-.728l-.675.026c-2.887.078-4.4.649-4.4,2.027,0,.937.754,1.535,1.977,1.535A2.866,2.866,0,0,0,781.416,3470.165Z"/><path class="e" d="M787.785,3473.493v-16.016c0-.131.651-.416,1.379-.416,1.092,0,2.288.571,2.288,2.937v13.495c0,1.325-.676,1.741-1.612,1.741h-.39C788.488,3475.234,787.785,3474.845,787.785,3473.493Z"/><path class="e" d="M794.207,3458.464a2.063,2.063,0,1,1,2.054,1.872A1.811,1.811,0,0,1,794.207,3458.464Zm.208,15.029v-9.413c0-1.326.7-1.767,1.638-1.767h.391c.987,0,1.637.416,1.637,1.767v9.413c0,1.325-.675,1.741-1.612,1.741h-.39C795.117,3475.234,794.415,3474.845,794.415,3473.493Z"/><path class="e" d="M800.343,3473.831v-.208a2.172,2.172,0,0,1,.806-1.742l5.669-6.605H801.9c-1.015,0-1.483-.416-1.483-1.326v-.181c0-.859.468-1.327,1.483-1.327h8.164a1.252,1.252,0,0,1,1.4,1.275v.182a2.108,2.108,0,0,1-.807,1.69l-5.824,6.708h5.383c1.014,0,1.481.416,1.481,1.326v.156c0,.884-.467,1.352-1.481,1.352h-8.5A1.247,1.247,0,0,1,800.343,3473.831Z"/><path class="e" d="M812.616,3471.751c0-2.912,2.6-4.238,8.164-4.316h.416a2.3,2.3,0,0,0-2.6-2.523,3.246,3.246,0,0,0-3.146,1.95c0,.052-2.367.13-2.367-1.559,0-1.586,1.872-3.147,5.746-3.147,4,0,5.981,1.821,5.981,5.227v7.514c0,.182-.676.416-1.378.416a2.043,2.043,0,0,1-2.158-2,5.206,5.206,0,0,1-4.395,2.106C814.228,3475.417,812.616,3473.909,812.616,3471.751Zm8.58-1.586v-.728l-.676.026c-2.887.078-4.4.649-4.4,2.027,0,.937.754,1.535,1.977,1.535A2.867,2.867,0,0,0,821.2,3470.165Z"/><path class="e" d="M831.075,3464.471a3.139,3.139,0,0,1,3.094-2.315,2.09,2.09,0,0,1,2.366,2.132,1.9,1.9,0,0,1-1.169,1.925,2.413,2.413,0,0,0-1.665-.624c-1.793,0-2.574,1.56-2.574,4.107v3.8c0,1.325-.676,1.741-1.612,1.741h-.39c-.988,0-1.664-.389-1.664-1.741v-10.764a2.03,2.03,0,0,1,1.378-.416A2.142,2.142,0,0,1,831.075,3464.471Z"/><path class="e" d="M846.259,3464.341a4.547,4.547,0,0,1,3.926-2.185,3.963,3.963,0,0,1,4.057,2.6,4.778,4.778,0,0,1,4.29-2.6c3.223,0,4.576,2.055,4.576,5.044v6.293c0,1.325-.677,1.741-1.613,1.741h-.389c-.989,0-1.664-.389-1.664-1.741V3467.8c0-1.69-.755-2.574-2.211-2.574a2.962,2.962,0,0,0-2.522,1.559v6.709c0,1.325-.65,1.741-1.612,1.741h-.364c-.988,0-1.69-.389-1.69-1.741v-5.616q0-2.652-2.184-2.652a2.963,2.963,0,0,0-2.522,1.559v6.709c0,1.325-.677,1.741-1.612,1.741h-.391c-.987,0-1.664-.389-1.664-1.741v-10.764a2.031,2.031,0,0,1,1.379-.416A2.1,2.1,0,0,1,846.259,3464.341Z"/><path class="e" d="M865.057,3468.891a6.477,6.477,0,0,1,6.63-6.735,6.054,6.054,0,0,1,6.318,6.345v.26c-.026.649-.208,1.014-.884,1.014h-8.762a3.442,3.442,0,0,0,3.692,3.016,3.84,3.84,0,0,0,3.588-1.872c.026-.052,1.769.182,1.769,1.638,0,1.378-1.951,2.912-5.487,2.912C867.786,3475.469,865.057,3472.9,865.057,3468.891Zm3.3-1.248h6.24a2.833,2.833,0,0,0-2.964-2.939A3.291,3.291,0,0,0,868.359,3467.643Z"/><path class="e" d="M879.357,3468.813c0-4.031,2.418-6.657,5.927-6.657a4.861,4.861,0,0,1,4.057,1.924v-6.6c0-.131.65-.416,1.378-.416,1.092,0,2.288.571,2.288,2.937v13.495c0,1.325-.676,1.741-1.612,1.741h-.39c-.988,0-1.664-.389-1.664-1.741v-.416a4.511,4.511,0,0,1-4.108,2.392C881.8,3475.469,879.357,3472.791,879.357,3468.813Zm9.984.728v-2.418a3.243,3.243,0,0,0-3.146-2.028c-2,0-3.3,1.456-3.3,3.718,0,2.21,1.351,3.744,3.25,3.744A3.045,3.045,0,0,0,889.341,3469.541Z"/><path class="e" d="M895.658,3458.464a2.063,2.063,0,1,1,2.054,1.872A1.81,1.81,0,0,1,895.658,3458.464Zm.208,15.029v-9.413c0-1.326.7-1.767,1.638-1.767h.39c.988,0,1.639.416,1.639,1.767v9.413c0,1.325-.677,1.741-1.613,1.741h-.39C896.568,3475.234,895.866,3474.845,895.866,3473.493Z"/><path class="e" d="M901.716,3468.787a6.787,6.787,0,0,1,13.572.052c0,3.952-2.755,6.63-6.812,6.63A6.366,6.366,0,0,1,901.716,3468.787Zm10.322.052a3.556,3.556,0,1,0-3.536,3.744A3.566,3.566,0,0,0,912.038,3468.839Z"/><path class="e" d="M921.112,3468.813c0-4.031,2.418-6.657,5.927-6.657a4.861,4.861,0,0,1,4.057,1.924v-6.6c0-.131.649-.416,1.378-.416,1.092,0,2.288.571,2.288,2.937v13.495c0,1.325-.676,1.741-1.612,1.741h-.39c-.988,0-1.664-.389-1.664-1.741v-.416a4.511,4.511,0,0,1-4.108,2.392C923.555,3475.469,921.112,3472.791,921.112,3468.813Zm9.984.728v-2.418a3.243,3.243,0,0,0-3.146-2.028c-2,0-3.3,1.456-3.3,3.718,0,2.21,1.351,3.744,3.25,3.744A3.045,3.045,0,0,0,931.1,3469.541Z"/><path class="e" d="M936.841,3468.891a6.477,6.477,0,0,1,6.631-6.735,6.053,6.053,0,0,1,6.317,6.345v.26c-.025.649-.208,1.014-.883,1.014h-8.762a3.442,3.442,0,0,0,3.691,3.016,3.842,3.842,0,0,0,3.589-1.872c.026-.052,1.768.182,1.768,1.638,0,1.378-1.95,2.912-5.487,2.912C939.572,3475.469,936.841,3472.9,936.841,3468.891Zm3.3-1.248h6.24a2.833,2.833,0,0,0-2.965-2.939A3.291,3.291,0,0,0,940.144,3467.643Z"/><path class="e" d="M956.237,3478.433v-15.7a2.029,2.029,0,0,1,1.379-.416c.961,0,2,.467,2.235,2.21a4.536,4.536,0,0,1,4.16-2.367c3.433,0,5.877,2.575,5.877,6.631,0,3.951-2.419,6.682-5.929,6.682a4.453,4.453,0,0,1-4.055-2.315v5.279c0,1.326-.677,1.768-1.613,1.768h-.39C956.913,3480.2,956.237,3479.785,956.237,3478.433Zm10.115-9.62c0-2.21-1.326-3.718-3.251-3.718a3.318,3.318,0,0,0-3.2,2.08v2.47a3.018,3.018,0,0,0,3.171,2.912C965.051,3472.557,966.352,3471.049,966.352,3468.813Z"/><path class="e" d="M971.317,3471.751c0-2.912,2.6-4.238,8.165-4.316h.416a2.3,2.3,0,0,0-2.6-2.523,3.249,3.249,0,0,0-3.146,1.95c0,.052-2.366.13-2.366-1.559,0-1.586,1.873-3.147,5.747-3.147,4,0,5.979,1.821,5.979,5.227v7.514c0,.182-.676.416-1.378.416a2.043,2.043,0,0,1-2.158-2,5.2,5.2,0,0,1-4.394,2.106C972.929,3475.417,971.317,3473.909,971.317,3471.751Zm8.581-1.586v-.728l-.677.026c-2.886.078-4.394.649-4.394,2.027,0,.937.754,1.535,1.976,1.535A2.867,2.867,0,0,0,979.9,3470.165Z"/><path class="e" d="M984.655,3477.081c0-1.768,1.638-2.938,3.952-3.276a1.548,1.548,0,0,1-.442-1.17,1.9,1.9,0,0,1,.858-1.483,4.363,4.363,0,0,1-3.485-4.185c0-2.731,2.419-4.784,5.8-4.784a7.1,7.1,0,0,1,2.73.546l.547-1.04a1.939,1.939,0,0,1,1.819-1.275,1.981,1.981,0,0,1,1.794,1.561l-2.21,2.1a4.129,4.129,0,0,1,1.144,2.834c0,2.7-2.262,4.551-5.8,4.551h-.182a.512.512,0,0,0-.052.26c0,.7,1.222.78,3.277,1.3,1.794.494,3.666,1.456,3.666,3.588,0,2.444-2.523,4-6.839,4C986.683,3480.617,984.655,3479.5,984.655,3477.081Zm6.6-1.95c-1.82.13-3.12.728-3.12,1.742,0,.884,1.04,1.43,3.146,1.43s3.276-.572,3.276-1.56C994.561,3475.7,992.923,3475.521,991.259,3475.131Zm2.5-8.217a2.286,2.286,0,0,0-2.444-2.365,2.258,2.258,0,0,0-2.392,2.365,2.418,2.418,0,0,0,4.836,0Z"/><path class="e" d="M998.8,3468.787a6.787,6.787,0,0,1,13.572.052c0,3.952-2.755,6.63-6.811,6.63A6.367,6.367,0,0,1,998.8,3468.787Zm10.322.052a3.555,3.555,0,1,0-3.536,3.744A3.565,3.565,0,0,0,1009.12,3468.839Z"/></g></g></g></svg>