<svg xmlns="http://www.w3.org/2000/svg" xmlns:xlink="http://www.w3.org/1999/xlink" width="502.293" height="35.715" viewBox="0 0 502.293 35.715"><defs><style>.a{fill:none;}.b{isolation:isolate;}.c{fill:#0854c4;}.d{clip-path:url(#a);}.e{clip-path:url(#b);}.f{fill:#00aded;}.g{clip-path:url(#c);}.h{clip-path:url(#e);}.i{clip-path:url(#f);}.j{clip-path:url(#g);}.k{clip-path:url(#i);}.l{clip-path:url(#k);}.m{clip-path:url(#m);}.n{clip-path:url(#o);}.o{clip-path:url(#q);}.p{clip-path:url(#r);}.q{clip-path:url(#s);}.r{clip-path:url(#t);}</style><clipPath id="a"><path class="a" d="M814.144,71.086h-4.357l.015,17.642c.024,4.477,2.231,7.116,6.994,7.141,2.023-.005,3.238-.676,3.739-1.752V91.338a7.871,7.871,0,0,1-3.168.513,3.086,3.086,0,0,1-2.38-.87,4.076,4.076,0,0,1-.842-2.836V79.889h3.816c1.866,0,2.646-1.217,2.654-2.117V75.985h-6.471Zm-15.8,4.9c-5.877.006-8.439,4.112-8.455,8.148v11.4h4.379V84.46a5.2,5.2,0,0,1,1.015-3.359,3.349,3.349,0,0,1,2.67-1.212,3.755,3.755,0,0,1,3.008,1.2,5.606,5.606,0,0,1,1.07,3.732V95.538H806.4V84.4c-.009-5.429-3.628-8.394-8.06-8.406Zm-16.277,19.55h4.4V71.086h-4.4Zm58-12.137V95.536h4.409V84.27a5.062,5.062,0,0,1,.9-3.317,3.213,3.213,0,0,1,2.608-1.039,7.085,7.085,0,0,1,1.2.1v-3.57a4.818,4.818,0,0,0-2.232-.468c-4.94.008-6.869,3.583-6.886,7.424Zm-7.613,1.007a14.945,14.945,0,0,1-4.538.432h-2.344l.014-.207.035-.654a4.333,4.333,0,0,1,4.219-4.342,4.5,4.5,0,0,1,2.762.774,2.836,2.836,0,0,1,1.065,2.348,1.6,1.6,0,0,1-1.212,1.649Zm-2.189-8.42c-5.377.006-9.187,3.965-9.2,10.391a9.261,9.261,0,0,0,9.025,9.49l.215,0c2.779,0,4.5-.443,5.509-1.283V91.335a10.45,10.45,0,0,1-4.62.948c-2.877.009-5.192-1.6-5.569-4.18l-.033-.229h3.36c3.161,0,5.386-.291,6.791-1a3.536,3.536,0,0,0,2.016-3.535,7.269,7.269,0,0,0-7.184-7.354c-.1,0-.2,0-.306,0Z"/></clipPath><clipPath id="b"><rect class="a" width="1700.529" height="1062.831" transform="translate(590.152 49.959)"/></clipPath><clipPath id="c"><path class="a" d="M871.2,84.839l.016-.207.031-.654a4.333,4.333,0,0,1,4.215-4.341,4.5,4.5,0,0,1,2.765.774,2.814,2.814,0,0,1,1.065,2.348,1.6,1.6,0,0,1-1.211,1.648,14.921,14.921,0,0,1-4.539.432Zm10.165,2.034a3.536,3.536,0,0,0,2.017-3.535,7.268,7.268,0,0,0-7.182-7.354c-.1,0-.2,0-.306,0-5.378.006-9.191,3.965-9.2,10.391a9.26,9.26,0,0,0,9.023,9.49l.213,0c2.78,0,4.509-.443,5.514-1.283V91.335a10.459,10.459,0,0,1-4.622.949c-2.879.009-5.193-1.6-5.57-4.18l-.031-.229h3.36c3.157,0,5.391-.291,6.789-1Z"/></clipPath><clipPath id="e"><path class="a" d="M923.919,83.4V95.537h4.414V84.271a5.062,5.062,0,0,1,.9-3.317,3.221,3.221,0,0,1,2.608-1.039,6.992,6.992,0,0,1,1.2.1v-3.57a4.827,4.827,0,0,0-2.234-.468c-4.937.008-6.866,3.583-6.887,7.424"/></clipPath><clipPath id="f"><rect class="a" width="1700.529" height="1062.831" transform="translate(590.152 49.96)"/></clipPath><clipPath id="g"><path class="a" d="M857.231,95.794c-3.217,0-5.619-1.8-5.619-3.736V89.9h.162a8.279,8.279,0,0,0,5.254,1.8c2.144,0,3.181-.671,3.181-2.085,0-1.092-.617-1.618-3.638-2.079-3.7-.564-5.476-2.151-5.476-5.042,0-3.564,2.948-6.6,7.426-6.6,3.966,0,5.583,2.22,5.583,4.054v1.8h-.162a7.271,7.271,0,0,0-5-1.758c-2.664,0-3.505.877-3.505,2.114,0,.953.52,1.342,3.505,1.869,3.627.637,5.577,2.363,5.577,5.4,0,4.021-2.6,6.417-7.293,6.417"/></clipPath><clipPath id="i"><path class="a" d="M889.8,85.063c0,2.494,1.4,4.347,3.506,4.347,2.194,0,3.768-1.781,3.768-4.845,0-2.991-1.381-4.455-3.307-4.455-2.26,0-3.967,2.069-3.967,4.953m11.648,5.042c.032.775.07,1.8.07,2.432,0,4.761-2.921,9.028-8.567,9.028-3.6,0-6.069-1.9-6.069-4.159V95.254h.193a7.374,7.374,0,0,0,5.553,2.045c3.142,0,4.569-1.62,4.569-4.373,0-.279,0-.669-.03-.99,0-.279-.03-.775-.03-.949v-.456c-.36,1.372-2.014,2.818-4.509,2.818-4.254,0-7.269-3.209-7.269-7.691,0-5.36,3.239-9.7,8.886-9.7,4.352,0,7.137,3.456,7.137,8.327v3.244c0,.635.032,1.727.065,2.575"/></clipPath><clipPath id="k"><path class="a" d="M942.494,79.894c-2.66,0-4.013,2.352-4.013,5.624,0,3.93,1.353,6.286,4.421,6.286,2.7,0,4.012-2.356,4.012-5.59,0-3.968-1.385-6.32-4.42-6.32m.4-3.99c5.371,0,8.46,4.583,8.46,9.63,0,5.711-3.089,10.26-8.86,10.26-5.372,0-8.46-4.549-8.46-9.591,0-5.716,3.088-10.3,8.859-10.3"/></clipPath><clipPath id="m"><path class="a" d="M912.482,95.927c5.856-.01,8.412-4.127,8.424-8.177V76.309h-4.359V87.424a5.23,5.23,0,0,1-1.015,3.367,3.323,3.323,0,0,1-2.659,1.22,3.737,3.737,0,0,1-3-1.205,5.65,5.65,0,0,1-1.065-3.745V76.309H904.45V87.5c.01,5.45,3.611,8.422,8.036,8.434"/></clipPath><clipPath id="o"><rect class="a" width="34.173" height="34.912" transform="translate(741.31 65.85)"/></clipPath><clipPath id="q"><rect class="a" width="34" height="37" transform="translate(741.31 65.394)"/></clipPath><clipPath id="r"><path class="a" d="M767.5,91.047,749.29,94.409V75.627L767.5,72.264Zm-21.626-25.2a4.624,4.624,0,0,0-4.562,4.684v30.23h29.6a4.626,4.626,0,0,0,4.566-4.687V65.849Z"/></clipPath><clipPath id="s"><rect class="a" width="34.247" height="36.609" transform="translate(741.31 65.312)"/></clipPath><clipPath id="t"><path class="a" d="M970.409,66.492a1.181,1.181,0,0,1,1.181,1.181h0V99.558a1.18,1.18,0,0,1-1.181,1.181h0a1.18,1.18,0,0,1-1.181-1.18h0V67.673A1.181,1.181,0,0,1,970.409,66.492Z"/></clipPath></defs><g transform="translate(-128 -16)"><g transform="translate(-613.31 -49.85)"><g class="b"><g class="b"><path class="c" d="M994.462,77.07l3.976,11.7,3.949-11.7a2.35,2.35,0,0,1,2.239-1.9c1.316,0,2.576,1.008,2.408,1.372l-6.216,15.455a2.307,2.307,0,0,1-2.464,1.569,2.2,2.2,0,0,1-2.408-1.569l-6.328-15.455c-.168-.364,1.176-1.372,2.521-1.372A2.457,2.457,0,0,1,994.462,77.07Z"/><path class="c" d="M1008.742,75.446a2.221,2.221,0,1,1,2.212,2.017A1.949,1.949,0,0,1,1008.742,75.446Zm.224,16.185V81.494c0-1.428.756-1.9,1.763-1.9h.42c1.065,0,1.765.448,1.765,1.9V91.631c0,1.428-.728,1.876-1.736,1.876h-.42C1009.722,93.507,1008.966,93.087,1008.966,91.631Z"/><path class="c" d="M1015.266,86.591c0-4.34,2.6-7.168,6.383-7.168a5.235,5.235,0,0,1,4.369,2.071V74.383c0-.141.7-.448,1.484-.448,1.176,0,2.464.616,2.464,3.164V91.631c0,1.428-.729,1.876-1.737,1.876h-.419c-1.065,0-1.792-.42-1.792-1.876v-.448a4.862,4.862,0,0,1-4.424,2.576C1017.9,93.759,1015.266,90.875,1015.266,86.591Zm10.752.784v-2.6a3.493,3.493,0,0,0-3.388-2.184c-2.156,0-3.557,1.567-3.557,4,0,2.38,1.456,4.031,3.5,4.031A3.279,3.279,0,0,0,1026.018,87.375Z"/><path class="c" d="M1032.233,89.755c0-3.137,2.8-4.565,8.792-4.649h.449a2.477,2.477,0,0,0-2.8-2.715,3.5,3.5,0,0,0-3.389,2.1c0,.057-2.548.141-2.548-1.679,0-1.708,2.017-3.388,6.189-3.388,4.311,0,6.439,1.96,6.439,5.628v8.092c0,.2-.727.448-1.483.448a2.2,2.2,0,0,1-2.324-2.156,5.608,5.608,0,0,1-4.733,2.267C1033.97,93.7,1032.233,92.078,1032.233,89.755Zm9.241-1.708v-.784l-.729.028c-3.107.084-4.731.7-4.731,2.184,0,1.007.811,1.652,2.128,1.652A3.087,3.087,0,0,0,1041.474,88.047Z"/><path class="c" d="M1052.253,86.563a6.906,6.906,0,0,1,7.2-7.113c4.172,0,5.824,2.381,5.824,3.7,0,1.6-2.1,1.876-2.184,1.737a3.4,3.4,0,0,0-3.472-2.269,3.711,3.711,0,0,0-3.723,3.949,3.751,3.751,0,0,0,3.723,4.032,3.451,3.451,0,0,0,3.472-2.269c.057-.168,2.184.084,2.184,1.765,0,1.288-1.736,3.668-5.824,3.668A6.9,6.9,0,0,1,1052.253,86.563Z"/><path class="c" d="M1066.645,86.563c0-4.2,3-7.14,7.335-7.14a6.9,6.9,0,0,1,7.281,7.195c0,4.257-2.968,7.141-7.336,7.141C1069.585,93.759,1066.645,90.875,1066.645,86.563Zm11.116.055a3.829,3.829,0,1,0-3.808,4.032A3.839,3.839,0,0,0,1077.761,86.618Z"/><path class="c" d="M1087.365,81.831a5.188,5.188,0,0,1,4.508-2.408c3.556,0,5.067,2.519,5.067,5.655v6.553c0,1.428-.727,1.876-1.735,1.876h-.42c-1.064,0-1.792-.42-1.792-1.876V85.667c0-1.82-.925-2.94-2.52-2.94a3.312,3.312,0,0,0-3.024,1.792v7.112c0,1.428-.728,1.876-1.736,1.876h-.42c-1.064,0-1.792-.42-1.792-1.876V80.039a2.188,2.188,0,0,1,1.483-.448A2.3,2.3,0,0,1,1087.365,81.831Z"/><path class="c" d="M1104.669,91.127V77.574a2.1,2.1,0,0,1,2.184-2.3h4.591c6.077,0,9.744,3.389,9.744,8.989,0,5.628-3.78,9.128-9.883,9.128h-4.34A2.265,2.265,0,0,1,1104.669,91.127Zm6.607-1.261c3.613,0,5.8-2.044,5.8-5.571,0-3.473-2.183-5.488-5.739-5.488h-2.576V89.866Z"/><path class="c" d="M1122.841,86.675a6.974,6.974,0,0,1,7.139-7.252,6.519,6.519,0,0,1,6.8,6.832v.279c-.027.7-.223,1.093-.951,1.093H1126.4a3.709,3.709,0,0,0,3.977,3.248,4.135,4.135,0,0,0,3.863-2.017c.029-.055,1.905.2,1.905,1.764,0,1.484-2.1,3.137-5.909,3.137C1125.78,93.759,1122.841,90.986,1122.841,86.675Zm3.555-1.345h6.72a3.049,3.049,0,0,0-3.191-3.163A3.545,3.545,0,0,0,1126.4,85.33Z"/><path class="c" d="M1147.368,81.578c.5-1.567,1.317-2.015,2.156-2.015,1.2,0,2.212.952,2.128,1.175l-4.9,11.788a2.22,2.22,0,0,1-2.212,1.037c-.924,0-1.876-.2-2.212-1.008l-4.956-11.817c-.084-.223.952-1.175,2.128-1.175.952,0,1.736.448,2.24,2.015l2.772,8.2Z"/><path class="c" d="M1152.24,86.563c0-4.2,3-7.14,7.336-7.14a6.9,6.9,0,0,1,7.28,7.195c0,4.257-2.968,7.141-7.335,7.141C1155.18,93.759,1152.24,90.875,1152.24,86.563Zm11.116.055a3.829,3.829,0,1,0-3.808,4.032A3.839,3.839,0,0,0,1163.356,86.618Z"/><path class="c" d="M1169.208,91.631V74.383c0-.141.7-.448,1.484-.448,1.176,0,2.464.616,2.464,3.164V91.631c0,1.428-.728,1.876-1.736,1.876H1171C1169.964,93.507,1169.208,93.087,1169.208,91.631Z"/><path class="c" d="M1185.672,91.351a5.142,5.142,0,0,1-4.481,2.408c-3.584,0-5.067-2.521-5.067-5.656V81.494c0-1.428.728-1.9,1.735-1.9h.42c1.036,0,1.792.448,1.792,1.9v6.021c0,1.82.925,2.939,2.576,2.939a3.278,3.278,0,0,0,2.941-1.792V81.494c0-1.428.727-1.9,1.764-1.9h.392c1.064,0,1.792.448,1.792,1.9V93.059c0,.139-.673.448-1.484.448A2.269,2.269,0,0,1,1185.672,91.351Z"/><path class="c" d="M1191.775,86.563a6.907,6.907,0,0,1,7.2-7.113c4.172,0,5.824,2.381,5.824,3.7,0,1.6-2.1,1.876-2.185,1.737a3.4,3.4,0,0,0-3.471-2.269,3.711,3.711,0,0,0-3.724,3.949,3.751,3.751,0,0,0,3.724,4.032,3.449,3.449,0,0,0,3.471-2.269c.057-.168,2.185.084,2.185,1.765,0,1.288-1.736,3.668-5.824,3.668A6.9,6.9,0,0,1,1191.775,86.563Z"/><path class="c" d="M1206.783,75.446a2.221,2.221,0,1,1,2.212,2.017A1.949,1.949,0,0,1,1206.783,75.446Zm.225,16.185V81.494c0-1.428.756-1.9,1.763-1.9h.42c1.064,0,1.764.448,1.764,1.9V91.631c0,1.428-.727,1.876-1.735,1.876h-.42C1207.764,93.507,1207.008,93.087,1207.008,91.631Z"/><path class="c" d="M1213.307,86.563c0-4.2,3-7.14,7.336-7.14a6.9,6.9,0,0,1,7.28,7.195c0,4.257-2.968,7.141-7.336,7.141C1216.247,93.759,1213.307,90.875,1213.307,86.563Zm11.116.055a3.829,3.829,0,1,0-3.808,4.032A3.839,3.839,0,0,0,1224.423,86.618Zm-2.436-13.048a2.628,2.628,0,0,1,1.4-.475,1.657,1.657,0,0,1,1.792,1.54,2.618,2.618,0,0,1-1.372,2.128c-2.184,1.315-4.816,1.288-5.04.952C1218.571,77.351,1220.139,74.719,1221.987,73.57Z"/><path class="c" d="M1234.027,81.831a5.189,5.189,0,0,1,4.508-2.408c3.556,0,5.068,2.519,5.068,5.655v6.553c0,1.428-.728,1.876-1.736,1.876h-.42c-1.064,0-1.792-.42-1.792-1.876V85.667c0-1.82-.925-2.94-2.52-2.94a3.312,3.312,0,0,0-3.024,1.792v7.112c0,1.428-.728,1.876-1.736,1.876h-.42c-1.064,0-1.792-.42-1.792-1.876V80.039a2.188,2.188,0,0,1,1.483-.448A2.3,2.3,0,0,1,1234.027,81.831Z"/></g></g><g class="d"><g class="e"><path class="f" d="M776.164,101.774h78.93V65.181h-78.93Z"/></g></g><g class="g"><g class="e"><path class="f" d="M860.787,101.774h28.5V70.082h-28.5Z"/></g></g><g class="h"><g class="i"><path class="f" d="M918.014,101.441h20.93V70.071h-20.93Z"/></g></g><g class="j"><g class="e"><path class="f" d="M845.2,101.7h25.238V70H845.2Z"/></g></g><g class="k"><g class="i"><path class="f" d="M879.458,107.47h27.968V70.055H879.458Z"/></g></g><g class="l"><g class="e"><path class="f" d="M928.132,101.7h29.129V70H928.132Z"/></g></g><g class="m"><g class="e"><path class="f" d="M898.543,101.831h28.27V70.4h-28.27Z"/></g></g><g class="n"><g class="i"><g class="o"><g class="p"><g class="q"><path class="c" d="M735.405,106.667h45.982V59.946H735.405Z"/></g></g></g></g></g><g class="r"><g class="e"><path class="c" d="M963.324,106.643h14.171V60.587H963.324Z"/></g></g></g></g></svg>