<svg xmlns="http://www.w3.org/2000/svg" width="41.615" height="46.485" viewBox="0 0 41.615 46.485"><defs><style>.a{fill:#ff409e;}.b{fill:#fff;}</style></defs><g transform="translate(3 -10)"><path class="a" d="M1583.11,750.918h0a1.013,1.013,0,0,1-.6,0h0A29.126,29.126,0,0,1,1562,723.1v-9a3.321,3.321,0,0,1,2.595-3.241l18.213-6.381,18.212,6.381a3.32,3.32,0,0,1,2.6,3.241v9A29.125,29.125,0,0,1,1583.11,750.918Z" transform="translate(-1565 -694.479)"/><g transform="translate(9.374 25.566)"><path class="b" d="M1584.473,738.927l-5.885-5.528,2.216-2.36,3.747,3.519,10.527-9.211,2.132,2.437Z" transform="translate(-1578.588 -725.346)"/></g></g></svg>