<svg xmlns="http://www.w3.org/2000/svg" xmlns:xlink="http://www.w3.org/1999/xlink" width="527.48" height="508.983" viewBox="0 0 527.48 508.983"><defs><style>.a{fill:#b7cded;opacity:0.32;}.b,.g{fill:none;}.c{fill:#0d62bf;}.d{fill:#073499;}.e{fill:url(#a);}.f{fill:#ea0d91;}.g{stroke:#ff6700;stroke-miterlimit:10;}</style><linearGradient id="a" y1="0.5" x2="1" y2="0.5" gradientUnits="objectBoundingBox"><stop offset="0" stop-color="#071787"/><stop offset="1" stop-color="#073499" stop-opacity="0"/></linearGradient></defs><g transform="translate(-221.41 -318.846)"><rect class="a" width="417.846" height="508.982" rx="4.032" transform="translate(243.714 318.846)"/><g transform="translate(221.41 664.843)"><path class="b" d="M10507.189,2728.825a29.31,29.31,0,0,1-3.566-.783C10504.84,2728.363,10505.975,2728.5,10507.189,2728.825Z" transform="translate(-10503.623 -2728.042)"/></g><g transform="translate(333.599 354.597)"><g transform="translate(117.32 256.851)"><rect class="c" width="39.605" height="216.38" transform="translate(39.605 216.38) rotate(-180)"/><path class="c" d="M10590.105,2758.77l39.605-15.843v-35h-39.605Z" transform="translate(-10590.105 -2707.922)"/></g><path class="c" d="M10545.9,2705.478v115.378h231.592V2646.927h-173.055a58.494,58.494,0,0,0-58.537,58.551Z" transform="translate(-10545.898 -2551.946)"/><path class="d" d="M10611.109,2705.478v115.378h117.084V2705.478a58.542,58.542,0,1,0-117.084,0Z" transform="translate(-10438.051 -2551.946)"/><path class="e" d="M10611.109,2705.478v115.378h117.084V2705.478a58.542,58.542,0,1,0-117.084,0Z" transform="translate(-10438.051 -2551.946)"/><path class="f" d="M10601.309,2719.976h185.936a12.055,12.055,0,0,0,12.055-12.054h-197.99Z" transform="translate(-10454.258 -2451.072)"/><g transform="translate(76.629)"><path class="f" d="M10574.773,2636.966h38.314v-25.829h-38.314l11.09,12.914Z" transform="translate(-10574.773 -2611.137)"/><g transform="translate(23.247 182.808)"><circle class="f" cx="15.067" cy="15.067" r="15.067"/></g><g transform="translate(35.938)"><rect class="f" width="4.752" height="206.604"/></g></g><rect class="d" width="12.939" height="204.322" transform="translate(112.567 268.909)"/></g><path class="g" d="M10649.744,2729.324c.174,7.924,6.441,14.882,13.949,17.422s15.889,1.24,23.158-1.911c11.563-5.01,21.41-15.668,22.172-28.242.248-4.121-.586-8.526-3.383-11.565s-7.881-4.146-11.158-1.637c-3.994,3.054-3.258,9.72.207,13.362s8.65,4.992,13.572,6.01c12.26,2.542,25.3,3.973,37.076-.273,15.324-5.522,25.967-19.866,31.895-35.038s7.982-31.524,11.725-47.376" transform="translate(-10040.553 -2208.681)"/></g></svg>