<svg xmlns="http://www.w3.org/2000/svg" viewBox="0 0 143 140.18"><defs><style>.cls-1{fill:#0855c4;}</style></defs><g id="Capa_2" data-name="Capa 2"><g id="Capa_1-2" data-name="Capa 1"><path class="cls-1" d="M143,54.71V36.65a10,10,0,0,0-10-10H115.78a35.6,35.6,0,0,0,3.75-3.85c4.5-5.46,5.8-10.94,3.65-15.42S116,.53,108.88.6c-5.88.07-12.76,1.86-19.39,5A47.12,47.12,0,0,0,73.57,17.46L73.23,17c-3.71-4.62-9.41-8.91-16.06-12.1C41.94-2.38,27.38-1.46,23.31,7.05c-2.79,5.81.25,13.2,7.29,19.63H10a10,10,0,0,0-10,10V54.71a10,10,0,0,0,10,10h2.74L9,123.6v.29a16.43,16.43,0,0,0,16.53,16.29h92.43a16.44,16.44,0,0,0,16.54-16.29l-3.23-59.21H133A10,10,0,0,0,143,54.71Zm-49.62-41c5.39-2.58,11.08-4.1,15.6-4.15h.25c3.45,0,5.44.87,5.84,1.7s-.2,3-2.49,5.81c-2.88,3.49-7.62,7-13,9.55v0H78.21C79.58,23.46,84.22,18.14,93.38,13.75Zm-62-2.81C32.57,8.54,41.75,7.51,53.28,13c5.38,2.58,10.09,6.08,12.93,9.62a12.67,12.67,0,0,1,2.32,4H46.74v0C35.22,21.14,30.27,13.34,31.42,10.94ZM125.48,124a7.43,7.43,0,0,1-7.54,7.19H25.51A7.43,7.43,0,0,1,18,124l3.74-59.33H122.24ZM13.28,55.68H10a1,1,0,0,1-1-1V36.65a1,1,0,0,1,1-1H133a1,1,0,0,1,1,1V54.71a1,1,0,0,1-1,1H13.28Z"/></g></g></svg>