<svg xmlns="http://www.w3.org/2000/svg" viewBox="0 0 144.19 133.33"><defs><style>.cls-1{fill:#0855c4;}</style></defs><g id="Capa_2" data-name="Capa 2"><g id="Capa_1-2" data-name="Capa 1"><path class="cls-1" d="M7.19,106.86l18.38.06,0,26.41,48.73-26.24,62.4.22a7,7,0,0,0,5.24-2.29,7.53,7.53,0,0,0,2-5.13l.27-92A7.34,7.34,0,0,0,137,.45L7.51,0h0A7.14,7.14,0,0,0,2.28,2.29a7.53,7.53,0,0,0-2,5.13L0,99.4A7.34,7.34,0,0,0,7.19,106.86ZM9.27,9l125.92.43-.27,88.86L72,98.08,34.55,118.25l0-20.3L9,97.86Z"/><path class="cls-1" d="M59.57,42.7C60.34,37.19,64,31.58,72,31.58c5.7,0,9,2.81,9,7.06s-4.06,5.61-8.22,8-8.31,5.8-8.51,13.83c-.09,3.19,2.32,4.83,5.71,4.83,3.09,0,5.12-.87,5.51-2.71.48-5.6,5-7.73,9.66-10.63s9-6.28,9-14.31c0-10.34-8.21-17.3-21.84-17.3-7.35,0-12.86,2.12-16.53,5.22s-5.51,6.86-5.51,10.34C50.29,43.28,59.47,42.89,59.57,42.7Z"/><path class="cls-1" d="M71,70.64H69.23c-4.25,0-6.47,2.22-6.47,6.47v1.36c0,4.25,2.22,6.47,6.47,6.47H71c4.35,0,6.48-2.22,6.48-6.47V77.11C77.45,72.86,75.32,70.64,71,70.64Z"/></g></g></svg>