<svg xmlns="http://www.w3.org/2000/svg" viewBox="0 0 144.25 132.79"><defs><style>.cls-1{fill:#0855c4;}</style></defs><g id="Capa_2" data-name="Capa 2"><g id="Capa_1-2" data-name="Capa 1"><path class="cls-1" d="M131.71,12.56a42.87,42.87,0,0,0-59.58-1A42.88,42.88,0,0,0,8.94,69.11a43.24,43.24,0,0,0,3.6,4.08l59.6,59.6L129.6,75.34l3.88-3.92-.06,0A42.94,42.94,0,0,0,131.71,12.56Zm-6.36,54.27-6,6h0L72.14,120.07,18.9,66.83a34.14,34.14,0,0,1-2.83-3.22h0a33.92,33.92,0,0,1,2.85-44.68,33.88,33.88,0,0,1,47.9,0l5.32,5.34,5.31-5.33a33.88,33.88,0,0,1,47.91,47.91Z"/></g></g></svg>