<svg xmlns="http://www.w3.org/2000/svg" viewBox="0 0 152.99 95.81"><defs><style>.cls-1{fill:#0855c4;}</style></defs><g id="Capa_2" data-name="Capa 2"><g id="Capa_1-2" data-name="Capa 1"><path class="cls-1" d="M152.89,36.62,153,8.11A7.67,7.67,0,0,0,145.37.44L7.92,0h0A7.63,7.63,0,0,0,.26,7.62L0,87.7a7.65,7.65,0,0,0,7.62,7.67l137.44.44h0a7.65,7.65,0,0,0,7.64-7.62l.11-35.79h0ZM144,9.44l0,11.3H9.22L9.25,9Zm-.11,34H9.23V29.74H143.89v7Zm-.14,43.4L9,86.37l.11-34H143.84Z"/><rect class="cls-1" x="22.59" y="63.58" width="32.38" height="9"/></g></g></svg>