<svg xmlns="http://www.w3.org/2000/svg" viewBox="0 0 141.42 141.42"><defs><style>.cls-1{fill:#0855c4;}</style></defs><g id="Capa_2" data-name="Capa 2"><g id="Capa_1-2" data-name="Capa 1"><path class="cls-1" d="M11.81,90.62,4.05,93.83l3.17,7.66L15,98.28a62.18,62.18,0,0,0,9,13.34l-5.95,6,5.85,5.86,6-6a61.92,61.92,0,0,0,13.35,9l-3.21,7.75,7.65,3.17,3.22-7.75a61.86,61.86,0,0,0,15.76,3.1v8.71h8.29v-8.71a61.85,61.85,0,0,0,15.77-3.1l3.21,7.75,7.66-3.17-3.21-7.75a61.86,61.86,0,0,0,13.34-9l6,6,5.86-5.86-6-6a61.86,61.86,0,0,0,9-13.34l7.75,3.21,3.17-7.66-7.75-3.21a61.85,61.85,0,0,0,3.1-15.77h8.71V66.56h-8.71a61.86,61.86,0,0,0-3.1-15.76l7.75-3.22-3.17-7.65-7.75,3.21a61.92,61.92,0,0,0-9-13.35l6-5.95L117.58,18l-6,5.95A62.18,62.18,0,0,0,98.28,15l3.21-7.76L93.83,4.05l-3.21,7.76A62.3,62.3,0,0,0,74.85,8.7V0H66.57V8.7A62.3,62.3,0,0,0,50.8,11.81L47.58,4.05,39.93,7.22,43.14,15a62.24,62.24,0,0,0-13.35,9l-6-5.95L18,23.83l5.95,6a62.1,62.1,0,0,0-9,13.38L6.91,39.91,3.81,47.6l8,3.23A62.07,62.07,0,0,0,8.7,66.56H0v8.29H8.7A62.3,62.3,0,0,0,11.81,90.62Zm58.9-73.77A53.86,53.86,0,1,1,16.85,70.71,53.92,53.92,0,0,1,70.71,16.85Z"/><path class="cls-1" d="M79,68.81A20.72,20.72,0,1,0,58.28,48.09,20.74,20.74,0,0,0,79,68.81Zm0-33.15A12.43,12.43,0,1,1,66.56,48.09,12.44,12.44,0,0,1,79,35.66Z"/><rect class="cls-1" x="54.14" y="101.58" width="8.29" height="8.29"/><rect class="cls-1" x="108" y="58.28" width="8.29" height="8.29"/><rect class="cls-1" x="62.42" y="77.28" width="8.29" height="8.29"/><rect class="cls-1" x="41.71" y="33.42" width="8.29" height="8.29"/><path class="cls-1" d="M41.71,83.14a4.15,4.15,0,0,1-4.15,4.14v8.29a12.43,12.43,0,1,0,0-24.86,4.15,4.15,0,0,1,0-8.29V54.14a12.43,12.43,0,1,0,0,24.85A4.15,4.15,0,0,1,41.71,83.14Z"/><path class="cls-1" d="M88.49,80.92a12.46,12.46,0,0,0,0,17.58,4.14,4.14,0,1,1-5.86,5.85l-5.85,5.86A12.42,12.42,0,0,0,94.35,92.64a4.14,4.14,0,0,1,5.86-5.86l5.86-5.86A12.44,12.44,0,0,0,88.49,80.92Z"/></g></g></svg>