<svg xmlns="http://www.w3.org/2000/svg" width="97" height="97" viewBox="0 0 97 97"><defs><style>.a{fill:#b2b4c7;opacity:0.154;}.b{fill:#fff;}.c{fill:#313034;}.d{fill:#141318;}.e{fill:#292929;}.f{fill:#d7d7d7;}.g{fill:#009bde;}.h{fill:#fa3a2b;}.i{fill:#ffcc54;}.j{fill:#db2818;}.k{fill:#5d5d5d;}.l{fill:#c1c1c1;}.m{fill:#0063ff;}.n{fill:#28b8f2;}</style></defs><g transform="translate(-50 -713)"><circle class="a" cx="48.5" cy="48.5" r="48.5" transform="translate(50 713)"/><g transform="translate(32.091 593.303)"><path class="b" d="M100.781,194.175H32.569a2.629,2.629,0,0,1-2.629-2.629V176.5c0-4.233,1.525-9.221,2.616-12.246a4.166,4.166,0,0,1,3.918-2.757H75.59c3.11,0,6.333,2.884,9.273,6.5s7.238,8.312,9.5,9.839,9.047,2.735,9.047,6.276v7.436A2.629,2.629,0,0,1,100.781,194.175Z" transform="translate(-0.001 -12.503)"/><path class="c" d="M477.518,343.862l1.792,4.415a2.629,2.629,0,0,0,2.343-2.613v-1.8Z" transform="translate(-378.243 -166.621)"/><rect class="c" width="41.164" height="1.397" transform="translate(48.486 180.275)"/><path class="c" d="M32.568,352.285h7.514v-3.7H29.939v1.07A2.629,2.629,0,0,0,32.568,352.285Z" transform="translate(0 -170.613)"/><path class="d" d="M79.465,331.585a6.333,6.333,0,0,0-6.333,6.333H85.8A6.333,6.333,0,0,0,79.465,331.585Z" transform="translate(-36.502 -156.246)"/><path class="d" d="M423.061,337.805a6.332,6.332,0,0,0-12.663.113h11.9A2.628,2.628,0,0,0,423.061,337.805Z" transform="translate(-321.521 -156.246)"/><rect class="e" width="3.699" height="1.097" transform="translate(68.17 147.892)"/><rect class="f" width="21.788" height="27.142" rx="3.496" transform="translate(53.009 152.306)"/><rect class="g" width="18.98" height="9.363" rx="4.682" transform="translate(54.426 157.056)"/><path class="g" d="M333.91,214.622v7.388a1.062,1.062,0,0,0,.914,1.048l10.485,1.518a1.066,1.066,0,0,0,1.223-1.048V220.5a1.055,1.055,0,0,0-.265-.7l-5.189-5.873a1.072,1.072,0,0,0-.8-.361h-5.3A1.064,1.064,0,0,0,333.91,214.622Z" transform="translate(-256.882 -56.507)"/><path class="h" d="M49.407,285.871H92.682l13.42,1.712v1.395h-56.7Z" transform="translate(-16.452 -117.614)"/><path class="i" d="M481.606,284.639c-.294-1.642-2.1-2.749-4.088-3.634a8.955,8.955,0,0,0,2.439,4.479,4.036,4.036,0,0,0,1.7,1.059v-1.434A2.649,2.649,0,0,0,481.606,284.639Z" transform="translate(-378.243 -113.502)"/><rect class="c" width="4.09" height="0.697" rx="0.349" transform="translate(77.323 169.421)"/><rect class="j" width="21.788" height="3.107" transform="translate(53.009 168.257)"/><rect class="c" width="4.09" height="0.697" rx="0.349" transform="translate(69.219 169.421)"/><path class="h" d="M30.505,279.511H29.94v8.821h.565a.716.716,0,0,0,.716-.716v-7.388A.716.716,0,0,0,30.505,279.511Z" transform="translate(-0.001 -112.239)"/><circle class="c" cx="5.146" cy="5.146" r="5.146" transform="translate(35.686 181.672) rotate(-45)"/><circle class="k" cx="3.11" cy="3.11" r="3.11" transform="translate(39.395 184.243) rotate(-80.783)"/><circle class="l" cx="2.392" cy="2.392" r="2.392" transform="translate(40.571 179.28)"/><circle class="c" cx="5.146" cy="5.146" r="5.146" transform="translate(87.933 181.672) rotate(-45)"/><circle class="k" cx="3.11" cy="3.11" r="3.11" transform="matrix(0.161, -0.987, 0.987, 0.161, 91.64, 184.24)"/><circle class="l" cx="2.392" cy="2.392" r="2.392" transform="translate(92.818 179.28)"/><rect class="m" width="6.559" height="1.55" rx="0.775" transform="translate(66.74 146.697)"/><path class="n" d="M195.426,213.563l-7.42,7.868v.428a1.068,1.068,0,0,0,1.068,1.068h4.4l8.83-9.363Z" transform="translate(-133.58 -56.507)"/><path class="n" d="M279.783,240.337v-4.909l-5.635,5.976h4.568A1.067,1.067,0,0,0,279.783,240.337Z" transform="translate(-206.378 -74.985)"/><path class="n" d="M341.078,213.924a1.072,1.072,0,0,0-.8-.361h-.507l-5.857,6.212v2.236a1.062,1.062,0,0,0,.914,1.048l2.589.375,6.1-6.758Z" transform="translate(-256.882 -56.507)"/><g transform="translate(36.883 153.177)"><circle class="h" cx="6.08" cy="6.08" r="6.08" transform="translate(0 0)"/><path class="b" d="M95.953,204.845H92.717v-3.236H91.082v3.236H87.846v1.635h3.236v3.236h1.635V206.48h3.236Z" transform="translate(-85.819 -199.582)"/></g></g></g></svg>