<svg xmlns="http://www.w3.org/2000/svg" xmlns:xlink="http://www.w3.org/1999/xlink" width="97" height="98" viewBox="0 0 97 98"><defs><style>.a{fill:none;}.b{fill:#b2b4c7;opacity:0.154;}.c{clip-path:url(#a);}.d{fill:#dce8fd;}.e,.n{fill:#fff;}.f{fill:#3a5cbc;}.g{fill:#eaac96;}.h{fill:#2d2f33;}.i{fill:#162458;}.j{fill:#5fa7fb;}.k{fill:#0e4989;}.l{fill:#202b83;}.m{fill:#df6718;}.n{stroke:#00a9ff;stroke-miterlimit:10;stroke-width:2px;}</style><clipPath id="a"><circle class="a" cx="43.736" cy="43.736" r="43.736" transform="translate(0 0)"/></clipPath></defs><g transform="translate(-50 -713)"><circle class="b" cx="48.5" cy="48.5" r="48.5" transform="translate(50 714)"/><g transform="translate(-103.871 -2914.681)"><g class="c" transform="translate(158.871 3627.681)"><g transform="translate(-4.539 8.013)"><g transform="translate(31.302 12.545)"><g transform="translate(0)"><path class="d" d="M363.434,3781.991V3798.4h-9.657v-16.406a4.59,4.59,0,0,1,4.591-4.591h.474a4.592,4.592,0,0,1,4.591,4.591Z" transform="translate(-353.777 -3777.4)"/></g></g><g transform="translate(8.072 65.091)"><ellipse class="d" cx="41.488" cy="1.916" rx="41.488" ry="1.916"/></g><g transform="translate(0 39.181)"><path class="e" d="M134.69,3971.79h-8.668a.2.2,0,0,1-.2-.205h0a.2.2,0,0,1,.2-.2h8.668a.2.2,0,0,1,.2.2h0A.2.2,0,0,1,134.69,3971.79Z" transform="translate(-125.817 -3971.38)"/></g><g transform="translate(10.649 22.25)"><path class="d" d="M224.785,3849.959v11.48a1.885,1.885,0,0,1-1.884,1.885H205.251a1.887,1.887,0,0,1-1.884-1.885v-11.48a1.884,1.884,0,0,1,1.884-1.885H222.9A1.883,1.883,0,0,1,224.785,3849.959Z" transform="translate(-203.367 -3848.075)"/></g><g transform="translate(15.081 23.494)"><g transform="translate(0 0)"><circle class="f" cx="4.342" cy="4.342" r="4.342" transform="translate(0 6.141) rotate(-45)"/></g></g><g transform="translate(20.593 26.689)"><rect class="e" width="1.256" height="5.893"/></g><g transform="translate(18.275 29.007)"><g transform="translate(0)"><rect class="e" width="1.256" height="5.893" transform="translate(5.893 0) rotate(90)"/></g></g><g transform="translate(17.292 18.339)"><path class="d" d="M257.892,3819.594h-4.154a1.993,1.993,0,0,0-1.989,1.992v1.919h1.222v-1.919a.768.768,0,0,1,.767-.767h4.154a.768.768,0,0,1,.767.767v1.919h1.225v-1.919A2,2,0,0,0,257.892,3819.594Z" transform="translate(-251.749 -3819.594)"/></g><g transform="translate(44.367 22.429)"><path class="d" d="M459.094,3853.6l-10.167-1.036.294-3.181,10.064,2.213Z" transform="translate(-448.927 -3849.381)"/></g><g transform="translate(35.847 14.711)"><path class="d" d="M395.4,3804.071l-8.027-8.027a1.683,1.683,0,0,1,0-2.38h0a1.683,1.683,0,0,1,2.38,0l8.027,8.027Z" transform="translate(-386.88 -3793.172)"/></g><g transform="translate(53.214 23.834)"><path class="g" d="M516.194,3859.61h-1.341a1.493,1.493,0,0,0-1.493,1.493h0a1.319,1.319,0,0,0,1.319,1.319h3.008V3861.1A1.493,1.493,0,0,0,516.194,3859.61Z" transform="translate(-513.36 -3859.61)"/></g><g transform="translate(53.543 24.682)"><path class="h" d="M520.426,3867.5h-3.818a.853.853,0,0,1-.853-.853h0a.853.853,0,0,1,.853-.853h3.818a.807.807,0,0,1,.807.808v.09A.807.807,0,0,1,520.426,3867.5Z" transform="translate(-515.756 -3865.79)"/></g><g transform="translate(51.089 55.345)"><path class="h" d="M500.921,4089.1h-3.039l.1,2.371h5.156A2.143,2.143,0,0,0,500.921,4089.1Z" transform="translate(-497.882 -4089.098)"/></g><g transform="translate(25.133 37.499)"><path class="h" d="M0,0H8.4a0,0,0,0,1,0,0V0A2.7,2.7,0,0,1,5.7,2.7H0a0,0,0,0,1,0,0V0A0,0,0,0,1,0,0Z"/></g><g transform="translate(12.681 37.499)"><path class="i" d="M232.015,3959.132H218.17v.687h3.007l8.406,4.618.331-.6-7.311-4.017h9.411Z" transform="translate(-218.17 -3959.132)"/></g><g transform="translate(42.282 56.697)"><rect class="h" width="16.548" height="1.169"/></g><g transform="translate(66.479 51.498)"><path class="i" d="M624.624,4065.011a7.879,7.879,0,0,0-6.8-3.93,7.85,7.85,0,0,0-7.837,7.347c-.016.171-.02.343-.02.514a7.765,7.765,0,0,0,.155,1.561,7.857,7.857,0,0,0,15.558-1.561A7.776,7.776,0,0,0,624.624,4065.011Zm-6.8,7.912a3.962,3.962,0,0,1-2.172-.645,4.216,4.216,0,0,0,4.355-.007A3.964,3.964,0,0,1,617.822,4072.924Z" transform="translate(-609.966 -4061.081)"/></g><g transform="translate(16.449 51.498)"><path class="i" d="M260.265,4065.011a7.879,7.879,0,0,0-6.8-3.93,7.85,7.85,0,0,0-7.837,7.347c-.016.171-.02.343-.02.514a7.768,7.768,0,0,0,.155,1.561,7.857,7.857,0,0,0,15.558-1.561A7.776,7.776,0,0,0,260.265,4065.011Zm-6.8,7.912a3.962,3.962,0,0,1-2.172-.645,4.216,4.216,0,0,0,4.355-.007A3.964,3.964,0,0,1,253.462,4072.924Z" transform="translate(-245.607 -4061.081)"/></g><g transform="translate(68.384 47.124)"><path class="j" d="M630.172,4042.364h0a.973.973,0,0,1-1.283-.5l-4.971-11.271a.973.973,0,0,1,.5-1.283h0a.973.973,0,0,1,1.283.5l4.971,11.271A.973.973,0,0,1,630.172,4042.364Z" transform="translate(-623.835 -4029.23)"/></g><g transform="translate(70.164 49.457)"><path class="h" d="M637.656,4046.214l.388.879-1.243.888Z" transform="translate(-636.802 -4046.214)"/></g><g transform="translate(66.074 37.279)"><rect class="j" width="2.401" height="5.964"/></g><g transform="translate(64.447 32.806)"><path class="j" d="M601.115,3925.815v3.649a.859.859,0,0,1-.859.859h-2.3a2.771,2.771,0,0,1-2.794-2.758,2.684,2.684,0,0,1,2.684-2.609h2.41A.859.859,0,0,1,601.115,3925.815Z" transform="translate(-595.161 -3924.956)"/></g><g transform="translate(12.876 45.612)"><rect class="j" width="3.115" height="4.705"/></g><g transform="translate(43.803 54.839)"><path class="k" d="M450.071,4088.32h-5.254v-2.908h0c0,2.9,2.352,2.908,5.254,2.908Z" transform="translate(-444.817 -4085.412)"/></g><g transform="translate(51.764 47.357)"><path class="i" d="M502.795,4041.432H513.3v-10.509h0a10.509,10.509,0,0,1-10.509,10.509Z" transform="translate(-502.795 -4030.923)"/></g><g transform="translate(24.992 57.9)"><rect class="j" width="15.652" height="3.06"/></g><g transform="translate(60.822 28.741)"><path class="i" d="M575.366,3906.75l-1.268.946-5.333-11.4,1.268-.946Z" transform="translate(-568.765 -3895.348)"/></g><g transform="translate(59.254 27.982)"><rect class="i" width="3.367" height="2.537" rx="1.268"/></g><g transform="translate(54.347 21.474)"><path class="i" d="M525.791,3846.469h-.362v-1.877a1.806,1.806,0,0,0-1.8-1.8h-2.016v-.362h2.016a2.169,2.169,0,0,1,2.167,2.167Z" transform="translate(-521.609 -3842.425)"/></g><g transform="translate(56.778 25.173)"><path class="i" d="M542.544,3873.8a.362.362,0,0,1-.362-.362V3871.1a1.013,1.013,0,0,0-1.012-1.012h-1.495a.362.362,0,0,1,0-.725h1.495a1.738,1.738,0,0,1,1.736,1.736v2.341A.362.362,0,0,1,542.544,3873.8Z" transform="translate(-539.313 -3869.361)"/></g><g transform="translate(51.677 24.682)"><path class="i" d="M506.832,3867.5h-3.818a.853.853,0,0,1-.853-.853h0a.853.853,0,0,1,.853-.853h3.818a.807.807,0,0,1,.807.808v.09A.807.807,0,0,1,506.832,3867.5Z" transform="translate(-502.162 -3865.79)"/></g><g transform="translate(37.693 43.281)"><g transform="translate(0)"><path class="j" d="M406.666,4015.706H400.32l.04-14.465H410.2a8.039,8.039,0,0,0-3.771,6.972A60.6,60.6,0,0,0,406.666,4015.706Z" transform="translate(-400.32 -4001.24)"/></g></g><g transform="translate(62.273 34.254)"><rect class="i" width="2.453" height="23.648"/></g><g transform="translate(64.726 50.025)"><path class="j" d="M597.2,4060.667v-.472c0-5.593,3.489-9.845,9.083-9.845a11.672,11.672,0,0,1,7.743,3.5Z" transform="translate(-597.196 -4050.35)"/></g><g transform="translate(64.827 49.457)"><path class="j" d="M604.511,4047.093l-4.534,9.183-2.046.753,6.192-10.815Z" transform="translate(-597.93 -4046.214)"/></g><g transform="translate(38.555 32.002)"><path class="j" d="M439.067,3936.555c-5.457,11.269-5.391,11.5-7.5,11.5l-24.965,0v-3.222l21.207.017c.58-.012,1.585-.35,2.511-1.914,1.107-1.873,2.107-5.5,2.132-12.408v-.753c0-3.066-.025-6.33-.037-8.429-.012-1.375-.021-2.251-.021-2.251l4.749,12.421.235.621Z" transform="translate(-406.604 -3919.101)"/></g><g transform="translate(15.718 37.533)"><path class="j" d="M260.886,3975.313h-20.6v-5.691c0-5.333,4.324-10.244,9.657-10.244h10.947Z" transform="translate(-240.283 -3959.379)"/></g><g transform="translate(25.068 37.533)"><path class="j" d="M328.517,3959.379H308.379c0,2.851,2.4,5.748,5.363,5.748H330.6a1.163,1.163,0,0,0,1.163-1.163v-.874C331.764,3961.365,330.311,3959.379,328.517,3959.379Z" transform="translate(-308.379 -3959.379)"/></g><g transform="translate(34.145 51.743)"><g transform="translate(0)"><rect class="j" width="4.41" height="6.157"/></g></g><g transform="translate(26.954 43.281)"><rect class="j" width="10.784" height="10.807"/></g><g transform="translate(13.241 43.255)"><path class="j" d="M247.551,4010.52v1.556H222.244v-1.556a9.447,9.447,0,0,1,1.465-5.062c.136-.214.276-.42.424-.617a9.47,9.47,0,0,1,7.585-3.795h6.359A9.476,9.476,0,0,1,247.551,4010.52Z" transform="translate(-222.244 -4001.046)"/></g><g transform="translate(13.131 43.186)"><path class="f" d="M246.892,4011.713H221.448v-1.624a9.529,9.529,0,0,1,1.476-5.1c.146-.23.285-.433.427-.622a9.482,9.482,0,0,1,7.64-3.822h6.359a9.553,9.553,0,0,1,9.543,9.543Zm-25.307-.137h25.169v-1.487a9.416,9.416,0,0,0-9.405-9.406h-6.359a9.347,9.347,0,0,0-7.53,3.767c-.139.186-.277.386-.421.613a9.393,9.393,0,0,0-1.455,5.026Z" transform="translate(-221.448 -4000.546)"/></g><g transform="translate(13.24 54.284)"><path class="l" d="M222.242,4089.545h0v-8.176h1.753v6.423A1.753,1.753,0,0,1,222.242,4089.545Z" transform="translate(-222.242 -4081.369)"/></g><g transform="translate(11.502 45.612)"><path class="m" d="M1.374,0h0a0,0,0,0,1,0,0V4.7a0,0,0,0,1,0,0h0A1.374,1.374,0,0,1,0,3.331V1.374A1.374,1.374,0,0,1,1.374,0Z"/></g><g transform="translate(60.822 32.002)"><path class="i" d="M572.315,3922.052h-2.432a1.119,1.119,0,0,1-1.119-1.119v-.718a1.119,1.119,0,0,1,1.119-1.119h2.408Z" transform="translate(-568.765 -3919.096)"/></g><g transform="translate(14.397 51.074)"><g transform="translate(0 1.28)"><rect class="e" width="5.361" height="0.634"/></g><rect class="e" width="5.361" height="0.634"/></g><g transform="translate(52.692 20.274)"><circle class="i" cx="1.449" cy="1.449" r="1.449"/></g><g transform="translate(47.126 55.311)"><path class="h" d="M472.147,4088.848h-3.128l.1,2.441h5.307A2.205,2.205,0,0,0,472.147,4088.848Z" transform="translate(-469.019 -4088.848)"/></g><g transform="translate(34.145 54.284)"><g transform="translate(0)"><path class="j" d="M374.487,4081.369h4.41v3.459h-.951a3.459,3.459,0,0,1-3.459-3.459Z" transform="translate(-374.487 -4081.369)"/></g></g><g transform="translate(34.259 8.787)"><g transform="translate(0)"><rect class="g" width="4.426" height="4.033" transform="translate(0.831 0) rotate(11.891)"/></g></g><g transform="translate(30.009 32.461)"><path class="f" d="M367.147,3923.525l-.1,6.719-22.3.8c-.634,0,3.176-1.839,2.649-2.1a3.971,3.971,0,0,1-2.211-3.564l-.825-2.937Z" transform="translate(-344.36 -3922.443)"/></g><g transform="translate(50.996 33.543)"><path class="f" d="M503.306,3934.623l-2.318,15.156-.068.466-.283,1.84H497.2v-2.306l0-19.461H499A4.3,4.3,0,0,1,503.306,3934.623Z" transform="translate(-497.202 -3930.318)"/></g><g transform="translate(31.303 33.543)"><path class="f" d="M363.44,3930.317a54.1,54.1,0,0,1-9.656,2.2v-2.2Z" transform="translate(-353.784 -3930.317)"/></g><g transform="translate(17.677 13.29)"><path class="e" d="M276.318,3794.045c-.053.235-.11.47-.177.7a25.975,25.975,0,0,1-1.062,2.772c-3.73,9.359-3.649,13.291-9.314,16.131a17.209,17.209,0,0,1-11.209,1.5l8.217-12.367a21.366,21.366,0,0,0,3.328-8.74,46.79,46.79,0,0,1,1.865-7.769,2.986,2.986,0,0,1,2.067-3.174,15.434,15.434,0,0,1,4.44-.2c.129.012.253.024.373.032,1.105.107,1.875.255,1.875.255A34.786,34.786,0,0,1,276.318,3794.045Z" transform="translate(-254.555 -3782.827)"/></g><g transform="translate(41.399 22.886)"><path class="e" d="M439.3,3856.47l-11.983.388,3.577-4.147,8.653,1.145Z" transform="translate(-427.315 -3852.711)"/></g><g transform="translate(32.58 13.914)"><g transform="translate(0)"><path class="e" d="M371.9,3800.491l-8.564-7.617c-.657-.657.075-3.34.839-4.1h0c.764-.764,2.936-1.853,3.593-1.2l7.709,8.77Z" transform="translate(-363.084 -3787.371)"/></g></g><g transform="translate(34.149)"><path class="i" d="M382.956,3686.683l-.151.853a2.569,2.569,0,0,1-2.823,2.11l-5.471-.625.155-.884a2.541,2.541,0,0,1,2.792-2.083Z" transform="translate(-374.51 -3686.037)"/></g><g transform="translate(39.66 0.641)"><path class="i" d="M417.582,3690.708l-.151.852a2.576,2.576,0,0,1-2.122,2.095l-.661-1.115A2.818,2.818,0,0,1,417.582,3690.708Z" transform="translate(-414.647 -3690.702)"/></g><g transform="translate(33.545 2.211)"><g transform="translate(0)"><path class="g" d="M376.856,3710.723l-1.746-.014a5.034,5.034,0,0,1-4.993-5.074h0a3.523,3.523,0,0,1,3.551-3.495l1.219.01a3.523,3.523,0,0,1,3.495,3.551l-.028,3.549A1.486,1.486,0,0,1,376.856,3710.723Z" transform="translate(-370.117 -3702.141)"/></g></g><g transform="translate(41.79 6.6)"><path class="g" d="M430.659,3735.748l-.5,0,.013-1.643.728,1.224A.28.28,0,0,1,430.659,3735.748Z" transform="translate(-430.161 -3734.101)"/></g><g transform="translate(32.666 2.677)"><g transform="translate(0)"><path class="i" d="M365.849,3712.98a10.436,10.436,0,0,1-2.136-5.942l4.155-1.5c1.729.014,1.468.914,1.454,2.643l-.5.067C369.28,3713.489,365.849,3712.98,365.849,3712.98Z" transform="translate(-363.711 -3705.534)"/></g></g><g transform="translate(37.523 3.114)"><path class="i" d="M400.113,3711.56l-1.029-.008.023-2.833,2.085.017-.014,1.777A1.056,1.056,0,0,1,400.113,3711.56Z" transform="translate(-399.084 -3708.719)"/></g><g transform="translate(32.603 0.992)"><path class="i" d="M370.284,3695.4l.1-1.992-4.306-.147-2.1,1.513a4.778,4.778,0,0,0-.685,1.426,4.654,4.654,0,0,0,.187,1.716s-.073-.283,2.508-1.409A11.576,11.576,0,0,1,370.284,3695.4Z" transform="translate(-363.257 -3693.258)"/></g><g transform="translate(37.662 3.241)"><rect class="i" width="0.805" height="3.986"/></g><g transform="translate(52.063 23.834)"><path class="g" d="M507.811,3859.61H506.47a1.493,1.493,0,0,0-1.493,1.493h0a1.319,1.319,0,0,0,1.319,1.319H509.3V3861.1A1.493,1.493,0,0,0,507.811,3859.61Z" transform="translate(-504.977 -3859.61)"/></g><g transform="translate(33.023 11.923)"><path class="f" d="M0,0H4.586A1.639,1.639,0,0,1,6.225,1.639v0a0,0,0,0,1,0,0H0a0,0,0,0,1,0,0V0A0,0,0,0,1,0,0Z" transform="translate(0)"/></g><g transform="translate(36.84 5.93)"><path class="g" d="M395.358,3730.967l-.625-.005a.624.624,0,0,1-.62-.629l0-.489a.625.625,0,0,1,.63-.62h0a.625.625,0,0,1,.62.63Z" transform="translate(-394.114 -3729.224)"/></g><g transform="translate(41.127 6.324)"><circle class="i" cx="0.178" cy="0.178" r="0.178"/></g><g transform="translate(59.521 8.456)"><path class="n" d="M559.286,3747.622" transform="translate(-559.286 -3747.622)"/></g><g transform="translate(69.541 32.806)"><rect class="d" width="1.477" height="5.367"/></g><g transform="translate(33.499 20.001)"><rect class="d" width="0.137" height="10.507" transform="translate(0 0.102) rotate(-48.191)"/></g><g transform="translate(38.504 15.537)"><rect class="d" width="0.137" height="3.639" transform="translate(0 0.091) rotate(-41.319)"/></g><g transform="translate(40.112 5.487)"><path class="f" d="M418.955,3728.029a1.015,1.015,0,1,1,1.015-1.015A1.016,1.016,0,0,1,418.955,3728.029Zm0-1.927a.912.912,0,1,0,.912.912A.913.913,0,0,0,418.955,3726.1Z" transform="translate(-417.94 -3725.999)"/></g><g transform="translate(37.347 5.879)"><rect class="f" width="0.103" height="2.875" transform="matrix(0.137, -0.991, 0.991, 0.137, 0, 0.102)"/></g><g transform="translate(66.837 51.323)"><path class="f" d="M612.7,4064.8l-.129-.046a7.445,7.445,0,0,1,9.705-4.443l-.05.128a7.307,7.307,0,0,0-9.526,4.361Z" transform="translate(-612.573 -4059.805)"/></g><g transform="translate(66.074 38.105)"><rect class="f" width="3.468" height="0.137"/></g><g transform="translate(33.533 57.833)"><rect class="f" width="7.111" height="0.137"/></g><g transform="translate(30.431 25.21)"><path class="e" d="M356.267,3869.631s-.653,11.941-8.832,18.071l.872-11.976Z" transform="translate(-347.435 -3869.631)"/></g><g transform="translate(27.388 35.658)"><path class="d" d="M330.14,3948.437l-4.862-1.391.379-1.324,4.862,1.391Zm-4.692-1.485,4.6,1.315.3-1.06-4.6-1.315Z" transform="translate(-325.278 -3945.722)"/></g><g transform="translate(37.352 36.301)"><path class="i" d="M413.354,3968.974l-.137-.012,1.468-16.4a1.53,1.53,0,0,0-1.489-1.666l-15.354-.353,0-.137,15.354.353a1.667,1.667,0,0,1,1.622,1.815Z" transform="translate(-397.843 -3950.404)"/></g></g></g></g></g></svg>