<svg xmlns="http://www.w3.org/2000/svg" width="97" height="97" viewBox="0 0 97 97"><defs><style>.a{fill:#b2b4c7;opacity:0.154;}.b{fill:#091538;}.c{fill:#162458;}.d{fill:#221f3e;}.e{fill:#d54f1f;}.f{fill:#cfd1d2;}.g,.s{fill:#dce8fd;}.h{fill:#e17163;}.i{fill:#a5320f;}.j{fill:#bc4748;}.k{fill:#fafaf0;}.l{fill:#39394b;}.m{fill:#ecb442;}.n{fill:#72a6b5;}.o{opacity:0.33;}.p{fill:#477779;}.q{fill:#384260;}.r{fill:#3a5cbc;}.s,.u{opacity:0.15;}.t{fill:#acc5e8;}</style></defs><g transform="translate(-50 -713)"><circle class="a" cx="48.5" cy="48.5" r="48.5" transform="translate(50 713)"/><g transform="translate(-2272.753 -2175.941)"><g transform="translate(2360.968 2941.048)"><path class="b" d="M2708.718,3164.93a2.6,2.6,0,0,0-1.624-.586s-2.225,0-2.225,0a2.617,2.617,0,0,0-1.655.586,5.346,5.346,0,0,0-1.189,6.016,3.209,3.209,0,0,0,2.844,2.2s2.225,0,2.225,0a3.229,3.229,0,0,0,2.815-2.2C2710.8,3168.843,2710.269,3166.143,2708.718,3164.93Z" transform="translate(-2701.59 -3164.342)"/></g><g transform="translate(2358.713 2941.048)"><path class="b" d="M2681.984,3164.93a2.6,2.6,0,0,0-1.624-.586s-2.225,0-2.225,0a2.616,2.616,0,0,0-1.655.586,5.344,5.344,0,0,0-1.189,6.016,3.207,3.207,0,0,0,2.844,2.2s2.225,0,2.225,0a3.23,3.23,0,0,0,2.814-2.2C2684.069,3168.843,2683.536,3166.143,2681.984,3164.93Z" transform="translate(-2674.856 -3164.342)"/></g><rect class="c" width="18.156" height="7.236" transform="translate(2355.537 2938.033)"/><g transform="translate(2336.669 2941.855)"><rect class="c" width="12.188" height="1.496"/></g><g transform="translate(2345.496 2939.575)"><path class="c" d="M2524.688,3146.877h-4.315a2.468,2.468,0,0,0-2.177,2.65v3.1h3.348c.413,0,.747-.467.747-1.044v-1.446a1.982,1.982,0,0,1,1.734-2.158h.663Z" transform="translate(-2518.197 -3146.877)"/></g><g transform="translate(2340.935 2940.045)"><rect class="c" width="37.997" height="2.623" transform="translate(0)"/></g><g transform="translate(2340.935 2938.734)"><g transform="translate(0 0)"><rect class="c" width="2.851" height="2.623"/></g><g transform="translate(6.9 0)"><rect class="c" width="11.553" height="2.623"/></g></g><g transform="translate(2350.569 2944.579)"><g transform="translate(0)"><rect class="c" width="11.553" height="1.744"/></g></g><g transform="translate(2360.796 2938.734)"><g transform="translate(0 0)"><rect class="c" width="2.851" height="2.623"/></g><g transform="translate(10.96 0)"><rect class="c" width="2.851" height="2.623"/></g></g><g transform="translate(2372.468 2940.493)"><rect class="c" width="8.532" height="6.461" transform="translate(0 0)"/></g><g transform="translate(2355.318 2937.803)"><path class="d" d="M2634.614,3126.673a.791.791,0,0,1,.791-.791h6.165a.791.791,0,0,1,.792.791Z" transform="translate(-2634.614 -3125.882)"/></g><g transform="translate(2370.916 2931.131)"><g transform="translate(0 0)"><path class="d" d="M2827,3050.537a3.75,3.75,0,1,0-3.75,3.75A3.75,3.75,0,0,0,2827,3050.537Z" transform="translate(-2819.505 -3046.787)"/></g></g><g transform="translate(2368.961 2925.124)"><path class="e" d="M2796.331,2976.361a.778.778,0,0,0,.778.778h1.263a.778.778,0,0,0,.778-.778h0a.778.778,0,0,0-.778-.778h-1.263a.778.778,0,0,0-.778.778Z" transform="translate(-2796.331 -2975.584)"/></g><g transform="translate(2368.869 2925.773)"><path class="d" d="M2795.365,2984.728a.133.133,0,0,1-.036-.006.128.128,0,0,1-.086-.159l.379-1.277h1.281a.128.128,0,0,1,0,.255h-1.091l-.325,1.094a.128.128,0,0,1-.122.092Z" transform="translate(-2795.237 -2983.287)"/></g><g transform="translate(2330.892 2929.838)"><path class="c" d="M2394.95,3037.878H2350.33l-5.236-1.594v-4.824h48.725l3.147,2.33Z" transform="translate(-2345.094 -3031.46)"/></g><g transform="translate(2349.629 2931.166)"><path class="c" d="M2573.2,3047.708a2.2,2.2,0,0,0-1.37-.494s-1.877,0-1.877,0a2.206,2.206,0,0,0-1.4.495,4.508,4.508,0,0,0-1,5.074,2.706,2.706,0,0,0,2.4,1.857s1.877,0,1.877,0a2.724,2.724,0,0,0,2.374-1.857A4.513,4.513,0,0,0,2573.2,3047.708Z" transform="translate(-2567.188 -3047.212)"/></g><g transform="translate(2337.545 2931.166)"><path class="d" d="M2423.956,3047.208h1.877v0a2.188,2.188,0,0,1,1.37.494,4.511,4.511,0,0,1,1,5.075,2.715,2.715,0,0,1-2.374,1.854v0h-1.877Z" transform="translate(-2423.956 -3047.208)"/></g><g transform="translate(2334.78 2931.165)"><path class="b" d="M2395.283,3054.122c-1.308,1.025-2.987.416-3.743-1.361a4.507,4.507,0,0,1,1-5.074c1.308-1.024,2.987-.414,3.743,1.361a4.511,4.511,0,0,1-1,5.075Z" transform="translate(-2391.174 -3047.19)"/></g><g transform="translate(2335.731 2932.454)"><path class="d" d="M2405.129,3067c-.854.669-1.95.271-2.443-.889a2.943,2.943,0,0,1,.655-3.313c.854-.669,1.95-.27,2.444.888a2.945,2.945,0,0,1-.656,3.314Z" transform="translate(-2402.446 -3062.471)"/></g><g transform="translate(2336.881 2934.013)"><path class="d" d="M2417.041,3082.567c-.3.239-.7.1-.873-.317a1.053,1.053,0,0,1,.234-1.183c.3-.239.7-.1.872.317a1.051,1.051,0,0,1-.234,1.183Zm-.528-1.24a.685.685,0,0,0-.153.772c.116.271.371.364.57.208a.686.686,0,0,0,.152-.773c-.115-.27-.371-.363-.57-.207Z" transform="translate(-2416.083 -3080.951)"/></g><g transform="translate(2335.575 2932.242)"><path class="f" d="M2403.524,3064.882c-.928.725-2.119.294-2.657-.966a3.206,3.206,0,0,1,.713-3.6c.927-.728,2.12-.293,2.656.965a3.2,3.2,0,0,1-.712,3.6Zm-1.847-4.339a2.876,2.876,0,0,0-.64,3.239c.485,1.135,1.554,1.524,2.393.869a2.877,2.877,0,0,0,.636-3.24c-.482-1.132-1.553-1.521-2.389-.868Z" transform="translate(-2400.608 -3059.959)"/></g><g transform="translate(2330.558 2920.474)"><path class="e" d="M2351.433,2920.474a2.368,2.368,0,0,0-1.888,1.121l-2.232,4.091a2.964,2.964,0,0,1-1.871,1.331l-3.048.51a1.565,1.565,0,0,0-1.263,1.487c0,.762.006,4.033.006,4.033a1.651,1.651,0,0,0,1.317,1.487l1.125.266a1.424,1.424,0,0,0,1.53-1.033,3.279,3.279,0,0,1,2.9-2.447c1.433,0,2.646,1.243,3.054,2.958a1.548,1.548,0,0,0,1.423,1.265h12.324a1.548,1.548,0,0,0,1.423-1.265c.407-1.714,1.621-2.958,3.054-2.958s2.646,1.243,3.054,2.958a1.548,1.548,0,0,0,1.423,1.265h3.7l.242-2.247,1.177-1.127,2.411-5.736-5.988-5.127a4,4,0,0,0-2.246-.83Z" transform="translate(-2341.131 -2920.474)"/></g><g transform="translate(2378.733 2929.837)"><path class="d" d="M2914.823,3031.46h-2.666l.932,2.331h3.1v-.965A1.366,1.366,0,0,0,2914.823,3031.46Z" transform="translate(-2912.157 -3031.46)"/></g><g transform="translate(2353.717 2926.432)"><path class="e" d="M2624.515,2993.707l-.967-1.037-7.9-1.576h17.005l4.657,1.315,3.353-.661.976,1.214,1.315-.154.661,1.715h-15.728Z" transform="translate(-2615.646 -2991.094)"/></g><g transform="translate(2351.53 2920.474)"><path class="e" d="M2608.909,2926.432l-5.988-5.127a4,4,0,0,0-2.246-.83h-10.959l2.188,5.958Z" transform="translate(-2589.716 -2920.474)"/></g><g transform="translate(2367.446 2932.168)"><path class="e" d="M2794.611,3060.308a.838.838,0,0,1-.905-.765l-.016-.461-.548.335-2.058-.223-1.514.489-10.468.878-.73,1.071.2,2.359,15.013-1.259a1.227,1.227,0,0,0,1.121-1.326l-.092-1.1Z" transform="translate(-2778.371 -3059.082)"/></g><g transform="translate(2367.135 2934.717)"><path class="e" d="M2776.692,3090.729a1.573,1.573,0,0,1-1.7-1.436l-.311,2.4,15.522-1.3a1.225,1.225,0,0,0,1.075-.889Z" transform="translate(-2774.683 -3089.294)"/></g><g transform="translate(2338.771 2921.469)"><path class="c" d="M2439.149,2937.23l10.753-4.963h-8.529a1.873,1.873,0,0,0-1.672,1.214l-1.22,3.749Z" transform="translate(-2438.481 -2932.267)"/></g><g transform="translate(2351.895 2921.469)"><path class="g" d="M2607.077,2932.267h-13.031l1.822,4.963h17.005Z" transform="translate(-2594.046 -2932.267)"/></g><g transform="translate(2339.439 2921.469)"><path class="g" d="M2459.583,2937.23l-1.756-4.963H2449.3a1.874,1.874,0,0,0-1.672,1.214l-1.22,3.749Z" transform="translate(-2446.406 -2932.267)"/></g><g transform="translate(2365.758 2933.117)"><path class="d" d="M2758.745,3072.92a.383.383,0,0,1-.031-.765l11.739-.984,2.4-.831,1.653.491,1.718-.144a.383.383,0,1,1,.064.763l-1.861.156-1.555-.462-2.309.786-11.787.988Z" transform="translate(-2758.363 -3070.34)"/></g><g transform="translate(2330.764 2928.886)"><path class="h" d="M2371.76,3020.432h-28.051a.128.128,0,0,1,0-.255h28.051a.128.128,0,0,1,0,.255Z" transform="translate(-2343.581 -3020.177)"/></g><g transform="translate(2344.461 2928.411)"><path class="i" d="M2507.658,3015.317a.128.128,0,0,1-.128-.128.378.378,0,0,0-.378-.378h-1.09a.128.128,0,1,1,0-.255h1.09a.634.634,0,0,1,.633.633.128.128,0,0,1-.128.128Z" transform="translate(-2505.935 -3014.556)"/></g><g transform="translate(2338.139 2928.411)"><path class="i" d="M2432.721,3015.317a.128.128,0,0,1-.128-.128.379.379,0,0,0-.378-.378h-1.09a.128.128,0,1,1,0-.255h1.09a.634.634,0,0,1,.633.633.128.128,0,0,1-.128.128Z" transform="translate(-2430.998 -3014.556)"/></g><g transform="translate(2345.419 2921.247)"><rect class="j" width="5.425" height="0.511" transform="translate(0 5.417) rotate(-86.79)"/></g><g transform="translate(2348.857 2925.124)"><path class="h" d="M2560.851,2976.361a.778.778,0,0,1-.778.778h-1.263a.778.778,0,0,1-.778-.778h0a.778.778,0,0,1,.778-.778h1.263a.778.778,0,0,1,.778.778Z" transform="translate(-2558.033 -2975.584)"/></g><g transform="translate(2349.974 2925.773)"><path class="d" d="M2572.941,2984.728a.128.128,0,0,1-.123-.092l-.325-1.094h-1.09a.128.128,0,1,1,0-.255h1.281l.379,1.277a.128.128,0,0,1-.086.159.136.136,0,0,1-.036.006Z" transform="translate(-2571.275 -2983.287)"/></g><g transform="translate(2329.881 2931.319)"><path class="e" d="M2333.784,3049.023a.69.69,0,0,1-.677.69l0,.878a1.651,1.651,0,0,0,1.317,1.487l1.223.287v-3.342Z" transform="translate(-2333.107 -3049.023)"/></g><g transform="translate(2365.237 2929.862)"><path class="c" d="M2753.551,3034.056h4.777l-.931-2.306h-5.212v.94A1.366,1.366,0,0,0,2753.551,3034.056Z" transform="translate(-2752.185 -3031.75)"/></g><g transform="translate(2365.957 2929.862)"><path class="k" d="M2762.092,3034.056h4.777l-.931-2.306h-5.212v.94A1.366,1.366,0,0,0,2762.092,3034.056Z" transform="translate(-2760.726 -3031.75)"/></g><g transform="translate(2380.12 2930.12)"><path class="l" d="M2929.944,3036.248h-.015a.128.128,0,0,1-.112-.141l.122-1.043h-1.208a.128.128,0,1,1,0-.255h1.495l-.155,1.328a.128.128,0,0,1-.127.113Z" transform="translate(-2928.603 -3034.807)"/></g><g transform="translate(2345.685 2921.469)"><path class="d" d="M2520.441,2932.714h.511l.025-.447h-.512Z" transform="translate(-2520.441 -2932.267)"/></g><g transform="translate(2369.029 2928.564)"><path class="c" d="M2802.77,3016.364l-5.638,1.3h7.7Z" transform="translate(-2797.132 -3016.364)"/></g><g transform="translate(2379.455 2930.685)"><path class="m" d="M2921.805,3044.028a.128.128,0,0,1-.127-.128v-.965a1.231,1.231,0,0,0-.872-1.183.128.128,0,0,1,.075-.244,1.485,1.485,0,0,1,1.052,1.427v.965a.128.128,0,0,1-.128.128Z" transform="translate(-2920.716 -3041.502)"/></g><g transform="translate(2379.703 2933.083)"><path class="k" d="M2925.338,3069.923h0a.779.779,0,0,1-.779.779h-.126a.779.779,0,0,1-.779-.779h1.683Z" transform="translate(-2923.655 -3069.923)"/></g><g transform="translate(2380.046 2933.237)"><path class="n" d="M2928.6,3072.01h-.75a.128.128,0,0,1,0-.256h.75a.128.128,0,0,1,0,.256Z" transform="translate(-2927.724 -3071.755)"/></g><g transform="translate(2355.263 2932.084)"><path class="d" d="M2640.695,3064.5a3.856,3.856,0,1,0-5.751,0Z" transform="translate(-2633.963 -3058.083)"/></g><g transform="translate(2354.943 2932.084)"><path class="b" d="M2636.912,3064.5a3.856,3.856,0,1,0-5.751,0Z" transform="translate(-2630.18 -3058.083)"/></g><g transform="translate(2356.368 2933.508)"><g transform="translate(0)"><path class="d" d="M2651.925,3077.4a2.432,2.432,0,1,0-2.432,2.432A2.433,2.433,0,0,0,2651.925,3077.4Z" transform="translate(-2647.06 -3074.966)"/></g></g><g transform="translate(2356.236 2933.377)"><g transform="translate(0)"><path class="f" d="M2648.067,3078.537a2.563,2.563,0,1,1,2.563-2.563,2.566,2.566,0,0,1-2.563,2.563Zm0-4.864a2.3,2.3,0,1,0,2.3,2.3,2.3,2.3,0,0,0-2.3-2.3Z" transform="translate(-2645.504 -3073.41)"/></g></g><g transform="translate(2357.872 2935.012)"><g transform="translate(0 0)"><path class="d" d="M2665.823,3094.653a.928.928,0,1,1,.927-.927.928.928,0,0,1-.927.927Zm0-1.592a.665.665,0,1,0,.665.665.666.666,0,0,0-.665-.665Z" transform="translate(-2664.895 -3092.798)"/></g></g><g transform="translate(2355.119 2937.803)"><path class="l" d="M2632.261,3126.673a.791.791,0,0,1,.791-.791h5.986a.791.791,0,0,1,.792.791Z" transform="translate(-2632.261 -3125.882)"/></g><g transform="translate(2360.37 2931.931)"><path class="e" d="M2697.757,3056.275h-3.25a4.245,4.245,0,0,1,1.4,2.346,1.548,1.548,0,0,0,1.423,1.265h.43Z" transform="translate(-2694.507 -3056.275)"/></g><g transform="translate(2352.297 2926.959)"><path class="i" d="M2598.935,3005.282a.128.128,0,0,1-.128-.128v-6.246a1.574,1.574,0,0,1,1.572-1.572.128.128,0,0,1,0,.255,1.318,1.318,0,0,0-1.317,1.316v6.246a.128.128,0,0,1-.127.128Z" transform="translate(-2598.807 -2997.337)"/></g><g transform="translate(2343.999 2926.959)"><path class="i" d="M2500.578,3005.282a.128.128,0,0,1-.128-.128v-6.246a1.574,1.574,0,0,1,1.572-1.572.128.128,0,0,1,0,.255,1.318,1.318,0,0,0-1.317,1.316v6.246a.128.128,0,0,1-.127.128Z" transform="translate(-2500.45 -2997.337)"/></g><g transform="translate(2337.621 2926.959)"><path class="i" d="M2424.982,3001.059a.128.128,0,0,1-.128-.128v-2.023a1.574,1.574,0,0,1,1.572-1.572.128.128,0,0,1,0,.255,1.318,1.318,0,0,0-1.317,1.316v2.023a.128.128,0,0,1-.128.128Z" transform="translate(-2424.854 -2997.337)"/></g><g transform="translate(2373.693 2937.622)"><rect class="d" width="1.325" height="1.442" transform="translate(0 0)"/></g><g transform="translate(2372.42 2927.929)"><g transform="translate(0 0)"><path class="g" d="M2852.485,3018.539a.383.383,0,0,1-.383-.383v-6.776a1.782,1.782,0,0,0-1.78-1.78H2839.88a1.782,1.782,0,0,0-1.78,1.78v6.776a.383.383,0,0,1-.766,0v-6.776a2.549,2.549,0,0,1,2.546-2.546h10.442a2.549,2.549,0,0,1,2.546,2.546v6.776a.383.383,0,0,1-.383.383Z" transform="translate(-2837.334 -3008.834)"/></g></g><g transform="translate(2396.901 2934.419)"><path class="d" d="M3127.634,3087.777a.127.127,0,0,1-.067-.236l2.889-1.772v1.881a.128.128,0,1,1-.255,0v-1.425l-2.5,1.534a.129.129,0,0,1-.067.019Z" transform="translate(-3127.507 -3085.768)"/></g><g class="o" transform="translate(2333.518 2949.347)"><path class="p" d="M2453.826,3263.219h-77.349a.255.255,0,1,1,0-.51h77.349a.255.255,0,1,1,0,.51Z" transform="translate(-2376.222 -3262.708)"/></g><g transform="translate(2400.573 2941.048)"><path class="q" d="M3178.166,3164.93a2.6,2.6,0,0,0-1.625-.586s-2.225,0-2.225,0a2.617,2.617,0,0,0-1.655.586,5.345,5.345,0,0,0-1.189,6.016,3.209,3.209,0,0,0,2.844,2.2s2.225,0,2.225,0a3.229,3.229,0,0,0,2.814-2.2C3180.25,3168.843,3179.716,3166.143,3178.166,3164.93Z" transform="translate(-3171.037 -3164.342)"/></g><g transform="translate(2400.573 2941.045)"><path class="d" d="M3175.909,3172.53c-1.551,1.215-3.541.493-4.437-1.614a5.346,5.346,0,0,1,1.189-6.017c1.551-1.214,3.542-.49,4.438,1.614s.361,4.8-1.19,6.017Z" transform="translate(-3171.037 -3164.311)"/></g><g transform="translate(2376.199 2935.474)"><path class="c" d="M2892.848,3108.828l1.622-.766h23.705v-7.324l-10.512-2.472h-25.531v10.562Z" transform="translate(-2882.132 -3098.266)"/></g><g transform="translate(2389.309 2941.048)"><path class="b" d="M3037.523,3164.338h2.225v0a2.6,2.6,0,0,1,1.624.586c1.551,1.213,2.085,3.913,1.19,6.017a3.218,3.218,0,0,1-2.814,2.2v0h-2.225Z" transform="translate(-3037.523 -3164.338)"/></g><g transform="translate(2386.031 2941.045)"><path class="q" d="M3003.531,3172.53c-1.55,1.215-3.541.493-4.437-1.614a5.345,5.345,0,0,1,1.189-6.017c1.551-1.214,3.542-.49,4.438,1.614s.361,4.8-1.19,6.017Z" transform="translate(-2998.659 -3164.311)"/></g><g transform="translate(2387.47 2942.998)"><path class="d" d="M3018.44,3192.034c-.863.676-1.971.274-2.469-.9a2.975,2.975,0,0,1,.662-3.349c.863-.676,1.972-.273,2.47.9a2.977,2.977,0,0,1-.663,3.35Z" transform="translate(-3015.728 -3187.459)"/></g><g transform="translate(2387.981 2943.406)"><path class="f" d="M3024.044,3196.107c-.719.563-1.642.228-2.059-.747a2.485,2.485,0,0,1,.553-2.792c.718-.564,1.642-.227,2.057.748a2.482,2.482,0,0,1-.552,2.792Z" transform="translate(-3021.785 -3192.294)"/></g><g transform="translate(2385.382 2935.474)"><path class="r" d="M3017.069,3099.324l-9.753-1.058h-16.349v2.472h27.371A1.454,1.454,0,0,0,3017.069,3099.324Z" transform="translate(-2990.967 -3098.266)"/></g><g transform="translate(2380.496 2929.249)"><path class="g" d="M2933.051,3030.711h21.235l-5.931-6.224h-15.3Z" transform="translate(-2933.051 -3024.486)"/></g><g transform="translate(2396.404 2937.946)"><rect class="c" width="12.18" height="6.302" transform="translate(0)"/></g><g transform="translate(2382.564 2928.324)"><path class="r" d="M2957.916,3013.527l-.347.925H2970.8a3.41,3.41,0,0,0-2.157-.925Z" transform="translate(-2957.569 -3013.527)"/></g><g transform="translate(2375.895 2928.324)"><path class="r" d="M2888.16,3029.451l.006-2.163a2.088,2.088,0,0,1,1.954-2.229h4.117c.958,0,1.732,1.022,1.732,2.3l1.311,2.089h1.747v-6.3a1.455,1.455,0,0,0-1.269-1.414l-9.754-1.058-2.471-7.149h-4.718a1.516,1.516,0,0,0-1.458,1.263l-.84,6.129v9.553h8.447a1.277,1.277,0,0,0,1.087-.606Z" transform="translate(-2878.516 -3013.527)"/></g><g transform="translate(2385.431 2938.899)"><path class="c" d="M2991.745,3142.127a1.982,1.982,0,0,1,1.735-2.158h4.117a1.982,1.982,0,0,1,1.734,2.158v1.045c0,.577.334,1.044.747,1.044h.747v-2.7a2.433,2.433,0,0,0-2.129-2.651h-5.3a2.094,2.094,0,0,0-1.833,2.281v3.469a1.263,1.263,0,0,0,.187-.656Z" transform="translate(-2991.558 -3138.867)"/></g><g transform="translate(2377.134 2929.249)"><path class="g" d="M2900.611,3030.71l-2.194-6.225h-3.391a1.192,1.192,0,0,0-1.151,1.013l-.671,5.211Z" transform="translate(-2893.204 -3024.486)"/></g><g transform="translate(2374.45 2935.717)"><path class="r" d="M2861.4,3102.589v6.665a1.444,1.444,0,0,0,1.444,1.444v-9.553A1.444,1.444,0,0,0,2861.4,3102.589Z" transform="translate(-2861.396 -3101.145)"/></g><path class="s" d="M2887.682,3101.862h-9.708v-.658a1.318,1.318,0,0,1,1.317-1.317.128.128,0,1,0,0-.255,1.573,1.573,0,0,0-1.572,1.572v.658h-9.427a.128.128,0,0,0,0,.255h9.427v6.685a.127.127,0,1,0,.255,0v-6.685h9.708a.128.128,0,0,0,0-.255Z" transform="translate(-493.144 -164.043)"/><g transform="translate(2394.978 2937.948)"><g transform="translate(0 0)"><path class="g" d="M3106.137,3129.483h-.482a.944.944,0,1,1,0-1.888h.482Z" transform="translate(-3104.711 -3127.595)"/></g><g transform="translate(0 2.308)"><path class="g" d="M3106.137,3156.845h-.482a.943.943,0,1,1,0-1.887h.482Z" transform="translate(-3104.711 -3154.958)"/></g></g><g transform="translate(2396.404 2937.946)"><rect class="g" width="4.169" height="1.889" transform="translate(0)"/></g><g transform="translate(2396.404 2940.256)"><rect class="g" width="4.169" height="1.889" transform="translate(0 0)"/></g><g transform="translate(2408.583 2937.946)"><rect class="g" width="4.169" height="1.889" transform="translate(0)"/></g><g transform="translate(2408.583 2940.256)"><rect class="g" width="4.169" height="1.889" transform="translate(0 0)"/></g><g transform="translate(2396.404 2939.836)"><rect class="r" width="16.349" height="0.42" transform="translate(0)"/></g><g transform="translate(2398.476 2942.144)"><rect class="t" width="13.767" height="4.21" transform="translate(0 0)"/></g><g transform="translate(2392.854 2945.802)"><rect class="t" width="1.408" height="3.098" transform="translate(0)"/></g><g transform="translate(2394.698 2942.144)"><path class="t" d="M3101.4,3177.324v2.1c0,1.163.674,2.105,1.506,2.105h2.272v-4.21Z" transform="translate(-3101.398 -3177.324)"/></g><g transform="translate(2374.922 2945.92)"><path class="g" d="M2875.6,3223.128h-8.094a.517.517,0,0,1,0-1.034h8.094Z" transform="translate(-2866.989 -3222.094)"/></g><g transform="translate(2329.583 2937.123)"><path class="g" d="M2329.583,3118.778l1.479-.965h42.631v1.93h-42.631Z" transform="translate(-2329.583 -3117.813)"/></g><g transform="translate(2382.783 2945.92)"><path class="g" d="M2962.085,3223.128h-1.4a.517.517,0,0,1,0-1.034h2.366C2963.048,3222.815,2962.7,3223.128,2962.085,3223.128Z" transform="translate(-2960.165 -3222.094)"/></g><g transform="translate(2334.067 2940.97)"><path class="c" d="M2383.65,3166.3a.917.917,0,0,1-.917-.917v-1.051a.917.917,0,0,1,.917-.917Z" transform="translate(-2382.733 -3163.416)"/></g><g transform="translate(2360.935 2940.493)"><rect class="r" width="11.703" height="6.461" transform="translate(0 0)"/></g><g transform="translate(2365.385 2941.887)"><path class="d" d="M2756.223,3174.9a.128.128,0,0,1-.128-.127v-.224h-1.889v.224a.128.128,0,0,1-.255,0v-.479h2.4v.479a.127.127,0,0,1-.127.127Z" transform="translate(-2753.952 -3174.292)"/></g><g transform="translate(2400.208 2942.705)"><g transform="translate(0 0)"><g transform="translate(0)"><path class="c" d="M3167.021,3184.607l-.313-.313.313-.314.314.314Z" transform="translate(-3166.708 -3183.98)"/></g><g transform="translate(0 1.754)"><rect class="c" width="0.443" height="0.443" transform="translate(0 0.313) rotate(-44.988)"/></g></g><g transform="translate(9.675 0)"><g transform="translate(0)"><path class="c" d="M3281.7,3184.607l-.313-.313.313-.314.313.314Z" transform="translate(-3281.385 -3183.98)"/></g><g transform="translate(0 1.754)"><rect class="c" width="0.443" height="0.443" transform="translate(0 0.313) rotate(-44.988)"/></g></g></g><g class="u" transform="translate(2361.236 2945.793)"><path class="g" d="M2717.883,3220.836H2704.89a.128.128,0,1,1,0-.255h12.992a.128.128,0,1,1,0,.255Z" transform="translate(-2704.763 -3220.581)"/></g><g transform="translate(2351.988 2939.575)"><path class="c" d="M2599.517,3146.877h-4.374v1.1h.977a1.982,1.982,0,0,1,1.734,2.158v1.045c0,.577.334,1.044.747,1.044h3.045v-2.7A2.434,2.434,0,0,0,2599.517,3146.877Z" transform="translate(-2595.143 -3146.877)"/></g><g transform="translate(2334.984 2940.97)"><rect class="c" width="4.392" height="2.885" transform="translate(0 0)"/></g><g transform="translate(2347.458 2942.378)"><path class="d" d="M2544.845,3185.841c-1.081.847-2.469.343-3.094-1.126a3.728,3.728,0,0,1,.83-4.2c1.081-.846,2.47-.342,3.095,1.125a3.731,3.731,0,0,1-.83,4.2Z" transform="translate(-2541.448 -3180.108)"/></g><g transform="translate(2349.268 2943.147)"><path class="f" d="M2563.751,3189.525a2.794,2.794,0,0,0-.622,3.146c.471,1.1,1.51,1.48,2.324.844a2.794,2.794,0,0,0,.618-3.147c-.469-1.1-1.508-1.477-2.32-.843Z" transform="translate(-2562.902 -3189.217)"/></g><g transform="translate(2349.678 2941.048)"><path class="b" d="M2571.624,3164.926a2.6,2.6,0,0,0-1.624-.586v0h-2.225v.317a3,3,0,0,1,2.583,2.04,4.966,4.966,0,0,1-1.105,5.587,2.422,2.422,0,0,1-1.477.545v.318H2570v0a3.218,3.218,0,0,0,2.814-2.2C2573.709,3168.839,2573.175,3166.139,2571.624,3164.926Z" transform="translate(-2567.775 -3164.338)"/></g><g transform="translate(2351.988 2941.048)"><path class="b" d="M2599,3164.926a2.6,2.6,0,0,0-1.624-.586v0h-2.225v.317a3,3,0,0,1,2.583,2.04,4.967,4.967,0,0,1-1.105,5.587,2.422,2.422,0,0,1-1.477.545v.318h2.225v0a3.218,3.218,0,0,0,2.814-2.2C2601.082,3168.839,2600.548,3166.139,2599,3164.926Z" transform="translate(-2595.148 -3164.338)"/></g><g transform="translate(2346.4 2941.045)"><path class="q" d="M2534.975,3166.514c-.9-2.1-2.887-2.828-4.438-1.614a5.346,5.346,0,0,0-1.189,6.017c.9,2.106,2.886,2.829,4.437,1.614S2535.87,3168.617,2534.975,3166.514Zm-1.914,4.316c-.859.673-1.963.273-2.459-.895a2.964,2.964,0,0,1,.659-3.335c.86-.672,1.963-.271,2.46.895A2.965,2.965,0,0,1,2533.061,3170.83Z" transform="translate(-2528.913 -3164.311)"/></g></g></g></svg>