<svg xmlns="http://www.w3.org/2000/svg" xmlns:xlink="http://www.w3.org/1999/xlink" width="104" height="104" viewBox="0 0 104 104">
  <defs>
    <clipPath id="clip-path">
      <circle id="Elipse_1549" data-name="Elipse 1549" cx="52" cy="52" r="52" transform="translate(0.418 -0.363)"/>
    </clipPath>
  </defs>
  <g id="Enmascarar_grupo_37" data-name="Enmascarar grupo 37" transform="translate(-0.418 0.363)" clip-path="url(#clip-path)">
    <g id="Grupo_25843" data-name="Grupo 25843" transform="translate(-68.783 -16.325)">
      <rect id="Rectángulo_6029" data-name="Rectángulo 6029" width="219.749" height="154.051" transform="translate(0 0)" fill="#f1f4f9"/>
      <g id="Grupo_25842" data-name="Grupo 25842" transform="translate(0.127 22.988)">
        <path id="Trazado_29733" data-name="Trazado 29733" d="M1107.726,288.37H888l24.716-48.617,14.4-1.086,10.049,15.753,136.616.543,3.259-16.568,15.753-.272Z" transform="translate(-888 -180.232)" fill="#d3e2f4"/>
        <path id="Trazado_29734" data-name="Trazado 29734" d="M1557.795,232.874a20.238,20.238,0,0,1,13.67-10.717,8.58,8.58,0,0,1,3.8-.144c2.382.524,4.191,2.382,5.7,4.24a64.514,64.514,0,0,1,14.479,42.533" transform="translate(-1375.877 -168.384)" fill="#d3e2f4"/>
        <path id="Trazado_29735" data-name="Trazado 29735" d="M1601.715,236.62c-.814-2.444-7.876-14.123-12.493-14.667-1.038-.239-6.247,0-12.222,4.346C1591.123,222.5,1595.741,228.2,1601.715,236.62Z" transform="translate(-1389.866 -168.408)" fill="#a5caef"/>
        <path id="Trazado_29736" data-name="Trazado 29736" d="M940.931,232.874a21.963,21.963,0,0,0-14.954-10.717,10.391,10.391,0,0,0-4.191-.144c-2.572.524-4.574,2.382-6.247,4.24a61.047,61.047,0,0,0-15.813,42.533" transform="translate(-896.517 -168.384)" fill="#d3e2f4"/>
        <path id="Trazado_29737" data-name="Trazado 29737" d="M978,237.123" transform="translate(-953.556 -179.503)" fill="#a5caef" stroke="#a5caef" stroke-width="8"/>
        <path id="Trazado_29738" data-name="Trazado 29738" d="M987.923,256.19l4.8-3.71,2.048-3.906-.095-.1.095.1.1-.144c-1.429-2.094-2.988-4.142-4.617-6.095-2.857-3.335-6.619-6.717-11-6.336a8.547,8.547,0,0,0-1.57.272l.475,2C978.11,238.286,989.446,244.954,987.923,256.19Z" transform="translate(-953.319 -178.663)" fill="#d3e2f4"/>
        <path id="Trazado_29739" data-name="Trazado 29739" d="M1105.93,99.369a7.25,7.25,0,0,0-1.431-3.531c-1.086-1.192-2.762-1.526-4.346-1.763a47.927,47.927,0,0,0-23,2.523l-.049-.76c-8.477,4.617-19.669,3.762-26.91,10.19-2.477,2.192-4.286,5.1-6.094,7.86-2.382,3.62-4.954,7.143-7.67,10.525a57.484,57.484,0,0,0-6.809,8c-.953,1.429-1.812,2.955-2.857,4.384-2.287,3.142-5.383,5.619-8.1,8.42a14.506,14.506,0,0,0-2.808,3.762,6.443,6.443,0,0,0-.619,3.62,3.259,3.259,0,0,0,.666,1.809,4.551,4.551,0,0,0,1.239,1.285h0a3.678,3.678,0,0,0,1.812.573l-.1.475c3.189-1.38,4.951-4.761,6.9-7.621q.576-.782,1.143-1.57a12.5,12.5,0,0,1,3.1,1.524,24.072,24.072,0,0,1,2.716,2.238l-.049.049c.429.951.815,9.954,12,7.953l17.051-11.334,5.063-10.128-1.429-8.963-3.906-1.287c.272-.1.619-.19.9-.285a35.12,35.12,0,0,1,9.1-2.048c3.1-.144,1.012,12.723,3.443,14.676,2.762,2.238,5.948-.027,7.333,3.259.38.953,1.986,1.168,2.988,1.358.619.1,3.814-2.72,4.387-2.956,1.57-.714,8.963,14,6-3.62-.095-.524-.429-1.9-.095-2.333a4.032,4.032,0,0,0,.619-1.478c1.144-5.049,1.429-10.429,3.859-15,1.9-3.618,5.1-6.573,6.19-10.525C1107.025,105.656,1106.55,102.465,1105.93,99.369Z" transform="translate(-980.642 -74.992)" fill="#1c5cc1"/>
        <path id="Trazado_29740" data-name="Trazado 29740" d="M1106.516,191.748c-2.716,1.048-4.764,3.382-6.431,5.81s-3.048,5.049-5.1,7.146c-1.523,1.63-3.43,2.9-4.954,4.525a27.2,27.2,0,0,0-2.572,3.142c-2.667,3.572-5.38,7.192-8.048,10.764.9,1,1.809,1.953,2.716,2.952.239.239.475.524.815.478a.962.962,0,0,0,.668-.383,34.353,34.353,0,0,0,3.531-3.952c1.858-2.382,3.335-5.049,5.288-7.382,2.953-3.572,6.763-6.288,9.859-9.718s5.475-8.048,4.525-12.526a11.6,11.6,0,0,0-.334-1.236" transform="translate(-1027.426 -146.175)" fill="#134aa3"/>
        <path id="Trazado_29741" data-name="Trazado 29741" d="M1204.117,211.05a12.666,12.666,0,0,0-.334-1.285c-.1-.272-.524-.1-.427.19l.272,1.143c.1.285.57.239.475-.049Z" transform="translate(-1117.694 -159.478)" fill="#e83b0d"/>
        <path id="Trazado_29742" data-name="Trazado 29742" d="M1333.42,209.418l-9.905,11.429s2.143,12.621,2.382,13.624,10.19,4.476,10.19,4.476h13.241l8.384-1.429.524-12.241Z" transform="translate(-1205.229 -159.323)" fill="#ef1485"/>
        <path id="Trazado_29743" data-name="Trazado 29743" d="M1465.908,144.678s-3.575-8.906-17.336-9.43l-.907,5.668,5.478,3.8Z" transform="translate(-1295.659 -105.298)" fill="#ff409e"/>
        <path id="Trazado_29744" data-name="Trazado 29744" d="M1302.309,196.439c-2.428,12.575-3.762,31.2,0,36.2.619.855-.714-2.572.19-2,.288.19,1.9,2.621,2.287,2.572,1.143-.19,2.811-1.143,3.1-2.287.714-2.667,2.618-1.953,3.571-4.525a8.952,8.952,0,0,0,.334-2.333c.272-6.668,2.143-13.1,4-19.479.144-.573-.38-1.287-.524-1.858a3.109,3.109,0,0,0-1.714-1.573c-1.333-.665-3.669-3.572-5.193-3.857-1.475-.239-4.81-1.714-6.048-.858" transform="translate(-1188.072 -149.677)" fill="#ffb38a"/>
        <path id="Trazado_29745" data-name="Trazado 29745" d="M1325.457,216.2a3.1,3.1,0,0,0-1.714-1.57,23.341,23.341,0,0,1-3.1-2.572c-.1.665-.144,1.334-.239,2a15.718,15.718,0,0,0-.144,2.572c0,.668.1,1.334.049,2a8.9,8.9,0,0,1-.57,2.189,23.673,23.673,0,0,0-1.048,6.051c-.1,1.809,0,3.713-.953,5.239a11.7,11.7,0,0,1-1.19,1.429,11.72,11.72,0,0,0-2.336,4.525c2.1-1.63,4.194-3.24,6.247-4.859a4.249,4.249,0,0,1,1-.619c.334-.144.666-.19,1-.334a107.857,107.857,0,0,1,3.477-14.289C1326.171,217.487,1325.6,216.773,1325.457,216.2Z" transform="translate(-1198.454 -161.246)" fill="#ea9f78"/>
        <path id="Trazado_29746" data-name="Trazado 29746" d="M1494.935,165.942c6.907,12.241,12.526,21.576,19.433,33.817.19.38-1.239.524-1.523.856a11.9,11.9,0,0,1-1.763,1.429c-1.478.193-.272,1.573-1.763,1.763-.858.1-.475,1.086-1.333.9a9.56,9.56,0,0,1-2.857-1.475c-3.382-2.287-7.431-4-9.574-7.526a21.037,21.037,0,0,1-2-5.285c-1.048-3.669-2.241-7.241-3.621-10.766-1-2.523-2.1-5.236-1.428-7.857.475-1.953,1.858-3.531,3.191-5.049a4.176,4.176,0,0,1,1.38-1.19,1.432,1.432,0,0,1,1.667.285c.1.1.144.285,0,.334-.095.1-.19-.19-.046-.144" transform="translate(-1325.259 -127.276)" fill="#ffb38a"/>
        <path id="Trazado_29747" data-name="Trazado 29747" d="M1507.924,204.575a.932.932,0,0,1-.217-.027,7.877,7.877,0,0,1-2.469-1.217l-.421-.272c-.836-.565-1.73-1.105-2.594-1.63-2.645-1.6-5.383-3.259-7.007-5.929a18.728,18.728,0,0,1-1.866-4.8l-.146-.508c-1.086-3.789-2.265-7.309-3.617-10.755l-.033-.087c-1.016-2.561-2.064-5.209-1.4-7.83.48-1.964,1.86-3.531,3.194-5.065l.019-.022a4.175,4.175,0,0,1,1.41-1.211,1.534,1.534,0,0,1,1.782.31.427.427,0,0,1,.1.166l.1-.057c3.455,6.122,6.641,11.608,9.72,16.913s6.247,10.785,9.712,16.9a.235.235,0,0,1,0,.2c-.082.2-.424.307-.815.437a2.042,2.042,0,0,0-.728.326,11.554,11.554,0,0,1-1.814,1.461c-.676.087-.736.418-.815.815a.97.97,0,0,1-.961.959.676.676,0,0,0-.581.478C1508.386,204.339,1508.27,204.575,1507.924,204.575Zm-14.417-39.312a1.726,1.726,0,0,0-.652.13,4.026,4.026,0,0,0-1.358,1.162l-.022.024a12.491,12.491,0,0,0-3.151,4.987c-.652,2.561.386,5.182,1.391,7.716l.032.087c1.358,3.452,2.54,6.975,3.624,10.772l.146.508a18.528,18.528,0,0,0,1.844,4.756c1.6,2.632,4.318,4.275,6.945,5.864.867.524,1.76,1.065,2.6,1.63l.421.272a7.792,7.792,0,0,0,2.406,1.2c.372.081.454-.082.576-.326a.858.858,0,0,1,.725-.581c.668-.087.731-.421.8-.815a.963.963,0,0,1,.965-.959,13.232,13.232,0,0,0,1.705-1.4,2.036,2.036,0,0,1,.815-.378c.293-.1.657-.215.7-.329a.04.04,0,0,0,0-.043c-3.449-6.114-6.633-11.595-9.71-16.9s-6.225-10.717-9.65-16.793a.217.217,0,0,1-.13.152.144.144,0,0,1-.177,0,.223.223,0,0,1-.07-.255.139.139,0,0,1,.155-.068.12.12,0,0,0-.025-.027,1.126,1.126,0,0,0-.907-.383Zm.953.454-.054.155h0a.054.054,0,0,0,.032-.014h0a.06.06,0,0,0-.032,0l.038-.022h0a.029.029,0,0,0,.019-.022.166.166,0,0,0,0-.106Z" transform="translate(-1324.999 -127.021)" fill="#e57d59"/>
        <path id="Trazado_29748" data-name="Trazado 29748" d="M1475.652,173.879c3.382,3.667,3.62,9.289,6.1,13.67,2.379,4.1,6.619,6.858,9.145,10.864a24.9,24.9,0,0,1,2.667,6.478,2.6,2.6,0,0,1-.239,2.382,2.711,2.711,0,0,1-1.63.475l-5.763.288a2.126,2.126,0,0,1-.953-.1c-.619-.239-.9-.907-1.189-1.478a177.662,177.662,0,0,0-11.136-21.291c-1.189-1.9-2.428-4-2.238-6.247a9.9,9.9,0,0,1,2.572-5,3.342,3.342,0,0,1,1.762-1.382c.763-.144,1.63.668,1.285,1.334" transform="translate(-1312.215 -132.451)" fill="#ea9f78"/>
        <path id="Trazado_29749" data-name="Trazado 29749" d="M1361.334,140a3.178,3.178,0,0,1-1.9-1.809c-.144-.285-.144-.619-.271-.953a3.32,3.32,0,0,0-1.334-1.475c-2.621-1.716-6.048-1.63-9-2.667a18.685,18.685,0,0,0-3.479-1.192,10.085,10.085,0,0,0-3.572.288c-4.761.951-9.525,1.855-14.289,2.808-3.332.668-6.763,1.334-9.62,3.24-.57.38-1.086.714-1.63,1.046A12.323,12.323,0,0,0,1313.9,141a9.411,9.411,0,0,0-1.812,2.048,20.848,20.848,0,0,0-3.237,6.619,5.883,5.883,0,0,1,4.761,1.287c2.143,1.858,4.05,4.856,5.858,6.573l.1.046c1.333.815,5.432,1.429,5.527,3,.237,3.43-3.335,7.333-1.629,10.321a17.552,17.552,0,0,0,3.145-1.858,3.41,3.41,0,0,1,3.476-.331c.429.272.76.714,1.285.856.953.288,1.763-.665,2.287-1.524,3.143-4.666,7.431-8.762,12.765-10.478,2.048-.665,4.237-.951,6.334-1.57a22.8,22.8,0,0,0,5.19-2.241c.573-.331-.142.334.288-.19,0,0-.144-.19.38-.429,1.9-.951,3.906-9.335,6.193-10.9C1363.846,140.193,1363.507,140.858,1361.334,140Z" transform="translate(-1194.55 -102.811)" fill="#ff409e"/>
        <path id="Trazado_29750" data-name="Trazado 29750" d="M1342.122,190.017l-.271-1.809a13.472,13.472,0,0,0-3.906,7.143,57.741,57.741,0,0,0,3.8,4.479l.19.19c.429.429.76,1.048,1.19,1.238.144-1.334.478-3.667.668-4.479C1344.121,195.115,1342.122,190.017,1342.122,190.017Z" transform="translate(-1215.739 -143.874)" fill="#ef1485"/>
        <path id="Trazado_29751" data-name="Trazado 29751" d="M1490.563,165.469c-3.574,2.477-2.431,8.287-6.051,10.525-.142.1,0,.334.193.239,3.667-2.287,2.523-8.05,6.048-10.527C1490.894,165.564,1490.7,165.325,1490.563,165.469Z" transform="translate(-1322.457 -127.278)" fill="#ef1485"/>
        <path id="Trazado_29752" data-name="Trazado 29752" d="M1313.282,189.75c3.621-1.285,6.858,3.384,8.241,5.907.1.144.334.046.272-.1-1.475-2.667-4.856-7.382-8.621-6.049a.13.13,0,1,0,.095.236Z" transform="translate(-1197.616 -144.655)" fill="#ef1485"/>
        <path id="Trazado_29753" data-name="Trazado 29753" d="M1449.842,164.708h-1l-2.767,4.286s4.381,6.622,5.571,8.526a12.143,12.143,0,0,0,1.762,2.048,21.907,21.907,0,0,0,4.43-2c.144-.1.19-.1.239-.1,0-.049.046-.049.046-.1,0,0-.142-.19.38-.429.763-.38,1.527-1.9,2.287-3.716A14.121,14.121,0,0,0,1449.842,164.708Z" transform="translate(-1294.501 -126.756)" fill="#ef1485"/>
        <path id="Trazado_29754" data-name="Trazado 29754" d="M1240.456,129.808s-6.518,12.385,6.143,17.005l1-6.288-2.428-5.19Z" transform="translate(-1143.506 -101.335)" fill="#ffcdaa"/>
        <path id="Trazado_29755" data-name="Trazado 29755" d="M1120.076,294.25s-2.143,1.9-1.086,3.952l2.988-1.953s.57-1.429.619-1.57.236-1.086.236-1.086l-.272-.524Z" transform="translate(-1056.039 -220.254)" fill="#0061bc"/>
        <path id="Trazado_29756" data-name="Trazado 29756" d="M1416.985,205.038l.271.288v-.1Z" transform="translate(-1273.312 -156.133)" fill="#fca73b"/>
        <path id="Trazado_29757" data-name="Trazado 29757" d="M1260.782,151.653l-2.857,13.192,5.907-1.046.714.141a5.845,5.845,0,0,0,6.858-4.1l2.333-8.287Z" transform="translate(-1157.453 -117.178)" fill="#ffcdaa"/>
        <g id="Grupo_25841" data-name="Grupo 25841" transform="translate(99.283 39.144)" opacity="0.35">
          <path id="Trazado_29758" data-name="Trazado 29758" d="M1258.309,171.143l-1.144,9.623-3.62-5.812,1.334-5.856Z" transform="translate(-1253.545 -169.098)" fill="#e98920"/>
        </g>
        <ellipse id="Elipse_1529" data-name="Elipse 1529" cx="3.811" cy="2.716" rx="3.811" ry="2.716" transform="translate(116.38 26.71) rotate(-70.05)" fill="#ffcdaa"/>
        <ellipse id="Elipse_1530" data-name="Elipse 1530" cx="2.716" cy="3.811" rx="2.716" ry="3.811" transform="translate(94.838 18.092) rotate(-6.04)" fill="#ffcdaa"/>
        <path id="Trazado_29759" data-name="Trazado 29759" d="M1262.054,81.382l-2.526,1.429a9.214,9.214,0,0,1-5.62,1.086h0l-3.666-.429a8.965,8.965,0,0,1-5-2.284l-1.629-1.478a9.2,9.2,0,0,1-1.524-6.858l4.574-26.53,20.954,2.572-2.572,26.53A9.233,9.233,0,0,1,1262.054,81.382Z" transform="translate(-1145.816 -40.521)" fill="#ffaf97"/>
        <path id="Trazado_29760" data-name="Trazado 29760" d="M1242.489,112.476a7.508,7.508,0,0,0,2.047,3.05l.815.714a9.279,9.279,0,0,0,5.047,2.143l3.669.429h0a9.234,9.234,0,0,0,5.619-1.086l2.523-1.429a9,9,0,0,0,2.988-5.953l1.288-14.43.046-1.287-2.572,10.147a3.764,3.764,0,0,1-4.191,3.094l-11.421-1.4a3.832,3.832,0,0,1-3.332-4.191l.334-7.765-1.048-.331-2.192,13.645A9.075,9.075,0,0,0,1242.489,112.476Z" transform="translate(-1145.827 -75.382)" fill="#162457"/>
        <ellipse id="Elipse_1531" data-name="Elipse 1531" cx="1.095" cy="0.858" rx="1.095" ry="0.858" transform="translate(112.498 24.204) rotate(-83.04)" fill="#00347e"/>
        <ellipse id="Elipse_1532" data-name="Elipse 1532" cx="1.095" cy="0.858" rx="1.095" ry="0.858" transform="translate(105.749 23.394) rotate(-83.04)" fill="#00347e"/>
        <path id="Trazado_29761" data-name="Trazado 29761" d="M1288.047,115.943,1288,115.7c1.244-.25,2.012-.755,2.279-1.5.543-1.483-1.049-3.468-1.065-3.487l-.033-.043.245-1.958.25.033-.234,1.852c.245.312,1.63,2.173,1.087,3.688A3.015,3.015,0,0,1,1288.047,115.943Z" transform="translate(-1179.356 -85.966)" fill="#ff6700"/>
        <rect id="Rectángulo_6030" data-name="Rectángulo 6030" width="0.253" height="2.893" transform="matrix(0.296, -0.955, 0.955, 0.296, 113.084, 19.581)" fill="#00347e"/>
        <rect id="Rectángulo_6031" data-name="Rectángulo 6031" width="2.863" height="0.253" transform="translate(104.995 18.992) rotate(-3.81)" fill="#00347e"/>
        <path id="Trazado_29762" data-name="Trazado 29762" d="M1333.141,53.957l-.855,11.1s2.762-2.762,4-3.191.619-5.144.619-5.144l-2.048-2.572-.524-.619Z" transform="translate(-1211.617 -45.773)" fill="#00457f"/>
        <path id="Trazado_29763" data-name="Trazado 29763" d="M1251.975,36.636a17.114,17.114,0,0,0,8.1,3.145c3.952.285,7.714-1.382,11.288-3a5,5,0,0,1,1.858-.573,2.027,2.027,0,0,1,1.76.668,2.365,2.365,0,0,1,.383,1.429,6.094,6.094,0,0,1-3.335,5.478c0,.57-.046,1.19-.046,1.76a6.839,6.839,0,0,0,1.63-.665,9.114,9.114,0,0,0,3.427-3.43,11.133,11.133,0,0,0,1-7.333,27.613,27.613,0,0,0-2.477-7.146,3.9,3.9,0,0,0-.815-1.285,3.036,3.036,0,0,0-3.05-.524,13.04,13.04,0,0,0-2.858,1.478,5.7,5.7,0,0,1-3,1.046,6.036,6.036,0,0,1-1.63-.272q-1.573-.429-3.143-1a10.191,10.191,0,0,0-2.048-.573,6.216,6.216,0,0,0-3.859,1,18.022,18.022,0,0,0-3.1,2.618c-.76.714-1.475,1.478-2.238,2.192a.887.887,0,0,0-.331.57,1,1,0,0,0,.19.524q1.282,2.143,2.572,4.286" transform="translate(-1151.313 -24.975)" fill="#162457"/>
        <path id="Trazado_29764" data-name="Trazado 29764" d="M1264.075,137.8s7.716-2.238,13.194,1.9l-3.669,1.717-3.667.951-4.1-1.086Z" transform="translate(-1161.933 -106.715)" fill="#162457"/>
        <path id="Trazado_29765" data-name="Trazado 29765" d="M1261.462,102.752a4.719,4.719,0,0,1-.619-.041,4.929,4.929,0,0,1-3.3-1.885,4.805,4.805,0,0,1-.975-3.572h0a6.08,6.08,0,0,1,.2-.88l.041-.117,9.474,1.171.019.111a2.682,2.682,0,0,1,0,.907,4.918,4.918,0,0,1-1.885,3.295A4.816,4.816,0,0,1,1261.462,102.752Zm-4.6-5.456a4.511,4.511,0,0,0,.915,3.346,4.618,4.618,0,0,0,3.1,1.771,4.5,4.5,0,0,0,3.346-.918A4.616,4.616,0,0,0,1266,98.4a2.435,2.435,0,0,0,.016-.7l-9-1.122A6.2,6.2,0,0,0,1256.867,97.3Z" transform="translate(-1156.436 -76.897)" fill="#fff"/>
        <path id="Trazado_29766" data-name="Trazado 29766" d="M1300.419,107.542a4.46,4.46,0,0,1-.5-.03,4.375,4.375,0,0,1-2.944-1.689,4.908,4.908,0,0,1-.814-4.557l.038-.117,8.879,1.086v.133a5.157,5.157,0,0,1-.052.883A4.787,4.787,0,0,1,1300.419,107.542Zm-4-6.065a4.919,4.919,0,0,0-.146.671,4.706,4.706,0,0,0,.937,3.487,4.073,4.073,0,0,0,2.74,1.575,4.465,4.465,0,0,0,4.786-4.012,4.086,4.086,0,0,0,.046-.7Z" transform="translate(-1185.128 -80.459)" fill="#fff"/>
        <rect id="Rectángulo_6032" data-name="Rectángulo 6032" width="0.301" height="7.439" transform="translate(107.087 20.485) rotate(-83.01)" fill="#fff"/>
        <path id="Trazado_29767" data-name="Trazado 29767" d="M1282.219,143.88a4.895,4.895,0,0,1-2.5-.872l.074-.1a4.467,4.467,0,0,0,2.947.8,2.4,2.4,0,0,0,1.581-1.206l.109.062a2.515,2.515,0,0,1-1.665,1.266A2.638,2.638,0,0,1,1282.219,143.88Z" transform="translate(-1173.324 -110.578)" fill="#fff"/>
        <path id="Trazado_29768" data-name="Trazado 29768" d="M1241.861,53.122a4.507,4.507,0,0,0-.815,3.286,8.867,8.867,0,0,1,.141,1.086,6.321,6.321,0,0,1-1.143,2.762,6.429,6.429,0,0,0-.665,2.477,5.4,5.4,0,0,1-.19,1.524c-.19.475-.573.953-1.087.953.142-.714-.193-2.952-.815-3.286a1.648,1.648,0,0,0-2.238.76,7.309,7.309,0,0,0-.953-6.19,5.312,5.312,0,0,1-1.086-2.143c-.19-1.478,1.238-2.572,2.477-3.335a2.417,2.417,0,0,1,2.143-.57,2.537,2.537,0,0,1,.954.815,9.265,9.265,0,0,0,3.286,2.284" transform="translate(-1139.292 -43.46)" fill="#162457"/>
        <g id="Grupo_5997" data-name="Grupo 5997" transform="translate(120.66 7.213)">
          <g id="Grupo_5996" data-name="Grupo 5996">
            <g id="Grupo_5995" data-name="Grupo 5995">
              <path id="Trazado_6718" data-name="Trazado 6718" d="M1358.047,78.78A29.884,29.884,0,0,1,1355.271,87s8.334,2.7,13.037-1.358c0,0,4.282-15.285-2.14-25.254-3.133-4.864-7.994-8.3-13.758-8.777-3.572-.293-7.942.136-11.4,2.929,0,0-12.263,8.948-7.765,33.2l12.016.4,2.335-11.623Z" transform="translate(-1332.254 -51.534)" fill="#031f59"/>
            </g>
          </g>
        </g>
        <path id="Trazado_29769" data-name="Trazado 29769" d="M1359.165,108.5h0c-5.049.429-9.574-2.477-10.525-6.763l-3.906-17.717,24.444-3.8-.714,19.718C1368.359,104.355,1364.309,108.071,1359.165,108.5Z" transform="translate(-1220.685 -65.214)" fill="#ffb38a"/>
        <ellipse id="Elipse_1533" data-name="Elipse 1533" cx="3.572" cy="2.523" rx="3.572" ry="2.523" transform="matrix(0.146, -0.989, 0.989, 0.146, 145.038, 31.641)" fill="#ffb38a"/>
        <ellipse id="Elipse_1534" data-name="Elipse 1534" cx="2.523" cy="3.572" rx="2.523" ry="3.572" transform="translate(122.7 27.599) rotate(-17.59)" fill="#ffb38a"/>
        <ellipse id="Elipse_1535" data-name="Elipse 1535" cx="0.904" cy="1.143" rx="0.904" ry="1.143" transform="matrix(0.997, -0.08, 0.08, 0.997, 139.735, 28.09)" fill="#003c6f"/>
        <ellipse id="Elipse_1536" data-name="Elipse 1536" cx="0.904" cy="1.143" rx="0.904" ry="1.143" transform="matrix(0.997, -0.08, 0.08, 0.997, 132.641, 28.186)" fill="#003c6f"/>
        <path id="Trazado_29770" data-name="Trazado 29770" d="M1391.788,158.276a4.02,4.02,0,0,1-1.483-.318l.106-.231a3.239,3.239,0,0,0,2.189.147,1.776,1.776,0,0,0,.975-1.086l.233.09a2.008,2.008,0,0,1-1.113,1.22A2.375,2.375,0,0,1,1391.788,158.276Z" transform="translate(-1253.878 -120.987)" fill="#00347e"/>
        <path id="Trazado_29771" data-name="Trazado 29771" d="M1388.951,137.761l-1.383-1.048a.833.833,0,0,1-.334-.644.937.937,0,0,1,.328-.742,4.013,4.013,0,0,0,.956-3.083l.253-.027a4.238,4.238,0,0,1-1.043,3.3.683.683,0,0,0-.242.543.58.58,0,0,0,.234.454l1.382,1.048Z" transform="translate(-1251.641 -103.091)" fill="#ff6700"/>
        <path id="Trazado_29772" data-name="Trazado 29772" d="M1344.41,89.52a3.229,3.229,0,0,1,.272,2.906c-.332.951-.855,1.858-1.143,2.857-.521,1.9-.831,1.453-.022,3.259-.814.345-1.591-.589-2.069-1.828-.236-.573.187-.149-.383-.435-.239-.1-.478-.144-.714-.239a2.772,2.772,0,0,1-1.333-1.239,7.97,7.97,0,0,1-1-3.333,5.859,5.859,0,0,1,.815-3.047,2.738,2.738,0,0,1,2.955-1.382c1.333.19,2.189,1.524,2.667,2.716" transform="translate(-1215.789 -70.143)" fill="#162457"/>
        <path id="Trazado_29773" data-name="Trazado 29773" d="M1353.715,76.729c1.809,2.762,5.334,3.906,8.621,4.047,2.048.049,4.191-.19,6.095.478a28.543,28.543,0,0,1,3.765,2,5.255,5.255,0,0,0,4.1.619,14.187,14.187,0,0,0-.1-3.477c-.095-1.086-.619-2.192-.334-3.286.815-3.191-.475-3.191-1.763-3.952a3.805,3.805,0,0,0-1.475-.478,50.676,50.676,0,0,0-12-1,10.33,10.33,0,0,0-4.669.953,5.787,5.787,0,0,0-2.716,3.286.936.936,0,0,0-.046.714.437.437,0,0,0,.56.263.422.422,0,0,0,.059-.027" transform="translate(-1226.808 -58.971)" fill="#162457"/>
        <circle id="Elipse_1537" data-name="Elipse 1537" cx="0.763" cy="0.763" r="0.763" transform="translate(148.339 30.901)" fill="#ff7434"/>
        <circle id="Elipse_1538" data-name="Elipse 1538" cx="0.763" cy="0.763" r="0.763" transform="translate(125.047 32.759)" fill="#ff7434"/>
        <path id="Trazado_29774" data-name="Trazado 29774" d="M1401.9,119.971a4.7,4.7,0,0,1,1.63-.334,1.881,1.881,0,0,1,.855.19,5.442,5.442,0,0,1,.763.383c-.272-.049-.524-.144-.815-.19a4.111,4.111,0,0,0-.815-.1C1402.992,119.876,1402.468,119.971,1401.9,119.971Z" transform="translate(-1262.32 -93.927)" fill="#00447f"/>
        <path id="Trazado_29775" data-name="Trazado 29775" d="M1373.978,121.39c-.573.046-1.087.046-1.63.141a2.043,2.043,0,0,0-.763.239c-.239.1-.476.239-.76.334a8.566,8.566,0,0,1,.714-.478,2.381,2.381,0,0,1,.815-.285A3.122,3.122,0,0,1,1373.978,121.39Z" transform="translate(-1239.689 -95.106)" fill="#00447f"/>
        <path id="Trazado_29776" data-name="Trazado 29776" d="M1360.6,93.7a5.869,5.869,0,0,0,2.572,1.809,14.72,14.72,0,0,0,4.479,1.143c1.239.144,2.523.1,3.713.334a9.3,9.3,0,0,1,4,1.809c.522.429,1.046.907,1.57,1.382a9.455,9.455,0,0,0,6.288,2.428,12.182,12.182,0,0,0-.524-2.618,7.463,7.463,0,0,0-.763-1.953,7.822,7.822,0,0,0-1.855-1.9,17.774,17.774,0,0,0-2.621-1.9,12.792,12.792,0,0,0-5.432-1.573,46.148,46.148,0,0,0-5.7.049l-5.239.285c-.478.049-1.086.144-1.239.619" transform="translate(-1231.691 -74.231)" fill="#162457"/>
        <path id="Trazado_29777" data-name="Trazado 29777" d="M1380.505,176.691a12.781,12.781,0,0,1,.524,5.81l9.234-2.048-.429-4.525Z" transform="translate(-1246.74 -134.929)" fill="#ffb38a"/>
        <path id="Trazado_29778" data-name="Trazado 29778" d="M1352.78,102.5s4.425-3.8,2.173-7.8l-3.118,1.382.193,3.531Z" transform="translate(-1225.856 -75.761)" fill="#162457"/>
        <path id="Trazado_29779" data-name="Trazado 29779" d="M1340.525,269.2s7.906-7.333,12.382-9.1l4.617,5.619,8.906,4.286,2.86,3.955a10.783,10.783,0,0,0,0,1.763c.095.239-7.146,1.63-7.146,1.63l-10.715-.619Z" transform="translate(-1217.619 -196.245)" fill="#0af"/>
        <path id="Trazado_29780" data-name="Trazado 29780" d="M1386.928,330.307c-.046-.619-.141-1.19-.19-1.809C1386.6,329.163,1387.026,331.07,1386.928,330.307Z" transform="translate(-1251.259 -246.061)" fill="#ffbe53"/>
        <path id="Trazado_29781" data-name="Trazado 29781" d="M1391.613,323.817c-.049-.619-.144-1.19-.19-1.809C1391.233,322.722,1391.66,324.626,1391.613,323.817Z" transform="translate(-1254.657 -241.333)" fill="#ffbe53"/>
        <path id="Trazado_29782" data-name="Trazado 29782" d="M1399.517,207.558a30.025,30.025,0,0,0-1.048-18.67c-3.333-8.191-10.479-12.955-17.051-13.146-6.714-.19-14.286,4.346-17.956,12.811a30.949,30.949,0,0,0-1.629,18.624C1369.416,210.035,1384.514,213.987,1399.517,207.558Z" transform="translate(-1232.603 -134.79)" fill="#031f59"/>
        <path id="Trazado_29783" data-name="Trazado 29783" d="M1413.109,233.388s4.288,4.346,3.145,18.29l-26.291.141s-2.526-16.527,1.858-22.051Z" transform="translate(-1253.102 -174.146)" fill="#021333"/>
        <path id="Trazado_29784" data-name="Trazado 29784" d="M1403.321,305.562c6.334,2.333,12.622,4.617,18.955,6.953a26.459,26.459,0,0,0,5.954,1.668,27.464,27.464,0,0,0,8.1-.573,4.99,4.99,0,0,0,1.858-.57c1.192-.714,4.094-1.6,4.423-2.94.475-1.9,2.784-3.8,3.259-5.7.175-.506-4.193-1.7-4.306-2.223a2.78,2.78,0,0,0-.666-1.046,11.77,11.77,0,0,0-12.431-3.05c-1.953.714-3.761,1.953-5.81,1.9a16.186,16.186,0,0,1-2.716-.429,22.212,22.212,0,0,0-7.716.57,24.865,24.865,0,0,0-5.285,1.478,8.162,8.162,0,0,0-4,3.572" transform="translate(-1263.078 -223.418)" fill="#ffcdaa"/>
        <path id="Trazado_29785" data-name="Trazado 29785" d="M1344.511,279.4c-1.953.953-2.382,3.667-1.812,5.763a3.783,3.783,0,0,0,.859,1.63,3.947,3.947,0,0,0,1.428.858c4.476,1.809,9.574.57,13.955-1.382s8.574-4.525,13.289-5.524a25.4,25.4,0,0,0,2.572-.619,12.188,12.188,0,0,0,2.762-1.573c2.716-1.953,5.285-4.237,8.382-5.524a15.168,15.168,0,0,1,7.668-1.048c-.227-1.846.238-.108-.757-1.68-.121-.22-1.978.158-2.173,0-.287-.172-1.544.789-1.629-1.086-2.618-.144-3.24-.932-5.432.543-2.192,1.429-4.869,1.892-7.251,2.986-3.332,1.573-7.143,1.763-10.809,2.1-7.477.617-15.052,1.714-21.956,4.715" transform="translate(-1219.033 -202.632)" fill="#ffcdaa"/>
        <path id="Trazado_29786" data-name="Trazado 29786" d="M1307.945,311.176a3.955,3.955,0,0,1-1.086-2.572,10.27,10.27,0,0,1,1.086-4.346" transform="translate(-1193.089 -228.404)" fill="#ffc75c"/>
        <path id="Trazado_29787" data-name="Trazado 29787" d="M1307.712,311.183a4,4,0,0,1-1.113-2.613,9.868,9.868,0,0,1,1.086-4.316l.019-.046.117.049-.019.046a10.07,10.07,0,0,0-1.086,4.259,3.866,3.866,0,0,0,1.086,2.531Z" transform="translate(-1192.899 -228.368)" fill="#fca73b"/>
        <ellipse id="Elipse_1539" data-name="Elipse 1539" cx="1.668" cy="2.333" rx="1.668" ry="2.333" transform="translate(135.335 57.909)" fill="#ffcdaa"/>
        <ellipse id="Elipse_1540" data-name="Elipse 1540" cx="1.668" cy="2.333" rx="1.668" ry="2.333" transform="translate(157.435 57.909)" fill="#ffcdaa"/>
        <path id="Trazado_29788" data-name="Trazado 29788" d="M1415.523,197.148H1393.8V214.2a8,8,0,0,0,1.9,5.144h0a9.029,9.029,0,0,0,6.953,3.142h4a9.028,9.028,0,0,0,6.953-3.142h0a8,8,0,0,0,1.9-5.144Z" transform="translate(-1256.42 -150.385)" fill="#ffcdaa"/>
        <path id="Trazado_29789" data-name="Trazado 29789" d="M1387.192,197.75s.19-3.859,5.81-7.716a6.765,6.765,0,0,1,7.287-2l3.24,4.617,1.524.239,7.906,10.239-.19-11.679-2.24-4.574s-2.857-1.855-3.571-1.855-5.669-2.336-5.669-2.336-4.617.1-4.905,0-4.191.383-5.144.478a14.114,14.114,0,0,0-3.142,1.143s-2.333,3.477-2.952,2.716c-.288-.38-.429,4.05-.429,4.476S1387.192,197.75,1387.192,197.75Z" transform="translate(-1249.807 -139.841)" fill="#031f59"/>
        <path id="Trazado_29790" data-name="Trazado 29790" d="M1410.665,197.315s1.524,5.524,5,8.667l4-.19a9.107,9.107,0,0,1-1.668-3.857s1.087,2.808,3.143,3.857h2.1a19.43,19.43,0,0,1-1.63-3.142,13.25,13.25,0,0,0,3.237,3.142h3.237l-.815-6-3.428-2.762-3.905-2.765-4.1-.617-2.987,1.63Z" transform="translate(-1268.708 -147.836)" fill="#031f59"/>
        <path id="Trazado_29791" data-name="Trazado 29791" d="M1375.944,191.535l-2.287-2.431a.634.634,0,0,0-1.049.239l-1.086,3.952a.622.622,0,0,0,.815.763l3.332-1.238,2.445,2.333a.627.627,0,0,0,1.046-.272l1.086-3.572a.647.647,0,0,0-.763-.815Z" transform="translate(-1240.177 -144.39)" fill="#0af"/>
        <path id="Trazado_29792" data-name="Trazado 29792" d="M1385.416,199.3l-.19-.049a.505.505,0,0,1-.387-.6l0-.019.288-1.141a.5.5,0,0,1,.6-.387l.019,0,.19.049a.506.506,0,0,1,.385.6.169.169,0,0,1,0,.017l-.272,1.143A.616.616,0,0,1,1385.416,199.3Z" transform="translate(-1249.888 -150.343)" fill="#0061bc"/>
        <path id="Trazado_29793" data-name="Trazado 29793" d="M1431.1,258.6l-.1-.16.38-.239a1.16,1.16,0,0,1,1.393.052l.239.193-.117.147-.239-.19a.978.978,0,0,0-1.171-.046Z" transform="translate(-1283.524 -194.705)" fill="#ed9232"/>
        <ellipse id="Elipse_1541" data-name="Elipse 1541" cx="1.953" cy="1.334" rx="1.953" ry="1.334" transform="translate(153.53 63.863)" fill="#ff9c5d"/>
        <ellipse id="Elipse_1542" data-name="Elipse 1542" cx="1.953" cy="1.334" rx="1.953" ry="1.334" transform="translate(139.624 63.863)" fill="#ff9c5d"/>
        <path id="Trazado_29794" data-name="Trazado 29794" d="M1434.869,267.776a3.4,3.4,0,0,1-1.244-.234l.1-.231a2.737,2.737,0,0,0,3.46-1.143l.214.136A2.89,2.89,0,0,1,1434.869,267.776Z" transform="translate(-1285.432 -200.66)" fill="#00347e"/>
        <circle id="Elipse_1543" data-name="Elipse 1543" cx="4.476" cy="4.476" r="4.476" transform="translate(138.719 55.622)" fill="#ffecd3"/>
        <path id="Trazado_29795" data-name="Trazado 29795" d="M1403.046,238.61a4.541,4.541,0,1,1,4.541-4.541h0A4.544,4.544,0,0,1,1403.046,238.61Zm0-8.963a4.416,4.416,0,1,0,4.413,4.419v-.005a4.419,4.419,0,0,0-4.413-4.405Z" transform="translate(-1259.851 -173.971)" fill="#00457f"/>
        <circle id="Elipse_1544" data-name="Elipse 1544" cx="4.476" cy="4.476" r="4.476" transform="translate(149.054 55.622)" fill="#ffecd3"/>
        <path id="Trazado_29796" data-name="Trazado 29796" d="M1441.1,238.61a4.541,4.541,0,1,1,4.541-4.541h0A4.546,4.546,0,0,1,1441.1,238.61Zm0-8.963a4.416,4.416,0,1,0,4.416,4.416v0a4.419,4.419,0,0,0-4.416-4.405Z" transform="translate(-1287.567 -173.971)" fill="#00457f"/>
        <path id="Trazado_29797" data-name="Trazado 29797" d="M1416.822,247.246a1.146,1.146,0,0,0-1.116-.856,1.106,1.106,0,0,0-1.026.731l-.233-.1a1.357,1.357,0,0,1,1.26-.888,1.4,1.4,0,0,1,1.358,1.048Z" transform="translate(-1271.462 -186.07)" fill="#00347e"/>
        <path id="Trazado_29798" data-name="Trazado 29798" d="M1447.161,247.246a1.146,1.146,0,0,0-1.116-.856,1.1,1.1,0,0,0-1.027.731l-.234-.1a1.358,1.358,0,0,1,1.26-.888,1.4,1.4,0,0,1,1.358,1.048Z" transform="translate(-1293.561 -186.07)" fill="#00347e"/>
        <path id="Trazado_29799" data-name="Trazado 29799" d="M1411.381,241.04l-.2-.16a2.04,2.04,0,0,1,2.716-.56l-.1.231A1.784,1.784,0,0,0,1411.381,241.04Z" transform="translate(-1269.087 -181.624)" fill="#00347e"/>
        <path id="Trazado_29800" data-name="Trazado 29800" d="M1448.475,240.825a1.819,1.819,0,0,0-2.474-.4l-.106-.228a2.052,2.052,0,0,1,2.765.459Z" transform="translate(-1294.37 -181.496)" fill="#00347e"/>
        <path id="Trazado_29801" data-name="Trazado 29801" d="M1433.108,246.685a1.183,1.183,0,0,0-1.573,0" transform="translate(-1283.91 -186.253)" fill="#ffd9a3"/>
        <path id="Trazado_29802" data-name="Trazado 29802" d="M1431.439,246.495l-.114-.152a1.285,1.285,0,0,1,1.695,0l-.133.136A1.094,1.094,0,0,0,1431.439,246.495Z" transform="translate(-1283.757 -185.986)" fill="#00457f"/>
        <path id="Trazado_29803" data-name="Trazado 29803" d="M1314.112,276.283l2.143-1.717a5.7,5.7,0,0,1,5.62-.9l7.241,2.667,5.285,3s2.523,2.988,3.715,3.286c0,0,.141,1.9-2.287,1.239l1.383,2.382.1,2.382a1.473,1.473,0,0,1-2.238.714s-1,3.142-2.906,1.524c0,0-1.714,2.523-2.988,0,0,0-.38,1.38-2.287.475l-4.49-4.155s-3.1-2.428-4-4.332a4.866,4.866,0,0,0-1.478,5.285s-1.189,1.714-2.094,1.714a11.274,11.274,0,0,0-5.239.383l-1.668-.714-.714-6.907Z" transform="translate(-1193.348 -205.848)" fill="#ffb38a"/>
        <path id="Trazado_29804" data-name="Trazado 29804" d="M1330.242,291.784h-.071a1.661,1.661,0,0,1-1.269-1,1.212,1.212,0,0,1-.57.543,2.094,2.094,0,0,1-1.768-.2l-.022-.016-4.479-4.145c-.117-.092-3-2.368-3.968-4.253a4.8,4.8,0,0,0-1.358,5.106l.016.046-.027.038c-.049.071-1.23,1.755-2.173,1.755a11.415,11.415,0,0,0-5.207.375h-.035l-1.755-.75-.722-7.01.032-.033,6.912-6.339,2.143-1.714a5.815,5.815,0,0,1,5.7-.918l7.24,2.667,5.327,3.028c.024.03,2.518,2.988,3.664,3.259l.068.016v.068a1.5,1.5,0,0,1-.475,1.176,1.941,1.941,0,0,1-1.711.217l1.28,2.23.1,2.4v.022a2.054,2.054,0,0,1-1.086,1.035,1.441,1.441,0,0,1-1.179-.215c-.145.391-.663,1.63-1.567,1.9a1.5,1.5,0,0,1-1.371-.375A2.52,2.52,0,0,1,1330.242,291.784Zm-1.375-1.475.109.215c.348.679.753,1.04,1.206,1.067h.06c.815,0,1.564-1.07,1.573-1.086l.06-.087.079.068a1.375,1.375,0,0,0,1.277.4c.956-.272,1.472-1.866,1.477-1.882l.038-.119.106.071a1.327,1.327,0,0,0,1.124.255,1.8,1.8,0,0,0,.967-.912l-.095-2.333-1.486-2.561.222.06a1.94,1.94,0,0,0,1.763-.122,1.278,1.278,0,0,0,.408-.951c-1.2-.372-3.482-3.047-3.686-3.286l-5.272-2.988-7.224-2.659a5.633,5.633,0,0,0-5.527.888l-2.143,1.714-6.869,6.3.706,6.79,1.578.676a11.477,11.477,0,0,1,5.255-.372c.758,0,1.8-1.388,1.975-1.63a5,5,0,0,1,1.524-5.345l.092-.071.049.106c.885,1.863,3.944,4.275,3.973,4.3l4.473,4.153a1.925,1.925,0,0,0,1.592.193,1.067,1.067,0,0,0,.543-.617Z" transform="translate(-1193.078 -205.566)" fill="#e57d59"/>
        <path id="Trazado_29805" data-name="Trazado 29805" d="M1402.393,317.989h-.187v-1.114l-2.7-4.074.158-.1,2.729,4.12Z" transform="translate(-1260.58 -234.552)" fill="#e57d59"/>
        <path id="Trazado_29806" data-name="Trazado 29806" d="M1393.312,325.279l-.185-.038.231-1.2-2.262-3.349.155-.106,2.309,3.414Z" transform="translate(-1254.454 -240.299)" fill="#e57d59"/>
        <path id="Trazado_29807" data-name="Trazado 29807" d="M1382.215,328.944l-.046-.875-1.934-2.309.146-.122,1.972,2.36.049.934Z" transform="translate(-1246.543 -243.978)" fill="#e57d59"/>
        <rect id="Rectángulo_6033" data-name="Rectángulo 6033" width="0.124" height="3.588" transform="translate(137.852 75.81) rotate(-36.409)" fill="#fca73b"/>
        <path id="Trazado_29808" data-name="Trazado 29808" d="M1348.181,303.794a3.7,3.7,0,0,1-.253-2.556l.182.041a3.633,3.633,0,0,0,.223,2.4Z" transform="translate(-1222.922 -226.205)" fill="#e57d59"/>
        <path id="Trazado_29809" data-name="Trazado 29809" d="M1344.315,304.654a1.629,1.629,0,0,1-1.184-.584,1.2,1.2,0,0,1-.2-.872l.125.024a1.07,1.07,0,0,0,.182.774,1.506,1.506,0,0,0,1.087.543Z" transform="translate(-1219.358 -227.632)" fill="#fca73b"/>
        <path id="Trazado_29810" data-name="Trazado 29810" d="M1320.7,313.11c.9,0,2.094-1.714,2.094-1.714a5.019,5.019,0,0,1,1.382-5.239.816.816,0,0,0-.478-.141h.429a2.53,2.53,0,0,1-1.38-.668c-.9,1.048-1.763,2.1-2.667,3.1a5.358,5.358,0,0,1-1.287,1.239c-.285.19-.619.334-.9.524a4,4,0,0,0-.666.619c-.478.524-1,1.046-1.477,1.57a1.827,1.827,0,0,0-.429.619,1.525,1.525,0,0,0-.046.478l.141.046A10.461,10.461,0,0,1,1320.7,313.11Z" transform="translate(-1199.219 -229.198)" fill="#ea9f78"/>
        <path id="Trazado_29811" data-name="Trazado 29811" d="M1405.935,302.188s2.333,2.955,4.047,1.9c0,0-.38,1.57-2.333.665Z" transform="translate(-1265.263 -226.896)" fill="#ea9f78"/>
        <path id="Trazado_29812" data-name="Trazado 29812" d="M1517.012,354.382a6.478,6.478,0,0,1-2.887-.771l.1-.163c.027.016,2.738,1.573,4.851.147l.106.155A3.8,3.8,0,0,1,1517.012,354.382Z" transform="translate(-1344.069 -264.234)" fill="#ed9232"/>
        <path id="Trazado_29813" data-name="Trazado 29813" d="M1479.74,272.846s-1.087-4.286-10.289-4.764a31.611,31.611,0,0,1-8.24-2.189,8.058,8.058,0,0,0-7.763,1.57l-5.763,4.908s-3.1,4.522-6.519,5.285c0,0-.478,2,2.094,1.383l-.9,1.429a9.574,9.574,0,0,0-1.19,2.9l-.293,1.391a2,2,0,0,0,.1,1.573c.331.521,1.239.714,2.284-.429,0,0,.334,3.191,2.955.475l.815-1.333-.334,1.809a1.714,1.714,0,0,0,.272,1.192c.38.475,1.048.815,2.143-.573l2.812-5.285-1.287,3.906s-1.38,1.714-.666,2.382c0,0,1,1.086,3.1-1.382l1.953-3.667s4.047-5.432,5.144-8.148l1.239-.236a10.937,10.937,0,0,0,4.81,2.569s2.667,1,2.857,2.477a6.678,6.678,0,0,0,6.049-1.953s3.906-3.572,5.19-3.8Z" transform="translate(-1290.63 -200.172)" fill="#ffb38a"/>
        <path id="Trazado_29814" data-name="Trazado 29814" d="M1450.4,288.6a1.03,1.03,0,0,1-.741-.272c-.736-.687.51-2.311.651-2.491l.937-2.838-2.292,4.31q-.815,1.035-1.489,1.035h0a1.04,1.04,0,0,1-.815-.448,1.813,1.813,0,0,1-.307-1.26l.242-1.312-.543.894c-.885.923-1.613,1.282-2.173,1.086-.622-.215-.847-1.032-.918-1.41a2.042,2.042,0,0,1-1.537.728,1,1,0,0,1-.766-.454,2.082,2.082,0,0,1-.106-1.649l.271-1.374a9.645,9.645,0,0,1,1.2-2.936l.782-1.238a1.834,1.834,0,0,1-1.695-.272,1.459,1.459,0,0,1-.291-1.271v-.057h.057c3.354-.744,6.437-5.2,6.467-5.247l.019-.019,5.764-4.905a8.219,8.219,0,0,1,7.86-1.586,31.238,31.238,0,0,0,8.213,2.173c9.068.47,10.3,4.582,10.367,4.826l.61,1.578-.111.022c-1.247.231-5.106,3.751-5.147,3.786a6.837,6.837,0,0,1-6.138,1.975l-.06-.016V279.9c-.179-1.4-2.77-2.39-2.8-2.4a11.24,11.24,0,0,1-4.808-2.558l-1.138.22c-1.116,2.716-5.1,8.064-5.136,8.118l-1.948,3.653a3.805,3.805,0,0,1-2.483,1.673Zm1.2-6.665.174.073-1.3,3.936c-.367.456-1.208,1.755-.673,2.252a.85.85,0,0,0,.635.217c.457-.014,1.23-.3,2.322-1.589l1.942-3.65c.049-.068,4.061-5.465,5.139-8.148l.019-.046,1.341-.258.036.038a10.8,10.8,0,0,0,4.767,2.545c.116.043,2.656,1.01,2.916,2.491a6.715,6.715,0,0,0,5.9-1.945c.157-.144,3.743-3.411,5.13-3.8l-.543-1.385c0-.043-1.2-4.226-10.2-4.693a31.643,31.643,0,0,1-8.275-2.2,8.036,8.036,0,0,0-7.665,1.562l-5.75,4.889c-.171.244-3.191,4.519-6.519,5.3a1.237,1.237,0,0,0,.25,1.038c.321.315.9.375,1.741.174l.228-.054-1.032,1.63a9.507,9.507,0,0,0-1.166,2.893l-.271,1.38a1.94,1.94,0,0,0,.079,1.5.815.815,0,0,0,.625.369,1.984,1.984,0,0,0,1.515-.815l.142-.155.021.209c0,.014.136,1.209.815,1.445.492.168,1.151-.177,1.972-1.024l1.062-1.757-.427,2.317a1.634,1.634,0,0,0,.272,1.119.844.844,0,0,0,.66.372h0c.386,0,.834-.318,1.334-.948Z" transform="translate(-1290.383 -199.971)" fill="#e57d59"/>
        <path id="Trazado_29815" data-name="Trazado 29815" d="M1449.8,323.006l-.176-.071,1.143-2.811,2.148-3.726.163.1-2.143,3.713Z" transform="translate(-1297.087 -237.247)" fill="#e57d59"/>
        <rect id="Rectángulo_6034" data-name="Rectángulo 6034" width="5.242" height="0.187" transform="translate(155.836 85.589) rotate(-61.83)" fill="#e57d59"/>
        <path id="Trazado_29816" data-name="Trazado 29816" d="M1513.585,293.778a3.876,3.876,0,0,1-1.38,2.094" transform="translate(-1342.67 -220.771)" fill="#ffc75c"/>
        <path id="Trazado_29817" data-name="Trazado 29817" d="M1512.1,295.906l-.125-.141a3.909,3.909,0,0,0,1.358-2.037l.187.027A4.005,4.005,0,0,1,1512.1,295.906Z" transform="translate(-1342.502 -220.734)" fill="#e57d59"/>
        <rect id="Rectángulo_6035" data-name="Rectángulo 6035" width="4.756" height="0.125" transform="translate(152.58 78.887) rotate(-55.19)" fill="#ed9232"/>
        <path id="Trazado_29818" data-name="Trazado 29818" d="M1442.235,307.8a3.381,3.381,0,0,0,3.857-1.57l-1.714,2.477C1444.329,308.751,1442.664,309.324,1442.235,307.8Z" transform="translate(-1291.704 -229.839)" fill="#ea9f78"/>
        <path id="Trazado_29819" data-name="Trazado 29819" d="M1384.828,183.128a11.287,11.287,0,0,1-3.213-.511l.063-.179a10.181,10.181,0,0,0,4.476.378l.035.187A6.971,6.971,0,0,1,1384.828,183.128Z" transform="translate(-1247.548 -139.671)" fill="#e57d59"/>
        <path id="Trazado_29820" data-name="Trazado 29820" d="M1112.811,292.894l-6.576,7.48,10.813,1.429,6.763-4.954-2.379-3.857-2.955-1.143H1115Z" transform="translate(-1046.962 -219.365)" fill="#ffb38a"/>
        <path id="Trazado_29821" data-name="Trazado 29821" d="M1116.572,301.667h-.038l-10.989-1.45,6.719-7.632,2.233-1.057h3.512l2.988,1.154,2.444,3.96Zm-10.65-1.6,10.593,1.4,6.662-4.889-2.32-3.756-2.906-1.124h-3.438l-2.154,1.029Z" transform="translate(-1046.459 -219.132)" fill="#e57d59"/>
        <path id="Trazado_29822" data-name="Trazado 29822" d="M1155.024,245.244c1.38.668,7.4,3.246,8.827,3.963a12.645,12.645,0,0,1,3.351,2.034,9.3,9.3,0,0,1,2.482,3.941,10.385,10.385,0,0,1,.76,2.621c.1.714,0,1.429.144,2.143a16.353,16.353,0,0,0,.76,2.143,2.256,2.256,0,0,1-.331,2.143c.141-2.094-1.668-3.8-3.43-5a11.95,11.95,0,0,0-3.952-1.812c-1.526-.426-2.765.239-4.193.953-2.094,1-3.142,4-5.144,5.193-1.141.665-3.333-.714-4.617-.478-5.524,1.048-11.679,1.573-16.478-1.38a17.372,17.372,0,0,1-1.523-1.048c-.478-.334-.953-.668-1.429-.953a28.139,28.139,0,0,0-5.7-2.382c-1.855-.619-4.142-1.086-5.525.239a5.485,5.485,0,0,0-1.238,2.716,2.762,2.762,0,0,1,.668-4.193c.38-.19.815-.272,1.19-.475a16.89,16.89,0,0,0,4.1-3.531,13.385,13.385,0,0,1,3.781-2.5c2.765-1.334,7.513-2.92,10.229-4.346,2.477-1.285,1.942-2.825,4.7-2.92a81.769,81.769,0,0,1,9.669.475,10.058,10.058,0,0,1,4,.953c1.38.815-.573.967.9,1.491" transform="translate(-1054.876 -183.271)" fill="#0af"/>
        <path id="Trazado_29823" data-name="Trazado 29823" d="M1121.675,267.149s9.37-8.268,16.8-9.6l-4.944,5.647-2.716,2.526-1.63,1.19Z" transform="translate(-1058.209 -194.381)" fill="#0af"/>
        <path id="Trazado_29824" data-name="Trazado 29824" d="M1198.655,273.258a11.739,11.739,0,0,0,1.995,4.852c1.63,2.173,8.691,2.173,10.321,1.086a6.453,6.453,0,0,0,2.163-3.557Z" transform="translate(-1114.281 -205.824)" fill="#e8bb9b"/>
        <path id="Trazado_29825" data-name="Trazado 29825" d="M1259.155,301.064a6.036,6.036,0,0,1,1.478-1.953,8.62,8.62,0,0,1,6.573-2.287c2.238.19,4.237,1.763,5.81,3.669a3.568,3.568,0,0,1,.38.521l.714,1.086a10.158,10.158,0,0,1,.288,1.763" transform="translate(-1158.349 -222.961)" fill="#ffcdaa"/>
        <path id="Trazado_29826" data-name="Trazado 29826" d="M1273.685,315.349c.049,1.141-.19,1.858-.272,3.713-.095,1.287-.334,2.716-1.238,3.479a3.026,3.026,0,0,1-2.1.522,14.708,14.708,0,0,1-9.145-3.9c-1.57-1.336-3.143-3.335-2.762-5.573a3.838,3.838,0,0,1,.334-1.048" transform="translate(-1157.59 -234.435)" fill="#ffcdaa"/>
        <path id="Trazado_29827" data-name="Trazado 29827" d="M1270.1,323.1h-.331a14.656,14.656,0,0,1-9.2-3.927c-1.228-1.04-3.221-3.159-2.795-5.66a3.911,3.911,0,0,1,.34-1.07l.174.076a3.76,3.76,0,0,0-.326,1.021c-.41,2.412,1.534,4.473,2.716,5.489a14.482,14.482,0,0,0,9.085,3.884,2.9,2.9,0,0,0,2.037-.505c.9-.755,1.114-2.219,1.2-3.409.044-.845.117-1.445.18-1.975a10.04,10.04,0,0,0,.106-1.73h.19a10.112,10.112,0,0,1-.109,1.763c-.062.527-.135,1.122-.176,1.961-.093,1.23-.318,2.74-1.274,3.544A2.889,2.889,0,0,1,1270.1,323.1Z" transform="translate(-1157.302 -234.363)" fill="#e57d59"/>
        <path id="Trazado_29828" data-name="Trazado 29828" d="M1165.4,293.539l-.185-.035c.788-4.123-3.148-6.165-3.189-6.187l.084-.168C1162.15,287.17,1166.213,289.277,1165.4,293.539Z" transform="translate(-1087.599 -215.941)" fill="#0061bc"/>
        <path id="Trazado_29829" data-name="Trazado 29829" d="M1173.964,294.925l-.168-.087c1.76-3.517.122-5.687.106-5.7l.147-.117C1174.067,289.034,1175.772,291.3,1173.964,294.925Z" transform="translate(-1096.173 -217.303)" fill="#0061bc"/>
        <path id="Trazado_29830" data-name="Trazado 29830" d="M1258.8,295.122a6.339,6.339,0,0,1,4.009-5.7l.079.171a6.147,6.147,0,0,0-3.9,5.53Z" transform="translate(-1158.093 -217.595)" fill="#0061bc"/>
        <path id="Trazado_29831" data-name="Trazado 29831" d="M1256.725,295.094a4.9,4.9,0,0,1,1.7-5.636l.109.155a4.713,4.713,0,0,0-1.63,5.413Z" transform="translate(-1156.339 -217.624)" fill="#0061bc"/>
        <path id="Trazado_29832" data-name="Trazado 29832" d="M1005.1,316.392c-.06-.071-5.946-7.062-11.983-6.26l-.019-.149c6.111-.815,12.059,6.247,12.119,6.312Z" transform="translate(-964.551 -232.526)" fill="#0061bc"/>
        <path id="Trazado_29833" data-name="Trazado 29833" d="M1509.776,314.134c-.918-2.021-3.515-2.276-3.531-2.279l.016-.187c.027,0,2.735.272,3.7,2.387Z" transform="translate(-1338.329 -233.802)" fill="#ed9232"/>
        <path id="Trazado_29834" data-name="Trazado 29834" d="M1015.815,277.386s3.746-12.345,14.178-8.532a21.242,21.242,0,0,1,10.383,9.751" transform="translate(-981.1 -202.084)" fill="#132787"/>
        <path id="Trazado_29835" data-name="Trazado 29835" d="M990.535,250.928s8.05,6.518,6.383,16.1" transform="translate(-962.686 -189.559)" fill="#d3e2f4"/>
        <path id="Trazado_29836" data-name="Trazado 29836" d="M988.815,276.45h-.505c.046-8.523-9.023-11.679-9.115-11.714l.16-.478C979.45,264.3,988.861,267.561,988.815,276.45Z" transform="translate(-954.426 -199.268)" fill="#d3e2f4"/>
        <path id="Trazado_29837" data-name="Trazado 29837" d="M1234.186,125.248s-4.525,9.764.815,17" transform="translate(-1138.857 -98.014)" fill="#1c5cc1"/>
        <path id="Trazado_29838" data-name="Trazado 29838" d="M1690.938,223.808c-.19.19-.383.331-.573.524h0Z" transform="translate(-1472.441 -169.805)" fill="#0af"/>
        <path id="Trazado_29839" data-name="Trazado 29839" d="M1530.445,306.291s.151-25.531,21.671-20.546" transform="translate(-1355.956 -214.45)" fill="#d3e2f4"/>
        <path id="Trazado_29840" data-name="Trazado 29840" d="M1441.455,351.916s16.193-3.05,26.052,4.81" transform="translate(-1291.136 -262.694)" fill="#d3e2f4"/>
        <path id="Trazado_29841" data-name="Trazado 29841" d="M1467.226,356.287c-9.655-7.7-25.688-4.788-25.848-4.758l-.092-.494c.163-.033,16.421-2.988,26.255,4.859Z" transform="translate(-1291.012 -262.059)" fill="#d3e2f4"/>
        <path id="Trazado_29842" data-name="Trazado 29842" d="M1124.826,313.753c1.086-1.524,3.1-2,4.907-2.333l6-1.143a4.073,4.073,0,0,1,1.524-.1c.429.1.815.334,1.239.429a6.135,6.135,0,0,0,2.1.141c9.335-.57,19.1-1.63,27.671,2.1,1.573.668,3.335,2,2.988,3.715-.239,1.334-1.63,2.048-2.906,2.477a21.442,21.442,0,0,1-4.617.951,42.678,42.678,0,0,1-5.525-.046l-19.552-1a20.359,20.359,0,0,1-4.81-.668c-3.24-1.048-5.812-3.906-9.145-4.381" transform="translate(-1060.408 -232.695)" fill="#ffcdaa"/>
        <path id="Trazado_29843" data-name="Trazado 29843" d="M1161.664,319.9c-1.176,0-2.361-.06-3.531-.12l-19.574-1a20.5,20.5,0,0,1-4.831-.671,18.5,18.5,0,0,1-4.015-2.075,13.688,13.688,0,0,0-5.117-2.3l.027-.187a13.786,13.786,0,0,1,5.19,2.33,18.472,18.472,0,0,0,3.968,2.056,20.569,20.569,0,0,0,4.788.663l19.574,1a42.936,42.936,0,0,0,5.514.049,21.456,21.456,0,0,0,4.6-.948c1.725-.576,2.653-1.358,2.841-2.4.312-1.611-1.318-2.922-2.945-3.612-7.806-3.381-16.635-2.8-25.175-2.246-.815.054-1.63.109-2.444.158a6.245,6.245,0,0,1-2.127-.147,3.671,3.671,0,0,1-.63-.217,3.685,3.685,0,0,0-.6-.209,4.01,4.01,0,0,0-1.486.1l-6,1.143c-1.782.329-3.773.815-4.846,2.3l-.155-.111c1.114-1.548,3.148-2.037,4.965-2.371l6-1.143a4.15,4.15,0,0,1,1.559-.1,3.758,3.758,0,0,1,.638.22,3.669,3.669,0,0,0,.6.209,6.158,6.158,0,0,0,2.07.141l2.444-.157c8.564-.56,17.418-1.138,25.259,2.26,1.7.72,3.39,2.1,3.056,3.819-.2,1.116-1.171,1.95-2.969,2.55a21.5,21.5,0,0,1-4.639.956C1163.021,319.876,1162.334,319.9,1161.664,319.9Z" transform="translate(-1060.335 -232.435)" fill="#e57d59"/>
        <path id="Trazado_29844" data-name="Trazado 29844" d="M1168.438,318.732s13.624.049,16.527-1.19l6.247-3.335,3.8-.619a7.464,7.464,0,0,0,2.86,1.716.69.69,0,0,1,.38,1.086c-.43.429-1.239.714-2.858.1l-1.953.619,4.617,1.63s3.143,1.239,1,2.988a1.526,1.526,0,0,1,.335,1.953s-.272,1.239-2.988.475c0,0,1.429.668.9,1.858,0,0-.334,1.573-2.618.429,0,0-1.429,2.572-3.669,1.714l-4.571-1.809a5.433,5.433,0,0,0-2.988-.334l-18.2,2.811a47.9,47.9,0,0,1-4.191-3.145c0-.239-.76-4.381-.62-4.761a14.43,14.43,0,0,1,1.049-1.9C1161.675,318.732,1168.438,318.732,1168.438,318.732Z" transform="translate(-1086.446 -235.2)" fill="#ffcdaa"/>
        <path id="Trazado_29845" data-name="Trazado 29845" d="M1164.948,328.659l-.03-.022a29.3,29.3,0,0,1-4.234-3.221c0-.062-.079-.543-.161-1.062a21.231,21.231,0,0,1-.45-3.732,14.036,14.036,0,0,1,1.067-1.939c.187-.272,4.973-.315,7.021-.315h0c.139,0,13.637.035,16.492-1.181l6.247-3.341,3.857-.627.035.035a7.484,7.484,0,0,0,2.816,1.689.858.858,0,0,1,.576.573.706.706,0,0,1-.15.676c-.6.6-1.583.641-2.931.133l-1.651.524,4.345,1.524c.071.027,1.629.657,1.8,1.687a1.567,1.567,0,0,1-.682,1.4,1.667,1.667,0,0,1,.271,1.991h0a.966.966,0,0,1-.462.543,3.052,3.052,0,0,1-2.118.128,1.379,1.379,0,0,1,.484,1.673,1.208,1.208,0,0,1-.636.769,2.384,2.384,0,0,1-2.034-.255c-.272.429-1.676,2.469-3.737,1.681l-4.549-1.822a5.3,5.3,0,0,0-2.947-.329Zm-4.074-3.259a45.021,45.021,0,0,0,4.12,3.061l18.151-2.8a5.437,5.437,0,0,1,3.051.34l4.571,1.809c2.137.815,3.531-1.649,3.55-1.673l.044-.079.082.041a2.294,2.294,0,0,0,1.945.293,1.045,1.045,0,0,0,.543-.657c.486-1.111-.8-1.727-.852-1.752l.065-.177a3.258,3.258,0,0,0,2.507.022.79.79,0,0,0,.377-.429,1.44,1.44,0,0,0-.3-1.852l-.1-.073.1-.079a1.447,1.447,0,0,0,.7-1.3c-.147-.923-1.662-1.532-1.678-1.54l-4.889-1.711,2.255-.714h.03c1.287.494,2.216.47,2.756-.073a.515.515,0,0,0,.106-.494.664.664,0,0,0-.446-.443,7.412,7.412,0,0,1-2.863-1.706l-3.748.611-6.222,3.327c-2.9,1.236-16.024,1.209-16.568,1.2a55.081,55.081,0,0,0-6.885.255,14.4,14.4,0,0,0-1.029,1.877,25.614,25.614,0,0,0,.462,3.631C1160.806,324.951,1160.874,325.3,1160.874,325.4Z" transform="translate(-1086.163 -234.931)" fill="#e57d59"/>
        <line id="Línea_118" data-name="Línea 118" x2="1.904" y2="0.426" transform="translate(110.666 86.058)" fill="none"/>
        <rect id="Rectángulo_6036" data-name="Rectángulo 6036" width="0.19" height="1.953" transform="translate(110.65 86.151) rotate(-77.32)" fill="#e57d59"/>
        <path id="Trazado_29846" data-name="Trazado 29846" d="M1280.392,322.538s-1.048.761.046,1.046" transform="translate(-1173.488 -241.719)" fill="#ffb38a"/>
        <path id="Trazado_29847" data-name="Trazado 29847" d="M1280.159,323.465c-.334-.087-.524-.234-.562-.432-.071-.369.427-.741.483-.785l.112.155c-.119.087-.451.383-.41.595.03.152.247.239.427.272Z" transform="translate(-1173.233 -241.508)" fill="#e57d59"/>
        <path id="Trazado_29848" data-name="Trazado 29848" d="M1289.62,322.538s.271.19-.475.426" transform="translate(-1180.193 -241.719)" fill="#ffb38a"/>
        <path id="Trazado_29849" data-name="Trazado 29849" d="M1289.092,322.815l-.057-.182c.443-.138.464-.242.464-.244l.092-.171a.2.2,0,0,1,.092.2C1289.663,322.576,1289.475,322.7,1289.092,322.815Z" transform="translate(-1180.113 -241.486)" fill="#e57d59"/>
        <path id="Trazado_29850" data-name="Trazado 29850" d="M1047.314,296.9l9.715-.76s5.432,2.667,10.1,1.573a.871.871,0,0,1,1,.522c.478,1.192.524,3.62-7.6,3.1a16.423,16.423,0,0,0,6.9,1.668l7.67,1.714s2.808,2.146-.763,3.191l-11.907-1,9.43,2.716a2.427,2.427,0,0,1,1.524,1.19,1.345,1.345,0,0,1-.619,2.048,3.226,3.226,0,0,1-1.9.239l-1.858-.285s-1.239,2.143-8.24,1.046l-1.144.858a3.4,3.4,0,0,1-2.716.57l-4.954-1.086a21.349,21.349,0,0,1-8.572-5.859l-1.9-.429s-9.05-.1-14.335-4.286l-5.524-5.668s.814-9.62,9.381-8.572a14.726,14.726,0,0,1,7.906,4.525,8.3,8.3,0,0,0,3.906,2.572A8.635,8.635,0,0,0,1047.314,296.9Z" transform="translate(-985.325 -217.512)" fill="#ffaf97"/>
        <path id="Trazado_29851" data-name="Trazado 29851" d="M1145.175,376.9s2.953.57,5.571.856" transform="translate(-1075.326 -281.315)" fill="#ffcdaa"/>
        <path id="Trazado_29852" data-name="Trazado 29852" d="M1158.325,368.477h.76a6,6,0,0,1,1.573.19l4.525,1.048,3.333.858" transform="translate(-1084.904 -275.181)" fill="#ff6700" opacity="0.32"/>
        <path id="Trazado_29853" data-name="Trazado 29853" d="M1156.915,325.977c.763,1.334,4.1,2.428,4.1,2.428h.426a16.377,16.377,0,0,1-2.379-.9c6.573.38,7.811-1.086,7.811-2.333C1163.061,327.5,1156.915,325.977,1156.915,325.977Z" transform="translate(-1083.877 -243.635)" fill="#ff6700" opacity="0.32"/>
        <path id="Trazado_29854" data-name="Trazado 29854" d="M981.559,303.52a12.585,12.585,0,0,0-6.573-1.38l-3.531,3.531c2.284-.236,5.571,1.287,7.667,2.143a32.4,32.4,0,0,1,6,3.384c2.094,1.38,3.756,2.939,6.247,2.654C987.862,306.617,983.75,304.33,981.559,303.52Z" transform="translate(-948.788 -226.844)" fill="#d3e2f4"/>
        <path id="Trazado_29855" data-name="Trazado 29855" d="M1205.545,189.434c.108,7.01-6.059,12.719-13.58,12.719s-13.58-5.674-13.58-12.719,6.06-12.716,13.58-12.716S1205.437,182.427,1205.545,189.434Z" transform="translate(-1099.516 -135.504)" fill="#031f59"/>
        <ellipse id="Elipse_1545" data-name="Elipse 1545" cx="1.953" cy="1.969" rx="1.953" ry="1.969" transform="translate(99.595 56.891)" fill="#ffcdaa"/>
        <path id="Trazado_29856" data-name="Trazado 29856" d="M1256.305,238.217a2.064,2.064,0,1,1,2.048-2.08v.016A2.058,2.058,0,0,1,1256.305,238.217Zm0-3.938a1.877,1.877,0,1,0,1.86,1.893v-.019A1.869,1.869,0,0,0,1256.305,234.279Z" transform="translate(-1154.758 -177.293)" fill="#e57d59"/>
        <ellipse id="Elipse_1546" data-name="Elipse 1546" cx="1.953" cy="1.969" rx="1.953" ry="1.969" transform="translate(80.909 56.891)" fill="#ffcdaa"/>
        <path id="Trazado_29857" data-name="Trazado 29857" d="M1187.5,238.217a2.064,2.064,0,1,1,2.048-2.08v.016A2.059,2.059,0,0,1,1187.5,238.217Zm0-3.938a1.877,1.877,0,1,0,1.858,1.9v-.022A1.869,1.869,0,0,0,1187.5,234.279Z" transform="translate(-1104.636 -177.293)" fill="#e57d59"/>
        <path id="Trazado_29858" data-name="Trazado 29858" d="M1209.677,186.895l-8.81-1.687-10.1,3.259.766,15.946a10.974,10.974,0,0,0,1.63,5.81h0a7.193,7.193,0,0,0,5.975,3.531l.25.071a5.365,5.365,0,0,0,3.169-.071h0a7.2,7.2,0,0,0,5.975-3.531h0a10.973,10.973,0,0,0,1.63-5.81l1.119-15.441Z" transform="translate(-1108.534 -141.688)" fill="#ffcdaa"/>
        <path id="Trazado_29859" data-name="Trazado 29859" d="M1200.615,213.761a5.5,5.5,0,0,1-1.5-.209l-.239-.068a7.237,7.237,0,0,1-6.057-3.569,11.14,11.14,0,0,1-1.646-5.861l-.771-16.024.068-.022,10.123-3.259h.024l8.849,1.692.021.027,1.66,2.1v.035l-1.119,15.441a11.137,11.137,0,0,1-1.646,5.856,7.348,7.348,0,0,1-6.054,3.569A5.448,5.448,0,0,1,1200.615,213.761ZM1190.6,188.189l.763,15.872a10.947,10.947,0,0,0,1.629,5.766,7.054,7.054,0,0,0,5.91,3.479h.024l.252.073a5.274,5.274,0,0,0,3.115-.071h.027a7.157,7.157,0,0,0,5.91-3.482,10.926,10.926,0,0,0,1.629-5.758l1.116-15.411-1.594-2.013-8.754-1.673Z" transform="translate(-1108.272 -141.353)" fill="#e57d59"/>
        <path id="Trazado_29860" data-name="Trazado 29860" d="M1224.785,253.96a1.289,1.289,0,0,1,2.382.046" transform="translate(-1133.314 -191.176)" fill="#ffcdaa"/>
        <path id="Trazado_29861" data-name="Trazado 29861" d="M1226.892,253.8c-.353-.543-.725-.815-1.108-.815h0c-.633,0-1.1.758-1.105.766l-.163-.1a1.794,1.794,0,0,1,1.265-.858h0a1.607,1.607,0,0,1,1.266.9Z" transform="translate(-1133.117 -190.921)" fill="#e57d59"/>
        <path id="Trazado_29862" data-name="Trazado 29862" d="M1242.347,236.523a3.334,3.334,0,0,0-2.564-.38l-.1-.231a3.514,3.514,0,0,1,2.773.383Z" transform="translate(-1144.167 -178.529)" fill="#00347e"/>
        <path id="Trazado_29863" data-name="Trazado 29863" d="M1209.986,235.924l-.111-.228a3.572,3.572,0,0,1,2.773-.383l-.1.231.049-.114-.049.114A3.375,3.375,0,0,0,1209.986,235.924Z" transform="translate(-1122.453 -178.096)" fill="#00347e"/>
        <ellipse id="Elipse_1547" data-name="Elipse 1547" cx="0.665" cy="0.853" rx="0.665" ry="0.853" transform="translate(88.736 59.229)" fill="#00347e"/>
        <ellipse id="Elipse_1548" data-name="Elipse 1548" cx="0.665" cy="0.853" rx="0.665" ry="0.853" transform="translate(95.478 59.145)" fill="#00347e"/>
        <path id="Trazado_29864" data-name="Trazado 29864" d="M1224.575,265.666a3.725,3.725,0,0,1-1.6-.4l.125-.22c.076.041,1.879,1.027,3.083-.356l.19.166A2.3,2.3,0,0,1,1224.575,265.666Z" transform="translate(-1131.995 -199.581)" fill="#00347e"/>
        <path id="Trazado_29865" data-name="Trazado 29865" d="M1181.509,194.645s11.1.665,17.589-7.567c0,0,.926,8.42,6.108,7.143l.37-6.432-.709-3-3.67-3.618-7.233-2.493-4.742.866-5.405,2.865s-.655-.285-2.024,2.094c-1.9,3.33-1.6,4.908-1.6,4.908Z" transform="translate(-1100.823 -136.932)" fill="#162457"/>
        <path id="Trazado_29866" data-name="Trazado 29866" d="M1200.738,175.372s-4.145-6.839-14.371-3.134a12.806,12.806,0,0,0-7.412,11.179l13.037-.334,4.519-2.037Z" transform="translate(-1099.931 -131.439)" fill="#031f59"/>
        <path id="Trazado_29867" data-name="Trazado 29867" d="M1256.735,185.358s9.356,1.412,5.883,13.659a14.662,14.662,0,0,1-3.015,4.753l.054-.815s.885-1.45,1.021-1.809.668-2.118.668-2.118l.236-1.6-1.521-5.777Z" transform="translate(-1156.586 -141.798)" fill="#031f59"/>
        <path id="Trazado_29868" data-name="Trazado 29868" d="M1354.075,59.356s5.508-12.1,21.1-6.043c0,0,13.1,8.761,9.842,23.427l-3.793-8.505-12.094-4.384Z" transform="translate(-1227.488 -44.379)" fill="#162457"/>
        <path id="Trazado_29869" data-name="Trazado 29869" d="M1532.565,297.689c3.378-6.778,2.344-6.828,4.464-9.222,3.178-3.531,9.187-6.289,17.5-4.564C1554.526,283.9,1542.189,285.208,1532.565,297.689Z" transform="translate(-1357.5 -213.193)" fill="#a5caef"/>
        <path id="Trazado_29870" data-name="Trazado 29870" d="M989.178,311.385c-3.258-6.539-2.722-5.536-4.766-7.845a16.614,16.614,0,0,0-16.421-5.455S979.893,299.344,989.178,311.385Z" transform="translate(-946.265 -223.609)" fill="#a5caef"/>
        <path id="Trazado_29871" data-name="Trazado 29871" d="M984,351.123" transform="translate(-957.926 -262.541)" fill="#a5caef" stroke="#a5caef" stroke-width="8"/>
        <path id="Trazado_29872" data-name="Trazado 29872" d="M971.125,225.786c5.975,1.086,11.937,7.094,11.8,6.854a22.179,22.179,0,0,0-14.881-10.406,10.467,10.467,0,0,0-4.294-.141c-2.7.549-4.745,2.491-6.375,4.316C957.375,226.409,965.15,224.7,971.125,225.786Z" transform="translate(-938.533 -168.438)" fill="#a5caef"/>
      </g>
    </g>
  </g>
</svg>
