<svg xmlns="http://www.w3.org/2000/svg" width="59.001" height="58" viewBox="0 0 59.001 58"><defs><style>.a{fill:#ececef;}.b{fill:#1ab1ff;}.c{opacity:0.6;}.d,.e{fill:#00248b;}.e{opacity:0.7;}.f{fill:#ea0c90;}.g{fill:#fff;}</style></defs><g transform="translate(-5063.5 -1968.4)"><ellipse class="a" cx="28.5" cy="29" rx="28.5" ry="29" transform="translate(5063.5 1968.4)"/><g transform="translate(5067.687 1971.328)"><path class="b" d="M5145.747,2006.6l-13.852-13.8a2.819,2.819,0,0,0-4.083,0l-21.578,21.579a3.017,3.017,0,0,0-.875,2.139,2.8,2.8,0,0,0,.875,1.992l2.964,2.965a1.42,1.42,0,0,0,1.9.146,4.211,4.211,0,0,1,5.492.389,4.283,4.283,0,0,1,.438,5.492,1.416,1.416,0,0,0,.145,1.9l2.964,2.964a3.026,3.026,0,0,0,2.09.875h.049a2.8,2.8,0,0,0,1.993-.875l21.579-21.579a3.014,3.014,0,0,0,.875-2.139A3.507,3.507,0,0,0,5145.747,2006.6Z" transform="translate(-5105.358 -1991.921)"/><g class="c" transform="translate(12.255 5.915)"><g transform="translate(0 18.461)"><path class="d" d="M5229.809,2231.589l-1.455,1.808-.457-.515a1.225,1.225,0,0,0-.463-.39.279.279,0,0,0-.273.132.461.461,0,0,0-.1.4,1.134,1.134,0,0,0,.286.494,1.364,1.364,0,0,0,.547.423,1.461,1.461,0,0,0,.82-.126,5.574,5.574,0,0,1,2.364-.466,3.179,3.179,0,0,1,1.592,1.137,3.7,3.7,0,0,1,.825,1.278,2.348,2.348,0,0,1-.06,1.315,4.226,4.226,0,0,1-.8,1.492,3.4,3.4,0,0,1-1.326,1.067,1.437,1.437,0,0,1-1.208.028,4.363,4.363,0,0,1-1.208-1.035l-.4-.456,1.462-1.813.751.844a1.343,1.343,0,0,0,.507.425c.107.023.214-.03.319-.161a.5.5,0,0,0,.108-.431,1.175,1.175,0,0,0-.3-.515q-.548-.613-.859-.62a5.807,5.807,0,0,0-1.3.283,9.05,9.05,0,0,1-1.351.316,1.594,1.594,0,0,1-.81-.167,2.961,2.961,0,0,1-.931-.756,3.646,3.646,0,0,1-.856-1.39,2.386,2.386,0,0,1,.059-1.288,4.144,4.144,0,0,1,.766-1.39,3.756,3.756,0,0,1,1.239-1.062,1.35,1.35,0,0,1,1.077-.134,3.7,3.7,0,0,1,1.184,1Z" transform="translate(-5225.178 -2230.254)"/></g><g transform="translate(4.629 13.695)"><path class="d" d="M5271.562,2183.652l4.667,9.388-1.145,1.421-4.643-9.414Z" transform="translate(-5270.442 -2183.652)"/></g><g transform="translate(5.993 6.285)"><path class="d" d="M5290.137,2115.1a1.821,1.821,0,0,1,1.223-.233,5.128,5.128,0,0,1,1.98,1.614,6.484,6.484,0,0,1,1.295,1.85,2.96,2.96,0,0,1,.052,1.76,5.518,5.518,0,0,1-1.15,2.141,4.486,4.486,0,0,1-1.7,1.427,2.092,2.092,0,0,1-1.514.074,5.347,5.347,0,0,1-1.82-1.482,9.785,9.785,0,0,1-1.187-1.572,2.436,2.436,0,0,1-.187-1.837,1.434,1.434,0,0,1-1.135.043,3.149,3.149,0,0,1-1.2-.893,3.5,3.5,0,0,1-1.026-2.47,4.6,4.6,0,0,1,1.164-2.7q1.3-1.623,2.368-1.622a2.958,2.958,0,0,1,2.118,1.155,3.219,3.219,0,0,1,.8,1.262A3.331,3.331,0,0,1,5290.137,2115.1Zm-2.886-.566a1.841,1.841,0,0,0-.626-.521q-.205-.06-.406.189a.506.506,0,0,0-.118.489,2.173,2.173,0,0,0,.474.684l.627.691a1.539,1.539,0,0,0,.595.47.378.378,0,0,0,.406-.172.513.513,0,0,0,.125-.484,2.333,2.333,0,0,0-.511-.722Zm3.476,3.728a1.819,1.819,0,0,0-.726-.576.438.438,0,0,0-.45.2.583.583,0,0,0-.132.517,2.285,2.285,0,0,0,.55.806l1.072,1.178a2.015,2.015,0,0,0,.786.638.46.46,0,0,0,.456-.208.547.547,0,0,0,.13-.526,3.045,3.045,0,0,0-.629-.863Z" transform="translate(-5283.77 -2111.202)"/></g><g transform="translate(11.202)"><path class="d" d="M5341.126,2051.553l2.782,3.008a9.876,9.876,0,0,1,1.284,1.614,3.327,3.327,0,0,1,.4,1.381,3.408,3.408,0,0,1-.207,1.514,5.116,5.116,0,0,1-.814,1.4,5.71,5.71,0,0,1-1.359,1.288,2.119,2.119,0,0,1-1.29.353,2.772,2.772,0,0,1-1.166-.34,6.587,6.587,0,0,1-1.4-1.249l-2.895-3.161a8.56,8.56,0,0,1-1.522-2.1,3.125,3.125,0,0,1-.165-1.927,4.811,4.811,0,0,1,1.009-2.061,4.3,4.3,0,0,1,1.4-1.185,2.5,2.5,0,0,1,1.348-.32,2.378,2.378,0,0,1,1.121.414A10.026,10.026,0,0,1,5341.126,2051.553Zm-2.673,1.7a4.359,4.359,0,0,0-.89-.826q-.228-.105-.453.174a.54.54,0,0,0-.113.555,4.129,4.129,0,0,0,.748.98l4.057,4.412a4.185,4.185,0,0,0,.94.866c.144.053.289-.012.437-.2a.531.531,0,0,0,.115-.55,3.938,3.938,0,0,0-.718-.939Z" transform="translate(-5334.702 -2049.75)"/></g></g></g><g transform="translate(5071.092 1979.931)"><path class="e" d="M5180,2121.588l-7.709-17.97a2.819,2.819,0,0,0-3.789-1.521l-28.066,11.982a3.019,3.019,0,0,0-1.609,1.659,2.8,2.8,0,0,0,.07,2.175l1.646,3.856a1.422,1.422,0,0,0,1.705.842,4.211,4.211,0,0,1,4.952,2.407,4.283,4.283,0,0,1-1.641,5.26,1.416,1.416,0,0,0-.571,1.813l1.646,3.856a3.026,3.026,0,0,0,1.613,1.591l.044.018a2.8,2.8,0,0,0,2.175-.069l28.066-11.983a3.014,3.014,0,0,0,1.609-1.658A3.5,3.5,0,0,0,5180,2121.588Z" transform="translate(-5138.637 -2099.2)"/><g transform="translate(0.839 0)"><path class="b" d="M5188.205,2095.788l-7.71-17.971a2.819,2.819,0,0,0-3.789-1.521l-28.067,11.983a3.015,3.015,0,0,0-1.608,1.658,2.8,2.8,0,0,0,.069,2.176l1.647,3.856a1.42,1.42,0,0,0,1.7.842,4.211,4.211,0,0,1,4.952,2.407,4.283,4.283,0,0,1-1.642,5.259,1.417,1.417,0,0,0-.571,1.814l1.646,3.856a3.023,3.023,0,0,0,1.613,1.591l.044.018a2.8,2.8,0,0,0,2.175-.069l28.067-11.983a3.018,3.018,0,0,0,1.609-1.658A3.507,3.507,0,0,0,5188.205,2095.788Z" transform="translate(-5146.844 -2076.038)"/><g class="c" transform="translate(10.217 6.523)"><g transform="translate(0 12.709)"><path class="d" d="M5251.966,2266.073l-2.024,1.136-.232-.648a1.228,1.228,0,0,0-.285-.535.28.28,0,0,0-.3.021.462.462,0,0,0-.237.335,1.129,1.129,0,0,0,.081.565,1.364,1.364,0,0,0,.35.6,1.457,1.457,0,0,0,.807.189,5.576,5.576,0,0,1,2.368.449,3.176,3.176,0,0,1,1.053,1.649,3.672,3.672,0,0,1,.289,1.493,2.345,2.345,0,0,1-.545,1.2,4.244,4.244,0,0,1-1.3,1.087,3.405,3.405,0,0,1-1.628.5,1.438,1.438,0,0,1-1.131-.424,4.34,4.34,0,0,1-.734-1.411l-.205-.573,2.032-1.139.382,1.064a1.353,1.353,0,0,0,.313.584.328.328,0,0,0,.355-.03.5.5,0,0,0,.261-.36,1.172,1.172,0,0,0-.084-.589q-.279-.771-.566-.9a5.814,5.814,0,0,0-1.308-.22,8.974,8.974,0,0,1-1.372-.211,1.593,1.593,0,0,1-.689-.457,2.961,2.961,0,0,1-.582-1.048,3.653,3.653,0,0,1-.276-1.609,2.4,2.4,0,0,1,.535-1.173,4.143,4.143,0,0,1,1.229-1,3.75,3.75,0,0,1,1.545-.524,1.346,1.346,0,0,1,1.049.277,3.7,3.7,0,0,1,.726,1.368Z" transform="translate(-5246.742 -2264.077)"/></g><g transform="translate(6.976 9.461)"><path class="d" d="M5316.506,2232.322l.832,10.451-1.592.892-.8-10.466Z" transform="translate(-5314.945 -2232.322)"/></g><g transform="translate(9.663 3.88)"><path class="d" d="M5347.532,2182.541a1.818,1.818,0,0,1,1.221.239,5.121,5.121,0,0,1,1.236,2.235,6.462,6.462,0,0,1,.512,2.2,2.954,2.954,0,0,1-.607,1.653,5.538,5.538,0,0,1-1.865,1.558,4.506,4.506,0,0,1-2.108.692,2.093,2.093,0,0,1-1.432-.5,5.344,5.344,0,0,1-1.137-2.053,9.811,9.811,0,0,1-.518-1.9,2.436,2.436,0,0,1,.512-1.774,1.435,1.435,0,0,1-1.069-.383,3.155,3.155,0,0,1-.779-1.276,3.494,3.494,0,0,1-.032-2.674,4.594,4.594,0,0,1,2.086-2.071q1.815-1.021,2.8-.623a2.954,2.954,0,0,1,1.535,1.862,3.226,3.226,0,0,1,.274,1.47A3.35,3.35,0,0,1,5347.532,2182.541Zm-2.468-1.6a1.838,1.838,0,0,0-.385-.717.386.386,0,0,0-.448.024.512.512,0,0,0-.293.41,2.2,2.2,0,0,0,.186.812l.325.875a1.536,1.536,0,0,0,.375.657.381.381,0,0,0,.443-.008.512.512,0,0,0,.3-.4,2.337,2.337,0,0,0-.2-.861Zm1.836,4.754a1.816,1.816,0,0,0-.458-.8.437.437,0,0,0-.491.013.577.577,0,0,0-.314.43,2.268,2.268,0,0,0,.209.952l.556,1.493a2.016,2.016,0,0,0,.492.885.459.459,0,0,0,.5-.023.547.547,0,0,0,.316-.44,3.028,3.028,0,0,0-.262-1.035Z" transform="translate(-5341.217 -2177.753)"/></g><g transform="translate(16.872)"><path class="d" d="M5418.82,2142.669l1.461,3.828a9.861,9.861,0,0,1,.589,1.976,3.323,3.323,0,0,1-.142,1.431,3.406,3.406,0,0,1-.756,1.328,5.1,5.1,0,0,1-1.275.991,5.707,5.707,0,0,1-1.741.688,2.12,2.12,0,0,1-1.329-.153,2.765,2.765,0,0,1-.955-.75,6.6,6.6,0,0,1-.832-1.679l-1.508-4.013a8.575,8.575,0,0,1-.627-2.52,3.133,3.133,0,0,1,.565-1.85,4.8,4.8,0,0,1,1.7-1.536,4.3,4.3,0,0,1,1.739-.579,2.5,2.5,0,0,1,1.371.205,2.387,2.387,0,0,1,.886.8A10.085,10.085,0,0,1,5418.82,2142.669Zm-3.113.581a4.339,4.339,0,0,0-.519-1.1c-.115-.122-.276-.124-.485-.007a.538.538,0,0,0-.312.473,4.131,4.131,0,0,0,.328,1.188l2.121,5.606a4.168,4.168,0,0,0,.55,1.154c.113.1.273.1.478-.019a.531.531,0,0,0,.312-.468,3.924,3.924,0,0,0-.317-1.138Z" transform="translate(-5411.704 -2139.818)"/></g></g></g></g><g transform="translate(5098.018 2000.746)"><ellipse class="f" cx="12" cy="12.5" rx="12" ry="12.5" transform="translate(0.482 -0.346)"/><g transform="translate(10.349 4.471)"><path class="g" d="M5504.864,2334.534a1.688,1.688,0,1,1-1.764,1.687A1.742,1.742,0,0,1,5504.864,2334.534Zm1.256-1.916a.592.592,0,0,1-.615.588h-1.363a.592.592,0,0,1-.615-.588l-.268-8.764a.592.592,0,0,1,.616-.588h1.978a.592.592,0,0,1,.615.588Z" transform="translate(-5503.1 -2323.266)"/></g></g></g></svg>