<svg id="Grupo_25836" data-name="Grupo 25836" xmlns="http://www.w3.org/2000/svg" xmlns:xlink="http://www.w3.org/1999/xlink" width="47.734" height="51.062" viewBox="0 0 47.734 51.062">
  <defs>
    <clipPath id="clip-path">
      <rect id="Rectángulo_6028" data-name="Rectángulo 6028" width="47.734" height="51.061" fill="#0af"/>
    </clipPath>
  </defs>
  <g id="Grupo_25835" data-name="Grupo 25835" clip-path="url(#clip-path)">
    <path id="Trazado_29722" data-name="Trazado 29722" d="M46.86,40.347c-.409-1.969-3.315-3.985-8.885-6.163-.761-.3-1.519-.576-2.249-.833a7.5,7.5,0,0,0-5.366-2.634c-.019,0-.037,0-.056.006V25.875a.62.62,0,0,0-.03-.183A22.318,22.318,0,0,0,33.5,20.2c2.684-1.314,1.913-5.719,1.788-6.347,0-.463,0-.914.008-1.353.026-2.7.048-5.032-.893-7.14A8.891,8.891,0,0,0,26.357.008c-.3,0-.582,0-.851,0A10.121,10.121,0,0,0,20.4.839,7.256,7.256,0,0,0,14.37,4.125a11.587,11.587,0,0,0-1.92,6.47v3.256c-.124.623-.9,5.033,1.787,6.348a22.316,22.316,0,0,0,3.223,5.493.619.619,0,0,0-.03.182v4.846a7.433,7.433,0,0,0-5.4,2.342c-.125.132-.243.27-.357.41-.625.223-1.268.462-1.912.714C4.189,36.362,1.282,38.378.874,40.347A76.412,76.412,0,0,0,0,50.419a.627.627,0,0,0,.611.642H.627a.627.627,0,0,0,.627-.611A76.833,76.833,0,0,1,2.1,40.6c.357-1.723,4.224-3.746,8.5-5.4a7.215,7.215,0,0,0-.636,2.712,5.7,5.7,0,0,0-4.985,5.7v6.818a.627.627,0,0,0,.627.627H7.336a.627.627,0,1,0,0-1.254h-1.1V43.617a4.426,4.426,0,0,1,4.353-4.487,4.426,4.426,0,0,1,4.353,4.487v6.191h-1.1a.627.627,0,1,0,0,1.254h1.729a.627.627,0,0,0,.627-.627V43.617a5.7,5.7,0,0,0-4.974-5.7,5.867,5.867,0,0,1,1.211-3.391c1.865-.663,3.724-1.239,5.33-1.677l5.8,3.2.008,0a.611.611,0,0,0,.07.03c.015.006.03.013.045.018s.042.009.063.013.038.009.057.011a3.828,3.828,0,0,0,.12,0c.019,0,.037-.007.056-.01a.639.639,0,0,0,.064-.013c.015,0,.029-.011.043-.017a.616.616,0,0,0,.073-.031l.007,0,5.8-3.2c1.508.411,3.238.944,4.987,1.556,1.407,2.538,1.581,5.6,1.56,8.534a.623.623,0,0,0,.069.286,3.117,3.117,0,1,0,1.115,0,.619.619,0,0,0,.069-.276,20.951,20.951,0,0,0-1.143-7.936c4.471,1.689,8.63,3.8,9,5.594a76.9,76.9,0,0,1,.848,9.848.627.627,0,0,0,.626.611h.016a.627.627,0,0,0,.611-.642,76.412,76.412,0,0,0-.874-10.072m-7.85,5.937a1.863,1.863,0,1,1-1.863-1.863,1.865,1.865,0,0,1,1.863,1.863M13.7,10.594a10.306,10.306,0,0,1,1.7-5.755,6.077,6.077,0,0,1,5.147-2.748.629.629,0,0,0,.28-.066,7.846,7.846,0,0,1,3.966-.772c.224,0,.457,0,.7,0,.272,0,.558,0,.86,0a7.73,7.73,0,0,1,6.9,4.609c.83,1.859.81,3.959.784,6.618q0,.36-.006.73a3.2,3.2,0,0,1-2.1-1.992.627.627,0,0,0-.595-.429c-.089,0-8.91-.039-12.007-3.136a.627.627,0,0,0-1.058.32c-.619,3.1-2.268,4.982-4.568,5.268Zm1.252,8.551c-1.7-.646-1.5-3.5-1.342-4.631,1.478-.145,4.413-.991,5.644-5.281,3.43,2.457,9.936,2.772,11.662,2.812a4.219,4.219,0,0,0,3.2,2.461c.154,1.128.365,3.99-1.341,4.638a.627.627,0,0,0-.368.376,22.585,22.585,0,0,1-4.33,6.833,3.26,3.26,0,0,1-2.4,1.044H22.055a3.259,3.259,0,0,1-2.4-1.044,22.579,22.579,0,0,1-4.33-6.833.627.627,0,0,0-.368-.376M18.73,27.2a4.515,4.515,0,0,0,3.325,1.451h3.625A4.516,4.516,0,0,0,29,27.2l.046-.052v4.774l-5.183,2.856-5.183-2.856V27.149l.046.052" transform="translate(0 0)" fill="#0af"/>
  </g>
</svg>
