<svg xmlns="http://www.w3.org/2000/svg" width="56.783" height="53.976" viewBox="0 0 56.783 53.976">
  <path id="Trazado_29731" data-name="Trazado 29731" d="M9.243,27.9V53.976h38.3V27.9l4.87,4.87,4.375-4.375L28.391,0,0,28.391l4.375,4.375Zm37,24.787H10.534V26.639L28.391,8.783,46.248,26.639ZM28.391,1.826,54.956,28.391,52.408,30.94,28.391,6.924,4.375,30.94l-2.55-2.549Zm-5.422,26.3c-.144-.011-.291-.018-.433-.018a5.19,5.19,0,0,0-3.992,1.952A6.131,6.131,0,0,0,17.336,35.5c.912,4.426,5.566,9.7,10.824,12.269l.273.133.276-.124a20.815,20.815,0,0,0,6.647-5.036A16.913,16.913,0,0,0,39.38,35.7a6.3,6.3,0,0,0-1.026-5.629,4.774,4.774,0,0,0-3.8-1.851c-.09,0-.182,0-.273.007a8.1,8.1,0,0,0-5.818,3.43,7.7,7.7,0,0,0-5.5-3.534m5.473,4.846h.012a1.282,1.282,0,0,0,1.073-.577,6.813,6.813,0,0,1,4.823-2.877c.07,0,.14,0,.209,0a3.475,3.475,0,0,1,2.793,1.374,5,5,0,0,1,.771,4.516c-.953,4.024-5.279,8.967-9.67,11.063-4.808-2.449-9.036-7.264-9.854-11.234a4.832,4.832,0,0,1,.923-4.332,3.885,3.885,0,0,1,3.009-1.5c.109,0,.22,0,.332.014a6.411,6.411,0,0,1,4.516,2.942,1.264,1.264,0,0,0,1.063.617" fill="#0af"/>
</svg>
