<svg xmlns="http://www.w3.org/2000/svg" width="48.738" height="44.76" viewBox="0 0 48.738 44.76">
  <g id="Grupo_25837" data-name="Grupo 25837" transform="translate(-1667.498 -958.883)">
    <path id="Trazado_29723" data-name="Trazado 29723" d="M40.52,61.678a8.9,8.9,0,0,1-3.88-.863,16.044,16.044,0,0,1-2.418-1.559c-.951-.7-1.563-1.135-2.157-1.135s-1.206.431-2.157,1.135a16.044,16.044,0,0,1-2.418,1.559,8.707,8.707,0,0,1-8.054-.257c-1.673-1.035-3.668-3.253-3.668-7.949,0-8.049,7.52-17.882,16.3-17.882s16.3,9.833,16.3,17.882c0,4.7-1.994,6.914-3.667,7.949a7.923,7.923,0,0,1-4.174,1.12m-8.454-6.334a6.411,6.411,0,0,1,3.809,1.681,13.537,13.537,0,0,0,2.006,1.306,5.872,5.872,0,0,0,5.353-.135c1.56-.964,2.351-2.843,2.351-5.586,0-6.595-6.556-15.1-13.519-15.1s-13.519,8.51-13.519,15.1c0,2.743.791,4.622,2.351,5.586a5.876,5.876,0,0,0,5.353.135,13.537,13.537,0,0,0,2.006-1.306,6.411,6.411,0,0,1,3.809-1.681" transform="translate(1659.801 941.328)" fill="#0af" stroke="#effbfc" stroke-width="1"/>
    <path id="Trazado_29724" data-name="Trazado 29724" d="M5.579,36.113C2.7,36.114.241,33.588.016,30.319c-.232-3.4,2.035-6.327,5.055-6.534,3-.208,5.666,2.387,5.9,5.784A6.572,6.572,0,0,1,9.732,33.95,5.171,5.171,0,0,1,5.916,36.1c-.113.007-.226.011-.337.011M5.411,26.55c-.05,0-.1,0-.15.005-1.492.1-2.6,1.706-2.474,3.574s1.459,3.316,2.939,3.2A2.435,2.435,0,0,0,7.5,32.291a3.793,3.793,0,0,0,.7-2.533c-.123-1.806-1.359-3.208-2.789-3.208" transform="translate(1668 947.023)" fill="#0af" stroke="#effbfc" stroke-width="1"/>
    <path id="Trazado_29725" data-name="Trazado 29725" d="M81.959,36.117c-.114,0-.229,0-.345-.012A5.174,5.174,0,0,1,77.8,33.956a6.549,6.549,0,0,1-1.24-4.376c.233-3.391,2.869-5.971,5.9-5.775a5.177,5.177,0,0,1,3.816,2.149,6.737,6.737,0,0,1-.587,8.543,5.206,5.206,0,0,1-3.728,1.62m.159-9.547c-1.43,0-2.664,1.4-2.788,3.2h0a3.778,3.778,0,0,0,.694,2.526,2.322,2.322,0,0,0,3.685.252,3.967,3.967,0,0,0,.339-4.934,2.439,2.439,0,0,0-1.779-1.038c-.05,0-.1-.005-.151-.005m-4.173,3.1h0Z" transform="translate(1628.205 947.012)" fill="#0af" stroke="#effbfc" stroke-width="1"/>
    <path id="Trazado_29726" data-name="Trazado 29726" d="M28.777,13.282a5.389,5.389,0,0,1-3.691-1.512A7.1,7.1,0,0,1,22.95,6.823C22.839,3.164,25.342.1,28.53,0a5.407,5.407,0,0,1,3.853,1.51,7.089,7.089,0,0,1,2.135,4.946c.111,3.659-2.392,6.719-5.58,6.822l-.161,0M28.695,2.776h-.076c-1.659.053-2.957,1.83-2.893,3.962a4.3,4.3,0,0,0,1.262,3.008,2.569,2.569,0,0,0,1.863.757c1.659-.053,2.957-1.83,2.892-3.961a4.3,4.3,0,0,0-1.261-3.007,2.622,2.622,0,0,0-1.787-.759" transform="translate(1656.07 959.383)" fill="#0af" stroke="#effbfc" stroke-width="1"/>
    <path id="Trazado_29727" data-name="Trazado 29727" d="M58.116,13.282l-.161,0c-3.188-.1-5.691-3.162-5.58-6.822A7.09,7.09,0,0,1,54.51,1.511,5.443,5.443,0,0,1,58.363,0c3.188.1,5.691,3.162,5.58,6.821a7.093,7.093,0,0,1-2.135,4.947,5.386,5.386,0,0,1-3.692,1.512m-2.965-6.74c-.065,2.132,1.232,3.908,2.893,3.962a2.493,2.493,0,0,0,1.863-.758,4.3,4.3,0,0,0,1.261-3.007c.064-2.132-1.233-3.909-2.893-3.962a2.606,2.606,0,0,0-1.863.758,4.3,4.3,0,0,0-1.261,3.007" transform="translate(1640.771 959.383)" fill="#0af" stroke="#effbfc" stroke-width="1"/>
  </g>
</svg>
