<svg xmlns="http://www.w3.org/2000/svg" xmlns:xlink="http://www.w3.org/1999/xlink" width="155" height="155" viewBox="0 0 155 155"><defs><style>.a{fill:#2e0d0d;}.b{clip-path:url(#a);}.c{fill:#6fc978;}.d{fill:#579d5e;}.e{fill:#fdb62f;}.f{fill:#eaac96;}.g{fill:#fff;font-size:31px;font-family:OmnesSemiBold, Omnes;}.h{fill:#ffaf97;}.i{fill:#4398d1;}.j{fill:#d9d9d9;}</style><clipPath id="a"><circle class="a" cx="77.5" cy="77.5" r="77.5" transform="translate(1305 1007)"/></clipPath></defs><g class="b" transform="translate(-1305 -1007)"><g transform="translate(1323.618 1031.507)"><g transform="translate(20.127 0.063)"><path class="c" d="M164.737,123.571a4.731,4.731,0,0,0-.7-2.5l-4.488-7.226a7.913,7.913,0,0,1-.845-3.583V88.006a26.165,26.165,0,0,0-26.165-26.165H120.457A26.165,26.165,0,0,0,94.291,88.006v22.261a7.906,7.906,0,0,1-.845,3.583l-4.488,7.226a4.731,4.731,0,0,0-.7,2.5h0a4.707,4.707,0,0,0,4.69,4.69h67.1A4.707,4.707,0,0,0,164.737,123.571Z" transform="translate(-88.253 -47.752)"/><path class="c" d="M207.475,14.152,217.538.063h-32.2L195.4,14.152v4.025h12.076Z" transform="translate(-163.195 -0.063)"/></g><path class="d" d="M241.494,155.139l-4.488-7.226a7.913,7.913,0,0,1-.845-3.583V122.07a26.158,26.158,0,0,0-5.495-16.1c-5.374,29.607-24.293,46.675-42.066,56.356h48.909a4.711,4.711,0,0,0,4.025-7.185Z" transform="translate(-145.588 -81.753)"/><g transform="translate(0 4.088)"><path class="e" d="M405.2,33.815h0a9.781,9.781,0,0,0-8.051-8.051h0a9.781,9.781,0,0,0,8.051-8.051h0a9.781,9.781,0,0,0,8.051,8.051h0A9.782,9.782,0,0,0,405.2,33.815Z" transform="translate(-306.573 -17.713)"/><path class="e" d="M8.051,210.325h0A9.781,9.781,0,0,0,0,202.274H0a9.781,9.781,0,0,0,8.051-8.051h0a9.781,9.781,0,0,0,8.051,8.051h0A9.781,9.781,0,0,0,8.051,210.325Z" transform="translate(0 -153.968)"/></g><path class="f" d="M86.578,388.379l4.529,8.292,54.686-13.143a29.043,29.043,0,0,0,6.8-2.5l15.236-7.829C142.511,380.952,108.9,385.782,86.578,388.379Z" transform="translate(-66.833 -288.042)"/><text class="g" transform="translate(57.382 55.493)"><tspan x="-14.353" y="0">S/</tspan></text><path class="h" d="M149.936,274.668a6.038,6.038,0,0,0-8.051-2.234l-28.56,12.2a4.04,4.04,0,0,1-1.59.322H76.33a4.025,4.025,0,0,1,0-8.051h16.1a12.076,12.076,0,0,0,12.076-12.076H71.017a18.3,18.3,0,0,0-14.27,6.863l-12.62,15.276,14.21,26.044,54.686-13.143a29.044,29.044,0,0,0,6.8-2.5L148,282.94A6.036,6.036,0,0,0,149.936,274.668Z" transform="translate(-34.063 -204.382)"/><path class="i" d="M-14.011,343.562,0,368.872s3.052,11.565,11.1,10.056,21.1-16.094,21.1-16.094L8.051,326.605Z" transform="translate(0 -252.071)"/><circle class="j" cx="4.025" cy="4.025" r="4.025" transform="translate(14.089 102.718)"/></g></g></svg>