<svg xmlns="http://www.w3.org/2000/svg" width="171.536" height="54.344" viewBox="0 0 171.536 54.344">
  <g id="Grupo_26006" data-name="Grupo 26006" transform="translate(-29.734 -13578.254)">
    <path id="Trazado_30438" data-name="Trazado 30438" d="M-102.093-10.607a.566.566,0,0,0-.549.468l-.224,1.262a.38.38,0,0,0,.387.468h1.241l-.326,1.892a2.626,2.626,0,0,1-1.465.366c-.936,0-2.788-.651-2.259-3.622.631-3.622,2.625-3.764,3.561-3.764a5.633,5.633,0,0,1,2.238.387.578.578,0,0,0,.244.081.552.552,0,0,0,.488-.265,8.394,8.394,0,0,0,.651-1.038.59.59,0,0,0-.244-.509,5.4,5.4,0,0,0-3.174-.834c-2.727,0-5.372,1.119-6.226,5.942-.794,4.517,1.445,5.8,4.171,5.8a3.216,3.216,0,0,0,2.157-.692l.2.265a.8.8,0,0,0,.631.326h.57a.583.583,0,0,0,.549-.468l.977-5.6a.38.38,0,0,0-.387-.468ZM-93-6.68a1.9,1.9,0,0,1-1.16.529c-.692,0-1.16-.285-.9-1.791a2.458,2.458,0,0,1,2.686-2.3Zm3.052-5.27a7.568,7.568,0,0,0-2.666-.488,5.03,5.03,0,0,0-5.046,4.477c-.366,2.1.02,3.988,2.218,3.988a3.271,3.271,0,0,0,2.1-.773l.265.366a.6.6,0,0,0,.549.305h1.058a.583.583,0,0,0,.549-.468l1.2-6.9A.441.441,0,0,0-89.946-11.95Zm.855,7.407a.371.371,0,0,0,.387.468H-87.2a.583.583,0,0,0,.549-.468l.956-5.514a2.726,2.726,0,0,1,1.119-.2c1.16,0,1.221.285.956,1.75l-.692,3.968a.371.371,0,0,0,.387.468h1.506a.583.583,0,0,0,.549-.468l.692-3.968c.468-2.686-.346-3.927-3.073-3.927a12.224,12.224,0,0,0-3.215.448.653.653,0,0,0-.407.509ZM-75.4-6.68a1.9,1.9,0,0,1-1.16.529c-.692,0-1.16-.285-.9-1.791a2.458,2.458,0,0,1,2.686-2.3Zm3.052-5.27a7.568,7.568,0,0,0-2.666-.488,5.03,5.03,0,0,0-5.046,4.477c-.366,2.1.02,3.988,2.218,3.988a3.271,3.271,0,0,0,2.1-.773l.265.366a.6.6,0,0,0,.549.305h1.058a.583.583,0,0,0,.549-.468l1.2-6.9A.441.441,0,0,0-72.345-11.95ZM-62.476-6.6a1.78,1.78,0,0,1-1.16.448c-1.16,0-1.485-.1-1.221-1.567l.733-4.131a.38.38,0,0,0-.387-.468h-1.506a.566.566,0,0,0-.549.468L-67.3-7.718c-.468,2.686.631,3.744,3.357,3.744a7.633,7.633,0,0,0,3.276-.814.734.734,0,0,0,.407-.509l1.16-6.552a.38.38,0,0,0-.387-.468h-1.506a.566.566,0,0,0-.549.468Zm3.927,2.055a.371.371,0,0,0,.387.468h1.506a.583.583,0,0,0,.549-.468l.956-5.514a2.726,2.726,0,0,1,1.119-.2c1.16,0,1.221.285.956,1.75l-.692,3.968a.371.371,0,0,0,.387.468h1.506a.583.583,0,0,0,.549-.468l.692-3.968c.468-2.686-.346-3.927-3.073-3.927a12.224,12.224,0,0,0-3.215.448.653.653,0,0,0-.407.509Zm18.089.468a.788.788,0,0,0,.651-.468l5.372-10.622a.38.38,0,0,0-.387-.468H-36.37a.787.787,0,0,0-.651.488L-41.03-6.9l-1.119-8.241a.462.462,0,0,0-.448-.488h-1.546a.566.566,0,0,0-.549.468l1.628,10.622a.49.49,0,0,0,.488.468Zm8.79-2.6a1.9,1.9,0,0,1-1.16.529c-.692,0-1.16-.285-.9-1.791a2.458,2.458,0,0,1,2.686-2.3Zm3.052-5.27a7.568,7.568,0,0,0-2.666-.488,5.03,5.03,0,0,0-5.046,4.477c-.366,2.1.02,3.988,2.218,3.988a3.271,3.271,0,0,0,2.1-.773l.265.366a.6.6,0,0,0,.549.305h1.058a.583.583,0,0,0,.549-.468l1.2-6.9A.441.441,0,0,0-28.618-11.95Zm3.866,6.165a.716.716,0,0,1-.224-.773l1.526-8.607a.38.38,0,0,0-.387-.468h-1.506a.566.566,0,0,0-.549.468l-1.628,9.238c-.122.671-.265,1.953,1.16,1.953a3.409,3.409,0,0,0,1.1-.163c.326-.1.509-.244.549-.509l.142-.712A.415.415,0,0,0-24.751-5.784Zm7.732-.753a5.649,5.649,0,0,1-2.32.387c-.936,0-1.282-.549-1.18-1.119a5.994,5.994,0,0,0,1.75.265,3.312,3.312,0,0,0,3.541-2.849c.244-1.485-.794-2.584-2.991-2.584-2.727,0-4.171,1.648-4.619,4.151-.468,2.686.407,4.314,3.134,4.314a5.1,5.1,0,0,0,3.215-.814.884.884,0,0,0,.407-.509.23.23,0,0,0-.02-.163l-.265-.875c-.02-.183-.2-.265-.387-.265A.627.627,0,0,0-17.019-6.537Zm-1.587-3.7c.529,0,.977.122.875.712-.081.448-.529.631-1.3.631a1.853,1.853,0,0,1-1.16-.346A1.556,1.556,0,0,1-18.606-10.241ZM-7.8-8.348c.244-1.445.977-1.892,1.913-1.892a1.648,1.648,0,0,1,.936.285l-.631,3.6a2.673,2.673,0,0,1-1.119.2C-7.863-6.151-8.066-6.883-7.8-8.348Zm6.226-6.817a.38.38,0,0,0-.387-.468H-3.468a.566.566,0,0,0-.549.468l-.549,3.032a3.285,3.285,0,0,0-1.445-.305c-2.055,0-3.907,1.4-4.375,4.09-.488,2.686.651,4.375,3.378,4.375a11.966,11.966,0,0,0,3.195-.448.678.678,0,0,0,.427-.509ZM4.549-6.537a5.649,5.649,0,0,1-2.32.387C1.294-6.151.948-6.7,1.05-7.27a5.994,5.994,0,0,0,1.75.265A3.312,3.312,0,0,0,6.34-9.854c.244-1.485-.794-2.584-2.991-2.584-2.727,0-4.171,1.648-4.619,4.151C-1.738-5.6-.863-3.974,1.863-3.974a5.1,5.1,0,0,0,3.215-.814A.884.884,0,0,0,5.485-5.3a.23.23,0,0,0-.02-.163L5.2-6.334C5.18-6.517,5-6.6,4.814-6.6A.627.627,0,0,0,4.549-6.537Zm-1.587-3.7c.529,0,.977.122.875.712-.081.448-.529.631-1.3.631a1.853,1.853,0,0,1-1.16-.346A1.556,1.556,0,0,1,2.962-10.241Zm9.319,3.52a.4.4,0,0,0-.163-.02.623.623,0,0,0-.549.326l-.631,1.058c-.041.041-.041.1-.061.142a.574.574,0,0,0,.326.549,7.39,7.39,0,0,0,3.032.692c3.256,0,5.128-1.038,5.535-3.418.875-4.883-5.779-3.073-5.392-5.25.142-.814.9-.9,2.36-.9.285,0,1.607.183,2.381.285.305,0,.57-.061.671-.427.183-.692.244-.977.265-1.119.061-.244-.183-.407-.427-.468a15.376,15.376,0,0,0-2.645-.448c-3.683,0-4.782,1.526-5.107,3.418-.671,3.825,5.84,2.584,5.453,4.822-.2,1.16-1.953,1.323-2.482,1.323A8.8,8.8,0,0,1,12.281-6.72ZM19.607-1.8a.38.38,0,0,0,.387.468h1.526c.265,0,.448-.224.631-.488l8.607-16.461a.38.38,0,0,0-.387-.468H28.845c-.265,0-.448.224-.651.488Zm12.86-13.531c-.265.061-.549.224-.59.468-.02.142-.061.427-.122,1.119-.02.366.224.427.529.427.794-.1,1.913-.224,2.218-.224,1.465,0,1.933.081,1.791.9-.427,2.4-5.657,1.3-6.511,6.186l-.326,1.913a.371.371,0,0,0,.387.468h6.694a.583.583,0,0,0,.549-.468l.2-1.262a.359.359,0,0,0-.366-.468H32.06l.041-.305c.448-2.523,5.962-2.238,6.572-5.718.326-1.892.041-3.418-3.642-3.418A11.381,11.381,0,0,0,32.466-15.328Zm10.133,4.4.448-2.5h4.415a.583.583,0,0,0,.549-.468l.224-1.262a.38.38,0,0,0-.387-.468H41.46a.566.566,0,0,0-.549.468L39.853-9.223a.38.38,0,0,0,.387.468h3.032c1.18,0,1.424.814,1.343,1.282a1.93,1.93,0,0,1-2.035,1.323c-.285,0-1.75-.224-2.523-.326-.305,0-.549.061-.651.427-.183.692-.285,1.058-.305,1.2-.041.244.2.407.427.468a15.1,15.1,0,0,0,2.686.407c2.727,0,4.619-1.323,5.006-3.52.163-.956.509-3.439-3.418-3.439ZM53.323-6.151c-.936,0-2.116-.651-1.587-3.622.631-3.622,1.933-3.764,2.869-3.764s2.116.142,1.485,3.764C55.561-6.8,54.218-6.151,53.323-6.151Zm-.366,2.177c2.727,0,4.924-1.282,5.718-5.8.855-4.822-.956-5.942-3.683-5.942s-4.985,1.119-5.84,5.942C48.358-5.255,50.189-3.974,52.957-3.974ZM-70.564,10.5a.4.4,0,0,0-.163-.02.623.623,0,0,0-.549.326l-.631,1.058c-.041.041-.041.1-.061.142a.574.574,0,0,0,.326.549,7.39,7.39,0,0,0,3.032.692c3.256,0,5.128-1.038,5.535-3.418.875-4.883-5.779-3.073-5.392-5.25.142-.814.9-.9,2.36-.9.285,0,1.607.183,2.381.285.305,0,.57-.061.671-.427.183-.692.244-.977.265-1.119.061-.244-.183-.407-.427-.468A15.376,15.376,0,0,0-65.864,1.5c-3.683,0-4.782,1.526-5.107,3.418-.671,3.825,5.84,2.584,5.453,4.822-.2,1.16-1.953,1.323-2.482,1.323A8.8,8.8,0,0,1-70.564,10.5Zm12.636-8.444a.38.38,0,0,0-.387-.468h-1.506a.566.566,0,0,0-.549.468l-1.872,10.622a.371.371,0,0,0,.387.468h1.506a.583.583,0,0,0,.549-.468Zm8.485,11.09a.583.583,0,0,0,.549-.468l1.872-10.622a.38.38,0,0,0-.387-.468h-1.506a.566.566,0,0,0-.549.468L-50.583,8.34-53.33,1.992a.571.571,0,0,0-.549-.407h-1.669a.566.566,0,0,0-.549.468l-1.872,10.622a.371.371,0,0,0,.387.468h1.506a.583.583,0,0,0,.549-.468l1.16-6.593,2.869,6.654a.588.588,0,0,0,.549.407Zm7.691-2.645a.4.4,0,0,0-.163-.02.623.623,0,0,0-.549.326l-.631,1.058c-.041.041-.041.1-.061.142a.574.574,0,0,0,.326.549,7.39,7.39,0,0,0,3.032.692c3.256,0,5.128-1.038,5.535-3.418.875-4.883-5.779-3.073-5.392-5.25.142-.814.9-.9,2.36-.9.285,0,1.607.183,2.381.285.305,0,.57-.061.671-.427.183-.692.244-.977.265-1.119.061-.244-.183-.407-.427-.468A15.376,15.376,0,0,0-37.052,1.5c-3.683,0-4.782,1.526-5.107,3.418-.671,3.825,5.84,2.584,5.453,4.822-.2,1.16-1.953,1.323-2.482,1.323A8.8,8.8,0,0,1-41.752,10.5Zm13.45.57c-.936,0-2.5-.651-1.974-3.622.631-3.622,2.32-3.764,3.256-3.764s2.564.142,1.933,3.764C-25.616,10.415-27.407,11.067-28.3,11.067Zm-.366,2.177c2.727,0,5.229-1.282,6.023-5.8.855-4.822-1.262-5.942-3.988-5.942s-5.229,1.119-6.084,5.942C-33.511,11.962-31.436,13.244-28.668,13.244Zm9.156-11.659a.566.566,0,0,0-.549.468l-1.872,10.622a.371.371,0,0,0,.387.468h1.506a.583.583,0,0,0,.549-.468l.59-3.357h2.218l.387,1.913c.305.977-.041,2.014,1.3,2.014.529,0,1.3-.163,1.384-.671l.142-.712a.415.415,0,0,0-.183-.427c-.142-.1-.183-.305-.305-.794l-.407-1.933a4.286,4.286,0,0,0,2.014-3.235c.468-2.706-.733-3.886-3.459-3.886Zm2.727,5.555h-1.73l.59-3.378h1.73c.936,0,1.445.651,1.262,1.709A1.831,1.831,0,0,1-16.785,7.139ZM-5.777,3.762h2.523A.566.566,0,0,0-2.7,3.294l.224-1.241a.38.38,0,0,0-.387-.468h-7.508a.566.566,0,0,0-.549.468l-.224,1.241a.38.38,0,0,0,.387.468h2.543l-1.567,8.912a.371.371,0,0,0,.387.468h1.506a.583.583,0,0,0,.549-.468Zm9.726,9.38a.583.583,0,0,0,.549-.468l.2-1.241a.371.371,0,0,0-.387-.468H-.405l.448-2.5H3.481a.566.566,0,0,0,.549-.468l.224-1.241a.38.38,0,0,0-.387-.468H.429L.877,3.762H5.6a.566.566,0,0,0,.549-.468L6.37,2.053a.38.38,0,0,0-.387-.468H-.711a.566.566,0,0,0-.549.468L-3.132,12.674a.371.371,0,0,0,.387.468Zm7-2.075c-.936,0-2.5-.651-1.974-3.622.631-3.622,2.32-3.764,3.256-3.764s2.564.142,1.933,3.764C13.635,10.415,11.844,11.067,10.949,11.067Zm-.366,2.177c2.727,0,5.229-1.282,6.023-5.8C17.46,2.622,15.344,1.5,12.617,1.5S7.388,2.622,6.533,7.445C5.74,11.962,7.815,13.244,10.582,13.244Zm8.2-2.747a.4.4,0,0,0-.163-.02.623.623,0,0,0-.549.326L17.44,11.86c-.041.041-.041.1-.061.142a.574.574,0,0,0,.326.549,7.39,7.39,0,0,0,3.032.692c3.256,0,5.128-1.038,5.535-3.418.875-4.883-5.779-3.073-5.392-5.25.142-.814.9-.9,2.36-.9.285,0,1.607.183,2.381.285.305,0,.57-.061.671-.427.183-.692.244-.977.265-1.119.061-.244-.183-.407-.427-.468A15.376,15.376,0,0,0,23.483,1.5C19.8,1.5,18.7,3.029,18.376,4.922c-.671,3.825,5.84,2.584,5.453,4.822-.2,1.16-1.953,1.323-2.482,1.323A8.8,8.8,0,0,1,18.783,10.5Z" transform="translate(140.014 13597)" fill="#fff"/>
    <path id="Trazado_30439" data-name="Trazado 30439" d="M-101.628-10.733h-2.027l.405-2.288a.541.541,0,0,0-.55-.666h-2.143a.805.805,0,0,0-.782.666l-.405,2.288h-2.027a.805.805,0,0,0-.782.666l-.319,1.766a.541.541,0,0,0,.55.666h2.027l-.405,2.288a.541.541,0,0,0,.55.666h2.143a.805.805,0,0,0,.782-.666l.405-2.288h2.027A.806.806,0,0,0-101.4-8.3l.319-1.766A.541.541,0,0,0-101.628-10.733Zm7.1-1.881a.54.54,0,0,0-.224.366l-.285,1.587a.38.38,0,0,0,.387.468l3.357-1.953L-92.781-3.7a.371.371,0,0,0,.387.468h1.506A.583.583,0,0,0-90.34-3.7l1.872-10.622a.38.38,0,0,0-.387-.468h-1.953Zm10.7,7.3c-.936,0-2.116-.651-1.587-3.622.631-3.622,1.933-3.764,2.869-3.764s2.116.142,1.485,3.764C-81.59-5.96-82.933-5.309-83.828-5.309Zm-.366,2.177c2.727,0,4.924-1.282,5.718-5.8.855-4.822-.956-5.942-3.683-5.942S-87.145-13.753-88-8.93C-88.793-4.413-86.962-3.131-84.195-3.131Zm8.505-.57a.371.371,0,0,0,.387.468h1.669c.265,0,.427-.224.631-.488l6.491-10.6a.38.38,0,0,0-.387-.468h-1.669c-.265,0-.448.224-.651.488Zm1.506-8.078c-.183,0-.549-.1-.448-.61A.661.661,0,0,1-73.98-13c.183,0,.529.1.448.61A.674.674,0,0,1-74.184-11.779Zm-.326,1.852a2.694,2.694,0,0,0,2.788-2.462c.285-1.689-.549-2.482-1.933-2.482a2.7,2.7,0,0,0-2.788,2.482C-76.747-10.7-75.893-9.927-74.509-9.927ZM-68.2-4.983c-.183,0-.529-.1-.448-.61A.661.661,0,0,1-68-6.2c.183,0,.529.1.448.61A.661.661,0,0,1-68.2-4.983Zm-.326,1.852a2.694,2.694,0,0,0,2.788-2.462c.305-1.689-.549-2.482-1.933-2.482A2.712,2.712,0,0,0-70.46-5.593C-70.765-3.9-69.91-3.131-68.527-3.131Zm11.517-.1a4.592,4.592,0,0,0,4.883-4.192l.549-3.174c.488-2.686-.671-4.192-3.4-4.192H-58.78a.566.566,0,0,0-.549.468L-61.2-3.721a.387.387,0,0,0,.387.488Zm2.3-4.192A2.144,2.144,0,0,1-56.827-5.41h-1.648l1.282-7.2h1.648c.936,0,1.648.57,1.384,2.014Zm4.517,1.546a.4.4,0,0,0-.163-.02.623.623,0,0,0-.549.326l-.631,1.058c-.041.041-.041.1-.061.142a.574.574,0,0,0,.326.549,7.39,7.39,0,0,0,3.032.692c3.256,0,5.128-1.038,5.535-3.418.875-4.883-5.779-3.073-5.392-5.25.142-.814.9-.9,2.36-.9.285,0,1.607.183,2.381.285.305,0,.57-.061.671-.427.183-.692.244-.977.265-1.119.061-.244-.183-.407-.427-.468a15.376,15.376,0,0,0-2.645-.448c-3.683,0-4.782,1.526-5.107,3.418-.671,3.825,5.84,2.584,5.453,4.822-.2,1.16-1.953,1.323-2.482,1.323A8.8,8.8,0,0,1-50.193-5.878Zm17.438-8.159a4.017,4.017,0,0,0-2.686-.834c-2.727,0-5.372,1.119-6.226,5.942-.773,4.334,1.445,5.8,4.171,5.8a4.953,4.953,0,0,0,2.971-.855.811.811,0,0,0,.407-.509c.02-.061,0-.1-.285-1.038-.02-.183-.183-.265-.366-.265a.754.754,0,0,0-.285.081,3.841,3.841,0,0,1-1.892.407c-.936,0-2.808-.651-2.279-3.622.631-3.622,2.645-3.764,3.581-3.764a3.652,3.652,0,0,1,1.75.387.578.578,0,0,0,.244.081.552.552,0,0,0,.488-.265,8.4,8.4,0,0,0,.651-1.038A.59.59,0,0,0-32.755-14.038Zm5.84,1.424h2.523a.566.566,0,0,0,.549-.468l.224-1.241a.38.38,0,0,0-.387-.468h-7.508a.566.566,0,0,0-.549.468l-.224,1.241a.38.38,0,0,0,.387.468h2.543L-30.924-3.7a.371.371,0,0,0,.387.468h1.506a.583.583,0,0,0,.549-.468Zm7.162,7.3c-.936,0-2.5-.651-1.974-3.622.631-3.622,2.32-3.764,3.256-3.764s2.564.142,1.933,3.764C-17.067-5.96-18.858-5.309-19.753-5.309Zm-.366,2.177c2.727,0,5.229-1.282,6.023-5.8.855-4.822-1.262-5.942-3.988-5.942s-5.229,1.119-6.084,5.942C-24.962-4.413-22.887-3.131-20.119-3.131Zm6.45-1.343A1.116,1.116,0,0,0-12.55-3.131a1.668,1.668,0,0,0,1.567-1.343,1.093,1.093,0,0,0-1.1-1.343A1.708,1.708,0,0,0-13.669-4.474ZM-.077-5.7a5.649,5.649,0,0,1-2.32.387c-.936,0-1.282-.549-1.18-1.119a5.994,5.994,0,0,0,1.75.265A3.312,3.312,0,0,0,1.714-9.012C1.958-10.5.92-11.6-1.277-11.6-4-11.6-5.449-9.948-5.9-7.445c-.468,2.686.407,4.314,3.134,4.314A5.1,5.1,0,0,0,.452-3.945a.884.884,0,0,0,.407-.509.23.23,0,0,0-.02-.163L.574-5.492c-.02-.183-.2-.265-.387-.265A.627.627,0,0,0-.077-5.7ZM-1.664-9.4c.529,0,.977.122.875.712-.081.448-.529.631-1.3.631A1.853,1.853,0,0,1-3.251-8.4,1.556,1.556,0,0,1-1.664-9.4Zm3.6,5.7a.371.371,0,0,0,.387.468H3.83A.583.583,0,0,0,4.379-3.7l.956-5.514a2.726,2.726,0,0,1,1.119-.2c1.16,0,1.221.285.956,1.75L6.719-3.7a.371.371,0,0,0,.387.468H8.612A.583.583,0,0,0,9.161-3.7l.692-3.968c.468-2.686-.346-3.927-3.073-3.927a12.224,12.224,0,0,0-3.215.448.653.653,0,0,0-.407.509Zm13-1.811a.563.563,0,0,0-.183-.02.594.594,0,0,0-.529.326,9.178,9.178,0,0,0-.509,1.139c-.041.224.142.366.326.468a7.833,7.833,0,0,0,2.523.468c2.34,0,3.866-.956,4.171-2.666.57-3.3-4.07-2.137-3.866-3.256.061-.326.692-.387,1.75-.387.163,0,.855.061,1.323.122.305,0,.57-.061.671-.427.183-.692.244-.977.285-1.119.041-.244-.2-.427-.427-.468A11.365,11.365,0,0,0,18.4-11.6c-2.645,0-3.744,1.2-3.988,2.564-.61,3.378,4.049,2.177,3.846,3.3-.081.488-1,.529-1.363.529A7.923,7.923,0,0,1,14.94-5.512ZM27.454-5.7a5.649,5.649,0,0,1-2.32.387c-.936,0-1.282-.549-1.18-1.119a5.994,5.994,0,0,0,1.75.265,3.313,3.313,0,0,0,3.541-2.849c.244-1.485-.794-2.584-2.991-2.584-2.727,0-4.171,1.648-4.619,4.151-.468,2.686.407,4.314,3.134,4.314a5.1,5.1,0,0,0,3.215-.814.884.884,0,0,0,.407-.509.23.23,0,0,0-.02-.163L28.1-5.492c-.02-.183-.2-.265-.387-.265A.627.627,0,0,0,27.454-5.7ZM25.866-9.4c.529,0,.977.122.875.712-.081.448-.529.631-1.3.631a1.853,1.853,0,0,1-1.16-.346A1.556,1.556,0,0,1,25.866-9.4Zm11.395-1.709A7.568,7.568,0,0,0,34.6-11.6,5.03,5.03,0,0,0,29.549-7.12c-.285,1.587.122,3.561,1.607,3.724a2.652,2.652,0,0,0-1.974,2.32c-.326,1.872,1.445,2.3,2.259,2.3,3.947,0,4.456-2.727,4.68-4.049L37.485-10.6A.441.441,0,0,0,37.261-11.108Zm-3.7,8.953c-.142.834-.61,1.2-1.2,1.2-.814,0-.753-.549-.712-.855.081-.448.407-1.017,2.177-1.791Zm.59-3.378A1.812,1.812,0,0,1,33.009-5c-.692,0-1.119-.59-.855-2.1A2.567,2.567,0,0,1,34.86-9.521Zm8.729-.224a1.78,1.78,0,0,1-1.16.448c-1.16,0-1.485-.1-1.221-1.567l.733-4.131a.38.38,0,0,0-.387-.468H39.337a.566.566,0,0,0-.549.468l-.733,4.131c-.468,2.686.631,3.744,3.357,3.744a7.633,7.633,0,0,0,3.276-.814.734.734,0,0,0,.407-.509l1.16-6.552a.38.38,0,0,0-.387-.468H44.363a.566.566,0,0,0-.549.468ZM51.24-11.6a5.775,5.775,0,0,0-3.276.814c-.183.142-.387.285-.407.509L46.4-3.7a.371.371,0,0,0,.387.468H48.29a.583.583,0,0,0,.549-.468l.9-5.148c.163-.427.875-.549,1.2-.549a2.6,2.6,0,0,1,1.241.366.479.479,0,0,0,.163.041.656.656,0,0,0,.509-.305l.59-1a.647.647,0,0,0,.061-.183.578.578,0,0,0-.163-.488A3.027,3.027,0,0,0,51.24-11.6Zm5.494,6.287c-1.445,0-1.2-1.282-1.058-2.116S56.164-9.4,57.467-9.4s1.241,1.139,1.1,1.974S58.179-5.309,56.734-5.309Zm-.366,2.177c2.727,0,4.334-1.628,4.8-4.314.448-2.5-.59-4.151-3.317-4.151a4.584,4.584,0,0,0-4.782,4.151C52.6-4.759,53.641-3.131,56.368-3.131Z" transform="translate(140 13631.375)" fill="#fff"/>
  </g>
</svg>
