<svg xmlns="http://www.w3.org/2000/svg" width="345" height="104.714" viewBox="0 0 345 104.714">
  <g id="Grupo_20976" data-name="Grupo 20976" transform="translate(-6242.5 -4891.499)">
    <g id="Grupo_20975" data-name="Grupo 20975" transform="translate(-32 -9.713)">
      <path id="Trazado_17958" data-name="Trazado 17958" d="M0,0H345V74.893H0Z" transform="translate(6274.5 4901.211)" fill="#e2f7ff"/>
      <path id="Pay_-_Button_Copy_10" data-name="Pay - Button Copy 10" d="M3.683,0H75.412A3.683,3.683,0,0,1,79.1,3.683v24.33A3.683,3.683,0,0,1,75.412,31.7H3.683A3.683,3.683,0,0,1,0,28.013V3.683A3.683,3.683,0,0,1,3.683,0Z" transform="translate(6448.842 4922.81)" fill="#fff"/>
      <path id="Pay_-_Button_Copy_10_-_Contorno" data-name="Pay - Button Copy 10 - Contorno" d="M3.683,1.392A2.294,2.294,0,0,0,1.392,3.683v24.33A2.294,2.294,0,0,0,3.683,30.3H75.412A2.294,2.294,0,0,0,77.7,28.013V3.683a2.294,2.294,0,0,0-2.291-2.291H3.683M3.683,0H75.412A3.683,3.683,0,0,1,79.1,3.683v24.33A3.683,3.683,0,0,1,75.412,31.7H3.683A3.683,3.683,0,0,1,0,28.013V3.683A3.683,3.683,0,0,1,3.683,0Z" transform="translate(6448.842 4922.81)" fill="#0855c4"/>
      <path id="Trazado_17959" data-name="Trazado 17959" d="M.87,1.008A4.553,4.553,0,0,0,3.964,2C6.189,2,7.544.905,7.544-.848c0-1.842-1.562-2.475-3.182-2.843C3.036-4,2.108-4.163,2.108-5.209c0-.884.781-1.459,1.974-1.459A3.124,3.124,0,0,1,6.631-5.386a1,1,0,0,0,.707-.84,1.261,1.261,0,0,0-.575-.913,4.316,4.316,0,0,0-2.7-.781C2.034-7.92.634-6.771.634-5.15.634-3.22,2.167-2.7,3.64-2.366c1.267.295,2.387.545,2.387,1.621C6.027.2,5.275.743,3.949.743A3.458,3.458,0,0,1,1.076-.716a.965.965,0,0,0-.692.81A1.342,1.342,0,0,0,.87,1.008ZM8.664,4.78c.147,0,.295-.029.295-.059L12.45-6.565a2.4,2.4,0,0,0,.118-.589c0-.6-.5-.678-.81-.678a.564.564,0,0,0-.295.059L7.957,3.513a2.277,2.277,0,0,0-.118.589C7.839,4.692,8.34,4.78,8.664,4.78Zm8.472-2.9a.85.85,0,0,0,.781-.53l3.845-7.131a2.665,2.665,0,0,0,.442-1.1v-.118c0-.383-.147-.722-.943-.722H15.692c-.442,0-.678.221-.678.634v.1c0,.413.236.619.678.619h4.832L16.3,1.3C16.222,1.406,16.635,1.878,17.136,1.878ZM25.99,2c2.284,0,3.7-1.223,3.7-3.123,0-1.842-1.355-3.006-3.418-3.006a4.738,4.738,0,0,0-1.96.427V-6.432h4.228c.471,0,.707-.206.707-.6V-7.11q0-.619-.707-.619H23.751a.764.764,0,0,0-.781.855V-3.25c0,.589.295.9.928.943a3.54,3.54,0,0,1,2.225-.648c1.355,0,2.151.692,2.151,1.842S27.39.773,25.99.773A3,3,0,0,1,23.309-.642c-.044-.074-.722.236-.722.751a1.73,1.73,0,0,0,.928,1.252A4.709,4.709,0,0,0,25.99,2Zm4.037,1.267c-.118.442.545.589.737.339l1.223-1.886a1.369,1.369,0,0,0,.339-.884V.758c0-.457-.25-.692-.619-.692h-.133c-.5,0-.619.236-.751.692ZM37.482,2C39.942,2,41.46.257,41.46-2.5v-.958c0-2.755-1.5-4.464-3.978-4.464-2.446,0-3.963,1.724-3.963,4.479v.972C33.519.286,35.007,2,37.482,2Zm0-1.282c-1.532,0-2.431-1.149-2.431-3.153V-3.515c0-2,.884-3.153,2.431-3.153s2.46,1.179,2.46,3.182v1.061C39.942-.421,39.058.714,37.482.714ZM46.543,2C49,2,50.521.257,50.521-2.5v-.958c0-2.755-1.5-4.464-3.978-4.464C44.1-7.92,42.58-6.2,42.58-3.441v.972C42.58.286,44.068,2,46.543,2Zm0-1.282c-1.532,0-2.431-1.149-2.431-3.153V-3.515c0-2,.884-3.153,2.431-3.153S49-5.489,49-3.485v1.061C49-.421,48.119.714,46.543.714ZM55.6,2C58.064,2,59.582.257,59.582-2.5v-.958c0-2.755-1.5-4.464-3.978-4.464-2.446,0-3.963,1.724-3.963,4.479v.972C51.64.286,53.128,2,55.6,2Zm0-1.282c-1.532,0-2.431-1.149-2.431-3.153V-3.515c0-2,.884-3.153,2.431-3.153s2.46,1.179,2.46,3.182v1.061C58.064-.421,57.18.714,55.6.714Z" transform="translate(6458.751 4941.933)" fill="#0855c4"/>
      <path id="Pay_-_Button_Copy_10-2" data-name="Pay - Button Copy 10" d="M3.683,0H75.412A3.683,3.683,0,0,1,79.1,3.683v24.33A3.683,3.683,0,0,1,75.412,31.7H3.683A3.683,3.683,0,0,1,0,28.013V3.683A3.683,3.683,0,0,1,3.683,0Z" transform="translate(6284.322 4922.81)" fill="#fff"/>
      <path id="Pay_-_Button_Copy_10_-_Contorno-2" data-name="Pay - Button Copy 10 - Contorno" d="M3.683,1.392A2.294,2.294,0,0,0,1.392,3.683v24.33A2.294,2.294,0,0,0,3.683,30.3H75.412A2.294,2.294,0,0,0,77.7,28.013V3.683a2.294,2.294,0,0,0-2.291-2.291H3.683M3.683,0H75.412A3.683,3.683,0,0,1,79.1,3.683v24.33A3.683,3.683,0,0,1,75.412,31.7H3.683A3.683,3.683,0,0,1,0,28.013V3.683A3.683,3.683,0,0,1,3.683,0Z" transform="translate(6284.322 4922.81)" fill="#0855c4"/>
      <path id="Trazado_17960" data-name="Trazado 17960" d="M.87,1.008A4.553,4.553,0,0,0,3.964,2C6.189,2,7.544.905,7.544-.848c0-1.842-1.562-2.475-3.182-2.843C3.036-4,2.108-4.163,2.108-5.209c0-.884.781-1.459,1.974-1.459A3.124,3.124,0,0,1,6.631-5.386a1,1,0,0,0,.707-.84,1.261,1.261,0,0,0-.575-.913,4.316,4.316,0,0,0-2.7-.781C2.034-7.92.634-6.771.634-5.15.634-3.22,2.167-2.7,3.64-2.366c1.267.295,2.387.545,2.387,1.621C6.027.2,5.275.743,3.949.743A3.458,3.458,0,0,1,1.076-.716a.965.965,0,0,0-.692.81A1.342,1.342,0,0,0,.87,1.008ZM8.664,4.78c.147,0,.295-.029.295-.059L12.45-6.565a2.4,2.4,0,0,0,.118-.589c0-.6-.5-.678-.81-.678a.564.564,0,0,0-.295.059L7.957,3.513a2.277,2.277,0,0,0-.118.589C7.839,4.692,8.34,4.78,8.664,4.78ZM16.193,1.8h5.3c.5,0,.722-.221.722-.619V1.1c0-.383-.221-.589-.722-.589H16.664A1.993,1.993,0,0,1,16.723.08C16.973-.937,18-1.467,19.257-2.027c1.444-.663,2.8-1.341,2.8-3.05,0-1.768-1.252-2.843-3.33-2.843a4,4,0,0,0-2.564.825,2.138,2.138,0,0,0-.869,1.562c0,.8,1,.781,1,.737a2.258,2.258,0,0,1,2.328-1.827c1.223,0,1.945.589,1.945,1.576,0,1.031-1.12,1.5-2.372,2.122C16.767-2.218,15.25-1.349,15.25.61V.979C15.25,1.583,15.53,1.8,16.193,1.8ZM26.064,2c2.284,0,3.7-1.223,3.7-3.123,0-1.842-1.355-3.006-3.418-3.006a4.738,4.738,0,0,0-1.96.427V-6.432h4.228c.471,0,.707-.206.707-.6V-7.11q0-.619-.707-.619H23.824a.764.764,0,0,0-.781.855V-3.25c0,.589.295.9.928.943A3.54,3.54,0,0,1,26.2-2.955c1.355,0,2.151.692,2.151,1.842S27.463.773,26.064.773A3,3,0,0,1,23.382-.642c-.044-.074-.722.236-.722.751a1.73,1.73,0,0,0,.928,1.252A4.709,4.709,0,0,0,26.064,2ZM30.1,3.262c-.118.442.545.589.737.339L32.06,1.715A1.369,1.369,0,0,0,32.4.831V.758c0-.457-.25-.692-.619-.692h-.133c-.5,0-.619.236-.751.692ZM37.556,2C40.016,2,41.534.257,41.534-2.5v-.958c0-2.755-1.5-4.464-3.978-4.464-2.446,0-3.963,1.724-3.963,4.479v.972C33.592.286,35.08,2,37.556,2Zm0-1.282c-1.532,0-2.431-1.149-2.431-3.153V-3.515c0-2,.884-3.153,2.431-3.153s2.46,1.179,2.46,3.182v1.061C40.016-.421,39.132.714,37.556.714ZM46.616,2C49.077,2,50.594.257,50.594-2.5v-.958c0-2.755-1.5-4.464-3.978-4.464-2.446,0-3.963,1.724-3.963,4.479v.972C42.653.286,44.141,2,46.616,2Zm0-1.282c-1.532,0-2.431-1.149-2.431-3.153V-3.515c0-2,.884-3.153,2.431-3.153s2.46,1.179,2.46,3.182v1.061C49.077-.421,48.193.714,46.616.714ZM55.677,2C58.138,2,59.655.257,59.655-2.5v-.958c0-2.755-1.5-4.464-3.978-4.464-2.446,0-3.963,1.724-3.963,4.479v.972C51.714.286,53.2,2,55.677,2Zm0-1.282c-1.532,0-2.431-1.149-2.431-3.153V-3.515c0-2,.884-3.153,2.431-3.153s2.46,1.179,2.46,3.182v1.061C58.138-.421,57.254.714,55.677.714Z" transform="translate(6294.231 4941.933)" fill="#0855c4"/>
      <path id="Pay_-_Button_Copy_10-3" data-name="Pay - Button Copy 10" d="M3.683,0H75.412A3.683,3.683,0,0,1,79.1,3.683v24.33A3.683,3.683,0,0,1,75.412,31.7H3.683A3.683,3.683,0,0,1,0,28.013V3.683A3.683,3.683,0,0,1,3.683,0Z" transform="translate(6531.102 4922.81)" fill="#fff"/>
      <path id="Pay_-_Button_Copy_10_-_Contorno-3" data-name="Pay - Button Copy 10 - Contorno" d="M3.683,1.392A2.294,2.294,0,0,0,1.392,3.683v24.33A2.294,2.294,0,0,0,3.683,30.3H75.412A2.294,2.294,0,0,0,77.7,28.013V3.683a2.294,2.294,0,0,0-2.291-2.291H3.683M3.683,0H75.412A3.683,3.683,0,0,1,79.1,3.683v24.33A3.683,3.683,0,0,1,75.412,31.7H3.683A3.683,3.683,0,0,1,0,28.013V3.683A3.683,3.683,0,0,1,3.683,0Z" transform="translate(6531.102 4922.81)" fill="#0855c4"/>
      <path id="Trazado_17961" data-name="Trazado 17961" d="M.87,1.008A4.553,4.553,0,0,0,3.964,2C6.189,2,7.544.905,7.544-.848c0-1.842-1.562-2.475-3.182-2.843C3.036-4,2.108-4.163,2.108-5.209c0-.884.781-1.459,1.974-1.459A3.124,3.124,0,0,1,6.631-5.386a1,1,0,0,0,.707-.84,1.261,1.261,0,0,0-.575-.913,4.316,4.316,0,0,0-2.7-.781C2.034-7.92.634-6.771.634-5.15.634-3.22,2.167-2.7,3.64-2.366c1.267.295,2.387.545,2.387,1.621C6.027.2,5.275.743,3.949.743A3.458,3.458,0,0,1,1.076-.716a.965.965,0,0,0-.692.81A1.342,1.342,0,0,0,.87,1.008ZM8.664,4.78c.147,0,.295-.029.295-.059L12.45-6.565a2.4,2.4,0,0,0,.118-.589c0-.6-.5-.678-.81-.678a.564.564,0,0,0-.295.059L7.957,3.513a2.277,2.277,0,0,0-.118.589C7.839,4.692,8.34,4.78,8.664,4.78Zm9.135-2.9h.192c.442,0,.663-.236.663-.692V-7.11c0-.457-.221-.692-.663-.692h-.516a1.215,1.215,0,0,1-1.193,1.12,1.2,1.2,0,0,1-.869-.339.782.782,0,0,0-.427.751.958.958,0,0,0,.324.737,1.352,1.352,0,0,0,.855.28,1.392,1.392,0,0,0,.987-.4V1.185C17.15,1.642,17.371,1.878,17.8,1.878ZM24.458,2C26.918,2,28.436.257,28.436-2.5v-.958c0-2.755-1.5-4.464-3.978-4.464-2.446,0-3.963,1.724-3.963,4.479v.972C20.495.286,21.983,2,24.458,2Zm0-1.282c-1.532,0-2.431-1.149-2.431-3.153V-3.515c0-2,.884-3.153,2.431-3.153s2.46,1.179,2.46,3.182v1.061C26.918-.421,26.034.714,24.458.714ZM33.519,2C35.979,2,37.5.257,37.5-2.5v-.958c0-2.755-1.5-4.464-3.978-4.464-2.446,0-3.963,1.724-3.963,4.479v.972C29.556.286,31.044,2,33.519,2Zm0-1.282c-1.532,0-2.431-1.149-2.431-3.153V-3.515c0-2,.884-3.153,2.431-3.153s2.46,1.179,2.46,3.182v1.061C35.979-.421,35.1.714,33.519.714ZM38.1,3.262c-.118.442.545.589.737.339L40.06,1.715A1.368,1.368,0,0,0,40.4.831V.758c0-.457-.25-.692-.619-.692h-.133c-.5,0-.619.236-.751.692ZM45.556,2C48.016,2,49.534.257,49.534-2.5v-.958c0-2.755-1.5-4.464-3.978-4.464-2.446,0-3.963,1.724-3.963,4.479v.972C41.592.286,43.081,2,45.556,2Zm0-1.282c-1.532,0-2.431-1.149-2.431-3.153V-3.515c0-2,.884-3.153,2.431-3.153s2.46,1.179,2.46,3.182v1.061C48.016-.421,47.132.714,45.556.714ZM54.617,2C57.077,2,58.594.257,58.594-2.5v-.958c0-2.755-1.5-4.464-3.978-4.464-2.446,0-3.963,1.724-3.963,4.479v.972C50.653.286,52.141,2,54.617,2Zm0-1.282c-1.532,0-2.431-1.149-2.431-3.153V-3.515c0-2,.884-3.153,2.431-3.153s2.46,1.179,2.46,3.182v1.061C57.077-.421,56.193.714,54.617.714ZM63.677,2C66.138,2,67.655.257,67.655-2.5v-.958c0-2.755-1.5-4.464-3.978-4.464-2.446,0-3.963,1.724-3.963,4.479v.972C59.714.286,61.2,2,63.677,2Zm0-1.282c-1.532,0-2.431-1.149-2.431-3.153V-3.515c0-2,.884-3.153,2.431-3.153s2.46,1.179,2.46,3.182v1.061C66.138-.421,65.254.714,63.677.714Z" transform="translate(6536.1 4941.933)" fill="#0855c4"/>
      <path id="Pay_-_Button_Copy_10-4" data-name="Pay - Button Copy 10" d="M3.683,0H75.412A3.683,3.683,0,0,1,79.1,3.683v24.33A3.683,3.683,0,0,1,75.412,31.7H3.683A3.683,3.683,0,0,1,0,28.013V3.683A3.683,3.683,0,0,1,3.683,0Z" transform="translate(6366.582 4922.81)" fill="#0855c4"/>
      <path id="Pay_-_Button_Copy_10_-_Contorno-4" data-name="Pay - Button Copy 10 - Contorno" d="M3.683,1.392A2.294,2.294,0,0,0,1.392,3.683v24.33A2.294,2.294,0,0,0,3.683,30.3H75.412A2.294,2.294,0,0,0,77.7,28.013V3.683a2.294,2.294,0,0,0-2.291-2.291H3.683M3.683,0H75.412A3.683,3.683,0,0,1,79.1,3.683v24.33A3.683,3.683,0,0,1,75.412,31.7H3.683A3.683,3.683,0,0,1,0,28.013V3.683A3.683,3.683,0,0,1,3.683,0Z" transform="translate(6366.582 4922.81)" fill="#0855c4"/>
      <path id="Trazado_17962" data-name="Trazado 17962" d="M4,2C6.515,2,7.9.876,7.9-1.025c0-1.8-1.5-2.519-3.227-2.9C3.494-4.193,2.64-4.266,2.64-5.091c0-.692.6-1.134,1.65-1.134A3.425,3.425,0,0,1,6.824-5.047a1.422,1.422,0,0,0,.869-1.134c0-.81-1.12-1.739-3.433-1.739C1.977-7.92.548-6.741.548-4.973c0,1.945,1.562,2.534,3.094,2.873,1.12.25,2.077.383,2.077,1.238C5.719-.126,5.115.3,3.981.3A3.859,3.859,0,0,1,1.137-1.01,1.36,1.36,0,0,0,.312.08C.312.949,1.461,2,4,2ZM9.049,4.883a.96.96,0,0,0,.442-.074L13.027-6.432a2.576,2.576,0,0,0,.118-.619c0-.707-.634-.825-1.061-.825a.861.861,0,0,0-.442.074L8.091,3.439a2.346,2.346,0,0,0-.118.619C7.973,4.765,8.607,4.883,9.049,4.883ZM17.7-3.854V-5.96h3.845c.692,0,1.017-.265,1.017-.84v-.074c0-.575-.339-.855-1.017-.855H16.916c-.707,0-1.046.442-1.046,1.208v3.153c0,.869.442,1.238,1.282,1.267a3.112,3.112,0,0,1,1.974-.589c1.223,0,1.9.56,1.9,1.532,0,.943-.751,1.547-1.989,1.547A3.172,3.172,0,0,1,16.415-.892,1.212,1.212,0,0,0,15.531.139C15.531,1.008,16.843,2,19.082,2c2.4,0,3.875-1.223,3.875-3.153,0-1.871-1.4-3.02-3.521-3.02A4.627,4.627,0,0,0,17.7-3.854ZM27.76,2C30.368,2,31.944.257,31.944-2.5v-.943c0-2.755-1.576-4.479-4.169-4.479S23.59-6.181,23.59-3.426v.943C23.59.286,25.152,2,27.76,2ZM27.774.227c-1.282,0-1.989-.913-1.989-2.593V-3.588c0-1.694.692-2.593,1.974-2.593s2,.928,2,2.608v1.223C29.763-.671,29.056.227,27.774.227Zm5.658,3.2L34.6,1.8A1.628,1.628,0,0,0,35.067.7V.61c0-.619-.309-.9-.825-.9h-.221c-.678,0-.84.295-.987.9l-.663,2.343C32.239,3.557,33.078,3.808,33.432,3.424ZM40.165,2C42.773,2,44.349.257,44.349-2.5v-.943c0-2.755-1.576-4.479-4.169-4.479S36-6.181,36-3.426v.943C36,.286,37.557,2,40.165,2ZM40.18.227c-1.282,0-1.989-.913-1.989-2.593V-3.588c0-1.694.692-2.593,1.974-2.593s2,.928,2,2.608v1.223C42.169-.671,41.462.227,40.18.227ZM49.344,2C51.952,2,53.528.257,53.528-2.5v-.943c0-2.755-1.576-4.479-4.169-4.479s-4.184,1.739-4.184,4.494v.943C45.174.286,46.736,2,49.344,2ZM49.358.227c-1.282,0-1.989-.913-1.989-2.593V-3.588c0-1.694.692-2.593,1.974-2.593s2,.928,2,2.608v1.223C51.347-.671,50.64.227,49.358.227ZM58.522,2C61.13,2,62.707.257,62.707-2.5v-.943c0-2.755-1.576-4.479-4.169-4.479s-4.184,1.739-4.184,4.494v.943C54.353.286,55.915,2,58.522,2ZM58.537.227c-1.282,0-1.989-.913-1.989-2.593V-3.588c0-1.694.692-2.593,1.974-2.593s2,.928,2,2.608v1.223C60.526-.671,59.819.227,58.537.227Z" transform="translate(6374.02 4941.961)" fill="#fff"/>
      <path id="Trazado_17952" data-name="Trazado 17952" d="M37.757,33.278,1.793.281A1.07,1.07,0,0,0,0,1.069V48.99a1.07,1.07,0,0,0,1.845.737l10.511-11.07,7.877,15.949a1.071,1.071,0,0,0,.96.6,1.051,1.051,0,0,0,.425-.089l7.78-3.377a1.068,1.068,0,0,0,.523-1.473L22.076,35.136H37.034a1.069,1.069,0,0,0,.723-1.858" transform="translate(6412.374 4950.109)" fill="#fff"/>
      <path id="Trazado_17952_-_Contorno" data-name="Trazado 17952 - Contorno" d="M21.306,55.93a1.675,1.675,0,0,1-1.511-.939l-7.487-15.16L2.4,50.263A1.684,1.684,0,0,1-.5,49.1V1.183A1.684,1.684,0,0,1,2.322-.058l35.964,33a1.675,1.675,0,0,1,.431,1.851,1.693,1.693,0,0,1-1.569,1.073H23.2l7.38,14.231a1.682,1.682,0,0,1-.822,2.318l-7.782,3.378A1.658,1.658,0,0,1,21.306,55.93ZM12.63,37.71,20.9,54.448a.455.455,0,0,0,.41.255.435.435,0,0,0,.178-.037l7.782-3.378a.462.462,0,0,0,.248-.266.452.452,0,0,0-.025-.36L21.18,34.636H37.148a.456.456,0,0,0,.308-.791L1.492.848A.463.463,0,0,0,1,.766a.457.457,0,0,0-.273.418V49.1a.453.453,0,0,0,.287.423.466.466,0,0,0,.5-.109Z" transform="translate(6412.259 4949.995)" fill="#cbcbcb"/>
    </g>
  </g>
</svg>
