<svg xmlns="http://www.w3.org/2000/svg" xmlns:xlink="http://www.w3.org/1999/xlink" width="281" height="94.289" viewBox="0 0 281 94.289">
  <defs>
    <filter id="Trazado_17952" x="105.797" y="36.309" width="44.054" height="57.98" filterUnits="userSpaceOnUse">
      <feOffset dy="3" input="SourceAlpha"/>
      <feGaussianBlur stdDeviation="2" result="blur"/>
      <feFlood flood-color="#30417c" flood-opacity="0.161"/>
      <feComposite operator="in" in2="blur"/>
      <feComposite in="SourceGraphic"/>
    </filter>
  </defs>
  <g id="Grupo_20946" data-name="Grupo 20946" transform="translate(-55 -408.211)">
    <path id="Trazado_18045" data-name="Trazado 18045" d="M0,0H281V61H0Z" transform="translate(55 408.211)" fill="#e2f7ff"/>
    <g id="Grupo_20941" data-name="Grupo 20941" transform="translate(-8530 -5088.197)">
      <g id="Grupo_20941-2" data-name="Grupo 20941" transform="translate(2 17.016)">
        <g id="Pay_-_Button_Copy_10" data-name="Pay - Button Copy 10" transform="translate(8725 5496.984)" fill="#fff" stroke="#0855c4" stroke-width="1.134">
          <rect width="64.423" height="25.816" rx="3" stroke="none"/>
          <rect x="0.567" y="0.567" width="63.289" height="24.682" rx="2.433" fill="none"/>
        </g>
        <path id="Trazado_18048" data-name="Trazado 18048" d="M.78-.648a3.709,3.709,0,0,0,2.52.8c1.812,0,2.916-.888,2.916-2.316,0-1.5-1.272-2.016-2.592-2.316-1.08-.252-1.836-.384-1.836-1.236,0-.72.636-1.188,1.608-1.188A2.545,2.545,0,0,1,5.472-5.856a.815.815,0,0,0,.576-.684,1.027,1.027,0,0,0-.468-.744,3.515,3.515,0,0,0-2.2-.636c-1.656,0-2.8.936-2.8,2.256,0,1.572,1.248,1.992,2.448,2.268,1.032.24,1.944.444,1.944,1.32,0,.768-.612,1.212-1.692,1.212A2.816,2.816,0,0,1,.948-2.052a.786.786,0,0,0-.564.66A1.093,1.093,0,0,0,.78-.648ZM7.128,2.424c.12,0,.24-.024.24-.048l2.844-9.192a1.952,1.952,0,0,0,.1-.48c0-.492-.408-.552-.66-.552a.459.459,0,0,0-.24.048L6.552,1.392a1.855,1.855,0,0,0-.1.48C6.456,2.352,6.864,2.424,7.128,2.424ZM14.028.06a.692.692,0,0,0,.636-.432L17.8-6.18a2.171,2.171,0,0,0,.36-.9v-.1c0-.312-.12-.588-.768-.588H12.852c-.36,0-.552.18-.552.516v.084c0,.336.192.5.552.5h3.936L13.344-.408C13.284-.324,13.62.06,14.028.06Zm7.212.1c1.86,0,3.012-1,3.012-2.544,0-1.5-1.1-2.448-2.784-2.448a3.859,3.859,0,0,0-1.6.348v-2.22h3.444c.384,0,.576-.168.576-.492v-.06q0-.5-.576-.5h-3.9a.622.622,0,0,0-.636.7v2.952c0,.48.24.732.756.768a2.883,2.883,0,0,1,1.812-.528c1.1,0,1.752.564,1.752,1.5S22.38-.84,21.24-.84a2.447,2.447,0,0,1-2.184-1.152c-.036-.06-.588.192-.588.612a1.409,1.409,0,0,0,.756,1.02A3.835,3.835,0,0,0,21.24.156Zm3.288,1.032c-.1.36.444.48.6.276l1-1.536a1.115,1.115,0,0,0,.276-.72v-.06c0-.372-.2-.564-.5-.564h-.108c-.408,0-.5.192-.612.564ZM30.6.156c2,0,3.24-1.416,3.24-3.66v-.78c0-2.244-1.224-3.636-3.24-3.636-1.992,0-3.228,1.4-3.228,3.648v.792C27.372-1.236,28.584.156,30.6.156Zm0-1.044c-1.248,0-1.98-.936-1.98-2.568v-.876c0-1.632.72-2.568,1.98-2.568s2,.96,2,2.592v.864C32.6-1.812,31.884-.888,30.6-.888ZM37.98.156c2,0,3.24-1.416,3.24-3.66v-.78C41.22-6.528,40-7.92,37.98-7.92c-1.992,0-3.228,1.4-3.228,3.648v.792C34.752-1.236,35.964.156,37.98.156Zm0-1.044C36.732-.888,36-1.824,36-3.456v-.876c0-1.632.72-2.568,1.98-2.568s2,.96,2,2.592v.864C39.984-1.812,39.264-.888,37.98-.888ZM45.36.156c2,0,3.24-1.416,3.24-3.66v-.78c0-2.244-1.224-3.636-3.24-3.636-1.992,0-3.228,1.4-3.228,3.648v.792C42.132-1.236,43.344.156,45.36.156Zm0-1.044c-1.248,0-1.98-.936-1.98-2.568v-.876c0-1.632.72-2.568,1.98-2.568s2,.96,2,2.592v.864C47.364-1.812,46.644-.888,45.36-.888Z" transform="translate(8733 5514.03)" fill="#0855c4"/>
      </g>
      <g id="Grupo_20944" data-name="Grupo 20944" transform="translate(3 17.016)">
        <g id="Pay_-_Button_Copy_10-2" data-name="Pay - Button Copy 10" transform="translate(8590 5496.984)" fill="#fff" stroke="#0855c4" stroke-width="1.134">
          <rect width="64.423" height="25.816" rx="3" stroke="none"/>
          <rect x="0.567" y="0.567" width="63.289" height="24.682" rx="2.433" fill="none"/>
        </g>
        <path id="Trazado_18046" data-name="Trazado 18046" d="M.78-.648a3.709,3.709,0,0,0,2.52.8c1.812,0,2.916-.888,2.916-2.316,0-1.5-1.272-2.016-2.592-2.316-1.08-.252-1.836-.384-1.836-1.236,0-.72.636-1.188,1.608-1.188A2.545,2.545,0,0,1,5.472-5.856a.815.815,0,0,0,.576-.684,1.027,1.027,0,0,0-.468-.744,3.515,3.515,0,0,0-2.2-.636c-1.656,0-2.8.936-2.8,2.256,0,1.572,1.248,1.992,2.448,2.268,1.032.24,1.944.444,1.944,1.32,0,.768-.612,1.212-1.692,1.212A2.816,2.816,0,0,1,.948-2.052a.786.786,0,0,0-.564.66A1.093,1.093,0,0,0,.78-.648ZM7.128,2.424c.12,0,.24-.024.24-.048l2.844-9.192a1.952,1.952,0,0,0,.1-.48c0-.492-.408-.552-.66-.552a.459.459,0,0,0-.24.048L6.552,1.392a1.855,1.855,0,0,0-.1.48C6.456,2.352,6.864,2.424,7.128,2.424ZM13.26,0h4.32c.408,0,.588-.18.588-.5V-.576c0-.312-.18-.48-.588-.48H13.644a1.623,1.623,0,0,1,.048-.348c.2-.828,1.044-1.26,2.064-1.716,1.176-.54,2.28-1.092,2.28-2.484,0-1.44-1.02-2.316-2.712-2.316a3.259,3.259,0,0,0-2.088.672,1.741,1.741,0,0,0-.708,1.272c0,.648.816.636.816.6a1.839,1.839,0,0,1,1.9-1.488c1,0,1.584.48,1.584,1.284,0,.84-.912,1.224-1.932,1.728-1.164.576-2.4,1.284-2.4,2.88v.3C12.492-.18,12.72,0,13.26,0ZM21.3.156c1.86,0,3.012-1,3.012-2.544,0-1.5-1.1-2.448-2.784-2.448a3.859,3.859,0,0,0-1.6.348v-2.22h3.444c.384,0,.576-.168.576-.492v-.06q0-.5-.576-.5h-3.9a.622.622,0,0,0-.636.7v2.952c0,.48.24.732.756.768a2.883,2.883,0,0,1,1.812-.528c1.1,0,1.752.564,1.752,1.5S22.44-.84,21.3-.84a2.447,2.447,0,0,1-2.184-1.152c-.036-.06-.588.192-.588.612a1.409,1.409,0,0,0,.756,1.02A3.835,3.835,0,0,0,21.3.156Zm3.288,1.032c-.1.36.444.48.6.276l1-1.536a1.115,1.115,0,0,0,.276-.72v-.06c0-.372-.2-.564-.5-.564h-.108c-.408,0-.5.192-.612.564ZM30.66.156c2,0,3.24-1.416,3.24-3.66v-.78c0-2.244-1.224-3.636-3.24-3.636-1.992,0-3.228,1.4-3.228,3.648v.792C27.432-1.236,28.644.156,30.66.156Zm0-1.044c-1.248,0-1.98-.936-1.98-2.568v-.876c0-1.632.72-2.568,1.98-2.568s2,.96,2,2.592v.864C32.664-1.812,31.944-.888,30.66-.888ZM38.04.156c2,0,3.24-1.416,3.24-3.66v-.78c0-2.244-1.224-3.636-3.24-3.636-1.992,0-3.228,1.4-3.228,3.648v.792C34.812-1.236,36.024.156,38.04.156Zm0-1.044c-1.248,0-1.98-.936-1.98-2.568v-.876c0-1.632.72-2.568,1.98-2.568s2,.96,2,2.592v.864C40.044-1.812,39.324-.888,38.04-.888ZM45.42.156c2,0,3.24-1.416,3.24-3.66v-.78c0-2.244-1.224-3.636-3.24-3.636-1.992,0-3.228,1.4-3.228,3.648v.792C42.192-1.236,43.4.156,45.42.156Zm0-1.044c-1.248,0-1.98-.936-1.98-2.568v-.876c0-1.632.72-2.568,1.98-2.568s2,.96,2,2.592v.864C47.424-1.812,46.7-.888,45.42-.888Z" transform="translate(8598 5514.03)" fill="#0855c4"/>
      </g>
      <g id="Grupo_20943" data-name="Grupo 20943" transform="translate(204 -80.984)">
        <g id="Pay_-_Button_Copy_10-3" data-name="Pay - Button Copy 10" transform="translate(8590 5594.984)" fill="#fff" stroke="#0855c4" stroke-width="1.134">
          <rect width="64.423" height="25.816" rx="3" stroke="none"/>
          <rect x="0.567" y="0.567" width="63.289" height="24.682" rx="2.433" fill="none"/>
        </g>
        <path id="Trazado_18049" data-name="Trazado 18049" d="M.78-.648a3.709,3.709,0,0,0,2.52.8c1.812,0,2.916-.888,2.916-2.316,0-1.5-1.272-2.016-2.592-2.316-1.08-.252-1.836-.384-1.836-1.236,0-.72.636-1.188,1.608-1.188A2.545,2.545,0,0,1,5.472-5.856a.815.815,0,0,0,.576-.684,1.027,1.027,0,0,0-.468-.744,3.515,3.515,0,0,0-2.2-.636c-1.656,0-2.8.936-2.8,2.256,0,1.572,1.248,1.992,2.448,2.268,1.032.24,1.944.444,1.944,1.32,0,.768-.612,1.212-1.692,1.212A2.816,2.816,0,0,1,.948-2.052a.786.786,0,0,0-.564.66A1.093,1.093,0,0,0,.78-.648ZM7.128,2.424c.12,0,.24-.024.24-.048l2.844-9.192a1.952,1.952,0,0,0,.1-.48c0-.492-.408-.552-.66-.552a.459.459,0,0,0-.24.048L6.552,1.392a1.855,1.855,0,0,0-.1.48C6.456,2.352,6.864,2.424,7.128,2.424ZM14.568.06h.156c.36,0,.54-.192.54-.564V-7.26c0-.372-.18-.564-.54-.564H14.3a.989.989,0,0,1-.972.912.976.976,0,0,1-.708-.276.637.637,0,0,0-.348.612.78.78,0,0,0,.264.6,1.1,1.1,0,0,0,.7.228,1.134,1.134,0,0,0,.8-.324V-.5C14.04-.132,14.22.06,14.568.06Zm5.424.1c2,0,3.24-1.416,3.24-3.66v-.78c0-2.244-1.224-3.636-3.24-3.636-1.992,0-3.228,1.4-3.228,3.648v.792C16.764-1.236,17.976.156,19.992.156Zm0-1.044c-1.248,0-1.98-.936-1.98-2.568v-.876c0-1.632.72-2.568,1.98-2.568s2,.96,2,2.592v.864C22-1.812,21.276-.888,19.992-.888ZM27.372.156c2,0,3.24-1.416,3.24-3.66v-.78c0-2.244-1.224-3.636-3.24-3.636-1.992,0-3.228,1.4-3.228,3.648v.792C24.144-1.236,25.356.156,27.372.156Zm0-1.044c-1.248,0-1.98-.936-1.98-2.568v-.876c0-1.632.72-2.568,1.98-2.568s2,.96,2,2.592v.864C29.376-1.812,28.656-.888,27.372-.888ZM31.1,1.188c-.1.36.444.48.6.276l1-1.536a1.115,1.115,0,0,0,.276-.72v-.06c0-.372-.2-.564-.5-.564h-.108c-.408,0-.5.192-.612.564ZM37.176.156c2,0,3.24-1.416,3.24-3.66v-.78c0-2.244-1.224-3.636-3.24-3.636-1.992,0-3.228,1.4-3.228,3.648v.792C33.948-1.236,35.16.156,37.176.156Zm0-1.044c-1.248,0-1.98-.936-1.98-2.568v-.876c0-1.632.72-2.568,1.98-2.568s2,.96,2,2.592v.864C39.18-1.812,38.46-.888,37.176-.888ZM44.556.156c2,0,3.24-1.416,3.24-3.66v-.78c0-2.244-1.224-3.636-3.24-3.636-1.992,0-3.228,1.4-3.228,3.648v.792C41.328-1.236,42.54.156,44.556.156Zm0-1.044c-1.248,0-1.98-.936-1.98-2.568v-.876c0-1.632.72-2.568,1.98-2.568s2,.96,2,2.592v.864C46.56-1.812,45.84-.888,44.556-.888ZM51.936.156c2,0,3.24-1.416,3.24-3.66v-.78c0-2.244-1.224-3.636-3.24-3.636-1.992,0-3.228,1.4-3.228,3.648v.792C48.708-1.236,49.92.156,51.936.156Zm0-1.044c-1.248,0-1.98-.936-1.98-2.568v-.876c0-1.632.72-2.568,1.98-2.568s2,.96,2,2.592v.864C53.94-1.812,53.22-.888,51.936-.888Z" transform="translate(8594 5612.03)" fill="#0855c4"/>
      </g>
      <g id="Grupo_20942" data-name="Grupo 20942" transform="translate(3 17.016)">
        <g id="Pay_-_Button_Copy_10-4" data-name="Pay - Button Copy 10" transform="translate(8657 5496.984)" fill="#0855c4" stroke="#0855c4" stroke-width="1.134">
          <rect width="64.423" height="25.816" rx="3" stroke="none"/>
          <rect x="0.567" y="0.567" width="63.289" height="24.682" rx="2.433" fill="none"/>
        </g>
        <path id="Trazado_18047" data-name="Trazado 18047" d="M3.312.156c2.052,0,3.18-.912,3.18-2.46,0-1.464-1.224-2.052-2.628-2.364-.96-.216-1.656-.276-1.656-.948,0-.564.492-.924,1.344-.924a2.79,2.79,0,0,1,2.064.96A1.158,1.158,0,0,0,6.324-6.5c0-.66-.912-1.416-2.8-1.416C1.668-7.92.5-6.96.5-5.52c0,1.584,1.272,2.064,2.52,2.34.912.2,1.692.312,1.692,1.008,0,.6-.492.948-1.416.948A3.143,3.143,0,0,1,.984-2.292,1.108,1.108,0,0,0,.312-1.4C.312-.7,1.248.156,3.312.156ZM7.428,2.508a.782.782,0,0,0,.36-.06l2.88-9.156a2.1,2.1,0,0,0,.1-.5c0-.576-.516-.672-.864-.672a.7.7,0,0,0-.36.06L6.648,1.332a1.911,1.911,0,0,0-.1.5C6.552,2.412,7.068,2.508,7.428,2.508Zm7.044-7.116V-6.324H17.6c.564,0,.828-.216.828-.684v-.06c0-.468-.276-.7-.828-.7H13.836c-.576,0-.852.36-.852.984v2.568c0,.708.36,1.008,1.044,1.032a2.535,2.535,0,0,1,1.608-.48c1,0,1.548.456,1.548,1.248,0,.768-.612,1.26-1.62,1.26A2.584,2.584,0,0,1,13.428-2.2a.987.987,0,0,0-.72.84c0,.708,1.068,1.512,2.892,1.512,1.956,0,3.156-1,3.156-2.568,0-1.524-1.14-2.46-2.868-2.46A3.768,3.768,0,0,0,14.472-4.608Zm8.2,4.764c2.124,0,3.408-1.416,3.408-3.66v-.768c0-2.244-1.284-3.648-3.4-3.648S19.272-6.5,19.272-4.26v.768C19.272-1.236,20.544.156,22.668.156Zm.012-1.44c-1.044,0-1.62-.744-1.62-2.112v-1c0-1.38.564-2.112,1.608-2.112S24.3-5.748,24.3-4.38v1C24.3-2.016,23.724-1.284,22.68-1.284Zm4.608,2.6L28.236,0a1.326,1.326,0,0,0,.384-.9V-.972c0-.5-.252-.732-.672-.732h-.18c-.552,0-.684.24-.8.732L26.424.936C26.316,1.428,27,1.632,27.288,1.32ZM32.772.156C34.9.156,36.18-1.26,36.18-3.5v-.768c0-2.244-1.284-3.648-3.4-3.648S29.376-6.5,29.376-4.26v.768C29.376-1.236,30.648.156,32.772.156Zm.012-1.44c-1.044,0-1.62-.744-1.62-2.112v-1c0-1.38.564-2.112,1.608-2.112S34.4-5.748,34.4-4.38v1C34.4-2.016,33.828-1.284,32.784-1.284ZM40.248.156c2.124,0,3.408-1.416,3.408-3.66v-.768c0-2.244-1.284-3.648-3.4-3.648S36.852-6.5,36.852-4.26v.768C36.852-1.236,38.124.156,40.248.156Zm.012-1.44c-1.044,0-1.62-.744-1.62-2.112v-1c0-1.38.564-2.112,1.608-2.112s1.632.756,1.632,2.124v1C41.88-2.016,41.3-1.284,40.26-1.284ZM47.724.156c2.124,0,3.408-1.416,3.408-3.66v-.768c0-2.244-1.284-3.648-3.4-3.648S44.328-6.5,44.328-4.26v.768C44.328-1.236,45.6.156,47.724.156Zm.012-1.44c-1.044,0-1.62-.744-1.62-2.112v-1c0-1.38.564-2.112,1.608-2.112s1.632.756,1.632,2.124v1C49.356-2.016,48.78-1.284,47.736-1.284Z" transform="translate(8663 5514.052)" fill="#fff"/>
      </g>
    </g>
    <g transform="matrix(1, 0, 0, 1, 55, 408.21)" filter="url(#Trazado_17952)">
      <path id="Trazado_17952-2" data-name="Trazado 17952" d="M30.753,27.1,1.461.229A.871.871,0,0,0,0,.871V39.9a.871.871,0,0,0,1.5.6l8.561-9.016,6.415,12.99a.872.872,0,0,0,.782.486.856.856,0,0,0,.346-.072l6.337-2.751a.87.87,0,0,0,.426-1.2L17.981,28.618H30.164a.871.871,0,0,0,.589-1.513" transform="translate(112.3 39.83)" fill="#fff" stroke="#cbcbcb" stroke-width="1"/>
    </g>
  </g>
</svg>
