<svg xmlns="http://www.w3.org/2000/svg" width="344.178" height="102.863" viewBox="0 0 344.178 102.863">
  <g id="Grupo_21002" data-name="Grupo 21002" transform="translate(-4139 -4058)">
    <path id="Trazado_17994" data-name="Trazado 17994" d="M0,0H344.178V74.715H0Z" transform="translate(4139 4058)" fill="#e2f7ff"/>
    <path id="Pay_-_Button_Copy_10" data-name="Pay - Button Copy 10" d="M3.675,0H75.233a3.675,3.675,0,0,1,3.674,3.675V27.946a3.675,3.675,0,0,1-3.674,3.675H3.675A3.675,3.675,0,0,1,0,27.946V3.675A3.675,3.675,0,0,1,3.675,0Z" transform="translate(4312.926 4079.547)" fill="#0855c4"/>
    <path id="Pay_-_Button_Copy_10-2" data-name="Pay - Button Copy 10" d="M3.675,0H75.233a3.675,3.675,0,0,1,3.674,3.675V27.946a3.675,3.675,0,0,1-3.674,3.675H3.675A3.675,3.675,0,0,1,0,27.946V3.675A3.675,3.675,0,0,1,3.675,0Z" transform="translate(4232.182 4079.547)" fill="#fff"/>
    <path id="Pay_-_Button_Copy_10_-_Contorno" data-name="Pay - Button Copy 10 - Contorno" d="M3.675,1.389A2.288,2.288,0,0,0,1.389,3.675V27.946a2.288,2.288,0,0,0,2.286,2.286H75.233a2.288,2.288,0,0,0,2.286-2.286V3.675a2.288,2.288,0,0,0-2.286-2.286H3.675M3.675,0H75.233a3.675,3.675,0,0,1,3.675,3.675V27.946a3.675,3.675,0,0,1-3.675,3.675H3.675A3.675,3.675,0,0,1,0,27.946V3.675A3.675,3.675,0,0,1,3.675,0Z" transform="translate(4232.182 4079.547)" fill="#0855c4"/>
    <path id="Trazado_17995" data-name="Trazado 17995" d="M.9,1.122a4.781,4.781,0,0,0,3.072.867c2.5,0,3.895-1.1,3.895-3,0-1.793-1.5-2.5-3.219-2.881C3.472-4.155,2.62-4.272,2.62-5.1c0-.691.617-1.117,1.646-1.117A3.4,3.4,0,0,1,6.794-5.051a1.411,1.411,0,0,0,.852-1.132,1.305,1.305,0,0,0-.661-1.044,4.667,4.667,0,0,0-2.734-.706c-2.293,0-3.7,1.161-3.7,2.925,0,1.955,1.558,2.513,3.072,2.851,1.117.25,2.072.426,2.072,1.279,0,.735-.6,1.146-1.734,1.146A3.875,3.875,0,0,1,1.135-1.009C1.062-1.083.312-.539.312.064A1.363,1.363,0,0,0,.9,1.122ZM9.013,4.855a.958.958,0,0,0,.441-.073L12.967-6.433a2.57,2.57,0,0,0,.118-.617c0-.72-.632-.823-1.058-.823a.858.858,0,0,0-.441.073L8.058,3.415a2.45,2.45,0,0,0-.118.617C7.94,4.723,8.572,4.855,9.013,4.855ZM17.8,1.886a1.244,1.244,0,0,0,1.1-.764L22.2-4.89a3.78,3.78,0,0,0,.661-1.617v-.147c0-.559-.191-1.073-1.411-1.073H16.362c-.632,0-.955.25-.955.838v.132c0,.6.323.852.955.852h4.16L16.6,1.107C16.509,1.254,17.1,1.886,17.8,1.886Zm8.878.1c2.381,0,3.866-1.235,3.866-3.16,0-1.867-1.4-3.013-3.513-3.013a4.616,4.616,0,0,0-1.734.353V-5.962h3.836c.691,0,1.014-.265,1.014-.838v-.073c0-.573-.338-.852-1.014-.852h-4.6c-.72,0-1.044.441-1.044,1.205v3.145c0,.867.426,1.235,1.279,1.264A3.058,3.058,0,0,1,26.724-2.7c1.22,0,1.9.559,1.9,1.514S27.871.372,26.651.372A3.165,3.165,0,0,1,24.035-.906a1.2,1.2,0,0,0-.9,1.014,1.64,1.64,0,0,0,.941,1.264A5.106,5.106,0,0,0,26.68,1.989Zm4.1.941c-.132.6.706.852,1.044.47L33,1.783a1.624,1.624,0,0,0,.47-1.1V.593c0-.617-.309-.911-.838-.911h-.206c-.676,0-.838.309-.985.911Zm7.761-.941c2.587,0,4.145-1.749,4.145-4.512v-.926c0-2.749-1.558-4.483-4.145-4.483s-4.16,1.749-4.16,4.5v.941C34.382.255,35.94,1.989,38.542,1.989Zm0-1.778c-1.279,0-1.97-.911-1.97-2.572V-3.611c0-1.676.676-2.572,1.97-2.572,1.264,0,1.984.926,1.984,2.6v1.22C40.526-.686,39.835.211,38.542.211Zm9.142,1.778c2.587,0,4.145-1.749,4.145-4.512v-.926c0-2.749-1.558-4.483-4.145-4.483s-4.16,1.749-4.16,4.5v.941C43.524.255,45.082,1.989,47.684,1.989Zm0-1.778c-1.279,0-1.97-.911-1.97-2.572V-3.611c0-1.676.676-2.572,1.97-2.572,1.264,0,1.984.926,1.984,2.6v1.22C49.668-.686,48.977.211,47.684.211Zm9.142,1.778c2.587,0,4.145-1.749,4.145-4.512v-.926c0-2.749-1.558-4.483-4.145-4.483s-4.16,1.749-4.16,4.5v.941C52.666.255,54.224,1.989,56.826,1.989Zm0-1.778c-1.279,0-1.97-.911-1.97-2.572V-3.611c0-1.676.676-2.572,1.97-2.572,1.264,0,1.984.926,1.984,2.6v1.22C58.81-.686,58.119.211,56.826.211Z" transform="translate(4322.795 4098.642)" fill="#fff"/>
    <path id="Pay_-_Button_Copy_10-3" data-name="Pay - Button Copy 10" d="M3.675,0H75.233a3.675,3.675,0,0,1,3.674,3.675V27.946a3.675,3.675,0,0,1-3.674,3.675H3.675A3.675,3.675,0,0,1,0,27.946V3.675A3.675,3.675,0,0,1,3.675,0Z" transform="translate(4148.798 4079.547)" fill="#fff"/>
    <path id="Pay_-_Button_Copy_10_-_Contorno-2" data-name="Pay - Button Copy 10 - Contorno" d="M3.675,1.389A2.288,2.288,0,0,0,1.389,3.675V27.946a2.288,2.288,0,0,0,2.286,2.286H75.233a2.288,2.288,0,0,0,2.286-2.286V3.675a2.288,2.288,0,0,0-2.286-2.286H3.675M3.675,0H75.233a3.675,3.675,0,0,1,3.675,3.675V27.946a3.675,3.675,0,0,1-3.675,3.675H3.675A3.675,3.675,0,0,1,0,27.946V3.675A3.675,3.675,0,0,1,3.675,0Z" transform="translate(4148.798 4079.547)" fill="#0855c4"/>
    <path id="Trazado_17996" data-name="Trazado 17996" d="M.869.987a4.542,4.542,0,0,0,3.087.985c2.219,0,3.572-1.088,3.572-2.837C7.527-2.7,5.969-3.334,4.352-3.7,3.03-4.01,2.1-4.172,2.1-5.216c0-.882.779-1.455,1.97-1.455A3.117,3.117,0,0,1,6.616-5.392a1,1,0,0,0,.706-.838,1.258,1.258,0,0,0-.573-.911,4.305,4.305,0,0,0-2.69-.779C2.03-7.92.634-6.774.634-5.157c0,1.925,1.529,2.44,3,2.778,1.264.294,2.381.544,2.381,1.617,0,.941-.75,1.484-2.072,1.484A3.45,3.45,0,0,1,1.075-.733.963.963,0,0,0,.384.076,1.339,1.339,0,0,0,.869.987ZM8.644,4.75c.147,0,.294-.029.294-.059L12.422-6.568a2.391,2.391,0,0,0,.118-.588c0-.6-.5-.676-.808-.676a.563.563,0,0,0-.294.059L7.939,3.486a2.272,2.272,0,0,0-.118.588C7.821,4.661,8.321,4.75,8.644,4.75Zm7.511-2.969h5.291c.5,0,.72-.22.72-.617V1.075c0-.382-.22-.588-.72-.588H16.625a1.988,1.988,0,0,1,.059-.426c.25-1.014,1.279-1.543,2.528-2.1C20.653-2.7,22-3.378,22-5.083c0-1.764-1.249-2.837-3.322-2.837a3.992,3.992,0,0,0-2.557.823,2.133,2.133,0,0,0-.867,1.558c0,.794,1,.779,1,.735A2.253,2.253,0,0,1,18.58-6.627c1.22,0,1.94.588,1.94,1.573,0,1.029-1.117,1.5-2.366,2.117-1.426.706-2.94,1.573-2.94,3.528V.958C15.214,1.56,15.494,1.781,16.155,1.781ZM26,1.972c2.278,0,3.689-1.22,3.689-3.116,0-1.837-1.352-3-3.41-3a4.727,4.727,0,0,0-1.955.426V-6.436h4.218c.47,0,.706-.206.706-.6v-.073q0-.617-.706-.617H23.769a.762.762,0,0,0-.779.852v3.616c0,.588.294.9.926.941a3.531,3.531,0,0,1,2.219-.647c1.352,0,2.146.691,2.146,1.837S27.4.752,26,.752A3,3,0,0,1,23.328-.659c-.044-.073-.72.235-.72.75a1.726,1.726,0,0,0,.926,1.249A4.7,4.7,0,0,0,26,1.972ZM30.03,3.236c-.118.441.544.588.735.338l1.22-1.881a1.365,1.365,0,0,0,.338-.882V.737c0-.456-.25-.691-.617-.691h-.132c-.5,0-.617.235-.75.691Zm7.437-1.264c2.455,0,3.968-1.734,3.968-4.483v-.955c0-2.749-1.5-4.453-3.968-4.453-2.44,0-3.954,1.72-3.954,4.468v.97C33.513.267,35,1.972,37.467,1.972Zm0-1.279c-1.529,0-2.425-1.146-2.425-3.145V-3.525c0-2,.882-3.145,2.425-3.145S39.922-5.495,39.922-3.5v1.058C39.922-.439,39.04.693,37.467.693Zm9.039,1.279c2.455,0,3.968-1.734,3.968-4.483v-.955c0-2.749-1.5-4.453-3.968-4.453-2.44,0-3.954,1.72-3.954,4.468v.97C42.553.267,44.037,1.972,46.506,1.972Zm0-1.279c-1.529,0-2.425-1.146-2.425-3.145V-3.525c0-2,.882-3.145,2.425-3.145S48.961-5.495,48.961-3.5v1.058C48.961-.439,48.079.693,46.506.693Zm9.039,1.279c2.455,0,3.968-1.734,3.968-4.483v-.955c0-2.749-1.5-4.453-3.968-4.453-2.44,0-3.954,1.72-3.954,4.468v.97C51.592.267,53.076,1.972,55.546,1.972Zm0-1.279c-1.529,0-2.425-1.146-2.425-3.145V-3.525c0-2,.882-3.145,2.425-3.145S58-5.495,58-3.5v1.058C58-.439,57.118.693,55.546.693Z" transform="translate(4158.684 4098.644)" fill="#0855c4"/>
    <path id="Pay_-_Button_Copy_10-4" data-name="Pay - Button Copy 10" d="M3.675,0H75.233a3.675,3.675,0,0,1,3.674,3.675V27.946a3.675,3.675,0,0,1-3.674,3.675H3.675A3.675,3.675,0,0,1,0,27.946V3.675A3.675,3.675,0,0,1,3.675,0Z" transform="translate(4394.99 4079.547)" fill="#fff"/>
    <path id="Pay_-_Button_Copy_10_-_Contorno-3" data-name="Pay - Button Copy 10 - Contorno" d="M3.675,1.389A2.288,2.288,0,0,0,1.389,3.675V27.946a2.288,2.288,0,0,0,2.286,2.286H75.233a2.288,2.288,0,0,0,2.286-2.286V3.675a2.288,2.288,0,0,0-2.286-2.286H3.675M3.675,0H75.233a3.675,3.675,0,0,1,3.675,3.675V27.946a3.675,3.675,0,0,1-3.675,3.675H3.675A3.675,3.675,0,0,1,0,27.946V3.675A3.675,3.675,0,0,1,3.675,0Z" transform="translate(4394.99 4079.547)" fill="#0855c4"/>
    <path id="Trazado_17997" data-name="Trazado 17997" d="M.869.987a4.542,4.542,0,0,0,3.087.985c2.219,0,3.572-1.088,3.572-2.837C7.527-2.7,5.969-3.334,4.352-3.7,3.03-4.01,2.1-4.172,2.1-5.216c0-.882.779-1.455,1.97-1.455A3.117,3.117,0,0,1,6.616-5.392a1,1,0,0,0,.706-.838,1.258,1.258,0,0,0-.573-.911,4.305,4.305,0,0,0-2.69-.779C2.03-7.92.634-6.774.634-5.157c0,1.925,1.529,2.44,3,2.778,1.264.294,2.381.544,2.381,1.617,0,.941-.75,1.484-2.072,1.484A3.45,3.45,0,0,1,1.075-.733.963.963,0,0,0,.384.076,1.339,1.339,0,0,0,.869.987ZM8.644,4.75c.147,0,.294-.029.294-.059L12.422-6.568a2.391,2.391,0,0,0,.118-.588c0-.6-.5-.676-.808-.676a.563.563,0,0,0-.294.059L7.939,3.486a2.272,2.272,0,0,0-.118.588C7.821,4.661,8.321,4.75,8.644,4.75Zm9.113-2.9h.191c.441,0,.661-.235.661-.691V-7.112c0-.456-.22-.691-.661-.691h-.514a1.212,1.212,0,0,1-1.191,1.117,1.2,1.2,0,0,1-.867-.338.78.78,0,0,0-.426.75.955.955,0,0,0,.323.735,1.349,1.349,0,0,0,.852.279,1.388,1.388,0,0,0,.985-.4v6.82C17.11,1.619,17.331,1.854,17.757,1.854Zm6.643.118c2.455,0,3.968-1.734,3.968-4.483v-.955c0-2.749-1.5-4.453-3.968-4.453-2.44,0-3.954,1.72-3.954,4.468v.97C20.447.267,21.931,1.972,24.4,1.972Zm0-1.279c-1.529,0-2.425-1.146-2.425-3.145V-3.525c0-2,.882-3.145,2.425-3.145S26.855-5.495,26.855-3.5v1.058C26.855-.439,25.973.693,24.4.693ZM33.44,1.972c2.455,0,3.968-1.734,3.968-4.483v-.955c0-2.749-1.5-4.453-3.968-4.453-2.44,0-3.954,1.72-3.954,4.468v.97C29.486.267,30.971,1.972,33.44,1.972Zm0-1.279c-1.529,0-2.425-1.146-2.425-3.145V-3.525c0-2,.882-3.145,2.425-3.145S35.894-5.495,35.894-3.5v1.058C35.894-.439,35.012.693,33.44.693Zm4.571,2.543c-.118.441.544.588.735.338l1.22-1.881A1.365,1.365,0,0,0,40.3.811V.737c0-.456-.25-.691-.617-.691h-.132c-.5,0-.617.235-.75.691Zm7.437-1.264c2.455,0,3.968-1.734,3.968-4.483v-.955c0-2.749-1.5-4.453-3.968-4.453-2.44,0-3.954,1.72-3.954,4.468v.97C41.494.267,42.979,1.972,45.448,1.972Zm0-1.279c-1.529,0-2.425-1.146-2.425-3.145V-3.525c0-2,.882-3.145,2.425-3.145S47.9-5.495,47.9-3.5v1.058C47.9-.439,47.021.693,45.448.693Zm9.039,1.279c2.455,0,3.968-1.734,3.968-4.483v-.955c0-2.749-1.5-4.453-3.968-4.453-2.44,0-3.954,1.72-3.954,4.468v.97C50.534.267,52.018,1.972,54.487,1.972Zm0-1.279c-1.529,0-2.425-1.146-2.425-3.145V-3.525c0-2,.882-3.145,2.425-3.145S56.942-5.495,56.942-3.5v1.058C56.942-.439,56.06.693,54.487.693Zm9.039,1.279c2.455,0,3.968-1.734,3.968-4.483v-.955c0-2.749-1.5-4.453-3.968-4.453-2.44,0-3.954,1.72-3.954,4.468v.97C59.573.267,61.057,1.972,63.527,1.972Zm0-1.279C62,.693,61.1-.453,61.1-2.452V-3.525c0-2,.882-3.145,2.425-3.145S65.981-5.495,65.981-3.5v1.058C65.981-.439,65.1.693,63.527.693Z" transform="translate(4399.976 4098.644)" fill="#0855c4"/>
    <path id="Trazado_17998" data-name="Trazado 17998" d="M.869.987a4.542,4.542,0,0,0,3.087.985c2.219,0,3.572-1.088,3.572-2.837C7.527-2.7,5.969-3.334,4.352-3.7,3.03-4.01,2.1-4.172,2.1-5.216c0-.882.779-1.455,1.97-1.455A3.117,3.117,0,0,1,6.616-5.392a1,1,0,0,0,.706-.838,1.258,1.258,0,0,0-.573-.911,4.305,4.305,0,0,0-2.69-.779C2.03-7.92.634-6.774.634-5.157c0,1.925,1.529,2.44,3,2.778,1.264.294,2.381.544,2.381,1.617,0,.941-.75,1.484-2.072,1.484A3.45,3.45,0,0,1,1.075-.733.963.963,0,0,0,.384.076,1.339,1.339,0,0,0,.869.987ZM8.644,4.75c.147,0,.294-.029.294-.059L12.422-6.568a2.391,2.391,0,0,0,.118-.588c0-.6-.5-.676-.808-.676a.563.563,0,0,0-.294.059L7.939,3.486a2.272,2.272,0,0,0-.118.588C7.821,4.661,8.321,4.75,8.644,4.75Zm9.789-2.778c2.278,0,3.689-1.22,3.689-3.116,0-1.837-1.352-3-3.41-3a4.727,4.727,0,0,0-1.955.426V-6.436h4.218c.47,0,.706-.206.706-.6v-.073q0-.617-.706-.617H16.2a.762.762,0,0,0-.779.852v3.616c0,.588.294.9.926.941a3.531,3.531,0,0,1,2.219-.647c1.352,0,2.146.691,2.146,1.837S19.829.752,18.433.752A3,3,0,0,1,15.758-.659c-.044-.073-.72.235-.72.75a1.726,1.726,0,0,0,.926,1.249A4.7,4.7,0,0,0,18.433,1.972Zm8.5,0c2.455,0,3.968-1.734,3.968-4.483v-.955c0-2.749-1.5-4.453-3.968-4.453-2.44,0-3.954,1.72-3.954,4.468v.97C22.975.267,24.459,1.972,26.929,1.972Zm0-1.279C25.4.693,24.5-.453,24.5-2.452V-3.525c0-2,.882-3.145,2.425-3.145S29.383-5.495,29.383-3.5v1.058C29.383-.439,28.5.693,26.929.693ZM31.5,3.236c-.118.441.544.588.735.338l1.22-1.881a1.365,1.365,0,0,0,.338-.882V.737c0-.456-.25-.691-.617-.691h-.132c-.5,0-.617.235-.75.691Zm7.437-1.264c2.455,0,3.968-1.734,3.968-4.483v-.955c0-2.749-1.5-4.453-3.968-4.453-2.44,0-3.954,1.72-3.954,4.468v.97C34.983.267,36.468,1.972,38.937,1.972Zm0-1.279c-1.529,0-2.425-1.146-2.425-3.145V-3.525c0-2,.882-3.145,2.425-3.145S41.391-5.495,41.391-3.5v1.058C41.391-.439,40.51.693,38.937.693Zm9.039,1.279c2.455,0,3.968-1.734,3.968-4.483v-.955c0-2.749-1.5-4.453-3.968-4.453-2.44,0-3.954,1.72-3.954,4.468v.97C44.022.267,45.507,1.972,47.976,1.972Zm0-1.279c-1.529,0-2.425-1.146-2.425-3.145V-3.525c0-2,.882-3.145,2.425-3.145S50.431-5.495,50.431-3.5v1.058C50.431-.439,49.549.693,47.976.693Zm9.039,1.279c2.455,0,3.968-1.734,3.968-4.483v-.955c0-2.749-1.5-4.453-3.968-4.453-2.44,0-3.954,1.72-3.954,4.468v.97C53.062.267,54.546,1.972,57.015,1.972Zm0-1.279c-1.529,0-2.425-1.146-2.425-3.145V-3.525c0-2,.882-3.145,2.425-3.145S59.47-5.495,59.47-3.5v1.058C59.47-.439,58.588.693,57.015.693Z" transform="translate(4240.748 4098.671)" fill="#0855c4"/>
    <path id="Trazado_17993" data-name="Trazado 17993" d="M37.667,33.2,1.789.281A1.067,1.067,0,0,0,0,1.067V48.873a1.067,1.067,0,0,0,1.84.735L12.326,38.565l7.858,15.911a1.068,1.068,0,0,0,.958.6,1.048,1.048,0,0,0,.424-.089l7.762-3.369a1.065,1.065,0,0,0,.522-1.469L22.023,35.052H36.946a1.067,1.067,0,0,0,.721-1.853" transform="translate(4363.735 4105.18)" fill="#fff"/>
    <path id="Trazado_17993_-_Contorno" data-name="Trazado 17993 - Contorno" d="M21.254,55.8a1.671,1.671,0,0,1-1.507-.936L12.278,39.735,2.4,50.142A1.679,1.679,0,0,1-.5,48.986V1.179A1.68,1.68,0,0,1,2.315-.059L38.194,32.86a1.671,1.671,0,0,1,.43,1.846,1.689,1.689,0,0,1-1.565,1.071H23.143l7.362,14.2a1.678,1.678,0,0,1-.82,2.312l-7.763,3.37A1.654,1.654,0,0,1,21.254,55.8ZM12.6,37.619l8.247,16.7a.454.454,0,0,0,.409.254.434.434,0,0,0,.178-.037l7.764-3.37a.46.46,0,0,0,.248-.265.451.451,0,0,0-.025-.359l-8.29-15.987h15.93a.454.454,0,0,0,.307-.79L1.488.844A.462.462,0,0,0,1,.763a.456.456,0,0,0-.272.417V48.986a.452.452,0,0,0,.286.422.465.465,0,0,0,.5-.109Z" transform="translate(4363.623 4105.067)" fill="#cbcbcb"/>
  </g>
</svg>
