<svg xmlns="http://www.w3.org/2000/svg" width="226.357" height="75.926" viewBox="0 0 226.357 75.926"><defs><style>.a{fill:#0854c4;}.b{fill:#00bb31;}</style></defs><g transform="translate(9785.952 -3170.864)"><path class="a" d="M5.04,3.944a3.067,3.067,0,0,1,2.394,1.05A3.7,3.7,0,0,1,8.372,7.57a3.676,3.676,0,0,1-.938,2.562,3.067,3.067,0,0,1-2.394,1.05,2.92,2.92,0,0,1-2.45-1.12V13.8H1.078V4.126H2.59v.938A2.92,2.92,0,0,1,5.04,3.944Zm-.406,1.33a2.218,2.218,0,0,0-1.2.343,2.359,2.359,0,0,0-.84.889V8.634a2.374,2.374,0,0,0,.847.875,2.229,2.229,0,0,0,1.2.343,2.1,2.1,0,0,0,1.582-.658,2.289,2.289,0,0,0,.63-1.624,2.258,2.258,0,0,0-.63-1.624A2.077,2.077,0,0,0,4.634,5.274Zm8.582,4.578a2.19,2.19,0,0,0,1.61-.658,2.219,2.219,0,0,0,.644-1.638,2.261,2.261,0,1,0-4.522,0,2.225,2.225,0,0,0,2.268,2.3Zm0,1.33a3.7,3.7,0,0,1-2.716-1.05A3.479,3.479,0,0,1,9.436,7.556,3.463,3.463,0,0,1,10.5,4.994a3.7,3.7,0,0,1,2.716-1.05,3.717,3.717,0,0,1,2.7,1.05,3.463,3.463,0,0,1,1.064,2.562,3.509,3.509,0,0,1-1.064,2.576A3.717,3.717,0,0,1,13.216,11.182ZM20.048,11H18.536V4.126h1.512v1.19a2.656,2.656,0,0,1,1.05-.987,3.034,3.034,0,0,1,1.484-.385.491.491,0,0,1,.14.014V5.47a3.926,3.926,0,0,0-.42-.028,2.527,2.527,0,0,0-1.386.392,2.215,2.215,0,0,0-.868.952Zm9.184.182a1.749,1.749,0,0,1-1.26-.441,1.808,1.808,0,0,1-.462-1.365V1.2h1.512V8.956q0,.84.756.84a1.113,1.113,0,0,0,.574-.14v1.3A2.439,2.439,0,0,1,29.232,11.182Zm8.9-1.358a.842.842,0,0,0,.406-.1v1.148a1.483,1.483,0,0,1-.882.224,1.312,1.312,0,0,1-1.442-.98,3.207,3.207,0,0,1-2.534,1.064,2.8,2.8,0,0,1-1.848-.616,2.076,2.076,0,0,1-.728-1.694,1.961,1.961,0,0,1,.8-1.68,3.124,3.124,0,0,1,1.96-.6,4.43,4.43,0,0,1,2.2.532V6.744q0-1.5-2.016-1.5a4.041,4.041,0,0,0-2.17.616V4.532a4.953,4.953,0,0,1,2.506-.588,3.589,3.589,0,0,1,2.317.693,2.349,2.349,0,0,1,.861,1.939V9.138a.735.735,0,0,0,.161.5A.526.526,0,0,0,38.136,9.824Zm-2.072-.77v-.84a3.675,3.675,0,0,0-1.834-.49A2.143,2.143,0,0,0,33.047,8a.887.887,0,0,0-.427.784.93.93,0,0,0,.4.812,1.859,1.859,0,0,0,1.085.28A2.716,2.716,0,0,0,35.2,9.649,2.534,2.534,0,0,0,36.064,9.054Zm10.612,2.128a3.683,3.683,0,0,1-2.632-1.022,3.477,3.477,0,0,1-1.078-2.618,3.387,3.387,0,0,1,1.078-2.59A3.761,3.761,0,0,1,46.69,3.944a4.351,4.351,0,0,1,2.072.476v1.3a4.265,4.265,0,0,0-1.848-.448,2.467,2.467,0,0,0-1.736.644,2.156,2.156,0,0,0-.7,1.638,2.172,2.172,0,0,0,.7,1.652,2.467,2.467,0,0,0,1.736.644,3.7,3.7,0,0,0,1.96-.518v1.288A4.351,4.351,0,0,1,46.676,11.182Zm7.1-1.33a2.19,2.19,0,0,0,1.61-.658,2.219,2.219,0,0,0,.644-1.638,2.261,2.261,0,1,0-4.522,0,2.225,2.225,0,0,0,2.268,2.3Zm0,1.33a3.7,3.7,0,0,1-2.716-1.05,3.479,3.479,0,0,1-1.064-2.576,3.463,3.463,0,0,1,1.064-2.562,4.02,4.02,0,0,1,5.418,0A3.463,3.463,0,0,1,57.54,7.556a3.509,3.509,0,0,1-1.064,2.576A3.717,3.717,0,0,1,53.774,11.182ZM60.606,11H59.094V4.126h1.512v.9a2.631,2.631,0,0,1,2.268-1.078,2.669,2.669,0,0,1,1.372.336,1.8,1.8,0,0,1,.8.9,2.691,2.691,0,0,1,1.043-.9,3.2,3.2,0,0,1,1.463-.336,2.29,2.29,0,0,1,1.792.714A2.95,2.95,0,0,1,69.986,6.7V11H68.474V7.052q0-1.694-1.4-1.694a1.861,1.861,0,0,0-1.043.329,1.95,1.95,0,0,0-.721.819V11H63.8V7.052q0-1.694-1.414-1.694a1.9,1.9,0,0,0-1.029.315,2.091,2.091,0,0,0-.749.791ZM75.852,3.944a3.067,3.067,0,0,1,2.394,1.05,3.7,3.7,0,0,1,.938,2.576,3.676,3.676,0,0,1-.938,2.562,3.067,3.067,0,0,1-2.394,1.05,2.92,2.92,0,0,1-2.45-1.12V13.8H71.89V4.126H73.4v.938A2.92,2.92,0,0,1,75.852,3.944Zm-.406,1.33a2.218,2.218,0,0,0-1.2.343,2.359,2.359,0,0,0-.84.889V8.634a2.374,2.374,0,0,0,.847.875,2.229,2.229,0,0,0,1.2.343,2.1,2.1,0,0,0,1.582-.658,2.289,2.289,0,0,0,.63-1.624,2.258,2.258,0,0,0-.63-1.624A2.077,2.077,0,0,0,75.446,5.274ZM82.25,11H80.738V4.126H82.25v1.19a2.656,2.656,0,0,1,1.05-.987,3.034,3.034,0,0,1,1.484-.385.491.491,0,0,1,.14.014V5.47a3.926,3.926,0,0,0-.42-.028,2.527,2.527,0,0,0-1.386.392,2.215,2.215,0,0,0-.868.952ZM92.638,9.824a.843.843,0,0,0,.406-.1v1.148a1.483,1.483,0,0,1-.882.224,1.312,1.312,0,0,1-1.442-.98,3.207,3.207,0,0,1-2.534,1.064,2.8,2.8,0,0,1-1.848-.616,2.076,2.076,0,0,1-.728-1.694,1.961,1.961,0,0,1,.8-1.68,3.124,3.124,0,0,1,1.96-.6,4.43,4.43,0,0,1,2.2.532V6.744q0-1.5-2.016-1.5a4.041,4.041,0,0,0-2.17.616V4.532a4.953,4.953,0,0,1,2.506-.588,3.589,3.589,0,0,1,2.317.693,2.349,2.349,0,0,1,.861,1.939V9.138a.734.734,0,0,0,.161.5A.526.526,0,0,0,92.638,9.824Zm-2.072-.77v-.84a3.675,3.675,0,0,0-1.834-.49A2.143,2.143,0,0,0,87.549,8a.887.887,0,0,0-.427.784.93.93,0,0,0,.4.812,1.859,1.859,0,0,0,1.085.28A2.716,2.716,0,0,0,89.7,9.649,2.534,2.534,0,0,0,90.566,9.054ZM100.8,11.182a3.067,3.067,0,0,1-2.394-1.05,3.7,3.7,0,0,1-.938-2.576,3.676,3.676,0,0,1,.938-2.562,3.067,3.067,0,0,1,2.394-1.05,2.92,2.92,0,0,1,2.45,1.12V1.2h1.512V11H103.25v-.938A2.92,2.92,0,0,1,100.8,11.182Zm.406-1.33a2.218,2.218,0,0,0,1.2-.343,2.359,2.359,0,0,0,.84-.889V6.492a2.374,2.374,0,0,0-.847-.875,2.229,2.229,0,0,0-1.2-.343,2.077,2.077,0,0,0-1.582.672,2.24,2.24,0,0,0-.63,1.61,2.307,2.307,0,0,0,.63,1.638A2.1,2.1,0,0,0,101.206,9.852Zm5.11-2.3a3.573,3.573,0,0,1,.98-2.576,3.376,3.376,0,0,1,2.548-1.036,2.911,2.911,0,0,1,1.806.56,3.564,3.564,0,0,1,1.456,3.108V8h-5.264a1.98,1.98,0,0,0,.833,1.358,2.971,2.971,0,0,0,1.757.49,4.257,4.257,0,0,0,2.212-.616V10.51a4.31,4.31,0,0,1-2.534.672,3.9,3.9,0,0,1-2.7-1.008A3.4,3.4,0,0,1,106.316,7.556Zm1.54-.7h3.724a1.7,1.7,0,0,0-1.806-1.638,1.912,1.912,0,0,0-1.323.469A1.75,1.75,0,0,0,107.856,6.856Zm11.088,2.268V5.456h-1.47V4.126h1.47v-2h1.512v2h2.17v1.33h-2.17V8.69a1.148,1.148,0,0,0,.266.84,1.1,1.1,0,0,0,.812.266,2.235,2.235,0,0,0,1.036-.252v1.3a2.738,2.738,0,0,1-1.526.336,2.145,2.145,0,0,1-1.54-.532A2,2,0,0,1,118.944,9.124Zm10.22-.476V4.126h1.512V11h-1.512v-.91a3.287,3.287,0,0,1-2.52,1.092,2.375,2.375,0,0,1-1.883-.756,3.073,3.073,0,0,1-.665-2.1v-4.2h1.512V7.99q0,1.778,1.61,1.778a2.192,2.192,0,0,0,1.106-.315A2.287,2.287,0,0,0,129.164,8.648ZM139.9,11.056H138.53l-3.08-6.93h1.666l2.142,4.97,2.114-4.97h1.61ZM145.88,11h-1.512V4.126h1.512Zm-.756-8.106a.933.933,0,0,1-.952-.952.945.945,0,0,1,.273-.686.91.91,0,0,1,.679-.28.894.894,0,0,1,.665.28.945.945,0,0,1,.273.686.922.922,0,0,1-.273.679A.9.9,0,0,1,145.124,2.894Zm5.768,8.288a3.067,3.067,0,0,1-2.394-1.05,3.7,3.7,0,0,1-.938-2.576,3.676,3.676,0,0,1,.938-2.562,3.067,3.067,0,0,1,2.394-1.05,2.92,2.92,0,0,1,2.45,1.12V1.2h1.512V11h-1.512v-.938A2.92,2.92,0,0,1,150.892,11.182Zm.406-1.33a2.218,2.218,0,0,0,1.2-.343,2.359,2.359,0,0,0,.84-.889V6.492a2.374,2.374,0,0,0-.847-.875,2.229,2.229,0,0,0-1.2-.343,2.077,2.077,0,0,0-1.582.672,2.24,2.24,0,0,0-.63,1.61,2.307,2.307,0,0,0,.63,1.638A2.1,2.1,0,0,0,151.3,9.852Zm12.054-.028a.843.843,0,0,0,.406-.1v1.148a1.483,1.483,0,0,1-.882.224,1.312,1.312,0,0,1-1.442-.98,3.207,3.207,0,0,1-2.534,1.064,2.8,2.8,0,0,1-1.848-.616,2.076,2.076,0,0,1-.728-1.694,1.961,1.961,0,0,1,.8-1.68,3.123,3.123,0,0,1,1.96-.6,4.43,4.43,0,0,1,2.2.532V6.744q0-1.5-2.016-1.5a4.041,4.041,0,0,0-2.17.616V4.532a4.953,4.953,0,0,1,2.506-.588,3.589,3.589,0,0,1,2.317.693,2.349,2.349,0,0,1,.861,1.939V9.138a.735.735,0,0,0,.161.5A.526.526,0,0,0,163.352,9.824Zm-2.072-.77v-.84a3.675,3.675,0,0,0-1.834-.49,2.143,2.143,0,0,0-1.183.28.887.887,0,0,0-.427.784.93.93,0,0,0,.4.812,1.859,1.859,0,0,0,1.085.28,2.716,2.716,0,0,0,1.092-.231A2.535,2.535,0,0,0,161.28,9.054ZM3.92,23.182a3.067,3.067,0,0,1-2.394-1.05,3.7,3.7,0,0,1-.938-2.576,3.676,3.676,0,0,1,.938-2.562,3.067,3.067,0,0,1,2.394-1.05,2.92,2.92,0,0,1,2.45,1.12V13.2H7.882V23H6.37v-.938A2.92,2.92,0,0,1,3.92,23.182Zm.406-1.33a2.218,2.218,0,0,0,1.2-.343,2.359,2.359,0,0,0,.84-.889V18.492a2.374,2.374,0,0,0-.847-.875,2.229,2.229,0,0,0-1.2-.343,2.077,2.077,0,0,0-1.582.672,2.24,2.24,0,0,0-.63,1.61,2.307,2.307,0,0,0,.63,1.638A2.1,2.1,0,0,0,4.326,21.852Zm5.11-2.3a3.573,3.573,0,0,1,.98-2.576,3.376,3.376,0,0,1,2.548-1.036,2.911,2.911,0,0,1,1.806.56,3.564,3.564,0,0,1,1.456,3.108V20H10.962a1.98,1.98,0,0,0,.833,1.358,2.971,2.971,0,0,0,1.757.49,4.257,4.257,0,0,0,2.212-.616V22.51a4.31,4.31,0,0,1-2.534.672,3.9,3.9,0,0,1-2.7-1.008A3.4,3.4,0,0,1,9.436,19.556Zm1.54-.7H14.7a1.7,1.7,0,0,0-1.806-1.638,1.912,1.912,0,0,0-1.323.469A1.75,1.75,0,0,0,10.976,18.856Zm10.5,4.2H20.1l-3.08-6.93H18.69l2.142,4.97,2.114-4.97h1.61Zm7.49-1.2a2.19,2.19,0,0,0,1.61-.658,2.387,2.387,0,0,0,0-3.262A2.261,2.261,0,0,0,26.7,19.556a2.225,2.225,0,0,0,2.268,2.3Zm0,1.33a3.7,3.7,0,0,1-2.716-1.05,3.633,3.633,0,0,1,0-5.138,4.02,4.02,0,0,1,5.418,0,3.463,3.463,0,0,1,1.064,2.562,3.509,3.509,0,0,1-1.064,2.576A3.717,3.717,0,0,1,28.966,23.182Zm7.042,0a1.749,1.749,0,0,1-1.26-.441,1.808,1.808,0,0,1-.462-1.365V13.2H35.8v7.756q0,.84.756.84a1.113,1.113,0,0,0,.574-.14v1.3A2.439,2.439,0,0,1,36.008,23.182ZM43.4,20.648V16.126h1.512V23H43.4v-.91a3.287,3.287,0,0,1-2.52,1.092A2.375,2.375,0,0,1,39,22.426a3.073,3.073,0,0,1-.665-2.1v-4.2h1.512V19.99q0,1.778,1.61,1.778a2.192,2.192,0,0,0,1.106-.315A2.287,2.287,0,0,0,43.4,20.648Zm6.776,2.534a3.683,3.683,0,0,1-2.632-1.022,3.477,3.477,0,0,1-1.078-2.618,3.387,3.387,0,0,1,1.078-2.59,3.761,3.761,0,0,1,2.646-1.008,4.351,4.351,0,0,1,2.072.476v1.3a4.265,4.265,0,0,0-1.848-.448,2.467,2.467,0,0,0-1.736.644,2.283,2.283,0,0,0,0,3.29,2.467,2.467,0,0,0,1.736.644,3.7,3.7,0,0,0,1.96-.518v1.288A4.351,4.351,0,0,1,50.176,23.182ZM55.762,23H54.25V16.126h1.512Zm-.756-8.106a.933.933,0,0,1-.952-.952.945.945,0,0,1,.273-.686.91.91,0,0,1,.679-.28.894.894,0,0,1,.665.28.945.945,0,0,1,.273.686.922.922,0,0,1-.273.679A.9.9,0,0,1,55.006,14.894Zm6.216,6.958a2.19,2.19,0,0,0,1.61-.658,2.387,2.387,0,0,0,0-3.262,2.261,2.261,0,0,0-3.878,1.624,2.225,2.225,0,0,0,2.268,2.3Zm0,1.33a3.7,3.7,0,0,1-2.716-1.05,3.633,3.633,0,0,1,0-5.138,4.02,4.02,0,0,1,5.418,0,3.463,3.463,0,0,1,1.064,2.562,3.509,3.509,0,0,1-1.064,2.576A3.717,3.717,0,0,1,61.222,23.182Zm.546-8.232H60.4l1.33-1.96h1.89Zm6.286,3.528V23H66.542V16.126h1.512v.91a3.287,3.287,0,0,1,2.52-1.092,2.375,2.375,0,0,1,1.883.756,3.073,3.073,0,0,1,.665,2.1V23H71.61V19.136q0-1.778-1.61-1.778a2.192,2.192,0,0,0-1.106.315A2.287,2.287,0,0,0,68.054,18.478Zm7.658,4.634a.98.98,0,0,1-.994-.994A.944.944,0,0,1,75,21.425a.989.989,0,0,1,1.393,0,.933.933,0,0,1,.294.693.961.961,0,0,1-.287.707A.944.944,0,0,1,75.712,23.112ZM83.454,23H81.942V16.126h1.512v.9a2.631,2.631,0,0,1,2.268-1.078,2.669,2.669,0,0,1,1.372.336,1.8,1.8,0,0,1,.8.9,2.691,2.691,0,0,1,1.043-.9,3.2,3.2,0,0,1,1.463-.336,2.29,2.29,0,0,1,1.792.714,2.95,2.95,0,0,1,.644,2.044V23H91.322V19.052q0-1.694-1.4-1.694a1.861,1.861,0,0,0-1.043.329,1.95,1.95,0,0,0-.721.819V23H86.646V19.052q0-1.694-1.414-1.694a1.9,1.9,0,0,0-1.029.315,2.091,2.091,0,0,0-.749.791Zm17.738-1.176a.843.843,0,0,0,.406-.1v1.148a1.483,1.483,0,0,1-.882.224,1.312,1.312,0,0,1-1.442-.98,3.207,3.207,0,0,1-2.534,1.064,2.8,2.8,0,0,1-1.848-.616,2.076,2.076,0,0,1-.728-1.694,1.961,1.961,0,0,1,.8-1.68,3.124,3.124,0,0,1,1.96-.6,4.43,4.43,0,0,1,2.2.532v-.378q0-1.5-2.016-1.5a4.041,4.041,0,0,0-2.17.616v-1.33a4.953,4.953,0,0,1,2.506-.588,3.589,3.589,0,0,1,2.317.693,2.349,2.349,0,0,1,.861,1.939v2.562a.734.734,0,0,0,.161.5A.526.526,0,0,0,101.192,21.824Zm-2.072-1.61a3.675,3.675,0,0,0-1.834-.49A2.143,2.143,0,0,0,96.1,20a.887.887,0,0,0-.427.784.93.93,0,0,0,.4.812,1.859,1.859,0,0,0,1.085.28,2.716,2.716,0,0,0,1.092-.231,2.534,2.534,0,0,0,.868-.595ZM97.888,14.95H96.516l1.33-1.96h1.89Zm7.546,8.232a5.078,5.078,0,0,1-2.87-.7V21.054a4.828,4.828,0,0,0,2.8.826,2.355,2.355,0,0,0,1.113-.217.66.66,0,0,0,.4-.595.624.624,0,0,0-.42-.546,4.62,4.62,0,0,0-.658-.21l-.854-.21a4.271,4.271,0,0,1-1.764-.791,1.864,1.864,0,0,1,.224-2.828,3.69,3.69,0,0,1,2.142-.539,4.608,4.608,0,0,1,2.534.616v1.386a5.026,5.026,0,0,0-2.478-.7,2.192,2.192,0,0,0-1.05.2.616.616,0,0,0-.364.553q0,.322.434.546.056.028.658.21l.8.168q2.352.518,2.352,2.17a1.762,1.762,0,0,1-.826,1.512A3.729,3.729,0,0,1,105.434,23.182ZM115.206,23h-1.512V16.126h1.512Zm-.756-8.106a.933.933,0,0,1-.952-.952.945.945,0,0,1,.273-.686.91.91,0,0,1,.679-.28.894.894,0,0,1,.665.28.945.945,0,0,1,.273.686.922.922,0,0,1-.273.679A.905.905,0,0,1,114.45,14.894Zm4.438,3.584V23h-1.512V16.126h1.512v.91a3.287,3.287,0,0,1,2.52-1.092,2.375,2.375,0,0,1,1.883.756,3.073,3.073,0,0,1,.665,2.1V23h-1.512V19.136q0-1.778-1.61-1.778a2.192,2.192,0,0,0-1.106.315A2.287,2.287,0,0,0,118.888,18.478Zm9.016-1.022V23h-1.512V17.456H125.1v-1.33h1.288v-.9a2.2,2.2,0,0,1,.56-1.582,2.1,2.1,0,0,1,1.6-.588,4.2,4.2,0,0,1,1.61.294v1.274a3.367,3.367,0,0,0-1.19-.252q-1.064,0-1.064,1.12v.63h2.254v1.33Zm6.664,4.4a2.19,2.19,0,0,0,1.61-.658,2.387,2.387,0,0,0,0-3.262,2.261,2.261,0,0,0-3.878,1.624,2.225,2.225,0,0,0,2.268,2.3Zm0,1.33a3.7,3.7,0,0,1-2.716-1.05,3.633,3.633,0,0,1,0-5.138,4.02,4.02,0,0,1,5.418,0,3.463,3.463,0,0,1,1.064,2.562,3.509,3.509,0,0,1-1.064,2.576A3.717,3.717,0,0,1,134.568,23.182Zm15.386-1.708a.847.847,0,0,0,.406-.084v1.442a1.7,1.7,0,0,1-1.064.294,1.55,1.55,0,0,1-1.582-.9,3.206,3.206,0,0,1-2.408.952,2.674,2.674,0,0,1-1.862-.644,2.172,2.172,0,0,1-.714-1.694,1.978,1.978,0,0,1,.812-1.708,3.228,3.228,0,0,1,1.946-.588,4.291,4.291,0,0,1,2.016.434v-.21q0-1.316-1.848-1.316a4.037,4.037,0,0,0-2.114.588V16.392a5.5,5.5,0,0,1,2.59-.56,3.706,3.706,0,0,1,2.408.728,2.424,2.424,0,0,1,.924,2.016v2.366Q149.464,21.474,149.954,21.474Zm-2.45-.532v-.7a2.585,2.585,0,0,0-1.456-.406,1.837,1.837,0,0,0-1,.238.755.755,0,0,0-.371.672.771.771,0,0,0,.336.679,1.583,1.583,0,0,0,.91.231A1.871,1.871,0,0,0,147.5,20.942Zm6.944-5.11a2.7,2.7,0,0,1,2.3,1.036v-.854h1.974V25.8h-1.974V22.146a2.772,2.772,0,0,1-2.3,1.036,3.064,3.064,0,0,1-2.366-1.05,3.852,3.852,0,0,1-.924-2.618,3.819,3.819,0,0,1,.924-2.618A3.019,3.019,0,0,1,154.448,15.832Zm.56,1.722a1.763,1.763,0,0,0-1.358.56,2.09,2.09,0,0,0,0,2.786,1.763,1.763,0,0,0,1.358.56,1.9,1.9,0,0,0,1.022-.287,2,2,0,0,0,.714-.749V18.6a2.05,2.05,0,0,0-.714-.756A1.865,1.865,0,0,0,155.008,17.554Zm10.29,2.912V16.014h1.974V23H165.3v-.84a3.043,3.043,0,0,1-2.338,1.022,2.369,2.369,0,0,1-1.876-.763,3.1,3.1,0,0,1-.672-2.121V16.014h1.974v3.878a1.508,1.508,0,0,0,.371,1.12,1.311,1.311,0,0,0,.959.364,1.74,1.74,0,0,0,.889-.259A2.024,2.024,0,0,0,165.3,20.466ZM170.982,23h-1.974V16.014h1.974Zm-.168-7.98h-1.708l1.33-2.044h2.38Z" transform="translate(-9732.411 3220.99)"/><path class="b" d="M5.3,12.616,6.072,23.8H1.944l.744-11.184ZM1.92,8.824A1.972,1.972,0,0,1,2.532,7.36a2.032,2.032,0,0,1,1.476-.6A2.049,2.049,0,0,1,6.072,8.824a2.061,2.061,0,0,1-.6,1.5,1.972,1.972,0,0,1-1.464.612,2.012,2.012,0,0,1-1.476-.612A2.04,2.04,0,0,1,1.92,8.824Zm16.3,10.512a8.84,8.84,0,0,1-6.384-2.448A8.4,8.4,0,0,1,9.264,10.6a8.3,8.3,0,0,1,2.568-6.288,9,9,0,0,1,6.5-2.448,9.667,9.667,0,0,1,5.04,1.272V6.544a9.01,9.01,0,0,0-4.8-1.44A5.8,5.8,0,0,0,14.4,6.64a5.273,5.273,0,0,0-1.608,4.032,5.248,5.248,0,0,0,1.56,3.984,5.382,5.382,0,0,0,3.864,1.488,4.762,4.762,0,0,0,3.384-1.1V9.256h3.456v7.416a8.138,8.138,0,0,1-2.88,1.9A10.331,10.331,0,0,1,18.216,19.336ZM39.7,16.384a1.452,1.452,0,0,0,.7-.144v2.472a2.91,2.91,0,0,1-1.824.5,2.658,2.658,0,0,1-2.712-1.536,5.5,5.5,0,0,1-4.128,1.632,4.584,4.584,0,0,1-3.192-1.1,3.724,3.724,0,0,1-1.224-2.9A3.39,3.39,0,0,1,28.7,12.376a5.534,5.534,0,0,1,3.336-1.008,7.356,7.356,0,0,1,3.456.744v-.36Q35.5,9.5,32.328,9.5A6.921,6.921,0,0,0,28.7,10.5V7.672a9.434,9.434,0,0,1,4.44-.96A6.353,6.353,0,0,1,37.272,7.96a4.155,4.155,0,0,1,1.584,3.456v4.056Q38.856,16.384,39.7,16.384Zm-4.2-.912v-1.2a4.431,4.431,0,0,0-2.5-.7,3.148,3.148,0,0,0-1.716.408,1.294,1.294,0,0,0-.636,1.152,1.322,1.322,0,0,0,.576,1.164,2.714,2.714,0,0,0,1.56.4A3.207,3.207,0,0,0,35.5,15.472Zm10.632-4.1V19H42.744V7.024h3.384v1.44a5.216,5.216,0,0,1,4.008-1.752A4.061,4.061,0,0,1,53.352,8.02,5.316,5.316,0,0,1,54.5,11.656V19H51.12V12.352a2.584,2.584,0,0,0-.636-1.92,2.248,2.248,0,0,0-1.644-.624,2.983,2.983,0,0,0-1.524.444A3.47,3.47,0,0,0,46.128,11.368Zm22.848,5.016a1.452,1.452,0,0,0,.7-.144v2.472a2.91,2.91,0,0,1-1.824.5,2.658,2.658,0,0,1-2.712-1.536,5.5,5.5,0,0,1-4.128,1.632,4.584,4.584,0,0,1-3.192-1.1,3.724,3.724,0,0,1-1.224-2.9,3.39,3.39,0,0,1,1.392-2.928,5.534,5.534,0,0,1,3.336-1.008,7.356,7.356,0,0,1,3.456.744v-.36q0-2.256-3.168-2.256A6.921,6.921,0,0,0,57.984,10.5V7.672a9.434,9.434,0,0,1,4.44-.96A6.353,6.353,0,0,1,66.552,7.96a4.155,4.155,0,0,1,1.584,3.456v4.056Q68.136,16.384,68.976,16.384Zm-4.2-.912v-1.2a4.431,4.431,0,0,0-2.5-.7,3.148,3.148,0,0,0-1.716.408,1.294,1.294,0,0,0-.636,1.152A1.322,1.322,0,0,0,60.5,16.3a2.713,2.713,0,0,0,1.56.4A3.207,3.207,0,0,0,64.776,15.472ZM85.1,19.1H82.032L76.824,7.024h3.648L83.64,14.8l3.144-7.776h3.528Zm18.36-2.712a1.452,1.452,0,0,0,.7-.144v2.472a2.91,2.91,0,0,1-1.824.5,2.658,2.658,0,0,1-2.712-1.536A5.5,5.5,0,0,1,95.5,19.312a4.584,4.584,0,0,1-3.192-1.1,3.724,3.724,0,0,1-1.224-2.9,3.39,3.39,0,0,1,1.392-2.928,5.534,5.534,0,0,1,3.336-1.008,7.356,7.356,0,0,1,3.456.744v-.36Q99.264,9.5,96.1,9.5A6.921,6.921,0,0,0,92.472,10.5V7.672a9.434,9.434,0,0,1,4.44-.96A6.353,6.353,0,0,1,101.04,7.96a4.155,4.155,0,0,1,1.584,3.456v4.056Q102.624,16.384,103.464,16.384Zm-4.2-.912v-1.2a4.431,4.431,0,0,0-2.5-.7,3.148,3.148,0,0,0-1.716.408,1.294,1.294,0,0,0-.636,1.152,1.322,1.322,0,0,0,.576,1.164,2.713,2.713,0,0,0,1.56.4A3.207,3.207,0,0,0,99.264,15.472Zm10.44,3.84a3.272,3.272,0,0,1-2.34-.8A3.3,3.3,0,0,1,106.512,16V2.2H109.9V15.112q0,1.2,1.08,1.2a1.649,1.649,0,0,0,.864-.216V18.88A4.748,4.748,0,0,1,109.7,19.312Zm10.3,0a6.81,6.81,0,0,1-4.728-1.728A5.868,5.868,0,0,1,113.352,13a6.2,6.2,0,0,1,1.728-4.464,5.931,5.931,0,0,1,4.512-1.824,5.161,5.161,0,0,1,4.152,1.848,6.724,6.724,0,0,1,1.56,4.488v.888h-8.592a2.783,2.783,0,0,0,1.332,1.848,5.081,5.081,0,0,0,2.676.648,7.637,7.637,0,0,0,3.84-1.056v2.712A7.4,7.4,0,0,1,120,19.312Zm-3.288-7.536h5.256a2.5,2.5,0,0,0-.732-1.716,2.418,2.418,0,0,0-1.788-.684,2.717,2.717,0,0,0-1.872.66A2.622,2.622,0,0,0,116.712,11.776Zm15.6,7.536a9.642,9.642,0,0,1-5.04-1.128v-3a8.146,8.146,0,0,0,2.2.972,9.428,9.428,0,0,0,2.7.4q2.064,0,2.064-1.008,0-.48-.6-.744a3.212,3.212,0,0,0-.624-.216l-.888-.216-.516-.132a4.319,4.319,0,0,1-.444-.132,7.4,7.4,0,0,1-3.012-1.38,3.018,3.018,0,0,1-.876-2.34,3.112,3.112,0,0,1,1.4-2.688,6.663,6.663,0,0,1,3.876-.984,8.291,8.291,0,0,1,4.488,1.1V10.7A8.521,8.521,0,0,0,132.7,9.448q-1.92,0-1.92.96a.6.6,0,0,0,.108.348.853.853,0,0,0,.216.228q.108.072.348.216.144.048.528.156t.5.156l1.272.264a6.347,6.347,0,0,1,2.952,1.356,3.178,3.178,0,0,1,.96,2.436A3.174,3.174,0,0,1,136.2,18.28,6.619,6.619,0,0,1,132.312,19.312ZM148.872,13a3.3,3.3,0,0,0,.936,2.4,3.42,3.42,0,0,0,4.752,0A3.353,3.353,0,0,0,155.5,13a3.219,3.219,0,0,0-.936-2.376,3.42,3.42,0,0,0-4.752,0A3.219,3.219,0,0,0,148.872,13Zm-3.336,0a5.943,5.943,0,0,1,1.872-4.464,7.165,7.165,0,0,1,9.552,0A5.993,5.993,0,0,1,158.832,13a6.049,6.049,0,0,1-1.872,4.512,7.236,7.236,0,0,1-9.552,0A6.049,6.049,0,0,1,145.536,13ZM7.368,43.312a6.619,6.619,0,0,1-4.584-1.728,5.989,5.989,0,0,1-1.92-4.608,5.766,5.766,0,0,1,1.92-4.536,6.738,6.738,0,0,1,4.632-1.728,7.832,7.832,0,0,1,3.552.792v2.88a7.244,7.244,0,0,0-3.048-.72,3.924,3.924,0,0,0-2.664.936A3.017,3.017,0,0,0,4.2,37a3.058,3.058,0,0,0,1.08,2.424,3.891,3.891,0,0,0,2.64.936,6.289,6.289,0,0,0,3.24-.816v2.88A7.989,7.989,0,0,1,7.368,43.312ZM22.2,38.656V31.024h3.384V43H22.2V41.56a5.216,5.216,0,0,1-4.008,1.752A4.061,4.061,0,0,1,14.976,42a5.316,5.316,0,0,1-1.152-3.636V31.024h3.384v6.648a2.584,2.584,0,0,0,.636,1.92,2.248,2.248,0,0,0,1.644.624,2.983,2.983,0,0,0,1.524-.444A3.47,3.47,0,0,0,22.2,38.656ZM31.44,37a3.3,3.3,0,0,0,.936,2.4,3.42,3.42,0,0,0,4.752,0,3.353,3.353,0,0,0,.936-2.4,3.219,3.219,0,0,0-.936-2.376,3.42,3.42,0,0,0-4.752,0A3.219,3.219,0,0,0,31.44,37ZM28.1,37a5.943,5.943,0,0,1,1.872-4.464,6.509,6.509,0,0,1,4.776-1.824,6.509,6.509,0,0,1,4.776,1.824,6.316,6.316,0,0,1,0,8.976,6.609,6.609,0,0,1-4.776,1.8,6.609,6.609,0,0,1-4.776-1.8A6.049,6.049,0,0,1,28.1,37Zm16.632,2.28V33.856H42.384V31.024h2.352V27.736H48.12v3.288h3.408v2.832H48.12v4.752a1.8,1.8,0,0,0,.384,1.284,1.68,1.68,0,0,0,1.248.4,3.88,3.88,0,0,0,1.752-.432v2.808a5.432,5.432,0,0,1-2.856.648Q44.736,43.312,44.736,39.28Zm20.856,1.1a1.452,1.452,0,0,0,.7-.144v2.472a2.91,2.91,0,0,1-1.824.5,2.658,2.658,0,0,1-2.712-1.536,5.5,5.5,0,0,1-4.128,1.632,4.584,4.584,0,0,1-3.192-1.1,3.724,3.724,0,0,1-1.224-2.9A3.39,3.39,0,0,1,54.6,36.376a5.534,5.534,0,0,1,3.336-1.008,7.356,7.356,0,0,1,3.456.744v-.36q0-2.256-3.168-2.256A6.921,6.921,0,0,0,54.6,34.5V31.672a9.434,9.434,0,0,1,4.44-.96,6.353,6.353,0,0,1,4.128,1.248,4.155,4.155,0,0,1,1.584,3.456v4.056Q64.752,40.384,65.592,40.384Zm-4.2-.912v-1.2a4.431,4.431,0,0,0-2.5-.7,3.148,3.148,0,0,0-1.716.408,1.294,1.294,0,0,0-.636,1.152A1.322,1.322,0,0,0,57.12,40.3a2.713,2.713,0,0,0,1.56.4A3.207,3.207,0,0,0,61.392,39.472ZM83.52,32.416V31.024H86.9V41.608a5.642,5.642,0,0,1-2.064,4.7,7.621,7.621,0,0,1-4.872,1.632,9.238,9.238,0,0,1-4.7-1.032V43.864a8.2,8.2,0,0,0,4.344,1.152A5.936,5.936,0,0,0,81,44.86a4.645,4.645,0,0,0,1.248-.5,2.382,2.382,0,0,0,.936-1.008,3.427,3.427,0,0,0,.336-1.572v-.744a4.865,4.865,0,0,1-3.96,1.7,5.155,5.155,0,0,1-4.008-1.728,6.662,6.662,0,0,1,0-8.568,5.155,5.155,0,0,1,4.008-1.728A4.865,4.865,0,0,1,83.52,32.416Zm-2.976,7.392a3.448,3.448,0,0,0,1.752-.456,3.329,3.329,0,0,0,1.224-1.176V35.3A3.329,3.329,0,0,0,82.3,34.12a3.448,3.448,0,0,0-1.752-.456,3.1,3.1,0,0,0-2.292.876,2.979,2.979,0,0,0-.876,2.2,2.938,2.938,0,0,0,.9,2.2A3.12,3.12,0,0,0,80.544,39.808ZM93.48,43H90.1V31.024H93.48V33.04a4.579,4.579,0,0,1,1.68-1.632,4.823,4.823,0,0,1,2.5-.7,1.939,1.939,0,0,1,.384.024v3.312a4.352,4.352,0,0,0-1.056-.12,3.951,3.951,0,0,0-2.148.612,3.4,3.4,0,0,0-1.356,1.476Zm18.168-2.616a1.452,1.452,0,0,0,.7-.144v2.472a2.91,2.91,0,0,1-1.824.5,2.658,2.658,0,0,1-2.712-1.536,5.5,5.5,0,0,1-4.128,1.632,4.584,4.584,0,0,1-3.192-1.1,3.724,3.724,0,0,1-1.224-2.9,3.39,3.39,0,0,1,1.392-2.928,5.534,5.534,0,0,1,3.336-1.008,7.356,7.356,0,0,1,3.456.744v-.36q0-2.256-3.168-2.256a6.921,6.921,0,0,0-3.624,1.008V31.672a9.434,9.434,0,0,1,4.44-.96,6.353,6.353,0,0,1,4.128,1.248,4.155,4.155,0,0,1,1.584,3.456v4.056Q110.808,40.384,111.648,40.384Zm-4.2-.912v-1.2a4.431,4.431,0,0,0-2.5-.7,3.148,3.148,0,0,0-1.716.408,1.294,1.294,0,0,0-.636,1.152,1.322,1.322,0,0,0,.576,1.164,2.713,2.713,0,0,0,1.56.4A3.207,3.207,0,0,0,107.448,39.472Zm8.136-.192V33.856h-2.352V31.024h2.352V27.736h3.384v3.288h3.408v2.832h-3.408v4.752a1.8,1.8,0,0,0,.384,1.284,1.68,1.68,0,0,0,1.248.4,3.88,3.88,0,0,0,1.752-.432v2.808a5.432,5.432,0,0,1-2.856.648Q115.584,43.312,115.584,39.28ZM128.592,43h-3.384V31.024h3.384Zm-3.72-15.144a1.973,1.973,0,0,1,.588-1.452,2.028,2.028,0,0,1,2.856,0,1.973,1.973,0,0,1,.588,1.452,2.016,2.016,0,1,1-4.032,0Zm11.616,15.456a9.642,9.642,0,0,1-5.04-1.128v-3a8.146,8.146,0,0,0,2.2.972,9.427,9.427,0,0,0,2.7.4q2.064,0,2.064-1.008,0-.48-.6-.744a3.212,3.212,0,0,0-.624-.216l-.888-.216-.516-.132a4.319,4.319,0,0,1-.444-.132,7.4,7.4,0,0,1-3.012-1.38,3.018,3.018,0,0,1-.876-2.34,3.112,3.112,0,0,1,1.4-2.688,6.663,6.663,0,0,1,3.876-.984,8.291,8.291,0,0,1,4.488,1.1V34.7a8.521,8.521,0,0,0-4.344-1.248q-1.92,0-1.92.96a.6.6,0,0,0,.108.348.853.853,0,0,0,.216.228q.108.072.348.216.144.048.528.156t.5.156l1.272.264a6.347,6.347,0,0,1,2.952,1.356,3.383,3.383,0,0,1-.5,5.148A6.619,6.619,0,0,1,136.488,43.312Zm8.136-2.136a2,2,0,0,1,.612-1.488,2.032,2.032,0,0,1,1.476-.6,1.992,1.992,0,0,1,1.464.6,2.13,2.13,0,0,1,0,2.964,1.972,1.972,0,0,1-1.464.612,2.089,2.089,0,0,1-2.088-2.088Zm3.384-3.768h-2.616L144.648,26.2h4.128Z" transform="translate(-9732.411 3169)"/><g transform="translate(-12359.166 2197.244)"><g transform="translate(2573.214 991.425)"><path class="b" d="M2573.216,1030.087l0-11.49.566-.122c2.514-.541,3.736-1.963,3.738-4.349a2.82,2.82,0,0,0-.975-2.266,3.114,3.114,0,0,0-2.477-.632l-.853.165v-7.829a4.3,4.3,0,0,1,3.221-4.157l42.676-7.983v.863s.008,7.78,0,9.49v.55l-.531.141c-1.862.495-3.765,1.4-3.765,4.357a2.884,2.884,0,0,0,1.062,2.411,2.77,2.77,0,0,0,2.341.5l.9-.23,0,8.732a3.934,3.934,0,0,1-3.207,3.86Zm1.433-10.35v8.622l40.993-7.675a2.5,2.5,0,0,0,2.037-2.451l0-6.987a4.182,4.182,0,0,1-2.681-.876,4.353,4.353,0,0,1-1.617-3.544,5.506,5.506,0,0,1,4.3-5.595c0-1.864,0-6.222,0-8.079l-40.931,7.655a2.851,2.851,0,0,0-2.1,2.757v6.181a4.55,4.55,0,0,1,2.808,1.009,4.189,4.189,0,0,1,1.5,3.374A5.406,5.406,0,0,1,2574.649,1019.738Z" transform="translate(-2573.214 -991.425)"/><path class="b" d="M2619.257,1038.411a10.04,10.04,0,1,1,10.041-10.041A10.052,10.052,0,0,1,2619.257,1038.411Zm0-18.647a8.606,8.606,0,1,0,8.606,8.606A8.615,8.615,0,0,0,2619.257,1019.765Z" transform="translate(-2596.306 -1008.682)"/><path class="b" d="M2627.309,1040.939a4.346,4.346,0,0,0-1.544-.648c-.083-.018-.24-.048-.469-.091s-.38-.074-.451-.093l-.308-.077q-.281-.089-.3-.276-.037-.429.823-.5a4.04,4.04,0,0,1,1.175.087,4.661,4.661,0,0,1,1.114.355l.014-1.616a5.46,5.46,0,0,0-2.453-.348,3.094,3.094,0,0,0-1.839.676,1.711,1.711,0,0,0-.562,1.508,2.052,2.052,0,0,0,.317.942,2.5,2.5,0,0,0,.687.543,2.358,2.358,0,0,0,.448.168l.444.131.489.1.6.127a2.018,2.018,0,0,1,.435.132.489.489,0,0,1,.285.361q.044.514-.956.6a3.859,3.859,0,0,1-1.368-.146,2.654,2.654,0,0,1-1.041-.445l0,1.632a4.417,4.417,0,0,0,2.6.476,3.078,3.078,0,0,0,1.876-.736,1.854,1.854,0,0,0,.615-1.6A1.639,1.639,0,0,0,2627.309,1040.939Z" transform="translate(-2604.829 -1021.112)"/><path class="b" d="M2638.7,1041.774l1.668-.307,3.075-8.719h-1.513Z" transform="translate(-2615.216 -1017.93)"/></g></g></g></svg>