<svg xmlns="http://www.w3.org/2000/svg" width="252.533" height="63.33" viewBox="0 0 252.533 63.33">
  <g id="Grupo_25912" data-name="Grupo 25912" transform="translate(-297 -9299.254)">
    <path id="Trazado_30210" data-name="Trazado 30210" d="M-100.908-7.74a.765.765,0,0,0-.743.633l-.3,1.706a.514.514,0,0,0,.523.633h1.678l-.44,2.559a3.551,3.551,0,0,1-1.981.5c-1.266,0-3.77-.881-3.054-4.9.853-4.9,3.55-5.09,4.815-5.09a7.617,7.617,0,0,1,3.027.523.782.782,0,0,0,.33.11.746.746,0,0,0,.66-.358,11.354,11.354,0,0,0,.881-1.4.8.8,0,0,0-.33-.688c-1.046-.908-3.082-1.128-4.292-1.128-3.687,0-7.264,1.513-8.42,8.035C-109.63-.5-106.6,1.23-102.917,1.23A4.349,4.349,0,0,0-100,.295l.275.358a1.075,1.075,0,0,0,.853.44h.77A.789.789,0,0,0-97.358.46l1.321-7.567a.514.514,0,0,0-.523-.633Zm12.3,5.311a2.562,2.562,0,0,1-1.568.715c-.936,0-1.568-.385-1.211-2.421a3.323,3.323,0,0,1,3.632-3.109Zm4.127-7.127a10.234,10.234,0,0,0-3.6-.66c-3.687,0-6.191,2.5-6.824,6.053-.5,2.834.028,5.393,3,5.393A4.423,4.423,0,0,0-89.076.185l.358.5a.811.811,0,0,0,.743.413h1.431A.789.789,0,0,0-85.8.46l1.623-9.328A.6.6,0,0,0-84.481-9.556ZM-83.325.46a.5.5,0,0,0,.523.633h2.036A.789.789,0,0,0-80.024.46L-78.73-7a3.687,3.687,0,0,1,1.513-.275c1.568,0,1.651.385,1.293,2.366L-76.859.46a.5.5,0,0,0,.523.633H-74.3A.789.789,0,0,0-73.557.46l.936-5.366c.633-3.632-.468-5.311-4.155-5.311a16.531,16.531,0,0,0-4.347.605.883.883,0,0,0-.55.688Zm18.518-2.889a2.562,2.562,0,0,1-1.568.715c-.936,0-1.568-.385-1.211-2.421a3.323,3.323,0,0,1,3.632-3.109Zm4.127-7.127a10.234,10.234,0,0,0-3.6-.66c-3.687,0-6.191,2.5-6.824,6.053-.5,2.834.028,5.393,3,5.393A4.423,4.423,0,0,0-65.275.185l.358.5a.811.811,0,0,0,.743.413h1.431A.789.789,0,0,0-62,.46l1.623-9.328A.6.6,0,0,0-60.68-9.556Zm13.345,7.237a2.407,2.407,0,0,1-1.568.605c-1.568,0-2.009-.138-1.651-2.119l.991-5.586a.514.514,0,0,0-.523-.633h-2.036a.765.765,0,0,0-.743.633l-.991,5.586C-54.489-.2-53,1.23-49.316,1.23a10.322,10.322,0,0,0,4.43-1.1.992.992,0,0,0,.55-.688l1.568-8.86a.514.514,0,0,0-.523-.633h-2.036a.765.765,0,0,0-.743.633ZM-42.025.46a.5.5,0,0,0,.523.633h2.036A.789.789,0,0,0-38.723.46L-37.429-7a3.687,3.687,0,0,1,1.513-.275c1.568,0,1.651.385,1.293,2.366L-35.558.46a.5.5,0,0,0,.523.633H-33A.789.789,0,0,0-32.256.46l.936-5.366c.633-3.632-.468-5.311-4.155-5.311a16.53,16.53,0,0,0-4.347.605.883.883,0,0,0-.55.688Zm24.461.633a1.065,1.065,0,0,0,.88-.633L-9.418-13.9a.514.514,0,0,0-.523-.633h-2.091a1.064,1.064,0,0,0-.88.66L-18.334-2.732l-1.513-11.144a.625.625,0,0,0-.605-.66h-2.091a.765.765,0,0,0-.743.633L-21.085.46a.663.663,0,0,0,.66.633ZM-5.676-2.429a2.562,2.562,0,0,1-1.568.715c-.936,0-1.568-.385-1.211-2.421A3.323,3.323,0,0,1-4.823-7.244Zm4.127-7.127a10.234,10.234,0,0,0-3.6-.66c-3.687,0-6.191,2.5-6.824,6.053-.5,2.834.028,5.393,3,5.393A4.423,4.423,0,0,0-6.144.185l.358.5a.811.811,0,0,0,.743.413h1.431A.789.789,0,0,0-2.87.46l1.623-9.328A.6.6,0,0,0-1.549-9.556ZM3.679-1.219a.968.968,0,0,1-.3-1.046L5.44-13.9a.514.514,0,0,0-.523-.633H2.881a.765.765,0,0,0-.743.633L-.063-1.411C-.228-.5-.421,1.23,1.505,1.23a4.61,4.61,0,0,0,1.486-.22c.44-.138.688-.33.743-.688l.193-.963A.561.561,0,0,0,3.679-1.219ZM14.135-2.237A7.639,7.639,0,0,1,11-1.714c-1.266,0-1.733-.743-1.6-1.513a8.106,8.106,0,0,0,2.366.358,4.479,4.479,0,0,0,4.788-3.852c.33-2.009-1.073-3.494-4.045-3.494-3.687,0-5.641,2.229-6.246,5.613C5.633-.971,6.816,1.23,10.5,1.23A6.9,6.9,0,0,0,14.85.13a1.2,1.2,0,0,0,.55-.688.311.311,0,0,0-.028-.22l-.358-1.183c-.028-.248-.275-.358-.523-.358A.847.847,0,0,0,14.135-2.237ZM11.989-7.244c.715,0,1.321.165,1.183.963-.11.605-.715.853-1.761.853A2.506,2.506,0,0,1,9.843-5.9,2.1,2.1,0,0,1,11.989-7.244ZM26.6-4.685c.33-1.954,1.321-2.559,2.586-2.559a2.228,2.228,0,0,1,1.266.385L29.6-1.989a3.615,3.615,0,0,1-1.513.275C26.517-1.714,26.242-2.7,26.6-4.685Zm8.42-9.218a.514.514,0,0,0-.523-.633H32.46a.765.765,0,0,0-.743.633l-.743,4.1a4.443,4.443,0,0,0-1.954-.413c-2.779,0-5.283,1.9-5.916,5.531-.66,3.632.88,5.916,4.568,5.916a16.181,16.181,0,0,0,4.32-.605.917.917,0,0,0,.578-.688ZM43.3-2.237a7.639,7.639,0,0,1-3.137.523c-1.266,0-1.733-.743-1.6-1.513a8.106,8.106,0,0,0,2.366.358,4.479,4.479,0,0,0,4.788-3.852c.33-2.009-1.073-3.494-4.045-3.494-3.687,0-5.641,2.229-6.246,5.613-.633,3.632.55,5.833,4.237,5.833A6.9,6.9,0,0,0,44.017.13a1.2,1.2,0,0,0,.55-.688.31.31,0,0,0-.028-.22l-.358-1.183c-.028-.248-.275-.358-.523-.358A.847.847,0,0,0,43.3-2.237ZM41.155-7.244c.715,0,1.321.165,1.183.963-.11.605-.715.853-1.761.853A2.506,2.506,0,0,1,39.009-5.9,2.1,2.1,0,0,1,41.155-7.244Zm12.6,4.76a.536.536,0,0,0-.22-.028.843.843,0,0,0-.743.44L51.941-.641c-.055.055-.055.138-.083.193a.777.777,0,0,0,.44.743,9.994,9.994,0,0,0,4.1.936c4.4,0,6.934-1.4,7.484-4.623,1.183-6.6-7.814-4.155-7.292-7.1.193-1.1,1.211-1.211,3.192-1.211.385,0,2.174.248,3.219.385.413,0,.77-.083.908-.578.248-.936.33-1.321.358-1.513.083-.33-.248-.55-.578-.633a20.793,20.793,0,0,0-3.577-.605c-4.98,0-6.466,2.064-6.906,4.623C52.3-4.851,61.1-6.529,60.581-3.5c-.275,1.568-2.642,1.789-3.357,1.789A11.9,11.9,0,0,1,53.757-2.484Zm9.906,6.659a.514.514,0,0,0,.523.633H66.25c.358,0,.605-.3.853-.66l11.639-22.26a.514.514,0,0,0-.523-.633H76.155c-.358,0-.605.3-.881.66Zm17.39-18.3c-.358.083-.743.3-.8.633-.028.193-.083.578-.165,1.513-.028.5.3.578.715.578,1.073-.138,2.586-.3,3-.3,1.981,0,2.614.11,2.421,1.211-.578,3.247-7.649,1.761-8.805,8.365L76.981.46a.5.5,0,0,0,.523.633h9.053A.789.789,0,0,0,87.3.46l.275-1.706a.486.486,0,0,0-.5-.633H80.5l.055-.413c.605-3.412,8.062-3.027,8.888-7.732.44-2.559.055-4.623-4.925-4.623A15.39,15.39,0,0,0,81.053-14.123ZM96.819-1.714c-1.266,0-2.862-.881-2.146-4.9.853-4.9,2.614-5.09,3.88-5.09s2.862.193,2.009,5.09C99.846-2.594,98.03-1.714,96.819-1.714Zm-.5,2.944c3.687,0,6.659-1.733,7.732-7.842,1.156-6.521-1.293-8.035-4.98-8.035s-6.741,1.513-7.9,8.035C90.106-.5,92.582,1.23,96.324,1.23Zm15.849-2.944c-1.266,0-2.862-.881-2.146-4.9.853-4.9,2.614-5.09,3.88-5.09s2.862.193,2.009,5.09C115.2-2.594,113.384-1.714,112.173-1.714Zm-.5,2.944c3.687,0,6.659-1.733,7.732-7.842,1.156-6.521-1.293-8.035-4.98-8.035s-6.741,1.513-7.9,8.035C105.459-.5,107.936,1.23,111.678,1.23Zm-221.57,16.018h-1.926l.385-2.174a.514.514,0,0,0-.523-.633h-2.036a.765.765,0,0,0-.743.633l-.385,2.174h-1.926a.765.765,0,0,0-.743.633l-.3,1.678a.514.514,0,0,0,.523.633h1.926l-.385,2.174a.514.514,0,0,0,.523.633h2.036a.765.765,0,0,0,.743-.633l.385-2.174h1.926a.765.765,0,0,0,.743-.633l.3-1.678A.514.514,0,0,0-109.892,17.249Zm12.85,7.127c3.687,0,5.971-2.036,6.6-5.668l.743-4.292c.66-3.632-.908-5.668-4.6-5.668h-5.145a.765.765,0,0,0-.743.633l-2.531,14.336a.523.523,0,0,0,.523.66Zm3.109-5.668a2.9,2.9,0,0,1-2.862,2.724h-2.229l1.733-9.741h2.229c1.266,0,2.229.77,1.871,2.724Zm13.015,2.339a7.639,7.639,0,0,1-3.137.523c-1.266,0-1.733-.743-1.6-1.513a8.106,8.106,0,0,0,2.366.358A4.479,4.479,0,0,0-78.5,16.561c.33-2.009-1.073-3.494-4.045-3.494-3.687,0-5.641,2.229-6.246,5.613-.633,3.632.55,5.833,4.237,5.833a6.9,6.9,0,0,0,4.347-1.1,1.2,1.2,0,0,0,.55-.688.31.31,0,0,0-.028-.22l-.358-1.183c-.028-.248-.275-.358-.523-.358A.847.847,0,0,0-80.918,21.046Zm-2.146-5.008c.715,0,1.321.165,1.183.963-.11.605-.715.853-1.761.853a2.506,2.506,0,0,1-1.568-.468A2.1,2.1,0,0,1-83.064,16.038ZM-72.608,20.3l-.991-6.439c-.055-.385-.22-.633-.578-.633h-2.091a.765.765,0,0,0-.743.633l1.789,9.878a.663.663,0,0,0,.66.633h2.476a1.065,1.065,0,0,0,.881-.633l5.255-9.878a.514.514,0,0,0-.523-.633h-2.091a.9.9,0,0,0-.8.633Zm11.639,1.266c-1.954,0-1.623-1.733-1.431-2.862s.66-2.669,2.421-2.669,1.678,1.541,1.486,2.669S-59.015,21.569-60.969,21.569Zm-.5,2.944c3.687,0,5.861-2.2,6.494-5.833.605-3.384-.8-5.613-4.485-5.613s-5.861,2.229-6.466,5.613C-66.555,22.312-65.151,24.513-61.464,24.513Zm11.749-2.449a.968.968,0,0,1-.3-1.046l2.064-11.639a.514.514,0,0,0-.523-.633h-2.036a.765.765,0,0,0-.743.633l-2.2,12.492c-.165.908-.358,2.642,1.568,2.642a4.61,4.61,0,0,0,1.486-.22c.44-.138.688-.33.743-.688l.193-.963A.561.561,0,0,0-49.715,22.064Zm9.108-1.1a2.407,2.407,0,0,1-1.568.605c-1.568,0-2.009-.138-1.651-2.119l.991-5.586a.514.514,0,0,0-.523-.633H-45.4a.765.765,0,0,0-.743.633l-.991,5.586c-.633,3.632.853,5.063,4.54,5.063a10.323,10.323,0,0,0,4.43-1.1.992.992,0,0,0,.55-.688l1.568-8.86a.514.514,0,0,0-.523-.633H-38.6a.765.765,0,0,0-.743.633Zm15.987-6.769a5.05,5.05,0,0,0-3.6-1.128c-3.687,0-5.971,2.064-6.631,5.7-.633,3.632.936,5.751,4.623,5.751a6.587,6.587,0,0,0,3.99-1.1,1.2,1.2,0,0,0,.55-.688c.028-.083,0-.138-.385-1.4-.028-.248-.275-.358-.523-.358a.847.847,0,0,0-.358.083,5.276,5.276,0,0,1-2.531.523c-1.266,0-2.394-.825-2.064-2.807A3.067,3.067,0,0,1-28.5,16.038a4.387,4.387,0,0,1,2.311.5.78.78,0,0,0,.358.11.7.7,0,0,0,.633-.358c.825-1.266.881-1.321.881-1.4A.713.713,0,0,0-24.621,14.194Zm2.889-3.742a2.255,2.255,0,0,1,2.119-1.816A1.509,1.509,0,0,1-18.1,10.452a2.31,2.31,0,0,1-2.146,1.816A1.479,1.479,0,0,1-21.732,10.452Zm-.413,3.412a.765.765,0,0,1,.743-.633h2.036a.514.514,0,0,1,.523.633l-1.733,9.878a.789.789,0,0,1-.743.633h-2.036a.5.5,0,0,1-.523-.633Zm9.465,7.7c-1.954,0-1.623-1.733-1.431-2.862s.66-2.669,2.421-2.669,1.678,1.541,1.486,2.669S-10.725,21.569-12.679,21.569Zm-.5,2.944c3.687,0,5.861-2.2,6.494-5.833.605-3.384-.8-5.613-4.485-5.613s-5.861,2.229-6.466,5.613C-18.265,22.312-16.861,24.513-13.174,24.513ZM-13.119,9.9a2.681,2.681,0,0,0-.138.3c-.028.193.193.468.275.55.165.193.5.825.908.825a1.556,1.556,0,0,0,.77-.22l3.329-2.366a.743.743,0,0,0,.138-.3.914.914,0,0,0-.193-.578l-.963-1.376a.646.646,0,0,0-.44-.138c-.275.028-.3.11-.55.275ZM-5.5,23.742a.5.5,0,0,0,.523.633h2.036a.789.789,0,0,0,.743-.633L-.9,16.286a3.687,3.687,0,0,1,1.513-.275c1.568,0,1.651.385,1.293,2.366L.969,23.742a.5.5,0,0,0,.523.633H3.528a.789.789,0,0,0,.743-.633l.936-5.366c.633-3.632-.468-5.311-4.155-5.311a16.53,16.53,0,0,0-4.347.605.883.883,0,0,0-.55.688ZM15.662,18.6c.33-1.954,1.321-2.559,2.586-2.559a2.228,2.228,0,0,1,1.266.385l-.853,4.87a3.615,3.615,0,0,1-1.513.275C15.58,21.569,15.3,20.578,15.662,18.6Zm8.42-9.218a.514.514,0,0,0-.523-.633H21.523a.765.765,0,0,0-.743.633l-.743,4.1a4.443,4.443,0,0,0-1.954-.413c-2.779,0-5.283,1.9-5.916,5.531-.66,3.632.881,5.916,4.568,5.916a16.181,16.181,0,0,0,4.32-.605.917.917,0,0,0,.578-.688Zm8.282,11.667a7.639,7.639,0,0,1-3.137.523c-1.266,0-1.733-.743-1.6-1.513A8.106,8.106,0,0,0,30,20.413a4.479,4.479,0,0,0,4.788-3.852c.33-2.009-1.073-3.494-4.045-3.494-3.687,0-5.641,2.229-6.246,5.613-.633,3.632.55,5.833,4.237,5.833a6.9,6.9,0,0,0,4.347-1.1,1.2,1.2,0,0,0,.55-.688.31.31,0,0,0-.028-.22l-.358-1.183c-.028-.248-.275-.358-.523-.358A.847.847,0,0,0,32.364,21.046Zm-2.146-5.008c.715,0,1.321.165,1.183.963-.11.605-.715.853-1.761.853a2.506,2.506,0,0,1-1.568-.468A2.1,2.1,0,0,1,30.218,16.038Zm12.134-4.347a.73.73,0,0,0-.3.5l-.385,2.146a.514.514,0,0,0,.523.633l4.54-2.642L44.719,23.742a.5.5,0,0,0,.523.633h2.036a.789.789,0,0,0,.743-.633L50.552,9.379a.514.514,0,0,0-.523-.633H47.388Zm14.693,1.376a7.81,7.81,0,0,0-4.43,1.1c-.248.193-.523.385-.55.688L50.5,23.742a.5.5,0,0,0,.523.633h2.036a.789.789,0,0,0,.743-.633l1.211-6.961c.22-.578,1.183-.743,1.623-.743a3.517,3.517,0,0,1,1.678.5.648.648,0,0,0,.22.055.887.887,0,0,0,.688-.413l.8-1.348a.875.875,0,0,0,.083-.248.782.782,0,0,0-.22-.66A4.094,4.094,0,0,0,57.046,13.066Zm8.833,7.787a2.562,2.562,0,0,1-1.568.715c-.936,0-1.568-.385-1.211-2.421a3.323,3.323,0,0,1,3.632-3.109Zm4.127-7.127a10.234,10.234,0,0,0-3.6-.66c-3.687,0-6.191,2.5-6.824,6.053-.5,2.834.028,5.393,3,5.393a4.423,4.423,0,0,0,2.834-1.046l.358.5a.811.811,0,0,0,.743.413h1.431a.789.789,0,0,0,.743-.633l1.623-9.328A.6.6,0,0,0,70.005,13.727ZM89.239,9.764a5.432,5.432,0,0,0-3.632-1.128c-3.687,0-7.264,1.513-8.42,8.035-1.046,5.861,1.954,7.842,5.641,7.842a6.7,6.7,0,0,0,4.017-1.156,1.1,1.1,0,0,0,.55-.688c.028-.083,0-.138-.385-1.4-.028-.248-.248-.358-.5-.358a1.02,1.02,0,0,0-.385.11,5.194,5.194,0,0,1-2.559.55c-1.266,0-3.8-.881-3.082-4.9.853-4.9,3.577-5.09,4.843-5.09A4.938,4.938,0,0,1,87.7,12.1a.782.782,0,0,0,.33.11.746.746,0,0,0,.66-.358,11.352,11.352,0,0,0,.881-1.4A.8.8,0,0,0,89.239,9.764Zm6.769,11.2a2.407,2.407,0,0,1-1.568.605c-1.568,0-2.009-.138-1.651-2.119l.991-5.586a.514.514,0,0,0-.523-.633H91.22a.765.765,0,0,0-.743.633l-.991,5.586c-.633,3.632.853,5.063,4.54,5.063a10.322,10.322,0,0,0,4.43-1.1.992.992,0,0,0,.55-.688l1.568-8.86a.514.514,0,0,0-.523-.633H98.016a.765.765,0,0,0-.743.633Zm10.731.605c-1.954,0-1.623-1.733-1.431-2.862s.66-2.669,2.421-2.669,1.678,1.541,1.486,2.669S108.692,21.569,106.739,21.569Zm-.5,2.944c3.687,0,5.861-2.2,6.494-5.833.605-3.384-.8-5.613-4.485-5.613s-5.861,2.229-6.466,5.613C101.153,22.312,102.557,24.513,106.244,24.513Zm14.005-3.082c-1.6,0-1.376-1.541-1.211-2.366l.5-2.889h2.614a.765.765,0,0,0,.743-.633l.3-1.678a.514.514,0,0,0-.523-.633h-2.614l.688-3.852a.514.514,0,0,0-.523-.633h-1.541a.814.814,0,0,0-.743.633l-1.183,3.852h-1.321a.765.765,0,0,0-.743.633l-.3,1.678a.514.514,0,0,0,.523.633h1.321l-.413,2.366c-.633,3.632-.193,5.971,3.494,5.971a6.932,6.932,0,0,0,2.229-.358.839.839,0,0,0,.578-.8l-.165-1.623a.5.5,0,0,0-.523-.468C121.047,21.266,120.634,21.431,120.249,21.431Zm9.741-.578a2.562,2.562,0,0,1-1.568.715c-.936,0-1.568-.385-1.211-2.421a3.323,3.323,0,0,1,3.632-3.109Zm4.127-7.127a10.234,10.234,0,0,0-3.6-.66c-3.687,0-6.191,2.5-6.824,6.053-.5,2.834.028,5.393,3,5.393a4.423,4.423,0,0,0,2.834-1.046l.358.5a.811.811,0,0,0,.743.413h1.431a.789.789,0,0,0,.743-.633l1.623-9.328A.6.6,0,0,0,134.117,13.727Z" transform="translate(415.1 9318)" fill="#ea0c90"/>
    <path id="Trazado_30211" data-name="Trazado 30211" d="M-107.423-7.589h-2.222l.444-2.508a.593.593,0,0,0-.6-.73h-2.349a.883.883,0,0,0-.857.73l-.444,2.508h-2.222a.883.883,0,0,0-.857.73l-.349,1.937a.593.593,0,0,0,.6.73h2.222l-.444,2.508a.593.593,0,0,0,.6.73h2.349a.883.883,0,0,0,.857-.73l.444-2.508h2.222a.883.883,0,0,0,.857-.73l.349-1.937A.593.593,0,0,0-107.423-7.589Zm6.445,5.609a.392.392,0,0,0-.161-.02.616.616,0,0,0-.543.322L-102.3-.633c-.04.04-.04.1-.06.141a.568.568,0,0,0,.322.543,7.3,7.3,0,0,0,3,.684c3.217,0,5.067-1.025,5.469-3.378.865-4.826-5.711-3.036-5.329-5.188.141-.8.885-.885,2.332-.885.282,0,1.589.181,2.353.282.3,0,.563-.06.664-.422.181-.684.241-.965.261-1.106.06-.241-.181-.4-.422-.462a15.2,15.2,0,0,0-2.614-.442c-3.639,0-4.725,1.508-5.047,3.378-.664,3.78,5.771,2.554,5.389,4.766-.2,1.146-1.93,1.307-2.453,1.307A8.7,8.7,0,0,1-100.978-1.98Zm11.984.563c-1.428,0-1.186-1.267-1.046-2.091s.483-1.95,1.769-1.95,1.227,1.126,1.086,1.95S-87.566-1.417-88.994-1.417ZM-89.356.734c2.694,0,4.283-1.609,4.745-4.263.442-2.473-.583-4.1-3.278-4.1a4.53,4.53,0,0,0-4.725,4.1C-93.076-.875-92.05.734-89.356.734Zm10.195-8.365a5.707,5.707,0,0,0-3.237.8c-.181.141-.382.282-.4.5L-83.947.171a.367.367,0,0,0,.382.462h1.488a.576.576,0,0,0,.543-.462l.885-5.087c.161-.422.865-.543,1.186-.543a2.57,2.57,0,0,1,1.227.362.473.473,0,0,0,.161.04.649.649,0,0,0,.5-.3l.583-.985a.639.639,0,0,0,.06-.181.571.571,0,0,0-.161-.483A2.992,2.992,0,0,0-79.161-7.631Zm6.8,6.113c-1.166,0-1.005-1.126-.885-1.729l.362-2.111h1.91a.559.559,0,0,0,.543-.462l.221-1.227A.375.375,0,0,0-70.6-7.51h-1.91l.5-2.815a.375.375,0,0,0-.382-.462h-1.126a.6.6,0,0,0-.543.462l-.865,2.815h-.965a.559.559,0,0,0-.543.462l-.221,1.227a.375.375,0,0,0,.382.462h.965l-.3,1.729C-76.064-.975-75.743.734-73.048.734A5.065,5.065,0,0,0-71.42.473.613.613,0,0,0-71-.11L-71.118-1.3a.362.362,0,0,0-.382-.342C-71.782-1.639-72.083-1.518-72.365-1.518ZM-64.04-1.8a5.583,5.583,0,0,1-2.292.382c-.925,0-1.267-.543-1.166-1.106a5.924,5.924,0,0,0,1.729.261,3.273,3.273,0,0,0,3.5-2.815c.241-1.468-.784-2.554-2.956-2.554-2.694,0-4.122,1.629-4.564,4.1-.462,2.654.4,4.263,3.1,4.263a5.043,5.043,0,0,0,3.177-.8.874.874,0,0,0,.4-.5.227.227,0,0,0-.02-.161L-63.4-1.6c-.02-.181-.2-.261-.382-.261A.619.619,0,0,0-64.04-1.8Zm-1.568-3.66c.523,0,.965.121.865.7-.08.442-.523.623-1.287.623a1.831,1.831,0,0,1-1.146-.342A1.538,1.538,0,0,1-65.609-5.459Zm7.721,4.042c-1.428,0-1.186-1.267-1.046-2.091s.483-1.95,1.769-1.95,1.227,1.126,1.086,1.95S-56.46-1.417-57.887-1.417ZM-58.249.734c2.694,0,4.283-1.609,4.745-4.263.442-2.473-.583-4.1-3.278-4.1a4.53,4.53,0,0,0-4.725,4.1C-61.969-.875-60.944.734-58.249.734Zm11.924-4.323c.241-1.428.965-1.87,1.89-1.87a1.628,1.628,0,0,1,.925.282l-.623,3.559a2.641,2.641,0,0,1-1.106.2C-46.386-1.417-46.587-2.141-46.325-3.589Zm6.153-6.736a.375.375,0,0,0-.382-.462h-1.488a.559.559,0,0,0-.543.462l-.543,3a3.247,3.247,0,0,0-1.428-.3c-2.031,0-3.861,1.387-4.323,4.042-.483,2.654.643,4.323,3.338,4.323A11.825,11.825,0,0,0-42.384.292a.67.67,0,0,0,.422-.5ZM-34.321-1.8a5.583,5.583,0,0,1-2.292.382c-.925,0-1.267-.543-1.166-1.106a5.924,5.924,0,0,0,1.729.261,3.273,3.273,0,0,0,3.5-2.815c.241-1.468-.784-2.554-2.956-2.554-2.694,0-4.122,1.629-4.564,4.1-.462,2.654.4,4.263,3.1,4.263A5.043,5.043,0,0,0-33.8-.07a.874.874,0,0,0,.4-.5.227.227,0,0,0-.02-.161l-.261-.865c-.02-.181-.2-.261-.382-.261A.619.619,0,0,0-34.321-1.8Zm-1.568-3.66c.523,0,.965.121.865.7-.08.442-.523.623-1.287.623a1.831,1.831,0,0,1-1.146-.342A1.538,1.538,0,0,1-35.89-5.459ZM-22.2-8.636H-19.7A.559.559,0,0,0-19.16-9.1l.221-1.227a.375.375,0,0,0-.382-.462h-7.42a.559.559,0,0,0-.543.462L-27.5-9.1a.375.375,0,0,0,.382.462h2.513L-26.157.171a.367.367,0,0,0,.382.462h1.488a.576.576,0,0,0,.543-.462Zm7.741,9.27a.779.779,0,0,0,.643-.462l5.308-10.5a.375.375,0,0,0-.382-.462h-1.528a.778.778,0,0,0-.643.483l-3.961,8.144L-16.124-10.3a.456.456,0,0,0-.442-.483h-1.528a.559.559,0,0,0-.543.462l1.609,10.5a.484.484,0,0,0,.483.462ZM-2.33-6.143l.442-2.473H2.476a.576.576,0,0,0,.543-.462l.221-1.247a.375.375,0,0,0-.382-.462H-3.456A.559.559,0,0,0-4-10.325L-5.044-4.454a.375.375,0,0,0,.382.462h3c1.166,0,1.408.8,1.327,1.267A1.907,1.907,0,0,1-2.35-1.417c-.282,0-1.729-.221-2.493-.322-.3,0-.543.06-.643.422-.181.684-.282,1.046-.3,1.186-.04.241.2.4.422.462a14.917,14.917,0,0,0,2.654.4c2.694,0,4.564-1.307,4.946-3.479.161-.945.5-3.4-3.378-3.4Zm10.4,4.725C7.141-1.417,5.974-2.061,6.5-5c.623-3.579,1.91-3.72,2.835-3.72S11.424-8.576,10.8-5C10.278-2.061,8.95-1.417,8.066-1.417ZM7.7.734C10.4.734,12.57-.533,13.354-5c.845-4.765-.945-5.871-3.639-5.871S4.788-9.762,3.944-5C3.159-.533,4.969.734,7.7.734ZM19.266-7.249a.367.367,0,0,0,.382.462h.9c1.227,0,2.353-2.755,2.674-3.619a.367.367,0,0,0-.382-.462H21.256c-.4,0-.483.3-.543.6A5.8,5.8,0,0,1,19.266-7.249Zm-3.9,0a.367.367,0,0,0,.382.462h.9c1.227,0,2.353-2.755,2.674-3.619a.367.367,0,0,0-.382-.462H17.355c-.4,0-.483.3-.543.6A5.8,5.8,0,0,1,15.365-7.249Zm18.479,2.9c-.462,2.694-1.609,2.936-2.534,2.936S29.3-1.6,29.782-4.353l1.066-5.972a.375.375,0,0,0-.382-.462H28.978a.559.559,0,0,0-.543.462L27.389-4.454C26.6.01,28.213.734,30.948.734S35.492.01,36.277-4.454l1.046-5.871a.375.375,0,0,0-.382-.462H35.452a.559.559,0,0,0-.543.462Zm6.213,3.3a.707.707,0,0,1-.221-.764l1.508-8.506a.375.375,0,0,0-.382-.462H39.474a.559.559,0,0,0-.543.462L37.322-1.2c-.121.664-.261,1.93,1.146,1.93A3.368,3.368,0,0,0,39.554.573c.322-.1.5-.241.543-.5l.141-.7A.41.41,0,0,0,40.057-1.055Zm5.972-.462c-1.166,0-1.005-1.126-.885-1.729l.362-2.111h1.91a.559.559,0,0,0,.543-.462l.221-1.227A.375.375,0,0,0,47.8-7.51h-1.91l.5-2.815a.375.375,0,0,0-.382-.462H44.883a.6.6,0,0,0-.543.462L43.475-7.51H42.51a.559.559,0,0,0-.543.462l-.221,1.227a.375.375,0,0,0,.382.462h.965l-.3,1.729C42.329-.975,42.651.734,45.345.734A5.065,5.065,0,0,0,46.974.473.613.613,0,0,0,47.4-.11L47.275-1.3a.362.362,0,0,0-.382-.342C46.612-1.639,46.31-1.518,46.029-1.518Zm7.018-6.113a5.707,5.707,0,0,0-3.237.8c-.181.141-.382.282-.4.5L48.261.171a.367.367,0,0,0,.382.462h1.488a.576.576,0,0,0,.543-.462l.885-5.087c.161-.422.865-.543,1.186-.543a2.57,2.57,0,0,1,1.227.362.473.473,0,0,0,.161.04.649.649,0,0,0,.5-.3l.583-.985a.639.639,0,0,0,.06-.181.571.571,0,0,0-.161-.483A2.992,2.992,0,0,0,53.046-7.631ZM59.3-1.94a1.872,1.872,0,0,1-1.146.523c-.684,0-1.146-.282-.885-1.769a2.429,2.429,0,0,1,2.654-2.272Zm3.016-5.208a7.479,7.479,0,0,0-2.634-.483A4.97,4.97,0,0,0,54.7-3.207c-.362,2.071.02,3.941,2.192,3.941A3.232,3.232,0,0,0,58.958-.03l.261.362a.593.593,0,0,0,.543.3h1.046a.576.576,0,0,0,.543-.462l1.186-6.816A.436.436,0,0,0,62.316-7.148Zm14.317-3.639H75.145a.559.559,0,0,0-.543.462l-.724,4.082H70.1l.724-4.082a.375.375,0,0,0-.382-.462H68.951a.559.559,0,0,0-.543.462L66.559.171a.367.367,0,0,0,.382.462h1.488a.576.576,0,0,0,.543-.462l.744-4.243H73.5L72.752.171a.367.367,0,0,0,.382.462h1.488a.576.576,0,0,0,.543-.462l1.85-10.5A.375.375,0,0,0,76.633-10.788ZM80.916.634a4.538,4.538,0,0,0,4.826-4.142l.543-3.137c.483-2.654-.664-4.142-3.358-4.142h-3.76a.559.559,0,0,0-.543.462L76.773.151a.382.382,0,0,0,.382.483Zm2.272-4.142A2.119,2.119,0,0,1,81.1-1.518H79.468l1.267-7.118h1.629c.925,0,1.629.563,1.367,1.991ZM91.452-1.98A.392.392,0,0,0,91.291-2a.616.616,0,0,0-.543.322L90.125-.633c-.04.04-.04.1-.06.141a.568.568,0,0,0,.322.543,7.3,7.3,0,0,0,3,.684c3.217,0,5.067-1.025,5.469-3.378.865-4.826-5.711-3.036-5.329-5.188.141-.8.885-.885,2.332-.885.282,0,1.589.181,2.353.282.3,0,.563-.06.664-.422.181-.684.241-.965.261-1.106.06-.241-.181-.4-.422-.462a15.194,15.194,0,0,0-2.614-.442c-3.639,0-4.725,1.508-5.047,3.378-.664,3.78,5.771,2.554,5.389,4.766-.2,1.146-1.93,1.307-2.453,1.307A8.7,8.7,0,0,1,91.452-1.98ZM99.475.171a.367.367,0,0,0,.382.462h1.488a.576.576,0,0,0,.543-.462l.945-5.449a1.1,1.1,0,0,1,.643-.2c.965,0,1.025.282.764,1.729L103.557.171a.367.367,0,0,0,.382.462h1.488a.576.576,0,0,0,.543-.462l.684-3.921a7.156,7.156,0,0,0,.121-1.528,1.783,1.783,0,0,1,.764-.181c.684,0,1.025.1.764,1.588L107.6.171a.367.367,0,0,0,.382.462h1.488a.576.576,0,0,0,.543-.462l.724-4.122c.362-2.071.261-3.66-1.91-3.66a4.921,4.921,0,0,0-2.473.865,2.964,2.964,0,0,0-2.554-.885,9,9,0,0,0-2.715.442.646.646,0,0,0-.4.5ZM116.2-1.94a1.872,1.872,0,0,1-1.146.523c-.684,0-1.146-.282-.885-1.769a2.429,2.429,0,0,1,2.654-2.272Zm3.016-5.208a7.479,7.479,0,0,0-2.634-.483A4.97,4.97,0,0,0,111.6-3.207c-.362,2.071.02,3.941,2.192,3.941a3.232,3.232,0,0,0,2.071-.764l.261.362a.593.593,0,0,0,.543.3h1.046a.576.576,0,0,0,.543-.462l1.186-6.816A.436.436,0,0,0,119.22-7.148Zm5.429-.483a5.707,5.707,0,0,0-3.237.8c-.181.141-.382.282-.4.5L119.864.171a.367.367,0,0,0,.382.462h1.488a.576.576,0,0,0,.543-.462l.885-5.087c.161-.422.865-.543,1.186-.543a2.57,2.57,0,0,1,1.227.362.473.473,0,0,0,.161.04.649.649,0,0,0,.5-.3l.583-.985a.639.639,0,0,0,.06-.181.571.571,0,0,0-.161-.483A2.992,2.992,0,0,0,124.65-7.631Zm6.8,6.113c-1.166,0-1.005-1.126-.885-1.729l.362-2.111h1.91a.559.559,0,0,0,.543-.462l.221-1.227a.375.375,0,0,0-.382-.462h-1.91l.5-2.815a.375.375,0,0,0-.382-.462H130.3a.6.6,0,0,0-.543.462l-.865,2.815h-.965a.559.559,0,0,0-.543.462l-.221,1.227a.375.375,0,0,0,.382.462h.965l-.3,1.729c-.462,2.654-.141,4.363,2.554,4.363a5.065,5.065,0,0,0,1.629-.261.613.613,0,0,0,.422-.583L132.693-1.3a.362.362,0,0,0-.382-.342C132.029-1.639,131.727-1.518,131.446-1.518Z" transform="translate(414.952 9361.85)" fill="#00aded"/>
  </g>
</svg>
