<svg xmlns="http://www.w3.org/2000/svg" width="243.194" height="76.372" viewBox="0 0 243.194 76.372"><defs><style>.a{fill:#fd0000;}.b{fill:#0854c4;}.c{fill:#ea0c90;}.d{fill:#fff;}</style></defs><g transform="translate(-1447.701 -1045.221)"><path class="a" d="M2.088,7.01h.18a.692.692,0,0,0,.774-.792V6.056a.705.705,0,0,0-.774-.81h-.18a.713.713,0,0,0-.774.81v.162A.692.692,0,0,0,2.088,7.01ZM1.98,17.072h.414c.4,0,.63-.252.576-.81l-.4-7.182c-.036-.288-.09-.468-.324-.468H2.106c-.234,0-.288.18-.324.468l-.4,7.182C1.332,16.82,1.566,17.072,1.98,17.072ZM15.1,15.218a6.208,6.208,0,0,0,1.4-4.05c0-3.546-2.268-6.012-5.652-6.012S5.148,7.658,5.148,11.2,7.434,17.2,10.818,17.2a5.318,5.318,0,0,0,3.42-1.17l.774.792a1.054,1.054,0,0,0,.7.378.815.815,0,0,0,.774-.558ZM6.534,11.186c0-2.88,1.746-4.86,4.3-4.86s4.3,2.016,4.3,4.86a5.1,5.1,0,0,1-.918,3.1L12.078,12.1a.542.542,0,0,0-.828-.09l-.054.036a.576.576,0,0,0,.036.864l2.214,2.268a3.883,3.883,0,0,1-2.61.846C8.3,16.028,6.534,14.048,6.534,11.186ZM25.326,8.342h-.162c-.324,0-.558.144-.558.612V14.3a2.824,2.824,0,0,1-2.646,1.746c-1.458,0-2.268-1.026-2.268-2.682V8.954c0-.468-.234-.612-.576-.612h-.144c-.342,0-.576.144-.576.612v4.5c0,2.214,1.08,3.744,3.294,3.744a3.346,3.346,0,0,0,2.952-1.674c0,.234.018.468.036.7.072.666.4.846.756.846a.671.671,0,0,0,.468-.144V8.954C25.9,8.486,25.668,8.342,25.326,8.342Zm2.16,4.41A4.2,4.2,0,0,0,31.86,17.2a4.413,4.413,0,0,0,2.862-.918,1.59,1.59,0,0,0,.684-1.062.734.734,0,0,0-.738-.684,2.843,2.843,0,0,1-2.79,1.584,3.025,3.025,0,0,1-3.132-2.88,1.275,1.275,0,0,1-.018-.252h6.5c.324,0,.45-.108.45-.414v-.126c0-2.538-1.548-4.23-3.942-4.23A4.262,4.262,0,0,0,27.486,12.752Zm6.912-.7H28.764a3.022,3.022,0,0,1,2.97-2.79A2.635,2.635,0,0,1,34.4,12.05ZM40.842,17.2a3.418,3.418,0,0,0,3.15-1.836c0,.4,0,.756.018,1.116a.5.5,0,0,0,.558.576h.126c.342,0,.576-.144.576-.612V5.876c0-.936-.414-1.152-.846-1.152-.252,0-.45.09-.45.144v5a3.441,3.441,0,0,0-3.1-1.656c-2.3,0-4,1.818-4,4.482C36.882,15.4,38.574,17.2,40.842,17.2Zm3.132-3.906a2.821,2.821,0,0,1-2.9,2.808c-1.692,0-2.9-1.4-2.9-3.4,0-2.034,1.188-3.384,2.916-3.384a2.925,2.925,0,0,1,2.88,2.052Zm3.06,1.494c0,1.458,1.116,2.394,2.916,2.394a3.534,3.534,0,0,0,3.186-1.728c0,.27.018.54.036.792.072.648.378.828.756.828.234,0,.468-.09.468-.144v-5.31c0-2.124-1.242-3.4-3.528-3.4A4.211,4.211,0,0,0,47.9,9.242a1.5,1.5,0,0,0-.522.954c0,.648.756.684.792.666A2.742,2.742,0,0,1,50.8,9.332,2.082,2.082,0,0,1,53.118,11.6v.36h-.2C48.87,12.014,47.034,12.842,47.034,14.786Zm6.084-1.152A2.71,2.71,0,0,1,50.2,16.208c-1.152,0-1.872-.558-1.872-1.458,0-1.314,1.35-1.854,4.482-1.926l.306-.018ZM60.84,8.216a3.257,3.257,0,0,0-2.952,1.71v-.5c-.036-.882-.4-1.08-.792-1.08a.671.671,0,0,0-.468.144v7.956c0,.468.234.612.576.612h.162c.324,0,.558-.144.558-.612V11.1a2.843,2.843,0,0,1,2.664-1.728c1.458,0,2.25,1.026,2.25,2.682v4.392c0,.468.234.612.576.612h.162c.324,0,.558-.144.558-.612v-4.5C64.134,9.746,63.054,8.216,60.84,8.216Zm13.032,0a3.425,3.425,0,0,0-3.15,1.836c0-.234-.018-.522-.018-.738-.054-.756-.414-.972-.792-.972a.608.608,0,0,0-.45.144V19.862c0,.45.234.612.576.612h.144c.324,0,.558-.162.558-.612V15.4a3.349,3.349,0,0,0,3.1,1.8c2.322,0,4-1.836,4-4.518S76.122,8.216,73.872,8.216ZM73.6,16.1a2.828,2.828,0,0,1-2.88-2.808V11.384a3.017,3.017,0,0,1,2.916-2.07c1.674,0,2.916,1.386,2.916,3.384C76.554,14.732,75.366,16.1,73.6,16.1Zm5.454-3.4a4.358,4.358,0,1,0,8.712.036,4.358,4.358,0,1,0-8.712-.036Zm7.452.036A3.12,3.12,0,0,1,83.43,16.1a3.158,3.158,0,0,1-3.114-3.4,3.11,3.11,0,1,1,6.192.036Zm2.5-.054A4.262,4.262,0,0,0,93.33,17.2a3.844,3.844,0,0,0,2.88-1.062,2.04,2.04,0,0,0,.7-1.26c0-.612-.792-.7-.828-.63a2.69,2.69,0,0,1-2.718,1.836,3.12,3.12,0,0,1-3.078-3.4,3.1,3.1,0,0,1,3.078-3.348,2.674,2.674,0,0,1,2.718,1.836c.054.072.828-.036.828-.612a1.985,1.985,0,0,0-.7-1.3,4,4,0,0,0-2.862-1.044A4.251,4.251,0,0,0,89.01,12.68Zm9.072,2.106c0,1.458,1.116,2.394,2.916,2.394a3.534,3.534,0,0,0,3.186-1.728c0,.27.018.54.036.792.072.648.378.828.756.828.234,0,.468-.09.468-.144v-5.31c0-2.124-1.242-3.4-3.528-3.4a4.211,4.211,0,0,0-2.97,1.026,1.5,1.5,0,0,0-.522.954c0,.648.756.684.792.666a2.742,2.742,0,0,1,2.628-1.53,2.082,2.082,0,0,1,2.322,2.268v.36h-.2C99.918,12.014,98.082,12.842,98.082,14.786Zm6.084-1.152a2.71,2.71,0,0,1-2.916,2.574c-1.152,0-1.872-.558-1.872-1.458,0-1.314,1.35-1.854,4.482-1.926l.306-.018ZM107.55,16.3a4.429,4.429,0,0,0,2.934.9c2.106,0,3.42-1.044,3.42-2.61,0-1.764-1.692-2.142-3.1-2.448-1.422-.324-2.322-.54-2.322-1.476,0-.828.756-1.422,2.07-1.422a3.029,3.029,0,0,1,2.556,1.278.719.719,0,0,0,.558-.648,1.054,1.054,0,0,0-.324-.684,3.783,3.783,0,0,0-2.808-.972c-1.98,0-3.258,1.062-3.258,2.592,0,1.746,1.656,2.124,2.97,2.394,1.458.324,2.394.522,2.394,1.53,0,.846-.792,1.422-2.142,1.422a3.4,3.4,0,0,1-2.916-1.35.7.7,0,0,0-.558.63A1.2,1.2,0,0,0,107.55,16.3Zm15.408-8.082a3.135,3.135,0,0,0-2.9,1.764v-4.1c0-.936-.414-1.152-.828-1.152-.252,0-.468.09-.468.144V16.442c0,.468.234.612.576.612h.162c.324,0,.558-.144.558-.612v-4.41a2.532,2.532,0,0,1,2.646-2.646c1.458,0,2.268,1.008,2.268,2.664v4.392c0,.468.234.612.576.612h.162c.324,0,.558-.144.558-.612V11.96C126.27,9.746,125.19,8.216,122.958,8.216Zm5,4.482a4.358,4.358,0,1,0,8.712.036,4.358,4.358,0,1,0-8.712-.036Zm7.452.036a3.12,3.12,0,0,1-3.078,3.366,3.158,3.158,0,0,1-3.114-3.4,3.11,3.11,0,1,1,6.192.036Zm6.534-4.518a2.233,2.233,0,0,0-2.232,1.926c0-.324-.018-.63-.036-.936-.072-.684-.4-.864-.756-.864a.63.63,0,0,0-.468.144v7.956c0,.468.234.612.594.612h.144c.324,0,.558-.162.558-.612v-3.4c0-2.16.648-3.546,2.052-3.546a1.409,1.409,0,0,1,1.026.36c.036.036.4-.18.4-.7C143.226,8.594,142.722,8.216,141.948,8.216Zm2,6.57c0,1.458,1.116,2.394,2.916,2.394a3.534,3.534,0,0,0,3.186-1.728c0,.27.018.54.036.792.072.648.378.828.756.828.234,0,.468-.09.468-.144v-5.31c0-2.124-1.242-3.4-3.528-3.4a4.211,4.211,0,0,0-2.97,1.026,1.5,1.5,0,0,0-.522.954c0,.648.756.684.792.666a2.742,2.742,0,0,1,2.628-1.53A2.082,2.082,0,0,1,150.03,11.6v.36h-.2C145.782,12.014,143.946,12.842,143.946,14.786Zm6.084-1.152a2.71,2.71,0,0,1-2.916,2.574c-1.152,0-1.872-.558-1.872-1.458,0-1.314,1.35-1.854,4.482-1.926l.306-.018Zm3.384,2.664a4.429,4.429,0,0,0,2.934.9c2.106,0,3.42-1.044,3.42-2.61,0-1.764-1.692-2.142-3.1-2.448-1.422-.324-2.322-.54-2.322-1.476,0-.828.756-1.422,2.07-1.422a3.029,3.029,0,0,1,2.556,1.278.719.719,0,0,0,.558-.648,1.054,1.054,0,0,0-.324-.684,3.783,3.783,0,0,0-2.808-.972c-1.98,0-3.258,1.062-3.258,2.592,0,1.746,1.656,2.124,2.97,2.394,1.458.324,2.394.522,2.394,1.53,0,.846-.792,1.422-2.142,1.422a3.4,3.4,0,0,1-2.916-1.35.7.7,0,0,0-.558.63A1.2,1.2,0,0,0,153.414,16.3Zm9.09-2.574h.144c.234,0,.288-.162.324-.45l.4-7.182c.054-.558-.18-.828-.594-.828h-.414c-.4,0-.63.27-.576.828l.414,7.164C162.216,13.562,162.288,13.724,162.5,13.724Zm-.018,3.384h.18a.705.705,0,0,0,.774-.81v-.162a.705.705,0,0,0-.774-.81h-.18a.705.705,0,0,0-.774.81V16.3A.713.713,0,0,0,162.486,17.108Z" transform="translate(1527.455 1080.863)"/><path class="b" d="M.966,12.4c0,.434.168.658.56.658H1.75c.42,0,.588-.224.588-.658V5.79l1.974,4.466a.832.832,0,0,0,.924.616.832.832,0,0,0,.924-.616l2-4.508V12.4c0,.434.168.658.574.658h.2c.42,0,.6-.224.6-.658V4.684a.773.773,0,0,0-.854-.8H8.33c-.532,0-.7.2-.924.728L5.25,9.444,3.108,4.614c-.224-.518-.378-.728-.938-.728H1.792a.757.757,0,0,0-.826.8ZM13.02,5.23c.182,0,2.548-.644,2.548-1.68a.58.58,0,0,0-.6-.63c-1.05,0-2.058,2-2.058,2.24C12.908,5.216,12.964,5.23,13.02,5.23Zm-2.058,6.006c0,1.148.854,1.918,2.3,1.918a2.911,2.911,0,0,0,2.422-1.162,2.082,2.082,0,0,0,.056.462.751.751,0,0,0,.8.616c.252,0,.5-.084.5-.154V8.786C17.038,7.078,16,6.1,14.1,6.1a3.575,3.575,0,0,0-2.422.77,1.223,1.223,0,0,0-.462.84c0,.672.854.686.854.672A2.035,2.035,0,0,1,14,7.232a1.464,1.464,0,0,1,1.666,1.582v.14h-.182C12.446,9.01,10.962,9.682,10.962,11.236Zm4.7-.9a1.886,1.886,0,0,1-2.072,1.82c-.8,0-1.274-.378-1.274-.98,0-.91,1.008-1.274,2.968-1.344l.378-.014Zm3.052,2.24a4.022,4.022,0,0,0,2.31.588c1.736,0,2.8-.826,2.8-2.114,0-1.456-1.442-1.764-2.478-1.988-1.092-.238-1.68-.378-1.68-.994,0-.56.5-.924,1.456-.924A2.435,2.435,0,0,1,23.1,8.1a.736.736,0,0,0,.56-.644.822.822,0,0,0-.168-.476A2.873,2.873,0,0,0,21.07,6.1c-1.638,0-2.688.854-2.688,2.114,0,1.428,1.372,1.736,2.366,1.946,1.106.238,1.736.364,1.736,1.05,0,.56-.532.91-1.484.91a2.772,2.772,0,0,1-2.268-1.008.708.708,0,0,0-.546.63A1.1,1.1,0,0,0,18.718,12.58ZM27.5,4.11a.751.751,0,0,0,.826.8.738.738,0,0,0,.826-.8.744.744,0,0,0-.812-.812A.759.759,0,0,0,27.5,4.11Zm.112,8.288c0,.5.266.658.63.658h.14c.364,0,.616-.154.616-.658V6.868c0-.518-.252-.672-.616-.672h-.14c-.364,0-.63.168-.63.672Zm6.776-6.3a2.612,2.612,0,0,0-2.24,1.19c-.028-.9-.49-1.092-.868-1.092a.688.688,0,0,0-.5.154V12.4c0,.5.252.658.616.658h.154c.35,0,.616-.154.616-.658V8.492a2.035,2.035,0,0,1,1.89-1.176c.98,0,1.554.7,1.554,1.834V12.4c0,.5.252.658.616.658h.154c.35,0,.616-.154.616-.658V8.982C36.988,7.316,36.162,6.1,34.384,6.1Zm4.9,6.3c0,.5.266.658.63.658h.14c.364,0,.6-.154.6-.658v-5h1.106c.448,0,.616-.182.616-.518v-.1c0-.336-.168-.518-.616-.518H40.628v-.49c0-.952.294-1.372.966-1.372A1.515,1.515,0,0,1,42.6,4.8a.646.646,0,0,0,.336-.6.742.742,0,0,0-.364-.63,2.062,2.062,0,0,0-1.148-.28c-1.344,0-2.142.784-2.142,2.478v.5H38.5c-.448,0-.616.168-.616.5v.1c0,.35.168.532.616.532h.784Zm3.528-2.772a3.528,3.528,0,1,0,7.056.028,3.528,3.528,0,1,0-7.056-.028Zm5.768.028a2.259,2.259,0,0,1-2.24,2.394,2.286,2.286,0,0,1-2.254-2.422,2.252,2.252,0,1,1,4.494.028Zm4.508,1.54c0,1.176.868,1.96,2.3,1.96a2.73,2.73,0,0,0,2.366-1.176,2.8,2.8,0,0,0,.112.462A1.02,1.02,0,0,0,58.9,13.1c.378,0,.742-.126.742-.224V8.842c0-1.834-1.05-2.828-3.22-2.828a3.682,3.682,0,0,0-2.66.8,1.25,1.25,0,0,0-.42.9c0,.91,1.26.812,1.274.784a1.712,1.712,0,0,1,1.68-.994A1.208,1.208,0,0,1,57.68,8.73a.861.861,0,0,1,.014.2H57.47C54.572,8.968,53.088,9.668,53.088,11.194Zm4.606-.784A1.54,1.54,0,0,1,56,11.88c-.658,0-1.064-.322-1.064-.84,0-.77.826-1.064,2.38-1.12h.378ZM67.27,6.1a1.107,1.107,0,0,0-1.162,1.078,2.507,2.507,0,0,0-2.226-1.162c-1.89,0-3.178,1.414-3.178,3.584,0,2.142,1.288,3.6,3.136,3.6a2.49,2.49,0,0,0,2.2-1.246v2.828c0,.714.378.952.882.952h.21c.518,0,.882-.224.882-.952V6.322A1.06,1.06,0,0,0,67.27,6.1ZM66.052,9.976a1.651,1.651,0,0,1-1.722,1.638A1.817,1.817,0,0,1,62.58,9.6a1.78,1.78,0,0,1,1.778-2A1.744,1.744,0,0,1,66.052,8.7ZM75.25,6.1h-.21c-.5,0-.854.238-.854.952v3.584a1.661,1.661,0,0,1-1.484.9c-.812,0-1.288-.546-1.288-1.47V7.05c0-.728-.364-.952-.882-.952h-.224c-.49,0-.854.238-.854.952v3.3c0,1.582.742,2.828,2.52,2.828a2.579,2.579,0,0,0,2.254-1.246,2.291,2.291,0,0,0,.07.378,1.1,1.1,0,0,0,1.106.742c.392,0,.742-.154.742-.224V7.05C76.146,6.322,75.782,6.1,75.25,6.1Zm2.436-.784c.588,0,2.632-.7,2.632-1.764a.772.772,0,0,0-.8-.826c-1.162,0-2.114,1.96-2.114,2.394C77.406,5.272,77.5,5.314,77.686,5.314Zm.882,7.742h.21c.5,0,.868-.224.868-.938V7.05c0-.728-.35-.952-.882-.952h-.2c-.518,0-.9.238-.9.952v5.068C77.672,12.846,78.05,13.056,78.568,13.056Zm2.478-.882a.837.837,0,0,0,.938.938h.238a.841.841,0,0,0,.952-.938v-.2a.835.835,0,0,0-.952-.938h-.238a.831.831,0,0,0-.938.938Z" transform="translate(1508.42 1105.863)"/><path class="b" d="M2.64,21.088H3.1a1.311,1.311,0,0,0,1.43-1.474V16.38H6.688c3.806,0,5.83-1.628,5.83-4.8,0-3.146-2.09-4.818-5.852-4.818H2.97a1.6,1.6,0,0,0-1.694,1.8V19.614C1.276,20.582,1.76,21.088,2.64,21.088Zm3.982-7.15H4.488V9.3H6.6c1.8,0,2.75.792,2.75,2.31S8.4,13.938,6.622,13.938ZM13.6,18.162c0,1.848,1.364,3.08,3.608,3.08a4.29,4.29,0,0,0,3.718-1.848,4.4,4.4,0,0,0,.176.726,1.6,1.6,0,0,0,1.628,1.034c.594,0,1.166-.2,1.166-.352V14.466c0-2.882-1.65-4.444-5.06-4.444-2.068,0-3.454.506-4.18,1.254a1.964,1.964,0,0,0-.66,1.408c0,1.43,1.98,1.276,2,1.232a2.69,2.69,0,0,1,2.64-1.562,1.9,1.9,0,0,1,2.178,1.936,1.353,1.353,0,0,1,.022.308h-.352C15.928,14.664,13.6,15.764,13.6,18.162Zm7.238-1.232a2.42,2.42,0,0,1-2.662,2.31c-1.034,0-1.672-.506-1.672-1.32,0-1.21,1.3-1.672,3.74-1.76h.594ZM31.79,10.022a2.681,2.681,0,0,0-2.662,2.046,4.923,4.923,0,0,0-.154-.748,1.715,1.715,0,0,0-1.694-1.166c-.638,0-1.166.242-1.166.352v9.108c0,1.144.572,1.474,1.408,1.474h.33c.792,0,1.364-.352,1.364-1.474V16.4c0-2.156.66-3.476,2.156-3.476a2.148,2.148,0,0,1,1.408.528,1.6,1.6,0,0,0,.99-1.628A1.762,1.762,0,0,0,31.79,10.022Zm7.854,11.286a3.208,3.208,0,0,0,2.31-.792,1.571,1.571,0,0,0,.528-1.188,1.219,1.219,0,0,0-.77-1.21,1.575,1.575,0,0,1-1.342.726c-.858,0-1.188-.528-1.188-1.584V12.684h1.892c.88,0,1.276-.4,1.276-1.144v-.2c0-.7-.374-1.078-1.254-1.078h-1.87V8.9c0-1.144-.55-1.5-1.364-1.5h-.286c-.88,0-1.386.484-1.386,1.5v1.364h-.572c-.858,0-1.254.418-1.254,1.144v.176c0,.7.4,1.1,1.276,1.1h.55v4.928C36.19,20.054,37.29,21.308,39.644,21.308ZM43.912,6.964A1.563,1.563,0,0,0,45.65,8.57a1.541,1.541,0,0,0,1.738-1.606,1.743,1.743,0,0,0-3.476,0Zm.176,12.65c0,1.144.572,1.474,1.408,1.474H45.8c.814,0,1.386-.352,1.386-1.474V11.65c0-1.144-.572-1.5-1.386-1.5h-.33c-.792,0-1.386.374-1.386,1.5Zm4.95-3.982a5.4,5.4,0,0,0,5.61,5.676,5.334,5.334,0,0,0,3.5-1.1,2.48,2.48,0,0,0,1.078-1.8c0-1.342-1.672-1.518-1.738-1.386A2.683,2.683,0,0,1,54.78,18.8a2.931,2.931,0,0,1-2.9-3.168,2.911,2.911,0,0,1,2.9-3.1,2.646,2.646,0,0,1,2.706,1.782c.066.132,1.738-.11,1.738-1.364A2.589,2.589,0,0,0,58.168,11.1a5.771,5.771,0,0,0-9.13,4.532ZM60.786,6.964A1.563,1.563,0,0,0,62.524,8.57a1.541,1.541,0,0,0,1.738-1.606,1.743,1.743,0,0,0-3.476,0Zm.176,12.65c0,1.144.572,1.474,1.408,1.474h.308c.814,0,1.386-.352,1.386-1.474V11.65c0-1.144-.572-1.5-1.386-1.5h-.33c-.792,0-1.386.374-1.386,1.5Zm12.056-9.592a3.763,3.763,0,0,0-3.52,2.112c-.022-.176-.044-.4-.066-.484a1.735,1.735,0,0,0-1.782-1.5c-.638,0-1.188.242-1.188.352V23.794c0,1.144.572,1.5,1.408,1.5h.33c.792,0,1.364-.374,1.364-1.5V19.35A3.8,3.8,0,0,0,73,21.308c2.948,0,4.972-2.332,4.972-5.676C77.968,12.2,75.922,10.022,73.018,10.022Zm-.792,8.8a2.547,2.547,0,0,1-2.662-2.53V14.268a2.788,2.788,0,0,1,2.706-1.76c1.606,0,2.728,1.254,2.728,3.146S73.9,18.822,72.226,18.822Zm6.974-.66c0,1.848,1.364,3.08,3.608,3.08a4.29,4.29,0,0,0,3.718-1.848,4.4,4.4,0,0,0,.176.726,1.6,1.6,0,0,0,1.628,1.034c.594,0,1.166-.2,1.166-.352V14.466c0-2.882-1.65-4.444-5.06-4.444-2.068,0-3.454.506-4.18,1.254a1.964,1.964,0,0,0-.66,1.408c0,1.43,1.98,1.276,2,1.232a2.69,2.69,0,0,1,2.64-1.562,1.9,1.9,0,0,1,2.178,1.936,1.353,1.353,0,0,1,.022.308h-.352C81.532,14.664,79.2,15.764,79.2,18.162Zm7.238-1.232a2.42,2.42,0,0,1-2.662,2.31c-1.034,0-1.672-.506-1.672-1.32,0-1.21,1.3-1.672,3.74-1.76h.594Zm12.606,8.294c.682,0,1.3-.352,1.76-1.518l4.884-12.694c.066-.154-.814-.88-1.672-.88-.7,0-1.364.374-1.738,1.584l-2.068,6.138-2.288-6.16c-.4-1.188-1.012-1.562-1.76-1.562-.946.022-1.76.748-1.694.924l3.7,8.558a1.108,1.108,0,0,0,.99.7l-1.76,4.048C97.328,24.52,98.142,25.224,99.044,25.224Zm23.98-12.012h-4c-1.056,0-1.562.242-1.562,1.166v.132c0,.88.506,1.166,1.54,1.166h2.442l-.066.7c-.286,1.43-1.628,2.376-3.476,2.376-2.53,0-4.158-1.936-4.158-4.752,0-2.838,1.826-4.752,4.356-4.752a4.416,4.416,0,0,1,3.652,1.87,1.681,1.681,0,0,0,1.694-1.54A2.657,2.657,0,0,0,121.99,7.47a7.493,7.493,0,0,0-4.048-1.012,7.144,7.144,0,0,0-7.5,7.436c0,4.268,2.684,7.348,6.71,7.348a4.939,4.939,0,0,0,4.488-2.156,1.3,1.3,0,0,0,.044.308c.176,1.386.88,1.694,1.606,1.694a1.576,1.576,0,0,0,1.078-.308V14.752C124.366,13.74,124.036,13.212,123.024,13.212Zm3.036,4.95c0,1.848,1.364,3.08,3.608,3.08a4.29,4.29,0,0,0,3.718-1.848,4.4,4.4,0,0,0,.176.726,1.6,1.6,0,0,0,1.628,1.034c.594,0,1.166-.2,1.166-.352V14.466c0-2.882-1.65-4.444-5.06-4.444-2.068,0-3.454.506-4.18,1.254a1.964,1.964,0,0,0-.66,1.408c0,1.43,1.98,1.276,2,1.232a2.69,2.69,0,0,1,2.64-1.562,1.9,1.9,0,0,1,2.178,1.936,1.353,1.353,0,0,1,.022.308h-.352C128.392,14.664,126.06,15.764,126.06,18.162ZM133.3,16.93a2.42,2.42,0,0,1-2.662,2.31c-1.034,0-1.672-.506-1.672-1.32,0-1.21,1.3-1.672,3.74-1.76h.594Zm11.836-6.908a4.071,4.071,0,0,0-3.542,1.936,1.781,1.781,0,0,0-1.848-1.8c-.616,0-1.166.242-1.166.352v9.108c0,1.144.572,1.474,1.408,1.474h.33c.792,0,1.364-.352,1.364-1.474V14.026a2.594,2.594,0,0,1,2.354-1.408c1.254,0,1.98.88,1.98,2.31v4.686c0,1.144.572,1.474,1.386,1.474h.33c.792,0,1.386-.352,1.386-1.474v-5.17C149.116,12,147.928,10.022,145.134,10.022Zm5.654,8.14c0,1.848,1.364,3.08,3.608,3.08a4.29,4.29,0,0,0,3.718-1.848,4.4,4.4,0,0,0,.176.726,1.6,1.6,0,0,0,1.628,1.034c.594,0,1.166-.2,1.166-.352V14.466c0-2.882-1.65-4.444-5.06-4.444-2.068,0-3.454.506-4.18,1.254a1.964,1.964,0,0,0-.66,1.408c0,1.43,1.98,1.276,2,1.232a2.69,2.69,0,0,1,2.64-1.562A1.9,1.9,0,0,1,158,14.29a1.353,1.353,0,0,1,.022.308h-.352C153.12,14.664,150.788,15.764,150.788,18.162Zm7.238-1.232a2.42,2.42,0,0,1-2.662,2.31c-1.034,0-1.672-.506-1.672-1.32,0-1.21,1.3-1.672,3.74-1.76h.594ZM5.346,39.108c.558,0,.756-.18.882-.5l4.212-10.89c.036-.108-.324-.4-.7-.414a.756.756,0,0,0-.828.63l-3.546,9.7-3.51-9.7A.793.793,0,0,0,.99,27.3c-.4.018-.756.306-.72.414L4.464,38.6C4.608,38.928,4.788,39.108,5.346,39.108Zm5.922-2.322c0,1.458,1.116,2.394,2.916,2.394a3.534,3.534,0,0,0,3.186-1.728c0,.27.018.54.036.792.072.648.378.828.756.828.234,0,.468-.09.468-.144v-5.31c0-2.124-1.242-3.4-3.528-3.4a4.211,4.211,0,0,0-2.97,1.026,1.5,1.5,0,0,0-.522.954c0,.648.756.684.792.666a2.742,2.742,0,0,1,2.628-1.53A2.082,2.082,0,0,1,17.352,33.6v.36h-.2C13.1,34.014,11.268,34.842,11.268,36.786Zm6.084-1.152a2.71,2.71,0,0,1-2.916,2.574c-1.152,0-1.872-.558-1.872-1.458,0-1.314,1.35-1.854,4.482-1.926l.306-.018Zm4.176,3.42h.144c.342,0,.576-.144.576-.612V27.876c0-.936-.414-1.152-.828-1.152-.252,0-.468.09-.468.144V38.442C20.952,38.91,21.186,39.054,21.528,39.054Zm2.574-4.3A4.2,4.2,0,0,0,28.476,39.2a4.413,4.413,0,0,0,2.862-.918,1.59,1.59,0,0,0,.684-1.062.734.734,0,0,0-.738-.684,2.843,2.843,0,0,1-2.79,1.584,3.025,3.025,0,0,1-3.132-2.88,1.275,1.275,0,0,1-.018-.252h6.5c.324,0,.45-.108.45-.414v-.126c0-2.538-1.548-4.23-3.942-4.23A4.262,4.262,0,0,0,24.1,34.752Zm6.912-.7H25.38a3.022,3.022,0,0,1,2.97-2.79A2.635,2.635,0,0,1,31.014,34.05Zm2.9,4.248a4.429,4.429,0,0,0,2.934.9c2.106,0,3.42-1.044,3.42-2.61,0-1.764-1.692-2.142-3.1-2.448-1.422-.324-2.322-.54-2.322-1.476,0-.828.756-1.422,2.07-1.422a3.029,3.029,0,0,1,2.556,1.278.719.719,0,0,0,.558-.648,1.054,1.054,0,0,0-.324-.684,3.783,3.783,0,0,0-2.808-.972c-1.98,0-3.258,1.062-3.258,2.592,0,1.746,1.656,2.124,2.97,2.394,1.458.324,2.394.522,2.394,1.53,0,.846-.792,1.422-2.142,1.422a3.4,3.4,0,0,1-2.916-1.35.7.7,0,0,0-.558.63A1.2,1.2,0,0,0,33.912,38.3Zm14.634.9a3.418,3.418,0,0,0,3.15-1.836c0,.4,0,.756.018,1.116a.5.5,0,0,0,.558.576H52.4c.342,0,.576-.144.576-.612V27.876c0-.936-.414-1.152-.846-1.152-.252,0-.45.09-.45.144v5a3.441,3.441,0,0,0-3.1-1.656c-2.3,0-4,1.818-4,4.482C44.586,37.4,46.278,39.2,48.546,39.2Zm3.132-3.906a2.821,2.821,0,0,1-2.9,2.808c-1.692,0-2.9-1.4-2.9-3.4,0-2.034,1.188-3.384,2.916-3.384a2.925,2.925,0,0,1,2.88,2.052Zm3.06-.54A4.2,4.2,0,0,0,59.112,39.2a4.413,4.413,0,0,0,2.862-.918,1.59,1.59,0,0,0,.684-1.062.734.734,0,0,0-.738-.684,2.843,2.843,0,0,1-2.79,1.584A3.025,3.025,0,0,1,56,35.238a1.275,1.275,0,0,1-.018-.252h6.5c.324,0,.45-.108.45-.414v-.126c0-2.538-1.548-4.23-3.942-4.23A4.262,4.262,0,0,0,54.738,34.752Zm6.912-.7H56.016a3.022,3.022,0,0,1,2.97-2.79A2.635,2.635,0,0,1,61.65,34.05Zm10.3-3.834a3.135,3.135,0,0,0-2.9,1.764v-4.1c0-.936-.414-1.152-.828-1.152-.252,0-.468.09-.468.144V38.442c0,.468.234.612.576.612h.162c.324,0,.558-.144.558-.612v-4.41a2.532,2.532,0,0,1,2.646-2.646c1.458,0,2.268,1.008,2.268,2.664v4.392c0,.468.234.612.576.612H74.7c.324,0,.558-.144.558-.612V33.96C75.258,31.746,74.178,30.216,71.946,30.216Zm5,6.57c0,1.458,1.116,2.394,2.916,2.394a3.534,3.534,0,0,0,3.186-1.728c0,.27.018.54.036.792.072.648.378.828.756.828.234,0,.468-.09.468-.144v-5.31c0-2.124-1.242-3.4-3.528-3.4a4.211,4.211,0,0,0-2.97,1.026,1.5,1.5,0,0,0-.522.954c0,.648.756.684.792.666a2.742,2.742,0,0,1,2.628-1.53A2.082,2.082,0,0,1,83.034,33.6v.36h-.2C78.786,34.014,76.95,34.842,76.95,36.786Zm6.084-1.152a2.71,2.71,0,0,1-2.916,2.574c-1.152,0-1.872-.558-1.872-1.458,0-1.314,1.35-1.854,4.482-1.926l.306-.018ZM86.418,38.3a4.429,4.429,0,0,0,2.934.9c2.106,0,3.42-1.044,3.42-2.61,0-1.764-1.692-2.142-3.1-2.448-1.422-.324-2.322-.54-2.322-1.476,0-.828.756-1.422,2.07-1.422A3.029,3.029,0,0,1,91.98,32.52a.719.719,0,0,0,.558-.648,1.054,1.054,0,0,0-.324-.684,3.783,3.783,0,0,0-2.808-.972c-1.98,0-3.258,1.062-3.258,2.592,0,1.746,1.656,2.124,2.97,2.394,1.458.324,2.394.522,2.394,1.53,0,.846-.792,1.422-2.142,1.422a3.4,3.4,0,0,1-2.916-1.35.7.7,0,0,0-.558.63A1.2,1.2,0,0,0,86.418,38.3Zm11.016.9a2.114,2.114,0,0,0,1.494-.5.9.9,0,0,0,.324-.666c0-.45-.306-.63-.36-.594a1.5,1.5,0,0,1-1.278.666c-.9,0-1.278-.54-1.278-1.8V31.512h2.178c.414,0,.576-.18.576-.5V30.9c0-.324-.162-.486-.558-.486H96.354V28.9c0-.468-.216-.63-.558-.63h-.144c-.342,0-.576.18-.576.63v1.512H94.23c-.414,0-.558.18-.558.486v.126c0,.306.144.486.558.486h.846V36.5C95.076,38.316,95.85,39.2,97.434,39.2Zm2.718-2.412c0,1.458,1.116,2.394,2.916,2.394a3.534,3.534,0,0,0,3.186-1.728c0,.27.018.54.036.792.072.648.378.828.756.828.234,0,.468-.09.468-.144v-5.31c0-2.124-1.242-3.4-3.528-3.4a4.211,4.211,0,0,0-2.97,1.026,1.5,1.5,0,0,0-.522.954c0,.648.756.684.792.666a2.742,2.742,0,0,1,2.628-1.53,2.082,2.082,0,0,1,2.322,2.268v.36h-.2C101.988,34.014,100.152,34.842,100.152,36.786Zm6.084-1.152a2.71,2.71,0,0,1-2.916,2.574c-1.152,0-1.872-.558-1.872-1.458,0-1.314,1.35-1.854,4.482-1.926l.306-.018Zm6.642,2.34a5.059,5.059,0,0,0,3.6,1.224c2.484,0,4.086-1.3,4.086-3.33,0-2.232-1.854-2.934-3.744-3.384-1.674-.414-2.9-.7-2.9-2.124,0-1.26,1.08-2.07,2.61-2.07A3.471,3.471,0,0,1,119.646,30a.872.872,0,0,0,.666-.774,1.552,1.552,0,0,0-.558-1.026,4.781,4.781,0,0,0-3.222-1.044c-2.268,0-3.924,1.332-3.924,3.24,0,2.25,1.764,2.844,3.546,3.294,1.638.4,3.078.756,3.078,2.25,0,1.332-1.062,2.124-2.772,2.124a3.817,3.817,0,0,1-3.492-1.944.86.86,0,0,0-.648.756A1.687,1.687,0,0,0,112.878,37.974Zm9.27,4.59a.609.609,0,0,0,.27-.054l4.176-14a2.512,2.512,0,0,0,.126-.594c0-.558-.414-.648-.756-.648a.518.518,0,0,0-.288.054L121.482,41.3a2.088,2.088,0,0,0-.108.576C121.356,42.456,121.752,42.564,122.148,42.564ZM134.46,39.2c2.646,0,4.266-1.314,4.266-3.42a3.022,3.022,0,0,0-2.394-3.006,2.512,2.512,0,0,0,2.07-2.538c0-1.908-1.44-3.078-3.924-3.078a4.661,4.661,0,0,0-3.1,1.08,1.848,1.848,0,0,0-.684,1.152.751.751,0,0,0,.792.7,3.122,3.122,0,0,1,2.952-1.836c1.638,0,2.628.81,2.628,2.052,0,1.26-.9,2.016-2.466,2.016h-1.188c-.378,0-.594.144-.594.5v.108c0,.288.18.486.63.486h1.008c1.872,0,2.916.828,2.916,2.322,0,1.422-1.134,2.322-2.916,2.322a3.248,3.248,0,0,1-3.312-2.142.719.719,0,0,0-.792.72A2.159,2.159,0,0,0,131.2,38.1,4.807,4.807,0,0,0,134.46,39.2Zm10.566,0c2.862,0,4.644-2.106,4.644-5.454v-1.17c0-3.33-1.764-5.418-4.626-5.418-2.844,0-4.608,2.088-4.608,5.436V33.78C140.436,37.128,142.182,39.2,145.026,39.2Zm.018-1.152c-2.016,0-3.24-1.584-3.24-4.266V32.538c0-2.664,1.206-4.248,3.24-4.248s3.258,1.6,3.258,4.284V33.8C148.3,36.48,147.1,38.046,145.044,38.046ZM156.168,39.2c2.862,0,4.644-2.106,4.644-5.454v-1.17c0-3.33-1.764-5.418-4.626-5.418-2.844,0-4.608,2.088-4.608,5.436V33.78C151.578,37.128,153.324,39.2,156.168,39.2Zm.018-1.152c-2.016,0-3.24-1.584-3.24-4.266V32.538c0-2.664,1.206-4.248,3.24-4.248s3.258,1.6,3.258,4.284V33.8C159.444,36.48,158.238,38.046,156.186,38.046Z" transform="translate(1508.42 1039.863)"/><g transform="translate(-2925.668 780.373)"><path class="c" d="M4388.253,296.88a6.936,6.936,0,0,0,.126.884l.235,1.126v0l.974-.762A7.245,7.245,0,0,0,4388.253,296.88Z" transform="translate(1.899 3.195)"/><path class="c" d="M4400.2,271.831a26.829,26.829,0,0,0-26.829,26.829c0,.134,0,.268.005.4.938,1.146,3.037,3.221,5.093,3.382a3.494,3.494,0,0,0,2.82-1.2,7.137,7.137,0,0,1,5.5-2.457,5.642,5.642,0,0,1,1.288.236,8.985,8.985,0,0,1,7.114-8.262l13.074-2.739a8.978,8.978,0,0,1,10.618,6.939l.236,1.126a8.978,8.978,0,0,1-6.939,10.617l-13.074,2.74a8.98,8.98,0,0,1-10.494-6.428c-.007-.026-.013-.047-.019-.064a9.16,9.16,0,0,1-.289-1.151,3.713,3.713,0,0,0-1.687-.55,4.838,4.838,0,0,0-3.583,1.739,5.975,5.975,0,0,1-4.3,1.932c-.154,0-.31-.007-.467-.019a8.626,8.626,0,0,1-4.572-2.063,26.83,26.83,0,1,0,26.5-31.012Z" transform="translate(0 0)"/><path class="c" d="M4400.559,304.34l8.119-1.7a6.909,6.909,0,0,0,5.339-8.168l-.237-1.125a6.906,6.906,0,0,0-8.167-5.338l-8.12,1.7a16.111,16.111,0,0,1,3.066,14.631Z" transform="translate(3.077 2.045)"/><path class="c" d="M4396.785,305.114l2.615-.548a14.026,14.026,0,0,0-3.065-14.631l-2.615.548a6.909,6.909,0,0,0-5.463,7.283,7.252,7.252,0,0,1,1.336,1.252l-.975.762A6.907,6.907,0,0,0,4396.785,305.114Zm-4.831-7.682,4.31-.9a1.035,1.035,0,0,1,.424,2.026l-4.309.9a1.035,1.035,0,1,1-.425-2.026Z" transform="translate(1.896 2.309)"/><path class="d" d="M4392.052,298.715l4.309-.9a1.035,1.035,0,0,0-.424-2.026l-4.309.9a1.035,1.035,0,1,0,.425,2.026Z" transform="translate(2.223 3.053)"/><path class="d" d="M4393.952,290.982l2.615-.548a14.023,14.023,0,0,1,3.065,14.631l-2.615.548a6.906,6.906,0,0,1-8.167-5.335l-.972.76a5.149,5.149,0,0,0-1.238-1.043,9.161,9.161,0,0,0,.289,1.151c.005.017.011.038.018.064a8.981,8.981,0,0,0,10.494,6.428l13.074-2.74a8.977,8.977,0,0,0,6.938-10.617l-.236-1.126a8.977,8.977,0,0,0-10.618-6.939l-13.074,2.739a8.985,8.985,0,0,0-7.114,8.262,6.809,6.809,0,0,1,2.075,1.048A6.91,6.91,0,0,1,4393.952,290.982Zm13.074-2.739a6.906,6.906,0,0,1,8.167,5.338l.237,1.125a6.909,6.909,0,0,1-5.339,8.168l-8.119,1.7a16.111,16.111,0,0,0-3.066-14.631Z" transform="translate(1.664 1.811)"/><path class="d" d="M4378.733,301.877a5.975,5.975,0,0,0,4.3-1.932,4.838,4.838,0,0,1,3.583-1.739,3.713,3.713,0,0,1,1.687.55c-.093-.5-.136-.874-.136-.874a8.948,8.948,0,0,1-.091-1.9,5.64,5.64,0,0,0-1.288-.236,7.137,7.137,0,0,0-5.5,2.457,3.494,3.494,0,0,1-2.82,1.2c-2.057-.16-4.155-2.236-5.093-3.382a26.936,26.936,0,0,0,.321,3.781,8.626,8.626,0,0,0,4.572,2.063C4378.423,301.87,4378.58,301.877,4378.733,301.877Z" transform="translate(0.001 3.049)"/><path class="d" d="M4386.506,297.855s.043.378.136.874a5.15,5.15,0,0,1,1.238,1.043l.972-.76v0l-.235-1.126a6.85,6.85,0,0,1-.126-.884,6.809,6.809,0,0,0-2.075-1.048A8.948,8.948,0,0,0,4386.506,297.855Z" transform="translate(1.662 3.077)"/></g></g></svg>