<svg xmlns="http://www.w3.org/2000/svg" width="272.411" height="76.95" viewBox="0 0 272.411 76.95"><defs><style>.a{fill:#fd0000;}.b{fill:#0854c4;}.c{fill:#00aded;}.d{fill:#fff;}</style></defs><g transform="translate(-1438 -773.485)"><path class="a" d="M2.088,7.01h.18a.692.692,0,0,0,.774-.792V6.056a.705.705,0,0,0-.774-.81h-.18a.713.713,0,0,0-.774.81v.162A.692.692,0,0,0,2.088,7.01ZM1.98,17.072h.414c.4,0,.63-.252.576-.81l-.4-7.182c-.036-.288-.09-.468-.324-.468H2.106c-.234,0-.288.18-.324.468l-.4,7.182C1.332,16.82,1.566,17.072,1.98,17.072ZM15.1,15.218a6.208,6.208,0,0,0,1.4-4.05c0-3.546-2.268-6.012-5.652-6.012S5.148,7.658,5.148,11.2,7.434,17.2,10.818,17.2a5.318,5.318,0,0,0,3.42-1.17l.774.792a1.054,1.054,0,0,0,.7.378.815.815,0,0,0,.774-.558ZM6.534,11.186c0-2.88,1.746-4.86,4.3-4.86s4.3,2.016,4.3,4.86a5.1,5.1,0,0,1-.918,3.1L12.078,12.1a.542.542,0,0,0-.828-.09l-.054.036a.576.576,0,0,0,.036.864l2.214,2.268a3.883,3.883,0,0,1-2.61.846C8.3,16.028,6.534,14.048,6.534,11.186ZM25.326,8.342h-.162c-.324,0-.558.144-.558.612V14.3a2.824,2.824,0,0,1-2.646,1.746c-1.458,0-2.268-1.026-2.268-2.682V8.954c0-.468-.234-.612-.576-.612h-.144c-.342,0-.576.144-.576.612v4.5c0,2.214,1.08,3.744,3.294,3.744a3.346,3.346,0,0,0,2.952-1.674c0,.234.018.468.036.7.072.666.4.846.756.846a.671.671,0,0,0,.468-.144V8.954C25.9,8.486,25.668,8.342,25.326,8.342Zm2.16,4.41A4.2,4.2,0,0,0,31.86,17.2a4.413,4.413,0,0,0,2.862-.918,1.59,1.59,0,0,0,.684-1.062.734.734,0,0,0-.738-.684,2.843,2.843,0,0,1-2.79,1.584,3.025,3.025,0,0,1-3.132-2.88,1.275,1.275,0,0,1-.018-.252h6.5c.324,0,.45-.108.45-.414v-.126c0-2.538-1.548-4.23-3.942-4.23A4.262,4.262,0,0,0,27.486,12.752Zm6.912-.7H28.764a3.022,3.022,0,0,1,2.97-2.79A2.635,2.635,0,0,1,34.4,12.05ZM40.842,17.2a3.418,3.418,0,0,0,3.15-1.836c0,.4,0,.756.018,1.116a.5.5,0,0,0,.558.576h.126c.342,0,.576-.144.576-.612V5.876c0-.936-.414-1.152-.846-1.152-.252,0-.45.09-.45.144v5a3.441,3.441,0,0,0-3.1-1.656c-2.3,0-4,1.818-4,4.482C36.882,15.4,38.574,17.2,40.842,17.2Zm3.132-3.906a2.821,2.821,0,0,1-2.9,2.808c-1.692,0-2.9-1.4-2.9-3.4,0-2.034,1.188-3.384,2.916-3.384a2.925,2.925,0,0,1,2.88,2.052Zm3.06,1.494c0,1.458,1.116,2.394,2.916,2.394a3.534,3.534,0,0,0,3.186-1.728c0,.27.018.54.036.792.072.648.378.828.756.828.234,0,.468-.09.468-.144v-5.31c0-2.124-1.242-3.4-3.528-3.4A4.211,4.211,0,0,0,47.9,9.242a1.5,1.5,0,0,0-.522.954c0,.648.756.684.792.666A2.742,2.742,0,0,1,50.8,9.332,2.082,2.082,0,0,1,53.118,11.6v.36h-.2C48.87,12.014,47.034,12.842,47.034,14.786Zm6.084-1.152A2.71,2.71,0,0,1,50.2,16.208c-1.152,0-1.872-.558-1.872-1.458,0-1.314,1.35-1.854,4.482-1.926l.306-.018ZM60.84,8.216a3.257,3.257,0,0,0-2.952,1.71v-.5c-.036-.882-.4-1.08-.792-1.08a.671.671,0,0,0-.468.144v7.956c0,.468.234.612.576.612h.162c.324,0,.558-.144.558-.612V11.1a2.843,2.843,0,0,1,2.664-1.728c1.458,0,2.25,1.026,2.25,2.682v4.392c0,.468.234.612.576.612h.162c.324,0,.558-.144.558-.612v-4.5C64.134,9.746,63.054,8.216,60.84,8.216Zm13.032,0a3.425,3.425,0,0,0-3.15,1.836c0-.234-.018-.522-.018-.738-.054-.756-.414-.972-.792-.972a.608.608,0,0,0-.45.144V19.862c0,.45.234.612.576.612h.144c.324,0,.558-.162.558-.612V15.4a3.349,3.349,0,0,0,3.1,1.8c2.322,0,4-1.836,4-4.518S76.122,8.216,73.872,8.216ZM73.6,16.1a2.828,2.828,0,0,1-2.88-2.808V11.384a3.017,3.017,0,0,1,2.916-2.07c1.674,0,2.916,1.386,2.916,3.384C76.554,14.732,75.366,16.1,73.6,16.1Zm5.454-3.4a4.358,4.358,0,1,0,8.712.036,4.358,4.358,0,1,0-8.712-.036Zm7.452.036A3.12,3.12,0,0,1,83.43,16.1a3.158,3.158,0,0,1-3.114-3.4,3.11,3.11,0,1,1,6.192.036Zm2.5-.054A4.262,4.262,0,0,0,93.33,17.2a3.844,3.844,0,0,0,2.88-1.062,2.04,2.04,0,0,0,.7-1.26c0-.612-.792-.7-.828-.63a2.69,2.69,0,0,1-2.718,1.836,3.12,3.12,0,0,1-3.078-3.4,3.1,3.1,0,0,1,3.078-3.348,2.674,2.674,0,0,1,2.718,1.836c.054.072.828-.036.828-.612a1.985,1.985,0,0,0-.7-1.3,4,4,0,0,0-2.862-1.044A4.251,4.251,0,0,0,89.01,12.68Zm9.072,2.106c0,1.458,1.116,2.394,2.916,2.394a3.534,3.534,0,0,0,3.186-1.728c0,.27.018.54.036.792.072.648.378.828.756.828.234,0,.468-.09.468-.144v-5.31c0-2.124-1.242-3.4-3.528-3.4a4.211,4.211,0,0,0-2.97,1.026,1.5,1.5,0,0,0-.522.954c0,.648.756.684.792.666a2.742,2.742,0,0,1,2.628-1.53,2.082,2.082,0,0,1,2.322,2.268v.36h-.2C99.918,12.014,98.082,12.842,98.082,14.786Zm6.084-1.152a2.71,2.71,0,0,1-2.916,2.574c-1.152,0-1.872-.558-1.872-1.458,0-1.314,1.35-1.854,4.482-1.926l.306-.018ZM107.55,16.3a4.429,4.429,0,0,0,2.934.9c2.106,0,3.42-1.044,3.42-2.61,0-1.764-1.692-2.142-3.1-2.448-1.422-.324-2.322-.54-2.322-1.476,0-.828.756-1.422,2.07-1.422a3.029,3.029,0,0,1,2.556,1.278.719.719,0,0,0,.558-.648,1.054,1.054,0,0,0-.324-.684,3.783,3.783,0,0,0-2.808-.972c-1.98,0-3.258,1.062-3.258,2.592,0,1.746,1.656,2.124,2.97,2.394,1.458.324,2.394.522,2.394,1.53,0,.846-.792,1.422-2.142,1.422a3.4,3.4,0,0,1-2.916-1.35.7.7,0,0,0-.558.63A1.2,1.2,0,0,0,107.55,16.3Zm15.408-8.082a3.135,3.135,0,0,0-2.9,1.764v-4.1c0-.936-.414-1.152-.828-1.152-.252,0-.468.09-.468.144V16.442c0,.468.234.612.576.612h.162c.324,0,.558-.144.558-.612v-4.41a2.532,2.532,0,0,1,2.646-2.646c1.458,0,2.268,1.008,2.268,2.664v4.392c0,.468.234.612.576.612h.162c.324,0,.558-.144.558-.612V11.96C126.27,9.746,125.19,8.216,122.958,8.216Zm5,4.482a4.358,4.358,0,1,0,8.712.036,4.358,4.358,0,1,0-8.712-.036Zm7.452.036a3.12,3.12,0,0,1-3.078,3.366,3.158,3.158,0,0,1-3.114-3.4,3.11,3.11,0,1,1,6.192.036Zm6.534-4.518a2.233,2.233,0,0,0-2.232,1.926c0-.324-.018-.63-.036-.936-.072-.684-.4-.864-.756-.864a.63.63,0,0,0-.468.144v7.956c0,.468.234.612.594.612h.144c.324,0,.558-.162.558-.612v-3.4c0-2.16.648-3.546,2.052-3.546a1.409,1.409,0,0,1,1.026.36c.036.036.4-.18.4-.7C143.226,8.594,142.722,8.216,141.948,8.216Zm2,6.57c0,1.458,1.116,2.394,2.916,2.394a3.534,3.534,0,0,0,3.186-1.728c0,.27.018.54.036.792.072.648.378.828.756.828.234,0,.468-.09.468-.144v-5.31c0-2.124-1.242-3.4-3.528-3.4a4.211,4.211,0,0,0-2.97,1.026,1.5,1.5,0,0,0-.522.954c0,.648.756.684.792.666a2.742,2.742,0,0,1,2.628-1.53A2.082,2.082,0,0,1,150.03,11.6v.36h-.2C145.782,12.014,143.946,12.842,143.946,14.786Zm6.084-1.152a2.71,2.71,0,0,1-2.916,2.574c-1.152,0-1.872-.558-1.872-1.458,0-1.314,1.35-1.854,4.482-1.926l.306-.018Zm3.384,2.664a4.429,4.429,0,0,0,2.934.9c2.106,0,3.42-1.044,3.42-2.61,0-1.764-1.692-2.142-3.1-2.448-1.422-.324-2.322-.54-2.322-1.476,0-.828.756-1.422,2.07-1.422a3.029,3.029,0,0,1,2.556,1.278.719.719,0,0,0,.558-.648,1.054,1.054,0,0,0-.324-.684,3.783,3.783,0,0,0-2.808-.972c-1.98,0-3.258,1.062-3.258,2.592,0,1.746,1.656,2.124,2.97,2.394,1.458.324,2.394.522,2.394,1.53,0,.846-.792,1.422-2.142,1.422a3.4,3.4,0,0,1-2.916-1.35.7.7,0,0,0-.558.63A1.2,1.2,0,0,0,153.414,16.3Zm9.09-2.574h.144c.234,0,.288-.162.324-.45l.4-7.182c.054-.558-.18-.828-.594-.828h-.414c-.4,0-.63.27-.576.828l.414,7.164C162.216,13.562,162.288,13.724,162.5,13.724Zm-.018,3.384h.18a.705.705,0,0,0,.774-.81v-.162a.705.705,0,0,0-.774-.81h-.18a.705.705,0,0,0-.774.81V16.3A.713.713,0,0,0,162.486,17.108Z" transform="translate(1514.613 809.705)"/><path class="b" d="M.966,12.4c0,.434.168.658.56.658H1.75c.42,0,.588-.224.588-.658V5.79l1.974,4.466a.832.832,0,0,0,.924.616.832.832,0,0,0,.924-.616l2-4.508V12.4c0,.434.168.658.574.658h.2c.42,0,.6-.224.6-.658V4.684a.773.773,0,0,0-.854-.8H8.33c-.532,0-.7.2-.924.728L5.25,9.444,3.108,4.614c-.224-.518-.378-.728-.938-.728H1.792a.757.757,0,0,0-.826.8ZM13.02,5.23c.182,0,2.548-.644,2.548-1.68a.58.58,0,0,0-.6-.63c-1.05,0-2.058,2-2.058,2.24C12.908,5.216,12.964,5.23,13.02,5.23Zm-2.058,6.006c0,1.148.854,1.918,2.3,1.918a2.911,2.911,0,0,0,2.422-1.162,2.082,2.082,0,0,0,.056.462.751.751,0,0,0,.8.616c.252,0,.5-.084.5-.154V8.786C17.038,7.078,16,6.1,14.1,6.1a3.575,3.575,0,0,0-2.422.77,1.223,1.223,0,0,0-.462.84c0,.672.854.686.854.672A2.035,2.035,0,0,1,14,7.232a1.464,1.464,0,0,1,1.666,1.582v.14h-.182C12.446,9.01,10.962,9.682,10.962,11.236Zm4.7-.9a1.886,1.886,0,0,1-2.072,1.82c-.8,0-1.274-.378-1.274-.98,0-.91,1.008-1.274,2.968-1.344l.378-.014Zm3.052,2.24a4.022,4.022,0,0,0,2.31.588c1.736,0,2.8-.826,2.8-2.114,0-1.456-1.442-1.764-2.478-1.988-1.092-.238-1.68-.378-1.68-.994,0-.56.5-.924,1.456-.924A2.435,2.435,0,0,1,23.1,8.1a.736.736,0,0,0,.56-.644.822.822,0,0,0-.168-.476A2.873,2.873,0,0,0,21.07,6.1c-1.638,0-2.688.854-2.688,2.114,0,1.428,1.372,1.736,2.366,1.946,1.106.238,1.736.364,1.736,1.05,0,.56-.532.91-1.484.91a2.772,2.772,0,0,1-2.268-1.008.708.708,0,0,0-.546.63A1.1,1.1,0,0,0,18.718,12.58ZM27.5,4.11a.751.751,0,0,0,.826.8.738.738,0,0,0,.826-.8.744.744,0,0,0-.812-.812A.759.759,0,0,0,27.5,4.11Zm.112,8.288c0,.5.266.658.63.658h.14c.364,0,.616-.154.616-.658V6.868c0-.518-.252-.672-.616-.672h-.14c-.364,0-.63.168-.63.672Zm6.776-6.3a2.612,2.612,0,0,0-2.24,1.19c-.028-.9-.49-1.092-.868-1.092a.688.688,0,0,0-.5.154V12.4c0,.5.252.658.616.658h.154c.35,0,.616-.154.616-.658V8.492a2.035,2.035,0,0,1,1.89-1.176c.98,0,1.554.7,1.554,1.834V12.4c0,.5.252.658.616.658h.154c.35,0,.616-.154.616-.658V8.982C36.988,7.316,36.162,6.1,34.384,6.1Zm4.9,6.3c0,.5.266.658.63.658h.14c.364,0,.6-.154.6-.658v-5h1.106c.448,0,.616-.182.616-.518v-.1c0-.336-.168-.518-.616-.518H40.628v-.49c0-.952.294-1.372.966-1.372A1.515,1.515,0,0,1,42.6,4.8a.646.646,0,0,0,.336-.6.742.742,0,0,0-.364-.63,2.062,2.062,0,0,0-1.148-.28c-1.344,0-2.142.784-2.142,2.478v.5H38.5c-.448,0-.616.168-.616.5v.1c0,.35.168.532.616.532h.784Zm3.528-2.772a3.528,3.528,0,1,0,7.056.028,3.528,3.528,0,1,0-7.056-.028Zm5.768.028a2.259,2.259,0,0,1-2.24,2.394,2.286,2.286,0,0,1-2.254-2.422,2.252,2.252,0,1,1,4.494.028Zm4.508,1.54c0,1.176.868,1.96,2.3,1.96a2.73,2.73,0,0,0,2.366-1.176,2.8,2.8,0,0,0,.112.462A1.02,1.02,0,0,0,58.9,13.1c.378,0,.742-.126.742-.224V8.842c0-1.834-1.05-2.828-3.22-2.828a3.682,3.682,0,0,0-2.66.8,1.25,1.25,0,0,0-.42.9c0,.91,1.26.812,1.274.784a1.712,1.712,0,0,1,1.68-.994A1.208,1.208,0,0,1,57.68,8.73a.861.861,0,0,1,.014.2H57.47C54.572,8.968,53.088,9.668,53.088,11.194Zm4.606-.784A1.54,1.54,0,0,1,56,11.88c-.658,0-1.064-.322-1.064-.84,0-.77.826-1.064,2.38-1.12h.378ZM67.27,6.1a1.107,1.107,0,0,0-1.162,1.078,2.507,2.507,0,0,0-2.226-1.162c-1.89,0-3.178,1.414-3.178,3.584,0,2.142,1.288,3.6,3.136,3.6a2.49,2.49,0,0,0,2.2-1.246v2.828c0,.714.378.952.882.952h.21c.518,0,.882-.224.882-.952V6.322A1.06,1.06,0,0,0,67.27,6.1ZM66.052,9.976a1.651,1.651,0,0,1-1.722,1.638A1.817,1.817,0,0,1,62.58,9.6a1.78,1.78,0,0,1,1.778-2A1.744,1.744,0,0,1,66.052,8.7ZM75.25,6.1h-.21c-.5,0-.854.238-.854.952v3.584a1.661,1.661,0,0,1-1.484.9c-.812,0-1.288-.546-1.288-1.47V7.05c0-.728-.364-.952-.882-.952h-.224c-.49,0-.854.238-.854.952v3.3c0,1.582.742,2.828,2.52,2.828a2.579,2.579,0,0,0,2.254-1.246,2.291,2.291,0,0,0,.07.378,1.1,1.1,0,0,0,1.106.742c.392,0,.742-.154.742-.224V7.05C76.146,6.322,75.782,6.1,75.25,6.1Zm2.436-.784c.588,0,2.632-.7,2.632-1.764a.772.772,0,0,0-.8-.826c-1.162,0-2.114,1.96-2.114,2.394C77.406,5.272,77.5,5.314,77.686,5.314Zm.882,7.742h.21c.5,0,.868-.224.868-.938V7.05c0-.728-.35-.952-.882-.952h-.2c-.518,0-.9.238-.9.952v5.068C77.672,12.846,78.05,13.056,78.568,13.056Zm2.478-.882a.837.837,0,0,0,.938.938h.238a.841.841,0,0,0,.952-.938v-.2a.835.835,0,0,0-.952-.938h-.238a.831.831,0,0,0-.938.938Z" transform="translate(1495.578 834.705)"/><path class="b" d="M2.6,8.84h.36A1.167,1.167,0,0,0,4.28,7.52v-.3A1.183,1.183,0,0,0,2.96,5.9H2.6A1.181,1.181,0,0,0,1.26,7.22v.3A1.165,1.165,0,0,0,2.6,8.84ZM2.54,19.16h.5A1.311,1.311,0,0,0,4.42,17.4l-.8-6.44c-.14-.58-.3-.9-.7-.9H2.64c-.42,0-.6.32-.74.9L1.1,17.4A1.332,1.332,0,0,0,2.54,19.16Zm9.42-.04A1.62,1.62,0,0,0,13.72,18L18.16,6.96c.1-.26-.8-.98-1.74-.98a1.661,1.661,0,0,0-1.58,1.36l-2.82,8.22L9.18,7.34A1.716,1.716,0,0,0,7.52,5.98c-.96,0-1.9.7-1.78.98L10.24,18A1.574,1.574,0,0,0,11.96,19.12Zm6.12-2.7c0,1.68,1.24,2.8,3.28,2.8a3.9,3.9,0,0,0,3.38-1.68,4,4,0,0,0,.16.66,1.456,1.456,0,0,0,1.48.94c.54,0,1.06-.18,1.06-.32V13.06c0-2.62-1.5-4.04-4.6-4.04a5.26,5.26,0,0,0-3.8,1.14,1.785,1.785,0,0,0-.6,1.28c0,1.3,1.8,1.16,1.82,1.12a2.445,2.445,0,0,1,2.4-1.42,1.726,1.726,0,0,1,1.98,1.76,1.23,1.23,0,0,1,.02.28h-.32C20.2,13.24,18.08,14.24,18.08,16.42Zm6.58-1.12a2.2,2.2,0,0,1-2.42,2.1c-.94,0-1.52-.46-1.52-1.2,0-1.1,1.18-1.52,3.4-1.6h.54Zm6.14,3.78h.3c.72,0,1.24-.32,1.24-1.34V7.36c0-1.82-.92-2.26-1.76-2.26a1.564,1.564,0,0,0-1.06.32V17.74C29.52,18.78,30.06,19.08,30.8,19.08Zm3.24-4.88c0,3.1,2.08,5.08,5.26,5.08a5.975,5.975,0,0,0,3.12-.74,1.906,1.906,0,0,0,1.08-1.52c0-1.12-1.36-1.24-1.38-1.2a2.909,2.909,0,0,1-2.74,1.42,2.709,2.709,0,0,1-2.8-2.1l-.06-.32h6.76c.52,0,.66-.26.68-.74V13.9A4.646,4.646,0,0,0,39.1,9.02,4.961,4.961,0,0,0,34.04,14.2Zm7.32-.92h-4.8a2.524,2.524,0,0,1,2.52-2.32A2.216,2.216,0,0,1,41.36,13.28Zm11.56,6a3.541,3.541,0,0,0,3.18-1.86c0,.24.02.46.04.68.1.76.58.98,1.22.98h.28c.74,0,1.24-.32,1.24-1.34V7.36c0-1.82-.92-2.26-1.76-2.26a1.564,1.564,0,0,0-1.06.32V10.5a3.66,3.66,0,0,0-3.08-1.48c-2.7,0-4.54,2.02-4.54,5.12C48.44,17.2,50.28,19.28,52.92,19.28Zm3.16-4.6a2.346,2.346,0,0,1-2.46,2.34,2.6,2.6,0,0,1-2.5-2.88c0-1.76,1.02-2.86,2.54-2.86a2.476,2.476,0,0,1,2.42,1.56Zm4.44-.48c0,3.1,2.08,5.08,5.26,5.08a5.975,5.975,0,0,0,3.12-.74,1.906,1.906,0,0,0,1.08-1.52c0-1.12-1.36-1.24-1.38-1.2a2.909,2.909,0,0,1-2.74,1.42,2.709,2.709,0,0,1-2.8-2.1L63,14.82h6.76c.52,0,.66-.26.68-.74V13.9a4.646,4.646,0,0,0-4.86-4.88A4.961,4.961,0,0,0,60.52,14.2Zm7.32-.92h-4.8a2.524,2.524,0,0,1,2.52-2.32A2.216,2.216,0,0,1,67.84,13.28Zm7.84,4.82a6.505,6.505,0,0,0,4.18,1.18c3.4,0,5.3-1.5,5.3-4.08,0-2.44-2.04-3.4-4.38-3.92-1.6-.36-2.76-.52-2.76-1.64,0-.94.84-1.52,2.24-1.52A4.633,4.633,0,0,1,83.7,9.7a1.92,1.92,0,0,0,1.16-1.54,1.776,1.776,0,0,0-.9-1.42,6.351,6.351,0,0,0-3.72-.96c-3.12,0-5.04,1.58-5.04,3.98,0,2.66,2.12,3.42,4.18,3.88,1.52.34,2.82.58,2.82,1.74,0,1-.82,1.56-2.36,1.56A5.273,5.273,0,0,1,76,15.2c-.1-.1-1.12.64-1.12,1.46A1.854,1.854,0,0,0,75.68,18.1Zm11.44,5.08a1.3,1.3,0,0,0,.6-.1L92.5,7.82a3.5,3.5,0,0,0,.16-.84c0-.98-.86-1.12-1.44-1.12a1.168,1.168,0,0,0-.6.1l-4.8,15.26a3.334,3.334,0,0,0-.16.84C85.66,23,86.52,23.18,87.12,23.18Zm11.72-3.94c3.3,0,5.4-1.5,5.4-3.74a3.187,3.187,0,0,0-2.64-3.18,2.9,2.9,0,0,0,2.22-2.9c0-2.22-1.88-3.66-4.94-3.66-3.02,0-5.02,1.5-5.02,3.7a2.876,2.876,0,0,0,2.26,2.9,3.182,3.182,0,0,0-2.64,3.14C93.48,17.82,95.48,19.24,98.84,19.24Zm.04-7.7c-1.4,0-2.26-.74-2.26-1.8,0-1.1.8-1.84,2.24-1.84,1.42,0,2.26.76,2.26,1.84C101.12,10.84,100.26,11.54,98.88,11.54Zm0,5.58c-1.58,0-2.54-.8-2.54-1.94,0-1.2.94-1.96,2.52-1.96,1.56,0,2.52.78,2.52,1.96C101.38,16.38,100.48,17.12,98.88,17.12Zm12.4,2.16c3.52,0,5.64-2.38,5.64-6.14V11.88c0-3.74-2.12-6.1-5.64-6.1s-5.66,2.38-5.66,6.12v1.28C105.62,16.92,107.74,19.28,111.28,19.28Zm0-2.42c-1.74,0-2.68-1.24-2.68-3.5v-1.7c0-2.28.92-3.5,2.68-3.5,1.72,0,2.7,1.26,2.7,3.54v1.66C113.98,15.64,113.04,16.86,111.28,16.86Zm11.1,1.62a6.423,6.423,0,0,0,3.36.74c2.74,0,4.3-1.18,4.3-3.14,0-2.2-2.2-2.64-3.58-2.94-1.32-.3-2.08-.44-2.08-1.14,0-.62.58-1.02,1.66-1.02a3.876,3.876,0,0,1,2.86,1.32,1.4,1.4,0,0,0,.9-1.18,1.442,1.442,0,0,0-.24-.8c-.5-.76-1.72-1.3-3.7-1.3-2.52,0-4.06,1.26-4.06,3.16,0,2.2,2.08,2.64,3.42,2.92,1.3.28,2.08.42,2.08,1.18,0,.62-.6,1-1.7,1a4.267,4.267,0,0,1-3.22-1.32,1.241,1.241,0,0,0-.86,1.12A1.7,1.7,0,0,0,122.38,18.48Zm9.2-12.24a1.421,1.421,0,0,0,1.58,1.46,1.4,1.4,0,0,0,1.58-1.46,1.585,1.585,0,0,0-3.16,0Zm.16,11.5c0,1.04.52,1.34,1.28,1.34h.28c.74,0,1.26-.32,1.26-1.34V10.5c0-1.04-.52-1.36-1.26-1.36H133c-.72,0-1.26.34-1.26,1.36ZM142.7,9.02a3.7,3.7,0,0,0-3.22,1.76,1.619,1.619,0,0,0-1.68-1.64c-.56,0-1.06.22-1.06.32v8.28c0,1.04.52,1.34,1.28,1.34h.3c.72,0,1.24-.32,1.24-1.34V12.66a2.358,2.358,0,0,1,2.14-1.28c1.14,0,1.8.8,1.8,2.1v4.26c0,1.04.52,1.34,1.26,1.34h.3c.72,0,1.26-.32,1.26-1.34v-4.7C146.32,10.82,145.24,9.02,142.7,9.02Zm9.26,9.46a6.423,6.423,0,0,0,3.36.74c2.74,0,4.3-1.18,4.3-3.14,0-2.2-2.2-2.64-3.58-2.94-1.32-.3-2.08-.44-2.08-1.14,0-.62.58-1.02,1.66-1.02a3.876,3.876,0,0,1,2.86,1.32,1.4,1.4,0,0,0,.9-1.18,1.442,1.442,0,0,0-.24-.8c-.5-.76-1.72-1.3-3.7-1.3-2.52,0-4.06,1.26-4.06,3.16,0,2.2,2.08,2.64,3.42,2.92,1.3.28,2.08.42,2.08,1.18,0,.62-.6,1-1.7,1a4.267,4.267,0,0,1-3.22-1.32,1.241,1.241,0,0,0-.86,1.12A1.7,1.7,0,0,0,151.96,18.48Zm8.8-4.36a5.2,5.2,0,0,0,10.4.04,5.2,5.2,0,0,0-10.4-.04Zm7.9.04a2.718,2.718,0,1,1-5.42-.04,2.718,2.718,0,1,1,5.42.04Zm9.26-5.14a2.437,2.437,0,0,0-2.42,1.86,4.477,4.477,0,0,0-.14-.68,1.559,1.559,0,0,0-1.54-1.06c-.58,0-1.06.22-1.06.32v8.28c0,1.04.52,1.34,1.28,1.34h.3c.72,0,1.24-.32,1.24-1.34V14.82c0-1.96.6-3.16,1.96-3.16a1.953,1.953,0,0,1,1.28.48,1.459,1.459,0,0,0,.9-1.48A1.6,1.6,0,0,0,177.92,9.02Zm7.14,10.26a2.916,2.916,0,0,0,2.1-.72,1.429,1.429,0,0,0,.48-1.08,1.108,1.108,0,0,0-.7-1.1,1.432,1.432,0,0,1-1.22.66c-.78,0-1.08-.48-1.08-1.44V11.44h1.72c.8,0,1.16-.36,1.16-1.04v-.18c0-.64-.34-.98-1.14-.98h-1.7V8c0-1.04-.5-1.36-1.24-1.36h-.26c-.8,0-1.26.44-1.26,1.36V9.24h-.52c-.78,0-1.14.38-1.14,1.04v.16c0,.64.36,1,1.16,1h.5v4.48C181.92,18.14,182.92,19.28,185.06,19.28Zm3.36-5.08c0,3.1,2.08,5.08,5.26,5.08a5.975,5.975,0,0,0,3.12-.74,1.906,1.906,0,0,0,1.08-1.52c0-1.12-1.36-1.24-1.38-1.2a2.909,2.909,0,0,1-2.74,1.42,2.709,2.709,0,0,1-2.8-2.1l-.06-.32h6.76c.52,0,.66-.26.68-.74V13.9a4.646,4.646,0,0,0-4.86-4.88A4.961,4.961,0,0,0,188.42,14.2Zm7.32-.92h-4.8a2.524,2.524,0,0,1,2.52-2.32A2.216,2.216,0,0,1,195.74,13.28Zm3.68.84a5.2,5.2,0,0,0,10.4.04,5.2,5.2,0,0,0-10.4-.04Zm7.9.04a2.718,2.718,0,1,1-5.42-.04,2.718,2.718,0,1,1,5.42.04Zm5.64.82h.3c.42,0,.6-.3.72-.9l.8-6.42a1.329,1.329,0,0,0-1.42-1.78h-.52a1.333,1.333,0,0,0-1.38,1.78l.8,6.42C212.4,14.68,212.58,14.98,212.96,14.98Zm-.02,4.18h.34a1.193,1.193,0,0,0,1.36-1.34v-.28a1.193,1.193,0,0,0-1.36-1.34h-.34a1.2,1.2,0,0,0-1.34,1.34v.28A1.2,1.2,0,0,0,212.94,19.16ZM1.89,37.054h.18a.554.554,0,0,0,.594-.612V32.608H4.932c2.88,0,4.374-1.3,4.374-3.654,0-2.3-1.548-3.6-4.3-3.6H2.052a.724.724,0,0,0-.738.792v10.3A.533.533,0,0,0,1.89,37.054Zm3.078-5.562h-2.3V26.506H4.986c1.944,0,2.952.864,2.952,2.484C7.938,30.592,6.93,31.492,4.968,31.492ZM10.476,32.7a4.255,4.255,0,0,0,4.356,4.5,4.245,4.245,0,0,0,4.356-4.464,4.266,4.266,0,0,0-4.338-4.518A4.254,4.254,0,0,0,10.476,32.7Zm7.452.036A3.12,3.12,0,0,1,14.85,36.1a3.158,3.158,0,0,1-3.114-3.4,3.11,3.11,0,1,1,6.192.036Zm6.534-4.518a2.233,2.233,0,0,0-2.232,1.926c0-.324-.018-.63-.036-.936-.072-.684-.4-.864-.756-.864a.63.63,0,0,0-.468.144v7.956c0,.468.234.612.594.612h.144c.324,0,.558-.162.558-.612v-3.4c0-2.16.648-3.546,2.052-3.546a1.409,1.409,0,0,1,1.026.36c.036.036.4-.18.4-.7C25.74,28.594,25.236,28.216,24.462,28.216Zm5.958,8.838h.144c.342,0,.576-.144.576-.612V25.876c0-.936-.414-1.152-.828-1.152-.252,0-.468.09-.468.144V36.442C29.844,36.91,30.078,37.054,30.42,37.054Zm2.574-2.268c0,1.458,1.116,2.394,2.916,2.394A3.534,3.534,0,0,0,39.1,35.452c0,.27.018.54.036.792.072.648.378.828.756.828.234,0,.468-.09.468-.144v-5.31c0-2.124-1.242-3.4-3.528-3.4a4.211,4.211,0,0,0-2.97,1.026,1.5,1.5,0,0,0-.522.954c0,.648.756.684.792.666a2.742,2.742,0,0,1,2.628-1.53A2.082,2.082,0,0,1,39.078,31.6v.36h-.2C34.83,32.014,32.994,32.842,32.994,34.786Zm6.084-1.152a2.71,2.71,0,0,1-2.916,2.574c-1.152,0-1.872-.558-1.872-1.458,0-1.314,1.35-1.854,4.482-1.926l.306-.018Zm6.048-.954a4.262,4.262,0,0,0,4.32,4.518,3.844,3.844,0,0,0,2.88-1.062,2.04,2.04,0,0,0,.7-1.26c0-.612-.792-.7-.828-.63a2.69,2.69,0,0,1-2.718,1.836,3.12,3.12,0,0,1-3.078-3.4,3.1,3.1,0,0,1,3.078-3.348A2.674,2.674,0,0,1,52.2,31.168c.054.072.828-.036.828-.612a1.985,1.985,0,0,0-.7-1.3,4,4,0,0,0-2.862-1.044A4.251,4.251,0,0,0,45.126,32.68ZM54.2,32.7a4.358,4.358,0,1,0,8.712.036A4.358,4.358,0,1,0,54.2,32.7Zm7.452.036A3.12,3.12,0,0,1,58.572,36.1a3.158,3.158,0,0,1-3.114-3.4,3.11,3.11,0,1,1,6.192.036Zm12.87-4.518a3.2,3.2,0,0,0-2.988,1.908,2.8,2.8,0,0,0-2.844-1.908,3.136,3.136,0,0,0-2.718,1.62l-.018-.432c-.036-.864-.4-1.062-.792-1.062a.671.671,0,0,0-.468.144v7.956c0,.468.252.612.576.612h.162c.324,0,.558-.144.558-.612V31.078a2.689,2.689,0,0,1,2.412-1.71c1.44,0,2.16.9,2.16,2.466v4.608c0,.468.234.612.576.612h.144c.324,0,.576-.144.576-.612V31.078a2.61,2.61,0,0,1,2.394-1.71c1.422,0,2.16.918,2.16,2.574v4.5c0,.468.234.612.576.612h.144c.342,0,.576-.144.576-.612V31.834C77.706,29.566,76.626,28.216,74.52,28.216Zm9.846,0a3.425,3.425,0,0,0-3.15,1.836c0-.234-.018-.522-.018-.738-.054-.756-.414-.972-.792-.972a.608.608,0,0,0-.45.144V39.862c0,.45.234.612.576.612h.144c.324,0,.558-.162.558-.612V35.4a3.349,3.349,0,0,0,3.1,1.8c2.322,0,4-1.836,4-4.518S86.616,28.216,84.366,28.216ZM84.1,36.1a2.828,2.828,0,0,1-2.88-2.808V31.384a3.017,3.017,0,0,1,2.916-2.07c1.674,0,2.916,1.386,2.916,3.384C87.048,34.732,85.86,36.1,84.1,36.1Zm9.486-7.884a2.233,2.233,0,0,0-2.232,1.926c0-.324-.018-.63-.036-.936-.072-.684-.4-.864-.756-.864a.63.63,0,0,0-.468.144v7.956c0,.468.234.612.594.612h.144c.324,0,.558-.162.558-.612v-3.4c0-2.16.648-3.546,2.052-3.546a1.409,1.409,0,0,1,1.026.36c.036.036.4-.18.4-.7C94.86,28.594,94.356,28.216,93.582,28.216Zm2,6.57c0,1.458,1.116,2.394,2.916,2.394a3.534,3.534,0,0,0,3.186-1.728c0,.27.018.54.036.792.072.648.378.828.756.828.234,0,.468-.09.468-.144v-5.31c0-2.124-1.242-3.4-3.528-3.4a4.211,4.211,0,0,0-2.97,1.026,1.5,1.5,0,0,0-.522.954c0,.648.756.684.792.666a2.742,2.742,0,0,1,2.628-1.53,2.082,2.082,0,0,1,2.322,2.268v.36h-.2C97.416,32.014,95.58,32.842,95.58,34.786Zm6.084-1.152a2.71,2.71,0,0,1-2.916,2.574c-1.152,0-1.872-.558-1.872-1.458,0-1.314,1.35-1.854,4.482-1.926l.306-.018ZM111.672,37.2a3.418,3.418,0,0,0,3.15-1.836c0,.4,0,.756.018,1.116a.5.5,0,0,0,.558.576h.126c.342,0,.576-.144.576-.612V25.876c0-.936-.414-1.152-.846-1.152-.252,0-.45.09-.45.144v5a3.441,3.441,0,0,0-3.1-1.656c-2.3,0-4,1.818-4,4.482C107.712,35.4,109.4,37.2,111.672,37.2Zm3.132-3.906a2.821,2.821,0,0,1-2.9,2.808c-1.692,0-2.9-1.4-2.9-3.4,0-2.034,1.188-3.384,2.916-3.384a2.925,2.925,0,0,1,2.88,2.052Zm3.06-.54a4.2,4.2,0,0,0,4.374,4.446,4.413,4.413,0,0,0,2.862-.918,1.59,1.59,0,0,0,.684-1.062.734.734,0,0,0-.738-.684,2.843,2.843,0,0,1-2.79,1.584,3.025,3.025,0,0,1-3.132-2.88,1.275,1.275,0,0,1-.018-.252h6.5c.324,0,.45-.108.45-.414v-.126c0-2.538-1.548-4.23-3.942-4.23A4.262,4.262,0,0,0,117.864,32.752Zm6.912-.7h-5.634a3.022,3.022,0,0,1,2.97-2.79A2.635,2.635,0,0,1,124.776,32.05Zm8.712,5.148a2.114,2.114,0,0,0,1.494-.5.9.9,0,0,0,.324-.666c0-.45-.306-.63-.36-.594a1.5,1.5,0,0,1-1.278.666c-.9,0-1.278-.54-1.278-1.8V29.512h2.178c.414,0,.576-.18.576-.5V28.9c0-.324-.162-.486-.558-.486h-2.178V26.9c0-.468-.216-.63-.558-.63h-.144c-.342,0-.576.18-.576.63v1.512h-.846c-.414,0-.558.18-.558.486v.126c0,.306.144.486.558.486h.846V34.5C131.13,36.316,131.9,37.2,133.488,37.2Zm9.846-8.856h-.162c-.324,0-.558.144-.558.612V34.3a2.824,2.824,0,0,1-2.646,1.746c-1.458,0-2.268-1.026-2.268-2.682v-4.41c0-.468-.234-.612-.576-.612h-.144c-.342,0-.576.144-.576.612v4.5c0,2.214,1.08,3.744,3.294,3.744a3.346,3.346,0,0,0,2.952-1.674c0,.234.018.468.036.7.072.666.4.846.756.846a.671.671,0,0,0,.468-.144V28.954C143.91,28.486,143.676,28.342,143.334,28.342Zm5.832,7.956a4.429,4.429,0,0,0,2.934.9c2.106,0,3.42-1.044,3.42-2.61,0-1.764-1.692-2.142-3.1-2.448-1.422-.324-2.322-.54-2.322-1.476,0-.828.756-1.422,2.07-1.422a3.029,3.029,0,0,1,2.556,1.278.719.719,0,0,0,.558-.648,1.054,1.054,0,0,0-.324-.684,3.783,3.783,0,0,0-2.808-.972c-1.98,0-3.258,1.062-3.258,2.592,0,1.746,1.656,2.124,2.97,2.394,1.458.324,2.394.522,2.394,1.53,0,.846-.792,1.422-2.142,1.422A3.4,3.4,0,0,1,149.2,34.8a.7.7,0,0,0-.558.63A1.2,1.2,0,0,0,149.166,36.3Zm7.6-3.546a4.2,4.2,0,0,0,4.374,4.446A4.413,4.413,0,0,0,164,36.28a1.59,1.59,0,0,0,.684-1.062.734.734,0,0,0-.738-.684,2.843,2.843,0,0,1-2.79,1.584,3.025,3.025,0,0,1-3.132-2.88,1.276,1.276,0,0,1-.018-.252h6.5c.324,0,.45-.108.45-.414v-.126c0-2.538-1.548-4.23-3.942-4.23A4.262,4.262,0,0,0,156.762,32.752Zm6.912-.7H158.04a3.022,3.022,0,0,1,2.97-2.79A2.635,2.635,0,0,1,163.674,32.05Zm5.868,8.73c2.736,0,4.32-.972,4.32-2.574,0-1.386-1.332-2-2.574-2.3-1.458-.36-2.322-.45-2.34-1.026a.51.51,0,0,1,.216-.468,4.069,4.069,0,0,0,.468.018,3.222,3.222,0,0,0,3.492-3.078,2.9,2.9,0,0,0-.774-1.944l1.422-1.512a.757.757,0,0,0-.63-.576.838.838,0,0,0-.846.522l-.648.972a3.653,3.653,0,0,0-2.034-.594A3.276,3.276,0,0,0,166.14,31.4a2.95,2.95,0,0,0,2.178,2.826,1.139,1.139,0,0,0-.522.918.974.974,0,0,0,.54.864c-1.566.288-2.808,1.17-2.808,2.43C165.528,39.988,166.86,40.78,169.542,40.78Zm.072-7.254a2.17,2.17,0,1,1,2.214-2.16A2.084,2.084,0,0,1,169.614,33.526Zm-.036,6.318c-1.818,0-2.79-.5-2.79-1.422,0-1.008,1.332-1.656,2.862-1.782.342.09.7.162,1.062.252.99.252,1.89.612,1.89,1.4C172.6,39.3,171.468,39.844,169.578,39.844Zm12.258-11.5h-.162c-.324,0-.558.144-.558.612V34.3a2.824,2.824,0,0,1-2.646,1.746c-1.458,0-2.268-1.026-2.268-2.682v-4.41c0-.468-.234-.612-.576-.612h-.144c-.342,0-.576.144-.576.612v4.5c0,2.214,1.08,3.744,3.294,3.744a3.346,3.346,0,0,0,2.952-1.674c0,.234.018.468.036.7.072.666.4.846.756.846a.671.671,0,0,0,.468-.144V28.954C182.412,28.486,182.178,28.342,181.836,28.342Zm6.372-.126a2.233,2.233,0,0,0-2.232,1.926c0-.324-.018-.63-.036-.936-.072-.684-.4-.864-.756-.864a.63.63,0,0,0-.468.144v7.956c0,.468.234.612.594.612h.144c.324,0,.558-.162.558-.612v-3.4c0-2.16.648-3.546,2.052-3.546a1.409,1.409,0,0,1,1.026.36c.036.036.4-.18.4-.7C189.486,28.594,188.982,28.216,188.208,28.216Zm1.728,4.482a4.358,4.358,0,1,0,8.712.036,4.358,4.358,0,1,0-8.712-.036Zm7.452.036A3.12,3.12,0,0,1,194.31,36.1a3.158,3.158,0,0,1-3.114-3.4,3.11,3.11,0,1,1,6.192.036Z" transform="translate(1495.578 768.705)"/><g transform="translate(1495.578 811.935)"><g transform="translate(6.153 9.175)"><path class="a" d="M15.923,17.771a1.589,1.589,0,1,0-.981.96l2.011,1.638a.413.413,0,0,0,.584-.578Z" transform="translate(-12.841 -15.641)"/></g><path class="a" d="M16.372,5.306l.2.2a.914.914,0,0,0,1.292-1.292L16.6,2.951a.914.914,0,0,0-1.292,1.292l.2.2-.4.4a7.727,7.727,0,0,0-4.081-1.77V1.828h.952a.914.914,0,1,0,0-1.828H8.248a.914.914,0,1,0,0,1.828H9.2V3.077a7.775,7.775,0,1,0,6.773,2.628ZM10.113,16.712a5.933,5.933,0,1,1,5.934-5.933A5.94,5.94,0,0,1,10.113,16.712Z" transform="translate(-2.352)"/></g><g transform="translate(15585.141 -10737.742)"><g transform="matrix(0.588, -0.809, 0.809, 0.588, -14147.141, 11544.641)"><g transform="translate(0 0)"><path class="c" d="M35.659,34.867,25.221,6.241a2.407,2.407,0,0,0-1.452-1.36L9.751.128a2.407,2.407,0,0,0-2.93,1.211L.25,14.6a2.407,2.407,0,0,0-.068,1.988L10.621,45.215a2.407,2.407,0,0,0,3.144,1.305l10.295-4.255,10.295-4.255A2.407,2.407,0,0,0,35.659,34.867ZM12.608,11.188A2.822,2.822,0,1,1,14.138,7.5,2.822,2.822,0,0,1,12.608,11.188Z"/></g></g><path class="d" d="M6.59,4.6c4.187,0,6.489-1.861,6.489-5.02,0-2.987-2.5-4.187-5.363-4.824-1.959-.441-3.379-.563-3.379-1.934,0-1.151,1-1.886,2.743-1.886A5.693,5.693,0,0,1,11.291-7.1a2.363,2.363,0,0,0,1.445-1.886c0-1.347-1.861-2.889-5.706-2.889-3.8,0-6.171,1.959-6.171,4.9C.86-3.75,3.455-2.771,6-2.208c1.861.416,3.453.637,3.453,2.057,0,1.224-1,1.934-2.889,1.934A6.414,6.414,0,0,1,1.839-.4,2.261,2.261,0,0,0,.468,1.417C.468,2.861,2.378,4.6,6.59,4.6Zm9.159,1.624a1.6,1.6,0,0,0,.735-.122L24.348-6.56a4.282,4.282,0,0,0,.2-1.028c0-1.175-1.053-1.371-1.763-1.371a1.43,1.43,0,0,0-.735.122L14.157,3.824a3.9,3.9,0,0,0-.2,1.028C13.961,6.028,15.014,6.224,15.748,6.224Z" transform="translate(-14126.787 11548.521)"/></g></g></svg>