<svg xmlns="http://www.w3.org/2000/svg" width="219.186" height="69.44" viewBox="0 0 219.186 69.44">
  <g id="Grupo_26001" data-name="Grupo 26001" transform="translate(-29.734 -13578.254)">
    <path id="Trazado_30438" data-name="Trazado 30438" d="M-100.477-8.346a.723.723,0,0,0-.7.6l-.286,1.612a.485.485,0,0,0,.494.6h1.586L-99.8-3.12a3.355,3.355,0,0,1-1.872.468c-1.2,0-3.562-.832-2.886-4.628.806-4.628,3.354-4.81,4.55-4.81a7.2,7.2,0,0,1,2.86.494.739.739,0,0,0,.312.1.705.705,0,0,0,.624-.338,10.727,10.727,0,0,0,.832-1.326.753.753,0,0,0-.312-.65,6.9,6.9,0,0,0-4.056-1.066c-3.484,0-6.864,1.43-7.956,7.592-1.014,5.772,1.846,7.41,5.33,7.41a4.11,4.11,0,0,0,2.756-.884l.26.338A1.016,1.016,0,0,0-98.553,0h.728a.745.745,0,0,0,.7-.6l1.248-7.15a.485.485,0,0,0-.494-.6Zm11.622,5.018a2.421,2.421,0,0,1-1.482.676c-.884,0-1.482-.364-1.144-2.288a3.14,3.14,0,0,1,3.432-2.938Zm3.9-6.734a9.67,9.67,0,0,0-3.406-.624c-3.484,0-5.85,2.366-6.448,5.72-.468,2.678.026,5.1,2.834,5.1A4.18,4.18,0,0,0-89.3-.858l.338.468a.766.766,0,0,0,.7.39h1.352a.745.745,0,0,0,.7-.6l1.534-8.814A.563.563,0,0,0-84.955-10.062ZM-83.863-.6a.475.475,0,0,0,.494.6h1.924a.745.745,0,0,0,.7-.6l1.222-7.046a3.484,3.484,0,0,1,1.43-.26c1.482,0,1.56.364,1.222,2.236L-77.753-.6a.475.475,0,0,0,.494.6h1.924a.745.745,0,0,0,.7-.6l.884-5.07c.6-3.432-.442-5.018-3.926-5.018a15.62,15.62,0,0,0-4.108.572.835.835,0,0,0-.52.65Zm17.5-2.73a2.421,2.421,0,0,1-1.482.676c-.884,0-1.482-.364-1.144-2.288a3.14,3.14,0,0,1,3.432-2.938Zm3.9-6.734a9.67,9.67,0,0,0-3.406-.624c-3.484,0-5.85,2.366-6.448,5.72-.468,2.678.026,5.1,2.834,5.1a4.18,4.18,0,0,0,2.678-.988l.338.468a.766.766,0,0,0,.7.39h1.352a.745.745,0,0,0,.7-.6l1.534-8.814A.563.563,0,0,0-62.465-10.062Zm12.61,6.838a2.275,2.275,0,0,1-1.482.572c-1.482,0-1.9-.13-1.56-2l.936-5.278a.485.485,0,0,0-.494-.6h-1.924a.723.723,0,0,0-.7.6l-.936,5.278c-.6,3.432.806,4.784,4.29,4.784A9.754,9.754,0,0,0-47.541-.91a.937.937,0,0,0,.52-.65l1.482-8.372a.485.485,0,0,0-.494-.6h-1.924a.723.723,0,0,0-.7.6ZM-44.837-.6a.475.475,0,0,0,.494.6h1.924a.745.745,0,0,0,.7-.6L-40.5-7.644a3.484,3.484,0,0,1,1.43-.26c1.482,0,1.56.364,1.222,2.236L-38.727-.6a.475.475,0,0,0,.494.6h1.924a.745.745,0,0,0,.7-.6l.884-5.07c.6-3.432-.442-5.018-3.926-5.018a15.62,15.62,0,0,0-4.108.572.835.835,0,0,0-.52.65Zm23.114.6a1.007,1.007,0,0,0,.832-.6l6.864-13.572a.485.485,0,0,0-.494-.6H-16.5a1,1,0,0,0-.832.624l-5.122,10.53-1.43-10.53a.59.59,0,0,0-.572-.624h-1.976a.723.723,0,0,0-.7.6L-25.051-.6a.626.626,0,0,0,.624.6Zm11.232-3.328a2.421,2.421,0,0,1-1.482.676c-.884,0-1.482-.364-1.144-2.288A3.14,3.14,0,0,1-9.685-7.878Zm3.9-6.734A9.67,9.67,0,0,0-10-10.686c-3.484,0-5.85,2.366-6.448,5.72-.468,2.678.026,5.1,2.834,5.1a4.18,4.18,0,0,0,2.678-.988l.338.468a.766.766,0,0,0,.7.39h1.352a.745.745,0,0,0,.7-.6l1.534-8.814A.563.563,0,0,0-6.591-10.062Zm4.94,7.878a.915.915,0,0,1-.286-.988l1.95-11a.485.485,0,0,0-.494-.6H-2.405a.723.723,0,0,0-.7.6l-2.08,11.8c-.156.858-.338,2.5,1.482,2.5A4.356,4.356,0,0,0-2.3-.078c.416-.13.65-.312.7-.65l.182-.91A.53.53,0,0,0-1.651-2.184Zm9.88-.962a7.219,7.219,0,0,1-2.964.494c-1.2,0-1.638-.7-1.508-1.43a7.659,7.659,0,0,0,2.236.338,4.233,4.233,0,0,0,4.524-3.64c.312-1.9-1.014-3.3-3.822-3.3-3.484,0-5.33,2.106-5.9,5.3C.195-1.95,1.313.13,4.8.13A6.521,6.521,0,0,0,8.9-.91a1.13,1.13,0,0,0,.52-.65A.293.293,0,0,0,9.4-1.768L9.061-2.886c-.026-.234-.26-.338-.494-.338A.8.8,0,0,0,8.229-3.146ZM6.2-7.878c.676,0,1.248.156,1.118.91-.1.572-.676.806-1.664.806A2.368,2.368,0,0,1,4.173-6.6,1.988,1.988,0,0,1,6.2-7.878ZM20.007-5.46c.312-1.846,1.248-2.418,2.444-2.418a2.106,2.106,0,0,1,1.2.364l-.806,4.6a3.416,3.416,0,0,1-1.43.26C19.929-2.652,19.669-3.588,20.007-5.46Zm7.956-8.71a.485.485,0,0,0-.494-.6H25.545a.723.723,0,0,0-.7.6l-.7,3.874a4.2,4.2,0,0,0-1.846-.39c-2.626,0-4.992,1.794-5.59,5.226-.624,3.432.832,5.59,4.316,5.59A15.29,15.29,0,0,0,25.1-.442a.866.866,0,0,0,.546-.65ZM35.789-3.146a7.219,7.219,0,0,1-2.964.494c-1.2,0-1.638-.7-1.508-1.43a7.659,7.659,0,0,0,2.236.338,4.233,4.233,0,0,0,4.524-3.64c.312-1.9-1.014-3.3-3.822-3.3-3.484,0-5.33,2.106-5.9,5.3-.6,3.432.52,5.512,4,5.512A6.521,6.521,0,0,0,36.465-.91a1.13,1.13,0,0,0,.52-.65.293.293,0,0,0-.026-.208l-.338-1.118c-.026-.234-.26-.338-.494-.338A.8.8,0,0,0,35.789-3.146ZM33.761-7.878c.676,0,1.248.156,1.118.91-.1.572-.676.806-1.664.806A2.367,2.367,0,0,1,31.733-6.6,1.988,1.988,0,0,1,33.761-7.878Zm11.908,4.5a.507.507,0,0,0-.208-.026.8.8,0,0,0-.7.416l-.806,1.352c-.052.052-.052.13-.078.182a.734.734,0,0,0,.416.7A9.443,9.443,0,0,0,48.165.13c4.16,0,6.552-1.326,7.072-4.368,1.118-6.24-7.384-3.926-6.89-6.708.182-1.04,1.144-1.144,3.016-1.144.364,0,2.054.234,3.042.364.39,0,.728-.078.858-.546.234-.884.312-1.248.338-1.43.078-.312-.234-.52-.546-.6a19.647,19.647,0,0,0-3.38-.572c-4.706,0-6.11,1.95-6.526,4.368-.858,4.888,7.462,3.3,6.968,6.162-.26,1.482-2.5,1.69-3.172,1.69A11.245,11.245,0,0,1,45.669-3.38Zm9.36,6.292a.485.485,0,0,0,.494.6h1.95c.338,0,.572-.286.806-.624l11-21.034a.485.485,0,0,0-.494-.6h-1.95c-.338,0-.572.286-.832.624Zm16.432-17.29c-.338.078-.7.286-.754.6-.026.182-.078.546-.156,1.43-.026.468.286.546.676.546,1.014-.13,2.444-.286,2.834-.286,1.872,0,2.47.1,2.288,1.144-.546,3.068-7.228,1.664-8.32,7.9L67.613-.6a.475.475,0,0,0,.494.6h8.554a.745.745,0,0,0,.7-.6l.26-1.612a.459.459,0,0,0-.468-.6H70.941l.052-.39c.572-3.224,7.618-2.86,8.4-7.306.416-2.418.052-4.368-4.654-4.368A14.542,14.542,0,0,0,71.461-14.378ZM84.409-8.762l.572-3.2h5.642a.745.745,0,0,0,.7-.6l.286-1.612a.485.485,0,0,0-.494-.6H82.953a.723.723,0,0,0-.7.6L80.9-6.578a.485.485,0,0,0,.494.6h3.874c1.508,0,1.82,1.04,1.716,1.638a2.466,2.466,0,0,1-2.6,1.69c-.364,0-2.236-.286-3.224-.416-.39,0-.7.078-.832.546-.234.884-.364,1.352-.39,1.534-.052.312.26.52.546.6a19.288,19.288,0,0,0,3.432.52c3.484,0,5.9-1.69,6.4-4.5.208-1.222.65-4.394-4.368-4.394Zm13.7,6.11c-1.2,0-2.7-.832-2.028-4.628.806-4.628,2.47-4.81,3.666-4.81s2.7.182,1.9,4.81C100.971-3.484,99.255-2.652,98.111-2.652ZM97.643.13c3.484,0,6.292-1.638,7.306-7.41,1.092-6.162-1.222-7.592-4.706-7.592s-6.37,1.43-7.462,7.592C91.767-1.508,94.107.13,97.643.13ZM-60.19,18.62a.507.507,0,0,0-.208-.026.8.8,0,0,0-.7.416l-.806,1.352c-.052.052-.052.13-.078.182a.734.734,0,0,0,.416.7,9.443,9.443,0,0,0,3.874.884c4.16,0,6.552-1.326,7.072-4.368,1.118-6.24-7.384-3.926-6.89-6.708.182-1.04,1.144-1.144,3.016-1.144.364,0,2.054.234,3.042.364.39,0,.728-.078.858-.546.234-.884.312-1.248.338-1.43.078-.312-.234-.52-.546-.6a19.647,19.647,0,0,0-3.38-.572c-4.706,0-6.11,1.95-6.526,4.368-.858,4.888,7.462,3.3,6.968,6.162-.26,1.482-2.5,1.69-3.172,1.69A11.245,11.245,0,0,1-60.19,18.62ZM-44.044,7.83a.485.485,0,0,0-.494-.6h-1.924a.723.723,0,0,0-.7.6L-49.556,21.4a.475.475,0,0,0,.494.6h1.924a.745.745,0,0,0,.7-.6ZM-33.2,22a.745.745,0,0,0,.7-.6L-30.108,7.83a.485.485,0,0,0-.494-.6h-1.924a.723.723,0,0,0-.7.6l-1.43,8.034-3.51-8.112a.729.729,0,0,0-.7-.52H-41a.723.723,0,0,0-.7.6L-44.1,21.4a.475.475,0,0,0,.494.6h1.924a.745.745,0,0,0,.7-.6l1.482-8.424,3.666,8.5a.752.752,0,0,0,.7.52Zm9.828-3.38a.507.507,0,0,0-.208-.026.8.8,0,0,0-.7.416l-.806,1.352c-.052.052-.052.13-.078.182a.734.734,0,0,0,.416.7,9.443,9.443,0,0,0,3.874.884c4.16,0,6.552-1.326,7.072-4.368,1.118-6.24-7.384-3.926-6.89-6.708.182-1.04,1.144-1.144,3.016-1.144.364,0,2.054.234,3.042.364.39,0,.728-.078.858-.546.234-.884.312-1.248.338-1.43.078-.312-.234-.52-.546-.6a19.647,19.647,0,0,0-3.38-.572c-4.706,0-6.11,1.95-6.526,4.368-.858,4.888,7.462,3.3,6.968,6.162-.26,1.482-2.5,1.69-3.172,1.69A11.245,11.245,0,0,1-23.374,18.62Zm17.186.728c-1.2,0-3.2-.832-2.522-4.628.806-4.628,2.964-4.81,4.16-4.81s3.276.182,2.47,4.81C-2.756,18.516-5.044,19.348-6.188,19.348Zm-.468,2.782c3.484,0,6.682-1.638,7.7-7.41,1.092-6.162-1.612-7.592-5.1-7.592s-6.682,1.43-7.774,7.592C-12.844,20.492-10.192,22.13-6.656,22.13Zm11.7-14.9a.723.723,0,0,0-.7.6L1.95,21.4a.475.475,0,0,0,.494.6H4.368a.745.745,0,0,0,.7-.6l.754-4.29H8.658l.494,2.444c.39,1.248-.052,2.574,1.664,2.574.676,0,1.664-.208,1.768-.858l.182-.91a.53.53,0,0,0-.234-.546c-.182-.13-.234-.39-.39-1.014l-.52-2.47A5.477,5.477,0,0,0,14.2,12.2c.6-3.458-.936-4.966-4.42-4.966Zm3.484,7.1H6.318l.754-4.316h2.21c1.2,0,1.846.832,1.612,2.184A2.34,2.34,0,0,1,8.528,14.33Zm14.066-4.316h3.224a.723.723,0,0,0,.7-.6l.286-1.586a.485.485,0,0,0-.494-.6H16.718a.723.723,0,0,0-.7.6L15.73,9.416a.485.485,0,0,0,.494.6h3.25l-2,11.388a.475.475,0,0,0,.494.6H19.89a.745.745,0,0,0,.7-.6ZM35.022,22a.745.745,0,0,0,.7-.6l.26-1.586a.475.475,0,0,0-.494-.6H29.458l.572-3.2h4.394a.723.723,0,0,0,.7-.6l.286-1.586a.485.485,0,0,0-.494-.6H30.524l.572-3.224h6.032a.723.723,0,0,0,.7-.6l.286-1.586a.485.485,0,0,0-.494-.6H29.068a.723.723,0,0,0-.7.6L25.974,21.4a.475.475,0,0,0,.494.6Zm8.944-2.652c-1.2,0-3.2-.832-2.522-4.628.806-4.628,2.964-4.81,4.16-4.81s3.276.182,2.47,4.81C47.4,18.516,45.11,19.348,43.966,19.348ZM43.5,22.13c3.484,0,6.682-1.638,7.7-7.41,1.092-6.162-1.612-7.592-5.1-7.592s-6.682,1.43-7.774,7.592C37.31,20.492,39.962,22.13,43.5,22.13Zm10.478-3.51a.507.507,0,0,0-.208-.026.8.8,0,0,0-.7.416l-.806,1.352c-.052.052-.052.13-.078.182a.734.734,0,0,0,.416.7,9.443,9.443,0,0,0,3.874.884c4.16,0,6.552-1.326,7.072-4.368,1.118-6.24-7.384-3.926-6.89-6.708.182-1.04,1.144-1.144,3.016-1.144.364,0,2.054.234,3.042.364.39,0,.728-.078.858-.546.234-.884.312-1.248.338-1.43.078-.312-.234-.52-.546-.6a19.647,19.647,0,0,0-3.38-.572c-4.706,0-6.11,1.95-6.526,4.368-.858,4.888,7.462,3.3,6.968,6.162-.26,1.482-2.5,1.69-3.172,1.69A11.245,11.245,0,0,1,53.976,18.62Z" transform="translate(140.672 13597)" fill="#ea0c90"/>
    <path id="Trazado_30439" data-name="Trazado 30439" d="M-99.229-9.583h-2.59l.518-2.923a.691.691,0,0,0-.7-.851h-2.738a1.029,1.029,0,0,0-1,.851l-.518,2.923h-2.59a1.029,1.029,0,0,0-1,.851l-.407,2.257a.691.691,0,0,0,.7.851h2.59l-.518,2.923a.691.691,0,0,0,.7.851h2.738a1.029,1.029,0,0,0,1-.851l.518-2.923h2.59a1.029,1.029,0,0,0,1-.851l.407-2.257A.691.691,0,0,0-99.229-9.583Zm9.068-2.4a.69.69,0,0,0-.286.468l-.364,2.028a.485.485,0,0,0,.494.6l4.29-2.5L-87.924-.6a.475.475,0,0,0,.494.6h1.924a.745.745,0,0,0,.7-.6l2.392-13.572a.485.485,0,0,0-.494-.6h-2.5Zm13.676,9.334c-1.2,0-2.7-.832-2.028-4.628.806-4.628,2.47-4.81,3.666-4.81s2.7.182,1.9,4.81C-73.624-3.484-75.34-2.652-76.484-2.652ZM-76.952.13c3.484,0,6.292-1.638,7.306-7.41,1.092-6.162-1.222-7.592-4.706-7.592s-6.37,1.43-7.462,7.592C-82.828-1.508-80.489.13-76.952.13ZM-66.085-.6a.475.475,0,0,0,.494.6h2.132c.338,0,.546-.286.806-.624l8.294-13.546a.485.485,0,0,0-.494-.6h-2.132c-.338,0-.572.286-.832.624Zm1.924-10.322c-.234,0-.7-.13-.572-.78a.845.845,0,0,1,.832-.78c.234,0,.676.13.572.78A.862.862,0,0,1-64.161-10.92Zm-.416,2.366A3.442,3.442,0,0,0-61.015-11.7c.364-2.158-.7-3.172-2.47-3.172A3.449,3.449,0,0,0-67.047-11.7C-67.437-9.542-66.345-8.554-64.577-8.554Zm8.06,6.318c-.234,0-.676-.13-.572-.78a.845.845,0,0,1,.832-.78c.234,0,.676.13.572.78A.845.845,0,0,1-56.517-2.236ZM-56.933.13a3.442,3.442,0,0,0,3.562-3.146c.39-2.158-.7-3.172-2.47-3.172A3.465,3.465,0,0,0-59.4-3.016C-59.793-.858-58.7.13-56.933.13ZM-42.217,0c3.484,0,5.642-1.924,6.24-5.356l.7-4.056c.624-3.432-.858-5.356-4.342-5.356h-4.862a.723.723,0,0,0-.7.6L-47.573-.624A.494.494,0,0,0-47.079,0Zm2.938-5.356a2.74,2.74,0,0,1-2.7,2.574h-2.106l1.638-9.2h2.106c1.2,0,2.106.728,1.768,2.574Zm5.772,1.976a.507.507,0,0,0-.208-.026.8.8,0,0,0-.7.416l-.806,1.352c-.052.052-.052.13-.078.182a.734.734,0,0,0,.416.7A9.443,9.443,0,0,0-31.011.13c4.16,0,6.552-1.326,7.072-4.368,1.118-6.24-7.384-3.926-6.89-6.708.182-1.04,1.144-1.144,3.016-1.144.364,0,2.054.234,3.042.364.39,0,.728-.078.858-.546.234-.884.312-1.248.338-1.43.078-.312-.234-.52-.546-.6a19.647,19.647,0,0,0-3.38-.572c-4.706,0-6.11,1.95-6.526,4.368-.858,4.888,7.462,3.3,6.968,6.162-.26,1.482-2.5,1.69-3.172,1.69A11.245,11.245,0,0,1-33.507-3.38Zm22.282-10.426a5.133,5.133,0,0,0-3.432-1.066c-3.484,0-6.864,1.43-7.956,7.592C-23.6-1.742-20.767.13-17.283.13a6.329,6.329,0,0,0,3.8-1.092,1.036,1.036,0,0,0,.52-.65c.026-.078,0-.13-.364-1.326-.026-.234-.234-.338-.468-.338a.964.964,0,0,0-.364.1,4.908,4.908,0,0,1-2.418.52c-1.2,0-3.588-.832-2.912-4.628.806-4.628,3.38-4.81,4.576-4.81a4.666,4.666,0,0,1,2.236.494.739.739,0,0,0,.312.1.705.705,0,0,0,.624-.338,10.728,10.728,0,0,0,.832-1.326A.753.753,0,0,0-11.225-13.806Zm7.462,1.82H-.539a.723.723,0,0,0,.7-.6L.449-14.17a.485.485,0,0,0-.494-.6H-9.639a.723.723,0,0,0-.7.6l-.286,1.586a.485.485,0,0,0,.494.6h3.25L-8.885-.6a.475.475,0,0,0,.494.6h1.924a.745.745,0,0,0,.7-.6ZM5.389-2.652c-1.2,0-3.2-.832-2.522-4.628.806-4.628,2.964-4.81,4.16-4.81s3.276.182,2.47,4.81C8.821-3.484,6.533-2.652,5.389-2.652ZM4.921.13c3.484,0,6.682-1.638,7.7-7.41,1.092-6.162-1.612-7.592-5.1-7.592S.839-13.442-.253-7.28C-1.267-1.508,1.385.13,4.921.13Zm8.242-1.716A1.426,1.426,0,0,0,14.593.13a2.131,2.131,0,0,0,2-1.716,1.4,1.4,0,0,0-1.4-1.716A2.183,2.183,0,0,0,13.163-1.586Zm17.368-1.56a7.219,7.219,0,0,1-2.964.494c-1.2,0-1.638-.7-1.508-1.43a7.659,7.659,0,0,0,2.236.338,4.233,4.233,0,0,0,4.524-3.64c.312-1.9-1.014-3.3-3.822-3.3-3.484,0-5.33,2.106-5.9,5.3-.6,3.432.52,5.512,4,5.512A6.521,6.521,0,0,0,31.207-.91a1.13,1.13,0,0,0,.52-.65.293.293,0,0,0-.026-.208l-.338-1.118c-.026-.234-.26-.338-.494-.338A.8.8,0,0,0,30.531-3.146ZM28.5-7.878c.676,0,1.248.156,1.118.91-.1.572-.676.806-1.664.806A2.368,2.368,0,0,1,26.475-6.6,1.988,1.988,0,0,1,28.5-7.878Zm4.6,7.28A.475.475,0,0,0,33.6,0h1.924a.745.745,0,0,0,.7-.6l1.222-7.046a3.484,3.484,0,0,1,1.43-.26c1.482,0,1.56.364,1.222,2.236L39.216-.6a.475.475,0,0,0,.494.6h1.924a.745.745,0,0,0,.7-.6l.884-5.07c.6-3.432-.442-5.018-3.926-5.018a15.62,15.62,0,0,0-4.108.572.835.835,0,0,0-.52.65ZM49.719-2.912a.72.72,0,0,0-.234-.026.758.758,0,0,0-.676.416,11.728,11.728,0,0,0-.65,1.456c-.052.286.182.468.416.6A10.009,10.009,0,0,0,51.8.13c2.99,0,4.94-1.222,5.33-3.406.728-4.212-5.2-2.73-4.94-4.16.078-.416.884-.494,2.236-.494.208,0,1.092.078,1.69.156.39,0,.728-.078.858-.546.234-.884.312-1.248.364-1.43.052-.312-.26-.546-.546-.6a14.522,14.522,0,0,0-2.652-.338c-3.38,0-4.784,1.534-5.1,3.276-.78,4.316,5.174,2.782,4.914,4.212-.1.624-1.274.676-1.742.676A10.124,10.124,0,0,1,49.719-2.912Zm15.99-.234a7.219,7.219,0,0,1-2.964.494c-1.2,0-1.638-.7-1.508-1.43a7.659,7.659,0,0,0,2.236.338A4.233,4.233,0,0,0,68-7.384c.312-1.9-1.014-3.3-3.822-3.3-3.484,0-5.33,2.106-5.9,5.3-.6,3.432.52,5.512,4,5.512A6.521,6.521,0,0,0,66.386-.91a1.13,1.13,0,0,0,.52-.65.293.293,0,0,0-.026-.208l-.338-1.118c-.026-.234-.26-.338-.494-.338A.8.8,0,0,0,65.71-3.146ZM63.682-7.878c.676,0,1.248.156,1.118.91-.1.572-.676.806-1.664.806A2.367,2.367,0,0,1,61.654-6.6,1.988,1.988,0,0,1,63.682-7.878Zm14.56-2.184a9.67,9.67,0,0,0-3.406-.624c-3.484,0-5.85,2.366-6.448,5.72-.364,2.028.156,4.55,2.054,4.758A3.389,3.389,0,0,0,67.92,2.756c-.416,2.392,1.846,2.938,2.886,2.938,5.044,0,5.694-3.484,5.98-5.174l1.742-9.932A.563.563,0,0,0,78.242-10.062ZM73.509,1.378c-.182,1.066-.78,1.534-1.534,1.534-1.04,0-.962-.7-.91-1.092.1-.572.52-1.3,2.782-2.288Zm.754-4.316a2.315,2.315,0,0,1-1.456.676c-.884,0-1.43-.754-1.092-2.678C72-6.5,72.807-8.034,75.174-8.034Zm11.154-.286a2.275,2.275,0,0,1-1.482.572c-1.482,0-1.9-.13-1.56-2l.936-5.278a.485.485,0,0,0-.494-.6H80.893a.723.723,0,0,0-.7.6l-.936,5.278c-.6,3.432.806,4.784,4.29,4.784A9.754,9.754,0,0,0,87.731-.91a.937.937,0,0,0,.52-.65l1.482-8.372a.485.485,0,0,0-.494-.6H87.315a.723.723,0,0,0-.7.6ZM96.1-10.686a7.38,7.38,0,0,0-4.186,1.04c-.234.182-.494.364-.52.65L89.916-.6a.475.475,0,0,0,.494.6h1.924a.745.745,0,0,0,.7-.6L94.18-7.176c.208-.546,1.118-.7,1.534-.7A3.323,3.323,0,0,1,97.3-7.41a.612.612,0,0,0,.208.052.839.839,0,0,0,.65-.39l.754-1.274a.826.826,0,0,0,.078-.234.739.739,0,0,0-.208-.624A3.868,3.868,0,0,0,96.1-10.686Zm7.02,8.034c-1.846,0-1.534-1.638-1.352-2.7s.624-2.522,2.288-2.522,1.586,1.456,1.4,2.522S104.969-2.652,103.124-2.652ZM102.656.13c3.484,0,5.538-2.08,6.136-5.512.572-3.2-.754-5.3-4.238-5.3s-5.538,2.106-6.11,5.3C97.846-1.95,99.172.13,102.656.13Z" transform="translate(140 13642)" fill="#00aded"/>
  </g>
</svg>
