<svg xmlns="http://www.w3.org/2000/svg" width="258.177" height="70.678" viewBox="0 0 258.177 70.678"><defs><style>.a{fill:#0854c4;}.b{fill:#00bb31;}</style></defs><g transform="translate(-1572.048 -748.112)"><g transform="translate(32.011 -36.009)"><path class="a" d="M2.758,11H1.218V1.2H5.432A3.372,3.372,0,0,1,7.826,2a2.579,2.579,0,0,1,.882,2.044,2.752,2.752,0,0,1-.882,2.1,3.336,3.336,0,0,1-2.394.812H2.758Zm0-8.386V5.54H5.306a2.146,2.146,0,0,0,1.358-.385,1.3,1.3,0,0,0,.49-1.085,1.289,1.289,0,0,0-.483-1.078,2.169,2.169,0,0,0-1.365-.378ZM13.1,9.852a2.19,2.19,0,0,0,1.61-.658,2.219,2.219,0,0,0,.644-1.638,2.261,2.261,0,1,0-4.522,0,2.225,2.225,0,0,0,2.268,2.3Zm0,1.33a3.7,3.7,0,0,1-2.716-1.05A3.479,3.479,0,0,1,9.324,7.556a3.463,3.463,0,0,1,1.064-2.562A3.7,3.7,0,0,1,13.1,3.944a3.717,3.717,0,0,1,2.7,1.05A3.463,3.463,0,0,1,16.87,7.556a3.509,3.509,0,0,1-1.064,2.576A3.717,3.717,0,0,1,13.1,11.182ZM19.936,11H18.424V4.126h1.512v1.19a2.656,2.656,0,0,1,1.05-.987,3.034,3.034,0,0,1,1.484-.385.491.491,0,0,1,.14.014V5.47a3.926,3.926,0,0,0-.42-.028,2.527,2.527,0,0,0-1.386.392,2.215,2.215,0,0,0-.868.952Zm9.184.182a1.749,1.749,0,0,1-1.26-.441A1.808,1.808,0,0,1,27.4,9.376V1.2H28.91V8.956q0,.84.756.84a1.113,1.113,0,0,0,.574-.14v1.3A2.439,2.439,0,0,1,29.12,11.182Zm8.9-1.358a.842.842,0,0,0,.406-.1v1.148a1.483,1.483,0,0,1-.882.224,1.312,1.312,0,0,1-1.442-.98,3.207,3.207,0,0,1-2.534,1.064,2.8,2.8,0,0,1-1.848-.616A2.076,2.076,0,0,1,31,8.872a1.961,1.961,0,0,1,.8-1.68,3.124,3.124,0,0,1,1.96-.6,4.43,4.43,0,0,1,2.2.532V6.744q0-1.5-2.016-1.5a4.041,4.041,0,0,0-2.17.616V4.532a4.953,4.953,0,0,1,2.506-.588,3.589,3.589,0,0,1,2.317.693,2.349,2.349,0,0,1,.861,1.939V9.138a.735.735,0,0,0,.161.5A.526.526,0,0,0,38.024,9.824Zm-2.072-.77v-.84a3.675,3.675,0,0,0-1.834-.49A2.143,2.143,0,0,0,32.935,8a.887.887,0,0,0-.427.784.93.93,0,0,0,.4.812,1.859,1.859,0,0,0,1.085.28,2.716,2.716,0,0,0,1.092-.231A2.534,2.534,0,0,0,35.952,9.054Zm10.612,2.128a3.683,3.683,0,0,1-2.632-1.022,3.477,3.477,0,0,1-1.078-2.618,3.387,3.387,0,0,1,1.078-2.59,3.761,3.761,0,0,1,2.646-1.008,4.351,4.351,0,0,1,2.072.476v1.3A4.265,4.265,0,0,0,46.8,5.274a2.467,2.467,0,0,0-1.736.644,2.156,2.156,0,0,0-.7,1.638,2.172,2.172,0,0,0,.7,1.652,2.467,2.467,0,0,0,1.736.644,3.7,3.7,0,0,0,1.96-.518v1.288A4.351,4.351,0,0,1,46.564,11.182Zm7.1-1.33a2.19,2.19,0,0,0,1.61-.658,2.219,2.219,0,0,0,.644-1.638,2.261,2.261,0,1,0-4.522,0,2.225,2.225,0,0,0,2.268,2.3Zm0,1.33a3.7,3.7,0,0,1-2.716-1.05,3.479,3.479,0,0,1-1.064-2.576,3.463,3.463,0,0,1,1.064-2.562,4.02,4.02,0,0,1,5.418,0,3.463,3.463,0,0,1,1.064,2.562,3.509,3.509,0,0,1-1.064,2.576A3.717,3.717,0,0,1,53.662,11.182ZM60.494,11H58.982V4.126h1.512v.9a2.631,2.631,0,0,1,2.268-1.078,2.669,2.669,0,0,1,1.372.336,1.8,1.8,0,0,1,.8.9,2.691,2.691,0,0,1,1.043-.9,3.2,3.2,0,0,1,1.463-.336,2.29,2.29,0,0,1,1.792.714A2.95,2.95,0,0,1,69.874,6.7V11H68.362V7.052q0-1.694-1.4-1.694a1.861,1.861,0,0,0-1.043.329,1.95,1.95,0,0,0-.721.819V11H63.686V7.052q0-1.694-1.414-1.694a1.9,1.9,0,0,0-1.029.315,2.091,2.091,0,0,0-.749.791ZM75.74,3.944a3.067,3.067,0,0,1,2.394,1.05,3.7,3.7,0,0,1,.938,2.576,3.676,3.676,0,0,1-.938,2.562,3.067,3.067,0,0,1-2.394,1.05,2.92,2.92,0,0,1-2.45-1.12V13.8H71.778V4.126H73.29v.938A2.92,2.92,0,0,1,75.74,3.944Zm-.406,1.33a2.218,2.218,0,0,0-1.2.343,2.359,2.359,0,0,0-.84.889V8.634a2.374,2.374,0,0,0,.847.875,2.229,2.229,0,0,0,1.2.343,2.1,2.1,0,0,0,1.582-.658,2.289,2.289,0,0,0,.63-1.624,2.258,2.258,0,0,0-.63-1.624A2.077,2.077,0,0,0,75.334,5.274ZM82.138,11H80.626V4.126h1.512v1.19a2.656,2.656,0,0,1,1.05-.987,3.034,3.034,0,0,1,1.484-.385.491.491,0,0,1,.14.014V5.47a3.926,3.926,0,0,0-.42-.028,2.527,2.527,0,0,0-1.386.392,2.215,2.215,0,0,0-.868.952ZM92.526,9.824a.843.843,0,0,0,.406-.1v1.148a1.483,1.483,0,0,1-.882.224,1.312,1.312,0,0,1-1.442-.98,3.207,3.207,0,0,1-2.534,1.064,2.8,2.8,0,0,1-1.848-.616A2.076,2.076,0,0,1,85.5,8.872a1.961,1.961,0,0,1,.8-1.68,3.124,3.124,0,0,1,1.96-.6,4.43,4.43,0,0,1,2.2.532V6.744q0-1.5-2.016-1.5a4.041,4.041,0,0,0-2.17.616V4.532a4.953,4.953,0,0,1,2.506-.588,3.589,3.589,0,0,1,2.317.693,2.349,2.349,0,0,1,.861,1.939V9.138a.734.734,0,0,0,.161.5A.526.526,0,0,0,92.526,9.824Zm-2.072-.77v-.84a3.675,3.675,0,0,0-1.834-.49A2.143,2.143,0,0,0,87.437,8a.887.887,0,0,0-.427.784.93.93,0,0,0,.4.812,1.859,1.859,0,0,0,1.085.28,2.716,2.716,0,0,0,1.092-.231A2.534,2.534,0,0,0,90.454,9.054Zm10.234,2.128a3.067,3.067,0,0,1-2.394-1.05,3.7,3.7,0,0,1-.938-2.576,3.676,3.676,0,0,1,.938-2.562,3.067,3.067,0,0,1,2.394-1.05,2.92,2.92,0,0,1,2.45,1.12V1.2h1.512V11h-1.512v-.938A2.92,2.92,0,0,1,100.688,11.182Zm.406-1.33a2.218,2.218,0,0,0,1.2-.343,2.359,2.359,0,0,0,.84-.889V6.492a2.374,2.374,0,0,0-.847-.875,2.229,2.229,0,0,0-1.2-.343,2.077,2.077,0,0,0-1.582.672,2.24,2.24,0,0,0-.63,1.61,2.307,2.307,0,0,0,.63,1.638A2.1,2.1,0,0,0,101.094,9.852Zm5.11-2.3a3.573,3.573,0,0,1,.98-2.576,3.376,3.376,0,0,1,2.548-1.036,2.911,2.911,0,0,1,1.806.56,3.564,3.564,0,0,1,1.456,3.108V8H107.73a1.98,1.98,0,0,0,.833,1.358,2.971,2.971,0,0,0,1.757.49,4.257,4.257,0,0,0,2.212-.616V10.51a4.31,4.31,0,0,1-2.534.672,3.9,3.9,0,0,1-2.7-1.008A3.4,3.4,0,0,1,106.2,7.556Zm1.54-.7h3.724a1.7,1.7,0,0,0-1.806-1.638,1.912,1.912,0,0,0-1.323.469A1.75,1.75,0,0,0,107.744,6.856Zm11.088,2.268V5.456h-1.47V4.126h1.47v-2h1.512v2h2.17v1.33h-2.17V8.69a1.148,1.148,0,0,0,.266.84,1.1,1.1,0,0,0,.812.266,2.235,2.235,0,0,0,1.036-.252v1.3a2.738,2.738,0,0,1-1.526.336,2.145,2.145,0,0,1-1.54-.532A2,2,0,0,1,118.832,9.124Zm10.22-.476V4.126h1.512V11h-1.512v-.91a3.287,3.287,0,0,1-2.52,1.092,2.375,2.375,0,0,1-1.883-.756,3.073,3.073,0,0,1-.665-2.1v-4.2H125.5V7.99q0,1.778,1.61,1.778a2.192,2.192,0,0,0,1.106-.315A2.287,2.287,0,0,0,129.052,8.648Zm12.04,2.408h-1.456L135.422,1.2h1.708l3.248,7.728L143.626,1.2h1.666ZM148.078,11h-1.512V4.126h1.512Zm-.756-8.106a.933.933,0,0,1-.952-.952.945.945,0,0,1,.273-.686.91.91,0,0,1,.679-.28.894.894,0,0,1,.665.28.945.945,0,0,1,.273.686.922.922,0,0,1-.273.679A.9.9,0,0,1,147.322,2.894Zm5.768,8.288a3.067,3.067,0,0,1-2.394-1.05,3.7,3.7,0,0,1-.938-2.576,3.676,3.676,0,0,1,.938-2.562,3.067,3.067,0,0,1,2.394-1.05,2.92,2.92,0,0,1,2.45,1.12V1.2h1.512V11H155.54v-.938A2.92,2.92,0,0,1,153.09,11.182Zm.406-1.33a2.218,2.218,0,0,0,1.2-.343,2.359,2.359,0,0,0,.84-.889V6.492a2.374,2.374,0,0,0-.847-.875,2.229,2.229,0,0,0-1.2-.343,2.077,2.077,0,0,0-1.582.672,2.24,2.24,0,0,0-.63,1.61,2.307,2.307,0,0,0,.63,1.638A2.1,2.1,0,0,0,153.5,9.852Zm12.054-.028a.843.843,0,0,0,.406-.1v1.148a1.483,1.483,0,0,1-.882.224,1.312,1.312,0,0,1-1.442-.98,3.207,3.207,0,0,1-2.534,1.064,2.8,2.8,0,0,1-1.848-.616,2.076,2.076,0,0,1-.728-1.694,1.961,1.961,0,0,1,.8-1.68,3.123,3.123,0,0,1,1.96-.6,4.43,4.43,0,0,1,2.2.532V6.744q0-1.5-2.016-1.5a4.041,4.041,0,0,0-2.17.616V4.532a4.953,4.953,0,0,1,2.506-.588,3.589,3.589,0,0,1,2.317.693,2.349,2.349,0,0,1,.861,1.939V9.138a.735.735,0,0,0,.161.5A.526.526,0,0,0,165.55,9.824Zm-2.072-.77v-.84a3.675,3.675,0,0,0-1.834-.49,2.143,2.143,0,0,0-1.183.28.887.887,0,0,0-.427.784.93.93,0,0,0,.4.812,1.859,1.859,0,0,0,1.085.28,2.716,2.716,0,0,0,1.092-.231A2.535,2.535,0,0,0,163.478,9.054ZM4.676,27H1.218V17.2H4.676a5.478,5.478,0,0,1,3.85,1.372,4.568,4.568,0,0,1,1.5,3.528,4.584,4.584,0,0,1-1.5,3.542A5.48,5.48,0,0,1,4.676,27ZM2.758,18.614v6.972H4.536a4.089,4.089,0,0,0,2.87-.938A3.293,3.293,0,0,0,8.442,22.1a3.293,3.293,0,0,0-1.036-2.548,4.089,4.089,0,0,0-2.87-.938Zm8.61,4.942a3.573,3.573,0,0,1,.98-2.576A3.376,3.376,0,0,1,14.9,19.944a2.911,2.911,0,0,1,1.806.56,3.564,3.564,0,0,1,1.456,3.108V24H12.894a1.98,1.98,0,0,0,.833,1.358,2.971,2.971,0,0,0,1.757.49,4.257,4.257,0,0,0,2.212-.616V26.51a4.31,4.31,0,0,1-2.534.672,3.9,3.9,0,0,1-2.7-1.008A3.4,3.4,0,0,1,11.368,23.556Zm1.54-.7h3.724a1.7,1.7,0,0,0-1.806-1.638,1.912,1.912,0,0,0-1.323.469A1.75,1.75,0,0,0,12.908,22.856Zm10.5,4.2H22.036l-3.08-6.93h1.666l2.142,4.97,2.114-4.97h1.61Zm7.49-1.2a2.19,2.19,0,0,0,1.61-.658,2.387,2.387,0,0,0,0-3.262,2.261,2.261,0,0,0-3.878,1.624,2.225,2.225,0,0,0,2.268,2.3Zm0,1.33a3.7,3.7,0,0,1-2.716-1.05,3.633,3.633,0,0,1,0-5.138,4.02,4.02,0,0,1,5.418,0,3.463,3.463,0,0,1,1.064,2.562A3.509,3.509,0,0,1,33.6,26.132,3.717,3.717,0,0,1,30.9,27.182Zm7.042,0a1.749,1.749,0,0,1-1.26-.441,1.808,1.808,0,0,1-.462-1.365V17.2H37.73v7.756q0,.84.756.84a1.113,1.113,0,0,0,.574-.14v1.3A2.439,2.439,0,0,1,37.94,27.182Zm7.392-2.534V20.126h1.512V27H45.332v-.91a3.287,3.287,0,0,1-2.52,1.092,2.375,2.375,0,0,1-1.883-.756,3.073,3.073,0,0,1-.665-2.1v-4.2h1.512V23.99q0,1.778,1.61,1.778a2.192,2.192,0,0,0,1.106-.315A2.287,2.287,0,0,0,45.332,24.648Zm6.776,2.534a3.683,3.683,0,0,1-2.632-1.022A3.477,3.477,0,0,1,48.4,23.542a3.387,3.387,0,0,1,1.078-2.59,3.761,3.761,0,0,1,2.646-1.008,4.351,4.351,0,0,1,2.072.476v1.3a4.265,4.265,0,0,0-1.848-.448,2.467,2.467,0,0,0-1.736.644,2.283,2.283,0,0,0,0,3.29,2.467,2.467,0,0,0,1.736.644,3.7,3.7,0,0,0,1.96-.518v1.288A4.351,4.351,0,0,1,52.108,27.182ZM57.694,27H56.182V20.126h1.512Zm-.756-8.106a.933.933,0,0,1-.952-.952.945.945,0,0,1,.273-.686.91.91,0,0,1,.679-.28.894.894,0,0,1,.665.28.945.945,0,0,1,.273.686.922.922,0,0,1-.273.679A.9.9,0,0,1,56.938,18.894Zm6.216,6.958a2.19,2.19,0,0,0,1.61-.658,2.387,2.387,0,0,0,0-3.262,2.261,2.261,0,0,0-3.878,1.624,2.225,2.225,0,0,0,2.268,2.3Zm0,1.33a3.7,3.7,0,0,1-2.716-1.05,3.633,3.633,0,0,1,0-5.138,4.02,4.02,0,0,1,5.418,0,3.463,3.463,0,0,1,1.064,2.562,3.509,3.509,0,0,1-1.064,2.576A3.717,3.717,0,0,1,63.154,27.182ZM63.7,18.95H62.328l1.33-1.96h1.89Zm6.286,3.528V27H68.474V20.126h1.512v.91a3.287,3.287,0,0,1,2.52-1.092,2.375,2.375,0,0,1,1.883.756,3.073,3.073,0,0,1,.665,2.1V27H73.542V23.136q0-1.778-1.61-1.778a2.192,2.192,0,0,0-1.106.315A2.287,2.287,0,0,0,69.986,22.478Zm7.658,4.634a.98.98,0,0,1-.994-.994.944.944,0,0,1,.287-.693.989.989,0,0,1,1.393,0,.933.933,0,0,1,.294.693.961.961,0,0,1-.287.707A.944.944,0,0,1,77.644,27.112ZM85.554,27h-1.54V17.2h1.568l3.178,4.41,3.15-4.41h1.54V27H91.91V19.552l-2.73,3.7h-.9l-2.73-3.7Zm16.534-1.176a.843.843,0,0,0,.406-.1v1.148a1.483,1.483,0,0,1-.882.224,1.312,1.312,0,0,1-1.442-.98,3.207,3.207,0,0,1-2.534,1.064,2.8,2.8,0,0,1-1.848-.616,2.076,2.076,0,0,1-.728-1.694,1.961,1.961,0,0,1,.8-1.68,3.124,3.124,0,0,1,1.96-.6,4.43,4.43,0,0,1,2.2.532v-.378q0-1.5-2.016-1.5a4.041,4.041,0,0,0-2.17.616v-1.33a4.953,4.953,0,0,1,2.506-.588,3.589,3.589,0,0,1,2.317.693,2.349,2.349,0,0,1,.861,1.939v2.562a.734.734,0,0,0,.161.5A.526.526,0,0,0,102.088,25.824Zm-2.072-1.61a3.675,3.675,0,0,0-1.834-.49A2.143,2.143,0,0,0,97,24a.887.887,0,0,0-.427.784.93.93,0,0,0,.4.812,1.859,1.859,0,0,0,1.085.28,2.716,2.716,0,0,0,1.092-.231,2.534,2.534,0,0,0,.868-.595ZM98.784,18.95H97.412l1.33-1.96h1.89Zm7.546,8.232a5.078,5.078,0,0,1-2.87-.7V25.054a4.828,4.828,0,0,0,2.8.826,2.355,2.355,0,0,0,1.113-.217.66.66,0,0,0,.4-.595.624.624,0,0,0-.42-.546,4.621,4.621,0,0,0-.658-.21l-.854-.21a4.271,4.271,0,0,1-1.764-.791,1.864,1.864,0,0,1,.224-2.828,3.69,3.69,0,0,1,2.142-.539,4.608,4.608,0,0,1,2.534.616v1.386a5.026,5.026,0,0,0-2.478-.7,2.192,2.192,0,0,0-1.05.2.616.616,0,0,0-.364.553q0,.322.434.546.056.028.658.21l.8.168q2.352.518,2.352,2.17a1.762,1.762,0,0,1-.826,1.512A3.729,3.729,0,0,1,106.33,27.182ZM116.1,27H114.59V20.126H116.1Zm-.756-8.106a.933.933,0,0,1-.952-.952.945.945,0,0,1,.273-.686.91.91,0,0,1,.679-.28.894.894,0,0,1,.665.28.945.945,0,0,1,.273.686.922.922,0,0,1-.273.679A.9.9,0,0,1,115.346,18.894Zm4.438,3.584V27h-1.512V20.126h1.512v.91a3.287,3.287,0,0,1,2.52-1.092,2.375,2.375,0,0,1,1.883.756,3.073,3.073,0,0,1,.665,2.1V27H123.34V23.136q0-1.778-1.61-1.778a2.192,2.192,0,0,0-1.106.315A2.287,2.287,0,0,0,119.784,22.478Zm9.016-1.022V27h-1.512V21.456H126v-1.33h1.288v-.9a2.2,2.2,0,0,1,.56-1.582,2.1,2.1,0,0,1,1.6-.588,4.2,4.2,0,0,1,1.61.294v1.274a3.367,3.367,0,0,0-1.19-.252q-1.064,0-1.064,1.12v.63h2.254v1.33Zm6.664,4.4a2.19,2.19,0,0,0,1.61-.658,2.387,2.387,0,0,0,0-3.262,2.261,2.261,0,0,0-3.878,1.624,2.225,2.225,0,0,0,2.268,2.3Zm0,1.33a3.7,3.7,0,0,1-2.716-1.05,3.633,3.633,0,0,1,0-5.138,4.02,4.02,0,0,1,5.418,0,3.463,3.463,0,0,1,1.064,2.562,3.509,3.509,0,0,1-1.064,2.576A3.717,3.717,0,0,1,135.464,27.182Zm15.386-1.708a.847.847,0,0,0,.406-.084v1.442a1.7,1.7,0,0,1-1.064.294,1.55,1.55,0,0,1-1.582-.9,3.206,3.206,0,0,1-2.408.952,2.674,2.674,0,0,1-1.862-.644,2.172,2.172,0,0,1-.714-1.694,1.978,1.978,0,0,1,.812-1.708,3.228,3.228,0,0,1,1.946-.588,4.291,4.291,0,0,1,2.016.434v-.21q0-1.316-1.848-1.316a4.037,4.037,0,0,0-2.114.588V20.392a5.5,5.5,0,0,1,2.59-.56,3.706,3.706,0,0,1,2.408.728,2.424,2.424,0,0,1,.924,2.016v2.366Q150.36,25.474,150.85,25.474Zm-2.45-.532v-.7a2.585,2.585,0,0,0-1.456-.406,1.837,1.837,0,0,0-1,.238.755.755,0,0,0-.371.672.771.771,0,0,0,.336.679,1.583,1.583,0,0,0,.91.231A1.871,1.871,0,0,0,148.4,24.942Zm6.944-5.11a2.7,2.7,0,0,1,2.3,1.036v-.854h1.974V29.8H157.64V26.146a2.772,2.772,0,0,1-2.3,1.036,3.064,3.064,0,0,1-2.366-1.05,3.852,3.852,0,0,1-.924-2.618,3.819,3.819,0,0,1,.924-2.618A3.019,3.019,0,0,1,155.344,19.832Zm.56,1.722a1.763,1.763,0,0,0-1.358.56,2.09,2.09,0,0,0,0,2.786,1.763,1.763,0,0,0,1.358.56,1.9,1.9,0,0,0,1.022-.287,2,2,0,0,0,.714-.749V22.6a2.05,2.05,0,0,0-.714-.756A1.865,1.865,0,0,0,155.9,21.554Zm10.29,2.912V20.014h1.974V27h-1.974v-.84a3.043,3.043,0,0,1-2.338,1.022,2.369,2.369,0,0,1-1.876-.763,3.1,3.1,0,0,1-.672-2.121V20.014h1.974v3.878a1.508,1.508,0,0,0,.371,1.12,1.311,1.311,0,0,0,.959.364,1.74,1.74,0,0,0,.889-.259A2.024,2.024,0,0,0,166.194,24.466ZM171.878,27H169.9V20.014h1.974Zm-.168-7.98H170l1.33-2.044h2.38Z" transform="translate(1593.578 825)"/></g><g transform="translate(-1001.166 -227.756)"><g transform="translate(2573.214 991.425)"><path class="b" d="M2573.216,1030.087l0-11.49.566-.122c2.514-.541,3.736-1.963,3.738-4.349a2.82,2.82,0,0,0-.975-2.266,3.114,3.114,0,0,0-2.477-.632l-.853.165v-7.829a4.3,4.3,0,0,1,3.221-4.157l42.676-7.983v.863s.008,7.78,0,9.49v.55l-.531.141c-1.862.495-3.765,1.4-3.765,4.357a2.884,2.884,0,0,0,1.062,2.411,2.77,2.77,0,0,0,2.341.5l.9-.23,0,8.732a3.934,3.934,0,0,1-3.207,3.86Zm1.433-10.35v8.622l40.993-7.675a2.5,2.5,0,0,0,2.037-2.451l0-6.987a4.182,4.182,0,0,1-2.681-.876,4.353,4.353,0,0,1-1.617-3.544,5.506,5.506,0,0,1,4.3-5.595c0-1.864,0-6.222,0-8.079l-40.931,7.655a2.851,2.851,0,0,0-2.1,2.757v6.181a4.55,4.55,0,0,1,2.808,1.009,4.189,4.189,0,0,1,1.5,3.374A5.406,5.406,0,0,1,2574.649,1019.738Z" transform="translate(-2573.214 -991.425)"/><path class="b" d="M2619.257,1038.411a10.04,10.04,0,1,1,10.041-10.041A10.052,10.052,0,0,1,2619.257,1038.411Zm0-18.647a8.606,8.606,0,1,0,8.606,8.606A8.615,8.615,0,0,0,2619.257,1019.765Z" transform="translate(-2596.306 -1008.682)"/><path class="b" d="M2627.309,1040.939a4.346,4.346,0,0,0-1.544-.648c-.083-.018-.24-.048-.469-.091s-.38-.074-.451-.093l-.308-.077q-.281-.089-.3-.276-.037-.429.823-.5a4.04,4.04,0,0,1,1.175.087,4.661,4.661,0,0,1,1.114.355l.014-1.616a5.46,5.46,0,0,0-2.453-.348,3.094,3.094,0,0,0-1.839.676,1.711,1.711,0,0,0-.562,1.508,2.052,2.052,0,0,0,.317.942,2.5,2.5,0,0,0,.687.543,2.358,2.358,0,0,0,.448.168l.444.131.489.1.6.127a2.018,2.018,0,0,1,.435.132.489.489,0,0,1,.285.361q.044.514-.956.6a3.859,3.859,0,0,1-1.368-.146,2.654,2.654,0,0,1-1.041-.445l0,1.632a4.417,4.417,0,0,0,2.6.476,3.078,3.078,0,0,0,1.876-.736,1.854,1.854,0,0,0,.615-1.6A1.639,1.639,0,0,0,2627.309,1040.939Z" transform="translate(-2604.829 -1021.112)"/><path class="b" d="M2638.7,1041.774l1.668-.307,3.075-8.719h-1.513Z" transform="translate(-2615.216 -1017.93)"/></g></g><path class="b" d="M3.978,9.212,4.554,17.6h-3.1l.558-8.388ZM1.44,6.368A1.479,1.479,0,0,1,1.9,5.27a1.524,1.524,0,0,1,1.107-.45A1.537,1.537,0,0,1,4.554,6.368,1.546,1.546,0,0,1,4.1,7.493a1.479,1.479,0,0,1-1.1.459A1.509,1.509,0,0,1,1.9,7.493,1.53,1.53,0,0,1,1.44,6.368Zm12.222,7.884a6.63,6.63,0,0,1-4.788-1.836A6.3,6.3,0,0,1,6.948,7.7,6.227,6.227,0,0,1,8.874,2.984a6.746,6.746,0,0,1,4.878-1.836,7.25,7.25,0,0,1,3.78.954V4.658a6.757,6.757,0,0,0-3.6-1.08A4.347,4.347,0,0,0,10.8,4.73,3.954,3.954,0,0,0,9.594,7.754a3.936,3.936,0,0,0,1.17,2.988,4.036,4.036,0,0,0,2.9,1.116A3.572,3.572,0,0,0,16.2,11.03V6.692h2.592v5.562a6.1,6.1,0,0,1-2.16,1.422A7.748,7.748,0,0,1,13.662,14.252Zm16.11-2.214a1.089,1.089,0,0,0,.522-.108v1.854a2.183,2.183,0,0,1-1.368.378,1.993,1.993,0,0,1-2.034-1.152,4.121,4.121,0,0,1-3.1,1.224,3.438,3.438,0,0,1-2.394-.828,2.793,2.793,0,0,1-.918-2.178,2.543,2.543,0,0,1,1.044-2.2,4.151,4.151,0,0,1,2.5-.756,5.517,5.517,0,0,1,2.592.558v-.27q0-1.692-2.376-1.692a5.19,5.19,0,0,0-2.718.756V5.5a7.075,7.075,0,0,1,3.33-.72,4.765,4.765,0,0,1,3.1.936,3.116,3.116,0,0,1,1.188,2.592v3.042Q29.142,12.038,29.772,12.038Zm-3.15-1.584a3.324,3.324,0,0,0-1.872-.522,2.361,2.361,0,0,0-1.287.306.97.97,0,0,0-.477.864.992.992,0,0,0,.432.873,2.035,2.035,0,0,0,1.17.3,2.4,2.4,0,0,0,2.034-.918ZM25.65,3.74h-2.2l1.71-2.628h3.06ZM34.6,8.276V14H32.058V5.018H34.6V6.1A3.912,3.912,0,0,1,37.6,4.784a3.045,3.045,0,0,1,2.412.981,3.987,3.987,0,0,1,.864,2.727V14H38.34V9.014a1.938,1.938,0,0,0-.477-1.44,1.686,1.686,0,0,0-1.233-.468,2.237,2.237,0,0,0-1.143.333A2.6,2.6,0,0,0,34.6,8.276Zm17.136,3.762a1.089,1.089,0,0,0,.522-.108v1.854a2.183,2.183,0,0,1-1.368.378,1.993,1.993,0,0,1-2.034-1.152,4.121,4.121,0,0,1-3.1,1.224,3.438,3.438,0,0,1-2.394-.828,2.793,2.793,0,0,1-.918-2.178,2.543,2.543,0,0,1,1.044-2.2,4.151,4.151,0,0,1,2.5-.756,5.517,5.517,0,0,1,2.592.558v-.27q0-1.692-2.376-1.692a5.19,5.19,0,0,0-2.718.756V5.5a7.075,7.075,0,0,1,3.33-.72,4.765,4.765,0,0,1,3.1.936A3.116,3.116,0,0,1,51.1,8.312v3.042Q51.1,12.038,51.732,12.038Zm-3.15-.684v-.9a3.324,3.324,0,0,0-1.872-.522,2.361,2.361,0,0,0-1.287.306.97.97,0,0,0-.477.864.992.992,0,0,0,.432.873,2.035,2.035,0,0,0,1.17.3A2.4,2.4,0,0,0,48.582,11.354Zm6.1-.144V7.142H52.92V5.018h1.764V2.552h2.538V5.018h2.556V7.142H57.222v3.564a1.349,1.349,0,0,0,.288.963,1.26,1.26,0,0,0,.936.3,2.91,2.91,0,0,0,1.314-.324v2.106a4.074,4.074,0,0,1-2.142.486Q54.684,14.234,54.684,11.21Zm11.484,3.024a5.107,5.107,0,0,1-3.546-1.3A4.4,4.4,0,0,1,61.182,9.5a4.646,4.646,0,0,1,1.3-3.348,4.448,4.448,0,0,1,3.384-1.368A3.87,3.87,0,0,1,68.976,6.17a5.043,5.043,0,0,1,1.17,3.366V10.2H63.7a2.087,2.087,0,0,0,1,1.386,3.81,3.81,0,0,0,2.007.486,5.728,5.728,0,0,0,2.88-.792v2.034A5.549,5.549,0,0,1,66.168,14.234ZM63.7,8.582h3.942A1.876,1.876,0,0,0,67.1,7.3a1.814,1.814,0,0,0-1.341-.513,2.038,2.038,0,0,0-1.4.5A1.967,1.967,0,0,0,63.7,8.582Zm19.116,2.16V5.018h2.538V14H82.818V12.92a3.912,3.912,0,0,1-3.006,1.314,3.045,3.045,0,0,1-2.412-.981,3.987,3.987,0,0,1-.864-2.727V5.018h2.538V10a1.938,1.938,0,0,0,.477,1.44,1.686,1.686,0,0,0,1.233.468,2.237,2.237,0,0,0,1.143-.333A2.6,2.6,0,0,0,82.818,10.742Zm7.56-2.466V14H87.84V5.018h2.538V6.1a3.912,3.912,0,0,1,3.006-1.314,3.045,3.045,0,0,1,2.412.981,3.987,3.987,0,0,1,.864,2.727V14H94.122V9.014a1.938,1.938,0,0,0-.477-1.44,1.686,1.686,0,0,0-1.233-.468,2.237,2.237,0,0,0-1.143.333A2.6,2.6,0,0,0,90.378,8.276Zm18.4,5.8h-2.3l-3.906-9.054H105.3l2.376,5.832,2.358-5.832h2.646Zm13.77-2.034a1.089,1.089,0,0,0,.522-.108v1.854a2.183,2.183,0,0,1-1.368.378,1.993,1.993,0,0,1-2.034-1.152,4.121,4.121,0,0,1-3.1,1.224,3.438,3.438,0,0,1-2.394-.828,2.793,2.793,0,0,1-.918-2.178,2.543,2.543,0,0,1,1.044-2.2,4.151,4.151,0,0,1,2.5-.756,5.517,5.517,0,0,1,2.592.558v-.27q0-1.692-2.376-1.692a5.19,5.19,0,0,0-2.718.756V5.5a7.075,7.075,0,0,1,3.33-.72,4.765,4.765,0,0,1,3.1.936,3.116,3.116,0,0,1,1.188,2.592v3.042Q121.914,12.038,122.544,12.038Zm-3.15-.684v-.9a3.324,3.324,0,0,0-1.872-.522,2.361,2.361,0,0,0-1.287.306.97.97,0,0,0-.477.864.992.992,0,0,0,.432.873,2.035,2.035,0,0,0,1.17.3A2.4,2.4,0,0,0,119.394,11.354Zm7.83,2.88a2.454,2.454,0,0,1-1.755-.6,2.477,2.477,0,0,1-.639-1.881V1.4h2.538v9.684q0,.9.81.9a1.237,1.237,0,0,0,.648-.162V13.91A3.561,3.561,0,0,1,127.224,14.234Zm7.722,0a5.107,5.107,0,0,1-3.546-1.3A4.4,4.4,0,0,1,129.96,9.5a4.646,4.646,0,0,1,1.3-3.348,4.448,4.448,0,0,1,3.384-1.368,3.87,3.87,0,0,1,3.114,1.386,5.043,5.043,0,0,1,1.17,3.366V10.2H132.48a2.087,2.087,0,0,0,1,1.386,3.81,3.81,0,0,0,2.007.486,5.728,5.728,0,0,0,2.88-.792v2.034A5.549,5.549,0,0,1,134.946,14.234ZM132.48,8.582h3.942a1.876,1.876,0,0,0-.549-1.287,1.814,1.814,0,0,0-1.341-.513,2.038,2.038,0,0,0-1.4.5A1.967,1.967,0,0,0,132.48,8.582Zm18.2,5.49h-2.3l-3.906-9.054H147.2l2.376,5.832,2.358-5.832h2.646ZM158.742,14H156.2V5.018h2.538Zm-2.79-11.358a1.479,1.479,0,0,1,.441-1.089,1.521,1.521,0,0,1,2.142,0,1.48,1.48,0,0,1,.441,1.089,1.458,1.458,0,0,1-.441,1.071,1.521,1.521,0,0,1-2.142,0A1.458,1.458,0,0,1,155.952,2.642ZM163.89,14h-2.538V5.018h2.538V6.53a3.434,3.434,0,0,1,1.26-1.224,3.617,3.617,0,0,1,1.872-.522,1.454,1.454,0,0,1,.288.018V7.286a3.264,3.264,0,0,0-.792-.09,2.963,2.963,0,0,0-1.611.459,2.546,2.546,0,0,0-1.017,1.107Zm6.462-2.79V7.142h-1.764V5.018h1.764V2.552h2.538V5.018h2.556V7.142H172.89v3.564a1.349,1.349,0,0,0,.288.963,1.26,1.26,0,0,0,.936.3,2.91,2.91,0,0,0,1.314-.324v2.106a4.074,4.074,0,0,1-2.142.486Q170.352,14.234,170.352,11.21Zm13.212-.468V5.018H186.1V14h-2.538V12.92a3.912,3.912,0,0,1-3.006,1.314,3.045,3.045,0,0,1-2.412-.981,3.987,3.987,0,0,1-.864-2.727V5.018h2.538V10a1.938,1.938,0,0,0,.477,1.44,1.686,1.686,0,0,0,1.233.468,2.237,2.237,0,0,0,1.143-.333A2.6,2.6,0,0,0,183.564,10.742Zm13.572,1.3a1.089,1.089,0,0,0,.522-.108v1.854a2.183,2.183,0,0,1-1.368.378,1.993,1.993,0,0,1-2.034-1.152,4.121,4.121,0,0,1-3.1,1.224,3.438,3.438,0,0,1-2.394-.828,2.793,2.793,0,0,1-.918-2.178,2.543,2.543,0,0,1,1.044-2.2,4.151,4.151,0,0,1,2.5-.756,5.517,5.517,0,0,1,2.592.558v-.27q0-1.692-2.376-1.692a5.19,5.19,0,0,0-2.718.756V5.5a7.075,7.075,0,0,1,3.33-.72,4.765,4.765,0,0,1,3.1.936,3.116,3.116,0,0,1,1.188,2.592v3.042Q196.506,12.038,197.136,12.038Zm-3.15-.684v-.9a3.324,3.324,0,0,0-1.872-.522,2.361,2.361,0,0,0-1.287.306.97.97,0,0,0-.477.864.992.992,0,0,0,.432.873,2.035,2.035,0,0,0,1.17.3A2.4,2.4,0,0,0,193.986,11.354Zm7.83,2.88a2.454,2.454,0,0,1-1.755-.6,2.477,2.477,0,0,1-.639-1.881V1.4h2.538v9.684q0,.9.81.9a1.237,1.237,0,0,0,.648-.162V13.91A3.561,3.561,0,0,1,201.816,14.234Zm-196.938,20a3.939,3.939,0,0,1-3.042-1.35A4.978,4.978,0,0,1,.648,29.5a4.885,4.885,0,0,1,1.188-3.348,3.882,3.882,0,0,1,3.042-1.368A3.564,3.564,0,0,1,7.83,26.116V21.4h2.538V34H7.83V32.9A3.473,3.473,0,0,1,4.878,34.234ZM5.6,32.02a2.4,2.4,0,0,0,1.314-.378,2.636,2.636,0,0,0,.918-.972V28.33a2.567,2.567,0,0,0-.918-.963A2.441,2.441,0,0,0,5.6,27a2.267,2.267,0,0,0-1.746.72,2.687,2.687,0,0,0,0,3.582A2.267,2.267,0,0,0,5.6,32.02Zm11.646,2.214a5.107,5.107,0,0,1-3.546-1.3,4.4,4.4,0,0,1-1.44-3.438,4.646,4.646,0,0,1,1.3-3.348,4.448,4.448,0,0,1,3.384-1.368,3.87,3.87,0,0,1,3.114,1.386,5.043,5.043,0,0,1,1.17,3.366V30.2H14.778a2.087,2.087,0,0,0,1,1.386,3.81,3.81,0,0,0,2.007.486,5.728,5.728,0,0,0,2.88-.792v2.034A5.549,5.549,0,0,1,17.244,34.234Zm-2.466-5.652H18.72a1.876,1.876,0,0,0-.549-1.287,1.814,1.814,0,0,0-1.341-.513,2.038,2.038,0,0,0-1.4.5A1.967,1.967,0,0,0,14.778,28.582Zm17.316,5.67a8.19,8.19,0,0,1-4.788-1.35V30.2a7.126,7.126,0,0,0,2.088,1.188,7.437,7.437,0,0,0,2.592.486,3.515,3.515,0,0,0,1.746-.387,1.187,1.187,0,0,0,.684-1.071,1.067,1.067,0,0,0-.648-1.044,4.183,4.183,0,0,0-.72-.324l-.432-.144L31.608,28.6l-.936-.306q-.2-.054-.846-.306a4.835,4.835,0,0,1-.81-.378,3.988,3.988,0,0,1-1.188-1.1,3.9,3.9,0,0,1-.432-1.764,3.1,3.1,0,0,1,1.278-2.628,5.608,5.608,0,0,1,3.474-.972,8.451,8.451,0,0,1,4.122,1.044v2.52a7.656,7.656,0,0,0-4.086-1.188q-2.142,0-2.142,1.242a.976.976,0,0,0,.666.864,4.522,4.522,0,0,0,1.026.378q.846.234,1.368.4a9.65,9.65,0,0,1,2.736,1.314,3,3,0,0,1,1.26,2.628,3.358,3.358,0,0,1-1.422,2.862A5.892,5.892,0,0,1,32.094,34.252Zm7.938,2.268H37.494l7.578-16.776H47.61Zm15.426-9.234a3.58,3.58,0,0,1,1.7,1.224,3.086,3.086,0,0,1,.639,1.908,3.253,3.253,0,0,1-1.458,2.808,5.934,5.934,0,0,1-3.564,1.026,6.068,6.068,0,0,1-3.582-1.026,3.253,3.253,0,0,1-1.458-2.808,3.086,3.086,0,0,1,.639-1.908,3.58,3.58,0,0,1,1.7-1.224,3.027,3.027,0,0,1-1.3-1.08,2.761,2.761,0,0,1-.468-1.566,3.039,3.039,0,0,1,1.26-2.52,5.14,5.14,0,0,1,3.2-.972,5.081,5.081,0,0,1,3.168.972,3.025,3.025,0,0,1,1.278,2.52,2.761,2.761,0,0,1-.468,1.566A3.027,3.027,0,0,1,55.458,27.286Zm-4.644-2.394a1.366,1.366,0,0,0,.567,1.125,2.2,2.2,0,0,0,1.4.441,2.166,2.166,0,0,0,1.386-.441,1.373,1.373,0,0,0,.558-1.125,1.39,1.39,0,0,0-.558-1.143,2.166,2.166,0,0,0-1.386-.441,2.2,2.2,0,0,0-1.4.441A1.383,1.383,0,0,0,50.814,24.892Zm4.3,5.364a1.6,1.6,0,0,0-.666-1.314,2.631,2.631,0,0,0-1.674-.522,2.669,2.669,0,0,0-1.683.522,1.6,1.6,0,0,0-.675,1.314,1.581,1.581,0,0,0,.675,1.3,2.669,2.669,0,0,0,1.683.522,2.631,2.631,0,0,0,1.674-.522A1.588,1.588,0,0,0,55.116,30.256Zm9.738,4a4.786,4.786,0,0,1-2.934-.936,5.842,5.842,0,0,1-1.863-2.376,7.987,7.987,0,0,1-.639-3.24,8.112,8.112,0,0,1,.612-3.2,5.705,5.705,0,0,1,1.917-2.43,4.833,4.833,0,0,1,2.907-.918A4.685,4.685,0,0,1,68.8,23.074,7.334,7.334,0,0,1,70.272,27.7,7.334,7.334,0,0,1,68.8,32.326,4.685,4.685,0,0,1,64.854,34.252Zm-2.07-3.618a2.4,2.4,0,0,0,2.07,1.188,2.325,2.325,0,0,0,2.052-1.188A5.32,5.32,0,0,0,67.68,27.7a5.175,5.175,0,0,0-.774-2.916,2.319,2.319,0,0,0-2.052-1.206,2.36,2.36,0,0,0-2.07,1.206A5.175,5.175,0,0,0,62.01,27.7,5.32,5.32,0,0,0,62.784,30.634Zm9.846,2a1.5,1.5,0,0,1,.459-1.116,1.524,1.524,0,0,1,1.107-.45,1.494,1.494,0,0,1,1.1.45,1.6,1.6,0,0,1,0,2.223,1.479,1.479,0,0,1-1.1.459,1.567,1.567,0,0,1-1.566-1.566Zm2.538-2.826H73.206L72.648,21.4h3.1Z" transform="translate(1626.807 747)"/></g></svg>