<svg xmlns="http://www.w3.org/2000/svg" width="231.125" height="87" viewBox="0 0 231.125 87"><defs><style>.a{fill:#00aded;}.b{fill:none;stroke:#707070;stroke-linecap:round;stroke-width:2px;opacity:0.3;}.c{fill:#ea0c90;}.d{fill:#fff;}.e{fill:#003aad;fill-rule:evenodd;}</style></defs><g transform="translate(-1556.691 -776.5)"><g transform="translate(1556.691 790)"><path class="a" d="M1318.089,346.971v4.909c0,5.912-2.956,9.29-8.656,9.29s-8.657-3.378-8.657-9.29V332.667c0-5.912,2.956-9.29,8.657-9.29s8.656,3.378,8.656,9.29v3.589H1312.6V332.3c0-2.639-1.161-3.642-3.009-3.642s-3.009,1-3.009,3.642V352.25c0,2.639,1.161,3.589,3.009,3.589s3.009-.95,3.009-3.589v-5.278Z" transform="translate(-1300.776 -323.377)"/><path class="a" d="M1371.283,349.533l-7.337-24.7h6.07l4.434,16.838,4.434-16.838h5.542l-7.337,24.7v12.246h-5.806Z" transform="translate(-1345.577 -324.407)"/><path class="a" d="M1459.728,333.328v1.32c0,3.8-1.161,6.228-3.747,7.443,3.114,1.214,4.328,4.011,4.328,7.918v3.009c0,5.7-3.008,8.762-8.815,8.762h-9.131V324.83h8.762C1457.141,324.83,1459.728,327.627,1459.728,333.328Zm-11.56-3.22v9.765h2.27c2.164,0,3.484-.95,3.484-3.906v-2.059c0-2.639-.9-3.8-2.956-3.8Zm0,15.043V356.5h3.325c1.953,0,3.009-.9,3.009-3.642v-3.22c0-3.431-1.108-4.487-3.748-4.487Z" transform="translate(-1401.19 -324.407)"/><path class="a" d="M1521.863,340.4h7.97v5.278h-7.97V356.5h10.029v5.278h-15.835V324.83h15.835v5.278h-10.029Z" transform="translate(-1453.455 -324.407)"/><path class="a" d="M1595,361.779c-.317-.95-.528-1.531-.528-4.54v-5.806c0-3.431-1.161-4.7-3.8-4.7h-2.006v15.043h-5.806V324.83h8.762c6.018,0,8.6,2.8,8.6,8.5v2.9c0,3.8-1.214,6.281-3.8,7.5,2.9,1.214,3.853,4.012,3.853,7.865v5.7a10.884,10.884,0,0,0,.634,4.487Zm-6.334-31.671v11.349h2.27c2.164,0,3.484-.95,3.484-3.906v-3.642c0-2.639-.9-3.8-2.956-3.8Z" transform="translate(-1500.83 -324.407)"/></g><line class="b" y1="85" transform="translate(1671.5 777.5)"/><path class="a" d="M7.018-69.074c-.325.541,1.84,2.868,4.437,2.868,1.461,0,2.922-.7,4.112-2.814L27.689-91.152c.974-1.732,2.435-4,2.435-5.953v-.487c0-2.11-.7-4-5.195-4H6.152c-2.273,0-3.517.92-3.517,3.085v.487c0,2.219,1.245,3.139,3.517,3.139H21.574ZM46.9-65.881c9.578,0,15.368-6.385,15.368-16.5v-3.463c0-10.119-5.79-16.451-15.314-16.451S31.585-95.915,31.585-85.8v3.463C31.585-72.158,37.32-65.881,46.9-65.881Zm.054-6.494c-4.708,0-7.305-3.355-7.305-9.524V-86.39c0-6.223,2.543-9.524,7.251-9.524s7.359,3.409,7.359,9.578v4.491C54.257-75.676,51.66-72.375,46.952-72.375Z" transform="translate(1695.069 881.801)"/><path class="a" d="M8.167-64.014c3.569,0,6.1-2.379,6.1-5.763v-.3c0-3.383-2.454-5.725-6.06-5.725S2.07-73.42,2.07-70.037v.3C2.07-66.356,4.561-64.014,8.167-64.014ZM6.382-50.964,25.119-72.156a3.016,3.016,0,0,0,.967-1.933c0-1.338-2.119-2.008-2.342-1.785L5.044-54.682a2.654,2.654,0,0,0-1,1.9C4.04-51.485,6.2-50.741,6.382-50.964Zm15.688-.074c3.569,0,6.1-2.379,6.1-5.763v-.3c0-3.383-2.491-5.725-6.06-5.725-3.606,0-6.134,2.379-6.134,5.763v.3C15.974-53.381,18.465-51.039,22.071-51.039ZM8.2-66.876a2.477,2.477,0,0,1-2.491-2.751v-.558c0-1.747,1-2.751,2.454-2.751a2.5,2.5,0,0,1,2.491,2.751v.558A2.471,2.471,0,0,1,8.2-66.876Zm13.9,12.938a2.465,2.465,0,0,1-2.491-2.714v-.558c0-1.747,1-2.788,2.454-2.788a2.53,2.53,0,0,1,2.491,2.788v.558A2.458,2.458,0,0,1,22.108-53.938Z" transform="translate(1759.648 861.131)"/><g transform="translate(1692.671 818.803)"><g transform="translate(0 0)"><path class="c" d="M1402.948,570.068h-58.529a7.019,7.019,0,0,1-6.805-7.215h0a7.019,7.019,0,0,1,6.805-7.215h58.529a7.019,7.019,0,0,1,6.805,7.215h0A7.019,7.019,0,0,1,1402.948,570.068Z" transform="translate(-1337.614 -555.638)"/></g></g><path class="a" d="M-38.878-14.245A1.611,1.611,0,0,1-37.266-15.7a1.4,1.4,0,0,1,1.47,1.457Zm0,1.057h4.333c.335,0,.426-.181.438-.5v-.129a3,3,0,0,0-3.133-3.146,3.212,3.212,0,0,0-3.288,3.34,3.132,3.132,0,0,0,3.4,3.262c1.754,0,2.721-.761,2.721-1.431,0-.735-.864-.851-.877-.825a1.9,1.9,0,0,1-1.779.928A1.7,1.7,0,0,1-38.878-13.188Zm7.569-2.669a1.068,1.068,0,0,0-1.109-1.032,1.008,1.008,0,0,0-.683.206v5.338c0,.671.335.864.825.864h.193c.464,0,.8-.206.8-.864v-3.275a1.526,1.526,0,0,1,1.393-.825c.735,0,1.161.516,1.161,1.354v2.747c0,.671.335.864.825.864h.193c.464,0,.8-.206.8-.864v-3.017c0-1.444-.7-2.6-2.347-2.6A2.361,2.361,0,0,0-31.309-15.857ZM-111.352,6.978h.239c.573,0,.988-.255.988-1.067V-2.356c0-1.45-.733-1.8-1.4-1.8-.446,0-.844.175-.844.255V5.911C-112.371,6.739-111.941,6.978-111.352,6.978Zm5.941-1.354c-.749,0-1.211-.366-1.211-.94,0-.844.924-1.195,2.692-1.242l.414-.016v.446A1.756,1.756,0,0,1-105.41,5.624Zm1.9-3.425h-.255c-3.409.048-5,.86-5,2.644,0,1.322.988,2.246,2.612,2.246a3.179,3.179,0,0,0,2.692-1.306,1.264,1.264,0,0,0,1.322,1.242c.43,0,.844-.143.844-.255v-4.6c0-2.087-1.211-3.2-3.664-3.2-2.373,0-3.52.956-3.52,1.927,0,1.035,1.45.988,1.45.956A1.989,1.989,0,0,1-105.108.655,1.409,1.409,0,0,1-103.515,2.2ZM-95.12,5C-94.9,3.9-93.83,3.41-92.4,2.8c1.513-.637,2.931-1.322,2.931-3.218,0-1.991-1.4-3.2-3.871-3.2-2.533,0-3.9,1.354-3.9,2.628C-97.239.193-95.71.145-95.71.1a2.21,2.21,0,0,1,2.23-1.816c1.115,0,1.736.51,1.736,1.386,0,.908-1.083,1.306-2.357,1.911-1.465.717-3.17,1.688-3.17,3.648V5.72c0,.956.366,1.195,1.418,1.195h5.416c.8,0,1.115-.335,1.115-.94v-.1c0-.573-.319-.892-1.115-.892C-91.138,4.987-93.528,4.987-95.12,5ZM-82.441,3.49A1.865,1.865,0,0,1-84.4,5.338,2.062,2.062,0,0,1-86.392,3.06,2.03,2.03,0,0,1-84.369.766a1.972,1.972,0,0,1,1.927,1.242Zm0-3.345a2.956,2.956,0,0,0-2.485-1.179c-2.15,0-3.632,1.609-3.632,4.078,0,2.437,1.5,4.078,3.6,4.078a2.776,2.776,0,0,0,2.517-1.465v.255c0,.828.414,1.067,1.019,1.067h.239c.573,0,.988-.255.988-1.067V-2.356c0-1.45-.733-1.8-1.4-1.8-.446,0-.844.175-.844.255Zm6.9,5.48c-.749,0-1.211-.366-1.211-.94,0-.844.924-1.195,2.692-1.242l.414-.016v.446A1.756,1.756,0,0,1-75.544,5.624Zm1.9-3.425H-73.9c-3.409.048-5,.86-5,2.644,0,1.322.988,2.246,2.612,2.246A3.179,3.179,0,0,0-73.6,5.784a1.264,1.264,0,0,0,1.322,1.242c.43,0,.844-.143.844-.255v-4.6c0-2.087-1.211-3.2-3.664-3.2-2.373,0-3.52.956-3.52,1.927,0,1.035,1.45.988,1.45.956A1.989,1.989,0,0,1-75.242.655,1.409,1.409,0,0,1-73.649,2.2Zm10.226,4.922c2.326,0,3.313-1.354,3.313-2.087,0-.956-1.211-1.083-1.242-1a1.964,1.964,0,0,1-1.975,1.29,2.129,2.129,0,0,1-2.118-2.278A2.116,2.116,0,0,1-63.327.782a1.936,1.936,0,0,1,1.975,1.29c.048.08,1.242-.08,1.242-.988,0-.733-.94-2.1-3.313-2.1a3.932,3.932,0,0,0-4.094,4.062A3.918,3.918,0,0,0-63.423,7.122Zm9.892-1.37a1.27,1.27,0,0,0,1.338,1.227c.462,0,.844-.175.844-.255V.145c0-.828-.414-1.083-1.019-1.083h-.223c-.589,0-1,.271-1,1.083V4.223a1.865,1.865,0,0,1-1.673,1.019c-.94,0-1.465-.637-1.465-1.673V.145c0-.828-.43-1.083-1.019-1.083h-.239c-.573,0-.988.271-.988,1.083V3.9c0,1.8.844,3.218,2.883,3.218A2.952,2.952,0,0,0-53.531,5.752Zm7.6,1.37A3.9,3.9,0,0,0-41.776,3.06,3.913,3.913,0,0,0-45.9-1.034a3.939,3.939,0,0,0-4.173,4.078A3.9,3.9,0,0,0-45.933,7.122Zm.016-1.768A2.178,2.178,0,0,1-48.1,3.044,2.183,2.183,0,0,1-45.917.718,2.184,2.184,0,0,1-43.751,3.06,2.171,2.171,0,0,1-45.917,5.354Zm6.132-4.46V4.462c0,1.752.8,2.66,2.517,2.66,1.274,0,2.055-.637,2.055-1.418a.878.878,0,0,0-.542-.876,1.219,1.219,0,0,1-1,.526c-.605,0-.86-.382-.86-1.147V.893h1.37c.653,0,.94-.287.94-.828V-.062c0-.526-.271-.8-.908-.8h-1.354v-.988c0-.828-.4-1.083-1-1.083h-.191a.943.943,0,0,0-1.019,1.083v.988h-.382c-.637,0-.94.287-.94.828V.113c0,.51.3.781.94.781Zm8.665,4.731c-.749,0-1.211-.366-1.211-.94,0-.844.924-1.195,2.692-1.242l.414-.016v.446A1.756,1.756,0,0,1-31.12,5.624Zm1.9-3.425h-.255c-3.409.048-5,.86-5,2.644,0,1.322.988,2.246,2.612,2.246a3.179,3.179,0,0,0,2.692-1.306,1.264,1.264,0,0,0,1.322,1.242c.43,0,.844-.143.844-.255v-4.6c0-2.087-1.211-3.2-3.664-3.2-2.373,0-3.52.956-3.52,1.927,0,1.035,1.449.988,1.449.956A1.989,1.989,0,0,1-30.817.655,1.409,1.409,0,0,1-29.224,2.2Z" transform="translate(1808.356 840.197)"/><path class="d" d="M-83.7-15.3h2c2.811,0,4.552-1.612,4.552-4.2s-1.689-4.139-4.5-4.139h-2.1a.969.969,0,0,0-1.006,1.057v6.241A1.043,1.043,0,0,0-83.7-15.3Zm.825-1.625v-5.093h1.186a2.378,2.378,0,0,1,2.643,2.527,2.4,2.4,0,0,1-2.669,2.566Zm8.175-2.089a1.611,1.611,0,0,1,1.612-1.457,1.4,1.4,0,0,1,1.47,1.457Zm0,1.057h4.333c.335,0,.426-.181.438-.5v-.129a3,3,0,0,0-3.133-3.146,3.212,3.212,0,0,0-3.288,3.34,3.132,3.132,0,0,0,3.4,3.262c1.754,0,2.721-.761,2.721-1.431,0-.735-.864-.851-.877-.825a1.9,1.9,0,0,1-1.779.928A1.7,1.7,0,0,1-74.7-17.958Zm7.247-2.785c-.232-.722-.593-.916-1.032-.916-.542,0-1.019.426-.98.529l2.282,5.442c.155.374.58.464,1.019.464a1.023,1.023,0,0,0,1.019-.477l2.257-5.429c.039-.1-.426-.529-.98-.529-.387,0-.761.193-.993.916l-1.315,3.778Zm8.394,5.609A3.155,3.155,0,0,0-55.7-18.422a3.168,3.168,0,0,0-3.34-3.314,3.189,3.189,0,0,0-3.378,3.3A3.154,3.154,0,0,0-59.063-15.134Zm.013-1.431a1.764,1.764,0,0,1-1.767-1.87,1.767,1.767,0,0,1,1.767-1.883,1.768,1.768,0,0,1,1.754,1.9A1.757,1.757,0,0,1-59.05-16.565Zm5.274,1.315h.193c.464,0,.8-.206.8-.864v-6.692c0-1.173-.593-1.457-1.135-1.457-.361,0-.683.142-.683.206v7.943C-54.6-15.443-54.254-15.25-53.776-15.25Zm6.77-.993a1.028,1.028,0,0,0,1.083.993c.374,0,.683-.142.683-.206v-5.326c0-.671-.335-.877-.825-.877h-.181c-.477,0-.812.219-.812.877v3.3a1.51,1.51,0,0,1-1.354.825c-.761,0-1.186-.516-1.186-1.354v-2.772c0-.671-.348-.877-.825-.877h-.193c-.464,0-.8.219-.8.877v3.043c0,1.457.683,2.6,2.334,2.6A2.39,2.39,0,0,0-47.007-16.243Zm6.112,1.109c1.883,0,2.682-1.1,2.682-1.689,0-.774-.98-.877-1.006-.812a1.59,1.59,0,0,1-1.6,1.044,1.724,1.724,0,0,1-1.715-1.844,1.713,1.713,0,0,1,1.715-1.831,1.568,1.568,0,0,1,1.6,1.044c.039.064,1.006-.064,1.006-.8,0-.593-.761-1.7-2.682-1.7a3.183,3.183,0,0,0-3.314,3.288A3.172,3.172,0,0,0-40.895-15.134Zm4.616-7.5a.89.89,0,0,0,1.006-.928.881.881,0,0,0-1.006-.916.9.9,0,0,0-1.019.916A.9.9,0,0,0-36.279-22.638Zm-.09,7.389h.193c.464,0,.8-.206.8-.864v-4.668c0-.671-.322-.877-.812-.877h-.193c-.464,0-.812.219-.812.877v4.668C-37.194-15.443-36.846-15.25-36.369-15.25Zm5.429.116a3.155,3.155,0,0,0,3.365-3.288,3.168,3.168,0,0,0-3.34-3.314,3.189,3.189,0,0,0-3.378,3.3A3.154,3.154,0,0,0-30.94-15.134Zm.013-1.431a1.764,1.764,0,0,1-1.767-1.87,1.767,1.767,0,0,1,1.767-1.883,1.768,1.768,0,0,1,1.754,1.9A1.757,1.757,0,0,1-30.927-16.565Zm-.838-5.957a3,3,0,0,0,2.321-.438,1.205,1.205,0,0,0,.632-.98.763.763,0,0,0-.825-.709,1.208,1.208,0,0,0-.645.219A3.577,3.577,0,0,0-31.765-22.522Zm7.028,1.9a1.068,1.068,0,0,0-1.109-1.032,1.008,1.008,0,0,0-.683.206v5.338c0,.671.335.864.825.864h.193c.464,0,.8-.206.8-.864v-3.275a1.526,1.526,0,0,1,1.393-.825c.735,0,1.161.516,1.161,1.354v2.747c0,.671.335.864.825.864h.193c.464,0,.8-.206.8-.864v-3.017c0-1.444-.7-2.6-2.347-2.6A2.361,2.361,0,0,0-24.738-20.627Z" transform="translate(1781.357 845.346)"/><g transform="translate(1557.095 833.279)"><g transform="translate(19.15 2.408)"><path class="a" d="M1390.667,482.74c-2.526,0-4.317,1.823-4.325,4.778a4.3,4.3,0,0,0,4.341,4.364,4.12,4.12,0,0,0,2.589-.59V489.8a5.008,5.008,0,0,1-2.171.436,2.428,2.428,0,0,1-2.616-1.922l-.015-.106h1.579a7.673,7.673,0,0,0,3.191-.46,1.621,1.621,0,0,0,.947-1.625,3.382,3.382,0,0,0-3.519-3.38m1.028,3.872a7.192,7.192,0,0,1-2.132.2h-1.1l.006-.1.016-.3a2.012,2.012,0,0,1,1.983-2,2.148,2.148,0,0,1,1.3.355,1.293,1.293,0,0,1,.5,1.08.736.736,0,0,1-.569.758m3.579-.463v5.581h2.072v-5.18a2.29,2.29,0,0,1,.422-1.526,1.527,1.527,0,0,1,1.226-.477,3.381,3.381,0,0,1,.563.045v-1.641a2.3,2.3,0,0,0-1.048-.216c-2.321,0-3.227,1.648-3.235,3.413m-27.253,5.581h2.069V480.487h-2.069Zm7.648-8.989a3.656,3.656,0,0,0-3.972,3.746v5.243h2.057v-5.092a2.357,2.357,0,0,1,.477-1.545,1.588,1.588,0,0,1,1.254-.557,1.789,1.789,0,0,1,1.413.551,2.541,2.541,0,0,1,.5,1.716v4.927h2.054V486.6a3.625,3.625,0,0,0-3.787-3.865m7.423-2.253h-2.047l.007,8.112a2.946,2.946,0,0,0,3.286,3.283c.95,0,1.521-.311,1.757-.805V489.8a3.776,3.776,0,0,1-1.488.236,1.471,1.471,0,0,1-1.118-.4,1.846,1.846,0,0,1-.4-1.3v-3.8h1.793c.876,0,1.243-.559,1.247-.973v-.822h-3.04Z" transform="translate(-1368.021 -480.487)"/><path class="a" d="M1511.647,493.241a1.621,1.621,0,0,0,.948-1.625,3.382,3.382,0,0,0-3.518-3.38c-2.527,0-4.318,1.823-4.324,4.778a4.3,4.3,0,0,0,4.339,4.364,4.126,4.126,0,0,0,2.59-.59v-1.495a5.015,5.015,0,0,1-2.171.436,2.428,2.428,0,0,1-2.617-1.922l-.015-.106h1.579a7.661,7.661,0,0,0,3.19-.46m-4.776-.936.008-.1.015-.3a2.012,2.012,0,0,1,1.98-2,2.143,2.143,0,0,1,1.3.355,1.284,1.284,0,0,1,.5,1.08.736.736,0,0,1-.569.758,7.19,7.19,0,0,1-2.132.2Z" transform="translate(-1464.992 -485.982)"/><path class="a" d="M1597.217,491.631v5.581h2.074v-5.18a2.29,2.29,0,0,1,.422-1.526,1.53,1.53,0,0,1,1.225-.477,3.371,3.371,0,0,1,.564.045v-1.641a2.3,2.3,0,0,0-1.05-.215c-2.32,0-3.226,1.648-3.235,3.413" transform="translate(-1530.569 -485.97)"/><path class="a" d="M1482.442,497.25c-1.512,0-2.639-.826-2.639-1.718v-.99h.076a3.944,3.944,0,0,0,2.469.828c1.007,0,1.494-.308,1.494-.958,0-.5-.29-.744-1.709-.956-1.736-.259-2.573-.989-2.573-2.318a3.2,3.2,0,0,1,3.489-3.033c1.863,0,2.623,1.021,2.623,1.864v.826h-.076a3.46,3.46,0,0,0-2.347-.809c-1.251,0-1.647.4-1.647.972,0,.439.244.617,1.647.859,1.7.292,2.62,1.086,2.62,2.482,0,1.849-1.22,2.95-3.427,2.95" transform="translate(-1447.125 -485.89)"/><path class="a" d="M1542.479,494.7c.015.356.033.827.033,1.118a3.891,3.891,0,0,1-4.025,4.151c-1.693,0-2.851-.874-2.851-1.913v-.99h.091a3.507,3.507,0,0,0,2.609.94c1.476,0,2.146-.745,2.146-2.011,0-.128,0-.307-.014-.455,0-.128-.014-.356-.014-.436v-.21a2.1,2.1,0,0,1-2.118,1.3,3.345,3.345,0,0,1-3.416-3.536c0-2.464,1.522-4.459,4.175-4.459,2.045,0,3.354,1.59,3.354,3.829v1.491c0,.292.015.794.031,1.184m-5.473-2.318a1.773,1.773,0,0,0,1.647,2c1.031,0,1.77-.819,1.77-2.227,0-1.376-.649-2.048-1.553-2.048a2.039,2.039,0,0,0-1.864,2.277" transform="translate(-1486.387 -485.951)"/><path class="a" d="M1617.728,488.1c2.523,0,3.975,2.107,3.975,4.428,0,2.626-1.452,4.717-4.163,4.717-2.524,0-3.975-2.091-3.975-4.41,0-2.628,1.451-4.735,4.162-4.735m-.189,1.835c-1.25,0-1.885,1.081-1.885,2.586,0,1.807.636,2.89,2.077,2.89,1.267,0,1.885-1.083,1.885-2.57,0-1.824-.651-2.906-2.077-2.906" transform="translate(-1542.164 -485.89)"/><path class="a" d="M1569.531,497.763a3.655,3.655,0,0,0,3.958-3.76v-5.26h-2.048v5.111a2.374,2.374,0,0,1-.477,1.548,1.578,1.578,0,0,1-1.249.561,1.779,1.779,0,0,1-1.41-.554,2.558,2.558,0,0,1-.5-1.722l0-4.944h-2.048v5.143a3.624,3.624,0,0,0,3.776,3.878" transform="translate(-1508.256 -486.341)"/></g><path class="e" d="M1304.309,472.207a2.144,2.144,0,0,0-2.144,2.144v13.908h13.91a2.145,2.145,0,0,0,2.145-2.145l0-13.907Zm10.161,11.585-8.555,1.546V476.7l8.555-1.546Z" transform="translate(-1302.165 -472.207)"/></g></g></svg>