<svg id="Grupo_20566" data-name="Grupo 20566" xmlns="http://www.w3.org/2000/svg" width="23.75" height="23.75" viewBox="0 0 23.75 23.75">
  <g id="Grupo_20524" data-name="Grupo 20524">
    <circle id="Elipse_1413" data-name="Elipse 1413" cx="11.875" cy="11.875" r="11.875" fill="#00aded" opacity="0.366"/>
  </g>
  <circle id="Elipse_1436" data-name="Elipse 1436" cx="9.491" cy="9.491" r="9.491" transform="translate(2.329 2.385)" fill="#00aded"/>
  <path id="Trazado_18090" data-name="Trazado 18090" d="M.48.105H.765a.888.888,0,0,0,.96-1.02V-8.79c0-.675-.33-1.02-.96-1.02H.12A1.3,1.3,0,0,1-1.155-8.685a1.4,1.4,0,0,1-.915-.33,1.061,1.061,0,0,0-.585,1.05,1.209,1.209,0,0,0,.375.9,1.469,1.469,0,0,0,.96.345,1.343,1.343,0,0,0,.87-.315v6.12C-.45-.255-.135.105.48.105Z" transform="translate(11.828 17.385)" fill="#fff"/>
</svg>
