<svg xmlns="http://www.w3.org/2000/svg" width="100" height="31" viewBox="0 0 100 31">
  <g id="Grupo_21053" data-name="Grupo 21053" transform="translate(-53.5 -416.45)">
    <rect id="Rectángulo_5855" data-name="Rectángulo 5855" width="100" height="31" rx="4" transform="translate(53.5 416.45)" fill="#e2f7ff"/>
    <path id="Trazado_18085" data-name="Trazado 18085" d="M-33.614-.63A4.554,4.554,0,0,0-30.688.2c2.38,0,3.71-1.05,3.71-2.856,0-1.708-1.428-2.38-3.066-2.744-1.12-.252-1.932-.364-1.932-1.148,0-.658.588-1.064,1.568-1.064A3.243,3.243,0,0,1-28-6.51a1.344,1.344,0,0,0,.812-1.078,1.243,1.243,0,0,0-.63-.994,4.446,4.446,0,0,0-2.6-.672c-2.184,0-3.528,1.106-3.528,2.786,0,1.862,1.484,2.394,2.926,2.716,1.064.238,1.974.406,1.974,1.218,0,.7-.574,1.092-1.652,1.092A3.691,3.691,0,0,1-33.39-2.66c-.07-.07-.784.448-.784,1.022A1.3,1.3,0,0,0-33.614-.63Zm8.008,3.556a.912.912,0,0,0,.42-.07L-21.84-7.826a2.448,2.448,0,0,0,.112-.588c0-.686-.6-.784-1.008-.784a.818.818,0,0,0-.42.07l-3.36,10.682a2.334,2.334,0,0,0-.112.588C-26.628,2.8-26.026,2.926-25.606,2.926ZM-16.016.1h.266a.829.829,0,0,0,.9-.952V-8.2c0-.63-.308-.952-.9-.952h-.6a1.215,1.215,0,0,1-1.19,1.05,1.3,1.3,0,0,1-.854-.308.99.99,0,0,0-.546.98,1.129,1.129,0,0,0,.35.84,1.371,1.371,0,0,0,.9.322,1.253,1.253,0,0,0,.812-.294V-.854C-16.884-.238-16.59.1-16.016.1ZM-9.24.2C-6.776.2-5.292-1.47-5.292-4.1v-.882c0-2.618-1.484-4.27-3.948-4.27S-13.2-7.588-13.2-4.97v.9C-13.2-1.456-11.718.2-9.24.2Zm0-1.694c-1.218,0-1.876-.868-1.876-2.45v-1.19c0-1.6.644-2.45,1.876-2.45,1.2,0,1.89.882,1.89,2.478v1.162C-7.35-2.352-8.008-1.5-9.24-1.5ZM-.252.2C2.212.2,3.7-1.47,3.7-4.1v-.882c0-2.618-1.484-4.27-3.948-4.27S-4.214-7.588-4.214-4.97v.9C-4.214-1.456-2.73.2-.252.2Zm0-1.694c-1.218,0-1.876-.868-1.876-2.45v-1.19c0-1.6.644-2.45,1.876-2.45,1.2,0,1.89.882,1.89,2.478v1.162C1.638-2.352.98-1.5-.252-1.5Zm5.1.672a.837.837,0,0,0,.938.938H6.02a.841.841,0,0,0,.952-.938v-.2A.835.835,0,0,0,6.02-1.96H5.782a.831.831,0,0,0-.938.938ZM12.068.2c2.464,0,3.948-1.666,3.948-4.3v-.882c0-2.618-1.484-4.27-3.948-4.27S8.106-7.588,8.106-4.97v.9C8.106-1.456,9.59.2,12.068.2Zm0-1.694c-1.218,0-1.876-.868-1.876-2.45v-1.19c0-1.6.644-2.45,1.876-2.45,1.2,0,1.89.882,1.89,2.478v1.162C13.958-2.352,13.3-1.5,12.068-1.5ZM21.056.2C23.52.2,25-1.47,25-4.1v-.882c0-2.618-1.484-4.27-3.948-4.27S17.094-7.588,17.094-4.97v.9C17.094-1.456,18.578.2,21.056.2Zm0-1.694c-1.218,0-1.876-.868-1.876-2.45v-1.19c0-1.6.644-2.45,1.876-2.45,1.2,0,1.89.882,1.89,2.478v1.162C22.946-2.352,22.288-1.5,21.056-1.5ZM30.044.2c2.464,0,3.948-1.666,3.948-4.3v-.882c0-2.618-1.484-4.27-3.948-4.27S26.082-7.588,26.082-4.97v.9C26.082-1.456,27.566.2,30.044.2Zm0-1.694c-1.218,0-1.876-.868-1.876-2.45v-1.19c0-1.6.644-2.45,1.876-2.45,1.2,0,1.89.882,1.89,2.478v1.162C31.934-2.352,31.276-1.5,30.044-1.5Z" transform="translate(97.5 432.431)" fill="#0855c4"/>
    <path id="Trazado_18086" data-name="Trazado 18086" d="M1.632-2.576A2.531,2.531,0,0,0,4.24.1,2.548,2.548,0,0,0,5.784-.36,1.088,1.088,0,0,0,6.3-1.1c0-.384-.5-.48-.512-.44a1.533,1.533,0,0,1-1.5.9,1.813,1.813,0,0,1-1.8-1.952A1.785,1.785,0,0,1,4.272-4.536a1.672,1.672,0,0,1,1.464.8.482.482,0,0,0,.48-.448.971.971,0,0,0-.488-.68A2.509,2.509,0,0,0,4.264-5.28,2.556,2.556,0,0,0,1.632-2.576Zm5.224,2.2a.388.388,0,0,0,.432.432h.1a.391.391,0,0,0,.44-.432v-.1a.393.393,0,0,0-.44-.44h-.1a.391.391,0,0,0-.432.44Zm5.2-3.568a1.534,1.534,0,0,0-1.352.72,1.364,1.364,0,0,0-.024-.224.459.459,0,0,0-.472-.44A.393.393,0,0,0,9.92-3.8V1.192c0,.288.144.376.352.376h.088c.2,0,.352-.088.352-.376V-.616a1.486,1.486,0,0,0,1.32.72,1.852,1.852,0,0,0,1.824-2.032A1.829,1.829,0,0,0,12.056-3.944ZM11.888-.552A1.15,1.15,0,0,1,10.7-1.68v-.808a1.228,1.228,0,0,1,1.2-.8A1.238,1.238,0,0,1,13.088-1.92,1.223,1.223,0,0,1,11.888-.552Zm2.4-1.376A1.936,1.936,0,0,0,16.3.1,1.937,1.937,0,0,0,18.32-1.912a1.943,1.943,0,0,0-2.008-2.032A1.939,1.939,0,0,0,14.288-1.928Zm3.3.016A1.291,1.291,0,0,1,16.3-.544a1.306,1.306,0,0,1-1.288-1.384A1.293,1.293,0,0,1,16.3-3.3,1.291,1.291,0,0,1,17.584-1.912Zm3.16-2.032a.974.974,0,0,0-.976.728,1.435,1.435,0,0,0-.032-.288.453.453,0,0,0-.464-.384.393.393,0,0,0-.288.088V-.344c0,.288.144.376.352.376h.088c.2,0,.352-.088.352-.376V-1.7c0-.888.248-1.5.872-1.5a.745.745,0,0,1,.488.168.394.394,0,0,0,.24-.408C21.376-3.752,21.144-3.944,20.744-3.944ZM22.968-5.08a.429.429,0,0,0,.472.456.422.422,0,0,0,.472-.456.425.425,0,0,0-.464-.464A.433.433,0,0,0,22.968-5.08Zm.064,4.736c0,.288.152.376.36.376h.08c.208,0,.352-.088.352-.376V-3.5c0-.3-.144-.384-.352-.384h-.08c-.208,0-.36.1-.36.384Zm3.792-3.6a1.493,1.493,0,0,0-1.28.68c-.016-.512-.28-.624-.5-.624a.393.393,0,0,0-.288.088V-.344c0,.288.144.376.352.376H25.2c.2,0,.352-.088.352-.376V-2.576a1.163,1.163,0,0,1,1.08-.672c.56,0,.888.4.888,1.048V-.344c0,.288.144.376.352.376h.088c.2,0,.352-.088.352-.376V-2.3C28.312-3.248,27.84-3.944,26.824-3.944ZM30.2-.184c.072.176.208.232.48.232.256,0,.416-.072.488-.248l1.4-3.456c.016-.04-.16-.232-.408-.232-.2,0-.352.1-.488.472l-1,2.712L29.7-3.416c-.136-.376-.28-.472-.5-.472-.256,0-.432.184-.416.232Zm2.56-.824c0,.656.488,1.1,1.312,1.1a1.664,1.664,0,0,0,1.384-.664,1.19,1.19,0,0,0,.032.264.429.429,0,0,0,.456.352c.144,0,.288-.048.288-.088v-2.36c0-.976-.592-1.536-1.68-1.536a2.043,2.043,0,0,0-1.384.44.7.7,0,0,0-.264.48c0,.384.488.392.488.384A1.163,1.163,0,0,1,34.5-3.3a.836.836,0,0,1,.952.9v.08h-.1C33.608-2.28,32.76-1.9,32.76-1.008Zm2.688-.512A1.078,1.078,0,0,1,34.264-.48c-.456,0-.728-.216-.728-.56,0-.52.576-.728,1.7-.768l.216-.008ZM37.48.032h.08c.208,0,.352-.088.352-.376V-4.816c0-.552-.256-.68-.5-.68a.411.411,0,0,0-.288.088V-.344C37.12-.056,37.272.032,37.48.032ZM38.816-5.08a.429.429,0,0,0,.472.456.422.422,0,0,0,.472-.456.425.425,0,0,0-.464-.464A.433.433,0,0,0,38.816-5.08ZM38.88-.344c0,.288.152.376.36.376h.08c.208,0,.352-.088.352-.376V-3.5c0-.3-.144-.384-.352-.384h-.08c-.208,0-.36.1-.36.384Zm3.3.448A1.538,1.538,0,0,0,43.528-.64v.3c0,.288.144.376.352.376h.08c.208,0,.352-.088.352-.376V-4.816c0-.552-.256-.68-.5-.68a.411.411,0,0,0-.288.088v2.1a1.553,1.553,0,0,0-1.32-.632A1.84,1.84,0,0,0,40.376-1.92,1.841,1.841,0,0,0,42.176.1ZM43.528-1.68a1.158,1.158,0,0,1-1.2,1.128A1.238,1.238,0,0,1,41.144-1.92a1.219,1.219,0,0,1,1.2-1.368,1.2,1.2,0,0,1,1.184.792ZM44.976-1.9A1.913,1.913,0,0,0,47.008.1a2.277,2.277,0,0,0,1.216-.312.77.77,0,0,0,.424-.56c0-.336-.4-.408-.416-.392a1.265,1.265,0,0,1-1.208.64,1.25,1.25,0,0,1-1.3-1.048.882.882,0,0,1-.016-.144h2.84c.184,0,.24-.064.24-.232v-.064a1.792,1.792,0,0,0-1.848-1.936A1.95,1.95,0,0,0,44.976-1.9Zm3.048-.344h-2.3a1.227,1.227,0,0,1,1.216-1.1A1.057,1.057,0,0,1,48.024-2.248ZM49.24-.3a.288.288,0,0,0,.328.3h2.648c.24,0,.344-.1.344-.3V-.344c0-.2-.1-.3-.344-.3H50.224L52.28-3.088c.16-.184.216-.264.216-.416v-.048c0-.16-.08-.3-.328-.3H49.6c-.24,0-.344.1-.344.288V-3.5c0,.2.1.288.344.288h1.88L49.464-.8c-.16.184-.224.264-.224.432Z" transform="translate(66.5 442.47)" fill="#0855c4"/>
  </g>
</svg>
