<svg xmlns="http://www.w3.org/2000/svg" width="138.732" height="43.007" viewBox="0 0 138.732 43.007">
  <g id="Grupo_21031" data-name="Grupo 21031" transform="translate(-14315.5 -7041.122)">
    <path id="Trazado_18008" data-name="Trazado 18008" d="M5.549,0H133.183a5.549,5.549,0,0,1,5.549,5.549V37.458a5.549,5.549,0,0,1-5.549,5.549H5.549A5.549,5.549,0,0,1,0,37.458V5.549A5.549,5.549,0,0,1,5.549,0Z" transform="translate(14315.5 7041.122)" fill="#e2f7ff"/>
    <path id="Trazado_18009" data-name="Trazado 18009" d="M-30.016,2.71a6.318,6.318,0,0,0,4.059,1.146c3.3,0,5.147-1.457,5.147-3.962,0-2.37-1.981-3.3-4.254-3.807-1.554-.35-2.68-.5-2.68-1.593,0-.913.816-1.476,2.175-1.476a4.5,4.5,0,0,1,3.341,1.534,1.864,1.864,0,0,0,1.127-1.5,1.724,1.724,0,0,0-.874-1.379,6.168,6.168,0,0,0-3.613-.932c-3.03,0-4.894,1.534-4.894,3.865,0,2.583,2.059,3.321,4.059,3.768,1.476.33,2.739.563,2.739,1.69,0,.971-.8,1.515-2.292,1.515a5.12,5.12,0,0,1-3.729-1.69c-.1-.1-1.088.622-1.088,1.418A1.8,1.8,0,0,0-30.016,2.71Zm11.11,4.933a1.266,1.266,0,0,0,.583-.1l4.642-14.819a3.4,3.4,0,0,0,.155-.816c0-.952-.835-1.088-1.4-1.088a1.134,1.134,0,0,0-.583.1L-20.169,5.74a3.238,3.238,0,0,0-.155.816C-20.324,7.469-19.489,7.644-18.906,7.644ZM-4.942,3.856C-1.8,3.856.167,2.225.167-.32.167-2.786-1.679-4.3-4.475-4.3a6.1,6.1,0,0,0-2.292.466V-6.651H-1.7c.913,0,1.34-.35,1.34-1.107v-.1c0-.757-.447-1.127-1.34-1.127H-7.777c-.952,0-1.379.583-1.379,1.593v4.156c0,1.146.563,1.631,1.69,1.67A4.041,4.041,0,0,1-4.883-2.34c1.612,0,2.506.738,2.506,2S-3.368,1.72-4.98,1.72A4.182,4.182,0,0,1-8.438.03,1.583,1.583,0,0,0-9.622,1.37,2.167,2.167,0,0,0-8.379,3.04,6.747,6.747,0,0,0-4.942,3.856Zm11.828,0c3.418,0,5.477-2.311,5.477-5.963V-3.33c0-3.632-2.059-5.924-5.477-5.924s-5.5,2.311-5.5,5.943v1.243C1.39,1.564,3.449,3.856,6.887,3.856Zm0-2.35c-1.69,0-2.6-1.2-2.6-3.4V-3.544c0-2.214.893-3.4,2.6-3.4,1.67,0,2.622,1.224,2.622,3.438v1.612C9.509.321,8.6,1.506,6.887,1.506Zm7.07.932a1.161,1.161,0,0,0,1.3,1.3h.33a1.167,1.167,0,0,0,1.321-1.3V2.166a1.159,1.159,0,0,0-1.321-1.3h-.33a1.153,1.153,0,0,0-1.3,1.3ZM23.979,3.856c3.418,0,5.477-2.311,5.477-5.963V-3.33c0-3.632-2.059-5.924-5.477-5.924s-5.5,2.311-5.5,5.943v1.243C18.482,1.564,20.541,3.856,23.979,3.856Zm0-2.35c-1.69,0-2.6-1.2-2.6-3.4V-3.544c0-2.214.893-3.4,2.6-3.4,1.67,0,2.622,1.224,2.622,3.438v1.612C26.6.321,25.688,1.506,23.979,1.506Zm12.469,2.35c3.418,0,5.477-2.311,5.477-5.963V-3.33c0-3.632-2.059-5.924-5.477-5.924s-5.5,2.311-5.5,5.943v1.243C30.951,1.564,33.01,3.856,36.448,3.856Zm0-2.35c-1.69,0-2.6-1.2-2.6-3.4V-3.544c0-2.214.893-3.4,2.6-3.4,1.67,0,2.622,1.224,2.622,3.438v1.612C39.07.321,38.157,1.506,36.448,1.506Zm12.469,2.35c3.418,0,5.477-2.311,5.477-5.963V-3.33c0-3.632-2.059-5.924-5.477-5.924s-5.5,2.311-5.5,5.943v1.243C43.421,1.564,45.479,3.856,48.917,3.856Zm0-2.35c-1.69,0-2.6-1.2-2.6-3.4V-3.544c0-2.214.893-3.4,2.6-3.4,1.67,0,2.622,1.224,2.622,3.438v1.612C51.539.321,50.626,1.506,48.917,1.506Z" transform="translate(14364.615 7059.708)" fill="#0855c4"/>
    <path id="Trazado_18010" data-name="Trazado 18010" d="M1.632-1.426A3.512,3.512,0,0,0,5.25,2.292a3.535,3.535,0,0,0,2.142-.644A1.51,1.51,0,0,0,8.1.616c0-.533-.688-.666-.71-.61A2.127,2.127,0,0,1,5.317,1.259a2.515,2.515,0,0,1-2.5-2.708,2.477,2.477,0,0,1,2.475-2.7,2.32,2.32,0,0,1,2.031,1.11.669.669,0,0,0,.666-.622A1.347,1.347,0,0,0,7.314-4.6a3.481,3.481,0,0,0-2.031-.577A3.547,3.547,0,0,0,1.632-1.426ZM8.879,1.626a.539.539,0,0,0,.6.6h.144a.542.542,0,0,0,.61-.6V1.493a.546.546,0,0,0-.61-.61H9.479a.542.542,0,0,0-.6.61Zm7.214-4.95a2.128,2.128,0,0,0-1.876,1,1.892,1.892,0,0,0-.033-.311.637.637,0,0,0-.655-.61.546.546,0,0,0-.4.122V3.8c0,.4.2.522.488.522h.122c.277,0,.488-.122.488-.522V1.293a2.061,2.061,0,0,0,1.831,1,2.569,2.569,0,0,0,2.53-2.819A2.538,2.538,0,0,0,16.093-3.324ZM15.86,1.382A1.6,1.6,0,0,1,14.218-.183V-1.3a1.7,1.7,0,0,1,1.665-1.11,1.718,1.718,0,0,1,1.643,1.9A1.7,1.7,0,0,1,15.86,1.382ZM19.19-.527a2.686,2.686,0,0,0,2.8,2.819,2.687,2.687,0,0,0,2.8-2.8A2.7,2.7,0,0,0,22-3.324,2.689,2.689,0,0,0,19.19-.527Zm4.573.022a1.791,1.791,0,0,1-1.776,1.9A1.812,1.812,0,0,1,20.2-.527a1.793,1.793,0,0,1,1.787-1.9A1.791,1.791,0,0,1,23.763-.505Zm4.384-2.819a1.351,1.351,0,0,0-1.354,1.01,1.991,1.991,0,0,0-.044-.4.628.628,0,0,0-.644-.533.546.546,0,0,0-.4.122V1.67c0,.4.2.522.488.522h.122c.277,0,.488-.122.488-.522V-.206c0-1.232.344-2.075,1.21-2.075a1.034,1.034,0,0,1,.677.233.547.547,0,0,0,.333-.566C29.023-3.058,28.7-3.324,28.147-3.324ZM31.232-4.9a.6.6,0,0,0,.655.633.585.585,0,0,0,.655-.633.59.59,0,0,0-.644-.644A.6.6,0,0,0,31.232-4.9Zm.089,6.57c0,.4.211.522.5.522h.111c.289,0,.488-.122.488-.522V-2.714c0-.411-.2-.533-.488-.533H31.82c-.289,0-.5.133-.5.533Zm5.261-4.994a2.071,2.071,0,0,0-1.776.943c-.022-.71-.388-.866-.688-.866a.546.546,0,0,0-.4.122V1.67c0,.4.2.522.488.522h.122c.277,0,.488-.122.488-.522v-3.1a1.613,1.613,0,0,1,1.5-.932c.777,0,1.232.555,1.232,1.454V1.67c0,.4.2.522.488.522h.122c.277,0,.488-.122.488-.522V-1.038C38.646-2.359,37.991-3.324,36.581-3.324Zm4.684,5.216c.1.244.289.322.666.322.355,0,.577-.1.677-.344L44.55-2.925c.022-.055-.222-.322-.566-.322-.277,0-.488.133-.677.655L41.92,1.171,40.577-2.592c-.189-.522-.388-.655-.7-.655-.355,0-.6.255-.577.322ZM44.817.749c0,.91.677,1.521,1.82,1.521a2.308,2.308,0,0,0,1.92-.921,1.651,1.651,0,0,0,.044.366.6.6,0,0,0,.633.488c.2,0,.4-.067.4-.122V-1.193c0-1.354-.821-2.131-2.331-2.131a2.834,2.834,0,0,0-1.92.61.969.969,0,0,0-.366.666c0,.533.677.544.677.533a1.613,1.613,0,0,1,1.532-.91,1.16,1.16,0,0,1,1.321,1.254v.111H48.4C45.993-1.016,44.817-.483,44.817.749Zm3.729-.71A1.5,1.5,0,0,1,46.9,1.481c-.633,0-1.01-.3-1.01-.777,0-.721.8-1.01,2.353-1.065l.3-.011Zm2.819,2.153h.111c.289,0,.488-.122.488-.522v-6.2c0-.766-.355-.943-.7-.943a.571.571,0,0,0-.4.122V1.67C50.865,2.07,51.076,2.192,51.365,2.192ZM53.218-4.9a.6.6,0,0,0,.655.633.585.585,0,0,0,.655-.633.59.59,0,0,0-.644-.644A.6.6,0,0,0,53.218-4.9Zm.089,6.57c0,.4.211.522.5.522h.111c.289,0,.488-.122.488-.522V-2.714c0-.411-.2-.533-.488-.533h-.111c-.289,0-.5.133-.5.533Zm4.573.622a2.134,2.134,0,0,0,1.876-1.032V1.67c0,.4.2.522.488.522h.111c.289,0,.488-.122.488-.522v-6.2c0-.766-.355-.943-.7-.943a.571.571,0,0,0-.4.122v2.908a2.155,2.155,0,0,0-1.831-.877,2.553,2.553,0,0,0-2.53,2.808A2.554,2.554,0,0,0,57.88,2.292ZM59.755-.183a1.607,1.607,0,0,1-1.665,1.565,1.718,1.718,0,0,1-1.643-1.9,1.691,1.691,0,0,1,1.665-1.9,1.666,1.666,0,0,1,1.643,1.1Zm2.009-.311a2.654,2.654,0,0,0,2.819,2.786,3.159,3.159,0,0,0,1.687-.433,1.069,1.069,0,0,0,.588-.777c0-.466-.555-.566-.577-.544a1.755,1.755,0,0,1-1.676.888,1.734,1.734,0,0,1-1.8-1.454,1.223,1.223,0,0,1-.022-.2h3.94c.255,0,.333-.089.333-.322V-.638a2.486,2.486,0,0,0-2.564-2.686A2.7,2.7,0,0,0,61.764-.494Zm4.229-.477H62.8a1.7,1.7,0,0,1,1.687-1.521A1.466,1.466,0,0,1,65.993-.971Zm1.687,2.7a.4.4,0,0,0,.455.422h3.674c.333,0,.477-.133.477-.411V1.67c0-.277-.144-.411-.477-.411H69.045l2.852-3.4c.222-.255.3-.366.3-.577V-2.78c0-.222-.111-.411-.455-.411H68.179c-.333,0-.477.133-.477.4v.078c0,.277.144.4.477.4h2.608l-2.8,3.352c-.222.255-.311.366-.311.6Z" transform="translate(14334.167 7075.072)" fill="#0855c4"/>
  </g>
</svg>
