<svg xmlns="http://www.w3.org/2000/svg" width="345" height="47.544" viewBox="0 0 345 47.544">
  <g id="Grupo_20987" data-name="Grupo 20987" transform="translate(-5998 -4925)">
    <path id="Trazado_17972" data-name="Trazado 17972" d="M-3.54-4.347A1.282,1.282,0,0,0-2.126-3.03h5.8A1.269,1.269,0,0,0,5.091-4.347v-.536A1.281,1.281,0,0,0,3.677-6.2h-5.8A1.294,1.294,0,0,0-3.54-4.883Z" transform="translate(6105.723 4954.119)" fill="#00aded"/>
    <path id="Trazado_17971" data-name="Trazado 17971" d="M4.876,0H91.431a4.876,4.876,0,0,1,4.876,4.876V42.668a4.876,4.876,0,0,1-4.876,4.876H4.876A4.876,4.876,0,0,1,0,42.668V4.876A4.876,4.876,0,0,1,4.876,0Z" transform="translate(5998 4925)" fill="#e2f7ff"/>
    <path id="Trazado_17973" data-name="Trazado 17973" d="M4.876,0H86.555a4.876,4.876,0,0,1,4.876,4.876V42.668a4.876,4.876,0,0,1-4.876,4.876H4.876A4.876,4.876,0,0,1,0,42.668V4.876A4.876,4.876,0,0,1,4.876,0Z" transform="translate(6119.908 4925)" fill="#e2f7ff"/>
    <path id="Trazado_17978" data-name="Trazado 17978" d="M4.876,0H96.307a4.876,4.876,0,0,1,4.876,4.876V42.668a4.876,4.876,0,0,1-4.876,4.876H4.876A4.876,4.876,0,0,1,0,42.668V4.876A4.876,4.876,0,0,1,4.876,0Z" transform="translate(6241.816 4925)" fill="#0855c4"/>
    <path id="Trazado_17974" data-name="Trazado 17974" d="M.352-1.924A3.086,3.086,0,0,0,3.531,1.343,3.106,3.106,0,0,0,5.414.777,1.327,1.327,0,0,0,6.038-.13c0-.468-.6-.585-.624-.536A1.869,1.869,0,0,1,3.59.436,2.21,2.21,0,0,1,1.4-1.944,2.177,2.177,0,0,1,3.57-4.313a2.039,2.039,0,0,1,1.785.975.588.588,0,0,0,.585-.546,1.184,1.184,0,0,0-.595-.829A3.059,3.059,0,0,0,3.561-5.22,3.117,3.117,0,0,0,.352-1.924ZM6.72.758a.474.474,0,0,0,.527.527h.127A.477.477,0,0,0,7.91.758V.641A.479.479,0,0,0,7.374.1H7.247A.476.476,0,0,0,6.72.641Zm5.647.585A1.875,1.875,0,0,0,14.015.436V.8c0,.351.176.458.429.458h.1c.254,0,.429-.107.429-.458V-4.655c0-.673-.312-.829-.614-.829a.5.5,0,0,0-.351.107v2.555a1.894,1.894,0,0,0-1.609-.77,2.243,2.243,0,0,0-2.224,2.467A2.244,2.244,0,0,0,12.367,1.343ZM14.015-.832A1.412,1.412,0,0,1,12.553.543a1.509,1.509,0,0,1-1.443-1.668,1.486,1.486,0,0,1,1.463-1.668,1.464,1.464,0,0,1,1.443.966ZM15.781-1.1a2.332,2.332,0,0,0,2.477,2.448A2.776,2.776,0,0,0,19.74.963.939.939,0,0,0,20.257.28c0-.41-.488-.5-.507-.478a1.543,1.543,0,0,1-1.473.78A1.524,1.524,0,0,1,16.7-.7a1.074,1.074,0,0,1-.02-.176H20.14c.224,0,.293-.078.293-.283v-.078a2.185,2.185,0,0,0-2.253-2.36A2.377,2.377,0,0,0,15.781-1.1ZM19.5-1.524H16.688A1.5,1.5,0,0,1,18.17-2.86,1.288,1.288,0,0,1,19.5-1.524ZM23.066.8c0,.351.185.458.439.458h.1c.254,0,.419-.107.419-.458V-2.685h.77c.312,0,.429-.127.429-.361v-.068c0-.234-.117-.361-.429-.361H24v-.341c0-.663.2-.956.673-.956a1.055,1.055,0,0,1,.7.273.45.45,0,0,0,.234-.419.517.517,0,0,0-.254-.439,1.436,1.436,0,0,0-.8-.2c-.936,0-1.492.546-1.492,1.726v.351H22.52c-.312,0-.429.117-.429.351v.068c0,.244.117.371.429.371h.546Zm2.526-.809c0,.8.595,1.336,1.6,1.336A2.028,2.028,0,0,0,28.878.514a1.451,1.451,0,0,0,.039.322.523.523,0,0,0,.556.429c.176,0,.351-.059.351-.107V-1.719c0-1.19-.722-1.873-2.048-1.873a2.49,2.49,0,0,0-1.687.536.852.852,0,0,0-.322.585c0,.468.595.478.595.468a1.417,1.417,0,0,1,1.346-.8,1.02,1.02,0,0,1,1.161,1.1v.1h-.127C26.626-1.563,25.592-1.1,25.592-.012Zm3.277-.624A1.314,1.314,0,0,1,27.425.631c-.556,0-.887-.263-.887-.683,0-.634.7-.887,2.068-.936L28.869-1Zm2.477,1.892h.1c.254,0,.429-.107.429-.458V-4.655c0-.673-.312-.829-.614-.829a.5.5,0,0,0-.351.107V.8C30.907,1.148,31.092,1.255,31.346,1.255Zm2.146,0h.1c.254,0,.429-.107.429-.458V-4.655c0-.673-.312-.829-.614-.829a.5.5,0,0,0-.351.107V.8C33.053,1.148,33.238,1.255,33.492,1.255ZM34.876-1.1a2.332,2.332,0,0,0,2.477,2.448,2.776,2.776,0,0,0,1.482-.38A.939.939,0,0,0,39.353.28c0-.41-.488-.5-.507-.478a1.543,1.543,0,0,1-1.473.78A1.524,1.524,0,0,1,35.793-.7a1.075,1.075,0,0,1-.02-.176h3.462c.224,0,.293-.078.293-.283v-.078a2.185,2.185,0,0,0-2.253-2.36A2.377,2.377,0,0,0,34.876-1.1Zm3.716-.419H35.783A1.5,1.5,0,0,1,37.266-2.86,1.288,1.288,0,0,1,38.592-1.524Zm1.453.39a2.372,2.372,0,0,0,2.438,2.477A2.316,2.316,0,0,0,44,.855a1.152,1.152,0,0,0,.488-.8c0-.419-.546-.488-.575-.439A1.4,1.4,0,0,1,42.5.534a1.559,1.559,0,0,1-1.541-1.668A1.553,1.553,0,0,1,42.5-2.782a1.391,1.391,0,0,1,1.414.917c.029.049.575-.029.575-.429a1.167,1.167,0,0,0-.478-.809,2.345,2.345,0,0,0-1.531-.488A2.373,2.373,0,0,0,40.045-1.134Zm5.179-3.843a.523.523,0,0,0,.575.556.514.514,0,0,0,.575-.556.518.518,0,0,0-.566-.566A.528.528,0,0,0,45.224-4.977ZM45.3.8c0,.351.185.458.439.458h.1c.254,0,.429-.107.429-.458V-3.055c0-.361-.176-.468-.429-.468h-.1c-.254,0-.439.117-.439.468Zm7.675-4.389a1.843,1.843,0,0,0-1.629.985,1.522,1.522,0,0,0-1.531-.985,1.742,1.742,0,0,0-1.453.79c-.039-.6-.332-.722-.6-.722a.479.479,0,0,0-.351.107V.8c0,.351.176.458.429.458h.107c.244,0,.429-.107.429-.458v-2.76a1.357,1.357,0,0,1,1.18-.78c.692,0,1.034.41,1.034,1.239V.8c0,.351.185.458.439.458h.1c.254,0,.429-.107.429-.458v-2.76a1.371,1.371,0,0,1,1.19-.78c.692,0,1.034.41,1.034,1.2V.8c0,.351.176.458.439.458h.1c.254,0,.429-.107.429-.458V-1.661C54.743-2.87,54.167-3.592,52.977-3.592Zm2.77-1.385a.523.523,0,0,0,.575.556.514.514,0,0,0,.575-.556.518.518,0,0,0-.566-.566A.528.528,0,0,0,55.747-4.977ZM55.825.8c0,.351.185.458.439.458h.1c.254,0,.429-.107.429-.458V-3.055c0-.361-.176-.468-.429-.468h-.1c-.254,0-.439.117-.439.468Zm1.824-1.9a2.332,2.332,0,0,0,2.477,2.448,2.776,2.776,0,0,0,1.482-.38A.939.939,0,0,0,62.125.28c0-.41-.488-.5-.507-.478a1.543,1.543,0,0,1-1.473.78A1.524,1.524,0,0,1,58.566-.7a1.075,1.075,0,0,1-.02-.176h3.462c.224,0,.293-.078.293-.283v-.078a2.185,2.185,0,0,0-2.253-2.36A2.377,2.377,0,0,0,57.649-1.1Zm3.716-.419H58.556A1.5,1.5,0,0,1,60.038-2.86,1.288,1.288,0,0,1,61.365-1.524Zm4.252-2.068a1.82,1.82,0,0,0-1.56.829c-.02-.624-.341-.761-.6-.761a.479.479,0,0,0-.351.107V.8c0,.351.176.458.429.458h.107c.244,0,.429-.107.429-.458V-1.924a1.418,1.418,0,0,1,1.317-.819c.683,0,1.083.488,1.083,1.278V.8c0,.351.176.458.429.458H67c.244,0,.429-.107.429-.458v-2.38C67.431-2.743,66.855-3.592,65.617-3.592ZM70.23,1.343a1.319,1.319,0,0,0,.887-.283.579.579,0,0,0,.2-.429c0-.3-.244-.439-.273-.41a.794.794,0,0,1-.663.332c-.458,0-.624-.283-.624-.868v-2.37h1.063c.3,0,.419-.127.419-.371v-.068c0-.234-.107-.351-.41-.351H69.771V-4.2c0-.361-.166-.458-.419-.458h-.1c-.263,0-.429.127-.429.458v.722h-.341c-.3,0-.419.127-.419.361v.068c0,.234.117.361.419.361h.341V-.208C68.825.807,69.264,1.343,70.23,1.343Zm1.482-2.477A2.36,2.36,0,0,0,74.17,1.343a2.361,2.361,0,0,0,2.458-2.458A2.369,2.369,0,0,0,74.18-3.592,2.363,2.363,0,0,0,71.712-1.134Zm4.018.02A1.574,1.574,0,0,1,74.17.553,1.593,1.593,0,0,1,72.6-1.134,1.576,1.576,0,0,1,74.17-2.8,1.574,1.574,0,0,1,75.73-1.115Z" transform="translate(6003.563 4958.505)" fill="#0855c4"/>
    <path id="Trazado_17975" data-name="Trazado 17975" d="M1.047,1.259A5.551,5.551,0,0,0,4.614,2.266c2.9,0,4.523-1.28,4.523-3.482C9.137-3.3,7.4-4.117,5.4-4.561,4.033-4.868,3.044-5,3.044-5.96c0-.8.717-1.3,1.912-1.3A3.954,3.954,0,0,1,7.891-5.909a1.638,1.638,0,0,0,.99-1.314,1.515,1.515,0,0,0-.768-1.212,5.42,5.42,0,0,0-3.174-.819c-2.662,0-4.3,1.348-4.3,3.4,0,2.27,1.809,2.918,3.567,3.311,1.3.29,2.406.495,2.406,1.485,0,.853-.7,1.331-2.014,1.331A4.5,4.5,0,0,1,1.32-1.215C1.234-1.3.364-.669.364.031A1.582,1.582,0,0,0,1.047,1.259Zm9.762,4.335a1.112,1.112,0,0,0,.512-.085L15.4-7.513a2.984,2.984,0,0,0,.137-.717c0-.836-.734-.956-1.229-.956A1,1,0,0,0,13.8-9.1L9.7,3.922a2.845,2.845,0,0,0-.137.717C9.563,5.441,10.3,5.594,10.809,5.594ZM22.5,2.147h.324A1.011,1.011,0,0,0,23.917.986v-8.96c0-.768-.375-1.161-1.092-1.161H22.09a1.481,1.481,0,0,1-1.451,1.28A1.588,1.588,0,0,1,19.6-8.23a1.207,1.207,0,0,0-.666,1.195,1.376,1.376,0,0,0,.427,1.024,1.672,1.672,0,0,0,1.092.393,1.528,1.528,0,0,0,.99-.358V.986C21.442,1.737,21.8,2.147,22.5,2.147Zm8.26.119c3,0,4.813-2.031,4.813-5.24V-4.049c0-3.192-1.809-5.205-4.813-5.205s-4.83,2.031-4.83,5.223v1.092C25.931.252,27.74,2.266,30.761,2.266Zm0-2.065c-1.485,0-2.287-1.058-2.287-2.987V-4.236c0-1.946.785-2.987,2.287-2.987,1.468,0,2.3,1.075,2.3,3.021v1.417C33.065-.84,32.262.2,30.761.2ZM41.718,2.266c3,0,4.813-2.031,4.813-5.24V-4.049c0-3.192-1.809-5.205-4.813-5.205s-4.83,2.031-4.83,5.223v1.092C36.888.252,38.7,2.266,41.718,2.266Zm0-2.065c-1.485,0-2.287-1.058-2.287-2.987V-4.236c0-1.946.785-2.987,2.287-2.987,1.468,0,2.3,1.075,2.3,3.021v1.417C44.022-.84,43.22.2,41.718.2Zm6.212.819a1.02,1.02,0,0,0,1.143,1.143h.29A1.025,1.025,0,0,0,50.524,1.02V.781A1.018,1.018,0,0,0,49.364-.362h-.29A1.013,1.013,0,0,0,47.93.781Zm8.807,1.246c3,0,4.813-2.031,4.813-5.24V-4.049c0-3.192-1.809-5.205-4.813-5.205s-4.83,2.031-4.83,5.223v1.092C51.907.252,53.716,2.266,56.737,2.266Zm0-2.065C55.252.2,54.45-.857,54.45-2.786V-4.236c0-1.946.785-2.987,2.287-2.987,1.468,0,2.3,1.075,2.3,3.021v1.417C59.041-.84,58.239.2,56.737.2ZM67.694,2.266c3,0,4.813-2.031,4.813-5.24V-4.049c0-3.192-1.809-5.205-4.813-5.205s-4.83,2.031-4.83,5.223v1.092C62.864.252,64.673,2.266,67.694,2.266Zm0-2.065c-1.485,0-2.287-1.058-2.287-2.987V-4.236c0-1.946.785-2.987,2.287-2.987,1.468,0,2.3,1.075,2.3,3.021v1.417C70-.84,69.2.2,67.694.2ZM78.651,2.266c3,0,4.813-2.031,4.813-5.24V-4.049c0-3.192-1.809-5.205-4.813-5.205s-4.83,2.031-4.83,5.223v1.092C73.821.252,75.63,2.266,78.651,2.266Zm0-2.065c-1.485,0-2.287-1.058-2.287-2.987V-4.236c0-1.946.785-2.987,2.287-2.987,1.468,0,2.3,1.075,2.3,3.021v1.417C80.955-.84,80.153.2,78.651.2Z" transform="translate(6003.565 4947.894)" fill="#0855c4"/>
    <path id="Trazado_17976" data-name="Trazado 17976" d="M-30.11,1.259a5.551,5.551,0,0,0,3.567,1.007c2.9,0,4.523-1.28,4.523-3.482,0-2.082-1.741-2.9-3.738-3.345-1.365-.307-2.355-.444-2.355-1.4,0-.8.717-1.3,1.912-1.3a3.954,3.954,0,0,1,2.936,1.348,1.638,1.638,0,0,0,.99-1.314,1.515,1.515,0,0,0-.768-1.212,5.42,5.42,0,0,0-3.174-.819c-2.662,0-4.3,1.348-4.3,3.4,0,2.27,1.809,2.918,3.567,3.311,1.3.29,2.406.495,2.406,1.485,0,.853-.7,1.331-2.014,1.331a4.5,4.5,0,0,1-3.277-1.485c-.085-.085-.956.546-.956,1.246A1.582,1.582,0,0,0-30.11,1.259Zm9.762,4.335a1.112,1.112,0,0,0,.512-.085l4.079-13.022a2.984,2.984,0,0,0,.137-.717c0-.836-.734-.956-1.229-.956a1,1,0,0,0-.512.085l-4.1,13.022a2.845,2.845,0,0,0-.137.717C-21.594,5.441-20.86,5.594-20.348,5.594ZM-8.077,2.266c2.765,0,4.489-1.434,4.489-3.669,0-2.168-1.621-3.5-4.079-3.5a5.36,5.36,0,0,0-2.014.41V-6.967h4.455c.8,0,1.178-.307,1.178-.973v-.085c0-.666-.393-.99-1.178-.99h-5.342c-.836,0-1.212.512-1.212,1.4v3.652c0,1.007.495,1.434,1.485,1.468a3.551,3.551,0,0,1,2.27-.683c1.417,0,2.2.649,2.2,1.758S-6.694.389-8.111.389A3.675,3.675,0,0,1-11.149-1.1,1.391,1.391,0,0,0-12.19.082,1.9,1.9,0,0,0-11.1,1.549,5.929,5.929,0,0,0-8.077,2.266Zm10.394,0c3,0,4.813-2.031,4.813-5.24V-4.049c0-3.192-1.809-5.205-4.813-5.205s-4.83,2.031-4.83,5.223v1.092C-2.513.252-.7,2.266,2.317,2.266ZM2.317.2C.832.2.03-.857.03-2.786V-4.236c0-1.946.785-2.987,2.287-2.987,1.468,0,2.3,1.075,2.3,3.021v1.417C4.621-.84,3.819.2,2.317.2ZM8.53,1.02A1.02,1.02,0,0,0,9.673,2.164h.29A1.025,1.025,0,0,0,11.124,1.02V.781A1.018,1.018,0,0,0,9.963-.362h-.29A1.013,1.013,0,0,0,8.53.781Zm8.807,1.246c3,0,4.813-2.031,4.813-5.24V-4.049c0-3.192-1.809-5.205-4.813-5.205s-4.83,2.031-4.83,5.223v1.092C12.506.252,14.315,2.266,17.336,2.266Zm0-2.065c-1.485,0-2.287-1.058-2.287-2.987V-4.236c0-1.946.785-2.987,2.287-2.987,1.468,0,2.3,1.075,2.3,3.021v1.417C19.64-.84,18.838.2,17.336.2ZM28.293,2.266c3,0,4.813-2.031,4.813-5.24V-4.049c0-3.192-1.809-5.205-4.813-5.205s-4.83,2.031-4.83,5.223v1.092C23.463.252,25.273,2.266,28.293,2.266Zm0-2.065c-1.485,0-2.287-1.058-2.287-2.987V-4.236c0-1.946.785-2.987,2.287-2.987,1.468,0,2.3,1.075,2.3,3.021v1.417C30.6-.84,29.8.2,28.293.2ZM39.251,2.266c3,0,4.813-2.031,4.813-5.24V-4.049c0-3.192-1.809-5.205-4.813-5.205s-4.83,2.031-4.83,5.223v1.092C34.421.252,36.23,2.266,39.251,2.266Zm0-2.065c-1.485,0-2.287-1.058-2.287-2.987V-4.236c0-1.946.785-2.987,2.287-2.987,1.468,0,2.3,1.075,2.3,3.021v1.417C41.555-.84,40.752.2,39.251.2Z" transform="translate(6157.049 4944.916)" fill="#0855c4"/>
    <path id="Trazado_17979" data-name="Trazado 17979" d="M-28.99,1.259a5.551,5.551,0,0,0,3.567,1.007c2.9,0,4.523-1.28,4.523-3.482,0-2.082-1.741-2.9-3.738-3.345C-26-4.868-26.993-5-26.993-5.96c0-.8.717-1.3,1.912-1.3a3.954,3.954,0,0,1,2.936,1.348,1.638,1.638,0,0,0,.99-1.314,1.515,1.515,0,0,0-.768-1.212A5.42,5.42,0,0,0-25.1-9.254c-2.662,0-4.3,1.348-4.3,3.4,0,2.27,1.809,2.918,3.567,3.311,1.3.29,2.406.495,2.406,1.485,0,.853-.7,1.331-2.014,1.331a4.5,4.5,0,0,1-3.277-1.485c-.085-.085-.956.546-.956,1.246A1.582,1.582,0,0,0-28.99,1.259Zm9.421,4.335a1.112,1.112,0,0,0,.512-.085l4.079-13.022a2.984,2.984,0,0,0,.137-.717c0-.836-.734-.956-1.229-.956a1,1,0,0,0-.512.085l-4.1,13.022a2.845,2.845,0,0,0-.137.717C-20.815,5.441-20.081,5.594-19.569,5.594ZM-7.981,2.266c2.765,0,4.489-1.434,4.489-3.669,0-2.168-1.621-3.5-4.079-3.5a5.36,5.36,0,0,0-2.014.41V-6.967H-5.13c.8,0,1.178-.307,1.178-.973v-.085c0-.666-.393-.99-1.178-.99h-5.342c-.836,0-1.212.512-1.212,1.4v3.652c0,1.007.495,1.434,1.485,1.468a3.551,3.551,0,0,1,2.27-.683c1.417,0,2.2.649,2.2,1.758S-6.6.389-8.015.389A3.675,3.675,0,0,1-11.053-1.1,1.391,1.391,0,0,0-12.094.082,1.9,1.9,0,0,0-11,1.549,5.929,5.929,0,0,0-7.981,2.266Zm10.053,0c3,0,4.813-2.031,4.813-5.24V-4.049c0-3.192-1.809-5.205-4.813-5.205s-4.83,2.031-4.83,5.223v1.092C-2.758.252-.949,2.266,2.072,2.266ZM2.072.2C.587.2-.215-.857-.215-2.786V-4.236c0-1.946.785-2.987,2.287-2.987,1.468,0,2.3,1.075,2.3,3.021v1.417C4.376-.84,3.574.2,2.072.2Zm5.871.819A1.02,1.02,0,0,0,9.086,2.164h.29A1.025,1.025,0,0,0,10.537,1.02V.781A1.018,1.018,0,0,0,9.377-.362h-.29A1.013,1.013,0,0,0,7.943.781Zm8.465,1.246c3,0,4.813-2.031,4.813-5.24V-4.049c0-3.192-1.809-5.205-4.813-5.205s-4.83,2.031-4.83,5.223v1.092C11.578.252,13.387,2.266,16.408,2.266Zm0-2.065c-1.485,0-2.287-1.058-2.287-2.987V-4.236c0-1.946.785-2.987,2.287-2.987,1.468,0,2.3,1.075,2.3,3.021v1.417C18.712-.84,17.91.2,16.408.2ZM27.024,2.266c3,0,4.813-2.031,4.813-5.24V-4.049c0-3.192-1.809-5.205-4.813-5.205s-4.83,2.031-4.83,5.223v1.092C22.194.252,24,2.266,27.024,2.266Zm0-2.065c-1.485,0-2.287-1.058-2.287-2.987V-4.236c0-1.946.785-2.987,2.287-2.987,1.468,0,2.3,1.075,2.3,3.021v1.417C29.328-.84,28.526.2,27.024.2ZM37.64,2.266c3,0,4.813-2.031,4.813-5.24V-4.049c0-3.192-1.809-5.205-4.813-5.205s-4.83,2.031-4.83,5.223v1.092C32.81.252,34.619,2.266,37.64,2.266ZM37.64.2c-1.485,0-2.287-1.058-2.287-2.987V-4.236c0-1.946.785-2.987,2.287-2.987,1.468,0,2.3,1.075,2.3,3.021v1.417C39.944-.84,39.142.2,37.64.2Z" transform="translate(6281.641 4943.651)" fill="#fff"/>
    <path id="Trazado_17977" data-name="Trazado 17977" d="M1.632-1.926A3.086,3.086,0,0,0,4.811,1.341,3.106,3.106,0,0,0,6.694.776a1.327,1.327,0,0,0,.624-.907c0-.468-.6-.585-.624-.536A1.869,1.869,0,0,1,4.87.434a2.21,2.21,0,0,1-2.194-2.38A2.177,2.177,0,0,1,4.85-4.315a2.039,2.039,0,0,1,1.785.975.588.588,0,0,0,.585-.546,1.184,1.184,0,0,0-.595-.829,3.059,3.059,0,0,0-1.785-.507A3.116,3.116,0,0,0,1.632-1.926ZM8,.756a.474.474,0,0,0,.527.527h.127A.477.477,0,0,0,9.19.756V.639A.479.479,0,0,0,8.654.1H8.527A.476.476,0,0,0,8,.639Zm3.53.507A.58.58,0,0,0,12.087.8l.556-1.443h2.526L15.725.8a.618.618,0,0,0,.595.468c.3,0,.585-.224.556-.3L14.613-4.832c-.078-.2-.224-.322-.692-.322s-.614.117-.692.322L10.985.961C10.956,1.049,11.238,1.263,11.531,1.263Zm1.356-2.711L13.9-4.12l1.014,2.672Zm6.525,2.789A1.875,1.875,0,0,0,21.059.434V.8c0,.351.176.458.429.458h.1c.254,0,.429-.107.429-.458V-4.657c0-.673-.312-.829-.614-.829a.5.5,0,0,0-.351.107v2.555a1.894,1.894,0,0,0-1.609-.77,2.243,2.243,0,0,0-2.224,2.467A2.244,2.244,0,0,0,19.411,1.341ZM21.059-.833A1.412,1.412,0,0,1,19.6.542a1.509,1.509,0,0,1-1.443-1.668,1.486,1.486,0,0,1,1.463-1.668,1.464,1.464,0,0,1,1.443.966Zm2.009-4.145a.523.523,0,0,0,.575.556.514.514,0,0,0,.575-.556.518.518,0,0,0-.566-.566A.528.528,0,0,0,23.068-4.978ZM23.146.8c0,.351.185.458.439.458h.1c.254,0,.429-.107.429-.458V-3.057c0-.361-.176-.468-.429-.468h-.1c-.254,0-.439.117-.439.468ZM24.97-1.136a2.372,2.372,0,0,0,2.438,2.477A2.316,2.316,0,0,0,28.93.854a1.152,1.152,0,0,0,.488-.8c0-.419-.546-.488-.575-.439a1.4,1.4,0,0,1-1.414.917,1.559,1.559,0,0,1-1.541-1.668,1.553,1.553,0,0,1,1.541-1.648,1.391,1.391,0,0,1,1.414.917c.029.049.575-.029.575-.429a1.167,1.167,0,0,0-.478-.809,2.345,2.345,0,0,0-1.531-.488A2.373,2.373,0,0,0,24.97-1.136Zm5.179-3.843a.523.523,0,0,0,.575.556.514.514,0,0,0,.575-.556.518.518,0,0,0-.566-.566A.528.528,0,0,0,30.149-4.978ZM30.227.8c0,.351.185.458.439.458h.1c.254,0,.429-.107.429-.458V-3.057c0-.361-.176-.468-.429-.468h-.1c-.254,0-.439.117-.439.468Zm1.824-1.931a2.36,2.36,0,0,0,2.458,2.477,2.361,2.361,0,0,0,2.458-2.458,2.369,2.369,0,0,0-2.448-2.477A2.363,2.363,0,0,0,32.051-1.136Zm4.018.02A1.574,1.574,0,0,1,34.508.551a1.593,1.593,0,0,1-1.57-1.687A1.576,1.576,0,0,1,34.508-2.8,1.574,1.574,0,0,1,36.069-1.116Zm4.223-2.477a1.82,1.82,0,0,0-1.56.829c-.02-.624-.341-.761-.6-.761a.479.479,0,0,0-.351.107V.8c0,.351.176.458.429.458h.107c.244,0,.429-.107.429-.458V-1.926a1.418,1.418,0,0,1,1.317-.819c.683,0,1.083.488,1.083,1.278V.8c0,.351.176.458.429.458h.107c.244,0,.429-.107.429-.458v-2.38C42.106-2.745,41.53-3.593,40.292-3.593ZM42.876-.014c0,.8.595,1.336,1.6,1.336A2.028,2.028,0,0,0,46.163.512,1.451,1.451,0,0,0,46.2.834a.523.523,0,0,0,.556.429c.176,0,.351-.059.351-.107V-1.721c0-1.19-.722-1.873-2.048-1.873a2.49,2.49,0,0,0-1.687.536.852.852,0,0,0-.322.585c0,.468.595.478.595.468a1.417,1.417,0,0,1,1.346-.8,1.02,1.02,0,0,1,1.161,1.1v.1h-.127C43.91-1.565,42.876-1.1,42.876-.014Zm3.277-.624A1.314,1.314,0,0,1,44.709.629c-.556,0-.887-.263-.887-.683,0-.634.7-.887,2.068-.936L46.153-1ZM48.63,1.254h.1c.254,0,.429-.107.429-.458V-4.657c0-.673-.312-.829-.614-.829a.5.5,0,0,0-.351.107V.8C48.191,1.146,48.376,1.254,48.63,1.254Z" transform="translate(6126.361 4957.967)" fill="#0855c4"/>
    <path id="Trazado_17980" data-name="Trazado 17980" d="M1.069,1.2h.107c.293,0,.429-.156.429-.458v-4.5L4.892.893a.537.537,0,0,0,.536.3h.078c.293,0,.468-.215.468-.566V-4.734c0-.3-.137-.458-.41-.458H5.447c-.293,0-.419.156-.419.458v4.35L1.907-4.812c-.185-.254-.3-.38-.6-.38H1.137c-.312,0-.478.224-.478.566V.737C.659,1.04.786,1.2,1.069,1.2ZM11-3.583h-.107c-.244,0-.419.117-.419.468V-.394A1.409,1.409,0,0,1,9.183.435c-.712,0-1.122-.478-1.122-1.287V-3.115c0-.361-.176-.468-.429-.468H7.525c-.244,0-.419.117-.419.468v2.38c0,1.17.566,2.009,1.8,2.009A1.822,1.822,0,0,0,10.47.455a1.34,1.34,0,0,0,.039.3.546.546,0,0,0,.575.439.468.468,0,0,0,.341-.107v-4.2C11.426-3.476,11.25-3.583,11-3.583Zm1.141,2.419a2.332,2.332,0,0,0,2.477,2.448A2.776,2.776,0,0,0,16.1.9.939.939,0,0,0,16.614.22c0-.41-.488-.5-.507-.478a1.543,1.543,0,0,1-1.473.78,1.524,1.524,0,0,1-1.58-1.278,1.074,1.074,0,0,1-.02-.176H16.5c.224,0,.293-.078.293-.283v-.078a2.185,2.185,0,0,0-2.253-2.36A2.377,2.377,0,0,0,12.138-1.164Zm3.716-.419H13.045A1.5,1.5,0,0,1,14.527-2.92,1.288,1.288,0,0,1,15.854-1.584ZM18.848.932c.088.215.254.283.585.283.312,0,.507-.088.595-.3L21.734-3.3c.02-.049-.2-.283-.5-.283-.244,0-.429.117-.595.575L19.423.3l-1.18-3.306c-.166-.458-.341-.575-.614-.575-.312,0-.527.224-.507.283Zm3.131-2.126a2.36,2.36,0,0,0,2.458,2.477,2.361,2.361,0,0,0,2.458-2.458,2.369,2.369,0,0,0-2.448-2.477A2.363,2.363,0,0,0,21.978-1.194ZM26-1.174A1.574,1.574,0,0,1,24.436.494a1.593,1.593,0,0,1-1.57-1.687,1.576,1.576,0,0,1,1.57-1.668A1.574,1.574,0,0,1,26-1.174Zm8.836-2.477a1.843,1.843,0,0,0-1.629.985,1.522,1.522,0,0,0-1.531-.985,1.742,1.742,0,0,0-1.453.79c-.039-.6-.332-.722-.6-.722a.479.479,0,0,0-.351.107V.737c0,.351.176.458.429.458H29.8c.244,0,.429-.107.429-.458v-2.76a1.357,1.357,0,0,1,1.18-.78c.692,0,1.034.41,1.034,1.239v2.3c0,.351.185.458.439.458h.1c.254,0,.429-.107.429-.458v-2.76A1.371,1.371,0,0,1,34.6-2.8c.692,0,1.034.41,1.034,1.2V.737c0,.351.176.458.439.458h.1c.254,0,.429-.107.429-.458V-1.72C36.6-2.93,36.022-3.651,34.832-3.651Zm2.526,2.458a2.36,2.36,0,0,0,2.458,2.477,2.361,2.361,0,0,0,2.458-2.458,2.369,2.369,0,0,0-2.448-2.477A2.363,2.363,0,0,0,37.358-1.194Zm4.018.02A1.574,1.574,0,0,1,39.816.494a1.593,1.593,0,0,1-1.57-1.687,1.576,1.576,0,0,1,1.57-1.668A1.574,1.574,0,0,1,41.376-1.174ZM45.6-3.651a1.82,1.82,0,0,0-1.56.829c-.02-.624-.341-.761-.6-.761a.479.479,0,0,0-.351.107V.737c0,.351.176.458.429.458h.107c.244,0,.429-.107.429-.458V-1.984A1.418,1.418,0,0,1,45.365-2.8c.683,0,1.083.488,1.083,1.278V.737c0,.351.176.458.429.458h.107c.244,0,.429-.107.429-.458v-2.38C47.413-2.8,46.838-3.651,45.6-3.651Zm4.613,4.935A1.319,1.319,0,0,0,51.1,1a.579.579,0,0,0,.2-.429c0-.3-.244-.439-.273-.41a.794.794,0,0,1-.663.332c-.458,0-.624-.283-.624-.868v-2.37h1.063c.3,0,.419-.127.419-.371v-.068c0-.234-.107-.351-.41-.351H49.754v-.722c0-.361-.166-.458-.419-.458h-.1c-.263,0-.429.127-.429.458v.722h-.341c-.3,0-.419.127-.419.361v.068c0,.234.117.361.419.361h.341V-.267C48.808.747,49.247,1.284,50.212,1.284Zm1.482-2.477a2.36,2.36,0,0,0,2.458,2.477A2.361,2.361,0,0,0,56.61-1.174a2.369,2.369,0,0,0-2.448-2.477A2.363,2.363,0,0,0,51.695-1.194Zm4.018.02A1.574,1.574,0,0,1,54.152.494a1.593,1.593,0,0,1-1.57-1.687,1.576,1.576,0,0,1,1.57-1.668A1.574,1.574,0,0,1,55.713-1.174Zm3.1-.809a3.086,3.086,0,0,0,3.179,3.267A3.106,3.106,0,0,0,63.876.718,1.327,1.327,0,0,0,64.5-.189c0-.468-.6-.585-.624-.536a1.869,1.869,0,0,1-1.824,1.1A2.21,2.21,0,0,1,59.858-2a2.177,2.177,0,0,1,2.175-2.37,2.039,2.039,0,0,1,1.785.975.588.588,0,0,0,.585-.546,1.184,1.184,0,0,0-.595-.829,3.059,3.059,0,0,0-1.785-.507A3.116,3.116,0,0,0,58.814-1.984ZM65.182.7a.474.474,0,0,0,.527.527h.127A.477.477,0,0,0,66.372.7V.581a.479.479,0,0,0-.536-.536h-.127a.476.476,0,0,0-.527.536Zm6.339-4.35a1.87,1.87,0,0,0-1.648.878,1.663,1.663,0,0,0-.029-.273.559.559,0,0,0-.575-.536.479.479,0,0,0-.351.107V2.61c0,.351.176.458.429.458h.107c.244,0,.429-.107.429-.458V.406a1.811,1.811,0,0,0,1.609.878,2.257,2.257,0,0,0,2.224-2.477A2.23,2.23,0,0,0,71.522-3.651Zm-.2,4.135A1.4,1.4,0,0,1,69.873-.891v-.985a1.5,1.5,0,0,1,1.463-.975A1.509,1.509,0,0,1,72.78-1.184,1.491,1.491,0,0,1,71.317.484Zm2.926-1.677A2.36,2.36,0,0,0,76.7,1.284a2.361,2.361,0,0,0,2.458-2.458A2.369,2.369,0,0,0,76.71-3.651,2.363,2.363,0,0,0,74.243-1.194Zm4.018.02A1.574,1.574,0,0,1,76.7.494a1.593,1.593,0,0,1-1.57-1.687A1.576,1.576,0,0,1,76.7-2.861,1.574,1.574,0,0,1,78.261-1.174Zm3.852-2.477a1.188,1.188,0,0,0-1.19.887,1.75,1.75,0,0,0-.039-.351.552.552,0,0,0-.566-.468.479.479,0,0,0-.351.107V.737c0,.351.176.458.429.458H80.5c.244,0,.429-.107.429-.458V-.911c0-1.083.3-1.824,1.063-1.824a.909.909,0,0,1,.595.2.48.48,0,0,0,.293-.5C82.884-3.417,82.6-3.651,82.113-3.651ZM1.039,10.49c0,.351.185.458.439.458h.1c.254,0,.419-.107.419-.458V7.008h.77c.312,0,.429-.127.429-.361V6.579c0-.234-.117-.361-.429-.361h-.79V5.877c0-.663.2-.956.673-.956a1.055,1.055,0,0,1,.7.273.45.45,0,0,0,.234-.419.517.517,0,0,0-.254-.439,1.436,1.436,0,0,0-.8-.2c-.936,0-1.492.546-1.492,1.726v.351H.493c-.312,0-.429.117-.429.351v.068c0,.244.117.371.429.371h.546Zm2.526-.809c0,.8.595,1.336,1.6,1.336a2.028,2.028,0,0,0,1.687-.809,1.45,1.45,0,0,0,.039.322.523.523,0,0,0,.556.429c.176,0,.351-.059.351-.107V7.974C7.8,6.784,7.076,6.1,5.75,6.1a2.49,2.49,0,0,0-1.687.536.852.852,0,0,0-.322.585c0,.468.595.478.595.468a1.417,1.417,0,0,1,1.346-.8,1.02,1.02,0,0,1,1.161,1.1v.1H6.715C4.6,8.13,3.565,8.6,3.565,9.681Zm3.277-.624A1.314,1.314,0,0,1,5.4,10.324c-.556,0-.887-.263-.887-.683,0-.634.7-.887,2.068-.936l.263-.01Zm2.477,1.892h.1c.254,0,.429-.107.429-.458V5.038c0-.673-.312-.829-.614-.829a.5.5,0,0,0-.351.107V10.49C8.88,10.841,9.066,10.948,9.319,10.948Zm2.146,0h.1c.254,0,.429-.107.429-.458V5.038c0-.673-.312-.829-.614-.829a.5.5,0,0,0-.351.107V10.49C11.026,10.841,11.211,10.948,11.465,10.948Zm1.385-2.36a2.332,2.332,0,0,0,2.477,2.448,2.776,2.776,0,0,0,1.482-.38.939.939,0,0,0,.517-.683c0-.41-.488-.5-.507-.478a1.543,1.543,0,0,1-1.473.78A1.524,1.524,0,0,1,13.766,9a1.075,1.075,0,0,1-.02-.176h3.462c.224,0,.293-.078.293-.283V8.461A2.185,2.185,0,0,0,15.249,6.1,2.377,2.377,0,0,0,12.85,8.588Zm3.716-.419H13.757a1.5,1.5,0,0,1,1.482-1.336A1.288,1.288,0,0,1,16.565,8.169Zm1.453.39a2.372,2.372,0,0,0,2.438,2.477,2.316,2.316,0,0,0,1.521-.488,1.152,1.152,0,0,0,.488-.8c0-.419-.546-.488-.575-.439a1.4,1.4,0,0,1-1.414.917,1.559,1.559,0,0,1-1.541-1.668,1.553,1.553,0,0,1,1.541-1.648,1.391,1.391,0,0,1,1.414.917c.029.049.575-.029.575-.429a1.167,1.167,0,0,0-.478-.809A2.345,2.345,0,0,0,20.457,6.1,2.373,2.373,0,0,0,18.019,8.559ZM23.2,4.716a.523.523,0,0,0,.575.556.514.514,0,0,0,.575-.556.518.518,0,0,0-.566-.566A.528.528,0,0,0,23.2,4.716Zm.078,5.774c0,.351.185.458.439.458h.1c.254,0,.429-.107.429-.458V6.638c0-.361-.176-.468-.429-.468h-.1c-.254,0-.439.117-.439.468ZM30.951,6.1a1.843,1.843,0,0,0-1.629.985A1.522,1.522,0,0,0,27.791,6.1a1.742,1.742,0,0,0-1.453.79c-.039-.6-.332-.722-.6-.722a.479.479,0,0,0-.351.107V10.49c0,.351.176.458.429.458h.107c.244,0,.429-.107.429-.458V7.73a1.357,1.357,0,0,1,1.18-.78c.692,0,1.034.41,1.034,1.239v2.3c0,.351.185.458.439.458h.1c.254,0,.429-.107.429-.458V7.73a1.371,1.371,0,0,1,1.19-.78c.692,0,1.034.41,1.034,1.2V10.49c0,.351.176.458.439.458h.1c.254,0,.429-.107.429-.458V8.032C32.716,6.823,32.14,6.1,30.951,6.1Zm2.77-1.385a.523.523,0,0,0,.575.556.514.514,0,0,0,.575-.556.518.518,0,0,0-.566-.566A.528.528,0,0,0,33.72,4.716ZM33.8,10.49c0,.351.185.458.439.458h.1c.254,0,.429-.107.429-.458V6.638c0-.361-.176-.468-.429-.468h-.1c-.254,0-.439.117-.439.468Zm1.824-1.9A2.332,2.332,0,0,0,38.1,11.036a2.776,2.776,0,0,0,1.482-.38.939.939,0,0,0,.517-.683c0-.41-.488-.5-.507-.478a1.543,1.543,0,0,1-1.473.78A1.524,1.524,0,0,1,36.539,9a1.074,1.074,0,0,1-.02-.176h3.462c.224,0,.293-.078.293-.283V8.461A2.185,2.185,0,0,0,38.021,6.1,2.377,2.377,0,0,0,35.622,8.588Zm3.716-.419H36.529a1.5,1.5,0,0,1,1.482-1.336A1.288,1.288,0,0,1,39.338,8.169ZM43.59,6.1a1.82,1.82,0,0,0-1.56.829c-.02-.624-.341-.761-.6-.761a.479.479,0,0,0-.351.107V10.49c0,.351.176.458.429.458h.107c.244,0,.429-.107.429-.458V7.769a1.418,1.418,0,0,1,1.317-.819c.683,0,1.083.488,1.083,1.278V10.49c0,.351.176.458.429.458h.107c.244,0,.429-.107.429-.458V8.11C45.4,6.95,44.829,6.1,43.59,6.1ZM48.2,11.036a1.319,1.319,0,0,0,.887-.283.579.579,0,0,0,.2-.429c0-.3-.244-.439-.273-.41a.794.794,0,0,1-.663.332c-.458,0-.624-.283-.624-.868V7.008H48.8c.3,0,.419-.127.419-.371V6.569c0-.234-.107-.351-.41-.351H47.745V5.5c0-.361-.166-.458-.419-.458h-.1c-.263,0-.429.127-.429.458v.722h-.341c-.3,0-.419.127-.419.361v.068c0,.234.117.361.419.361H46.8V9.486C46.8,10.5,47.238,11.036,48.2,11.036Zm1.482-2.477a2.458,2.458,0,1,0,4.915.02,2.458,2.458,0,1,0-4.915-.02Zm4.018.02a1.574,1.574,0,0,1-1.56,1.668,1.593,1.593,0,0,1-1.57-1.687,1.569,1.569,0,1,1,3.131.02Z" transform="translate(6251.583 4956.76)" fill="#fff"/>
    <g id="Grupo_20988" data-name="Grupo 20988" transform="translate(6213.778 4935.925)">
      <circle id="Elipse_1441" data-name="Elipse 1441" cx="12.352" cy="12.352" r="12.352" transform="translate(0 0.992)" fill="#00aded"/>
      <path id="Trazado_17981" data-name="Trazado 17981" d="M-1.766-3.288H4.911a1.035,1.035,0,0,0,1.159-1.1v-.24A1.04,1.04,0,0,0,4.911-5.707H-1.766A1.04,1.04,0,0,0-2.925-4.628v.24A1.035,1.035,0,0,0-1.766-3.288Zm0,4.837H4.911A1.035,1.035,0,0,0,6.07.45V.21A1.03,1.03,0,0,0,4.911-.87H-1.766A1.03,1.03,0,0,0-2.925.21V.45A1.035,1.035,0,0,0-1.766,1.549Z" transform="translate(10.779 15.075)" fill="#fff"/>
    </g>
  </g>
</svg>
