<svg xmlns="http://www.w3.org/2000/svg" width="236.795" height="66.636" viewBox="0 0 236.795 66.636">
  <g id="Grupo_20992" data-name="Grupo 20992" transform="translate(-5525 -5557)">
    <path id="Trazado_17983" data-name="Trazado 17983" d="M4.76,0h99.954a4.76,4.76,0,0,1,4.76,4.76V61.876a4.76,4.76,0,0,1-4.76,4.76H4.76A4.76,4.76,0,0,1,0,61.876V4.76A4.76,4.76,0,0,1,4.76,0Z" transform="translate(5525 5557)" fill="#e2f7ff"/>
    <path id="Trazado_17984" data-name="Trazado 17984" d="M.608.58c0,.3.114.447.381.447h.152c.286,0,.4-.152.4-.447V-3.913L2.883-.877a.566.566,0,0,0,.628.419A.566.566,0,0,0,4.14-.877L5.5-3.942V.58c0,.3.114.447.39.447h.133c.286,0,.409-.152.409-.447V-4.665a.526.526,0,0,0-.581-.543H5.615c-.362,0-.476.133-.628.5L3.521-1.429,2.065-4.713c-.152-.352-.257-.5-.638-.5H1.17a.515.515,0,0,0-.562.543ZM7.3-1.305A2.3,2.3,0,0,0,9.7,1.113a2.3,2.3,0,0,0,2.4-2.4A2.312,2.312,0,0,0,9.709-3.7,2.307,2.307,0,0,0,7.3-1.305Zm3.922.019A1.536,1.536,0,0,1,9.7.342,1.554,1.554,0,0,1,8.167-1.305,1.538,1.538,0,0,1,9.7-2.933,1.536,1.536,0,0,1,11.222-1.286ZM15.344-3.7a1.776,1.776,0,0,0-1.523.809c-.019-.609-.333-.743-.59-.743a.468.468,0,0,0-.343.1V.58c0,.343.171.447.419.447h.1c.238,0,.419-.1.419-.447V-2.076a1.384,1.384,0,0,1,1.285-.8c.666,0,1.057.476,1.057,1.247V.58c0,.343.171.447.419.447h.1c.238,0,.419-.1.419-.447V-1.743C17.115-2.876,16.553-3.7,15.344-3.7Zm4.5,4.817a1.288,1.288,0,0,0,.866-.276.565.565,0,0,0,.2-.419c0-.3-.238-.428-.267-.4A.775.775,0,0,1,20,.342c-.447,0-.609-.276-.609-.847V-2.819h1.038c.3,0,.409-.124.409-.362v-.067c0-.228-.1-.343-.4-.343H19.4v-.7c0-.352-.162-.447-.409-.447h-.1c-.257,0-.419.124-.419.447v.7h-.333c-.3,0-.409.124-.409.352v.067c0,.228.114.352.409.352h.333V-.4C18.476.589,18.9,1.113,19.847,1.113Zm1.447-2.418a2.3,2.3,0,0,0,2.4,2.418,2.3,2.3,0,0,0,2.4-2.4A2.312,2.312,0,0,0,23.7-3.7,2.307,2.307,0,0,0,21.294-1.305Zm3.922.019A1.536,1.536,0,0,1,23.693.342,1.554,1.554,0,0,1,22.16-1.305a1.538,1.538,0,0,1,1.533-1.628A1.536,1.536,0,0,1,25.216-1.286ZM28.138-.21c0,.781.581,1.3,1.561,1.3A1.98,1.98,0,0,0,31.346.3a1.416,1.416,0,0,0,.038.314.511.511,0,0,0,.543.419c.171,0,.343-.057.343-.1V-1.876c0-1.161-.7-1.828-2-1.828a2.431,2.431,0,0,0-1.647.524.831.831,0,0,0-.314.571c0,.457.581.466.581.457A1.383,1.383,0,0,1,30.2-2.933a1,1,0,0,1,1.133,1.076v.1h-.124C29.147-1.724,28.138-1.267,28.138-.21Zm3.2-.609A1.282,1.282,0,0,1,29.928.418c-.543,0-.866-.257-.866-.666,0-.619.685-.866,2.018-.914l.257-.01ZM37.353-3.7a1.825,1.825,0,0,0-1.609.857,1.623,1.623,0,0,0-.029-.267.546.546,0,0,0-.562-.524.468.468,0,0,0-.343.1v5.94c0,.343.171.447.419.447h.1c.238,0,.419-.1.419-.447V.256a1.768,1.768,0,0,0,1.571.857,2.2,2.2,0,0,0,2.17-2.418A2.177,2.177,0,0,0,37.353-3.7Zm-.2,4.036A1.368,1.368,0,0,1,35.744-1.01v-.961a1.461,1.461,0,0,1,1.428-.952A1.473,1.473,0,0,1,38.581-1.3,1.455,1.455,0,0,1,37.153.332ZM40.019-.21c0,.781.581,1.3,1.561,1.3A1.98,1.98,0,0,0,43.227.3a1.416,1.416,0,0,0,.038.314.511.511,0,0,0,.543.419c.171,0,.343-.057.343-.1V-1.876c0-1.161-.7-1.828-2-1.828A2.431,2.431,0,0,0,40.5-3.18a.831.831,0,0,0-.314.571c0,.457.581.466.581.457a1.383,1.383,0,0,1,1.314-.781,1,1,0,0,1,1.133,1.076v.1h-.124C41.028-1.724,40.019-1.267,40.019-.21Zm3.2-.609A1.282,1.282,0,0,1,41.808.418c-.543,0-.866-.257-.866-.666,0-.619.685-.866,2.018-.914l.257-.01ZM46.92,3c1.514,0,2.4-.533,2.4-1.4,0-.752-.685-1.076-1.333-1.247-.8-.2-1.238-.228-1.238-.524A.266.266,0,0,1,46.8-.334h.171A1.776,1.776,0,0,0,48.948-2a1.555,1.555,0,0,0-.4-1.019l.781-.809a.515.515,0,0,0-.485-.4.6.6,0,0,0-.543.362l-.248.438A2.3,2.3,0,0,0,46.958-3.7,1.824,1.824,0,0,0,45-1.971,1.593,1.593,0,0,0,46.2-.448a.672.672,0,0,0-.257.5.531.531,0,0,0,.181.428c-.828.143-1.456.59-1.456,1.257C44.664,2.588,45.378,3,46.92,3Zm.048-3.951A1.01,1.01,0,0,1,45.892-1.99a1,1,0,0,1,1.057-1.038A1.013,1.013,0,0,1,48.034-1.99,1,1,0,0,1,46.968-.953Zm-.029,3.294c-.9,0-1.371-.228-1.371-.638,0-.485.647-.762,1.428-.809l.476.114c.5.124.933.257.933.619C48.405,2.084,47.862,2.341,46.939,2.341ZM49.6-.21c0,.781.581,1.3,1.561,1.3A1.98,1.98,0,0,0,52.813.3a1.416,1.416,0,0,0,.038.314.511.511,0,0,0,.543.419c.171,0,.343-.057.343-.1V-1.876c0-1.161-.7-1.828-2-1.828a2.431,2.431,0,0,0-1.647.524.831.831,0,0,0-.314.571c0,.457.581.466.581.457a1.383,1.383,0,0,1,1.314-.781A1,1,0,0,1,52.8-1.857v.1h-.124C50.614-1.724,49.6-1.267,49.6-.21ZM52.8-.82A1.282,1.282,0,0,1,51.394.418c-.543,0-.866-.257-.866-.666,0-.619.685-.866,2.018-.914l.257-.01ZM56.849-3.7a1.159,1.159,0,0,0-1.161.866,1.708,1.708,0,0,0-.038-.343.539.539,0,0,0-.552-.457.468.468,0,0,0-.343.1V.58c0,.343.171.447.419.447h.1c.238,0,.419-.1.419-.447V-1.029c0-1.057.3-1.78,1.038-1.78a.887.887,0,0,1,.581.2.469.469,0,0,0,.286-.485C57.6-3.475,57.325-3.7,56.849-3.7ZM59.267-.21c0,.781.581,1.3,1.561,1.3A1.98,1.98,0,0,0,62.475.3a1.416,1.416,0,0,0,.038.314.511.511,0,0,0,.543.419c.171,0,.343-.057.343-.1V-1.876c0-1.161-.7-1.828-2-1.828a2.431,2.431,0,0,0-1.647.524.831.831,0,0,0-.314.571c0,.457.581.466.581.457a1.383,1.383,0,0,1,1.314-.781,1,1,0,0,1,1.133,1.076v.1h-.124C60.276-1.724,59.267-1.267,59.267-.21Zm3.2-.609A1.282,1.282,0,0,1,61.056.418c-.543,0-.866-.257-.866-.666,0-.619.685-.866,2.018-.914l.257-.01ZM66.873-3.7a1.776,1.776,0,0,0-1.523.809c-.019-.609-.333-.743-.59-.743a.468.468,0,0,0-.343.1V.58c0,.343.171.447.419.447h.1c.238,0,.419-.1.419-.447V-2.076a1.384,1.384,0,0,1,1.285-.8c.666,0,1.057.476,1.057,1.247V.58c0,.343.171.447.419.447h.1c.238,0,.419-.1.419-.447V-1.743C68.643-2.876,68.082-3.7,66.873-3.7Zm4.5,4.817a1.288,1.288,0,0,0,.866-.276.565.565,0,0,0,.2-.419c0-.3-.238-.428-.267-.4a.775.775,0,0,1-.647.324c-.447,0-.609-.276-.609-.847V-2.819h1.038c.3,0,.409-.124.409-.362v-.067c0-.228-.1-.343-.4-.343H70.928v-.7c0-.352-.162-.447-.409-.447h-.1c-.257,0-.419.124-.419.447v.7h-.333c-.3,0-.409.124-.409.352v.067c0,.228.114.352.409.352H70V-.4C70,.589,70.433,1.113,71.375,1.113Zm1.447-2.389A2.276,2.276,0,0,0,75.24,1.113,2.709,2.709,0,0,0,76.687.742a.917.917,0,0,0,.5-.666c0-.4-.476-.485-.5-.466A1.506,1.506,0,0,1,75.259.37,1.487,1.487,0,0,1,73.717-.877a1.049,1.049,0,0,1-.019-.171h3.379c.219,0,.286-.076.286-.276V-1.4a2.133,2.133,0,0,0-2.2-2.3A2.32,2.32,0,0,0,72.822-1.276Zm3.627-.409H73.708a1.46,1.46,0,0,1,1.447-1.3A1.258,1.258,0,0,1,76.449-1.686ZM78.172.7a2.735,2.735,0,0,0,1.571.4c1.18,0,1.9-.562,1.9-1.437,0-.99-.98-1.2-1.685-1.352-.743-.162-1.142-.257-1.142-.676,0-.381.343-.628.99-.628a1.656,1.656,0,0,1,1.342.647.5.5,0,0,0,.381-.438.559.559,0,0,0-.114-.324,1.954,1.954,0,0,0-1.647-.6c-1.114,0-1.828.581-1.828,1.437,0,.971.933,1.18,1.609,1.323.752.162,1.18.248,1.18.714,0,.381-.362.619-1.009.619A1.885,1.885,0,0,1,78.182-.3a.481.481,0,0,0-.371.428A.751.751,0,0,0,78.172.7ZM2.4,10.632a1.831,1.831,0,0,0,1.609-.885V10.1c0,.343.171.447.419.447h.1c.248,0,.419-.1.419-.447V4.778c0-.657-.3-.809-.6-.809a.489.489,0,0,0-.343.1V6.567a1.848,1.848,0,0,0-1.571-.752A2.19,2.19,0,0,0,.256,8.224,2.19,2.19,0,0,0,2.4,10.632ZM4.007,8.509A1.378,1.378,0,0,1,2.579,9.852,1.473,1.473,0,0,1,1.17,8.224,1.45,1.45,0,0,1,2.6,6.6a1.429,1.429,0,0,1,1.409.942ZM5.73,8.243a2.276,2.276,0,0,0,2.418,2.389,2.709,2.709,0,0,0,1.447-.371.917.917,0,0,0,.5-.666c0-.4-.476-.485-.5-.466a1.506,1.506,0,0,1-1.437.762A1.487,1.487,0,0,1,6.624,8.643a1.049,1.049,0,0,1-.019-.171H9.985c.219,0,.286-.076.286-.276V8.119a2.133,2.133,0,0,0-2.2-2.3A2.32,2.32,0,0,0,5.73,8.243Zm3.627-.409H6.615a1.46,1.46,0,0,1,1.447-1.3A1.258,1.258,0,0,1,9.357,7.834Zm2.951,1.476c0,.781.581,1.3,1.561,1.3a1.98,1.98,0,0,0,1.647-.79,1.416,1.416,0,0,0,.038.314.511.511,0,0,0,.543.419c.171,0,.343-.057.343-.1V7.643c0-1.161-.7-1.828-2-1.828a2.431,2.431,0,0,0-1.647.524.831.831,0,0,0-.314.571c0,.457.581.466.581.457a1.383,1.383,0,0,1,1.314-.781,1,1,0,0,1,1.133,1.076v.1h-.124C13.317,7.8,12.308,8.252,12.308,9.309Zm3.2-.609A1.282,1.282,0,0,1,14.1,9.937c-.543,0-.866-.257-.866-.666,0-.619.685-.866,2.018-.914l.257-.01ZM20,5.815a1.825,1.825,0,0,0-1.609.857,1.623,1.623,0,0,0-.029-.267.546.546,0,0,0-.562-.524.468.468,0,0,0-.343.1v5.94c0,.343.171.447.419.447h.1c.238,0,.419-.1.419-.447V9.776a1.768,1.768,0,0,0,1.571.857,2.2,2.2,0,0,0,2.17-2.418A2.177,2.177,0,0,0,20,5.815Zm-.2,4.036A1.368,1.368,0,0,1,18.39,8.509V7.548a1.47,1.47,0,0,1,2.837.676A1.455,1.455,0,0,1,19.8,9.852Zm3.6.695h.1c.248,0,.419-.1.419-.447V4.778c0-.657-.3-.809-.6-.809a.489.489,0,0,0-.343.1V10.1C22.969,10.442,23.15,10.547,23.4,10.547Zm1.59-6.083a.51.51,0,0,0,.562.543.5.5,0,0,0,.562-.543.506.506,0,0,0-.552-.552A.516.516,0,0,0,24.987,4.464Zm.076,5.635c0,.343.181.447.428.447h.1c.248,0,.419-.1.419-.447V6.339c0-.352-.171-.457-.419-.457h-.1c-.248,0-.428.114-.428.457Zm1.78-1.885a2.315,2.315,0,0,0,2.38,2.418,2.26,2.26,0,0,0,1.485-.476,1.125,1.125,0,0,0,.476-.781c0-.409-.533-.476-.562-.428a1.366,1.366,0,0,1-1.38.895,1.521,1.521,0,0,1-1.5-1.628,1.516,1.516,0,0,1,1.5-1.609,1.358,1.358,0,0,1,1.38.895c.029.048.562-.029.562-.419a1.139,1.139,0,0,0-.466-.79,2.289,2.289,0,0,0-1.495-.476A2.316,2.316,0,0,0,26.844,8.214ZM31.67,9.309c0,.781.581,1.3,1.561,1.3a1.98,1.98,0,0,0,1.647-.79,1.416,1.416,0,0,0,.038.314.511.511,0,0,0,.543.419c.171,0,.343-.057.343-.1V7.643c0-1.161-.7-1.828-2-1.828a2.431,2.431,0,0,0-1.647.524.831.831,0,0,0-.314.571c0,.457.581.466.581.457a1.383,1.383,0,0,1,1.314-.781,1,1,0,0,1,1.133,1.076v.1h-.124C32.679,7.8,31.67,8.252,31.67,9.309Zm3.2-.609A1.282,1.282,0,0,1,33.46,9.937c-.543,0-.866-.257-.866-.666,0-.619.685-.866,2.018-.914l.257-.01Zm4.046-2.884a1.159,1.159,0,0,0-1.161.866,1.708,1.708,0,0,0-.038-.343.539.539,0,0,0-.552-.457.468.468,0,0,0-.343.1V10.1c0,.343.171.447.419.447h.1c.238,0,.419-.1.419-.447V8.49c0-1.057.3-1.78,1.038-1.78a.887.887,0,0,1,.581.2.469.469,0,0,0,.286-.485C39.666,6.044,39.39,5.815,38.914,5.815Zm3.151,4.731h.1c.248,0,.419-.1.419-.447V4.778c0-.657-.3-.809-.6-.809a.489.489,0,0,0-.343.1V10.1C41.637,10.442,41.818,10.547,42.065,10.547Zm1.361-1.238c0,.781.581,1.3,1.561,1.3a1.98,1.98,0,0,0,1.647-.79,1.416,1.416,0,0,0,.038.314.511.511,0,0,0,.543.419c.171,0,.343-.057.343-.1V7.643c0-1.161-.7-1.828-2-1.828a2.431,2.431,0,0,0-1.647.524.831.831,0,0,0-.314.571c0,.457.581.466.581.457a1.383,1.383,0,0,1,1.314-.781,1,1,0,0,1,1.133,1.076v.1H46.5C44.436,7.8,43.426,8.252,43.426,9.309Zm3.2-.609a1.282,1.282,0,0,1-1.409,1.238c-.543,0-.866-.257-.866-.666,0-.619.685-.866,2.018-.914l.257-.01Zm3.2-.485a2.315,2.315,0,0,0,2.38,2.418,2.26,2.26,0,0,0,1.485-.476,1.125,1.125,0,0,0,.476-.781c0-.409-.533-.476-.562-.428a1.366,1.366,0,0,1-1.38.895,1.521,1.521,0,0,1-1.5-1.628,1.516,1.516,0,0,1,1.5-1.609A1.358,1.358,0,0,1,53.6,7.5c.029.048.562-.029.562-.419a1.139,1.139,0,0,0-.466-.79A2.289,2.289,0,0,0,52.2,5.815,2.316,2.316,0,0,0,49.823,8.214Zm4.817,0a2.4,2.4,0,1,0,4.8.019,2.4,2.4,0,1,0-4.8-.019Zm3.922.019a1.536,1.536,0,0,1-1.523,1.628,1.554,1.554,0,0,1-1.533-1.647,1.532,1.532,0,1,1,3.056.019Zm2.6,1.59a1.771,1.771,0,0,0,1.58.809,2.2,2.2,0,0,0,2.17-2.418,2.177,2.177,0,0,0-2.142-2.4,1.863,1.863,0,0,0-1.6.828V4.778c0-.657-.314-.809-.6-.809a.468.468,0,0,0-.343.1V10.1c0,.343.171.447.419.447h.1c.238,0,.409-.1.409-.447ZM64,8.224A1.455,1.455,0,0,1,62.57,9.852a1.37,1.37,0,0,1-1.409-1.285V7.548A1.47,1.47,0,0,1,64,8.224Zm1.428.019a2.276,2.276,0,0,0,2.418,2.389,2.709,2.709,0,0,0,1.447-.371.917.917,0,0,0,.5-.666c0-.4-.476-.485-.5-.466a1.506,1.506,0,0,1-1.437.762,1.487,1.487,0,0,1-1.542-1.247,1.049,1.049,0,0,1-.019-.171h3.379c.219,0,.286-.076.286-.276V8.119a2.133,2.133,0,0,0-2.2-2.3A2.32,2.32,0,0,0,65.426,8.243Zm3.627-.409H66.311a1.46,1.46,0,0,1,1.447-1.3A1.258,1.258,0,0,1,69.053,7.834Zm3.789-2.018a1.159,1.159,0,0,0-1.161.866,1.708,1.708,0,0,0-.038-.343.539.539,0,0,0-.552-.457.468.468,0,0,0-.343.1V10.1c0,.343.171.447.419.447h.1c.238,0,.419-.1.419-.447V8.49c0-1.057.3-1.78,1.038-1.78a.887.887,0,0,1,.581.2.469.469,0,0,0,.286-.485C73.593,6.044,73.317,5.815,72.841,5.815Zm3.065,4.817a1.288,1.288,0,0,0,.866-.276.565.565,0,0,0,.2-.419c0-.3-.238-.428-.267-.4a.775.775,0,0,1-.647.324c-.447,0-.609-.276-.609-.847V6.7h1.038c.3,0,.409-.124.409-.362V6.272c0-.228-.1-.343-.4-.343H75.459v-.7c0-.352-.162-.447-.409-.447h-.1c-.257,0-.419.124-.419.447v.7H74.2c-.3,0-.409.124-.409.352v.067c0,.228.114.352.409.352h.333V9.119C74.536,10.109,74.964,10.632,75.907,10.632Zm5.34-4.75h-.1c-.238,0-.409.114-.409.457V8.995a1.375,1.375,0,0,1-1.257.809c-.695,0-1.095-.466-1.095-1.257V6.339c0-.352-.171-.457-.419-.457h-.1c-.238,0-.409.114-.409.457V8.662c0,1.142.552,1.961,1.761,1.961a1.779,1.779,0,0,0,1.523-.8,1.308,1.308,0,0,0,.038.3.533.533,0,0,0,.562.428.457.457,0,0,0,.333-.1v-4.1C81.666,5.987,81.495,5.882,81.247,5.882Zm3.579-.067a1.159,1.159,0,0,0-1.161.866,1.707,1.707,0,0,0-.038-.343.539.539,0,0,0-.552-.457.468.468,0,0,0-.343.1V10.1c0,.343.171.447.419.447h.1c.238,0,.419-.1.419-.447V8.49c0-1.057.3-1.78,1.038-1.78a.887.887,0,0,1,.581.2.469.469,0,0,0,.286-.485C85.578,6.044,85.3,5.815,84.826,5.815Zm.99,3.494c0,.781.581,1.3,1.561,1.3a1.98,1.98,0,0,0,1.647-.79,1.416,1.416,0,0,0,.038.314.511.511,0,0,0,.543.419c.171,0,.343-.057.343-.1V7.643c0-1.161-.7-1.828-2-1.828a2.431,2.431,0,0,0-1.647.524.831.831,0,0,0-.314.571c0,.457.581.466.581.457a1.383,1.383,0,0,1,1.314-.781,1,1,0,0,1,1.133,1.076v.1h-.124C86.825,7.8,85.816,8.252,85.816,9.309Zm3.2-.609a1.282,1.282,0,0,1-1.409,1.238c-.543,0-.866-.257-.866-.666,0-.619.685-.866,2.018-.914l.257-.01ZM.266,18.828c0,.781.581,1.3,1.561,1.3a1.98,1.98,0,0,0,1.647-.79,1.416,1.416,0,0,0,.038.314.511.511,0,0,0,.543.419c.171,0,.343-.057.343-.1V17.163c0-1.161-.7-1.828-2-1.828a2.431,2.431,0,0,0-1.647.524.831.831,0,0,0-.314.571c0,.457.581.466.581.457a1.383,1.383,0,0,1,1.314-.781,1,1,0,0,1,1.133,1.076v.1H3.34C1.275,17.315.266,17.772.266,18.828Zm3.2-.609a1.282,1.282,0,0,1-1.409,1.238c-.543,0-.866-.257-.866-.666,0-.619.685-.866,2.018-.914l.257-.01Zm3.817,1.932a1.831,1.831,0,0,0,1.609-.885v.352c0,.343.171.447.419.447h.1c.248,0,.419-.1.419-.447V14.3c0-.657-.3-.809-.6-.809a.489.489,0,0,0-.343.1v2.494a1.848,1.848,0,0,0-1.571-.752,2.19,2.19,0,0,0-2.17,2.408A2.19,2.19,0,0,0,7.281,20.152ZM8.89,18.029a1.378,1.378,0,0,1-1.428,1.342,1.473,1.473,0,0,1-1.409-1.628,1.45,1.45,0,0,1,1.428-1.628,1.429,1.429,0,0,1,1.409.942Zm1.961-4.046a.51.51,0,0,0,.562.543.547.547,0,1,0,.01-1.095A.516.516,0,0,0,10.851,13.983Zm.076,5.635c0,.343.181.447.428.447h.1c.248,0,.419-.1.419-.447v-3.76c0-.352-.171-.457-.419-.457h-.1c-.248,0-.428.114-.428.457Zm1.78-1.885a2.315,2.315,0,0,0,2.38,2.418,2.26,2.26,0,0,0,1.485-.476,1.125,1.125,0,0,0,.476-.781c0-.409-.533-.476-.562-.428a1.366,1.366,0,0,1-1.38.895,1.521,1.521,0,0,1-1.5-1.628,1.516,1.516,0,0,1,1.5-1.609,1.358,1.358,0,0,1,1.38.895c.029.048.562-.029.562-.419a1.139,1.139,0,0,0-.466-.79,2.289,2.289,0,0,0-1.495-.476A2.316,2.316,0,0,0,12.707,17.734Zm5.055-3.751a.51.51,0,0,0,.562.543.547.547,0,1,0,.01-1.095A.516.516,0,0,0,17.762,13.983Zm.076,5.635c0,.343.181.447.428.447h.1c.248,0,.419-.1.419-.447v-3.76c0-.352-.171-.457-.419-.457h-.1c-.248,0-.428.114-.428.457Zm1.78-1.885a2.4,2.4,0,1,0,4.8.019,2.4,2.4,0,1,0-4.8-.019Zm3.922.019a1.536,1.536,0,0,1-1.523,1.628,1.554,1.554,0,0,1-1.533-1.647,1.532,1.532,0,1,1,3.056.019Zm4.122-2.418a1.776,1.776,0,0,0-1.523.809c-.019-.609-.333-.743-.59-.743a.468.468,0,0,0-.343.1v4.112c0,.343.171.447.419.447h.1c.238,0,.419-.1.419-.447V16.963a1.384,1.384,0,0,1,1.285-.8c.666,0,1.057.476,1.057,1.247v2.208c0,.343.171.447.419.447h.1c.238,0,.419-.1.419-.447V17.3C29.433,16.163,28.871,15.335,27.662,15.335Zm2.523,3.494c0,.781.581,1.3,1.561,1.3a1.98,1.98,0,0,0,1.647-.79,1.416,1.416,0,0,0,.038.314.511.511,0,0,0,.543.419c.171,0,.343-.057.343-.1V17.163c0-1.161-.7-1.828-2-1.828a2.431,2.431,0,0,0-1.647.524.831.831,0,0,0-.314.571c0,.457.581.466.581.457a1.383,1.383,0,0,1,1.314-.781,1,1,0,0,1,1.133,1.076v.1H33.26C31.194,17.315,30.185,17.772,30.185,18.828Zm3.2-.609a1.282,1.282,0,0,1-1.409,1.238c-.543,0-.866-.257-.866-.666,0-.619.685-.866,2.018-.914l.257-.01ZM35.8,20.066h.1c.248,0,.419-.1.419-.447V14.3c0-.657-.3-.809-.6-.809a.489.489,0,0,0-.343.1v6.026C35.373,19.961,35.554,20.066,35.8,20.066Z" transform="translate(5530.403 5595.325)" fill="#0855c4"/>
    <path id="Trazado_17985" data-name="Trazado 17985" d="M1.03,1.008a5.419,5.419,0,0,0,3.482.983c2.832,0,4.415-1.249,4.415-3.4,0-2.032-1.7-2.832-3.648-3.265-1.333-.3-2.3-.433-2.3-1.366,0-.783.7-1.266,1.866-1.266A3.859,3.859,0,0,1,7.711-5.989a1.6,1.6,0,0,0,.966-1.283,1.479,1.479,0,0,0-.75-1.183,5.29,5.29,0,0,0-3.1-.8c-2.6,0-4.2,1.316-4.2,3.315C.631-3.723,2.4-3.09,4.112-2.707c1.266.283,2.349.483,2.349,1.449,0,.833-.683,1.3-1.966,1.3A4.392,4.392,0,0,1,1.3-1.408C1.214-1.491.364-.875.364-.192A1.544,1.544,0,0,0,1.03,1.008Zm9.529,4.231a1.086,1.086,0,0,0,.5-.083L15.041-7.555a2.913,2.913,0,0,0,.133-.7c0-.816-.716-.933-1.2-.933a.973.973,0,0,0-.5.083l-4,12.711a2.777,2.777,0,0,0-.133.7C9.343,5.089,10.06,5.239,10.559,5.239ZM24.936,1.874h.233c.7,0,1.033-.4,1.033-1.133V-.891h.816c.75,0,1.05-.25,1.05-.883v-.083c0-.616-.3-.883-1.05-.883H26.2v-4.8c0-1.183-.516-1.6-1.783-1.6-1.216,0-1.533.167-2.016.933l-3.3,4.581a2.242,2.242,0,0,0-.516,1.283v.4c0,.616.516,1.05,1.366,1.05h3.981V.741C23.936,1.441,24.286,1.874,24.936,1.874ZM20.7-2.69l3.332-4.665V-2.69Zm9.679,4.448h5.647c.833,0,1.166-.35,1.166-.983V.658c0-.583-.333-.916-1.166-.916H31.116a1.528,1.528,0,0,1,.15-.383c.4-.9,1.483-1.366,2.732-1.882,1.566-.683,3.049-1.4,3.049-3.4,0-2.066-1.466-3.332-4.048-3.332a4.992,4.992,0,0,0-3.015.883,2.4,2.4,0,0,0-1.05,1.866c0,1.233,1.6,1.166,1.6,1.133a2.28,2.28,0,0,1,2.316-1.882c1.166,0,1.816.516,1.816,1.433,0,.933-1.116,1.366-2.466,2-1.533.75-3.3,1.749-3.3,3.815V.508C28.9,1.508,29.267,1.758,30.383,1.758Zm12.511.233c2.932,0,4.7-1.982,4.7-5.114v-1.05c0-3.115-1.766-5.081-4.7-5.081s-4.714,1.982-4.714,5.1V-3.09C38.18.025,39.946,1.991,42.894,1.991Zm0-2.016c-1.449,0-2.232-1.033-2.232-2.915V-4.356c0-1.9.766-2.915,2.232-2.915,1.433,0,2.249,1.05,2.249,2.949V-2.94C45.143-1.041,44.36-.025,42.894-.025Z" transform="translate(5530.424 5580.277)" fill="#0855c4"/>
    <path id="Trazado_17986" data-name="Trazado 17986" d="M4.76,0h99.954a4.76,4.76,0,0,1,4.76,4.76V61.876a4.76,4.76,0,0,1-4.76,4.76H4.76A4.76,4.76,0,0,1,0,61.876V4.76A4.76,4.76,0,0,1,4.76,0Z" transform="translate(5652.322 5557)" fill="#e2f7ff"/>
    <path id="Trazado_17987" data-name="Trazado 17987" d="M.637.634c0,.3.114.447.381.447H1.17c.286,0,.4-.152.4-.447V-3.859L2.913-.822A.566.566,0,0,0,3.541-.4a.566.566,0,0,0,.628-.419L5.53-3.887V.634c0,.3.114.447.39.447h.133c.286,0,.409-.152.409-.447V-4.611a.526.526,0,0,0-.581-.543H5.645c-.362,0-.476.133-.628.5L3.55-1.374,2.094-4.658c-.152-.352-.257-.5-.638-.5H1.2a.515.515,0,0,0-.562.543ZM7.33-1.25a2.3,2.3,0,0,0,2.4,2.418,2.3,2.3,0,0,0,2.4-2.4A2.312,2.312,0,0,0,9.738-3.649,2.307,2.307,0,0,0,7.33-1.25Zm3.922.019A1.536,1.536,0,0,1,9.728.4,1.554,1.554,0,0,1,8.2-1.25,1.538,1.538,0,0,1,9.728-2.878,1.536,1.536,0,0,1,11.252-1.231Zm4.122-2.418a1.776,1.776,0,0,0-1.523.809c-.019-.609-.333-.743-.59-.743a.468.468,0,0,0-.343.1V.634c0,.343.171.447.419.447h.1c.238,0,.419-.1.419-.447V-2.021a1.384,1.384,0,0,1,1.285-.8c.666,0,1.057.476,1.057,1.247V.634c0,.343.171.447.419.447h.1c.238,0,.419-.1.419-.447V-1.688C17.144-2.821,16.582-3.649,15.373-3.649Zm4.5,4.817a1.288,1.288,0,0,0,.866-.276.565.565,0,0,0,.2-.419c0-.3-.238-.428-.267-.4A.775.775,0,0,1,20.028.4c-.447,0-.609-.276-.609-.847V-2.764h1.038c.3,0,.409-.124.409-.362v-.067c0-.228-.1-.343-.4-.343H19.429v-.7c0-.352-.162-.447-.409-.447h-.1c-.257,0-.419.124-.419.447v.7h-.333c-.3,0-.409.124-.409.352v.067c0,.228.114.352.409.352h.333V-.346C18.505.644,18.934,1.168,19.876,1.168ZM21.323-1.25a2.3,2.3,0,0,0,2.4,2.418,2.3,2.3,0,0,0,2.4-2.4,2.312,2.312,0,0,0-2.389-2.418A2.307,2.307,0,0,0,21.323-1.25Zm3.922.019A1.536,1.536,0,0,1,23.722.4,1.554,1.554,0,0,1,22.189-1.25a1.538,1.538,0,0,1,1.533-1.628A1.536,1.536,0,0,1,25.245-1.231ZM28.167-.156c0,.781.581,1.3,1.561,1.3a1.98,1.98,0,0,0,1.647-.79,1.416,1.416,0,0,0,.038.314.511.511,0,0,0,.543.419c.171,0,.343-.057.343-.1V-1.822c0-1.161-.7-1.828-2-1.828a2.431,2.431,0,0,0-1.647.524.831.831,0,0,0-.314.571c0,.457.581.466.581.457a1.383,1.383,0,0,1,1.314-.781A1,1,0,0,1,31.366-1.8v.1h-.124C29.177-1.669,28.167-1.212,28.167-.156Zm3.2-.609A1.282,1.282,0,0,1,29.957.473c-.543,0-.866-.257-.866-.666,0-.619.685-.866,2.018-.914l.257-.01Zm6.016-2.884a1.825,1.825,0,0,0-1.609.857,1.623,1.623,0,0,0-.029-.267.546.546,0,0,0-.562-.524.468.468,0,0,0-.343.1v5.94c0,.343.171.447.419.447h.1c.238,0,.419-.1.419-.447V.311a1.768,1.768,0,0,0,1.571.857,2.2,2.2,0,0,0,2.17-2.418A2.177,2.177,0,0,0,37.382-3.649Zm-.2,4.036A1.368,1.368,0,0,1,35.773-.955v-.961A1.461,1.461,0,0,1,37.2-2.869,1.473,1.473,0,0,1,38.61-1.241,1.455,1.455,0,0,1,37.182.387Zm2.865-.543c0,.781.581,1.3,1.561,1.3a1.98,1.98,0,0,0,1.647-.79,1.416,1.416,0,0,0,.038.314.511.511,0,0,0,.543.419c.171,0,.343-.057.343-.1V-1.822c0-1.161-.7-1.828-2-1.828a2.431,2.431,0,0,0-1.647.524.831.831,0,0,0-.314.571c0,.457.581.466.581.457a1.383,1.383,0,0,1,1.314-.781A1,1,0,0,1,43.246-1.8v.1h-.124C41.057-1.669,40.048-1.212,40.048-.156Zm3.2-.609A1.282,1.282,0,0,1,41.837.473c-.543,0-.866-.257-.866-.666,0-.619.685-.866,2.018-.914l.257-.01Zm3.7,3.817c1.514,0,2.4-.533,2.4-1.4,0-.752-.685-1.076-1.333-1.247-.8-.2-1.238-.228-1.238-.524a.266.266,0,0,1,.048-.162H47a1.776,1.776,0,0,0,1.98-1.666,1.555,1.555,0,0,0-.4-1.019l.781-.809a.515.515,0,0,0-.485-.4.6.6,0,0,0-.543.362l-.248.438a2.3,2.3,0,0,0-1.095-.276,1.824,1.824,0,0,0-1.961,1.733,1.593,1.593,0,0,0,1.2,1.523.672.672,0,0,0-.257.5A.531.531,0,0,0,46.15.53c-.828.143-1.456.59-1.456,1.257C44.693,2.643,45.407,3.052,46.949,3.052ZM47-.9a1.01,1.01,0,0,1-1.076-1.038,1,1,0,0,1,1.057-1.038,1.013,1.013,0,0,1,1.085,1.038A1,1,0,0,1,47-.9ZM46.968,2.4c-.9,0-1.371-.228-1.371-.638,0-.485.647-.762,1.428-.809l.476.114c.5.124.933.257.933.619C48.434,2.139,47.892,2.4,46.968,2.4ZM49.634-.156c0,.781.581,1.3,1.561,1.3a1.98,1.98,0,0,0,1.647-.79,1.416,1.416,0,0,0,.038.314.511.511,0,0,0,.543.419c.171,0,.343-.057.343-.1V-1.822c0-1.161-.7-1.828-2-1.828a2.431,2.431,0,0,0-1.647.524.831.831,0,0,0-.314.571c0,.457.581.466.581.457A1.383,1.383,0,0,1,51.7-2.878,1,1,0,0,1,52.832-1.8v.1h-.124C50.643-1.669,49.634-1.212,49.634-.156Zm3.2-.609A1.282,1.282,0,0,1,51.423.473c-.543,0-.866-.257-.866-.666,0-.619.685-.866,2.018-.914l.257-.01Zm4.046-2.884a1.159,1.159,0,0,0-1.161.866,1.708,1.708,0,0,0-.038-.343.539.539,0,0,0-.552-.457.468.468,0,0,0-.343.1V.634c0,.343.171.447.419.447h.1c.238,0,.419-.1.419-.447V-.974c0-1.057.3-1.78,1.038-1.78a.887.887,0,0,1,.581.2.469.469,0,0,0,.286-.485C57.63-3.421,57.354-3.649,56.878-3.649Zm3.151,4.731h.1c.248,0,.419-.1.419-.447V-4.687c0-.657-.3-.809-.6-.809a.489.489,0,0,0-.343.1V.634C59.6.977,59.781,1.082,60.029,1.082Zm5.388-4.665h-.1c-.238,0-.409.114-.409.457V-.47a1.375,1.375,0,0,1-1.257.809c-.695,0-1.095-.466-1.095-1.257V-3.126c0-.352-.171-.457-.419-.457h-.1c-.238,0-.409.114-.409.457V-.8c0,1.142.552,1.961,1.761,1.961A1.779,1.779,0,0,0,64.9.358a1.308,1.308,0,0,0,.038.3.533.533,0,0,0,.562.428.457.457,0,0,0,.333-.1v-4.1C65.836-3.478,65.664-3.583,65.417-3.583Zm1.114,2.361a2.276,2.276,0,0,0,2.418,2.389A2.709,2.709,0,0,0,70.4.8.917.917,0,0,0,70.9.13c0-.4-.476-.485-.5-.466a1.506,1.506,0,0,1-1.437.762A1.487,1.487,0,0,1,67.425-.822a1.049,1.049,0,0,1-.019-.171h3.379c.219,0,.286-.076.286-.276v-.076a2.133,2.133,0,0,0-2.2-2.3A2.32,2.32,0,0,0,66.531-1.222Zm3.627-.409H67.416a1.46,1.46,0,0,1,1.447-1.3A1.258,1.258,0,0,1,70.158-1.631Zm3.351,4.684c1.514,0,2.4-.533,2.4-1.4,0-.752-.685-1.076-1.333-1.247-.8-.2-1.238-.228-1.238-.524a.266.266,0,0,1,.048-.162h.171a1.776,1.776,0,0,0,1.98-1.666,1.555,1.555,0,0,0-.4-1.019l.781-.809a.515.515,0,0,0-.485-.4.6.6,0,0,0-.543.362l-.248.438a2.3,2.3,0,0,0-1.095-.276,1.824,1.824,0,0,0-1.961,1.733,1.593,1.593,0,0,0,1.2,1.523.672.672,0,0,0-.257.5.531.531,0,0,0,.181.428c-.828.143-1.456.59-1.456,1.257C71.252,2.643,71.966,3.052,73.508,3.052ZM73.556-.9A1.01,1.01,0,0,1,72.48-1.936a1,1,0,0,1,1.057-1.038,1.013,1.013,0,0,1,1.085,1.038A1,1,0,0,1,73.556-.9ZM73.527,2.4c-.9,0-1.371-.228-1.371-.638,0-.485.647-.762,1.428-.809l.476.114c.5.124.933.257.933.619C74.993,2.139,74.451,2.4,73.527,2.4ZM76.136-1.25a2.3,2.3,0,0,0,2.4,2.418,2.3,2.3,0,0,0,2.4-2.4,2.312,2.312,0,0,0-2.389-2.418A2.307,2.307,0,0,0,76.136-1.25Zm3.922.019A1.536,1.536,0,0,1,78.535.4,1.554,1.554,0,0,1,77-1.25a1.538,1.538,0,0,1,1.533-1.628A1.536,1.536,0,0,1,80.058-1.231Zm5.055,2.4A1.831,1.831,0,0,0,86.721.282V.634c0,.343.171.447.419.447h.1c.248,0,.419-.1.419-.447V-4.687c0-.657-.3-.809-.6-.809a.489.489,0,0,0-.343.1V-2.9a1.848,1.848,0,0,0-1.571-.752,2.19,2.19,0,0,0-2.17,2.408A2.19,2.19,0,0,0,85.113,1.168ZM86.721-.955A1.378,1.378,0,0,1,85.293.387a1.473,1.473,0,0,1-1.409-1.628,1.45,1.45,0,0,1,1.428-1.628,1.429,1.429,0,0,1,1.409.942Zm1.723-.267a2.276,2.276,0,0,0,2.418,2.389A2.709,2.709,0,0,0,92.309.8a.917.917,0,0,0,.5-.666c0-.4-.476-.485-.5-.466a1.506,1.506,0,0,1-1.437.762A1.487,1.487,0,0,1,89.339-.822a1.049,1.049,0,0,1-.019-.171H92.7c.219,0,.286-.076.286-.276v-.076a2.133,2.133,0,0,0-2.2-2.3A2.32,2.32,0,0,0,88.444-1.222Zm3.627-.409H89.33a1.46,1.46,0,0,1,1.447-1.3A1.258,1.258,0,0,1,92.071-1.631ZM.637,10.611a.566.566,0,0,0,.543-.447l.543-1.409H4.188l.543,1.4a.6.6,0,0,0,.581.457c.3,0,.571-.219.543-.3L3.646,4.661c-.076-.2-.219-.314-.676-.314s-.6.114-.676.314L.1,10.316C.076,10.4.352,10.611.637,10.611ZM1.961,7.964l.99-2.608.99,2.608ZM9,5.87A1.825,1.825,0,0,0,7.4,6.727a1.623,1.623,0,0,0-.029-.267.546.546,0,0,0-.562-.524.468.468,0,0,0-.343.1v5.94c0,.343.171.447.419.447h.1c.238,0,.419-.1.419-.447V9.83a1.768,1.768,0,0,0,1.571.857,2.2,2.2,0,0,0,2.17-2.418A2.177,2.177,0,0,0,9,5.87Zm-.2,4.036A1.368,1.368,0,0,1,7.4,8.564V7.6a1.47,1.47,0,0,1,2.837.676A1.455,1.455,0,0,1,8.805,9.906Zm3.6.695h.1c.248,0,.419-.1.419-.447V4.833c0-.657-.3-.809-.6-.809a.489.489,0,0,0-.343.1v6.026C11.975,10.5,12.156,10.6,12.4,10.6Zm1.59-6.083a.51.51,0,0,0,.562.543.5.5,0,0,0,.562-.543.506.506,0,0,0-.552-.552A.516.516,0,0,0,13.993,4.518Zm.076,5.635c0,.343.181.447.428.447h.1c.248,0,.419-.1.419-.447V6.394c0-.352-.171-.457-.419-.457h-.1c-.248,0-.428.114-.428.457Zm1.78-1.885a2.315,2.315,0,0,0,2.38,2.418,2.26,2.26,0,0,0,1.485-.476,1.125,1.125,0,0,0,.476-.781c0-.409-.533-.476-.562-.428a1.366,1.366,0,0,1-1.38.895,1.521,1.521,0,0,1-1.5-1.628,1.516,1.516,0,0,1,1.5-1.609,1.358,1.358,0,0,1,1.38.895c.029.048.562-.029.562-.419a1.139,1.139,0,0,0-.466-.79,2.289,2.289,0,0,0-1.495-.476A2.316,2.316,0,0,0,15.849,8.269Zm4.826,1.095c0,.781.581,1.3,1.561,1.3a1.98,1.98,0,0,0,1.647-.79,1.416,1.416,0,0,0,.038.314.511.511,0,0,0,.543.419c.171,0,.343-.057.343-.1V7.7c0-1.161-.7-1.828-2-1.828a2.431,2.431,0,0,0-1.647.524.831.831,0,0,0-.314.571c0,.457.581.466.581.457a1.383,1.383,0,0,1,1.314-.781,1,1,0,0,1,1.133,1.076v.1H23.75C21.685,7.85,20.676,8.307,20.676,9.364Zm3.2-.609a1.282,1.282,0,0,1-1.409,1.238c-.543,0-.866-.257-.866-.666,0-.619.685-.866,2.018-.914l.257-.01ZM27.92,5.87a1.159,1.159,0,0,0-1.161.866,1.707,1.707,0,0,0-.038-.343.539.539,0,0,0-.552-.457.468.468,0,0,0-.343.1v4.112c0,.343.171.447.419.447h.1c.238,0,.419-.1.419-.447V8.545c0-1.057.3-1.78,1.038-1.78a.887.887,0,0,1,.581.2.469.469,0,0,0,.286-.485C28.672,6.1,28.4,5.87,27.92,5.87ZM31.071,10.6h.1c.248,0,.419-.1.419-.447V4.833c0-.657-.3-.809-.6-.809a.489.489,0,0,0-.343.1v6.026C30.643,10.5,30.823,10.6,31.071,10.6Zm1.361-1.238c0,.781.581,1.3,1.561,1.3a1.98,1.98,0,0,0,1.647-.79,1.416,1.416,0,0,0,.038.314.511.511,0,0,0,.543.419c.171,0,.343-.057.343-.1V7.7c0-1.161-.7-1.828-2-1.828a2.431,2.431,0,0,0-1.647.524.831.831,0,0,0-.314.571c0,.457.581.466.581.457A1.383,1.383,0,0,1,34.5,6.641a1,1,0,0,1,1.133,1.076v.1h-.124C33.441,7.85,32.432,8.307,32.432,9.364Zm3.2-.609a1.282,1.282,0,0,1-1.409,1.238c-.543,0-.866-.257-.866-.666,0-.619.685-.866,2.018-.914l.257-.01Zm3.2-.485a2.315,2.315,0,0,0,2.38,2.418,2.26,2.26,0,0,0,1.485-.476,1.125,1.125,0,0,0,.476-.781c0-.409-.533-.476-.562-.428a1.366,1.366,0,0,1-1.38.895,1.521,1.521,0,0,1-1.5-1.628,1.516,1.516,0,0,1,1.5-1.609,1.358,1.358,0,0,1,1.38.895c.029.048.562-.029.562-.419a1.139,1.139,0,0,0-.466-.79,2.289,2.289,0,0,0-1.495-.476A2.316,2.316,0,0,0,38.829,8.269Zm4.817,0a2.4,2.4,0,1,0,4.8.019,2.4,2.4,0,1,0-4.8-.019Zm3.922.019a1.536,1.536,0,0,1-1.523,1.628,1.554,1.554,0,0,1-1.533-1.647,1.532,1.532,0,1,1,3.056.019Zm2.6,1.59a1.771,1.771,0,0,0,1.58.809,2.2,2.2,0,0,0,2.17-2.418,2.177,2.177,0,0,0-2.142-2.4,1.863,1.863,0,0,0-1.6.828V4.833c0-.657-.314-.809-.6-.809a.468.468,0,0,0-.343.1v6.026c0,.343.171.447.419.447h.1c.238,0,.409-.1.409-.447ZM53,8.279a1.455,1.455,0,0,1-1.428,1.628,1.37,1.37,0,0,1-1.409-1.285V7.6A1.47,1.47,0,0,1,53,8.279Zm1.428.019a2.276,2.276,0,0,0,2.418,2.389,2.709,2.709,0,0,0,1.447-.371.917.917,0,0,0,.5-.666c0-.4-.476-.485-.5-.466a1.506,1.506,0,0,1-1.437.762A1.487,1.487,0,0,1,55.326,8.7a1.049,1.049,0,0,1-.019-.171h3.379c.219,0,.286-.076.286-.276V8.174a2.133,2.133,0,0,0-2.2-2.3A2.32,2.32,0,0,0,54.432,8.3Zm3.627-.409H55.317a1.46,1.46,0,0,1,1.447-1.3A1.258,1.258,0,0,1,58.058,7.888ZM61.847,5.87a1.159,1.159,0,0,0-1.161.866,1.708,1.708,0,0,0-.038-.343.539.539,0,0,0-.552-.457.468.468,0,0,0-.343.1v4.112c0,.343.171.447.419.447h.1c.238,0,.419-.1.419-.447V8.545c0-1.057.3-1.78,1.038-1.78a.887.887,0,0,1,.581.2.469.469,0,0,0,.286-.485C62.6,6.1,62.323,5.87,61.847,5.87Zm3.065,4.817a1.288,1.288,0,0,0,.866-.276.565.565,0,0,0,.2-.419c0-.3-.238-.428-.267-.4a.775.775,0,0,1-.647.324c-.447,0-.609-.276-.609-.847V6.755h1.038c.3,0,.409-.124.409-.362V6.327c0-.228-.1-.343-.4-.343H64.465v-.7c0-.352-.162-.447-.409-.447h-.1c-.257,0-.419.124-.419.447v.7h-.333c-.3,0-.409.124-.409.352V6.4c0,.228.114.352.409.352h.333V9.173C63.542,10.163,63.97,10.687,64.912,10.687Zm5.34-4.75h-.1c-.238,0-.409.114-.409.457V9.05a1.375,1.375,0,0,1-1.257.809c-.695,0-1.095-.466-1.095-1.257V6.394c0-.352-.171-.457-.419-.457h-.1c-.238,0-.409.114-.409.457V8.716c0,1.142.552,1.961,1.761,1.961a1.779,1.779,0,0,0,1.523-.8,1.308,1.308,0,0,0,.038.3.533.533,0,0,0,.562.428.457.457,0,0,0,.333-.1v-4.1C70.672,6.042,70.5,5.937,70.253,5.937Zm3.579-.067a1.159,1.159,0,0,0-1.161.866,1.707,1.707,0,0,0-.038-.343.539.539,0,0,0-.552-.457.468.468,0,0,0-.343.1v4.112c0,.343.171.447.419.447h.1c.238,0,.419-.1.419-.447V8.545c0-1.057.3-1.78,1.038-1.78a.887.887,0,0,1,.581.2.469.469,0,0,0,.286-.485C74.584,6.1,74.308,5.87,73.832,5.87Zm.99,3.494c0,.781.581,1.3,1.561,1.3a1.98,1.98,0,0,0,1.647-.79,1.416,1.416,0,0,0,.038.314.511.511,0,0,0,.543.419c.171,0,.343-.057.343-.1V7.7c0-1.161-.7-1.828-2-1.828a2.431,2.431,0,0,0-1.647.524.831.831,0,0,0-.314.571c0,.457.581.466.581.457a1.383,1.383,0,0,1,1.314-.781,1,1,0,0,1,1.133,1.076v.1H77.9C75.831,7.85,74.822,8.307,74.822,9.364Zm3.2-.609a1.282,1.282,0,0,1-1.409,1.238c-.543,0-.866-.257-.866-.666,0-.619.685-.866,2.018-.914l.257-.01ZM.295,18.883c0,.781.581,1.3,1.561,1.3A1.98,1.98,0,0,0,3.5,19.4a1.416,1.416,0,0,0,.038.314.511.511,0,0,0,.543.419c.171,0,.343-.057.343-.1V17.217c0-1.161-.7-1.828-2-1.828a2.431,2.431,0,0,0-1.647.524.831.831,0,0,0-.314.571c0,.457.581.466.581.457a1.383,1.383,0,0,1,1.314-.781,1,1,0,0,1,1.133,1.076v.1H3.369C1.3,17.37.295,17.827.295,18.883Zm3.2-.609a1.282,1.282,0,0,1-1.409,1.238c-.543,0-.866-.257-.866-.666,0-.619.685-.866,2.018-.914l.257-.01Zm3.817,1.932a1.831,1.831,0,0,0,1.609-.885v.352c0,.343.171.447.419.447h.1c.248,0,.419-.1.419-.447V14.352c0-.657-.3-.809-.6-.809a.489.489,0,0,0-.343.1v2.494a1.848,1.848,0,0,0-1.571-.752A2.19,2.19,0,0,0,5.169,17.8,2.19,2.19,0,0,0,7.311,20.206Zm1.609-2.123a1.378,1.378,0,0,1-1.428,1.342A1.473,1.473,0,0,1,6.083,17.8,1.45,1.45,0,0,1,7.51,16.17a1.429,1.429,0,0,1,1.409.942Zm1.961-4.046a.51.51,0,0,0,.562.543.547.547,0,1,0,.01-1.095A.516.516,0,0,0,10.88,14.038Zm.076,5.635c0,.343.181.447.428.447h.1c.248,0,.419-.1.419-.447v-3.76c0-.352-.171-.457-.419-.457h-.1c-.248,0-.428.114-.428.457Zm1.78-1.885a2.315,2.315,0,0,0,2.38,2.418A2.26,2.26,0,0,0,16.6,19.73a1.125,1.125,0,0,0,.476-.781c0-.409-.533-.476-.562-.428a1.366,1.366,0,0,1-1.38.895,1.521,1.521,0,0,1-1.5-1.628,1.516,1.516,0,0,1,1.5-1.609,1.358,1.358,0,0,1,1.38.895c.029.048.562-.029.562-.419a1.139,1.139,0,0,0-.466-.79,2.289,2.289,0,0,0-1.495-.476A2.316,2.316,0,0,0,12.737,17.788Zm5.055-3.751a.51.51,0,0,0,.562.543.547.547,0,1,0,.01-1.095A.516.516,0,0,0,17.791,14.038Zm.076,5.635c0,.343.181.447.428.447h.1c.248,0,.419-.1.419-.447v-3.76c0-.352-.171-.457-.419-.457h-.1c-.248,0-.428.114-.428.457Zm1.78-1.885a2.4,2.4,0,1,0,4.8.019,2.4,2.4,0,1,0-4.8-.019Zm3.922.019a1.536,1.536,0,0,1-1.523,1.628,1.554,1.554,0,0,1-1.533-1.647,1.532,1.532,0,1,1,3.056.019Zm4.122-2.418a1.776,1.776,0,0,0-1.523.809c-.019-.609-.333-.743-.59-.743a.468.468,0,0,0-.343.1v4.112c0,.343.171.447.419.447h.1c.238,0,.419-.1.419-.447V17.017a1.384,1.384,0,0,1,1.285-.8c.666,0,1.057.476,1.057,1.247v2.208c0,.343.171.447.419.447h.1c.238,0,.419-.1.419-.447V17.351C29.462,16.218,28.9,15.39,27.692,15.39Zm2.523,3.494c0,.781.581,1.3,1.561,1.3a1.98,1.98,0,0,0,1.647-.79,1.416,1.416,0,0,0,.038.314A.511.511,0,0,0,34,20.13c.171,0,.343-.057.343-.1V17.217c0-1.161-.7-1.828-2-1.828a2.431,2.431,0,0,0-1.647.524.831.831,0,0,0-.314.571c0,.457.581.466.581.457a1.383,1.383,0,0,1,1.314-.781,1,1,0,0,1,1.133,1.076v.1h-.124C31.223,17.37,30.214,17.827,30.214,18.883Zm3.2-.609A1.282,1.282,0,0,1,32,19.511c-.543,0-.866-.257-.866-.666,0-.619.685-.866,2.018-.914l.257-.01Zm2.418,1.847h.1c.248,0,.419-.1.419-.447V14.352c0-.657-.3-.809-.6-.809a.489.489,0,0,0-.343.1v6.026C35.4,20.016,35.583,20.121,35.831,20.121Z" transform="translate(5657.696 5595.27)" fill="#0855c4"/>
    <path id="Trazado_17988" data-name="Trazado 17988" d="M1.03,1.008a5.419,5.419,0,0,0,3.482.983c2.832,0,4.415-1.249,4.415-3.4,0-2.032-1.7-2.832-3.648-3.265-1.333-.3-2.3-.433-2.3-1.366,0-.783.7-1.266,1.866-1.266A3.859,3.859,0,0,1,7.711-5.989a1.6,1.6,0,0,0,.966-1.283,1.479,1.479,0,0,0-.75-1.183,5.29,5.29,0,0,0-3.1-.8c-2.6,0-4.2,1.316-4.2,3.315C.631-3.723,2.4-3.09,4.112-2.707c1.266.283,2.349.483,2.349,1.449,0,.833-.683,1.3-1.966,1.3A4.392,4.392,0,0,1,1.3-1.408C1.214-1.491.364-.875.364-.192A1.544,1.544,0,0,0,1.03,1.008Zm9.529,4.231a1.086,1.086,0,0,0,.5-.083L15.041-7.555a2.913,2.913,0,0,0,.133-.7c0-.816-.716-.933-1.2-.933a.973.973,0,0,0-.5.083l-4,12.711a2.777,2.777,0,0,0-.133.7C9.343,5.089,10.06,5.239,10.559,5.239ZM22.554,1.991C25.386,1.991,27,.775,27-1.308A2.774,2.774,0,0,0,24.9-4.04a2.26,2.26,0,0,0,1.882-2.249c0-1.9-1.516-2.965-4.231-2.965a5.189,5.189,0,0,0-2.815.733,1.987,1.987,0,0,0-1.05,1.566A1.2,1.2,0,0,0,20.1-5.806a2.368,2.368,0,0,1,2.4-1.549c1.233,0,1.966.516,1.966,1.349,0,.783-.533,1.266-1.533,1.266h-.8c-.733,0-1.1.25-1.1.833v.133c0,.533.317.833,1.133.833h.566c1.266,0,1.916.5,1.916,1.483,0,.95-.816,1.533-2.116,1.533a2.562,2.562,0,0,1-2.665-1.716A1.215,1.215,0,0,0,18.422-.475a2.125,2.125,0,0,0,1.083,1.649A5.357,5.357,0,0,0,22.554,1.991Zm9.346,0c2.7,0,4.381-1.4,4.381-3.582,0-2.116-1.583-3.415-3.981-3.415a5.232,5.232,0,0,0-1.966.4V-7.022h4.348c.783,0,1.149-.3,1.149-.95v-.083c0-.65-.383-.966-1.149-.966H29.467c-.816,0-1.183.5-1.183,1.366V-4.09c0,.983.483,1.4,1.449,1.433a3.466,3.466,0,0,1,2.216-.666c1.383,0,2.149.633,2.149,1.716S33.249.158,31.866.158A3.587,3.587,0,0,1,28.9-1.291,1.358,1.358,0,0,0,27.885-.142a1.859,1.859,0,0,0,1.066,1.433A5.787,5.787,0,0,0,31.9,1.991Zm10.145,0c2.932,0,4.7-1.982,4.7-5.114v-1.05c0-3.115-1.766-5.081-4.7-5.081s-4.714,1.982-4.714,5.1V-3.09C37.33.025,39.1,1.991,42.045,1.991Zm0-2.016c-1.449,0-2.232-1.033-2.232-2.915V-4.356c0-1.9.766-2.915,2.232-2.915,1.433,0,2.249,1.05,2.249,2.949V-2.94C44.294-1.041,43.511-.025,42.045-.025Z" transform="translate(5657.746 5580.277)" fill="#0855c4"/>
    <path id="Trazado_17989" data-name="Trazado 17989" d="M12.056,0A12.056,12.056,0,1,1,0,12.056,12.056,12.056,0,0,1,12.056,0Z" transform="translate(5630.374 5576.492)" fill="#00aded"/>
    <path id="Trazado_17954" data-name="Trazado 17954" d="M5.744,11.687,0,5.943,5.744.2a.677.677,0,0,1,.962,0h0a.679.679,0,0,1,0,.961L1.924,5.943l4.781,4.781a.68.68,0,0,1,0,.962h0A.68.68,0,0,1,5.744,11.687Z" transform="translate(5647.071 5594.493) rotate(180)" fill="#fff"/>
    <path id="Trazado_17954_-_Contorno" data-name="Trazado 17954 - Contorno" d="M6.522,12.48a.969.969,0,0,1-.691-.287L.087,6.451a.3.3,0,0,1,0-.421L5.831.287A.979.979,0,0,1,7.5.98a.967.967,0,0,1-.287.689L2.642,6.24l4.571,4.57a.978.978,0,0,1-.691,1.67ZM.718,6.24l5.533,5.533a.382.382,0,0,0,.541,0A.378.378,0,0,0,6.9,11.5a.382.382,0,0,0-.112-.272L2.011,6.451a.3.3,0,0,1,0-.421L6.793,1.248A.374.374,0,0,0,6.9.98.383.383,0,0,0,6.252.707Z" transform="translate(5647.369 5594.79) rotate(180)" fill="#fff"/>
  </g>
</svg>
