<svg xmlns="http://www.w3.org/2000/svg" width="268.328" height="75.509" viewBox="0 0 268.328 75.509">
  <g id="Grupo_21010" data-name="Grupo 21010" transform="translate(-4054 -5315.786)">
    <path id="Trazado_18001" data-name="Trazado 18001" d="M5.394,0H118.658a5.394,5.394,0,0,1,5.394,5.394V70.116a5.394,5.394,0,0,1-5.394,5.394H5.394A5.394,5.394,0,0,1,0,70.116V5.394A5.394,5.394,0,0,1,5.394,0Z" transform="translate(4054 5315.786)" fill="#e2f7ff"/>
    <path id="Trazado_18003" data-name="Trazado 18003" d="M.655,1.351c0,.334.129.507.431.507h.173c.324,0,.453-.173.453-.507V-3.741L3.233-.3a.641.641,0,0,0,.712.475A.641.641,0,0,0,4.657-.3L6.2-3.773V1.351c0,.334.129.507.442.507h.151c.324,0,.464-.173.464-.507V-4.593A.6.6,0,0,0,6.6-5.208h-.27c-.41,0-.539.151-.712.561L3.956-.926,2.306-4.647c-.173-.4-.291-.561-.723-.561H1.292a.584.584,0,0,0-.636.615ZM8.238-.785a2.611,2.611,0,0,0,2.718,2.74A2.611,2.611,0,0,0,13.675-.764,2.62,2.62,0,0,0,10.968-3.5,2.614,2.614,0,0,0,8.238-.785Zm4.444.022a1.741,1.741,0,0,1-1.726,1.845A1.761,1.761,0,0,1,9.22-.785,1.743,1.743,0,0,1,10.957-2.63,1.741,1.741,0,0,1,12.683-.764ZM17.353-3.5a2.013,2.013,0,0,0-1.726.917c-.022-.69-.378-.841-.669-.841a.53.53,0,0,0-.388.119v4.66c0,.388.194.507.475.507h.119c.27,0,.475-.119.475-.507v-3.01a1.568,1.568,0,0,1,1.456-.906c.755,0,1.2.539,1.2,1.413v2.5c0,.388.194.507.475.507h.119c.27,0,.475-.119.475-.507V-1.282C19.36-2.565,18.723-3.5,17.353-3.5Zm5.1,5.458a1.459,1.459,0,0,0,.982-.313.64.64,0,0,0,.227-.475c0-.334-.27-.485-.3-.453a.878.878,0,0,1-.734.367c-.507,0-.69-.313-.69-.96V-2.5h1.176c.334,0,.464-.14.464-.41v-.076c0-.259-.119-.388-.453-.388H21.949v-.8c0-.4-.183-.507-.464-.507h-.108c-.291,0-.475.14-.475.507v.8h-.378c-.334,0-.464.14-.464.4V-2.9c0,.259.129.4.464.4H20.9V.239C20.9,1.361,21.388,1.955,22.456,1.955ZM24.1-.785a2.611,2.611,0,0,0,2.718,2.74A2.611,2.611,0,0,0,29.532-.764,2.62,2.62,0,0,0,26.825-3.5,2.614,2.614,0,0,0,24.1-.785Zm4.444.022a1.741,1.741,0,0,1-1.726,1.845A1.761,1.761,0,0,1,25.077-.785,1.743,1.743,0,0,1,26.814-2.63,1.741,1.741,0,0,1,28.54-.764ZM31.851.455c0,.885.658,1.478,1.769,1.478a2.243,2.243,0,0,0,1.866-.9,1.6,1.6,0,0,0,.043.356.579.579,0,0,0,.615.475c.194,0,.388-.065.388-.119V-1.433c0-1.316-.8-2.071-2.265-2.071A2.754,2.754,0,0,0,32.4-2.91a.942.942,0,0,0-.356.647c0,.518.658.529.658.518a1.568,1.568,0,0,1,1.489-.885,1.128,1.128,0,0,1,1.284,1.219V-1.3h-.14C32.995-1.26,31.851-.742,31.851.455Zm3.624-.69a1.453,1.453,0,0,1-1.6,1.4c-.615,0-.982-.291-.982-.755,0-.7.777-.982,2.287-1.036l.291-.011ZM42.293-3.5a2.068,2.068,0,0,0-1.823.971,1.839,1.839,0,0,0-.032-.3.619.619,0,0,0-.636-.593.53.53,0,0,0-.388.119V3.422c0,.388.194.507.475.507h.119c.27,0,.475-.119.475-.507V.984a2,2,0,0,0,1.78.971A2.5,2.5,0,0,0,44.72-.785,2.467,2.467,0,0,0,42.293-3.5ZM42.067,1.07a1.55,1.55,0,0,1-1.6-1.521V-1.54a1.656,1.656,0,0,1,1.618-1.079,1.669,1.669,0,0,1,1.6,1.845A1.649,1.649,0,0,1,42.067,1.07ZM45.314.455c0,.885.658,1.478,1.769,1.478a2.243,2.243,0,0,0,1.866-.9,1.6,1.6,0,0,0,.043.356.579.579,0,0,0,.615.475C49.8,1.868,50,1.8,50,1.75V-1.433C50-2.749,49.2-3.5,47.73-3.5a2.754,2.754,0,0,0-1.866.593.942.942,0,0,0-.356.647c0,.518.658.529.658.518a1.568,1.568,0,0,1,1.489-.885,1.128,1.128,0,0,1,1.284,1.219V-1.3H48.8C46.457-1.26,45.314-.742,45.314.455Zm3.624-.69a1.453,1.453,0,0,1-1.6,1.4c-.615,0-.982-.291-.982-.755,0-.7.777-.982,2.287-1.036l.291-.011Zm4.2,4.326c1.715,0,2.718-.6,2.718-1.586,0-.852-.777-1.219-1.51-1.413C53.436.865,52.94.833,52.94.5a.3.3,0,0,1,.054-.183h.194a2.013,2.013,0,0,0,2.244-1.888,1.762,1.762,0,0,0-.453-1.154l.885-.917a.583.583,0,0,0-.55-.453.685.685,0,0,0-.615.41l-.28.5A2.611,2.611,0,0,0,53.177-3.5,2.067,2.067,0,0,0,50.955-1.54,1.805,1.805,0,0,0,52.314.186a.761.761,0,0,0-.291.561.6.6,0,0,0,.2.485c-.938.162-1.65.669-1.65,1.424C50.578,3.627,51.387,4.09,53.134,4.09Zm.054-4.477a1.144,1.144,0,0,1-1.219-1.176,1.133,1.133,0,0,1,1.2-1.176A1.147,1.147,0,0,1,54.4-1.562,1.136,1.136,0,0,1,53.188-.386Zm-.032,3.732c-1.025,0-1.553-.259-1.553-.723,0-.55.734-.863,1.618-.917l.539.129c.572.14,1.057.291,1.057.7C54.817,3.055,54.2,3.346,53.156,3.346ZM56.176.455c0,.885.658,1.478,1.769,1.478a2.243,2.243,0,0,0,1.866-.9,1.6,1.6,0,0,0,.043.356.579.579,0,0,0,.615.475c.194,0,.388-.065.388-.119V-1.433c0-1.316-.8-2.071-2.265-2.071a2.754,2.754,0,0,0-1.866.593.942.942,0,0,0-.356.647c0,.518.658.529.658.518a1.568,1.568,0,0,1,1.489-.885A1.128,1.128,0,0,1,59.8-1.411V-1.3h-.14C57.32-1.26,56.176-.742,56.176.455ZM59.8-.235a1.453,1.453,0,0,1-1.6,1.4c-.615,0-.982-.291-.982-.755,0-.7.777-.982,2.287-1.036L59.8-.634ZM64.385-3.5a1.314,1.314,0,0,0-1.316.982,1.935,1.935,0,0,0-.043-.388.61.61,0,0,0-.626-.518.53.53,0,0,0-.388.119v4.66c0,.388.194.507.475.507h.119c.27,0,.475-.119.475-.507V-.472c0-1.2.334-2.017,1.176-2.017a1,1,0,0,1,.658.227.531.531,0,0,0,.324-.55C65.237-3.245,64.924-3.5,64.385-3.5ZM67.125.455c0,.885.658,1.478,1.769,1.478a2.243,2.243,0,0,0,1.866-.9,1.6,1.6,0,0,0,.043.356.579.579,0,0,0,.615.475c.194,0,.388-.065.388-.119V-1.433c0-1.316-.8-2.071-2.265-2.071a2.754,2.754,0,0,0-1.866.593.942.942,0,0,0-.356.647c0,.518.658.529.658.518a1.568,1.568,0,0,1,1.489-.885,1.128,1.128,0,0,1,1.284,1.219V-1.3h-.14C68.268-1.26,67.125-.742,67.125.455Zm3.624-.69a1.453,1.453,0,0,1-1.6,1.4c-.615,0-.982-.291-.982-.755,0-.7.777-.982,2.287-1.036l.291-.011ZM75.744-3.5a2.013,2.013,0,0,0-1.726.917c-.022-.69-.378-.841-.669-.841a.53.53,0,0,0-.388.119v4.66c0,.388.194.507.475.507h.119c.27,0,.475-.119.475-.507v-3.01a1.568,1.568,0,0,1,1.456-.906c.755,0,1.2.539,1.2,1.413v2.5c0,.388.194.507.475.507h.119c.27,0,.475-.119.475-.507V-1.282C77.75-2.565,77.114-3.5,75.744-3.5Zm5.1,5.458a1.459,1.459,0,0,0,.982-.313.64.64,0,0,0,.227-.475c0-.334-.27-.485-.3-.453a.878.878,0,0,1-.734.367c-.507,0-.69-.313-.69-.96V-2.5H81.5c.334,0,.464-.14.464-.41v-.076c0-.259-.119-.388-.453-.388H80.339v-.8c0-.4-.183-.507-.464-.507h-.108c-.291,0-.475.14-.475.507v.8h-.378c-.334,0-.464.14-.464.4V-2.9c0,.259.129.4.464.4h.378V.239C79.293,1.361,79.778,1.955,80.846,1.955Zm1.64-2.708a2.579,2.579,0,0,0,2.74,2.708,3.07,3.07,0,0,0,1.64-.421,1.039,1.039,0,0,0,.572-.755c0-.453-.539-.55-.561-.529a1.706,1.706,0,0,1-1.629.863A1.685,1.685,0,0,1,83.5-.3a1.189,1.189,0,0,1-.022-.194h3.829c.248,0,.324-.086.324-.313V-.893A2.416,2.416,0,0,0,85.139-3.5,2.629,2.629,0,0,0,82.486-.753Zm4.11-.464H83.489a1.655,1.655,0,0,1,1.64-1.478A1.425,1.425,0,0,1,86.6-1.217Zm1.952,2.708a3.1,3.1,0,0,0,1.78.453c1.338,0,2.157-.636,2.157-1.629,0-1.122-1.111-1.359-1.909-1.532-.841-.183-1.294-.291-1.294-.766,0-.431.388-.712,1.122-.712a1.876,1.876,0,0,1,1.521.734.567.567,0,0,0,.431-.5.633.633,0,0,0-.129-.367A2.214,2.214,0,0,0,90.36-3.5c-1.262,0-2.071.658-2.071,1.629,0,1.1,1.057,1.338,1.823,1.5.852.183,1.338.28,1.338.809,0,.431-.41.7-1.143.7A2.136,2.136,0,0,1,88.559.358a.546.546,0,0,0-.421.485A.851.851,0,0,0,88.548,1.491ZM2.683,12.742a2.074,2.074,0,0,0,1.823-1v.4c0,.388.194.507.475.507h.108c.28,0,.475-.119.475-.507V6.108c0-.744-.345-.917-.68-.917a.555.555,0,0,0-.388.119V8.136a2.094,2.094,0,0,0-1.78-.852A2.481,2.481,0,0,0,.256,10.013,2.482,2.482,0,0,0,2.683,12.742Zm1.823-2.406a1.562,1.562,0,0,1-1.618,1.521,1.669,1.669,0,0,1-1.6-1.845A1.643,1.643,0,0,1,2.91,8.168a1.619,1.619,0,0,1,1.6,1.068Zm1.952-.3A2.579,2.579,0,0,0,9.2,12.742a3.07,3.07,0,0,0,1.64-.421,1.039,1.039,0,0,0,.572-.755c0-.453-.539-.55-.561-.529A1.706,1.706,0,0,1,9.22,11.9a1.685,1.685,0,0,1-1.748-1.413,1.189,1.189,0,0,1-.022-.194H11.28c.248,0,.324-.086.324-.313V9.894a2.417,2.417,0,0,0-2.492-2.61A2.629,2.629,0,0,0,6.459,10.034Zm4.11-.464H7.462A1.655,1.655,0,0,1,9.1,8.092,1.425,1.425,0,0,1,10.568,9.57Zm3.344,1.672c0,.885.658,1.478,1.769,1.478a2.243,2.243,0,0,0,1.866-.9,1.6,1.6,0,0,0,.043.356.579.579,0,0,0,.615.475c.194,0,.388-.065.388-.119V9.355c0-1.316-.8-2.071-2.265-2.071a2.754,2.754,0,0,0-1.866.593.942.942,0,0,0-.356.647c0,.518.658.529.658.518a1.568,1.568,0,0,1,1.489-.885,1.128,1.128,0,0,1,1.284,1.219v.108H17.4C15.056,9.527,13.912,10.045,13.912,11.242Zm3.624-.69a1.453,1.453,0,0,1-1.6,1.4c-.615,0-.982-.291-.982-.755,0-.7.777-.982,2.287-1.036l.291-.011Zm5.091-3.268a2.068,2.068,0,0,0-1.823.971,1.839,1.839,0,0,0-.032-.3.619.619,0,0,0-.636-.593.53.53,0,0,0-.388.119v6.731c0,.388.194.507.475.507h.119c.27,0,.475-.119.475-.507V11.771a2,2,0,0,0,1.78.971A2.5,2.5,0,0,0,25.055,10,2.467,2.467,0,0,0,22.628,7.283ZM22.4,11.857a1.55,1.55,0,0,1-1.6-1.521V9.247a1.665,1.665,0,0,1,3.215.766A1.649,1.649,0,0,1,22.4,11.857Zm4.078.787h.108c.28,0,.475-.119.475-.507V6.108c0-.744-.345-.917-.68-.917a.555.555,0,0,0-.388.119v6.828C25.994,12.526,26.2,12.645,26.479,12.645Zm1.8-6.893a.578.578,0,0,0,.636.615.568.568,0,0,0,.636-.615.573.573,0,0,0-.626-.626A.584.584,0,0,0,28.281,5.752Zm.086,6.386c0,.388.2.507.485.507h.108c.28,0,.475-.119.475-.507V7.877c0-.4-.194-.518-.475-.518h-.108c-.28,0-.485.129-.485.518ZM30.384,10a2.624,2.624,0,0,0,2.7,2.74,2.561,2.561,0,0,0,1.683-.539,1.275,1.275,0,0,0,.539-.885c0-.464-.6-.539-.636-.485A1.548,1.548,0,0,1,33.1,11.846,1.724,1.724,0,0,1,31.4,10a1.718,1.718,0,0,1,1.7-1.823,1.539,1.539,0,0,1,1.564,1.014c.032.054.636-.032.636-.475a1.291,1.291,0,0,0-.529-.9,2.594,2.594,0,0,0-1.694-.539A2.624,2.624,0,0,0,30.384,10Zm5.469,1.241c0,.885.658,1.478,1.769,1.478a2.243,2.243,0,0,0,1.866-.9,1.6,1.6,0,0,0,.043.356.579.579,0,0,0,.615.475c.194,0,.388-.065.388-.119V9.355c0-1.316-.8-2.071-2.265-2.071a2.754,2.754,0,0,0-1.866.593.942.942,0,0,0-.356.647c0,.518.658.529.658.518a1.568,1.568,0,0,1,1.489-.885,1.128,1.128,0,0,1,1.284,1.219v.108h-.14C37,9.527,35.853,10.045,35.853,11.242Zm3.624-.69a1.453,1.453,0,0,1-1.6,1.4c-.615,0-.982-.291-.982-.755,0-.7.777-.982,2.287-1.036l.291-.011Zm4.584-3.268a1.314,1.314,0,0,0-1.316.982,1.935,1.935,0,0,0-.043-.388.61.61,0,0,0-.626-.518.53.53,0,0,0-.388.119v4.66c0,.388.194.507.475.507h.119c.27,0,.475-.119.475-.507V10.315c0-1.2.334-2.017,1.176-2.017a1,1,0,0,1,.658.227.531.531,0,0,0,.324-.55C44.914,7.542,44.6,7.283,44.062,7.283Zm3.571,5.361h.108c.28,0,.475-.119.475-.507V6.108c0-.744-.345-.917-.68-.917a.555.555,0,0,0-.388.119v6.828C47.147,12.526,47.352,12.645,47.633,12.645Zm1.543-1.4c0,.885.658,1.478,1.769,1.478a2.243,2.243,0,0,0,1.866-.9,1.6,1.6,0,0,0,.043.356.579.579,0,0,0,.615.475c.194,0,.388-.065.388-.119V9.355c0-1.316-.8-2.071-2.265-2.071a2.754,2.754,0,0,0-1.866.593.942.942,0,0,0-.356.647c0,.518.658.529.658.518a1.568,1.568,0,0,1,1.489-.885A1.128,1.128,0,0,1,52.8,9.376v.108h-.14C50.319,9.527,49.175,10.045,49.175,11.242Zm3.624-.69a1.453,1.453,0,0,1-1.6,1.4c-.615,0-.982-.291-.982-.755,0-.7.777-.982,2.287-1.036l.291-.011ZM56.424,10a2.624,2.624,0,0,0,2.7,2.74A2.561,2.561,0,0,0,60.8,12.2a1.275,1.275,0,0,0,.539-.885c0-.464-.6-.539-.636-.485a1.548,1.548,0,0,1-1.564,1.014A1.724,1.724,0,0,1,57.438,10a1.718,1.718,0,0,1,1.7-1.823,1.539,1.539,0,0,1,1.564,1.014c.032.054.636-.032.636-.475a1.291,1.291,0,0,0-.529-.9,2.594,2.594,0,0,0-1.694-.539A2.624,2.624,0,0,0,56.424,10Zm5.458,0a2.718,2.718,0,1,0,5.437.022A2.718,2.718,0,1,0,61.882,10Zm4.444.022A1.741,1.741,0,0,1,64.6,11.868,1.761,1.761,0,0,1,62.864,10a1.736,1.736,0,1,1,3.463.022Zm2.945,1.8a2.007,2.007,0,0,0,1.791.917A2.5,2.5,0,0,0,73.522,10a2.467,2.467,0,0,0-2.427-2.718,2.111,2.111,0,0,0-1.812.938V6.108c0-.744-.356-.917-.68-.917a.53.53,0,0,0-.388.119v6.828c0,.388.194.507.475.507h.119c.27,0,.464-.119.464-.507Zm3.215-1.812a1.649,1.649,0,0,1-1.618,1.845,1.553,1.553,0,0,1-1.6-1.456V9.247a1.665,1.665,0,0,1,3.215.766Zm1.618.022a2.579,2.579,0,0,0,2.74,2.708,3.07,3.07,0,0,0,1.64-.421,1.039,1.039,0,0,0,.572-.755c0-.453-.539-.55-.561-.529a1.706,1.706,0,0,1-1.629.863,1.685,1.685,0,0,1-1.748-1.413,1.189,1.189,0,0,1-.022-.194h3.829c.248,0,.324-.086.324-.313V9.894a2.417,2.417,0,0,0-2.492-2.61A2.629,2.629,0,0,0,74.1,10.034Zm4.11-.464H75.107a1.655,1.655,0,0,1,1.64-1.478A1.425,1.425,0,0,1,78.214,9.57Zm4.293-2.287a1.314,1.314,0,0,0-1.316.982,1.935,1.935,0,0,0-.043-.388.61.61,0,0,0-.626-.518.53.53,0,0,0-.388.119v4.66c0,.388.194.507.475.507h.119c.27,0,.475-.119.475-.507V10.315c0-1.2.334-2.017,1.176-2.017a1,1,0,0,1,.658.227.531.531,0,0,0,.324-.55C83.36,7.542,83.047,7.283,82.507,7.283Zm3.473,5.458a1.459,1.459,0,0,0,.982-.313.64.64,0,0,0,.227-.475c0-.334-.27-.485-.3-.453a.878.878,0,0,1-.734.367c-.507,0-.69-.313-.69-.96V8.287h1.176c.334,0,.464-.14.464-.41V7.8c0-.259-.119-.388-.453-.388H85.474v-.8c0-.4-.183-.507-.464-.507H84.9c-.291,0-.475.14-.475.507v.8H84.05c-.334,0-.464.14-.464.4v.076c0,.259.129.4.464.4h.378v2.74C84.427,12.148,84.913,12.742,85.981,12.742Zm6.052-5.383h-.119c-.27,0-.464.129-.464.518v3.01a1.558,1.558,0,0,1-1.424.917c-.787,0-1.241-.529-1.241-1.424v-2.5c0-.4-.194-.518-.475-.518h-.119c-.27,0-.464.129-.464.518v2.632c0,1.294.626,2.222,2,2.222a2.015,2.015,0,0,0,1.726-.906,1.482,1.482,0,0,0,.043.334.6.6,0,0,0,.636.485.517.517,0,0,0,.378-.119V7.877C92.507,7.478,92.313,7.359,92.032,7.359Zm4.056-.076a1.314,1.314,0,0,0-1.316.982,1.935,1.935,0,0,0-.043-.388.61.61,0,0,0-.626-.518.53.53,0,0,0-.388.119v4.66c0,.388.194.507.475.507h.119c.27,0,.475-.119.475-.507V10.315c0-1.2.334-2.017,1.176-2.017a1,1,0,0,1,.658.227.531.531,0,0,0,.324-.55C96.94,7.542,96.628,7.283,96.088,7.283Zm1.122,3.959c0,.885.658,1.478,1.769,1.478a2.243,2.243,0,0,0,1.866-.9,1.6,1.6,0,0,0,.043.356.579.579,0,0,0,.615.475c.194,0,.388-.065.388-.119V9.355c0-1.316-.8-2.071-2.265-2.071a2.754,2.754,0,0,0-1.866.593.942.942,0,0,0-.356.647c0,.518.658.529.658.518a1.568,1.568,0,0,1,1.489-.885,1.128,1.128,0,0,1,1.284,1.219v.108h-.14C98.354,9.527,97.21,10.045,97.21,11.242Zm3.624-.69a1.453,1.453,0,0,1-1.6,1.4c-.615,0-.982-.291-.982-.755,0-.7.777-.982,2.287-1.036l.291-.011ZM.267,22.029c0,.885.658,1.478,1.769,1.478a2.243,2.243,0,0,0,1.866-.9,1.6,1.6,0,0,0,.043.356.579.579,0,0,0,.615.475c.194,0,.388-.065.388-.119V20.142c0-1.316-.8-2.071-2.265-2.071a2.754,2.754,0,0,0-1.866.593.942.942,0,0,0-.356.647c0,.518.658.529.658.518a1.568,1.568,0,0,1,1.489-.885,1.128,1.128,0,0,1,1.284,1.219v.108h-.14C1.41,20.314.267,20.832.267,22.029Zm3.624-.69a1.453,1.453,0,0,1-1.6,1.4c-.615,0-.982-.291-.982-.755,0-.7.777-.982,2.287-1.036l.291-.011Zm4.326,2.19a2.074,2.074,0,0,0,1.823-1v.4c0,.388.194.507.475.507h.108c.28,0,.475-.119.475-.507v-6.03c0-.744-.345-.917-.68-.917a.555.555,0,0,0-.388.119v2.826a2.094,2.094,0,0,0-1.78-.852A2.481,2.481,0,0,0,5.79,20.8,2.482,2.482,0,0,0,8.217,23.529Zm1.823-2.406a1.562,1.562,0,0,1-1.618,1.521,1.669,1.669,0,0,1-1.6-1.845,1.643,1.643,0,0,1,1.618-1.845,1.619,1.619,0,0,1,1.6,1.068Zm2.222-4.585a.578.578,0,0,0,.636.615.62.62,0,1,0,.011-1.241A.584.584,0,0,0,12.262,16.539Zm.086,6.386c0,.388.2.507.485.507h.108c.28,0,.475-.119.475-.507V18.664c0-.4-.194-.518-.475-.518h-.108c-.28,0-.485.129-.485.518Zm2.017-2.136a2.624,2.624,0,0,0,2.7,2.74,2.561,2.561,0,0,0,1.683-.539,1.275,1.275,0,0,0,.539-.885c0-.464-.6-.539-.636-.485a1.548,1.548,0,0,1-1.564,1.014,1.724,1.724,0,0,1-1.7-1.845,1.718,1.718,0,0,1,1.7-1.823,1.539,1.539,0,0,1,1.564,1.014c.032.054.636-.032.636-.475a1.291,1.291,0,0,0-.529-.9,2.594,2.594,0,0,0-1.694-.539A2.624,2.624,0,0,0,14.365,20.789Zm5.728-4.25a.578.578,0,0,0,.636.615.62.62,0,1,0,.011-1.241A.584.584,0,0,0,20.093,16.539Zm.086,6.386c0,.388.2.507.485.507h.108c.28,0,.475-.119.475-.507V18.664c0-.4-.194-.518-.475-.518h-.108c-.28,0-.485.129-.485.518ZM22.2,20.789a2.718,2.718,0,1,0,5.437.022,2.718,2.718,0,1,0-5.437-.022Zm4.444.022a1.741,1.741,0,0,1-1.726,1.845,1.761,1.761,0,0,1-1.737-1.866,1.736,1.736,0,1,1,3.463.022Zm4.671-2.74a2.013,2.013,0,0,0-1.726.917c-.022-.69-.378-.841-.669-.841a.53.53,0,0,0-.388.119v4.66c0,.388.194.507.475.507h.119c.27,0,.475-.119.475-.507v-3.01a1.568,1.568,0,0,1,1.456-.906c.755,0,1.2.539,1.2,1.413v2.5c0,.388.194.507.475.507h.119c.27,0,.475-.119.475-.507V20.293C33.318,19.009,32.682,18.07,31.312,18.07Zm2.859,3.959c0,.885.658,1.478,1.769,1.478a2.243,2.243,0,0,0,1.866-.9,1.6,1.6,0,0,0,.043.356.579.579,0,0,0,.615.475c.194,0,.388-.065.388-.119V20.142c0-1.316-.8-2.071-2.265-2.071a2.754,2.754,0,0,0-1.866.593.942.942,0,0,0-.356.647c0,.518.658.529.658.518a1.568,1.568,0,0,1,1.489-.885,1.128,1.128,0,0,1,1.284,1.219v.108h-.14C35.314,20.314,34.171,20.832,34.171,22.029Zm3.624-.69a1.453,1.453,0,0,1-1.6,1.4c-.615,0-.982-.291-.982-.755,0-.7.777-.982,2.287-1.036l.291-.011Zm2.74,2.093h.108c.28,0,.475-.119.475-.507v-6.03c0-.744-.345-.917-.68-.917a.555.555,0,0,0-.388.119v6.828C40.049,23.313,40.254,23.432,40.535,23.432Z" transform="translate(4060.157 5358.521)" fill="#0855c4"/>
    <path id="Trazado_18002" data-name="Trazado 18002" d="M1.119,2.374A6.14,6.14,0,0,0,5.064,3.488c3.209,0,5-1.416,5-3.851,0-2.3-1.925-3.209-4.134-3.7-1.51-.34-2.605-.491-2.605-1.548,0-.887.793-1.435,2.114-1.435A4.373,4.373,0,0,1,8.689-5.554,1.812,1.812,0,0,0,9.784-7.008a1.676,1.676,0,0,0-.849-1.34,5.994,5.994,0,0,0-3.511-.906C2.478-9.254.666-7.763.666-5.5c0,2.511,2,3.228,3.945,3.662,1.435.321,2.662.547,2.662,1.642C7.273.751,6.5,1.28,5.046,1.28A4.977,4.977,0,0,1,1.421-.363C1.327-.457.364.241.364,1.015A1.75,1.75,0,0,0,1.119,2.374Zm10.8,4.795a1.23,1.23,0,0,0,.566-.094l4.512-14.4a3.3,3.3,0,0,0,.151-.793c0-.925-.812-1.057-1.359-1.057a1.1,1.1,0,0,0-.566.094L10.69,5.319a3.147,3.147,0,0,0-.151.793C10.539,7,11.351,7.169,11.917,7.169ZM25.509,3.488c3.209,0,5.04-1.378,5.04-3.738a3.144,3.144,0,0,0-2.379-3.1A2.561,2.561,0,0,0,30.3-5.894c0-2.152-1.718-3.36-4.795-3.36a5.88,5.88,0,0,0-3.19.831,2.251,2.251,0,0,0-1.189,1.774,1.358,1.358,0,0,0,1.6,1.3A2.683,2.683,0,0,1,25.452-7.1c1.4,0,2.228.585,2.228,1.529,0,.887-.6,1.435-1.737,1.435h-.906c-.831,0-1.246.283-1.246.944v.151c0,.6.359.944,1.284.944h.642c1.435,0,2.171.566,2.171,1.68,0,1.076-.925,1.737-2.4,1.737a2.9,2.9,0,0,1-3.02-1.944A1.377,1.377,0,0,0,20.827.694a2.408,2.408,0,0,0,1.227,1.869A6.07,6.07,0,0,0,25.509,3.488Zm10.59,0c3.058,0,4.965-1.586,4.965-4.059,0-2.4-1.793-3.87-4.512-3.87a5.928,5.928,0,0,0-2.228.453V-6.724h4.927c.887,0,1.3-.34,1.3-1.076v-.094c0-.736-.434-1.095-1.3-1.095H33.343c-.925,0-1.34.566-1.34,1.548V-3.4c0,1.114.547,1.586,1.642,1.623a3.928,3.928,0,0,1,2.511-.755c1.567,0,2.435.717,2.435,1.944s-.963,2-2.53,2A4.064,4.064,0,0,1,32.7-.231a1.539,1.539,0,0,0-1.152,1.3A2.106,2.106,0,0,0,32.758,2.7,6.558,6.558,0,0,0,36.1,3.488Zm11.5,0c3.322,0,5.323-2.246,5.323-5.8V-3.5c0-3.53-2-5.758-5.323-5.758s-5.342,2.246-5.342,5.776v1.208C42.253,1.261,44.254,3.488,47.6,3.488Zm0-2.284c-1.642,0-2.53-1.17-2.53-3.3V-3.7c0-2.152.868-3.3,2.53-3.3,1.623,0,2.548,1.189,2.548,3.341V-2.1C50.144.053,49.256,1.2,47.6,1.2Z" transform="translate(4060.195 5340.93)" fill="#0855c4"/>
    <path id="Trazado_18004" data-name="Trazado 18004" d="M5.394,0H118.658a5.394,5.394,0,0,1,5.394,5.394V70.116a5.394,5.394,0,0,1-5.394,5.394H5.394A5.394,5.394,0,0,1,0,70.116V5.394A5.394,5.394,0,0,1,5.394,0Z" transform="translate(4198.277 5315.786)" fill="#e2f7ff"/>
    <path id="Trazado_18005" data-name="Trazado 18005" d="M.709,1.451c0,.334.129.507.431.507h.173c.324,0,.453-.173.453-.507V-3.641L3.287-.2A.641.641,0,0,0,4,.275.641.641,0,0,0,4.711-.2L6.253-3.673V1.451c0,.334.129.507.442.507h.151c.324,0,.464-.173.464-.507V-4.493a.6.6,0,0,0-.658-.615h-.27c-.41,0-.539.151-.712.561L4.01-.825,2.359-4.547c-.173-.4-.291-.561-.723-.561H1.345a.584.584,0,0,0-.636.615ZM8.292-.685a2.611,2.611,0,0,0,2.718,2.74A2.611,2.611,0,0,0,13.729-.663,2.62,2.62,0,0,0,11.021-3.4,2.614,2.614,0,0,0,8.292-.685Zm4.444.022A1.741,1.741,0,0,1,11.01,1.181,1.761,1.761,0,0,1,9.274-.685,1.743,1.743,0,0,1,11.01-2.53,1.741,1.741,0,0,1,12.736-.663ZM17.407-3.4a2.013,2.013,0,0,0-1.726.917c-.022-.69-.378-.841-.669-.841a.53.53,0,0,0-.388.119v4.66c0,.388.194.507.475.507h.119c.27,0,.475-.119.475-.507v-3.01a1.568,1.568,0,0,1,1.456-.906c.755,0,1.2.539,1.2,1.413v2.5c0,.388.194.507.475.507h.119c.27,0,.475-.119.475-.507V-1.181C19.413-2.465,18.777-3.4,17.407-3.4Zm5.1,5.458a1.459,1.459,0,0,0,.982-.313.64.64,0,0,0,.227-.475c0-.334-.27-.485-.3-.453a.878.878,0,0,1-.734.367c-.507,0-.69-.313-.69-.96V-2.4h1.176c.334,0,.464-.14.464-.41v-.076c0-.259-.119-.388-.453-.388H22v-.8c0-.4-.183-.507-.464-.507h-.108c-.291,0-.475.14-.475.507v.8h-.378c-.334,0-.464.14-.464.4V-2.8c0,.259.129.4.464.4h.378V.34C20.956,1.462,21.441,2.055,22.509,2.055Zm1.64-2.74a2.611,2.611,0,0,0,2.718,2.74A2.611,2.611,0,0,0,29.586-.663,2.62,2.62,0,0,0,26.878-3.4,2.614,2.614,0,0,0,24.149-.685Zm4.444.022a1.741,1.741,0,0,1-1.726,1.845A1.761,1.761,0,0,1,25.131-.685,1.743,1.743,0,0,1,26.867-2.53,1.741,1.741,0,0,1,28.593-.663ZM31.9.556c0,.885.658,1.478,1.769,1.478a2.243,2.243,0,0,0,1.866-.9,1.6,1.6,0,0,0,.043.356.579.579,0,0,0,.615.475c.194,0,.388-.065.388-.119V-1.332c0-1.316-.8-2.071-2.265-2.071a2.754,2.754,0,0,0-1.866.593.942.942,0,0,0-.356.647c0,.518.658.529.658.518a1.568,1.568,0,0,1,1.489-.885,1.128,1.128,0,0,1,1.284,1.219V-1.2h-.14C33.048-1.16,31.9-.642,31.9.556Zm3.624-.69a1.453,1.453,0,0,1-1.6,1.4c-.615,0-.982-.291-.982-.755,0-.7.777-.982,2.287-1.036l.291-.011ZM42.347-3.4a2.068,2.068,0,0,0-1.823.971,1.839,1.839,0,0,0-.032-.3.619.619,0,0,0-.636-.593.53.53,0,0,0-.388.119V3.522c0,.388.194.507.475.507h.119c.27,0,.475-.119.475-.507V1.084a2,2,0,0,0,1.78.971,2.5,2.5,0,0,0,2.459-2.74A2.467,2.467,0,0,0,42.347-3.4ZM42.12,1.17a1.55,1.55,0,0,1-1.6-1.521V-1.44a1.656,1.656,0,0,1,1.618-1.079,1.669,1.669,0,0,1,1.6,1.845A1.649,1.649,0,0,1,42.12,1.17ZM45.367.556c0,.885.658,1.478,1.769,1.478A2.243,2.243,0,0,0,49,1.138a1.6,1.6,0,0,0,.043.356.579.579,0,0,0,.615.475c.194,0,.388-.065.388-.119V-1.332c0-1.316-.8-2.071-2.265-2.071a2.754,2.754,0,0,0-1.866.593.942.942,0,0,0-.356.647c0,.518.658.529.658.518a1.568,1.568,0,0,1,1.489-.885,1.128,1.128,0,0,1,1.284,1.219V-1.2h-.14C46.511-1.16,45.367-.642,45.367.556Zm3.624-.69a1.453,1.453,0,0,1-1.6,1.4c-.615,0-.982-.291-.982-.755,0-.7.777-.982,2.287-1.036l.291-.011Zm4.2,4.326c1.715,0,2.718-.6,2.718-1.586,0-.852-.777-1.219-1.51-1.413-.906-.227-1.4-.259-1.4-.593a.3.3,0,0,1,.054-.183h.194a2.013,2.013,0,0,0,2.244-1.888,1.762,1.762,0,0,0-.453-1.154l.885-.917A.583.583,0,0,0,55.367-4a.685.685,0,0,0-.615.41l-.28.5A2.611,2.611,0,0,0,53.231-3.4,2.067,2.067,0,0,0,51.009-1.44,1.805,1.805,0,0,0,52.368.286a.761.761,0,0,0-.291.561.6.6,0,0,0,.2.485c-.938.162-1.65.669-1.65,1.424C50.631,3.727,51.44,4.191,53.188,4.191Zm.054-4.477a1.144,1.144,0,0,1-1.219-1.176,1.133,1.133,0,0,1,1.2-1.176,1.147,1.147,0,0,1,1.23,1.176A1.136,1.136,0,0,1,53.242-.286Zm-.032,3.732c-1.025,0-1.553-.259-1.553-.723,0-.55.734-.863,1.618-.917l.539.129c.572.14,1.057.291,1.057.7C54.871,3.155,54.256,3.446,53.209,3.446ZM56.23.556c0,.885.658,1.478,1.769,1.478a2.243,2.243,0,0,0,1.866-.9,1.6,1.6,0,0,0,.043.356.579.579,0,0,0,.615.475c.194,0,.388-.065.388-.119V-1.332c0-1.316-.8-2.071-2.265-2.071a2.754,2.754,0,0,0-1.866.593.942.942,0,0,0-.356.647c0,.518.658.529.658.518A1.568,1.568,0,0,1,58.57-2.53a1.128,1.128,0,0,1,1.284,1.219V-1.2h-.14C57.373-1.16,56.23-.642,56.23.556Zm3.624-.69a1.453,1.453,0,0,1-1.6,1.4c-.615,0-.982-.291-.982-.755,0-.7.777-.982,2.287-1.036l.291-.011ZM64.439-3.4a1.314,1.314,0,0,0-1.316.982,1.935,1.935,0,0,0-.043-.388.61.61,0,0,0-.626-.518.53.53,0,0,0-.388.119v4.66c0,.388.194.507.475.507h.119c.27,0,.475-.119.475-.507V-.372c0-1.2.334-2.017,1.176-2.017a1,1,0,0,1,.658.227.531.531,0,0,0,.324-.55C65.291-3.144,64.978-3.4,64.439-3.4Zm3.571,5.361h.108c.28,0,.475-.119.475-.507v-6.03c0-.744-.345-.917-.68-.917a.555.555,0,0,0-.388.119V1.451C67.524,1.839,67.729,1.958,68.009,1.958Zm6.105-5.286H74c-.27,0-.464.129-.464.518V.2a1.558,1.558,0,0,1-1.424.917c-.787,0-1.241-.529-1.241-1.424v-2.5c0-.4-.194-.518-.475-.518h-.119c-.27,0-.464.129-.464.518V-.178c0,1.294.626,2.222,2,2.222a2.015,2.015,0,0,0,1.726-.906,1.482,1.482,0,0,0,.043.334.6.6,0,0,0,.636.485.517.517,0,0,0,.378-.119V-2.81C74.589-3.209,74.4-3.328,74.115-3.328ZM75.377-.653a2.579,2.579,0,0,0,2.74,2.708,3.07,3.07,0,0,0,1.64-.421,1.039,1.039,0,0,0,.572-.755c0-.453-.539-.55-.561-.529a1.706,1.706,0,0,1-1.629.863A1.685,1.685,0,0,1,76.391-.2a1.189,1.189,0,0,1-.022-.194H80.2c.248,0,.324-.086.324-.313V-.793A2.417,2.417,0,0,0,78.03-3.4,2.629,2.629,0,0,0,75.377-.653Zm4.11-.464H76.38a1.655,1.655,0,0,1,1.64-1.478A1.425,1.425,0,0,1,79.487-1.116Zm3.8,5.307C85,4.191,86,3.587,86,2.605c0-.852-.777-1.219-1.51-1.413-.906-.227-1.4-.259-1.4-.593a.3.3,0,0,1,.054-.183h.194a2.013,2.013,0,0,0,2.244-1.888,1.762,1.762,0,0,0-.453-1.154l.885-.917A.583.583,0,0,0,85.463-4a.685.685,0,0,0-.615.41l-.28.5A2.611,2.611,0,0,0,83.327-3.4,2.067,2.067,0,0,0,81.1-1.44,1.805,1.805,0,0,0,82.464.286a.762.762,0,0,0-.291.561.6.6,0,0,0,.2.485c-.938.162-1.65.669-1.65,1.424C80.727,3.727,81.536,4.191,83.284,4.191Zm.054-4.477a1.144,1.144,0,0,1-1.219-1.176,1.133,1.133,0,0,1,1.2-1.176,1.147,1.147,0,0,1,1.23,1.176A1.136,1.136,0,0,1,83.338-.286Zm-.032,3.732c-1.025,0-1.553-.259-1.553-.723,0-.55.734-.863,1.618-.917l.539.129c.572.14,1.057.291,1.057.7C84.966,3.155,84.352,3.446,83.305,3.446ZM86.261-.685a2.611,2.611,0,0,0,2.718,2.74A2.611,2.611,0,0,0,91.7-.663,2.62,2.62,0,0,0,88.99-3.4,2.614,2.614,0,0,0,86.261-.685Zm4.444.022a1.741,1.741,0,0,1-1.726,1.845A1.761,1.761,0,0,1,87.242-.685,1.743,1.743,0,0,1,88.979-2.53,1.741,1.741,0,0,1,90.705-.663Zm5.728,2.718a2.074,2.074,0,0,0,1.823-1v.4c0,.388.194.507.475.507h.108c.28,0,.475-.119.475-.507v-6.03c0-.744-.345-.917-.68-.917a.555.555,0,0,0-.388.119v2.826a2.094,2.094,0,0,0-1.78-.852A2.481,2.481,0,0,0,94.006-.674,2.482,2.482,0,0,0,96.433,2.055ZM98.256-.351A1.562,1.562,0,0,1,96.638,1.17a1.669,1.669,0,0,1-1.6-1.845A1.643,1.643,0,0,1,96.66-2.519a1.619,1.619,0,0,1,1.6,1.068Zm1.952-.3a2.579,2.579,0,0,0,2.74,2.708,3.07,3.07,0,0,0,1.64-.421,1.039,1.039,0,0,0,.572-.755c0-.453-.539-.55-.561-.529a1.706,1.706,0,0,1-1.629.863A1.685,1.685,0,0,1,101.223-.2a1.188,1.188,0,0,1-.022-.194h3.829c.248,0,.324-.086.324-.313V-.793a2.417,2.417,0,0,0-2.492-2.61A2.629,2.629,0,0,0,100.209-.653Zm4.11-.464h-3.107a1.655,1.655,0,0,1,1.64-1.478A1.425,1.425,0,0,1,104.318-1.116ZM.709,12.756a.641.641,0,0,0,.615-.507l.615-1.6H4.732l.615,1.586a.684.684,0,0,0,.658.518c.334,0,.647-.248.615-.334l-2.5-6.408c-.086-.227-.248-.356-.766-.356s-.68.129-.766.356L.1,12.421C.072,12.518.385,12.756.709,12.756Zm1.5-3L3.33,6.8,4.452,9.757ZM10.19,7.384a2.068,2.068,0,0,0-1.823.971,1.839,1.839,0,0,0-.032-.3A.619.619,0,0,0,7.7,7.459a.53.53,0,0,0-.388.119v6.731c0,.388.194.507.475.507H7.9c.27,0,.475-.119.475-.507V11.871a2,2,0,0,0,1.78.971,2.5,2.5,0,0,0,2.459-2.74A2.467,2.467,0,0,0,10.19,7.384Zm-.227,4.574a1.55,1.55,0,0,1-1.6-1.521V9.347a1.665,1.665,0,0,1,3.215.766A1.649,1.649,0,0,1,9.964,11.957Zm4.078.787h.108c.28,0,.475-.119.475-.507V6.208c0-.744-.345-.917-.68-.917a.555.555,0,0,0-.388.119v6.828C13.556,12.626,13.761,12.745,14.041,12.745Zm1.8-6.893a.578.578,0,0,0,.636.615.568.568,0,0,0,.636-.615.573.573,0,0,0-.626-.626A.584.584,0,0,0,15.843,5.852Zm.086,6.386c0,.388.2.507.485.507h.108c.28,0,.475-.119.475-.507V7.977c0-.4-.194-.518-.475-.518h-.108c-.28,0-.485.129-.485.518ZM17.946,10.1a2.624,2.624,0,0,0,2.7,2.74,2.561,2.561,0,0,0,1.683-.539,1.275,1.275,0,0,0,.539-.885c0-.464-.6-.539-.636-.485a1.548,1.548,0,0,1-1.564,1.014,1.724,1.724,0,0,1-1.7-1.845,1.718,1.718,0,0,1,1.7-1.823,1.539,1.539,0,0,1,1.564,1.014c.032.054.636-.032.636-.475a1.291,1.291,0,0,0-.529-.9,2.594,2.594,0,0,0-1.694-.539A2.624,2.624,0,0,0,17.946,10.1Zm5.469,1.241c0,.885.658,1.478,1.769,1.478a2.243,2.243,0,0,0,1.866-.9,1.6,1.6,0,0,0,.043.356.579.579,0,0,0,.615.475c.194,0,.388-.065.388-.119V9.455c0-1.316-.8-2.071-2.265-2.071a2.754,2.754,0,0,0-1.866.593.942.942,0,0,0-.356.647c0,.518.658.529.658.518a1.568,1.568,0,0,1,1.489-.885A1.128,1.128,0,0,1,27.04,9.476v.108H26.9C24.559,9.627,23.415,10.145,23.415,11.343Zm3.624-.69a1.453,1.453,0,0,1-1.6,1.4c-.615,0-.982-.291-.982-.755,0-.7.777-.982,2.287-1.036l.291-.011Zm4.585-3.268a1.314,1.314,0,0,0-1.316.982,1.935,1.935,0,0,0-.043-.388.61.61,0,0,0-.626-.518.53.53,0,0,0-.388.119v4.66c0,.388.194.507.475.507h.119c.27,0,.475-.119.475-.507V10.415c0-1.2.334-2.017,1.176-2.017a1,1,0,0,1,.658.227.531.531,0,0,0,.324-.55C32.477,7.643,32.164,7.384,31.624,7.384Zm3.571,5.361H35.3c.28,0,.475-.119.475-.507V6.208c0-.744-.345-.917-.68-.917a.555.555,0,0,0-.388.119v6.828C34.709,12.626,34.914,12.745,35.195,12.745Zm1.543-1.4c0,.885.658,1.478,1.769,1.478a2.243,2.243,0,0,0,1.866-.9,1.6,1.6,0,0,0,.043.356.579.579,0,0,0,.615.475c.194,0,.388-.065.388-.119V9.455c0-1.316-.8-2.071-2.265-2.071a2.754,2.754,0,0,0-1.866.593.942.942,0,0,0-.356.647c0,.518.658.529.658.518a1.568,1.568,0,0,1,1.489-.885,1.128,1.128,0,0,1,1.284,1.219v.108h-.14C37.881,9.627,36.737,10.145,36.737,11.343Zm3.624-.69a1.453,1.453,0,0,1-1.6,1.4c-.615,0-.982-.291-.982-.755,0-.7.777-.982,2.287-1.036l.291-.011Zm3.624-.55a2.624,2.624,0,0,0,2.7,2.74,2.561,2.561,0,0,0,1.683-.539,1.275,1.275,0,0,0,.539-.885c0-.464-.6-.539-.636-.485A1.548,1.548,0,0,1,46.7,11.947,1.724,1.724,0,0,1,45,10.1a1.718,1.718,0,0,1,1.7-1.823,1.539,1.539,0,0,1,1.564,1.014c.032.054.636-.032.636-.475a1.291,1.291,0,0,0-.529-.9,2.594,2.594,0,0,0-1.694-.539A2.624,2.624,0,0,0,43.986,10.1Zm5.458,0a2.718,2.718,0,1,0,5.437.022,2.718,2.718,0,1,0-5.437-.022Zm4.444.022a1.741,1.741,0,0,1-1.726,1.845A1.761,1.761,0,0,1,50.426,10.1a1.736,1.736,0,1,1,3.463.022Zm2.945,1.8a2.007,2.007,0,0,0,1.791.917,2.5,2.5,0,0,0,2.459-2.74,2.467,2.467,0,0,0-2.427-2.718,2.111,2.111,0,0,0-1.812.938V6.208c0-.744-.356-.917-.68-.917a.53.53,0,0,0-.388.119v6.828c0,.388.194.507.475.507h.119c.27,0,.464-.119.464-.507Zm3.215-1.812a1.649,1.649,0,0,1-1.618,1.845,1.553,1.553,0,0,1-1.6-1.456V9.347a1.665,1.665,0,0,1,3.215.766Zm1.618.022a2.579,2.579,0,0,0,2.74,2.708,3.07,3.07,0,0,0,1.64-.421,1.039,1.039,0,0,0,.572-.755c0-.453-.539-.55-.561-.529A1.706,1.706,0,0,1,64.428,12a1.685,1.685,0,0,1-1.748-1.413,1.189,1.189,0,0,1-.022-.194h3.829c.248,0,.324-.086.324-.313V9.994a2.417,2.417,0,0,0-2.492-2.61A2.629,2.629,0,0,0,61.666,10.134Zm4.11-.464H62.67a1.655,1.655,0,0,1,1.64-1.478A1.425,1.425,0,0,1,65.776,9.671Zm4.293-2.287a1.314,1.314,0,0,0-1.316.982,1.935,1.935,0,0,0-.043-.388.61.61,0,0,0-.626-.518.53.53,0,0,0-.388.119v4.66c0,.388.194.507.475.507h.119c.27,0,.475-.119.475-.507V10.415c0-1.2.334-2.017,1.176-2.017a1,1,0,0,1,.658.227.531.531,0,0,0,.324-.55C70.922,7.643,70.609,7.384,70.069,7.384Zm3.473,5.458a1.459,1.459,0,0,0,.982-.313.64.64,0,0,0,.227-.475c0-.334-.27-.485-.3-.453a.878.878,0,0,1-.734.367c-.507,0-.69-.313-.69-.96V8.387H74.2c.334,0,.464-.14.464-.41V7.9c0-.259-.119-.388-.453-.388H73.036v-.8c0-.4-.183-.507-.464-.507h-.108c-.291,0-.475.14-.475.507v.8h-.378c-.334,0-.464.14-.464.4v.076c0,.259.129.4.464.4h.378v2.74C71.99,12.249,72.475,12.842,73.543,12.842Zm6.052-5.383h-.119c-.27,0-.464.129-.464.518v3.01a1.558,1.558,0,0,1-1.424.917c-.787,0-1.241-.529-1.241-1.424v-2.5c0-.4-.194-.518-.475-.518h-.119c-.27,0-.464.129-.464.518v2.632c0,1.294.626,2.222,2,2.222a2.015,2.015,0,0,0,1.726-.906,1.482,1.482,0,0,0,.043.334.6.6,0,0,0,.636.485.517.517,0,0,0,.378-.119V7.977C80.069,7.578,79.875,7.459,79.594,7.459Zm4.056-.076a1.314,1.314,0,0,0-1.316.982,1.935,1.935,0,0,0-.043-.388.61.61,0,0,0-.626-.518.53.53,0,0,0-.388.119v4.66c0,.388.194.507.475.507h.119c.27,0,.475-.119.475-.507V10.415c0-1.2.334-2.017,1.176-2.017a1,1,0,0,1,.658.227.531.531,0,0,0,.324-.55C84.5,7.643,84.19,7.384,83.65,7.384Zm1.122,3.959c0,.885.658,1.478,1.769,1.478a2.243,2.243,0,0,0,1.866-.9,1.6,1.6,0,0,0,.043.356.579.579,0,0,0,.615.475c.194,0,.388-.065.388-.119V9.455c0-1.316-.8-2.071-2.265-2.071a2.754,2.754,0,0,0-1.866.593.942.942,0,0,0-.356.647c0,.518.658.529.658.518a1.568,1.568,0,0,1,1.489-.885A1.128,1.128,0,0,1,88.4,9.476v.108h-.14C85.916,9.627,84.772,10.145,84.772,11.343Zm3.624-.69a1.453,1.453,0,0,1-1.6,1.4c-.615,0-.982-.291-.982-.755,0-.7.777-.982,2.287-1.036l.291-.011ZM.32,22.13c0,.885.658,1.478,1.769,1.478a2.243,2.243,0,0,0,1.866-.9A1.6,1.6,0,0,0,4,23.068a.579.579,0,0,0,.615.475c.194,0,.388-.065.388-.119V20.242c0-1.316-.8-2.071-2.265-2.071a2.754,2.754,0,0,0-1.866.593.942.942,0,0,0-.356.647c0,.518.658.529.658.518a1.568,1.568,0,0,1,1.489-.885,1.128,1.128,0,0,1,1.284,1.219v.108H3.8C1.464,20.415.32,20.932.32,22.13Zm3.624-.69a1.453,1.453,0,0,1-1.6,1.4c-.615,0-.982-.291-.982-.755,0-.7.777-.982,2.287-1.036l.291-.011Zm4.326,2.19a2.074,2.074,0,0,0,1.823-1v.4c0,.388.194.507.475.507h.108c.28,0,.475-.119.475-.507V17c0-.744-.345-.917-.68-.917a.555.555,0,0,0-.388.119v2.826a2.094,2.094,0,0,0-1.78-.852A2.481,2.481,0,0,0,5.843,20.9,2.482,2.482,0,0,0,8.27,23.629Zm1.823-2.406a1.562,1.562,0,0,1-1.618,1.521,1.669,1.669,0,0,1-1.6-1.845A1.643,1.643,0,0,1,8.5,19.055a1.619,1.619,0,0,1,1.6,1.068Zm2.222-4.585a.578.578,0,0,0,.636.615.62.62,0,1,0,.011-1.241A.584.584,0,0,0,12.316,16.639Zm.086,6.386c0,.388.2.507.485.507H13c.28,0,.475-.119.475-.507V18.764c0-.4-.194-.518-.475-.518h-.108c-.28,0-.485.129-.485.518Zm2.017-2.136a2.624,2.624,0,0,0,2.7,2.74A2.561,2.561,0,0,0,18.8,23.09a1.275,1.275,0,0,0,.539-.885c0-.464-.6-.539-.636-.485a1.548,1.548,0,0,1-1.564,1.014,1.724,1.724,0,0,1-1.7-1.845,1.718,1.718,0,0,1,1.7-1.823A1.539,1.539,0,0,1,18.7,20.08c.032.054.636-.032.636-.475a1.291,1.291,0,0,0-.529-.9,2.594,2.594,0,0,0-1.694-.539A2.624,2.624,0,0,0,14.419,20.889Zm5.728-4.25a.578.578,0,0,0,.636.615.62.62,0,1,0,.011-1.241A.584.584,0,0,0,20.147,16.639Zm.086,6.386c0,.388.2.507.485.507h.108c.28,0,.475-.119.475-.507V18.764c0-.4-.194-.518-.475-.518h-.108c-.28,0-.485.129-.485.518Zm2.017-2.136a2.718,2.718,0,1,0,5.437.022,2.718,2.718,0,1,0-5.437-.022Zm4.444.022a1.741,1.741,0,0,1-1.726,1.845,1.761,1.761,0,0,1-1.737-1.866,1.736,1.736,0,1,1,3.463.022Zm4.671-2.74a2.013,2.013,0,0,0-1.726.917c-.022-.69-.378-.841-.669-.841a.53.53,0,0,0-.388.119v4.66c0,.388.194.507.475.507h.119c.27,0,.475-.119.475-.507v-3.01a1.568,1.568,0,0,1,1.456-.906c.755,0,1.2.539,1.2,1.413v2.5c0,.388.194.507.475.507H32.9c.27,0,.475-.119.475-.507V20.393C33.372,19.109,32.735,18.171,31.365,18.171Zm2.859,3.959c0,.885.658,1.478,1.769,1.478a2.243,2.243,0,0,0,1.866-.9,1.6,1.6,0,0,0,.043.356.579.579,0,0,0,.615.475c.194,0,.388-.065.388-.119V20.242c0-1.316-.8-2.071-2.265-2.071a2.754,2.754,0,0,0-1.866.593.942.942,0,0,0-.356.647c0,.518.658.529.658.518a1.568,1.568,0,0,1,1.489-.885,1.128,1.128,0,0,1,1.284,1.219v.108h-.14C35.367,20.415,34.224,20.932,34.224,22.13Zm3.624-.69a1.453,1.453,0,0,1-1.6,1.4c-.615,0-.982-.291-.982-.755,0-.7.777-.982,2.287-1.036l.291-.011Zm2.74,2.093H40.7c.28,0,.475-.119.475-.507V17c0-.744-.345-.917-.68-.917a.555.555,0,0,0-.388.119v6.828C40.1,23.413,40.308,23.532,40.588,23.532Z" transform="translate(4204.38 5358.42)" fill="#0855c4"/>
    <path id="Trazado_18006" data-name="Trazado 18006" d="M1.119,2.374A6.14,6.14,0,0,0,5.064,3.488c3.209,0,5-1.416,5-3.851,0-2.3-1.925-3.209-4.134-3.7-1.51-.34-2.605-.491-2.605-1.548,0-.887.793-1.435,2.114-1.435A4.373,4.373,0,0,1,8.689-5.554,1.812,1.812,0,0,0,9.784-7.008a1.676,1.676,0,0,0-.849-1.34,5.994,5.994,0,0,0-3.511-.906C2.478-9.254.666-7.763.666-5.5c0,2.511,2,3.228,3.945,3.662,1.435.321,2.662.547,2.662,1.642C7.273.751,6.5,1.28,5.046,1.28A4.977,4.977,0,0,1,1.421-.363C1.327-.457.364.241.364,1.015A1.75,1.75,0,0,0,1.119,2.374Zm10.8,4.795a1.23,1.23,0,0,0,.566-.094l4.512-14.4a3.3,3.3,0,0,0,.151-.793c0-.925-.812-1.057-1.359-1.057a1.1,1.1,0,0,0-.566.094L10.69,5.319a3.147,3.147,0,0,0-.151.793C10.539,7,11.351,7.169,11.917,7.169ZM22.885,3.224h6.4c.944,0,1.321-.4,1.321-1.114V1.978c0-.661-.378-1.038-1.321-1.038H23.715a1.731,1.731,0,0,1,.17-.434c.453-1.019,1.68-1.548,3.1-2.133,1.774-.774,3.455-1.586,3.455-3.851,0-2.341-1.661-3.775-4.587-3.775a5.657,5.657,0,0,0-3.417,1,2.718,2.718,0,0,0-1.189,2.114c0,1.4,1.812,1.321,1.812,1.284a2.584,2.584,0,0,1,2.624-2.133c1.321,0,2.058.585,2.058,1.623,0,1.057-1.265,1.548-2.794,2.265C23.206-2.251,21.2-1.118,21.2,1.223v.585C21.2,2.941,21.62,3.224,22.885,3.224Zm13.176.264c3.587,0,5.569-2.02,5.569-5.814V-3.515c0-3.587-2.039-5.72-5.267-5.72-2.85,0-4.833,1.888-4.833,4.4v.076c0,2.246,1.586,3.624,4.078,3.624a4.569,4.569,0,0,0,3.285-1.3,3.421,3.421,0,0,1-.038.925A2.65,2.65,0,0,1,35.872,1.28,3.831,3.831,0,0,1,32.909,0a1.265,1.265,0,0,0-.944,1.34,1.787,1.787,0,0,0,1.019,1.491A6.262,6.262,0,0,0,36.061,3.488Zm.321-6.418c-1.4,0-2.19-.717-2.19-1.982v-.094A2.13,2.13,0,0,1,36.4-7.159c1.472,0,2.3,1.038,2.416,2.813,0,.094.019.208.019.3A3.475,3.475,0,0,1,36.382-2.93ZM48.407,3.488c3.322,0,5.323-2.246,5.323-5.8V-3.5c0-3.53-2-5.758-5.323-5.758s-5.342,2.246-5.342,5.776v1.208C43.065,1.261,45.066,3.488,48.407,3.488Zm0-2.284c-1.642,0-2.53-1.17-2.53-3.3V-3.7c0-2.152.868-3.3,2.53-3.3,1.623,0,2.548,1.189,2.548,3.341V-2.1C50.955.053,50.068,1.2,48.407,1.2Z" transform="translate(4204.472 5340.93)" fill="#0855c4"/>
    <g id="Grupo_20951" data-name="Grupo 20951" transform="translate(4173.406 5337.874)">
      <circle id="Elipse_1441" data-name="Elipse 1441" cx="13.662" cy="13.662" r="13.662" transform="translate(0 0)" fill="#00aded"/>
      <path id="Trazado_17954" data-name="Trazado 17954" d="M6.509,13.243,0,6.735,6.509.228a.768.768,0,0,1,1.09,0h0a.769.769,0,0,1,0,1.089L2.181,6.735,7.6,12.152a.771.771,0,0,1,0,1.091h0A.769.769,0,0,1,6.509,13.243Z" transform="translate(18.922 20.398) rotate(180)" fill="#fff"/>
      <path id="Trazado_17954_-_Contorno" data-name="Trazado 17954 - Contorno" d="M7.391,14.143a1.1,1.1,0,0,1-.783-.325L.1,7.31a.337.337,0,0,1,0-.477L6.607.325A1.109,1.109,0,0,1,8.5,1.11a1.1,1.1,0,0,1-.326.782L2.994,7.071l5.18,5.179a1.109,1.109,0,0,1-.783,1.893ZM.814,7.071l6.27,6.27a.431.431,0,0,0,.613,0,.427.427,0,0,0,.127-.306.433.433,0,0,0-.127-.309L2.279,7.31a.337.337,0,0,1,0-.477L7.7,1.414a.425.425,0,0,0,.127-.3A.434.434,0,0,0,7.085.8Z" transform="translate(19.259 20.734) rotate(180)" fill="#fff"/>
    </g>
  </g>
</svg>
