<svg id="Grupo_20528" data-name="Grupo 20528" xmlns="http://www.w3.org/2000/svg" width="23.75" height="23.75" viewBox="0 0 23.75 23.75">
  <g id="Grupo_20524" data-name="Grupo 20524" transform="translate(0 0)">
    <circle id="Elipse_1413" data-name="Elipse 1413" cx="11.875" cy="11.875" r="11.875" fill="#00aded" opacity="0.366"/>
  </g>
  <circle id="Elipse_1436" data-name="Elipse 1436" cx="9.491" cy="9.491" r="9.491" transform="translate(2.329 2.385)" fill="#00aded"/>
  <path id="Trazado_18089" data-name="Trazado 18089" d="M-.285.21C2.265.21,3.72-.885,3.72-2.76A2.5,2.5,0,0,0,1.83-5.22,2.035,2.035,0,0,0,3.525-7.245c0-1.71-1.365-2.67-3.81-2.67a4.672,4.672,0,0,0-2.535.66,1.789,1.789,0,0,0-.945,1.41A1.079,1.079,0,0,0-2.49-6.81,2.132,2.132,0,0,1-.33-8.2c1.11,0,1.77.465,1.77,1.215,0,.7-.48,1.14-1.38,1.14H-.66c-.66,0-.99.225-.99.75v.12c0,.48.285.75,1.02.75h.51c1.14,0,1.725.45,1.725,1.335,0,.855-.735,1.38-1.9,1.38A2.306,2.306,0,0,1-2.7-3.06,1.094,1.094,0,0,0-4.005-2.01,1.913,1.913,0,0,0-3.03-.525,4.823,4.823,0,0,0-.285.21Z" transform="translate(11.875 16.385)" fill="#fff"/>
</svg>
