<svg xmlns="http://www.w3.org/2000/svg" width="23.625" height="21.921" viewBox="0 0 23.625 21.921">
  <g id="Grupo_20517" data-name="Grupo 20517" transform="translate(0.25 0.25)">
    <g id="Grupo_20121" data-name="Grupo 20121" transform="translate(0 0)">
      <path id="Trazado_16692" data-name="Trazado 16692" d="M27.847,37.147a.46.46,0,0,0,.279-.423V32.99a.46.46,0,0,0-.28-.424l-1.2-.516-.057-.025L26.1,31.82a.23.23,0,0,1-.111-.1,8.177,8.177,0,0,0-2.155-2.489.23.23,0,0,1-.089-.182V26.126a.461.461,0,0,0-.461-.461,3.215,3.215,0,0,0-1.746.518.23.23,0,0,1-.343-.119,3.778,3.778,0,0,0-7.354,1.171.23.23,0,0,1-.168.219,9.976,9.976,0,0,0-4.543,2.653,7.055,7.055,0,0,0-1.856,3.4.23.23,0,0,1-.336.154,1.982,1.982,0,0,1-.772-2.7.461.461,0,1,0-.805-.447A2.894,2.894,0,0,0,6.98,34.681a.23.23,0,0,1,.157.217,6.528,6.528,0,0,0,.919,3.288,8.28,8.28,0,0,0,2.576,2.677.23.23,0,0,1,.1.139q.412,1.781.825,3.562a.459.459,0,0,0,.449.357h2.257a.459.459,0,0,0,.449-.357l.412-1.781a.23.23,0,0,1,.224-.178l.03,0a12.464,12.464,0,0,0,3.221,0l.03,0a.23.23,0,0,1,.224.178q.207.893.414,1.785a.459.459,0,0,0,.449.357H21.97a.459.459,0,0,0,.449-.357l.246-1.065.093-.4.49-2.116a.231.231,0,0,1,.095-.139,8.319,8.319,0,0,0,2.649-2.848.23.23,0,0,1,.111-.1l.525-.225ZM17.622,24.421a2.856,2.856,0,0,1,1.616,5.211.23.23,0,0,1-.131.041H16.137a.23.23,0,0,1-.131-.041,2.856,2.856,0,0,1,1.616-5.211Zm7.893,12.722a.461.461,0,0,0-.23.217,7.364,7.364,0,0,1-2.67,2.858.458.458,0,0,0-.2.284l-.556,2.4-.09.389-.123.529a.23.23,0,0,1-.224.178H20.262a.23.23,0,0,1-.224-.178L19.709,42.4l-.107-.461a.458.458,0,0,0-.448-.357.467.467,0,0,0-.086.008,11.5,11.5,0,0,1-4.168,0,.465.465,0,0,0-.085-.008.458.458,0,0,0-.448.357l-.434,1.873A.23.23,0,0,1,13.71,44H12.551a.23.23,0,0,1-.224-.178q-.382-1.648-.763-3.3a.458.458,0,0,0-.2-.286,6.464,6.464,0,0,1-3.3-5.382A5.9,5.9,0,0,1,9.64,30.9a8.887,8.887,0,0,1,4.138-2.518.23.23,0,0,1,.283.144,3.816,3.816,0,0,0,.462.9.23.23,0,0,1-.06.322.461.461,0,0,0,.258.842h5.8a.461.461,0,0,0,.258-.842.23.23,0,0,1-.06-.322,3.8,3.8,0,0,0,.658-1.778.231.231,0,0,1,.047-.118l.009-.01a2.311,2.311,0,0,1,1.083-.8.23.23,0,0,1,.308.217v2.457a.462.462,0,0,0,.192.374,7.224,7.224,0,0,1,2.265,2.585.461.461,0,0,0,.231.217l.7.3.844.362a.23.23,0,0,1,.14.212v2.822a.23.23,0,0,1-.14.212l-.8.342Z" transform="translate(-5 -23.5)" fill="#00adee" stroke="#00adee" stroke-width="0.5"/>
      <circle id="Elipse_1434" data-name="Elipse 1434" cx="0.425" cy="0.425" r="0.425" transform="translate(17.093 9.222)" fill="#00adee" stroke="#00adee" stroke-width="0.5"/>
    </g>
  </g>
</svg>
