<svg id="Grupo_20527" data-name="Grupo 20527" xmlns="http://www.w3.org/2000/svg" width="23.75" height="23.75" viewBox="0 0 23.75 23.75">
  <g id="Grupo_20524" data-name="Grupo 20524" transform="translate(0 0)">
    <circle id="Elipse_1413" data-name="Elipse 1413" cx="11.875" cy="11.875" r="11.875" fill="#00aded" opacity="0.366"/>
  </g>
  <circle id="Elipse_1436" data-name="Elipse 1436" cx="9.491" cy="9.491" r="9.491" transform="translate(2.329 2.385)" fill="#00aded"/>
  <path id="Trazado_18088" data-name="Trazado 18088" d="M-2.3,0H2.783c.75,0,1.05-.315,1.05-.885V-.99c0-.525-.3-.825-1.05-.825H-1.643a1.376,1.376,0,0,1,.135-.345c.36-.81,1.335-1.23,2.46-1.7C2.362-4.47,3.7-5.115,3.7-6.915c0-1.86-1.32-3-3.645-3a4.5,4.5,0,0,0-2.715.8,2.16,2.16,0,0,0-.945,1.68c0,1.11,1.44,1.05,1.44,1.02A2.053,2.053,0,0,1-.082-8.115c1.05,0,1.635.465,1.635,1.29,0,.84-1.005,1.23-2.22,1.8-1.38.675-2.97,1.575-2.97,3.435v.465C-3.638-.225-3.307,0-2.3,0Z" transform="translate(11.305 16.385)" fill="#fff"/>
</svg>
