<svg xmlns="http://www.w3.org/2000/svg" width="288.535" height="43.957" viewBox="0 0 288.535 43.957">
  <g id="Grupo_21034" data-name="Grupo 21034" transform="translate(-14144 -6571.156)">
    <path id="Trazado_18014" data-name="Trazado 18014" d="M-3.54-4.487A1.185,1.185,0,0,0-2.233-3.27H3.132A1.174,1.174,0,0,0,4.44-4.487v-.5A1.185,1.185,0,0,0,3.132-6.2H-2.233A1.2,1.2,0,0,0-3.54-4.983Z" transform="translate(14238.226 6598.545)" fill="#00aded"/>
    <path id="Trazado_18012" data-name="Trazado 18012" d="M4.508,0H84.532A4.508,4.508,0,0,1,89.04,4.508v34.94a4.508,4.508,0,0,1-4.508,4.508H4.508A4.508,4.508,0,0,1,0,39.448V4.508A4.508,4.508,0,0,1,4.508,0Z" transform="translate(14144 6571.156)" fill="#e2f7ff"/>
    <path id="Trazado_18017" data-name="Trazado 18017" d="M4.508,0H80.023a4.508,4.508,0,0,1,4.508,4.508v34.94a4.508,4.508,0,0,1-4.508,4.508H4.508A4.508,4.508,0,0,1,0,39.448V4.508A4.508,4.508,0,0,1,4.508,0Z" transform="translate(14244.312 6571.156)" fill="#e2f7ff"/>
    <path id="Trazado_18022" data-name="Trazado 18022" d="M4.508,0H89.04a4.508,4.508,0,0,1,4.508,4.508v34.94a4.508,4.508,0,0,1-4.508,4.508H4.508A4.508,4.508,0,0,1,0,39.448V4.508A4.508,4.508,0,0,1,4.508,0Z" transform="translate(14338.986 6571.156)" fill="#0855c4"/>
    <path id="Trazado_18013" data-name="Trazado 18013" d="M.352-2.2A2.853,2.853,0,0,0,3.291.823,2.872,2.872,0,0,0,5.032.3a1.226,1.226,0,0,0,.577-.839c0-.433-.559-.541-.577-.5A1.728,1.728,0,0,1,3.346-.016a2.044,2.044,0,0,1-2.029-2.2A2.012,2.012,0,0,1,3.328-4.407a1.885,1.885,0,0,1,1.65.9.543.543,0,0,0,.541-.5,1.094,1.094,0,0,0-.55-.766,2.828,2.828,0,0,0-1.65-.469A2.881,2.881,0,0,0,.352-2.2ZM6.24.282a.438.438,0,0,0,.487.487h.117a.441.441,0,0,0,.5-.487V.174a.443.443,0,0,0-.5-.5H6.727a.441.441,0,0,0-.487.5Zm3.778.541a1.734,1.734,0,0,0,1.524-.839V.318c0,.325.162.424.4.424h.09c.234,0,.4-.1.4-.424v-5.04c0-.622-.289-.766-.568-.766a.464.464,0,0,0-.325.1v2.362a1.751,1.751,0,0,0-1.488-.712A2.074,2.074,0,0,0,7.989-1.458,2.075,2.075,0,0,0,10.018.823Zm1.524-2.011A1.306,1.306,0,0,1,10.189.083,1.4,1.4,0,0,1,8.855-1.458,1.374,1.374,0,0,1,10.207-3a1.354,1.354,0,0,1,1.334.893Zm1.632-.252A2.156,2.156,0,0,0,15.464.823,2.566,2.566,0,0,0,16.835.471a.868.868,0,0,0,.478-.631c0-.379-.451-.46-.469-.442A1.426,1.426,0,0,1,15.482.12a1.409,1.409,0,0,1-1.461-1.181A.994.994,0,0,1,14-1.224h3.2c.207,0,.271-.072.271-.261v-.072A2.02,2.02,0,0,0,15.392-3.74,2.2,2.2,0,0,0,13.174-1.44Zm3.435-.388h-2.6a1.383,1.383,0,0,1,1.371-1.235A1.191,1.191,0,0,1,16.609-1.828Zm3.3,2.146c0,.325.171.424.406.424h.09c.234,0,.388-.1.388-.424V-2.9h.712c.289,0,.4-.117.4-.334V-3.3c0-.216-.108-.334-.4-.334h-.73v-.316c0-.613.189-.884.622-.884a.975.975,0,0,1,.649.252.416.416,0,0,0,.216-.388.478.478,0,0,0-.234-.406,1.328,1.328,0,0,0-.739-.18c-.866,0-1.38.5-1.38,1.6v.325h-.5c-.289,0-.4.108-.4.325v.063c0,.225.108.343.4.343h.5Zm2.335-.748c0,.739.55,1.235,1.479,1.235a1.875,1.875,0,0,0,1.56-.748,1.341,1.341,0,0,0,.036.3.484.484,0,0,0,.514.4c.162,0,.325-.054.325-.1v-2.66c0-1.1-.667-1.731-1.894-1.731a2.3,2.3,0,0,0-1.56.5.788.788,0,0,0-.3.541c0,.433.55.442.55.433A1.31,1.31,0,0,1,24.2-3.009.943.943,0,0,1,25.274-1.99v.09h-.117C23.2-1.864,22.245-1.431,22.245-.431Zm3.03-.577A1.215,1.215,0,0,1,23.94.165c-.514,0-.821-.243-.821-.631,0-.586.649-.821,1.912-.866l.243-.009ZM27.564.742h.09c.234,0,.4-.1.4-.424v-5.04c0-.622-.289-.766-.568-.766a.464.464,0,0,0-.325.1V.318C27.159.642,27.33.742,27.564.742Zm1.984,0h.09c.234,0,.4-.1.4-.424v-5.04c0-.622-.289-.766-.568-.766a.464.464,0,0,0-.325.1V.318C29.142.642,29.314.742,29.548.742Zm1.28-2.182A2.156,2.156,0,0,0,33.119.823,2.566,2.566,0,0,0,34.489.471a.868.868,0,0,0,.478-.631c0-.379-.451-.46-.469-.442A1.426,1.426,0,0,1,33.137.12a1.409,1.409,0,0,1-1.461-1.181.994.994,0,0,1-.018-.162h3.2c.207,0,.271-.072.271-.261v-.072A2.02,2.02,0,0,0,33.047-3.74,2.2,2.2,0,0,0,30.829-1.44Zm3.435-.388h-2.6a1.383,1.383,0,0,1,1.371-1.235A1.191,1.191,0,0,1,34.264-1.828Zm1.343.361A2.193,2.193,0,0,0,37.862.823,2.141,2.141,0,0,0,39.268.372a1.065,1.065,0,0,0,.451-.739c0-.388-.5-.451-.532-.406A1.294,1.294,0,0,1,37.88.074a1.441,1.441,0,0,1-1.425-1.542A1.436,1.436,0,0,1,37.88-2.991a1.286,1.286,0,0,1,1.307.848c.027.045.532-.027.532-.4a1.079,1.079,0,0,0-.442-.748,2.168,2.168,0,0,0-1.416-.451A2.194,2.194,0,0,0,35.607-1.467ZM40.4-5.02a.483.483,0,0,0,.532.514.475.475,0,0,0,.532-.514.479.479,0,0,0-.523-.523A.489.489,0,0,0,40.4-5.02ZM40.467.318c0,.325.171.424.406.424h.09c.234,0,.4-.1.4-.424V-3.244c0-.334-.162-.433-.4-.433h-.09c-.234,0-.406.108-.406.433Zm7.1-4.058a1.7,1.7,0,0,0-1.506.911,1.407,1.407,0,0,0-1.416-.911,1.611,1.611,0,0,0-1.343.73c-.036-.559-.307-.667-.559-.667a.443.443,0,0,0-.325.1v3.9c0,.325.162.424.4.424h.1c.225,0,.4-.1.4-.424V-2.234A1.254,1.254,0,0,1,44.4-2.955c.64,0,.956.379.956,1.145V.318c0,.325.171.424.406.424h.09c.234,0,.4-.1.4-.424V-2.234a1.267,1.267,0,0,1,1.1-.721c.64,0,.956.379.956,1.109V.318c0,.325.162.424.406.424h.09c.234,0,.4-.1.4-.424V-1.954C49.2-3.072,48.664-3.74,47.564-3.74Zm2.561-1.28a.483.483,0,0,0,.532.514.475.475,0,0,0,.532-.514.479.479,0,0,0-.523-.523A.489.489,0,0,0,50.124-5.02ZM50.2.318c0,.325.171.424.406.424h.09c.234,0,.4-.1.4-.424V-3.244c0-.334-.162-.433-.4-.433H50.6c-.234,0-.406.108-.406.433ZM51.883-1.44A2.156,2.156,0,0,0,54.173.823,2.566,2.566,0,0,0,55.543.471a.868.868,0,0,0,.478-.631c0-.379-.451-.46-.469-.442A1.426,1.426,0,0,1,54.191.12,1.409,1.409,0,0,1,52.73-1.062a.994.994,0,0,1-.018-.162h3.2c.207,0,.271-.072.271-.261v-.072A2.02,2.02,0,0,0,54.1-3.74,2.2,2.2,0,0,0,51.883-1.44Zm3.435-.388h-2.6a1.383,1.383,0,0,1,1.371-1.235A1.191,1.191,0,0,1,55.318-1.828ZM59.249-3.74a1.682,1.682,0,0,0-1.443.766c-.018-.577-.316-.7-.559-.7a.443.443,0,0,0-.325.1v3.9c0,.325.162.424.4.424h.1c.225,0,.4-.1.4-.424V-2.2a1.311,1.311,0,0,1,1.217-.757c.631,0,1,.451,1,1.181V.318c0,.325.162.424.4.424h.1c.225,0,.4-.1.4-.424v-2.2C60.926-2.955,60.394-3.74,59.249-3.74ZM63.514.823a1.22,1.22,0,0,0,.821-.261.535.535,0,0,0,.189-.4c0-.28-.225-.406-.252-.379a.734.734,0,0,1-.613.307c-.424,0-.577-.261-.577-.8V-2.9h.983c.28,0,.388-.117.388-.343v-.063c0-.216-.1-.325-.379-.325H63.09V-4.3c0-.334-.153-.424-.388-.424h-.09c-.243,0-.4.117-.4.424v.667H61.9c-.28,0-.388.117-.388.334v.063c0,.216.108.334.388.334h.316v2.29C62.216.327,62.621.823,63.514.823Zm1.371-2.29A2.182,2.182,0,0,0,67.157.823a2.183,2.183,0,0,0,2.272-2.272,2.19,2.19,0,0,0-2.263-2.29A2.185,2.185,0,0,0,64.885-1.467Zm3.715.018A1.455,1.455,0,0,1,67.157.092a1.472,1.472,0,0,1-1.452-1.56,1.457,1.457,0,0,1,1.452-1.542A1.455,1.455,0,0,1,68.6-1.449Z" transform="translate(14149.116 6606.554)" fill="#0855c4"/>
    <path id="Trazado_18011" data-name="Trazado 18011" d="M1,.466a5.132,5.132,0,0,0,3.3.931C6.976,1.4,8.475.214,8.475-1.822c0-1.925-1.609-2.682-3.456-3.093C3.757-5.2,2.841-5.325,2.841-6.209c0-.742.663-1.2,1.767-1.2A3.655,3.655,0,0,1,7.323-6.161a1.514,1.514,0,0,0,.915-1.215,1.4,1.4,0,0,0-.71-1.12,5.011,5.011,0,0,0-2.935-.757C2.131-9.254.616-8.007.616-6.114c0,2.1,1.673,2.7,3.3,3.061,1.2.268,2.225.458,2.225,1.373,0,.789-.647,1.231-1.862,1.231a4.16,4.16,0,0,1-3.03-1.373C1.169-1.9.364-1.317.364-.67A1.463,1.463,0,0,0,1,.466Zm9.026,4.008a1.028,1.028,0,0,0,.473-.079l3.771-12.04a2.759,2.759,0,0,0,.126-.663c0-.773-.679-.884-1.136-.884a.922.922,0,0,0-.473.079L9,2.928a2.63,2.63,0,0,0-.126.663C8.869,4.332,9.548,4.474,10.021,4.474ZM20.83,1.287h.3A.934.934,0,0,0,22.139.214V-8.071c0-.71-.347-1.073-1.01-1.073h-.679A1.37,1.37,0,0,1,19.11-7.96a1.468,1.468,0,0,1-.963-.347,1.116,1.116,0,0,0-.615,1.1,1.272,1.272,0,0,0,.394.947,1.545,1.545,0,0,0,1.01.363,1.412,1.412,0,0,0,.915-.331V.214C19.851.908,20.183,1.287,20.83,1.287Zm7.637.11c2.777,0,4.45-1.878,4.45-4.844v-.994c0-2.951-1.673-4.813-4.45-4.813S24-7.376,24-4.426v1.01C24-.465,25.674,1.4,28.467,1.4Zm0-1.909c-1.373,0-2.114-.978-2.114-2.761V-4.615c0-1.8.726-2.761,2.114-2.761,1.357,0,2.13.994,2.13,2.793v1.31C30.6-1.475,29.855-.512,28.467-.512ZM38.6,1.4c2.777,0,4.45-1.878,4.45-4.844v-.994c0-2.951-1.673-4.813-4.45-4.813s-4.466,1.878-4.466,4.828v1.01C34.132-.465,35.8,1.4,38.6,1.4Zm0-1.909c-1.373,0-2.114-.978-2.114-2.761V-4.615c0-1.8.726-2.761,2.114-2.761,1.357,0,2.13.994,2.13,2.793v1.31C40.727-1.475,39.986-.512,38.6-.512Zm5.744.757A.943.943,0,0,0,45.4,1.3h.268A.948.948,0,0,0,46.739.245V.024a.941.941,0,0,0-1.073-1.057H45.4A.937.937,0,0,0,44.341.024ZM52.483,1.4c2.777,0,4.45-1.878,4.45-4.844v-.994c0-2.951-1.673-4.813-4.45-4.813s-4.466,1.878-4.466,4.828v1.01C48.017-.465,49.69,1.4,52.483,1.4Zm0-1.909c-1.373,0-2.114-.978-2.114-2.761V-4.615c0-1.8.726-2.761,2.114-2.761,1.357,0,2.13.994,2.13,2.793v1.31C54.613-1.475,53.871-.512,52.483-.512ZM62.613,1.4c2.777,0,4.45-1.878,4.45-4.844v-.994c0-2.951-1.673-4.813-4.45-4.813s-4.466,1.878-4.466,4.828v1.01C58.148-.465,59.82,1.4,62.613,1.4Zm0-1.909c-1.373,0-2.114-.978-2.114-2.761V-4.615c0-1.8.726-2.761,2.114-2.761,1.357,0,2.13.994,2.13,2.793v1.31C64.743-1.475,64-.512,62.613-.512ZM72.743,1.4c2.777,0,4.45-1.878,4.45-4.844v-.994c0-2.951-1.673-4.813-4.45-4.813s-4.466,1.878-4.466,4.828v1.01C68.278-.465,69.951,1.4,72.743,1.4Zm0-1.909c-1.373,0-2.114-.978-2.114-2.761V-4.615c0-1.8.726-2.761,2.114-2.761,1.357,0,2.13.994,2.13,2.793v1.31C74.874-1.475,74.132-.512,72.743-.512Z" transform="translate(14149.118 6592.522)" fill="#0855c4"/>
    <path id="Trazado_18015" data-name="Trazado 18015" d="M-30.162.466a5.132,5.132,0,0,0,3.3.931c2.682,0,4.182-1.183,4.182-3.219,0-1.925-1.609-2.682-3.456-3.093-1.262-.284-2.178-.41-2.178-1.294,0-.742.663-1.2,1.767-1.2a3.655,3.655,0,0,1,2.714,1.247,1.514,1.514,0,0,0,.915-1.215,1.4,1.4,0,0,0-.71-1.12,5.011,5.011,0,0,0-2.935-.757c-2.462,0-3.976,1.247-3.976,3.14,0,2.1,1.673,2.7,3.3,3.061,1.2.268,2.225.458,2.225,1.373,0,.789-.647,1.231-1.862,1.231a4.16,4.16,0,0,1-3.03-1.373c-.079-.079-.884.5-.884,1.152A1.463,1.463,0,0,0-30.162.466Zm9.026,4.008a1.028,1.028,0,0,0,.473-.079l3.771-12.04a2.759,2.759,0,0,0,.126-.663c0-.773-.679-.884-1.136-.884a.922.922,0,0,0-.473.079l-3.787,12.04a2.63,2.63,0,0,0-.126.663C-22.288,4.332-21.609,4.474-21.136,4.474ZM-9.791,1.4C-7.235,1.4-5.641.072-5.641-2c0-2-1.5-3.235-3.771-3.235a4.955,4.955,0,0,0-1.862.379V-7.14h4.118c.742,0,1.089-.284,1.089-.9v-.079c0-.615-.363-.915-1.089-.915h-4.939c-.773,0-1.12.473-1.12,1.294v3.377c0,.931.458,1.325,1.373,1.357a3.283,3.283,0,0,1,2.1-.631c1.31,0,2.036.6,2.036,1.625s-.8,1.673-2.114,1.673a3.4,3.4,0,0,1-2.809-1.373,1.286,1.286,0,0,0-.963,1.089A1.761,1.761,0,0,0-12.584.734,5.482,5.482,0,0,0-9.791,1.4Zm9.61,0c2.777,0,4.45-1.878,4.45-4.844v-.994c0-2.951-1.673-4.813-4.45-4.813S-4.647-7.376-4.647-4.426v1.01C-4.647-.465-2.974,1.4-.181,1.4Zm0-1.909C-1.554-.512-2.3-1.491-2.3-3.274V-4.615c0-1.8.726-2.761,2.114-2.761,1.357,0,2.13.994,2.13,2.793v1.31C1.949-1.475,1.207-.512-.181-.512ZM5.562.245A.943.943,0,0,0,6.62,1.3h.268A.948.948,0,0,0,7.961.245V.024A.941.941,0,0,0,6.888-1.033H6.62A.937.937,0,0,0,5.562.024ZM13.7,1.4c2.777,0,4.45-1.878,4.45-4.844v-.994c0-2.951-1.673-4.813-4.45-4.813S9.239-7.376,9.239-4.426v1.01C9.239-.465,10.912,1.4,13.7,1.4Zm0-1.909c-1.373,0-2.114-.978-2.114-2.761V-4.615c0-1.8.726-2.761,2.114-2.761,1.357,0,2.13.994,2.13,2.793v1.31C15.835-1.475,15.093-.512,13.7-.512ZM23.835,1.4c2.777,0,4.45-1.878,4.45-4.844v-.994c0-2.951-1.673-4.813-4.45-4.813s-4.466,1.878-4.466,4.828v1.01C19.369-.465,21.042,1.4,23.835,1.4Zm0-1.909c-1.373,0-2.114-.978-2.114-2.761V-4.615c0-1.8.726-2.761,2.114-2.761,1.357,0,2.13.994,2.13,2.793v1.31C25.965-1.475,25.223-.512,23.835-.512ZM33.965,1.4c2.777,0,4.45-1.878,4.45-4.844v-.994c0-2.951-1.673-4.813-4.45-4.813S29.5-7.376,29.5-4.426v1.01C29.5-.465,31.172,1.4,33.965,1.4Zm0-1.909c-1.373,0-2.114-.978-2.114-2.761V-4.615c0-1.8.726-2.761,2.114-2.761,1.357,0,2.13.994,2.13,2.793v1.31C36.1-1.475,35.354-.512,33.965-.512Z" transform="translate(14280.973 6592.522)" fill="#0855c4"/>
    <path id="Trazado_18016" data-name="Trazado 18016" d="M1.632-2.2A2.853,2.853,0,0,0,4.571.822,2.872,2.872,0,0,0,6.312.3,1.226,1.226,0,0,0,6.889-.54c0-.433-.559-.541-.577-.5A1.728,1.728,0,0,1,4.626-.017,2.044,2.044,0,0,1,2.6-2.217,2.012,2.012,0,0,1,4.608-4.408a1.885,1.885,0,0,1,1.65.9.543.543,0,0,0,.541-.5,1.094,1.094,0,0,0-.55-.766A2.828,2.828,0,0,0,4.6-5.246,2.881,2.881,0,0,0,1.632-2.2ZM7.52.281a.438.438,0,0,0,.487.487h.117a.441.441,0,0,0,.5-.487V.173a.443.443,0,0,0-.5-.5H8.007a.441.441,0,0,0-.487.5Zm5.861-4.021a1.729,1.729,0,0,0-1.524.812,1.537,1.537,0,0,0-.027-.252.517.517,0,0,0-.532-.5.443.443,0,0,0-.325.1V2.048c0,.325.162.424.4.424h.1c.225,0,.4-.1.4-.424V.01a1.675,1.675,0,0,0,1.488.812,2.087,2.087,0,0,0,2.056-2.29A2.062,2.062,0,0,0,13.381-3.741ZM13.191.082a1.3,1.3,0,0,1-1.334-1.271V-2.1A1.384,1.384,0,0,1,13.209-3a1.4,1.4,0,0,1,1.334,1.542A1.378,1.378,0,0,1,13.191.082ZM15.9-1.468A2.182,2.182,0,0,0,18.169.822,2.183,2.183,0,0,0,20.441-1.45a2.19,2.19,0,0,0-2.263-2.29A2.185,2.185,0,0,0,15.9-1.468Zm3.715.018A1.455,1.455,0,0,1,18.169.091a1.472,1.472,0,0,1-1.452-1.56A1.457,1.457,0,0,1,18.169-3.01,1.455,1.455,0,0,1,19.611-1.45Zm3.562-2.29a1.1,1.1,0,0,0-1.1.821,1.617,1.617,0,0,0-.036-.325.51.51,0,0,0-.523-.433.443.443,0,0,0-.325.1v3.9c0,.325.162.424.4.424h.1c.225,0,.4-.1.4-.424V-1.207c0-1,.28-1.686.983-1.686a.84.84,0,0,1,.55.189.444.444,0,0,0,.271-.46C23.885-3.524,23.624-3.741,23.173-3.741Zm2.507-1.28a.483.483,0,0,0,.532.514.475.475,0,0,0,.532-.514.479.479,0,0,0-.523-.523A.489.489,0,0,0,25.68-5.021ZM25.752.317c0,.325.171.424.406.424h.09c.234,0,.4-.1.4-.424V-3.245c0-.334-.162-.433-.4-.433h-.09c-.234,0-.406.108-.406.433Zm4.274-4.058a1.682,1.682,0,0,0-1.443.766c-.018-.577-.316-.7-.559-.7a.443.443,0,0,0-.325.1v3.9c0,.325.162.424.4.424h.1c.225,0,.4-.1.4-.424V-2.2a1.311,1.311,0,0,1,1.217-.757c.631,0,1,.451,1,1.181V.317c0,.325.162.424.4.424h.1c.225,0,.4-.1.4-.424v-2.2C31.7-2.956,31.171-3.741,30.026-3.741ZM33.831.5c.081.2.234.261.541.261.289,0,.469-.081.55-.28l1.578-3.9c.018-.045-.18-.261-.46-.261-.225,0-.4.108-.55.532L34.363-.089,33.272-3.146c-.153-.424-.316-.532-.568-.532-.289,0-.487.207-.469.261Zm2.885-.929c0,.739.55,1.235,1.479,1.235a1.875,1.875,0,0,0,1.56-.748,1.341,1.341,0,0,0,.036.3.484.484,0,0,0,.514.4c.162,0,.325-.054.325-.1v-2.66c0-1.1-.667-1.731-1.894-1.731a2.3,2.3,0,0,0-1.56.5.788.788,0,0,0-.3.541c0,.433.55.442.55.433a1.31,1.31,0,0,1,1.244-.739.943.943,0,0,1,1.073,1.019v.09h-.117C37.672-1.865,36.716-1.432,36.716-.432Zm3.03-.577A1.215,1.215,0,0,1,38.411.164c-.514,0-.821-.243-.821-.631,0-.586.649-.821,1.912-.866l.243-.009ZM42.036.741h.09c.234,0,.4-.1.4-.424v-5.04c0-.622-.289-.766-.568-.766a.464.464,0,0,0-.325.1V.317C41.63.641,41.8.741,42.036.741Zm1.506-5.762a.483.483,0,0,0,.532.514.475.475,0,0,0,.532-.514.479.479,0,0,0-.523-.523A.489.489,0,0,0,43.542-5.021ZM43.614.317c0,.325.171.424.406.424h.09c.234,0,.4-.1.4-.424V-3.245c0-.334-.162-.433-.4-.433h-.09c-.234,0-.406.108-.406.433Zm3.715.5a1.734,1.734,0,0,0,1.524-.839V.317c0,.325.162.424.4.424h.09c.234,0,.4-.1.4-.424v-5.04c0-.622-.289-.766-.568-.766a.464.464,0,0,0-.325.1v2.362a1.751,1.751,0,0,0-1.488-.712A2.074,2.074,0,0,0,45.3-1.459,2.075,2.075,0,0,0,47.329.822Zm1.524-2.011A1.306,1.306,0,0,1,47.5.082a1.4,1.4,0,0,1-1.334-1.542A1.374,1.374,0,0,1,47.518-3a1.354,1.354,0,0,1,1.334.893Zm1.632-.252A2.156,2.156,0,0,0,52.775.822,2.566,2.566,0,0,0,54.145.47a.868.868,0,0,0,.478-.631c0-.379-.451-.46-.469-.442a1.426,1.426,0,0,1-1.362.721,1.409,1.409,0,0,1-1.461-1.181.994.994,0,0,1-.018-.162h3.2c.207,0,.271-.072.271-.261v-.072A2.02,2.02,0,0,0,52.7-3.741,2.2,2.2,0,0,0,50.485-1.441Zm3.435-.388h-2.6a1.383,1.383,0,0,1,1.371-1.235A1.191,1.191,0,0,1,53.92-1.829ZM55.291.362A.325.325,0,0,0,55.66.7h2.985c.271,0,.388-.108.388-.334V.317c0-.225-.117-.334-.388-.334H56.4l2.317-2.759c.18-.207.243-.3.243-.469V-3.3c0-.18-.09-.334-.37-.334H55.7c-.271,0-.388.108-.388.325v.063c0,.225.117.325.388.325h2.119L55.543-.2c-.18.207-.252.3-.252.487Z" transform="translate(14250.154 6606.555)" fill="#0855c4"/>
    <path id="Trazado_18020" data-name="Trazado 18020" d="M1.632-2.2A2.853,2.853,0,0,0,4.571.823,2.872,2.872,0,0,0,6.312.3a1.226,1.226,0,0,0,.577-.839c0-.433-.559-.541-.577-.5A1.728,1.728,0,0,1,4.626-.016,2.044,2.044,0,0,1,2.6-2.216,2.012,2.012,0,0,1,4.608-4.407a1.885,1.885,0,0,1,1.65.9.543.543,0,0,0,.541-.5,1.094,1.094,0,0,0-.55-.766A2.828,2.828,0,0,0,4.6-5.245,2.881,2.881,0,0,0,1.632-2.2ZM7.52.282a.438.438,0,0,0,.487.487h.117a.441.441,0,0,0,.5-.487V.174a.443.443,0,0,0-.5-.5H8.007a.441.441,0,0,0-.487.5ZM13.381-3.74a1.729,1.729,0,0,0-1.524.812,1.537,1.537,0,0,0-.027-.252.517.517,0,0,0-.532-.5.443.443,0,0,0-.325.1V2.049c0,.325.162.424.4.424h.1c.225,0,.4-.1.4-.424V.011a1.675,1.675,0,0,0,1.488.812,2.087,2.087,0,0,0,2.056-2.29A2.062,2.062,0,0,0,13.381-3.74ZM13.191.083a1.3,1.3,0,0,1-1.334-1.271V-2.1A1.384,1.384,0,0,1,13.209-3a1.4,1.4,0,0,1,1.334,1.542A1.378,1.378,0,0,1,13.191.083ZM15.9-1.467A2.182,2.182,0,0,0,18.169.823a2.183,2.183,0,0,0,2.272-2.272,2.19,2.19,0,0,0-2.263-2.29A2.185,2.185,0,0,0,15.9-1.467Zm3.715.018A1.455,1.455,0,0,1,18.169.092a1.472,1.472,0,0,1-1.452-1.56,1.457,1.457,0,0,1,1.452-1.542A1.455,1.455,0,0,1,19.611-1.449Zm3.562-2.29a1.1,1.1,0,0,0-1.1.821,1.617,1.617,0,0,0-.036-.325.51.51,0,0,0-.523-.433.443.443,0,0,0-.325.1v3.9c0,.325.162.424.4.424h.1c.225,0,.4-.1.4-.424V-1.206c0-1,.28-1.686.983-1.686a.84.84,0,0,1,.55.189.444.444,0,0,0,.271-.46C23.885-3.523,23.624-3.74,23.173-3.74Zm2.8,4.058c0,.325.171.424.406.424h.09c.234,0,.388-.1.388-.424V-2.9h.712c.289,0,.4-.117.4-.334V-3.3c0-.216-.108-.334-.4-.334h-.73v-.316c0-.613.189-.884.622-.884a.975.975,0,0,1,.649.252.416.416,0,0,0,.216-.388.478.478,0,0,0-.234-.406,1.328,1.328,0,0,0-.739-.18c-.866,0-1.38.5-1.38,1.6v.325h-.5c-.289,0-.4.108-.4.325v.063c0,.225.108.343.4.343h.5ZM28.3-.431C28.3.309,28.853.8,29.782.8a1.875,1.875,0,0,0,1.56-.748,1.341,1.341,0,0,0,.036.3.484.484,0,0,0,.514.4c.162,0,.325-.054.325-.1v-2.66c0-1.1-.667-1.731-1.894-1.731a2.3,2.3,0,0,0-1.56.5.788.788,0,0,0-.3.541c0,.433.55.442.55.433a1.31,1.31,0,0,1,1.244-.739A.943.943,0,0,1,31.333-1.99v.09h-.117C29.259-1.864,28.3-1.431,28.3-.431Zm3.03-.577A1.215,1.215,0,0,1,30,.165c-.514,0-.821-.243-.821-.631,0-.586.649-.821,1.912-.866l.243-.009ZM33.623.742h.09c.234,0,.4-.1.4-.424v-5.04c0-.622-.289-.766-.568-.766a.464.464,0,0,0-.325.1V.318C33.218.642,33.389.742,33.623.742Zm1.984,0h.09c.234,0,.4-.1.4-.424v-5.04c0-.622-.289-.766-.568-.766a.464.464,0,0,0-.325.1V.318C35.2.642,35.373.742,35.607.742Zm1.28-2.182A2.156,2.156,0,0,0,39.178.823,2.566,2.566,0,0,0,40.548.471a.868.868,0,0,0,.478-.631c0-.379-.451-.46-.469-.442A1.426,1.426,0,0,1,39.2.12a1.409,1.409,0,0,1-1.461-1.181.993.993,0,0,1-.018-.162h3.2c.207,0,.271-.072.271-.261v-.072A2.02,2.02,0,0,0,39.105-3.74,2.2,2.2,0,0,0,36.887-1.44Zm3.435-.388h-2.6A1.383,1.383,0,0,1,39.1-3.063,1.191,1.191,0,0,1,40.323-1.828Zm1.343.361A2.193,2.193,0,0,0,43.92.823,2.141,2.141,0,0,0,45.327.372a1.065,1.065,0,0,0,.451-.739c0-.388-.5-.451-.532-.406a1.294,1.294,0,0,1-1.307.848,1.441,1.441,0,0,1-1.425-1.542,1.436,1.436,0,0,1,1.425-1.524,1.286,1.286,0,0,1,1.307.848c.027.045.532-.027.532-.4a1.079,1.079,0,0,0-.442-.748A2.168,2.168,0,0,0,43.92-3.74,2.194,2.194,0,0,0,41.666-1.467ZM46.454-5.02a.483.483,0,0,0,.532.514.475.475,0,0,0,.532-.514A.479.479,0,0,0,47-5.543.489.489,0,0,0,46.454-5.02ZM46.526.318c0,.325.171.424.406.424h.09c.234,0,.4-.1.4-.424V-3.244c0-.334-.162-.433-.4-.433h-.09c-.234,0-.406.108-.406.433Zm7.1-4.058a1.7,1.7,0,0,0-1.506.911A1.407,1.407,0,0,0,50.7-3.74a1.611,1.611,0,0,0-1.343.73c-.036-.559-.307-.667-.559-.667a.443.443,0,0,0-.325.1v3.9c0,.325.162.424.4.424h.1c.225,0,.4-.1.4-.424V-2.234a1.254,1.254,0,0,1,1.091-.721c.64,0,.956.379.956,1.145V.318c0,.325.171.424.406.424h.09c.234,0,.4-.1.4-.424V-2.234a1.267,1.267,0,0,1,1.1-.721c.64,0,.956.379.956,1.109V.318c0,.325.162.424.406.424h.09c.234,0,.4-.1.4-.424V-1.954C55.254-3.072,54.722-3.74,53.622-3.74Zm2.561-1.28a.483.483,0,0,0,.532.514.475.475,0,0,0,.532-.514.479.479,0,0,0-.523-.523A.489.489,0,0,0,56.183-5.02ZM56.255.318c0,.325.171.424.406.424h.09c.234,0,.4-.1.4-.424V-3.244c0-.334-.162-.433-.4-.433h-.09c-.234,0-.406.108-.406.433ZM57.941-1.44A2.156,2.156,0,0,0,60.232.823,2.566,2.566,0,0,0,61.6.471.868.868,0,0,0,62.08-.16c0-.379-.451-.46-.469-.442A1.426,1.426,0,0,1,60.25.12a1.409,1.409,0,0,1-1.461-1.181.993.993,0,0,1-.018-.162h3.2c.207,0,.271-.072.271-.261v-.072A2.02,2.02,0,0,0,60.16-3.74,2.2,2.2,0,0,0,57.941-1.44Zm3.435-.388h-2.6a1.383,1.383,0,0,1,1.371-1.235A1.191,1.191,0,0,1,61.377-1.828ZM65.308-3.74a1.682,1.682,0,0,0-1.443.766c-.018-.577-.316-.7-.559-.7a.443.443,0,0,0-.325.1v3.9c0,.325.162.424.4.424h.1c.225,0,.4-.1.4-.424V-2.2a1.311,1.311,0,0,1,1.217-.757c.631,0,1,.451,1,1.181V.318c0,.325.162.424.4.424h.1c.225,0,.4-.1.4-.424v-2.2C66.985-2.955,66.453-3.74,65.308-3.74ZM69.573.823a1.22,1.22,0,0,0,.821-.261.535.535,0,0,0,.189-.4c0-.28-.225-.406-.252-.379a.734.734,0,0,1-.613.307c-.424,0-.577-.261-.577-.8V-2.9h.983c.28,0,.388-.117.388-.343v-.063c0-.216-.1-.325-.379-.325h-.983V-4.3c0-.334-.153-.424-.388-.424h-.09c-.243,0-.4.117-.4.424v.667h-.316c-.28,0-.388.117-.388.334v.063c0,.216.108.334.388.334h.316v2.29C68.275.327,68.68.823,69.573.823Zm1.371-2.29A2.182,2.182,0,0,0,73.216.823a2.183,2.183,0,0,0,2.272-2.272,2.19,2.19,0,0,0-2.263-2.29A2.185,2.185,0,0,0,70.944-1.467Zm3.715.018A1.455,1.455,0,0,1,73.216.092a1.472,1.472,0,0,1-1.452-1.56,1.457,1.457,0,0,1,1.452-1.542A1.455,1.455,0,0,1,74.658-1.449Z" transform="translate(14348.211 6603.18)" fill="#fff"/>
    <path id="Trazado_18019" data-name="Trazado 18019" d="M11.42,0A11.42,11.42,0,1,1,0,11.42,11.42,11.42,0,0,1,11.42,0Z" transform="translate(14322.45 6582.174)" fill="#00aded"/>
    <path id="Trazado_18018" data-name="Trazado 18018" d="M-2.554-4.842H3.469a.934.934,0,0,0,1.046-.992V-6.05a.938.938,0,0,0-1.046-.974H-2.554A.938.938,0,0,0-3.6-6.05v.216A.934.934,0,0,0-2.554-4.842Zm0,4.364H3.469A.934.934,0,0,0,4.515-1.47v-.216A.929.929,0,0,0,3.469-2.66H-2.554A.929.929,0,0,0-3.6-1.686v.216A.934.934,0,0,0-2.554-.478Z" transform="translate(14333.404 6597.271)" fill="#fff"/>
    <path id="Trazado_18095" data-name="Trazado 18095" d="M-30.1,1.361a5.605,5.605,0,0,0,3.6,1.017c2.93,0,4.567-1.292,4.567-3.516,0-2.1-1.758-2.93-3.774-3.378-1.379-.31-2.378-.448-2.378-1.413,0-.81.724-1.31,1.93-1.31a3.992,3.992,0,0,1,2.964,1.361,1.654,1.654,0,0,0,1-1.327,1.53,1.53,0,0,0-.775-1.224,5.472,5.472,0,0,0-3.205-.827c-2.688,0-4.343,1.361-4.343,3.429,0,2.292,1.827,2.947,3.6,3.343,1.31.293,2.43.5,2.43,1.5,0,.862-.707,1.344-2.033,1.344a4.543,4.543,0,0,1-3.309-1.5c-.086-.086-.965.551-.965,1.258A1.6,1.6,0,0,0-30.1,1.361Zm9.857,4.377a1.123,1.123,0,0,0,.517-.086L-15.611-7.5a3.013,3.013,0,0,0,.138-.724c0-.844-.741-.965-1.241-.965a1.007,1.007,0,0,0-.517.086L-21.367,4.05a2.873,2.873,0,0,0-.138.724C-21.5,5.584-20.763,5.739-20.246,5.739Zm12.39-3.36c2.792,0,4.532-1.448,4.532-3.705,0-2.189-1.637-3.533-4.119-3.533a5.412,5.412,0,0,0-2.033.414v-2.5h4.5c.81,0,1.189-.31,1.189-.982v-.086c0-.672-.4-1-1.189-1h-5.394c-.844,0-1.224.517-1.224,1.413v3.688c0,1.017.5,1.448,1.5,1.482A3.586,3.586,0,0,1-7.8-3.119c1.43,0,2.223.655,2.223,1.775S-6.46.483-7.89.483a3.71,3.71,0,0,1-3.067-1.5A1.4,1.4,0,0,0-12.009.172a1.923,1.923,0,0,0,1.1,1.482A5.986,5.986,0,0,0-7.856,2.378Zm10.495,0c3.033,0,4.86-2.051,4.86-5.29V-4c0-3.223-1.827-5.256-4.86-5.256S-2.238-7.2-2.238-3.981v1.1C-2.238.345-.411,2.378,2.639,2.378Zm0-2.085C1.14.293.33-.775.33-2.723V-4.188C.33-6.152,1.122-7.2,2.639-7.2c1.482,0,2.326,1.086,2.326,3.05v1.43C4.965-.758,4.155.293,2.639.293Zm6.273.827a1.03,1.03,0,0,0,1.155,1.155h.293A1.035,1.035,0,0,0,11.531,1.12V.879A1.028,1.028,0,0,0,10.359-.276h-.293A1.023,1.023,0,0,0,8.912.879ZM17.8,2.378c3.033,0,4.86-2.051,4.86-5.29V-4c0-3.223-1.827-5.256-4.86-5.256S12.927-7.2,12.927-3.981v1.1C12.927.345,14.754,2.378,17.8,2.378Zm0-2.085c-1.5,0-2.309-1.068-2.309-3.016V-4.188c0-1.965.793-3.016,2.309-3.016,1.482,0,2.326,1.086,2.326,3.05v1.43C20.13-.758,19.32.293,17.8.293ZM28.867,2.378c3.033,0,4.86-2.051,4.86-5.29V-4c0-3.223-1.827-5.256-4.86-5.256S23.99-7.2,23.99-3.981v1.1C23.99.345,25.817,2.378,28.867,2.378Zm0-2.085c-1.5,0-2.309-1.068-2.309-3.016V-4.188c0-1.965.793-3.016,2.309-3.016,1.482,0,2.326,1.086,2.326,3.05v1.43C31.194-.758,30.384.293,28.867.293ZM39.931,2.378c3.033,0,4.86-2.051,4.86-5.29V-4c0-3.223-1.827-5.256-4.86-5.256S35.054-7.2,35.054-3.981v1.1C35.054.345,36.881,2.378,39.931,2.378Zm0-2.085c-1.5,0-2.309-1.068-2.309-3.016V-4.188c0-1.965.793-3.016,2.309-3.016,1.482,0,2.326,1.086,2.326,3.05v1.43C42.257-.758,41.447.293,39.931.293Z" transform="translate(14379.772 6591.89)" fill="#fff"/>
  </g>
</svg>
