<svg xmlns="http://www.w3.org/2000/svg" width="38.385" height="35.593" viewBox="0 0 38.385 35.593"><defs><style>.a{fill:#00adee;stroke:#00adee;stroke-width:0.5px;}</style></defs><g transform="translate(-8851.227 -5521.433)"><g transform="translate(8851.477 5521.683)"><path class="a" d="M42.428,45.856a.754.754,0,0,0,.457-.693V39.047a.754.754,0,0,0-.458-.694l-1.974-.845-.094-.04-.785-.337a.377.377,0,0,1-.182-.166,13.4,13.4,0,0,0-3.531-4.078.377.377,0,0,1-.146-.3V27.8a.756.756,0,0,0-.755-.755,5.267,5.267,0,0,0-2.86.848.377.377,0,0,1-.562-.2,6.189,6.189,0,0,0-12.048,1.918.377.377,0,0,1-.275.359,16.342,16.342,0,0,0-7.442,4.346A11.558,11.558,0,0,0,8.734,39.9a.377.377,0,0,1-.551.252,3.247,3.247,0,0,1-1.265-4.416A.755.755,0,1,0,5.6,35a4.742,4.742,0,0,0,2.646,6.816.377.377,0,0,1,.258.355,10.7,10.7,0,0,0,1.506,5.386,13.565,13.565,0,0,0,4.22,4.386.377.377,0,0,1,.157.228q.675,2.918,1.351,5.835a.751.751,0,0,0,.735.584h3.7a.751.751,0,0,0,.735-.584l.676-2.918A.377.377,0,0,1,22,54.8a20.419,20.419,0,0,0,5.277-.005.383.383,0,0,1,.05,0,.377.377,0,0,1,.367.292q.338,1.462.678,2.924a.751.751,0,0,0,.735.584h3.7a.751.751,0,0,0,.735-.584l.4-1.744.153-.66q.4-1.733.8-3.466a.378.378,0,0,1,.156-.227,13.629,13.629,0,0,0,4.34-4.665.377.377,0,0,1,.183-.166l.86-.368ZM25.678,25.009a4.679,4.679,0,0,1,2.648,8.537.378.378,0,0,1-.214.067H23.245a.378.378,0,0,1-.214-.067,4.679,4.679,0,0,1,2.648-8.537Zm12.93,20.842a.755.755,0,0,0-.378.356,12.064,12.064,0,0,1-4.374,4.683.751.751,0,0,0-.329.466q-.456,1.965-.91,3.93l-.148.638-.2.867a.377.377,0,0,1-.368.292H30a.377.377,0,0,1-.368-.292q-.269-1.16-.538-2.321l-.175-.755a.751.751,0,0,0-.734-.585.765.765,0,0,0-.141.013,18.846,18.846,0,0,1-6.829.007.761.761,0,0,0-.139-.013.751.751,0,0,0-.734.585l-.71,3.068a.377.377,0,0,1-.368.292h-1.9A.377.377,0,0,1,17,56.791q-.626-2.7-1.251-5.4a.751.751,0,0,0-.332-.468c-3.438-2.173-5.41-5.386-5.41-8.817A9.673,9.673,0,0,1,12.6,35.625,14.558,14.558,0,0,1,19.38,31.5a.377.377,0,0,1,.463.236,6.251,6.251,0,0,0,.756,1.479.377.377,0,0,1-.1.527.755.755,0,0,0,.423,1.38h9.509a.755.755,0,0,0,.423-1.38.377.377,0,0,1-.1-.527A6.229,6.229,0,0,0,31.836,30.3a.378.378,0,0,1,.078-.194l.014-.017A3.786,3.786,0,0,1,33.7,28.776a.377.377,0,0,1,.5.355v4.025a.757.757,0,0,0,.314.613A11.834,11.834,0,0,1,38.232,38a.755.755,0,0,0,.378.356l1.155.5,1.383.593a.377.377,0,0,1,.229.347v4.623a.377.377,0,0,1-.229.347l-1.308.561Z" transform="translate(-5 -23.5)"/><circle class="a" cx="0.697" cy="0.697" r="0.697" transform="translate(28.002 15.107)"/></g></g></svg>