<svg xmlns="http://www.w3.org/2000/svg" width="17.806" height="17.806" viewBox="0 0 17.806 17.806"><defs><style>.a{fill:#1251c4;}</style></defs><path class="a" d="M414.779-42a8.913,8.913,0,0,0-8.9,8.9,8.913,8.913,0,0,0,8.9,8.9,8.913,8.913,0,0,0,8.9-8.9A8.913,8.913,0,0,0,414.779-42Zm0,16.187a7.292,7.292,0,0,1-7.284-7.284,7.292,7.292,0,0,1,7.284-7.284,7.292,7.292,0,0,1,7.284,7.284A7.292,7.292,0,0,1,414.779-25.813Z" transform="translate(-405.876 42)"/><path class="a" d="M1.079,2.158A1.079,1.079,0,1,0,0,1.079,1.08,1.08,0,0,0,1.079,2.158Z" transform="translate(9.981 5.935) rotate(180)"/><path class="a" d="M.809,6.475a.809.809,0,0,0,.809-.809V.809A.809.809,0,0,0,0,.809V5.665A.809.809,0,0,0,.809,6.475Z" transform="translate(9.712 14.029) rotate(180)"/></svg>