<svg xmlns="http://www.w3.org/2000/svg" width="125.598" height="105.783" viewBox="0 0 125.598 105.783"><defs><style>.a{fill:#fff;}</style></defs><g transform="translate(-2573.214 -991.425)"><g transform="translate(2573.214 991.425)"><path class="a" d="M2573.218,1097.208l0-31.436,1.549-.334c6.879-1.479,10.223-5.372,10.229-11.9a7.717,7.717,0,0,0-2.668-6.2,8.518,8.518,0,0,0-6.775-1.729l-2.334.45,0-21.42a11.755,11.755,0,0,1,8.813-11.373L2698.8,991.425l0,2.362s.022,21.286.007,25.965l0,1.505-1.454.387c-5.094,1.353-10.3,3.827-10.3,11.922a7.893,7.893,0,0,0,2.905,6.6,7.581,7.581,0,0,0,6.406,1.355l2.45-.629-.008,23.891a10.762,10.762,0,0,1-8.773,10.563Zm3.921-28.317,0,23.592,112.16-21a6.835,6.835,0,0,0,5.573-6.707l.007-19.116a11.442,11.442,0,0,1-7.336-2.4,11.909,11.909,0,0,1-4.424-9.7c0-10.724,7.681-14.065,11.763-15.308.006-5.1,0-17.026-.008-22.106L2582.885,1017.1a7.8,7.8,0,0,0-5.741,7.545l0,16.911a12.45,12.45,0,0,1,7.683,2.762,11.459,11.459,0,0,1,4.092,9.231C2588.91,1061.446,2584.847,1066.725,2577.139,1068.89Z" transform="translate(-2573.214 -991.425)"/><path class="a" d="M2636.688,1073.273a27.472,27.472,0,1,1,27.471-27.472A27.5,27.5,0,0,1,2636.688,1073.273Zm0-51.019a23.547,23.547,0,1,0,23.547,23.547A23.573,23.573,0,0,0,2636.688,1022.255Z" transform="translate(-2573.894 -991.933)"/><path class="a" d="M2635.649,1046.547a11.89,11.89,0,0,0-4.223-1.774c-.227-.049-.656-.132-1.283-.25s-1.039-.2-1.233-.254l-.842-.21q-.768-.244-.812-.756-.1-1.174,2.251-1.378a11.054,11.054,0,0,1,3.215.238,12.752,12.752,0,0,1,3.048.972l.038-4.422a14.938,14.938,0,0,0-6.712-.952,8.471,8.471,0,0,0-5.031,1.849,4.681,4.681,0,0,0-1.536,4.126,5.626,5.626,0,0,0,.865,2.578,6.838,6.838,0,0,0,1.879,1.486,6.458,6.458,0,0,0,1.226.461l1.215.359,1.337.271,1.652.347a5.523,5.523,0,0,1,1.19.361,1.333,1.333,0,0,1,.78.988q.122,1.407-2.613,1.642a10.557,10.557,0,0,1-3.743-.4,7.253,7.253,0,0,1-2.848-1.217l0,4.466a12.084,12.084,0,0,0,7.125,1.3,8.422,8.422,0,0,0,5.133-2.013,5.07,5.07,0,0,0,1.685-4.37A4.486,4.486,0,0,0,2635.649,1046.547Z" transform="translate(-2574.144 -992.298)"/><path class="a" d="M2638.7,1057.446l4.565-.841,8.416-23.858h-4.141Z" transform="translate(-2574.45 -992.205)"/></g></g></svg>