<svg xmlns="http://www.w3.org/2000/svg" width="87.008" height="85.422" viewBox="0 0 87.008 85.422"><defs><style>.a{fill:#0855c4;}</style></defs><g transform="translate(-1046.66 -570.821)"><g transform="translate(1046.66 570.821)"><path class="a" d="M1126.305,656.243h-72.282a7.355,7.355,0,0,1-6.549-10.7l36.141-70.711a7.327,7.327,0,0,1,6.55-4.008h0a7.327,7.327,0,0,1,6.549,4.008l36.141,70.711a7.356,7.356,0,0,1-6.55,10.7Zm-37.192-78.6-36.14,70.711a1.179,1.179,0,0,0,1.05,1.716h72.282a1.179,1.179,0,0,0,1.05-1.716l-36.141-70.711a1.135,1.135,0,0,0-1.049-.643h0a1.136,1.136,0,0,0-1.051.643Z" transform="translate(-1046.66 -570.821)"/></g><g transform="translate(1086.87 613.606)"><rect class="a" width="6.176" height="29.365" transform="translate(0 0)"/></g><g transform="translate(1085.12 601.392)"><circle class="a" cx="4.596" cy="4.596" r="4.596" transform="translate(0 0)"/></g></g></svg>