<svg xmlns="http://www.w3.org/2000/svg" width="27.749" height="27.749" viewBox="0 0 27.749 27.749"><defs><style>.a{fill:#fff;}.b{fill:none;stroke:#fff;stroke-linecap:round;stroke-linejoin:round;}</style></defs><g transform="translate(0 0)"><g transform="translate(0 0)"><g transform="translate(0)"><path class="a" d="M1295.874-211A13.89,13.89,0,0,0,1282-197.126a13.89,13.89,0,0,0,13.874,13.874,13.89,13.89,0,0,0,13.874-13.874A13.89,13.89,0,0,0,1295.874-211Zm0,26.853a12.994,12.994,0,0,1-12.979-12.979,12.994,12.994,0,0,1,12.979-12.979,12.994,12.994,0,0,1,12.979,12.979A12.994,12.994,0,0,1,1295.874-184.147Z" transform="translate(-1282 211)"/><g transform="translate(7.31 7.985)"><g transform="translate(0 0)"><g transform="translate(0 0.843)"><path class="b" d="M.843,0H11.8a.843.843,0,0,1,.843.843V10.962a.843.843,0,0,1-.843.843H.843A.843.843,0,0,1,0,10.962V.843A.843.843,0,0,1,.843,0Z" transform="translate(0 0)"/></g><g transform="translate(0 4.216)"><path class="b" d="M0,.5H0Z" transform="translate(0 -0.5)"/></g><g transform="translate(2.523 0)"><path class="b" d="M.5,0V0Z" transform="translate(-0.5)"/></g><g transform="translate(10.112 0)"><path class="b" d="M.5,0V0Z" transform="translate(-0.5)"/></g></g></g></g></g><circle class="a" cx="1" cy="1" r="1" transform="translate(12.294 13.924)"/><circle class="a" cx="1" cy="1" r="1" transform="translate(12.294 16.924)"/><circle class="a" cx="1" cy="1" r="1" transform="translate(9.294 13.924)"/><circle class="a" cx="1" cy="1" r="1" transform="translate(9.294 16.924)"/><circle class="a" cx="1" cy="1" r="1" transform="translate(16.294 13.924)"/><circle class="a" cx="1" cy="1" r="1" transform="translate(16.294 16.924)"/></g></svg>