<svg xmlns="http://www.w3.org/2000/svg" width="48.762" height="55.906" viewBox="0 0 48.762 55.906"><defs>
<style>.a{fill:#0855c4;} .b{fill: #00ADEE;}</style></defs>
<g transform="translate(0)">
	<path class="a" d="M555.714,284.051a2.094,2.094,0,0,1-.639-.1,34.479,34.479,0,0,1-23.742-33.182V240.344a4.785,4.785,0,0,1,3.621-4.7l20.76-7.5,20.76,7.5a4.785,4.785,0,0,1,3.621,4.7v10.425a34.479,34.479,0,0,1-23.742,33.182A2.091,2.091,0,0,1,555.714,284.051Zm0-53.811-20.256,7.307a2.859,2.859,0,0,0-2.155,2.8v10.425a32.516,32.516,0,0,0,22.372,31.305.134.134,0,0,0,.078,0h0a32.516,32.516,0,0,0,22.372-31.305V240.344a2.859,2.859,0,0,0-2.155-2.8l-.113-.033Z" transform="translate(-531.333 -228.146)"/>
</g>
<g transform="translate(17.608 20.916)">
	<path class="b" d="M580.676,291.165a1.975,1.975,0,0,1-1.377-.555l-3.274-3.17,1.37-1.415,3.274,3.17,8.84-7.962,1.32,1.463L582,290.659A1.97,1.97,0,0,1,580.676,291.165Z" transform="translate(-576.025 -281.233)"/>
</g>
<g transform="translate(10.85 11.841)"><path class="a" d="M572.4,286.033a13.922,13.922,0,1,1,13.531-13.917A13.744,13.744,0,0,1,572.4,286.033Zm0-25.864a11.953,11.953,0,1,0,11.561,11.947A11.772,11.772,0,0,0,572.4,260.169Z" transform="translate(-558.871 -258.199)"/></g></svg>