<?xml version="1.0" encoding="utf-8"?>
<!-- Generator: Adobe Illustrator 23.0.6, SVG Export Plug-In . SVG Version: 6.00 Build 0)  -->
<svg version="1.1" id="Capa_1" xmlns="http://www.w3.org/2000/svg" xmlns:xlink="http://www.w3.org/1999/xlink" x="0px" y="0px"
	 viewBox="0 0 40 27" style="enable-background:new 0 0 40 27;" xml:space="preserve">
<style type="text/css">
	.st0{fill:#0855C4;}
</style>
<g id="Grupo_1873" transform="translate(-1280.159 -7281.682)">
	<path id="Trazado_4056" class="st0" d="M1292.2,7297c-5.4,0-10.1,3.6-11.4,8.8l1.8,0.5c1.4-5.3,6.8-8.5,12.1-7
		c3.6,1,6.4,3.9,7.2,7.6l1.9-0.4C1302.7,7301,1297.8,7297,1292.2,7297z"/>
	<path id="Trazado_4057" class="st0" d="M1292.3,7295.5c3.3,0,6-2.7,6-6s-2.7-6-6-6s-6,2.7-6,6S1289,7295.5,1292.3,7295.5z
		 M1292.3,7285.4c2.3,0,4.1,1.8,4.1,4.1c0,2.3-1.8,4.1-4.1,4.1c-2.3,0-4.1-1.8-4.1-4.1c0,0,0,0,0,0
		C1288.2,7287.3,1290,7285.4,1292.3,7285.4L1292.3,7285.4z"/>
	<path id="Trazado_4058" class="st0" d="M1307.8,7297c-1.9,0-3.7,0.4-5.4,1.3l0.9,1.7c1.4-0.7,3-1.1,4.5-1.1c4.7,0,8.8,3.3,9.7,7.9
		l1.9-0.4C1318.3,7301,1313.4,7297,1307.8,7297z"/>
	<path id="Trazado_4059" class="st0" d="M1307.9,7295.5c3.3,0,6-2.7,6-6s-2.7-6-6-6s-6,2.7-6,6S1304.6,7295.5,1307.9,7295.5z
		 M1307.9,7285.4c2.3,0,4.1,1.8,4.1,4.1c0,2.3-1.8,4.1-4.1,4.1c-2.3,0-4.1-1.8-4.1-4.1c0,0,0,0,0,0
		C1303.8,7287.3,1305.6,7285.4,1307.9,7285.4L1307.9,7285.4z"/>
</g>
</svg>
