<svg id="Capa_1" version="1.1" xmlns="http://www.w3.org/2000/svg" xmlns:xlink="http://www.w3.org/1999/xlink" x="0px" y="0px" viewBox="0 0 17 16" xml:space="preserve"><path id="Trazado_3949" d="M15.4,2.9H13V1.9c0-0.3-0.3-0.6-0.6-0.7c-0.3,0-0.6,0.3-0.7,0.6c0,0,0,0,0,0.1v1.1H6.3V1.9                    c0-0.3-0.3-0.6-0.6-0.7c-0.3,0-0.6,0.3-0.7,0.6c0,0,0,0,0,0.1v1.1H2.5C2,2.9,1.7,3.3,1.7,3.7V13c0,0.4,0.4,0.8,0.8,0.8h12.9                    c0.4,0,0.8-0.4,0.8-0.8V3.7C16.2,3.3,15.8,2.9,15.4,2.9z M5.1,3.9v0.5c0,0.3,0.3,0.6,0.6,0.7c0.3,0,0.6-0.3,0.7-0.6c0,0,0,0,0-0.1                    V3.9h5.4v0.5c0,0.3,0.3,0.6,0.6,0.7c0.3,0,0.6-0.3,0.7-0.6c0,0,0,0,0-0.1V3.9h2.2v2.6H2.7V3.9H5.1z M2.7,12.8V7.5h12.4v5.2H2.7z" style="fill: rgb(178, 180, 199);"></path><path id="Trazado_3950" d="M7.2,9.4H5c-0.3,0-0.6,0.2-0.6,0.6c0,0.3,0.2,0.6,0.6,0.6c0,0,0,0,0.1,0h2.2                    c0.3,0,0.6-0.2,0.6-0.6C7.9,9.7,7.6,9.5,7.2,9.4C7.3,9.4,7.3,9.4,7.2,9.4z" style="fill: rgb(178, 180, 199);"></path><path id="Trazado_3951" d="M12.8,9.4h-2.2C10.3,9.4,10,9.7,10,10c0,0.3,0.2,0.6,0.6,0.6c0,0,0,0,0.1,0h2.2                    c0.3,0,0.6-0.2,0.6-0.6C13.4,9.7,13.2,9.5,12.8,9.4C12.9,9.4,12.8,9.4,12.8,9.4z" style="fill: rgb(178, 180, 199);"></path></svg>