<svg xmlns="http://www.w3.org/2000/svg" xmlns:xlink="http://www.w3.org/1999/xlink" width="23.672" height="22.468" viewBox="0 0 23.672 22.468"><defs><style>.a{fill:none;}.b{clip-path:url(#a);}.c{fill:#0855c4;}</style><clipPath id="a"><path class="a" d="M0,0H23.672V22.468H0Z"/></clipPath></defs><path class="a" d="M0,0H23.672V22.468H0Z"/><g class="b"><path class="c" d="M22.75,22.041H.924A.94.94,0,0,1,0,21.089V2.436a.94.94,0,0,1,.924-.952H5.478V.952a.925.925,0,1,1,1.85,0v.532h9.018V.952a.925.925,0,1,1,1.85,0v.532H22.75a.94.94,0,0,1,.924.952V21.089A.94.94,0,0,1,22.75,22.041ZM1.85,3.388V20.137H21.825V3.388H18.2v.96a.925.925,0,1,1-1.85,0v-.96H7.328v.96a.925.925,0,1,1-1.85,0v-.96Z" transform="translate(-0.003 0.427)"/></g><path class="c" d="M2.5,1.285A1.267,1.267,0,0,1,1.248,2.571,1.267,1.267,0,0,1,0,1.285,1.267,1.267,0,0,1,1.248,0,1.267,1.267,0,0,1,2.5,1.285Z" transform="translate(10.586 8.946)"/><path class="c" d="M1.248,0A1.267,1.267,0,0,1,2.5,1.285,1.267,1.267,0,0,1,1.248,2.571,1.267,1.267,0,0,1,0,1.285,1.267,1.267,0,0,1,1.248,0" transform="translate(10.586 14.54)"/><path class="c" d="M1.248,0A1.267,1.267,0,0,1,2.5,1.285,1.267,1.267,0,0,1,1.248,2.571,1.267,1.267,0,0,1,0,1.285,1.267,1.267,0,0,1,1.248,0" transform="translate(5.152 8.946)"/><path class="c" d="M1.248,0A1.267,1.267,0,0,1,2.5,1.285,1.267,1.267,0,0,1,1.248,2.571,1.267,1.267,0,0,1,0,1.285,1.267,1.267,0,0,1,1.248,0" transform="translate(15.883 14.569)"/><path class="c" d="M1.248,0A1.267,1.267,0,0,1,2.5,1.285,1.267,1.267,0,0,1,1.248,2.571,1.267,1.267,0,0,1,0,1.285,1.267,1.267,0,0,1,1.248,0" transform="translate(5.152 14.54)"/><path class="c" d="M1.248,0A1.267,1.267,0,0,1,2.5,1.285,1.267,1.267,0,0,1,1.248,2.571,1.267,1.267,0,0,1,0,1.285,1.267,1.267,0,0,1,1.248,0" transform="translate(15.883 8.965)"/></svg>