<?xml version="1.0" encoding="utf-8"?>
<!-- Generator: Adobe Illustrator 23.0.6, SVG Export Plug-In . SVG Version: 6.00 Build 0)  -->
<svg version="1.1" id="Capa_1" xmlns="http://www.w3.org/2000/svg" xmlns:xlink="http://www.w3.org/1999/xlink" x="0px" y="0px"
	 viewBox="0 0 17 18" style="enable-background:new 0 0 17 18;" xml:space="preserve">
<style type="text/css">
	.st0{fill:#0855C4;}
	.st1{opacity:0.664;}
	.st2{fill:#BCBBBB;}
	.st3{fill:#888989;}
	.st4{fill:#AAAAAA;}
	.st5{fill:#FFFFFF;}
</style>
<g id="Grupo_1842" transform="translate(-1326.156 -729.532)">
	<path id="Trazado_4000" class="st0" d="M1328.8,744.9h12.1c0.7,0,1.3-0.6,1.3-1.3v-7.8c0-0.7-0.6-1.3-1.3-1.3h-1.3v-0.1
		c0-2.2-1.8-3.9-3.9-3.9h-1.7c-2.2,0-3.9,1.8-3.9,3.9v0.1h-1.3c-0.7,0-1.3,0.6-1.3,1.3v7.8C1327.6,744.3,1328.1,744.9,1328.8,744.9z
		 M1331.3,734.5c0-1.5,1.2-2.7,2.7-2.7h1.7c1.5,0,2.7,1.2,2.7,2.7v0.1L1331.3,734.5L1331.3,734.5z M1328.8,735.8
		C1328.8,735.8,1328.8,735.8,1328.8,735.8l12.1,0c0,0,0,0,0,0v7.8c0,0,0,0,0,0h-12.1c0,0,0,0,0,0V735.8z"/>
	<path id="Trazado_4001" class="st0" d="M1335.3,741.3c0.3,0,0.6-0.2,0.7-0.6v-2.6c0-0.4-0.4-0.6-0.7-0.6c-0.3,0-0.6,0.3-0.6,0.6
		v2.6C1334.7,741.1,1335,741.3,1335.3,741.3z"/>
</g>
<g id="Grupo_1820" transform="translate(0 6.698)" class="st1">
	<g id="Grupo_1819" transform="translate(0 0)">
		<path id="Trazado_3965" class="st2" d="M-77,36.2h-3l1.9-11.6h3L-77,36.2z"/>
		<path id="Trazado_3966" class="st2" d="M-82.6,24.5l-2.9,8l-0.3-1.7l0,0l-1-5.2c-0.1-0.7-0.8-1.1-1.4-1H-93l-0.1,0.2
			c1.1,0.3,2.2,0.7,3.2,1.3l2.6,10.1h3.2l4.8-11.6H-82.6z"/>
		<path id="Trazado_3967" class="st2" d="M-58.8,36.2h2.8l-2.4-11.6h-2.4c-0.6,0-1.2,0.3-1.4,0.9l-4.5,10.8h3.2l0.6-1.7h3.8
			L-58.8,36.2z M-62.1,32.1l1.6-4.4l0.9,4.4H-62.1z"/>
		<path id="Trazado_3968" class="st2" d="M-66.5,27.3l0.4-2.5c-0.9-0.3-1.8-0.5-2.7-0.5c-1.5,0-5.1,0.7-5.1,3.8c0,3,4.2,3,4.2,4.6
			c0,1.6-3.8,1.3-5,0.3l-0.4,2.6c1.1,0.5,2.2,0.7,3.4,0.7c2.1,0,5.2-1.1,5.2-4c0-3-4.2-3.3-4.2-4.6S-67.8,26.6-66.5,27.3z"/>
	</g>
	<path id="Trazado_3969" class="st3" d="M-85.8,30.8l-1-5.2c-0.1-0.7-0.8-1.1-1.4-1H-93l-0.1,0.2c1.6,0.4,3.2,1.2,4.5,2.3
		C-87.3,28-86.4,29.3-85.8,30.8z"/>
</g>
<g id="Grupo_1821" transform="translate(54.106 1.489)" class="st1">
	<path id="Trazado_3970" class="st3" d="M-87.8,46.6v-1.5c0-0.5-0.3-0.9-0.8-0.9c0,0-0.1,0-0.1,0c-0.3,0-0.7,0.1-0.8,0.4
		c-0.2-0.3-0.5-0.4-0.8-0.4c-0.3,0-0.5,0.1-0.7,0.3v-0.3h-0.5v2.4h0.5v-1.3c0-0.4,0.2-0.6,0.6-0.6s0.5,0.2,0.5,0.6v1.3h0.5v-1.3
		c0-0.3,0.2-0.6,0.5-0.6c0,0,0.1,0,0.1,0c0.3,0,0.5,0.2,0.5,0.6v1.3L-87.8,46.6z M-80.2,44.2H-81v-0.7h-0.5v0.7H-82v0.5h0.5v1.1
		c0,0.5,0.2,0.9,0.8,0.9c0.2,0,0.4-0.1,0.6-0.2l-0.1-0.4c-0.1,0.1-0.3,0.1-0.4,0.1c-0.2,0-0.3-0.1-0.3-0.4v-1.1h0.8L-80.2,44.2
		L-80.2,44.2z M-75.8,44.2c-0.3,0-0.5,0.1-0.6,0.3v-0.3h-0.5v2.4h0.5v-1.3c0-0.4,0.2-0.6,0.5-0.6c0.1,0,0.2,0,0.3,0l0.1-0.5
		C-75.5,44.2-75.6,44.2-75.8,44.2L-75.8,44.2z M-82.4,44.4c-0.3-0.2-0.6-0.3-1-0.2c-0.6,0-1,0.3-1,0.8c0,0.4,0.3,0.6,0.8,0.7l0.2,0
		c0.3,0,0.4,0.1,0.4,0.2c0,0.2-0.2,0.3-0.5,0.3c-0.3,0-0.6-0.1-0.8-0.2l-0.2,0.4c0.3,0.2,0.7,0.3,1,0.3c0.7,0,1.1-0.3,1.1-0.8
		c0-0.4-0.3-0.6-0.8-0.7l-0.2,0c-0.2,0-0.4-0.1-0.4-0.2c0-0.2,0.2-0.3,0.4-0.3c0.3,0,0.5,0.1,0.7,0.2L-82.4,44.4L-82.4,44.4z
		 M-68.6,44.2c-0.3,0-0.5,0.1-0.6,0.3v-0.3h-0.5v2.4h0.5v-1.3c0-0.4,0.2-0.6,0.5-0.6c0.1,0,0.2,0,0.3,0l0.1-0.5
		C-68.4,44.2-68.5,44.2-68.6,44.2L-68.6,44.2z M-75.2,45.4c0,0.7,0.5,1.2,1.1,1.2c0,0,0.1,0,0.1,0c0.3,0,0.6-0.1,0.8-0.3l-0.2-0.4
		c-0.2,0.1-0.4,0.2-0.6,0.2c-0.4,0-0.7-0.3-0.7-0.7c0,0,0-0.1,0-0.1c0-0.4,0.3-0.7,0.7-0.8c0,0,0,0,0,0c0.2,0,0.4,0.1,0.6,0.2
		l0.2-0.4c-0.2-0.2-0.5-0.3-0.8-0.3c-0.7,0-1.2,0.5-1.3,1.1C-75.2,45.3-75.2,45.4-75.2,45.4L-75.2,45.4z M-70.5,45.4v-1.2H-71v0.3
		c-0.2-0.2-0.5-0.4-0.7-0.3c-0.7,0-1.2,0.6-1.2,1.3c0,0.6,0.5,1.2,1.2,1.2c0.3,0,0.6-0.1,0.7-0.3v0.3h0.5V45.4z M-72.4,45.4
		c0-0.4,0.3-0.7,0.7-0.8c0.4,0,0.7,0.3,0.8,0.7c0,0,0,0.1,0,0.1c0,0.4-0.3,0.7-0.7,0.8c-0.4,0-0.7-0.3-0.8-0.7
		C-72.4,45.5-72.4,45.5-72.4,45.4z M-78.6,44.2c-0.7,0-1.2,0.6-1.2,1.2s0.6,1.2,1.2,1.2c0.3,0,0.7-0.1,1-0.3l-0.2-0.4
		c-0.2,0.2-0.4,0.2-0.7,0.2c-0.4,0-0.7-0.2-0.7-0.6h1.8v-0.2c0.1-0.6-0.3-1.2-0.9-1.2C-78.4,44.2-78.5,44.2-78.6,44.2L-78.6,44.2z
		 M-78.6,44.6c0.3,0,0.6,0.2,0.6,0.6c0,0,0,0,0,0h-1.2C-79.2,44.9-78.9,44.6-78.6,44.6L-78.6,44.6z M-65.7,45.4v-2.1h-0.5v1.2
		c-0.2-0.2-0.5-0.4-0.7-0.3c-0.7,0-1.2,0.6-1.2,1.3c0,0.6,0.5,1.2,1.2,1.2c0.3,0,0.6-0.1,0.7-0.3v0.3h0.5L-65.7,45.4z M-67.6,45.4
		c0-0.4,0.3-0.7,0.7-0.8c0.4,0,0.7,0.3,0.8,0.7c0,0,0,0.1,0,0.1c0,0.4-0.3,0.7-0.7,0.8c-0.4,0-0.7-0.3-0.8-0.7
		C-67.6,45.5-67.6,45.5-67.6,45.4z M-84.9,45.4v-1.2h-0.5v0.3c-0.2-0.2-0.5-0.4-0.7-0.3c-0.7,0-1.2,0.6-1.2,1.3
		c0,0.6,0.5,1.2,1.2,1.2c0.3,0,0.6-0.1,0.7-0.3v0.3h0.5V45.4z M-86.9,45.4c0-0.4,0.3-0.7,0.7-0.8c0.4,0,0.7,0.3,0.8,0.7
		c0,0,0,0.1,0,0.1c0,0.4-0.3,0.7-0.7,0.8c-0.4,0-0.7-0.3-0.8-0.7C-86.9,45.5-86.9,45.5-86.9,45.4z"/>
	<rect id="Rectángulo_1799" x="-82.6" y="26.2" class="st4" width="7.8" height="14"/>
	<path id="Trazado_3971" class="st3" d="M-82.1,33.2c0-2.7,1.2-5.3,3.4-7c-3.9-3-9.4-2.4-12.5,1.5c-3,3.9-2.4,9.4,1.5,12.5
		c3.2,2.5,7.8,2.5,11,0C-80.8,38.5-82.1,35.9-82.1,33.2z"/>
	<path id="Trazado_3972" class="st2" d="M-64.3,33.2c0,4.9-4,8.9-8.9,8.9c-2,0-3.9-0.7-5.5-1.9c3.9-3.1,4.5-8.7,1.5-12.5
		c-0.4-0.5-0.9-1-1.5-1.5c3.9-3,9.4-2.4,12.5,1.5C-65,29.3-64.3,31.2-64.3,33.2z"/>
</g>
<g id="Grupo_1822" transform="translate(100.025 1.488)" class="st1">
	<path id="Trazado_3973" class="st3" d="M-80.3,41.6c4.7,0,9-3.8,9-8.5c-0.1-4.9-4.1-8.8-8.9-8.7c0,0-0.1,0-0.1,0h-4.1
		c-4.7-0.1-8.6,3.6-8.7,8.3c0,0.1,0,0.3,0,0.4c0.1,4.8,4,8.6,8.7,8.5H-80.3"/>
	<path id="Trazado_3974" class="st5" d="M-82.6,37.6v-9.3c1.9,0.7,3.2,2.6,3.2,4.7C-79.3,35-80.6,36.9-82.6,37.6 M-89.4,32.9
		c0-2.1,1.3-3.9,3.2-4.7v9.3C-88.1,36.9-89.4,35-89.4,32.9 M-84.3,25c-4.4,0-7.9,3.5-7.9,7.9c0,0,0,0,0,0c0,4.4,3.5,7.9,7.9,7.9
		c0,0,0,0,0,0c4.4,0,7.9-3.5,7.9-7.9c0,0,0,0,0,0C-76.4,28.6-80,25-84.3,25C-84.3,25-84.3,25-84.3,25"/>
	<path id="Trazado_3975" class="st3" d="M-68.5,28c0-0.8-0.4-0.8-0.8-0.8V27c0.4,0,0.7,0,1.1,0c0.4,0,0.9,0,1.6,0
		c1.8-0.2,3.4,1.1,3.6,3c0,0.1,0,0.1,0,0.2c0,0.9-0.5,3.2-3.7,3.2c-0.5,0-0.9,0-1.3,0c-0.4,0-0.8,0-1.2,0v-0.2
		c0.5-0.1,0.8-0.1,0.8-0.7L-68.5,28z M-67.6,32.3c0,0.7,0.5,0.8,0.9,0.8c1.4,0.1,2.6-1,2.6-2.4c0-0.1,0-0.3,0-0.4
		c0.1-1.5-1-2.8-2.5-2.9c-0.1,0-0.2,0-0.3,0c-0.4,0-0.5,0-0.7,0V32.3z M-62.7,33.1h0.2c0.3,0,0.4,0,0.4-0.3v-2.5
		c0-0.4-0.1-0.5-0.5-0.6v-0.1c0.4-0.1,0.9-0.3,1-0.3c0,0,0.1,0,0.2,0c0,0,0.1,0.1,0.1,0.1v3.5c0,0.3,0.2,0.3,0.5,0.3h0.2v0.2
		c-0.3,0-0.6,0-1,0s-0.7,0-1,0L-62.7,33.1z M-61.8,27.8c-0.2,0-0.4-0.2-0.4-0.5c0-0.2,0.2-0.4,0.4-0.4c0.2,0,0.4,0.2,0.4,0.4
		C-61.3,27.6-61.5,27.8-61.8,27.8L-61.8,27.8z M-59.9,30.4c0-0.3-0.1-0.4-0.5-0.6v-0.2c0.4-0.1,0.8-0.3,1.2-0.4c0,0,0.1,0,0.1,0.1
		v0.6c0.4-0.4,1-0.6,1.6-0.7c0.8,0,1,0.6,1,1.3v2.3c0,0.3,0.2,0.3,0.5,0.3h0.2v0.2c-0.3,0-0.6,0-1,0s-0.7,0-1,0v-0.2h0.2
		c0.3,0,0.4,0,0.4-0.3v-2.3c0-0.5-0.3-0.8-0.8-0.8c-0.4,0.1-0.7,0.2-1.1,0.4v2.7c0,0.3,0.2,0.3,0.5,0.3h0.2v0.2c-0.3,0-0.6,0-1,0
		s-0.7,0-1,0v-0.2h0.2c0.3,0,0.4,0,0.4-0.3L-59.9,30.4z M-55.3,30.9c0,0.2,0,0.4,0,0.5c0,0.8,0.5,1.5,1.3,1.6c0.5,0,0.9-0.2,1.2-0.6
		l0.1,0.1c-0.4,0.6-1,1-1.7,1c-1,0-1.8-0.9-1.7-1.9c0,0,0-0.1,0-0.1c0-1.8,1.2-2.3,1.8-2.3c0.8-0.1,1.5,0.6,1.5,1.3c0,0,0,0.1,0,0.1
		c0,0.1,0,0.1,0,0.2l-0.1,0.1L-55.3,30.9z M-53.7,30.6c0.2,0,0.3-0.1,0.3-0.2c0-0.4-0.3-0.8-0.7-0.8c0,0-0.1,0-0.1,0
		c-0.6,0-0.9,0.4-1,1.1H-53.7z M-52.4,33.1h0.2c0.3,0,0.4,0,0.4-0.3v-2.5c0-0.3-0.3-0.3-0.5-0.4v-0.1c0.7-0.3,1-0.5,1.1-0.5
		c0.1,0,0.1,0,0.1,0.1v0.8h0c0.2-0.4,0.6-0.9,1.2-0.9c0.3,0,0.5,0.2,0.5,0.5c0,0.2-0.2,0.5-0.4,0.5c0,0,0,0,0,0
		c-0.3,0-0.3-0.2-0.6-0.2c-0.4,0.1-0.7,0.4-0.7,0.8v2.1c0,0.3,0.2,0.3,0.4,0.3h0.5v0.2c-0.5,0-0.9,0-1.3,0c-0.4,0-0.8,0-1.1,0
		L-52.4,33.1z M-48.9,32.1c0,0.6,0.5,1.1,1.1,1.1c0.4,0.1,0.7-0.2,0.7-0.5c0,0,0-0.1,0-0.1c0-1.1-2-0.7-2-2.2c0-0.7,0.6-1.2,1.3-1.2
		c0,0,0.1,0,0.1,0c0.4,0,0.7,0.1,1,0.3l0.1,0.9h-0.2c0-0.5-0.4-0.9-1-0.9c0,0,0,0,0,0c-0.4,0-0.7,0.2-0.7,0.6c0,0,0,0,0,0
		c0,1.1,2.1,0.7,2.1,2.2c0,0.6-0.5,1.2-1.6,1.2c-0.4,0-0.8-0.1-1.1-0.3l-0.1-1L-48.9,32.1z M-38.1,28.7h-0.2c-0.1-0.9-1-1.6-1.9-1.5
		c0,0,0,0,0,0c-1.4,0-2.6,1.2-2.6,2.6c0,0.1,0,0.2,0,0.3c-0.1,1.6,1.1,3,2.7,3.1c0.9,0,1.7-0.7,1.8-1.6l0.2,0.1l-0.2,1.3
		c-0.6,0.3-1.3,0.5-2,0.5c-1.8,0.1-3.3-1.2-3.5-3c0-0.1,0-0.3,0-0.4c0.1-1.8,1.6-3.3,3.4-3.2c0.7,0,1.5,0.2,2.1,0.5L-38.1,28.7z
		 M-37.8,33.1h0.2c0.3,0,0.4,0,0.4-0.3v-5.1c0-0.6-0.1-0.6-0.5-0.7v-0.1c0.3-0.1,0.6-0.2,0.9-0.4c0.1,0,0.1-0.1,0.2-0.1
		c0.1,0,0.1,0.1,0.1,0.1v6.3c0,0.3,0.2,0.3,0.5,0.3h0.2v0.2c-0.3,0-0.6,0-1,0s-0.7,0-1,0L-37.8,33.1z M-31.9,32.9
		c0,0.2,0.1,0.2,0.3,0.2c0.1,0,0.2,0,0.4,0v0.2c-0.4,0.1-0.9,0.2-1.3,0.3l0,0v-0.7c-0.4,0.4-1,0.7-1.6,0.8c-0.5,0-1-0.4-1-1
		c0,0,0-0.1,0-0.1v-2.3c0-0.2,0-0.5-0.5-0.5v-0.2c0.3,0,1.1-0.1,1.2-0.1c0.1,0,0.1,0.1,0.1,0.3V32c0,0.3,0,1.1,0.8,1.1
		c0.4-0.1,0.8-0.3,1.1-0.6V30c0-0.2-0.4-0.3-0.8-0.4v-0.2c0.8-0.1,1.3-0.1,1.4-0.1c0.1,0,0.1,0.1,0.1,0.2L-31.9,32.9z M-30.1,29.9
		c0.4-0.4,0.8-0.6,1.4-0.7c1,0,1.7,0.9,1.7,1.8c0,0,0,0,0,0.1c0,1.3-0.9,2.3-2.2,2.4c-0.4,0-0.9-0.1-1.3-0.3l-0.3,0.2l-0.2-0.1
		c0.1-0.5,0.1-1.1,0.1-1.6v-3.9c0-0.6-0.1-0.6-0.5-0.7v-0.1c0.3-0.1,0.6-0.2,0.9-0.4c0.1,0,0.1-0.1,0.2-0.1c0.1,0,0.1,0.1,0.1,0.1
		L-30.1,29.9z M-30.1,32.3c0,0.5,0.4,0.9,0.9,0.9c1,0,1.4-1,1.4-1.8c0-0.9-0.6-1.7-1.5-1.8c-0.3,0-0.6,0.2-0.9,0.4L-30.1,32.3z
		 M-69.3,38.6L-69.3,38.6c0.2,0,0.4,0,0.4-0.3v-2.6c0-0.3-0.2-0.3-0.4-0.3h-0.1v-0.1c0.2,0,0.5,0,0.7,0c0.2,0,0.5,0,0.8,0v0.1h-0.1
		c-0.2,0-0.4,0-0.4,0.3v2.6c0,0.3,0.2,0.3,0.4,0.3h0.1v0.1c-0.2,0-0.5,0-0.8,0c-0.2,0-0.5,0-0.7,0L-69.3,38.6z M-64.4,37.8
		L-64.4,37.8l0-1.9c0-0.2-0.1-0.4-0.3-0.5c0,0-0.1,0-0.1,0H-65v-0.1c0.2,0,0.5,0,0.7,0c0.2,0,0.4,0,0.6,0v0.1h-0.1
		c-0.2,0-0.4,0-0.4,0.6v2.2c0,0.2,0,0.3,0,0.5h-0.2l-2.5-2.8v2c0,0.4,0.1,0.6,0.5,0.6h0.1v0.1c-0.2,0-0.4,0-0.6,0
		c-0.2,0-0.4,0-0.7,0v-0.1h0.1c0.3,0,0.4-0.2,0.4-0.6v-2.1c0-0.2-0.2-0.4-0.4-0.4c0,0,0,0,0,0h-0.1v-0.1c0.2,0,0.4,0,0.6,0
		c0.1,0,0.3,0,0.4,0L-64.4,37.8z M-62.9,35.6c-0.4,0-0.4,0.1-0.5,0.4h-0.1c0-0.1,0-0.3,0.1-0.4c0-0.1,0-0.3,0-0.4h0.1
		c0,0.1,0.2,0.1,0.3,0.1h2.6c0.1,0,0.3,0,0.3-0.2l0.1,0c0,0.1,0,0.3-0.1,0.4s0,0.3,0,0.4l-0.1,0.1c0-0.2,0-0.5-0.4-0.5h-0.8v2.6
		c0,0.4,0.2,0.4,0.4,0.4h0.1v0.1c-0.2,0-0.5,0-0.8,0c-0.3,0-0.6,0-0.8,0v-0.1h0.1c0.3,0,0.4,0,0.4-0.4v-2.6L-62.9,35.6z M-59.9,38.6
		L-59.9,38.6c0.2,0,0.4,0,0.4-0.3v-2.6c0-0.3-0.2-0.3-0.4-0.3h-0.1v-0.1c0.3,0,0.8,0,1.2,0s0.9,0,1.3,0c0,0.2,0,0.5,0,0.8l-0.1,0
		c0-0.3-0.1-0.6-0.6-0.6h-0.7v1.3h0.6c0.3,0,0.4-0.2,0.4-0.4h0.1c0,0.2,0,0.4,0,0.6c0,0.2,0,0.4,0,0.6l-0.1,0c0-0.3,0-0.5-0.4-0.5
		h-0.6v1.2c0,0.3,0.3,0.3,0.6,0.3c0.6,0,0.9,0,1-0.6l0.1,0c-0.1,0.3-0.1,0.5-0.2,0.8c-0.3,0-0.9,0-1.3,0s-1,0-1.3,0L-59.9,38.6z
		 M-56.4,35.9c0-0.4-0.2-0.4-0.4-0.4h-0.1v-0.1c0.2,0,0.5,0,0.8,0s0.5,0,0.8,0c0.6,0,1.2,0.2,1.2,0.9c0,0.4-0.3,0.8-0.7,0.9l0.8,1.3
		c0.1,0.2,0.3,0.3,0.5,0.3v0.1c-0.2,0-0.3,0-0.5,0s-0.3,0-0.5,0c-0.4-0.5-0.7-1-1-1.6h-0.3v1.1c0,0.4,0.2,0.4,0.4,0.4h0.1v0.1
		c-0.3,0-0.6,0-0.9,0c-0.2,0-0.5,0-0.7,0v-0.1h0.1c0.2,0,0.4-0.1,0.4-0.3L-56.4,35.9z M-55.8,37h0.2c0.5,0,0.8-0.2,0.8-0.8
		c0-0.4-0.3-0.7-0.6-0.7c0,0-0.1,0-0.1,0c-0.1,0-0.2,0-0.3,0V37z M-50.2,37.8L-50.2,37.8l0-1.9c0-0.2-0.1-0.4-0.3-0.5
		c0,0-0.1,0-0.1,0h-0.1v-0.1c0.2,0,0.5,0,0.7,0c0.2,0,0.4,0,0.6,0v0.1h-0.1c-0.2,0-0.4,0-0.4,0.6v2.2c0,0.2,0,0.3,0,0.5h-0.2
		l-2.5-2.8v2c0,0.4,0.1,0.6,0.5,0.6h0.1v0.1c-0.2,0-0.4,0-0.6,0s-0.5,0-0.7,0v-0.1h0.1c0.3,0,0.4-0.2,0.4-0.6v-2.1
		c0-0.2-0.2-0.4-0.4-0.4c0,0,0,0,0,0h-0.1v-0.1c0.2,0,0.4,0,0.6,0c0.1,0,0.3,0,0.4,0L-50.2,37.8z M-48.6,38.1c0,0.1-0.1,0.3-0.1,0.4
		c0,0.1,0.2,0.2,0.4,0.2h0.1v0.1c-0.2,0-0.4,0-0.6,0c-0.2,0-0.4,0-0.5,0v-0.1h0c0.2,0,0.4-0.1,0.4-0.3l0.8-2.3
		c0.1-0.2,0.1-0.4,0.2-0.6c0.2-0.1,0.3-0.1,0.4-0.2c0,0,0,0,0,0c0,0,0,0,0,0c0,0,0,0.1,0,0.1l0.9,2.6c0.1,0.2,0.1,0.4,0.2,0.5
		c0.1,0.1,0.2,0.2,0.3,0.2h0v0.1c-0.2,0-0.4,0-0.7,0s-0.5,0-0.7,0v-0.1h0.1c0.1,0,0.3,0,0.3-0.1c0-0.1-0.1-0.2-0.1-0.4l-0.2-0.6
		h-1.1L-48.6,38.1z M-47.9,35.9L-47.9,35.9l-0.5,1.4h0.9L-47.9,35.9z M-45.7,35.6c-0.4,0-0.4,0.1-0.5,0.4h-0.2c0-0.1,0-0.3,0.1-0.4
		c0-0.1,0-0.3,0-0.4h0.1c0,0.1,0.2,0.1,0.3,0.1h2.6c0.1,0,0.3,0,0.3-0.2l0.1,0c0,0.1,0,0.3-0.1,0.4s0,0.3,0,0.4l-0.1,0.1
		c0-0.2,0-0.5-0.4-0.5h-0.8v2.6c0,0.4,0.2,0.4,0.4,0.4h0.1v0.1c-0.2,0-0.5,0-0.8,0c-0.3,0-0.6,0-0.8,0v-0.1h0.1c0.3,0,0.4,0,0.4-0.4
		v-2.6L-45.7,35.6z M-42.7,38.6L-42.7,38.6c0.2,0,0.4,0,0.4-0.3v-2.6c0-0.3-0.2-0.3-0.4-0.3h-0.1v-0.1c0.2,0,0.5,0,0.7,0
		s0.5,0,0.8,0v0.1h-0.1c-0.2,0-0.4,0-0.4,0.3v2.6c0,0.3,0.2,0.3,0.4,0.3h0.1v0.1c-0.2,0-0.5,0-0.8,0s-0.5,0-0.7,0L-42.7,38.6z
		 M-39.2,35.3c1-0.1,1.8,0.6,1.9,1.6c0,0,0,0.1,0,0.1c0,1-0.7,1.8-1.7,1.9c0,0-0.1,0-0.1,0c-1,0.1-1.8-0.7-1.8-1.6c0,0,0-0.1,0-0.1
		C-41.1,36.1-40.3,35.3-39.2,35.3C-39.3,35.3-39.2,35.3-39.2,35.3L-39.2,35.3z M-39.2,38.6c1,0,1.1-0.8,1.1-1.6s-0.4-1.6-1.2-1.6
		c-0.9,0-1.1,0.8-1.1,1.4C-40.4,37.8-40,38.6-39.2,38.6L-39.2,38.6z M-34,37.8L-34,37.8l0-1.9c0-0.2-0.1-0.4-0.3-0.5
		c0,0-0.1,0-0.1,0h-0.1v-0.1c0.2,0,0.5,0,0.7,0c0.2,0,0.4,0,0.6,0v0.1h-0.1c-0.2,0-0.4,0-0.4,0.6v2.2c0,0.2,0,0.3,0,0.5h-0.2
		l-2.6-2.8v2c0,0.4,0.1,0.6,0.5,0.6h0.1v0.1c-0.2,0-0.4,0-0.6,0s-0.5,0-0.7,0v-0.1h0.1c0.3,0,0.4-0.2,0.4-0.6v-2.1
		c0-0.2-0.2-0.4-0.4-0.4c0,0,0,0,0,0h-0.1v-0.1c0.2,0,0.4,0,0.6,0c0.1,0,0.3,0,0.4,0L-34,37.8z M-32.4,38.1c0,0.1-0.1,0.3-0.1,0.4
		c0,0.1,0.2,0.2,0.4,0.2h0.1v0.1c-0.2,0-0.4,0-0.6,0c-0.2,0-0.4,0-0.5,0v-0.1h0c0.2,0,0.4-0.1,0.4-0.3L-32,36
		c0.1-0.2,0.1-0.4,0.2-0.6c0.2-0.1,0.3-0.1,0.5-0.2c0,0,0,0,0,0c0,0,0,0,0,0c0,0,0,0.1,0,0.1l0.9,2.6c0.1,0.2,0.1,0.4,0.2,0.5
		c0.1,0.1,0.2,0.2,0.3,0.2h0v0.1c-0.2,0-0.4,0-0.7,0s-0.5,0-0.7,0v-0.1h0.1c0.1,0,0.3,0,0.3-0.1c0-0.1-0.1-0.2-0.1-0.4l-0.2-0.6
		h-1.1L-32.4,38.1z M-31.7,35.9L-31.7,35.9l-0.5,1.4h0.9L-31.7,35.9z M-28.6,38.3c0,0.2,0.1,0.3,0.3,0.3c0.2,0,0.4,0,0.7,0
		c0.2,0,0.4-0.1,0.5-0.3c0.1-0.1,0.1-0.2,0.2-0.4h0.1c-0.1,0.3-0.1,0.6-0.2,0.8c-0.4,0-0.9,0-1.3,0s-0.9,0-1.3,0v-0.1h0.1
		c0.2,0,0.4,0,0.4-0.3v-2.5c0-0.3-0.2-0.3-0.4-0.3h-0.1v-0.1c0.3,0,0.5,0,0.8,0s0.5,0,0.8,0v0.1h-0.1c-0.2,0-0.3,0-0.3,0.3
		L-28.6,38.3z"/>
</g>
<g id="Grupo_1823" transform="translate(181.406)" class="st1">
	<path id="Trazado_3976" class="st3" d="M-72.9,24.3h-20.2v20.2h20.2v-6.7c0.1-0.1,0.1-0.3,0.1-0.4c0-0.2,0-0.3-0.1-0.4"/>
	<path id="Trazado_3977" class="st5" d="M-91.3,33.1l-0.4-0.9l-0.4,0.9 M-82.7,32.7c-0.1,0-0.2,0.1-0.3,0h-0.7v-0.5h0.7
		c0.1,0,0.2,0,0.3,0c0.1,0,0.1,0.1,0.1,0.2C-82.6,32.6-82.6,32.7-82.7,32.7L-82.7,32.7z M-77.8,33.1l-0.4-0.9l-0.4,0.9H-77.8z
		 M-87,34.1h-0.6v-1.9l-0.8,1.9h-0.5l-0.8-1.9v1.9h-1.1l-0.2-0.5h-1.2l-0.2,0.5h-0.6l1-2.4h0.8l1,2.2v-2.2h0.9l0.7,1.6l0.7-1.6h0.9
		L-87,34.1L-87,34.1z M-84.7,34.1h-1.9v-2.4h1.9v0.5H-86v0.4h1.3v0.5H-86v0.5h1.3L-84.7,34.1z M-82,32.4c0,0.3-0.1,0.5-0.4,0.6
		c0.1,0,0.2,0.1,0.3,0.2c0.1,0.1,0.1,0.3,0.1,0.4v0.5h-0.6v-0.3c0-0.2,0-0.3-0.1-0.5c-0.1-0.1-0.2-0.1-0.4-0.1h-0.6v0.9h-0.6v-2.4
		h1.3c0.2,0,0.5,0,0.7,0.1C-82.1,32-82,32.2-82,32.4L-82,32.4z M-81.1,34.1h-0.6v-2.4h0.6V34.1z M-74.4,34.1h-0.8l-1.1-1.8v1.8h-1.1
		l-0.2-0.5h-1.2l-0.2,0.5h-0.7c-0.5,0.1-1.1-0.3-1.1-0.9c0-0.1,0-0.2,0-0.3c0-0.3,0.1-0.7,0.3-0.9c0.2-0.2,0.5-0.3,0.9-0.3h0.5v0.5
		h-0.5c-0.2,0-0.3,0-0.4,0.1c-0.1,0.2-0.2,0.3-0.2,0.5c0,0.2,0,0.4,0.2,0.6c0.1,0.1,0.3,0.1,0.4,0.1h0.3l0.8-1.9h0.8l1,2.2v-2.2h0.9
		l1,1.6v-1.6h0.6L-74.4,34.1L-74.4,34.1z M-93.1,34.6h1l0.2-0.5h0.5l0.2,0.5h1.9v-0.4l0.2,0.4h1l0.2-0.4v0.4h4.7v-0.9h0.1
		c0.1,0,0.1,0,0.1,0.1v0.8h2.4v-0.2c0.3,0.1,0.6,0.2,0.9,0.2h1l0.2-0.5h0.5l0.2,0.5h2v-0.5l0.3,0.5h1.6v-3.3h-1.6v0.4l-0.2-0.4h-1.6
		v0.4l-0.2-0.4h-2.2c-0.3,0-0.7,0.1-0.9,0.2v-0.2h-1.5v0.2c-0.2-0.1-0.4-0.2-0.6-0.2h-5.5l-0.4,0.9l-0.4-0.9h-1.7v0.4l-0.2-0.4h-1.5
		l-0.7,1.6L-93.1,34.6L-93.1,34.6z"/>
	<path id="Trazado_3978" class="st5" d="M-72.9,36.3h-1c-0.1,0-0.2,0-0.2,0c-0.1,0-0.1,0.1-0.1,0.2c0,0.1,0,0.2,0.1,0.2
		c0.1,0,0.1,0,0.2,0l0.3,0c0.2,0,0.5,0,0.6,0.2c0,0,0,0,0.1,0.1 M-72.9,37.9c-0.2,0.2-0.5,0.3-0.8,0.3h-1.1v-0.5h1.1
		c0.1,0,0.2,0,0.2-0.1c0,0,0.1-0.1,0.1-0.2c0-0.1,0-0.1-0.1-0.2c-0.1,0-0.1-0.1-0.2-0.1c-0.5,0-1.2,0-1.2-0.7c0-0.3,0.2-0.7,0.8-0.7
		h1.1v-0.5h-1c-0.3,0-0.5,0.1-0.7,0.2v-0.2h-1.6c-0.2,0-0.5,0.1-0.7,0.2v-0.2h-2.8v0.2c-0.2-0.1-0.5-0.2-0.8-0.2h-1.8v0.2
		c-0.2-0.2-0.5-0.2-0.8-0.2h-2l-0.5,0.5l-0.4-0.5h-3v3.3h3l0.5-0.5l0.5,0.5h1.8v-0.8h0.2c0.3,0,0.5,0,0.8-0.1v0.9h1.5v-0.9h0.1
		c0.1,0,0.1,0,0.1,0.1v0.8h4.6c0.3,0,0.5-0.1,0.8-0.2v0.2h1.5c0.3,0,0.6,0,0.8-0.2L-72.9,37.9L-72.9,37.9z M-75.2,36.9
		c0.1,0.1,0.2,0.3,0.2,0.5c0,0.5-0.3,0.7-0.9,0.7H-77v-0.5h1.1c0.1,0,0.2,0,0.2-0.1c0,0,0.1-0.1,0.1-0.2c0-0.1,0-0.1-0.1-0.2
		c-0.1,0-0.1-0.1-0.2-0.1c-0.5,0-1.2,0-1.2-0.7c0-0.3,0.2-0.7,0.8-0.7h1.1v0.5h-1c-0.1,0-0.2,0-0.2,0c-0.1,0.1-0.1,0.2,0,0.3
		c0,0,0.1,0.1,0.1,0.1c0.1,0,0.1,0,0.2,0l0.3,0C-75.6,36.7-75.4,36.8-75.2,36.9L-75.2,36.9z M-80.3,36.8c-0.1,0-0.2,0.1-0.3,0h-0.7
		v-0.5h0.7c0.1,0,0.2,0,0.3,0c0.1,0,0.1,0.1,0.1,0.2C-80.2,36.7-80.2,36.7-80.3,36.8L-80.3,36.8z M-80,37.1c0.1,0,0.2,0.1,0.3,0.2
		c0.1,0.1,0.1,0.3,0.1,0.4v0.5h-0.6v-0.3c0-0.1,0-0.4-0.1-0.5c-0.1-0.1-0.3-0.1-0.4-0.1h-0.6v0.9h-0.6v-2.4h1.3c0.2,0,0.5,0,0.7,0.1
		c0.2,0.1,0.3,0.3,0.3,0.5C-79.5,36.7-79.7,37-80,37.1L-80,37.1z M-79.2,35.8h1.9v0.5h-1.3v0.4h1.3v0.5h-1.3v0.5h1.3v0.5h-1.9
		L-79.2,35.8z M-83.1,36.9h-0.7v-0.6h0.7c0.2,0,0.3,0.1,0.3,0.3S-82.8,36.9-83.1,36.9L-83.1,36.9z M-84.4,38l-0.9-1l0.9-0.9V38z
		 M-86.6,37.7H-88v-0.5h1.2v-0.5H-88v-0.4h1.4L-86,37L-86.6,37.7z M-82.1,36.6c0,0.7-0.5,0.8-1,0.8h-0.7v0.8h-1.1l-0.7-0.8l-0.7,0.8
		h-2.2v-2.4h2.3l0.7,0.8l0.7-0.8h1.8C-82.6,35.8-82.1,35.9-82.1,36.6L-82.1,36.6z"/>
</g>
</svg>
