<svg xmlns="http://www.w3.org/2000/svg" xmlns:xlink="http://www.w3.org/1999/xlink" width="134" height="45" viewBox="0 0 134 45"><defs><style>.a{fill:#fff;}.b{fill:#2ed35a;}.c{clip-path:url(#a);}.d{clip-path:url(#b);}.e{clip-path:url(#c);}</style><clipPath id="a"><path class="a" d="M1679.539-917.838a10.793,10.793,0,0,0-7.662-3.162,10.846,10.846,0,0,0-7.674,3.159,10.683,10.683,0,0,0-3.2,7.627v.005a10.728,10.728,0,0,0,1.325,5.1l-1.3,5.886,5.955-1.354a10.9,10.9,0,0,0,4.887,1.161h0a10.848,10.848,0,0,0,7.674-3.16,10.667,10.667,0,0,0,3.2-7.627A10.72,10.72,0,0,0,1679.539-917.838Zm-7.662,16.719h0a9.189,9.189,0,0,1-4.367-1.107l-.282-.153-3.959.9.86-3.908-.166-.286a9.08,9.08,0,0,1-1.26-4.538,9.149,9.149,0,0,1,9.176-9.09,9.1,9.1,0,0,1,6.463,2.666,9.032,9.032,0,0,1,2.714,6.428A9.145,9.145,0,0,1,1671.876-901.119Z" transform="translate(-1661 921)"/></clipPath><clipPath id="b"><path class="a" d="M447-251.54H1540.535V-935H447Z" transform="translate(-447 935)"/></clipPath><clipPath id="c"><path class="a" d="M1670.788-913.056h-.477a.916.916,0,0,0-.664.31,2.778,2.778,0,0,0-.87,2.068,4.821,4.821,0,0,0,1.015,2.564,10.2,10.2,0,0,0,4.25,3.743c2.1.826,2.53.662,2.985.62a2.513,2.513,0,0,0,1.68-1.179,2.065,2.065,0,0,0,.145-1.179c-.062-.1-.229-.165-.477-.289s-1.468-.734-1.7-.817-.394-.124-.56.125-.655.821-.8.987-.29.186-.539.062a6.878,6.878,0,0,1-1.992-1.235,7.617,7.617,0,0,1-1.4-1.744c-.145-.248-.016-.382.109-.506s.263-.263.387-.408a1.656,1.656,0,0,0,.243-.414.456.456,0,0,0-.021-.434c-.062-.124-.54-1.35-.761-1.841h0c-.187-.413-.383-.427-.56-.434Z" transform="translate(-1668.777 913.056)"/></clipPath></defs><g transform="translate(-245.709 -616.274)"><path class="b" d="M21,0h92a21,21,0,0,1,21,21v3a21,21,0,0,1-21,21H21A21,21,0,0,1,0,24V21A21,21,0,0,1,21,0Z" transform="translate(245.709 616.274)"/><g transform="translate(259.327 628.387)"><g class="c" transform="translate(0 0)"><g class="d" transform="translate(-921.911 -10.632)"><path class="a" d="M1656-896.633h29.347V-926H1656Z" transform="translate(-737.886 932.835)"/></g></g><g class="e" transform="translate(5.906 6.033)"><g class="d" transform="translate(-927.817 -16.664)"><path class="a" d="M1663.777-901.115h17.706v-16.941h-17.706Z" transform="translate(-739.757 930.923)"/></g></g></g><path class="a" d="M1.984,0h6.1c.512,0,.752-.256.752-.72V-.8c0-.432-.24-.656-.752-.656H2.752V-4.592H6.8c.512,0,.768-.24.768-.688v-.048c0-.432-.24-.656-.768-.656H2.752v-2.9H7.984c.512,0,.768-.24.768-.688v-.1c0-.432-.256-.688-.768-.688h-6a.853.853,0,0,0-.88.928V-.912A.84.84,0,0,0,1.984,0Zm8.432-.48a4.6,4.6,0,0,0,2.64.672c1.984,0,3.2-.944,3.2-2.416,0-1.664-1.648-2.016-2.832-2.272-1.248-.272-1.92-.432-1.92-1.136,0-.64.576-1.056,1.664-1.056A2.783,2.783,0,0,1,15.424-5.6a.842.842,0,0,0,.64-.736.939.939,0,0,0-.192-.544A3.283,3.283,0,0,0,13.1-7.888c-1.872,0-3.072.976-3.072,2.416,0,1.632,1.568,1.984,2.7,2.224,1.264.272,1.984.416,1.984,1.2,0,.64-.608,1.04-1.7,1.04A3.168,3.168,0,0,1,10.432-2.16a.809.809,0,0,0-.624.72A1.262,1.262,0,0,0,10.416-.48Zm6.912-3.376a3.891,3.891,0,0,0,4,4.064,3.8,3.8,0,0,0,2.5-.8,1.891,1.891,0,0,0,.8-1.312c0-.688-.9-.8-.944-.72a2.3,2.3,0,0,1-2.32,1.5,2.557,2.557,0,0,1-2.528-2.736,2.548,2.548,0,0,1,2.528-2.7,2.282,2.282,0,0,1,2.32,1.5c.048.08.944-.048.944-.7a1.914,1.914,0,0,0-.784-1.328,3.847,3.847,0,0,0-2.512-.8A3.892,3.892,0,0,0,17.328-3.856Zm12.24-4.032a1.948,1.948,0,0,0-1.952,1.456,2.87,2.87,0,0,0-.064-.576.905.905,0,0,0-.928-.768.786.786,0,0,0-.576.176V-.688c0,.576.288.752.7.752h.176c.4,0,.7-.176.7-.752v-2.7c0-1.776.5-2.992,1.744-2.992a1.491,1.491,0,0,1,.976.336.788.788,0,0,0,.48-.816C30.832-7.5,30.368-7.888,29.568-7.888Zm2.048-.992c.208,0,2.912-.736,2.912-1.92a.663.663,0,0,0-.688-.72c-1.2,0-2.352,2.288-2.352,2.56C31.488-8.9,31.552-8.88,31.616-8.88ZM32.784.064h.16c.416,0,.7-.176.7-.752v-6.32c0-.592-.288-.768-.7-.768h-.16c-.416,0-.72.192-.72.768v6.32C32.064-.112,32.368.064,32.784.064Zm4.464-1.216A2.977,2.977,0,0,0,39.9.208c2.128,0,3.648-1.648,3.648-4.064,0-2.448-1.536-4.032-3.6-4.032A3.131,3.131,0,0,0,37.264-6.5V-9.632c0-1.1-.528-1.36-1.008-1.36a.786.786,0,0,0-.576.176V-.688c0,.576.288.752.7.752h.176c.4,0,.688-.176.688-.752ZM42.016-3.84a2.446,2.446,0,0,1-2.4,2.736,2.3,2.3,0,0,1-2.368-2.16V-4.976a2.456,2.456,0,0,1,2.4-1.6A2.476,2.476,0,0,1,42.016-3.84Zm2.56.032A3.825,3.825,0,0,0,48.64.208a4.554,4.554,0,0,0,2.432-.624,1.541,1.541,0,0,0,.848-1.12c0-.672-.8-.816-.832-.784a2.531,2.531,0,0,1-2.416,1.28,2.5,2.5,0,0,1-2.592-2.1,1.763,1.763,0,0,1-.032-.288h5.68c.368,0,.48-.128.48-.464v-.128a3.584,3.584,0,0,0-3.7-3.872A3.9,3.9,0,0,0,44.576-3.808Zm6.1-.688H46.064A2.454,2.454,0,0,1,48.5-6.688,2.114,2.114,0,0,1,50.672-4.5Zm7.136-3.392a2.985,2.985,0,0,0-2.56,1.36c-.032-1.024-.56-1.248-.992-1.248a.786.786,0,0,0-.576.176V-.688c0,.576.288.752.7.752h.176c.4,0,.7-.176.7-.752V-5.152A2.326,2.326,0,0,1,57.424-6.5c1.12,0,1.776.8,1.776,2.1V-.688c0,.576.288.752.7.752h.176c.4,0,.7-.176.7-.752v-3.9C60.784-6.5,59.84-7.888,57.808-7.888Zm4.384,4.032A3.872,3.872,0,0,0,66.224.208a3.873,3.873,0,0,0,4.032-4.032A3.886,3.886,0,0,0,66.24-7.888,3.877,3.877,0,0,0,62.192-3.856Zm6.592.032a2.582,2.582,0,0,1-2.56,2.736,2.613,2.613,0,0,1-2.576-2.768,2.585,2.585,0,0,1,2.576-2.736A2.582,2.582,0,0,1,68.784-3.824ZM71.792-.48a4.6,4.6,0,0,0,2.64.672c1.984,0,3.2-.944,3.2-2.416,0-1.664-1.648-2.016-2.832-2.272-1.248-.272-1.92-.432-1.92-1.136,0-.64.576-1.056,1.664-1.056A2.783,2.783,0,0,1,76.8-5.6a.842.842,0,0,0,.64-.736.939.939,0,0,0-.192-.544A3.283,3.283,0,0,0,74.48-7.888c-1.872,0-3.072.976-3.072,2.416,0,1.632,1.568,1.984,2.7,2.224,1.264.272,1.984.416,1.984,1.2,0,.64-.608,1.04-1.7,1.04A3.168,3.168,0,0,1,71.808-2.16a.809.809,0,0,0-.624.72A1.262,1.262,0,0,0,71.792-.48Z" transform="translate(287.709 644.274)"/></g></svg>