<svg xmlns="http://www.w3.org/2000/svg" xmlns:xlink="http://www.w3.org/1999/xlink" width="96.344" height="76.914" viewBox="0 0 96.344 76.914"><defs><style>.a{fill:none;}.b{clip-path:url(#a);}.c{fill:#0855c4;}.d{opacity:0.25;}.e{fill:#00adee;}.f{fill:#fff;}</style><clipPath id="a"><path class="a" d="M0,0H60.287V57.222H0Z"/></clipPath></defs><g transform="translate(-144 -104.161)"><g transform="translate(162.07 117.621)"><path class="a" d="M0,0H60.287V57.222H0Z"/><g class="b"><path class="c" d="M57.939,56.135H2.354A2.393,2.393,0,0,1,0,53.71V6.2A2.393,2.393,0,0,1,2.354,3.778h11.6V2.425a2.356,2.356,0,1,1,4.711,0V3.778H41.63V2.425a2.356,2.356,0,1,1,4.711,0V3.778h11.6A2.393,2.393,0,0,1,60.294,6.2V53.71A2.393,2.393,0,0,1,57.939,56.135ZM4.711,8.628V51.286H55.585V8.628H46.341v2.446a2.356,2.356,0,1,1-4.711,0V8.628H18.664v2.446a2.356,2.356,0,1,1-4.711,0V8.628Z" transform="translate(-0.007 1.086)"/></g><path class="c" d="M6.359,3.274A3.228,3.228,0,0,1,3.18,6.547,3.228,3.228,0,0,1,0,3.274,3.228,3.228,0,0,1,3.18,0,3.228,3.228,0,0,1,6.359,3.274Z" transform="translate(26.961 22.783)"/><path class="c" d="M3.18,0a3.228,3.228,0,0,1,3.18,3.274A3.228,3.228,0,0,1,3.18,6.547,3.228,3.228,0,0,1,0,3.274,3.228,3.228,0,0,1,3.18,0" transform="translate(26.961 37.03)"/><path class="c" d="M3.18,0a3.228,3.228,0,0,1,3.18,3.274A3.228,3.228,0,0,1,3.18,6.547,3.228,3.228,0,0,1,0,3.274,3.228,3.228,0,0,1,3.18,0" transform="translate(13.122 22.783)"/><path class="c" d="M3.18,0a3.228,3.228,0,0,1,3.18,3.274A3.228,3.228,0,0,1,3.18,6.547,3.228,3.228,0,0,1,0,3.274,3.228,3.228,0,0,1,3.18,0" transform="translate(40.45 37.104)"/><path class="c" d="M3.18,0a3.228,3.228,0,0,1,3.18,3.274A3.228,3.228,0,0,1,3.18,6.547,3.228,3.228,0,0,1,0,3.274,3.228,3.228,0,0,1,3.18,0" transform="translate(13.122 37.03)"/><path class="c" d="M3.18,0a3.228,3.228,0,0,1,3.18,3.274A3.228,3.228,0,0,1,3.18,6.547,3.228,3.228,0,0,1,0,3.274,3.228,3.228,0,0,1,3.18,0" transform="translate(40.45 22.832)"/></g><g transform="translate(233.244 131.458)"><g transform="translate(1.166 0)"><rect class="c" width="1.548" height="7.364" transform="matrix(0.855, -0.518, 0.518, 0.855, 0, 0.803)"/></g><g transform="translate(0 1.093)"><rect class="c" width="7.364" height="1.548" transform="translate(0 3.817) rotate(-31.218)"/></g></g><g transform="translate(144 134.607)"><g transform="translate(1.166 0)"><rect class="c" width="1.548" height="7.364" transform="matrix(0.855, -0.518, 0.518, 0.855, 0, 0.803)"/></g><g transform="translate(0 1.093)"><rect class="c" width="7.364" height="1.548" transform="translate(0 3.817) rotate(-31.218)"/></g></g><g transform="translate(185.487 104.161)"><g transform="translate(0.927 0)"><rect class="c" width="1.548" height="6.132" transform="matrix(0.855, -0.518, 0.518, 0.855, 0, 0.803)"/></g><g transform="translate(0 0.866)"><rect class="c" width="6.132" height="1.548" transform="translate(0 3.178) rotate(-31.218)"/></g></g><g class="d" transform="translate(214.548 110.686)"><circle class="e" cx="1.893" cy="1.893" r="1.893" transform="translate(0 0)"/></g><g class="d" transform="translate(149.156 166.86)"><circle class="e" cx="1.643" cy="1.643" r="1.643" transform="translate(0 0)"/></g><g class="d" transform="translate(159.638 115.55)"><circle class="e" cx="1.893" cy="1.893" r="1.893" transform="translate(0)"/></g><g transform="translate(211.024 158.474)"><circle class="f" cx="9.84" cy="9.84" r="9.84" transform="translate(1.148 1.618)"/><g transform="translate(0 0)"><path class="e" d="M973.077,506.723a11.3,11.3,0,1,1,11.3-11.3A11.314,11.314,0,0,1,973.077,506.723Zm0-20.492a9.192,9.192,0,1,0,9.192,9.192A9.2,9.2,0,0,0,973.077,486.23Z" transform="translate(-961.777 -484.122)"/></g><g transform="translate(5.8 6.982)"><path class="e" d="M979.542,509.083l-4.01-4.583,1.587-1.388,2.58,2.949,5.794-5.38,1.435,1.545Z" transform="translate(-975.532 -500.681)"/></g></g></g></svg>