<svg xmlns="http://www.w3.org/2000/svg" width="19.868" height="23.386" viewBox="0 0 19.868 23.386"><defs><style>.a{fill:#717285;}</style></defs><path class="a" d="M2072.473,10054.414l-.34-1.025a10.462,10.462,0,0,1-.536-3.309v-3.766a7.257,7.257,0,0,0-6.634-7.23v-2.944h-1.257v2.947a7.358,7.358,0,0,0-6.625,7.337v3.724a10.489,10.489,0,0,1-.471,3.109l-.359,1.157H2061a3.549,3.549,0,0,0,6.713,0Zm-14.134-4.267v-3.724a6.084,6.084,0,0,1,5.9-6.109,6,6,0,0,1,6.1,6v3.766a11.733,11.733,0,0,0,.41,3.077h-12.8A11.742,11.742,0,0,0,2058.339,10050.147Zm6.014,5.406a2.3,2.3,0,0,1-1.982-1.14h3.964A2.3,2.3,0,0,1,2064.354,10055.554Z" transform="translate(-3933.458 -9456.301) rotate(-11)"/></svg>