<?xml version="1.0" encoding="UTF-8"?>
<svg width="72px" height="72px" viewBox="0 0 72 72" version="1.1" xmlns="http://www.w3.org/2000/svg" xmlns:xlink="http://www.w3.org/1999/xlink">
    <!-- Generator: Sketch 52.5 (67469) - https://www.bohemiancoding.com/sketch -->
    <title>Group 29 Copy</title>
    <desc>Created with Sketch.</desc>
    <defs>
        <polygon id="path-1" points="0.489546631 0.540036217 24.483469 0.540036217 24.483469 33.5854811 0.489546631 33.5854811"></polygon>
        <polygon id="path-3" points="0 0.0783108652 21.3706577 0.0783108652 21.3706577 30.3138833 0 30.3138833"></polygon>
    </defs>
    <g id="Page-1" stroke="none" stroke-width="1" fill="none" fill-rule="evenodd">
        <g id="Group-29-Copy">
            <g id="Group-24">
                <circle id="Oval-Copy-3" fill="#8A70AA" cx="36" cy="36" r="36"></circle>
                <g id="Group-7" transform="translate(21.857143, 15.428571)">
                    <g id="Group-3" transform="translate(5.021563, 0.021388)">
                        <mask id="mask-2" fill="white">
                            <use xlink:href="#path-1"></use>
                        </mask>
                        <g id="Clip-2"></g>
                        <path d="M2.72135256,2.78545292 L22.2518863,2.78545292 L22.2518863,31.3400082 L22.2513283,31.3400082 L2.72135256,31.3400082 L2.72135256,2.78545292 Z M22.2513283,0.53998008 L2.72135256,0.53998008 C1.49051159,0.53998008 0.489546631,1.54707465 0.489546631,2.78545292 L0.489546631,31.3400082 C0.489546631,32.5783865 1.49051159,33.5854811 2.72135256,33.5854811 L22.2513283,33.5854811 C23.4821693,33.5854811 24.4836922,32.5783865 24.4836922,31.3400082 L24.4836922,2.78545292 C24.4836922,1.54707465 23.4821693,0.53998008 22.2513283,0.53998008 Z" id="Fill-1" fill="#FEFEFE" mask="url(#mask-2)"></path>
                    </g>
                    <g id="Group-6" transform="translate(0.000000, 9.003279)">
                        <mask id="mask-4" fill="white">
                            <use xlink:href="#path-3"></use>
                        </mask>
                        <g id="Clip-5"></g>
                        <path d="M20.2720512,28.103496 L3.21045283,28.103496 C2.65138544,28.103496 2.19665499,27.647665 2.19665499,27.0868581 L2.19665499,1.1830835 C2.19665499,0.573998994 1.70398383,0.0783108652 1.09860647,0.0783108652 C0.492671159,0.0783108652 0,0.573998994 0,1.1830835 L0,27.0868581 C0,28.8663954 1.44007278,30.314164 3.21045283,30.314164 L20.2720512,30.314164 C20.8774286,30.314164 21.3706577,29.8179145 21.3706577,29.20883 C21.3706577,28.5991841 20.8774286,28.103496 20.2720512,28.103496" id="Fill-4" fill="#FEFEFE" mask="url(#mask-4)"></path>
                    </g>
                </g>
            </g>
        </g>
    </g>
</svg>