<?xml version="1.0" encoding="utf-8"?>
<!-- Generator: Adobe Illustrator 23.0.6, SVG Export Plug-In . SVG Version: 6.00 Build 0)  -->
<svg version="1.1" id="Capa_1" xmlns="http://www.w3.org/2000/svg" xmlns:xlink="http://www.w3.org/1999/xlink" x="0px" y="0px"
	 viewBox="0 0 17 14" style="enable-background:new 0 0 17 14;" xml:space="preserve">
<style type="text/css">
	.st0{fill:#0855C4;}
</style>
<path id="Trazado_3942" class="st0" d="M15,2.4H2.9c-0.4,0-0.8,0.4-0.8,0.8v8.6c0,0.4,0.4,0.8,0.8,0.8H15c0.4,0,0.8-0.4,0.8-0.8V3.2
	C15.8,2.8,15.4,2.4,15,2.4z M14.8,3.4c-1.7,2.4-3.6,3.6-5.5,3.6c-3,0-5.4-2.8-6-3.6H14.8z M3.1,11.6v-7C3.4,5,3.9,5.4,4.3,5.8
	c1.4,1.3,3.1,2,5,2.1h0c2,0,3.8-1,5.5-3v6.7L3.1,11.6z"/>
</svg>
