<?xml version="1.0" encoding="utf-8"?>
<!-- Generator: Adobe Illustrator 23.0.6, SVG Export Plug-In . SVG Version: 6.00 Build 0)  -->
<svg version="1.1" id="Capa_1" xmlns="http://www.w3.org/2000/svg" xmlns:xlink="http://www.w3.org/1999/xlink" x="0px" y="0px"
	 viewBox="0 0 56 57" style="enable-background:new 0 0 56 57;" xml:space="preserve">
<style type="text/css">
	.st0{fill:#0855C4;}
	.st1{fill:none;}
	.st2{fill:none;stroke:#FFFFFF;stroke-width:2.3;}
</style>
<ellipse id="Elipse_586" class="st0" cx="27.9" cy="28.5" rx="27.6" ry="27.6"/>
<g id="Rectángulo_1701" transform="translate(13.532 17.439)">
	<path class="st1" d="M3.3,0.9h23.1c1.7,0,3,1.3,3,3v14.3c0,1.7-1.3,3-3,3H3.3c-1.7,0-3-1.3-3-3V3.9C0.3,2.2,1.7,0.9,3.3,0.9z"/>
	<path class="st2" d="M3.3,2h23.1c1,0,1.9,0.8,1.9,1.8v14.3c0,1-0.8,1.9-1.9,1.9H3.3c-1,0-1.9-0.8-1.9-1.9V3.9C1.5,2.9,2.3,2,3.3,2z
		"/>
</g>
<path id="Trazado_3829" class="st2" d="M15.4,20.1l14.1,8.2l11.8-8.2"/>
</svg>
