
<svg version="1.1" id="Capa_1" xmlns="http://www.w3.org/2000/svg" xmlns:xlink="http://www.w3.org/1999/xlink" x="0px" y="0px"
	 viewBox="0 0 19 21" style="enable-background:new 0 0 19 21;" xml:space="preserve">
<style type="text/css">
	.st0{fill:#FFFFFF;}
</style>
<g>
	<path class="st0" d="M6.4,9.2l-0.2,0C4.7,8.8,3.9,8.6,3.9,7.7c0-0.9,0.8-1.5,2.1-1.5c0,0,0,0,0,0c1.1,0,2.1,0.5,2.8,1.4l0.1,0.1
		l0.2-0.1c0.5-0.2,0.9-0.6,1-1.3c-0.1-0.5-0.3-1-0.8-1.2c-1-0.7-2.1-1-3.3-1c-2.5,0-4.3,1.4-4.3,3.5c0,2.4,1.9,3.1,3.7,3.5
		C7.1,11.6,8,11.9,8,12.9c0,1.3-1.4,1.5-2.2,1.5c-1.2,0-2.4-0.6-3.1-1.6l-0.1-0.1l-0.2,0c-0.5,0.2-0.9,0.6-1,1.2l0,0l0,0
		c0,0.5,0.3,0.9,0.7,1.3c1,0.8,2.2,1.2,3.5,1.2c0.1,0,0.2,0,0.3,0c2.7,0,4.4-1.4,4.4-3.6C10.3,10.4,8.2,9.6,6.4,9.2z"/>
	<path class="st0" d="M15.4,4.3C15.4,4.3,15.4,4.3,15.4,4.3c-0.2,0-0.3,0-0.5,0.1l-0.1,0l-4.1,13.3c-0.1,0.2-0.1,0.5-0.2,0.8l0,0
		c0,0.7,0.4,1,1.2,1c0.1,0,0.5,0,0.6-0.3l4.1-13.2c0.1-0.2,0.1-0.5,0.2-0.8C16.6,5,16.4,4.3,15.4,4.3z"/>
</g>
</svg>
