<svg xmlns="http://www.w3.org/2000/svg" width="77.636" height="76.637" viewBox="0 0 77.636 76.637"><defs><style>.a{opacity:0.25;}.b{fill:#0855c4;}.c{fill:#fff;}</style></defs><g transform="translate(-870.443 -5632.105)"><g class="a" transform="translate(875.619 5637.803)"><path class="b" d="M929.127,5701.646v3.69a5.392,5.392,0,0,1-5.325,5.458H887.941a5.392,5.392,0,0,1-5.324-5.458v-54.372a5.392,5.392,0,0,1,5.324-5.458H923.8a5.392,5.392,0,0,1,5.325,5.458v3.69" transform="translate(-882.617 -5645.507)"/></g><g transform="translate(884.794 5655.671)"><rect class="b" width="26.814" height="2.126" transform="translate(0)"/></g><g transform="translate(884.794 5662.953)"><rect class="b" width="26.814" height="2.126" transform="translate(0 0)"/></g><g transform="translate(884.794 5669.123)"><rect class="b" width="26.814" height="2.126" transform="translate(0 0)"/></g><g transform="translate(898.201 5688.36)"><rect class="b" width="13.407" height="2.126" transform="translate(0)"/></g><g transform="translate(870.443 5632.105)"><path class="b" d="M919.689,5708.741H877.735a7.3,7.3,0,0,1-7.292-7.292v-54.528l14.815-14.816h34.43a7.3,7.3,0,0,1,7.292,7.292v62.053A7.3,7.3,0,0,1,919.689,5708.741Zm-47.12-60.94v53.648a5.171,5.171,0,0,0,5.166,5.166h41.954a5.171,5.171,0,0,0,5.166-5.166V5639.4a5.172,5.172,0,0,0-5.166-5.166h-33.55Z" transform="translate(-870.443 -5632.104)"/></g><g transform="translate(871.506 5633.167)"><path class="b" d="M881.438,5649.861h-8.495v-2.126h8.495a4.923,4.923,0,0,0,4.917-4.917V5634.6h2.126v8.212A7.051,7.051,0,0,1,881.438,5649.861Z" transform="translate(-872.943 -5634.605)"/></g><g transform="translate(913.566 5647.377)"><path class="c" d="M5.7,0h0a5.7,5.7,0,0,1,5.7,5.7v31.8a0,0,0,0,1,0,0H0a0,0,0,0,1,0,0V5.7A5.7,5.7,0,0,1,5.7,0Z" transform="matrix(0.76, 0.65, -0.65, 0.76, 25.853, 0)"/><path class="b" d="M982.149,5707.147l-10.277-8.779,21.345-24.984a6.758,6.758,0,1,1,10.276,8.779Zm-7.279-9.015,7.044,6.019,19.964-23.368a4.638,4.638,0,0,0-.513-6.532,4.631,4.631,0,0,0-6.531.514Z" transform="translate(-971.872 -5669.745)"/></g><g transform="translate(912.242 5674.811)"><path class="c" d="M972.744,5735.249l-1.456,8.639a1.4,1.4,0,0,0,1.941,1.658l8.3-2.787c.142-.047.217-.238.125-.317l-8.621-7.366C972.945,5735,972.768,5735.1,972.744,5735.249Z" transform="translate(-970.194 -5733.987)"/><path class="b" d="M971.164,5745.282a2.382,2.382,0,0,1-1.57-.566,2.557,2.557,0,0,1-.792-2.441l1.455-8.637a1.31,1.31,0,0,1,.844-1.012,1.2,1.2,0,0,1,1.188.207l8.621,7.366a1.2,1.2,0,0,1,.391,1.142,1.309,1.309,0,0,1-.866.991l-8.306,2.787A3.039,3.039,0,0,1,971.164,5745.282Zm.941-9.812-1.206,7.157a.369.369,0,0,0,.555.474l6.882-2.307Z" transform="translate(-968.757 -5732.551)"/></g><g transform="translate(934.223 5651.843)"><rect class="b" width="2.126" height="11.509" transform="translate(0 1.616) rotate(-49.492)"/></g><g transform="translate(918.632 5655.699)"><rect class="b" width="30.556" height="2.126" transform="matrix(0.65, -0.76, 0.76, 0.65, 0, 23.232)"/></g></g></svg>