<svg xmlns="http://www.w3.org/2000/svg" width="18" height="20" viewBox="0 0 23.639 20"><defs><style>.a{fill:#0855c4;}</style></defs><path class="a" d="M1682.241,9622.26a3.582,3.582,0,0,0-5.033-.512l-1.415,1.155h0l-11.363,9.271a1.174,1.174,0,0,0-.21.226.876.876,0,0,0-.479.605l-1.075,5.757,5.239-.547a.948.948,0,0,0,.933-.42c.039-.025.078-.05.115-.078l11.873-9.687.9-.738a3.576,3.576,0,0,0,.51-5.032Zm-1.24,1.011a1.976,1.976,0,0,1-.282,2.781l-.175.142-2.5-3.063.175-.142A1.978,1.978,0,0,1,1681,9623.271Zm-16.367,13.678.42-2.252,1.334,1.638.323.4Zm3.685-.78-1.27-1.556-1.229-1.508,10.986-8.962,2.5,3.063Z" transform="matrix(0.978, -0.208, 0.208, 0.978, -3626.641, -9060.78)"/></svg>
