<svg xmlns="http://www.w3.org/2000/svg" width="25.471" height="28.873" viewBox="0 0 25.471 28.873"><defs><style>.a{fill:#747791;}</style></defs><g transform="translate(-22 -310)"><g transform="translate(27.588 310)"><path class="a" d="M1408.72,228.706a6.431,6.431,0,1,1,6.431-6.431A6.438,6.438,0,0,1,1408.72,228.706Zm0-10.942a4.511,4.511,0,1,0,4.511,4.511A4.516,4.516,0,0,0,1408.72,217.764Z" transform="translate(-1402.289 -215.844)"/></g><g transform="translate(22 325.088)"><path class="a" d="M1387.161,306.8h-10.655a3.38,3.38,0,0,1-2.471-1.066,3.125,3.125,0,0,1-.843-2.378l.436-5.934a3.291,3.291,0,0,1,3.314-2.987H1394v1.92h-17.056a1.366,1.366,0,0,0-1.4,1.208l-.436,5.934a1.226,1.226,0,0,0,.335.93,1.454,1.454,0,0,0,1.065.453h10.655Z" transform="translate(-1373.183 -294.439)"/></g><g transform="translate(38.159 329.548)"><g transform="translate(0 3.68)"><rect class="a" width="9.304" height="1.92" transform="translate(0 0.045) rotate(-0.28)"/></g><g transform="translate(3.643 0)"><rect class="a" width="9.304" height="1.92" transform="matrix(0.012, -1, 1, 0.012, 0, 9.303)"/></g></g></g></svg>