<svg xmlns="http://www.w3.org/2000/svg" width="13" height="14" viewBox="0 0 19 20.8"><defs><style>.a{fill:#0855c4;}</style></defs><g transform="translate(-197.705 -384.712)"><path class="a" d="M215.165,384.712H199.485a1.782,1.782,0,0,0-1.779,1.78v.78a1.781,1.781,0,0,0,1.561,1.765l-.857,14.006v.015a2.384,2.384,0,0,0,.673,1.756,2.448,2.448,0,0,0,1.779.753h12.565a2.448,2.448,0,0,0,1.772-.747,2.385,2.385,0,0,0,.68-1.745l-.78-14.024h.068a1.781,1.781,0,0,0,1.779-1.78v-.78A1.782,1.782,0,0,0,215.165,384.712Zm-.582,18.409a1.1,1.1,0,0,1-.315.8,1.163,1.163,0,0,1-.843.353H200.86a1.163,1.163,0,0,1-.846-.357,1.1,1.1,0,0,1-.312-.8l.86-14.061H213.8Zm1.066-15.849a.485.485,0,0,1-.485.485H199.485a.485.485,0,0,1-.485-.485v-.78a.485.485,0,0,1,.485-.485h15.681a.485.485,0,0,1,.485.485Z" transform="translate(0)"/><rect class="a" width="1.295" height="11.804" transform="translate(210.38 390.524)"/><rect class="a" width="1.295" height="11.804" transform="translate(206.456 390.524)"/><rect class="a" width="1.295" height="11.804" transform="translate(202.644 390.524)"/></g></svg>
