<svg xmlns="http://www.w3.org/2000/svg" width="217" height="46" viewBox="0 0 217 46"><defs><style>.a,.c,.d,.e,.g{fill:none;}.a,.c,.d,.e{stroke:#0855c4;}.b{fill:#0855c4;}.c{stroke-linejoin:round;}.c,.d{stroke-width:1.2px;}.e{stroke-linecap:round;}.f{stroke:none;}</style></defs><g transform="translate(-81 -1186)"><g class="a" transform="translate(81 1186)"><rect class="f" width="217" height="46" rx="3"/><rect class="g" x="0.5" y="0.5" width="216" height="45" rx="2.5"/></g><path class="b" d="M-65.151,22h6.858c.576,0,.846-.288.846-.81V21.1c0-.486-.27-.738-.846-.738h-5.994V16.834h4.554c.576,0,.864-.27.864-.774v-.054c0-.486-.27-.738-.864-.738h-4.554V12.01H-58.4c.576,0,.864-.27.864-.774v-.108c0-.486-.288-.774-.864-.774h-6.75a.96.96,0,0,0-.99,1.044v9.576A.945.945,0,0,0-65.151,22Zm14.076-8.874a3.359,3.359,0,0,0-2.88,1.53c-.036-1.152-.63-1.4-1.116-1.4a.885.885,0,0,0-.648.2v7.776c0,.648.324.846.792.846h.2c.45,0,.792-.2.792-.846V16.2a2.616,2.616,0,0,1,2.43-1.512c1.26,0,2,.9,2,2.358v4.176c0,.648.324.846.792.846h.2c.45,0,.792-.2.792-.846V16.834C-47.727,14.692-48.789,13.126-51.075,13.126Zm7.776,8.46c.162.4.468.522,1.08.522.576,0,.936-.162,1.1-.558l3.15-7.776c.036-.09-.36-.522-.918-.522-.45,0-.792.216-1.1,1.062l-2.25,6.1-2.178-6.1c-.306-.846-.63-1.062-1.134-1.062-.576,0-.972.414-.936.522Zm6.588-11.016A.965.965,0,0,0-35.649,11.6a.948.948,0,0,0,1.062-1.026.956.956,0,0,0-1.044-1.044A.975.975,0,0,0-36.711,10.57Zm.144,10.656c0,.648.342.846.81.846h.18c.468,0,.792-.2.792-.846v-7.11c0-.666-.324-.864-.792-.864h-.18c-.468,0-.81.216-.81.864ZM-33,19.732c0,1.476,1.1,2.466,2.952,2.466A3.743,3.743,0,0,0-26.937,20.7a2.677,2.677,0,0,0,.072.594.965.965,0,0,0,1.026.792c.324,0,.648-.108.648-.2v-5.31c0-2.2-1.332-3.456-3.78-3.456a4.6,4.6,0,0,0-3.114.99,1.572,1.572,0,0,0-.594,1.08c0,.864,1.1.882,1.1.864A2.616,2.616,0,0,1-29.1,14.584a1.882,1.882,0,0,1,2.142,2.034v.18h-.234C-31.1,16.87-33,17.734-33,19.732Zm6.048-1.152a2.425,2.425,0,0,1-2.664,2.34c-1.026,0-1.638-.486-1.638-1.26,0-1.17,1.3-1.638,3.816-1.728l.486-.018Zm7.83-5.454a2.192,2.192,0,0,0-2.2,1.638,3.229,3.229,0,0,0-.072-.648,1.019,1.019,0,0,0-1.044-.864.885.885,0,0,0-.648.2v7.776c0,.648.324.846.792.846h.2c.45,0,.792-.2.792-.846V18.184c0-2,.558-3.366,1.962-3.366a1.677,1.677,0,0,1,1.1.378.886.886,0,0,0,.54-.918C-17.7,13.558-18.225,13.126-19.125,13.126Zm4.914,4.536a4.378,4.378,0,0,0,4.5,4.572,4.274,4.274,0,0,0,2.808-.9A2.127,2.127,0,0,0-6,19.858c0-.774-1.008-.9-1.062-.81a2.583,2.583,0,0,1-2.61,1.692,2.877,2.877,0,0,1-2.844-3.078A2.867,2.867,0,0,1-9.675,14.62a2.568,2.568,0,0,1,2.61,1.692C-7.011,16.4-6,16.258-6,15.52a2.154,2.154,0,0,0-.882-1.494,4.328,4.328,0,0,0-2.826-.9A4.379,4.379,0,0,0-14.211,17.662Zm9.288,0A4.356,4.356,0,0,0-.387,22.234,4.357,4.357,0,0,0,4.149,17.7,4.372,4.372,0,0,0-.369,13.126,4.362,4.362,0,0,0-4.923,17.662Zm7.416.036a2.9,2.9,0,0,1-2.88,3.078,2.939,2.939,0,0,1-2.9-3.114,2.908,2.908,0,0,1,2.9-3.078A2.9,2.9,0,0,1,2.493,17.7Zm6.57,4.536a2.435,2.435,0,0,0,1.638-.522,1.069,1.069,0,0,0,.378-.792c0-.558-.45-.81-.5-.756a1.466,1.466,0,0,1-1.224.612c-.846,0-1.152-.522-1.152-1.6V14.8h1.962c.558,0,.774-.234.774-.684V13.99c0-.432-.2-.648-.756-.648H8.217V12.01c0-.666-.306-.846-.774-.846h-.18c-.486,0-.792.234-.792.846v1.332h-.63c-.558,0-.774.234-.774.666v.126c0,.432.216.666.774.666h.63v4.572C6.471,21.244,7.281,22.234,9.063,22.234ZM12.429,10.57A.965.965,0,0,0,13.491,11.6a.948.948,0,0,0,1.062-1.026.956.956,0,0,0-1.044-1.044A.975.975,0,0,0,12.429,10.57Zm.144,10.656c0,.648.342.846.81.846h.18c.468,0,.792-.2.792-.846v-7.11c0-.666-.324-.864-.792-.864h-.18c-.468,0-.81.216-.81.864Zm3.6.09a.649.649,0,0,0,.738.684h5.958c.54,0,.774-.216.774-.666v-.108c0-.45-.234-.666-.774-.666H18.387l4.626-5.508c.36-.414.486-.594.486-.936v-.108c0-.36-.18-.666-.738-.666H16.983c-.54,0-.774.216-.774.648v.126c0,.45.234.648.774.648h4.23L16.677,20.2c-.36.414-.5.594-.5.972Zm8.64-1.584c0,1.476,1.1,2.466,2.952,2.466A3.743,3.743,0,0,0,30.879,20.7a2.677,2.677,0,0,0,.072.594.965.965,0,0,0,1.026.792c.324,0,.648-.108.648-.2v-5.31c0-2.2-1.332-3.456-3.78-3.456a4.6,4.6,0,0,0-3.114.99,1.572,1.572,0,0,0-.594,1.08c0,.864,1.1.882,1.1.864a2.616,2.616,0,0,1,2.484-1.476,1.882,1.882,0,0,1,2.142,2.034v.18h-.234C26.721,16.87,24.813,17.734,24.813,19.732Zm6.048-1.152A2.425,2.425,0,0,1,28.2,20.92c-1.026,0-1.638-.486-1.638-1.26,0-1.17,1.3-1.638,3.816-1.728l.486-.018Zm3.348-.918a4.378,4.378,0,0,0,4.5,4.572,4.274,4.274,0,0,0,2.808-.9,2.127,2.127,0,0,0,.9-1.476c0-.774-1.008-.9-1.062-.81a2.583,2.583,0,0,1-2.61,1.692A2.877,2.877,0,0,1,35.9,17.662a2.867,2.867,0,0,1,2.844-3.042,2.568,2.568,0,0,1,2.61,1.692c.054.09,1.062-.054,1.062-.792a2.154,2.154,0,0,0-.882-1.494,4.328,4.328,0,0,0-2.826-.9A4.379,4.379,0,0,0,34.209,17.662Zm9.738-7.092A.965.965,0,0,0,45.009,11.6a.948.948,0,0,0,1.062-1.026.956.956,0,0,0-1.044-1.044A.975.975,0,0,0,43.947,10.57Zm.144,10.656c0,.648.342.846.81.846h.18c.468,0,.792-.2.792-.846v-7.11c0-.666-.324-.864-.792-.864H44.9c-.468,0-.81.216-.81.864Zm6.7-9.216c.234,0,3.276-.828,3.276-2.16a.746.746,0,0,0-.774-.81c-1.35,0-2.646,2.574-2.646,2.88C50.643,11.992,50.715,12.01,50.787,12.01Zm-3.15,5.652a4.536,4.536,0,1,0,9.072.036,4.536,4.536,0,1,0-9.072-.036Zm7.416.036a2.9,2.9,0,0,1-2.88,3.078,2.939,2.939,0,0,1-2.9-3.114,2.9,2.9,0,1,1,5.778.036Zm7.974-4.572a3.359,3.359,0,0,0-2.88,1.53c-.036-1.152-.63-1.4-1.116-1.4a.885.885,0,0,0-.648.2v7.776c0,.648.324.846.792.846h.2c.45,0,.792-.2.792-.846V16.2a2.616,2.616,0,0,1,2.43-1.512c1.26,0,2,.9,2,2.358v4.176c0,.648.324.846.792.846h.2c.45,0,.792-.2.792-.846V16.834C66.375,14.692,65.313,13.126,63.027,13.126Z" transform="translate(164 1192)"/><g transform="translate(-14933.298 -6892)"><path class="c" d="M15186.086,8091.7l-5.224,19.1h27.026l5.014-19.1Z" transform="translate(1.697 -0.001)"/><path class="c" d="M15211.694,8091.7l-16.891,11.591-9.975-11.591" transform="translate(2.905 -0.001)"/><path class="d" d="M15180.862,8108.566l13.558-9.507" transform="translate(1.697 2.242)"/><path class="d" d="M15203.386,8108.537l-8.418-9.383" transform="translate(5.995 2.27)"/><path class="e" d="M15183.791,8092.794h-8.32" transform="translate(0.052 0.333)"/><path class="e" d="M15181.705,8097.851h-5.408" transform="translate(-1.002 1.874)"/><path class="e" d="M15179.418,8103.853h-3.246" transform="translate(0.265 3.703)"/></g></g></svg>