<?xml version="1.0" encoding="utf-8"?>
<!-- Generator: Adobe Illustrator 23.0.6, SVG Export Plug-In . SVG Version: 6.00 Build 0)  -->
<svg version="1.1" id="Capa_1" xmlns="http://www.w3.org/2000/svg" xmlns:xlink="http://www.w3.org/1999/xlink" x="0px" y="0px"
	 viewBox="0 0 73 73" style="enable-background:new 0 0 73 73;" xml:space="preserve">
<style type="text/css">
	.st0{fill:#0855C4;}
	.st1{opacity:0.25;}
	.st2{fill:#FFFFFF;}
</style>
<g id="Grupo_1911" transform="translate(-448.199 -1304.827)">
	<g id="Grupo_1884" transform="translate(460.526 1324.339)">
		<path id="Trazado_4085" class="st0" d="M22.8,49.8l-14-9.2c-3.6-2.3-5.8-6.3-5.9-10.6V1.4l2.8,1.3C10.9,5,16.9,5,22.1,2.7l2.2-1
			L27.6,3c5.6,2.2,12,1.8,17.3-1.1l1-0.5v28.2c-0.1,4.6-2.6,8.8-6.7,11L22.8,49.8z M4.2,3.4v26.7c0,3.9,2,7.4,5.3,9.5l13.4,8.7
			l15.7-8.8l0.3,0.6l-0.3-0.6c3.6-2,5.9-5.8,6-9.9v-26c-5.5,2.7-11.8,2.9-17.5,0.7l-2.7-1.1l-1.7,0.8c-5.6,2.5-11.9,2.5-17.5,0
			L4.2,3.4z"/>
	</g>
	<g id="Grupo_1885" transform="translate(465.34 1328.59)" class="st1">
		<path id="Trazado_4086" class="st0" d="M38.2,38.9l-16.1,9L8.5,39C5,36.8,2.9,33,2.9,29V1.3l1.9,0.8c5.4,2.4,11.6,2.4,17,0l2-0.9
			l3,1.2c5.8,2.3,12.4,1.9,17.9-1.2l0,0v27.1C44.5,32.8,42.1,36.8,38.2,38.9z"/>
	</g>
	<g id="Grupo_1886" transform="translate(470.505 1335.04)">
		<circle id="Elipse_54" class="st0" cx="14.2" cy="12.6" r="11.3"/>
	</g>
	<g id="Grupo_1887" transform="translate(477.615 1339.95)">
		<circle id="Elipse_55" class="st2" cx="7.3" cy="5.7" r="4.4"/>
	</g>
	<g id="Grupo_1888" transform="translate(474.108 1350.894)">
		<path id="Trazado_4087" class="st2" d="M18.4,5C15,0.7,8.8,0.1,4.5,3.5C3.9,4,3.4,4.6,2.9,5.2C7.4,9,14,8.9,18.4,5z"/>
	</g>
	<g id="Grupo_1889" transform="translate(492.133 1350.583)">
		<circle id="Elipse_56" class="st2" cx="13.3" cy="11.7" r="9.7"/>
		<path id="Trazado_4088" class="st0" d="M13.3,22.1c-5.7,0-10.4-4.6-10.4-10.4S7.5,1.3,13.3,1.3S23.6,6,23.6,11.7
			C23.6,17.4,19,22.1,13.3,22.1z M13.3,2.6c-5,0-9.1,4.1-9.1,9.1c0,5,4.1,9.1,9.1,9.1s9.1-4.1,9.1-9.1l0,0
			C22.3,6.7,18.3,2.6,13.3,2.6z"/>
	</g>
	<g id="Grupo_1891" transform="translate(498.004 1357.72)">
		<g id="Grupo_1890">
			<path id="Trazado_4089" class="st0" d="M5.7,8.4L3.1,5.6c-0.3-0.4-0.3-0.9,0-1.2l0,0c0.4-0.3,0.9-0.3,1.2,0L5.8,6L11,1.5
				c0.4-0.3,0.9-0.3,1.2,0.1l0,0c0.3,0.4,0.3,0.9-0.1,1.2c0,0,0,0,0,0L5.7,8.4z"/>
		</g>
	</g>
	<g id="Grupo_1896" transform="translate(510.374 1330.679)">
		<g id="Grupo_1893" transform="translate(0.975 0)">
			<g id="Grupo_1892" transform="translate(0)">
				
					<rect id="Rectángulo_1832" x="4.4" y="1.2" transform="matrix(0.8553 -0.5182 0.5182 0.8553 -1.488 3.225)" class="st0" width="1.3" height="6.2"/>
			</g>
		</g>
		<g id="Grupo_1895" transform="translate(0 0.914)">
			<g id="Grupo_1894" transform="translate(0 0)">
				
					<rect id="Rectángulo_1833" x="2.8" y="2.8" transform="matrix(0.8552 -0.5183 0.5183 0.8552 -0.9449 3.5326)" class="st0" width="6.2" height="1.3"/>
			</g>
		</g>
	</g>
	<g id="Grupo_1901" transform="translate(448.199 1338.963)">
		<g id="Grupo_1898" transform="translate(0.975 0)">
			<g id="Grupo_1897" transform="translate(0)">
				
					<rect id="Rectángulo_1834" x="4.4" y="1.2" transform="matrix(0.8553 -0.5182 0.5182 0.8553 -1.488 3.225)" class="st0" width="1.3" height="6.2"/>
			</g>
		</g>
		<g id="Grupo_1900" transform="translate(0 0.914)">
			<g id="Grupo_1899" transform="translate(0 0)">
				
					<rect id="Rectángulo_1835" x="2.8" y="2.8" transform="matrix(0.8552 -0.5183 0.5183 0.8552 -0.9449 3.5326)" class="st0" width="6.2" height="1.3"/>
			</g>
		</g>
	</g>
	<g id="Grupo_1906" transform="translate(473.885 1304.827)">
		<g id="Grupo_1903" transform="translate(0.776 0)">
			<g id="Grupo_1902" transform="translate(0)">
				
					<rect id="Rectángulo_1836" x="4.1" y="1.3" transform="matrix(0.8552 -0.5183 0.5183 0.8552 -1.2985 3.0248)" class="st0" width="1.3" height="5.1"/>
			</g>
		</g>
		<g id="Grupo_1905" transform="translate(0 0.724)">
			<g id="Grupo_1904" transform="translate(0 0)">
				
					<rect id="Rectángulo_1837" x="2.8" y="2.5" transform="matrix(0.8552 -0.5183 0.5183 0.8552 -0.8702 3.2657)" class="st0" width="5.1" height="1.3"/>
			</g>
		</g>
	</g>
	<g id="Grupo_1908" transform="translate(495.644 1313.134)" class="st1">
		<g id="Grupo_1907" transform="translate(0)">
			<circle id="Elipse_57" class="st0" cx="4.5" cy="2.9" r="1.6"/>
		</g>
	</g>
	<g id="Grupo_1910" transform="translate(456.921 1313.134)" class="st1">
		<g id="Grupo_1909" transform="translate(0)">
			<circle id="Elipse_58" class="st0" cx="4.5" cy="2.9" r="1.6"/>
		</g>
	</g>
</g>
</svg>
