<svg xmlns="http://www.w3.org/2000/svg" width="191.379" height="209.026" viewBox="0 0 191.379 209.026"><defs><style>.a{fill:none;stroke:#0855c4;stroke-miterlimit:10;stroke-width:4px;}.b{fill:#0855c4;opacity:0.25;}</style></defs><g transform="translate(-1624.677 -2740.734)"><path class="a" d="M1712.943,2786.387l25.948,52.575,58.021,8.431-41.984,40.924,9.911,57.786-51.9-27.283-51.9,27.283,9.911-57.786-41.984-40.924,58.02-8.431Z"/><path class="b" d="M1685.654,2878.506l-37.534-36.587,58.02-8.431,25.948-52.575,25.948,52.575,58.021,8.431-41.984,40.924,9.911,57.786-51.9-27.283-51.9,27.283,9.911-57.786"/><line class="b" x1="4.45" y1="4.338" transform="translate(1685.654 2878.506)"/><path class="a" d="M1740.751,2868.8c-4.7,9.916-15.712,16.874-28.543,16.874-11.64,0-21.781-5.726-27.074-14.193"/><line class="a" x2="9.862" y2="16.27" transform="translate(1787.465 2792.919)"/><line class="a" x1="16.27" y2="9.862" transform="translate(1783.78 2796.415)"/><line class="a" x2="9.862" y2="16.27" transform="translate(1651.805 2801.054)"/><line class="a" x1="16.27" y2="9.862" transform="translate(1648.12 2804.55)"/><line class="a" x2="8.212" y2="13.547" transform="translate(1708.859 2741.77)"/><line class="a" x1="13.547" y2="8.212" transform="translate(1705.79 2744.681)"/><circle class="b" cx="4.891" cy="4.891" r="4.891" transform="translate(1754.984 2771.676)"/><circle class="b" cx="4.246" cy="4.246" r="4.246" transform="translate(1644.74 2894.109)"/><circle class="b" cx="4.891" cy="4.891" r="4.891" transform="translate(1659.498 2763.698)"/></g></svg>