<svg xmlns="http://www.w3.org/2000/svg" xmlns:xlink="http://www.w3.org/1999/xlink" width="284.999" height="105.951" viewBox="0 0 284.999 105.951"><defs><style>.a,.q{fill:#fff;}.a,.e{stroke:#707070;}.b,.j,.p,.r,.s{fill:none;}.c,.e{fill:#0855c4;}.d{clip-path:url(#c);}.f{clip-path:url(#d);}.g{fill:#e5ac85;}.h{fill:#ff429b;}.i{fill:#19467c;}.j{stroke:#b5b5b5;}.j,.p,.r,.s{stroke-miterlimit:10;}.k{fill:#ffc764;}.l{fill:#ffae97;}.m{fill:#fdfffc;}.n{fill:#3a5cbe;}.o{fill:#0caced;}.p,.r{stroke:#fff;}.r,.s{stroke-width:0.75px;}.s{stroke:#ff6700;}.t{fill:#b5b5b5;}.u{fill:#eaab96;}.v{fill:#30497a;}.w{fill:#162357;}.x{fill:#202956;}.y{fill:#df6718;}.z{fill:#2f4879;}.aa{fill:#00aded;}.ab{stroke:none;}.ac{filter:url(#a);}</style><filter id="a" x="6.999" y="2.951" width="278" height="103" filterUnits="userSpaceOnUse"><feOffset dy="3" input="SourceAlpha"/><feGaussianBlur stdDeviation="3" result="b"/><feFlood flood-color="#000b8e" flood-opacity="0.161"/><feComposite operator="in" in2="b"/><feComposite in="SourceGraphic"/></filter><clipPath id="c"><path class="a" d="M44.042,0C68.367,0,98.688,19.061,98.688,42.574c0,14.226,4.781,30.955-6.672,38.938-6.874,4.8-38.366,3.637-47.974,3.637C19.719,85.149,0,66.088,0,42.574S19.719,0,44.042,0Z" transform="translate(0 0)"/></clipPath><clipPath id="d"><rect class="b" width="131.106" height="203.315"/></clipPath></defs><g transform="translate(-121 -505.049)"><g transform="translate(121 505.049)"><g transform="translate(16.235 8.464)"><g class="ac" transform="matrix(1, 0, 0, 1, -16.24, -8.46)"><rect class="c" width="260" height="85" rx="42.5" transform="translate(16 8.95)"/></g></g><g class="d" transform="translate(0 8.432)"><g class="e" transform="translate(-24.001 -7.481)"><ellipse class="ab" cx="67.5" cy="55.5" rx="67.5" ry="55.5"/><ellipse class="b" cx="67.5" cy="55.5" rx="67" ry="55"/></g><g transform="translate(-15.893 -8.434)"><g class="f"><path class="g" d="M319.909,231.67H319.8a1.087,1.087,0,0,1-1.258-.827l-.862-3.809a1.087,1.087,0,0,1,.827-1.258h.108a1.086,1.086,0,0,1,1.258.826l.862,3.809a1.086,1.086,0,0,1-.826,1.258" transform="translate(-203.515 -144.635)"/><path class="h" d="M322.959,199.141l-7.905,16.925A2.127,2.127,0,0,0,316.1,218.9a2.182,2.182,0,0,0,.647.18l5.785,1.33a2.227,2.227,0,0,0,2.515-1.258l7.582-16.709a2.238,2.238,0,0,0-1.114-2.947,1.288,1.288,0,0,0-.4-.144l-5.714-1.365a2.13,2.13,0,0,0-2.444,1.15" transform="translate(-201.715 -126.803)"/><path class="i" d="M124.891,476.9l4.959,27.7-67.734.646,2.264-22.566s21.668-21.2,60.512-5.785" transform="translate(-39.795 -301.932)"/><path class="j" d="M195.792,510.21c4.635-13.978,0-23.5,0-23.5v-4.815l-1.078-2.085h5.642l.072,6.576s5.21,16.314-1.437,23.824" transform="translate(-124.747 -307.398)"/><path class="j" d="M225.114,497.211s-.108,8.157,6.648,10.852" transform="translate(-144.223 -318.546)"/><path class="j" d="M116.415,495.734s38.125.575,43.587-2.623" transform="translate(-74.583 -315.919)"/><path class="k" d="M104.224,134.114l-1.509-.5v.359l.862.18a2.015,2.015,0,0,1,.647-.036" transform="translate(-65.806 -85.6)"/><path class="k" d="M100.815,126.411v0Z" transform="translate(-64.589 -80.987)"/><path class="k" d="M101.059,126.663l.252.18,1.114-.359c-.18,0-.431.072-.611.072a2.611,2.611,0,0,1-.9-.144v.4c.108-.144.144-.144.144-.144" transform="translate(-64.653 -80.987)"/><path class="k" d="M100.815,127.255v.18l.431-.144-.252-.18s-.036,0-.18.144" transform="translate(-64.589 -81.436)"/><path class="l" d="M99.455,127.811s1.833,13.906-1.94,17.607l11.607,16.062,10.78,5.39a36.04,36.04,0,0,0,3.2-4.312c.575-1.078-2.695-13.4-2.695-13.4s-1.078-1.617,1.078-6.468l-11.606-8.013Z" transform="translate(-62.475 -81.884)"/><path class="m" d="M157.594,140.011l-3.881.323c-.072,0,3.018,3.521,3.881-.323" transform="translate(-98.478 -89.7)"/><path class="n" d="M34.164,183.711l-21.308,9.163a13.679,13.679,0,0,0-7.51,7.726C3.333,205.667,1.034,214.47.315,228.7a104.526,104.526,0,0,1,22.315,3.521L34.164,185Z" transform="translate(-0.202 -117.697)"/><path class="n" d="M115.129,217.07s-13.547-21.56-14.8-22.782c-1.258-1.258-20.985-11-20.985-11,2.228,1.976-2.408,13.439-2.408,13.439L67.7,181.352a15.475,15.475,0,0,1-12.469-5.642C47.215,178.154,32.015,207.8,32.015,207.8L43.729,298.71a10.033,10.033,0,0,1,2.767-2.444l.108-3.054,2.012,1.869c15.811-7.833,57.242-7.223,57.242-7.223V286.6c-3.09-9.846-5.5-60.943-5.5-60.943,6.181-9.235,14.769-8.588,14.769-8.588" transform="translate(-20.511 -112.571)"/><path class="o" d="M158.315,202.77s3.557-10.313,10.636-6.719c0,0-2.372-7.51-9.594-8.84l.934,3.629c0-.036,1.222,1.581-1.976,11.93" transform="translate(-101.427 -119.94)"/><path class="p" d="M78.215,194.311c5.57,3.593,8.66,14.373,13.726,18.614" transform="translate(-50.11 -124.488)"/><path class="n" d="M155.025,233.211a14.7,14.7,0,0,0-.575,10.205" transform="translate(-98.533 -149.41)"/><path class="p" d="M155.025,233.211a14.7,14.7,0,0,0-.575,10.205" transform="translate(-98.533 -149.41)"/><path class="q" d="M126.5,195.711a.683.683,0,1,1-.683.683.683.683,0,0,1,.683-.683" transform="translate(-80.605 -125.385)"/><path class="q" d="M134.9,206.911a.683.683,0,1,1-.683.683.683.683,0,0,1,.683-.683" transform="translate(-85.986 -132.561)"/><path class="q" d="M142.6,219.411a.683.683,0,1,1-.683.683.683.683,0,0,1,.683-.683" transform="translate(-90.92 -140.569)"/><path class="q" d="M150.6,233.411a.683.683,0,1,1-.683.683.683.683,0,0,1,.683-.683" transform="translate(-96.045 -149.539)"/><path class="r" d="M142.214,136.211a4.577,4.577,0,0,0,6.216.862" transform="translate(-91.112 -87.266)"/><path class="j" d="M85.815,531.911V516.6s17.356,4.779,20.805-3.593" transform="translate(-54.979 -328.668)"/><path class="j" d="M85.815,520.1s21.38,4.06,21.883-8.588" transform="translate(-54.979 -327.707)"/><path class="l" d="M53.786,374.064l.359-.072c-1.078-.827-1.833-1.438-1.833-1.438-3.054-3.7-9.846-5.534-9.846-5.534l-1.258-.611c-12.289-8.013-22.53-29.286-22.53-29.286l3.593-26.016c-4.707-1.761-21.057-3.2-21.057-3.2l.611,31.981c2.443,10.457,26.447,30.8,26.447,30.8L31.327,375l1.33,3.126.287-.072,3.414,8.192c13.116,2.372,16.1-4.2,16.1-4.2l-1.833-4.779c10.169,7.761,10.169,1.186,10.169,1.186-1.545-.287-4.887-2.73-7.007-4.384" transform="translate(-0.778 -197.268)"/><path class="s" d="M32.757,378.125,31.427,375l-3.054-4.312s-24-20.3-26.447-30.795l-.611-31.981" transform="translate(-0.842 -197.268)"/><path class="t" d="M201.149,490.011a.934.934,0,1,1-.934.935.934.934,0,0,1,.934-.935" transform="translate(-128.271 -313.933)"/><path class="t" d="M85,515.211a.683.683,0,1,1-.683.683.683.683,0,0,1,.683-.683" transform="translate(-54.017 -330.078)"/><path class="t" d="M72.077,519.067v-.575a8.783,8.783,0,0,1-5.39-1.581l-.072.647a9.351,9.351,0,0,0,5.462,1.509" transform="translate(-42.678 -331.167)"/><path class="t" d="M70.679,524.451l.072-.575a9.316,9.316,0,0,1-4.564-1.365l-.072.611a9.346,9.346,0,0,0,4.564,1.329" transform="translate(-42.358 -334.755)"/><path class="n" d="M27.213,274.811,25.6,282.573a15.7,15.7,0,0,1-.934,3.378l-.431.934-1.15,3.953s-4.312-2.12-22.566-3.773L.659,282.5c15.056.575,23.572,4.348,23.572,4.348" transform="translate(-0.33 -176.062)"/><path class="p" d="M27.213,274.811,25.6,282.573a15.7,15.7,0,0,1-.934,3.378l-.431.934-1.15,3.953s-4.312-2.12-22.566-3.773L.659,282.5c15.056.575,23.572,4.348,23.572,4.348" transform="translate(-0.33 -176.062)"/><path class="l" d="M270.7,237.111l-3.7-3.7a5.416,5.416,0,0,0-2.946-1.509l-5.39-.826a.967.967,0,0,0-1.114.683,1.018,1.018,0,0,0,.647,1.294h.036l2.623.683a7.769,7.769,0,0,1,4.779,3.593l.18.323-1.833-1.258-6.4-2.695a1.26,1.26,0,0,0-1.33,2.12l5.821,3.126,1.509,1.833-5.534-3.27a1.141,1.141,0,0,0-1.581.251c0,.036-.036.036-.036.072a1.141,1.141,0,0,0,.108,1.437l.755.934-1.006-.251c-.755,1.365-.647,5.821-.647,5.821-5.282,10.025-9.594,17.607-9.594,17.607l-9.235-11.1c-9.235,0-14.8,8.588-14.8,8.588l.108,2.443c12.433,22.782,26.95,22.135,26.95,22.135,9.846-4.959,10.457-25.189,10.457-25.189a51.9,51.9,0,0,1,2.443-9.846,15.046,15.046,0,0,0,5.534-6.791c3.09-.647,1.258-3.7,1.258-3.7,3.773.323,1.94-2.8,1.94-2.8" transform="translate(-142.238 -148.028)"/><path class="s" d="M320.515,256.411c.108.144,4.132,3.809,4.132,3.809" transform="translate(-205.343 -164.274)"/><path class="s" d="M282.112,321.011s-5.641,5.21-3.773,11.355" transform="translate(-178.079 -205.661)"/><path class="n" d="M222.614,292.864s7.4-9.415,15.236-8.228l-2.623-4.025a17.848,17.848,0,0,0-12.613,6.576" transform="translate(-142.621 -179.778)"/><path class="p" d="M222.614,292.864s7.4-9.415,15.236-8.228l-2.623-4.025a17.848,17.848,0,0,0-12.613,6.576" transform="translate(-142.621 -179.778)"/><line class="p" x2="0.252" y2="19.512" transform="translate(79.741 95.838)"/><path class="o" d="M95,181.132s-7.223.5-7.474,7.726c0,0-6.037-6.791-10.708-8.013a15.45,15.45,0,0,1,7.582-5.534s1.976,3.953,10.6,5.821" transform="translate(-49.213 -112.316)"/><path class="u" d="M332.685,229.919s-1.114-1.545.97-1.725,7.546,2.3,8.48,5.606a2.547,2.547,0,0,1-.826,2.8l-5.246-3.09Z" transform="translate(-212.949 -146.191)"/><path class="v" d="M180.419,32.076l.734,15.669s3.383-4.343,5.041-5.159-.027-7.3-.027-7.3l-3.311-3.241-.842-.775Z" transform="translate(-115.588 -20.032)"/><path class="l" d="M86.561,80.921c2.059-.48,4.274,1.473,4.947,4.361s-.45,5.619-2.509,6.1-4.274-1.473-4.947-4.361.45-5.619,2.509-6.1" transform="translate(-53.724 -51.797)"/><path class="l" d="M122.855,79l-3.285,2.437a12.977,12.977,0,0,1-7.667,2.5l-5.2.04a12.627,12.627,0,0,1-7.4-2.326l-2.536-1.783a12.969,12.969,0,0,1-3.322-9.327l1.788-37.9,29.754-.043L126,70.146A13.017,13.017,0,0,1,122.855,79" transform="translate(-59.858 -20.881)"/><path class="w" d="M94.862,104.565a10.582,10.582,0,0,0,3.394,3.911l1.263.853a13.08,13.08,0,0,0,7.433,2.12l5.206-.041a13.013,13.013,0,0,0,7.667-2.5l3.281-2.436a12.688,12.688,0,0,0,3.142-8.845l-.706-20.411-.159-1.809L123.549,90.05a5.3,5.3,0,0,1-5.324,5.055l-16.217.024a5.4,5.4,0,0,1-5.389-5.283l-.881-10.918-1.525-.281-.7,19.467a12.8,12.8,0,0,0,1.344,6.452" transform="translate(-59.901 -48.313)"/><path class="x" d="M152.692,91.674a1.245,1.245,0,1,1,1.213,1.54,1.407,1.407,0,0,1-1.213-1.54" transform="translate(-97.825 -57.743)"/><path class="x" d="M126.031,91.785a1.245,1.245,0,1,1,1.213,1.54,1.407,1.407,0,0,1-1.213-1.54" transform="translate(-80.744 -57.814)"/><path class="y" d="M140.47,104.572l-.116-.337c1.7-.565,2.684-1.406,2.921-2.493.5-2.169-2.068-4.669-2.1-4.688L141.125,97l0-2.781.356,0-.005,2.631c.4.394,2.656,2.756,2.16,4.971-.285,1.218-1.358,2.143-3.168,2.749" transform="translate(-89.92 -60.363)"/><rect class="z" width="0.356" height="4.076" transform="matrix(0.176, -0.984, 0.984, 0.176, 54.888, 28.905)"/><rect class="z" width="4.034" height="0.356" transform="translate(43.47 29.487) rotate(-10.894)"/><path class="w" d="M93.018,19.986c3.748,1.849,7.772,3.227,11.875,2.993,5.576-.289,10.549-3.274,15.267-6.159a7.047,7.047,0,0,1,2.5-1.124,2.856,2.856,0,0,1,2.578.629,3.339,3.339,0,0,1,.784,1.931,8.59,8.59,0,0,1-3.714,8.237c.1.8.143,1.672.242,2.469a9.659,9.659,0,0,0,2.164-1.214,12.849,12.849,0,0,0,4.2-5.394,15.687,15.687,0,0,0,.127-10.431,38.909,38.909,0,0,0-4.706-9.564A5.5,5.5,0,0,0,122.969.7a4.28,4.28,0,0,0-4.357-.2,18.366,18.366,0,0,0-3.74,2.563,8.027,8.027,0,0,1-4.016,1.984,8.5,8.5,0,0,1-2.326-.1q-2.274-.323-4.569-.852A14.413,14.413,0,0,0,101,3.653a8.763,8.763,0,0,0-5.224,2.073,25.385,25.385,0,0,0-3.876,4.2c-.94,1.127-1.806,2.322-2.749,3.455a1.248,1.248,0,0,0-.365.853,1.4,1.4,0,0,0,.358.7q2.162,2.775,4.342,5.548" transform="translate(-56.88 0)"/><path class="w" d="M115.721,127.145s10.4-4.471,18.786.367l-4.834,3.038-4.963,1.966-5.918-.808Z" transform="translate(-74.139 -80.251)"/><path class="q" d="M110.514,93.992a6.624,6.624,0,0,1-.873.051A6.947,6.947,0,0,1,104.7,91.98a6.772,6.772,0,0,1-1.984-4.826,8.527,8.527,0,0,1,.12-1.265l.036-.17,13.453-.009.046.152a3.775,3.775,0,0,1,.158,1.269,6.932,6.932,0,0,1-2.064,4.936,6.793,6.793,0,0,1-3.95,1.925m-7.375-6.829A6.357,6.357,0,0,0,105,91.684a6.509,6.509,0,0,0,4.642,1.939,6.346,6.346,0,0,0,4.521-1.865,6.51,6.51,0,0,0,1.938-4.639,3.429,3.429,0,0,0-.1-.986l-12.781-.006a8.694,8.694,0,0,0-.082,1.036" transform="translate(-65.805 -54.911)"/><path class="q" d="M152.178,93.9a6.093,6.093,0,0,1-5.115-1.806,6.913,6.913,0,0,1-1.931-6.233l.032-.17,12.608-.023.023.186a7.208,7.208,0,0,1,.081,1.244,6.746,6.746,0,0,1-5.7,6.8m-6.641-7.789a6.874,6.874,0,0,0-.089.964,6.634,6.634,0,0,0,1.916,4.71,5.74,5.74,0,0,0,4.106,1.728,6.292,6.292,0,0,0,6-6.442,5.806,5.806,0,0,0-.058-.991Z" transform="translate(-92.9 -54.882)"/><rect class="q" width="10.485" height="0.425" transform="translate(46.656 30.787) rotate(-0.098)"/><path class="w" d="M85.169,41.453a6.353,6.353,0,0,0-.569,4.738,12.522,12.522,0,0,1,.388,1.495c.174,1.4-.608,2.714-1.119,4.062a9.058,9.058,0,0,0-.5,3.58,7.62,7.62,0,0,1,0,2.164c-.183.7-.636,1.433-1.354,1.523.075-1.019-.782-4.1-1.71-4.455a2.323,2.323,0,0,0-2.977,1.39c-.008.021-.015.042-.022.063A10.3,10.3,0,0,0,74.9,47.521,7.487,7.487,0,0,1,73,44.712c-.522-2.033,1.285-3.812,2.885-5.1.792-.7,1.849-1.448,2.9-1.168a3.577,3.577,0,0,1,1.475.974,13.055,13.055,0,0,0,4.993,2.624" transform="translate(-46.712 -24.594)"/><path class="p" d="M128.578,133.134s-.135,3.248,4.27,3.64c3.157.281,4.644-3,4.644-3" transform="translate(-82.375 -85.294)"/></g></g></g><path class="w" d="M93.018,19.986c3.748,1.849,7.772,3.227,11.875,2.993,5.576-.289,10.549-3.274,15.267-6.159a7.047,7.047,0,0,1,2.5-1.124,2.856,2.856,0,0,1,2.578.629,3.339,3.339,0,0,1,.784,1.931,8.59,8.59,0,0,1-3.714,8.237c.1.8.143,1.672.242,2.469a9.659,9.659,0,0,0,2.164-1.214,12.849,12.849,0,0,0,4.2-5.394,15.687,15.687,0,0,0,.127-10.431,38.909,38.909,0,0,0-4.706-9.564A5.5,5.5,0,0,0,122.969.7a4.28,4.28,0,0,0-4.357-.2,18.366,18.366,0,0,0-3.74,2.563,8.027,8.027,0,0,1-4.016,1.984,8.5,8.5,0,0,1-2.326-.1q-2.274-.323-4.569-.852A14.413,14.413,0,0,0,101,3.653a8.763,8.763,0,0,0-5.224,2.073,25.385,25.385,0,0,0-3.876,4.2c-.94,1.127-1.806,2.322-2.749,3.455a1.248,1.248,0,0,0-.365.853,1.4,1.4,0,0,0,.358.7q2.162,2.775,4.342,5.548" transform="translate(-72.773 -0.001)"/><path class="w" d="M85.169,41.453a6.353,6.353,0,0,0-.569,4.738,12.522,12.522,0,0,1,.388,1.495c.174,1.4-.608,2.714-1.119,4.062a9.058,9.058,0,0,0-.5,3.58,7.62,7.62,0,0,1,0,2.164c-.183.7-.636,1.433-1.354,1.523.075-1.019-.782-4.1-1.71-4.455a2.323,2.323,0,0,0-2.977,1.39c-.008.021-.015.042-.022.063A10.3,10.3,0,0,0,74.9,47.521,7.487,7.487,0,0,1,73,44.712c-.522-2.033,1.285-3.812,2.885-5.1.792-.7,1.849-1.448,2.9-1.168a3.577,3.577,0,0,1,1.475.974,13.055,13.055,0,0,0,4.993,2.624" transform="translate(-62.604 -24.593)"/><path class="q" d="M1.311.095A1.13,1.13,0,0,0,2.394-.8L3.477-3.61H8.4L9.481-.817A1.2,1.2,0,0,0,10.64.095c.589,0,1.14-.437,1.083-.589L7.315-11.78c-.152-.4-.437-.627-1.349-.627-.893,0-1.2.228-1.349.627L.247-.494C.19-.323.741.095,1.311.095ZM3.952-5.187l1.976-5.206L7.9-5.187Zm12.1,9.2c3.021,0,4.788-1.064,4.788-2.793,0-1.5-1.368-2.147-2.66-2.489-1.6-.4-2.47-.456-2.47-1.045a.531.531,0,0,1,.1-.323h.342c2.318,0,3.952-1.406,3.952-3.325A3.1,3.1,0,0,0,19.3-8l1.558-1.615a1.027,1.027,0,0,0-.969-.8,1.206,1.206,0,0,0-1.083.722l-.494.874a4.6,4.6,0,0,0-2.185-.551,3.64,3.64,0,0,0-3.914,3.458,3.18,3.18,0,0,0,2.394,3.04,1.341,1.341,0,0,0-.513.988,1.06,1.06,0,0,0,.361.855c-1.653.285-2.907,1.178-2.907,2.508C11.552,3.192,12.977,4.009,16.055,4.009Zm.095-7.885A2.016,2.016,0,0,1,14-5.947a2,2,0,0,1,2.109-2.071,2.021,2.021,0,0,1,2.166,2.071A2,2,0,0,1,16.15-3.876ZM16.093,2.7c-1.805,0-2.736-.456-2.736-1.273,0-.969,1.292-1.52,2.85-1.615l.95.228c1.007.247,1.862.513,1.862,1.235C19.019,2.185,17.936,2.7,16.093,2.7Zm5.016-7.22A4.543,4.543,0,0,0,25.935.247a5.407,5.407,0,0,0,2.888-.741,1.83,1.83,0,0,0,1.007-1.33c0-.8-.95-.969-.988-.931a3.005,3.005,0,0,1-2.869,1.52A2.969,2.969,0,0,1,22.9-3.724a2.094,2.094,0,0,1-.038-.342H29.6c.437,0,.57-.152.57-.551v-.152a4.256,4.256,0,0,0-4.389-4.6A4.631,4.631,0,0,0,21.109-4.522Zm7.239-.817H22.876a2.914,2.914,0,0,1,2.888-2.6A2.51,2.51,0,0,1,28.348-5.339Zm8.094-4.028A3.545,3.545,0,0,0,33.4-7.752c-.038-1.216-.665-1.482-1.178-1.482a.934.934,0,0,0-.684.209V-.817c0,.684.342.893.836.893h.209c.475,0,.836-.209.836-.893v-5.3a2.762,2.762,0,0,1,2.565-1.6c1.33,0,2.109.95,2.109,2.489V-.817c0,.684.342.893.836.893h.209c.475,0,.836-.209.836-.893V-5.453C39.976-7.714,38.855-9.367,36.442-9.367Zm9.1,9.614A3.654,3.654,0,0,0,48.754-1.52v.7c0,.684.342.893.836.893h.19c.494,0,.836-.209.836-.893V-11.438c0-1.311-.608-1.615-1.2-1.615a.977.977,0,0,0-.684.209v4.978a3.689,3.689,0,0,0-3.135-1.5c-2.527,0-4.332,1.919-4.332,4.807S43.092.247,45.543.247ZM48.754-3.99A2.751,2.751,0,0,1,45.9-1.311c-1.634,0-2.812-1.349-2.812-3.249,0-1.957,1.14-3.249,2.85-3.249a2.852,2.852,0,0,1,2.812,1.881Zm3.268,1.6c0,1.558,1.159,2.6,3.116,2.6a3.951,3.951,0,0,0,3.287-1.577,2.826,2.826,0,0,0,.076.627,1.019,1.019,0,0,0,1.083.836c.342,0,.684-.114.684-.209v-5.6c0-2.318-1.406-3.648-3.99-3.648a4.851,4.851,0,0,0-3.287,1.045,1.66,1.66,0,0,0-.627,1.14c0,.912,1.159.931,1.159.912a2.761,2.761,0,0,1,2.622-1.558,1.986,1.986,0,0,1,2.261,2.147v.19h-.247C54.036-5.415,52.022-4.5,52.022-2.394ZM58.406-3.61a2.56,2.56,0,0,1-2.812,2.47c-1.083,0-1.729-.513-1.729-1.33,0-1.235,1.368-1.729,4.028-1.824l.513-.019ZM68.039.247A2.57,2.57,0,0,0,69.768-.3a1.128,1.128,0,0,0,.4-.836c0-.589-.475-.855-.532-.8a1.547,1.547,0,0,1-1.292.646c-.893,0-1.216-.551-1.216-1.691V-7.6H69.2c.589,0,.817-.247.817-.722v-.133c0-.456-.209-.684-.8-.684H67.146v-1.406c0-.7-.323-.893-.817-.893h-.19c-.513,0-.836.247-.836.893v1.406h-.665c-.589,0-.817.247-.817.7V-8.3c0,.456.228.7.817.7H65.3v4.826C65.3-.8,66.158.247,68.039.247ZM78.508-9.234H78.3c-.475,0-.817.228-.817.912v5.3a2.745,2.745,0,0,1-2.508,1.615c-1.387,0-2.185-.931-2.185-2.508V-8.322c0-.7-.342-.912-.836-.912h-.209c-.475,0-.817.228-.817.912v4.636c0,2.28,1.1,3.914,3.515,3.914a3.55,3.55,0,0,0,3.04-1.6,2.611,2.611,0,0,0,.076.589,1.064,1.064,0,0,0,1.121.855.911.911,0,0,0,.665-.209V-8.322C79.344-9.025,79-9.234,78.508-9.234ZM83.6-2.394c0,1.558,1.159,2.6,3.116,2.6A3.951,3.951,0,0,0,90-1.368a2.826,2.826,0,0,0,.076.627,1.019,1.019,0,0,0,1.083.836c.342,0,.684-.114.684-.209v-5.6c0-2.318-1.406-3.648-3.99-3.648a4.851,4.851,0,0,0-3.287,1.045,1.66,1.66,0,0,0-.627,1.14c0,.912,1.159.931,1.159.912a2.761,2.761,0,0,1,2.622-1.558,1.987,1.987,0,0,1,2.261,2.147v.19h-.247C85.614-5.415,83.6-4.5,83.6-2.394ZM89.984-3.61a2.56,2.56,0,0,1-2.812,2.47c-1.083,0-1.729-.513-1.729-1.33,0-1.235,1.368-1.729,4.028-1.824l.513-.019ZM93.746-.57a5.458,5.458,0,0,0,3.135.8c2.356,0,3.8-1.121,3.8-2.869,0-1.976-1.957-2.394-3.363-2.7-1.482-.323-2.28-.513-2.28-1.349,0-.76.684-1.254,1.976-1.254A3.3,3.3,0,0,1,99.693-6.65a1,1,0,0,0,.76-.874,1.115,1.115,0,0,0-.228-.646c-.437-.646-1.539-1.2-3.287-1.2-2.223,0-3.648,1.159-3.648,2.869,0,1.938,1.862,2.356,3.211,2.641,1.5.323,2.356.494,2.356,1.425,0,.76-.722,1.235-2.014,1.235a3.762,3.762,0,0,1-3.078-1.368.961.961,0,0,0-.741.855A1.5,1.5,0,0,0,93.746-.57Zm7.828-3.952A4.543,4.543,0,0,0,106.4.247a5.407,5.407,0,0,0,2.888-.741,1.83,1.83,0,0,0,1.007-1.33c0-.8-.95-.969-.988-.931a3.005,3.005,0,0,1-2.869,1.52,2.969,2.969,0,0,1-3.078-2.489,2.094,2.094,0,0,1-.038-.342h6.745c.437,0,.57-.152.57-.551v-.152a4.256,4.256,0,0,0-4.389-4.6A4.631,4.631,0,0,0,101.574-4.522Zm7.239-.817h-5.472a2.914,2.914,0,0,1,2.888-2.6A2.51,2.51,0,0,1,108.813-5.339ZM112.062-.57a5.458,5.458,0,0,0,3.135.8c2.356,0,3.8-1.121,3.8-2.869,0-1.976-1.957-2.394-3.363-2.7-1.482-.323-2.28-.513-2.28-1.349,0-.76.684-1.254,1.976-1.254a3.3,3.3,0,0,1,2.679,1.292,1,1,0,0,0,.76-.874,1.115,1.115,0,0,0-.228-.646c-.437-.646-1.539-1.2-3.287-1.2-2.223,0-3.648,1.159-3.648,2.869,0,1.938,1.862,2.356,3.211,2.641,1.5.323,2.356.494,2.356,1.425,0,.76-.722,1.235-2.014,1.235a3.762,3.762,0,0,1-3.078-1.368.961.961,0,0,0-.741.855A1.5,1.5,0,0,0,112.062-.57Zm7.828-4.009A4.6,4.6,0,0,0,124.678.247a4.6,4.6,0,0,0,4.788-4.788A4.615,4.615,0,0,0,124.7-9.367,4.6,4.6,0,0,0,119.89-4.579Zm7.828.038a3.066,3.066,0,0,1-3.04,3.249,3.1,3.1,0,0,1-3.059-3.287,3.07,3.07,0,0,1,3.059-3.249A3.066,3.066,0,0,1,127.718-4.541Zm7.315-4.826a2.314,2.314,0,0,0-2.318,1.729,3.409,3.409,0,0,0-.076-.684,1.075,1.075,0,0,0-1.1-.912.934.934,0,0,0-.684.209V-.817c0,.684.342.893.836.893h.209c.475,0,.836-.209.836-.893V-4.028c0-2.109.589-3.553,2.071-3.553a1.77,1.77,0,0,1,1.159.4.936.936,0,0,0,.57-.969C136.534-8.911,135.983-9.367,135.033-9.367Zm2.052-1.178c.247,0,3.458-.874,3.458-2.28a.788.788,0,0,0-.817-.855c-1.425,0-2.793,2.717-2.793,3.04C136.933-10.564,137.009-10.545,137.085-10.545ZM138.472.076h.19c.494,0,.836-.209.836-.893v-7.5c0-.7-.342-.912-.836-.912h-.19c-.494,0-.855.228-.855.912v7.5C137.617-.133,137.978.076,138.472.076ZM141-2.394c0,1.558,1.159,2.6,3.116,2.6A3.951,3.951,0,0,0,147.4-1.368a2.825,2.825,0,0,0,.076.627,1.019,1.019,0,0,0,1.083.836c.342,0,.684-.114.684-.209v-5.6c0-2.318-1.406-3.648-3.99-3.648a4.851,4.851,0,0,0-3.287,1.045,1.66,1.66,0,0,0-.627,1.14c0,.912,1.159.931,1.159.912a2.761,2.761,0,0,1,2.622-1.558,1.987,1.987,0,0,1,2.261,2.147v.19h-.247C143.013-5.415,141-4.5,141-2.394Zm6.384-1.216a2.56,2.56,0,0,1-2.812,2.47c-1.083,0-1.729-.513-1.729-1.33,0-1.235,1.368-1.729,4.028-1.824l.513-.019ZM.608,19.421a4.621,4.621,0,0,0,4.75,4.826,4.511,4.511,0,0,0,2.964-.95,2.245,2.245,0,0,0,.95-1.558c0-.817-1.064-.95-1.121-.855A2.727,2.727,0,0,1,5.4,22.67a3.037,3.037,0,0,1-3-3.249,3.026,3.026,0,0,1,3-3.211A2.71,2.71,0,0,1,8.151,18c.057.095,1.121-.057,1.121-.836a2.273,2.273,0,0,0-.931-1.577,4.569,4.569,0,0,0-2.983-.95A4.622,4.622,0,0,0,.608,19.421Zm9.424,0a4.6,4.6,0,0,0,4.788,4.826,4.6,4.6,0,0,0,4.788-4.788,4.615,4.615,0,0,0-4.769-4.826A4.6,4.6,0,0,0,10.032,19.421Zm7.828.038a3.066,3.066,0,0,1-3.04,3.249,3.1,3.1,0,0,1-3.059-3.287,3.057,3.057,0,1,1,6.1.038ZM25.9,14.633a3.545,3.545,0,0,0-3.04,1.615c-.038-1.216-.665-1.482-1.178-1.482a.934.934,0,0,0-.684.209v8.208c0,.684.342.893.836.893h.209c.475,0,.836-.209.836-.893v-5.3a2.762,2.762,0,0,1,2.565-1.6c1.33,0,2.109.95,2.109,2.489v4.408c0,.684.342.893.836.893H28.6c.475,0,.836-.209.836-.893V18.547C29.431,16.286,28.31,14.633,25.9,14.633Zm15.732.133H41.42c-.475,0-.817.228-.817.912v5.3A2.745,2.745,0,0,1,38.1,22.594c-1.387,0-2.185-.931-2.185-2.508V15.678c0-.7-.342-.912-.836-.912h-.209c-.475,0-.817.228-.817.912v4.636c0,2.28,1.1,3.914,3.515,3.914a3.55,3.55,0,0,0,3.04-1.6,2.611,2.611,0,0,0,.076.589,1.064,1.064,0,0,0,1.121.855.911.911,0,0,0,.665-.209V15.678C42.465,14.975,42.123,14.766,41.629,14.766Zm7.676-.133a3.545,3.545,0,0,0-3.04,1.615c-.038-1.216-.665-1.482-1.178-1.482a.934.934,0,0,0-.684.209v8.208c0,.684.342.893.836.893h.209c.475,0,.836-.209.836-.893v-5.3a2.762,2.762,0,0,1,2.565-1.6c1.33,0,2.109.95,2.109,2.489v4.408c0,.684.342.893.836.893H52c.475,0,.836-.209.836-.893V18.547C52.839,16.286,51.718,14.633,49.305,14.633ZM57,21.606c0,1.558,1.159,2.6,3.116,2.6A3.951,3.951,0,0,0,63.4,22.632a2.826,2.826,0,0,0,.076.627,1.019,1.019,0,0,0,1.083.836c.342,0,.684-.114.684-.209v-5.6c0-2.318-1.406-3.648-3.99-3.648a4.851,4.851,0,0,0-3.287,1.045,1.66,1.66,0,0,0-.627,1.14c0,.912,1.159.931,1.159.912a2.761,2.761,0,0,1,2.622-1.558,1.986,1.986,0,0,1,2.261,2.147v.19h-.247C59.014,18.585,57,19.5,57,21.606Zm6.384-1.216a2.56,2.56,0,0,1-2.812,2.47c-1.083,0-1.729-.513-1.729-1.33,0-1.235,1.368-1.729,4.028-1.824l.513-.019Zm7.2,7.619c3.021,0,4.788-1.064,4.788-2.793,0-1.5-1.368-2.147-2.66-2.489-1.6-.4-2.47-.456-2.47-1.045a.531.531,0,0,1,.1-.323h.342c2.318,0,3.952-1.406,3.952-3.325a3.1,3.1,0,0,0-.8-2.033l1.558-1.615a1.027,1.027,0,0,0-.969-.8,1.206,1.206,0,0,0-1.083.722l-.494.874a4.6,4.6,0,0,0-2.185-.551,3.64,3.64,0,0,0-3.914,3.458,3.18,3.18,0,0,0,2.394,3.04,1.341,1.341,0,0,0-.513.988,1.06,1.06,0,0,0,.361.855c-1.653.285-2.907,1.178-2.907,2.508C66.082,27.192,67.507,28.009,70.585,28.009Zm.095-7.885a2.016,2.016,0,0,1-2.147-2.071,2,2,0,0,1,2.109-2.071,2.021,2.021,0,0,1,2.166,2.071A2,2,0,0,1,70.68,20.124ZM70.623,26.7c-1.805,0-2.736-.456-2.736-1.273,0-.969,1.292-1.52,2.85-1.615l.95.228c1.007.247,1.862.513,1.862,1.235C73.549,26.185,72.466,26.7,70.623,26.7Zm5.016-7.22a4.543,4.543,0,0,0,4.826,4.769,5.407,5.407,0,0,0,2.888-.741,1.83,1.83,0,0,0,1.007-1.33c0-.8-.95-.969-.988-.931a3.005,3.005,0,0,1-2.869,1.52,2.969,2.969,0,0,1-3.078-2.489,2.094,2.094,0,0,1-.038-.342h6.745c.437,0,.57-.152.57-.551v-.152a4.256,4.256,0,0,0-4.389-4.6A4.631,4.631,0,0,0,75.639,19.478Zm7.239-.817H77.406a2.914,2.914,0,0,1,2.888-2.6A2.51,2.51,0,0,1,82.878,18.661Zm8.094-4.028a3.545,3.545,0,0,0-3.04,1.615c-.038-1.216-.665-1.482-1.178-1.482a.934.934,0,0,0-.684.209v8.208c0,.684.342.893.836.893h.209c.475,0,.836-.209.836-.893v-5.3a2.762,2.762,0,0,1,2.565-1.6c1.33,0,2.109.95,2.109,2.489v4.408c0,.684.342.893.836.893h.209c.475,0,.836-.209.836-.893V18.547C94.506,16.286,93.385,14.633,90.972,14.633Zm8.8,9.614A2.57,2.57,0,0,0,101.5,23.7a1.128,1.128,0,0,0,.4-.836c0-.589-.475-.855-.532-.8a1.547,1.547,0,0,1-1.292.646c-.893,0-1.216-.551-1.216-1.691V16.4h2.071c.589,0,.817-.247.817-.722v-.133c0-.456-.209-.684-.8-.684H98.876V13.455c0-.7-.323-.893-.817-.893h-.19c-.513,0-.836.247-.836.893v1.406h-.665c-.589,0-.817.247-.817.7V15.7c0,.456.228.7.817.7h.665v4.826C97.033,23.2,97.888,24.247,99.769,24.247Zm2.7-4.769a4.543,4.543,0,0,0,4.826,4.769,5.407,5.407,0,0,0,2.888-.741,1.83,1.83,0,0,0,1.007-1.33c0-.8-.95-.969-.988-.931a3.005,3.005,0,0,1-2.869,1.52,2.969,2.969,0,0,1-3.078-2.489,2.094,2.094,0,0,1-.038-.342h6.745c.437,0,.57-.152.57-.551v-.152a4.256,4.256,0,0,0-4.389-4.6A4.631,4.631,0,0,0,102.467,19.478Zm7.239-.817h-5.472a2.914,2.914,0,0,1,2.888-2.6A2.51,2.51,0,0,1,109.706,18.661Z" transform="translate(86.246 45.677)"/><path class="aa" d="M1417.129,9715.985a3.276,3.276,0,0,1-.6-.059c-4.611-.936-11.149-4.4-15.665-11.308a16.4,16.4,0,0,1-2.088-4.636c-.821-2.978-2.53-9.187.607-15.655a5.563,5.563,0,0,1,3.458-2.444l4.26-.933a2.51,2.51,0,0,1,2.1.479,2.471,2.471,0,0,1,.948,1.9l.132,5.91a2.556,2.556,0,0,1-2.229,2.586l-2.03.271c-.182,2.329.148,8.269,7.026,13.327l1.028-1.655a2.546,2.546,0,0,1,3.2-.992l5.572,2.5a2.471,2.471,0,0,1,1.331,1.462,2.5,2.5,0,0,1-.176,1.99l-2.438,4.494A5.657,5.657,0,0,1,1417.129,9715.985Zm-9.529-32.524-4.209.923a3.309,3.309,0,0,0-1.7,1.063c-2.717,5.6-1.237,10.975-.444,13.859a13.919,13.919,0,0,0,1.764,3.913c4.089,6.261,10.116,9.4,14.033,10.2a3.119,3.119,0,0,0,2.284-1.416l2.405-4.428-2.11-.95-3.384-1.519-1.351,2.215a1.943,1.943,0,0,1-2.759.578c-9.13-6.34-8.88-14.314-8.586-16.607a1.943,1.943,0,0,1,1.675-1.674l2.508-.335Z" transform="translate(-1342.852 -9649.866)"/></g></g></svg>