<svg xmlns="http://www.w3.org/2000/svg" xmlns:xlink="http://www.w3.org/1999/xlink" width="60" height="63.744" viewBox="0 0 60 63.744"><defs><style>.a,.p{fill:#fff;}.a,.d{stroke:#707070;}.b,.i,.o,.q,.r{fill:none;}.c{clip-path:url(#a);}.d{fill:#0855c4;}.e{clip-path:url(#b);}.f{fill:#e5ac85;}.g{fill:#ff429b;}.h{fill:#19467c;}.i{stroke:#b5b5b5;}.i,.o,.q,.r{stroke-miterlimit:10;}.j{fill:#ffc764;}.k{fill:#ffae97;}.l{fill:#fdfffc;}.m{fill:#3a5cbe;}.n{fill:#0caced;}.o,.q{stroke:#fff;}.q,.r{stroke-width:0.75px;}.r{stroke:#ff6700;}.s{fill:#b5b5b5;}.t{fill:#eaab96;}.u{fill:#30497a;}.v{fill:#162357;}.w{fill:#202956;}.x{fill:#df6718;}.y{fill:#2f4879;}.z{fill:#00aded;}.aa{stroke:none;}</style><clipPath id="a"><ellipse class="a" cx="30" cy="29" rx="30" ry="29" transform="translate(-0.422 0.353)"/></clipPath><clipPath id="b"><rect class="b" width="89.304" height="138.49"/></clipPath></defs><g transform="translate(0.857 -30.298)"><g class="c" transform="translate(-0.435 35.688)"><g class="d" transform="translate(-16.423 -4.647)"><ellipse class="aa" cx="46" cy="38" rx="46" ry="38"/><ellipse class="b" cx="46" cy="38" rx="45.5" ry="37.5"/></g><g transform="translate(-11.248 -5.392)"><g class="e"><path class="f" d="M319.192,229.785h-.073a.74.74,0,0,1-.857-.563l-.587-2.594a.74.74,0,0,1,.563-.857h.073a.74.74,0,0,1,.857.563l.587,2.594a.74.74,0,0,1-.563.857" transform="translate(-239.91 -170.501)"/><path class="g" d="M320.374,198.752l-5.385,11.528a1.449,1.449,0,0,0,.71,1.934,1.487,1.487,0,0,0,.441.122l3.941.906a1.517,1.517,0,0,0,1.713-.857L326.959,201A1.524,1.524,0,0,0,326.2,199a.877.877,0,0,0-.269-.1l-3.892-.93a1.451,1.451,0,0,0-1.664.783" transform="translate(-237.787 -149.479)"/><path class="h" d="M104.875,475.1l3.378,18.871-46.138.44,1.542-15.371S78.416,464.6,104.875,475.1" transform="translate(-46.912 -355.927)"/><path class="i" d="M195.448,500.517c3.157-9.521,0-16.008,0-16.008v-3.28l-.734-1.42h3.843l.049,4.479s3.549,11.112-.979,16.228" transform="translate(-147.055 -362.37)"/><path class="i" d="M225.114,497.211s-.073,5.556,4.528,7.392" transform="translate(-170.014 -375.512)"/><path class="i" d="M116.415,494.9s25.969.392,29.69-1.787" transform="translate(-87.921 -372.415)"/><path class="j" d="M103.743,133.954l-1.028-.343v.245l.587.122a1.372,1.372,0,0,1,.441-.024" transform="translate(-77.574 -100.908)"/><path class="j" d="M100.815,126.411v0Z" transform="translate(-76.139 -95.47)"/><path class="j" d="M101.013,126.582l.171.122.759-.245c-.122,0-.294.049-.416.049a1.778,1.778,0,0,1-.612-.1v.269c.073-.1.1-.1.1-.1" transform="translate(-76.215 -95.47)"/><path class="j" d="M100.815,127.209v.122l.294-.1-.171-.122s-.024,0-.122.1" transform="translate(-76.139 -95.999)"/><path class="k" d="M98.837,127.811s1.248,9.472-1.322,11.993l7.906,10.941,7.343,3.671a24.549,24.549,0,0,0,2.178-2.937c.392-.734-1.836-9.13-1.836-9.13s-.734-1.1.734-4.406l-7.906-5.458Z" transform="translate(-73.647 -96.527)"/><path class="l" d="M156.356,140.011l-2.643.22c-.049,0,2.056,2.4,2.643-.22" transform="translate(-116.089 -105.741)"/><path class="m" d="M23.372,183.711,8.857,189.953a9.318,9.318,0,0,0-5.116,5.262C2.371,198.666.8,204.663.315,214.355a71.2,71.2,0,0,1,15.2,2.4l7.857-32.162Z" transform="translate(-0.238 -138.745)"/><path class="m" d="M88.629,203.883S79.4,189.2,78.545,188.365c-.857-.857-14.294-7.49-14.294-7.49,1.518,1.346-1.64,9.154-1.64,9.154l-6.29-10.476a10.541,10.541,0,0,1-8.493-3.843c-5.458,1.665-15.812,21.857-15.812,21.857l7.979,61.925a6.834,6.834,0,0,1,1.885-1.664l.073-2.08,1.371,1.273c10.77-5.336,38.991-4.92,38.991-4.92v-.857c-2.1-6.707-3.745-41.512-3.745-41.512,4.21-6.29,10.06-5.85,10.06-5.85" transform="translate(-24.179 -132.703)"/><path class="n" d="M158.315,197.809s2.423-7.025,7.245-4.577c0,0-1.615-5.116-6.535-6.021l.636,2.472c0-.024.832,1.077-1.346,8.126" transform="translate(-119.565 -141.389)"/><path class="o" d="M78.215,194.311c3.794,2.448,5.9,9.791,9.35,12.679" transform="translate(-59.071 -146.751)"/><path class="m" d="M154.634,233.211a10.012,10.012,0,0,0-.392,6.951" transform="translate(-116.153 -176.129)"/><path class="o" d="M154.634,233.211a10.012,10.012,0,0,0-.392,6.951" transform="translate(-116.153 -176.129)"/><path class="p" d="M126.279,195.711a.465.465,0,1,1-.465.465.465.465,0,0,1,.465-.465" transform="translate(-95.019 -147.808)"/><path class="p" d="M134.679,206.911a.465.465,0,1,1-.465.465.465.465,0,0,1,.465-.465" transform="translate(-101.363 -156.267)"/><path class="p" d="M142.38,219.411a.465.465,0,1,1-.465.465.465.465,0,0,1,.465-.465" transform="translate(-107.179 -165.707)"/><path class="p" d="M150.38,233.411a.465.465,0,1,1-.465.465.465.465,0,0,1,.465-.465" transform="translate(-113.221 -176.281)"/><path class="q" d="M142.214,136.211a3.118,3.118,0,0,0,4.234.587" transform="translate(-107.405 -102.871)"/><path class="i" d="M85.815,525.885V515.458s11.822,3.255,14.172-2.448" transform="translate(-64.811 -387.444)"/><path class="i" d="M85.815,517.361s14.563,2.766,14.906-5.85" transform="translate(-64.811 -386.312)"/><path class="k" d="M37.024,352.972l.245-.049c-.734-.563-1.248-.979-1.248-.979-2.08-2.521-6.707-3.769-6.707-3.769l-.857-.416C20.086,342.3,13.111,327.81,13.111,327.81l2.448-17.721c-3.206-1.2-14.343-2.178-14.343-2.178L1.631,329.7c1.664,7.123,18.015,20.976,18.015,20.976l2.08,2.937.906,2.129.2-.049,2.325,5.58c8.934,1.616,10.965-2.864,10.965-2.864l-1.248-3.255c6.927,5.287,6.927.808,6.927.808-1.052-.2-3.329-1.86-4.773-2.986" transform="translate(-0.918 -232.546)"/><path class="r" d="M22.732,355.738l-.906-2.129-2.08-2.937S3.4,336.842,1.731,329.7l-.416-21.784" transform="translate(-0.993 -232.546)"/><path class="s" d="M200.851,490.011a.636.636,0,1,1-.636.637.636.636,0,0,1,.636-.637" transform="translate(-151.21 -370.074)"/><path class="s" d="M84.779,515.211a.465.465,0,1,1-.465.465.465.465,0,0,1,.465-.465" transform="translate(-63.677 -389.106)"/><path class="s" d="M70.335,518.38v-.392a5.983,5.983,0,0,1-3.671-1.077l-.049.44a6.37,6.37,0,0,0,3.72,1.028" transform="translate(-50.31 -390.39)"/><path class="s" d="M69.223,523.833l.049-.392a6.346,6.346,0,0,1-3.109-.93l-.049.416a6.366,6.366,0,0,0,3.108.906" transform="translate(-49.932 -394.619)"/><path class="m" d="M18.7,274.811,17.6,280.1a10.694,10.694,0,0,1-.636,2.3l-.294.636-.783,2.692s-2.937-1.444-15.371-2.57l.1-3.109c10.256.392,16.057,2.962,16.057,2.962" transform="translate(-0.389 -207.547)"/><path class="o" d="M18.7,274.811,17.6,280.1a10.694,10.694,0,0,1-.636,2.3l-.294.636-.783,2.692s-2.937-1.444-15.371-2.57l.1-3.109c10.256.392,16.057,2.962,16.057,2.962" transform="translate(-0.389 -207.547)"/><path class="k" d="M255.18,235.179l-2.521-2.521a3.689,3.689,0,0,0-2.007-1.028l-3.671-.563a.658.658,0,0,0-.759.465.694.694,0,0,0,.441.881h.025l1.787.465a5.292,5.292,0,0,1,3.255,2.448l.122.22-1.248-.857-4.357-1.836a.858.858,0,0,0-.906,1.444l3.965,2.129,1.028,1.248-3.769-2.227a.777.777,0,0,0-1.077.171c0,.024-.024.024-.024.049a.777.777,0,0,0,.073.979l.514.636-.685-.171c-.514.93-.441,3.965-.441,3.965-3.6,6.829-6.535,11.993-6.535,11.993l-6.29-7.563c-6.29,0-10.084,5.85-10.084,5.85l.073,1.664c8.469,15.518,18.357,15.077,18.357,15.077,6.707-3.378,7.123-17.158,7.123-17.158a35.354,35.354,0,0,1,1.664-6.707A10.249,10.249,0,0,0,253,239.609c2.1-.441.857-2.521.857-2.521,2.57.22,1.322-1.909,1.322-1.909" transform="translate(-167.674 -174.5)"/><path class="r" d="M320.515,256.411c.074.1,2.815,2.594,2.815,2.594" transform="translate(-242.065 -193.651)"/><path class="r" d="M280.788,321.011s-3.843,3.549-2.57,7.735" transform="translate(-209.925 -242.439)"/><path class="m" d="M222.614,288.957s5.042-6.413,10.378-5.6l-1.787-2.742a12.157,12.157,0,0,0-8.591,4.479" transform="translate(-168.126 -211.928)"/><path class="o" d="M222.614,288.957s5.042-6.413,10.378-5.6l-1.787-2.742a12.157,12.157,0,0,0-8.591,4.479" transform="translate(-168.126 -211.928)"/><line class="o" x2="0.171" y2="13.291" transform="translate(54.317 65.281)"/><path class="n" d="M89.2,179.276s-4.92.343-5.091,5.262c0,0-4.112-4.626-7.294-5.458a10.524,10.524,0,0,1,5.164-3.769S83.326,178,89.2,179.276" transform="translate(-58.014 -132.401)"/><path class="t" d="M332.59,229.367s-.759-1.052.661-1.175,5.14,1.566,5.776,3.818a1.735,1.735,0,0,1-.563,1.909l-3.574-2.105Z" transform="translate(-251.031 -172.334)"/><path class="u" d="M180.419,31.818l.5,10.673s2.3-2.958,3.434-3.514S184.335,34,184.335,34L182.08,31.8l-.573-.528Z" transform="translate(-136.259 -23.615)"/><path class="k" d="M85.7,80.9c1.4-.327,2.911,1,3.37,2.971s-.307,3.827-1.709,4.154-2.911-1-3.37-2.971S84.3,81.224,85.7,80.9" transform="translate(-63.331 -61.06)"/><path class="k" d="M113.474,64.2l-2.238,1.66a8.84,8.84,0,0,1-5.223,1.7l-3.544.027a8.6,8.6,0,0,1-5.037-1.584L95.7,64.792a8.834,8.834,0,0,1-2.263-6.353L94.66,32.622l20.267-.03.69,25.58a8.867,8.867,0,0,1-2.143,6.032" transform="translate(-70.562 -24.615)"/><path class="v" d="M94.427,95.27a7.208,7.208,0,0,0,2.312,2.664l.86.581a8.91,8.91,0,0,0,5.063,1.444l3.546-.028a8.864,8.864,0,0,0,5.223-1.7l2.235-1.659a8.643,8.643,0,0,0,2.14-6.025l-.481-13.9-.108-1.232-1.249,9.971a3.614,3.614,0,0,1-3.626,3.443l-11.047.017a3.679,3.679,0,0,1-3.671-3.6l-.6-7.437-1.039-.192-.474,13.26a8.716,8.716,0,0,0,.916,4.395" transform="translate(-70.613 -56.953)"/><path class="w" d="M152.692,91.181a.848.848,0,1,1,.826,1.049.958.958,0,0,1-.826-1.049" transform="translate(-115.319 -68.069)"/><path class="w" d="M126.031,91.292a.848.848,0,1,1,.826,1.049.958.958,0,0,1-.826-1.049" transform="translate(-95.183 -68.152)"/><path class="x" d="M140.433,101.271l-.079-.23c1.156-.385,1.828-.958,1.99-1.7.342-1.477-1.409-3.18-1.428-3.193l-.036-.037V94.219h.242l0,1.792c.27.269,1.809,1.877,1.471,3.386-.194.829-.925,1.46-2.158,1.873" transform="translate(-106 -71.158)"/><rect class="y" width="0.242" height="2.776" transform="matrix(0.176, -0.984, 0.984, 0.176, 37.387, 19.689)"/><rect class="y" width="2.748" height="0.242" transform="translate(29.61 20.085) rotate(-10.894)"/><path class="v" d="M91.668,13.614a16.426,16.426,0,0,0,8.088,2.038c3.8-.2,7.185-2.23,10.4-4.2a4.8,4.8,0,0,1,1.7-.766,1.945,1.945,0,0,1,1.756.428,2.274,2.274,0,0,1,.534,1.316,5.851,5.851,0,0,1-2.53,5.61c.067.542.1,1.139.165,1.682a6.58,6.58,0,0,0,1.474-.827,8.752,8.752,0,0,0,2.86-3.674,10.686,10.686,0,0,0,.087-7.105A26.5,26.5,0,0,0,113,1.607,3.747,3.747,0,0,0,112.069.48,2.915,2.915,0,0,0,109.1.341a12.51,12.51,0,0,0-2.548,1.746,5.468,5.468,0,0,1-2.735,1.352,5.79,5.79,0,0,1-1.585-.066q-1.549-.22-3.112-.581a9.818,9.818,0,0,0-2.019-.3A5.969,5.969,0,0,0,93.544,3.9,17.292,17.292,0,0,0,90.9,6.761c-.64.767-1.23,1.582-1.872,2.353a.85.85,0,0,0-.248.581.957.957,0,0,0,.244.477q1.473,1.89,2.957,3.779" transform="translate(-67.052 -0.001)"/><path class="v" d="M115.721,126.545s7.087-3.046,12.8.25l-3.293,2.069-3.381,1.339-4.031-.55Z" transform="translate(-87.397 -94.603)"/><path class="p" d="M108.027,91.351a4.513,4.513,0,0,1-.595.035,4.732,4.732,0,0,1-3.367-1.405,4.613,4.613,0,0,1-1.351-3.287,5.808,5.808,0,0,1,.082-.862l.025-.116,9.164-.006.032.1a2.571,2.571,0,0,1,.107.865,4.722,4.722,0,0,1-1.406,3.362,4.627,4.627,0,0,1-2.691,1.311M103,86.7a4.33,4.33,0,0,0,1.268,3.08,4.433,4.433,0,0,0,3.162,1.321,4.322,4.322,0,0,0,3.08-1.271,4.435,4.435,0,0,0,1.32-3.16,2.336,2.336,0,0,0-.068-.672l-8.706,0A5.923,5.923,0,0,0,103,86.7" transform="translate(-77.573 -64.731)"/><path class="p" d="M149.891,91.271a4.15,4.15,0,0,1-3.484-1.23,4.709,4.709,0,0,1-1.316-4.245l.022-.116,8.588-.016.016.127a4.911,4.911,0,0,1,.055.848,4.6,4.6,0,0,1-3.88,4.633m-4.524-5.305a4.682,4.682,0,0,0-.061.657,4.519,4.519,0,0,0,1.305,3.208,3.91,3.91,0,0,0,2.8,1.177,4.286,4.286,0,0,0,4.085-4.388,3.95,3.95,0,0,0-.039-.675Z" transform="translate(-109.513 -64.697)"/><rect class="p" width="7.142" height="0.289" transform="translate(31.78 20.971) rotate(-0.098)"/><path class="v" d="M81.261,40.476a4.327,4.327,0,0,0-.387,3.227,8.529,8.529,0,0,1,.264,1.018,6.066,6.066,0,0,1-.762,2.767,6.17,6.17,0,0,0-.341,2.439,5.19,5.19,0,0,1,0,1.474c-.125.476-.433.976-.922,1.037.051-.694-.533-2.79-1.165-3.034a1.582,1.582,0,0,0-2.028.947l-.015.043a7.018,7.018,0,0,0-1.641-5.785A5.1,5.1,0,0,1,72.974,42.7c-.356-1.385.876-2.6,1.965-3.471a2.322,2.322,0,0,1,1.974-.8,2.437,2.437,0,0,1,1,.664,8.893,8.893,0,0,0,3.4,1.788" transform="translate(-55.065 -28.992)"/><path class="o" d="M128.578,133.134s-.092,2.213,2.909,2.48c2.15.192,3.163-2.044,3.163-2.044" transform="translate(-97.107 -100.548)"/></g></g><path class="z" d="M1409.342,9702.013a1.91,1.91,0,0,1-.36-.035,15.587,15.587,0,0,1-9.429-6.806,9.887,9.887,0,0,1-1.257-2.791c-.494-1.792-1.523-5.529.365-9.423a3.353,3.353,0,0,1,2.081-1.472l2.564-.561a1.511,1.511,0,0,1,1.267.288,1.487,1.487,0,0,1,.57,1.143l.079,3.558a1.537,1.537,0,0,1-1.342,1.556l-1.222.163c-.109,1.4.089,4.978,4.229,8.023l.619-1a1.532,1.532,0,0,1,1.927-.6l3.354,1.507a1.486,1.486,0,0,1,.8.88,1.508,1.508,0,0,1-.106,1.2l-1.468,2.705A3.407,3.407,0,0,1,1409.342,9702.013Zm-5.735-19.576-2.534.556a1.985,1.985,0,0,0-1.026.64c-1.635,3.371-.745,6.605-.267,8.342a8.352,8.352,0,0,0,1.062,2.354,14.2,14.2,0,0,0,8.447,6.142,1.876,1.876,0,0,0,1.375-.853l1.448-2.666-1.27-.57-2.037-.914-.813,1.332a1.171,1.171,0,0,1-1.66.349c-5.5-3.815-5.345-8.616-5.168-10a1.171,1.171,0,0,1,1.008-1.008l1.51-.2Z" transform="translate(-1360.66 -9665.756)"/></g><path class="v" d="M91.668,13.614a16.426,16.426,0,0,0,8.088,2.038c3.8-.2,7.185-2.23,10.4-4.2a4.8,4.8,0,0,1,1.7-.766,1.945,1.945,0,0,1,1.756.428,2.274,2.274,0,0,1,.534,1.316,5.851,5.851,0,0,1-2.53,5.61c.067.542.1,1.139.165,1.682a6.58,6.58,0,0,0,1.474-.827,8.752,8.752,0,0,0,2.86-3.674,10.686,10.686,0,0,0,.087-7.105A26.5,26.5,0,0,0,113,1.607,3.747,3.747,0,0,0,112.069.48,2.915,2.915,0,0,0,109.1.341a12.51,12.51,0,0,0-2.548,1.746,5.468,5.468,0,0,1-2.735,1.352,5.79,5.79,0,0,1-1.585-.066q-1.549-.22-3.112-.581a9.818,9.818,0,0,0-2.019-.3A5.969,5.969,0,0,0,93.544,3.9,17.292,17.292,0,0,0,90.9,6.761c-.64.767-1.23,1.582-1.872,2.353a.85.85,0,0,0-.248.581.957.957,0,0,0,.244.477q1.473,1.89,2.957,3.779" transform="translate(-78.735 30.297)"/><path class="v" d="M81.261,40.476a4.327,4.327,0,0,0-.387,3.227,8.529,8.529,0,0,1,.264,1.018,6.066,6.066,0,0,1-.762,2.767,6.17,6.17,0,0,0-.341,2.439,5.19,5.19,0,0,1,0,1.474c-.125.476-.433.976-.922,1.037.051-.694-.533-2.79-1.165-3.034a1.582,1.582,0,0,0-2.028.947l-.015.043a7.018,7.018,0,0,0-1.641-5.785A5.1,5.1,0,0,1,72.974,42.7c-.356-1.385.876-2.6,1.965-3.471a2.322,2.322,0,0,1,1.974-.8,2.437,2.437,0,0,1,1,.664,8.893,8.893,0,0,0,3.4,1.788" transform="translate(-66.748 1.307)"/></g></svg>