<svg xmlns="http://www.w3.org/2000/svg" width="23.237" height="26.463" viewBox="0 0 23.237 26.463"><defs><style>.a{fill:#0855c4;}</style></defs><g transform="translate(-60.234 -311.547)"><g transform="translate(60.234 311.547)"><path class="a" d="M1599.062,250.636h-16.75a3.235,3.235,0,0,1-2.351-1,3.15,3.15,0,0,1-.89-2.322l.751-20.065a3.213,3.213,0,0,1,3.241-3.081h15.4a3.208,3.208,0,0,1,3.242,3.1l.6,20.065a3.151,3.151,0,0,1-.9,2.306A3.237,3.237,0,0,1,1599.062,250.636Zm-16-24.792a1.547,1.547,0,0,0-1.571,1.472l-.752,20.065a1.492,1.492,0,0,0,.423,1.1,1.577,1.577,0,0,0,1.147.484h16.75a1.579,1.579,0,0,0,1.144-.48,1.494,1.494,0,0,0,.427-1.093l-.6-20.065a1.544,1.544,0,0,0-1.571-1.483Z" transform="translate(-1579.068 -224.173)"/></g><g transform="translate(66.931 317.675)"><g transform="translate(0 0)"><rect class="a" width="10.405" height="1.671" rx="0.836"/></g></g><g transform="translate(65.655 321.458)"><g transform="translate(0 0)"><rect class="a" width="12.564" height="1.671" rx="0.836"/></g></g><g transform="translate(65.066 325.449)"><g transform="translate(0 0)"><rect class="a" width="13.742" height="1.671" rx="0.836"/></g></g><g transform="translate(64.23 329.282)"><g transform="translate(0)"><path class="a" d="M1614.885,321.344h-13.376a.885.885,0,0,1-.926-.836h0a.885.885,0,0,1,.926-.836h13.376a.884.884,0,0,1,.926.836h0A.884.884,0,0,1,1614.885,321.344Z" transform="translate(-1600.583 -319.673)"/></g></g></g></svg>