<svg xmlns="http://www.w3.org/2000/svg" width="17" height="17" viewBox="0 0 17 17"><defs><style>.a{fill:#0855c4;opacity:0.355;}.b{fill:#fff;}</style></defs><g transform="translate(-227 -316)"><circle class="a" cx="8.5" cy="8.5" r="8.5" transform="translate(227 316)"/><path class="b" d="M1.95-7.62h.27a.886.886,0,0,0,.99-1v-.21a.875.875,0,0,0-.99-.99H1.95a.891.891,0,0,0-1.02.99v.21A.9.9,0,0,0,1.95-7.62ZM1.905.135H2.28A.994.994,0,0,0,3.315-1.2l-.6-4.815C2.61-6.48,2.49-6.7,2.19-6.7H1.98c-.315,0-.45.225-.555.69L.825-1.2A1.009,1.009,0,0,0,1.905.135Z" transform="translate(233 329)"/></g></svg>