<svg xmlns="http://www.w3.org/2000/svg" width="188" height="63" viewBox="0 0 188 63">
  <g id="Grupo_22305" data-name="Grupo 22305" transform="translate(-1566 -1074)">
    <rect id="Rectángulo_5815" data-name="Rectángulo 5815" width="188" height="63" rx="31" transform="translate(1566 1074)" fill="#0855c4"/>
    <path id="Trazado_20067" data-name="Trazado 20067" d="M4.59-9.594h.252a.887.887,0,0,0,.972-.99V-10.8a.874.874,0,0,0-.972-.972H4.59a.879.879,0,0,0-.99.972v.216A.892.892,0,0,0,4.59-9.594ZM4.23.216A4.2,4.2,0,0,0,7.146-.792a2.668,2.668,0,0,0,.936-1.836c0-.972-1.242-1.008-1.26-.954A2.44,2.44,0,0,1,4.266-1.3c-1.3,0-2.034-.666-2.034-1.692,0-.936.792-1.278,1.6-1.818A3.248,3.248,0,0,0,5.508-7.7c.018-.414-.306-.612-.756-.612-.414,0-.7.126-.738.4-.036,1.278-.918,1.8-1.8,2.376a3.045,3.045,0,0,0-1.746,2.7C.468-1.062,1.89.216,4.23.216ZM9.864.09A1.07,1.07,0,0,0,10.89-.756L11.916-3.42h4.662L17.6-.774A1.141,1.141,0,0,0,18.7.09c.558,0,1.08-.414,1.026-.558L15.552-11.16c-.144-.378-.414-.594-1.278-.594-.846,0-1.134.216-1.278.594L8.856-.468C8.8-.306,9.324.09,9.864.09Zm2.5-5,1.872-4.932L16.11-4.914ZM21.942.072h.18c.468,0,.792-.2.792-.846V-10.836c0-1.242-.576-1.53-1.134-1.53a.926.926,0,0,0-.648.2V-.774C21.132-.126,21.474.072,21.942.072ZM28.332,3.8c2.862,0,4.536-1.008,4.536-2.646,0-1.422-1.3-2.034-2.52-2.358-1.512-.378-2.34-.432-2.34-.99A.5.5,0,0,1,28.1-2.5h.324c2.2,0,3.744-1.332,3.744-3.15a2.94,2.94,0,0,0-.756-1.926l1.476-1.53a.973.973,0,0,0-.918-.756,1.142,1.142,0,0,0-1.026.684l-.468.828a4.357,4.357,0,0,0-2.07-.522A3.449,3.449,0,0,0,24.7-5.6a3.013,3.013,0,0,0,2.268,2.88,1.271,1.271,0,0,0-.486.936,1,1,0,0,0,.342.81C25.254-.7,24.066.144,24.066,1.4,24.066,3.024,25.416,3.8,28.332,3.8Zm.09-7.47a1.91,1.91,0,0,1-2.034-1.962,1.89,1.89,0,0,1,2-1.962,1.915,1.915,0,0,1,2.052,1.962A1.9,1.9,0,0,1,28.422-3.672Zm-.054,6.228c-1.71,0-2.592-.432-2.592-1.206,0-.918,1.224-1.44,2.7-1.53l.9.216c.954.234,1.764.486,1.764,1.17C31.14,2.07,30.114,2.556,28.368,2.556Zm12.744-11.3h-.2c-.45,0-.774.216-.774.864v5.022a2.6,2.6,0,0,1-2.376,1.53c-1.314,0-2.07-.882-2.07-2.376V-7.884c0-.666-.324-.864-.792-.864h-.2c-.45,0-.774.216-.774.864v4.392c0,2.16,1.044,3.708,3.33,3.708A3.363,3.363,0,0,0,40.14-1.3a2.474,2.474,0,0,0,.072.558,1.008,1.008,0,0,0,1.062.81.863.863,0,0,0,.63-.2V-7.884C41.9-8.55,41.58-8.748,41.112-8.748Zm7.632-.126a3.359,3.359,0,0,0-2.88,1.53c-.036-1.152-.63-1.4-1.116-1.4a.885.885,0,0,0-.648.2V-.774c0,.648.324.846.792.846h.2c.45,0,.792-.2.792-.846V-5.8a2.616,2.616,0,0,1,2.43-1.512c1.26,0,2,.9,2,2.358V-.774c0,.648.324.846.792.846h.2c.45,0,.792-.2.792-.846V-5.166C52.092-7.308,51.03-8.874,48.744-8.874Zm4.95,6.606C53.694-.792,54.792.2,56.646.2A3.743,3.743,0,0,0,59.76-1.3a2.677,2.677,0,0,0,.072.594A.965.965,0,0,0,60.858.09c.324,0,.648-.108.648-.2v-5.31c0-2.2-1.332-3.456-3.78-3.456a4.6,4.6,0,0,0-3.114.99,1.572,1.572,0,0,0-.594,1.08c0,.864,1.1.882,1.1.864A2.616,2.616,0,0,1,57.6-7.416a1.882,1.882,0,0,1,2.142,2.034v.18h-.234C55.6-5.13,53.694-4.266,53.694-2.268ZM59.742-3.42a2.425,2.425,0,0,1-2.664,2.34c-1.026,0-1.638-.486-1.638-1.26,0-1.17,1.3-1.638,3.816-1.728l.486-.018ZM70.2.234A3.461,3.461,0,0,0,73.242-1.44v.666c0,.648.324.846.792.846h.18c.468,0,.792-.2.792-.846V-10.836c0-1.242-.576-1.53-1.134-1.53a.926.926,0,0,0-.648.2v4.716a3.5,3.5,0,0,0-2.97-1.422c-2.394,0-4.1,1.818-4.1,4.554S67.878.234,70.2.234ZM73.242-3.78a2.607,2.607,0,0,1-2.7,2.538A2.786,2.786,0,0,1,67.878-4.32c0-1.854,1.08-3.078,2.7-3.078a2.7,2.7,0,0,1,2.664,1.782Zm11.07-4.968h-.2c-.45,0-.774.216-.774.864v5.022a2.6,2.6,0,0,1-2.376,1.53c-1.314,0-2.07-.882-2.07-2.376V-7.884c0-.666-.324-.864-.792-.864h-.2c-.45,0-.774.216-.774.864v4.392c0,2.16,1.044,3.708,3.33,3.708A3.363,3.363,0,0,0,83.34-1.3a2.474,2.474,0,0,0,.072.558,1.008,1.008,0,0,0,1.062.81.863.863,0,0,0,.63-.2V-7.884C85.1-8.55,84.78-8.748,84.312-8.748ZM90.828.234A3.461,3.461,0,0,0,93.87-1.44v.666c0,.648.324.846.792.846h.18c.468,0,.792-.2.792-.846V-10.836c0-1.242-.576-1.53-1.134-1.53a.926.926,0,0,0-.648.2v4.716a3.5,3.5,0,0,0-2.97-1.422c-2.394,0-4.1,1.818-4.1,4.554S88.506.234,90.828.234ZM93.87-3.78a2.607,2.607,0,0,1-2.7,2.538A2.786,2.786,0,0,1,88.506-4.32c0-1.854,1.08-3.078,2.7-3.078A2.7,2.7,0,0,1,93.87-5.616Zm3.456,1.512c0,1.476,1.1,2.466,2.952,2.466A3.743,3.743,0,0,0,103.392-1.3a2.677,2.677,0,0,0,.072.594A.965.965,0,0,0,104.49.09c.324,0,.648-.108.648-.2v-5.31c0-2.2-1.332-3.456-3.78-3.456a4.6,4.6,0,0,0-3.114.99A1.572,1.572,0,0,0,97.65-6.8c0,.864,1.1.882,1.1.864a2.616,2.616,0,0,1,2.484-1.476,1.882,1.882,0,0,1,2.142,2.034v.18h-.234C99.234-5.13,97.326-4.266,97.326-2.268Zm6.048-1.152a2.425,2.425,0,0,1-2.664,2.34c-1.026,0-1.638-.486-1.638-1.26,0-1.17,1.3-1.638,3.816-1.728l.486-.018Zm6.3.09c.414,0,.7-.126.738-.4.036-1.278.918-1.8,1.8-2.376a3.045,3.045,0,0,0,1.746-2.7c0-1.782-1.422-3.06-3.762-3.06a4.2,4.2,0,0,0-2.916,1.008,2.668,2.668,0,0,0-.936,1.836c0,.972,1.242,1.008,1.26.954a2.44,2.44,0,0,1,2.556-2.286c1.3,0,2.034.666,2.034,1.692,0,.936-.792,1.278-1.6,1.818a3.248,3.248,0,0,0-1.674,2.9C108.9-3.528,109.224-3.33,109.674-3.33Zm-.09,3.456h.252a.879.879,0,0,0,.99-.972v-.216a.892.892,0,0,0-.99-.99h-.252a.887.887,0,0,0-.972.99v.216A.874.874,0,0,0,109.584.126Z" transform="translate(1619.374 1102)" fill="#fff"/>
    <g id="Grupo_22301" data-name="Grupo 22301" transform="translate(1586.805 1089.042)">
      <path id="Trazado_20056" data-name="Trazado 20056" d="M17.974,32.247a2.7,2.7,0,0,1-.549-.053A23.788,23.788,0,0,1,3.028,21.8a15.08,15.08,0,0,1-1.923-4.255C.351,14.806-1.22,9.1,1.663,3.16A5.1,5.1,0,0,1,4.841.916L8.755.063A2.315,2.315,0,0,1,10.689.5a2.271,2.271,0,0,1,.871,1.744L11.68,7.68a2.35,2.35,0,0,1-2.048,2.373L7.766,10.3C7.6,12.444,7.9,17.907,14.222,22.55l.945-1.523a2.344,2.344,0,0,1,2.942-.91l5.119,2.3a2.279,2.279,0,0,1,1.062,3.177L22.046,29.72A5.2,5.2,0,0,1,17.974,32.247ZM9.217,2.361l-3.868.847a3.054,3.054,0,0,0-1.566.978c-2.5,5.146-1.137,10.085-.407,12.737A12.731,12.731,0,0,0,5,20.516a21.677,21.677,0,0,0,12.895,9.375,2.863,2.863,0,0,0,2.1-1.3l2.21-4.072-5.048-2.266L15.91,24.289a1.787,1.787,0,0,1-2.46.583c-.026-.015-.05-.032-.075-.049C4.986,19,5.216,11.671,5.486,9.564a1.787,1.787,0,0,1,1.54-1.539l2.3-.3Z" fill="#fff"/>
    </g>
    <path id="Trazado_20068" data-name="Trazado 20068" d="M-42.189,0h6.909a.882.882,0,0,0,1.008-.945v-.084c0-.609-.357-.924-1.008-.924h-5.9V-12.684c0-.672-.315-.987-.945-.987h-.315c-.588,0-.9.315-.9.987V-1.2A1.1,1.1,0,0,0-42.189,0ZM-31.4.084h.21c.546,0,.924-.231.924-.987V-12.642c0-1.449-.672-1.785-1.323-1.785a1.08,1.08,0,0,0-.756.231V-.9C-32.34-.147-31.941.084-31.4.084Zm6.3-11.739c.273,0,3.822-.966,3.822-2.52a.87.87,0,0,0-.9-.945c-1.575,0-3.087,3-3.087,3.36C-25.263-11.676-25.179-11.655-25.1-11.655Zm-3.087,9.009c0,1.722,1.281,2.877,3.444,2.877a4.367,4.367,0,0,0,3.633-1.743,3.123,3.123,0,0,0,.084.693,1.126,1.126,0,0,0,1.2.924c.378,0,.756-.126.756-.231v-6.2c0-2.562-1.554-4.032-4.41-4.032A5.362,5.362,0,0,0-27.111-9.2a1.834,1.834,0,0,0-.693,1.26c0,1.008,1.281,1.029,1.281,1.008a3.052,3.052,0,0,1,2.9-1.722,2.2,2.2,0,0,1,2.5,2.373v.21H-21.4C-25.956-5.985-28.182-4.977-28.182-2.646Zm7.056-1.344a2.829,2.829,0,0,1-3.108,2.73c-1.2,0-1.911-.567-1.911-1.47,0-1.365,1.512-1.911,4.452-2.016l.567-.021ZM-4.62-10.353A3.969,3.969,0,0,0-8.127-8.232a3.278,3.278,0,0,0-3.3-2.121,3.751,3.751,0,0,0-3.129,1.7c-.084-1.3-.714-1.554-1.3-1.554a1.032,1.032,0,0,0-.756.231V-.9c0,.756.378.987.924.987h.231c.525,0,.924-.231.924-.987V-6.846a2.921,2.921,0,0,1,2.541-1.68c1.491,0,2.226.882,2.226,2.667V-.9c0,.756.4.987.945.987h.21c.546,0,.924-.231.924-.987V-6.846a2.952,2.952,0,0,1,2.562-1.68c1.491,0,2.226.882,2.226,2.583V-.9c0,.756.378.987.945.987h.21c.546,0,.924-.231.924-.987V-6.195C-.819-8.8-2.058-10.353-4.62-10.353ZM1.05-2.646C1.05-.924,2.331.231,4.494.231A4.367,4.367,0,0,0,8.127-1.512a3.123,3.123,0,0,0,.084.693A1.126,1.126,0,0,0,9.408.1c.378,0,.756-.126.756-.231v-6.2c0-2.562-1.554-4.032-4.41-4.032A5.362,5.362,0,0,0,2.121-9.2a1.834,1.834,0,0,0-.693,1.26c0,1.008,1.281,1.029,1.281,1.008a3.052,3.052,0,0,1,2.9-1.722,2.2,2.2,0,0,1,2.5,2.373v.21H7.833C3.276-5.985,1.05-4.977,1.05-2.646ZM8.106-3.99A2.829,2.829,0,0,1,5-1.26c-1.2,0-1.911-.567-1.911-1.47,0-1.365,1.512-1.911,4.452-2.016l.567-.021Zm9.933-6.363a3.918,3.918,0,0,0-3.36,1.785c-.042-1.344-.735-1.638-1.3-1.638a1.032,1.032,0,0,0-.756.231V-.9c0,.756.378.987.924.987h.231c.525,0,.924-.231.924-.987V-6.762a3.052,3.052,0,0,1,2.835-1.764c1.47,0,2.331,1.05,2.331,2.751V-.9c0,.756.378.987.924.987h.231c.525,0,.924-.231.924-.987V-6.027C21.945-8.526,20.706-10.353,18.039-10.353Zm5.754,5.292A5.083,5.083,0,0,0,29.085.273a5.083,5.083,0,0,0,5.292-5.292,5.1,5.1,0,0,0-5.271-5.334A5.089,5.089,0,0,0,23.793-5.061Zm8.652.042a3.389,3.389,0,0,1-3.36,3.591A3.429,3.429,0,0,1,25.7-5.061a3.393,3.393,0,0,1,3.381-3.591A3.389,3.389,0,0,1,32.445-5.019ZM36.393-.63a6.033,6.033,0,0,0,3.465.882c2.6,0,4.2-1.239,4.2-3.171,0-2.184-2.163-2.646-3.717-2.982-1.638-.357-2.52-.567-2.52-1.491,0-.84.756-1.386,2.184-1.386A3.653,3.653,0,0,1,42.966-7.35a1.1,1.1,0,0,0,.84-.966,1.232,1.232,0,0,0-.252-.714c-.483-.714-1.7-1.323-3.633-1.323-2.457,0-4.032,1.281-4.032,3.171,0,2.142,2.058,2.6,3.549,2.919,1.659.357,2.6.546,2.6,1.575,0,.84-.8,1.365-2.226,1.365a4.158,4.158,0,0,1-3.4-1.512,1.062,1.062,0,0,0-.819.945A1.657,1.657,0,0,0,36.393-.63Z" transform="translate(1663.186 1121.016)" fill="#fff"/>
  </g>
</svg>
