<svg xmlns="http://www.w3.org/2000/svg" width="290" height="49" viewBox="0 0 290 49">
  <g id="Grupo_22303" data-name="Grupo 22303" transform="translate(-3141 -6372)">
    <rect id="Rectángulo_5816" data-name="Rectángulo 5816" width="290" height="49" rx="24.5" transform="translate(3141 6372)" fill="#0855c4"/>
    <path id="Trazado_20070" data-name="Trazado 20070" d="M6.8,4.158c.609,0,.966-.273.966-.84A1.068,1.068,0,0,0,7.455,2.6C4.641,1.953,3.024-1.113,3.024-4.788c0-3.549,1.617-6.7,4.431-7.329a1.2,1.2,0,0,0,.315-.735c0-.567-.357-.84-.966-.84a4.635,4.635,0,0,0-3.213,1.659A10.472,10.472,0,0,0,.9-4.767a10.406,10.406,0,0,0,2.6,7.224A4.784,4.784,0,0,0,6.8,4.158ZM14.049.273c3.507,0,5.67-2.478,5.67-6.4V-7.5c0-3.927-2.142-6.363-5.67-6.363C10.563-13.86,8.4-11.4,8.4-7.476V-6.09C8.4-2.163,10.521.273,14.049.273Zm0-1.827c-2.184,0-3.465-1.638-3.465-4.494V-7.581c0-2.856,1.26-4.494,3.465-4.494s3.507,1.68,3.507,4.536v1.512C17.556-3.171,16.3-1.554,14.049-1.554ZM25.158.1h.273c.63,0,.945-.336.945-.987V-12.7c0-.651-.315-.987-.945-.987H24.7a1.731,1.731,0,0,1-1.7,1.6,1.709,1.709,0,0,1-1.239-.483,1.115,1.115,0,0,0-.609,1.071,1.365,1.365,0,0,0,.462,1.05,1.927,1.927,0,0,0,1.218.4,1.984,1.984,0,0,0,1.407-.567V-.882C24.234-.231,24.549.1,25.158.1Zm4.326,4.053a5.053,5.053,0,0,0,3.591-2.016,10.719,10.719,0,0,0,2.31-6.909,10.7,10.7,0,0,0-2.373-6.93,4.979,4.979,0,0,0-3.528-2c-.609,0-.966.273-.966.84a1.2,1.2,0,0,0,.315.735c2.814.63,4.431,3.78,4.431,7.329,0,3.675-1.617,6.741-4.431,7.392a1.068,1.068,0,0,0-.315.714C28.518,3.885,28.875,4.158,29.484,4.158ZM45.255.273c3.255,0,5.271-1.743,5.271-4.452,0-2.625-1.932-4.284-4.872-4.284a6.753,6.753,0,0,0-2.793.609v-3.885h6.027c.672,0,1.008-.294,1.008-.861v-.1q0-.882-1.008-.882H42.063a1.089,1.089,0,0,0-1.113,1.218V-7.2c0,.84.42,1.281,1.323,1.344a5.045,5.045,0,0,1,3.171-.924c1.932,0,3.066.987,3.066,2.625S47.25-1.47,45.255-1.47a4.282,4.282,0,0,1-3.822-2.016C41.37-3.591,40.4-3.15,40.4-2.415A2.466,2.466,0,0,0,41.727-.63,6.712,6.712,0,0,0,45.255.273Zm12.558,0c3.507,0,5.67-2.478,5.67-6.4V-7.5c0-3.927-2.142-6.363-5.67-6.363-3.486,0-5.649,2.457-5.649,6.384V-6.09C52.164-2.163,54.285.273,57.813.273Zm0-1.827c-2.184,0-3.465-1.638-3.465-4.494V-7.581c0-2.856,1.26-4.494,3.465-4.494S61.32-10.4,61.32-7.539v1.512C61.32-3.171,60.06-1.554,57.813-1.554ZM71.148.273c3.507,0,5.67-2.478,5.67-6.4V-7.5c0-3.927-2.142-6.363-5.67-6.363-3.486,0-5.649,2.457-5.649,6.384V-6.09C65.5-2.163,67.62.273,71.148.273Zm0-1.827c-2.184,0-3.465-1.638-3.465-4.494V-7.581c0-2.856,1.26-4.494,3.465-4.494s3.507,1.68,3.507,4.536v1.512C74.655-3.171,73.395-1.554,71.148-1.554Zm7.539-3.4c0,.483.315.8.9.8h4.725c.609,0,.9-.315.9-.8V-5.25a.787.787,0,0,0-.9-.819H79.59a.8.8,0,0,0-.9.819ZM92.736.273c3.507,0,5.67-2.478,5.67-6.4V-7.5c0-3.927-2.142-6.363-5.67-6.363-3.486,0-5.649,2.457-5.649,6.384V-6.09C87.087-2.163,89.208.273,92.736.273Zm0-1.827c-2.184,0-3.465-1.638-3.465-4.494V-7.581c0-2.856,1.26-4.494,3.465-4.494s3.507,1.68,3.507,4.536v1.512C96.243-3.171,94.983-1.554,92.736-1.554ZM106.071.273c3.507,0,5.67-2.478,5.67-6.4V-7.5c0-3.927-2.142-6.363-5.67-6.363-3.486,0-5.649,2.457-5.649,6.384V-6.09C100.422-2.163,102.543.273,106.071.273Zm0-1.827c-2.184,0-3.465-1.638-3.465-4.494V-7.581c0-2.856,1.26-4.494,3.465-4.494s3.507,1.68,3.507,4.536v1.512C109.578-3.171,108.318-1.554,106.071-1.554ZM119.406.273c3.507,0,5.67-2.478,5.67-6.4V-7.5c0-3.927-2.142-6.363-5.67-6.363-3.486,0-5.649,2.457-5.649,6.384V-6.09C113.757-2.163,115.878.273,119.406.273Zm0-1.827c-2.184,0-3.465-1.638-3.465-4.494V-7.581c0-2.856,1.26-4.494,3.465-4.494s3.507,1.68,3.507,4.536v1.512C122.913-3.171,121.653-1.554,119.406-1.554ZM132.741.273c3.507,0,5.67-2.478,5.67-6.4V-7.5c0-3.927-2.142-6.363-5.67-6.363-3.486,0-5.649,2.457-5.649,6.384V-6.09C127.092-2.163,129.213.273,132.741.273Zm0-1.827c-2.184,0-3.465-1.638-3.465-4.494V-7.581c0-2.856,1.26-4.494,3.465-4.494s3.507,1.68,3.507,4.536v1.512C136.248-3.171,134.988-1.554,132.741-1.554Zm10.92-3.507A5.083,5.083,0,0,0,148.953.273a5.083,5.083,0,0,0,5.292-5.292,5.1,5.1,0,0,0-5.271-5.334A5.089,5.089,0,0,0,143.661-5.061Zm8.652.042a3.389,3.389,0,0,1-3.36,3.591,3.429,3.429,0,0,1-3.381-3.633,3.393,3.393,0,0,1,3.381-3.591A3.389,3.389,0,0,1,152.313-5.019Zm9.492-5.334a4.026,4.026,0,0,0-3.549,1.89,3.581,3.581,0,0,0-.063-.588,1.2,1.2,0,0,0-1.239-1.155,1.032,1.032,0,0,0-.756.231v13.1c0,.756.378.987.924.987h.231c.525,0,.924-.231.924-.987V-1.617a3.9,3.9,0,0,0,3.465,1.89c2.793,0,4.788-2.163,4.788-5.334C166.53-8.274,164.514-10.353,161.805-10.353Zm-.441,8.9a3.018,3.018,0,0,1-3.108-2.961V-6.531a3.224,3.224,0,0,1,3.15-2.1c1.806,0,3.108,1.491,3.108,3.591C164.514-2.9,163.254-1.449,161.364-1.449Zm6.51-3.612a5.107,5.107,0,0,0,5.25,5.334A4.986,4.986,0,0,0,176.4-.777,2.482,2.482,0,0,0,177.45-2.5c0-.9-1.176-1.05-1.239-.945a3.014,3.014,0,0,1-3.045,1.974,3.356,3.356,0,0,1-3.318-3.591,3.344,3.344,0,0,1,3.318-3.549,3,3,0,0,1,3.045,1.974c.063.105,1.239-.063,1.239-.924A2.513,2.513,0,0,0,176.421-9.3a5.05,5.05,0,0,0-3.3-1.05A5.109,5.109,0,0,0,167.874-5.061Zm11.361-8.274a1.126,1.126,0,0,0,1.239,1.2,1.107,1.107,0,0,0,1.239-1.2,1.116,1.116,0,0,0-1.218-1.218A1.138,1.138,0,0,0,179.235-13.335ZM179.4-.9c0,.756.4.987.945.987h.21c.546,0,.924-.231.924-.987V-9.2c0-.777-.378-1.008-.924-1.008h-.21c-.546,0-.945.252-.945,1.008Zm7.812-10.752c.273,0,3.822-.966,3.822-2.52a.87.87,0,0,0-.9-.945c-1.575,0-3.087,3-3.087,3.36C187.047-11.676,187.131-11.655,187.215-11.655ZM183.54-5.061A5.083,5.083,0,0,0,188.832.273a5.083,5.083,0,0,0,5.292-5.292,5.1,5.1,0,0,0-5.271-5.334A5.089,5.089,0,0,0,183.54-5.061Zm8.652.042a3.389,3.389,0,0,1-3.36,3.591,3.429,3.429,0,0,1-3.381-3.633,3.393,3.393,0,0,1,3.381-3.591A3.389,3.389,0,0,1,192.192-5.019Zm9.3-5.334a3.918,3.918,0,0,0-3.36,1.785c-.042-1.344-.735-1.638-1.3-1.638a1.032,1.032,0,0,0-.756.231V-.9c0,.756.378.987.924.987h.231c.525,0,.924-.231.924-.987V-6.762a3.052,3.052,0,0,1,2.835-1.764c1.47,0,2.331,1.05,2.331,2.751V-.9c0,.756.378.987.924.987h.231c.525,0,.924-.231.924-.987V-6.027C205.4-8.526,204.162-10.353,201.5-10.353ZM215.481.273c3.318,0,5.271-1.533,5.271-4.074a3.527,3.527,0,0,0-2.646-3.486,2.846,2.846,0,0,0,2.31-2.9c0-2.331-1.806-3.675-4.935-3.675a6.111,6.111,0,0,0-3.339.924,2.465,2.465,0,0,0-1.26,1.806,1.134,1.134,0,0,0,1.26,1.071,3.4,3.4,0,0,1,3.318-2.058c1.785,0,2.856.8,2.856,2.1,0,1.281-.882,2.058-2.541,2.058h-1.26c-.651,0-.987.21-.987.777v.126c0,.462.273.777,1.029.777h.966c2.037,0,3.108.819,3.108,2.394,0,1.47-1.218,2.394-3.15,2.394a3.655,3.655,0,0,1-3.738-2.394,1.119,1.119,0,0,0-1.26,1.113A2.666,2.666,0,0,0,211.743-.8,6.33,6.33,0,0,0,215.481.273Z" transform="translate(3186.999 6403.5)" fill="#fff"/>
    <path id="Trazado_20069" data-name="Trazado 20069" d="M15.976,28.665a2.4,2.4,0,0,1-.488-.047,21.145,21.145,0,0,1-12.8-9.238A13.4,13.4,0,0,1,.982,15.6c-.671-2.436-2.067-7.5.5-12.788A4.536,4.536,0,0,1,4.3.815L7.781.056A2.058,2.058,0,0,1,9.5.447,2.019,2.019,0,0,1,10.274,2l.107,4.831A2.089,2.089,0,0,1,8.561,8.937L6.9,9.157c-.148,1.905.121,6.761,5.739,10.888l.84-1.353a2.083,2.083,0,0,1,2.615-.809l4.55,2.043a2.026,2.026,0,0,1,.944,2.824L19.6,26.418A4.622,4.622,0,0,1,15.976,28.665ZM8.193,2.1l-3.438.753a2.715,2.715,0,0,0-1.392.869C1.143,8.3,2.351,12.686,3,15.043a11.316,11.316,0,0,0,1.441,3.194A19.268,19.268,0,0,0,15.9,26.57a2.545,2.545,0,0,0,1.865-1.155l1.964-3.62-4.487-2.014-1.1,1.809a1.588,1.588,0,0,1-2.186.519c-.023-.013-.045-.028-.066-.044C4.431,16.887,4.636,10.375,4.876,8.5A1.588,1.588,0,0,1,6.245,7.134l2.048-.271Z" transform="translate(3156.083 6381.664)" fill="#fff"/>
  </g>
</svg>
