<svg xmlns="http://www.w3.org/2000/svg" width="48" height="48" viewBox="0 0 48 48">
  <g id="Grupo_22299" data-name="Grupo 22299" transform="translate(-312 -1116)">
    <circle id="Elipse_1430" data-name="Elipse 1430" cx="24" cy="24" r="24" transform="translate(312 1116)" fill="#0855c4"/>
    <path id="Trazado_20056" data-name="Trazado 20056" d="M15.976,28.665a2.4,2.4,0,0,1-.488-.047,21.145,21.145,0,0,1-12.8-9.238A13.4,13.4,0,0,1,.982,15.6c-.671-2.436-2.067-7.5.5-12.788A4.536,4.536,0,0,1,4.3.815L7.781.056A2.058,2.058,0,0,1,9.5.447,2.019,2.019,0,0,1,10.274,2l.107,4.831A2.089,2.089,0,0,1,8.561,8.937L6.9,9.157c-.148,1.905.121,6.761,5.739,10.888l.84-1.353a2.083,2.083,0,0,1,2.615-.809l4.55,2.043a2.026,2.026,0,0,1,.944,2.824L19.6,26.418A4.622,4.622,0,0,1,15.976,28.665ZM8.193,2.1l-3.438.753a2.715,2.715,0,0,0-1.392.869C1.143,8.3,2.351,12.686,3,15.043a11.316,11.316,0,0,0,1.441,3.194A19.268,19.268,0,0,0,15.9,26.57a2.545,2.545,0,0,0,1.865-1.155l1.964-3.62-4.487-2.014-1.1,1.809a1.588,1.588,0,0,1-2.186.519c-.023-.013-.045-.028-.066-.044C4.431,16.887,4.636,10.375,4.876,8.5A1.588,1.588,0,0,1,6.245,7.134l2.048-.271Z" transform="translate(325.16 1125.814)" fill="#fff"/>
  </g>
</svg>
