<svg xmlns="http://www.w3.org/2000/svg" width="58" height="58" viewBox="0 0 58 58"><defs><style>.a{fill:#ea0c90;}.b{fill:#fff;}</style></defs><g transform="translate(-327 -91)"><circle class="a" cx="29" cy="29" r="29" transform="translate(327 91)"/><path class="b" d="M901.245,10051.79l1.021-1.646a.944.944,0,0,1,1.183-.369l4.146,1.861a.894.894,0,0,1,.413,1.251l-1.815,3.342a3.125,3.125,0,0,1-2.725,1.532,18.352,18.352,0,0,1-11.05-8.006,11.25,11.25,0,0,1-1.433-3.177c-.648-2.354-1.747-6.576.39-10.982a3.227,3.227,0,0,1,1.921-1.306l3.17-.7a.908.908,0,0,1,1.116.859l.1,4.4a.955.955,0,0,1-.832.958l-1.865.246a.5.5,0,0,0-.428.424c-.189,1.476-.408,7.015,5.988,11.456A.5.5,0,0,0,901.245,10051.79Z" transform="translate(-543.121 -9925.573)"/></g></svg>