<?xml version="1.0" encoding="utf-8"?>
<!-- Generator: Adobe Illustrator 23.0.6, SVG Export Plug-In . SVG Version: 6.00 Build 0)  -->
<svg version="1.1" id="Capa_1" xmlns="http://www.w3.org/2000/svg" xmlns:xlink="http://www.w3.org/1999/xlink" x="0px" y="0px"
	 viewBox="0 0 28 27" style="enable-background:new 0 0 28 27;" xml:space="preserve">
<style type="text/css">
	.st0{fill:#0855C4;}
</style>
<path id="Trazado_3894" class="st0" d="M23.6,25.3c-1.1-5.4-6.4-8.9-11.9-7.8C8,18.3,5,21.1,4.1,24.8l-1.9-0.5
	c1.7-6.4,8.3-10.2,14.7-8.5c4.4,1.2,7.8,4.7,8.7,9.2L23.6,25.3z"/>
<path id="Trazado_3895" class="st0" d="M13.9,13.8c-3.4,0-6.1-2.7-6.1-6.1c0-3.4,2.7-6.1,6.1-6.1c3.4,0,6.1,2.7,6.1,6.1
	C19.9,11.1,17.2,13.8,13.9,13.8z M13.9,3.6c-2.3,0-4.1,1.9-4.1,4.1s1.9,4.1,4.1,4.1c2.3,0,4.1-1.9,4.1-4.1c0,0,0,0,0,0
	C18,5.5,16.1,3.6,13.9,3.6L13.9,3.6z"/>
</svg>
