<svg xmlns="http://www.w3.org/2000/svg" width="23.414" height="26" viewBox="0 0 23.414 26"><defs><style>.a{fill:#0855c4;}</style></defs><g transform="translate(241.338 -795.778)"><g transform="translate(-241.338 795.778)"><path class="a" d="M-229.631,821.778a1.41,1.41,0,0,1-.418-.064A15.959,15.959,0,0,1-241.338,806.4v-4.68a2.594,2.594,0,0,1,1.984-2.534l9.723-3.406,9.723,3.406a2.594,2.594,0,0,1,1.984,2.534v4.68a15.96,15.96,0,0,1-11.289,15.317A1.418,1.418,0,0,1-229.631,821.778Zm-.1-1.747h0Zm.1-22.384-9.232,3.234-.05.011a.841.841,0,0,0-.661.826v4.68a14.2,14.2,0,0,0,9.944,13.6,14.2,14.2,0,0,0,9.944-13.6v-4.68a.841.841,0,0,0-.661-.826l-.1-.028Z" transform="translate(241.338 -795.778)"/></g><g transform="translate(-235.182 804.232)"><path class="a" d="M-206.247,847.295l-3.662-3.439,1.207-1.285,2.5,2.345,6.835-5.98,1.161,1.327Z" transform="translate(209.909 -838.936)"/></g></g></svg>