<?xml version="1.0" encoding="utf-8"?>
<!-- Generator: Adobe Illustrator 23.0.6, SVG Export Plug-In . SVG Version: 6.00 Build 0)  -->
<svg version="1.1" id="Capa_1" xmlns="http://www.w3.org/2000/svg" xmlns:xlink="http://www.w3.org/1999/xlink" x="0px" y="0px"
	 viewBox="0 0 35 28" style="enable-background:new 0 0 35 28;" xml:space="preserve">
<style type="text/css">
	.st0{fill:#FFFFFF;stroke:#FFFFFF;stroke-width:0.5;}
</style>
<g id="Grupo_1515" transform="translate(-1483.056 -9985.32)">
	<path id="Trazado_3812" class="st0" d="M1501,9986.5c-7,0-12.7,5.7-12.7,12.7c0,7,5.7,12.7,12.7,12.7c7,0,12.7-5.7,12.7-12.7
		C1513.7,9992.2,1508,9986.5,1501,9986.5z M1501,10010.2c-6.1,0-11-4.9-11-11s4.9-11,11-11c6.1,0,11,4.9,11,11
		C1512,10005.3,1507.1,10010.2,1501,10010.2z"/>
	<path id="Trazado_3813" class="st0" d="M1501.3,9994.8l-1.2-1.2l-5.6,5.6l5.6,5.6l1.2-1.2l-3.6-3.6h8.8v-1.7h-8.6L1501.3,9994.8z"
		/>
</g>
</svg>
