<svg xmlns="http://www.w3.org/2000/svg" width="22" height="22" viewBox="0 0 22 22"><defs><style>.a{fill:#0855c4;stroke:#0855c4;}</style></defs><g transform="translate(0.5 0.5)"><path class="a" d="M182.553,84.972a.554.554,0,0,1-.384-.154l-3.141-3a.556.556,0,0,1-.172-.4V75.654a.556.556,0,1,1,1.112,0v5.528l2.968,2.831a.556.556,0,0,1-.384.958" transform="translate(-168.91 -70.922)"/><path class="a" d="M18.625,266.678H15.31a.556.556,0,0,1,0-1.112h2.759v-2.759a.556.556,0,1,1,1.112,0v3.315a.556.556,0,0,1-.556.556" transform="translate(-13.934 -247.668)"/><path class="a" d="M10.5,21a.556.556,0,0,1,0-1.112,9.388,9.388,0,0,0,0-18.776h0A9.388,9.388,0,0,0,1.112,10.5,9.433,9.433,0,0,0,4.867,18.01a.556.556,0,0,1-.667.89A10.5,10.5,0,0,1,0,10.5,10.5,10.5,0,0,1,10.5,0h0a10.5,10.5,0,0,1,0,21Z" transform="translate(0)"/></g></svg>