<?xml version="1.0" encoding="UTF-8"?>
<svg width="72px" height="72px" viewBox="0 0 72 72" version="1.1" xmlns="http://www.w3.org/2000/svg" xmlns:xlink="http://www.w3.org/1999/xlink">
    <!-- Generator: Sketch 52.5 (67469) - https://www.bohemiancoding.com/sketch -->
    <title>Group 28 Copy</title>
    <desc>Created with Sketch.</desc>
    <g id="Page-1" stroke="none" stroke-width="1" fill="none" fill-rule="evenodd">
        <g id="Group-28-Copy">
            <g id="Group-23">
                <circle id="Oval-Copy-2" fill="#00ACEE" cx="36" cy="36" r="36"></circle>
                <path d="M56.5714286,25.6601486 C55.0571404,26.3055029 53.432331,26.7431747 51.7251686,26.9385721 C53.4682975,25.934623 54.802619,24.342219 55.4350234,22.4505765 C53.7999282,23.3802978 51.995085,24.0553949 50.0719894,24.4213607 C48.5320205,22.8413065 46.3415631,21.8571429 43.9119793,21.8571429 C39.2508625,21.8571429 35.4715622,25.4920371 35.4715622,29.972597 C35.4715622,30.6080585 35.5461169,31.2287133 35.6901171,31.8222116 C28.6765931,31.4834022 22.4574905,28.2515876 18.2951307,23.340727 C17.5675329,24.5375517 17.1536163,25.9321013 17.1536163,27.4207288 C17.1536163,30.2371786 18.6447784,32.7222548 20.9072358,34.1761608 C19.5240403,34.1316759 18.2231306,33.76571 17.084238,33.157405 L17.084238,33.2587891 C17.084238,37.1904002 19.9945621,40.4716784 23.8535264,41.2184815 C23.1465,41.4014644 22.4009526,41.5028486 21.6296572,41.5028486 C21.0846479,41.5028486 20.5575882,41.450928 20.0408143,41.3520008 C21.1154379,44.5789013 24.2314766,46.9254795 27.9233818,46.9898145 C25.0361838,49.165824 21.3957072,50.4590542 17.4416167,50.4590542 C16.7603383,50.4590542 16.0892784,50.4194833 15.4285714,50.3477773 C19.1641742,52.6548492 23.5990722,54 28.365601,54 C43.8915423,54 52.3782789,41.6314539 52.3782789,30.90484 L52.3499763,29.853949 C54.0081975,28.716416 55.4427545,27.2872095 56.5714286,25.6601486 Z" id="Path" fill="#FFFFFF"></path>
            </g>
        </g>
    </g>
</svg>