<?xml version="1.0" encoding="utf-8"?>
<!-- Generator: Adobe Illustrator 23.0.6, SVG Export Plug-In . SVG Version: 6.00 Build 0)  -->
<svg version="1.1" id="Capa_1" xmlns="http://www.w3.org/2000/svg" xmlns:xlink="http://www.w3.org/1999/xlink" x="0px" y="0px"
	 viewBox="0 0 17 16" style="enable-background:new 0 0 17 16;" xml:space="preserve">
<style type="text/css">
	.st0{fill:#717285;}
</style>
<path id="Trazado_3979" class="st0" d="M16,3.6l-0.2-1l-1,0.1c-2.2,0.2-5.2-1.3-5.2-1.3L9,1L8.4,1.4C6.8,2.3,5,2.8,3.2,2.7L2.1,2.6
	L2,3.7c-0.4,3.4,0.7,6.8,3,9.4c1,1.1,2.2,2.1,3.6,2.7L9.1,16l0.5-0.2c3.1-1.4,5.4-4.2,6.2-7.5C16.1,6.7,16.2,5.1,16,3.6z M14.9,8
	c-0.7,3.1-2.9,5.6-5.7,6.9l-0.1,0l-0.1,0c-1.2-0.6-2.4-1.5-3.3-2.5C3.6,10.1,2.6,6.9,3,3.8l0-0.2l0.2,0c2,0.1,4-0.4,5.8-1.4l0.1-0.1
	l0.1,0.1c0.1,0.1,3.2,1.7,5.7,1.5l0.2,0l0,0.2C15.3,5.2,15.2,6.6,14.9,8z"/>
<path id="Trazado_3980" class="st0" d="M11.7,5.9c-0.3-0.2-0.7-0.2-0.9,0c0,0,0,0,0,0L8.3,8.5L7.8,8.1C7.5,7.8,7.1,7.9,6.9,8.2
	C6.6,8.4,6.7,8.8,7,9.1l1.4,1.2l3.3-3.5C12,6.5,12,6.1,11.7,5.9L11.7,5.9L11.7,5.9z"/>
</svg>
