<?xml version="1.0" encoding="utf-8"?>
<!-- Generator: Adobe Illustrator 23.0.6, SVG Export Plug-In . SVG Version: 6.00 Build 0)  -->
<svg version="1.1" id="Capa_1" xmlns="http://www.w3.org/2000/svg" xmlns:xlink="http://www.w3.org/1999/xlink" x="0px" y="0px"
	 viewBox="0 0 17 16" style="enable-background:new 0 0 17 16;" xml:space="preserve">
<style type="text/css">
	.st0{enable-background:new    ;}
	.st1{fill:#717285;}
</style>
<g class="st0">
	<path class="st1" d="M2.6,5.2V5.1c0-1.5,1.1-2.5,2.6-2.5s2.6,1,2.6,2.5v0.1c0,1.5-1.1,2.5-2.6,2.5C3.7,7.7,2.6,6.7,2.6,5.2z
		 M3.5,12.5c0-0.3,0.1-0.5,0.4-0.8L12,2.6c0.1-0.1,1,0.2,1,0.8c0,0.2-0.1,0.5-0.4,0.8l-8.1,9.1C4.4,13.4,3.5,13.1,3.5,12.5z
		 M6.3,5.2V5c0-0.7-0.5-1.2-1.1-1.2C4.6,3.8,4.2,4.3,4.2,5v0.2c0,0.7,0.4,1.2,1.1,1.2C5.9,6.4,6.3,6,6.3,5.2z M8.6,10.8v-0.1
		c0-1.5,1.1-2.5,2.6-2.5c1.5,0,2.6,1,2.6,2.5v0.1c0,1.5-1.1,2.5-2.6,2.5C9.7,13.2,8.6,12.2,8.6,10.8z M12.3,10.8v-0.2
		c0-0.7-0.5-1.2-1.1-1.2c-0.6,0-1.1,0.4-1.1,1.2v0.2c0,0.7,0.4,1.2,1.1,1.2C11.9,12,12.3,11.6,12.3,10.8z"/>
</g>
</svg>
