<?xml version="1.0" encoding="utf-8"?>
<!-- Generator: Adobe Illustrator 23.0.6, SVG Export Plug-In . SVG Version: 6.00 Build 0)  -->
<svg version="1.1" id="Capa_1" xmlns="http://www.w3.org/2000/svg" xmlns:xlink="http://www.w3.org/1999/xlink" x="0px" y="0px"
	 viewBox="0 0 17 14" style="enable-background:new 0 0 17 14;" xml:space="preserve">
<style type="text/css">
	.st0{fill:#717285;}
</style>
<path id="Trazado_3940" class="st0" d="M15.4,2h-13C2,2,1.6,2.4,1.6,2.9v9.2C1.6,12.6,2,13,2.4,13h13c0.5,0,0.9-0.4,0.9-0.9V2.9
	C16.3,2.4,15.9,2,15.4,2z M15.3,11.9H2.6V3.1h12.7L15.3,11.9z"/>
<rect id="Rectángulo_1789" x="9.8" y="5.2" class="st0" width="4.2" height="1"/>
<rect id="Rectángulo_1790" x="9.8" y="7" class="st0" width="3.1" height="1"/>
<rect id="Rectángulo_1791" x="9.8" y="8.8" class="st0" width="3.1" height="1"/>
<path id="Trazado_3941" class="st0" d="M8.4,5.1H4.1v4.7h4.3V5.1z M7.3,8.8H5.1V6.2h2.2V8.8z"/>
</svg>
