<?xml version="1.0" encoding="utf-8"?>
<!-- Generator: Adobe Illustrator 23.0.6, SVG Export Plug-In . SVG Version: 6.00 Build 0)  -->
<svg version="1.1" id="Capa_1" xmlns="http://www.w3.org/2000/svg" xmlns:xlink="http://www.w3.org/1999/xlink" x="0px" y="0px"
	 viewBox="0 0 17 15" style="enable-background:new 0 0 17 15;" xml:space="preserve">
<style type="text/css">
	.st0{fill:#717285;}
</style>
<path id="Trazado_3935" class="st0" d="M15.8,12l-1.1-6.8c-0.1-0.9-0.9-1.5-1.8-1.5h-0.8V2.8c0-1.1-0.9-1.9-1.9-1.9H7.7
	c-1.1,0-1.9,0.9-1.9,1.9v0.8H5c-0.9,0-1.6,0.6-1.8,1.5L2.2,12c-0.2,1,0.5,1.9,1.5,2c0.1,0,0.2,0,0.3,0h10.2c1,0,1.8-0.8,1.8-1.8
	C15.9,12.2,15.9,12.1,15.8,12L15.8,12z M6.7,2.8c0-0.6,0.5-1,1-1h2.5c0.6,0,1,0.5,1,1v0.8H6.7L6.7,2.8z M14.7,12.9
	c-0.2,0.2-0.4,0.3-0.7,0.3H3.9c-0.5,0-0.9-0.4-0.9-0.9c0,0,0-0.1,0-0.1l1.1-6.8C4.2,4.9,4.6,4.6,5,4.6h8c0.4,0,0.8,0.3,0.9,0.7
	l1.1,6.8C15,12.4,14.9,12.7,14.7,12.9L14.7,12.9z"/>
<path id="Trazado_3936" class="st0" d="M7.5,8.8l1.2-1.5C8.7,7.1,8.5,7,8.3,7C8.1,7,8,7.1,7.9,7.3L6.6,8.7V7.4C6.7,7.2,6.6,7,6.4,7
	c0,0-0.1,0-0.1,0H6.2C5.9,7,5.8,7.1,5.8,7.4v3c0,0.2,0.1,0.4,0.4,0.4h0.1c0.2,0,0.3-0.1,0.4-0.3c0,0,0-0.1,0-0.1V9l1.2,1.5
	c0.1,0.2,0.3,0.3,0.5,0.3c0.3,0,0.5-0.3,0.5-0.3L7.5,8.8z"/>
<path id="Trazado_3937" class="st0" d="M12.3,8.7h-1c-0.3,0-0.4,0.1-0.4,0.3v0c0,0.2,0.1,0.3,0.4,0.3H12v0.1
	c-0.1,0.4-0.5,0.8-0.9,0.7c-0.6,0-1.1-0.5-1.1-1.1c0,0,0-0.1,0-0.1c-0.1-0.6,0.4-1.2,1-1.2c0,0,0.1,0,0.1,0c0.4,0,0.7,0.2,0.9,0.5
	c0.2,0,0.4-0.2,0.4-0.4C12.5,7.4,11.9,7,11,7c-1-0.1-1.9,0.7-1.9,1.7c0,0.1,0,0.1,0,0.2c-0.1,1,0.6,1.8,1.6,1.9c0.1,0,0.1,0,0.2,0
	c0.4,0,0.9-0.2,1.1-0.5c0,0.4,0.2,0.5,0.4,0.5c0.1,0,0.2,0,0.3-0.1V9.1C12.7,8.8,12.6,8.7,12.3,8.7z"/>
</svg>
