<?xml version="1.0" encoding="utf-8"?>
<!-- Generator: Adobe Illustrator 23.0.6, SVG Export Plug-In . SVG Version: 6.00 Build 0)  -->
<svg version="1.1" id="Capa_1" xmlns="http://www.w3.org/2000/svg" xmlns:xlink="http://www.w3.org/1999/xlink" x="0px" y="0px"
	 viewBox="0 0 30 28" style="enable-background:new 0 0 30 28;" xml:space="preserve">
 <style type="text/css">
.st0{fill:#717285;}
</style>
<path id="Trazado_4040" class="st0" d="M28.9,6.7l-9.7-6.3c-0.4-0.2-0.8-0.2-1.2,0l-17.2,11c-0.5,0.3-0.6,1-0.3,1.5
	c0.1,0.1,0.2,0.2,0.3,0.3l9.5,6.2c0.4,0.2,0.8,0.2,1.2,0l4.5-2.8l0,1.8L11,21.7l-8.8-5.5l-0.7,1.2l8.9,5.6c0.4,0.3,0.9,0.3,1.3,0
	l4.5-2.8l0,2.1l-5.1,3.2c0,0-0.1,0-0.2,0l-8.8-5.5L1.4,21l8.8,5.5c0.5,0.3,1.1,0.3,1.6,0L28.4,16l-0.7-1.1l-3.9,2.5v-2.1l4.6-2.9
	l-0.7-1.1l-3.9,2.5v-1.8l5.1-3.2c0.5-0.3,0.7-1,0.3-1.5C29.2,6.9,29.1,6.8,28.9,6.7L28.9,6.7z M11,18.2l-9-5.9l4.7-3.1l8.8,6.1
	L11,18.2z M17.5,21.3l-0.1-6.4L8,8.5l4.6-3l9.8,6v6.7L17.5,21.3z M23.4,10.4l-9.5-5.7l4.8-3.1l9.2,6L23.4,10.4z"/>
</svg>
