<?xml version="1.0" encoding="utf-8"?>
<!-- Generator: Adobe Illustrator 23.0.6, SVG Export Plug-In . SVG Version: 6.00 Build 0)  -->
<svg version="1.1" id="Capa_1" xmlns="http://www.w3.org/2000/svg" xmlns:xlink="http://www.w3.org/1999/xlink" x="0px" y="0px"
	 viewBox="0 0 17 14" style="enable-background:new 0 0 17 14;" xml:space="preserve">
<style type="text/css">
	.st0{fill:#717285;}
</style>
<path id="Trazado_3945" class="st0" d="M8.2,7.5H7.7c-2.9,0-5.3,2.4-5.3,5.3c0,0.6,0.5,1.1,1.1,1.1h8.9c0.6,0,1.1-0.5,1.1-1.1
	C13.5,9.9,11.1,7.5,8.2,7.5z M12.4,12.9H3.5c0,0-0.1,0-0.1-0.1c0-2.4,1.9-4.3,4.3-4.3h0.6C10.6,8.6,12.5,10.5,12.4,12.9
	C12.5,12.9,12.5,12.9,12.4,12.9L12.4,12.9z"/>
<path id="Trazado_3946" class="st0" d="M7.9,7c1.6,0,3-1.3,3-3c0-1.6-1.3-3-3-3c-1.6,0-3,1.3-3,3l0,0C4.9,5.6,6.3,7,7.9,7z M7.9,2.1
	C9,2.1,9.8,2.9,9.8,4c0,1.1-0.9,1.9-1.9,1.9S6,5.1,6,4l0,0C6,2.9,6.8,2.1,7.9,2.1L7.9,2.1z"/>
</svg>
