<?xml version="1.0" encoding="utf-8"?>
<!-- Generator: Adobe Illustrator 23.0.6, SVG Export Plug-In . SVG Version: 6.00 Build 0)  -->
<svg version="1.1" id="Capa_1" xmlns="http://www.w3.org/2000/svg" xmlns:xlink="http://www.w3.org/1999/xlink" x="0px" y="0px"
	 viewBox="0 0 17 16" style="enable-background:new 0 0 17 16;" xml:space="preserve">
<style type="text/css">
	.st0{fill:#717285;}
</style>
<path id="Trazado_3948" class="st0" d="M16.8,4.7l-5.4-3.6c-0.2-0.1-0.5-0.1-0.7,0L1.1,7.3C0.8,7.5,0.7,7.9,0.9,8.2
	C1,8.2,1,8.3,1.1,8.3l5.3,3.5c0.1,0.1,0.2,0.1,0.3,0.1c0.1,0,0.2,0,0.3-0.1l2.5-1.6l0,1l-2.9,1.8l-5-3.1l-0.4,0.6l5,3.1
	c0.2,0.1,0.5,0.1,0.7,0l2.5-1.6l0,1.2l-2.8,1.8c0,0-0.1,0-0.1,0l-4.9-3.1l-0.4,0.6l4.9,3.1c0.3,0.2,0.6,0.2,0.9,0l9.3-5.9l-0.4-0.6
	l-2.2,1.4V9.4l2.6-1.6l-0.4-0.6l-2.2,1.4v-1l2.9-1.8c0.3-0.2,0.4-0.6,0.2-0.8C16.9,4.8,16.9,4.8,16.8,4.7L16.8,4.7z M6.7,11.1
	l-5-3.3l2.7-1.7l4.9,3.4L6.7,11.1z M10.4,12.9l-0.1-3.6L5.1,5.7L7.6,4l5.5,3.3v3.7L10.4,12.9z M13.7,6.8L8.4,3.6L11,1.8l5.1,3.4
	L13.7,6.8z"/>
</svg>
