<?xml version="1.0" encoding="utf-8"?>
<!-- Generator: Adobe Illustrator 23.0.6, SVG Export Plug-In . SVG Version: 6.00 Build 0)  -->
<svg version="1.1" id="Capa_1" xmlns="http://www.w3.org/2000/svg" xmlns:xlink="http://www.w3.org/1999/xlink" x="0px" y="0px"
	 viewBox="0 0 17 16" style="enable-background:new 0 0 17 16;" xml:space="preserve">
<style type="text/css">
	.st0{fill:#717285;}
</style>
<path id="Trazado_3952" class="st0" d="M8.9,0.9c-4.2,0-7.6,3.4-7.6,7.6c0,4.2,3.4,7.6,7.6,7.6s7.6-3.4,7.6-7.6l0,0
	C16.5,4.3,13.1,0.9,8.9,0.9z M8.9,14.8c-3.5,0-6.3-2.8-6.3-6.3s2.8-6.3,6.3-6.3c3.5,0,6.3,2.8,6.3,6.3C15.2,12,12.4,14.8,8.9,14.8z"
	/>
<path id="Trazado_3953" class="st0" d="M9.4,4.2H8.2v5.5h4.2V8.5H9.4L9.4,4.2z"/>
</svg>
