<?xml version="1.0" encoding="utf-8"?>
<!-- Generator: Adobe Illustrator 23.0.6, SVG Export Plug-In . SVG Version: 6.00 Build 0)  -->
<svg version="1.1" id="Capa_1" xmlns="http://www.w3.org/2000/svg" xmlns:xlink="http://www.w3.org/1999/xlink" x="0px" y="0px"
	 viewBox="0 0 56 57" style="enable-background:new 0 0 56 57;" xml:space="preserve">
<style type="text/css">
	.st0{fill:#0855C4;}
	.st1{fill-rule:evenodd;clip-rule:evenodd;fill:#FFFFFF;}
</style>
<ellipse id="Elipse_585" class="st0" cx="27.9" cy="28.5" rx="27.6" ry="27.6"/>
<g id="Grupo_1739" transform="translate(15.502 14.533)">
	<path id="Trazado_3827" class="st1" d="M13.4,0.9c-7.2,0-13,5.8-13,13c0,2.5,0.7,5,2.1,7.1l-2,4.4c-0.3,0.6,0,1.2,0.6,1.5
		C1.2,26.9,1.3,27,1.5,27c0.1,0,0.2,0,0.3,0l5.5-1.5c6.4,3.4,14.2,1,17.6-5.4c3.4-6.4,1-14.2-5.4-17.6C17.6,1.4,15.5,0.9,13.4,0.9
		L13.4,0.9z M13.4,24.7c-1.9,0-3.8-0.5-5.4-1.5c-0.3-0.2-0.6-0.2-0.9-0.1l-3.6,1l1.2-2.7c0.2-0.4,0.1-0.8-0.1-1.1
		c-3.5-4.8-2.4-11.5,2.4-15c4.8-3.5,11.5-2.4,15,2.4c3.5,4.8,2.4,11.5-2.4,15C17.8,24,15.6,24.7,13.4,24.7L13.4,24.7z"/>
	<path id="Trazado_3828" class="st1" d="M18.4,15.9c-0.5-0.4-1.2-0.6-1.9-0.4c-0.5,0.2-0.8,1-1.1,1.4C15.2,17,15,17.1,14.8,17
		c-1.8-0.7-3.3-2-4.3-3.7c-0.2-0.2-0.1-0.5,0.1-0.7c0.4-0.3,0.6-0.8,0.8-1.3c0-0.5-0.1-1-0.3-1.5c-0.2-0.7-0.6-1.2-1.1-1.7
		C9.3,7.9,8.7,8,8.2,8.4C7.4,9,7,10,7,11c0,0.3,0,0.6,0.1,0.8c0.2,0.7,0.4,1.3,0.8,1.9c0.3,0.4,0.5,0.9,0.8,1.3
		c1,1.4,2.2,2.5,3.7,3.4c0.7,0.4,1.5,0.8,2.3,1.1c0.8,0.4,1.7,0.5,2.6,0.4c1-0.2,1.9-0.8,2.4-1.8c0.1-0.3,0.2-0.6,0.1-0.9
		C19.7,16.6,18.9,16.2,18.4,15.9z"/>
</g>
</svg>
