<svg xmlns="http://www.w3.org/2000/svg" width="58" height="58" viewBox="0 0 58 58"><defs><style>.a{fill:#0855c4;}.b{fill:#fff;fill-rule:evenodd;}</style></defs><g transform="translate(-327 -183)"><circle class="a" cx="29" cy="29" r="29" transform="translate(327 183)"/><g transform="translate(-10 17)"><path class="b" d="M193.329,174.723a12.978,12.978,0,0,0-10.907,20.014l-1.972,4.343a1.134,1.134,0,0,0,1.032,1.6,1.122,1.122,0,0,0,.3-.041l5.433-1.491a12.979,12.979,0,1,0,6.114-24.428Zm0,23.692a10.7,10.7,0,0,1-5.394-1.458,1.137,1.137,0,0,0-.872-.115l-3.549.974,1.236-2.723a1.134,1.134,0,0,0-.113-1.132,10.711,10.711,0,1,1,8.692,4.454Z" transform="translate(172.512 7.318)"/><path class="b" d="M204.8,196.5a2.219,2.219,0,0,0-1.891-.426c-.491.2-.805.97-1.123,1.363a.471.471,0,0,1-.609.132A8.565,8.565,0,0,1,196.9,193.9a.524.524,0,0,1,.066-.716,2.892,2.892,0,0,0,.777-1.261,2.755,2.755,0,0,0-.348-1.492,3.538,3.538,0,0,0-1.1-1.661,1.51,1.51,0,0,0-1.639.244,3.328,3.328,0,0,0-1.154,2.637,3.745,3.745,0,0,0,.1.837,6.948,6.948,0,0,0,.8,1.85,14.6,14.6,0,0,0,.838,1.274,12.932,12.932,0,0,0,3.635,3.375,10.974,10.974,0,0,0,2.266,1.078,5.036,5.036,0,0,0,2.639.417,3.193,3.193,0,0,0,2.392-1.78,1.544,1.544,0,0,0,.111-.908C206.154,197.172,205.307,196.8,204.8,196.5Z" transform="translate(167.03 0.466)"/></g></g></svg>