<svg xmlns="http://www.w3.org/2000/svg" width="44.28" height="50.768" viewBox="0 0 44.28 50.768">
  <g id="Grupo_25556" data-name="Grupo 25556" transform="translate(-0.001)">
    <path id="Trazado_17525" data-name="Trazado 17525" d="M1720.63,3075.336a1.908,1.908,0,0,1-.581-.091,31.31,31.31,0,0,1-21.56-30.132v-9.467a4.346,4.346,0,0,1,3.288-4.27l18.853-6.808,18.852,6.808a4.346,4.346,0,0,1,3.289,4.27v9.467a31.311,31.311,0,0,1-21.561,30.132h0a1.913,1.913,0,0,1-.581.091m0-48.865-18.395,6.636a2.564,2.564,0,0,0-1.957,2.54v9.467a29.528,29.528,0,0,0,20.316,28.428.111.111,0,0,0,.071,0h0a29.528,29.528,0,0,0,20.316-28.428v-9.467a2.6,2.6,0,0,0-1.957-2.54l-.1-.03Z" transform="translate(-1698.489 -3024.569)" fill="#0054c8"/>
    <path id="Trazado_17526" data-name="Trazado 17526" d="M1738.314,3079.9a12.643,12.643,0,1,1,12.288-12.638,12.48,12.48,0,0,1-12.288,12.638m0-23.487a10.855,10.855,0,1,0,10.5,10.849,10.69,10.69,0,0,0-10.5-10.849" transform="translate(-1716.174 -3043.869)" fill="#00aef0"/>
    <path id="Trazado_24392" data-name="Trazado 24392" d="M0,0H4.315V14.3H0Z" transform="translate(19.983 16.598)" fill="#00aef0"/>
    <path id="Trazado_24391" data-name="Trazado 24391" d="M0,0H14.3V4.315H0Z" transform="translate(14.992 21.589)" fill="#00aef0"/>
  </g>
</svg>
