<svg xmlns="http://www.w3.org/2000/svg" xmlns:xlink="http://www.w3.org/1999/xlink" width="156" height="156" viewBox="0 0 156 156"><defs><style>.a{fill:#772525;}.b{fill:none;}.c{fill:#edf2fa;}.d{fill:#3256bf;}.e{fill:#fff;}.f{clip-path:url(#a);}.g{fill:#0af;}.h{fill:#031f59;}.i{fill:#ff409e;}.j{fill:#be166f;}.k{fill:#fbc23b;}.l{fill:#e94992;}.m{fill:#fdc0ae;}.n{fill:#ffaf97;}.o{opacity:0.42;}.p{fill:#ff6700;}.q{fill:#fbddca;}.r{fill:#19467c;}.s{opacity:0.24;isolation:isolate;}.t{fill:#f29b61;}.u{fill:#eb671c;}.v{fill:#f7957f;}.w{fill:#1c5cc1;}.x{fill:#ed7241;}.y{fill:#2361aa;}.z{fill:#d2882e;}.aa{fill:#223d9b;}.ab{clip-path:url(#b);}.ac{opacity:0.49;}.ad{clip-path:url(#c);}.ae{fill:#162458;}.af{fill:#d76c71;}.ag{fill:#c3595e;}.ah{fill:#bb3e63;}.ai{fill:#c8148b;}.aj{fill:#ece8e8;}.ak{fill:#3a5ec1;}.al{opacity:0.34;}.am{fill:#0f1830;}.an{fill:#3e2a46;}</style><clipPath id="a"><rect class="a" width="65" height="63" transform="translate(8.09 3.184)"/></clipPath><clipPath id="b"><circle class="b" cx="78" cy="78" r="78" transform="translate(-0.141 -0.14)"/></clipPath><clipPath id="c"><rect class="b" width="42.093" height="35.799" rx="3.505"/></clipPath></defs><g transform="translate(0.377 0.854)"><g transform="translate(-0.237 -0.714)"><circle class="c" cx="78" cy="78" r="78" transform="translate(-0.141 -0.14)"/></g><g transform="translate(62.778 8.846)"><g transform="translate(0)"><path class="d" d="M1413.688,2411.367l-13.08,4.584-.07.016a1.193,1.193,0,0,0-.938,1.17v6.631a14.788,14.788,0,1,0,28.178,0v-6.631a1.191,1.191,0,0,0-.936-1.17l-.14-.04Z" transform="translate(-1398.9 -2411.367)"/></g><g transform="translate(6.851 8.072)"><path class="e" d="M1420.391,2445l-5.666-5.5,1.868-2.054,3.863,3.748,10.572-9.558,1.8,2.121Z" transform="translate(-1414.725 -2431.643)"/></g></g><g transform="translate(-0.237 -0.714)"><circle class="b" cx="78" cy="78" r="78" transform="translate(-0.141 -0.14)"/></g><g transform="translate(35.395 49.686)"><g transform="translate(0.137 0.276)"><rect class="e" width="78.165" height="66.477" rx="3.505"/><g class="f"><g transform="translate(8.759 -3.562)"><g transform="translate(12.796 47.101)"><path class="g" d="M985.318,478.459l4.573-21.407c.419-2.172,3.05-5.085,5.06-4.629a3.565,3.565,0,0,1,2.815,4.182q-.011.055-.023.109l-1.862,7.405c-.09-.053-8.126,27.609-5.154,16.893C991.336,478.788,987.731,478.8,985.318,478.459Z" transform="translate(-986.438 -452.376)"/></g><g transform="translate(10.463 9.987)"><path class="h" d="M871.134,280.216c-1.644-6.335.689-13.129,2.879-19.1,3.959-10.79,15.059-11.454,21.664-11.64,6.723-.189,7.62,2.609,12.1,11.345,2.947,5.749,5.383,13.582,3.959,19.883C904.159,283.706,886.125,286.926,871.134,280.216Z" transform="translate(-870.58 -249.462)"/></g><g transform="translate(27.509 45.506)"><path class="i" d="M982.452,434.612l-23.439-.884,5.848,45.965,14.259.444Z" transform="translate(-959.013 -433.728)"/></g><g transform="translate(43.137 46.347)"><path class="j" d="M1044.406,483.658h7.415a4.325,4.325,0,0,0,4.313-4.336c0-.058,0-.117,0-.175l-1.464-34.853a6.472,6.472,0,0,0-6.456-6.2h-.661a6.471,6.471,0,0,0-6.459,6.3l-1,34.825C1040.028,481.645,1040.547,483.658,1044.406,483.658Z" transform="translate(-1040.089 -438.09)"/></g><g transform="translate(44.701 46.508)"><path class="i" d="M1052.506,484.334h7.415a4.312,4.312,0,0,0,4.313-4.312c0-.06,0-.12,0-.181l-1.437-34.064a7.151,7.151,0,0,0-7.135-6.85h0a6.459,6.459,0,0,0-6.459,6.276l-1,34.694a4.315,4.315,0,0,0,4.193,4.435Z" transform="translate(-1048.201 -438.927)"/></g><g transform="translate(47.517 82.502)"><path class="k" d="M1072.081,626.75a1.553,1.553,0,0,0,.62-.071,1.146,1.146,0,0,0,.543-.558v1.995a4.1,4.1,0,0,1-4.1,4.1H1066.9a4.1,4.1,0,0,1-4.1-4.1v-2.457c.118.037.239.065.36.093A47.951,47.951,0,0,0,1072.081,626.75Z" transform="translate(-1062.808 -625.658)"/></g><g transform="translate(47.492 73.865)"><path class="k" d="M1066.138,582.215c.872.841,1.406,1.976,2.237,2.857s2.19,1.492,3.245.9a2.236,2.236,0,0,0,1.039-1.663,3.94,3.94,0,0,0-.329-1.983c-.146-.354-.31-.794-.056-1.08a1.26,1.26,0,0,1,.853-.394v9.1a1.144,1.144,0,0,1-.543.558,1.554,1.554,0,0,1-.621.071,47.959,47.959,0,0,1-8.926-1c-.121-.028-.242-.056-.36-.093V580.85A5,5,0,0,1,1066.138,582.215Z" transform="translate(-1062.679 -580.85)"/></g><g transform="translate(46.933 83.109)"><path class="l" d="M1067.724,630.526a3.453,3.453,0,0,1-1.641-.619l-.024-.014a1.671,1.671,0,0,0-2.454.005,3.138,3.138,0,0,1-.468.358,2.038,2.038,0,0,1-1.4.175c-.038.051-.1.021-.141,0l-.259-.136c-.045-.021-.09-.044-.134-.069l.02-.038a5.858,5.858,0,0,1-1.441-1.291l.126-.09a6.1,6.1,0,0,0,1.645,1.41,1.879,1.879,0,0,0,1.514-.094,3.022,3.022,0,0,0,.441-.339,2.374,2.374,0,0,1,.619-.433,2.345,2.345,0,0,1,2.014.411l.023.014a2.732,2.732,0,0,0,1.847.567,2.533,2.533,0,0,0,.929-.513c.119-.089.241-.18.367-.261a1.292,1.292,0,0,1,1.528-.079l-.1.115a1.146,1.146,0,0,0-1.339.095c-.121.078-.242.168-.359.255a2.688,2.688,0,0,1-.988.54A1.468,1.468,0,0,1,1067.724,630.526Z" transform="translate(-1059.778 -628.804)"/></g><g transform="translate(19.809 45.847)"><path class="i" d="M924.962,435.524s-7.557-1.042-5.563,10.424l2.538-1.741Z" transform="translate(-919.064 -435.499)"/></g><g transform="translate(25.431 37.35)"><rect class="m" width="6.738" height="11.169"/></g><g transform="translate(39.423 25.988)"><ellipse class="n" cx="1.923" cy="1.517" rx="1.923" ry="1.517" transform="matrix(0.179, -0.984, 0.984, 0.179, 0, 3.785)"/></g><g transform="translate(16.973 14.243)"><path class="m" d="M904.355,273.871l12.1-2.33h11.77l.022,18.481a8.62,8.62,0,0,1-2.079,5.584h0a9.88,9.88,0,0,1-7.545,3.413H914.28a9.88,9.88,0,0,1-7.545-3.413h0a8.654,8.654,0,0,1-2.079-5.584Z" transform="translate(-904.355 -271.541)"/></g><g transform="translate(13.89 9.995)"><path class="h" d="M914.954,264.941s-1.1-3.481-7.17-7.666c0,0-1.765-3.388-7.015-1.945l-3.512,5.017-1.477-2.1-3.6,4.557-.931,1.775-.9.543-1.992-3.98,3.078-5.063s2.665-3.617,3.434-3.617,4.787-2.947,4.787-2.947,5.007.1,5.3,0,4.526.41,5.584.509a15.894,15.894,0,0,1,3.413,1.225s2.55,3.763,3.223,2.935c.31-.394.481,4.393.481,4.852S914.954,264.941,914.954,264.941Z" transform="translate(-888.357 -249.502)"/></g><g class="o" transform="translate(30.298 30.447)"><ellipse class="p" cx="2.02" cy="1.371" rx="2.02" ry="1.371"/></g><g class="o" transform="translate(18.326 30.757)"><ellipse class="p" cx="1.902" cy="1.291" rx="1.902" ry="1.291"/></g><g transform="translate(19.531 13.69)"><path class="h" d="M896.871,265.573s24.736,7.136,25.39,7.315-.561-3.841-.561-3.841l-2.293-4.194-5.237-3.434-4.557-1.837L905.1,258.3l-1.9.723s-1.266,1.809-2.891,1.319C899.781,260.178,896.871,265.573,896.871,265.573Z" transform="translate(-896.871 -258.295)"/></g><g transform="translate(15.031 23.436)"><circle class="q" cx="4.294" cy="4.294" r="4.294" transform="translate(0.078 0.078)"/><path class="r" d="M898.651,327.973a4.371,4.371,0,1,1,4.371-4.371A4.376,4.376,0,0,1,898.651,327.973Zm0-8.587a4.216,4.216,0,1,0,4.216,4.216A4.221,4.221,0,0,0,898.651,319.385Z" transform="translate(-894.28 -319.23)"/></g><g transform="translate(25.905 23.395)"><circle class="q" cx="4.312" cy="4.312" r="4.312" transform="translate(0.078 0.078)"/><path class="r" d="M955.082,327.8a4.39,4.39,0,1,1,4.39-4.39A4.395,4.395,0,0,1,955.082,327.8Zm0-8.625a4.235,4.235,0,1,0,4.235,4.235A4.24,4.24,0,0,0,955.082,319.175Z" transform="translate(-950.692 -319.02)"/></g><g class="s" transform="translate(18.41 29.864)"><path class="t" d="M913.641,352.583a1.928,1.928,0,0,0-1.833.956,4.456,4.456,0,0,0,.987.245,4.253,4.253,0,0,0,2.553-.478A2.121,2.121,0,0,0,913.641,352.583Z" transform="translate(-911.807 -352.58)"/></g><g transform="translate(23.976 29.05)"><path class="u" d="M941.055,350.373a1.421,1.421,0,0,1-.329-1.242,1.338,1.338,0,0,1,.764-.772l.082.218a1.117,1.117,0,0,0-.623.623,1.209,1.209,0,0,0,.295,1.037Z" transform="translate(-940.684 -348.359)"/></g><g transform="translate(25.431 41.73)"><path class="v" d="M948.23,414.141h3.862l-3.862,2.032Z" transform="translate(-948.23 -414.141)"/></g><g transform="translate(10.458 46.03)"><path class="w" d="M885.677,436.529h0c-1.216.112-4.3,3.316-4.747,6l-10.375,52.21H904.45l-.974-49.387-1.346-5.544-9.875-3.363Z" transform="translate(-870.556 -436.448)"/></g><g transform="translate(27.733 54.55)"><circle class="e" cx="0.745" cy="0.745" r="0.745"/></g><g transform="translate(24.851 44.6)"><path class="m" d="M952.539,430.458s-9.565,3.94-6.825.174l1.306-1.241,2.351-.363Z" transform="translate(-945.22 -429.028)"/></g><g transform="translate(29.833 46.4)"><path class="i" d="M979.814,440.135s-2.622-1.241-4.182,4.694c0,0-2.141,6.32,4.182,24.661l-3.692,1.942s-9.928-26.65-1.954-32.979a.434.434,0,0,1,.4-.068Z" transform="translate(-971.068 -438.363)"/></g><g transform="translate(21.612 48.118)"><path class="x" d="M928.417,447.28a1.084,1.084,0,0,1,.2.062Z" transform="translate(-928.417 -447.28)"/></g><g transform="translate(24.149 46.03)"><path class="e" d="M942.641,436.83c-2.243,3.413,6.959-.382,6.959-.382s-5.913,6.58-6.614,1.861C942.986,438.3,940.066,439.318,942.641,436.83Z" transform="translate(-941.58 -436.448)"/></g><g transform="translate(25.67 59.892)"><circle class="y" cx="0.27" cy="0.27" r="0.27"/></g><g transform="translate(23.684 46.148)"><path class="e" d="M941.113,438.8s-2.073,1.551-1.939.31c0,0,.025-.652,1.719-2.048C940.893,437.066,939.336,438.962,941.113,438.8Z" transform="translate(-939.168 -437.06)"/></g><g transform="translate(23.729 26.721)"><path class="r" d="M939.5,336.817l-.1-.122a2.127,2.127,0,0,1,2.383-.082l-.085.13A1.936,1.936,0,0,0,939.5,336.817Z" transform="translate(-939.401 -336.275)"/></g><g transform="translate(34.266 77.241)"><path class="l" d="M998.73,599.106l-4.067,1.787-.6-.707,1.136-.906s1.576-.828,1.654-.865a8.5,8.5,0,0,1,.912-.053Z" transform="translate(-994.067 -598.361)"/></g><g transform="translate(35.023 78.475)"><path class="l" d="M1002.074,604.767l-4.08,1.731.549,1.135.8.2s1.3-.332,1.436-.372a9.456,9.456,0,0,0,1.319-.639,1.241,1.241,0,0,0,.31-.543l.121-.475Z" transform="translate(-997.994 -604.767)"/></g><g transform="translate(35.51 79.034)"><path class="l" d="M1004.033,607.664s1.74,3.32,3.056,5.442l-3.338,1.619a16.5,16.5,0,0,1-3.23-5.038Z" transform="translate(-1000.521 -607.664)"/></g><g transform="translate(35.324 79.378)"><path class="k" d="M1004.135,609.45l-4.579,2.082.909.357a2.105,2.105,0,0,0,1.6-.056l.748-.335a2.19,2.19,0,0,0,1.272-1.747Z" transform="translate(-999.556 -609.45)"/></g><g transform="translate(34.131 76.618)"><path class="k" d="M994.1,596.253l2.432-1.033a1.241,1.241,0,0,1,1.551.558l1.042,2.113-.521.258-1.039-2.106c0-.022-.034-.037-.05-.062l-3.549,1.511a.527.527,0,0,0,.049.177l1.139,2.172-.6.118-1.061-2.035a1.219,1.219,0,0,1,.527-1.642c.03-.016.062-.03.093-.043Z" transform="translate(-993.367 -595.13)"/></g><g transform="translate(37.452 80.182)"><path class="j" d="M1017.167,613.619l-.782,1.306a5.273,5.273,0,0,1-3.534,2.569l-2.255.459a7.449,7.449,0,0,0,6.627,3.723Z" transform="translate(-1010.596 -613.619)"/></g><g transform="translate(32.796 49.101)"><path class="g" d="M986.438,470.107l3.453-13.055c.419-2.172,3.05-5.085,5.06-4.629a3.565,3.565,0,0,1,2.815,4.182q-.011.055-.023.109l-1.862,7.405c-.09-.053-7.005,19.257-4.033,8.541C992.457,470.436,988.852,470.449,986.438,470.107Z" transform="translate(-986.438 -452.376)"/></g><g transform="translate(24.907 51.613)"><path class="m" d="M953.605,469.548a14.1,14.1,0,0,1,1.241-.732,1.648,1.648,0,0,0,.838-1.148c.05-.493-.391-1.036-.856-.915a1.7,1.7,0,0,0-.6.419,1.725,1.725,0,0,1-1.713.326c-1.061-.422-1.532-1.979-2.665-2.085-.8-.075-1.443.645-1.942,1.3l-.931,1.226a5.953,5.953,0,0,0-1.458,2.907,3.06,3.06,0,0,0,.447,1.883.588.588,0,0,0,.242.242c.2.09.425-.053.62-.186a10.859,10.859,0,0,1,4.076-1.833c1-.22,2.2-.422,2.606-1.384" transform="translate(-945.511 -465.407)"/></g><g transform="translate(25.561 56.163)"><path class="g" d="M955.78,489.248s-5.246-1.449-6.875,2.891l3.258,11.035,6.692-3.437Z" transform="translate(-948.905 -489.016)"/></g><g transform="translate(25.741 57.509)"><path class="g" d="M966.511,497.715s-5.274,26.991-12.788,13.312a21.687,21.687,0,0,1-1.992-5.119l-1.893-7.508,6.875-1.706,1.551,4.654,1.34-5.348Z" transform="translate(-949.839 -495.999)"/></g><g transform="translate(24.589 51.316)"><path class="m" d="M949.715,464.892l-.621-.7a.993.993,0,0,0-1.4-.069,1.028,1.028,0,0,0-.1.1l-3.484,4.176a1.03,1.03,0,0,0-.2.971l.465,1.517,2.193-3.211,2.228-1.79Z" transform="translate(-943.863 -463.871)"/></g><g transform="translate(48.217 55.286)"><path class="j" d="M1074.5,488.455a.688.688,0,0,1-.126-.012l-7.363-1.354a.7.7,0,0,1-.56-.813l.228-1.242a.7.7,0,0,1,.813-.56l7.363,1.354a.7.7,0,0,1,.56.813l-.228,1.242A.7.7,0,0,1,1074.5,488.455Zm-.1-.164a.544.544,0,0,0,.632-.436l.228-1.242a.543.543,0,0,0-.436-.632l-7.363-1.354a.544.544,0,0,0-.632.436l-.228,1.242a.543.543,0,0,0,.436.632Z" transform="translate(-1066.439 -484.463)"/></g><g transform="translate(48.217 60.415)"><path class="j" d="M1074.5,515.066a.686.686,0,0,1-.126-.012l-7.363-1.354a.7.7,0,0,1-.56-.813l.228-1.242a.7.7,0,0,1,.813-.56l7.363,1.354a.7.7,0,0,1,.56.813l-.228,1.242A.7.7,0,0,1,1074.5,515.066Zm-.1-.164a.544.544,0,0,0,.632-.436l.228-1.242a.543.543,0,0,0-.436-.632l-7.363-1.354a.544.544,0,0,0-.632.436l-.228,1.242a.543.543,0,0,0,.436.632Z" transform="translate(-1066.442 -511.074)"/></g><g transform="translate(48.219 65.383)"><path class="j" d="M1074.514,540.839a.706.706,0,0,1-.128-.012l-7.363-1.354a.7.7,0,0,1-.56-.813l.228-1.242a.7.7,0,0,1,.813-.56l7.363,1.354a.7.7,0,0,1,.56.813l-.228,1.242a.7.7,0,0,1-.685.572ZM1067.377,537a.543.543,0,0,0-.532.445l-.229,1.242a.544.544,0,0,0,.436.632l7.363,1.354a.543.543,0,0,0,.632-.436l.228-1.242a.544.544,0,0,0-.436-.632l-7.363-1.354A.565.565,0,0,0,1067.377,537Z" transform="translate(-1066.452 -536.846)"/></g><g transform="translate(31.269 56.861)"><circle class="y" cx="0.403" cy="0.403" r="0.403"/></g><g transform="translate(24.686 56.296)"><path class="m" d="M945.186,492.507a3.5,3.5,0,0,1-.819-2.075l.717-.726.664.149.456.22-.068.248Z" transform="translate(-944.367 -489.705)"/></g><g transform="translate(26.233 58.243)"><path class="w" d="M961.886,510.991l-1.706-6.9-1.221-4.069a10.077,10.077,0,0,0-2.422.123,6.062,6.062,0,0,0-3.987,2.269l-.157-.111c2.072-2.935,6.605-2.471,6.651-2.466l.063.007,1.259,4.2,1.707,6.9Z" transform="translate(-952.392 -499.807)"/></g><g transform="translate(28.558 26.535)"><path class="h" d="M966.432,336.3h-.193a.8.8,0,1,0-1.594,0h-.193a.99.99,0,1,1,1.98,0Z" transform="translate(-964.452 -335.308)"/></g><g transform="translate(19.241 26.535)"><path class="h" d="M918.1,336.3h-.193a.8.8,0,0,0-1.594,0h-.193a.99.99,0,0,1,1.98,0Z" transform="translate(-916.119 -335.308)"/></g><g transform="translate(24.714 32.225)"><path class="e" d="M944.515,364.827a.682.682,0,0,0,0,.081,1.554,1.554,0,1,0,3.1.192Z" transform="translate(-944.512 -364.827)"/></g><g transform="translate(25.37 46.155)"><rect class="z" width="0.078" height="0.85"/></g><g transform="translate(37.232 80.402)"><path class="j" d="M1009.454,618.569s3.9.912,6.6-3.807c0,0,.673,2.215.673,2.4s-1.145,2.324-1.145,2.324l-1.089.658-2.231.31-2.38-1.241Z" transform="translate(-1009.454 -614.762)"/></g><g transform="translate(35.438 47.937)"><path class="j" d="M1000.291,448.393l-.144-.057a3.056,3.056,0,0,1,3.94-1.766l-.053.146A2.861,2.861,0,0,0,1000.291,448.393Z" transform="translate(-1000.147 -446.34)"/></g><ellipse class="h" cx="13" cy="8.5" rx="13" ry="8.5" transform="translate(18.331 8.745)"/></g></g></g><g transform="translate(0 0)"><path class="aa" d="M1405.289,2580.759H1330.7a1.933,1.933,0,0,1-1.932-1.931v-62.986a1.933,1.933,0,0,1,1.932-1.931h74.588a1.934,1.934,0,0,1,1.932,1.931v62.986a1.933,1.933,0,0,1-1.932,1.931Zm-74.589-65.99a1.083,1.083,0,0,0-1.082,1.082v62.986a1.083,1.083,0,0,0,1.082,1.074h74.589a1.081,1.081,0,0,0,1.082-1.073V2515.85a1.082,1.082,0,0,0-1.082-1.081Z" transform="translate(-1328.769 -2513.91)"/></g></g><g transform="translate(-0.237 -0.714)"><circle class="b" cx="78" cy="78" r="78" transform="translate(-0.141 -0.14)"/></g><g transform="translate(-0.237 -0.714)"><g class="ab"><g transform="translate(-16.05 65.721)"><g class="ac" transform="translate(0.406 0.351)"><rect class="e" width="42.093" height="35.799" rx="3.505"/><g class="ad"><g transform="translate(12.121 11.011)"><path class="ae" d="M1235.713,2586.529a6.618,6.618,0,0,0-.979-3.131,7.535,7.535,0,0,0-2.581-1.855.276.276,0,0,0-.18-.027c.011-.11.027-.22.032-.332.02-.371-.557-.37-.577,0-.114,2.24-1.593,4.624-.62,6.853a4.91,4.91,0,0,0,4.471,2.559C1236.97,2590.39,1235.872,2587.478,1235.713,2586.529Z" transform="translate(-1230.478 -2580.906)"/></g><g transform="translate(23.075 16.769)"><path class="ae" d="M1262.6,2595.388a.292.292,0,0,0-.375.426.975.975,0,0,0-.1.065.239.239,0,0,0-.288-.085,5.629,5.629,0,0,0-3.787,4.6,3.054,3.054,0,0,0,.568,2.453,1.481,1.481,0,0,0,.772.426,3.827,3.827,0,0,1,1.2.332,3.012,3.012,0,0,0,3.917-1.7A5.69,5.69,0,0,0,1262.6,2595.388Z" transform="translate(-1257.988 -2595.354)"/></g><g transform="translate(5.645 25.746)"><path class="af" d="M1247.419,2643.715c-.341-3.931-.721-7.857-1.093-11.787-.247-2.656-.3-5.555-2.007-7.731-1.8-2.29-4.8-3.461-7.307-4.689a14.911,14.911,0,0,0-3.731-1.532,18.051,18.051,0,0,0-4.83.139.862.862,0,0,0-1-.155c-3.591,1.509-8.115,3.136-10.871,6.061-2.666,2.822-2.092,7.448-2.208,11.066a48.133,48.133,0,0,0,.981,13.179c.586,2.344,1.984,7.836,4.5,8.7a1.123,1.123,0,0,0,1.263-.53l.036-.065a1.15,1.15,0,0,0-.8-1.7,19.586,19.586,0,0,1-1.664-3.492,23.233,23.233,0,0,1-.988-2.872,29.373,29.373,0,0,1,4.584,2.283,22.036,22.036,0,0,0,4.379,1.367,28.683,28.683,0,0,0,9.739.154,27.615,27.615,0,0,0,8.584-2.264C1247.491,2648.537,1247.646,2646.346,1247.419,2643.715Z" transform="translate(-1214.278 -2617.867)"/></g><g transform="translate(18.016 17.653)"><path class="af" d="M1248.824,2609.317h0a3.564,3.564,0,0,1-3.564-3.563v-8.166h7.127v8.166a3.561,3.561,0,0,1-3.564,3.563Z" transform="translate(-1245.26 -2597.588)"/></g><g transform="translate(18.025 20.174)"><path class="ag" d="M1252.41,2604.142a12.448,12.448,0,0,0-3.472-.166,9.194,9.194,0,0,0-3.6.828l-.057.029v3.036a5.063,5.063,0,0,0,4.829,1.573,8.629,8.629,0,0,0,2.3-1.026Z" transform="translate(-1245.285 -2603.923)"/></g><g transform="translate(14.42 4.803)"><path class="af" d="M1243.429,2565.321c-7.856.121-7.2,6.865-7.176,7.159.231,3.221.245,5.849,1.578,8.043.826,1.36,3.578,4.572,5.581,4.613,1.34.027,3.607-2.064,4.464-3.482a16.345,16.345,0,0,0,2.512-9.09C1250.3,2568.747,1251.894,2565.191,1243.429,2565.321Z" transform="translate(-1236.231 -2565.317)"/></g><g transform="translate(13.228 13.418)"><path class="af" d="M1233.83,2590.054c.36.541,1.74,1.677,2.231.793.251-.454-.169-.964-.391-1.334l-.2-.324c.207.346.745,0,.552-.36-.31-.6-1.189-2.467-2.117-1.71a2.074,2.074,0,0,0-.079,2.936Z" transform="translate(-1233.26 -2586.941)"/></g><g transform="translate(17.52 14.303)"><path class="ae" d="M1245.013,2589.932c0,.42-.222.762-.5.762s-.5-.341-.5-.762.222-.761.5-.761S1245.013,2589.512,1245.013,2589.932Z" transform="translate(-1244.018 -2589.171)"/></g><g transform="translate(24.613 14.214)"><path class="ae" d="M1262.819,2589.708c0,.42-.222.761-.5.761s-.5-.341-.5-.761.222-.761.5-.761S1262.819,2589.288,1262.819,2589.708Z" transform="translate(-1261.824 -2588.947)"/></g><g transform="translate(20.712 15.215)"><path class="ag" d="M1253.674,2594.384c-.436.07-.869.151-.994-.473a2.973,2.973,0,0,1,.1-.846c.073-.517.119-.665.2-1.183.065-.416-.573-.6-.64-.18-.094.6-.151.839-.236,1.443a2.54,2.54,0,0,0,0,1.248c.281.745,1.093.734,1.753.628C1254.271,2594.954,1254.092,2594.317,1253.674,2594.384Z" transform="translate(-1252.022 -2591.466)"/></g><g transform="translate(20 20.166)"><path class="ah" d="M1253.34,2603.9a7.79,7.79,0,0,1-2.849.013.262.262,0,0,0-.18.458,1.944,1.944,0,0,0,3.246-.046.3.3,0,0,0,.016-.045.247.247,0,0,0-.233-.38Z" transform="translate(-1250.222 -2603.898)"/></g><g transform="translate(23.41 12.733)"><path class="ae" d="M1262.007,2585.683a4.449,4.449,0,0,0-2.344-.492c-.31.052-1.235.395-.7.86a22,22,0,0,0,2.94.246C1262.306,2586.358,1262.463,2585.859,1262.007,2585.683Z" transform="translate(-1258.797 -2585.182)"/></g><g transform="translate(16.275 12.652)"><path class="ae" d="M1240.959,2585.792a.757.757,0,0,1,.276-.323,3.4,3.4,0,0,1,2.368-.386c.308.067,1.217.451.663.891-.251.2-2.034-.078-2.913.254C1240.908,2586.4,1240.8,2586.131,1240.959,2585.792Z" transform="translate(-1240.89 -2585.016)"/></g><g transform="translate(26.875 13.274)"><path class="af" d="M1269.732,2586.779c-.929-.757-1.8,1.115-2.117,1.71-.193.37.345.711.552.361l-.195.325c-.222.369-.642.882-.391,1.334.49.884,1.861-.252,2.231-.793a2.073,2.073,0,0,0-.079-2.936Z" transform="translate(-1267.503 -2586.602)"/></g><g transform="translate(27.641 14.379)"><path class="ag" d="M1269.921,2589.675a1.831,1.831,0,0,1-.415,1.008c-.27.326.2.8.469.469a2.612,2.612,0,0,0,.609-1.477C1270.623,2589.253,1269.957,2589.253,1269.921,2589.675Z" transform="translate(-1269.425 -2589.359)"/></g><g transform="translate(14.063 14.407)"><path class="ag" d="M1236,2589.75a1.825,1.825,0,0,0,.415,1.009c.27.326-.2.8-.469.469a2.61,2.61,0,0,1-.609-1.477C1235.3,2589.325,1235.966,2589.329,1236,2589.75Z" transform="translate(-1235.338 -2589.433)"/></g><g transform="translate(11.824 5.134)"><path class="ae" d="M1241.7,2566.486a7.279,7.279,0,0,0-4.117-.1,10.842,10.842,0,0,0-2.507.622,10.466,10.466,0,0,1-3.156,1.055.462.462,0,0,0-.622.015c-1.336,1.849-2.761,6.327,0,7.773,2.868,1.5,4.8-3.192,5.969-4.851a7.841,7.841,0,0,1,2.332-2.326c.676-.395,1.717-.388,2.319-.853C1242.488,2567.387,1242.28,2566.837,1241.7,2566.486Z" transform="translate(-1229.72 -2566.137)"/></g><g transform="translate(12.734 27.783)"><path class="ai" d="M1248.729,2649.979c-1.06-8.514-.9-17.16-2.377-25.618a.581.581,0,0,0-1.142-.055l-3.834,15.707c-1.538-5.661-4-11.161-6.038-16.627a.577.577,0,0,0-1.082.4c.445,1.194.911,2.388,1.381,3.585a.612.612,0,0,0-.2.143c-4.722,5.063-3.349,13.256-2.922,19.552.44,6.479,2.445,12.97,9.038,14.745,1.729.465,5.932-.168,7.144-1.984C1250.25,2657.5,1249.041,2652.479,1248.729,2649.979Z" transform="translate(-1232.001 -2623.022)"/></g><g transform="translate(12.56 2.404)"><path class="ae" d="M1249.058,2565.874a5.34,5.34,0,0,0-3.259-4.639,13.522,13.522,0,0,0-3.737-.784c-1.668-1.907-4.409-1.216-6.4.394a12.807,12.807,0,0,0-3.684,3.841,6.938,6.938,0,0,0-.027,4.707.6.6,0,0,0,.032.068c.025.085.045.172.074.257a.65.65,0,0,0,.27.346c1.517.819,2.678-.305,3.758-1.374,1.773-1.753,3.567-4.951,6.435-4.6a.274.274,0,0,0,.072,0,.3.3,0,0,0,.092.1c1.87,1.288,2.7,4.925,4.728,5.989C1248.95,2570.977,1249.094,2566.862,1249.058,2565.874Z" transform="translate(-1231.553 -2559.299)"/></g><g transform="translate(27.664 15.994)"><path class="aj" d="M1270.029,2593.56c-.195-.316-.694-.025-.5.29a1.71,1.71,0,0,1,.265.965.289.289,0,0,0,.577,0A2.265,2.265,0,0,0,1270.029,2593.56Z" transform="translate(-1269.486 -2593.424)"/></g><g transform="translate(-3.192 25.51)"><path class="aa" d="M1240.422,2714.21c-.829-9.305-1.82-18.42-2.256-27.752-.44-9.428-.139-18.858-.438-28.288a154.076,154.076,0,0,0-4.564-30.234c-1.924-7.118-5.7-6.518-11.881-9.994a1.256,1.256,0,0,0-.255-.151.72.72,0,0,0-.649-.507,30.786,30.786,0,0,0-3.247.307,21.674,21.674,0,0,1-3.756-.281.293.293,0,0,0-.361.2l-.141.48-.056.012c-7.167,1.47-11.194,4.935-13.165,11.6-2.584,8.737-3.032,20.99-3.447,30.02-.451,9.771-1.749,19.347-2.808,29.058-1.116,10.235-1.262,20.537-1.369,30.823a.594.594,0,0,0,.424.556c4.644,1.675,18.862,2.923,20.993,2.77a.6.6,0,0,0,.577-.577c1.169-17.353,2.988-34.806,3.3-52.2.312-17.133-3.771-33.383-3.787-50.5-.027-.225-.048-.413-.067-.584a15.792,15.792,0,0,0,6.6-.015q.115,26.2.232,52.4c.076,16.938-.918,34.341,2.123,51.082a.582.582,0,0,0,.848.345,98.272,98.272,0,0,1,16.6-7.38.521.521,0,0,0,.28-.133C1240.467,2715.072,1240.59,2714.812,1240.422,2714.21Z" transform="translate(-1192.031 -2617.282)"/></g><g transform="translate(10.473 32.048)"><path class="ak" d="M1229.323,2641.314a25.729,25.729,0,0,0-1.585-7.438c-.144-.341-.642-.047-.5.29a21.421,21.421,0,0,1,1.38,5.975,16.671,16.671,0,0,0-1.754-3.706c-.2-.314-.7-.023-.5.29a16.183,16.183,0,0,1,2.1,4.994.262.262,0,0,0,.345.193c.018.18.036.344.054.516q.436,4.041.875,8.083c.04.36.617.36.577,0Q1229.821,2645.912,1229.323,2641.314Z" transform="translate(-1226.321 -2633.725)"/></g></g></g><g class="al" transform="translate(0 0)"><path class="aa" d="M1240.083,2589.425h-39.248a1.833,1.833,0,0,1-1.829-1.829v-33.39a1.83,1.83,0,0,1,1.829-1.828h39.247a1.83,1.83,0,0,1,1.829,1.828v33.39A1.833,1.833,0,0,1,1240.083,2589.425Zm-39.248-36.236a1.017,1.017,0,0,0-1.017,1.017v33.39a1.017,1.017,0,0,0,1.017,1.017h39.247a1.017,1.017,0,0,0,1.017-1.017v-33.39a1.018,1.018,0,0,0-1.017-1.017Z" transform="translate(-1199.007 -2552.378)"/></g></g><g transform="translate(123.09 67.07)"><g class="ac" transform="translate(0.027 0.838)"><rect class="e" width="42.093" height="35.799" rx="3.505"/><g transform="translate(1.313)"><g class="ad"><g transform="translate(10.115 3.391)"><path class="ae" d="M1596.91,2580.436c-.44-.9-1.043-1.735-1.4-2.68a5.921,5.921,0,0,1-.067-3.246,5.526,5.526,0,0,0-1.082-4.2,5.337,5.337,0,0,0-1.378-1.262c-.321-.2-.657-.314-.99-.49-.626-.334-.8-.8-1.248-1.284a3.448,3.448,0,0,0-3.279-.721,4.26,4.26,0,0,0-1.623.79,22.656,22.656,0,0,0-1.516,1.708c-.79.161-2.682.289-3.407,1.222-1.082,1.382-.914,3.37-1.681,4.869a13.95,13.95,0,0,0-2.074,3.888,3.859,3.859,0,0,0,.079,1.657,7.807,7.807,0,0,1,.407,1.748c.011.483-.1.962-.125,1.442a4.16,4.16,0,0,0,1.5,3.469,2,2,0,0,0,1.318.427,9.724,9.724,0,0,1,1.481-.092,3.824,3.824,0,0,0,.865.147c1.1-.09,1.443-1.417,1.623-2.31a22.605,22.605,0,0,0,0-5.115,37.76,37.76,0,0,1,1.11-6.263c0-.027,0-.054,0-.079.3,1.412.507,2.84.671,4.274a12.546,12.546,0,0,0,1.717,6.2c.18,1.576,1.028,3.225,2.806,3.336,1.136.073,1.566-.761,2.546-1.133a3.007,3.007,0,0,1,1.116-.149,2.4,2.4,0,0,0,3.336-1.726,6.649,6.649,0,0,0-.7-4.428Z" transform="translate(-1577.108 -2566.404)"/></g><g transform="translate(12.719 14.951)"><path class="am" d="M1588.118,2602.94a8.473,8.473,0,0,0,.137-1.119,13.684,13.684,0,0,0-.925-2.031c-.332-.622-1.082-2.128-2.036-2.07a.6.6,0,0,0-.619.437,4.044,4.044,0,0,1-.1-2.125c.146-.624-.815-.889-.961-.265a7.754,7.754,0,0,0,.713,4.489c.387,1.388-.3,3.047.378,4.328a2.385,2.385,0,0,0,.361.508,2.259,2.259,0,0,1,.563,0,3.839,3.839,0,0,0,.865.148C1587.6,2605.159,1587.942,2603.832,1588.118,2602.94Z" transform="translate(-1583.543 -2595.411)"/></g><g transform="translate(21.933 14.847)"><path class="am" d="M1611.9,2598.208a5.47,5.47,0,0,1-.247-2.583c.045-.639-.952-.636-1,0a7.007,7.007,0,0,0,.016,1.284.517.517,0,0,0-.46,0,.5.5,0,0,0-.7.153,7.569,7.569,0,0,0-.884,2.082.49.49,0,0,0-.564.081,4.412,4.412,0,0,0-.455,5.725,2.659,2.659,0,0,0,.839.188c1.136.073,1.563-.761,2.546-1.132a3.007,3.007,0,0,1,1.116-.15c.085.034.171.064.258.09a4.5,4.5,0,0,0,.656-1.677,4.41,4.41,0,0,0-.325-2.63C1612.468,2599.14,1612.109,2598.727,1611.9,2598.208Z" transform="translate(-1606.762 -2595.147)"/></g><g transform="translate(6.039 24.058)"><path class="af" d="M1594.113,2626.745c-1.2-4.784-7.661-5.353-10.968-8.335-.465-.42-1.172.25-.705.671l.012.011-3.688-.314a.512.512,0,0,0-.851-.36c-3.307,2.982-9.769,3.55-10.968,8.335-.51,2.036,2.871,5.827,3.279,7.834.573,2.819,1.964,10.46,2.554,13.268.541,2.568,1.129.79,1.827,3.322.371,1.345-2.9.482-1.461.988a19.4,19.4,0,0,0,7.049.19c.112,0,.222-.015.334-.023a3.161,3.161,0,0,1,.334.023,19.385,19.385,0,0,0,7.05-.191c1.443-.506-2.382,2.1-2.013.756.7-2.525,2.036-3.247,2.574-5.815.382-1.823-1.575,7.153-.166,3.653.767-1.9,1.71-13.686,1.91-14.679C1590.627,2634.066,1594.621,2628.779,1594.113,2626.745Z" transform="translate(-1566.892 -2618.276)"/></g><g transform="translate(16.678 17.711)"><path class="af" d="M1596.682,2612.476h0a3.078,3.078,0,0,1-3.079-3.078v-7.053h6.155v7.053A3.078,3.078,0,0,1,1596.682,2612.476Z" transform="translate(-1593.603 -2602.345)"/></g><g transform="translate(16.687 19.89)"><path class="ag" d="M1599.778,2608.008a10.733,10.733,0,0,0-3-.144,7.965,7.965,0,0,0-3.105.721l-.051.025v2.623a4.378,4.378,0,0,0,4.172,1.358,7.508,7.508,0,0,0,1.984-.885Z" transform="translate(-1593.623 -2607.818)"/></g><g transform="translate(13.574 6.612)"><path class="af" d="M1592.021,2574.474c-6.784.1-6.216,5.93-6.2,6.186a15.244,15.244,0,0,0,1.364,6.947,6,6,0,0,0,4.849,3.427,4.6,4.6,0,0,0,3.549-2.091,12.726,12.726,0,0,0,2.45-8.207C1597.958,2577.435,1599.323,2574.362,1592.021,2574.474Z" transform="translate(-1585.804 -2574.471)"/></g><g transform="translate(24.362 14.029)"><path class="af" d="M1614.818,2593.247c-.8-.653-1.562.963-1.829,1.477-.166.321.3.614.476.316l-.168.279c-.191.319-.555.762-.337,1.154.424.765,1.608-.218,1.926-.685a1.791,1.791,0,0,0-.068-2.542Z" transform="translate(-1612.892 -2593.094)"/></g><g transform="translate(9.304 26.594)"><path class="aa" d="M1594.389,2634.956q-.341-4.885-.4-9.782a.5.5,0,1,0-1,0q.049,4.671.361,9.329a27.8,27.8,0,0,1-15.452.194c-.252-2.885-.541-5.77-.828-8.656-.063-.633-1.06-.638-1,0,.289,2.909.581,5.818.835,8.73,0,.011-.02.02-.025.033a28.032,28.032,0,0,1-1.8,3.338c.035.11.067.219.089.319.572,2.812,1.957,10.417,2.55,13.246,2.685,2.692,8.182,2.885,11.666,2.373a6.493,6.493,0,0,0,3.583-1.65,7.758,7.758,0,0,0,.435-1.374c-.058.277-.142.705-.236,1.191a6.964,6.964,0,0,0,.721-.859c.583-4.182,1.127-10.7,1.277-11.43a7.242,7.242,0,0,1,.642-1.6A34.089,34.089,0,0,0,1594.389,2634.956Z" transform="translate(-1575.087 -2624.676)"/></g><g transform="translate(25.02 14.975)"><path class="ag" d="M1614.982,2595.745a1.58,1.58,0,0,1-.36.87c-.235.281.169.69.406.406a2.253,2.253,0,0,0,.527-1.275C1615.588,2595.378,1615.015,2595.381,1614.982,2595.745Z" transform="translate(-1614.551 -2595.471)"/></g><g transform="translate(12.586 14.081)"><path class="af" d="M1583.848,2595.918c.319.465,1.5,1.443,1.928.685.216-.391-.146-.833-.339-1.154l-.168-.28c.18.3.642,0,.476-.316-.267-.514-1.026-2.129-1.829-1.477a1.79,1.79,0,0,0-.069,2.541Z" transform="translate(-1583.352 -2593.224)"/></g><g transform="translate(13.412 15.028)"><path class="ag" d="M1585.974,2595.875a1.579,1.579,0,0,0,.36.869c.235.281-.169.691-.406.406a2.252,2.252,0,0,1-.527-1.276C1585.367,2595.509,1585.941,2595.511,1585.974,2595.875Z" transform="translate(-1585.4 -2595.601)"/></g><g transform="translate(16.252 14.817)"><ellipse class="an" cx="0.429" cy="0.656" rx="0.429" ry="0.656" transform="translate(0 0)"/></g><g transform="translate(22.355 14.865)"><ellipse class="an" cx="0.429" cy="0.656" rx="0.429" ry="0.656" transform="translate(0 0)"/></g><g transform="translate(18.976 15.462)"><path class="ag" d="M1600.762,2599.213c-.375.061-.752.132-.856-.408a2.577,2.577,0,0,1,.083-.73c.063-.448.1-.576.18-1.023.056-.361-.5-.516-.554-.151-.081.521-.132.721-.2,1.244a2.2,2.2,0,0,0,0,1.082c.242.642.945.634,1.513.541C1601.278,2599.707,1601.122,2599.155,1600.762,2599.213Z" transform="translate(-1599.343 -2596.693)"/></g><g transform="translate(18.248 19.836)"><path class="e" d="M1600.246,2607.679a8.3,8.3,0,0,1-2.462.009c-.22-.032-.325.242-.161.319h0a1.915,1.915,0,0,0,2.808-.032.164.164,0,0,0,.014-.031C1600.547,2607.845,1600.444,2607.648,1600.246,2607.679Z" transform="translate(-1597.543 -2607.676)"/></g><g transform="translate(21.047 12.867)"><path class="an" d="M1608.208,2590.651a.731.731,0,0,0-.323-.246,4.233,4.233,0,0,0-2.506-.073c-.314.09-1.219.518-.593.837a19.058,19.058,0,0,0,2.97-.043C1608.257,2591.12,1608.411,2590.927,1608.208,2590.651Z" transform="translate(-1604.569 -2590.177)"/></g><g transform="translate(14.718 12.799)"><path class="an" d="M1589.195,2590.958a17.6,17.6,0,0,0,2.857.038c.6-.32-.267-.746-.568-.835a3.931,3.931,0,0,0-2.411.076.72.72,0,0,0-.312.246C1588.563,2590.76,1588.718,2590.948,1589.195,2590.958Z" transform="translate(-1588.677 -2590.008)"/></g><g transform="translate(12.781 5.797)"><path class="ae" d="M1595.857,2573.677a7.321,7.321,0,0,0-7-.624.251.251,0,0,0-.166.26.211.211,0,0,0-.2.016.22.22,0,0,0-.242-.072c-.829.245-1.495.161-2.124.831a5.46,5.46,0,0,0-.984,1.789,28.855,28.855,0,0,0-1.2,3.516c-.1.413-.264.883.09,1.244,1,1.019,1.675-1.414,1.958-1.865.393-.627,1.046-1.026,1.345-1.709.507-1.156.181-1.731,1.291-2.575.974.135,1.015,2.034,1.547,2.584a1.144,1.144,0,0,0,.793.36,3.211,3.211,0,0,1,1.3.181c.7.3.478.208.956.765.656.766,1.246.685,2.182.5s2.011.18,2.454-.871a3.748,3.748,0,0,0-2.011-4.334Z" transform="translate(-1583.819 -2572.443)"/></g><g transform="translate(22.319 11.048)"><path class="ae" d="M1612.661,2587.41c-.161-1.116-1.387-2.258-2.554-1.562a.756.756,0,0,0-.406.579c-.375-.218-.891-.341-1.123-.641-.391-.507-1.093.2-.705.705.436.564,1.25.541,1.682,1.167.4.586.554,1.14,1.248,1.466C1612.136,2589.75,1612.837,2588.657,1612.661,2587.41Z" transform="translate(-1607.759 -2585.612)"/></g><g transform="translate(3.19 29.763)"><path class="af" d="M1565.742,2637.279a16.574,16.574,0,0,0-1.051-3.9l.009-.009c.407-.4-.209-1.042-.613-.647-1.912,1.874-2.57,5.016-3.014,7.69-.615,3.709-.213,7.5-.752,11.213a37.333,37.333,0,0,0-.541,9.974c.36,3.272.9,6.519,1.544,9.739a32.555,32.555,0,0,0-.583,5.015c0,.181,0,.333,0,.473a7.64,7.64,0,0,0,.015,2.649,3.353,3.353,0,0,0,1.468,1.562.223.223,0,0,0,.185.029.229.229,0,0,0,.145-.12c.139.181.285.343.438.512a.25.25,0,0,0,.417-.243,6.769,6.769,0,0,1-.289-1.581,3.854,3.854,0,0,0,.111.372,2.984,2.984,0,0,0,1.082,1.762.253.253,0,0,0,.36-.281,25.476,25.476,0,0,1-.815-2.823,10.047,10.047,0,0,1-.092-1.608,4.776,4.776,0,0,0,.307-1.658,13.4,13.4,0,0,0-.756-2.885.043.043,0,0,0,.038-.02c.671-5.723,1.412-12.528,1.522-18.306a42.576,42.576,0,0,1,2.265-14.739C1567.291,2639.048,1566.011,2637.178,1565.742,2637.279Z" transform="translate(-1559.661 -2632.597)"/></g><g transform="translate(28.68 29.763)"><path class="af" d="M1625.152,2637.279a16.57,16.57,0,0,1,1.052-3.9l-.009-.009c-.407-.4.209-1.042.613-.647,1.912,1.874,2.57,5.016,3.016,7.69.615,3.709.213,7.5.75,11.213a37.366,37.366,0,0,1,.541,9.975c-.36,3.271-.9,6.518-1.543,9.738a32.591,32.591,0,0,1,.582,5.015c0,.181,0,.333,0,.473a7.623,7.623,0,0,1-.015,2.648,3.357,3.357,0,0,1-1.468,1.563.229.229,0,0,1-.33-.091c-.139.181-.285.343-.438.512a.25.25,0,0,1-.416-.243,6.814,6.814,0,0,0,.288-1.58c-.03.123-.067.247-.11.372a2.988,2.988,0,0,1-1.082,1.762.253.253,0,0,1-.361-.281,25.128,25.128,0,0,0,.816-2.822,10.059,10.059,0,0,0,.092-1.609,4.8,4.8,0,0,1-.307-1.657,13.47,13.47,0,0,1,.755-2.886.041.041,0,0,1-.038-.02c-.671-5.723-1.412-12.528-1.522-18.306a42.59,42.59,0,0,0-2.266-14.739C1623.6,2639.048,1624.883,2637.178,1625.152,2637.279Z" transform="translate(-1623.74 -2632.597)"/></g></g></g></g><g class="al" transform="translate(0 0)"><path class="aa" d="M1589.437,2592.8H1550.19a1.831,1.831,0,0,1-1.829-1.828v-33.39a1.83,1.83,0,0,1,1.829-1.828h39.247a1.83,1.83,0,0,1,1.829,1.828v33.39a1.83,1.83,0,0,1-1.829,1.828Zm-39.247-36.236a1.018,1.018,0,0,0-1.017,1.017v33.39a1.016,1.016,0,0,0,1.017,1.016h39.247a1.017,1.017,0,0,0,1.017-1.017v-33.39a1.018,1.018,0,0,0-1.017-1.017Z" transform="translate(-1548.361 -2555.757)"/></g></g></g></g></g></svg>