<svg id="Grupo_25529" data-name="Grupo 25529" xmlns="http://www.w3.org/2000/svg" width="49.945" height="52.594" viewBox="0 0 49.945 52.594">
  <g id="Grupo_24401" data-name="Grupo 24401" transform="translate(0 0)">
    <path id="Trazado_24368" data-name="Trazado 24368" d="M1646.56,2629.987A30.671,30.671,0,0,1,1631.2,2603.4v-9.18a4.349,4.349,0,0,1,3.341-4.231l18.854-6.606.318.112,18.537,6.494a4.35,4.35,0,0,1,3.341,4.231v9.18a30.63,30.63,0,0,1-2.423,11.956l-1.769-.749a28.708,28.708,0,0,0,2.271-11.208v-9.18a2.429,2.429,0,0,0-1.9-2.37l-.055-.012-.053-.019-18.269-6.4-18.322,6.419-.055.012a2.429,2.429,0,0,0-1.9,2.37v9.18a28.768,28.768,0,0,0,14.394,24.92Z" transform="translate(-1631.204 -2583.386)" fill="#0054c8"/>
    <path id="Trazado_24376" data-name="Trazado 24376" d="M1678.135,2640.1h-.033a1.873,1.873,0,0,1-1.252-.509l-2.971-2.791,1.315-1.4,2.942,2.763,7.983-6.986,1.265,1.446-8.013,7.012A1.874,1.874,0,0,1,1678.135,2640.1Z" transform="translate(-1657.481 -2612.813)" fill="#0054c8"/>
    <text id="S_" data-name="S/" transform="translate(26.129 44.41)" fill="#00aef0" font-size="11" font-family="Omnes-Semibold, Omnes" font-weight="600"><tspan x="0" y="0">S/</tspan></text>
    <path id="Trazado_24377" data-name="Trazado 24377" d="M1680.788,2706.542h-1.921a6.611,6.611,0,0,0-1.714-4.505,5.471,5.471,0,0,0-4.045-1.826v-1.921a7.187,7.187,0,0,1,3.016.66,7.649,7.649,0,0,1,2.442,1.785,8.284,8.284,0,0,1,1.628,2.62A8.739,8.739,0,0,1,1680.788,2706.542Z" transform="translate(-1657.007 -2654.139)" fill="#00aef0"/>
    <path id="Trazado_24381" data-name="Trazado 24381" d="M1740.622,2706.542H1738.7a8.738,8.738,0,0,1,.594-3.187,8.28,8.28,0,0,1,1.629-2.62,7.645,7.645,0,0,1,2.442-1.785,7.186,7.186,0,0,1,3.016-.66v1.921a5.471,5.471,0,0,0-4.045,1.826A6.611,6.611,0,0,0,1740.622,2706.542Z" transform="translate(-1697.397 -2654.139)" fill="#00aef0"/>
    <path id="Trazado_24378" data-name="Trazado 24378" d="M1673.108,2674.921V2673a5.472,5.472,0,0,0,4.045-1.826,6.609,6.609,0,0,0,1.714-4.5h1.921a8.738,8.738,0,0,1-.594,3.187,8.284,8.284,0,0,1-1.628,2.62,7.656,7.656,0,0,1-2.442,1.785A7.183,7.183,0,0,1,1673.108,2674.921Z" transform="translate(-1657.007 -2634.668)" fill="#00aef0"/>
    <path id="Trazado_24382" data-name="Trazado 24382" d="M1746.381,2674.921a7.183,7.183,0,0,1-3.016-.66,7.652,7.652,0,0,1-2.442-1.785,8.28,8.28,0,0,1-1.629-2.62,8.738,8.738,0,0,1-.594-3.187h1.921a6.609,6.609,0,0,0,1.714,4.5,5.471,5.471,0,0,0,4.045,1.826Z" transform="translate(-1697.397 -2634.668)" fill="#00aef0"/>
    <path id="Trazado_24379" data-name="Trazado 24379" d="M1664.125,2633.1a12.468,12.468,0,0,1-6.609-11.009,12.471,12.471,0,1,1,23.58,5.668,12.578,12.578,0,0,1-3.632,4.311l-1.153-1.536a10.653,10.653,0,0,0,3.074-3.649,10.476,10.476,0,0,0,.85-2.288,10.564,10.564,0,0,0-6.144-12.226,10.552,10.552,0,0,0-13.107,15.223,10.6,10.6,0,0,0,4.044,3.811Z" transform="translate(-1647.406 -2599.541)" fill="#0054c8"/>
    <path id="Rectángulo_8123" data-name="Rectángulo 8123" d="M1.471-2.5H28.333A3.976,3.976,0,0,1,32.3,1.471V15.083a3.976,3.976,0,0,1-3.971,3.971H1.471A3.976,3.976,0,0,1-2.5,15.083V1.471A3.976,3.976,0,0,1,1.471-2.5ZM28.333,17.133a2.052,2.052,0,0,0,2.05-2.05V1.471a2.052,2.052,0,0,0-2.05-2.05H1.471a2.053,2.053,0,0,0-2.05,2.05V15.083a2.053,2.053,0,0,0,2.05,2.05Z" transform="translate(17.641 33.54)" fill="#00aef0"/>
  </g>
</svg>
