<svg xmlns="http://www.w3.org/2000/svg" width="114.797" height="96.73" viewBox="0 0 114.797 96.73">
  <g id="Grupo_24394" data-name="Grupo 24394" transform="translate(-1.4)">
    <path id="Trazado_17519" data-name="Trazado 17519" d="M1323.656,1990.1a7.318,7.318,0,0,0-1.581-2.364h0a7.272,7.272,0,0,0-5.14-2.136h-5.271a.859.859,0,0,0-.157.014v-5.287a3.4,3.4,0,0,0-.261-1.3,3.433,3.433,0,0,0-.741-1.109,3.438,3.438,0,0,0-2.412-1,3.354,3.354,0,0,0-1.3.262,3.408,3.408,0,0,0-1.107.74l0,0a3.415,3.415,0,0,0-1,2.408v5.287a.855.855,0,0,0-.157-.014h-26.314a.879.879,0,0,0-.159.014v-5.287a3.423,3.423,0,0,0-3.412-3.413,3.364,3.364,0,0,0-1.3.262,3.409,3.409,0,0,0-1.108.74l0,0a3.433,3.433,0,0,0-.741,1.106,3.385,3.385,0,0,0-.261,1.3v5.287a.857.857,0,0,0-.157-.014h-5.271a7.2,7.2,0,0,0-2.778.556,7.285,7.285,0,0,0-4.5,6.724v49.65a7.25,7.25,0,0,0,2.09,5.092l.045.052a7.343,7.343,0,0,0,2.364,1.581,7.232,7.232,0,0,0,2.78.555h51.137a7.23,7.23,0,0,0,2.78-.555,7.294,7.294,0,0,0,3.945-3.946,7.212,7.212,0,0,0,.554-2.778v-49.65a7.224,7.224,0,0,0-.554-2.78m-46.841,53.285a.873.873,0,0,1-.873.871h-10a.871.871,0,0,1-.873-.871v-10a.871.871,0,0,1,.873-.871h10a.872.872,0,0,1,.873.871Zm0-13.357a.874.874,0,0,1-.873.873h-10a.873.873,0,0,1-.873-.873v-10a.871.871,0,0,1,.873-.87h10a.872.872,0,0,1,.873.87Zm0-13.357a.874.874,0,0,1-.873.873h-10a.873.873,0,0,1-.873-.873v-10a.871.871,0,0,1,.873-.871h10a.873.873,0,0,1,.873.871Zm13.613,26.714a.87.87,0,0,1-.871.871h-10a.872.872,0,0,1-.873-.871v-10a.872.872,0,0,1,.873-.871h10a.87.87,0,0,1,.871.871Zm0-13.357a.872.872,0,0,1-.871.873h-10a.874.874,0,0,1-.873-.873v-10a.872.872,0,0,1,.873-.87h10a.87.87,0,0,1,.871.87Zm0-13.357a.872.872,0,0,1-.871.873h-10a.874.874,0,0,1-.873-.873v-10a.873.873,0,0,1,.873-.871h10a.871.871,0,0,1,.871.871Zm13.614,26.714a.87.87,0,0,1-.87.871h-10a.871.871,0,0,1-.87-.871v-10a.87.87,0,0,1,.87-.871h10a.87.87,0,0,1,.87.871Zm0-13.357a.872.872,0,0,1-.87.873h-10a.873.873,0,0,1-.87-.873v-10a.87.87,0,0,1,.87-.87h10a.87.87,0,0,1,.87.87Zm0-13.357a.872.872,0,0,1-.87.873h-10a.872.872,0,0,1-.87-.873v-10a.871.871,0,0,1,.87-.871h10a.871.871,0,0,1,.87.871Zm13.615,26.714a.871.871,0,0,1-.873.871h-10a.872.872,0,0,1-.873-.871v-10a.872.872,0,0,1,.873-.871h10a.87.87,0,0,1,.873.871Zm0-13.357a.873.873,0,0,1-.873.873h-10a.874.874,0,0,1-.873-.873v-10a.872.872,0,0,1,.873-.87h10a.87.87,0,0,1,.873.87Zm0-13.357a.872.872,0,0,1-.873.873h-10a.874.874,0,0,1-.873-.873v-10a.873.873,0,0,1,.873-.871h10a.871.871,0,0,1,.873.871Z" transform="translate(-1208.014 -1976.917)" fill="#9ddff8"/>
    <path id="Trazado_25399" data-name="Trazado 25399" d="M13.4.7c9.5,0,14.75-5.35,14.75-15.4v-3.15c0-9.5-5.4-15.15-13.95-15.15C6.65-33,1.4-28,1.4-21.35v.2c0,5.95,4.2,9.6,10.8,9.6A12.1,12.1,0,0,0,20.9-15a9.061,9.061,0,0,1-.1,2.45c-.4,5.1-3,7.4-7.9,7.4a10.146,10.146,0,0,1-7.85-3.4C4.9-8.7,2.55-7.8,2.55-5a4.734,4.734,0,0,0,2.7,3.95A16.587,16.587,0,0,0,13.4.7Zm.85-17c-3.7,0-5.8-1.9-5.8-5.25v-.25a5.641,5.641,0,0,1,5.85-5.7c3.9,0,6.1,2.75,6.4,7.45,0,.25.05.55.05.8A9.2,9.2,0,0,1,14.25-16.3ZM40.65.7C48.75.7,53.8-3.5,53.8-10.05c0-6.35-4.75-10.25-11.95-10.25a15.7,15.7,0,0,0-5.9,1.2v-7.25H49c2.35,0,3.45-.9,3.45-2.85v-.25c0-1.95-1.15-2.9-3.45-2.9H33.35c-2.45,0-3.55,1.5-3.55,4.1v10.7c0,2.95,1.45,4.2,4.35,4.3a10.4,10.4,0,0,1,6.65-2c4.15,0,6.45,1.9,6.45,5.15s-2.55,5.3-6.7,5.3a10.765,10.765,0,0,1-8.9-4.35C31.4-9.4,28.6-7.85,28.6-5.7c0,1.5,1.15,3.05,3.2,4.3A17.369,17.369,0,0,0,40.65.7Z" transform="translate(0 95.356)" fill="#0855c4"/>
    <path id="Trazado_25400" data-name="Trazado 25400" d="M15.1-19.788a7.846,7.846,0,0,1-5.712,2.244,7.769,7.769,0,0,1-5.661-2.193,7.382,7.382,0,0,1-2.244-5.508V-25.7a7.506,7.506,0,0,1,2.27-5.559,7.76,7.76,0,0,1,5.687-2.244,7.857,7.857,0,0,1,5.686,2.193,7.34,7.34,0,0,1,2.269,5.508v.459A7.464,7.464,0,0,1,15.1-19.788ZM6.222.459q-.1.153-.689-.025A2.834,2.834,0,0,1,4.411-.255a1.577,1.577,0,0,1-.536-1.173,4.248,4.248,0,0,1,1.479-2.7L31.008-33.66q.1-.1.663.051a2.913,2.913,0,0,1,1.122.637,1.522,1.522,0,0,1,.561,1.2,4.647,4.647,0,0,1-1.428,2.754Zm27.489-2.4A7.674,7.674,0,0,1,28.05.306a7.857,7.857,0,0,1-5.687-2.193,7.34,7.34,0,0,1-2.269-5.508v-.459a7.464,7.464,0,0,1,2.3-5.559A7.846,7.846,0,0,1,28.1-15.657a7.769,7.769,0,0,1,5.661,2.193,7.382,7.382,0,0,1,2.244,5.508V-7.5A7.464,7.464,0,0,1,33.711-1.938ZM6.477-21.981a3.924,3.924,0,0,0,2.958,1.224,3.762,3.762,0,0,0,2.907-1.224,4.5,4.5,0,0,0,1.122-3.162v-.765A4.529,4.529,0,0,0,12.317-29.1a3.8,3.8,0,0,0-2.933-1.25,3.762,3.762,0,0,0-2.907,1.224,4.569,4.569,0,0,0-1.122,3.213v.765A4.614,4.614,0,0,0,6.477-21.981ZM28.1-2.907a3.784,3.784,0,0,0,2.882-1.224A4.437,4.437,0,0,0,32.13-7.293v-.765a4.529,4.529,0,0,0-1.148-3.188,3.8,3.8,0,0,0-2.932-1.249,3.762,3.762,0,0,0-2.907,1.224,4.569,4.569,0,0,0-1.122,3.213v.765a4.459,4.459,0,0,0,1.147,3.137A3.8,3.8,0,0,0,28.1-2.907Z" transform="translate(56.486 96.201)" fill="#0855c4"/>
  </g>
</svg>
