<svg xmlns="http://www.w3.org/2000/svg" width="120.182" height="97.862" viewBox="0 0 120.182 97.862">
  <g id="Grupo_24395" data-name="Grupo 24395" transform="translate(-0.867)">
    <path id="Trazado_17520" data-name="Trazado 17520" d="M753.577,2009.323c0-16.044,18.132-30.117,38.8-30.117a45.667,45.667,0,0,1,17.434,3.365,4.5,4.5,0,0,0,3.478-.148l11.665-6.2-2.31,12.4a3.947,3.947,0,0,0,.159,1.854,4.106,4.106,0,0,0,.858,1.632,30.259,30.259,0,0,1,5.243,7.97,4.061,4.061,0,0,0,2.714,2.181l7.054,1.3a1.043,1.043,0,0,1,.8.961v12.646a1.05,1.05,0,0,1-.8.966l-7.071,1.3a4.067,4.067,0,0,0-2.719,2.186,31.408,31.408,0,0,1-8.49,11.121,5.673,5.673,0,0,0-1.728,2.989l-1.827,10.9a1.011,1.011,0,0,1-.938.794h-9.987a.671.671,0,0,1-.67-.67v-3.336a1.99,1.99,0,0,0-1.664-2.029,2.248,2.248,0,0,0-.956.011,47.722,47.722,0,0,1-15.522.861,46.433,46.433,0,0,1-5.052-.844,2.464,2.464,0,0,0-.451-.057c-.071-.006-.14-.009-.209-.009a1.993,1.993,0,0,0-2.016,2.059v3.34a.674.674,0,0,1-.673.674h-9.9a1.008,1.008,0,0,1-.934-.792l-1.821-10.87a5.668,5.668,0,0,0-1.725-2.984,30.707,30.707,0,0,1-10.745-23.453" transform="translate(-718.426 -1976.223)" fill="#9ddff8"/>
    <path id="Trazado_25397" data-name="Trazado 25397" d="M9.18.357c1.326,0,2.754-.663,3.825-2.652L24.429-23.154c.918-1.632,2.295-3.723,2.295-5.61v-.51c0-1.938-.663-3.723-4.9-3.723H4.182C1.989-33,.867-32.13.867-30.09v.459c0,2.091,1.122,2.958,3.315,2.958H18.615L5-2.346C4.692-1.836,6.732.357,9.18.357ZM41.31.714c8.976,0,14.382-6.069,14.382-15.657v-3.213c0-9.537-5.406-15.555-14.382-15.555S26.877-27.642,26.877-18.1v3.264C26.877-5.3,32.283.714,41.31.714Zm0-6.171c-4.437,0-6.834-3.162-6.834-8.925v-4.335c0-5.814,2.346-8.925,6.834-8.925,4.386,0,6.885,3.213,6.885,9.027v4.233C48.195-8.568,45.8-5.457,41.31-5.457Z" transform="translate(0 95.756)" fill="#0855c4"/>
    <path id="Trazado_25398" data-name="Trazado 25398" d="M15.1-19.788a7.846,7.846,0,0,1-5.712,2.244,7.769,7.769,0,0,1-5.661-2.193,7.382,7.382,0,0,1-2.244-5.508V-25.7a7.506,7.506,0,0,1,2.27-5.559,7.76,7.76,0,0,1,5.687-2.244,7.857,7.857,0,0,1,5.686,2.193,7.34,7.34,0,0,1,2.269,5.508v.459A7.464,7.464,0,0,1,15.1-19.788ZM6.222.459q-.1.153-.689-.025A2.834,2.834,0,0,1,4.411-.255a1.577,1.577,0,0,1-.536-1.173,4.248,4.248,0,0,1,1.479-2.7L31.008-33.66q.1-.1.663.051a2.913,2.913,0,0,1,1.122.637,1.522,1.522,0,0,1,.561,1.2,4.647,4.647,0,0,1-1.428,2.754Zm27.489-2.4A7.674,7.674,0,0,1,28.05.306a7.857,7.857,0,0,1-5.687-2.193,7.34,7.34,0,0,1-2.269-5.508v-.459a7.464,7.464,0,0,1,2.3-5.559A7.846,7.846,0,0,1,28.1-15.657a7.769,7.769,0,0,1,5.661,2.193,7.382,7.382,0,0,1,2.244,5.508V-7.5A7.464,7.464,0,0,1,33.711-1.938ZM6.477-21.981a3.924,3.924,0,0,0,2.958,1.224,3.762,3.762,0,0,0,2.907-1.224,4.5,4.5,0,0,0,1.122-3.162v-.765A4.529,4.529,0,0,0,12.317-29.1a3.8,3.8,0,0,0-2.933-1.25,3.762,3.762,0,0,0-2.907,1.224,4.569,4.569,0,0,0-1.122,3.213v.765A4.614,4.614,0,0,0,6.477-21.981ZM28.1-2.907a3.784,3.784,0,0,0,2.882-1.224A4.437,4.437,0,0,0,32.13-7.293v-.765a4.529,4.529,0,0,0-1.148-3.188,3.8,3.8,0,0,0-2.932-1.249,3.762,3.762,0,0,0-2.907,1.224,4.569,4.569,0,0,0-1.122,3.213v.765a4.459,4.459,0,0,0,1.147,3.137A3.8,3.8,0,0,0,28.1-2.907Z" transform="translate(58.451 97.333)" fill="#0855c4"/>
  </g>
</svg>
