<svg xmlns="http://www.w3.org/2000/svg" width="96.612" height="86.188" viewBox="0 0 96.612 86.188">
  <g id="Grupo_24396" data-name="Grupo 24396" transform="translate(-0.867)">
    <path id="Trazado_17521" data-name="Trazado 17521" d="M1747.649,2074.139h-3.738a5.726,5.726,0,0,1-5.726-5.726v-27.174a5.726,5.726,0,0,1,5.726-5.727h3.738a5.726,5.726,0,0,1,5.727,5.727v27.174a5.726,5.726,0,0,1-5.727,5.726" transform="translate(-1695.146 -2012.253)" fill="#9ddff8"/>
    <path id="Trazado_17522" data-name="Trazado 17522" d="M1781.489,2066.065h-3.738a5.726,5.726,0,0,1-5.726-5.726v-38.181a5.726,5.726,0,0,1,5.726-5.726h3.738a5.727,5.727,0,0,1,5.727,5.726v38.181a5.727,5.727,0,0,1-5.727,5.726" transform="translate(-1709.465 -2004.179)" fill="#9ddff8"/>
    <path id="Trazado_17523" data-name="Trazado 17523" d="M1815.689,2057.078h-3.738a5.726,5.726,0,0,1-5.726-5.726v-50.434a5.726,5.726,0,0,1,5.726-5.726h3.738a5.726,5.726,0,0,1,5.726,5.726v50.434a5.726,5.726,0,0,1-5.726,5.726" transform="translate(-1723.936 -1995.192)" fill="#9ddff8"/>
    <path id="Trazado_25401" data-name="Trazado 25401" d="M9.18.357c1.326,0,2.754-.663,3.825-2.652L24.429-23.154c.918-1.632,2.295-3.723,2.295-5.61v-.51c0-1.938-.663-3.723-4.9-3.723H4.182C1.989-33,.867-32.13.867-30.09v.459c0,2.091,1.122,2.958,3.315,2.958H18.615L5-2.346C4.692-1.836,6.732.357,9.18.357ZM41.31.714c8.976,0,14.382-6.069,14.382-15.657v-3.213c0-9.537-5.406-15.555-14.382-15.555S26.877-27.642,26.877-18.1v3.264C26.877-5.3,32.283.714,41.31.714Zm0-6.171c-4.437,0-6.834-3.162-6.834-8.925v-4.335c0-5.814,2.346-8.925,6.834-8.925,4.386,0,6.885,3.213,6.885,9.027v4.233C48.195-8.568,45.8-5.457,41.31-5.457Z" transform="translate(0 84.814)" fill="#0855c4"/>
    <path id="Trazado_25402" data-name="Trazado 25402" d="M15.1-19.788a7.846,7.846,0,0,1-5.712,2.244,7.769,7.769,0,0,1-5.661-2.193,7.382,7.382,0,0,1-2.244-5.508V-25.7a7.506,7.506,0,0,1,2.27-5.559,7.76,7.76,0,0,1,5.687-2.244,7.857,7.857,0,0,1,5.686,2.193,7.34,7.34,0,0,1,2.269,5.508v.459A7.464,7.464,0,0,1,15.1-19.788ZM6.222.459q-.1.153-.689-.025A2.834,2.834,0,0,1,4.411-.255a1.577,1.577,0,0,1-.536-1.173,4.248,4.248,0,0,1,1.479-2.7L31.008-33.66q.1-.1.663.051a2.913,2.913,0,0,1,1.122.637,1.522,1.522,0,0,1,.561,1.2,4.647,4.647,0,0,1-1.428,2.754Zm27.489-2.4A7.674,7.674,0,0,1,28.05.306a7.857,7.857,0,0,1-5.687-2.193,7.34,7.34,0,0,1-2.269-5.508v-.459a7.464,7.464,0,0,1,2.3-5.559A7.846,7.846,0,0,1,28.1-15.657a7.769,7.769,0,0,1,5.661,2.193,7.382,7.382,0,0,1,2.244,5.508V-7.5A7.464,7.464,0,0,1,33.711-1.938ZM6.477-21.981a3.924,3.924,0,0,0,2.958,1.224,3.762,3.762,0,0,0,2.907-1.224,4.5,4.5,0,0,0,1.122-3.162v-.765A4.529,4.529,0,0,0,12.317-29.1a3.8,3.8,0,0,0-2.933-1.25,3.762,3.762,0,0,0-2.907,1.224,4.569,4.569,0,0,0-1.122,3.213v.765A4.614,4.614,0,0,0,6.477-21.981ZM28.1-2.907a3.784,3.784,0,0,0,2.882-1.224A4.437,4.437,0,0,0,32.13-7.293v-.765a4.529,4.529,0,0,0-1.148-3.188,3.8,3.8,0,0,0-2.932-1.249,3.762,3.762,0,0,0-2.907,1.224,4.569,4.569,0,0,0-1.122,3.213v.765a4.459,4.459,0,0,0,1.147,3.137A3.8,3.8,0,0,0,28.1-2.907Z" transform="translate(57.888 85.659)" fill="#0855c4"/>
  </g>
</svg>
