<svg id="Grupo_25527" data-name="Grupo 25527" xmlns="http://www.w3.org/2000/svg" width="70.716" height="42.65" viewBox="0 0 70.716 42.65">
  <g id="Grupo_24399" data-name="Grupo 24399" transform="translate(0 0)">
    <text id="S_" data-name="S/" transform="translate(32.065 13.903)" fill="#00aef0" font-size="11" font-family="Omnes-Semibold, Omnes" font-weight="600"><tspan x="0" y="0">S/</tspan></text>
    <path id="Trazado_24338" data-name="Trazado 24338" d="M833.558,2632.107h-1.667a5.962,5.962,0,0,0-1.546-4.062,4.939,4.939,0,0,0-3.651-1.648v-1.667a6.42,6.42,0,0,1,2.695.59,6.834,6.834,0,0,1,2.182,1.6,7.4,7.4,0,0,1,1.456,2.342A7.815,7.815,0,0,1,833.558,2632.107Z" transform="translate(-805.853 -2608.439)" fill="#00aef0"/>
    <path id="Trazado_24369" data-name="Trazado 24369" d="M917.784,2631.815h-1.667a7.97,7.97,0,0,1,.541-2.906,7.551,7.551,0,0,1,1.485-2.388,6.962,6.962,0,0,1,2.224-1.626,6.537,6.537,0,0,1,2.747-.6v1.667a5.067,5.067,0,0,0-3.746,1.69A6.11,6.11,0,0,0,917.784,2631.815Z" transform="translate(-865.47 -2608.148)" fill="#00aef0"/>
    <path id="Trazado_24339" data-name="Trazado 24339" d="M826.695,2584.823v-1.667a5.153,5.153,0,0,0,4.886-5.373h1.667a7.456,7.456,0,0,1-.506,2.719,7.062,7.062,0,0,1-1.389,2.234,6.529,6.529,0,0,1-2.083,1.523A6.137,6.137,0,0,1,826.695,2584.823Z" transform="translate(-805.853 -2577.14)" fill="#00aef0"/>
    <path id="Trazado_24370" data-name="Trazado 24370" d="M924.142,2585.319a6.067,6.067,0,0,1-2.547-.558,6.461,6.461,0,0,1-2.061-1.507,7,7,0,0,1-1.375-2.211,7.373,7.373,0,0,1-.5-2.689h1.667a5.082,5.082,0,0,0,4.818,5.3Z" transform="translate(-866.496 -2577.521)" fill="#00aef0"/>
    <path id="Rectángulo_8120" data-name="Rectángulo 8120" d="M.945-2.5h31.58A3.449,3.449,0,0,1,35.97.945V17.7a3.449,3.449,0,0,1-3.445,3.445H.945A3.449,3.449,0,0,1-2.5,17.7V.945A3.449,3.449,0,0,1,.945-2.5Zm31.58,21.974A1.781,1.781,0,0,0,34.3,17.7V.945A1.781,1.781,0,0,0,32.525-.833H.945A1.781,1.781,0,0,0-.833.945V17.7A1.781,1.781,0,0,0,.945,19.474Z" transform="translate(22.508 2.5)" fill="#00aef0"/>
    <path id="Trazado_24340" data-name="Trazado 24340" d="M847.254,2621.334H879.12a2.469,2.469,0,0,0,2.469-2.469V2602.24a2.469,2.469,0,0,0-2.469-2.469H847.254a2.469,2.469,0,0,0-2.469,2.469v16.625a2.469,2.469,0,0,0,2.469,2.469" transform="translate(-817.914 -2591.799)" fill="#fff"/>
    <text id="S_2" data-name="S/" transform="translate(38.095 21.232)" fill="#00aef0" font-size="11" font-family="Omnes-Semibold, Omnes" font-weight="600"><tspan x="0" y="0">S/</tspan></text>
    <path id="Trazado_24341" data-name="Trazado 24341" d="M851.648,2654.1h-1.667a5.96,5.96,0,0,0-1.546-4.062,4.94,4.94,0,0,0-3.651-1.648v-1.667a6.416,6.416,0,0,1,2.695.59,6.84,6.84,0,0,1,2.182,1.595,7.407,7.407,0,0,1,1.456,2.342A7.813,7.813,0,0,1,851.648,2654.1Z" transform="translate(-817.914 -2623.099)" fill="#00aef0"/>
    <path id="Trazado_24371" data-name="Trazado 24371" d="M935.875,2653.8h-1.667a7.971,7.971,0,0,1,.541-2.906,7.554,7.554,0,0,1,1.485-2.388,6.972,6.972,0,0,1,2.225-1.626,6.538,6.538,0,0,1,2.747-.6v1.667a5.067,5.067,0,0,0-3.746,1.691A6.111,6.111,0,0,0,935.875,2653.8Z" transform="translate(-877.531 -2622.807)" fill="#00aef0"/>
    <path id="Trazado_24342" data-name="Trazado 24342" d="M844.785,2606.812v-1.667a5.153,5.153,0,0,0,4.886-5.373h1.667a7.453,7.453,0,0,1-.506,2.718,7.065,7.065,0,0,1-1.389,2.235,6.524,6.524,0,0,1-2.083,1.523A6.129,6.129,0,0,1,844.785,2606.812Z" transform="translate(-817.914 -2591.8)" fill="#00aef0"/>
    <path id="Trazado_24372" data-name="Trazado 24372" d="M942.233,2607.309a6.063,6.063,0,0,1-2.547-.558,6.464,6.464,0,0,1-2.061-1.507,7,7,0,0,1-1.375-2.211,7.375,7.375,0,0,1-.5-2.69h1.667a5.081,5.081,0,0,0,4.818,5.3Z" transform="translate(-878.558 -2592.181)" fill="#00aef0"/>
    <path id="Rectángulo_8121" data-name="Rectángulo 8121" d="M.945-2.5h31.58A3.449,3.449,0,0,1,35.97.945V17.7a3.449,3.449,0,0,1-3.445,3.445H.945A3.449,3.449,0,0,1-2.5,17.7V.945A3.449,3.449,0,0,1,.945-2.5Zm31.58,21.974A1.781,1.781,0,0,0,34.3,17.7V.945A1.781,1.781,0,0,0,32.525-.833H.945A1.781,1.781,0,0,0-.833.945V17.7A1.781,1.781,0,0,0,.945,19.474Z" transform="translate(28.538 9.829)" fill="#00aef0"/>
    <path id="Trazado_24343" data-name="Trazado 24343" d="M818.422,2602.626a3.385,3.385,0,0,1,3.16,3.79c-.24,3.566-.96,7.623-.96,7.623h7.28s1.84,1.321,1.84,2.845-3.669,3.612-3.914,3.727-7.4-1.4-7.4-1.4-2.12-3.642-2.04-4.184,2.04-12.4,2.04-12.4" transform="translate(-798.977 -2593.702)" fill="#fff"/>
    <path id="Trazado_24344" data-name="Trazado 24344" d="M865.879,2651.176h31.865a2.469,2.469,0,0,0,2.469-2.469v-16.625a2.469,2.469,0,0,0-2.469-2.469H865.879a2.469,2.469,0,0,0-2.469,2.469v16.625a2.469,2.469,0,0,0,2.469,2.469" transform="translate(-830.331 -2611.695)" fill="#fff"/>
    <text id="S_3" data-name="S/" transform="translate(44.303 30.7)" fill="#00aef0" font-size="11" font-family="Omnes-Semibold, Omnes" font-weight="600"><tspan x="0" y="0">S/</tspan></text>
    <path id="Trazado_24345" data-name="Trazado 24345" d="M870.273,2682.5h-1.667a5.962,5.962,0,0,0-1.545-4.062,4.94,4.94,0,0,0-3.651-1.648v-1.667a6.416,6.416,0,0,1,2.695.59,6.836,6.836,0,0,1,2.182,1.595,7.406,7.406,0,0,1,1.456,2.342A7.811,7.811,0,0,1,870.273,2682.5Z" transform="translate(-830.331 -2642.037)" fill="#00aef0"/>
    <path id="Trazado_24373" data-name="Trazado 24373" d="M954.5,2682.21h-1.667a7.969,7.969,0,0,1,.541-2.906,7.56,7.56,0,0,1,1.485-2.388,6.973,6.973,0,0,1,2.225-1.626,6.538,6.538,0,0,1,2.747-.6v1.667a5.068,5.068,0,0,0-3.746,1.69A6.113,6.113,0,0,0,954.5,2682.21Z" transform="translate(-889.948 -2641.745)" fill="#00aef0"/>
    <path id="Trazado_24346" data-name="Trazado 24346" d="M863.41,2635.217v-1.667a5.153,5.153,0,0,0,4.886-5.373h1.667a7.45,7.45,0,0,1-.507,2.718,7.071,7.071,0,0,1-1.389,2.235,6.534,6.534,0,0,1-2.083,1.522A6.132,6.132,0,0,1,863.41,2635.217Z" transform="translate(-830.331 -2610.737)" fill="#00aef0"/>
    <path id="Trazado_24374" data-name="Trazado 24374" d="M960.858,2635.715a6.066,6.066,0,0,1-2.547-.558,6.464,6.464,0,0,1-2.062-1.507,7,7,0,0,1-1.375-2.211,7.378,7.378,0,0,1-.5-2.69h1.667a5.082,5.082,0,0,0,4.818,5.3Z" transform="translate(-890.975 -2611.119)" fill="#00aef0"/>
    <path id="Rectángulo_8122" data-name="Rectángulo 8122" d="M.945-2.5h31.58A3.449,3.449,0,0,1,35.97.945V17.7a3.449,3.449,0,0,1-3.445,3.445H.945A3.449,3.449,0,0,1-2.5,17.7V.945A3.449,3.449,0,0,1,.945-2.5Zm31.58,21.974A1.781,1.781,0,0,0,34.3,17.7V.945A1.781,1.781,0,0,0,32.525-.833H.945A1.781,1.781,0,0,0-.833.945V17.7A1.781,1.781,0,0,0,.945,19.474Z" transform="translate(34.746 19.297)" fill="#00aef0"/>
    <path id="Trazado_24347" data-name="Trazado 24347" d="M837.385,2652.689s5.84-.146,6.52,3.007-4.694,3.6-4.694,3.6l-2.787-.611Z" transform="translate(-812.34 -2627.078)" fill="#fff"/>
    <path id="Trazado_24348" data-name="Trazado 24348" d="M806.174,2618.707a.478.478,0,0,1,0-.949,2.622,2.622,0,0,0,0-5.2h-6.592a.4.4,0,0,1-.331-.186.527.527,0,0,1-.072-.411,54.057,54.057,0,0,0,1-7.709,3.52,3.52,0,0,0-.753-2.479,2.7,2.7,0,0,0-2.113-1.052,3.037,3.037,0,0,0-2.857,2.912l-.189,1.943a12.443,12.443,0,0,1-1.737,5.589,9.4,9.4,0,0,1-3.025,3.018,9.662,9.662,0,0,1-4.132,1.435.44.44,0,0,1-.438-.448.456.456,0,0,1,.394-.5,9.085,9.085,0,0,0,3.8-1.337c2.544-1.6,3.993-4.238,4.3-7.854v-.005l.189-1.946a3.917,3.917,0,0,1,3.686-3.756,3.529,3.529,0,0,1,2.725,1.358,4.606,4.606,0,0,1,.972,3.2,59.757,59.757,0,0,1-.89,7.282h6.057a3.579,3.579,0,0,1,0,7.1" transform="translate(-778.009 -2591.799)" fill="#0054c8"/>
    <path id="Trazado_24349" data-name="Trazado 24349" d="M805.507,2618.373a.81.81,0,0,1,0-1.615,2.292,2.292,0,0,0,0-4.533h-6.592a.738.738,0,0,1-.607-.333.857.857,0,0,1-.12-.674,53.727,53.727,0,0,0,.988-7.657,3.188,3.188,0,0,0-.68-2.245,2.373,2.373,0,0,0-1.854-.929,2.706,2.706,0,0,0-2.526,2.611l-.189,1.941a12.769,12.769,0,0,1-1.787,5.736,9.738,9.738,0,0,1-3.131,3.124,10.034,10.034,0,0,1-4.288,1.485h-.043a.775.775,0,0,1-.748-.767.791.791,0,0,1,.707-.848,8.8,8.8,0,0,0,3.647-1.287c2.451-1.537,3.847-4.094,4.15-7.6v-.013l.189-1.942a4.248,4.248,0,0,1,4.018-4.057,3.859,3.859,0,0,1,2.984,1.481,4.94,4.94,0,0,1,1.046,3.43,63.2,63.2,0,0,1-.817,6.926h5.651a3.909,3.909,0,0,1,0,7.765Zm-8.864-18.653a3.027,3.027,0,0,1,2.372,1.175,3.853,3.853,0,0,1,.827,2.712,54.335,54.335,0,0,1-1,7.762.194.194,0,0,0,.024.149.075.075,0,0,0,.054.039h6.592a2.952,2.952,0,0,1,0,5.867c-.033,0-.084.056-.084.141s.05.141.084.141a3.249,3.249,0,0,0,0-6.432h-6.466l.083-.4a59.642,59.642,0,0,0,.884-7.238,4.27,4.27,0,0,0-.9-2.965,3.2,3.2,0,0,0-2.466-1.235,3.588,3.588,0,0,0-3.354,3.456l-.19,1.953c-.323,3.723-1.823,6.448-4.46,8.1a9.461,9.461,0,0,1-3.96,1.387c-.036,0-.086.064-.082.151s.051.131.082.131h0a9.289,9.289,0,0,0,3.977-1.385,9.083,9.083,0,0,0,2.919-2.912,12.114,12.114,0,0,0,1.688-5.441v0l.189-1.943A3.367,3.367,0,0,1,796.643,2599.72Z" transform="translate(-777.343 -2591.133)" fill="#0054c8"/>
    <path id="Trazado_24350" data-name="Trazado 24350" d="M846.843,2660.229h-1.7a.417.417,0,1,1,0-.833h1.7a2.24,2.24,0,0,0,0-4.48h-.556a.417.417,0,1,1,0-.833h.556a3.074,3.074,0,1,1,0,6.147" transform="translate(-817.872 -2628.007)" fill="#0054c8"/>
    <path id="Trazado_24351" data-name="Trazado 24351" d="M846.176,2659.9h-1.7a.75.75,0,1,1,0-1.5h1.7a1.907,1.907,0,0,0,0-3.813h-.556a.75.75,0,1,1,0-1.5h.556a3.407,3.407,0,1,1,0,6.814Zm-1.7-.834a.083.083,0,1,0,0,.167h1.7a2.74,2.74,0,0,0,0-5.481h-.556a.084.084,0,1,0,0,.167h.556a2.573,2.573,0,0,1,0,5.147Z" transform="translate(-817.206 -2627.34)" fill="#0054c8"/>
    <path id="Trazado_24352" data-name="Trazado 24352" d="M842.062,2676.116h-1.549a.417.417,0,1,1,0-.834h1.549a2.213,2.213,0,1,0,0-4.425h-.007a.417.417,0,1,1,0-.834h.007a3.047,3.047,0,1,1,0,6.093" transform="translate(-814.787 -2638.635)" fill="#0054c8"/>
    <path id="Trazado_24353" data-name="Trazado 24353" d="M841.4,2675.782h-1.549a.75.75,0,1,1,0-1.5H841.4a1.88,1.88,0,0,0,0-3.759h-.007a.75.75,0,1,1,0-1.5h.007a3.38,3.38,0,1,1,0,6.759Zm-1.549-.833a.083.083,0,1,0,0,.167H841.4a2.713,2.713,0,0,0,0-5.426h-.007a.083.083,0,1,0,0,.167h.007a2.546,2.546,0,0,1,0,5.092Z" transform="translate(-814.121 -2637.969)" fill="#0054c8"/>
    <path id="Trazado_24354" data-name="Trazado 24354" d="M803.61,2691.472h-5.933a10.364,10.364,0,0,1-3.43-.582l-9.039-3.162a.417.417,0,0,1,.276-.787l9.039,3.162a9.53,9.53,0,0,0,3.154.536h5.933a2,2,0,0,0,0-4,.417.417,0,1,1,0-.834,2.835,2.835,0,0,1,0,5.67" transform="translate(-778.008 -2649.155)" fill="#0054c8"/>
    <path id="Trazado_24355" data-name="Trazado 24355" d="M802.942,2691.138H797.01a10.7,10.7,0,0,1-3.54-.6l-9.039-3.162a.75.75,0,0,1,.5-1.417l9.039,3.162a9.2,9.2,0,0,0,3.044.517h5.933a1.668,1.668,0,0,0,0-3.336.75.75,0,1,1,0-1.5,3.168,3.168,0,0,1,0,6.336Zm-18.263-4.555a.084.084,0,0,0-.079.056.081.081,0,0,0,0,.064.083.083,0,0,0,.048.043l9.039,3.162a10.033,10.033,0,0,0,3.32.564h5.933a2.5,2.5,0,0,0,0-5,.084.084,0,1,0,0,.168,2.334,2.334,0,0,1,0,4.669H797.01a9.863,9.863,0,0,1-3.264-.554l-9.038-3.162A.075.075,0,0,0,784.679,2686.584Z" transform="translate(-777.341 -2648.488)" fill="#0054c8"/>
    <path id="Trazado_24356" data-name="Trazado 24356" d="M770.621,2641.55h-5.284c-.058,0-.114,0-.171.009v.842a1.124,1.124,0,0,1,.171-.017h5.284a1.134,1.134,0,0,1,1.133,1.133v14.458a1.134,1.134,0,0,1-1.133,1.133h-5.284a1.123,1.123,0,0,1-.171-.017v.842c.056.005.113.009.171.009h5.284a1.968,1.968,0,0,0,1.966-1.967v-14.458a1.969,1.969,0,0,0-1.966-1.967" transform="translate(-764.833 -2619.652)" fill="#0054c8"/>
    <path id="Trazado_24357" data-name="Trazado 24357" d="M764.67,2640.55h5.284a2.3,2.3,0,0,1,2.3,2.3v14.458a2.3,2.3,0,0,1-2.3,2.3H764.67c-.06,0-.124,0-.2-.01l-.3-.027v-1.533l.389.057a.838.838,0,0,0,.115.013h5.284a.8.8,0,0,0,.8-.8V2642.85a.8.8,0,0,0-.8-.8H764.67a.874.874,0,0,0-.112.012l-.392.059v-1.535l.3-.027C764.518,2640.556,764.592,2640.55,764.67,2640.55Zm5.284,18.391a1.635,1.635,0,0,0,1.633-1.633V2642.85a1.635,1.635,0,0,0-1.633-1.633h-5.122v.167h5.122a1.468,1.468,0,0,1,1.466,1.466v14.458a1.468,1.468,0,0,1-1.466,1.466h-5.122v.167Z" transform="translate(-764.166 -2618.986)" fill="#0054c8"/>
  </g>
</svg>
