<svg id="Grupo_25528" data-name="Grupo 25528" xmlns="http://www.w3.org/2000/svg" width="49.945" height="55.895" viewBox="0 0 49.945 55.895">
  <g id="Grupo_24400" data-name="Grupo 24400" transform="translate(0 0)">
    <text id="S_" data-name="S/" transform="translate(20.399 28.813)" fill="#00aef0" font-size="11" font-family="Omnes-Bold, Omnes" font-weight="700"><tspan x="0" y="0">S/</tspan></text>
    <path id="Trazado_24361" data-name="Trazado 24361" d="M1295.308,2618.9a3.514,3.514,0,0,0-1.586-.962,8.137,8.137,0,0,0-1.148-.206c-.133-.018-.271-.036-.409-.056a9.263,9.263,0,0,1-2.591-.741,5.3,5.3,0,0,1-2.19-1.805,4.623,4.623,0,0,1-.746-3.115l1.859.232a2.722,2.722,0,0,0,.44,1.835,3.458,3.458,0,0,0,1.435,1.159,7.4,7.4,0,0,0,2.065.583c.125.018.25.035.383.052a9.667,9.667,0,0,1,1.416.261,5.389,5.389,0,0,1,2.432,1.475Z" transform="translate(-1259.679 -2599.145)" fill="#00aef0"/>
    <path id="Trazado_24362" data-name="Trazado 24362" d="M1251.165,2590.792l-6.574-7.373.325-.582c1.156-2.071,3.271-3.172,6.117-3.183h.044a13.387,13.387,0,0,1,3.2.413,9.767,9.767,0,0,1,2.756-1.83,6.874,6.874,0,0,1,2.963-.563,8.072,8.072,0,0,1,5.008,2.208,11.509,11.509,0,0,1,4.173-.592,10.506,10.506,0,0,1,3.64.846,10,10,0,0,1,3.156,2.1l.538.578-6.042,7.928-1.49-1.135,5.034-6.606a8.961,8.961,0,0,0-2.008-1.17,8.644,8.644,0,0,0-2.971-.668,9.893,9.893,0,0,0-3.943.679l-.618.234-.423-.5a6.692,6.692,0,0,0-1.193-1.008,5.622,5.622,0,0,0-2.948-1.022c-.054,0-.108,0-.161,0a6.541,6.541,0,0,0-4.548,2.235l-.408.407-.548-.181a11.457,11.457,0,0,0-3.168-.475H1251a6.423,6.423,0,0,0-2.522.479,3.938,3.938,0,0,0-1.564,1.2l5.652,6.34Z" transform="translate(-1233.406 -2577.668)" fill="#00aef0"/>
    <path id="Trazado_24363" data-name="Trazado 24363" d="M1264.034,2616.483h-.2l.02-1.873h.179a16.624,16.624,0,0,0,3.533-.379,5.5,5.5,0,0,0,1.854-.682,6.755,6.755,0,0,0,1.9-2.447l1.635.913a8.465,8.465,0,0,1-2.5,3.1,7.189,7.189,0,0,1-2.49.951A18.5,18.5,0,0,1,1264.034,2616.483Z" transform="translate(-1245.44 -2598.576)" fill="#00aef0"/>
    <path id="Trazado_24364" data-name="Trazado 24364" d="M1244.164,2636.081q-.2,0-.4-.013a4.077,4.077,0,0,1-2.506-.95c-1.018-.9-1.447-2.333-1.273-4.266v-.007l1.808-18.706a5.648,5.648,0,0,1,5.676-4.905h.1l.221.05a45.133,45.133,0,0,0,9.877,1.1h.059a45.136,45.136,0,0,0,9.935-1.122l.1-.023h.105a5.822,5.822,0,0,1,3.761,1.368,5.477,5.477,0,0,1,1.905,3.458l2.129,16.008-1.857.247-2.129-16.009a3.606,3.606,0,0,0-1.259-2.275,3.94,3.94,0,0,0-2.452-.923,47.013,47.013,0,0,1-10.239,1.144h-.062a47,47,0,0,1-10.289-1.141l-.013,0a3.771,3.771,0,0,0-3.716,3.241l-1.8,18.673a3.126,3.126,0,0,0,.646,2.691c.338.3,1.18.738,3.021.335l.4,1.83A8.252,8.252,0,0,1,1244.164,2636.081Z" transform="translate(-1230.501 -2596.158)" fill="#00aef0"/>
    <path id="Trazado_24365" data-name="Trazado 24365" d="M1234.879,2699.476l-1.372-1.275,1.069-1.151a2.076,2.076,0,0,0-.091-2.9l-8.975-8.627a2.078,2.078,0,0,0-2.849-.027l-6.638,6.276-1.287-1.361,6.647-6.285a3.952,3.952,0,0,1,5.425.047l8.976,8.627a3.95,3.95,0,0,1,.17,5.522l0,0Z" transform="translate(-1214.735 -2643.581)" fill="#0054c8"/>
    <path id="Trazado_24366" data-name="Trazado 24366" d="M1269.4,2678.349h-3.575v-1.873h3.575a1.71,1.71,0,0,0,0-3.42h-14.363a7.477,7.477,0,0,0-4.077,1.207l-6.071,3.936-1.019-1.572,6.071-3.936a9.343,9.343,0,0,1,5.1-1.508H1269.4a3.583,3.583,0,1,1,0,7.166Z" transform="translate(-1232.952 -2636.148)" fill="#0054c8"/>
    <path id="Trazado_24367" data-name="Trazado 24367" d="M1268.714,2679.294l-1.4-1.24,2.15-2.433h10.77a9.445,9.445,0,0,0,6.642-2.73l8.207-8.118a2.043,2.043,0,0,0-1.437-3.495h0a2.027,2.027,0,0,0-1.457.615l-4.808,4.92-1.34-1.309,4.808-4.92a3.887,3.887,0,0,1,2.794-1.179h.007a3.916,3.916,0,0,1,2.754,6.7l-8.207,8.118a11.315,11.315,0,0,1-7.96,3.272h-9.925Z" transform="translate(-1247.614 -2628.782)" fill="#0054c8"/>
  </g>
</svg>
