<svg xmlns="http://www.w3.org/2000/svg" xmlns:xlink="http://www.w3.org/1999/xlink" width="422" height="215" viewBox="0 0 422 215"><defs><style>.a,.ah{fill:#fff;}.b,.h{fill:none;}.c{clip-path:url(#a);}.d{fill:#f1f4f9;}.e{fill:#e50914;}.f{fill:#0855c4;}.g{fill:#00adee;}.h{stroke:#00adee;stroke-linecap:round;stroke-linejoin:round;stroke-width:3.5px;}.i{fill:#fdb62f;}.j{fill:#a5caef;}.at,.k{fill:#d3e2f4;}.l{fill:#ffaf97;}.m{fill:#d54f1f;}.n{opacity:0.19;}.o{fill:#ff6700;}.p{fill:#ff409e;}.q{fill:#ef1485;}.r{fill:#031f59;}.s{fill:#fca73b;}.t{fill:#ffbe53;}.u{fill:#021333;}.v{fill:#ffc5b4;}.w{fill:#fdc0ae;}.x{fill:#ffcdaa;}.y{fill:#0af;}.z{fill:#ffa17a;}.aa{fill:#ff9c5d;}.ab{fill:#00347e;}.ac{fill:#fffbf5;}.ad{fill:#00457f;}.ae{fill:#d75527;}.af{fill:#ed9232;}.ag{fill:#ffc75c;}.ai{fill:#f7ad83;}.aj{fill:#ff7434;}.ak{fill:#ffc422;}.al{fill:#0061bc;}.am{fill:#002168;}.an{clip-path:url(#b);}.ao{fill:#ffb65e;}.ap{opacity:0.38;}.aq{fill:#d98a32;}.ar{fill:#fbfffb;}.as{fill:#00418b;}.at{stroke:#a5caef;stroke-miterlimit:10;}.au{clip-path:url(#c);}.av{clip-path:url(#d);}.aw{fill:#162457;}.ax{clip-path:url(#e);}.ay{clip-path:url(#f);}.az{fill:#1e3760;}.ba{clip-path:url(#g);}.bb{clip-path:url(#i);}.bc{fill:#3a5bbb;}.bd{clip-path:url(#k);}.be{fill:#0075dc;}.bf{fill:#1c5cc1;}.bg{fill:#0098ff;}.bh{fill:#134aa3;}.bi{fill:#132787;}</style><clipPath id="a"><rect class="a" width="422" height="215" rx="7" transform="translate(13827.231 1966.392)"/></clipPath><clipPath id="b"><path class="b" d="M2422.624,1643.018l-3.2,7.693,4.422.938.274-8.494Z" transform="translate(-2419.42 -1643.018)"/></clipPath><clipPath id="c"><path class="b" d="M2465.946,1595.281c.688,1.215-2.059.865-2.388,2.222-.134.421,3.227,5.356,3.627,6.475a7.686,7.686,0,0,1,.486,2.976,7.015,7.015,0,0,0,.032,1.832,1.5,1.5,0,0,0,1.188,1.243,2.015,2.015,0,0,1,1.335-1.952,4.757,4.757,0,0,1,4,.71c-.47-2.648-1.226-6.454.457-8.541a6.244,6.244,0,0,0,1.564-2.388c.384-1.693-1.954-4.031-3.028-4.731-2.046-1.649-5.523-1.989-5.866-1.635-1.2,1.048.176,3.794-1.354,4.242" transform="translate(-2463.553 -1591.365)"/></clipPath><clipPath id="d"><rect class="b" width="1487.579" height="1590.882" transform="translate(0 129.446) rotate(-4.992)"/></clipPath><clipPath id="e"><path class="b" d="M2399.358,1596l.1,13.008s-3.152-3.442-4.607-4.037-.315-6.047-.315-6.047l2.721-2.851.674-.708Z" transform="translate(-2394.116 -1595.365)"/></clipPath><clipPath id="f"><rect class="b" width="1551.22" height="1566.96" transform="matrix(0.999, -0.052, 0.052, 0.999, 0, 80.794)"/></clipPath><clipPath id="g"><path class="b" d="M2420.745,1586.075a20.817,20.817,0,0,1-9.676,3.412c-4.633.2-9-1.972-13.156-4.045a6.879,6.879,0,0,0-2.143-.774,2.333,2.333,0,0,0-2.079.7,2.753,2.753,0,0,0-.519,1.652,7.317,7.317,0,0,0,3.705,6.65c-.023.675.07,1.424.046,2.1a7.324,7.324,0,0,1-1.918-.87,10.517,10.517,0,0,1-3.872-4.2,13.683,13.683,0,0,1-.908-8.75,33.719,33.719,0,0,1,3.176-8.367,5.108,5.108,0,0,1,1-1.5,3.627,3.627,0,0,1,3.582-.5,15.057,15.057,0,0,1,3.278,1.893,6.807,6.807,0,0,0,3.489,1.351,7.531,7.531,0,0,0,1.923-.288q1.88-.47,3.727-1.033a11.343,11.343,0,0,1,2.414-.57,7.134,7.134,0,0,1,4.533,1.36,21.252,21.252,0,0,1,3.529,3.239l2.537,2.708a1.153,1.153,0,0,1,.394.7,1.171,1.171,0,0,1-.243.635l-3.224,4.983" transform="translate(-2389.905 -1571.331)"/></clipPath><clipPath id="i"><path class="b" d="M2422.246,1596.065c-3.2.924-6.326,2.066-9.7,1.708a22.759,22.759,0,0,1-8.388-3.032c-2.729-1.478-6.418-3.965-9-.871-.17.209.147.474.315.265,2.555-3.1,6.314-.187,8.933,1.178a28.278,28.278,0,0,0,5.479,2.308c4.443,1.268,8.248.051,12.534-1.189.258-.071.115-.463-.144-.386Z" transform="translate(-2395.108 -1592.39)"/></clipPath><clipPath id="k"><path class="b" d="M2429.679,1588.748c-3.456-2.723-7.31-1.57-11.3-1.579-3.047-.021-4.858-1.734-7.372-3.091a9.763,9.763,0,0,0-6.228-1.045c-.262.023-.225.449.036.411,3.212-.446,5.432.662,8.042,2.3a10.653,10.653,0,0,0,3.8,1.716c4.429.79,8.772-1.528,12.762,1.612.206.16.477-.156.263-.319" transform="translate(-2404.598 -1582.903)"/></clipPath></defs><g class="c" transform="translate(-13827.231 -1966.392)"><g transform="translate(13805.995 1954.237)"><rect class="d" width="579" height="323" transform="translate(0.236 0.155)"/><g transform="translate(32.312 28.626)"><g transform="translate(19.857 42.708)"><path class="e" d="M1897.486,1497.881h-10.831c-.021,14.727-.042,24.265-.062,38.991-4.654-14.371-9.311-23.885-13.982-38.991h-10.4v69.037c3.511-.5,7.27-.979,10.784-1.437.01-14.429.02-23.3.03-37.729,4.836,14.2,7.809,22.581,12.631,36.078,3.78-.431,7.933-.963,11.716-1.347q.056-32.3.113-64.6" transform="translate(-1862.212 -1497.881)"/><path class="e" d="M1975.561,1497.881h-30q-.06,31.847-.122,63.693,15.054-1.37,30.137-2.238c.005-3.1.011-7.567.016-10.67-6.538.4-12.792.82-19.307,1.258.011-5.708.023-10.428.034-16.136,4.761-.082,9.791-.01,14.655-.093.005-3.12.011-7.6.017-10.719-4.82.086-9.91.1-14.652.186.011-5.708.022-8.84.034-14.548,2.983-.036,5.907-.041,8.826-.041h3.067c2.434,0,4.879,0,7.365-.024.006-3.1-.073-7.564-.068-10.668" transform="translate(-1899.836 -1497.881)"/><path class="e" d="M2046.642,1497.969h-33.407c-.005,3.084-.01,7.526-.015,10.61.479,0,.958,0,1.438,0,1.451,0,2.9.014,4.354.028s2.9.029,4.351.029l1.115,0c-.022,17.116-.044,32.749-.067,49.865,3.534-.132,7.317-.242,10.852-.332.017-17.022.032-32.562.048-49.584,3.735-.014,7.593-.025,11.327-.033,0-3.032,0-7.545,0-10.577" transform="translate(-1930.478 -1497.921)"/><path class="e" d="M2117.162,1497.881h-30.125q0,29.977-.009,59.951c1.164,0,2.342-.006,3.525-.006,2.409,0,4.836.009,7.208.027,0-8.481,0-16.22-.008-24.7q.887,0,1.79,0c1.4,0,2.824-.006,4.253-.012s2.865-.011,4.287-.011c1.466,0,2.919.006,4.339.026,0-3.041-.005-7.563-.008-10.6-1.341-.014-2.712-.018-4.1-.018-1.483,0-2.98,0-4.473.01s-2.974.01-4.432.01q-.838,0-1.664,0c0-5.452,0-8.529,0-13.981l3.523,0h7.141c2.91,0,5.823,0,8.761.017,0-3.048-.006-7.661-.009-10.709" transform="translate(-1963.844 -1497.881)"/><path class="e" d="M2154.816,1497.97c.027,20.177-.07,40.353-.044,60.53,9.632.359,19.753.748,29.372,1.412-.005-3.1-.011-7.567-.018-10.67-6.088-.358-12.427-.787-18.52-1.041-.027-17.279.068-32.951.041-50.23h-10.831" transform="translate(-1994.467 -1497.921)"/><path class="e" d="M2224.6,1497.973q.062,31.3.123,62.6c3.529.272,7.18.565,10.706.878q.018-31.716,0-63.475H2224.6" transform="translate(-2026.037 -1497.923)"/><path class="e" d="M2260.4,1497.975c4.332,10.551,8.293,21.13,12.691,32.334-4.571,10.762-9.224,21.453-13.79,31.777,3.782.373,7.7.919,11.475,1.34,2.711-6.649,5.178-11.767,7.892-18.6,2.709,7.274,5.172,12.893,7.875,20.4,3.773.489,8.665,1.192,12.433,1.728-4.567-12.211-9.563-24.926-14.157-36.467,4.575-10.839,9.242-21.185,13.993-32.516h-11.826c-2.933,7-4.95,11.5-7.76,18.171-2.619-6.937-4.375-11.425-7-18.172H2260.4" transform="translate(-2041.726 -1497.924)"/></g><g transform="translate(32.458 14.757)"><path class="f" d="M1889.717,1459.8v-9.666a1.4,1.4,0,0,1,1.483-1.579h3.234c3.293,0,5.122,1.464,5.122,4.217,0,2.772-1.771,4.2-5.1,4.2h-1.886v2.831a1.147,1.147,0,0,1-1.251,1.29h-.4C1890.141,1461.092,1889.717,1460.649,1889.717,1459.8Zm7.066-7.009c0-1.328-.827-2.022-2.407-2.022h-1.848v4.063h1.867C1895.956,1454.834,1896.783,1454.122,1896.783,1452.793Z" transform="translate(-1889.717 -1447.633)"/><path class="f" d="M1914.49,1453.758a4.939,4.939,0,1,1-5.025,4.91A4.73,4.73,0,0,1,1914.49,1453.758Zm-.019,2.118a2.82,2.82,0,1,0,2.6,2.831A2.619,2.619,0,0,0,1914.471,1455.876Z" transform="translate(-1898.644 -1449.984)"/><path class="f" d="M1937.248,1455.337a1.4,1.4,0,0,1-.867,1.425,1.88,1.88,0,0,0-1.232-.462c-1.309,0-1.887,1.155-1.887,3.042v2.811c0,.982-.5,1.29-1.194,1.29h-.289c-.732,0-1.232-.289-1.232-1.29v-7.971c0-.1.462-.308,1.02-.308a1.5,1.5,0,0,1,1.483,1.02,4.27,4.27,0,0,1,.135.655,2.347,2.347,0,0,1,2.33-1.791A1.542,1.542,0,0,1,1937.248,1455.337Z" transform="translate(-1908.175 -1449.984)"/><path class="f" d="M1950.436,1459.039v-11.86a1.5,1.5,0,0,1,1.02-.309c.809,0,1.695.424,1.695,2.176v9.993c0,.982-.5,1.29-1.194,1.29h-.289C1950.956,1460.329,1950.436,1460.041,1950.436,1459.039Z" transform="translate(-1917.166 -1446.87)"/><path class="f" d="M1964.4,1457.764h.308a1.14,1.14,0,0,0-.02-.27,1.661,1.661,0,0,0-1.906-1.695,2.355,2.355,0,0,0-2.311,1.367c-.019.038-1.752.173-1.752-1.078a1.718,1.718,0,0,1,.578-1.232,5.063,5.063,0,0,1,3.658-1.1c2.985,0,4.428,1.367,4.428,3.89v5.545c0,.135-.5.308-1.02.308a1.4,1.4,0,0,1-1.425-.9,3.89,3.89,0,0,1-.155-.636,3.753,3.753,0,0,1-3.253,1.617c-1.964,0-3.157-1.078-3.157-2.7C1958.378,1458.784,1960.419,1457.821,1964.4,1457.764Zm.308,1.366h-.52c-2.137.077-3.273.482-3.273,1.54,0,.713.558,1.156,1.463,1.156a2.119,2.119,0,0,0,2.33-2.022Z" transform="translate(-1920.757 -1449.984)"/><path class="f" d="M1988.376,1453.758a4.759,4.759,0,0,1,3.081.944,2.265,2.265,0,0,1,.924,1.617c0,1.1-1.463,1.31-1.521,1.194a2.315,2.315,0,0,0-2.369-1.56,2.752,2.752,0,0,0,0,5.488,2.35,2.35,0,0,0,2.369-1.56c.058-.116,1.521.039,1.521,1.213a2.171,2.171,0,0,1-.944,1.579,4.67,4.67,0,0,1-3.061.962,4.939,4.939,0,0,1,0-9.878Z" transform="translate(-1932.098 -1449.984)"/><path class="f" d="M2006.552,1453.758a4.939,4.939,0,1,1-5.025,4.91A4.73,4.73,0,0,1,2006.552,1453.758Zm-.019,2.118a2.82,2.82,0,1,0,2.6,2.831A2.618,2.618,0,0,0,2006.533,1455.876Z" transform="translate(-1940.263 -1449.984)"/><path class="f" d="M2037.705,1457.494v4.659c0,.982-.5,1.29-1.193,1.29h-.289c-.732,0-1.233-.289-1.233-1.29v-4.236c0-1.232-.538-1.886-1.636-1.886a2.188,2.188,0,0,0-1.848,1.155v4.968c0,.982-.5,1.29-1.194,1.29h-.289c-.713,0-1.232-.289-1.232-1.29v-4.178c0-1.29-.539-1.944-1.617-1.944a2.188,2.188,0,0,0-1.848,1.155v4.968c0,.982-.5,1.29-1.194,1.29h-.289c-.732,0-1.232-.289-1.232-1.29v-7.971c0-.1.481-.308,1.02-.308.674,0,1.406.288,1.617,1.54a3.376,3.376,0,0,1,2.908-1.656,2.971,2.971,0,0,1,3,1.926,3.51,3.51,0,0,1,3.158-1.926C2036.7,1453.758,2037.705,1455.28,2037.705,1457.494Z" transform="translate(-1949.794 -1449.984)"/><path class="f" d="M2063.777,1458.668c0,2.927-1.771,4.968-4.351,4.968a3.325,3.325,0,0,1-3-1.713v3.889c0,.982-.5,1.31-1.193,1.31h-.289c-.731,0-1.232-.309-1.232-1.31v-11.63c0-.1.482-.308,1.04-.308a1.518,1.518,0,0,1,1.559,1.31c.02.077.039.269.058.423a3.293,3.293,0,0,1,3.081-1.848C2061.986,1453.758,2063.777,1455.665,2063.777,1458.668Zm-2.6.019a2.477,2.477,0,0,0-4.756-1.213v1.771a2.23,2.23,0,0,0,2.33,2.215A2.471,2.471,0,0,0,2061.177,1458.688Z" transform="translate(-1963.851 -1449.984)"/><path class="f" d="M2081.63,1455.337a1.4,1.4,0,0,1-.867,1.425,1.88,1.88,0,0,0-1.232-.462c-1.309,0-1.886,1.155-1.886,3.042v2.811c0,.982-.5,1.29-1.194,1.29h-.289c-.732,0-1.232-.289-1.232-1.29v-7.971c0-.1.462-.308,1.02-.308a1.5,1.5,0,0,1,1.483,1.02,4.3,4.3,0,0,1,.135.655,2.347,2.347,0,0,1,2.33-1.791A1.542,1.542,0,0,1,2081.63,1455.337Z" transform="translate(-1973.446 -1449.984)"/><path class="f" d="M2094.24,1457.764h.308a1.153,1.153,0,0,0-.02-.27,1.661,1.661,0,0,0-1.906-1.695,2.354,2.354,0,0,0-2.31,1.367c-.019.038-1.752.173-1.752-1.078a1.717,1.717,0,0,1,.578-1.232,5.062,5.062,0,0,1,3.658-1.1c2.985,0,4.428,1.367,4.428,3.89v5.545c0,.135-.5.308-1.02.308a1.4,1.4,0,0,1-1.425-.9,3.921,3.921,0,0,1-.154-.636,3.754,3.754,0,0,1-3.254,1.617c-1.963,0-3.157-1.078-3.157-2.7C2088.213,1458.784,2090.254,1457.821,2094.24,1457.764Zm.308,1.366h-.52c-2.137.077-3.273.482-3.273,1.54,0,.713.558,1.156,1.463,1.156a2.119,2.119,0,0,0,2.33-2.022Z" transform="translate(-1979.451 -1449.984)"/><path class="f" d="M2113.3,1455.573c0-2.985,1.771-4.929,4.371-4.929a3.523,3.523,0,0,1,2.965,1.425v-4.891a1.5,1.5,0,0,1,1.02-.309c.809,0,1.694.424,1.694,2.176v9.993c0,.982-.481,1.29-1.194,1.29h-.269c-.617,0-1.079-.212-1.175-.943-.02-.211-.039-.424-.039-.655a3.41,3.41,0,0,1-3.062,1.791C2115.072,1460.522,2113.3,1458.519,2113.3,1455.573Zm7.355-1.252a2.385,2.385,0,0,0-2.33-1.5,2.448,2.448,0,0,0-2.446,2.753,2.5,2.5,0,0,0,2.408,2.773,2.259,2.259,0,0,0,2.368-2.254Z" transform="translate(-1990.792 -1446.87)"/><path class="f" d="M2139.4,1453.758a4.472,4.472,0,0,1,4.678,4.7v.174c-.019.462-.154.712-.655.712h-6.508l.058.308a2.608,2.608,0,0,0,2.7,2.022,2.8,2.8,0,0,0,2.638-1.368c.019-.038,1.329.077,1.329,1.156a1.835,1.835,0,0,1-1.04,1.463,5.753,5.753,0,0,1-3,.712c-3.061,0-5.063-1.906-5.063-4.89A4.775,4.775,0,0,1,2139.4,1453.758Zm-.019,1.867a2.431,2.431,0,0,0-2.427,2.234h4.622A2.134,2.134,0,0,0,2139.377,1455.625Z" transform="translate(-2000.387 -1449.984)"/><path class="f" d="M2160.227,1458.511V1454.2h-.481c-.77,0-1.117-.347-1.117-.963v-.154c0-.636.347-1,1.1-1h.5v-1.194c0-.886.443-1.309,1.213-1.309h.25c.713,0,1.194.307,1.194,1.309v1.194h1.637c.77,0,1.1.327,1.1.944v.173c0,.654-.347,1-1.117,1h-1.656v4.005c0,.924.289,1.386,1.04,1.386a1.378,1.378,0,0,0,1.174-.635,1.066,1.066,0,0,1,.674,1.058,1.375,1.375,0,0,1-.462,1.04,2.806,2.806,0,0,1-2.021.693C2161.19,1461.746,2160.227,1460.649,2160.227,1458.511Z" transform="translate(-2011.283 -1448.094)"/><path class="f" d="M2182.732,1455.279v7.952c0,.1-.481.309-1.02.309a1.506,1.506,0,0,1-1.521-1.02,3.112,3.112,0,0,1-.1-.521,3.548,3.548,0,0,1-3.1,1.714c-2.446,0-3.466-1.714-3.466-3.889v-4.544c0-.982.5-1.31,1.174-1.31h.308c.712,0,1.213.308,1.213,1.31v4.139c0,1.271.655,2.022,1.772,2.022a2.284,2.284,0,0,0,2.041-1.232v-4.929c0-.982.482-1.31,1.175-1.31h.289C2182.231,1453.969,2182.732,1454.277,2182.732,1455.279Z" transform="translate(-2018.019 -1450.079)"/><path class="f" d="M2198.9,1461.518a1.194,1.194,0,0,1,.827-1.078,4.11,4.11,0,0,0,3.1,1.271c1.059,0,1.636-.365,1.636-.963,0-.732-.75-.866-2-1.136-1.291-.27-3.293-.693-3.293-2.812,0-1.829,1.483-3.042,3.909-3.042,1.906,0,3.081.52,3.562,1.252a1.387,1.387,0,0,1,.231.77,1.348,1.348,0,0,1-.866,1.136,3.731,3.731,0,0,0-2.753-1.271c-1.039,0-1.6.385-1.6.981,0,.674.732.809,2,1.1,1.329.289,3.447.712,3.447,2.83,0,1.888-1.5,3.023-4.14,3.023a6.179,6.179,0,0,1-3.235-.713A1.636,1.636,0,0,1,2198.9,1461.518Z" transform="translate(-2029.487 -1449.984)"/><path class="f" d="M2220.741,1453.758a4.473,4.473,0,0,1,4.679,4.7v.174c-.019.462-.154.712-.655.712h-6.508l.057.308a2.609,2.609,0,0,0,2.7,2.022,2.8,2.8,0,0,0,2.638-1.368c.019-.038,1.328.077,1.328,1.156a1.836,1.836,0,0,1-1.039,1.463,5.753,5.753,0,0,1-3,.712c-3.061,0-5.064-1.906-5.064-4.89A4.776,4.776,0,0,1,2220.741,1453.758Zm-.02,1.867a2.43,2.43,0,0,0-2.426,2.234h4.621A2.134,2.134,0,0,0,2220.721,1455.625Z" transform="translate(-2037.16 -1449.984)"/><path class="f" d="M2234.1,1463.785c0-1.328,1.232-2.233,2.927-2.484a1.188,1.188,0,0,1-.347-.866,1.318,1.318,0,0,1,.654-1.079,3.209,3.209,0,0,1-2.58-3.1c0-2.021,1.791-3.562,4.274-3.562a4.854,4.854,0,0,1,2,.443l.423-.79a1.456,1.456,0,0,1,1.348-.943,1.475,1.475,0,0,1,1.329,1.136l-1.618,1.6a3.078,3.078,0,0,1,.829,2.079c0,1.945-1.6,3.292-4.044,3.35-.135,0-.25.019-.385.019a.353.353,0,0,0,.135.308c.135.462.943.52,2.253.866,1.329.347,2.715,1.059,2.715,2.638,0,1.81-1.848,2.965-5.064,2.965C2235.607,1466.365,2234.1,1465.517,2234.1,1463.785Zm7.375-.116c0-.616-.674-.866-1.56-1.1-.27-.057-.558-.135-.867-.192-1.386.1-2.445.578-2.445,1.386,0,.712.809,1.116,2.407,1.116S2241.479,1464.439,2241.479,1463.669Zm-.616-7.451a1.82,1.82,0,0,0-3.639,0,1.82,1.82,0,0,0,3.639,0Z" transform="translate(-2045.404 -1448.92)"/><path class="f" d="M2263.126,1455.279v7.952c0,.1-.482.309-1.02.309a1.507,1.507,0,0,1-1.522-1.02,3.241,3.241,0,0,1-.1-.521,3.548,3.548,0,0,1-3.1,1.714c-2.446,0-3.466-1.714-3.466-3.889v-4.544c0-.982.5-1.31,1.175-1.31h.308c.712,0,1.213.308,1.213,1.31v4.139c0,1.271.655,2.022,1.771,2.022a2.284,2.284,0,0,0,2.041-1.232v-4.929c0-.982.482-1.31,1.175-1.31h.289C2262.625,1453.969,2263.126,1454.277,2263.126,1455.279Z" transform="translate(-2054.362 -1450.079)"/><path class="f" d="M2281.144,1455.337a1.4,1.4,0,0,1-.867,1.425,1.881,1.881,0,0,0-1.232-.462c-1.309,0-1.887,1.155-1.887,3.042v2.811c0,.982-.5,1.29-1.194,1.29h-.289c-.732,0-1.232-.289-1.232-1.29v-7.971c0-.1.462-.308,1.02-.308a1.5,1.5,0,0,1,1.482,1.02,4.354,4.354,0,0,1,.135.655,2.347,2.347,0,0,1,2.33-1.791A1.542,1.542,0,0,1,2281.144,1455.337Z" transform="translate(-2063.64 -1449.984)"/><path class="f" d="M2292.048,1453.758a4.939,4.939,0,1,1-5.025,4.91A4.73,4.73,0,0,1,2292.048,1453.758Zm-.019,2.118a2.82,2.82,0,1,0,2.6,2.831A2.619,2.619,0,0,0,2292.029,1455.876Z" transform="translate(-2069.326 -1449.984)"/></g><g transform="translate(48.044 115.19)"><g transform="translate(0 1.133)"><path class="f" d="M1906.569,1653.333a4.875,4.875,0,0,1-2.481-3.785c0-2.83,3.282-2.906,3.321-2.677.8,2.562,3.092,3.939,6.107,3.939,2.977,0,4.847-1.339,4.847-3.518,0-2.256-1.489-3.4-4.39-3.4h-1.3c-1.87,0-2.6-.688-2.6-1.912v-.306c0-1.338.84-1.912,2.519-1.912h1.832c2.29,0,3.512-1.109,3.512-2.906,0-1.912-1.679-3.1-4.5-3.1a5.426,5.426,0,0,0-5.5,3.557c-.038.229-3.244.115-3.244-2.639a4.56,4.56,0,0,1,2.4-3.594,11.869,11.869,0,0,1,6.45-1.683c6.222,0,9.7,2.447,9.7,6.806,0,2.6-1.488,4.321-4.313,5.162,3.092,1.032,4.809,3.25,4.809,6.271,0,4.78-3.7,7.571-10.191,7.571A12.25,12.25,0,0,1,1906.569,1653.333Z" transform="translate(-1904.087 -1629.397)"/></g><g transform="translate(25.881)"><path class="f" d="M334.158,1257.971v7.369c0,1.553-.792,2.04-1.888,2.04h-.456c-1.157,0-1.949-.457-1.949-2.04v-6.7c0-1.949-.853-2.985-2.588-2.985a3.46,3.46,0,0,0-2.924,1.827v7.857c0,1.553-.792,2.04-1.888,2.04h-.457c-1.127,0-1.948-.457-1.948-2.04v-6.608c0-2.04-.853-3.076-2.558-3.076a3.46,3.46,0,0,0-2.924,1.827v7.857c0,1.553-.792,2.04-1.888,2.04h-.457c-1.156,0-1.949-.457-1.949-2.04v-12.607c0-.153.762-.488,1.614-.488,1.066,0,2.223.457,2.558,2.436a5.336,5.336,0,0,1,4.6-2.619,4.7,4.7,0,0,1,4.75,3.044,5.551,5.551,0,0,1,4.994-3.044C332.575,1252.063,334.158,1254.468,334.158,1257.971Z" transform="translate(-310.284 -1245.607)"/><path class="f" d="M370.1,1252.063a7.073,7.073,0,0,1,7.4,7.43v.274c-.03.731-.244,1.127-1.035,1.127H366.173l.091.487a4.125,4.125,0,0,0,4.263,3.2,4.43,4.43,0,0,0,4.172-2.162c.031-.061,2.1.122,2.1,1.827a2.9,2.9,0,0,1-1.644,2.315,9.1,9.1,0,0,1-4.75,1.126c-4.842,0-8.009-3.015-8.009-7.735A7.552,7.552,0,0,1,370.1,1252.063Zm-.031,2.953a3.843,3.843,0,0,0-3.837,3.532h7.308A3.374,3.374,0,0,0,370.071,1255.017Z" transform="translate(-336.207 -1245.607)"/><path class="f" d="M395.3,1264.335a1.89,1.89,0,0,1,1.309-1.706,6.5,6.5,0,0,0,4.9,2.01c1.675,0,2.589-.578,2.589-1.522,0-1.158-1.188-1.371-3.167-1.8-2.04-.427-5.207-1.1-5.207-4.446,0-2.893,2.344-4.811,6.181-4.811,3.015,0,4.873.822,5.634,1.979a2.2,2.2,0,0,1,.365,1.218,2.132,2.132,0,0,1-1.37,1.8,5.9,5.9,0,0,0-4.354-2.01c-1.644,0-2.527.609-2.527,1.553,0,1.065,1.157,1.279,3.167,1.735,2.1.457,5.45,1.127,5.45,4.477,0,2.984-2.375,4.781-6.547,4.781a9.782,9.782,0,0,1-5.116-1.127A2.592,2.592,0,0,1,395.3,1264.335Z" transform="translate(-352.574 -1245.607)"/><path class="f" d="M432.272,1252.063a7.073,7.073,0,0,1,7.4,7.43v.274c-.03.731-.244,1.127-1.035,1.127H428.344l.091.487a4.125,4.125,0,0,0,4.263,3.2,4.43,4.43,0,0,0,4.172-2.162c.031-.061,2.1.122,2.1,1.827a2.9,2.9,0,0,1-1.644,2.315,9.1,9.1,0,0,1-4.75,1.126c-4.842,0-8.009-3.015-8.009-7.735A7.552,7.552,0,0,1,432.272,1252.063Zm-.031,2.953a3.843,3.843,0,0,0-3.837,3.532h7.308A3.374,3.374,0,0,0,432.242,1255.017Z" transform="translate(-367.134 -1245.607)"/><path class="f" d="M457.47,1264.335a1.89,1.89,0,0,1,1.309-1.706,6.5,6.5,0,0,0,4.9,2.01c1.674,0,2.589-.578,2.589-1.522,0-1.158-1.188-1.371-3.167-1.8-2.04-.427-5.207-1.1-5.207-4.446,0-2.893,2.344-4.811,6.181-4.811,3.015,0,4.873.822,5.634,1.979a2.2,2.2,0,0,1,.365,1.218,2.132,2.132,0,0,1-1.37,1.8,5.9,5.9,0,0,0-4.354-2.01c-1.644,0-2.527.609-2.527,1.553,0,1.065,1.157,1.279,3.167,1.735,2.1.457,5.45,1.127,5.45,4.477,0,2.984-2.375,4.781-6.547,4.781a9.78,9.78,0,0,1-5.116-1.127A2.592,2.592,0,0,1,457.47,1264.335Z" transform="translate(-383.5 -1245.607)"/><path class="f" d="M495.161,1267.583c0-2.1,1.949-3.532,4.629-3.928a1.88,1.88,0,0,1-.548-1.371,2.081,2.081,0,0,1,1.036-1.7c-2.558-.731-4.081-2.558-4.081-4.9,0-3.2,2.832-5.633,6.76-5.633a7.669,7.669,0,0,1,3.167.7l.67-1.249a2.3,2.3,0,0,1,2.131-1.493,2.334,2.334,0,0,1,2.1,1.8l-2.558,2.528a4.868,4.868,0,0,1,1.309,3.289c0,3.076-2.527,5.207-6.394,5.3-.214,0-.4.03-.609.03a.556.556,0,0,0,.213.488c.213.731,1.492.822,3.562,1.371,2.1.548,4.294,1.675,4.294,4.172,0,2.863-2.923,4.689-8.008,4.689C497.537,1271.663,495.161,1270.323,495.161,1267.583Zm11.663-.183c0-.974-1.066-1.37-2.466-1.735-.427-.091-.883-.213-1.37-.3-2.193.152-3.868.914-3.868,2.193,0,1.126,1.279,1.766,3.806,1.766S506.824,1268.618,506.824,1267.4Zm-.974-11.784a2.878,2.878,0,0,0-5.755,0,2.878,2.878,0,0,0,5.755,0Z" transform="translate(-402.249 -1243.587)"/><path class="f" d="M540.235,1254.56a2.222,2.222,0,0,1-1.37,2.253,2.973,2.973,0,0,0-1.949-.731c-2.071,0-2.984,1.827-2.984,4.811v4.446c0,1.553-.792,2.04-1.888,2.04h-.457c-1.157,0-1.949-.457-1.949-2.04v-12.607c0-.153.731-.488,1.614-.488a2.374,2.374,0,0,1,2.345,1.614,6.874,6.874,0,0,1,.213,1.036,3.71,3.71,0,0,1,3.685-2.832A2.438,2.438,0,0,1,540.235,1254.56Z" transform="translate(-419.4 -1245.607)"/><path class="f" d="M562.076,1258.4h.487a1.857,1.857,0,0,0-.031-.426c-.061-1.736-1.127-2.68-3.015-2.68a3.722,3.722,0,0,0-3.654,2.161c-.031.061-2.771.274-2.771-1.705a2.718,2.718,0,0,1,.914-1.949c1-1.035,2.923-1.735,5.786-1.735,4.721,0,7,2.162,7,6.151v8.77c0,.213-.792.487-1.614.487a2.218,2.218,0,0,1-2.254-1.431,6.116,6.116,0,0,1-.243-1,5.94,5.94,0,0,1-5.146,2.558c-3.106,0-4.994-1.705-4.994-4.263C552.544,1260.011,555.772,1258.488,562.076,1258.4Zm.487,2.163h-.823c-3.38.121-5.177.761-5.177,2.436,0,1.127.883,1.827,2.315,1.827,2.131,0,3.654-1.31,3.685-3.2Z" transform="translate(-430.794 -1245.607)"/><path class="f" d="M586.582,1258.982v-6.821h-.761c-1.218,0-1.766-.548-1.766-1.522v-.244c0-1.005.548-1.583,1.735-1.583h.792v-1.888c0-1.4.7-2.07,1.919-2.07h.4c1.127,0,1.888.488,1.888,2.07v1.888h2.589c1.218,0,1.736.518,1.736,1.492v.274c0,1.035-.548,1.583-1.767,1.583h-2.619v6.334c0,1.462.457,2.193,1.644,2.193a2.179,2.179,0,0,0,1.857-1,1.687,1.687,0,0,1,1.066,1.675,2.174,2.174,0,0,1-.731,1.644,4.44,4.44,0,0,1-3.2,1.1C588.1,1264.1,586.582,1262.362,586.582,1258.982Z" transform="translate(-446.469 -1242.02)"/><path class="f" d="M612.758,1239.217a2.23,2.23,0,1,1-2.406,2.223A2.148,2.148,0,0,1,612.758,1239.217Zm-2.162,8.709c0-1.553.822-2.071,1.918-2.071h.457c1.127,0,1.918.488,1.918,2.071v11.023c0,1.553-.792,2.04-1.918,2.04h-.426c-1.157,0-1.949-.457-1.949-2.04Z" transform="translate(-459.55 -1239.217)"/><path class="f" d="M624.046,1264.335a1.889,1.889,0,0,1,1.31-1.706,6.5,6.5,0,0,0,4.9,2.01c1.675,0,2.589-.578,2.589-1.522,0-1.158-1.188-1.371-3.167-1.8-2.04-.427-5.207-1.1-5.207-4.446,0-2.893,2.344-4.811,6.181-4.811,3.015,0,4.873.822,5.634,1.979a2.2,2.2,0,0,1,.365,1.218,2.131,2.131,0,0,1-1.37,1.8,5.9,5.9,0,0,0-4.354-2.01c-1.644,0-2.527.609-2.527,1.553,0,1.065,1.157,1.279,3.167,1.735,2.1.457,5.451,1.127,5.451,4.477,0,2.984-2.375,4.781-6.547,4.781a9.778,9.778,0,0,1-5.115-1.127A2.591,2.591,0,0,1,624.046,1264.335Z" transform="translate(-466.362 -1245.607)"/></g></g><g transform="translate(104 163.275)"><path class="g" d="M2100.24,1728.289a.822.822,0,0,1-.7-.4l-5.042-8.328h-72.152l-5.041,8.328a.822.822,0,1,1-1.406-.85l5.281-8.724a.823.823,0,0,1,.7-.4h73.079a.822.822,0,0,1,.7.4l5.281,8.724a.821.821,0,0,1-.278,1.128A.811.811,0,0,1,2100.24,1728.289Z" transform="translate(-2015.777 -1717.921)"/></g><g transform="translate(169.555 152.917)"><path class="g" d="M2136.24,1709.421a.822.822,0,0,1-.822-.822v-8.76a.822.822,0,0,1,1.644,0v8.76A.822.822,0,0,1,2136.24,1709.421Z" transform="translate(-2135.418 -1699.017)"/></g><g transform="translate(122.085 152.917)"><path class="g" d="M2049.6,1709.421a.822.822,0,0,1-.822-.822v-8.76a.822.822,0,1,1,1.644,0v8.76A.822.822,0,0,1,2049.6,1709.421Z" transform="translate(-2048.782 -1699.017)"/></g><g transform="translate(18.407 123.133)"><path class="g" d="M2069.808,1675.139h-205.7a4.548,4.548,0,0,1-4.543-4.543v-25.114a.822.822,0,1,1,1.644,0V1670.6a2.9,2.9,0,0,0,2.9,2.9h205.7a.822.822,0,0,1,0,1.644Z" transform="translate(-1859.565 -1644.66)"/></g><g transform="translate(18.407 0)"><path class="g" d="M1860.387,1448.858a.822.822,0,0,1-.822-.822V1424.48a4.548,4.548,0,0,1,4.543-4.543h246.618a4.549,4.549,0,0,1,4.543,4.543l.108,10.26a.822.822,0,1,1-1.644,0l-.108-10.26a2.9,2.9,0,0,0-2.9-2.9H1864.108a2.9,2.9,0,0,0-2.9,2.9v23.556A.822.822,0,0,1,1860.387,1448.858Z" transform="translate(-1859.565 -1419.937)"/></g><line class="h" y1="8.454" transform="translate(273.288 27.226)"/><path class="i" d="M2327.664,1433.873h0a21.013,21.013,0,0,0-17.3-17.3h0a21.013,21.013,0,0,0,17.3-17.3h0a21.014,21.014,0,0,0,17.3,17.3h0A21.014,21.014,0,0,0,2327.664,1433.873Z" transform="translate(-2040.928 -1397.314)"/><path class="i" d="M1829.165,1481.6h0a15.89,15.89,0,0,0-13.079-13.078h0a15.891,15.891,0,0,0,13.079-13.079h0a15.89,15.89,0,0,0,13.079,13.079h0A15.89,15.89,0,0,0,1829.165,1481.6Z" transform="translate(-1816.086 -1431.966)"/><g transform="translate(213.762 58.428)"><g transform="translate(124.891 84.225)"><g transform="translate(0.338 0.339)"><rect class="j" width="106.18" height="71.729" rx="10.612"/></g><path class="j" d="M2614.167,1855.745h-86.935a9.972,9.972,0,0,1-9.961-9.961V1793.3a9.972,9.972,0,0,1,9.961-9.961h86.935a9.972,9.972,0,0,1,9.961,9.961v52.485A9.971,9.971,0,0,1,2614.167,1855.745Zm-86.935-71.729a9.293,9.293,0,0,0-9.283,9.283v52.485a9.293,9.293,0,0,0,9.283,9.284h86.935a9.293,9.293,0,0,0,9.283-9.283V1793.3a9.293,9.293,0,0,0-9.283-9.283Z" transform="translate(-2517.27 -1783.338)"/></g><g transform="translate(24.898 84.225)"><g transform="translate(0.338 0.339)"><rect class="j" width="99.993" height="71.729" rx="10.612"/></g><path class="j" d="M2350.254,1855.745H2269.5a9.971,9.971,0,0,1-9.96-9.961V1793.3a9.972,9.972,0,0,1,9.96-9.961h80.749a9.973,9.973,0,0,1,9.961,9.961v52.485A9.973,9.973,0,0,1,2350.254,1855.745Zm-80.749-71.729a9.293,9.293,0,0,0-9.282,9.283v52.485a9.293,9.293,0,0,0,9.282,9.283h80.749a9.294,9.294,0,0,0,9.284-9.283V1793.3a9.294,9.294,0,0,0-9.284-9.283Z" transform="translate(-2259.545 -1783.338)"/></g><g transform="translate(24.898 93.847)"><g transform="translate(0.338 0.339)"><path class="k" d="M2350.787,1809.012h-80.748c-5.314,0-9.623,3.983-9.623,8.894v44.322c0,4.911,4.309,8.894,9.623,8.894h80.748c5.314,0,9.623-3.983,9.623-8.894V1817.9C2360.41,1812.994,2356.1,1809.012,2350.787,1809.012Z" transform="translate(-2260.416 -1809.012)"/></g><path class="k" d="M2350.254,1870.924H2269.5c-5.491,0-9.96-4.14-9.96-9.231V1817.37c0-5.09,4.468-9.231,9.96-9.231h80.749c5.49,0,9.961,4.14,9.961,9.231v44.323C2360.215,1866.784,2355.746,1870.924,2350.254,1870.924Zm-80.749-62.107c-5.118,0-9.282,3.837-9.282,8.553v44.323c0,4.718,4.164,8.553,9.282,8.553h80.749c5.119,0,9.284-3.837,9.284-8.553V1817.37c0-4.716-4.165-8.553-9.284-8.553Z" transform="translate(-2259.545 -1808.139)"/></g><g transform="translate(124.891 93.847)"><g transform="translate(0.339 0.339)"><path class="k" d="M2614.7,1809.012h-86.933c-5.315,0-9.622,3.983-9.622,8.894v44.322c0,4.911,4.308,8.894,9.622,8.894H2614.7c5.314,0,9.622-3.983,9.622-8.894V1817.9C2624.323,1812.994,2620.015,1809.012,2614.7,1809.012Z" transform="translate(-2518.143 -1809.012)"/></g><path class="k" d="M2614.167,1870.924h-86.935c-5.491,0-9.961-4.14-9.961-9.231V1817.37c0-5.09,4.468-9.231,9.961-9.231h86.935c5.491,0,9.961,4.14,9.961,9.231v44.323C2624.127,1866.784,2619.658,1870.924,2614.167,1870.924Zm-86.935-62.107c-5.12,0-9.283,3.837-9.283,8.553v44.323c0,4.718,4.164,8.553,9.283,8.553h86.935c5.119,0,9.283-3.837,9.283-8.553V1817.37c0-4.716-4.163-8.553-9.283-8.553Z" transform="translate(-2517.27 -1808.139)"/></g><g transform="translate(25.234 117.294)"><path class="b" d="M2270.035,1907.572h80.749a9.623,9.623,0,0,0,9.623-9.622c-47.893,3.425-70.47-8.383-100-29.378v29.378a9.622,9.622,0,0,0,9.622,9.622Z" transform="translate(-2260.411 -1868.572)"/></g><g transform="translate(125.228 117.294)"><path class="b" d="M2527.764,1907.572H2614.7a9.621,9.621,0,0,0,9.622-9.621h0c-47.893,3.425-76.657-8.383-106.179-29.378v29.378a9.622,9.622,0,0,0,9.621,9.622Z" transform="translate(-2518.14 -1868.572)"/></g><g transform="translate(10.137 129.493)"><g transform="translate(0.339 0.34)"><path class="j" d="M2259.918,1925.168a11.948,11.948,0,0,0,.943-4.667v-7.618a11.991,11.991,0,0,0-11.991-11.991h-14.507a11.991,11.991,0,0,0-11.991,11.991v7.618a11.986,11.986,0,0,0,.472,3.342" transform="translate(-2222.373 -1900.891)"/></g><path class="j" d="M2259.7,1924.762l-.624-.263a11.6,11.6,0,0,0,.915-4.535v-7.62a11.665,11.665,0,0,0-11.651-11.652h-14.508a11.665,11.665,0,0,0-11.652,11.652v7.62a11.65,11.65,0,0,0,.459,3.248l-.652.188a12.34,12.34,0,0,1-.485-3.437v-7.62a12.344,12.344,0,0,1,12.33-12.329h14.508a12.343,12.343,0,0,1,12.327,12.329v7.62A12.26,12.26,0,0,1,2259.7,1924.762Z" transform="translate(-2221.499 -1900.015)"/></g><g transform="translate(10.136 134.249)"><g transform="translate(0.34 0.339)"><path class="k" d="M2260.408,1932.261a12,12,0,0,0,.452-3.272v-3.852a11.991,11.991,0,0,0-11.99-11.991h-14.506a11.991,11.991,0,0,0-11.991,11.991v3.852a11.994,11.994,0,0,0,.472,3.342" transform="translate(-2222.373 -1913.146)"/></g><path class="k" d="M2221.982,1931.891a12.343,12.343,0,0,1-.485-3.436V1924.6a12.344,12.344,0,0,1,12.33-12.33h14.508a12.343,12.343,0,0,1,12.327,12.33v3.851a12.319,12.319,0,0,1-.464,3.364l-.651-.185a11.687,11.687,0,0,0,.438-3.18V1924.6a11.665,11.665,0,0,0-11.65-11.653h-14.508a11.665,11.665,0,0,0-11.651,11.653v3.851a11.657,11.657,0,0,0,.459,3.248Z" transform="translate(-2221.497 -1912.273)"/></g><g transform="translate(189.193 39.796)"><path class="l" d="M2691.335,1669.48c8.677,15.378,15.738,27.106,24.413,42.482.239.478-1.556.657-1.914,1.075a14.856,14.856,0,0,1-2.214,1.794c-1.856.242-.341,1.976-2.214,2.214-1.079.119-.6,1.365-1.676,1.137a12.049,12.049,0,0,1-3.589-1.854c-4.249-2.872-9.335-5.027-12.026-9.453a26.485,26.485,0,0,1-2.511-6.64c-1.315-4.61-2.815-9.1-4.548-13.525-1.255-3.17-2.634-6.578-1.795-9.871.6-2.454,2.334-4.435,4.009-6.341A5.24,5.24,0,0,1,2689,1669a1.8,1.8,0,0,1,2.095.359c.12.119.181.358,0,.419-.119.119-.239-.239-.058-.18" transform="translate(-2683.004 -1668.827)"/></g><g transform="translate(189.071 39.675)"><path class="m" d="M2707.788,1718.142a1.169,1.169,0,0,1-.273-.035,9.877,9.877,0,0,1-3.1-1.529l-.529-.341c-1.051-.71-2.173-1.389-3.258-2.05-3.323-2.01-6.762-4.094-8.8-7.448a23.508,23.508,0,0,1-2.344-6.032l-.184-.638c-1.365-4.76-2.846-9.182-4.545-13.511l-.038-.109c-1.276-3.217-2.591-6.544-1.757-9.836.6-2.467,2.337-4.436,4.012-6.363l.023-.028a5.254,5.254,0,0,1,1.771-1.522,1.93,1.93,0,0,1,2.238.389.535.535,0,0,1,.123.208l.127-.071c4.339,7.691,8.341,14.583,12.211,21.246s7.847,13.549,12.2,21.236a.3.3,0,0,1,0,.253c-.1.246-.532.387-1.023.549a2.568,2.568,0,0,0-.915.409,14.4,14.4,0,0,1-2.281,1.835c-.85.109-.925.526-1.022,1.024a1.219,1.219,0,0,1-1.208,1.2.848.848,0,0,0-.73.6C2708.368,1717.845,2708.22,1718.142,2707.788,1718.142Zm-18.111-49.385a2.157,2.157,0,0,0-.818.163,5.063,5.063,0,0,0-1.706,1.461l-.028.03c-1.658,1.9-3.371,3.853-3.957,6.265-.82,3.218.485,6.511,1.747,9.694l.04.108c1.706,4.336,3.191,8.762,4.552,13.533l.184.638a23.251,23.251,0,0,0,2.317,5.975c2.011,3.306,5.424,5.37,8.724,7.367,1.089.657,2.211,1.337,3.266,2.047l.529.342a9.813,9.813,0,0,0,3.022,1.5c.468.1.57-.1.724-.409a1.076,1.076,0,0,1,.911-.73c.839-.109.918-.528,1-1.024a1.209,1.209,0,0,1,1.211-1.2,16.551,16.551,0,0,0,2.143-1.76,2.541,2.541,0,0,1,1.023-.474c.368-.119.826-.271.884-.413a.048.048,0,0,0,0-.054c-4.333-7.68-8.332-14.566-12.2-21.226s-7.82-13.464-12.124-21.1a.272.272,0,0,1-.164.191.18.18,0,0,1-.221,0,.28.28,0,0,1-.089-.321.174.174,0,0,1,.194-.085.191.191,0,0,0-.031-.034,1.42,1.42,0,0,0-1.14-.48Zm1.2.569-.067.193h0a.073.073,0,0,0,.04-.017h0a.065.065,0,0,0-.04,0l.047-.027h0a.038.038,0,0,0,.025-.028.218.218,0,0,0,0-.133Z" transform="translate(-2682.692 -1668.515)"/></g><g class="n" transform="translate(183.078 42.219)"><path class="o" d="M2673.854,1676.772c4.248,4.606,4.548,11.669,7.66,17.172,2.99,5.145,8.314,8.615,11.489,13.649a31.3,31.3,0,0,1,3.35,8.137c.238,1.024.417,2.214-.3,2.992a3.4,3.4,0,0,1-2.05.6l-7.24.362a2.692,2.692,0,0,1-1.2-.119c-.778-.3-1.137-1.14-1.495-1.856a222.91,222.91,0,0,0-13.989-26.746c-1.495-2.388-3.05-5.027-2.811-7.849.239-2.389,1.737-4.436,3.231-6.281a4.194,4.194,0,0,1,2.214-1.737c.958-.181,2.047.84,1.614,1.676" transform="translate(-2667.246 -1675.072)"/></g><g transform="translate(123.999 50.122)"><path class="l" d="M2519.235,1695.75c-4.729,20.368-6.027,40.1-1.3,46.383.778,1.075.021-3.948,1.157-3.232.362.239,2.388,3.292,2.873,3.23,1.437-.239,3.531-1.436,3.89-2.873.9-3.351,3.289-2.454,4.485-5.684a11.249,11.249,0,0,0,.419-2.931c.341-8.376,2.693-16.453,5.027-24.471.181-.72-.477-1.617-.657-2.334a3.909,3.909,0,0,0-2.153-1.976c-1.676-.836-4.609-4.485-6.523-4.844-1.853-.3-5.658-2.342-7.214-1.268" transform="translate(-2514.973 -1695.441)"/></g><g transform="translate(175.324 29.5)"><path class="p" d="M2670.179,1654.135s-4.49-11.188-21.779-11.847l-1.139,7.121,6.883,4.778Z" transform="translate(-2647.26 -1642.288)"/></g><g transform="translate(127.966 28.334)"><path class="p" d="M2591.121,1649.542a3.991,3.991,0,0,1-2.388-2.272c-.18-.358-.18-.778-.342-1.2a4.171,4.171,0,0,0-1.675-1.853c-3.292-2.157-7.6-2.049-11.307-3.35a23.443,23.443,0,0,0-4.37-1.5,12.65,12.65,0,0,0-4.486.362c-5.981,1.194-11.966,2.331-17.951,3.529-4.186.838-8.5,1.675-12.085,4.07-.717.478-1.365.9-2.047,1.315a15.515,15.515,0,0,0-2.932,2.156,11.826,11.826,0,0,0-2.275,2.573,26.18,26.18,0,0,0-4.068,8.314,7.392,7.392,0,0,1,5.981,1.617c2.692,2.334,5.088,6.1,7.361,8.257l.119.058c1.675,1.024,6.823,1.794,6.942,3.77.3,4.309-4.189,9.213-2.047,12.965a22.047,22.047,0,0,0,3.951-2.333c1.316-.778,3.05-1.257,4.367-.417.541.341.956.9,1.614,1.075,1.2.362,2.215-.836,2.873-1.915,3.948-5.862,9.336-11.007,16.037-13.163,2.573-.836,5.323-1.194,7.957-1.972a28.611,28.611,0,0,0,6.52-2.815c.72-.416-.177.42.362-.239,0,0-.182-.239.477-.539,2.389-1.194,4.907-11.727,7.779-13.7C2594.278,1649.784,2593.851,1650.62,2591.121,1649.542Z" transform="translate(-2525.197 -1639.282)"/></g><g transform="translate(187.877 39.797)"><path class="q" d="M2687.288,1668.883c-4.49,3.112-3.055,10.41-7.6,13.221-.177.119,0,.42.243.3,4.606-2.874,3.17-10.114,7.6-13.224C2687.7,1669,2687.465,1668.7,2687.288,1668.883Z" transform="translate(-2679.614 -1668.827)"/></g><g transform="translate(174.783 39.552)"><path class="q" d="M2650.6,1668.2h-1.256l-3.476,5.384s5.5,8.318,7,10.711a15.267,15.267,0,0,0,2.214,2.573,27.564,27.564,0,0,0,5.566-2.511c.18-.119.239-.119.3-.119,0-.062.058-.062.058-.119,0,0-.177-.239.478-.542.958-.477,1.917-2.388,2.872-4.667C2660.41,1669.215,2650.6,1668.2,2650.6,1668.2Z" transform="translate(-2645.864 -1668.198)"/></g><g transform="translate(135.481)"><path class="r" d="M2575.466,1598.771s-3.658,12.837-8.343,13.668c0,0,17.094,4.743,25.371-6.28,0,0,.266-17.672-7.561-29.518-3.818-5.78-9.686-9.83-16.594-10.318-4.28-.3-9.506.274-13.607,3.666,0,0-14.558,10.882-8.835,39.852l14.391.315,2.633-13.948Z" transform="translate(-2544.565 -1566.254)"/></g><g transform="translate(137.889 47.257)"><path class="q" d="M2556.388,1688.055l-2.312.679s-1.867,2.445-3.3,8.607a73,73,0,0,0,4.777,5.627l.239.238c.541.539-.539-.238,0,0,.182-1.675.362-14.132.6-15.152Z" transform="translate(-2550.772 -1688.055)"/></g><g transform="translate(129.395 47.937)"><path class="q" d="M2529.158,1690.4c4.548-1.614,8.615,4.253,10.352,7.421.12.181.419.058.341-.12-1.852-3.35-6.1-9.274-10.829-7.6a.164.164,0,1,0,.045.324h.009a.164.164,0,0,0,.065-.026Z" transform="translate(-2528.88 -1689.808)"/></g><g transform="translate(164.857 53.313)"><path class="s" d="M2620.281,1703.664l.341.362v-.119Z" transform="translate(-2620.281 -1703.664)"/></g><g transform="translate(150.808 32.632)"><path class="l" d="M2584.144,1660.437s-1.023,3.868,4.54,5.371l9.991,4.91,3.664-20.358Z" transform="translate(-2584.07 -1650.361)"/></g><g transform="translate(143.824 13.506)"><path class="r" d="M2566.407,1610.285s6.265-3.8,4.3-9.221l-4.148,1.072-.487,4.416Z" transform="translate(-2566.069 -1601.064)"/></g><g transform="translate(154.527 95.437)"><path class="t" d="M2593.931,1814.51c-.058-.778-.177-1.495-.239-2.272C2593.515,1813.074,2594.054,1815.469,2593.931,1814.51Z" transform="translate(-2593.656 -1812.238)"/></g><g transform="translate(156.119 93.222)"><path class="t" d="M2598.059,1808.8c-.062-.778-.181-1.494-.239-2.272C2597.582,1807.427,2598.118,1809.818,2598.059,1808.8Z" transform="translate(-2597.759 -1806.529)"/></g><g transform="translate(145.789 43.316)"><path class="r" d="M2619.4,1717.874a37.72,37.72,0,0,0-1.315-23.454c-4.187-10.291-13.164-16.276-21.422-16.514-8.434-.239-17.946,5.459-22.555,16.094a38.877,38.877,0,0,0-2.049,23.394C2581.583,1720.985,2600.551,1725.949,2619.4,1717.874Z" transform="translate(-2571.134 -1677.899)"/></g><g transform="translate(155.391 61.75)"><path class="u" d="M2625.869,1729.96s5.387,5.46,3.951,22.976l-33.029.178s-3.17-20.762,2.334-27.7Z" transform="translate(-2595.883 -1725.411)"/></g><g transform="translate(160.063 84.83)"><path class="v" d="M2608.412,1795.136c7.957,2.931,15.854,5.8,23.812,8.735a33.238,33.238,0,0,0,7.479,2.095,34.474,34.474,0,0,0,10.17-.72,6.266,6.266,0,0,0,2.333-.716c1.5-.9,1.975-2.754,2.388-4.436.6-2.388,1.137-4.845,1.733-7.24a3.68,3.68,0,0,0,.119-1.976,3.483,3.483,0,0,0-.836-1.315,14.786,14.786,0,0,0-15.616-3.831c-2.454.9-4.726,2.453-7.3,2.388a20.147,20.147,0,0,1-3.412-.541c-3.23-.539-6.52.119-9.693.716a31.24,31.24,0,0,0-6.639,1.856,10.267,10.267,0,0,0-5.027,4.486" transform="translate(-2607.925 -1784.898)"/></g><g transform="translate(139.432 71.837)"><path class="w" d="M2557.318,1766.884c-2.454,1.1-2.992,4.224-2.277,6.639a4.242,4.242,0,0,0,1.079,1.877,5.047,5.047,0,0,0,1.794.99c5.622,2.084,12.026.657,17.531-1.593s10.771-5.212,16.695-6.364q1.635-.281,3.231-.714a15.747,15.747,0,0,0,3.47-1.812c3.412-2.25,6.64-4.881,10.529-6.364a20.627,20.627,0,0,1,9.632-1.208,13.736,13.736,0,0,0-2.33-5.98,2.3,2.3,0,0,0-.6-.66,2.253,2.253,0,0,0-1.2-.273c-3.289-.166-6.457,1.208-9.212,2.907-2.754,1.646-5.326,3.624-8.318,4.884-4.187,1.812-8.974,2.031-13.58,2.416-9.394.71-18.909,1.975-27.582,5.432" transform="translate(-2554.749 -1751.41)"/></g><g transform="translate(139.016 71.721)"><path class="m" d="M2562.959,1777.432a17.215,17.215,0,0,1-6.029-1.022,5.15,5.15,0,0,1-1.838-1.013,4.394,4.394,0,0,1-1.121-1.941c-.729-2.458-.155-5.678,2.35-6.8l.093.207c-2.387,1.067-2.928,4.161-2.225,6.53a4.162,4.162,0,0,0,1.056,1.838,4.961,4.961,0,0,0,1.756.964c4.747,1.757,10.645,1.218,17.538-1.6,1.547-.632,3.1-1.331,4.6-2.008a56.207,56.207,0,0,1,12.192-4.389c1.087-.185,2.175-.425,3.239-.714a15.684,15.684,0,0,0,3.451-1.8c.826-.545,1.654-1.118,2.452-1.676a38.836,38.836,0,0,1,8.151-4.727,20.9,20.9,0,0,1,9.586-1.235,13.769,13.769,0,0,0-2.3-5.81,2.2,2.2,0,0,0-.577-.638,2.131,2.131,0,0,0-1.13-.249c-2.788-.14-5.808.808-9.2,2.9-.863.516-1.723,1.073-2.556,1.612a37.938,37.938,0,0,1-5.817,3.3c-3.81,1.646-8.131,1.99-12.309,2.323q-.687.054-1.369.112c-8.551.646-18.527,1.8-27.682,5.445l-.083-.211c9.183-3.657,19.179-4.812,27.747-5.46.454-.039.912-.074,1.37-.111,4.16-.331,8.462-.674,12.238-2.3a37.832,37.832,0,0,0,5.784-3.281c.833-.542,1.7-1.1,2.561-1.615,3.434-2.117,6.477-3.068,9.319-2.935a1.883,1.883,0,0,1,1.9.992,13.984,13.984,0,0,1,2.358,6.045l.019.143-.144-.016a20.635,20.635,0,0,0-9.625,1.207,38.52,38.52,0,0,0-8.1,4.7c-.8.557-1.631,1.131-2.457,1.676a15.917,15.917,0,0,1-3.507,1.83c-1.08.294-2.175.535-3.267.721a55.985,55.985,0,0,0-12.139,4.372c-1.5.678-3.062,1.378-4.611,2.011A31.187,31.187,0,0,1,2562.959,1777.432Z" transform="translate(-2553.678 -1751.11)"/></g><g transform="translate(154.382 64.623)"><ellipse class="w" cx="2.095" cy="2.931" rx="2.095" ry="2.931"/></g><g transform="translate(182.146 64.623)"><ellipse class="x" cx="2.095" cy="2.931" rx="2.095" ry="2.931"/></g><g transform="translate(156.945 50.621)"><path class="w" d="M2627.184,1696.726h-27.3v21.422a10.041,10.041,0,0,0,2.388,6.462h0a11.343,11.343,0,0,0,8.735,3.948h5.029a11.341,11.341,0,0,0,8.735-3.948h0a10.04,10.04,0,0,0,2.388-6.462Z" transform="translate(-2599.888 -1696.726)"/></g><g transform="translate(153.844 45.681)"><path class="r" d="M2595.01,1702.937s1.969-4.971,9.028-9.816c0,0,1.381-4.066,7.424-2.391l4.07,5.8,1.915.3,9.932,12.863-.239-14.671-2.815-5.746s-3.59-2.331-4.488-2.331-7.121-2.934-7.121-2.934-5.8.119-6.162,0-5.265.481-6.462.6a17.706,17.706,0,0,0-3.948,1.436s-2.931,4.367-3.709,3.412c-.362-.478-.541,5.088-.541,5.623S2595.01,1702.937,2595.01,1702.937Z" transform="translate(-2591.896 -1683.995)"/></g><g transform="translate(162.529 49.427)"><path class="r" d="M2614.454,1698.255s-1.272,6.94,3.1,10.888l8.212-.239a11.439,11.439,0,0,1-2.095-4.845s1.364,3.528,3.948,4.845h2.633a24.427,24.427,0,0,1-2.046-3.948,16.627,16.627,0,0,0,4.067,3.948h4.067l-1.024-7.537-4.306-3.47-4.907-3.474-5.146-.773-3.752,2.047Z" transform="translate(-2614.281 -1693.65)"/></g><g transform="translate(148.724 47.353)"><path class="y" d="M2584.959,1692.135l-2.905-3.531a.867.867,0,0,0-1.455.232l-1.845,5.3a.853.853,0,0,0,1.044,1.118l4.669-1.39,3.129,3.412a.86.86,0,0,0,1.213.078h0a.866.866,0,0,0,.241-.354l1.811-4.784a.885.885,0,0,0-.969-1.183Z" transform="translate(-2578.699 -1688.304)"/></g><g transform="translate(153.736 50.634)"><path class="b" d="M2592.374,1699.762l-.256-.085a.691.691,0,0,1-.475-.855h0l.008-.025.5-1.534a.693.693,0,0,1,.856-.475l.025.008.256.084a.692.692,0,0,1,.47.858h0l-.007.022-.476,1.539A.844.844,0,0,1,2592.374,1699.762Z" transform="translate(-2591.616 -1696.76)"/></g><g transform="translate(169.641 71.381)"><path class="m" d="M2632.735,1751l-.123-.2.478-.3a1.456,1.456,0,0,1,1.75.065l.3.242-.146.184-.3-.239a1.23,1.23,0,0,0-1.47-.059Z" transform="translate(-2632.612 -1750.234)"/></g><g transform="translate(177.239 72.102)"><ellipse class="z" cx="2.453" cy="1.675" rx="2.453" ry="1.675"/></g><g transform="translate(159.77 72.102)"><ellipse class="aa" cx="2.453" cy="1.675" rx="2.453" ry="1.675"/></g><g transform="translate(170.535 74.17)"><path class="ab" d="M2636.478,1759.442a4.273,4.273,0,0,1-1.562-.293l.129-.29a3.441,3.441,0,0,0,4.347-1.437l.271.171A3.631,3.631,0,0,1,2636.478,1759.442Z" transform="translate(-2634.915 -1757.422)"/></g><g transform="translate(158.634 61.75)"><circle class="ac" cx="5.623" cy="5.623" r="5.623"/></g><g transform="translate(158.552 61.669)"><path class="ad" d="M2609.735,1736.611a5.7,5.7,0,1,1,5.706-5.7h0A5.709,5.709,0,0,1,2609.735,1736.611Zm0-11.259a5.548,5.548,0,1,0,5.544,5.551h0v-.008a5.55,5.55,0,0,0-5.544-5.534Z" transform="translate(-2604.031 -1725.202)"/></g><g transform="translate(171.616 61.75)"><circle class="ac" cx="5.623" cy="5.623" r="5.623"/></g><g transform="translate(171.534 61.669)"><path class="ad" d="M2643.2,1736.611a5.7,5.7,0,1,1,5.7-5.7h0A5.711,5.711,0,0,1,2643.2,1736.611Zm0-11.259a5.548,5.548,0,1,0,5.548,5.547h0v0a5.552,5.552,0,0,0-5.548-5.534Z" transform="translate(-2637.491 -1725.202)"/></g><g transform="translate(163.991 67.336)"><path class="ab" d="M2621.034,1741.2a1.44,1.44,0,0,0-1.4-1.075,1.389,1.389,0,0,0-1.29.918l-.293-.119a1.7,1.7,0,0,1,1.583-1.116,1.754,1.754,0,0,1,1.706,1.317Z" transform="translate(-2618.049 -1739.809)"/></g><g transform="translate(174.343 67.336)"><path class="ab" d="M2647.716,1741.2a1.439,1.439,0,0,0-1.4-1.075,1.388,1.388,0,0,0-1.291.918l-.292-.119a1.705,1.705,0,0,1,1.583-1.116,1.753,1.753,0,0,1,1.706,1.317Z" transform="translate(-2644.731 -1739.809)"/></g><g transform="translate(162.878 65.253)"><path class="ab" d="M2615.426,1735.7l-.246-.2a2.564,2.564,0,0,1,3.413-.7l-.126.29A2.241,2.241,0,0,0,2615.426,1735.7Z" transform="translate(-2615.18 -1734.441)"/></g><g transform="translate(174.722 65.193)"><path class="ab" d="M2648.948,1735.5a2.288,2.288,0,0,0-3.108-.5l-.133-.286a2.576,2.576,0,0,1,3.472.576Z" transform="translate(-2645.706 -1734.284)"/></g><g transform="translate(169.8 67.31)"><path class="ad" d="M2633.151,1740.274l-.13-.171a1.446,1.446,0,0,1,1.912,0l-.15.153A1.233,1.233,0,0,0,2633.151,1740.274Z" transform="translate(-2633.021 -1739.742)"/></g><g transform="translate(141.254 86.137)"><path class="o" d="M2559.915,1791.478c-.8-1.051-.342-3.122-.317-3.209l.229.051c0,.021-.457,2.049.279,3.013Z" transform="translate(-2559.445 -1788.268)"/></g><g transform="translate(139.584 86.804)"><path class="s" d="M2556.9,1791.816a2.048,2.048,0,0,1-1.488-.735,1.5,1.5,0,0,1-.255-1.095l.155.03a1.346,1.346,0,0,0,.229.973,1.889,1.889,0,0,0,1.365.682Z" transform="translate(-2555.141 -1789.986)"/></g><g class="n" transform="translate(130.15 87.538)"><path class="o" d="M2537.649,1801.631c1.136,0,2.629-2.153,2.629-2.153a6.309,6.309,0,0,1,1.737-6.581,1.027,1.027,0,0,0-.6-.178h.539a3.173,3.173,0,0,1-1.733-.839c-1.136,1.315-2.214,2.634-3.351,3.889a6.75,6.75,0,0,1-1.617,1.556c-.359.239-.778.419-1.137.657a5.03,5.03,0,0,0-.836.778c-.6.657-1.259,1.314-1.856,1.972a2.284,2.284,0,0,0-.538.78,1.926,1.926,0,0,0-.059.6l.178.058A13.143,13.143,0,0,1,2537.649,1801.631Z" transform="translate(-2530.825 -1791.879)"/></g><g transform="translate(198.397 73.361)"><path class="ae" d="M2710.5,1756.349l-3.77-.778.048-.232,3.77.778Z" transform="translate(-2706.728 -1755.338)"/></g><g transform="translate(198.002 103.95)"><path class="af" d="M2709.337,1835.353a8.153,8.153,0,0,1-3.627-.969l.123-.2c.034.021,3.439,1.975,6.093.184l.134.194A4.774,4.774,0,0,1,2709.337,1835.353Z" transform="translate(-2705.709 -1834.179)"/></g><g transform="translate(172.968 73.942)"><path class="l" d="M2690.156,1766.064s-1.365-5.385-12.925-5.985c0,0-6.342-.778-10.351-2.75,0,0-4.664-1.976-9.752,1.972l-7.24,6.165s-3.889,5.681-8.189,6.641c0,0-.6,2.513,2.63,1.736l-1.136,1.794a12.072,12.072,0,0,0-1.495,3.648l-.367,1.746a2.511,2.511,0,0,0,.122,1.976c.417.655,1.556.9,2.87-.539,0,0,.419,4.009,3.712.6l1.024-1.676-.42,2.273a2.156,2.156,0,0,0,.342,1.5c.478.6,1.315,1.023,2.692-.721l3.531-6.64-1.618,4.907s-1.733,2.153-.836,2.992c0,0,1.256,1.365,3.89-1.737l2.453-4.606s5.084-6.824,6.463-10.236l1.555-.3a13.75,13.75,0,0,0,6.043,3.228s3.351,1.259,3.589,3.112a16.875,16.875,0,0,0,7.07-4.254s5.436-2.685,7.049-2.974Z" transform="translate(-2641.188 -1756.835)"/></g><g transform="translate(172.851 73.845)"><path class="m" d="M2653.418,1785.957a1.3,1.3,0,0,1-.932-.341c-.925-.864.642-2.9.819-3.13l1.177-3.565-2.88,5.414q-1.024,1.3-1.87,1.3h0a1.306,1.306,0,0,1-1.024-.563,2.278,2.278,0,0,1-.387-1.583l.3-1.647-.682,1.121c-1.113,1.16-2.027,1.61-2.73,1.365-.781-.271-1.065-1.3-1.153-1.77a2.57,2.57,0,0,1-1.931.915,1.254,1.254,0,0,1-.963-.57,2.617,2.617,0,0,1-.133-2.071l.341-1.726a12.131,12.131,0,0,1,1.512-3.688l.982-1.556a2.311,2.311,0,0,1-2.129-.341,1.837,1.837,0,0,1-.365-1.6v-.072h.073c4.215-.934,8.086-6.537,8.124-6.592l.024-.023,7.24-6.162c5.084-3.952,9.827-2.014,9.875-1.993,3.95,1.945,10.256,2.729,10.318,2.729,11.392.591,12.942,5.756,13.023,6.064l.767,1.982-.139.027c-1.566.29-6.415,4.712-6.466,4.756a8.587,8.587,0,0,1-7.711,2.48l-.075-.02v-.078c-.225-1.764-3.48-3-3.514-3.016a14.1,14.1,0,0,1-6.04-3.214l-1.431.277c-1.4,3.412-6.4,10.131-6.452,10.2l-2.447,4.589c-1.167,1.385-2.211,2.084-3.119,2.1Zm1.5-8.372.218.092-1.638,4.944c-.46.573-1.518,2.2-.845,2.829a1.074,1.074,0,0,0,.8.273c.573-.018,1.546-.376,2.917-2l2.44-4.586c.062-.085,5.1-6.865,6.455-10.236l.024-.058,1.685-.324.045.048a13.588,13.588,0,0,0,5.989,3.2c.146.054,3.336,1.269,3.664,3.128a8.432,8.432,0,0,0,7.411-2.442c.2-.181,4.7-4.286,6.445-4.777l-.682-1.74c0-.054-1.5-5.309-12.816-5.9-.071,0-6.414-.8-10.4-2.763-.04-.017-4.66-1.9-9.628,1.962l-7.225,6.142c-.215.306-4.01,5.677-8.189,6.66a1.547,1.547,0,0,0,.314,1.3c.4.4,1.136.471,2.188.219l.286-.069-1.3,2.05a11.942,11.942,0,0,0-1.464,3.635l-.341,1.733a2.437,2.437,0,0,0,.1,1.883,1.025,1.025,0,0,0,.785.464,2.489,2.489,0,0,0,1.9-1.024l.178-.194.027.263c0,.017.171,1.518,1.025,1.815.618.212,1.447-.222,2.477-1.286l1.333-2.208-.535,2.91a2.049,2.049,0,0,0,.341,1.405,1.061,1.061,0,0,0,.831.465h0c.484,0,1.047-.4,1.675-1.191Z" transform="translate(-2640.885 -1756.586)"/></g><g transform="translate(175.994 91.31)"><path class="m" d="M2649.208,1809.9l-.222-.089,1.437-3.531,2.7-4.681.2.12-2.692,4.663Z" transform="translate(-2648.986 -1801.601)"/></g><g transform="translate(180.136 93.591)"><g transform="translate(0 0)"><g transform="translate(0)"><rect class="m" width="6.585" height="0.235" transform="translate(0 5.805) rotate(-61.83)"/></g></g></g><g transform="translate(197.346 83.591)"><path class="ag" d="M2705.752,1781.7a4.857,4.857,0,0,1-1.733,2.629" transform="translate(-2704.019 -1781.704)"/></g><g transform="translate(197.268 83.574)"><path class="m" d="M2703.975,1784.4l-.157-.177a4.911,4.911,0,0,0,1.706-2.559l.236.034A5.038,5.038,0,0,1,2703.975,1784.4Z" transform="translate(-2703.818 -1781.66)"/></g><g transform="translate(176.046 86.071)"><g transform="translate(0 0)"><g transform="translate(0)"><rect class="m" width="5.974" height="0.157" transform="translate(0 4.905) rotate(-55.19)"/></g></g></g><g class="n" transform="translate(173.473 87.838)"><path class="o" d="M2642.488,1794.624s2.692,1.024,4.844-1.972l-2.152,3.111C2645.118,1795.823,2643.026,1796.542,2642.488,1794.624Z" transform="translate(-2642.488 -1792.652)"/></g><g transform="translate(195.313 89.696)"><path class="m" d="M2703.214,1800.537c-1.153-2.538-4.414-2.859-4.435-2.861l.02-.235c.034,0,3.437.341,4.647,3Z" transform="translate(-2698.779 -1797.44)"/></g><g transform="translate(142.917 11.733)"><path class="l" d="M2575.692,1630.559h0c-3.441.04-10.011-6.8-10.4-15.321l-1.564-18.743,31.076.569-5.8,23.89C2587.972,1626.411,2581.128,1631.678,2575.692,1630.559Z" transform="translate(-2563.731 -1596.495)"/></g><g transform="translate(140.804 22.955)"><g transform="translate(0 0)"><g transform="translate(0)"><ellipse class="l" cx="2.769" cy="3.506" rx="2.769" ry="3.506" transform="matrix(0.939, -0.344, 0.344, 0.939, 0, 1.903)"/></g></g></g><g transform="translate(142.615 29.325)"><circle class="ah" cx="0.959" cy="0.959" r="0.959"/></g><g transform="translate(137.501 55.876)"><path class="p" d="M2556.644,1710.271l-6.871,27.7h4.963l5.168-21.172Z" transform="translate(-2549.773 -1710.271)"/></g><g transform="translate(150.999 27.81)"><path class="m" d="M2587.087,1646.206l-2.008-1.6a1.336,1.336,0,0,1-.514-1.051,1.5,1.5,0,0,1,.553-1.174c1.712-1.447,1.483-4.4,1.48-4.427l.224-.022c0,.03.274,3.074-1.561,4.623a1.273,1.273,0,0,0-.472,1,1.117,1.117,0,0,0,.428.875l2.008,1.6Z" transform="translate(-2584.565 -1637.933)"/></g><g transform="translate(147.776 26.438)"><g transform="translate(0.049 0.062)"><ellipse class="r" cx="1.084" cy="0.76" rx="1.084" ry="0.76" transform="matrix(0.062, -0.998, 0.998, 0.062, 0, 2.163)"/></g><path class="r" d="M2576.991,1636.774a1.108,1.108,0,0,1-.731-1.24h0a1.454,1.454,0,0,1,.294-.814.774.774,0,0,1,.652-.323.716.716,0,0,1,.5.26,1.387,1.387,0,0,1,.3.987,1.46,1.46,0,0,1-.295.813.771.771,0,0,1-.652.323A.572.572,0,0,1,2576.991,1636.774Zm-.506-1.226c-.034.535.227.974.586,1.009a.556.556,0,0,0,.461-.241,1.244,1.244,0,0,0,.246-.687,1.161,1.161,0,0,0-.242-.824.517.517,0,0,0-.345-.184.556.556,0,0,0-.461.241,1.23,1.23,0,0,0-.246.687Z" transform="translate(-2576.257 -1634.397)"/></g><g transform="translate(158.361 27.466)"><g transform="translate(0 0)"><g transform="translate(0)"><ellipse class="r" cx="1.084" cy="0.76" rx="1.084" ry="0.76" transform="translate(0 2.135) rotate(-80.066)"/></g><g transform="translate(0.05 0.012)"><path class="r" d="M2604.35,1639.443h0a1.074,1.074,0,0,1-.655-1.329h0a1.39,1.39,0,0,1,.52-.891.728.728,0,0,1,.541-.138h.007a.774.774,0,0,1,.558.468,1.458,1.458,0,0,1,.1.861C2605.3,1639.062,2604.823,1639.521,2604.35,1639.443Zm-.437-1.291c-.09.529.12,1.007.472,1.068h0c.352.058.711-.319.8-.845a1.224,1.224,0,0,0-.078-.725.556.556,0,0,0-.393-.342h0a.5.5,0,0,0-.375.1,1.152,1.152,0,0,0-.427.745Z" transform="translate(-2603.666 -1637.077)"/></g></g></g><g transform="translate(146.653 23.704)"><path class="r" d="M2573.36,1628.129a4.234,4.234,0,0,1,1.224-.547,6.356,6.356,0,0,1,1.248-.215,6.436,6.436,0,0,1,1.266.033,4.292,4.292,0,0,1,1.29.361l0,.068c-.836.09-1.674.145-2.511.218-.839.049-1.676.118-2.517.15Z" transform="translate(-2573.36 -1627.35)"/></g><g transform="translate(158.18 24.719)"><path class="r" d="M2603.089,1630.086a4.279,4.279,0,0,1,1.336-.107,6.224,6.224,0,0,1,1.248.213,6.384,6.384,0,0,1,1.184.453,4.277,4.277,0,0,1,1.1.77l-.019.066c-.818-.193-1.627-.421-2.44-.631-.808-.233-1.62-.448-2.423-.7Z" transform="translate(-2603.071 -1629.965)"/></g><g transform="translate(152.138 37.043)"><path class="r" d="M2593.276,1661.928s-4.812.54-5.777-.2C2587.5,1661.731,2590.425,1669.023,2593.276,1661.928Z" transform="translate(-2587.499 -1661.731)"/></g><g transform="translate(149.501 8.12)"><path class="r" d="M2580.7,1591.547c-.047,2.773,1.52,5.3,3.15,7.539a9.133,9.133,0,0,0,2.448,2.546,3.367,3.367,0,0,0,3.374.242,13.52,13.52,0,0,1-1.6-6.249c1.667,2.845,3.506,5.783,6.382,7.395,2.209,1.239,5.691,2.875,8.128,2.182.533-.151.295-1.678.689-2.066a4.03,4.03,0,0,0,.869-1.695c1.1-3.4,2.19-7.094,1.025-10.472a2.21,2.21,0,0,0-.431-.809,2.486,2.486,0,0,0-1.008-.566,40.128,40.128,0,0,0-16.992-2.274,6.973,6.973,0,0,0-2.442.532,7.428,7.428,0,0,0-2.494,2.342" transform="translate(-2580.702 -1587.184)"/></g><g transform="translate(141.358 9.581)"><path class="r" d="M2567.688,1593.566a16.465,16.465,0,0,0,1.4,8.875l-3.072.24a.673.673,0,0,1-.417-.057.657.657,0,0,1-.218-.325,16.219,16.219,0,0,1-1.171-5.275c-.655,2.2-.071,4.545.033,6.836.006.124.21.948.124,1.037a.4.4,0,0,1-.457.052c-.921-.355-2.067.776-2.988.421-.269-.1-.573-2.43-.774-2.637a1.938,1.938,0,0,1-.408-1.26,33.355,33.355,0,0,1,.447-7.041,4.53,4.53,0,0,1,1.133-2.83,3.052,3.052,0,0,1,2.8-.514,8.071,8.071,0,0,1,2.59,1.4" transform="translate(-2559.713 -1590.948)"/></g><g transform="translate(147.959 9.707)"><path class="r" d="M2576.728,1591.273s.622,9.651,8,13.737a7.037,7.037,0,0,0,3.783-.078s-4.1-4.906-2.488-9.433Z" transform="translate(-2576.728 -1591.273)"/></g><g transform="translate(145.696 14.183)"><path class="r" d="M2574.189,1603.09s1.065,6.531,3.582,8.445l-4.213.115s-3.393-2.942-2.519-8.84Z" transform="translate(-2570.895 -1602.81)"/></g><g transform="translate(166.478 24.744)"><g transform="translate(0 0)"><g transform="translate(0)"><ellipse class="l" cx="3.331" cy="2.749" rx="3.331" ry="2.749" transform="matrix(0.397, -0.918, 0.918, 0.397, 0, 6.115)"/></g></g></g><g transform="translate(169.846 30.838)"><circle class="ah" cx="1.009" cy="1.009" r="1.009"/></g><g transform="translate(95.312 14.192)"><path class="ai" d="M2441.049,1605.568l2.942-2.179,1.943-.528a.986.986,0,0,1,1.121.525h0a.466.466,0,0,1-.219.6l-2.13.916-1.469,2.264,3.132-1.014,1.9.985a.6.6,0,0,1,.333.7h0a.648.648,0,0,1-.743.537.612.612,0,0,1-.111-.028l-1.367-.427-5.35,1.895s6.592.052,6.046,2.307l-3.947-.787-.928-3.1Z" transform="translate(-2441.032 -1602.833)"/></g><g transform="translate(118.424 56.981)"><path class="aj" d="M2500.6,1713.119a1.376,1.376,0,0,1,.256.07Z" transform="translate(-2500.601 -1713.119)"/></g><g transform="translate(137.826 95.038)"><path class="p" d="M2556.8,1812.142l-5.346,2.732-.848-.918,1.48-1.3s2.07-1.249,2.151-1.3c.124-.05,1.21-.152,1.21-.152Z" transform="translate(-2550.609 -1811.21)"/></g><g transform="translate(138.958 96.626)"><path class="p" d="M2558.878,1815.3l-5.351,2.649.84,1.508,1.1.232s1.731-.558,1.9-.609a9.864,9.864,0,0,0,1.708-.977,1.527,1.527,0,0,0,.377-.776c.03-.211.132-.637.132-.637Z" transform="translate(-2553.528 -1815.301)"/></g><g transform="translate(139.603 97.386)"><path class="p" d="M2559.812,1817.262s2.594,4.345,4.509,7.092l-4.4,2.428a21.571,21.571,0,0,1-4.733-6.577Z" transform="translate(-2555.191 -1817.262)"/></g><g transform="translate(139.428 97.778)"><path class="ak" d="M2560.775,1818.272l-6.037,3.149,1.242.435a2.815,2.815,0,0,0,2.17-.2l.979-.517a3.039,3.039,0,0,0,1.585-2.439Z" transform="translate(-2554.739 -1818.272)"/></g><g transform="translate(137.583 94.209)"><path class="ak" d="M2550.922,1810.8l3.187-1.562a1.634,1.634,0,0,1,2.134.636l1.582,2.766-.692.374-1.582-2.766c0-.042-.044-.039-.089-.077-.9.427-3.677,1.8-4.7,2.32a.6.6,0,0,0,.1.247l1.711,2.842-.785.211-1.577-2.682a1.569,1.569,0,0,1-.155-1.292A1.735,1.735,0,0,1,2550.922,1810.8Z" transform="translate(-2549.983 -1809.072)"/></g><g transform="translate(132.124 68.022)"><circle class="al" cx="0.545" cy="0.545" r="0.545"/></g><g transform="translate(129.03 84.433)"><path class="y" d="M2527.939,1784.791l.044.039c.144.327.956,2.088,1.469,2.982l1.005-.812a7.269,7.269,0,0,0,.081-1.558,5.88,5.88,0,0,0-.61-1.141,3.176,3.176,0,0,0-.653-.426" transform="translate(-2527.939 -1783.875)"/></g><g transform="translate(136.513 79.497)"><path class="y" d="M2549.63,1775.151l-1.272-4s-1.062,1.276-1.1,1.362-.035,1.639-.03,1.723a3.745,3.745,0,0,0,.107.413Z" transform="translate(-2547.225 -1771.152)"/></g><g transform="translate(94.551 29.203)"><g transform="translate(0 0)"><g transform="translate(0)"><rect class="al" width="1.396" height="8.419" transform="translate(0 1.377) rotate(-80.538)"/></g></g></g><g transform="translate(95.604 28.089)"><circle class="al" cx="0.545" cy="0.545" r="0.545"/></g><g transform="translate(91.887 12.372)"><path class="x" d="M2436.056,1613.083l.107-1.1s-4.032-6.071-3.958-6.243c.073-.214,3.437-6.866,3.437-6.866l3.821-.716a.871.871,0,0,1,1.034.67.822.822,0,0,1,.019.153h0a.49.49,0,0,1-.351.482l-2.893.791-.727,2.769,3.235-2.195,2.81-.031a.585.585,0,0,1,.523.348h0a.594.594,0,0,1-.3.784.606.606,0,0,1-.113.037l-2,.279-2.336,2.523,3.457-1.242,2.06.053a.488.488,0,0,1,.484.392h0a.491.491,0,0,1-.349.6l-.038.008-1.829.312-1.924,2.374a6.136,6.136,0,0,1,3.032,3.944l-.248,3.078Z" transform="translate(-2432.204 -1598.142)"/></g><g transform="translate(109.344 16.983)"><path class="ad" d="M2479.217,1610.026s4.038,5.365,1.521,14.167l-3.14-3.14s-.12-4.112-.377-4.253S2479.217,1610.026,2479.217,1610.026Z" transform="translate(-2477.2 -1610.026)"/></g><g transform="translate(92.737 24.96)"><path class="am" d="M2437.56,1633.933l-3.164-1.031a3.351,3.351,0,0,1,5.745-1.128,3.3,3.3,0,0,1,.765,1.725Z" transform="translate(-2434.396 -1630.587)"/></g><g transform="translate(84.485 24.617)"><path class="am" d="M2415.695,1633.607l-.093-.116.035.038A.7.7,0,0,0,2415.695,1633.607Zm.643-.562-3.211-.987a3.285,3.285,0,0,1,1.052-1.571,3.342,3.342,0,0,1,4.689.386l.094.116a3.176,3.176,0,0,1,.686,1.628Z" transform="translate(-2413.126 -1629.703)"/></g><g transform="translate(94.898 23.824)"><g transform="translate(0 0)"><g transform="translate(0)"><rect class="am" width="1.373" height="5.748" rx="0.328" transform="translate(0 1.321) rotate(-74.22)"/></g></g></g><g transform="translate(83.491 23.993)"><g transform="translate(0 0)"><rect class="am" width="5.748" height="1.373" rx="0.328" transform="translate(0 0.512) rotate(-5.11)"/></g></g><g transform="translate(86.927 29.783)"><g class="an"><rect class="ao" width="4.696" height="8.631"/></g></g><g class="ap" transform="translate(110.075 25.229)"><path class="aq" d="M2479.083,1631.28s4.112-.109,3.472,4.724C2482.548,1636.005,2482.1,1631.991,2479.083,1631.28Z" transform="translate(-2479.083 -1631.28)"/></g><g transform="translate(110.034 37.876)"><path class="ag" d="M2478.978,1664.4l1.663-.526v.384a4.282,4.282,0,0,1-.984.183A4.484,4.484,0,0,1,2478.978,1664.4Z" transform="translate(-2478.978 -1663.876)"/></g><g transform="translate(82.052 9.495)"><path class="l" d="M2432.018,1590.727l3.3,14.968a4.439,4.439,0,0,1,.675-.092c2.62-.052,0,2.454.092,5.445.051,2.6,1.362.28,1.109,5.245v.635l-1.67-.572a4.413,4.413,0,0,0,.681.062,3.988,3.988,0,0,0,.984-.143l1.755,23.7-23.4,2.808,1.624-8.745c-.5.058-1.258,1.5-1.755,1.475-4.457-.263-6.566-5.931-7.831-10.078l-.1-25.495v-.348l-.626-.182.437-3.391Z" transform="translate(-2406.856 -1590.727)"/></g><g transform="translate(93.463 27.771)"><g transform="translate(0 0)"><g transform="translate(0)"><ellipse class="r" cx="1.276" cy="1.115" rx="1.276" ry="1.115" transform="translate(0 2.538) rotate(-84.146)"/></g></g></g><g transform="translate(83.42 26.589)"><g transform="translate(0 0)"><g transform="translate(0)"><ellipse class="r" cx="1.172" cy="1.041" rx="1.172" ry="1.041" transform="translate(0 2.333) rotate(-84.146)"/></g></g></g><g transform="translate(95.977 24.291)"><path class="r" d="M2446.006,1630.783l-3.259-.932.388-.989,3.259.932Z" transform="translate(-2442.747 -1628.862)"/></g><g transform="translate(83.956 23.071)"><g transform="translate(0 0)"><g transform="translate(0)"><rect class="r" width="2.729" height="1.047" transform="translate(0 0.164) rotate(-3.437)"/></g></g></g><g transform="translate(87.51 40.415)"><path class="ar" d="M2420.924,1670.421l4.267.338S2421.862,1674.585,2420.924,1670.421Z" transform="translate(-2420.924 -1670.421)"/></g><g transform="translate(110.224 53.142)"><path class="b" d="M2480.514,1704c-.453-.309-.8-.572-1.048-.777A10.4,10.4,0,0,0,2480.514,1704Z" transform="translate(-2479.467 -1703.224)"/></g><g transform="translate(86.376 28.896)"><path class="m" d="M2421.614,1650.115c-2.088-.708-3.283-1.663-3.553-2.832-.306-1.324.628-2.591,1.466-3.422a3.443,3.443,0,0,0,.854-2.487v-.642h.418v.629a3.856,3.856,0,0,1-.969,2.79c-.77.764-1.624,1.9-1.36,3.039.235,1.019,1.339,1.87,3.28,2.531Z" transform="translate(-2418.001 -1640.732)"/></g><g transform="translate(82.763 36.795)"><path class="ad" d="M2409.37,1664.792l-.681-3.7.229,6.858,1.9-.263Z" transform="translate(-2408.689 -1661.091)"/></g><g class="n" transform="translate(91.565 35.32)"><path class="o" d="M2434.378,1679.16h-3l2.248-8.717,16.283-13.155-.64,7.876a15.14,15.14,0,0,1-10,13.189A15.317,15.317,0,0,1,2434.378,1679.16Z" transform="translate(-2431.375 -1657.288)"/></g><g transform="translate(107.496 23.874)"><path class="as" d="M2472.475,1627.787l-.039.343A2.443,2.443,0,0,1,2472.475,1627.787Z" transform="translate(-2472.436 -1627.787)"/></g><g transform="translate(111.242 24.269)"><path class="ag" d="M2482.948,1628.805a2.829,2.829,0,0,1,1.224.287,12.689,12.689,0,0,1-.486,1.419,2.923,2.923,0,0,1-1.1,1.481,1.692,1.692,0,0,1-.491.182v-3.225A2.857,2.857,0,0,1,2482.948,1628.805Z" transform="translate(-2482.09 -1628.805)"/></g><g transform="translate(89.536 26.087)"><path class="ah" d="M2431.3,1641.1a5.739,5.739,0,0,1-4.918-7.329l.082-.279,11.124,1.141.021.294a6.359,6.359,0,0,1-.014,1.021h0a5.744,5.744,0,0,1-6.266,5.155Zm-4.322-6.851a5.038,5.038,0,0,0,4.394,6.158l.025,0a5.045,5.045,0,0,0,5.5-4.528h0a6.069,6.069,0,0,0,.024-.614Z" transform="translate(-2426.146 -1633.492)"/></g><g transform="translate(78.05 24.908)"><path class="ah" d="M2401.312,1638a5.565,5.565,0,0,1-4.74-6.26,5.732,5.732,0,0,1,.2-1.008l.081-.28,10.369,1.063.02.293a6.111,6.111,0,0,1-.013,1.022A5.566,5.566,0,0,1,2401.312,1638Zm-3.947-6.791a5.159,5.159,0,0,0-.1.6,4.671,4.671,0,1,0,9.263.95,5.941,5.941,0,0,0,.024-.611Z" transform="translate(-2396.54 -1630.453)"/></g><g transform="translate(84.631 25.559)"><g transform="translate(0 0)"><rect class="ah" width="0.698" height="8.476" transform="translate(0 0.694) rotate(-84.146)"/></g></g><g transform="translate(100.35 25.207)"><g transform="translate(0 0)"><g transform="translate(0)"><rect class="ah" width="11.148" height="0.698" transform="translate(0 2.03) rotate(-10.491)"/></g></g></g><g transform="translate(89.598 40.642)"><path class="ah" d="M2426.305,1671.006a5.66,5.66,0,0,1,.362,3.274s5.455.312,6.286-3.274C2432.953,1671.006,2427.628,1671.507,2426.305,1671.006Z" transform="translate(-2426.305 -1671.006)"/></g><g transform="translate(82.781 23.755)"><path class="r" d="M2433.74,1634.527s-.177,7.372-4.656,9.076c0,0-14.3-4.415-20.122.63,0,0-2.711,15.592,10.534,14.87,0,0,18.555,2.784,17.766-23.684v-6.291l-1.945-1.647Z" transform="translate(-2408.734 -1627.48)"/></g><g transform="translate(90.749 39.783)"><path class="m" d="M2437.1,1668.791s-6.412,1.306-7.823.408C2429.272,1669.2,2434.121,1678.705,2437.1,1668.791Z" transform="translate(-2429.272 -1668.791)"/></g><g transform="translate(91.176 39.783)"><path class="ah" d="M2430.372,1669.36s1.927.525,7.4-.569a6.682,6.682,0,0,1-.415,1.244s-3.912,1.039-5.655.686a1.208,1.208,0,0,1-.729-.51Z" transform="translate(-2430.372 -1668.791)"/></g><g transform="translate(191.472 98.901)"><g transform="translate(0.355 0.449)"><path class="k" d="M2689.8,1833.6s10.452-13.319,23.21-11" transform="translate(-2689.795 -1822.323)"/></g><path class="k" d="M2689.592,1833.167l-.711-.559c.107-.134,10.763-13.5,23.646-11.167l-.163.89C2700.032,1820.086,2689.695,1833.036,2689.592,1833.167Z" transform="translate(-2688.88 -1821.167)"/><g transform="translate(0.194 0.245)"><path class="k" d="M2689.7,1833.4l-.325-.255a37.678,37.678,0,0,1,6.862-6.412c3.871-2.8,9.887-5.875,16.547-4.668l-.074.407c-6.509-1.179-12.416,1.843-16.222,4.591A37.253,37.253,0,0,0,2689.7,1833.4Z" transform="translate(-2689.379 -1821.798)"/></g></g><g transform="translate(208.581 84.32)"><g transform="translate(0.437 0.451)"><path class="j" d="M2734.1,1794.094s2.7-10.7,17.9-9.2" transform="translate(-2734.105 -1784.747)"/></g><path class="j" d="M2733.854,1793.492l-.876-.22c.027-.111,2.969-11.059,18.385-9.544l-.087.9c-6.083-.6-11.023.754-14.3,3.915A11.724,11.724,0,0,0,2733.854,1793.492Z" transform="translate(-2732.978 -1783.583)"/></g><g transform="translate(111.121 25.918)"><path class="l" d="M2481.78,1633.069s5.705-.536,5.043,5.076a4.622,4.622,0,0,1-4.088,4.519l-.767-1.785Z" transform="translate(-2481.78 -1633.056)"/></g><g transform="translate(146.002 36.345)"><path class="m" d="M2580.7,1669.453c-5.618-.932-8.985-8.5-9.019-8.583l.206-.09c.034.078,3.353,7.539,8.848,8.451.195.032.391.056.592.071,3.951.3,8.046-2.85,12.164-9.369l.192.121c-4.168,6.595-8.331,9.782-12.373,9.474C2581.1,1669.511,2580.9,1669.486,2580.7,1669.453Z" transform="translate(-2571.683 -1659.932)"/></g><g transform="translate(162.027 32.026)"><path class="r" d="M2620.2,1648.8s-2.314,7.2-7.216,9.007c0,0,2.963,4.477,7.482,3.821l3.552-4.589Z" transform="translate(-2612.986 -1648.799)"/></g><g transform="translate(156.97 14.237)"><path class="r" d="M2599.953,1604.047a5.846,5.846,0,0,0,2.461,4.537,16.692,16.692,0,0,0,4.8,2.308,12.831,12.831,0,0,1,2.821,1.248,4.2,4.2,0,0,1,1.854,2.385l3.969-.625-2.124-5.948-6.982-4.4-3.65-.606Z" transform="translate(-2599.952 -1602.949)"/></g><path class="at" d="M2713.131,1818.953s-14.526.55-19.62,12.859" transform="translate(-2500.242 -1720.911)"/><g transform="translate(75.475 1.97)"><g transform="translate(28.574 7.773)"><g class="au"><g transform="translate(-1105.757 -243.799)"><g transform="translate(0 0)"><g class="av" transform="translate(0 0)"><g transform="translate(1100.353 238.626)"><path class="aw" d="M2452.054,1607.78l22.378-1.955L2472,1578.031l-22.378,1.955Z" transform="translate(-2449.626 -1578.031)"/></g></g></g></g></g></g><g transform="translate(1.634 9.325)"><g class="ax"><g transform="translate(-1119.138 -228.774)"><g transform="translate(0 0)"><g class="ay" transform="translate(0)"><g transform="translate(1113.111 223.337)"><path class="az" d="M2379.826,1606.055l16.346-.852-1.243-23.85-16.347.852Z" transform="translate(-2378.583 -1581.352)"/></g></g></g></g></g></g><g class="ba"><g transform="translate(-1077.183 -236.026)"><g transform="translate(0 0)"><g class="av" transform="translate(0)"><g transform="translate(1070.385 228.121)"><path class="aw" d="M2375.405,1589.426l44.363-3.875-3.022-34.6-44.363,3.875Z" transform="translate(-2372.383 -1550.955)"/></g></g></g></g></g><g transform="translate(2.019 8.171)"><g class="bb"><g transform="translate(-1079.201 -244.197)"><g transform="translate(0 0)"><g class="av" transform="translate(0 0)"><g transform="translate(1073.488 236.504)"><path class="bc" d="M2381.906,1593.262l37.332-3.261-1.524-17.439-37.332,3.261Z" transform="translate(-2380.383 -1572.562)"/></g></g></g></g></g></g><g transform="translate(5.701 4.49)"><g class="bd"><g transform="translate(-1082.883 -240.516)"><g transform="translate(0 0)"><g class="av" transform="translate(0 0)"><g transform="translate(1077.269 232.901)"><path class="bc" d="M2391.743,1584.813l34.77-3.037-1.616-18.5-34.771,3.037Z" transform="translate(-2390.127 -1563.277)"/></g></g></g></g></g></g></g><g transform="translate(0 55.331)"><g transform="translate(127.279 31.835)"><path class="ag" d="M2524.8,1799.61a4.969,4.969,0,0,1-1.365-3.231,12.881,12.881,0,0,1,1.365-5.458" transform="translate(-2523.425 -1790.92)"/></g><g transform="translate(127.191 31.82)"><path class="s" d="M2524.609,1799.64a5.019,5.019,0,0,1-1.4-3.28,12.385,12.385,0,0,1,1.365-5.422l.024-.058.146.061-.024.058a12.645,12.645,0,0,0-1.365,5.35,4.858,4.858,0,0,0,1.365,3.18Z" transform="translate(-2523.199 -1790.88)"/></g><g transform="translate(127.206 9.835)"><circle class="ah" cx="1.006" cy="1.006" r="1.006"/></g><g transform="translate(124.77 17.224)"><circle class="al" cx="0.377" cy="0.377" r="0.377"/></g><g transform="translate(123.278 12.408)"><path class="x" d="M2514.358,1744.607a4.751,4.751,0,0,1-1.244-2.743l.908-1.016.889.16.644.258-.065.34Z" transform="translate(-2513.114 -1740.848)"/></g><g transform="translate(125.146 13.947)"><path class="al" d="M2531.3,1760.355l-2.821-9.16-1.807-4.983c-1.4.025-5.654.363-7.563,3.43l-1.186-.735c2.729-4.387,9.007-4.1,9.277-4.084l.461.024,2.142,5.905,2.831,9.192Z" transform="translate(-2517.927 -1744.813)"/></g><g transform="translate(82.81 0.271)"><path class="l" d="M2444.916,1713.116l-12.011-3.552-12.584,2.516-10.69,3.776s-2.516,11.319,1.253,13.206,13.841,3.147,14.465,3.776,6.291.623,8.808-.629,4.4-2.516,5.663-3.147,7.544-7.55,7.544-7.55Z" transform="translate(-2408.809 -1709.564)"/></g><g transform="translate(100.219 60.67)"><path class="be" d="M2453.681,1877.868a112.22,112.22,0,0,0,12.949-12.629h31.716l-3.043,12.629Z" transform="translate(-2453.681 -1865.239)"/></g><g transform="translate(45.753 36.195)"><path class="l" d="M2323.013,1803.529l-9.716,55.4,12.76-1.546,10.441-34.8,3.121-8.529,1.144-8.391s-2.861-1.5-2.505-3.009S2323.013,1803.529,2323.013,1803.529Z" transform="translate(-2313.297 -1802.156)"/></g><g transform="translate(55.345 12.458)"><path class="bf" d="M2350.3,1740.977l-2.243,1.476a15.729,15.729,0,0,0-5.375,7.965l-4.661,16.043,15.442,1.636.475-11.439-1.195-8.036C2352.551,1747.218,2350.3,1740.977,2350.3,1740.977Z" transform="translate(-2338.02 -1740.977)"/></g><g transform="translate(0 91.257)"><path class="bg" d="M2254.678,1944.077l-46.271,5.434a16.729,16.729,0,0,0-12.619,20.012h0v.005l12.424,70.2,18.588,2.637v-65.7l32.081-.3,14.391-26.31Z" transform="translate(-2195.371 -1944.077)"/></g><g transform="translate(60.35 2.917)"><path class="bf" d="M2430.168,1723.638l-2.927-.962c-10.793-3.346-14.4-4.541-20.98-6.291.629-.166-2.66,14.619-13.207,16.815-7.675,1.6-15.825-1.029-15.243-14.51,0-.258-19.566,7.177-19.566,7.177l-7.326,80.287,67.3,8.8,12.742-52.735Z" transform="translate(-2350.919 -1716.384)"/></g><g transform="translate(59.095 36.104)"><path class="bh" d="M2413.534,1801.921s-8,30.835-65.848,59.136l68.555,6.291,12.583-52.2Z" transform="translate(-2347.686 -1801.921)"/></g><g transform="translate(123.395 6.046)"><path class="bf" d="M2539.371,1754.719l-25.956,1.052,3.049-31.322,11.857,3.6a14.68,14.68,0,0,1,3.711,1.715,15.747,15.747,0,0,1,7.123,14.964Z" transform="translate(-2513.415 -1724.45)"/></g><g transform="translate(120.232 20.937)"><g transform="translate(0 0)"><g transform="translate(0)"><rect class="bi" width="20.457" height="0.698" transform="translate(0 20.326) rotate(-83.499)"/></g></g></g><g transform="translate(79.624 36.905)"><path class="l" d="M2444.2,1803.986l-1.28,31.606-42.327,17.443v7.493l52.711-6.291a15.373,15.373,0,0,0,13.487-13.669l3.552-34.021Z" transform="translate(-2400.597 -1803.986)"/></g><g transform="translate(120.095 30.933)"><path class="bi" d="M2504.91,1799.439l27.866,2.054a1.413,1.413,0,0,0,1.51-1.287l.715-8.408a1.142,1.142,0,0,0-1.032-1.244h0l-.029,0-27.769-1.955Z" transform="translate(-2504.91 -1788.595)"/></g><g transform="translate(90.005)"><path class="m" d="M2428.039,1717.356l-.686-.128,1.55-8.362.686.128Z" transform="translate(-2427.353 -1708.866)"/></g><g class="n" transform="translate(58.461 38.632)"><path class="o" d="M2349.825,1808.437l-3.775,21.386,5.188-2.591,1.733-18.159Z" transform="translate(-2346.051 -1808.437)"/></g><g transform="translate(54.868 32.178)"><path class="bi" d="M2337.826,1798.159l9.049,1.5.326-7.1-8.459-.755a1.145,1.145,0,0,0-1.207.989l-.715,3.792A1.326,1.326,0,0,0,2337.826,1798.159Z" transform="translate(-2336.79 -1791.802)"/></g><g transform="translate(64.602 24.072)"><path class="bi" d="M2363.361,1770.909l.7.065-1.481,15.929-.7-.065,1.481-15.929" transform="translate(-2361.88 -1770.909)"/></g><g transform="translate(22.204 91.367)"><path class="y" d="M2359.3,1950.1l-70.443-5.663c-9.265-.949-18.668,6.773-20.378,15.935l-15.878,85.948,16.4,4.685s17.965-44.3,28.026-73.863l41.679.235c8.385.3,15.077-5.073,17.221-13.727Z" transform="translate(-2252.6 -1944.36)"/></g><g transform="translate(32.963 96.158)"><path class="bf" d="M2281.658,2050.306l-1.327-.436,24.206-73.52a7.43,7.43,0,0,1,7.259-5.056l32.739,1.092c6.84.4,12.05-1.108,15.512-4.485,4.682-4.563,4.521-11.08,4.518-11.145l1.4-.049a17.48,17.48,0,0,1-4.926,12.181c-3.755,3.669-9.325,5.32-16.564,4.891l-32.721-1.091a5.979,5.979,0,0,0-5.886,4.1Z" transform="translate(-2280.331 -1956.707)"/></g><g transform="translate(109.216 73.761)"><path class="m" d="M2486.48,1909.328c-1.122-9.54-9.527-9.65-9.611-9.65v-.7c.09,0,9.11.116,10.3,10.267Z" transform="translate(-2476.869 -1898.98)"/></g><g transform="translate(103.686 75.695)"><path class="m" d="M2473.086,1912.443c-2.8-8.957-10.039-7.772-10.345-7.717l-.125-.687c.082-.012,8.145-1.364,11.136,8.2Z" transform="translate(-2462.615 -1903.967)"/></g><g transform="translate(101.317 77.024)"><path class="m" d="M2464.061,1916.8c-.559-8.361-7.265-8.708-7.55-8.719l.024-.7c.075,0,7.619.368,8.222,9.369Z" transform="translate(-2456.511 -1907.39)"/></g><g transform="translate(97.607 78.153)"><path class="m" d="M2454.227,1919.221l-.7-.051c.226-2.964-.536-5.2-2.265-6.661a6.27,6.27,0,0,0-3.97-1.5l-.348-.6c.363-.279,2.126-.041,3.607.77C2452.432,1912.209,2454.591,1914.438,2454.227,1919.221Z" transform="translate(-2446.948 -1910.301)"/></g><g transform="translate(94.803 78.666)"><path class="m" d="M2445.1,1920.6l-.689-.116c1.1-6.625-4.457-8.123-4.694-8.185l.171-.677C2439.956,1911.642,2446.31,1913.333,2445.1,1920.6Z" transform="translate(-2439.72 -1911.624)"/></g><g transform="translate(121.896 68.04)"><path class="m" d="M2522.825,1890.717c-3.318-7.07-13.07-5.678-13.17-5.667l-.106-.689c.1-.016,10.367-1.484,13.907,6.059Z" transform="translate(-2509.55 -1884.236)"/></g><g class="n" transform="translate(121.949 41.995)"><path class="o" d="M2510.773,1817.105l-1.086,26.522s7.367-1,11.639,3.157l1.9-28.764Z" transform="translate(-2509.687 -1817.105)"/></g><g transform="translate(61.427 83.955)"><path class="l" d="M2370.1,1926.4l-13.509,4.575c-2.076.846-1.928,2.728-2.7,4.833h0a3.1,3.1,0,0,0,1.464,3.814l2.859,1.5a3.078,3.078,0,0,0,4.159-1.28c.039-.07.071-.141.1-.212l.572-1.264,5.919-.881a6.744,6.744,0,0,0,5.017-3.6l.366-.721,4.924-.732-2.631-7.172-5.222.778A5.818,5.818,0,0,0,2370.1,1926.4Z" transform="translate(-2353.697 -1925.255)"/></g></g></g><g transform="translate(42.433 173.056)"><path class="g" d="M1904.236,1752.3a.822.822,0,0,1-.822-.822v-7.914a7.8,7.8,0,0,1,7.8-7.8h162.711a.822.822,0,1,1,0,1.644H1911.209a6.158,6.158,0,0,0-6.152,6.151v7.914A.822.822,0,0,1,1904.236,1752.3Z" transform="translate(-1903.414 -1735.771)"/></g></g></g></g></svg>