<svg xmlns="http://www.w3.org/2000/svg" width="34.414" height="34.414" viewBox="0 0 34.414 34.414"><defs><style>.a{fill:#0855c4;}</style></defs><g transform="matrix(1, 0.017, -0.017, 1, -682.809, -221.699)"><path class="a" d="M720.78,232.653l-4.93,4.978-4.9-5.011-2.266,2.214,4.933,5.048-4.966,5.015,2.251,2.229,4.93-4.978,4.9,5.011L723,244.946l-4.932-5.048,4.966-5.015Z" transform="translate(-11.764 -12.526)"/><path class="a" d="M704.079,209.738a16.914,16.914,0,1,0,16.914,16.914A16.934,16.934,0,0,0,704.079,209.738Zm0,30.661a13.746,13.746,0,1,1,13.746-13.746A13.762,13.762,0,0,1,704.079,240.4Z" transform="translate(0 0)"/></g></svg>