<svg xmlns="http://www.w3.org/2000/svg" width="58.828" height="70.435" viewBox="0 0 58.828 70.435"><defs><style>.a{fill:#0855c4;}.b{fill:#00adee;}</style></defs><g transform="translate(-930.449 -415.357)"><g transform="translate(930.449 415.357)"><path class="a" d="M981.6,485.792h-43.47a7.688,7.688,0,0,1-7.679-7.679V423.035a7.687,7.687,0,0,1,7.679-7.678H981.6a7.687,7.687,0,0,1,7.679,7.678v55.078A7.688,7.688,0,0,1,981.6,485.792Zm-43.47-67.9a5.154,5.154,0,0,0-5.149,5.148v55.078a5.155,5.155,0,0,0,5.149,5.149H981.6a5.155,5.155,0,0,0,5.149-5.149V423.035a5.154,5.154,0,0,0-5.149-5.148Z" transform="translate(-930.449 -415.357)"/></g><g transform="translate(945.035 424.609)"><rect class="a" width="31.209" height="2.53"/></g><g transform="translate(945.035 433.162)"><rect class="a" width="31.209" height="2.53"/></g><g transform="translate(945.035 441.131)"><rect class="a" width="7.767" height="2.53"/></g><g transform="translate(958.309 441.131)"><rect class="a" width="17.581" height="2.53"/></g><g transform="translate(946.301 450.153)"><path class="b" d="M975.338,511.244A13.561,13.561,0,1,1,988.9,497.683,13.577,13.577,0,0,1,975.338,511.244Zm0-24.592a11.031,11.031,0,1,0,11.031,11.031A11.044,11.044,0,0,0,975.338,486.652Z" transform="translate(-961.777 -484.122)"/></g><g transform="translate(953.262 458.532)"><path class="b" d="M980.345,510.764l-4.812-5.5,1.9-1.666,3.1,3.539,6.953-6.457,1.722,1.854Z" transform="translate(-975.532 -500.681)"/></g></g></svg>