<svg xmlns="http://www.w3.org/2000/svg" width="25.453" height="22.253" viewBox="0 0 25.453 22.253"><defs><style>.a{fill:#0855c4;}</style></defs><path class="a" d="M1687.114,9622.587a4.472,4.472,0,0,0-6.286-.638l-1.767,1.441h0l-14.191,11.578a1.394,1.394,0,0,0-.263.284,1.085,1.085,0,0,0-.6.756l-1.343,7.189,6.543-.687a1.18,1.18,0,0,0,1.166-.522,1.339,1.339,0,0,0,.143-.1l14.828-12.1,1.13-.922a4.467,4.467,0,0,0,.637-6.285Zm-1.548,1.264a2.469,2.469,0,0,1-.352,3.474l-.218.178-3.122-3.826.218-.178A2.471,2.471,0,0,1,1685.565,9623.851Zm-20.442,17.081.525-2.811,1.667,2.044.4.493Zm4.6-.973-1.586-1.943-1.535-1.883,13.72-11.193,3.122,3.826Z" transform="translate(-1662.667 -9620.945)"/></svg>