<svg xmlns="http://www.w3.org/2000/svg" width="57.041" height="25.6" viewBox="0 0 57.041 25.6">
  <g id="Grupo_25564" data-name="Grupo 25564" transform="translate(-158.923 -530.199)">
    <g id="Grupo_25532" data-name="Grupo 25532" transform="translate(158.923 537.831)">
      <path id="Trazado_17580" data-name="Trazado 17580" d="M1583.741,1496.365a1.1,1.1,0,0,1,.791-.926,3.961,3.961,0,0,0,3.286,1.667c1.516,0,2.374-.624,2.374-1.7,0-1.229-1.28-1.515-2.727-1.852-1.685-.388-3.437-.979-3.437-3.185,0-1.854,1.6-3.167,3.924-3.167,2.426,0,3.74,1.145,3.74,1.936a1.145,1.145,0,0,1-.809.961,3.571,3.571,0,0,0-2.915-1.465c-1.364,0-2.256.656-2.256,1.667,0,1.2,1.06,1.381,2.576,1.734,1.853.422,3.639,1.146,3.639,3.252,0,2-1.55,3.252-4.095,3.252-2.628,0-4.093-1.28-4.093-2.174" transform="translate(-1583.741 -1487.2)" fill="#494a49"/>
      <path id="Trazado_17581" data-name="Trazado 17581" d="M1609.53,1497.717v-8.946a.9.9,0,0,1,.927-.975h3.587c2.376,0,3.674.993,3.674,2.83a2.344,2.344,0,0,1-1.922,2.34,2.668,2.668,0,0,1,2.359,2.678c0,2.039-1.3,3.05-4.143,3.05h-3.555a.9.9,0,0,1-.927-.977m4.3-5.173c1.28,0,2.089-.674,2.089-1.717,0-1.078-.708-1.635-2.123-1.635h-2.543v3.352Zm.067,4.752c1.752,0,2.477-.523,2.477-1.787q0-1.718-2.426-1.717h-2.7v3.5Z" transform="translate(-1600.001 -1487.575)" fill="#494a49"/>
      <path id="Trazado_17582" data-name="Trazado 17582" d="M1634.867,1496.365a1.1,1.1,0,0,1,.791-.926,3.961,3.961,0,0,0,3.286,1.667c1.516,0,2.374-.624,2.374-1.7,0-1.229-1.28-1.515-2.728-1.852-1.684-.388-3.437-.979-3.437-3.185,0-1.854,1.6-3.167,3.925-3.167,2.426,0,3.74,1.145,3.74,1.936a1.144,1.144,0,0,1-.809.961,3.571,3.571,0,0,0-2.915-1.465c-1.364,0-2.256.656-2.256,1.667,0,1.2,1.061,1.381,2.577,1.734,1.853.422,3.638,1.146,3.638,3.252,0,2-1.55,3.252-4.094,3.252-2.628,0-4.093-1.28-4.093-2.174" transform="translate(-1615.977 -1487.2)" fill="#494a49"/>
    </g>
    <g id="Grupo_25531" data-name="Grupo 25531" transform="translate(192.162 530.199)">
      <path id="Trazado_17583" data-name="Trazado 17583" d="M1694.4,1466.044,1682.447,1478l-11.843-11.844,12.012-12.012Z" transform="translate(-1670.603 -1452.402)" fill="#a7b6c0"/>
      <path id="Trazado_17584" data-name="Trazado 17584" d="M1682.616,1446.513l-12.012,12.013,11.843,11.843,11.958-11.958Z" transform="translate(-1670.603 -1446.513)" fill="#152564"/>
      <path id="Trazado_17585" data-name="Trazado 17585" d="M1704.551,1456.746l-4.959,4.959c-2.231,2.231-.921,5.6,1,7.526l8.256-8.256-4.3-4.229" transform="translate(-1692.066 -1454.409)" fill="#fff"/>
      <path id="Trazado_17586" data-name="Trazado 17586" d="M1706.455,1498.492l4.959-4.959c2.231-2.23.922-5.6-1-7.526l-8.256,8.256,4.3,4.228" transform="translate(-1694.949 -1476.986)" fill="#fff"/>
    </g>
  </g>
</svg>
