<svg xmlns="http://www.w3.org/2000/svg" xmlns:xlink="http://www.w3.org/1999/xlink" width="375.925" height="283" viewBox="0 0 375.925 283">
  <defs>
    <clipPath id="clip-path">
      <rect id="Rectángulo_6109" data-name="Rectángulo 6109" width="162" height="111" transform="translate(17 0.622)" fill="#fff"/>
    </clipPath>
  </defs>
  <g id="Grupo_25931" data-name="Grupo 25931" transform="translate(0.925 -49)">
    <path id="Trazado_17486" data-name="Trazado 17486" d="M7.793,0H383.718V283H7.793Z" transform="translate(-8.718 49)" fill="#edf7fe"/>
    <g id="Enmascarar_grupo_31" data-name="Enmascarar grupo 31" transform="translate(-17 134.378)" clip-path="url(#clip-path)">
      <g id="Grupo_25924" data-name="Grupo 25924" transform="translate(7.842 0.218)">
        <g id="Grupo_25922" data-name="Grupo 25922" transform="translate(90.215 39.543)" opacity="0.4">
          <rect id="Rectángulo_6099" data-name="Rectángulo 6099" width="2.876" height="43.684" transform="translate(6.336 39.462)" fill="#0f995c"/>
          <rect id="Rectángulo_6100" data-name="Rectángulo 6100" width="2.875" height="43.684" transform="translate(33.929 39.462)" fill="#0f995c"/>
          <path id="Trazado_20264" data-name="Trazado 20264" d="M380.817,200.43H337.939a2.494,2.494,0,1,1,0-4.988h42.878a2.494,2.494,0,1,1,0,4.988" transform="translate(-333.422 -160.222)" fill="#087861"/>
          <rect id="Rectángulo_6101" data-name="Rectángulo 6101" width="2.876" height="43.684" transform="translate(14.576 39.462)" fill="#087861"/>
          <rect id="Rectángulo_6102" data-name="Rectángulo 6102" width="2.875" height="43.684" transform="translate(41.845 39.462)" fill="#087861"/>
          <rect id="Rectángulo_6103" data-name="Rectángulo 6103" width="1.616" height="5.014" transform="translate(12.169 12.122)" fill="#8fe8b0"/>
          <path id="Trazado_20265" data-name="Trazado 20265" d="M358.548,156.145a8.771,8.771,0,1,1-8.771-8.771,8.772,8.772,0,0,1,8.771,8.771" transform="translate(-336.799 -131.029)" fill="#57cc82"/>
          <path id="Trazado_20266" data-name="Trazado 20266" d="M360.923,191.97h-8.857l.525-2.245H360.4Z" transform="translate(-343.516 -156.751)" fill="#8fe8b0"/>
          <path id="Trazado_20267" data-name="Trazado 20267" d="M331.12,119.595l1.847-13.128h21.612l1.847,13.128Z" transform="translate(-330.795 -106.185)" fill="#fff"/>
          <path id="Trazado_20268" data-name="Trazado 20268" d="M353.831,106.313l1.768,12.564H330.942l1.768-12.564Zm.49-.563h-22.1l-1.927,13.691h25.956Z" transform="translate(-330.293 -105.75)" fill="#8fe8b0"/>
        </g>
        <g id="Grupo_25923" data-name="Grupo 25923" transform="translate(0 0)">
          <path id="Trazado_20269" data-name="Trazado 20269" d="M171.8,116.86c.731.877,1.464,1.736,2.23,2.526a23.823,23.823,0,0,0,2.318,2.18,11.931,11.931,0,0,0,2.261,1.489,4.476,4.476,0,0,0,.912.325,2.084,2.084,0,0,0,.659.056,2.259,2.259,0,0,0,.785-.256,3.717,3.717,0,0,0,.878-.649,8.6,8.6,0,0,0,1.586-2.376,23.889,23.889,0,0,0,1.225-3.205l.563-1.775c.193-.613.391-1.239.683-1.94a1.677,1.677,0,0,1,3.211.855l-.016.125c-.062.489-.108,1.081-.153,1.686l-.143,1.881a28.389,28.389,0,0,1-.632,4,13.37,13.37,0,0,1-1.783,4.228A9.777,9.777,0,0,1,184.652,128a6.2,6.2,0,0,1-.54.435,6.721,6.721,0,0,1-.578.4l-.3.186c-.108.061-.227.119-.341.178a5.942,5.942,0,0,1-.715.311,8.368,8.368,0,0,1-3.01.526,10.606,10.606,0,0,1-2.732-.393,16.572,16.572,0,0,1-4.319-1.945,34.454,34.454,0,0,1-6.444-5.294,4.133,4.133,0,1,1,5.9-5.794c.077.079.15.159.22.242Z" transform="translate(-99.899 -71.025)" fill="#fabf66"/>
          <path id="Trazado_20270" data-name="Trazado 20270" d="M205.751,88.727l3.566,1.114a.824.824,0,0,0,1.03-.54L213,80.793a.822.822,0,0,0-.54-1.03L208.9,78.65a.822.822,0,0,0-1.03.54L205.211,87.7a.822.822,0,0,0,.54,1.03" transform="translate(-124.607 -50.624)" fill="#121a40"/>
          <path id="Trazado_20271" data-name="Trazado 20271" d="M207.414,89.24l3.565,1.114a.823.823,0,0,0,1.03-.54l2.655-8.507a.822.822,0,0,0-.54-1.03l-3.564-1.114a.823.823,0,0,0-1.03.54l-2.656,8.507a.822.822,0,0,0,.54,1.03" transform="translate(-125.617 -50.936)" fill="#262e61"/>
          <path id="Trazado_20272" data-name="Trazado 20272" d="M217.227,83.99a.388.388,0,1,0,.5-.305.415.415,0,0,0-.5.305" transform="translate(-131.914 -53.695)" fill="#fff"/>
          <path id="Trazado_20273" data-name="Trazado 20273" d="M220.265,85.37l.744.232a.411.411,0,0,0,.515-.269l.017-.055a.411.411,0,0,0-.269-.515l-.744-.232a.411.411,0,0,0-.515.271l-.017.054a.41.41,0,0,0,.269.515" transform="translate(-133.597 -54.207)" fill="#3d4a9c"/>
          <path id="Trazado_20274" data-name="Trazado 20274" d="M216.265,92.713a11.655,11.655,0,0,0-.29-1.4,5.381,5.381,0,0,0-.5-1.255,2.686,2.686,0,0,0-.812-.915,3.525,3.525,0,0,0-1.24-.463.54.54,0,0,1,.162-1.065h.011a4.673,4.673,0,0,1,1.687.442,4.025,4.025,0,0,1,1.375,1.213,6.851,6.851,0,0,1,.821,1.518,13.29,13.29,0,0,1,.514,1.572.884.884,0,1,1-1.7.468c-.008-.03-.015-.062-.02-.093Z" transform="translate(-129.357 -56.09)" fill="#fabf66"/>
          <path id="Trazado_20275" data-name="Trazado 20275" d="M213.082,97a6.731,6.731,0,0,0-.386-1.472,2.841,2.841,0,0,0-.749-1.112,1.3,1.3,0,0,0-1.079-.318,2.055,2.055,0,0,0-1.137.664l-.008.009a.539.539,0,0,1-.83-.686,3.214,3.214,0,0,1,1.695-1.2,2.641,2.641,0,0,1,2.188.381,4.259,4.259,0,0,1,1.355,1.578,8.3,8.3,0,0,1,.679,1.808.883.883,0,0,1-1.7.486.754.754,0,0,1-.019-.081Z" transform="translate(-126.801 -59.232)" fill="#fabf66"/>
          <path id="Trazado_20276" data-name="Trazado 20276" d="M212.424,100.246a6.764,6.764,0,0,0-.387-1.472,2.856,2.856,0,0,0-.748-1.112,1.3,1.3,0,0,0-1.08-.318,2.051,2.051,0,0,0-1.137.664l-.008.009a.539.539,0,0,1-.831-.686,3.214,3.214,0,0,1,1.7-1.2,2.64,2.64,0,0,1,2.188.381,4.262,4.262,0,0,1,1.355,1.578,8.328,8.328,0,0,1,.679,1.807.883.883,0,1,1-1.7.487.777.777,0,0,1-.019-.081Z" transform="translate(-126.401 -61.202)" fill="#fabf66"/>
          <path id="Trazado_20277" data-name="Trazado 20277" d="M212.864,103.412a11.326,11.326,0,0,0-.482-1.26,4.872,4.872,0,0,0-.649-1.08,1.56,1.56,0,0,0-.8-.582,1.085,1.085,0,0,0-.895.257l-.033.025a.539.539,0,0,1-.685-.829,2.666,2.666,0,0,1,.764-.524,2.057,2.057,0,0,1,1-.169,2.811,2.811,0,0,1,1.675.84,6.2,6.2,0,0,1,1.02,1.3,13.015,13.015,0,0,1,.731,1.388.884.884,0,1,1-1.6.75.872.872,0,0,1-.038-.095Z" transform="translate(-127.019 -63.152)" fill="#fabf66"/>
          <path id="Trazado_20278" data-name="Trazado 20278" d="M219.314,103.034s.561-5.34-1.273-8.251c-1.8-2.864-4.906,2.89-3.531,5.556.708,1.375,1.623,1.216,1.3,3.2Z" transform="translate(-130.07 -59.971)" fill="#fabf66"/>
          <path id="Trazado_20279" data-name="Trazado 20279" d="M212.216,99.25a1.948,1.948,0,0,0-2.813.619" transform="translate(-127.176 -62.942)" fill="#f7bf69"/>
          <path id="Trazado_20280" data-name="Trazado 20280" d="M212.216,99.25a1.948,1.948,0,0,0-2.813.619" transform="translate(-127.176 -62.942)" fill="none" stroke="#fc9400" stroke-linecap="round" stroke-width="0.832"/>
          <path id="Trazado_20281" data-name="Trazado 20281" d="M212.988,95.769s-1.7-1.782-3.389.483" transform="translate(-127.295 -60.639)" fill="#f7bf69"/>
          <path id="Trazado_20282" data-name="Trazado 20282" d="M212.988,95.769s-1.7-1.782-3.389.483" transform="translate(-127.295 -60.639)" fill="none" stroke="#fc9400" stroke-linecap="round" stroke-width="0.832"/>
          <path id="Trazado_20283" data-name="Trazado 20283" d="M168.533,195.233A12.737,12.737,0,1,1,155.8,182.5h16.982s-4.245,8.472-4.245,12.738" transform="translate(-86.883 -113.715)" fill="#0f995c"/>
          <path id="Trazado_20284" data-name="Trazado 20284" d="M67.211,153.217H16.917V138.129a25.146,25.146,0,0,1,25.147-25.147H57.152s10.059,16.42,10.059,25.147Z" transform="translate(-10.274 -71.498)" fill="#0f995c"/>
          <path id="Trazado_20285" data-name="Trazado 20285" d="M105.637,157.615H55.342V138.129a25.147,25.147,0,0,1,50.295,0Z" transform="translate(-33.611 -71.498)" fill="#33ba6b"/>
          <path id="Trazado_20286" data-name="Trazado 20286" d="M186.354,195.233A12.737,12.737,0,1,0,199.091,182.5a12.738,12.738,0,0,0-12.737,12.738" transform="translate(-113.178 -113.715)" fill="#57cc82"/>
          <path id="Trazado_20287" data-name="Trazado 20287" d="M190.24,251.08h17.386a2.731,2.731,0,0,0,2.732-2.732V214.933H190.24Z" transform="translate(-115.538 -133.415)" fill="#57cc82"/>
          <path id="Trazado_20288" data-name="Trazado 20288" d="M121.485,255.654H55.343v-23.5s5.072-9.6,35.227-9.6a114.359,114.359,0,0,1,11.489.537c13.5,1.362,23.739,11.882,23.739,24.45v3.8a4.313,4.313,0,0,1-4.313,4.313" transform="translate(-33.611 -138.045)" fill="#33ba6b"/>
          <path id="Trazado_20289" data-name="Trazado 20289" d="M25.475,195.233A12.737,12.737,0,1,1,12.737,182.5H34.142s-8.667,8.472-8.667,12.738" transform="translate(0 -113.715)" fill="#0f995c"/>
          <path id="Trazado_20290" data-name="Trazado 20290" d="M46.338,251.08H19.647a2.732,2.732,0,0,1-2.732-2.732V214.933H46.338Z" transform="translate(-10.273 -133.415)" fill="#0f995c"/>
          <rect id="Rectángulo_6104" data-name="Rectángulo 6104" width="7.036" height="4.181" transform="translate(59.58 117.609)" fill="#087861"/>
          <rect id="Rectángulo_6105" data-name="Rectángulo 6105" width="7.036" height="4.181" transform="translate(80.225 117.609)" fill="#087861"/>
          <path id="Trazado_20291" data-name="Trazado 20291" d="M160.017,199.809l2.962.894c1.041.319,2.111.668,3.182,1.061a35.711,35.711,0,0,1,6.43,3.031,21.158,21.158,0,0,1,5.8,5.09,16.728,16.728,0,0,1,2.062,3.5l.374.944.3.9c.177.6.346,1.193.467,1.787a30.233,30.233,0,0,1,.646,6.946,49.952,49.952,0,0,1-.563,6.571c-.315,2.136-.734,4.224-1.191,6.272l-.7,3.028c-.227.978-.467,2-.595,2.8l-.019.114a2.349,2.349,0,0,1-4.665-.475c.054-1.249.188-2.252.3-3.3l.346-3.048c.213-2.009.376-3.992.439-5.951a43.214,43.214,0,0,0-.162-5.746,23.076,23.076,0,0,0-1.091-5.236c-.132-.4-.294-.781-.453-1.154l-.254-.543-.254-.463a8.774,8.774,0,0,0-1.29-1.662,12.859,12.859,0,0,0-3.8-2.547,26.865,26.865,0,0,0-4.959-1.646c-.893-.214-1.809-.4-2.762-.578l-3.034-.549a5.178,5.178,0,1,1,2.414-10.054Z" transform="translate(-93.086 -124.083)" fill="#121a40"/>
          <path id="Trazado_20292" data-name="Trazado 20292" d="M165.916,115.368l.393.539c.248.335.6.814,1.032,1.366a30.3,30.3,0,0,0,3.281,3.639c.3.278.609.532.9.763a10.04,10.04,0,0,0,.836.591,6.474,6.474,0,0,0,.7.385,4.267,4.267,0,0,0,.513.209,2.6,2.6,0,0,0,.339.09,2.044,2.044,0,0,0,.23.029c.063,0,.116,0,.152,0l.057,0s-.89,7.585-1.533,7.552a10.889,10.889,0,0,1-1.971-.282,13.257,13.257,0,0,1-1.939-.624,18.815,18.815,0,0,1-3.48-1.886,28.49,28.49,0,0,1-2.859-2.218c-.848-.738-1.58-1.456-2.19-2.077s-1.093-1.154-1.425-1.529l-.509-.583a4.78,4.78,0,0,1,7.195-6.3c.092.1.179.214.261.326Z" transform="translate(-95.512 -71.748)" fill="#262e61"/>
          <path id="Trazado_20293" data-name="Trazado 20293" d="M188.82,130.286l3.358,2.892-1.465,7.6-4.494.174Z" transform="translate(-113.096 -82.007)" fill="#fff"/>
          <path id="Trazado_20294" data-name="Trazado 20294" d="M138.923,21.667c-.04-4.843-3.38-8.759-8.633-8.759-5.28,0-9.52,3.953-9.52,8.828,0,.34.283,4.557.386,4.882,1.675,5.245,9.133,8.828,9.133,8.828a17.137,17.137,0,0,0,8.037-8.06Z" transform="translate(-73.347 -10.72)" fill="#3d4a9c"/>
          <path id="Trazado_20295" data-name="Trazado 20295" d="M140.46,28.886c-.035-4.457-2.772-8.06-7.237-8.06-5.915,0-9.008,3.638-9.008,8.124,0,.313,1.019,5.484,1.094,5.788,1.157,4.69,2.541,7.394,7.028,7.394,4.249,0,7.183-2.476,7.47-7.394Z" transform="translate(-75.439 -15.529)" fill="#f7bf69"/>
          <path id="Trazado_20296" data-name="Trazado 20296" d="M136.875,74.05c-1.224-3.191,1.059-7.212,2.038-9.817H125.88c.9,1.737,2.608,6.861,1.265,9.817a45,45,0,0,1-3.432,5.371h16.594a31.919,31.919,0,0,1-3.432-5.371" transform="translate(-75.134 -41.891)" fill="#f7bf69"/>
          <path id="Trazado_20297" data-name="Trazado 20297" d="M127.363,22.106c.2,5.66-2.13,4.108-2.56,8.131l-2.471-.673,1.02-6.048,2.969-3.481Z" transform="translate(-74.295 -15.049)" fill="#3d4a9c"/>
          <path id="Trazado_20298" data-name="Trazado 20298" d="M159.111,45.48a1.573,1.573,0,0,1,1.568-1.6,1.634,1.634,0,0,1,1.639,1.6,1.68,1.68,0,0,1-1.49,1.594l-1.615-.033s-.1-1.433-.1-1.561" transform="translate(-96.632 -29.532)" fill="#f7bf69"/>
          <path id="Trazado_20299" data-name="Trazado 20299" d="M162.006,28.586c1.109,1.659.913,4.142.905,7.988a2.7,2.7,0,0,0,.542-1.531c.072-2.084.348-7.233-1.447-6.457" transform="translate(-98.39 -20.194)" fill="#3d4a9c"/>
          <path id="Trazado_20300" data-name="Trazado 20300" d="M125.18,45.48a1.573,1.573,0,0,0-1.568-1.6,1.634,1.634,0,0,0-1.639,1.6,1.68,1.68,0,0,0,1.489,1.594l1.615-.033s.1-1.433.1-1.561" transform="translate(-74.077 -29.532)" fill="#f7bf69"/>
          <path id="Trazado_20301" data-name="Trazado 20301" d="M125.436,46.654a.507.507,0,1,1-.507.507.508.508,0,0,1,.507-.507" transform="translate(-75.873 -31.215)" fill="#fc9400"/>
          <path id="Trazado_20302" data-name="Trazado 20302" d="M137.23,196.411s-2.788-1.917-4.83-2.048c-2.292-.146-4.345-.474-5.291,1.472h-5.315c-.946-1.946-3-1.619-5.29-1.472-2.043.131-4.943,2.048-4.943,2.048s-2.616,10.758,8.05,10.306h8.733c10.751.834,8.886-10.306,8.886-10.306" transform="translate(-67.582 -120.852)" fill="#121a40"/>
          <path id="Trazado_20303" data-name="Trazado 20303" d="M176.924,306.393l.051-1.63h4.964a36.225,36.225,0,0,1,3.38,2.012c1.005.688,4.833,1.188,5.069,1.662a1.366,1.366,0,0,1,.1.289,1.449,1.449,0,0,1-1.058,1.754c-.207.051-5-.1-5.345-.172-2.652-.525-6.781-1.4-6.781-1.4-.527-.5-.41-1.729-.384-2.517" transform="translate(-107.433 -187.971)" fill="#121a40"/>
          <path id="Trazado_20304" data-name="Trazado 20304" d="M207.295,306.83l.05-1.63H212.1a29.248,29.248,0,0,1,3.588,2.012c1.005.687,4.834,1.188,5.069,1.662a1.37,1.37,0,0,1,.1.288,1.448,1.448,0,0,1-1.058,1.754c-.207.051-5-.1-5.345-.171-2.652-.524-6.781-1.4-6.781-1.4-.527-.5-.41-1.729-.384-2.516" transform="translate(-125.878 -188.237)" fill="#121a40"/>
          <path id="Trazado_20305" data-name="Trazado 20305" d="M129.843,91.149h-1.574l-.234,3.985-2.306-3.985h-6.546c-.818,1.31-6.707,8.812-7.716,10.29,0,0-.218,21.028.172,32.358h25.669c.23-9.4.339-32.358.339-32.358-.921-1.273-6.946-8.974-7.8-10.29" transform="translate(-67.659 -58.238)" fill="#262e61"/>
          <line id="Línea_159" data-name="Línea 159" y2="39.146" transform="translate(60.396 36.414)" fill="none" stroke="#3d4a9c" stroke-width="1.475"/>
          <path id="Trazado_20306" data-name="Trazado 20306" d="M141.754,94.977l3.057,2.6v38.542" transform="translate(-86.091 -60.563)" fill="none" stroke="#3d4a9c" stroke-width="0.984"/>
          <path id="Trazado_20307" data-name="Trazado 20307" d="M151.394,104.232a.29.29,0,1,1-.29-.289.289.289,0,0,1,.29.289" transform="translate(-91.594 -66.008)" fill="#3d4a9c"/>
          <path id="Trazado_20308" data-name="Trazado 20308" d="M151.394,124.7a.29.29,0,1,1-.29-.289.29.29,0,0,1,.29.289" transform="translate(-91.594 -78.44)" fill="#3d4a9c"/>
          <path id="Trazado_20309" data-name="Trazado 20309" d="M151.394,145.042a.29.29,0,1,1-.29-.289.29.29,0,0,1,.29.289" transform="translate(-91.594 -90.793)" fill="#3d4a9c"/>
          <path id="Trazado_20310" data-name="Trazado 20310" d="M151.394,162.739a.29.29,0,1,1-.29-.289.29.29,0,0,1,.29.289" transform="translate(-91.594 -101.541)" fill="#3d4a9c"/>
          <path id="Trazado_20311" data-name="Trazado 20311" d="M151.394,179.805a.29.29,0,1,1-.29-.289.29.29,0,0,1,.29.289" transform="translate(-91.594 -111.905)" fill="#3d4a9c"/>
          <path id="Trazado_20312" data-name="Trazado 20312" d="M135.917,91.149l-1.1,3.6-6.609-2.044,1.183-1.559Z" transform="translate(-77.867 -58.237)" fill="#fff"/>
          <path id="Trazado_20313" data-name="Trazado 20313" d="M154.352,91.149l1.429,3.6,1.3-2.105-1.148-1.5Z" transform="translate(-93.742 -58.238)" fill="#fff"/>
          <path id="Trazado_20314" data-name="Trazado 20314" d="M158.546,199.758v10.306m-2.135-10.306v10.306" transform="translate(-94.992 -124.199)" fill="none" stroke="#262e61" stroke-width="1.372"/>
          <path id="Trazado_20315" data-name="Trazado 20315" d="M128.841,36.04l.13,6.061s-.917.049-1.185-1.632a36.732,36.732,0,0,1-.326-3.95Z" transform="translate(-77.41 -24.769)" fill="#3d4a9c"/>
          <path id="Trazado_20316" data-name="Trazado 20316" d="M177.914,139.5c.063-2.964.079-5.686-.038-6.721" transform="translate(-108.029 -83.523)" fill="none" stroke="#3d4a9c" stroke-linecap="round" stroke-width="1.475"/>
          <path id="Trazado_20317" data-name="Trazado 20317" d="M152.508,34.654a2.582,2.582,0,0,0-1.188-.3,2.047,2.047,0,0,0-1.165.33c-1.047.788-1.143,2.793-.584,4.3.185.5.569.855.6,1.492.028.519-.271,1.108-1.241,1.108a1.128,1.128,0,0,1-1.242-1.01" transform="translate(-89.697 -23.744)" fill="none" stroke="#fc9400" stroke-linecap="round" stroke-width="1.2"/>
          <path id="Trazado_20318" data-name="Trazado 20318" d="M147.609,34.654a2.581,2.581,0,0,0-1.188-.3,2.046,2.046,0,0,0-1.165.33m-3.277-.029a2.583,2.583,0,0,0-1.188-.3,2.051,2.051,0,0,0-1.167.33" transform="translate(-84.797 -23.744)" fill="none" stroke="#262e61" stroke-linecap="round" stroke-width="1.969"/>
          <path id="Trazado_20319" data-name="Trazado 20319" d="M155.839,42.738h0a.567.567,0,0,1-.566-.565v-.463a.566.566,0,1,1,1.131,0v.463a.567.567,0,0,1-.565.565" transform="translate(-94.301 -27.868)" fill="#262e61"/>
          <path id="Trazado_20320" data-name="Trazado 20320" d="M141.746,42.738h0a.568.568,0,0,1-.567-.565v-.463a.566.566,0,0,1,1.132,0v.463a.567.567,0,0,1-.565.565" transform="translate(-85.742 -27.868)" fill="#262e61"/>
          <path id="Trazado_20321" data-name="Trazado 20321" d="M146.664,56.254c-1.275.671-7.006.708-8.223.1,0,0,1.053,3.523,4.081,3.523,3.09,0,4.143-3.618,4.143-3.618" transform="translate(-84.079 -37.045)" fill="#212963"/>
          <path id="Trazado_20322" data-name="Trazado 20322" d="M140.07,56.875a4.064,4.064,0,0,0,3.441,2.159,4.127,4.127,0,0,0,3.512-2.239,22.034,22.034,0,0,1-6.953.08" transform="translate(-85.068 -37.374)" fill="#fff"/>
          <path id="Trazado_20323" data-name="Trazado 20323" d="M145.369,64.185a3.612,3.612,0,0,0,2.319-.831,26.086,26.086,0,0,1-4.56.051,3.571,3.571,0,0,0,2.241.78" transform="translate(-86.925 -41.357)" fill="#fff"/>
          <path id="Trazado_20324" data-name="Trazado 20324" d="M133.829,14.756c3.969-1.812,4.862-2.687,9.794-.146,1.97,1.014,6.5-3.426.911-7.273.267.8.96,2.556-3.718,1.087-4.55-1.429-9.994,1.928-6.987,6.333" transform="translate(-80.753 -7.336)" fill="#262e61"/>
          <path id="Trazado_20325" data-name="Trazado 20325" d="M125.251,200.281c2.012.517,4.21,1.085,6.4,1.835a39.733,39.733,0,0,1,6.561,2.844,28.33,28.33,0,0,1,5.992,4.432,24.5,24.5,0,0,1,2.5,2.839c.373.507.737,1.02,1.069,1.551.174.262.332.531.488.8l.235.4c.033.056.089.161.14.257l.152.291a10.729,10.729,0,0,1,.495,1.132c.115.355.249.726.329,1.066s.172.691.227,1.018.114.659.156.979a25.5,25.5,0,0,1,.186,3.655,50.417,50.417,0,0,1-.622,6.738,91.486,91.486,0,0,1-3.007,12.695,2.471,2.471,0,0,1-4.786-1.2l.006-.032a86.079,86.079,0,0,0,1.46-12.114,43.737,43.737,0,0,0-.078-5.857A17.969,17.969,0,0,0,142.74,221c-.047-.2-.1-.392-.157-.567s-.116-.347-.176-.506-.128-.282-.185-.425a2.6,2.6,0,0,0-.181-.289l-.1-.137-.195-.257c-.128-.171-.255-.344-.4-.5-.266-.334-.553-.647-.841-.957a16.18,16.18,0,0,0-1.884-1.689,19.645,19.645,0,0,0-4.472-2.547,32,32,0,0,0-5.211-1.64c-1.846-.425-3.764-.736-5.865-1.1a5.173,5.173,0,0,1,1.742-10.2q.206.035.406.086Z" transform="translate(-72.137 -124.415)" fill="#121a40"/>
          <rect id="Rectángulo_6106" data-name="Rectángulo 6106" width="25.695" height="2.27" transform="translate(43.966 73.865)" fill="#087861"/>
          <path id="Trazado_20326" data-name="Trazado 20326" d="M148.168,194.546a.773.773,0,0,1,.773.773v.723a.773.773,0,0,1-.773.773H145.16a.773.773,0,0,1-.774-.773v-.723a.773.773,0,0,1,.774-.773Zm0-.579H145.16a1.353,1.353,0,0,0-1.353,1.352v.723a1.353,1.353,0,0,0,1.353,1.352h3.009a1.353,1.353,0,0,0,1.352-1.352v-.723a1.353,1.353,0,0,0-1.352-1.352" transform="translate(-87.338 -120.682)" fill="#fff"/>
          <line id="Línea_160" data-name="Línea 160" x1="1.835" transform="translate(59.769 74.999)" fill="none" stroke="#fff" stroke-linecap="round" stroke-width="1.475"/>
          <path id="Trazado_20327" data-name="Trazado 20327" d="M101.412,120.552c-.533.729-1.012,1.323-1.5,1.912l-1.429,1.711c-.934,1.122-1.864,2.209-2.751,3.305s-1.739,2.192-2.519,3.285a24.923,24.923,0,0,0-2.01,3.187,8.139,8.139,0,0,0-.533,1.276c-.048.152-.066.255-.084.256s-.045-.109-.154-.274a1.209,1.209,0,0,0-.193-.233c-.036-.033-.076-.06-.1-.082l-.026-.015c-.006,0-.029-.018,0,.007l.1.1.776.788,1.562,1.583q1.576,1.586,3.1,3.283a40.992,40.992,0,0,1,2.934,3.587,1.816,1.816,0,0,1-2.547,2.528L96,146.728c-2.257-1.663-4.727-3.161-7.2-4.733l-1.87-1.176-.94-.592-.117-.074a1.178,1.178,0,0,1-.107-.082l-.128-.106a4.954,4.954,0,0,1-.494-.471,5.654,5.654,0,0,1-.815-1.136,6.283,6.283,0,0,1-.708-2.389,8.28,8.28,0,0,1,.051-1.937,13.842,13.842,0,0,1,.77-2.92,31.4,31.4,0,0,1,2.192-4.54c.8-1.384,1.641-2.685,2.493-3.956s1.717-2.506,2.583-3.7l1.269-1.77c.4-.576.815-1.151,1.117-1.628a4.446,4.446,0,1,1,7.512,4.757c-.051.081-.1.16-.16.236Z" transform="translate(-50.762 -71.78)" fill="#fabf66"/>
          <path id="Trazado_20328" data-name="Trazado 20328" d="M106.234,119.728c-.777,1.056-1.506,1.893-2.2,2.7s-1.35,1.546-1.977,2.294a41.1,41.1,0,0,0-3.347,4.526l-.027.043a4.166,4.166,0,0,1-7.183-4.214,49.436,49.436,0,0,1,3.693-5.731c.651-.885,1.313-1.741,1.932-2.551s1.2-1.582,1.606-2.228a4.557,4.557,0,1,1,7.7,4.882c-.055.086-.112.169-.17.249Z" transform="translate(-55.266 -71.173)" fill="#262e61"/>
          <path id="Trazado_20329" data-name="Trazado 20329" d="M96.881,149.163l-2.759,2.777-7.3-3.021.647-4.33Z" transform="translate(-52.731 -90.693)" fill="#fff"/>
          <path id="Trazado_20330" data-name="Trazado 20330" d="M116.99,201.132a4.781,4.781,0,0,0,.589-.577,6.338,6.338,0,0,0,.463-.615c.141-.209.259-.42.374-.633a8.588,8.588,0,0,0,.549-1.3c.075-.221.136-.445.195-.676.029-.116.055-.232.078-.357s.045-.249.065-.417l.008-.084.007-.115,0-.053v-.134c0-.073-.005-.146-.011-.22l-.024-.195a3.914,3.914,0,0,0-.154-.646,5.033,5.033,0,0,0-.406-.892,7.427,7.427,0,0,0-.885-1.208c-.15-.172-.307-.329-.462-.481s-.315-.294-.476-.43-.222-.22-.39-.339l-3.325,1.01a2.171,2.171,0,0,0,.22.929h0c.092.189.2.364.3.534s.207.331.312.49.21.31.315.457l.3.427c.192.275.378.533.494.727.056.082.092.152.106.169l-.009.128-.046.489c-.038.328-.075.66-.122.979s-.094.627-.145.914l-.148.772-.113.585a1.135,1.135,0,0,0,1.581,1.249,3.391,3.391,0,0,0,.757-.482" transform="translate(-68.743 -119.339)" fill="#fabf66"/>
          <path id="Trazado_20331" data-name="Trazado 20331" d="M118.65,210.223a12.348,12.348,0,0,0,.976-4.142m.2,3.887a8.857,8.857,0,0,0,.853-3.5" transform="translate(-72.059 -128.039)" fill="none" stroke="#fc9400" stroke-linecap="round" stroke-width="0.953"/>
          <path id="Trazado_20332" data-name="Trazado 20332" d="M110.852,145.759s1.645-3.56,3.013-5.906" transform="translate(-67.323 -87.817)" fill="none" stroke="#3d4a9c" stroke-linecap="round" stroke-width="1.475"/>
          <path id="Trazado_20333" data-name="Trazado 20333" d="M79.983,195.233A12.737,12.737,0,1,1,67.246,182.5a12.738,12.738,0,0,1,12.737,12.738" transform="translate(-33.104 -113.715)" fill="#57cc82"/>
          <path id="Trazado_20334" data-name="Trazado 20334" d="M88.946,251.08h-7.7a5.565,5.565,0,0,1-5.565-5.565V214.933H92.844v32.249a3.9,3.9,0,0,1-3.9,3.9" transform="translate(-45.965 -133.415)" fill="#57cc82"/>
          <rect id="Rectángulo_6107" data-name="Rectángulo 6107" width="7.036" height="4.181" transform="translate(14.695 117.609)" fill="#087861"/>
          <rect id="Rectángulo_6108" data-name="Rectángulo 6108" width="7.036" height="4.181" transform="translate(36.065 117.609)" fill="#087861"/>
        </g>
      </g>
    </g>
  </g>
</svg>
