<svg xmlns="http://www.w3.org/2000/svg" xmlns:xlink="http://www.w3.org/1999/xlink" width="807" height="602" viewBox="0 0 807 602">
  <defs>
    <clipPath id="clip-path">
      <rect id="Rectángulo_5886" data-name="Rectángulo 5886" width="807" height="602" transform="translate(1094 141)" fill="#fff"/>
    </clipPath>
  </defs>
  <g id="Enmascarar_grupo_30" data-name="Enmascarar grupo 30" transform="translate(-1094 -141)" clip-path="url(#clip-path)">
    <g id="Grupo_22305" data-name="Grupo 22305" transform="translate(1056 225.478)">
      <g id="Grupo_22307" data-name="Grupo 22307" transform="translate(36.455 -21)" opacity="0.4">
        <path id="Trazado_20135" data-name="Trazado 20135" d="M270.642,49.836H425.027a3.48,3.48,0,0,0,0-6.961H270.642Z" transform="translate(344.684 4.583)" fill="#087861"/>
        <path id="Trazado_20136" data-name="Trazado 20136" d="M305,71.581h25.057V9.779a4.175,4.175,0,0,0-4.173-4.171H309.171A4.171,4.171,0,0,0,305,9.779Z" transform="translate(382.302 -24.125)" fill="#57cc82"/>
        <rect id="Rectángulo_5871" data-name="Rectángulo 5871" width="19.713" height="54.515" transform="translate(667.588 -7.057)" fill="#0f995c"/>
        <rect id="Rectángulo_5872" data-name="Rectángulo 5872" width="19.713" height="54.515" transform="translate(624.555 -7.057)" fill="#8fe8b0"/>
        <path id="Trazado_20137" data-name="Trazado 20137" d="M330.291,75.9h23.321V4.171A4.174,4.174,0,0,0,349.44,0H334.462a4.171,4.171,0,0,0-4.171,4.171Z" transform="translate(313.98 -28.445)" fill="#57cc82"/>
        <rect id="Rectángulo_5873" data-name="Rectángulo 5873" width="23.32" height="7.373" transform="translate(644.269 -18.118)" fill="#0f995c"/>
        <rect id="Rectángulo_5874" data-name="Rectángulo 5874" width="25.139" height="7.373" transform="translate(687.302 33.134)" fill="#0f995c"/>
        <rect id="Rectángulo_5875" data-name="Rectángulo 5875" width="25.139" height="7.372" transform="translate(687.302 -10.745)" fill="#0f995c"/>
        <line id="Línea_74" data-name="Línea 74" y1="22.837" transform="translate(750.874 7.442)" fill="none" stroke="#087861" stroke-linecap="round" stroke-width="1.412"/>
        <path id="Trazado_20138" data-name="Trazado 20138" d="M295.306,33.574s.418-8.5-10.418-8.5c0,0-1.673,8.5,10.418,8.5" transform="translate(452.802 -9.127)" fill="#087861"/>
        <path id="Trazado_20139" data-name="Trazado 20139" d="M295.306,27.535s.418-8.5-10.418-8.5c0,0-1.673,8.5,10.418,8.5" transform="translate(452.802 -13.779)" fill="#087861"/>
        <path id="Trazado_20140" data-name="Trazado 20140" d="M275.768,33.574s-.414-8.5,10.422-8.5c0,0,1.671,8.5-10.422,8.5" transform="translate(477.851 -9.127)" fill="#087861"/>
        <path id="Trazado_20141" data-name="Trazado 20141" d="M275.768,27.535s-.414-8.5,10.422-8.5c0,0,1.671,8.5-10.422,8.5" transform="translate(477.851 -13.779)" fill="#087861"/>
        <path id="Trazado_20142" data-name="Trazado 20142" d="M294.352,49.029l3.245-13.2a1.648,1.648,0,0,0-1.6-2.046H278.759a1.652,1.652,0,0,0-1.606,2.046l3.252,13.2Z" transform="translate(464.101 -2.421)" fill="#fff"/>
        <path id="Trazado_20143" data-name="Trazado 20143" d="M279.128,35a.808.808,0,0,0-.783,1l3.089,12.555h12.621L297.144,36a.788.788,0,0,0-.147-.69.8.8,0,0,0-.636-.312Zm0-1.7h17.234a2.5,2.5,0,0,1,2.429,3.1l-3.41,13.851H280.1L276.7,36.4a2.5,2.5,0,0,1,2.429-3.1" transform="translate(463.732 -2.792)" fill="#8fe8b0"/>
      </g>
      <g id="Grupo_22306" data-name="Grupo 22306" transform="translate(178 4.052)" opacity="0.4">
        <rect id="Rectángulo_5881" data-name="Rectángulo 5881" width="12.966" height="196.943" transform="translate(183.388 365.122)" fill="#0f995c"/>
        <rect id="Rectángulo_5882" data-name="Rectángulo 5882" width="12.961" height="196.943" transform="translate(58.995 365.122)" fill="#0f995c"/>
        <path id="Trazado_20210" data-name="Trazado 20210" d="M346.688,217.929H540a11.243,11.243,0,0,0,0-22.487H346.688a11.243,11.243,0,1,0,0,22.487" transform="translate(-335.445 150.554)" fill="#087861"/>
        <rect id="Rectángulo_5883" data-name="Rectángulo 5883" width="12.966" height="196.943" transform="translate(146.24 365.122)" fill="#087861"/>
        <rect id="Rectángulo_5884" data-name="Rectángulo 5884" width="12.961" height="196.943" transform="translate(23.307 365.122)" fill="#087861"/>
        <rect id="Rectángulo_5885" data-name="Rectángulo 5885" width="7.287" height="22.605" transform="translate(162.767 241.863)" fill="#8fe8b0"/>
        <path id="Trazado_20211" data-name="Trazado 20211" d="M341.006,186.916a39.543,39.543,0,1,0,39.542-39.542,39.545,39.545,0,0,0-39.542,39.542" transform="translate(-214.139 113.526)" fill="#57cc82"/>
        <path id="Trazado_20212" data-name="Trazado 20212" d="M352.066,199.845H392l-2.369-10.119H354.433Z" transform="translate(-205.623 146.15)" fill="#8fe8b0"/>
        <path id="Trazado_20213" data-name="Trazado 20213" d="M445.212,165.652l-8.328-59.185H339.447l-8.328,59.185Z" transform="translate(-221.757 82.014)" fill="#fff"/>
        <path id="Trazado_20214" data-name="Trazado 20214" d="M341.191,108.29l-7.972,56.645H444.385l-7.972-56.645Zm-2.211-2.54h99.643l8.689,61.724H330.293Z" transform="translate(-222.393 81.462)" fill="#8fe8b0"/>
      </g>
      <g id="Grupo_22308" data-name="Grupo 22308">
        <path id="Trazado_20144" data-name="Trazado 20144" d="M242.594,133.2c-3.3,3.953-6.6,7.828-10.055,11.39a107.4,107.4,0,0,1-10.45,9.827,53.788,53.788,0,0,1-10.192,6.711,20.173,20.173,0,0,1-4.111,1.464,9.4,9.4,0,0,1-2.972.253,10.186,10.186,0,0,1-3.541-1.152,16.757,16.757,0,0,1-3.958-2.926c-2.647-2.551-5.026-6.371-7.149-10.71a107.7,107.7,0,0,1-5.522-14.449l-2.54-8c-.869-2.763-1.763-5.587-3.079-8.747a7.559,7.559,0,0,0-14.476,3.856l.073.565c.278,2.2.487,4.872.69,7.6l.644,8.48a127.985,127.985,0,0,0,2.85,18.036,60.28,60.28,0,0,0,8.039,19.063,44.075,44.075,0,0,0,7.812,8.961,27.926,27.926,0,0,0,2.434,1.962,30.3,30.3,0,0,0,2.606,1.793l1.347.839c.487.274,1.025.538,1.538.8a26.8,26.8,0,0,0,3.222,1.4,37.726,37.726,0,0,0,13.57,2.372,47.815,47.815,0,0,0,12.316-1.774,74.719,74.719,0,0,0,19.47-8.77c11.316-7.021,20.555-15.227,29.051-23.869a18.634,18.634,0,1,0-26.581-26.123c-.347.354-.676.715-.991,1.09Z" transform="translate(242.888 86.434)" fill="#fabf66"/>
        <path id="Trazado_20145" data-name="Trazado 20145" d="M238.032,124.212l-16.076,5.021a3.713,3.713,0,0,1-4.644-2.434L205.343,88.444a3.706,3.706,0,0,1,2.434-4.644l16.069-5.019a3.707,3.707,0,0,1,4.644,2.432l11.976,38.354a3.706,3.706,0,0,1-2.434,4.644" transform="translate(205.785 60.557)" fill="#121a40"/>
        <path id="Trazado_20146" data-name="Trazado 20146" d="M239.694,124.726l-16.075,5.021a3.712,3.712,0,0,1-4.644-2.434L207.005,88.959a3.706,3.706,0,0,1,2.434-4.644l16.069-5.021a3.71,3.71,0,0,1,4.644,2.434l11.976,38.354a3.7,3.7,0,0,1-2.434,4.644" transform="translate(201.179 60.952)" fill="#262e61"/>
        <path id="Trazado_20147" data-name="Trazado 20147" d="M220.613,85.115a1.748,1.748,0,1,1-2.247-1.376,1.869,1.869,0,0,1,2.247,1.376" transform="translate(204.407 64.453)" fill="#fff"/>
        <path id="Trazado_20148" data-name="Trazado 20148" d="M225.812,88.381l-3.353,1.048a1.854,1.854,0,0,1-2.323-1.214l-.076-.25a1.854,1.854,0,0,1,1.214-2.321L224.63,84.6a1.851,1.851,0,0,1,2.321,1.22l.076.244a1.849,1.849,0,0,1-1.214,2.321" transform="translate(193.102 65.101)" fill="#3d4a9c"/>
        <path id="Trazado_20149" data-name="Trazado 20149" d="M220.925,110.612a52.54,52.54,0,0,1,1.307-6.315,24.262,24.262,0,0,1,2.261-5.66,12.11,12.11,0,0,1,3.659-4.125,15.89,15.89,0,0,1,5.592-2.089,2.432,2.432,0,0,0-.731-4.8l-.051.005a21.069,21.069,0,0,0-7.605,1.992,18.149,18.149,0,0,0-6.2,5.47,30.891,30.891,0,0,0-3.7,6.846,59.92,59.92,0,0,0-2.316,7.087,3.983,3.983,0,1,0,7.681,2.112c.035-.135.066-.278.092-.421Z" transform="translate(196.904 67.489)" fill="#fabf66"/>
        <path id="Trazado_20150" data-name="Trazado 20150" d="M216.728,111.791a30.35,30.35,0,0,1,1.742-6.635,12.811,12.811,0,0,1,3.376-5.015,5.856,5.856,0,0,1,4.867-1.432,9.267,9.267,0,0,1,5.125,2.992l.037.041a2.431,2.431,0,0,0,3.742-3.095,14.489,14.489,0,0,0-7.641-5.426,11.907,11.907,0,0,0-9.866,1.717A19.2,19.2,0,0,0,212,102.052a37.437,37.437,0,0,0-3.063,8.152,3.982,3.982,0,0,0,7.657,2.19,3.411,3.411,0,0,0,.087-.365Z" transform="translate(203.928 71.475)" fill="#fabf66"/>
        <path id="Trazado_20151" data-name="Trazado 20151" d="M216.069,115.036a30.5,30.5,0,0,1,1.744-6.637,12.875,12.875,0,0,1,3.372-5.014,5.869,5.869,0,0,1,4.868-1.434,9.249,9.249,0,0,1,5.127,2.994l.035.041a2.432,2.432,0,0,0,3.744-3.095,14.491,14.491,0,0,0-7.642-5.426,11.9,11.9,0,0,0-9.866,1.717,19.216,19.216,0,0,0-6.108,7.113,37.547,37.547,0,0,0-3.063,8.149,3.983,3.983,0,1,0,7.657,2.2,3.516,3.516,0,0,0,.087-.365Z" transform="translate(205.751 73.974)" fill="#fabf66"/>
        <path id="Trazado_20152" data-name="Trazado 20152" d="M216.938,118.049a51.072,51.072,0,0,1,2.174-5.679,21.959,21.959,0,0,1,2.926-4.868,7.036,7.036,0,0,1,3.613-2.622,4.892,4.892,0,0,1,4.035,1.16l.147.112a2.428,2.428,0,0,0,3.089-3.739,12.016,12.016,0,0,0-3.445-2.363,9.275,9.275,0,0,0-4.511-.763,12.675,12.675,0,0,0-7.55,3.787,27.962,27.962,0,0,0-4.6,5.858,58.675,58.675,0,0,0-3.3,6.258,3.983,3.983,0,1,0,7.214,3.38,3.914,3.914,0,0,0,.172-.427Z" transform="translate(205.682 76.447)" fill="#fabf66"/>
        <path id="Trazado_20153" data-name="Trazado 20153" d="M214.533,134.717s-2.53-24.076,5.741-37.2c8.135-12.911,22.117,13.031,15.917,25.047-3.194,6.2-7.315,5.483-5.853,14.409Z" transform="translate(192.764 72.413)" fill="#fabf66"/>
        <path id="Trazado_20154" data-name="Trazado 20154" d="M209.4,100.5s6.4-5.051,12.683,2.79" transform="translate(216.847 76.181)" fill="#f7bf69"/>
        <path id="Trazado_20155" data-name="Trazado 20155" d="M209.4,100.5s6.4-5.051,12.683,2.79" transform="translate(216.847 76.181)" fill="none" stroke="#fc9400" stroke-linecap="round" stroke-width="0.832"/>
        <path id="Trazado_20156" data-name="Trazado 20156" d="M209.6,98.106s7.643-8.034,15.278,2.179" transform="translate(213.709 73.26)" fill="#f7bf69"/>
        <path id="Trazado_20157" data-name="Trazado 20157" d="M209.6,98.106s7.643-8.034,15.278,2.179" transform="translate(213.709 73.26)" fill="none" stroke="#fc9400" stroke-linecap="round" stroke-width="0.832"/>
        <path id="Trazado_20158" data-name="Trazado 20158" d="M162.2,239.923a57.425,57.425,0,1,0,57.422-57.428H143.058S162.2,220.688,162.2,239.923" transform="translate(279.338 140.58)" fill="#0f995c"/>
        <path id="Trazado_20159" data-name="Trazado 20159" d="M16.917,294.378H243.664V226.354A113.37,113.37,0,0,0,130.292,112.982H62.267s-45.35,74.026-45.35,113.372Z" transform="translate(536.032 87.033)" fill="#0f995c"/>
        <path id="Trazado_20160" data-name="Trazado 20160" d="M55.342,314.2H282.09V226.354a113.374,113.374,0,0,0-226.748,0Z" transform="translate(429.58 87.033)" fill="#33ba6b"/>
        <path id="Trazado_20161" data-name="Trazado 20161" d="M301.2,239.923a57.425,57.425,0,1,1-57.422-57.428A57.427,57.427,0,0,1,301.2,239.923" transform="translate(178.533 140.58)" fill="#57cc82"/>
        <path id="Trazado_20162" data-name="Trazado 20162" d="M280.941,377.9H202.556a12.313,12.313,0,0,1-12.316-12.316V214.933h90.7Z" transform="translate(191.917 165.568)" fill="#57cc82"/>
        <path id="Trazado_20163" data-name="Trazado 20163" d="M74.786,371.777h298.2V265.83s-22.867-43.274-158.816-43.274a515.568,515.568,0,0,0-51.8,2.42c-60.883,6.141-107.025,53.566-107.025,110.229v17.128a19.444,19.444,0,0,0,19.443,19.443" transform="translate(338.687 171.44)" fill="#33ba6b"/>
        <path id="Trazado_20164" data-name="Trazado 20164" d="M39.075,239.923A57.425,57.425,0,1,0,96.5,182.495H0s39.075,38.193,39.075,57.428" transform="translate(655.72 140.58)" fill="#0f995c"/>
        <path id="Trazado_20165" data-name="Trazado 20165" d="M16.915,377.9H137.247a12.319,12.319,0,0,0,12.316-12.316V214.933H16.915Z" transform="translate(630.135 165.568)" fill="#0f995c"/>
        <rect id="Rectángulo_5876" data-name="Rectángulo 5876" width="31.722" height="18.85" transform="translate(509.312 543.215)" fill="#087861"/>
        <rect id="Rectángulo_5877" data-name="Rectángulo 5877" width="31.722" height="18.85" transform="translate(416.237 543.215)" fill="#087861"/>
        <path id="Trazado_20166" data-name="Trazado 20166" d="M253.434,200.66l-13.352,4.029c-4.695,1.438-9.516,3.013-14.347,4.782a161,161,0,0,0-28.987,13.667,95.385,95.385,0,0,0-26.13,22.949,75.416,75.416,0,0,0-9.3,15.765l-1.685,4.254-1.333,4.049c-.8,2.687-1.56,5.38-2.107,8.059a136.3,136.3,0,0,0-2.912,31.317,225.2,225.2,0,0,0,2.54,29.625c1.422,9.629,3.307,19.043,5.369,28.276l3.156,13.651c1.025,4.41,2.1,9.013,2.682,12.615l.087.513a10.589,10.589,0,0,0,21.033-2.14c-.243-5.633-.848-10.155-1.365-14.88l-1.561-13.743c-.96-9.055-1.7-18-1.981-26.827a194.822,194.822,0,0,1,.731-25.905,104.037,104.037,0,0,1,4.918-23.605c.595-1.818,1.326-3.521,2.043-5.2l1.144-2.448,1.147-2.089a39.552,39.552,0,0,1,5.817-7.494,57.971,57.971,0,0,1,17.117-11.482,121.123,121.123,0,0,1,22.356-7.423c4.024-.965,8.154-1.813,12.452-2.606l13.678-2.475a23.345,23.345,0,1,0-10.882-45.329Z" transform="translate(254.464 153.731)" fill="#121a40"/>
        <path id="Trazado_20167" data-name="Trazado 20167" d="M195.311,122.294s-.644.885-1.772,2.429c-1.119,1.508-2.7,3.668-4.654,6.157a136.576,136.576,0,0,1-14.791,16.406c-1.372,1.255-2.748,2.4-4.065,3.44a45.251,45.251,0,0,1-3.771,2.663,29.176,29.176,0,0,1-3.169,1.737,19.231,19.231,0,0,1-2.312.942,11.714,11.714,0,0,1-1.53.405,9.224,9.224,0,0,1-1.036.133c-.285,0-.524-.007-.687-.021s-.258-.019-.258-.019,4.013,34.2,6.91,34.045a49.088,49.088,0,0,0,8.887-1.269,59.761,59.761,0,0,0,8.744-2.815,84.822,84.822,0,0,0,15.689-8.5,128.435,128.435,0,0,0,12.89-10c3.822-3.328,7.124-6.564,9.871-9.363,2.744-2.817,4.929-5.2,6.423-6.9l2.3-2.627a21.55,21.55,0,0,0-32.436-28.382c-.416.473-.807.967-1.177,1.469Z" transform="translate(296.923 87.35)" fill="#262e61"/>
        <path id="Trazado_20168" data-name="Trazado 20168" d="M201.359,130.286l-15.14,13.037,6.605,34.275,20.261.782Z" transform="translate(266.891 100.363)" fill="#fff"/>
        <path id="Trazado_20169" data-name="Trazado 20169" d="M120.77,52.4c.182-21.835,15.237-39.487,38.922-39.487,23.8,0,42.918,17.824,42.918,39.8,0,1.533-1.275,20.546-1.742,22.01-7.55,23.644-41.176,39.8-41.176,39.8s-24.31-10.309-36.233-36.338Z" transform="translate(393.232 9.943)" fill="#3d4a9c"/>
        <path id="Trazado_20170" data-name="Trazado 20170" d="M124.215,57.162c.158-20.093,12.5-36.336,32.629-36.336,26.668,0,40.609,16.4,40.609,36.626,0,1.411-4.594,24.723-4.934,26.095-5.217,21.147-11.458,33.333-31.687,33.333-19.155,0-32.385-11.162-33.677-33.333Z" transform="translate(392.29 16.043)" fill="#f7bf69"/>
        <path id="Trazado_20171" data-name="Trazado 20171" d="M139.187,108.491C144.705,94.1,134.411,75.976,130,64.233h58.755c-4.036,7.83-11.758,30.933-5.7,44.258,3.735,8.232,15.473,24.216,15.473,24.216H123.713s12.236-15.777,15.474-24.216" transform="translate(392.107 49.48)" fill="#f7bf69"/>
        <path id="Trazado_20172" data-name="Trazado 20172" d="M122.385,29.369c-.883,25.516,9.6,18.519,11.541,36.658l11.141-3.033-4.6-27.265L127.08,20.036Z" transform="translate(448.01 15.434)" fill="#3d4a9c"/>
        <path id="Trazado_20173" data-name="Trazado 20173" d="M173.571,51.081a7.091,7.091,0,0,0-7.069-7.2,7.366,7.366,0,0,0-7.391,7.2,7.574,7.574,0,0,0,6.717,7.186l7.281-.149s.462-6.462.462-7.037" transform="translate(354.395 33.804)" fill="#f7bf69"/>
        <path id="Trazado_20174" data-name="Trazado 20174" d="M168.8,28.863c-5,7.48-4.116,18.672-4.081,36.012a12.17,12.17,0,0,1-2.445-6.9c-.324-9.393-1.569-32.608,6.525-29.111" transform="translate(354.045 21.96)" fill="#3d4a9c"/>
        <path id="Trazado_20175" data-name="Trazado 20175" d="M121.973,51.081a7.091,7.091,0,0,1,7.067-7.2,7.366,7.366,0,0,1,7.391,7.2,7.572,7.572,0,0,1-6.715,7.186l-7.281-.149s-.462-6.462-.462-7.037" transform="translate(457.281 33.804)" fill="#f7bf69"/>
        <path id="Trazado_20176" data-name="Trazado 20176" d="M127.216,46.654a2.285,2.285,0,1,0,2.287,2.287,2.289,2.289,0,0,0-2.287-2.287" transform="translate(458.976 35.939)" fill="#fc9400"/>
        <path id="Trazado_20177" data-name="Trazado 20177" d="M111.835,204s12.571-8.643,21.777-9.232c10.333-.66,19.59-2.139,23.853,6.637h23.961c4.263-8.775,13.515-7.3,23.848-6.637,9.211.59,22.285,9.232,22.285,9.232s11.792,48.5-36.292,46.464H151.9C103.428,254.225,111.835,204,111.835,204" transform="translate(383.81 149.634)" fill="#121a40"/>
        <path id="Trazado_20178" data-name="Trazado 20178" d="M238.258,312.11l-.228-7.347H215.65a163.3,163.3,0,0,0-15.237,9.069c-4.532,3.1-21.791,5.355-22.853,7.494a6.157,6.157,0,0,0-.473,1.3,6.531,6.531,0,0,0,4.771,7.906c.935.228,22.524-.464,24.1-.774,11.955-2.367,30.57-6.3,30.57-6.3,2.378-2.277,1.85-7.795,1.733-11.346" transform="translate(258.093 234.766)" fill="#121a40"/>
        <path id="Trazado_20179" data-name="Trazado 20179" d="M268.627,312.547,268.4,305.2H246.959a131.841,131.841,0,0,0-16.175,9.069c-4.532,3.1-21.793,5.355-22.853,7.494a6.18,6.18,0,0,0-.473,1.3,6.529,6.529,0,0,0,4.771,7.906c.935.228,22.522-.462,24.1-.772,11.955-2.363,30.572-6.306,30.572-6.306,2.378-2.275,1.848-7.793,1.731-11.344" transform="translate(173.958 235.103)" fill="#121a40"/>
        <path id="Trazado_20180" data-name="Trazado 20180" d="M146.583,91.149h7.1l1.057,17.965,10.4-17.965h29.513c3.689,5.9,30.237,39.726,34.789,46.393,0,0,.984,94.8-.777,145.882H112.933c-1.036-42.369-1.528-145.882-1.528-145.882,4.151-5.738,31.317-40.457,35.178-46.393" transform="translate(382.712 70.214)" fill="#262e61"/>
        <line id="Línea_75" data-name="Línea 75" y2="176.484" transform="translate(537.355 177.154)" fill="none" stroke="#3d4a9c" stroke-width="1.475"/>
        <path id="Trazado_20181" data-name="Trazado 20181" d="M155.538,94.977l-13.784,11.732V280.473" transform="translate(403.155 73.163)" fill="none" stroke="#3d4a9c" stroke-width="0.984"/>
        <path id="Trazado_20182" data-name="Trazado 20182" d="M150.815,105.248a1.306,1.306,0,1,0,1.307-1.3,1.3,1.3,0,0,0-1.307,1.3" transform="translate(389.226 80.07)" fill="#3d4a9c"/>
        <path id="Trazado_20183" data-name="Trazado 20183" d="M150.815,125.718a1.306,1.306,0,1,0,1.307-1.3,1.306,1.306,0,0,0-1.307,1.3" transform="translate(389.226 95.838)" fill="#3d4a9c"/>
        <path id="Trazado_20184" data-name="Trazado 20184" d="M150.815,146.058a1.306,1.306,0,1,0,1.307-1.3,1.306,1.306,0,0,0-1.307,1.3" transform="translate(389.226 111.507)" fill="#3d4a9c"/>
        <path id="Trazado_20185" data-name="Trazado 20185" d="M150.815,163.755a1.306,1.306,0,1,0,1.307-1.3,1.306,1.306,0,0,0-1.307,1.3" transform="translate(389.226 125.139)" fill="#3d4a9c"/>
        <path id="Trazado_20186" data-name="Trazado 20186" d="M150.815,180.821a1.306,1.306,0,1,0,1.307-1.3,1.306,1.306,0,0,0-1.307,1.3" transform="translate(389.226 138.286)" fill="#3d4a9c"/>
        <path id="Trazado_20187" data-name="Trazado 20187" d="M128.212,91.153l4.937,16.237,29.8-9.216-5.334-7.026Z" transform="translate(419.718 70.213)" fill="#fff"/>
        <path id="Trazado_20188" data-name="Trazado 20188" d="M166.642,91.149,160.2,107.392,154.352,97.9l5.176-6.752Z" transform="translate(369.748 70.214)" fill="#fff"/>
        <path id="Trazado_20189" data-name="Trazado 20189" d="M156.411,199.758v46.464m9.627-46.464v46.464" transform="translate(366.708 153.878)" fill="none" stroke="#262e61" stroke-width="1.372"/>
        <path id="Trazado_20190" data-name="Trazado 20190" d="M128.044,36.04l-.584,27.325s4.132.223,5.341-7.357A165.6,165.6,0,0,0,134.269,38.2Z" transform="translate(449.73 27.762)" fill="#3d4a9c"/>
        <path id="Trazado_20191" data-name="Trazado 20191" d="M178.1,163.083c-.283-13.361-.356-25.633.173-30.3" transform="translate(316.477 102.285)" fill="none" stroke="#3d4a9c" stroke-linecap="round" stroke-width="1.475"/>
        <path id="Trazado_20192" data-name="Trazado 20192" d="M147.691,35.709a11.64,11.64,0,0,1,5.355-1.356,9.227,9.227,0,0,1,5.254,1.489c4.72,3.551,5.152,12.594,2.631,19.378-.832,2.234-2.565,3.856-2.717,6.725-.126,2.339,1.22,5,5.594,5,3.511,0,5.6-2.328,5.6-4.553" transform="translate(378.775 26.463)" fill="none" stroke="#fc9400" stroke-linecap="round" stroke-width="1.2"/>
        <path id="Trazado_20193" data-name="Trazado 20193" d="M139.624,35.709a11.634,11.634,0,0,1,5.355-1.356,9.225,9.225,0,0,1,5.253,1.489m14.775-.133a11.645,11.645,0,0,1,5.355-1.356,9.246,9.246,0,0,1,5.26,1.489" transform="translate(386.843 26.463)" fill="none" stroke="#262e61" stroke-linecap="round" stroke-width="1.969"/>
        <path id="Trazado_20194" data-name="Trazado 20194" d="M157.822,48.332h0a2.558,2.558,0,0,0,2.551-2.549V43.694a2.55,2.55,0,1,0-5.1,0v2.089a2.557,2.557,0,0,0,2.549,2.549" transform="translate(374.387 31.693)" fill="#262e61"/>
        <path id="Trazado_20195" data-name="Trazado 20195" d="M143.728,48.332h0a2.563,2.563,0,0,0,2.556-2.549V43.694a2.553,2.553,0,0,0-5.106,0v2.089a2.557,2.557,0,0,0,2.549,2.549" transform="translate(413.427 31.693)" fill="#262e61"/>
        <path id="Trazado_20196" data-name="Trazado 20196" d="M138.441,56.254c5.746,3.024,31.586,3.19,37.074.432,0,0-4.746,15.882-18.4,15.882-13.931,0-18.677-16.314-18.677-16.314" transform="translate(389.043 43.334)" fill="#212963"/>
        <path id="Trazado_20197" data-name="Trazado 20197" d="M171.417,57.156c-2.748,4.467-7.651,9.735-15.515,9.735-8.078,0-13.063-5.488-15.832-10.1,7.545,1.774,23.855,1.907,31.347.361" transform="translate(390.258 43.751)" fill="#fff"/>
        <path id="Trazado_20198" data-name="Trazado 20198" d="M153.584,67.1a16.285,16.285,0,0,1-10.456-3.744,117.61,117.61,0,0,0,20.557.228,16.1,16.1,0,0,1-10.1,3.516" transform="translate(392.576 48.803)" fill="#fff"/>
        <path id="Trazado_20199" data-name="Trazado 20199" d="M193.38,40.788c-17.894-8.17-21.918-12.113-44.155-.66C140.343,44.7,119.9,24.682,145.12,7.336c-1.2,3.594-4.328,11.523,16.761,4.9,20.515-6.442,45.057,8.692,31.5,28.554" transform="translate(376.974 5.651)" fill="#262e61"/>
        <path id="Trazado_20200" data-name="Trazado 20200" d="M231.192,200.867c-9.069,2.332-18.98,4.893-28.867,8.273a179.133,179.133,0,0,0-29.58,12.822,127.723,127.723,0,0,0-27.013,19.982,110.465,110.465,0,0,0-11.259,12.8c-1.682,2.286-3.323,4.6-4.821,6.991-.784,1.179-1.5,2.393-2.2,3.613l-1.06,1.818c-.147.253-.4.726-.63,1.158l-.687,1.312a48.362,48.362,0,0,0-2.231,5.106c-.517,1.6-1.122,3.272-1.484,4.806-.4,1.554-.777,3.114-1.025,4.589-.3,1.512-.513,2.971-.7,4.415a114.959,114.959,0,0,0-.839,16.48A227.317,227.317,0,0,0,121.6,335.41a412.458,412.458,0,0,0,13.559,57.233,11.139,11.139,0,0,0,21.577-5.4l-.028-.143a388.094,388.094,0,0,1-6.58-54.616,197.178,197.178,0,0,1,.351-26.406,81,81,0,0,1,1.869-11.8c.212-.9.443-1.769.706-2.556.235-.848.524-1.565.793-2.282.255-.756.579-1.269.832-1.916a11.705,11.705,0,0,1,.818-1.3l.448-.62.878-1.16c.575-.772,1.149-1.549,1.784-2.275,1.2-1.5,2.494-2.917,3.79-4.314a72.938,72.938,0,0,1,8.494-7.616,88.568,88.568,0,0,1,20.16-11.482,144.234,144.234,0,0,1,23.494-7.393c8.322-1.916,16.97-3.318,26.44-4.937a23.321,23.321,0,0,0-7.855-45.975q-.929.159-1.829.386Z" transform="translate(338.992 154.152)" fill="#121a40"/>
        <rect id="Rectángulo_5878" data-name="Rectángulo 5878" width="115.845" height="10.232" transform="translate(495.583 345.997)" fill="#087861"/>
        <path id="Trazado_20201" data-name="Trazado 20201" d="M149.9,196.578a3.483,3.483,0,0,0-3.484,3.486v3.261a3.483,3.483,0,0,0,3.484,3.486h13.564a3.486,3.486,0,0,0,3.488-3.486v-3.261a3.486,3.486,0,0,0-3.488-3.486Zm0-2.611h13.564a6.1,6.1,0,0,1,6.1,6.1v3.261a6.1,6.1,0,0,1-6.1,6.1H149.9a6.1,6.1,0,0,1-6.1-6.1v-3.261a6.1,6.1,0,0,1,6.1-6.1" transform="translate(385.492 149.418)" fill="#fff"/>
        <line id="Línea_76" data-name="Línea 76" x2="8.271" transform="translate(531.913 351.112)" fill="none" stroke="#fff" stroke-linecap="round" stroke-width="1.475"/>
        <path id="Trazado_20202" data-name="Trazado 20202" d="M87.564,145.483c2.4,3.287,4.564,5.964,6.764,8.621l6.44,7.713c4.212,5.06,8.405,9.958,12.4,14.9s7.839,9.884,11.355,14.811a112.369,112.369,0,0,1,9.064,14.368,36.689,36.689,0,0,1,2.4,5.752c.214.687.3,1.149.377,1.152.081.032.2-.492.7-1.234a5.453,5.453,0,0,1,.869-1.052c.161-.147.342-.269.473-.37l.117-.066c.025-.012.131-.081.005.03l-.437.446-3.5,3.551-7.041,7.138q-7.1,7.151-13.993,14.8a184.811,184.811,0,0,0-13.23,16.174,8.188,8.188,0,0,0,11.482,11.4l.163-.122c10.176-7.5,21.313-14.251,32.459-21.34l8.43-5.3,4.236-2.668.529-.335a5.324,5.324,0,0,0,.482-.37l.579-.478a22.324,22.324,0,0,0,2.227-2.124,25.488,25.488,0,0,0,3.673-5.122,28.326,28.326,0,0,0,3.194-10.772,37.332,37.332,0,0,0-.232-8.731,62.408,62.408,0,0,0-3.472-13.166,141.579,141.579,0,0,0-9.88-20.468c-3.592-6.24-7.4-12.1-11.238-17.834s-7.74-11.3-11.645-16.691L125.6,130.11c-1.818-2.6-3.673-5.189-5.035-7.338A20.044,20.044,0,1,0,86.7,144.219c.228.365.473.721.721,1.066Z" transform="translate(493.731 87.391)" fill="#fabf66"/>
        <path id="Trazado_20203" data-name="Trazado 20203" d="M95.07,145.27c3.5,4.76,6.787,8.536,9.914,12.159,3.123,3.592,6.086,6.97,8.912,10.344a185.314,185.314,0,0,1,15.088,20.4l.122.195a18.782,18.782,0,0,0,32.385-19,222.878,222.878,0,0,0-16.65-25.836c-2.935-3.992-5.918-7.85-8.708-11.5-2.774-3.633-5.391-7.133-7.241-10.045A20.545,20.545,0,1,0,94.2,144c.246.386.5.761.767,1.122Z" transform="translate(484.791 86.621)" fill="#262e61"/>
        <path id="Trazado_20204" data-name="Trazado 20204" d="M86.824,165.211l12.437,12.518,32.9-13.621-2.916-19.52Z" transform="translate(523.773 111.38)" fill="#fff"/>
        <path id="Trazado_20205" data-name="Trazado 20205" d="M123.7,234.028a21.547,21.547,0,0,1-2.657-2.6,28.577,28.577,0,0,1-2.089-2.774c-.636-.94-1.167-1.894-1.687-2.856a38.718,38.718,0,0,1-2.473-5.867c-.34-.995-.614-2.008-.878-3.049-.133-.524-.248-1.046-.352-1.611s-.2-1.122-.294-1.88l-.035-.381-.03-.519-.014-.239-.005-.039v-.32l.005-.244c.009-.331.025-.66.05-.991l.106-.878a17.644,17.644,0,0,1,.7-2.912,22.685,22.685,0,0,1,1.831-4.022,33.481,33.481,0,0,1,3.992-5.447c.676-.774,1.383-1.485,2.084-2.17s1.422-1.326,2.146-1.94,1-.991,1.756-1.53l14.989,4.551a9.787,9.787,0,0,1-.991,4.187l.011.005c-.416.853-.88,1.641-1.347,2.409-.451.767-.935,1.492-1.407,2.209s-.949,1.4-1.418,2.062l-1.365,1.926c-.866,1.239-1.7,2.4-2.227,3.277-.253.37-.416.685-.476.761l.039.575.209,2.2c.173,1.478.336,2.978.549,4.412.195,1.443.423,2.829.655,4.12l.666,3.48.508,2.636a5.115,5.115,0,0,1-7.127,5.63,15.286,15.286,0,0,1-3.415-2.174" transform="translate(468.419 147.714)" fill="#fabf66"/>
        <path id="Trazado_20206" data-name="Trazado 20206" d="M127.794,224.753a55.671,55.671,0,0,1-4.4-18.672m-.885,17.523c-1.731-4.39-4.063-10-3.845-15.781" transform="translate(471.801 158.749)" fill="none" stroke="#fc9400" stroke-linecap="round" stroke-width="0.953"/>
        <path id="Trazado_20207" data-name="Trazado 20207" d="M124.437,166.48s-7.418-16.05-13.585-26.627" transform="translate(488.963 107.732)" fill="none" stroke="#3d4a9c" stroke-linecap="round" stroke-width="1.475"/>
        <path id="Trazado_20208" data-name="Trazado 20208" d="M54.508,239.923a57.425,57.425,0,1,0,57.422-57.428,57.427,57.427,0,0,0-57.422,57.428" transform="translate(543.789 140.58)" fill="#57cc82"/>
        <path id="Trazado_20209" data-name="Trazado 20209" d="M93.259,377.9h34.7a25.091,25.091,0,0,0,25.089-25.089V214.933H75.685v145.39A17.576,17.576,0,0,0,93.259,377.9" transform="translate(522.612 165.568)" fill="#57cc82"/>
        <rect id="Rectángulo_5879" data-name="Rectángulo 5879" width="31.722" height="18.85" transform="translate(711.671 543.215)" fill="#087861"/>
        <rect id="Rectángulo_5880" data-name="Rectángulo 5880" width="31.722" height="18.85" transform="translate(615.326 543.215)" fill="#087861"/>
      </g>
    </g>
  </g>
</svg>
