<svg xmlns="http://www.w3.org/2000/svg" xmlns:xlink="http://www.w3.org/1999/xlink" width="138" height="138" viewBox="0 0 138 138">
  <defs>
    <clipPath id="clip-path">
      <ellipse id="Elipse_1093" data-name="Elipse 1093" cx="69" cy="69" rx="69" ry="69" transform="translate(0 0)" fill="none"/>
    </clipPath>
  </defs>
  <g id="Grupo_22309" data-name="Grupo 22309" transform="translate(-864.452 -1005.11)">
    <g id="Grupo_22310" data-name="Grupo 22310" transform="translate(864.452 1005.11)">
      <path id="Trazado_20234" data-name="Trazado 20234" d="M227.452,69a69,69,0,1,1-69-69,69,69,0,0,1,69,69" transform="translate(-89.452 -0.001)" fill="#63b2e9"/>
      <g id="Grupo_22309-2" data-name="Grupo 22309" transform="translate(0 0)" clip-path="url(#clip-path)">
        <path id="Trazado_20235" data-name="Trazado 20235" d="M207.227,109.941s-7.918-1.238-11.345-6.194c-.024.01-.047.024-.071.034A38.994,38.994,0,0,0,174.9,86.951l-.02-5.744a1.465,1.465,0,0,0-2-1.762L164.1,84.564c-1.406-.134-2.833-.207-4.28-.211-15.481-.042-28.936,7.553-35.716,18.6a5.436,5.436,0,0,0-3.686-1.008,5.4,5.4,0,0,0-2.139-1.756A5.519,5.519,0,0,0,111,102.853a.882.882,0,0,0,.44,1.175.9.9,0,0,0,1.187-.435,3.72,3.72,0,0,1,4.9-1.8,3.655,3.655,0,0,1,.975.646c-.162.077-.319.163-.471.254-.041.025-.08.051-.12.077q-.188.119-.366.252c-.046.035-.092.07-.136.106-.13.1-.255.213-.375.328-.019.019-.04.035-.059.054-.135.135-.262.277-.382.424-.033.042-.065.084-.1.127q-.133.173-.251.355c-.031.048-.061.095-.091.143a5.358,5.358,0,0,0-.276.511c-.758,1.634-1.5,4.642.507,5.555a2.084,2.084,0,0,0,.869.194c1.653,0,3.073-2.04,3.72-3.435a5.337,5.337,0,0,0,.212-.543c.018-.052.033-.1.049-.157q.065-.212.111-.429c.011-.049.023-.1.032-.147a5.337,5.337,0,0,0,.077-.569c0-.021,0-.043,0-.064.011-.17.013-.341.008-.511,0-.055-.005-.109-.009-.164-.009-.149-.024-.3-.045-.446-.007-.046-.012-.091-.02-.136-.03-.175-.066-.348-.112-.52a3.53,3.53,0,0,1,1.92.814,30.635,30.635,0,0,0-3.776,14.566,31.132,31.132,0,0,0,7.342,19.946l-.368-.039,7.167,18.638a2.483,2.483,0,0,0,2.311,1.573h7.249a2.485,2.485,0,0,0,2.484-2.485v-5.183a46.864,46.864,0,0,0,24.38,1.062v4.026a2.531,2.531,0,0,0,2.545,2.516h7.428a2.546,2.546,0,0,0,2.368-1.593l5.194-13.347a34.405,34.405,0,0,0,10.338-13.826,70.737,70.737,0,0,0,7.763-3.227,2.813,2.813,0,0,0,.911-1.595l2.355-12.5A2.816,2.816,0,0,0,207.227,109.941Zm-87.553-4.6a3.609,3.609,0,0,1-.086.6c-.01.042-.021.083-.032.124a3.533,3.533,0,0,1-.206.589c-.7,1.5-1.806,2.56-2.216,2.371s-.325-1.705.372-3.208a3.584,3.584,0,0,1,.317-.538c.025-.036.049-.072.075-.106a3.645,3.645,0,0,1,.4-.451c.026-.024.053-.045.078-.068a3.67,3.67,0,0,1,.438-.34c.027-.018.052-.037.079-.055a3.819,3.819,0,0,1,.542-.278l.049-.019.018.05a3.7,3.7,0,0,1,.141.587c0,.031.005.06.009.09a3.7,3.7,0,0,1,.026.558C119.673,105.272,119.675,105.3,119.673,105.337Z" transform="translate(-92.632 -11.751)" fill="none" stroke="#89e599" stroke-width="5.734"/>
        <path id="Trazado_20236" data-name="Trazado 20236" d="M207.227,109.941s-7.918-1.238-11.345-6.194c-.024.01-.047.024-.071.034A38.994,38.994,0,0,0,174.9,86.951l-.02-5.744a1.465,1.465,0,0,0-2-1.762L164.1,84.564c-1.406-.134-2.833-.207-4.28-.211-15.481-.042-28.936,7.553-35.716,18.6a5.436,5.436,0,0,0-3.686-1.008,5.4,5.4,0,0,0-2.139-1.756A5.519,5.519,0,0,0,111,102.853a.882.882,0,0,0,.44,1.175.9.9,0,0,0,1.187-.435,3.72,3.72,0,0,1,4.9-1.8,3.655,3.655,0,0,1,.975.646c-.162.077-.319.163-.471.254-.041.025-.08.051-.12.077q-.188.119-.366.252c-.046.035-.092.07-.136.106-.13.1-.255.213-.375.328-.019.019-.04.035-.059.054-.135.135-.262.277-.382.424-.033.042-.065.084-.1.127q-.133.173-.251.355c-.031.048-.061.095-.091.143a5.358,5.358,0,0,0-.276.511c-.758,1.634-1.5,4.642.507,5.555a2.084,2.084,0,0,0,.869.194c1.653,0,3.073-2.04,3.72-3.435a5.337,5.337,0,0,0,.212-.543c.018-.052.033-.1.049-.157q.065-.212.111-.429c.011-.049.023-.1.032-.147a5.337,5.337,0,0,0,.077-.569c0-.021,0-.043,0-.064.011-.17.013-.341.008-.511,0-.055-.005-.109-.009-.164-.009-.149-.024-.3-.045-.446-.007-.046-.012-.091-.02-.136-.03-.175-.066-.348-.112-.52a3.53,3.53,0,0,1,1.92.814,30.635,30.635,0,0,0-3.776,14.566,31.132,31.132,0,0,0,7.342,19.946l-.368-.039,7.167,18.638a2.483,2.483,0,0,0,2.311,1.573h7.249a2.485,2.485,0,0,0,2.484-2.485v-5.183a46.864,46.864,0,0,0,24.38,1.062v4.026a2.531,2.531,0,0,0,2.545,2.516h7.428a2.546,2.546,0,0,0,2.368-1.593l5.194-13.347a34.405,34.405,0,0,0,10.338-13.826,70.737,70.737,0,0,0,7.763-3.227,2.813,2.813,0,0,0,.911-1.595l2.355-12.5a2.816,2.816,0,0,0-1.665-3.108m-87.553-4.6a3.609,3.609,0,0,1-.086.6c-.01.042-.021.083-.032.124a3.533,3.533,0,0,1-.206.589c-.7,1.5-1.806,2.56-2.216,2.371s-.325-1.705.372-3.208a3.584,3.584,0,0,1,.317-.538c.025-.036.049-.072.075-.106a3.645,3.645,0,0,1,.4-.451c.026-.024.053-.045.078-.068a3.67,3.67,0,0,1,.438-.34c.027-.018.052-.037.079-.055a3.819,3.819,0,0,1,.542-.278l.049-.019.018.05a3.7,3.7,0,0,1,.141.587c0,.031.005.06.009.09a3.7,3.7,0,0,1,.026.558c0,.032,0,.065,0,.1" transform="translate(-92.632 -11.751)" fill="#37c771"/>
        <path id="Trazado_20237" data-name="Trazado 20237" d="M193.2,108.334a3.035,3.035,0,1,1-4.266.452,3.039,3.039,0,0,1,4.266-.452" transform="translate(-104.09 -15.95)" fill="#fff"/>
        <path id="Trazado_20238" data-name="Trazado 20238" d="M91.374,242.016c7.811-4.461,22.419-22.75,17.057-36.851-14.29-6.82-45.724-23.811-60.829-49.6-.756-1.263-1.471-2.532-2.119-3.8a46.681,46.681,0,0,1-5.077-16.173,36.655,36.655,0,0,1,2.142-16.556A54.625,54.625,0,0,1,52.639,102.45,91.978,91.978,0,0,1,68.823,87.845a126.283,126.283,0,0,1,15.752-9.688l-10.121-19.6A164.1,164.1,0,0,0,56.113,65.6,120.593,120.593,0,0,0,31.966,80.158,93.791,93.791,0,0,0,20.96,90.244a82.447,82.447,0,0,0-9.55,12.423,74.467,74.467,0,0,0-10.918,31.2,87.775,87.775,0,0,0,2.827,32.812c.943,3.453,2.056,6.8,3.285,10.054a140.071,140.071,0,0,0,8.581,18.375,195.5,195.5,0,0,0,16.152,24.164c2.926,3.709,5.9,7.386,8.973,10.876,1.486,1.75,3.176,3.568,4.805,5.363l4.348,4.73c11.085,12.063,27.687,9.894,41.912,1.77" transform="translate(-76.2 -8.676)" fill="#f9c067"/>
        <path id="Trazado_20239" data-name="Trazado 20239" d="M101.71,69.363l1.715-1.242a6.205,6.205,0,0,0,2.371-3.468,13.332,13.332,0,0,0,2.182.151l.894-.023.747-.1c1.029-.127,14.446-.036,14.31-.664a17.6,17.6,0,0,1-.319-8.373c.3-1.716,4.848-8.162,5.142-9.879.4-2.352-2.954-2.492-4.381-4.283-.136-.171-6.178,1.575-6.207,1.358-.057-.427.327-.773.679-1.021a24.779,24.779,0,0,1,8.432-3.684c.958-.239,1.94-.493,2.929-.7l2.835-.552,1.059-.206a7.324,7.324,0,0,0,.177-14.343c-1.5-.331-2.629-.577-3.94-.809-1.271-.225-2.551-.436-3.851-.57a54.558,54.558,0,0,0-8.119-.319,35.242,35.242,0,0,0-9.229,1.52l-1.279.443c-.431.155-1.033.434-1.538.664l-.369.171-.2.079-.4.16-.2.08-.893.565c-.4.257-3.217,2.521-3.922,3.161-.729.667-1.306,1.255-1.9,1.826-1.16,1.122-2.124,2.137-3.1,3.148s-1.885,1.961-2.774,2.935a57.436,57.436,0,0,0-4.844,5.862c-3.919,5.6-2.546,13.066-2.546,13.066-.171.089-.177.055-.2.029l12.894,17.7c.67-.526,2.6-1.785,3.842-2.69" transform="translate(-88.783 -3.053)" fill="#f9c067"/>
        <path id="Trazado_20240" data-name="Trazado 20240" d="M115.2,60.368c-.222.056.228.393.974.615,3.242.886,6.694.81,10.455,1.005,6.418.359,13.906.286,19.372,4.964a5.209,5.209,0,0,1-4.5,8.976,19.586,19.586,0,0,0-6.79-.686c-6.642.542-13.459,2.794-20.588,2.525a19.519,19.519,0,0,1-6.707-1.423A8.886,8.886,0,1,1,115.2,60.368" transform="translate(-91.373 -8.811)" fill="#f9c067"/>
        <path id="Trazado_20241" data-name="Trazado 20241" d="M168.726,53.305A12.522,12.522,0,1,1,156.2,40.784a12.521,12.521,0,0,1,12.521,12.521" transform="translate(-97.486 -6.043)" fill="#3c4b9b"/>
        <path id="Trazado_20242" data-name="Trazado 20242" d="M167.194,53.628A10.668,10.668,0,1,1,156.527,42.96a10.668,10.668,0,0,1,10.668,10.668" transform="translate(-97.809 -6.365)" fill="#3c4b9b"/>
        <path id="Trazado_20243" data-name="Trazado 20243" d="M152.973,56.842a.8.8,0,0,1,.578-.676,2.892,2.892,0,0,0,2.4,1.219c1.108,0,1.736-.456,1.736-1.244,0-.9-.934-1.108-2-1.354-1.23-.283-2.511-.714-2.511-2.327,0-1.354,1.17-2.314,2.869-2.314,1.773,0,2.732.837,2.732,1.416a.837.837,0,0,1-.589.7,2.609,2.609,0,0,0-2.13-1.072c-1,0-1.65.48-1.65,1.219,0,.874.776,1.009,1.883,1.268,1.354.308,2.659.837,2.659,2.376,0,1.466-1.132,2.376-2.991,2.376-1.921,0-2.991-.935-2.991-1.588" transform="translate(-98.863 -7.43)" fill="#fff"/>
        <path id="Trazado_20244" data-name="Trazado 20244" d="M160.284,60.2a1.907,1.907,0,0,1,.1-.492l2.93-9.43a.475.475,0,0,1,.246-.049c.259,0,.677.061.677.566a1.976,1.976,0,0,1-.1.492l-2.917,9.43c0,.025-.124.049-.246.049-.271,0-.689-.073-.689-.566" transform="translate(-99.946 -7.443)" fill="#fff"/>
        <path id="Trazado_20245" data-name="Trazado 20245" d="M128.5,33.423c7.739-2.406,15.63-4.761,23.948-4.286A22.241,22.241,0,0,1,159.7,30.9a23.394,23.394,0,0,1,8.7,7.161,3.956,3.956,0,0,1-5.73,5.43,25.131,25.131,0,0,0-3.214-2.636c-3.134-2.055-6.145-2.095-10.061-1.377-5.483,1.064-11.146,3.625-16.3,6.041a6.482,6.482,0,1,1-4.6-12.09" transform="translate(-94.557 -4.308)" fill="#f9c067"/>
        <path id="Trazado_20246" data-name="Trazado 20246" d="M79.206,87.25a162.933,162.933,0,0,1,16.105-9.657L85.19,57.993c-6.436,2.389-13.558,5.307-17.513,6.931Z" transform="translate(-86.226 -8.592)" fill="#f9c067"/>
        <path id="Trazado_20247" data-name="Trazado 20247" d="M143.94,24.558h0a7.269,7.269,0,0,1,1.044,10.227l-7.494,9.2A7.269,7.269,0,1,1,126.219,34.8l7.494-9.2a7.269,7.269,0,0,1,10.227-1.044" transform="translate(-94.657 -3.397)" fill="#f9c067"/>
        <path id="Trazado_20248" data-name="Trazado 20248" d="M124.846,41.8a7.1,7.1,0,0,1,1.77-4.428L130.54,32.9a1.2,1.2,0,1,1,1.8,1.577l-3.923,4.476a4.768,4.768,0,0,0,7.172,6.285l8.939-10.56a1.2,1.2,0,1,1,1.8,1.577l-8.939,10.56a7.163,7.163,0,0,1-12.54-5.011" transform="translate(-94.695 -4.814)" fill="#fd9500"/>
        <path id="Trazado_20249" data-name="Trazado 20249" d="M135.25,24.312h0a7.269,7.269,0,0,1,1.044,10.227l-7.494,9.2a7.269,7.269,0,1,1-11.272-9.183l7.494-9.2a7.269,7.269,0,0,1,10.227-1.044" transform="translate(-93.369 -3.361)" fill="#f9c067"/>
        <path id="Trazado_20250" data-name="Trazado 20250" d="M115.628,41.525A7.1,7.1,0,0,1,117.4,37.1l3.924-4.476a1.2,1.2,0,1,1,1.8,1.577L119.2,38.674a4.768,4.768,0,0,0,7.172,6.285L137.43,31.92a1.2,1.2,0,1,1,1.8,1.577L128.168,46.535a7.163,7.163,0,0,1-12.54-5.011" transform="translate(-93.329 -4.669)" fill="#fd9500"/>
        <path id="Trazado_20251" data-name="Trazado 20251" d="M125.6,25.434h0a7.269,7.269,0,0,1,1.044,10.227l-7.494,9.2a7.269,7.269,0,1,1-11.272-9.183l7.494-9.2A7.269,7.269,0,0,1,125.6,25.434" transform="translate(-91.939 -3.527)" fill="#f9c067"/>
        <path id="Trazado_20252" data-name="Trazado 20252" d="M105.974,42.646a7.1,7.1,0,0,1,1.77-4.428l3.924-4.476a1.2,1.2,0,1,1,1.8,1.577l-3.923,4.476a4.768,4.768,0,0,0,7.172,6.285l11.061-13.038a1.2,1.2,0,1,1,1.8,1.577L118.514,47.656a7.163,7.163,0,0,1-12.54-5.011" transform="translate(-91.899 -4.835)" fill="#fd9500"/>
      </g>
    </g>
  </g>
</svg>
