<svg xmlns="http://www.w3.org/2000/svg" xmlns:xlink="http://www.w3.org/1999/xlink" width="547.346" height="39.737" viewBox="0 0 547.346 39.737"><defs><clipPath id="a"><path d="M769.335-921a1.335,1.335,0,0,1,1.335,1.336v36.057a1.335,1.335,0,0,1-1.335,1.335A1.335,1.335,0,0,1,768-883.607v-36.057A1.335,1.335,0,0,1,769.335-921Z" transform="translate(-768 921)" fill="#0033a1" clip-rule="evenodd"/></clipPath><clipPath id="b"><path d="M447,266.912H2370.058V-935H447Z" transform="translate(-447 935)" fill="#0033a1"/></clipPath></defs><g transform="translate(10677 -717)"><g transform="translate(-10845 610)"><g transform="translate(420.682 107.571)" clip-path="url(#a)"><g transform="translate(-428.682 -18.696)" clip-path="url(#b)"><path d="M763-873.917h16.025V-926H763Z" transform="translate(-340.996 938.019)" fill="#0033a1"/></g></g><g transform="translate(-87.685 -280.975)"><path d="M255.685,427.712h35.166a4.975,4.975,0,0,0,4.957-4.973V387.975H260.644a4.99,4.99,0,0,0-4.959,4.975v34.762Zm9.476-6.337,20.87-3.647V395.91l-20.87,3.665v21.8Z" transform="translate(0 0)" fill="#0033a1" fill-rule="evenodd"/><path d="M373.675,401.1c3.33,0,6.017,2.9,6.017,7.488s-2.687,7.6-6.017,7.6a5.428,5.428,0,0,1-4.417-2.158,7.66,7.66,0,0,1-1.419-4.837,9.411,9.411,0,0,1,1.114-5.436,5.7,5.7,0,0,1,4.721-2.653Zm-5.647-10.527-.066,9.648c2.785-2.833,5.89-3.518,9.771-2.463,4.374,1.2,6.87,5.3,6.929,10.924.113,7.2-4.907,11.707-10.844,11.755-6.509.064-11-4.51-10.953-11.164v-18.7Zm-9.553,5.953h1.509v5.148h-1.509v-.016a4.193,4.193,0,0,0-2.912,1.232,4.073,4.073,0,0,0-1.194,2.9h.016v14.206H349.22V405.785h.009a9.225,9.225,0,0,1,9.247-9.231v-.032ZM338.239,411.16h-7.467a3.358,3.358,0,0,0,.259.747,6.39,6.39,0,0,0,5.163,3.954h.016c.306.048.642.1.965.127a8.791,8.791,0,0,0,.953.05h0a11.135,11.135,0,0,0,5.5-1.35,13.339,13.339,0,0,1-.075,3.414c-.433,2.172-4.337,2.333-5.774,2.333v.016a13.3,13.3,0,0,1-1.364-.064,11.964,11.964,0,0,1-1.369-.177h0c-6-1.067-9.249-6.253-9.008-11.975v-.1h0c.157-4.814,2.848-9.106,7.5-10.524h.016l.079-.034.016-.016a9.926,9.926,0,0,1,9.455,1.936,11.862,11.862,0,0,1,1.194,1.276,7.973,7.973,0,0,1,.935,1.475l.032.048h0a7.008,7.008,0,0,1,.769,3.041,5.06,5.06,0,0,1-1.028,3.053,6.2,6.2,0,0,1-2.251,1.791v.016a10.289,10.289,0,0,1-4.519.962Zm-7.562-3.89h7.789c1.732,0,3.729-.881,2.735-3.182l-.032-.048h0a4.827,4.827,0,0,0-.4-.717,4.025,4.025,0,0,0-.635-.751,5.032,5.032,0,0,0-5.261-1.3v-.016l-.066.032h0a7.734,7.734,0,0,0-.992.429,5.052,5.052,0,0,0-.865.595,8.212,8.212,0,0,0-2.272,4.957Zm-13.434-16.491v6.033h8.414l-.193,1.932c-.193,1.716-1.169,2.206-3.1,2.256h-5.116v10.956h0a12,12,0,0,0,.1,1.364c.336,1.707,1.321,2.172,2.928,2.333a12.6,12.6,0,0,0,5.341-.626c.193,1.877-.064,4.374-1.137,4.787a14.8,14.8,0,0,1-4.639.524,12.959,12.959,0,0,1-2.14-.218,8.775,8.775,0,0,1-3.811-2.018c-1.6-1.807-1.691-3.87-1.786-6.017l-.016-.129V390.778ZM297,396.523h1.854v.032a9.229,9.229,0,0,1,9.263,9.231h0v14.206h-5.148V405.785h.016a4.15,4.15,0,0,0-4.131-4.131v.016H297v-.016a4.2,4.2,0,0,0-2.912,1.232,4.111,4.111,0,0,0-1.194,2.9h.016v14.206h-5.148V405.785h0A9.195,9.195,0,0,1,297,396.555v-.032Zm-19.047-6.194h5.211v29.662h-5.211V390.329Zm140.12,6.194h1.838v.032a9.21,9.21,0,0,1,9.267,9.231h.016v14.206h-5.182V405.785h.03a3.964,3.964,0,0,0-1.235-2.912,4.118,4.118,0,0,0-2.9-1.219v.016h-1.854v-.016a4.039,4.039,0,0,0-2.892,1.232,3.974,3.974,0,0,0-1.237,2.9h.016v14.206h-5.166V405.785h.016a9.2,9.2,0,0,1,9.262-9.231v-.032Zm15.293-6.194h5.213v29.662H433.37V390.329Zm19.7,7.283h-5.163l-9.342,10.574L449,419.957h5.152l-10.429-11.771,9.351-10.574ZM400.82,409.828v-.109a25.242,25.242,0,0,1-3.4.077,9.8,9.8,0,0,0-4.217.674,3.028,3.028,0,0,0-1.748,2.317h0v.161h0a2.937,2.937,0,0,0,2.478,3.443h.045v.016a8.488,8.488,0,0,0,4.725-.579,3.913,3.913,0,0,0,1.884-2.848,15.319,15.319,0,0,0,.227-3.152Zm-6.355-13.064c2.578-.193,5.615.032,7.726,1.645a7.313,7.313,0,0,1,2.131,2.526,11.256,11.256,0,0,1,.733,3.92v6.884c0,3.386-1.083,6.405-4.526,7.962a10.105,10.105,0,0,1-3.795.8c-5.822.143-10.218-2.8-9.766-8.157.288-3.854,3.6-5.517,7.449-5.792,1.827-.127,5.023.275,6.176.016a8.833,8.833,0,0,0-.563-3.529,3.05,3.05,0,0,0-1.786-1.793,10.04,10.04,0,0,0-4.192-.452,10.618,10.618,0,0,0-5.139,1.555l.016-2a3.655,3.655,0,0,1,.4-1.859c.772-1.23,3.507-1.612,5.132-1.725Z" transform="translate(28.278 2.989)" fill="#00bb31" fill-rule="evenodd"/></g></g><path d="M-125.6.434a14.1,14.1,0,0,1-8.246-2.325v-4.65a12.274,12.274,0,0,0,3.6,2.046,12.808,12.808,0,0,0,4.464.837,6.054,6.054,0,0,0,3.007-.667A2.044,2.044,0,0,0-121.6-6.169a1.838,1.838,0,0,0-1.116-1.8,7.2,7.2,0,0,0-1.24-.558l-.744-.248-1.736-.527-1.612-.527q-.341-.093-1.457-.527a8.327,8.327,0,0,1-1.4-.651,6.868,6.868,0,0,1-2.046-1.891,6.724,6.724,0,0,1-.744-3.038,5.337,5.337,0,0,1,2.2-4.526,9.657,9.657,0,0,1,5.983-1.674,14.555,14.555,0,0,1,7.1,1.8V-16a13.185,13.185,0,0,0-7.037-2.046q-3.689,0-3.689,2.139a1.681,1.681,0,0,0,1.147,1.488,7.788,7.788,0,0,0,1.767.651q1.457.4,2.356.682a16.62,16.62,0,0,1,4.712,2.263,5.163,5.163,0,0,1,2.17,4.526,5.784,5.784,0,0,1-2.449,4.929A10.148,10.148,0,0,1-125.6.434ZM-105.973.4a8.8,8.8,0,0,1-6.107-2.232,7.579,7.579,0,0,1-2.48-5.921,8,8,0,0,1,2.232-5.766,7.661,7.661,0,0,1,5.828-2.356,6.666,6.666,0,0,1,5.363,2.387,8.686,8.686,0,0,1,2.015,5.8v1.147h-11.1a3.6,3.6,0,0,0,1.72,2.387,6.562,6.562,0,0,0,3.457.837,9.864,9.864,0,0,0,4.96-1.364v3.5A9.557,9.557,0,0,1-105.973.4Zm-4.247-9.734h6.789a3.231,3.231,0,0,0-.946-2.216,3.123,3.123,0,0,0-2.31-.884,3.509,3.509,0,0,0-2.418.852A3.387,3.387,0,0,0-110.22-9.331Zm25.73-4.34v-1.8h4.371V-1.8a7.288,7.288,0,0,1-2.666,6.076,9.843,9.843,0,0,1-6.293,2.108,11.932,11.932,0,0,1-6.076-1.333V1.116A10.589,10.589,0,0,0-89.543,2.6a7.667,7.667,0,0,0,1.8-.2,6,6,0,0,0,1.612-.651,3.076,3.076,0,0,0,1.209-1.3,4.426,4.426,0,0,0,.434-2.03v-.961a6.284,6.284,0,0,1-5.115,2.2,6.659,6.659,0,0,1-5.177-2.232A8.045,8.045,0,0,1-96.8-8.122a8,8,0,0,1,2.015-5.518,6.659,6.659,0,0,1,5.177-2.232A6.284,6.284,0,0,1-84.49-13.671Zm-3.844,9.548a4.454,4.454,0,0,0,2.263-.589A4.3,4.3,0,0,0-84.49-6.231v-3.72a4.3,4.3,0,0,0-1.581-1.519,4.454,4.454,0,0,0-2.263-.589,4,4,0,0,0-2.961,1.132,3.847,3.847,0,0,0-1.132,2.836,3.794,3.794,0,0,0,1.162,2.837A4.03,4.03,0,0,0-88.334-4.123Zm22.878-1.488v-9.858h4.371V0h-4.371V-1.86A6.738,6.738,0,0,1-70.633.4a5.245,5.245,0,0,1-4.154-1.689,6.866,6.866,0,0,1-1.488-4.7v-9.486H-71.9v8.587a3.338,3.338,0,0,0,.821,2.48,2.9,2.9,0,0,0,2.124.806,3.852,3.852,0,0,0,1.968-.573A4.482,4.482,0,0,0-65.456-5.611ZM-52.436,0h-4.371V-15.469h4.371v2.6a5.914,5.914,0,0,1,2.17-2.108,6.229,6.229,0,0,1,3.224-.9,2.5,2.5,0,0,1,.5.031v4.278a5.621,5.621,0,0,0-1.364-.155,5.1,5.1,0,0,0-2.775.79,4.385,4.385,0,0,0-1.751,1.906Zm12.028-7.75A4.263,4.263,0,0,0-39.2-4.65,4.1,4.1,0,0,0-36.13-3.41a4.1,4.1,0,0,0,3.069-1.24,4.331,4.331,0,0,0,1.209-3.1,4.158,4.158,0,0,0-1.209-3.069,4.1,4.1,0,0,0-3.069-1.24,4.1,4.1,0,0,0-3.069,1.24A4.158,4.158,0,0,0-40.408-7.75Zm-4.309,0A7.677,7.677,0,0,1-42.3-13.516a8.408,8.408,0,0,1,6.169-2.356,8.408,8.408,0,0,1,6.169,2.356A7.741,7.741,0,0,1-27.543-7.75a7.813,7.813,0,0,1-2.418,5.828A8.536,8.536,0,0,1-36.13.4,8.536,8.536,0,0,1-42.3-1.922,7.813,7.813,0,0,1-44.717-7.75ZM-4.634.124H-8.85L-17.964-21.7h4.929L-6.711-6.076-.356-21.7H4.48ZM11.548,0H7.177V-15.469h4.371Zm-4.8-19.561a2.548,2.548,0,0,1,.76-1.876,2.511,2.511,0,0,1,1.845-.76,2.511,2.511,0,0,1,1.845.76,2.548,2.548,0,0,1,.759,1.876,2.511,2.511,0,0,1-.759,1.844,2.511,2.511,0,0,1-1.845.76,2.511,2.511,0,0,1-1.845-.76A2.511,2.511,0,0,1,6.743-19.561ZM22.3.4a6.784,6.784,0,0,1-5.239-2.325A8.574,8.574,0,0,1,15.02-7.75a8.413,8.413,0,0,1,2.046-5.766A6.685,6.685,0,0,1,22.3-15.872a6.139,6.139,0,0,1,5.084,2.294V-21.7H31.76V0H27.389V-1.891A5.981,5.981,0,0,1,22.3.4Zm1.24-3.813a4.129,4.129,0,0,0,2.263-.651,4.54,4.54,0,0,0,1.581-1.674v-4.03a4.422,4.422,0,0,0-1.581-1.658,4.2,4.2,0,0,0-2.263-.635,3.9,3.9,0,0,0-3.007,1.24A4.354,4.354,0,0,0,19.36-7.75a4.393,4.393,0,0,0,1.178,3.1A3.9,3.9,0,0,0,23.545-3.41Zm27.218.031a1.876,1.876,0,0,0,.9-.186V-.372a3.759,3.759,0,0,1-2.356.651,3.433,3.433,0,0,1-3.5-1.984A7.1,7.1,0,0,1,40.471.4a5.921,5.921,0,0,1-4.123-1.426,4.81,4.81,0,0,1-1.581-3.751,4.379,4.379,0,0,1,1.8-3.782,7.149,7.149,0,0,1,4.309-1.3,9.5,9.5,0,0,1,4.464.961v-.465q0-2.914-4.092-2.914a8.939,8.939,0,0,0-4.681,1.3v-3.658a12.185,12.185,0,0,1,5.735-1.24,8.206,8.206,0,0,1,5.332,1.612A5.367,5.367,0,0,1,49.678-9.8v5.239Q49.678-3.379,50.763-3.379ZM45.338-4.557v-1.55a5.724,5.724,0,0,0-3.224-.9,4.067,4.067,0,0,0-2.216.527,1.671,1.671,0,0,0-.821,1.488,1.708,1.708,0,0,0,.744,1.5,3.5,3.5,0,0,0,2.015.511A4.142,4.142,0,0,0,45.338-4.557ZM73.889.434a11.754,11.754,0,0,1-8.4-3.162A10.8,10.8,0,0,1,62.14-10.85a10.725,10.725,0,0,1,3.317-8.122,11.8,11.8,0,0,1,8.432-3.162,12.052,12.052,0,0,1,5.735,1.364v4.5a10.048,10.048,0,0,0-5.7-1.674,7.208,7.208,0,0,0-5.177,2.015A6.773,6.773,0,0,0,66.7-10.85,6.771,6.771,0,0,0,68.8-5.735a7.362,7.362,0,0,0,5.3,1.984,9.286,9.286,0,0,0,5.952-1.891v4.495A11.76,11.76,0,0,1,73.889.434ZM98.348-3.379a1.876,1.876,0,0,0,.9-.186V-.372a3.759,3.759,0,0,1-2.356.651,3.433,3.433,0,0,1-3.5-1.984A7.1,7.1,0,0,1,88.056.4a5.921,5.921,0,0,1-4.123-1.426,4.81,4.81,0,0,1-1.581-3.751,4.379,4.379,0,0,1,1.8-3.782,7.149,7.149,0,0,1,4.309-1.3,9.5,9.5,0,0,1,4.464.961v-.465q0-2.914-4.092-2.914a8.939,8.939,0,0,0-4.681,1.3v-3.658a12.185,12.185,0,0,1,5.735-1.24,8.206,8.206,0,0,1,5.332,1.612A5.367,5.367,0,0,1,97.263-9.8v5.239Q97.263-3.379,98.348-3.379ZM92.923-4.557v-1.55a5.724,5.724,0,0,0-3.224-.9,4.067,4.067,0,0,0-2.216.527,1.671,1.671,0,0,0-.821,1.488,1.708,1.708,0,0,0,.744,1.5,3.5,3.5,0,0,0,2.015.511A4.142,4.142,0,0,0,92.923-4.557ZM107.989.4a12.454,12.454,0,0,1-6.51-1.457V-4.929a10.521,10.521,0,0,0,2.837,1.255,12.177,12.177,0,0,0,3.487.512q2.666,0,2.666-1.3,0-.62-.775-.961a4.149,4.149,0,0,0-.806-.279l-1.147-.279-.667-.17a5.58,5.58,0,0,1-.573-.17,9.564,9.564,0,0,1-3.891-1.782,3.9,3.9,0,0,1-1.132-3.023,4.019,4.019,0,0,1,1.813-3.472,8.606,8.606,0,0,1,5.007-1.271,10.709,10.709,0,0,1,5.8,1.426v3.72a11.007,11.007,0,0,0-5.611-1.612q-2.48,0-2.48,1.24a.772.772,0,0,0,.139.45,1.1,1.1,0,0,0,.279.294q.14.093.45.279.186.062.682.2t.651.2l1.643.341a8.2,8.2,0,0,1,3.813,1.752,4.105,4.105,0,0,1,1.24,3.146,4.1,4.1,0,0,1-1.891,3.5A8.549,8.549,0,0,1,107.989.4ZM122.528-9.858V0h-4.371V-21.7h4.371v8.122a6.758,6.758,0,0,1,5.177-2.294,5.245,5.245,0,0,1,4.154,1.69,6.866,6.866,0,0,1,1.488,4.7V0h-4.371V-8.587a3.338,3.338,0,0,0-.821-2.48,2.9,2.9,0,0,0-2.124-.806,3.852,3.852,0,0,0-1.968.573A4.482,4.482,0,0,0,122.528-9.858Z" transform="translate(-10263 748)" fill="#003aad"/></g></svg>