<svg xmlns="http://www.w3.org/2000/svg" xmlns:xlink="http://www.w3.org/1999/xlink" width="265" height="265" viewBox="0 0 265 265"><defs><style>.a{fill:none;}.b{fill:#edf2fa;}.c{clip-path:url(#a);}.d{fill:#9aa1fb;}.e{fill:#e79a5e;}.f{fill:#6860b9;}.g{fill:#f0c63d;}.h{fill:#99a0fb;}.i{fill:#88a0f1;}.j{fill:#fff;}.k{fill:#e8edfb;}.l{fill:#c6cafc;}.m{fill:#e17768;}.n{fill:#eebdb6;}.o{fill:#e8a39a;}.p{fill:#162458;}.q{fill:#bf6b4e;}.r{fill:#e27d70;}.s{fill:#5fa7fb;}.t{fill:#848beb;}.u{fill:#615e78;}.v{fill:#93cd90;}.w{fill:#e59185;}</style><clipPath id="a"><ellipse class="a" cx="132.5" cy="132.5" rx="132.5" ry="132.5"/></clipPath></defs><g transform="translate(-713.745 -4214.989)"><g transform="translate(715.374 4214.989)"><ellipse class="b" cx="131.686" cy="131.686" rx="131.686" ry="131.686" transform="translate(0 0)"/></g><g transform="translate(713.745 4214.989)"><g class="c" transform="translate(0 0)"><g transform="translate(138.547 65.886)"><g transform="translate(0 0)"><g transform="translate(0 28.281)"><path class="d" d="M1165.738,4464.458h-93.1a.922.922,0,0,1-.921-.921v-4.32a.922.922,0,0,1,.921-.92h93.1a.922.922,0,0,1,.921.92v4.32A.922.922,0,0,1,1165.738,4464.458Zm-93.1-5.774a.534.534,0,0,0-.534.533v4.32a.534.534,0,0,0,.534.534h93.1a.534.534,0,0,0,.534-.534v-4.32a.534.534,0,0,0-.534-.533Z" transform="translate(-1071.719 -4458.297)"/></g><g transform="translate(6.871)"><g transform="translate(0 6.671)"><path class="e" d="M1.236,0H5.108A1.236,1.236,0,0,1,6.343,1.236V21.6a0,0,0,0,1,0,0H0a0,0,0,0,1,0,0V1.236A1.236,1.236,0,0,1,1.236,0Z"/></g><g transform="translate(15.858 3.732)"><path class="f" d="M1.317,0H5.026A1.317,1.317,0,0,1,6.343,1.317V24.538a0,0,0,0,1,0,0H0a0,0,0,0,1,0,0V1.317A1.317,1.317,0,0,1,1.317,0Z"/></g><g transform="translate(6.275)"><path class="g" d="M1.421,0H4.99A1.421,1.421,0,0,1,6.412,1.421V28.27a0,0,0,0,1,0,0H0a0,0,0,0,1,0,0V1.421A1.421,1.421,0,0,1,1.421,0Z"/></g><g transform="translate(20.865 0)"><path class="h" d="M1.468.048H3.383A1.075,1.075,0,0,1,4.458,1.123v25.63A1.779,1.779,0,0,1,2.68,28.532H2.172A1.779,1.779,0,0,1,.393,26.753V1.123A1.075,1.075,0,0,1,1.468.048Z" transform="translate(0 1.143) rotate(-15.716)"/></g><g transform="translate(12.686 1.112)"><path class="i" d="M.98,0H2.192a.98.98,0,0,1,.98.98V27.159a0,0,0,0,1,0,0H0a0,0,0,0,1,0,0V.98A.98.98,0,0,1,.98,0Z"/></g><g transform="translate(0.81 6.721)"><rect class="j" width="0.387" height="21.549"/></g><g transform="translate(15.858 5.249)"><rect class="j" width="6.343" height="0.387"/></g><g transform="translate(8.627 23.802)"><path class="j" d="M1112.289,4447.893h.234a.677.677,0,0,0,.224-.034.45.45,0,0,0,.159-.093.38.38,0,0,0,.1-.14.481.481,0,0,0,.032-.177.471.471,0,0,0-.112-.338.453.453,0,0,0-.341-.116.564.564,0,0,0-.191.031.424.424,0,0,0-.147.088.4.4,0,0,0-.1.141.48.48,0,0,0-.034.184h-.329a.7.7,0,0,1,.057-.279.681.681,0,0,1,.162-.227.793.793,0,0,1,.251-.152.9.9,0,0,1,.326-.056,1.027,1.027,0,0,1,.32.047.671.671,0,0,1,.246.138.62.62,0,0,1,.159.228.833.833,0,0,1,.057.318.53.53,0,0,1-.024.152.653.653,0,0,1-.073.157.664.664,0,0,1-.126.143.671.671,0,0,1-.184.111.69.69,0,0,1,.214.108.571.571,0,0,1,.137.148.55.55,0,0,1,.073.172.767.767,0,0,1,.022.177.8.8,0,0,1-.062.323.67.67,0,0,1-.172.237.761.761,0,0,1-.259.146,1,1,0,0,1-.325.051,1.039,1.039,0,0,1-.318-.048.762.762,0,0,1-.261-.138.653.653,0,0,1-.177-.226.7.7,0,0,1-.065-.306h.33a.479.479,0,0,0,.034.184.394.394,0,0,0,.1.142.433.433,0,0,0,.154.091.593.593,0,0,0,.2.032.663.663,0,0,0,.2-.029.388.388,0,0,0,.252-.24.612.612,0,0,0,.034-.212.52.52,0,0,0-.039-.209.385.385,0,0,0-.111-.146.475.475,0,0,0-.173-.086.841.841,0,0,0-.228-.028h-.234Z" transform="translate(-1111.763 -4446.724)"/></g><g transform="translate(9.053 2.17)"><rect class="j" width="0.788" height="3.273"/></g></g><g transform="translate(42.201 12.292)"><g transform="translate(1.091 11.511)"><rect class="e" width="25.82" height="4.468" rx="1.949"/></g><g transform="translate(1.091 8.706)"><rect class="i" width="23.729" height="2.828" rx="1.414"/></g><g transform="translate(0 5.796)"><rect class="g" width="25.82" height="2.909" rx="1.455"/></g><g transform="translate(2.182)"><rect class="f" width="25.82" height="5.796" rx="2.22"/></g><g transform="translate(1.091 14.898)"><rect class="j" width="25.82" height="0.387"/></g><g transform="translate(2.314 9.767)"><path class="j" d="M1186.834,4443.16a.1.1,0,0,1-.063-.023.1.1,0,0,1-.011-.137l.449-.526a.579.579,0,0,1,.815-.065l.067.058a.385.385,0,0,0,.542-.044.579.579,0,0,1,.815-.065l.687.584a.1.1,0,0,1-.125.147l-.687-.584a.374.374,0,0,0-.28-.091.381.381,0,0,0-.262.134.578.578,0,0,1-.815.065l-.067-.057a.375.375,0,0,0-.28-.09.381.381,0,0,0-.262.134l-.448.527A.1.1,0,0,1,1186.834,4443.16Z" transform="translate(-1186.738 -4442.218)"/></g></g></g><g transform="translate(65.578 13.635)"><path class="j" d="M1244.044,4421.9a1.443,1.443,0,1,1-1.443-1.442A1.443,1.443,0,0,1,1244.044,4421.9Z" transform="translate(-1241.158 -4420.454)"/></g></g><g transform="translate(95.699 205.151)"><g transform="translate(85.368 0.69)"><g transform="translate(0 1.192)"><path class="d" d="M1215.369,4753.542s-4.378-5.388-18.86-3.031l-14.93,11.675s17.849-.337,20.207,4.714c0,0,6.286-5.051,23.125,4.154l10.328-13.471A31.864,31.864,0,0,0,1215.369,4753.542Z" transform="translate(-1181.579 -4749.915)"/></g><path class="k" d="M1215.369,4750.462s-4.378-5.389-18.86-3.031l-14.93,11.675s17.849-.336,20.207,4.715c0,0,6.286-5.051,23.125,4.153l10.328-13.471A31.861,31.861,0,0,0,1215.369,4750.462Z" transform="translate(-1181.579 -4746.834)"/><g transform="translate(20.013 3.435)"><path class="l" d="M1233.482,4769.454a.2.2,0,0,1-.069-.013.193.193,0,0,1-.112-.25c.9-2.375,13.117-12.985,13.637-13.436a.193.193,0,1,1,.253.292c-.126.109-12.659,11-13.53,13.281A.192.192,0,0,1,1233.482,4769.454Z" transform="translate(-1233.289 -4755.708)"/></g><g transform="translate(26.072 13.84)"><path class="j" d="M1258.074,4784.356a.19.19,0,0,1-.074-.015,20.788,20.788,0,0,0-8.844-1.311.193.193,0,1,1-.039-.385,21.213,21.213,0,0,1,9.031,1.338.193.193,0,0,1-.074.372Z" transform="translate(-1248.942 -4782.594)"/></g><g transform="translate(33.597 13.163)"><path class="j" d="M1276.414,4784.078a.2.2,0,0,1-.107-.032,19.51,19.51,0,0,0-7.748-2.816.193.193,0,1,1,.04-.385,19.92,19.92,0,0,1,7.922,2.878.194.194,0,0,1-.107.355Z" transform="translate(-1268.385 -4780.844)"/></g><g transform="translate(30.243 10.315)"><path class="j" d="M1267.184,4775.663a.2.2,0,0,1-.1-.027c-2.393-1.417-7.138-1.758-7.186-1.761a.2.2,0,0,1-.18-.207.193.193,0,0,1,.206-.18c.2.014,4.885.352,7.357,1.814a.194.194,0,0,1-.1.36Z" transform="translate(-1259.719 -4773.487)"/></g><g transform="translate(34.705 9.22)"><path class="j" d="M1278.713,4772.831a.2.2,0,0,1-.1-.026c-2.393-1.417-7.139-1.759-7.187-1.762a.193.193,0,0,1-.179-.206.2.2,0,0,1,.206-.18c.2.014,4.885.352,7.357,1.814a.194.194,0,0,1-.1.36Z" transform="translate(-1271.248 -4770.656)"/></g></g><g transform="translate(143.624 11.384)"><g transform="translate(1.789 0)"><path class="d" d="M1.326.353H29.433V2.964H1.326a1.305,1.305,0,1,1,0-2.611Z" transform="translate(29.441 2.861) rotate(166.738)"/></g><g transform="translate(0 6.729)"><path class="k" d="M1334.6,4794.392l-2.5-.751,1.9-1.79Z" transform="translate(-1332.099 -4791.851)"/></g><g transform="translate(0 7.692)"><path class="m" d="M1333.254,4795.513l-.276-1.173-.878.826Z" transform="translate(-1332.099 -4794.34)"/></g><g transform="translate(29.118 0.288)"><path class="j" d="M1407.932,4777.775l-.6-2.541.113-.026.6,2.541Z" transform="translate(-1407.334 -4775.208)"/></g><g transform="translate(28.578 0.407)"><path class="j" d="M.033,0H.149v2.61H.033Z" transform="matrix(0.973, -0.229, 0.229, 0.973, 0, 0.032)"/></g></g><g transform="translate(1.105 3.681)"><g transform="translate(0.327)"><path class="d" d="M981.866,4766.52l-17.16-4.4,37.959-7.556,17.21,3.611Z" transform="translate(-964.706 -4754.563)"/></g><g transform="translate(0 3.611)"><path class="k" d="M963.862,4768.213v4.377a.376.376,0,0,0,.283.364l17.02,4.345,38.194-7.915v-5.492l-38.01,8.346-17.017-4.389A.376.376,0,0,0,963.862,4768.213Z" transform="translate(-963.862 -4763.892)"/><path class="d" d="M981.256,4772.79l38.1-8.305v-.593l-38.01,8.346-17.026-4.391a.368.368,0,0,0-.46.356v4.393a.368.368,0,0,0,.277.356l17.025,4.347,38.194-7.915v-.92l-38.24,8.1-9.758-2.448c-1.217-.3-2.433-.616-3.651-.918-.495-.123-1.189-.216-1.833-.416a1.993,1.993,0,0,1-1.4-2.069c.013-.16.033-.318.058-.477a1.527,1.527,0,0,1,1.629-1.276,13.438,13.438,0,0,1,2.349.483l5.4,1.418L979,4772.2l1.652.434A1.975,1.975,0,0,0,981.256,4772.79Z" transform="translate(-963.862 -4763.892)"/></g></g><g transform="translate(0.226)"><path class="m" d="M978.852,4756.831l-17.261-4.374,38.06-7.406,17.21,3.435Z" transform="translate(-961.591 -4745.051)"/></g><g transform="translate(0 3.434)"><path class="k" d="M961.008,4758.246v2.721a.375.375,0,0,0,.283.364l17.019,4.346,38.194-7.915v-3.836l-38.01,8.346-17.017-4.389A.376.376,0,0,0,961.008,4758.246Z" transform="translate(-961.008 -4753.925)"/></g><g transform="translate(0 3.434)"><path class="m" d="M978.4,4762.823l38.1-8.3v-.593l-38.01,8.346-17.026-4.391a.368.368,0,0,0-.46.356v2.736a.369.369,0,0,0,.277.357l17.025,4.347,38.194-7.915v-.92l-38.24,8.1-15.655-3.927a1.13,1.13,0,0,1-.855-1.1h0a1.131,1.131,0,0,1,1.417-1.094Z" transform="translate(-961.008 -4753.925)"/></g><g transform="translate(22.888 2.655)"><path class="j" d="M1029.247,4756.11l-9.1-1.164,8.661-3.036Zm-7.43-1.34,6.994.895-.34-3.228Z" transform="translate(-1020.144 -4751.91)"/></g></g><g transform="translate(39.373 15.716)"><g transform="translate(40.699)"><g transform="translate(12.544 47.357)"><path class="n" d="M960.951,4377.955s4.7,18.849.347,25.685c0,0-2.937,5.192-8.254,6.83,0,0,11.941,7.406,20.619,7.967,8.157.527,17.347-9.262,17.887-10.687,0,0-8-3.821-9.472-8.055a34.191,34.191,0,0,1-1.314-10.1Z" transform="translate(-953.044 -4377.955)"/></g><g transform="translate(21.678 53.493)"><path class="o" d="M976.644,4393.81s6.05,9.216,13.428,9.565c0,0,3.791.149,5.284-.526a30,30,0,0,0,.612,4.48S980.443,4413.689,976.644,4393.81Z" transform="translate(-976.644 -4393.81)"/></g><g transform="translate(44.857 19.837)"><path class="p" d="M1038.928,4306.85c3.223.693,6.014,4.27,7.017,7.233,1.754,5.186.685,11.317-3.466,15.059-.989.891-2.068,1.823-3.12,2.608-.609-3.007-.257-6.514-.528-9.615-.288-3.294-.348-7.839-2.3-10.677C1037.733,4310.109,1038.2,4308.45,1038.928,4306.85Z" transform="translate(-1036.533 -4306.85)"/></g><g transform="translate(17.861 18.904)"><path class="n" d="M967.975,4332.687a20.224,20.224,0,0,0,5.55,10.951c3.371,3.4,9.346,8.237,15.787,4.436,8.869-5.236,9.15-27.067,7.319-34.437a10.828,10.828,0,0,0-2.813-5.014,13.239,13.239,0,0,0-13.348-3.67c-10.458,2.766-13.761,7.737-13.687,20.641Z" transform="translate(-966.782 -4304.439)"/></g><g transform="translate(13.495 39.982)"><path class="n" d="M960.746,4360.072a2.754,2.754,0,0,0-4.4-.093c-2.4,2.484.558,8.814,5.471,7.328Z" transform="translate(-955.501 -4358.899)"/></g><g transform="translate(7.597 12.076)"><path class="p" d="M950.191,4315.657s30.547-11.454,29.727-21.1c0,0-13.017-13.275-26.512-5.1s-17.53,23.285-7.7,32.824c0,0,.969,5.481,7.133,3.669l-.827-2.664s-5.146-.607-5.714-4.064S947.723,4314.8,950.191,4315.657Z" transform="translate(-940.263 -4286.798)"/></g><path class="p" d="M9.457.229c5.083,0,9.2,4.448,9.2,9.935S14.54,20.1,9.457,20.1s-9.2-4.448-9.2-9.935S4.374.229,9.457.229Z" transform="translate(0 9.066) rotate(-30.836)"/><g transform="translate(17.419 37.336)"><path class="p" d="M965.773,4355.113s-1.574,14.815,6.114,21.765c0,0-7.536-15.9-1.33-24.814Z" transform="translate(-965.64 -4352.064)"/></g><g transform="translate(29.552 43.069)"><path class="p" d="M998.6,4368.067c.012.666-.339,1.211-.783,1.219s-.813-.526-.825-1.192.339-1.212.783-1.22S998.585,4367.4,998.6,4368.067Z" transform="translate(-996.988 -4366.875)"/></g><g transform="translate(39.451 42.538)"><path class="p" d="M1024.174,4366.7c.012.666-.339,1.212-.783,1.219s-.813-.526-.825-1.192.339-1.211.783-1.219S1024.163,4366.03,1024.174,4366.7Z" transform="translate(-1022.566 -4365.504)"/></g><g transform="translate(38.822 38.201)"><path class="q" d="M1020.94,4355.212a2.148,2.148,0,0,1,1.25-.833,2.621,2.621,0,0,1,1.571.086,3.165,3.165,0,0,1,1.249.9,3.218,3.218,0,0,1,.7,1.306c-.391-.308-.742-.6-1.11-.858a5.212,5.212,0,0,0-1.112-.623,3.312,3.312,0,0,0-1.21-.209A4.274,4.274,0,0,0,1020.94,4355.212Z" transform="translate(-1020.94 -4354.298)"/></g><g transform="translate(26.932 38.786)"><path class="q" d="M994.8,4356.531a4.254,4.254,0,0,0-1.353-.088,3.321,3.321,0,0,0-1.18.337,5.161,5.161,0,0,0-1.04.739c-.338.293-.656.624-1.011.971a3.21,3.21,0,0,1,.554-1.373,3.158,3.158,0,0,1,1.146-1.027,2.618,2.618,0,0,1,1.553-.254A2.147,2.147,0,0,1,994.8,4356.531Z" transform="translate(-990.219 -4355.81)"/></g><g transform="translate(35.094 43.864)"><path class="r" d="M1012.743,4379.1a.271.271,0,0,1-.161-.489c.325-.24,1.161-1,1.122-1.62-.017-.265-.2-.489-.55-.687-1.91-1.068-1.855-6.491-1.843-7.106a.275.275,0,0,1,.276-.265.271.271,0,0,1,.266.276c-.032,1.58.187,5.851,1.566,6.622a1.4,1.4,0,0,1,.826,1.126c.064,1.025-1.2,1.983-1.341,2.089A.27.27,0,0,1,1012.743,4379.1Z" transform="translate(-1011.307 -4368.93)"/></g><g transform="translate(31.707 55.407)"><path class="r" d="M1006.206,4401.661c-2.287,0-3.6-2.483-3.617-2.513a.271.271,0,0,1,.481-.249c.065.125,1.617,3.042,4.253,1.992a.271.271,0,0,1,.2.5A3.548,3.548,0,0,1,1006.206,4401.661Z" transform="translate(-1002.558 -4398.753)"/></g><g transform="translate(40.025 23.064)"><path class="p" d="M1024.048,4319.49s5.432,14.335,10.6,12.832c0,0,.079-15.266-4.492-17.133Z" transform="translate(-1024.048 -4315.189)"/></g></g><g transform="translate(28.523 76.36)"><path class="s" d="M917.262,4454.754s10.426,7.577,23.227,3.847c10.209-2.975,10.4-5.708,10.4-5.708s10.686.1,15.907,4.186c4.755,3.715,13.279,27,19.37,36.044a32.9,32.9,0,0,1,3.921,8.963c.882,3.022,1.391,6.474.161,8.716-2.611,4.76-6.526,4.76-11.095,2.72s-9.137-7.48-9.137-7.48-.215,29.655.653,36.039c.693,5.1,1.632,19.719,1.632,19.719H910.631s7.705-17.06,11.947-27.9c1.919-4.907-13.252-40.772-13.252-40.772s-1.958,25.839-3.916,30.6-3.916,10.2-7.832,10.2-8.417-9.664-8.376-15.31c.015-2,0-5.7-.026-9.335a87.155,87.155,0,0,1,3.56-25.48c2.465-8.27,6.218-17.633,11.368-22.006C911.732,4455.313,917.262,4454.754,917.262,4454.754Z" transform="translate(-889.175 -4452.893)"/></g><g transform="translate(48.314 106.197)"><path class="t" d="M940.67,4540.571a.193.193,0,0,1-.193-.177c-.027-.307-.642-7.563.671-10.3a.193.193,0,1,1,.349.167c-1.268,2.642-.641,10.025-.634,10.1a.193.193,0,0,1-.176.209Z" transform="translate(-940.31 -4529.984)"/></g><g transform="translate(102.16 94.128)"><path class="t" d="M1086.177,4513.015a.193.193,0,0,1-.16-.084c-.242-.351-5.929-8.657-6.58-13.914a.194.194,0,0,1,.384-.047c.64,5.162,6.456,13.656,6.515,13.742a.194.194,0,0,1-.05.269A.19.19,0,0,1,1086.177,4513.015Z" transform="translate(-1079.435 -4498.8)"/></g><g transform="translate(76.436 76.36)"><path class="k" d="M1012.969,4459.347s10.744-1.915,13.807-6.454C1026.776,4452.893,1038.18,4465.97,1012.969,4459.347Z" transform="translate(-1012.969 -4452.893)"/></g><g transform="translate(56.543 78.222)"><path class="k" d="M961.639,4457.7a30.43,30.43,0,0,0,19.825,4.593S960.221,4474.876,961.639,4457.7Z" transform="translate(-961.571 -4457.702)"/></g><g transform="translate(0 64.406)"><g transform="translate(0 2.135)"><path class="j" d="M886.483,4466.175a284.6,284.6,0,0,0-69,4.847q-.742-21.156-1.488-42.576c22.991-.491,46-.488,68.995-.328Q885.738,4447.118,886.483,4466.175Z" transform="translate(-815.794 -4427.828)"/><path class="u" d="M816.979,4470.948l-.008-.227q-.741-21.157-1.488-42.576l-.007-.2.2,0c25.336-.541,50.184-.459,69-.328h.185l.007.185q.749,19,1.494,38.057l.008.211-.211-.01A285.147,285.147,0,0,0,817.2,4470.9Zm-1.1-42.621q.739,21.207,1.473,42.152a285.464,285.464,0,0,1,68.614-4.816q-.737-18.86-1.479-37.661C865.742,4427.873,841.058,4427.793,815.877,4428.328Z" transform="translate(-815.477 -4427.52)"/></g><g transform="translate(2.614)"><path class="j" d="M856.041,4460.755a287.675,287.675,0,0,0-31.818,3.8q-.735-20.835-1.473-41.918,13.21-.133,26.425-.137a5.517,5.517,0,0,1,5.579,5.127Q855.4,4444.231,856.041,4460.755Z" transform="translate(-822.549 -4422.311)"/><path class="u" d="M823.72,4464.482l-.008-.223q-.734-20.834-1.473-41.917l-.007-.2h.2c8.177-.083,16.822-.128,26.427-.138a5.717,5.717,0,0,1,5.772,5.313q.643,16.6,1.288,33.122l.007.188-.188.013a288.673,288.673,0,0,0-31.8,3.8Zm-1.087-41.955q.731,20.873,1.458,41.5a289.276,289.276,0,0,1,31.432-3.756q-.641-16.432-1.28-32.934a5.326,5.326,0,0,0-5.385-4.941C839.331,4422.4,830.75,4422.445,822.633,4422.527Z" transform="translate(-822.232 -4422.005)"/></g><g transform="translate(34.557 0.003)"><path class="j" d="M906.555,4460.765a314.368,314.368,0,0,1,31.813-.411q-.746-18.9-1.5-37.748-13.212-.064-26.424-.092a5.009,5.009,0,0,0-5.181,5.125Q905.911,4444.239,906.555,4460.765Z" transform="translate(-905.071 -4422.32)"/><path class="u" d="M906.063,4460.663l-.008-.2q-.645-16.527-1.288-33.126a4.991,4.991,0,0,1,1.409-3.689,5.42,5.42,0,0,1,3.949-1.636h.018c9.432.014,18.651.055,26.425.093h.185l.007.185q.749,18.851,1.495,37.747l.009.208-.209-.007a315.52,315.52,0,0,0-31.793.411Zm4.062-38.263a5.038,5.038,0,0,0-3.67,1.518,4.607,4.607,0,0,0-1.3,3.406q.639,16.5,1.28,32.928c10.265-.654,20.835-.791,31.426-.406q-.738-18.7-1.479-37.354c-7.734-.038-16.882-.078-26.238-.092Z" transform="translate(-904.764 -4422.013)"/></g><g transform="translate(7.319 5.385)"><path class="m" d="M856.545,4438.51q-11.033.2-22.059.632-.049-1.384-.1-2.768,11.026-.324,22.059-.455Q856.5,4437.215,856.545,4438.51Z" transform="translate(-834.387 -4435.919)"/></g><g transform="translate(7.496 10.254)"><path class="u" d="M834.865,4449.549l-.019-.386c5.569-.273,11.317-.5,17.085-.663l.011.387C846.177,4449.053,840.431,4449.275,834.865,4449.549Z" transform="translate(-834.846 -4448.5)"/></g><g transform="translate(7.573 12.27)"><path class="u" d="M835.067,4454.966l-.022-.386c6.473-.372,13.173-.665,19.912-.871l.012.387C848.233,4454.3,841.537,4454.595,835.067,4454.966Z" transform="translate(-835.045 -4453.709)"/></g><g transform="translate(7.651 14.788)"><path class="u" d="M835.271,4461.175l-.026-.386c3.273-.215,6.622-.409,9.954-.576l.019.387C841.888,4460.766,838.541,4460.96,835.271,4461.175Z" transform="translate(-835.245 -4460.213)"/></g><g transform="translate(7.728 16.533)"><path class="u" d="M835.473,4466.16l-.029-.385c5.886-.437,11.952-.791,18.03-1.053l.017.387C847.417,4465.371,841.355,4465.725,835.473,4466.16Z" transform="translate(-835.444 -4464.721)"/></g><g transform="translate(7.805 18.515)"><path class="u" d="M835.676,4471.52l-.032-.387c6.713-.552,13.64-.986,20.589-1.291l.017.386C849.306,4470.533,842.384,4470.967,835.676,4471.52Z" transform="translate(-835.644 -4469.843)"/></g><g transform="translate(7.883 21.329)"><path class="u" d="M835.879,4478.194l-.035-.385c2.811-.255,5.684-.489,8.541-.7l.028.387C841.558,4477.706,838.687,4477.94,835.879,4478.194Z" transform="translate(-835.844 -4477.112)"/></g><g transform="translate(7.96 23.483)"><path class="u" d="M836.081,4483.823l-.038-.385c2.809-.278,5.683-.533,8.541-.76l.031.386C841.759,4483.291,838.888,4483.545,836.081,4483.823Z" transform="translate(-836.043 -4482.678)"/></g><g transform="translate(8.037 25.078)"><path class="j" d="M836.3,4488.681q7.861-.841,15.737-1.379Z" transform="translate(-836.276 -4487.108)"/><path class="u" d="M836.284,4488.566l-.041-.385c5.16-.552,10.457-1.016,15.744-1.38l.026.387C846.732,4487.551,841.439,4488.015,836.284,4488.566Z" transform="translate(-836.243 -4486.801)"/></g><g transform="translate(8.115 27.85)"><path class="j" d="M836.5,4495.284q3.93-.452,7.865-.823Z" transform="translate(-836.478 -4494.269)"/><path class="u" d="M836.487,4495.171l-.044-.385c2.6-.3,5.244-.576,7.868-.823l.036.385C841.726,4494.6,839.081,4494.873,836.487,4495.171Z" transform="translate(-836.443 -4493.964)"/></g><g transform="translate(8.192 29.071)"><path class="j" d="M836.7,4499.432q9.337-1.15,18.7-1.814Z" transform="translate(-836.68 -4497.424)"/><path class="u" d="M836.69,4499.318l-.047-.384c6.126-.755,12.421-1.366,18.708-1.816l.028.386C849.1,4497.954,842.81,4498.564,836.69,4499.318Z" transform="translate(-836.643 -4497.118)"/></g><g transform="translate(8.269 31.402)"><path class="j" d="M836.907,4505.335q7.859-1.032,15.737-1.7Z" transform="translate(-836.882 -4503.445)"/><path class="u" d="M836.892,4505.221l-.05-.384c5.169-.678,10.467-1.25,15.746-1.7l.033.385C847.347,4503.973,842.056,4504.543,836.892,4505.221Z" transform="translate(-836.842 -4503.14)"/></g><g transform="translate(42.098 12.593)"><g transform="translate(4.34)"><path class="j" d="M936.014,4455.8q.293,7.343.585,14.679,7.015-.137,14.02-.041C945.755,4465.492,940.883,4460.654,936.014,4455.8Z" transform="translate(-935.801 -4455.311)"/><path class="u" d="M936.076,4469.9l-.613-15.361,2.524,2.516c4.076,4.063,8.291,8.264,12.432,12.472l.33.335-.471-.006c-4.693-.063-9.408-.049-14.013.04Zm-.187-14.39.558,14c4.4-.083,8.889-.1,13.366-.042-4.034-4.1-8.132-8.18-12.1-12.135Z" transform="translate(-935.463 -4454.542)"/></g><g transform="translate(0 7.63)"><path class="d" d="M925.742,4476.424a.384.384,0,0,1-.038-.1c-.01-.04-.018-.082-.026-.125a.965.965,0,0,1-.119.1.877.877,0,0,1-.146.089.824.824,0,0,1-.173.061.927.927,0,0,1-.2.026.973.973,0,0,1-.319-.042.774.774,0,0,1-.247-.129.608.608,0,0,1-.163-.2.586.586,0,0,1-.064-.247.62.62,0,0,1,.059-.306.608.608,0,0,1,.2-.226.984.984,0,0,1,.317-.143,1.773,1.773,0,0,1,.421-.054l.387-.008-.007-.168a.4.4,0,0,0-.134-.3.519.519,0,0,0-.364-.106.647.647,0,0,0-.2.032.514.514,0,0,0-.152.077.348.348,0,0,0-.1.11.252.252,0,0,0-.031.129l-.391.009a.453.453,0,0,1,.055-.229.658.658,0,0,1,.174-.207.97.97,0,0,1,.279-.153,1.139,1.139,0,0,1,.371-.064,1.246,1.246,0,0,1,.343.037.754.754,0,0,1,.274.129.648.648,0,0,1,.183.221.743.743,0,0,1,.076.313q.02.5.039.993a1.408,1.408,0,0,0,.029.228.805.805,0,0,0,.068.205v.032Zm-.657-.264a.671.671,0,0,0,.2-.033.734.734,0,0,0,.165-.076.609.609,0,0,0,.128-.1.492.492,0,0,0,.082-.121l-.017-.439-.324.007a1.082,1.082,0,0,0-.511.109.311.311,0,0,0-.169.3.382.382,0,0,0,.033.145.305.305,0,0,0,.088.113.421.421,0,0,0,.14.074A.567.567,0,0,0,925.086,4476.161Z" transform="translate(-924.248 -4474.257)"/></g><g transform="translate(9.906 17.325)"><path class="v" d="M951.848,4501.274a1.478,1.478,0,0,1-.041.431,1,1,0,0,1-.159.343.759.759,0,0,1-.269.226.811.811,0,0,1-.371.083.97.97,0,0,1-.392-.071.793.793,0,0,1-.286-.209l-.009.246-.358,0q-.06-1.508-.121-3.018l.389,0,.045,1.125a.725.725,0,0,1,.265-.2.991.991,0,0,1,.756,0,.812.812,0,0,1,.286.22,1.055,1.055,0,0,1,.185.341,1.6,1.6,0,0,1,.077.443Zm-.391-.039a1.382,1.382,0,0,0-.044-.3.765.765,0,0,0-.112-.246.54.54,0,0,0-.19-.167.591.591,0,0,0-.28-.06.683.683,0,0,0-.192.027.57.57,0,0,0-.152.072.5.5,0,0,0-.115.107.689.689,0,0,0-.081.131q.019.46.037.92a.836.836,0,0,0,.094.131.582.582,0,0,0,.124.1.6.6,0,0,0,.157.069.674.674,0,0,0,.195.024.54.54,0,0,0,.267-.062.5.5,0,0,0,.176-.166.7.7,0,0,0,.1-.245,1.258,1.258,0,0,0,.022-.3Z" transform="translate(-949.843 -4499.306)"/></g><g transform="translate(13.11 4.776)"><path class="q" d="M959.169,4468.788a.608.608,0,0,0,.2-.031.556.556,0,0,0,.164-.086.432.432,0,0,0,.112-.13.386.386,0,0,0,.047-.164h.368a.585.585,0,0,1-.072.27.753.753,0,0,1-.187.226.921.921,0,0,1-.276.154.982.982,0,0,1-.339.058,1.12,1.12,0,0,1-.45-.087.953.953,0,0,1-.326-.231,1.012,1.012,0,0,1-.2-.338,1.336,1.336,0,0,1-.078-.406l0-.083a1.292,1.292,0,0,1,.046-.407.907.907,0,0,1,.175-.337.845.845,0,0,1,.306-.23,1.047,1.047,0,0,1,.442-.084,1.085,1.085,0,0,1,.365.06.928.928,0,0,1,.288.163.8.8,0,0,1,.2.245.841.841,0,0,1,.088.3h-.368a.535.535,0,0,0-.056-.184.52.52,0,0,0-.117-.15.547.547,0,0,0-.169-.1.6.6,0,0,0-.215-.038.586.586,0,0,0-.3.066.509.509,0,0,0-.184.175.683.683,0,0,0-.092.246,1.3,1.3,0,0,0-.018.274l0,.083a1.347,1.347,0,0,0,.041.278.737.737,0,0,0,.111.245.577.577,0,0,0,.2.175A.638.638,0,0,0,959.169,4468.788Z" transform="translate(-958.121 -4466.881)"/></g></g><g transform="translate(42.996 4.822)"><g transform="translate(0 0.946)"><g transform="translate(0 0.869)"><path class="d" d="M928.062,4441.329a.387.387,0,0,1-.038-.1c-.01-.04-.018-.082-.026-.125a.889.889,0,0,1-.119.1.834.834,0,0,1-.146.086.88.88,0,0,1-.173.059.9.9,0,0,1-.2.022.956.956,0,0,1-.318-.047.794.794,0,0,1-.247-.132.625.625,0,0,1-.162-.2.589.589,0,0,1-.065-.248.61.61,0,0,1,.06-.3.582.582,0,0,1,.2-.222.958.958,0,0,1,.317-.137,1.807,1.807,0,0,1,.421-.048l.387,0c0-.056,0-.112-.007-.168a.408.408,0,0,0-.134-.3.526.526,0,0,0-.364-.112.648.648,0,0,0-.2.029.486.486,0,0,0-.151.074.345.345,0,0,0-.1.108.253.253,0,0,0-.031.129l-.391,0a.444.444,0,0,1,.055-.228.639.639,0,0,1,.174-.2.945.945,0,0,1,.279-.148,1.153,1.153,0,0,1,.371-.058,1.261,1.261,0,0,1,.343.043.775.775,0,0,1,.273.133.654.654,0,0,1,.183.224.745.745,0,0,1,.076.313q.02.5.039.993a1.414,1.414,0,0,0,.029.229.829.829,0,0,0,.068.206v.031Zm-.656-.274a.687.687,0,0,0,.2-.029.777.777,0,0,0,.165-.073.576.576,0,0,0,.127-.1.47.47,0,0,0,.083-.119l-.017-.438-.324,0a1.085,1.085,0,0,0-.511.1.305.305,0,0,0-.169.3.385.385,0,0,0,.033.145.318.318,0,0,0,.087.115.444.444,0,0,0,.14.076A.566.566,0,0,0,927.405,4441.055Z" transform="translate(-926.568 -4439.154)"/></g><g transform="translate(3.305 0.652)"><path d="M936.352,4439.43l.853,0q.007.172.014.345l-.853,0q.018.453.036.906h-.391q-.018-.453-.036-.907l-.853,0-.014-.346.853,0q-.016-.418-.033-.837h.391Q936.336,4439.011,936.352,4439.43Z" transform="translate(-935.108 -4438.593)"/></g><g transform="translate(6.882)"><path class="v" d="M946.354,4438.887a1.471,1.471,0,0,1-.042.432.979.979,0,0,1-.158.342.757.757,0,0,1-.269.225.817.817,0,0,1-.371.081.959.959,0,0,1-.392-.074.794.794,0,0,1-.286-.211l-.009.246h-.357l-.121-3.022h.389l.045,1.127a.729.729,0,0,1,.265-.2.908.908,0,0,1,.374-.07.894.894,0,0,1,.382.079.823.823,0,0,1,.286.221,1.068,1.068,0,0,1,.185.342,1.6,1.6,0,0,1,.077.443Zm-.391-.041a1.377,1.377,0,0,0-.044-.3.769.769,0,0,0-.111-.248.548.548,0,0,0-.191-.167.579.579,0,0,0-.28-.062.665.665,0,0,0-.192.025.553.553,0,0,0-.152.071.5.5,0,0,0-.115.106.681.681,0,0,0-.081.132q.018.46.037.921a.8.8,0,0,0,.095.131.6.6,0,0,0,.124.106.623.623,0,0,0,.157.071.7.7,0,0,0,.194.025.539.539,0,0,0,.267-.062.5.5,0,0,0,.176-.165.689.689,0,0,0,.1-.245,1.249,1.249,0,0,0,.022-.3Z" transform="translate(-944.35 -4436.907)"/></g><g transform="translate(10.432 1.106)"><path d="M955.287,4440.084l-1.753,0-.013-.316,1.753,0Zm.033.815-1.753,0-.013-.314,1.752,0Z" transform="translate(-953.521 -4439.764)"/></g><g transform="translate(13.764 0.869)"><path class="q" d="M963.18,4441.061a.622.622,0,0,0,.2-.031.545.545,0,0,0,.164-.085.426.426,0,0,0,.112-.13.381.381,0,0,0,.047-.164l.368,0a.581.581,0,0,1-.072.27.749.749,0,0,1-.187.225.91.91,0,0,1-.276.154.97.97,0,0,1-.339.057,1.112,1.112,0,0,1-.45-.087.963.963,0,0,1-.326-.232,1.02,1.02,0,0,1-.2-.338,1.341,1.341,0,0,1-.078-.407l0-.083a1.3,1.3,0,0,1,.046-.406.911.911,0,0,1,.175-.337.848.848,0,0,1,.306-.229,1.048,1.048,0,0,1,.442-.083,1.074,1.074,0,0,1,.365.061.914.914,0,0,1,.288.163.786.786,0,0,1,.2.246.82.82,0,0,1,.088.3h-.368a.543.543,0,0,0-.057-.184.525.525,0,0,0-.116-.15.557.557,0,0,0-.169-.1.666.666,0,0,0-.512.027.516.516,0,0,0-.184.175.676.676,0,0,0-.092.245,1.315,1.315,0,0,0-.018.274l0,.083a1.351,1.351,0,0,0,.041.278.731.731,0,0,0,.111.245.577.577,0,0,0,.2.176A.644.644,0,0,0,963.18,4441.061Z" transform="translate(-962.132 -4439.154)"/></g></g><g transform="translate(1.86 0)"><path d="M932.446,4435.92l-1,0-.005-.13.481-.525c.044-.048.081-.091.11-.127a.718.718,0,0,0,.068-.1.306.306,0,0,0,.041-.167.282.282,0,0,0-.022-.1.247.247,0,0,0-.055-.081.241.241,0,0,0-.085-.055.3.3,0,0,0-.114-.02.359.359,0,0,0-.134.022.245.245,0,0,0-.093.06.235.235,0,0,0-.053.093.339.339,0,0,0-.014.118h-.195a.447.447,0,0,1,.026-.172.373.373,0,0,1,.089-.142.434.434,0,0,1,.153-.1.6.6,0,0,1,.215-.035.64.64,0,0,1,.2.027.438.438,0,0,1,.148.078.37.37,0,0,1,.1.122.388.388,0,0,1,.038.157.373.373,0,0,1-.018.127.691.691,0,0,1-.057.128.924.924,0,0,1-.086.126q-.051.063-.106.123l-.394.42.768,0Z" transform="translate(-931.373 -4434.465)"/></g><g transform="translate(8.72)"><path d="M950.171,4435.915h-1l-.005-.131.48-.52c.044-.048.081-.09.11-.126a.709.709,0,0,0,.068-.1.32.32,0,0,0,.034-.085.309.309,0,0,0,.007-.081.28.28,0,0,0-.022-.1.243.243,0,0,0-.055-.081.255.255,0,0,0-.086-.055.321.321,0,0,0-.114-.021.382.382,0,0,0-.134.021.253.253,0,0,0-.093.06.236.236,0,0,0-.053.092.351.351,0,0,0-.014.118H949.1a.451.451,0,0,1,.025-.171.377.377,0,0,1,.089-.14.426.426,0,0,1,.153-.094.592.592,0,0,1,.215-.035.652.652,0,0,1,.195.027.439.439,0,0,1,.148.079.372.372,0,0,1,.1.121.4.4,0,0,1,.038.157.37.37,0,0,1-.018.126.656.656,0,0,1-.057.127.954.954,0,0,1-.087.125c-.033.041-.068.083-.105.122l-.394.417h.768Z" transform="translate(-949.098 -4434.464)"/></g><g transform="translate(15.848 0.024)"><path d="M968.588,4435.979l-1-.005-.005-.13.48-.519c.044-.047.081-.089.11-.125a.7.7,0,0,0,.068-.1.326.326,0,0,0,.034-.085.314.314,0,0,0,.007-.081.285.285,0,0,0-.022-.1.239.239,0,0,0-.055-.081.253.253,0,0,0-.085-.056.322.322,0,0,0-.114-.021.392.392,0,0,0-.134.021.24.24,0,0,0-.093.06.227.227,0,0,0-.053.092.336.336,0,0,0-.014.118h-.194a.445.445,0,0,1,.025-.17.372.372,0,0,1,.089-.141.425.425,0,0,1,.153-.094.6.6,0,0,1,.215-.034.655.655,0,0,1,.2.028.443.443,0,0,1,.148.079.375.375,0,0,1,.1.122.385.385,0,0,1,.037.156.358.358,0,0,1-.018.126.687.687,0,0,1-.057.127.948.948,0,0,1-.086.125c-.034.042-.069.083-.106.122l-.394.414.768,0C968.584,4435.88,968.586,4435.93,968.588,4435.979Z" transform="translate(-967.515 -4434.527)"/></g></g></g><g transform="translate(26.04 98.204)"><path class="n" d="M886.425,4529.116s-3.932-7.38-3.652-9.238c.232-1.534,1.4-7.636,1.8-9.719a1.014,1.014,0,0,1,1.05-.826c.291.018.552.119.605.406.13.707-.587,6.67-.587,6.67l.454-.052s1.256-6.243,2.087-6.558a.982.982,0,0,1,1.39.745c.138.663-.539,6.178-.539,6.178l.979.137.9-4.839a1.137,1.137,0,0,1,1.225-.944.778.778,0,0,1,.7.712,37.4,37.4,0,0,1-.262,5.866l1.156.124s.229-4.279.892-4.793a1.06,1.06,0,0,1,1.641.806c.038.735-.043,7.5-.043,7.5s.2,5.919-.647,7.933Z" transform="translate(-882.759 -4509.331)"/></g><g transform="translate(29.512 117.749)"><path class="t" d="M905.775,4591.065a.194.194,0,0,1-.193-.179,97.8,97.8,0,0,0-2.3-13.733c-1.159-5.307-2.357-10.793-2.4-16.78-1.256.008-2.5-.037-3.7-.078-1.8-.062-3.5-.118-5.245-.03a.2.2,0,0,1-.2-.183.193.193,0,0,1,.183-.2c1.761-.09,3.47-.033,5.278.029,1.259.043,2.563.087,3.881.076a.191.191,0,0,1,.137.056.194.194,0,0,1,.058.137c.014,6.021,1.221,11.548,2.388,16.893a98.03,98.03,0,0,1,2.311,13.786.194.194,0,0,1-.179.208Z" transform="translate(-891.73 -4559.833)"/></g><g transform="translate(59.85 87.127)"><path class="n" d="M999.852,4491.469s-7.535-8.454-9.145-9.259c-1.363-.682-7.344-1.315-9.145-1.494a.9.9,0,0,0-.979,1.086,1.45,1.45,0,0,0,.158.378l-9.565-1.1a.938.938,0,0,0-1.031.72.8.8,0,0,0,.34.944c.718.4,7.869,1.643,9.9,1.989a.643.643,0,0,1,.534.636h0a.645.645,0,0,1-.694.644l-5.333-.4a1.04,1.04,0,0,0-1.026.6,1.217,1.217,0,0,0,.485,1.7l5.989.512-.016.077a.645.645,0,0,1-.675.515l-3.805-.254a1.1,1.1,0,0,0-1.093.667,1.2,1.2,0,0,0,.63,1.7,18.337,18.337,0,0,0,5.023,1.074l-.015.077a.646.646,0,0,1-.714.519l-2.086-.261a.758.758,0,0,0-.836.547c-.113.45-.028,1.053.945,1.466,1.739.738,5.474,2.348,7.857,2.348s8.178.405,9.531,1.209Z" transform="translate(-970.114 -4480.712)"/><g transform="translate(10.531 1.373)"><path class="w" d="M1003.792,4485.333h-.014l-6.371-.88a.1.1,0,0,1-.082-.109.1.1,0,0,1,.109-.083l6.371.88a.1.1,0,0,1-.013.192Z" transform="translate(-997.325 -4484.26)"/></g><g transform="translate(0.201 0.545)"><path class="w" d="M971.622,4483.627a.71.71,0,0,1-.124-.011l-.294-.053a.694.694,0,0,1-.559-.807l.012-.065a.694.694,0,0,1,.806-.559l.294.053a.7.7,0,0,1,.559.806l-.012.065A.694.694,0,0,1,971.622,4483.627Zm-.282-1.312a.5.5,0,0,0-.492.412l-.012.065a.5.5,0,0,0,.4.581l.294.053h0a.5.5,0,0,0,.581-.4l.012-.065a.5.5,0,0,0-.4-.581l-.294-.053A.465.465,0,0,0,971.339,4482.315Z" transform="translate(-970.634 -4482.122)"/></g></g><g transform="translate(34.558 100.081)"><path class="w" d="M905.526,4515.87h-.048l-.066,0a.694.694,0,0,1-.645-.739h0l.021-.3a.688.688,0,0,1,.236-.476.7.7,0,0,1,.5-.169l.066,0a.694.694,0,0,1,.644.739l-.02.3A.7.7,0,0,1,905.526,4515.87Zm-.565-.732a.5.5,0,0,0,.465.533l.066,0a.486.486,0,0,0,.363-.122.5.5,0,0,0,.17-.343l.02-.3a.5.5,0,0,0-.464-.534l-.066,0a.5.5,0,0,0-.533.465Z" transform="translate(-904.766 -4514.181)"/></g><g transform="translate(37.806 101.783)"><path class="w" d="M913.919,4520.268h-.048l-.066,0a.694.694,0,0,1-.645-.739h0l.021-.3a.691.691,0,0,1,.739-.645l.066,0a.694.694,0,0,1,.645.74l-.021.3A.694.694,0,0,1,913.919,4520.268Zm-.565-.732h0a.5.5,0,0,0,.465.533l.066,0a.5.5,0,0,0,.533-.464l.021-.3a.5.5,0,0,0-.465-.533l-.066,0a.5.5,0,0,0-.533.465Z" transform="translate(-913.159 -4518.578)"/></g><g transform="translate(31.192 98.693)"><path class="w" d="M896.832,4512.285l-.048,0-.066,0a.695.695,0,0,1-.645-.74h0l.021-.3a.693.693,0,0,1,.74-.645l.066,0a.7.7,0,0,1,.645.74l-.021.3a.694.694,0,0,1-.691.646Zm-.566-.732a.5.5,0,0,0,.465.533l.066,0a.488.488,0,0,0,.363-.122.494.494,0,0,0,.17-.342l.021-.3a.5.5,0,0,0-.465-.533l-.066,0a.5.5,0,0,0-.533.465Z" transform="translate(-896.071 -4510.595)"/></g><g transform="translate(28.031 98.317)"><path class="w" d="M888.639,4511.259a.369.369,0,0,1-.046,0l-.064,0a.672.672,0,0,1-.624-.716l.02-.287a.667.667,0,0,1,.228-.46.654.654,0,0,1,.487-.164l.063,0a.673.673,0,0,1,.624.716l-.02.287A.672.672,0,0,1,888.639,4511.259Zm-.045-1.44a.478.478,0,0,0-.476.445l-.02.287h0a.478.478,0,0,0,.444.509l.064,0a.477.477,0,0,0,.509-.444l.019-.287a.479.479,0,0,0-.444-.509l-.064,0Zm-.593.725h0Z" transform="translate(-887.903 -4509.625)"/></g><g transform="translate(84.702 96.168)"><path class="t" d="M1059,4537.605a.192.192,0,0,1-.137-.057l-24.474-24.732a.194.194,0,0,1-.02-.249l6.037-8.416a.194.194,0,0,1,.261-.051c1.2.765,29.417,18.771,33.812,23.49a.194.194,0,0,1-.283.265c-4.2-4.506-31.274-21.854-33.582-23.329l-5.835,8.134,24.359,24.616a.193.193,0,0,1-.137.33Z" transform="translate(-1034.328 -4504.07)"/></g></g><g transform="translate(28.375 200.566)"><rect class="d" width="272.507" height="0.387"/></g></g></g></g></svg>