<svg xmlns="http://www.w3.org/2000/svg" width="270.966" height="270.966" viewBox="0 0 270.966 270.966"><defs><style>.a{fill:#edf2fa;}.b{fill:#4b4865;}.c,.l{fill:#fff;}.d{fill:#d9e4fd;}.e{opacity:0.3;}.f{fill:#adc4fc;}.g{fill:#dce8fd;}.h{fill:#3a5cbc;}.i{fill:#5fa7fb;}.j{fill:#eaecfd;}.k{fill:#bac4f1;}.l{opacity:0.5;}.m{fill:#edba2c;}.n{fill:#ffaf97;}</style></defs><g transform="translate(-304 -2316)"><g transform="translate(304 2316)"><circle class="a" cx="135.483" cy="135.483" r="135.483" transform="translate(0)"/><g transform="translate(19.537 107.96)"><path class="b" d="M149.021,5445.853H-13.909l-19.519-100.784a5.906,5.906,0,0,1,5.8-7.029h150.9a5.906,5.906,0,0,1,5.8,4.783Z" transform="translate(33.538 -5338.04)"/><path class="c" d="M277.949,5736.075h62.326v2.884a5.779,5.779,0,0,1-5.778,5.778H173.353a5.778,5.778,0,0,1-5.778-5.778v-2.884Z" transform="translate(-113.101 -5628.263)"/><path class="d" d="M0,0H32.843a0,0,0,0,1,0,0V0A4.533,4.533,0,0,1,28.31,4.533H4.533A4.533,4.533,0,0,1,0,0V0A0,0,0,0,1,0,0Z" transform="translate(124.868 107.812)"/><path class="e" d="M260.211,5345.75a1.413,1.413,0,1,1-1.413-1.414A1.413,1.413,0,0,1,260.211,5345.75Z" transform="translate(-178.584 -5342.631)"/><circle class="e" cx="0.808" cy="0.808" r="0.808" transform="translate(79.405 2.311)"/><path class="d" d="M73.732,5738.96v-2.885h-34.8v2.885a5.778,5.778,0,0,0,5.778,5.778h34.8A5.778,5.778,0,0,1,73.732,5738.96Z" transform="translate(-19.302 -5628.263)"/><path class="f" d="M85.125,5750.148H66.859a1.133,1.133,0,0,1-1.133-1.133h0a1.133,1.133,0,0,1,1.133-1.133H85.125a1.133,1.133,0,0,1,1.133,1.133h0A1.133,1.133,0,0,1,85.125,5750.148Z" transform="translate(-38.839 -5636.872)"/></g><path class="g" d="M156.654,5450.319l-17.6-90.868a2.642,2.642,0,0,0-2.593-2.139H-11.231a2,2,0,0,0-1.963,2.379l17.553,90.628Z" transform="translate(38.269 -5244.132)"/><path class="h" d="M247.8,5252.615l-46.383,7.01a2.456,2.456,0,0,1-2.8-2.062l-7.011-46.383a2.456,2.456,0,0,1,2.062-2.8l46.383-7.011a2.456,2.456,0,0,1,2.8,2.062l7.011,46.383A2.457,2.457,0,0,1,247.8,5252.615Z" transform="translate(-111.067 -5130.412)"/><path class="i" d="M380.567,5093.314l7.169,47.432c37.6-5.683,69.662,22.7,69.662,22.7l-16.991-112.415S418.164,5087.632,380.567,5093.314Z" transform="translate(-248.865 -5020.815)"/><path class="j" d="M171.513,5285.551h0l-6.74-44.593h0a11.969,11.969,0,0,0-10.046,13.624l3.162,20.923A11.97,11.97,0,0,0,171.513,5285.551Z" transform="translate(-84.096 -5159.294)"/><path class="i" d="M625.579,5151.908h0a5.61,5.61,0,0,1-6.386-4.709l-16.774-110.976a5.611,5.611,0,0,1,4.709-6.387h0a5.612,5.612,0,0,1,6.386,4.71l16.774,110.976A5.611,5.611,0,0,1,625.579,5151.908Z" transform="translate(-410.579 -5005.311)"/><g transform="translate(70.618 93.999)"><path class="k" d="M163.34,5289.282l-7.875,1.19-.418-2.767,7.875-1.19a1.4,1.4,0,0,1,1.593,1.174h0A1.4,1.4,0,0,1,163.34,5289.282Z" transform="translate(-155.047 -5286.499)"/><path class="k" d="M166.747,5311.828l-7.875,1.19-.418-2.768,7.875-1.19a1.4,1.4,0,0,1,1.593,1.174h0A1.4,1.4,0,0,1,166.747,5311.828Z" transform="translate(-157.531 -5302.938)"/><path class="k" d="M170.156,5334.375l-7.875,1.19-.418-2.768,7.875-1.19a1.4,1.4,0,0,1,1.593,1.174h0A1.4,1.4,0,0,1,170.156,5334.375Z" transform="translate(-160.016 -5319.378)"/><path class="k" d="M173.563,5356.92l-7.875,1.19-.418-2.767,7.875-1.19a1.4,1.4,0,0,1,1.593,1.174h0A1.4,1.4,0,0,1,173.563,5356.92Z" transform="translate(-162.501 -5335.816)"/></g><path class="l" d="M424.283,5146.937a3.185,3.185,0,0,1-1.365-6.207,62.068,62.068,0,0,0,17.643-8.539,87.474,87.474,0,0,0,19.086-18.212,3.185,3.185,0,0,1,5.03,3.908,93.931,93.931,0,0,1-20.512,19.555,68.437,68.437,0,0,1-19.46,9.4A3.327,3.327,0,0,1,424.283,5146.937Z" transform="translate(-278.073 -5065.811)"/><g transform="translate(208.485 65.946)"><path class="h" d="M671,5183.208l-6.96-.278,5.676,37.553,6.567-2.323a9.812,9.812,0,0,0,6.43-10.717l-2.4-15.9A9.813,9.813,0,0,0,671,5183.208Z" transform="translate(-664.042 -5182.93)"/></g><path class="h" d="M291.435,5459.008a1.292,1.292,0,0,0-1.467-.268l-3.32,1.542c-4.912-8.137-12.831-23.852-17.375-46.46l2.61-.395a1.762,1.762,0,0,0,1.479-2.006l-2.056-13.6-29.8,4.5a241.566,241.566,0,0,0,12.715,48.264q3.254,8.683,7.2,17.361c2.1,4.616,3.234,9.5,12.035,6.517,4.141-1.4,12.574-5.369,16.007-7.008l5.388-2.5a1.293,1.293,0,0,0,.378-2.077Z" transform="translate(-147.468 -5273.668)"/><path class="m" d="M360.054,5400.444l-1.029-6.808-7.5,1.133,1.713,11.331,2.974-.449A4.575,4.575,0,0,0,360.054,5400.444Z" transform="translate(-227.691 -5270.618)"/><g transform="translate(44.177 118.693)"><g transform="translate(0)"><path class="n" d="M136.524,5460.5h-.011c-6.341,1.144-7.447-3.152-9.307-7.24q-3-6.589-5.593-13.173a4.79,4.79,0,0,0,.987-1.664c.383-1.56,1.032-5.757-.37-13.257-1.833-9.8-4.418-13.179-4.418-13.179s1.565-2.562,3.367-6.024a38.879,38.879,0,0,0,2.232-5.136c4.459-1.274,14.375-5,17.973-10.856,3.164-5.149.392-12.608-.746-12.289-2.433.684-20.2,7.621-22.387,8.561s-16.784,18.1-18.676,21.239c-1.586,2.636-9.336,25.514-12.084,34.337a12.645,12.645,0,0,1-2.76,4.792l-27.3,18.555h71.709C133.136,5462.677,136.524,5460.5,136.524,5460.5Z" transform="translate(-57.43 -5377.667)"/><path class="n" d="M365.4,5520.713c-1.022-2.387-3.66-5.187-7.561-3.7-1.352.516-17.548,10.2-19.958,11.585s-5.141,4.669-2.716,9.1c1.945,3.555,5.114,2.717,6.96,2.019l-.168.07c-2.052.856-4.55,3.188-3.072,6.949s5.156,2.3,6.225,2.075.751-.05,10.463-3.271,9.581-7.25,9.012-9.241-2.381-4.484-5.627-3.695c-.634.154-5.305,2.146-9.628,4.007,1.573-.744,3.629-1.723,6.345-3.022C367.213,5528.071,366.417,5523.093,365.4,5520.713Z" transform="translate(-259.248 -5478.968)"/><path class="n" d="M324.032,5450.571c1.672,3.488,4.757,4.446,8.139,2.906s19.071-9.959,21.369-14.381.251-10.085-4.329-11.276c-.624-.162-3.027,1.109-6.069,2.964.259-.229.495-.446.7-.645a9.74,9.74,0,0,0,2.714-9.612,5.761,5.761,0,0,0-5.8-4.388c-1.494.28-2.108.592-10.4,8.467s-6.011,12.348-4.046,13.881a4.127,4.127,0,0,0,3.546,1.105c-1.923,1.349-3.345,2.381-3.82,2.763C324.011,5443.984,322.785,5447.971,324.032,5450.571Z" transform="translate(-251.453 -5405.691)"/></g></g></g></g></svg>