<svg xmlns="http://www.w3.org/2000/svg" width="204" height="203" viewBox="0 0 204 203"><defs><style>.a{fill:#b2b4c7;opacity:0.154;}.b{fill:#fff;}.c{fill:#313034;}.d{fill:#141318;}.e{fill:#292929;}.f{fill:#d7d7d7;}.g{fill:#009bde;}.h{fill:#fa3a2b;}.i{fill:#ffcc54;}.j{fill:#db2818;}.k{fill:#5d5d5d;}.l{fill:#c1c1c1;}.m{fill:#0063ff;}.n{fill:#28b8f2;}</style></defs><g transform="translate(0.483 -0.491)"><ellipse class="a" cx="102" cy="101.5" rx="102" ry="101.5" transform="translate(-0.483 0.491)"/><g transform="translate(26.642 54.084)"><path class="b" d="M176.158,234.163H35.367a5.648,5.648,0,0,1-5.427-5.846V194.852c0-9.412,3.149-20.5,5.4-27.23a8.66,8.66,0,0,1,8.087-6.131h80.737c6.419,0,13.072,6.412,19.14,14.459s14.939,18.482,19.607,21.877,18.674,6.082,18.674,13.956v16.533A5.648,5.648,0,0,1,176.158,234.163Z" transform="translate(-29.94 -156.396)"/><path class="c" d="M477.518,343.862l3.984,9.817a5.846,5.846,0,0,0,5.209-5.81v-4.006Z" transform="translate(-335.065 -275.948)"/><rect class="c" width="91.53" height="3.106" transform="translate(34.512 74.662)"/><path class="c" d="M35.785,356.811H52.494v-8.226H29.939v2.379A5.847,5.847,0,0,0,35.785,356.811Z" transform="translate(-29.939 -279.044)"/><path class="d" d="M87.214,331.585a14.082,14.082,0,0,0-14.082,14.082H101.3A14.082,14.082,0,0,0,87.214,331.585Z" transform="translate(-58.254 -267.899)"/><path class="d" d="M438.555,345.416a14.08,14.08,0,0,0-28.157.25h26.466A5.844,5.844,0,0,0,438.555,345.416Z" transform="translate(-291.065 -267.899)"/><rect class="e" width="8.225" height="2.44" transform="translate(78.587 2.656)"/><rect class="f" width="48.447" height="60.35" rx="3.496" transform="translate(46.067 12.472)"/><rect class="g" width="42.203" height="20.82" rx="4.72" transform="translate(49.181 23.032)"/><path class="g" d="M333.91,215.919v16.428a2.362,2.362,0,0,0,2.033,2.331l23.313,3.376a2.369,2.369,0,0,0,2.719-2.331v-6.746a2.345,2.345,0,0,0-.589-1.553l-11.538-13.058a2.384,2.384,0,0,0-1.787-.8H336.286A2.366,2.366,0,0,0,333.91,215.919Z" transform="translate(-238.274 -190.531)"/><path class="h" d="M49.407,285.871h99.16l30.75,3.807v3.1H49.407Z" transform="translate(-42.701 -237.932)"/><path class="i" d="M486.607,289.086c-.653-3.65-4.678-6.112-9.09-8.081a19.913,19.913,0,0,0,5.423,9.959,8.972,8.972,0,0,0,3.77,2.354V290.13A5.891,5.891,0,0,0,486.607,289.086Z" transform="translate(-335.065 -234.742)"/><rect class="c" width="9.094" height="1.551" rx="0.75" transform="translate(97.358 50.526)"/><rect class="j" width="48.447" height="6.908" transform="translate(46.067 47.939)"/><rect class="c" width="9.094" height="1.551" rx="0.75" transform="translate(80.705 50.526)"/><path class="h" d="M31.2,279.511H29.94v19.614H31.2a1.593,1.593,0,0,0,1.592-1.593V281.1A1.593,1.593,0,0,0,31.2,279.511Z" transform="translate(-29.94 -233.763)"/><circle class="c" cx="11.441" cy="11.441" r="11.441" transform="translate(12.779 77.767) rotate(-45)"/><circle class="k" cx="6.915" cy="6.915" r="6.915" transform="translate(21.026 83.485) rotate(-80.783)"/><circle class="l" cx="5.318" cy="5.318" r="5.318" transform="translate(24.304 72.449)"/><circle class="c" cx="11.441" cy="11.441" r="11.441" transform="translate(117.234 77.767) rotate(-45)"/><circle class="k" cx="6.915" cy="6.915" r="6.915" transform="matrix(0.161, -0.987, 0.987, 0.161, 125.475, 83.477)"/><circle class="l" cx="5.318" cy="5.318" r="5.318" transform="translate(128.096 72.449)"/><rect class="m" width="14.585" height="3.446" rx="1.667" transform="translate(75.384)"/><path class="n" d="M204.5,213.563l-16.5,17.5v.951a2.374,2.374,0,0,0,2.374,2.374h9.778l19.633-20.82Z" transform="translate(-138.408 -190.531)"/><path class="n" d="M286.679,246.343V235.428l-12.531,13.288h10.157A2.374,2.374,0,0,0,286.679,246.343Z" transform="translate(-196.564 -204.864)"/><path class="n" d="M349.848,214.366a2.384,2.384,0,0,0-1.787-.8h-1.127L333.91,227.375v4.972a2.362,2.362,0,0,0,2.033,2.331l5.756.834,13.555-15.027Z" transform="translate(-237.845 -190.531)"/><g transform="translate(15.44 14.408)"><circle class="h" cx="13.52" cy="13.52" r="13.52" transform="translate(0 0)"/><path class="b" d="M105.873,208.805h-7.2v-7.2H95.042v7.2h-7.2v3.634h7.2v7.2h3.634v-7.2h7.2Z" transform="translate(-83.339 -197.102)"/></g></g></g></svg>