<svg xmlns="http://www.w3.org/2000/svg" xmlns:xlink="http://www.w3.org/1999/xlink" width="265" height="265" viewBox="0 0 265 265"><defs><style>.a{fill:none;}.b{fill:#edf2fa;}.c{clip-path:url(#a);}.d{fill:#edb38c;}.e{fill:#3a5cbc;}.f{fill:#fff;}.g{fill:#00adee;}.h{fill:#dce8fd;}.i{fill:#ffaf97;}.j{fill:#3a5cbe;}.k{fill:#162458;}.l{fill:#d54f1f;}.m{fill:#b0ccf4;}.n{fill:#ad4040;}.o{fill:#2d1e18;}.p{fill:#543024;}.q{fill:#cac4c4;}.r{fill:#8d2828;}</style><clipPath id="a"><ellipse class="a" cx="129.104" cy="128.674" rx="129.104" ry="128.674"/></clipPath></defs><g transform="translate(-74 -2032)"><g transform="translate(74 2032)"><g transform="translate(0)"><ellipse class="b" cx="132.5" cy="132.071" rx="132.5" ry="132.071"/></g><g transform="translate(4.333 7.652)"><g class="c"><g transform="translate(-10.61 5.145)"><g transform="translate(147.227 143.579)"><path class="d" d="M368.114,4539.169l1.728,5.57s13.176,1.688,17.624,6.848c0,0,.9,1.4-.959,1.344,0,0,.056,1.351-1.914.394a20.825,20.825,0,0,0-5.8-1.4s5.08,1.57,6.531,3.478c0,0,1.129,2.582-3.827.337,0,0-10.415-3.145-14.581-3.145a55.514,55.514,0,0,0,5.854,4.063s2.591,2.56-1.857,1.688c0,0-7.773-1.964-9.6-5.109a21.335,21.335,0,0,1-1.067-5.834l-3-6.133Z" transform="translate(-357.253 -4539.169)"/></g><g transform="translate(43.758 117.006)"><path class="e" d="M170.318,4485.2c-1.953-.973-25.967-5.063-26.532-5.063s-15.614,4.574-15.614,4.574l6.657,77.578,25.12-.963,6.932-44.055,12.106,37.512,26.718,4.2L190,4501.464l-5.047-14.915Z" transform="translate(-128.172 -4480.14)"/></g><g transform="translate(37.936 36.783)"><path class="f" d="M193.292,4308.98s14.243,1.559,16.975,13.419c0,0,24.584,76.805,26.34,86.528l-11.29,4.084-25.556-52.888s18.922,85.942,5.08,89.251l-7.339.376-17.409-55.987-30.63-3.506s-2.337,54.835,1.366,66.116c0,0,.785,14.774-34.532-16.142,0,0,2.343-68.641,21.852-115.9,0,0,13.853-28.779,45.455-19.641Z" transform="translate(-115.84 -4302.463)"/><path class="g" d="M146.56,4459.818c-5.592,0-16.239-6.752-31.117-19.776l-.16-.14.007-.214c.023-.687,2.569-69.263,21.886-116.058a44.475,44.475,0,0,1,11.008-13.424c6.848-5.59,18.476-11.252,34.99-6.479l.057.021,9.626,4.266c1.123.148,14.623,2.168,17.293,13.756.994,3.1,24.6,76.908,26.344,86.549l.067.373-12.032,4.353-24.11-49.9c1.47,7.072,4.718,23.385,6.963,39.771,4.019,29.33,3.012,44.93-2.992,46.365l-.082.012-7.69.395-.1-.334-17.322-55.707-29.854-3.417c-.218,5.451-2.088,54.958,1.364,65.473l.022.115a3.855,3.855,0,0,1-2.041,3.563A4.827,4.827,0,0,1,146.56,4459.818ZM116.2,4439.506c22.155,19.368,29.613,20.264,32.088,19.069a2.951,2.951,0,0,0,1.534-2.654c-3.657-11.366-1.462-63.973-1.367-66.21l.02-.483,31.406,3.594,17.393,55.933,6.944-.356c3.75-.95,7.166-9.615,2.27-45.353-2.963-21.631-7.678-43.139-7.725-43.354l-.828-3.76,27.054,55.989,10.544-3.815c-2.238-11.021-26.011-85.34-26.254-86.1-2.637-11.439-16.455-13.092-16.594-13.108l-.134-.036-9.659-4.281c-16.1-4.646-27.438.859-34.11,6.3A43.56,43.56,0,0,0,138,4324C119.292,4369.321,116.37,4435.25,116.2,4439.506Z" transform="translate(-115.283 -4301.934)"/></g><g transform="translate(70.922 39.154)"><path class="h" d="M217.538,4307.2s-4.691,11.3-8.789,17.712l4.68,40.02-4.68,9.953-14.079-8.1-2.4,6.943-3.952,18.342,31.612,3.54s.519-12.941,10.077-34.923c0,0,13.322-30.123,6.955-46.855C236.975,4313.835,231.087,4316.732,217.538,4307.2Z" transform="translate(-188.314 -4307.201)"/></g><g transform="translate(78.28 94.63)"><path class="i" d="M215.107,4431.312l46.476-.877,16,3.5,7.542,4.613a1.376,1.376,0,0,1,.53,1.75v.051a1.385,1.385,0,0,1-1.838.667c-.035-.016-.07-.034-.1-.053l-6.5-3.719-4.55-.371,4.747,2.313,3.1,6.025a1.3,1.3,0,0,1-.561,1.76h0a1.311,1.311,0,0,1-1.75-.563l-2.726-5.271-3.9-.776,2.969,2.532.119,4.872a1.314,1.314,0,0,1-1.281,1.345h-.034a1.319,1.319,0,0,1-1.315-1.176l-.458-4.27-3.9-1.362s-8.976,3.7-12.1-1.552l-39.516,8.6c-2.715.591-4.11-1.012-6.334-2.672-2.67-1.986-6.639-4.231-4.516-8.975A11.073,11.073,0,0,1,215.107,4431.312Z" transform="translate(-204.604 -4430.435)"/></g><g transform="translate(111.446 49.637)"><path class="g" d="M278.84,4387.932l-.805-.407,12.622-24.792-2.709-6.217,5.223-5.108-3.668-20.764.89-.156,3.75,21.231-5.119,5.007,2.631,6.038Z" transform="translate(-278.035 -4330.486)"/></g><g transform="translate(75.534 90.524)"><path class="f" d="M219.034,4426.162l27.317-.743v12.446s-39.245,11.252-47.825-5.064c0,0,2.219-5.626,2.49-6.188s7.491-4.67,7.683-5.255S219.034,4426.162,219.034,4426.162Z" transform="translate(-198.525 -4421.313)"/></g><g transform="translate(47.163 153.666)"><path class="e" d="M143.829,4578.243a3.527,3.527,0,0,1-.544-.042c-3.377-.52-5.9-5.942-7.493-16.117l-.08-.509.43.288c.105.071,10.565,7.039,16.32,7.151l.012-.025.178.032,1.9.444H152.74C152.044,4570.831,148.074,4578.243,143.829,4578.243Zm-7.511-15.724c1.563,9.633,3.929,14.76,7.035,15.238,3.959.61,8.023-6.669,8.881-8.3C146.933,4569.212,138.356,4563.841,136.319,4562.519Z" transform="translate(-135.712 -4561.575)"/></g><g transform="translate(109.907 19.603)"><ellipse class="f" cx="2.439" cy="3.016" rx="2.439" ry="3.016"/></g><g transform="translate(67.917 68.567)"><path class="f" d="M193.755,4400.169c9.755-1.361,43.9-1.559,43.9-1.559v14.185s-29.626,7.876-34.825,5.812c-20.8-8.366-20.164-46.052-20.164-46.052" transform="translate(-182.209 -4372.547)"/><path class="g" d="M204.972,4419.382a8.322,8.322,0,0,1-2.86-.367c-8.648-3.478-14.924-12.635-18.154-26.48a92.746,92.746,0,0,1-2.295-20l.9.015c-.006.374-.387,37.473,19.882,45.627,1.422.564,5.892.651,19.1-2.154,6.994-1.486,13.57-3.186,15.105-3.587v-13.384c-4.083.03-34.378.294-43.382,1.551l-.125-.892c9.673-1.35,43.615-1.561,43.956-1.562l.454,0v14.982l-.335.089C236.152,4413.5,213.929,4419.382,204.972,4419.382Z" transform="translate(-181.661 -4372.538)"/></g><g transform="translate(113.941 42.846)"><path class="j" d="M284.624,4344.682a7.621,7.621,0,0,1-.434-6.969,12.788,12.788,0,0,1,1.8-3.24c5.174-9.661,4.719-14.075,3.424-16.077a5.192,5.192,0,0,0-4.382-2.091l-.059-.9a6.038,6.038,0,0,1,5.2,2.5c2.077,3.211.931,8.939-3.406,17.026l-.048.072c-.04.05-4,4.968-1.333,9.2Z" transform="translate(-283.559 -4315.401)"/></g><g transform="translate(95.885 36.725)"><path class="j" d="M244.489,4330.741l-.811-.4c2.973-6.035.823-13.8.8-13.875-1.491-6.011-1.122-10.265,1.094-12.658a6.96,6.96,0,0,1,5.855-1.946l-.145.89a6.131,6.131,0,0,0-5.052,1.674c-1.991,2.159-2.287,6.133-.878,11.811C245.442,4316.556,247.618,4324.392,244.489,4330.741Z" transform="translate(-243.582 -4301.805)"/></g><g transform="translate(100.146 4.938)"><path class="i" d="M268.146,4262.388s5.188,6.189,10.726,7.426a7.16,7.16,0,0,0,7.649-3.443c2.664-4.545,7.757-16.013.034-27.7l-11.573-7.475-9.621,15.193-3.876,8.71-8.468,10.522,7.124,6.3a9.672,9.672,0,0,0,9.427,2.059,5.737,5.737,0,0,0,3.145-2.211l1.959-6.441Z" transform="translate(-253.017 -4231.193)"/></g><g transform="translate(104.509)"><path class="k" d="M269.479,4243s2.789-2.2,3.28,1h1.925s-1.942-12.789,6.007-14.466c0,0,9.365-.563,13.091,6.549,0,0,8.022-13.177-1.637-14.443,0,0-27.1-6.611-29.067,8.653,0,0-1.948,14.662,2.732,19.967l1.061-1.615Z" transform="translate(-262.676 -4220.224)"/></g><g transform="translate(113.159 70.673)"><ellipse class="f" cx="3.85" cy="3.837" rx="3.85" ry="3.837" transform="translate(0.452 0.45)"/><path class="j" d="M286.128,4385.792a4.287,4.287,0,1,1,4.3-4.287A4.3,4.3,0,0,1,286.128,4385.792Zm0-7.674a3.387,3.387,0,1,0,3.4,3.387A3.4,3.4,0,0,0,286.128,4378.117Z" transform="translate(-281.826 -4377.217)"/></g><g transform="translate(115.513 73.126)"><ellipse class="j" cx="1.84" cy="1.834" rx="1.84" ry="1.834"/></g><g transform="translate(124.912 22.191)"><ellipse class="k" cx="1.27" cy="1.553" rx="1.27" ry="1.553"/></g><g transform="translate(133.69 21.611)"><ellipse class="k" cx="1.27" cy="1.553" rx="1.27" ry="1.553"/></g><g transform="translate(126.554 32.428)"><path class="k" d="M315.762,4295.053a4.351,4.351,0,0,1-4.278-2.654l.429-.141c.046.136,1.173,3.312,5.869,2.053l.117.435A8.254,8.254,0,0,1,315.762,4295.053Z" transform="translate(-311.484 -4292.258)"/></g><g transform="translate(123.042 19.297)"><path class="k" d="M304.128,4265.481l-.42-.165c1.136-2.871,4.427-2.148,4.461-2.14l-.1.439C307.948,4263.587,305.12,4262.974,304.128,4265.481Z" transform="translate(-303.708 -4263.089)"/></g><g transform="translate(133.568 18.614)"><path class="k" d="M330.313,4263.218a2.528,2.528,0,0,0-3.1-.95l-.2-.4c2.154-1.053,3.658,1.077,3.673,1.1Z" transform="translate(-327.012 -4261.572)"/></g><g transform="translate(89.746 45.173)"><path class="g" d="M0,0H.9L.922,50.4h-.9Z" transform="translate(0 0.188) rotate(-6.641)"/></g><g transform="translate(132.815 24.649)"><path class="l" d="M326.234,4279.829l-.074-.213c.706-.244,1.112-.614,1.2-1.1.266-1.393-2-3.347-2.02-3.367l.147-.17c.1.083,2.385,2.058,2.1,3.578A1.789,1.789,0,0,1,326.234,4279.829Z" transform="translate(-325.345 -4274.979)"/></g><g transform="translate(110.197 20.561)"><ellipse class="d" cx="2.294" cy="2.872" rx="2.294" ry="2.872"/></g><g transform="translate(0 51.583)"><g transform="translate(0.591 110.252)"><path class="m" d="M323.118,4585.1v37.572H33.208l-.608-36.108,84.194,10.816,195.584-17.664Z" transform="translate(-32.601 -4579.722)"/></g><g transform="translate(0 82.524)"><path class="h" d="M322.4,4552.586s.867-12.155-.959-13.611-78.91-20.79-80.938-20.846-201,21.716-205.962,23.341-2.8,12.7-2.659,12.946,81,26.241,85.952,26.241S322.4,4552.586,322.4,4552.586Z" transform="translate(-31.292 -4518.129)"/></g><g transform="translate(154.211 53.908)"><path class="f" d="M373.048,4503.18c.66.331,8.236,0,8.732,0s3.628-7.637,4.533-9.524,4.762-25.951,4.762-25.951l-11.705-13.145s-.005,1.05-.01,2.8c-.023,6.142-.081,20.9-.11,28.83-.013,3.039-.021,5.079-.021,5.248a28.329,28.329,0,0,1-1.98,5.667,22.52,22.52,0,0,0-3.294,2.545C372.72,4500.883,372.391,4502.853,373.048,4503.18Z" transform="translate(-372.717 -4454.561)"/></g><g transform="translate(176.111 67.891)"><path class="f" d="M445.434,4487.3s-2.224-2.709-8.239-1.231-6.756,6.98-7.333,9.772,5.108,11.333,5.108,11.333-6.921,1.561-10.546,2.545-3.3,2.838-3.131,3.924.906,2.071,3.626,2.071,25.377-2.627,27.766-5.748a15.915,15.915,0,0,0,2.9-6.652Z" transform="translate(-421.203 -4485.623)"/></g><g transform="translate(160.173 15.815)"><path class="f" d="M390.978,4417.073a35.946,35.946,0,0,0,7.378,5.851c.638.412,1.28.823,1.925,1.249a38.069,38.069,0,0,1,6.434,5.137c1.189,1.2,2.635,2.6,4.229,4.094.228.212.458.429.69.644,4.558,4.241,10.132,9.092,14.275,12.2,2.393,1.793,4.308,3.006,5.277,3.183,2.227.412,9.613,2.284,15.317.263a11.375,11.375,0,0,0,1.864-.842c.089-.05.175-.1.259-.151a10.293,10.293,0,0,0,.88-.6,9.537,9.537,0,0,0,2.82-3.471,11.239,11.239,0,0,0,.611-1.525c.035-.108.069-.217.1-.325,3.257-10.736-2.939-21.735-7.682-27.02-1.7-1.9-6.622-6.107-11.168-9.9-4.209-3.516-8.1-6.676-8.812-7.314-1.483-1.325-13.347-12.592-13.966-13.7a81.789,81.789,0,0,1-2.264-8.667c-.319-1.39-.537-2.377-.537-2.377l-3.314-1.375-6-2.484-1.33,1.533-.744.857-8.184,9.433s-1.717,8.363-2.211,12.995S383.563,4409.108,390.978,4417.073Z" transform="translate(-385.915 -4369.94)"/></g><g transform="translate(167.044 63.193)"><path class="f" d="M401.462,4514.521c.663.328,8.237,0,8.735,0s3.625-7.637,4.533-9.524c.406-.853,2.021-5.784,3.669-10.941l.008-.021,0,0c.295-.92.589-1.851.876-2.761,1.685-5.3,3.177-10.088,3.177-10.088l-13.5-6s-.144,2.917-.336,6.854c-.065,1.37-.138,2.862-.214,4.4l-.039.78c-.188,3.9-.383,7.985-.527,10.993-.12,2.592-.2,4.38-.2,4.564a28.476,28.476,0,0,1-1.976,5.665,22.567,22.567,0,0,0-3.3,2.548C401.134,4512.223,400.8,4514.193,401.462,4514.521Z" transform="translate(-401.129 -4475.187)"/></g><g transform="translate(188.875 74.659)"><path class="l" d="M449.552,4528.674c.164,1.084.907,2.07,3.625,2.07a151.048,151.048,0,0,0,20.542-2.969c3.61-.829,6.458-1.778,7.224-2.778a15.529,15.529,0,0,0,2.269-4.273,14.213,14.213,0,0,0,.628-2.379l-10.148-16.013s-2.225-2.711-8.239-1.232a8.7,8.7,0,0,0-5.832,4.64,12.63,12.63,0,0,0-1.523,5.537,8.348,8.348,0,0,0,.824,3.213c.013.031.028.063.042.094.211.481.444.951.665,1.4.722,1.474,1.539,2.9,2.392,4.3a12.858,12.858,0,0,0,1.205,1.916c-.06.013-.978.221-2.3.527-2.345.544-5.952,1.394-8.244,2.017C449.059,4525.735,449.387,4527.588,449.552,4528.674Z" transform="translate(-449.462 -4500.658)"/></g><g transform="translate(202.352 87.706)"><path class="f" d="M479.347,4552.757c.576.229,5.139.247,12.077-1.358q.741-.17,1.518-.366c7.786-1.971,20.595-3.779,18.042-12.038a14.561,14.561,0,0,0-6.738-8.408,11.213,11.213,0,0,0-2.037-.948l-2.042,2.991-.524.769-1.636,2.4s.69.221,1.646.633c.059.024.118.051.18.076.3.133.628.283.964.451,2.262,1.116,5,2.969,4.5,5.24-.668,3.062-11.106,4.752-15.841,6.051-.5.138-.942.271-1.3.4C484.451,4550.005,478.729,4552.51,479.347,4552.757Z" transform="translate(-479.301 -4529.639)"/></g><g transform="translate(160.508 24.909)"><path class="f" d="M395.65,4390.538s-1.432,3.477-4.138,4.416a7.154,7.154,0,0,1-4.855,0l2.181-4.812Z" transform="translate(-386.657 -4390.142)"/></g><g transform="translate(154.792 3.088)"><path class="l" d="M381.738,4341.67a27.032,27.032,0,0,0-3.293,3.18c-.8,1.11-5.014,13.008-4.377,18.006.467,3.668,2.3,4.337,5.332,4.284s6.447-6.108,6.447-6.108Z" transform="translate(-374.003 -4341.67)"/></g><g transform="translate(157.706 23.592)"><path class="n" d="M380.456,4390.758c-.038,1.538.546,3.417,2,4.188a2.343,2.343,0,0,0,3.348-1.265c.343-.83.42-1.745.833-2.55a4.712,4.712,0,0,1,1.955-1.976c.135-.074.014-.279-.121-.205a5.079,5.079,0,0,0-.473.294.116.116,0,0,0-.014-.016,10.46,10.46,0,0,0-2.657-1.456,6.026,6.026,0,0,0-2.889-.517C380.943,4387.512,380.487,4389.49,380.456,4390.758Z" transform="translate(-380.454 -4387.218)"/></g><g transform="translate(155.624)"><path class="l" d="M376.7,4360.067a1.341,1.341,0,0,0,1,.921,2.156,2.156,0,0,0,2.388-1.19,3.552,3.552,0,0,0,2.865,2.54c2.309.317,4.219-.238,6.765-2.223.086-.066.172-.136.253-.2.2-.166.389-.331.566-.5a9.268,9.268,0,0,0,2.445-3.425s8.756-2.855,9.71-3.648-1.194-11.106-1.194-11.106A10.923,10.923,0,0,0,391,4334.811a12.011,12.011,0,0,0-8.247,3.086,9.4,9.4,0,0,0-2.547,3.931c-.294,1.045-.449,4.959-1.036,5.833-.428.638-1.306,1.889-2.049,3.093a8.33,8.33,0,0,0-1.239,2.618A18.516,18.516,0,0,0,376.7,4360.067Z" transform="translate(-375.844 -4334.811)"/></g><g transform="translate(170.719 9.812)"><path class="o" d="M409.478,4356.907a.6.6,0,0,1,.876-.179,1.675,1.675,0,0,1,.447,1.52.816.816,0,0,1-.557.783c-.867.185-1.066-1.156-.948-1.726A1,1,0,0,1,409.478,4356.907Z" transform="translate(-409.265 -4356.607)"/></g><g transform="translate(160.506 9.534)"><path class="o" d="M386.851,4356.266a.56.56,0,0,1,.811-.165,1.551,1.551,0,0,1,.414,1.407.756.756,0,0,1-.516.724c-.8.172-.987-1.07-.879-1.6A.923.923,0,0,1,386.851,4356.266Z" transform="translate(-386.653 -4355.988)"/></g><g transform="translate(201.235 66.758)"><path class="l" d="M476.968,4487.381a15.9,15.9,0,0,0,2.343,6.659,52.459,52.459,0,0,0,6.456,8.578,61.56,61.56,0,0,0,6.985,6.6c1.167.941,2.368,1.843,3.6,2.7a11.416,11.416,0,0,0,1.864-.842c.089-.049.175-.1.259-.15a10.411,10.411,0,0,0,.88-.6,9.538,9.538,0,0,0,2.82-3.472c0-.056,0-.113,0-.169a35.072,35.072,0,0,0-1.147-10.13c-1.5-5.285-4.963-10.35-10.2-12.5-4.536-1.854-10.317-1.017-13.636,2.713a8.656,8.656,0,0,1,.348-2.59.123.123,0,0,0-.237-.063,8.918,8.918,0,0,0-.351,2.934c-.032.039-.065.076-.1.118A.132.132,0,0,0,476.968,4487.381Z" transform="translate(-476.827 -4483.107)"/></g><g transform="translate(170.762 17.045)"><path class="l" d="M409.4,4403.885c.5,4.518,3.1,21.365,3.74,21.791-.076,1.6-.164,3.369-.253,5.181,3.434,4.723,9.107,7.855,10.036,6.813l0,0,2.533-8c1.307-1.822,2.626-1.278,3.92-1.237a2.561,2.561,0,0,0,1.484-.33c2.045-1.221,12.592-15.748,16.186-20.743-4.21-3.515-8.1-6.676-8.813-7.312-1.481-1.326-13.346-12.592-13.964-13.7-.008-.013-.013-.027-.021-.04-.485-.884-3.1-6.025-3.776-8.991-.028-.123-.055-.242-.081-.356-.772-.335-1.622-.7-2.493-1.066-2.752-1.162-5.715-2.368-7.07-2.916-.477-.192-.754-.3-.754-.3l.01,1.159.021,2.782a23.132,23.132,0,0,0,1.5,9.441C413.473,4390.576,408.9,4399.37,409.4,4403.885Z" transform="translate(-409.359 -4372.674)"/></g><g transform="translate(2.753 107.691)"><path class="e" d="M120.974,4599.8a.26.26,0,0,0,.076-.509l-83.326-25.25a.26.26,0,1,0-.152.5l83.326,25.25A.243.243,0,0,0,120.974,4599.8Z" transform="translate(-37.388 -4574.034)"/></g><g transform="translate(179.242 18.298)"><path class="p" d="M430.643,4390.376c1.86,4.853,4.131,9.535,5.276,14.632a43.127,43.127,0,0,1,.636,15.867,11.084,11.084,0,0,0,3.114,9.087,12.473,12.473,0,0,0,1.617,1.473c2.5,1.91,5.406,2.528,8.64,2.816.855-.592,3.354-2.4,3.751-2.669a18.843,18.843,0,0,1,7.047-2.839,10.544,10.544,0,0,1,6.964.949,8.1,8.1,0,0,1,4.042,4.8c.725,2.615-.188,5.306-.253,7.941a25.328,25.328,0,0,0,.631,5.423c.141.715.279,1.43.392,2.146.062.378.115.755.156,1.134.037.349.065.7.084,1.05,2.261,1.116,4.995,2.969,4.5,5.238-.668,3.063-11.105,4.754-15.841,6.052a1.977,1.977,0,0,0,.112,1.284,5.324,5.324,0,0,0,1.855,1.866c.5-.112,1-.236,1.518-.366,7.788-1.971,20.6-3.78,18.043-12.038a14.567,14.567,0,0,0-6.739-8.407c3.257-10.735-2.939-21.736-7.681-27.021-1.7-1.9-6.622-6.106-11.168-9.9-4.21-3.516-8.1-6.676-8.813-7.313-1.481-1.325-13.346-12.592-13.964-13.7-.008-.013-.013-.026-.021-.039-.485-.884-3.1-6.025-3.776-8.991-.028-.122-.055-.242-.081-.356-.276-1.2-.456-2.022-.456-2.022l-1.781-1.008c-.07.36-.125.728-.172,1.1-.034.288-.063.58-.084.868C427.852,4381.865,429.063,4386.253,430.643,4390.376Z" transform="translate(-428.134 -4375.458)"/></g><g transform="translate(175.947 4.438)"><path class="l" d="M425.017,4344.668s4.5,3.5,6.091,6.668,2.467,10.629.238,14.517-6.606,4.838-8.118,3.569-2.308-20.783-2.388-21.656S425.017,4344.668,425.017,4344.668Z" transform="translate(-420.84 -4344.668)"/></g><g transform="translate(155.624 5.535)"><path class="f" d="M376.7,4366.828a1.341,1.341,0,0,0,1,.921,2.155,2.155,0,0,0,2.388-1.19,3.551,3.551,0,0,0,2.865,2.539c2.309.316,4.219-.238,6.765-2.223.086-.067.172-.136.253-.2-1.132-2.208-1.181-4.729-3.106-6.5a15.2,15.2,0,0,0-2.873-2.054c-.444-.251-1.152-.521-1.086-1.142.119-1.133,1.929-3.589,2.614-4.76s1.521-4.2,1.791-4.729-.6-.537-.955.148-1.251,3.183-1.79,4.134-3.4,4.671-4.355,5.056c-.785.319-1.9.657-3.4,1.183a5.007,5.007,0,0,0-.939,2.121A18.516,18.516,0,0,0,376.7,4366.828Z" transform="translate(-375.844 -4347.105)"/></g><g transform="translate(156.422 17.276)"><path class="o" d="M382.652,4373.6a6.1,6.1,0,0,0-2.676-.407,4.646,4.646,0,0,0-2.089.193c-.238.164-.477,1.592,0,1.949a9.9,9.9,0,0,0,2.06,1.07c.179,0,2.328-.565,2.656-1.1A1.874,1.874,0,0,0,382.652,4373.6Z" transform="translate(-377.611 -4373.188)"/></g><g transform="translate(173.759 73.68)"><path class="l" d="M416,4511.024a4.622,4.622,0,0,0,3.779,2.672c3.957.086,6.614-6.428,6.776-6.832l.008-.021s-2.83-3.892-2.915-4.2a43.876,43.876,0,0,0-5.294-4.159,5.213,5.213,0,0,0-1.787.762l-.039.78C416.335,4503.928,416.14,4508.017,416,4511.024Z" transform="translate(-415.996 -4498.483)"/></g><g transform="translate(188.875 88.584)"><path class="f" d="M449.552,4545.682c.164,1.083.907,2.069,3.625,2.069a150.968,150.968,0,0,0,20.542-2.969c3.61-.829,6.458-1.777,7.224-2.778a15.529,15.529,0,0,0,2.269-4.273s-2.293,2.012-4.267,2.142-.764-.2-3.8-1.95-5.767.39-10.787-.715c-2.481-.546-4.243-3.135-5.394-5.617.211.481.444.951.665,1.4.722,1.474,1.539,2.9,2.392,4.3a12.864,12.864,0,0,0,1.205,1.917c-.06.013-.978.221-2.3.527-2.345.543-5.952,1.393-8.244,2.017C449.059,4542.742,449.387,4544.6,449.552,4545.682Z" transform="translate(-449.462 -4531.59)"/></g><g transform="translate(160.745 56.707)"><path class="l" d="M387.182,4489.61a2.868,2.868,0,0,0,1.784-1.264,5.814,5.814,0,0,0,.652-2.729c.089-1.435.157-2.875.217-4.313a84.314,84.314,0,0,0-.005-8.508,37.634,37.634,0,0,0-2.537-12.017C387.268,4466.921,387.211,4481.676,387.182,4489.61Z" transform="translate(-387.182 -4460.779)"/></g><g transform="translate(162.313 58.667)"><path class="o" d="M391.154,4465.245a44.351,44.351,0,0,0,8.533,8.756c.265.206-.107.572-.369.368a44.816,44.816,0,0,1-8.615-8.861C390.505,4465.237,390.958,4464.977,391.154,4465.245Z" transform="translate(-390.655 -4465.132)"/></g><g transform="translate(173.81 8.851)"><path class="o" d="M416.2,4367.846a38.172,38.172,0,0,1,1.809-6.082,22.771,22.771,0,0,0,1.156-7.042.261.261,0,0,1,.522,0c.019,3.628-1.119,6.878-2.236,10.281-1.123,3.422-1.572,9.167,3.238,9.869.331.048.19.549-.139.5C416.94,4374.847,415.747,4371.01,416.2,4367.846Z" transform="translate(-416.107 -4354.471)"/></g><g transform="translate(158.598 21.094)"><path class="o" d="M382.935,4381.856q.194,1.357.488,2.7c.071.326-.431.465-.5.138q-.294-1.34-.488-2.7C382.385,4381.667,382.888,4381.526,382.935,4381.856Z" transform="translate(-382.429 -4381.668)"/></g><g transform="translate(160.909 21.326)"><path class="q" d="M387.806,4382.215l.294-.031a.262.262,0,0,1,.261.26.265.265,0,0,1-.261.259l-.294.031a.262.262,0,0,1-.261-.26A.266.266,0,0,1,387.806,4382.215Z" transform="translate(-387.545 -4382.184)"/></g><g transform="translate(161.228 23.595)"><path class="q" d="M388.5,4387.223h.326a.26.26,0,0,1,0,.52H388.5A.26.26,0,0,1,388.5,4387.223Z" transform="translate(-388.252 -4387.223)"/></g><g transform="translate(163.161 22.55)"><path class="q" d="M392.793,4384.934l.261-.03a.262.262,0,0,1,.261.26.267.267,0,0,1-.261.26l-.261.03a.262.262,0,0,1-.261-.26A.266.266,0,0,1,392.793,4384.934Z" transform="translate(-392.532 -4384.903)"/></g><g transform="translate(156.939 21.18)"><path class="q" d="M379.018,4381.86l.294.032a.268.268,0,0,1,.261.259.262.262,0,0,1-.261.259l-.294-.032a.268.268,0,0,1-.261-.259A.262.262,0,0,1,379.018,4381.86Z" transform="translate(-378.757 -4381.859)"/></g><g transform="translate(157.217 23.317)"><path class="q" d="M379.632,4386.608l.261.032a.267.267,0,0,1,.261.259.262.262,0,0,1-.261.261l-.261-.032a.269.269,0,0,1-.261-.26A.262.262,0,0,1,379.632,4386.608Z" transform="translate(-379.371 -4386.607)"/></g><g transform="translate(155.944 22.169)"><path class="q" d="M376.815,4384.057l.261.032a.268.268,0,0,1,.261.26.262.262,0,0,1-.261.26l-.261-.032a.269.269,0,0,1-.261-.26A.262.262,0,0,1,376.815,4384.057Z" transform="translate(-376.554 -4384.056)"/></g><g transform="translate(186.325 78.974)"><path class="o" d="M444.275,4510.3q4.816,3.834,9.983,7.187c.28.183.019.633-.263.449q-5.219-3.39-10.089-7.268C443.644,4510.461,444.015,4510.1,444.275,4510.3Z" transform="translate(-443.816 -4510.241)"/></g><g transform="translate(86.282 133.788)"><path class="e" d="M222.581,4641.71a.261.261,0,0,0,.261-.261v-9.185a.261.261,0,0,0-.522,0v9.185A.261.261,0,0,0,222.581,4641.71Z" transform="translate(-222.32 -4632.004)"/></g><g transform="translate(87.238 103.655)"><path class="e" d="M224.7,4594.875l.038,0,201.433-29.286a.261.261,0,0,0,.22-.3.259.259,0,0,0-.3-.219l-201.433,29.286a.26.26,0,0,0,.038.517Z" transform="translate(-224.438 -4565.069)"/></g><g transform="translate(192.175 132.942)"><path class="e" d="M457.029,4650.372c.144,0,.261-.08.261-.18v-19.886c0-.1-.117-.18-.261-.18s-.261.081-.261.18v19.886C456.768,4650.292,456.885,4650.372,457.029,4650.372Z" transform="translate(-456.768 -4630.126)"/></g><g transform="translate(204.922 132.942)"><path class="e" d="M486.408,4634.712l15.486-2.107a1.246,1.246,0,0,0,1.069-1.4h0a1.249,1.249,0,0,0-1.407-1.065l-15.486,2.107a1.246,1.246,0,0,0-1.069,1.4h0A1.249,1.249,0,0,0,486.408,4634.712Z" transform="translate(-484.989 -4630.126)"/></g><g transform="translate(161.769 138.467)"><path class="e" d="M390.868,4646.986l15.486-2.107a1.246,1.246,0,0,0,1.069-1.4h0a1.248,1.248,0,0,0-1.407-1.065l-15.486,2.107a1.246,1.246,0,0,0-1.069,1.4h0A1.249,1.249,0,0,0,390.868,4646.986Z" transform="translate(-389.449 -4642.4)"/></g><g transform="translate(159.518 26.084)"><path class="r" d="M384.735,4392.939c.075-.326.579-.187.5.139a9.563,9.563,0,0,0-.078,4.02c.063.327-.44.467-.5.138A10.237,10.237,0,0,1,384.735,4392.939Z" transform="translate(-384.466 -4392.753)"/></g></g><g transform="translate(115.295 27.063)"><path class="j" d="M289.01,4280.341s14.888,6.944,19.645,2.982c0,0-1.379,18.538-14.847,12.151,0,0-6.991-3.653-7.251-15.133Z" transform="translate(-286.557 -4280.341)"/></g><g transform="translate(113.952 21.22)"><path class="j" d="M287.379,4273.2s-.908-4.682-3.8-5.843c0,0,1.689,1.66,1.343,5.843" transform="translate(-283.583 -4267.362)"/></g><g transform="translate(110.054 23.433)"><path class="j" d="M275.186,4273.079s1.168,4.428,6.416,3.4l.191,2.666s-8-.25-6.7-6.861Z" transform="translate(-274.952 -4272.279)"/></g><g transform="translate(89.772 64.617)"><path class="j" d="M236.741,4373.456l-.846-.316,1.829-4.861a2.674,2.674,0,0,0-1.561-3.437l-.023-.009a2.678,2.678,0,0,0-3.431,1.563l-1.818,4.8-.845-.318,1.818-4.794a3.583,3.583,0,0,1,4.609-2.082l.023.008a3.576,3.576,0,0,1,2.073,4.591Z" transform="translate(-230.047 -4363.765)"/></g></g></g></g></g></g></svg>