<svg xmlns="http://www.w3.org/2000/svg" width="265" height="265" viewBox="0 0 265 265"><defs><style>.a{fill:#b2b4c7;opacity:0.154;}.b{fill:#091538;}.c{fill:#162458;}.d{fill:#221f3e;}.e{fill:#d54f1f;}.f{fill:#cfd1d2;}.g,.s{fill:#dce8fd;}.h{fill:#e17163;}.i{fill:#a5320f;}.j{fill:#bc4748;}.k{fill:#fafaf0;}.l{fill:#39394b;}.m{fill:#ecb442;}.n{fill:#72a6b5;}.o{opacity:0.33;}.p{fill:#477779;}.q{fill:#384260;}.r{fill:#3a5cbc;}.s,.u{opacity:0.15;}.t{fill:#acc5e8;}</style></defs><g transform="translate(-50 -713)"><circle class="a" cx="132.5" cy="132.5" r="132.5" transform="translate(50 713)"/><g transform="translate(70.112 796.236)"><g transform="translate(83.717 60.58)"><path class="b" d="M2722.578,3166.074a7.639,7.639,0,0,0-4.782-1.725c0-.007-6.551-.007-6.551-.007a7.707,7.707,0,0,0-4.872,1.727c-4.569,3.58-6.139,11.525-3.5,17.714,1.785,4.194,5.041,6.517,8.374,6.482,0,.009,6.551.009,6.551.009,3.3-.019,6.519-2.334,8.288-6.484C2728.718,3177.6,2727.146,3169.645,2722.578,3166.074Z" transform="translate(-2701.591 -3164.342)"/></g><g transform="translate(77.701 60.58)"><path class="b" d="M2695.844,3166.074a7.641,7.641,0,0,0-4.782-1.725c0-.007-6.551-.007-6.551-.007a7.708,7.708,0,0,0-4.873,1.727c-4.57,3.58-6.139,11.525-3.5,17.714,1.783,4.194,5.04,6.517,8.374,6.482,0,.009,6.551.009,6.551.009,3.3-.019,6.518-2.334,8.287-6.484C2701.983,3177.6,2700.413,3169.645,2695.844,3166.074Z" transform="translate(-2674.857 -3164.342)"/></g><rect class="c" width="53.461" height="21.307" transform="translate(68.19 51.702)"/><g transform="translate(20.863 62.955)"><rect class="c" width="35.886" height="4.403"/></g><g transform="translate(42.576 56.241)"><path class="c" d="M2537.312,3146.877h-12.7c-3.463,0-6.41,3.495-6.41,7.8v9.127h9.858c1.215,0,2.2-1.376,2.2-3.073v-4.257c0-3.509,2.287-6.355,5.105-6.355h1.951Z" transform="translate(-2518.197 -3146.877)"/></g><g transform="translate(33.423 57.627)"><rect class="c" width="111.88" height="7.722" transform="translate(0)"/></g><g transform="translate(33.423 53.765)"><g transform="translate(0 0)"><rect class="c" width="8.395" height="7.722"/></g><g transform="translate(20.315 0)"><rect class="c" width="34.018" height="7.722"/></g></g><g transform="translate(55.752 70.975)"><g transform="translate(0)"><rect class="c" width="34.018" height="5.134"/></g></g><g transform="translate(82.627 53.765)"><g transform="translate(0 0)"><rect class="c" width="8.395" height="7.722"/></g><g transform="translate(32.271 0)"><rect class="c" width="8.395" height="7.722"/></g></g><g transform="translate(114.427 58.945)"><rect class="c" width="25.122" height="19.024" transform="translate(0 0)"/></g><g transform="translate(68.74 51.025)"><path class="d" d="M2634.614,3128.212a2.329,2.329,0,0,1,2.33-2.33H2655.1a2.329,2.329,0,0,1,2.331,2.33Z" transform="translate(-2634.614 -3125.882)"/></g><g transform="translate(110.443 31.377)"><g transform="translate(0 0)"><path class="d" d="M2841.588,3057.83a11.042,11.042,0,1,0-11.041,11.042A11.041,11.041,0,0,0,2841.588,3057.83Z" transform="translate(-2819.505 -3046.787)"/></g></g><g transform="translate(105.844 13.69)"><path class="e" d="M2796.331,2977.874a2.289,2.289,0,0,0,2.29,2.289h3.719a2.29,2.29,0,0,0,2.289-2.289h0a2.29,2.29,0,0,0-2.289-2.29h-3.719a2.29,2.29,0,0,0-2.29,2.29Z" transform="translate(-2796.331 -2975.584)"/></g><g transform="translate(105.723 15.604)"><path class="d" d="M2795.614,2987.53a.372.372,0,0,1-.107-.017.377.377,0,0,1-.254-.467l1.117-3.759h3.773a.376.376,0,0,1,0,.752h-3.212l-.958,3.221a.376.376,0,0,1-.36.27Z" transform="translate(-2795.237 -2983.287)"/></g><g transform="translate(3.853 27.57)"><path class="c" d="M2491.893,3050.358H2360.51l-15.416-4.694v-14.2h143.467l9.267,6.862Z" transform="translate(-2345.094 -3031.46)"/></g><g transform="translate(53.572 31.482)"><path class="c" d="M2584.892,3048.672a6.475,6.475,0,0,0-4.033-1.455s-5.527,0-5.527,0a6.5,6.5,0,0,0-4.109,1.457c-3.855,3.021-5.179,9.72-2.953,14.941,1.5,3.538,4.25,5.5,7.062,5.467,0,.008,5.527.008,5.527.008,2.785-.016,5.5-1.968,6.99-5.468C2590.07,3058.391,2588.743,3051.686,2584.892,3048.672Z" transform="translate(-2567.188 -3047.213)"/></g><g transform="translate(23.443 31.482)"><path class="d" d="M2423.956,3047.208h5.526v.006a6.445,6.445,0,0,1,4.034,1.454c3.851,3.012,5.179,9.718,2.957,14.943-1.492,3.5-4.2,5.453-6.99,5.459v.009h-5.526Z" transform="translate(-2423.956 -3047.208)"/></g><g transform="translate(15.299 31.477)"><path class="b" d="M2403.275,3067.6c-3.852,3.017-8.8,1.224-11.021-4.008s-.9-11.923,2.954-14.942,8.8-1.219,11.022,4.007.9,11.93-2.956,14.943Z" transform="translate(-2391.174 -3047.19)"/></g><g transform="translate(18.1 35.274)"><path class="d" d="M2410.345,3075.8c-2.514,1.971-5.741.8-7.194-2.617s-.589-7.783,1.929-9.756,5.742-.8,7.2,2.615.585,7.792-1.93,9.757Z" transform="translate(-2402.446 -3062.471)"/></g><g transform="translate(21.487 39.864)"><path class="d" d="M2418.9,3085.71c-.9.7-2.05.285-2.57-.933a3.1,3.1,0,0,1,.69-3.484c.9-.7,2.05-.284,2.569.934a3.1,3.1,0,0,1-.688,3.484Zm-1.555-3.651a2.017,2.017,0,0,0-.449,2.274c.341.8,1.091,1.071,1.679.611a2.021,2.021,0,0,0,.448-2.276c-.339-.794-1.091-1.068-1.677-.609Z" transform="translate(-2416.084 -3080.952)"/></g><g transform="translate(17.643 34.65)"><path class="f" d="M2409.2,3074.453c-2.732,2.135-6.24.866-7.824-2.844s-.634-8.47,2.1-10.61,6.241-.863,7.82,2.841.64,8.473-2.1,10.613Zm-5.44-12.776c-2.462,1.923-3.306,6.207-1.885,9.537s4.576,4.488,7.044,2.558c2.452-1.921,3.3-6.2,1.875-9.54s-4.573-4.48-7.033-2.555Z" transform="translate(-2400.608 -3059.96)"/></g><g transform="translate(2.868)"><path class="e" d="M2371.465,2920.475a6.972,6.972,0,0,0-5.56,3.3l-6.572,12.045a8.725,8.725,0,0,1-5.509,3.919l-8.973,1.5a4.607,4.607,0,0,0-3.718,4.377c-.007,2.245.018,11.876.018,11.876a4.86,4.86,0,0,0,3.878,4.377l3.312.783a4.193,4.193,0,0,0,4.505-3.042c1.494-4.253,4.754-7.2,8.541-7.2,4.22,0,7.793,3.661,8.992,8.708a4.557,4.557,0,0,0,4.188,3.725h36.288a4.558,4.558,0,0,0,4.188-3.725c1.2-5.047,4.773-8.708,8.992-8.708s7.791,3.661,8.991,8.708a4.559,4.559,0,0,0,4.19,3.725h10.9l.713-6.616,3.464-3.319,7.1-16.889-17.632-15.1a11.78,11.78,0,0,0-6.613-2.445Z" transform="translate(-2341.132 -2920.475)"/></g><g transform="translate(131.916 27.57)"><path class="d" d="M2920.007,3031.46h-7.851l2.743,6.862h9.128v-2.84A4.022,4.022,0,0,0,2920.007,3031.46Z" transform="translate(-2912.157 -3031.46)"/></g><g transform="translate(62.049 17.543)"><path class="e" d="M2641.759,2998.788l-2.848-3.053-23.264-4.64h50.071l13.714,3.873,9.873-1.946,2.875,3.575,3.873-.452L2698,3001.2h-46.311Z" transform="translate(-2615.647 -2991.095)"/></g><g transform="translate(57.549)"><path class="e" d="M2646.229,2938.017l-17.632-15.1a11.778,11.778,0,0,0-6.614-2.445h-32.267l6.442,17.542Z" transform="translate(-2589.716 -2920.475)"/></g><g transform="translate(99.807 34.431)"><path class="e" d="M2826.188,3062.693a2.467,2.467,0,0,1-2.666-2.253l-.046-1.358-1.613.987s-6.061-.658-6.061-.658l-4.458,1.438-30.823,2.584-2.149,3.155.581,6.946,44.206-3.706a3.614,3.614,0,0,0,3.3-3.9l-.271-3.232Z" transform="translate(-2778.371 -3059.082)"/></g><g transform="translate(98.942 41.937)"><path class="e" d="M2780.6,3093.521a4.63,4.63,0,0,1-5-4.227l-.916,7.073,45.7-3.831a3.606,3.606,0,0,0,3.165-2.617Z" transform="translate(-2774.684 -3089.294)"/></g><g transform="translate(27.051 2.929)"><path class="c" d="M2440.449,2946.881l31.662-14.613H2447a5.513,5.513,0,0,0-4.922,3.574l-3.594,11.039Z" transform="translate(-2438.481 -2932.268)"/></g><g transform="translate(58.548 2.929)"><path class="g" d="M2632.417,2932.267h-38.37l5.365,14.614h50.071Z" transform="translate(-2594.046 -2932.267)"/></g><g transform="translate(29.02 2.929)"><path class="g" d="M2485.206,2946.881l-5.17-14.613h-25.112a5.518,5.518,0,0,0-4.925,3.574l-3.592,11.039Z" transform="translate(-2446.406 -2932.268)"/></g><g transform="translate(95.023 37.228)"><path class="d" d="M2759.489,3077.935a1.127,1.127,0,0,1-.093-2.251l34.565-2.9,7.073-2.446,4.866,1.445,5.058-.423a1.127,1.127,0,1,1,.188,2.247l-5.481.459-4.578-1.36-6.8,2.314-34.705,2.908c-.033,0-.063,0-.1,0Z" transform="translate(-2758.363 -3070.341)"/></g><g transform="translate(3.477 24.768)"><path class="h" d="M2426.553,3020.929h-82.6a.376.376,0,1,1,0-.751h82.6a.376.376,0,1,1,0,.751Z" transform="translate(-2343.582 -3020.177)"/></g><g transform="translate(40.036 23.371)"><path class="i" d="M2511.009,3016.8a.376.376,0,0,1-.376-.376,1.114,1.114,0,0,0-1.112-1.114h-3.209a.375.375,0,1,1,0-.751h3.209a1.866,1.866,0,0,1,1.865,1.865.376.376,0,0,1-.377.376Z" transform="translate(-2505.935 -3014.556)"/></g><g transform="translate(25.192 23.371)"><path class="i" d="M2436.073,3016.8a.376.376,0,0,1-.376-.376,1.115,1.115,0,0,0-1.113-1.114h-3.209a.375.375,0,1,1,0-.751h3.209a1.866,1.866,0,0,1,1.865,1.865.376.376,0,0,1-.376.376Z" transform="translate(-2430.998 -3014.556)"/></g><g transform="translate(42.664 2.277)"><rect class="j" width="15.974" height="1.504" transform="translate(0 15.949) rotate(-86.79)"/></g><g transform="translate(51.805 13.69)"><path class="h" d="M2566.332,2977.874a2.29,2.29,0,0,1-2.29,2.289h-3.719a2.289,2.289,0,0,1-2.289-2.289h0a2.29,2.29,0,0,1,2.289-2.29h3.719a2.29,2.29,0,0,1,2.29,2.29Z" transform="translate(-2558.033 -2975.584)"/></g><g transform="translate(54.874 15.604)"><path class="d" d="M2576.181,2987.53a.376.376,0,0,1-.361-.27l-.958-3.221h-3.21a.376.376,0,1,1,0-.752h3.771l1.116,3.759a.375.375,0,0,1-.253.467.38.38,0,0,1-.106.017Z" transform="translate(-2571.275 -2983.287)"/></g><g transform="translate(0.876 31.933)"><path class="e" d="M2335.1,3049.023a2.033,2.033,0,0,1-1.992,2.032l.007,2.586a4.86,4.86,0,0,0,3.879,4.378l3.6.845v-9.84Z" transform="translate(-2333.107 -3049.023)"/></g><g transform="translate(95.438 27.642)"><path class="c" d="M2756.207,3038.539h14.065l-2.741-6.789h-15.345v2.768A4.022,4.022,0,0,0,2756.207,3038.539Z" transform="translate(-2752.186 -3031.75)"/></g><g transform="translate(97.368 27.642)"><path class="k" d="M2764.748,3038.539h14.064l-2.741-6.789h-15.345v2.768A4.022,4.022,0,0,0,2764.748,3038.539Z" transform="translate(-2760.726 -3031.75)"/></g><g transform="translate(136.029 28.401)"><path class="l" d="M2932.55,3039.05a.228.228,0,0,1-.044,0,.376.376,0,0,1-.331-.416l.36-3.071h-3.557a.376.376,0,1,1,0-.752h4.4l-.457,3.91a.377.377,0,0,1-.373.332Z" transform="translate(-2928.603 -3034.807)"/></g><g transform="translate(43.395 2.929)"><path class="d" d="M2520.441,2933.583h1.507l.074-1.316h-1.507Z" transform="translate(-2520.441 -2932.267)"/></g><g transform="translate(105.371 23.82)"><path class="c" d="M2813.732,3016.365l-16.6,3.822H2819.8Z" transform="translate(-2797.133 -3016.365)"/></g><g transform="translate(134.3 30.065)"><path class="m" d="M2923.925,3048.939a.376.376,0,0,1-.375-.376v-2.842a3.625,3.625,0,0,0-2.568-3.482.376.376,0,0,1,.222-.719,4.374,4.374,0,0,1,3.1,4.2v2.842a.376.376,0,0,1-.376.376Z" transform="translate(-2920.716 -3041.503)"/></g><g transform="translate(134.896 37.125)"><path class="k" d="M2928.612,3069.923h0a2.292,2.292,0,0,1-2.293,2.294h-.37a2.293,2.293,0,0,1-2.293-2.294h4.956Z" transform="translate(-2923.655 -3069.923)"/></g><g transform="translate(135.926 37.58)"><path class="n" d="M2930.308,3072.508H2928.1a.376.376,0,0,1,0-.753h2.208a.376.376,0,0,1,0,.753Z" transform="translate(-2927.724 -3071.755)"/></g><g transform="translate(68.597 34.184)"><path class="d" d="M2653.785,3076.986a11.355,11.355,0,1,0-16.934,0Z" transform="translate(-2633.963 -3058.083)"/></g><g transform="translate(67.744 34.184)"><path class="b" d="M2650,3076.986a11.354,11.354,0,1,0-16.934,0Z" transform="translate(-2630.18 -3058.083)"/></g><g transform="translate(71.814 38.378)"><g transform="translate(0)"><path class="d" d="M2661.384,3082.129a7.161,7.161,0,1,0-7.161,7.16A7.162,7.162,0,0,0,2661.384,3082.129Z" transform="translate(-2647.061 -3074.966)"/></g></g><g transform="translate(71.439 37.991)"><g transform="translate(0)"><path class="f" d="M2653.052,3088.506a7.548,7.548,0,1,1,7.548-7.547,7.556,7.556,0,0,1-7.548,7.547Zm0-14.322a6.774,6.774,0,1,0,6.775,6.775,6.782,6.782,0,0,0-6.775-6.775Z" transform="translate(-2645.505 -3073.41)"/></g></g><g transform="translate(76.124 42.807)"><g transform="translate(0 0)"><path class="d" d="M2667.627,3098.261a2.731,2.731,0,1,1,2.731-2.729,2.734,2.734,0,0,1-2.731,2.729Zm0-4.688a1.958,1.958,0,1,0,1.957,1.959,1.959,1.959,0,0,0-1.957-1.959Z" transform="translate(-2664.895 -3092.798)"/></g></g><g transform="translate(68.226 51.025)"><path class="l" d="M2632.261,3128.212a2.329,2.329,0,0,1,2.33-2.33h17.626a2.328,2.328,0,0,1,2.33,2.33Z" transform="translate(-2632.261 -3125.882)"/></g><g transform="translate(82.71 33.734)"><path class="e" d="M2704.077,3056.276h-9.57a12.5,12.5,0,0,1,4.115,6.906,4.557,4.557,0,0,0,4.189,3.725h1.266Z" transform="translate(-2694.507 -3056.276)"/></g><g transform="translate(61.131 19.094)"><path class="i" d="M2599.183,3020.731a.376.376,0,0,1-.376-.376v-18.39a4.633,4.633,0,0,1,4.629-4.627.376.376,0,0,1,0,.752,3.881,3.881,0,0,0-3.877,3.875v18.39a.376.376,0,0,1-.375.376Z" transform="translate(-2598.807 -2997.337)"/></g><g transform="translate(42.445 19.094)"><path class="i" d="M2500.827,3020.731a.376.376,0,0,1-.377-.376v-18.39a4.633,4.633,0,0,1,4.629-4.627.376.376,0,0,1,0,.752,3.881,3.881,0,0,0-3.877,3.875v18.39a.376.376,0,0,1-.375.376Z" transform="translate(-2500.45 -2997.337)"/></g><g transform="translate(23.666 19.094)"><path class="i" d="M2425.23,3008.3a.376.376,0,0,1-.376-.376v-5.956a4.633,4.633,0,0,1,4.629-4.627.376.376,0,1,1,0,.752,3.881,3.881,0,0,0-3.876,3.875v5.956a.376.376,0,0,1-.376.376Z" transform="translate(-2424.854 -2997.337)"/></g><g transform="translate(118.77 50.491)"><rect class="d" width="3.9" height="4.245" transform="translate(0 0)"/></g><g transform="translate(113.076 21.95)"><g transform="translate(0 0)"><path class="g" d="M2881.947,3037.409a1.127,1.127,0,0,1-1.128-1.128v-19.951a5.248,5.248,0,0,0-5.242-5.242h-30.746a5.247,5.247,0,0,0-5.241,5.242v19.951a1.128,1.128,0,0,1-2.256,0v-19.951a7.5,7.5,0,0,1,7.5-7.5h30.746a7.505,7.505,0,0,1,7.5,7.5v19.951a1.128,1.128,0,0,1-1.128,1.128Z" transform="translate(-2837.334 -3008.834)"/></g></g><g transform="translate(177.601 41.06)"><path class="d" d="M3127.883,3091.683a.376.376,0,0,1-.2-.7l8.506-5.219v5.539a.376.376,0,1,1-.751,0v-4.2l-7.362,4.517a.377.377,0,0,1-.2.055Z" transform="translate(-3127.507 -3085.769)"/></g><g class="o" transform="translate(11.586 85.014)"><path class="p" d="M2584.179,3264.212H2376.906a.755.755,0,0,1,0-1.5h207.273a.755.755,0,0,1,0,1.5Z" transform="translate(-2376.222 -3262.708)"/></g><g transform="translate(188.414 60.58)"><path class="q" d="M3192.026,3166.074a7.646,7.646,0,0,0-4.783-1.725c0-.007-6.552-.007-6.552-.007a7.708,7.708,0,0,0-4.872,1.727c-4.57,3.58-6.139,11.525-3.5,17.714,1.784,4.194,5.042,6.517,8.374,6.482,0,.009,6.552.009,6.552.009,3.3-.019,6.519-2.334,8.287-6.484C3198.166,3177.6,3196.593,3169.645,3192.026,3166.074Z" transform="translate(-3171.038 -3164.342)"/></g><g transform="translate(188.414 60.571)"><path class="d" d="M3185.383,3188.512c-4.566,3.579-10.426,1.451-13.065-4.751s-1.067-14.136,3.5-17.716,10.428-1.443,13.068,4.752,1.062,14.144-3.5,17.715Z" transform="translate(-3171.038 -3164.312)"/></g><g transform="translate(116.647 44.165)"><path class="c" d="M2913.683,3129.366l4.776-2.256h69.8v-21.564l-30.951-7.28h-75.174v31.1Z" transform="translate(-2882.133 -3098.266)"/></g><g transform="translate(160.015 60.578)"><path class="b" d="M3037.523,3164.338h6.552v.006a7.654,7.654,0,0,1,4.782,1.726c4.566,3.571,6.138,11.522,3.5,17.715-1.769,4.151-4.983,6.466-8.286,6.473v.012h-6.552Z" transform="translate(-3037.523 -3164.338)"/></g><g transform="translate(151.031 60.571)"><path class="q" d="M3013,3188.512c-4.564,3.579-10.425,1.451-13.063-4.751s-1.069-14.136,3.5-17.716,10.43-1.443,13.068,4.752,1.063,14.144-3.505,17.715Z" transform="translate(-2998.659 -3164.312)"/></g><g transform="translate(155.447 66.321)"><path class="d" d="M3023.713,3200.93c-2.542,1.991-5.8.806-7.271-2.646s-.595-7.867,1.949-9.86,5.805-.8,7.273,2.643.591,7.875-1.951,9.863Z" transform="translate(-3015.729 -3187.459)"/></g><g transform="translate(156.933 67.523)"><path class="f" d="M3028.437,3203.522c-2.115,1.656-4.835.671-6.062-2.2s-.49-6.565,1.63-8.222,4.834-.669,6.058,2.2.494,6.565-1.626,8.222Z" transform="translate(-3021.785 -3192.294)"/></g><g transform="translate(143.683 44.165)"><path class="r" d="M3067.823,3101.382l-28.718-3.116h-48.138v7.28h80.593A4.282,4.282,0,0,0,3067.823,3101.382Z" transform="translate(-2990.967 -3098.266)"/></g><g transform="translate(129.297 25.838)"><path class="g" d="M2933.051,3042.814h62.525l-17.464-18.327h-45.062Z" transform="translate(-2933.051 -3024.487)"/></g><g transform="translate(176.138 51.445)"><rect class="c" width="35.862" height="18.557" transform="translate(0)"/></g><g transform="translate(140.383 23.115)"><path class="r" d="M2958.591,3013.527l-1.021,2.723h38.971a10.038,10.038,0,0,0-6.352-2.723Z" transform="translate(-2957.569 -3013.527)"/></g><g transform="translate(121.127 23.115)"><path class="r" d="M2906.911,3060.413l.017-6.369c0-4.068,2.932-6.564,5.752-6.564H2924.8c2.819,0,5.1,3.01,5.1,6.783l3.86,6.15h5.143v-18.556a4.285,4.285,0,0,0-3.737-4.165l-28.72-3.115-7.274-21.05h-13.893a4.465,4.465,0,0,0-4.292,3.72l-2.474,18.045v28.128h24.871a3.761,3.761,0,0,0,3.2-1.785Z" transform="translate(-2878.517 -3013.527)"/></g><g transform="translate(148.865 54.251)"><path class="c" d="M2992.107,3148.467c0-3.509,2.287-6.355,5.108-6.355h12.122c2.82,0,5.107,2.846,5.107,6.355v3.077c0,1.7.984,3.074,2.2,3.074h2.2v-7.946c0-4.311-2.807-7.8-6.27-7.8h-15.618c-2.981,0-5.4,3.007-5.4,6.717V3155.8a3.712,3.712,0,0,0,.549-1.932Z" transform="translate(-2991.558 -3138.867)"/></g><g transform="translate(127.073 25.838)"><path class="g" d="M2915.015,3042.814l-6.461-18.329h-9.983a3.509,3.509,0,0,0-3.39,2.984l-1.976,15.345Z" transform="translate(-2893.204 -3024.486)"/></g><g transform="translate(120.792 44.88)"><path class="r" d="M2861.4,3105.4v19.624a4.252,4.252,0,0,0,4.253,4.253v-28.129A4.253,4.253,0,0,0,2861.4,3105.4Z" transform="translate(-2861.396 -3101.146)"/></g><path class="s" d="M2925.633,3106.2h-28.585v-1.936a3.882,3.882,0,0,1,3.878-3.877.375.375,0,1,0,0-.751,4.633,4.633,0,0,0-4.628,4.628v1.936h-27.756a.376.376,0,0,0,0,.752H2896.3v19.683a.375.375,0,1,0,.75,0v-19.683h28.585a.376.376,0,0,0,0-.752Z" transform="translate(-2749.12 -3055.128)"/><g transform="translate(176.06 51.451)"><g transform="translate(0 0)"><path class="g" d="M3108.911,3133.153h-1.42a2.779,2.779,0,1,1,0-5.558h1.42Z" transform="translate(-3104.711 -3127.595)"/></g><g transform="translate(0 6.797)"><path class="g" d="M3108.911,3160.515h-1.42a2.778,2.778,0,1,1,0-5.556h1.42Z" transform="translate(-3104.711 -3154.958)"/></g></g><g transform="translate(176.138 51.445)"><rect class="g" width="12.277" height="5.563" transform="translate(0)"/></g><g transform="translate(176.138 58.246)"><rect class="g" width="12.277" height="5.562" transform="translate(0 0)"/></g><g transform="translate(212 51.445)"><rect class="g" width="12.276" height="5.563" transform="translate(0)"/></g><g transform="translate(212 58.246)"><rect class="g" width="12.276" height="5.562" transform="translate(0 0)"/></g><g transform="translate(176.138 57.009)"><rect class="r" width="48.138" height="1.236" transform="translate(0)"/></g><g transform="translate(182.238 63.804)"><rect class="t" width="40.535" height="12.397" transform="translate(0 0)"/></g><g transform="translate(170.346 74.577)"><rect class="t" width="4.146" height="9.123" transform="translate(0)"/></g><g transform="translate(174.822 63.804)"><path class="t" d="M3101.4,3177.324v6.2c0,3.424,1.985,6.2,4.434,6.2h6.689v-12.4Z" transform="translate(-3101.398 -3177.324)"/></g><g transform="translate(120.964 74.925)"><path class="g" d="M2892.342,3225.139h-23.832a1.522,1.522,0,0,1,0-3.044h23.832Z" transform="translate(-2866.989 -3222.094)"/></g><g transform="translate(0 49.021)"><path class="g" d="M2329.584,3120.654l4.354-2.84h125.525v5.682H2333.938Z" transform="translate(-2329.584 -3117.814)"/></g><g transform="translate(142.986 74.925)"><path class="g" d="M2965.82,3225.139h-4.133a1.522,1.522,0,1,1,0-3.044h6.967C2968.654,3224.218,2967.628,3225.139,2965.82,3225.139Z" transform="translate(-2960.165 -3222.094)"/></g><g transform="translate(13.203 60.349)"><path class="c" d="M2385.432,3171.911a2.7,2.7,0,0,1-2.7-2.7v-3.1a2.7,2.7,0,0,1,2.7-2.7Z" transform="translate(-2382.733 -3163.416)"/></g><g transform="translate(83.271 58.945)"><rect class="r" width="34.457" height="19.024" transform="translate(0 0)"/></g><g transform="translate(96.281 63.05)"><path class="d" d="M2760.641,3176.078a.376.376,0,0,1-.376-.375v-.659H2754.7v.659a.376.376,0,0,1-.752,0v-1.41h7.064v1.41a.375.375,0,0,1-.375.375Z" transform="translate(-2753.952 -3174.292)"/></g><g transform="translate(187.339 65.458)"><g transform="translate(0 0)"><g transform="translate(0)"><path class="c" d="M3167.63,3185.827l-.922-.923.922-.924.924.924Z" transform="translate(-3166.708 -3183.98)"/></g><g transform="translate(0 5.164)"><rect class="c" width="1.305" height="1.305" transform="translate(0 0.922) rotate(-44.988)"/></g></g><g transform="translate(28.487 0)"><g transform="translate(0)"><path class="c" d="M3282.309,3185.827l-.923-.923.923-.924.923.924Z" transform="translate(-3281.385 -3183.98)"/></g><g transform="translate(0 5.164)"><rect class="c" width="1.305" height="1.305" transform="translate(0 0.922) rotate(-44.988)"/></g></g></g><g class="u" transform="translate(83.868 74.55)"><path class="g" d="M2743.394,3221.333h-38.255a.376.376,0,1,1,0-.751h38.255a.376.376,0,1,1,0,.751Z" transform="translate(-2704.763 -3220.581)"/></g><g transform="translate(59.944 56.241)"><path class="c" d="M2608.023,3146.877h-12.879v3.245h2.877c2.821,0,5.107,2.846,5.107,6.355v3.076c0,1.7.985,3.075,2.2,3.075h8.966v-7.948C2614.292,3150.372,2611.485,3146.877,2608.023,3146.877Z" transform="translate(-2595.143 -3146.877)"/></g><g transform="translate(15.903 60.349)"><rect class="c" width="12.932" height="8.494" transform="translate(0 0)"/></g><g transform="translate(47.944 64.495)"><path class="d" d="M2551.452,3196.988c-3.184,2.494-7.271,1.01-9.111-3.316s-.745-9.856,2.443-12.354,7.273-1.006,9.113,3.314.74,9.864-2.445,12.357Z" transform="translate(-2541.448 -3180.108)"/></g><g transform="translate(52.873 66.759)"><path class="f" d="M2565.4,3190.123c-2.391,1.867-3.21,6.03-1.831,9.263s4.445,4.36,6.842,2.485,3.208-6.024,1.82-9.266-4.441-4.35-6.832-2.482Z" transform="translate(-2562.902 -3189.217)"/></g><g transform="translate(53.838 60.578)"><path class="b" d="M2579.11,3166.069a7.653,7.653,0,0,0-4.782-1.726v-.006h-6.552v.933c3.036.051,5.978,2.191,7.6,6.007,2.447,5.752.987,13.136-3.254,16.452a7.137,7.137,0,0,1-4.35,1.6v.936h6.552v-.012c3.3-.006,6.518-2.322,8.287-6.473C2585.249,3177.591,2583.676,3169.64,2579.11,3166.069Z" transform="translate(-2567.775 -3164.338)"/></g><g transform="translate(60.025 60.578)"><path class="b" d="M2606.482,3166.069a7.651,7.651,0,0,0-4.782-1.726v-.006h-6.552v.933c3.034.051,5.978,2.191,7.6,6.007,2.445,5.752.985,13.136-3.255,16.452a7.137,7.137,0,0,1-4.349,1.6v.936h6.552v-.012c3.3-.006,6.518-2.322,8.287-6.473C2612.622,3177.591,2611.049,3169.64,2606.482,3166.069Z" transform="translate(-2595.148 -3164.338)"/></g><g transform="translate(44.995 60.571)"><path class="q" d="M2546.763,3170.8c-2.64-6.2-8.5-8.326-13.068-4.752s-6.139,11.525-3.5,17.716,8.5,8.33,13.063,4.751S2549.4,3176.989,2546.763,3170.8Zm-5.636,12.709c-2.531,1.982-5.779.8-7.24-2.634s-.592-7.834,1.939-9.82,5.781-.8,7.243,2.634S2543.657,3181.526,2541.126,3183.506Z" transform="translate(-2528.913 -3164.312)"/></g></g></g></svg>