<svg xmlns="http://www.w3.org/2000/svg" width="53.219" height="53.219" viewBox="0 0 53.219 53.219"><defs><style>.a{fill:#fff;}.b{fill:#1251c4;}</style></defs><ellipse class="a" cx="26.61" cy="26.61" rx="26.61" ry="26.61" transform="translate(0)"/><path class="b" d="M173.753,162.3l-.244-.5-.4-.317c-.525-.415-3.2.024-3.919-.623-.513-.464-.586-1.306-.745-2.454a7.015,7.015,0,0,0-.818-3.076,9.947,9.947,0,0,0-7.007-4.932H154.27a9.086,9.086,0,0,0-9.07,9.046V170a9.076,9.076,0,0,0,9.07,9.033h10.437A9.11,9.11,0,0,0,173.79,170l.061-7.312c-.012,0-.1-.391-.1-.391ZM154.2,157.578h5.286a1.783,1.783,0,1,1,0,3.565H154.2a1.783,1.783,0,1,1,0-3.565Zm10.681,14.295H154.2a1.795,1.795,0,1,1,0-3.589h10.681a1.795,1.795,0,1,1,0,3.589Z" transform="translate(-133.146 -138.856)"/></svg>