<svg xmlns="http://www.w3.org/2000/svg" width="40.129" height="40.129" viewBox="0 0 40.129 40.129"><defs><style>.a{fill:#0855c4;}.b{fill:#fff;}</style></defs><circle class="a" cx="20.064" cy="20.064" r="20.064" transform="translate(0)"/><path class="b" d="M166.73,159.375l-.184-.377-.3-.239c-.4-.313-2.412.018-2.955-.469-.387-.35-.442-.985-.562-1.85a5.289,5.289,0,0,0-.617-2.32,7.5,7.5,0,0,0-5.284-3.719h-4.786a6.851,6.851,0,0,0-6.839,6.821v7.962a6.843,6.843,0,0,0,6.839,6.812h7.87a6.869,6.869,0,0,0,6.848-6.812l.046-5.514c-.009,0-.074-.295-.074-.295Zm-14.746-3.562h3.986a1.344,1.344,0,1,1,0,2.688h-3.986a1.344,1.344,0,1,1,0-2.688Zm8.054,10.779h-8.054a1.353,1.353,0,1,1,0-2.706h8.054a1.353,1.353,0,1,1,0,2.706Z" transform="translate(-136.111 -141.695)"/></svg>