<svg xmlns="http://www.w3.org/2000/svg" width="84" height="84" viewBox="0 0 84 84"><defs><style>.a{fill:#edf2fa;}.b{fill:#0855c4;}</style></defs><g transform="translate(0.076 -0.227)"><circle class="a" cx="42" cy="42" r="42" transform="translate(-0.076 0.227)"/><g transform="translate(24.453 15.397)"><path class="b" d="M222.424,70.7c-.172-.018-.346-.025-.519-.031l-.215-.014a1.538,1.538,0,0,0-.191-.016.184.184,0,0,0-.059.007l-.046,0a.507.507,0,0,0-.1,0l-.024,0-.05,0A17.316,17.316,0,0,0,203.86,88.278a.7.7,0,0,0,.395.633.727.727,0,0,0,.746-.075c.071-.055,7.148-5.5,16.223-5.5,8.984,0,16.718,5.461,16.795,5.518a.71.71,0,0,0,.736.054.705.705,0,0,0,.383-.629A17.783,17.783,0,0,0,222.424,70.7Zm-9,3.362a14.651,14.651,0,0,0-3.96,8.434.708.708,0,0,0,.606.792.7.7,0,0,0,.8-.608C211.5,77.9,214.386,74,218.287,72.6a16.272,16.272,0,0,0-2.49,8.265.712.712,0,0,0,.665.752h.041a.708.708,0,0,0,.706-.66c.326-4.893,2.177-8.8,4.206-8.892.048,0,.1,0,.145.008s.09.007.118,0c1.989.226,3.8,4.124,4.114,8.875a.709.709,0,0,0,.241.5.677.677,0,0,0,.511.162.709.709,0,0,0,.659-.752,16.415,16.415,0,0,0-2.344-8.05c3.664,1.566,6.283,5.3,6.885,9.875a.721.721,0,0,0,.278.476.7.7,0,0,0,.516.131.708.708,0,0,0,.608-.793,14.669,14.669,0,0,0-3.942-8.413,16.236,16.236,0,0,1,8.467,12.862c-2.667-1.622-9.129-5.023-16.445-5.023a30.708,30.708,0,0,0-15.9,4.978A15.852,15.852,0,0,1,213.427,74.061Z" transform="translate(-203.86 -70.638)"/><path class="b" d="M206.122,86.955a.707.707,0,1,0-1.037.96l4.3,4.633a.712.712,0,0,0,.519.226.707.707,0,0,0,.519-1.187Z" transform="translate(-203.724 -68.532)"/><path class="b" d="M233.516,86.934l-5.427,5.394a.706.706,0,1,0,1,1l5.427-5.394a.7.7,0,0,0,0-1A.71.71,0,0,0,233.516,86.934Z" transform="translate(-200.716 -68.532)"/><path class="b" d="M221.84,91.925a.658.658,0,0,0,.144.015.708.708,0,0,0,.692-.565l1.65-8.043a.7.7,0,0,0-.1-.532.708.708,0,0,0-.448-.3.7.7,0,0,0-.835.551l-1.65,8.043a.7.7,0,0,0,.547.835Z" transform="translate(-201.58 -69.088)"/><path class="b" d="M227.282,86.827a1.539,1.539,0,0,0-1.141.463c-.753.766-.727,2.23-.692,4.083a20.055,20.055,0,0,1-.137,3.5c-.5,3.046-2.293,4.59-5.316,4.59s-4.647-1.454-5.111-4.578a22.629,22.629,0,0,1-.137-3.476c.02-1.877.038-3.359-.717-4.122a1.535,1.535,0,0,0-1.133-.458,1.084,1.084,0,0,0-.872.538c-1,1.408-2.531,7.165-1.382,10.507a14.736,14.736,0,0,0,3.167,5.256,9,9,0,0,1,.853,1.073,7.542,7.542,0,0,1,.807,4.954c-.15,1.225-.248,1.951-.364,2.824l-.011.086c-.107.8-.232,1.744-.43,3.3-.033.26-.8,6.4.735,8.14a1.387,1.387,0,0,0,1.064.508c1.806,0,2.072-1.9,2.439-4.522l.016-.111c.063-.448.131-.934.213-1.458a27.4,27.4,0,0,1,.847-3.8,27.669,27.669,0,0,1,.846,3.8c.087.568.161,1.091.228,1.571.368,2.624.633,4.52,2.439,4.52a1.387,1.387,0,0,0,1.064-.508c1.536-1.74.768-7.88.735-8.14-.187-1.479-.311-2.4-.415-3.189l-.024-.176c-.118-.882-.215-1.61-.366-2.844a7.017,7.017,0,0,1,.79-4.93,14.123,14.123,0,0,1,1.023-1.238c1.147-1.3,2.718-3.072,3.155-5.2.707-3.424-.4-9.323-1.4-10.547A.985.985,0,0,0,227.282,86.827Zm-4.2,22.5c.15,1.241.248,1.973.368,2.86l.042.316c.1.748.218,1.647.4,3.042.395,3.119.215,6.338-.392,7.027l-.025.027c-.459-.016-.643-.623-1.019-3.3-.068-.485-.141-1.014-.228-1.589a24.191,24.191,0,0,0-1.6-5.977.706.706,0,0,0-1.284,0,24.126,24.126,0,0,0-1.606,5.976c-.087.573-.161,1.1-.228,1.587-.375,2.687-.569,3.3-1.005,3.311a.215.215,0,0,1-.037-.035c-.607-.69-.787-3.908-.391-7.027.2-1.609.33-2.559.439-3.378l.038-.292c.1-.757.193-1.455.327-2.548a8.918,8.918,0,0,0-1-5.863,10.233,10.233,0,0,0-.991-1.263,13.467,13.467,0,0,1-2.9-4.788c-1.03-3,.456-7.974,1.09-9.08a8.425,8.425,0,0,1,.265,3.091,23.717,23.717,0,0,0,.149,3.668,9.748,9.748,0,0,0,.418,1.7c.058,1.019,1.324,3.127,1.87,3.99a.7.7,0,0,0,.44.306.711.711,0,0,0,.534-.086.7.7,0,0,0,.313-.441.747.747,0,0,0,.016-.193,7.757,7.757,0,0,0,2.92.512,7.389,7.389,0,0,0,3.37-.733.7.7,0,0,0-.017.467.7.7,0,0,0,.347.416.717.717,0,0,0,.952-.3,16.168,16.168,0,0,0,1.6-3.932,8.73,8.73,0,0,0,.461-1.693,21.208,21.208,0,0,0,.156-3.759,8.459,8.459,0,0,1,.235-3,19.581,19.581,0,0,1,.977,9.155c-.365,1.762-1.738,3.316-2.842,4.564a14.26,14.26,0,0,0-1.128,1.375A8.3,8.3,0,0,0,223.085,109.327Z" transform="translate(-203.026 -68.519)"/><path class="b" d="M215.24,94.466a4.12,4.12,0,1,0,4.121-4.12A4.125,4.125,0,0,0,215.24,94.466Zm4.121,2.706a2.706,2.706,0,1,1,2.706-2.706A2.71,2.71,0,0,1,219.361,97.172Z" transform="translate(-202.37 -68.058)"/><path class="b" d="M215.181,82.488h0a.709.709,0,0,0-.608.793l1.061,8.045a.71.71,0,0,0,.7.614.833.833,0,0,0,.093-.006.708.708,0,0,0,.608-.793l-1.06-8.045A.71.71,0,0,0,215.181,82.488Z" transform="translate(-202.459 -69.088)"/></g></g></svg>