<svg xmlns="http://www.w3.org/2000/svg" width="27.136" height="19.946" viewBox="0 0 27.136 19.946"><defs><style>.a{fill:#fff;}</style></defs><path class="a" d="M999.68,271.5H978.514a2.988,2.988,0,0,0-2.985,2.985v13.976a2.988,2.988,0,0,0,2.985,2.985H999.68a2.988,2.988,0,0,0,2.985-2.985V274.486A2.988,2.988,0,0,0,999.68,271.5Zm0,1.719h.011l-5.41,5.6a7.147,7.147,0,0,1-5.179,2.2h0a7.148,7.148,0,0,1-5.178-2.195l-5.417-5.6H999.68Zm1.266,15.242a1.268,1.268,0,0,1-1.266,1.266H978.514a1.268,1.268,0,0,1-1.266-1.266V274.486c0-.03,0-.058,0-.087l5.434,5.615a8.852,8.852,0,0,0,6.413,2.718h0a8.852,8.852,0,0,0,6.414-2.721l5.426-5.611c0,.029,0,.057,0,.087Z" transform="translate(-975.529 -271.501)"/></svg>