<svg xmlns="http://www.w3.org/2000/svg" width="84" height="84" viewBox="0 0 84 84"><defs><style>.a{fill:#edf2fa;}.b{fill:#0855c4;}</style></defs><circle class="a" cx="42" cy="42" r="42"/><g transform="translate(25.358 17.208)"><path class="b" d="M81.6,204.528H71.642a4.528,4.528,0,1,0-9.057,0H52.623A3.626,3.626,0,0,0,49,208.151V241.66a3.626,3.626,0,0,0,3.623,3.623H81.6a3.626,3.626,0,0,0,3.623-3.623V208.151A3.626,3.626,0,0,0,81.6,204.528Zm-14.491-2.808a2.878,2.878,0,0,1,2.808,2.808H64.306A2.878,2.878,0,0,1,67.113,201.721Zm-6.34,4.619H73.453v1.811a1.814,1.814,0,0,1-1.811,1.811H62.585a1.814,1.814,0,0,1-1.811-1.811ZM50.811,241.66V208.151a1.814,1.814,0,0,1,1.811-1.811h6.34v1.811a3.626,3.626,0,0,0,3.623,3.623h9.057a3.626,3.626,0,0,0,3.623-3.623V206.34H81.6a1.814,1.814,0,0,1,1.811,1.811v26.264h-6.34a2.72,2.72,0,0,0-2.717,2.717v6.34H52.623A1.813,1.813,0,0,1,50.811,241.66Zm31.323-5.434-5.965,5.965v-5.059a.906.906,0,0,1,.906-.906Zm-.531,7.245H77.45l5.965-5.965v4.153A1.814,1.814,0,0,1,81.6,243.472Z" transform="translate(-49 -200)"/><circle class="b" cx="1.5" cy="1.5" r="1.5" transform="translate(8.642 15.792)"/><ellipse class="b" cx="1.5" cy="2" rx="1.5" ry="2" transform="translate(8.642 21.792)"/><ellipse class="b" cx="1.5" cy="2" rx="1.5" ry="2" transform="translate(8.642 27.792)"/><path class="b" d="M65.906,219.811H78.585a.906.906,0,0,0,0-1.811H65.906a.906.906,0,1,0,0,1.811Z" transform="translate(-50.509 -201.698)"/><path class="b" d="M65.906,226.811H78.585a.906.906,0,0,0,0-1.811H65.906a.906.906,0,1,0,0,1.811Z" transform="translate(-50.509 -202.358)"/><path class="b" d="M78.585,233.811a.906.906,0,0,0,0-1.811H65.906a.906.906,0,1,0,0,1.811Z" transform="translate(-50.509 -203.019)"/></g></svg>