<svg xmlns="http://www.w3.org/2000/svg" width="84" height="84" viewBox="0 0 84 84"><defs><style>.a{fill:#edf2fa;}.b{fill:#0855c4;}</style></defs><g transform="translate(-20.026 -81.426)"><circle class="a" cx="42" cy="42" r="42" transform="translate(20.026 81.426)"/><g transform="translate(38.838 99.435)"><g transform="translate(0 24.067)"><path class="b" d="M73.524,128.315H31.33a2.079,2.079,0,0,1-1.863-3,25.8,25.8,0,0,1,10.746-11.269,25.521,25.521,0,0,1,35.174,11.27,2.093,2.093,0,0,1-.116,2.03A2.055,2.055,0,0,1,73.524,128.315Zm-21.1-15.706a23.741,23.741,0,0,0-11.4,2.908,24.121,24.121,0,0,0-10.047,10.535.405.405,0,0,0,.358.587H73.524a.38.38,0,0,0,.332-.185.417.417,0,0,0,.023-.406A23.85,23.85,0,0,0,52.42,112.609Z" transform="translate(-29.252 -110.934)"/></g><g transform="translate(10.527)"><path class="b" d="M63.138,118.137a.834.834,0,0,1-.4-.1,23.831,23.831,0,0,0-22.816,0,.838.838,0,0,1-1.241-.734V102.031a12.649,12.649,0,0,1,25.3,0V117.3a.84.84,0,0,1-.838.838ZM51.319,113.45A25.518,25.518,0,0,1,62.3,115.928v-13.9a10.974,10.974,0,0,0-21.947,0v13.9A25.476,25.476,0,0,1,51.319,113.45Z" transform="translate(-38.678 -89.383)"/></g><g transform="translate(19.744 8.867)"><g transform="translate(2.593)"><path class="b" d="M50.092,108.342a.838.838,0,0,1-.838-.838V98.161a.838.838,0,0,1,1.675,0V107.5A.838.838,0,0,1,50.092,108.342Z" transform="translate(-49.254 -97.323)"/></g><g transform="translate(0 3.342)"><path class="b" d="M52.956,101.991H47.77a.838.838,0,0,1,0-1.675h5.186a.838.838,0,1,1,0,1.675Z" transform="translate(-46.932 -100.316)"/></g></g></g></g></svg>