<?xml version="1.0" encoding="UTF-8"?>
<svg width="40px" height="26px" viewBox="0 0 40 26" version="1.1" xmlns="http://www.w3.org/2000/svg" xmlns:xlink="http://www.w3.org/1999/xlink">
    <!-- Generator: Sketch 52.5 (67469) - https://www.bohemiancoding.com/sketch -->
    <title>Group 3 Copy 5</title>
    <desc>Created with Sketch.</desc>
    <g id="Page-1" stroke="none" stroke-width="1" fill="#0855c4" fill-rule="evenodd">
        <g id="Group-3-Copy-5" transform="translate(20.000000, 13.000000) rotate(-180.000000) translate(-20.000000, -13.000000) " fill="#fff">
            <path d="M19.9676263,26 C19.4529881,26 18.93835,25.7664131 18.5457689,25.29839 C11.8690352,17.3547379 1.71546049,5.30675233 0.758990186,4.26792785 C0.0302169169,3.57905896 -0.2203212,2.35506381 0.212945572,1.32388399 C0.709739103,0.141509771 1.91531996,-0.338405053 2.91104837,0.253631464 C3.29292271,0.480423071 3.4563792,0.578104849 19.9754779,20.2316786 L36.5752341,0.69362417 C37.364679,-0.237325648 38.6394969,-0.227982173 39.4189488,0.712311119 C40.1998283,1.6509056 40.1926905,3.16709668 39.4032456,4.09634768 L21.381632,25.3085829 C20.9897647,25.7698108 20.4779817,26 19.9676263,26" id="Fill-1"></path>
        </g>
    </g>
</svg>