<svg xmlns="http://www.w3.org/2000/svg" width="85" height="84" viewBox="0 0 85 84"><defs><style>.a{fill:#edf2fa;}.b{fill:#0855c4;}</style></defs><g transform="translate(0.472 -0.283)"><ellipse class="a" cx="42.5" cy="42" rx="42.5" ry="42" transform="translate(-0.472 0.283)"/><g transform="translate(22.642 25.358)"><g transform="translate(0)"><path class="b" d="M140.679,327.509h-9.962A3.181,3.181,0,0,1,128,324.792a11.143,11.143,0,0,1,.574-3.264c.375-1.238,1.619-4.407,2.151-5.76l.167-.424a8.021,8.021,0,0,1,.65-1.174,6.322,6.322,0,0,0,.986-2.058c0-1.8-.3-2.717-.906-2.717a2.687,2.687,0,0,1-2.011-.734,3.441,3.441,0,0,1-.712-2.616l.005-.273c0-.9.869-1.132,1.286-1.244a2.242,2.242,0,0,0,.851-.358,6.12,6.12,0,0,0,.58-.521v-1.225l-1.906-2.859.141-.421c.088-.26.581-1.571,1.651-1.821a1.635,1.635,0,0,1,1.347.3h.055a2.136,2.136,0,0,1,1.428-.855V294h4.9l1.811,1.811h23.172V294h5.434v1.811h1.811v8.151a2.658,2.658,0,0,1-2.717,2.717h-4.65a2.511,2.511,0,0,1-2.6,1.811h-3.969l-2.466,4.933A4.134,4.134,0,0,1,151,315.736h-6.088c-.288.743-.611,1.651-.949,2.6-.533,1.5-1.082,3.045-1.554,4.105a4.3,4.3,0,0,0-.036,1.976,3.119,3.119,0,0,1-.354,2.544A1.711,1.711,0,0,1,140.679,327.509Zm-9.972-21.243a1.838,1.838,0,0,0,.2,1.133,1.078,1.078,0,0,0,.713.186c1.8,0,2.717,1.524,2.717,4.528a6.506,6.506,0,0,1-1.258,3.01,7.9,7.9,0,0,0-.5.878l-.168.43c-.479,1.217-1.75,4.454-2.1,5.622a9.324,9.324,0,0,0-.5,2.739,1.828,1.828,0,0,0,.933.907l9.911,0a6.735,6.735,0,0,0-.077-1.061,5.6,5.6,0,0,1,.179-2.929c.444-1,.982-2.512,1.5-3.978.437-1.227.85-2.387,1.2-3.246l.232-.56H151a2.384,2.384,0,0,0,2.433-1.273l2.985-5.972h5.088c.471,0,.906-.11.906-.906v-.906h6.34a.851.851,0,0,0,.906-.906v-6.34h-1.811v-1.811h-1.811v1.811H140.3l-1.811-1.811h-2.342v2.717h-1.008c-.658,0-.736.031-.877.358l-.239.556-1.112-.009h-.762l-.265-.265-.01-.01a1.619,1.619,0,0,0-.129.191l1.685,2.527v2.355l-.147.225a5.12,5.12,0,0,1-1.027,1.06A3.874,3.874,0,0,1,130.707,306.266Zm.01-.493v0Z" transform="translate(-128 -294)"/></g><g transform="translate(14.537 5.148)"><rect class="b" width="5.728" height="1.812" transform="translate(0 5.434) rotate(-71.556)"/></g><g transform="translate(10.914 5.148)"><rect class="b" width="5.728" height="1.812" transform="translate(0 5.434) rotate(-71.556)"/></g><g transform="translate(7.291 5.148)"><rect class="b" width="5.728" height="1.812" transform="translate(0 5.434) rotate(-71.556)"/></g><g transform="translate(15.453 12.679)"><path class="b" d="M146.76,316.47l-1.7-.638,2.056-5.482a3.641,3.641,0,0,1,3.393-2.35h8.079v1.811h-8.079a1.818,1.818,0,0,0-1.7,1.175Z" transform="translate(-145.063 -308)"/></g><g transform="translate(19.768 13.382)"><path class="b" d="M151.118,314.109a6.165,6.165,0,0,1-1.112-5.333l1.766.406a4.369,4.369,0,0,0,.7,3.729Z" transform="translate(-149.827 -308.776)"/></g></g></g></svg>