<svg xmlns="http://www.w3.org/2000/svg" width="40.129" height="40.129" viewBox="0 0 40.129 40.129"><defs><style>.a{fill:#0855c4;}.b{fill:#fff;}</style></defs><circle class="a" cx="20.064" cy="20.064" r="20.064" transform="translate(0)"/><g transform="translate(8.584 8.702)"><path class="b" d="M133.488,110.33a6.049,6.049,0,0,0-1.846-3.9,6.352,6.352,0,0,0-4.19-1.7,82.341,82.341,0,0,0-11.3.128,5.757,5.757,0,0,0-4.943,4.431c-.543,1.937-.437,10.9-.121,12.825a5.786,5.786,0,0,0,4.589,4.988c1.8.467,10.662.407,12.644.083a5.812,5.812,0,0,0,5.011-4.574C133.85,120.615,133.669,112.13,133.488,110.33Zm-2.095,11.416a3.879,3.879,0,0,1-3.632,3.451c-1.846.2-10.082.309-11.785-.158a3.768,3.768,0,0,1-2.848-3.225,77.381,77.381,0,0,1,0-11.529,3.871,3.871,0,0,1,3.624-3.444,80.025,80.025,0,0,1,11.25.045,3.868,3.868,0,0,1,3.444,3.647A87.114,87.114,0,0,1,131.394,121.745Z" transform="translate(-110.825 -104.595)"/><path class="b" d="M190.562,178.4a5.862,5.862,0,1,0,5.862,5.862A5.859,5.859,0,0,0,190.562,178.4Zm-.045,9.645a3.79,3.79,0,1,1,3.828-3.752A3.788,3.788,0,0,1,190.517,188.045Z" transform="translate(-179.133 -172.839)"/><path class="b" d="M326.471,157.2a1.368,1.368,0,1,0,1.364,1.371A1.365,1.365,0,0,0,326.471,157.2Z" transform="translate(-308.953 -153.235)"/></g></svg>