<svg xmlns="http://www.w3.org/2000/svg" width="53.219" height="53.219" viewBox="0 0 53.219 53.219"><defs><style>.a{fill:#fff;}.b{fill:#0855c4;}</style></defs><ellipse class="a" cx="26.61" cy="26.61" rx="26.61" ry="26.61" transform="translate(0)"/><g transform="translate(11.385 11.541)"><path class="b" d="M140.881,112.2a8.022,8.022,0,0,0-2.448-5.176,8.425,8.425,0,0,0-5.556-2.258c-3.558-.2-12.022-.31-14.99.17a7.635,7.635,0,0,0-6.555,5.876c-.72,2.568-.58,14.45-.16,17.008a7.674,7.674,0,0,0,6.086,6.615c2.388.62,14.14.54,16.768.11a7.709,7.709,0,0,0,6.645-6.066C141.361,125.841,141.121,114.589,140.881,112.2ZM138.1,127.34a5.145,5.145,0,0,1-4.817,4.577c-2.448.27-13.371.41-15.629-.21a5,5,0,0,1-3.777-4.277,102.624,102.624,0,0,1,0-15.289,5.134,5.134,0,0,1,4.807-4.567,106.129,106.129,0,0,1,14.92.06,5.13,5.13,0,0,1,4.567,4.837A115.528,115.528,0,0,1,138.1,127.34Z" transform="translate(-110.825 -104.595)"/><path class="b" d="M192.475,178.4a7.775,7.775,0,1,0,7.775,7.775A7.771,7.771,0,0,0,192.475,178.4Zm-.06,12.791a5.027,5.027,0,1,1,5.076-4.977A5.024,5.024,0,0,1,192.415,191.191Z" transform="translate(-177.318 -171.025)"/><path class="b" d="M326.918,157.2a1.814,1.814,0,1,0,1.809,1.819A1.81,1.81,0,0,0,326.918,157.2Z" transform="translate(-303.686 -151.942)"/></g></svg>