<svg xmlns="http://www.w3.org/2000/svg" width="53.219" height="53.219" viewBox="0 0 53.219 53.219"><defs><style>.a{fill:#fff;}.b{fill:#1251c4;}</style></defs><ellipse class="a" cx="26.61" cy="26.61" rx="26.61" ry="26.61"/><g transform="translate(15.034 9.523)"><path class="b" d="M123.273,119.815H129.1v18.713h-5.824Zm2.912-9.315a3.375,3.375,0,1,1-3.385,3.364,3.361,3.361,0,0,1,3.385-3.364" transform="translate(-122.8 -110.5)"/><path class="b" d="M217.311,195.073h5.582v2.555h.074a6.1,6.1,0,0,1,5.509-3.028c5.887,0,6.97,3.869,6.97,8.915v10.261h-5.814v-9.1c0-2.176-.042-4.962-3.028-4.962-3.028,0-3.49,2.365-3.49,4.815v9.252H217.3l.01-18.7Z" transform="translate(-207.365 -185.759)"/></g></svg>