<svg xmlns="http://www.w3.org/2000/svg" width="40.129" height="40.129" viewBox="0 0 40.129 40.129"><defs><style>.a{fill:#0855c4;}.b{fill:#fff;}</style></defs><circle class="a" cx="20.064" cy="20.064" r="20.064"/><g transform="translate(11.336 7.181)"><path class="b" d="M123.157,117.524h4.392v14.11h-4.392Zm2.2-7.024a2.545,2.545,0,1,1-2.553,2.537,2.534,2.534,0,0,1,2.553-2.537" transform="translate(-122.8 -110.5)"/><path class="b" d="M217.308,194.957h4.209v1.926h.055a4.6,4.6,0,0,1,4.154-2.283c4.439,0,5.256,2.917,5.256,6.722v7.737H226.6v-6.865c0-1.641-.032-3.742-2.283-3.742-2.283,0-2.632,1.784-2.632,3.631v6.976H217.3l.008-14.1Z" transform="translate(-209.809 -187.933)"/></g></svg>