<svg xmlns="http://www.w3.org/2000/svg" width="85" height="84" viewBox="0 0 85 84"><defs><style>.a{fill:#edf2fa;}.b{fill:#0855c4;}</style></defs><g transform="translate(0.321 -0.377)"><ellipse class="a" cx="42.5" cy="42" rx="42.5" ry="42" transform="translate(-0.321 0.377)"/><g transform="translate(20.83 19.925)"><g transform="translate(12.289 17.656)"><path class="b" d="M225.3,77.03a3.756,3.756,0,0,1-2.491-.74c-1.416-1.5-.669-4.849-.147-5.866l.05-.1c.6-1.178,1.434-2.328,4.4-2.328,2.671,0,3.942.425,3.942,2.838,0,2.02-.575,3.658-3.437,5.582A4.219,4.219,0,0,1,225.3,77.03Zm1.81-7.219c-2.1,0-2.4.59-2.783,1.339l-.052.1c-.413.8-.728,3.179-.147,3.8a3.377,3.377,0,0,0,2.476-.13c2.443-1.642,2.636-2.772,2.636-4.079C229.245,69.908,229.245,69.811,227.114,69.811Z" transform="translate(-221.997 -68)"/></g><g transform="translate(13.197 12.222)"><rect class="b" width="1.811" height="4.528"/></g><g transform="translate(19.537 24.021)"><path class="b" d="M235.434,79.531h-1.811V78.9l-.906-1.358-.906,1.358v.631H230v-.906a.911.911,0,0,1,.152-.5l1.811-2.717a.94.94,0,0,1,1.507,0l1.811,2.717a.911.911,0,0,1,.152.5Z" transform="translate(-230 -75.028)"/></g><g transform="translate(23.16 17.656)"><path class="b" d="M239.751,77.029a4.216,4.216,0,0,1-2.314-.61C234.575,74.5,234,72.857,234,70.837c0-2.413,1.271-2.837,3.942-2.837,2.964,0,3.8,1.15,4.4,2.328l.049.1c.523,1.018,1.27,4.362-.147,5.865A3.754,3.754,0,0,1,239.751,77.029Zm-1.809-7.218c-2.131,0-2.131.1-2.131,1.026,0,1.307.194,2.437,2.635,4.08A3.249,3.249,0,0,0,240.98,75c.525-.566.209-2.941-.2-3.744h0l-.052-.1C240.344,70.4,240.044,69.811,237.942,69.811Z" transform="translate(-234 -68)"/></g><g transform="translate(29.499 12.222)"><rect class="b" width="1.811" height="4.528"/></g><g transform="translate(15.009 31.241)"><path class="b" d="M237.855,86.623H226.636c-1.557,0-1.636-1.142-1.636-1.371V83h1.811v1.811h10.868V83h1.811v2.251C239.491,85.481,239.412,86.623,237.855,86.623Z" transform="translate(-225 -83)"/></g><g transform="translate(8.098 4.977)"><path class="b" d="M240.223,82.019a3.793,3.793,0,0,1-2.2-.66c-.688-.48-1.264-.854-1.759-1.176l-.323-.211.993-1.516.32.209c.508.331,1.1.715,1.806,1.209,1.132.79,2.981-.007,3.612-.639.972-.973,1.2-1.236,1.2-2.124a2.611,2.611,0,0,0-1.177-2.133.908.908,0,0,1-.3-.673v-3.1a.9.9,0,0,1,.19-.554,2.589,2.589,0,0,0,.043-3.367.9.9,0,0,1-.234-.607c0-8.982-5.909-10.868-10.868-10.868S220.658,57.7,220.658,66.679a.9.9,0,0,1-.234.607,2.589,2.589,0,0,0,.044,3.367.908.908,0,0,1,.189.554v3.1a.908.908,0,0,1-.3.673,2.612,2.612,0,0,0-1.177,2.133c0,.851.228,1.112,1.194,2.078.692.691,2.5,1.481,3.639.685.778-.543,1.408-.955,1.947-1.308l.168-.11.993,1.516-.17.11c-.526.345-1.142.747-1.9,1.277-1.947,1.358-4.683.382-5.909-.844-1.047-1.046-1.77-1.77-1.77-3.4a4.15,4.15,0,0,1,1.476-3.2V71.5a4.266,4.266,0,0,1,0-5.154c.17-11.135,8.9-12.347,12.677-12.347s12.507,1.212,12.677,12.347a4.266,4.266,0,0,1,0,5.154V73.91a4.15,4.15,0,0,1,1.476,3.2c0,1.671-.727,2.4-1.733,3.4A5.6,5.6,0,0,1,240.223,82.019Z" transform="translate(-217.37 -54)"/></g><g transform="translate(3.747 33.598)"><path class="b" d="M216.548,94.43a4,4,0,0,1-2.81-1.14,3.866,3.866,0,0,1-1.173-2.82l1.811.019a2.07,2.07,0,0,0,.63,1.509,2.212,2.212,0,0,0,3.083,0,2.372,2.372,0,0,0,.8-1.6,1.471,1.471,0,0,0-.489-1.07l-.6-.59,2.658-3.134,1.381,1.172L220.207,88.7a3.151,3.151,0,0,1,.494,1.7,4.113,4.113,0,0,1-1.343,2.894A4,4,0,0,1,216.548,94.43Z" transform="translate(-212.565 -85.603)"/></g><g transform="translate(0.638 31.407)"><path class="b" d="M213.116,91.153a4,4,0,0,1-2.81-1.14,3.883,3.883,0,0,1,0-5.562,4.343,4.343,0,0,1,5.215-.255l1-1.013,1.29,1.271-2.2,2.228-.645-.632c-.839-.823-2.539-1.144-3.394-.305a2.07,2.07,0,0,0,0,2.975,2.211,2.211,0,0,0,3.083,0l1.268,1.293A4,4,0,0,1,213.116,91.153Z" transform="translate(-209.133 -83.183)"/></g><g transform="translate(0 2.981)"><path class="b" d="M217.092,60.765l-2.366-2.146a4.27,4.27,0,0,1-5.146-.237,3.816,3.816,0,0,1,0-5.465,3.962,3.962,0,0,1,5.522,0l-1.269,1.292a2.141,2.141,0,0,0-2.984,0,2.006,2.006,0,0,0,0,2.88c.826.81,2.474.5,3.288-.3l.61-.6,3.562,3.231Z" transform="translate(-208.428 -51.796)"/></g><g transform="translate(3.037 0)"><path class="b" d="M219.457,56.73l-2.622-2.586.658-.645a1.421,1.421,0,0,0,.472-1.031,2.3,2.3,0,0,0-.776-1.55,2.142,2.142,0,0,0-2.985,0,2,2,0,0,0-.61,1.461l-1.811.017a3.8,3.8,0,0,1,1.153-2.771,3.963,3.963,0,0,1,5.522,0,4.046,4.046,0,0,1,1.319,2.844,3.1,3.1,0,0,1-.44,1.6l1.394,1.374Z" transform="translate(-211.782 -48.505)"/></g><g transform="translate(30.063 33.598)"><path class="b" d="M246.914,94.43a4,4,0,0,1-2.81-1.14A4.115,4.115,0,0,1,242.76,90.4a3.155,3.155,0,0,1,.494-1.7l-1.631-1.922L243,85.6l2.658,3.134-.6.59a1.476,1.476,0,0,0-.489,1.07,2.372,2.372,0,0,0,.8,1.6,2.214,2.214,0,0,0,3.083,0,2.067,2.067,0,0,0,.629-1.509l1.811-.019a3.865,3.865,0,0,1-1.173,2.82A4,4,0,0,1,246.914,94.43Z" transform="translate(-241.623 -85.603)"/></g><g transform="translate(34.237 31.676)"><path class="b" d="M250.457,91.181a4,4,0,0,1-2.81-1.14l1.268-1.293a2.212,2.212,0,0,0,3.084,0,2.072,2.072,0,0,0,0-2.975c-.854-.839-2.555-.519-3.394.305l-.7.688-1.672-2.009,1.393-1.159.49.589a4.327,4.327,0,0,1,5.152.293,3.883,3.883,0,0,1,0,5.562A4,4,0,0,1,250.457,91.181Z" transform="translate(-246.231 -83.48)"/></g><g transform="translate(33.976 2.981)"><path class="b" d="M247.16,60.063l-1.217-1.341,2.788-2.53.61.6c.814.8,2.462,1.109,3.289.3a2.006,2.006,0,0,0,0-2.88,2.142,2.142,0,0,0-2.985,0l-1.268-1.292a3.963,3.963,0,0,1,5.522,0,3.816,3.816,0,0,1,0,5.465,4.27,4.27,0,0,1-5.146.238Z" transform="translate(-245.943 -51.796)"/></g><g transform="translate(31.798)"><path class="b" d="M244.81,56.042l-1.272-1.291.7-.685a3.094,3.094,0,0,1-.441-1.6,4.044,4.044,0,0,1,1.319-2.844,3.963,3.963,0,0,1,5.523,0,3.8,3.8,0,0,1,1.153,2.772l-1.811-.019a2,2,0,0,0-.609-1.46,2.142,2.142,0,0,0-2.986,0,2.3,2.3,0,0,0-.776,1.55,1.424,1.424,0,0,0,.473,1.032l.658.645Z" transform="translate(-243.538 -48.505)"/></g></g></g></svg>