<svg xmlns="http://www.w3.org/2000/svg" width="326.658" height="38.657" viewBox="0 0 326.658 38.657"><defs><style>.a{fill:#fff;}.b,.c{fill:#1251c4;}.b{opacity:0.222;}</style></defs><g transform="translate(-483.304 197.737)"><circle class="a" cx="14.94" cy="14.94" r="14.94" transform="translate(588.573 -196.049)"/><circle class="a" cx="14.94" cy="14.94" r="14.94" transform="translate(570.076 -196.049)"/><ellipse class="b" cx="5.692" cy="11.729" rx="5.692" ry="11.729" transform="translate(588.573 -192.838)"/><g transform="translate(483.304 -189.837)"><g transform="translate(0 0)"><path class="a" d="M542.6-157.776h-5.017l3.133-19.256h5.014Z" transform="translate(-515.964 177.378)"/><path class="a" d="M500.707-177.047l-4.78,13.246-.565-2.851h0l-1.687-8.658a2.152,2.152,0,0,0-2.378-1.733h-7.9l-.093.331a18.734,18.734,0,0,1,5.244,2.2l4.356,16.723h5.224l7.98-19.26Z" transform="translate(-483.304 177.395)"/><path class="a" d="M606.015-157.782h4.6L606.6-177.039h-4.03a2.3,2.3,0,0,0-2.318,1.436l-7.473,17.821h5.225l1.047-2.86h6.373ZM600.5-164.6l2.634-7.206,1.482,7.206Z" transform="translate(-549.18 177.387)"/><path class="a" d="M572.2-172.922l.715-4.139a14.476,14.476,0,0,0-4.508-.84c-2.484,0-8.395,1.088-8.395,6.375,0,4.967,6.934,5.037,6.934,7.649s-6.219,2.152-8.279.5l-.745,4.323a14.046,14.046,0,0,0,5.659,1.088c3.421,0,8.582-1.772,8.582-6.593,0-5.007-7-5.472-7-7.65S570.049-174.1,572.2-172.922Z" transform="translate(-528.201 177.901)"/></g><path class="a" d="M495.363-166.657l-1.687-8.658a2.153,2.153,0,0,0-2.378-1.734h-7.9l-.093.331a19.437,19.437,0,0,1,7.441,3.735A15.014,15.014,0,0,1,495.363-166.657Z" transform="translate(-483.304 177.398)"/></g><path class="a" d="M713.544-109.219v-2.454a1.439,1.439,0,0,0-1.313-1.555,1.422,1.422,0,0,0-.24,0,1.612,1.612,0,0,0-1.391.7,1.43,1.43,0,0,0-1.308-.7,1.325,1.325,0,0,0-1.146.573v-.5h-.859v3.926h.859v-2.167c0-.7.368-1.022.941-1.022s.859.368.859,1.022v2.167h.859v-2.167a.9.9,0,0,1,.777-1.015.928.928,0,0,1,.163-.007c.573,0,.86.368.86,1.022v2.167Zm12.717-3.926h-1.391v-1.186h-.859v1.186h-.777v.777h.777v1.8c0,.9.368,1.43,1.349,1.43a2.281,2.281,0,0,0,1.063-.286l-.245-.737a1.343,1.343,0,0,1-.737.206c-.409,0-.573-.245-.573-.662v-1.758h1.391v-.777Zm7.285-.081a1.159,1.159,0,0,0-1.023.573v-.5h-.859v3.926h.859v-2.2c0-.662.286-1.022.818-1.022a2.4,2.4,0,0,1,.531.081l.245-.818a2.679,2.679,0,0,0-.573-.041Zm-11,.409a2.816,2.816,0,0,0-1.595-.409c-.982,0-1.636.5-1.636,1.269,0,.662.5,1.023,1.349,1.145l.409.041c.45.081.7.2.7.409,0,.286-.331.5-.9.5a2.257,2.257,0,0,1-1.308-.409l-.409.662a2.89,2.89,0,0,0,1.677.5c1.146,0,1.8-.532,1.8-1.269,0-.7-.532-1.063-1.349-1.185l-.409-.041c-.368-.041-.662-.123-.662-.368,0-.286.286-.45.735-.45a2.94,2.94,0,0,1,1.227.331l.368-.7Zm22.818-.409a1.159,1.159,0,0,0-1.023.573v-.5h-.86v3.926h.86v-2.2c0-.662.286-1.022.818-1.022a2.375,2.375,0,0,1,.531.081l.245-.818a2.679,2.679,0,0,0-.573-.041Zm-10.959,2.045a1.963,1.963,0,0,0,1.877,2.047,1.9,1.9,0,0,0,.208,0,2.036,2.036,0,0,0,1.391-.45l-.409-.7a1.658,1.658,0,0,1-1.022.368,1.159,1.159,0,0,1-1.19-1.127,1.19,1.19,0,0,1,0-.141,1.205,1.205,0,0,1,1.141-1.267l.045,0a1.653,1.653,0,0,1,1.022.368l.409-.7a2.034,2.034,0,0,0-1.391-.45,1.964,1.964,0,0,0-2.083,1.837,1.9,1.9,0,0,0,0,.208Zm7.933,0v-1.962h-.859v.5a1.477,1.477,0,0,0-1.227-.573,2.046,2.046,0,0,0-1.963,2.127,2.047,2.047,0,0,0,1.963,1.962,1.376,1.376,0,0,0,1.227-.573v.5h.859Zm-3.146,0a1.189,1.189,0,0,1,1.1-1.274,1.189,1.189,0,0,1,1.274,1.1,1.21,1.21,0,0,1,0,.177,1.189,1.189,0,0,1-1.1,1.274,1.189,1.189,0,0,1-1.274-1.1A1.193,1.193,0,0,1,739.193-111.181Zm-10.266-2.045a2.045,2.045,0,0,0-2.024,2.065,2.045,2.045,0,0,0,2.065,2.024,2.5,2.5,0,0,0,1.595-.531l-.409-.614a1.958,1.958,0,0,1-1.146.409,1.1,1.1,0,0,1-1.185-.941h2.9v-.331a1.806,1.806,0,0,0-1.507-2.063,1.8,1.8,0,0,0-.293-.021Zm0,.737a.957.957,0,0,1,.982.932v.009h-2.055a1.034,1.034,0,0,1,1.063-.94Zm21.3,1.308V-114.7h-.869v2.045a1.478,1.478,0,0,0-1.227-.573,2.046,2.046,0,0,0-1.962,2.127,2.046,2.046,0,0,0,1.962,1.962,1.376,1.376,0,0,0,1.227-.573v.5h.859Zm-3.146,0a1.189,1.189,0,0,1,1.1-1.274,1.189,1.189,0,0,1,1.274,1.1,1.193,1.193,0,0,1,0,.177,1.189,1.189,0,0,1-1.1,1.274,1.189,1.189,0,0,1-1.274-1.1A1.21,1.21,0,0,1,747.086-111.181Zm-28.706,0v-1.962h-.859v.5a1.477,1.477,0,0,0-1.227-.573,2.047,2.047,0,0,0-1.963,2.127,2.047,2.047,0,0,0,1.963,1.962,1.377,1.377,0,0,0,1.227-.573v.5h.859Zm-3.189,0a1.189,1.189,0,0,1,1.1-1.274,1.189,1.189,0,0,1,1.274,1.1,1.193,1.193,0,0,1,0,.177,1.189,1.189,0,0,1-1.1,1.274,1.189,1.189,0,0,1-1.274-1.1A1.21,1.21,0,0,1,715.191-111.181Z" transform="translate(-134.775 -49.966)"/><path class="a" d="M1071.825-176.18v15.466a8.3,8.3,0,0,0,5.333-7.734A8.293,8.293,0,0,0,1071.825-176.18Z" transform="translate(-354.124 -12.971)"/><path class="a" d="M1049.386-192.566l-.171,0h-6.73a14.1,14.1,0,0,0-14.431,13.762q-.008.321,0,.643A14.322,14.322,0,0,0,1042.484-164h6.73c7.822.038,14.961-6.365,14.961-14.155A14.6,14.6,0,0,0,1049.386-192.566Zm6.226,14.266a13.08,13.08,0,0,1-13.1,13.062h-.005a13.08,13.08,0,0,1-13.09-13.07v-.015a13.08,13.08,0,0,1,13.1-13.065h.018a13.08,13.08,0,0,1,13.08,13.08Z" transform="translate(-327.784 -3.111)"/><path class="a" d="M1043.523-168.448h0a8.3,8.3,0,0,0,5.328,7.731V-176.18A8.3,8.3,0,0,0,1043.523-168.448Z" transform="translate(-337.094 -12.971)"/><path class="a" d="M1128.164-181.136c0-1.351-.707-1.262-1.382-1.276v-.394c.586.028,1.189.028,1.775.028.632,0,1.49-.028,2.6-.028a5.477,5.477,0,0,1,6,4.9q.018.18.025.36c0,1.49-.873,5.227-6.2,5.227-.767,0-1.475-.03-2.182-.03-.677,0-1.339.015-2.017.03v-.388c.9-.091,1.339-.121,1.383-1.142Zm1.475,7.045c0,1.159.828,1.291,1.565,1.291a4.187,4.187,0,0,0,4.347-4.021,4.174,4.174,0,0,0-.027-.664,4.517,4.517,0,0,0-4.183-4.828,4.4,4.4,0,0,0-.528-.007c-.618,0-.9.043-1.174.059Zm8.067,1.382h.286c.421,0,.722,0,.722-.5v-4.072c0-.662-.225-.752-.783-1.051v-.24c.707-.21,1.552-.5,1.611-.54a.535.535,0,0,1,.271-.076c.075,0,.106.091.106.212v5.769c0,.5.331.5.753.5h.255v.391c-.512,0-1.04-.029-1.58-.029s-1.085.015-1.641.029Zm1.611-8.785a.772.772,0,0,1-.737-.752.769.769,0,0,1,.737-.722.737.737,0,0,1,.737.722.75.75,0,0,1-.737.75Zm3.04,4.305c0-.555-.166-.705-.873-.994v-.285a20.347,20.347,0,0,0,1.987-.722c.045,0,.089.031.089.151v.977a4.415,4.415,0,0,1,2.606-1.128c1.278,0,1.73.93,1.73,2.1v3.874c0,.5.331.5.752.5h.272v.391c-.528,0-1.055-.03-1.595-.03s-1.084.015-1.626.03v-.383h.26c.422,0,.722,0,.722-.5v-3.889c0-.858-.525-1.276-1.384-1.276a4.025,4.025,0,0,0-1.747.72v4.446c0,.5.331.5.755.5h.27v.391c-.526,0-1.055-.029-1.6-.029s-1.083.015-1.624.029v-.391h.271c.421,0,.722,0,.722-.5Zm7.706.722a3.66,3.66,0,0,0,0,.871,2.511,2.511,0,0,0,2.21,2.6,2.887,2.887,0,0,0,2.033-1.005l.21.21a3.53,3.53,0,0,1-2.783,1.7,3.018,3.018,0,0,1-2.883-3.148c0-.042,0-.083.008-.125,0-2.944,1.987-3.808,3.038-3.808a2.387,2.387,0,0,1,2.538,2.227c0,.043,0,.087.005.131a1.821,1.821,0,0,1-.013.272l-.136.091Zm2.664-.482c.376,0,.419-.2.419-.376a1.273,1.273,0,0,0-1.16-1.377,1.248,1.248,0,0,0-.149,0c-.917,0-1.55.674-1.729,1.757Zm2.06,4.242h.406c.419,0,.72,0,.72-.5v-4.222c0-.465-.557-.556-.781-.675v-.225c1.1-.465,1.7-.858,1.838-.858.088,0,.133.045.133.2v1.351h.031c.374-.586,1.008-1.548,1.925-1.548a.828.828,0,0,1,.858.8.73.73,0,0,1-.693.766h-.014c-.469,0-.469-.361-.994-.361a1.27,1.27,0,0,0-1.1,1.247v3.532c0,.5.3.5.722.5h.843v.391c-.828-.016-1.459-.029-2.106-.029-.618,0-1.25.015-1.792.029Zm5.8-1.7a1.987,1.987,0,0,0,1.9,1.833,1.063,1.063,0,0,0,1.206-.9,1.109,1.109,0,0,0,.011-.168c0-1.773-3.28-1.2-3.28-3.62a2.068,2.068,0,0,1,2.191-1.938c.047,0,.095.008.142.014a3.961,3.961,0,0,1,1.715.437l.106,1.532h-.348a1.543,1.543,0,0,0-1.592-1.493l-.049,0a1.056,1.056,0,0,0-1.169.93c0,.021,0,.042-.005.063,0,1.758,3.49,1.217,3.49,3.575,0,.993-.8,2.043-2.588,2.043a3.973,3.973,0,0,1-1.834-.51l-.166-1.729Zm17.908-5.677h-.376a2.863,2.863,0,0,0-3.213-2.463h-.007a4.285,4.285,0,0,0-4.272,4.3,4.29,4.29,0,0,0,.026.462,4.9,4.9,0,0,0,4.485,5.212,3.058,3.058,0,0,0,3.025-2.6l.346.089-.346,2.194a8.441,8.441,0,0,1-3.327.8,5.352,5.352,0,0,1-5.741-4.931,5.358,5.358,0,0,1-.006-.717,5.528,5.528,0,0,1,5.7-5.287,10.873,10.873,0,0,1,3.552.8Zm.543,7.375h.285c.422,0,.724,0,.724-.5v-8.365c0-.977-.225-1.007-.8-1.172v-.24a9.571,9.571,0,0,0,1.55-.646,1.588,1.588,0,0,1,.331-.165c.091,0,.121.091.121.212V-173.2c0,.5.331.5.753.5h.254v.391c-.51,0-1.037-.029-1.58-.029s-1.083.015-1.639.029Zm9.663-.435c0,.272.166.285.42.285.18,0,.406-.015.6-.015v.316a15.353,15.353,0,0,0-2.167.465l-.076-.047v-1.215a4.065,4.065,0,0,1-2.664,1.262,1.621,1.621,0,0,1-1.664-1.577,1.67,1.67,0,0,1,.008-.209v-3.846c0-.391-.059-.767-.9-.841v-.286c.541-.015,1.743-.1,1.941-.1.166,0,.166.1.166.435v3.874c0,.452,0,1.744,1.308,1.744a3.364,3.364,0,0,0,1.821-.916v-4.042c0-.3-.722-.464-1.262-.614v-.27c1.353-.091,2.2-.21,2.346-.21.121,0,.121.1.121.27Zm3-4.956a3.809,3.809,0,0,1,2.242-1.081,2.926,2.926,0,0,1,2.8,3.042c0,.037,0,.075-.007.112a3.8,3.8,0,0,1-3.6,3.936,4.445,4.445,0,0,1-2.091-.527l-.45.345-.314-.166a17.784,17.784,0,0,0,.21-2.674v-6.457c0-.977-.226-1.007-.8-1.172v-.24a9.57,9.57,0,0,0,1.55-.646,1.563,1.563,0,0,1,.331-.165c.09,0,.12.091.12.212Zm0,4.085a1.618,1.618,0,0,0,1.55,1.533c1.611,0,2.288-1.578,2.288-2.916a2.866,2.866,0,0,0-2.407-2.98,2.318,2.318,0,0,0-1.431.707Zm-64.925,10.431h.116c.295,0,.606-.04.606-.466v-4.282c0-.425-.311-.467-.606-.467h-.116v-.245c.32,0,.811.031,1.214.031s.9-.031,1.285-.031v.245h-.116c-.293,0-.606.039-.606.467v4.282c0,.426.312.466.606.466h.116v.247c-.394,0-.886-.031-1.293-.031s-.884.031-1.2.031Zm8.123-1.365.016-.016v-3.065a.676.676,0,0,0-.575-.764.673.673,0,0,0-.139,0h-.181v-.245c.384,0,.762.033,1.146.033.331,0,.672-.033,1.009-.033v.245h-.124c-.345,0-.73.065-.73,1.038v3.719a5.429,5.429,0,0,0,.048.828h-.311l-4.215-4.694v3.368c0,.71.137.955.77.955h.139v.247c-.351,0-.7-.031-1.056-.031s-.745.031-1.113.031v-.247h.114c.564,0,.737-.383.737-1.037v-3.452a.734.734,0,0,0-.732-.735h-.124v-.245c.311,0,.631.033.941.033.245,0,.483-.033.73-.033Zm2.5-3.686c-.614,0-.637.147-.761.744h-.245c.031-.229.074-.457.1-.694a4.816,4.816,0,0,0,.05-.694h.2c.066.245.27.237.5.237h4.224c.222,0,.426,0,.442-.253l.2.033c-.031.22-.065.44-.089.662a5.863,5.863,0,0,0-.015.662l-.245.091c-.017-.3-.058-.785-.606-.785h-1.343v4.348c0,.631.286.7.678.7h.156v.247c-.319,0-.892-.031-1.334-.031-.5,0-1.065.031-1.384.031v-.247h.156c.452,0,.679-.04.679-.685v-4.365Zm4.954,5.05h.116c.295,0,.606-.04.606-.466v-4.282c0-.425-.311-.467-.606-.467h-.116v-.245c.5,0,1.353.031,2.038.031s1.54-.031,2.1-.031c-.015.351,0,.891.018,1.25l-.247.066c-.04-.53-.137-.955-.994-.955h-1.137v2.139h.974c.5,0,.6-.277.647-.719h.245q-.024.48-.025.955t.025.932l-.245.048c-.048-.5-.073-.808-.639-.808h-.981v1.9c0,.532.474.532.994.532.984,0,1.417-.066,1.656-.994l.229.057c-.108.434-.205.866-.278,1.3-.525,0-1.467-.031-2.2-.031s-1.712.031-2.179.031Zm5.765-4.6c0-.6-.331-.621-.581-.621h-.147v-.245c.262,0,.77.033,1.27.033s.884-.033,1.324-.033c1.032,0,1.949.278,1.949,1.439a1.543,1.543,0,0,1-1.137,1.439l1.4,2.091a.91.91,0,0,0,.795.5v.247c-.27,0-.533-.031-.8-.031s-.516.031-.77.031a22.73,22.73,0,0,1-1.7-2.649h-.54v1.75c0,.631.293.652.662.652h.147v.247c-.468,0-.942-.031-1.409-.031-.394,0-.778.031-1.187.031v-.247h.147c.3,0,.581-.137.581-.441Zm1.048,1.9h.4c.82,0,1.26-.309,1.26-1.275a1.116,1.116,0,0,0-1.034-1.192,1.148,1.148,0,0,0-.161,0,4.219,4.219,0,0,0-.465.033Zm9.375,1.325.015-.017v-3.065a.674.674,0,0,0-.571-.763.663.663,0,0,0-.141-.006h-.179v-.245c.384,0,.76.033,1.145.033.331,0,.662-.033,1.009-.033v.245h-.128c-.344,0-.728.065-.728,1.038v3.719a5.367,5.367,0,0,0,.048.828h-.31l-4.217-4.681v3.368c0,.71.139.955.77.955h.139v.247c-.351,0-.7-.031-1.056-.031s-.747.031-1.114.031v-.247h.114c.566,0,.737-.383.737-1.037v-3.452a.734.734,0,0,0-.732-.735h-.119v-.245c.309,0,.631.033.942.033.243,0,.482-.033.729-.033Zm2.6.442a3.249,3.249,0,0,0-.182.637c0,.245.344.285.612.285h.091v.247c-.331-.018-.662-.031-.994-.031-.295,0-.588.013-.884.031v-.247h.049a.74.74,0,0,0,.712-.531l1.311-3.75a6.934,6.934,0,0,0,.3-1.015,4.192,4.192,0,0,0,.745-.349.173.173,0,0,1,.064-.016.056.056,0,0,1,.058.025c.025.065.048.139.075.2l1.507,4.275c.1.287.2.588.3.828a.52.52,0,0,0,.542.331h.049v.247c-.369-.018-.737-.031-1.129-.031s-.811.013-1.228.031v-.247h.091c.187,0,.508-.031.508-.237a2.6,2.6,0,0,0-.165-.588l-.318-.947h-1.863Zm1.2-3.621h-.017l-.761,2.318h1.53Zm3.528-.507c-.615,0-.639.147-.762.743h-.258c.031-.228.075-.457.1-.693a4.9,4.9,0,0,0,.048-.694h.2c.065.245.27.237.5.237h4.225c.22,0,.425,0,.442-.253l.2.033c-.031.22-.064.441-.089.662a5.923,5.923,0,0,0-.018.662l-.245.091c-.015-.3-.056-.785-.606-.785h-1.343v4.348c0,.631.288.7.679.7h.156v.247c-.319,0-.893-.031-1.334-.031-.5,0-1.065.031-1.384.031v-.247h.156c.451,0,.681-.04.681-.685v-4.365Zm4.994,5.05h.113c.3,0,.606-.039.606-.465v-4.282c0-.426-.309-.467-.606-.467h-.114v-.245c.319,0,.81.031,1.21.031s.9-.031,1.286-.031v.245h-.114c-.295,0-.608.04-.608.467v4.282c0,.426.313.465.608.465h.114v.247c-.394,0-.884-.031-1.293-.031s-.884.031-1.2.031Zm5.763-5.58a2.869,2.869,0,0,1,3.124,2.59c.007.074.011.149.012.225a3,3,0,0,1-2.867,3.128q-.114,0-.228,0a2.891,2.891,0,0,1-3.058-2.713q-.006-.111,0-.221a2.981,2.981,0,0,1,2.957-3h.058Zm.124,5.589c1.59,0,1.866-1.4,1.866-2.59s-.646-2.641-2.005-2.641c-1.432,0-1.858,1.275-1.858,2.369-.008,1.47.664,2.869,1.99,2.869Zm8.53-1.374.016-.017v-3.065a.675.675,0,0,0-.575-.763.7.7,0,0,0-.139-.005h-.177v-.245c.384,0,.76.033,1.144.033.331,0,.672-.033,1.01-.033v.245h-.124c-.343,0-.729.065-.729,1.038v3.719a5.293,5.293,0,0,0,.05.828h-.311l-4.226-4.681v3.368c0,.71.139.955.77.955h.141v.247c-.353,0-.7-.031-1.056-.031s-.747.031-1.114.031v-.247h.121c.566,0,.737-.383.737-1.037v-3.452a.732.732,0,0,0-.728-.735h-.124v-.245c.312,0,.631.033.942.033.245,0,.482-.033.729-.033Zm2.594.442a3.4,3.4,0,0,0-.179.637c0,.245.345.285.613.285h.091v.247c-.331-.018-.662-.031-.993-.031-.3,0-.589.013-.883.031v-.247h.046a.74.74,0,0,0,.714-.531l1.312-3.75a6.573,6.573,0,0,0,.3-1.015,4.209,4.209,0,0,0,.747-.349.166.166,0,0,1,.065-.016c.025,0,.04,0,.057.025.025.065.049.139.074.2l1.5,4.275c.1.287.2.588.3.828a.518.518,0,0,0,.54.331h.05v.247c-.369-.018-.737-.031-1.131-.031s-.81.013-1.229.031v-.247h.091c.187,0,.508-.031.508-.237a2.6,2.6,0,0,0-.166-.588l-.318-.947h-1.861Zm1.2-3.621h-.017l-.763,2.318h1.533Zm5.232,3.989c0,.331.227.425.5.458a5.964,5.964,0,0,0,1.083-.016,1.174,1.174,0,0,0,.785-.442,1.855,1.855,0,0,0,.253-.588h.237c-.09.465-.206.924-.3,1.389-.718,0-1.442-.031-2.153-.031s-1.442.031-2.162.031v-.247h.113c.3,0,.616-.039.616-.546v-4.2c0-.426-.319-.467-.616-.467h-.113v-.245c.432,0,.859.033,1.293.033s.828-.033,1.245-.033v.245h-.205c-.311,0-.555.008-.555.44Z" transform="translate(-387.183 -8.391)"/><path class="a" d="M921.21-197.737H887.844v33.485H921.21V-175.3a1.266,1.266,0,0,0,.2-.737,1.146,1.146,0,0,0-.2-.734" transform="translate(-243.419)"/><path class="c" d="M890.83-165.9l-.642-1.565-.639,1.565m15.421-.623a.869.869,0,0,1-.464.081h-1.139v-.871h1.159a.968.968,0,0,1,.445.071.359.359,0,0,1,.2.348.4.4,0,0,1-.194.371Zm8.128.623-.649-1.565L911.8-165.9Zm-15.15,1.692h-.962v-3.073l-1.359,3.073H894.8l-1.362-3.075v3.075h-1.9l-.361-.874h-1.952l-.364.874h-1.019l1.679-3.924h1.392l1.594,3.714v-3.714h1.53l1.227,2.661,1.128-2.661h1.561v3.924Zm3.831,0H898.65v-3.924h3.132v.816h-2.194v.707h2.143v.8h-2.143v.783h2.2Zm4.417-2.866a1.1,1.1,0,0,1-.662,1.046,1.09,1.09,0,0,1,.464.331,1.125,1.125,0,0,1,.155.72v.77h-.945v-.5a1.18,1.18,0,0,0-.147-.765c-.137-.137-.346-.165-.684-.165h-1.007v1.427h-.937v-3.924h2.153a2.212,2.212,0,0,1,1.136.187.916.916,0,0,1,.479.861Zm1.5,2.866h-.957v-3.924h.957Zm11.093,0h-1.324l-1.778-2.946v2.946h-1.9l-.364-.874h-1.949l-.354.874h-1.1a1.656,1.656,0,0,1-1.871-1.408,1.663,1.663,0,0,1,.01-.524,2.086,2.086,0,0,1,.505-1.533,1.9,1.9,0,0,1,1.424-.457H911v.841h-.889a.9.9,0,0,0-.722.232,1.294,1.294,0,0,0-.27.889,1.359,1.359,0,0,0,.258.922.907.907,0,0,0,.654.2h.421l1.325-3.085h1.408l1.588,3.71v-3.71H916.2l1.656,2.732v-2.732h.96v3.924Zm-30.977.77h1.6l.361-.871h.809l.361.871H894.1v-.662l.282.662h1.636l.282-.679v.676h7.835v-1.431h.151c.106,0,.137.013.137.189v1.242h4.053v-.331a3.213,3.213,0,0,0,1.5.331h1.719l.365-.871h.808l.358.871h3.285v-.828l.5.828h2.636V-168.9h-2.606v.646l-.364-.646H914v.646l-.331-.646H910.05a3.246,3.246,0,0,0-1.564.319v-.318h-2.494v.32a1.543,1.543,0,0,0-1.06-.32h-9.106l-.611,1.412-.628-1.412h-2.865v.646l-.315-.646h-2.445l-1.136,2.6v2.863Z" transform="translate(-243.402 -17.347)"/><path class="c" d="M931.236-150.366h-1.709a.649.649,0,0,0-.379.071.3.3,0,0,0-.137.283.3.3,0,0,0,.205.293,1.084,1.084,0,0,0,.361.045l.508.013a1.49,1.49,0,0,1,1.065.316.5.5,0,0,1,.088.1m0,1.47a1.461,1.461,0,0,1-1.273.5h-1.811v-.841h1.8a.534.534,0,0,0,.379-.1.346.346,0,0,0,.111-.257.33.33,0,0,0-.114-.26.476.476,0,0,0-.331-.088c-.881-.03-1.987.028-1.987-1.214,0-.57.361-1.169,1.346-1.169h1.868v-.781H929.5a1.956,1.956,0,0,0-1.174.321v-.321h-2.567a1.775,1.775,0,0,0-1.121.321v-.321h-4.585v.321a2.44,2.44,0,0,0-1.265-.321h-3.023v.321a2.138,2.138,0,0,0-1.325-.321h-3.388l-.775.838-.725-.838h-5.049v5.476h4.967l.8-.851.752.851h3.058V-147.8h.285a3.187,3.187,0,0,0,1.306-.192v1.478h2.521v-1.422h.121c.156,0,.166,0,.166.166v1.265h7.674a2.187,2.187,0,0,0,1.276-.349v.349h2.431a3.26,3.26,0,0,0,1.376-.252v-1.02Zm-3.74-1.568a1.09,1.09,0,0,1,.28.828c0,.844-.528,1.238-1.474,1.238h-1.821v-.841H926.3a.549.549,0,0,0,.382-.1.348.348,0,0,0,.111-.257.331.331,0,0,0-.114-.26.494.494,0,0,0-.331-.088c-.878-.03-1.976.028-1.976-1.214,0-.57.358-1.169,1.341-1.169H927.6v.828h-1.732a.631.631,0,0,0-.376.071.331.331,0,0,0-.076.462.331.331,0,0,0,.141.112,1.074,1.074,0,0,0,.364.045l.5.013a1.514,1.514,0,0,1,1.079.326Zm-8.462-.242a.9.9,0,0,1-.464.081h-1.139v-.881h1.159a.924.924,0,0,1,.447.071.374.374,0,0,1,.194.352.425.425,0,0,1-.2.371Zm.566.488a1.022,1.022,0,0,1,.458.331,1.141,1.141,0,0,1,.156.717v.777h-.942v-.5c0-.235.023-.586-.151-.768a.909.909,0,0,0-.689-.174h-1v1.439h-.942V-151.2h2.164a2.321,2.321,0,0,1,1.128.186.919.919,0,0,1,.482.871,1.1,1.1,0,0,1-.664,1.047Zm1.184-2.1h3.131v.811h-2.2v.714h2.142v.8h-2.142v.781h2.2v.82h-3.131Zm-6.327,1.811h-1.212v-.993h1.223c.331,0,.573.137.573.482s-.225.509-.586.509Zm-2.152,1.757-1.441-1.6,1.441-1.548Zm-3.719-.46h-2.3v-.781h2.058v-.8h-2.058v-.714h2.351l1.026,1.144Zm7.451-1.821c0,1.09-.813,1.315-1.633,1.315h-1.171v1.325h-1.821l-1.159-1.3-1.187,1.3h-3.715V-151.2h3.772l1.159,1.286,1.194-1.286h3c.738,0,1.574.2,1.574,1.288Z" transform="translate(-253.445 -27.524)"/></g></svg>