<svg xmlns="http://www.w3.org/2000/svg" width="21.218" height="24.783" viewBox="0 0 21.218 24.783"><defs><style>.a{fill:#fff;}</style></defs><g transform="translate(0)"><path class="a" d="M1223.259,274.664a5.418,5.418,0,0,1-.833-.064h0a17.753,17.753,0,0,1-14.8-20.037c0-.036.009-.071.015-.107l0-.021v-.008h0a5.416,5.416,0,0,1,6.165-4.48l.03,0,.036.005a5.465,5.465,0,0,1,1.086.287,5.354,5.354,0,0,1,.72.335,1.322,1.322,0,0,1,.679,1.074l.439,6.834a1.321,1.321,0,0,1-.533,1.151,5.433,5.433,0,0,1-1.332.724,10.823,10.823,0,0,0,4.087,5.542,5.416,5.416,0,0,1,1.119-1.056,1.326,1.326,0,0,1,1.239-.154l6.327,2.429a1.326,1.326,0,0,1,.816.934,4.953,4.953,0,0,1,.122.811,5.4,5.4,0,0,1-5.386,5.8Zm-.569-1.763a3.682,3.682,0,0,0,4.24-3.914,3.357,3.357,0,0,0-.04-.339l-5.925-2.274a3.618,3.618,0,0,0-.943,1.118l-.426.782-.766-.453a12.529,12.529,0,0,1-5.789-7.857l-.208-.879.888-.164a3.633,3.633,0,0,0,1.349-.544l-.41-6.394c-.1-.049-.2-.093-.3-.13a3.738,3.738,0,0,0-.746-.2l-.068-.011a3.693,3.693,0,0,0-4.2,3.056l0,.021h0c0,.011,0,.021,0,.032l-.005.041A16.029,16.029,0,0,0,1222.69,272.9Z" transform="translate(-1207.442 -249.88)"/></g></svg>