<svg xmlns="http://www.w3.org/2000/svg" width="218.61" height="150.249" viewBox="0 0 218.61 150.249"><defs><style>.a{fill:#ffaf97;}.b{fill:#ea846c;}.c{fill:#f49d89;}.d{fill:#d54f1f;}.e{fill:#e48863;}.f{fill:#fff;}.g{fill:#002f8e;}.h{fill:#fff91a;}.i{fill:#3acced;}.j{fill:#ccf5ff;}.k{fill:#b3dd72;}.l{fill:#5cd9ff;}.m{fill:#92eaff;}.n{opacity:0.78;}.n,.p,.q{mix-blend-mode:multiply;isolation:isolate;}.o{fill:#5d547f;}.p{opacity:0.61;}.r{fill:#c9c9c9;}.s{fill:#defaff;}.t{opacity:0.63;}.u{fill:#00BB31;}</style></defs><g transform="translate(-72.412 -22.003)"><g transform="translate(72.412 22.003)"><g transform="translate(144.069 106.042)"><path class="a" d="M8017.77-534.187s26.237-7.12,38.58,8.28c0,0,12.36,23.181-16.524,26.833Z" transform="translate(-8017.77 535.831)"/></g><g transform="translate(103.492 133.71)"><path class="b" d="M7804.726-377.017s-10.894,3.047-9.827-2.9l5.149-3.9,4.678,4.192Z" transform="translate(-7794.825 383.815)"/></g><g transform="translate(86.635 28.587)"><path class="c" d="M7703.717-959.909l12.829,11.376a7.4,7.4,0,0,1,1.708,2.226l6.669,13.338a2.156,2.156,0,0,0,2.665,1.062h0a2.156,2.156,0,0,0,1.333-2.63l-5.16-17.679-9.178-9.178h-12.378Z" transform="translate(-7702.206 961.394)"/></g><g transform="translate(95.139 24.798)"><path class="c" d="M7748.932-977.581l11.62,9.6,8.553,19.049a1.93,1.93,0,0,0,2.358,1.045h0a1.931,1.931,0,0,0,1.275-2.312l-6.123-24.1-14.567-7.915Z" transform="translate(-7748.932 982.212)"/></g><g transform="translate(95.052 29.324)"><path class="d" d="M7768.589-928.537l-8.539-19.02-11.6-9.579.174-.21,11.645,9.619.013.029,8.552,19.049Z" transform="translate(-7748.455 957.346)"/></g><g transform="translate(85.631 26.229)"><path class="c" d="M7697.693-971.99l1.937,16.672-2.881,11.357a1.942,1.942,0,0,0,1.1,2.252h0a1.941,1.941,0,0,0,2.564-1l5.788-13.283-.842-18.356Z" transform="translate(-7696.689 974.348)"/></g><g transform="translate(73.247 11.41)"><path class="e" d="M7628.647-1055.772h15.791a5.746,5.746,0,0,1,3.764,1.4l9.158,7.942H7643Z" transform="translate(-7628.647 1055.772)"/></g><g transform="translate(90.123 31.803)"><rect class="d" width="0.273" height="7.605" transform="matrix(0.663, -0.748, 0.748, 0.663, 0, 0.204)"/></g><g transform="translate(0 2.214)"><path class="a" d="M7226.207-1056.776l47.943-22.516s26.9,20.335,46.985,24.5c0,0,6.694-.505,1.011-6.189,0,0-17.683-14.777-18.188-16.672,0,0,21.345-2.652,30.818,1.263,0,0,5.557,3.537,8.209,7.326,0,0,8.083,10.989,12.883,7.831,0,0,2.9-2.526-13.767-22.356l-1.468-1.622a5.464,5.464,0,0,0-2.251-1.494c-7.314-2.553-43.405-14.943-67-19.235a22.133,22.133,0,0,0-7.271-.112l-37.907,5.73Z" transform="translate(-7226.207 1106.297)"/></g><g transform="translate(125.731 40.267)"><path class="f" d="M7918.6-897.219s-4.436,3.34,1.523,7.408C7920.121-889.811,7923.624-889.867,7918.6-897.219Z" transform="translate(-7917.011 897.219)"/></g><g transform="translate(90.213 49.377)"><path class="f" d="M7729.438-844s-7.275-7.117-7.57,0C7721.868-844,7727.367-840.511,7729.438-844Z" transform="translate(-7721.868 847.166)"/></g><g transform="translate(44.034 24.735)"><path class="d" d="M7471.97-977.967a14.82,14.82,0,0,1-3.83-4.467l.242-.127a14.515,14.515,0,0,0,3.748,4.374Z" transform="translate(-7468.141 982.561)"/></g><g transform="translate(75.01 28.483)"><rect class="d" width="0.273" height="3.493" transform="translate(0 0.207) rotate(-49.397)"/></g><path class="g" d="M7252.373-1118.46l5.133,41.754-31.3,15.02v-50.487Z" transform="translate(-7226.207 1118.46)"/><g transform="translate(26.166)"><path class="f" d="M7369.973-1116.247l7.364-2.214,5.525,35.817-8.109,3.062Z" transform="translate(-7369.973 1118.46)"/></g><g transform="translate(56.57 78.503)"><path class="h" d="M7545.971-645.671a39.652,39.652,0,0,1-1.642-18.512q-.253-.032-.518-.073c-1.985-.31-4.625-1.129-5.924-3.265-1.152-1.895-.944-4.255-.588-6.314a44.789,44.789,0,0,1,4.539-13.306l.322.17a44.405,44.405,0,0,0-4.5,13.2c-.345,1.992-.551,4.271.539,6.063,1.228,2.017,3.761,2.8,5.67,3.1q.264.041.518.073.2-1.249.481-2.477c1-4.353,3.294-4.6,3.977-4.57a2.693,2.693,0,0,1,1.932,1,3.35,3.35,0,0,1,.789,2.517,4.579,4.579,0,0,1-3.027,3.536,8.245,8.245,0,0,1-3.846.394,39.292,39.292,0,0,0,1.625,18.354Zm-1.224-18.832a7.887,7.887,0,0,0,3.659-.374,4.214,4.214,0,0,0,2.8-3.24,2.979,2.979,0,0,0-.7-2.238,2.337,2.337,0,0,0-1.67-.872c-1.911-.077-3.12,2.162-3.607,4.287Q7544.944-665.732,7544.747-664.5Z" transform="translate(-7537.018 687.141)"/></g><g transform="translate(65.736 46.616)"><g transform="translate(15.013 70.137)"><path class="i" d="M7669.865-474.379l3.081,1.9,9.134,5.632h0l8.256,5.09,70.136-2.6-5.053-3.117-9.928-6.121-5.49-3.385Z" transform="translate(-7669.865 476.98)"/></g><g transform="translate(17.957 70.881)"><path class="j" d="M7752.294-472.193l16.177,9.971-63.962,2.372-16.176-9.971,63.961-2.372m.184-.7-66.439,2.464,18.288,11.273,66.439-2.464-18.288-11.273Z" transform="translate(-7686.038 472.89)"/></g><g transform="translate(45.788 73.296)"><path class="j" d="M7860.481-450.752a50.9,50.9,0,0,1-15.673-2.613c-4.387-1.533-5.894-3.084-5.853-3.947.033-.683,1.052-1.319,2.794-1.745a25.324,25.324,0,0,1,5.783-.564,51.835,51.835,0,0,1,15.953,2.6c2.625.918,5.667,2.476,5.6,3.847-.035.733-1.109,1.411-2.948,1.861a24.673,24.673,0,0,1-5.657.561Z" transform="translate(-7838.954 459.622)"/></g><g transform="translate(75.408 71.547)"><path class="k" d="M8001.7-468.916l8.629-.32,5.1,3.144Z" transform="translate(-8001.697 469.236)"/></g><g transform="translate(32.455 79.614)"><path class="j" d="M7779.429-422.087l-8.629.32-5.1-3.145Z" transform="translate(-7765.699 424.911)"/></g><g transform="translate(20.705 73.511)"><path class="k" d="M7709.768-458.44l-8.627.32,5.1,3.144Z" transform="translate(-7701.141 458.44)"/></g><g transform="translate(34.366 82.759)"><rect class="l" width="70.185" height="5.929" transform="translate(0 2.601) rotate(-2.124)"/></g><g transform="translate(15.014 72.74)"><path class="m" d="M7690.344-450.057l-20.473-12.621.209,5.653,20.535,13.918Z" transform="translate(-7669.871 462.678)"/></g><g class="n" transform="translate(18.094 73.522)"><path class="o" d="M7686.793-457.265l9.134,5.632h0l39.352.339,33.988-.966-9.928-6.121Z" transform="translate(-7686.793 458.381)"/></g><g transform="translate(30.092 54.605)"><path class="l" d="M7758.055-555.4a174.253,174.253,0,0,0-5.339,17.679,362.49,362.49,0,0,0,74.521-4.11c-4.818-6.715-9.452-13.521-13.909-20.481A253.53,253.53,0,0,1,7758.055-555.4Z" transform="translate(-7752.716 562.316)"/><g transform="translate(2.144 1.322)"><path class="f" d="M7779.051-532.276q-7.154,0-14.443-.273l-.109,0,.024-.107c1.19-5.343,2.652-10.7,4.345-15.909l.02-.062h.065a259.054,259.054,0,0,0,53.33-6.406l.064-.015.034.056c3.739,6.121,7.759,12.267,11.948,18.268l.083.119-.144.023A349.67,349.67,0,0,1,7779.051-532.276Zm-14.327-.451a354.688,354.688,0,0,0,69.371-4.016c-4.148-5.948-8.13-12.037-11.837-18.1a259.222,259.222,0,0,1-53.238,6.394C7767.349-543.3,7765.9-538.007,7764.724-532.726Z" transform="translate(-7764.498 555.051)"/></g><g transform="translate(24.387 7.544)"><path class="j" d="M7898.6-506.467c-4.835,0-8.831-1.453-10.963-3.986a3.544,3.544,0,0,1-.8-3.345c.532-1.988,3.126-4.786,6.546-6.028a17.515,17.515,0,0,1,5.915-1.041,14.627,14.627,0,0,1,9.577,3.356,5.134,5.134,0,0,1,1.955,5.159,6.988,6.988,0,0,1-5.223,4.851l-.026.007a23.984,23.984,0,0,1-6.977,1.027Z" transform="translate(-7886.705 520.867)"/><g transform="translate(7.139 2.702)"><path class="l" d="M7930.364-497.859a7.715,7.715,0,0,1-1.644-.172,3.583,3.583,0,0,1-1.031-.415,2.2,2.2,0,0,1-.6-.5,1.783,1.783,0,0,1-.27-.517,1.232,1.232,0,0,1-.063-.516,2.157,2.157,0,0,1,.086-.44,1.012,1.012,0,0,1,.309-.415c.146-.135.218-.2.36-.339a2.753,2.753,0,0,1,.552-.322c.218-.111.326-.166.542-.278.106-.053.335-.144.684-.274l.646-.242.681-.261a8.916,8.916,0,0,0,1.765-.841.677.677,0,0,0,.344-.854,1.31,1.31,0,0,0-1.129-.7,6.074,6.074,0,0,0-1.951.026,12.046,12.046,0,0,0-3.221,1.206c-.2-.423-.3-.634-.494-1.056a8.957,8.957,0,0,1,1.512-.607,14.368,14.368,0,0,1,2.035-.494,9.262,9.262,0,0,1,2.058-.137,4.589,4.589,0,0,1,1.519.307,3.589,3.589,0,0,1,.96.578,1.974,1.974,0,0,1,.531.706,1.021,1.021,0,0,1,.057.727,1.516,1.516,0,0,1-.324.581,2.919,2.919,0,0,1-.779.532c-.377.2-.684.344-.916.439s-.61.248-1.134.457c-.481.192-.875.346-1.177.463a6.7,6.7,0,0,0-.893.425,1.52,1.52,0,0,0-.593.519.665.665,0,0,0-.044.573q.214.6,1.2.767a7.606,7.606,0,0,0,2.327-.016,7.692,7.692,0,0,0,3.643-1.363c.316.47.478.706.8,1.178a11.837,11.837,0,0,1-4.018,1.118A15.215,15.215,0,0,1,7930.364-497.859Z" transform="translate(-7925.928 506.02)"/></g><g transform="translate(9.985 1.636)"><path class="l" d="M7945.57-501.483a.265.265,0,0,1-.244-.161,103.642,103.642,0,0,1-3.747-9.888.265.265,0,0,1,.168-.334.265.265,0,0,1,.334.168,103.088,103.088,0,0,0,3.731,9.846.265.265,0,0,1-.139.347A.264.264,0,0,1,7945.57-501.483Z" transform="translate(-7941.565 511.879)"/></g></g><g transform="translate(61.456 14.016)"><path class="f" d="M8090.376-478.912c3.452-.472,5.164-.731,8.554-1.294-1.38-2.042-2.058-3.064-3.385-5.1A48.925,48.925,0,0,1,8090.376-478.912Z" transform="translate(-8090.376 485.308)"/></g><g transform="translate(52.968 2.658)"><path class="f" d="M8043.741-546.289c2.662-.533,3.977-.818,6.571-1.422,1.211,2.031,1.83,3.047,3.093,5.082C8049.3-544.074,8047.37-544.809,8043.741-546.289Z" transform="translate(-8043.741 547.711)"/></g><g transform="translate(3.618 18.554)"><path class="f" d="M7781.864-455.645c-3.692-.04-5.546-.086-9.269-.228.361-1.806.551-2.706.959-4.5C7776.644-458.49,7778.305-457.541,7781.864-455.645Z" transform="translate(-7772.595 460.372)"/></g><g transform="translate(6.738 8.396)"><path class="f" d="M7798.4-516.183c-2.956.12-4.447.159-7.446.195-.512,1.766-.757,2.652-1.223,4.43A87.23,87.23,0,0,0,7798.4-516.183Z" transform="translate(-7789.734 516.183)"/></g></g><g class="p" transform="translate(30.432 62.153)"><path class="o" d="M7811.669-520.848l5.416,5.854s-54.883,11.331-62.5,9.831l1.056-4.586Z" transform="translate(-7754.582 520.848)"/></g><g transform="translate(18.309 43.989)"><path class="l" d="M7687.975-586.791a362.63,362.63,0,0,0,72.94-15.829q-8.73-8.8-16.972-18.024-5.789,2.432-11.649,4.521a261.028,261.028,0,0,1-41.841,11.032q-.771,4.076-1.344,8.186Q7688.395-591.868,7687.975-586.791Z" transform="translate(-7687.975 620.645)"/><g transform="translate(1.997 1.401)"><path class="f" d="M7698.946-581.594l.007-.109c.333-5.476.931-10.992,1.777-16.4l.01-.064.064-.011a258.836,258.836,0,0,0,51.647-14.748l.061-.025.042.05c4.658,5.456,9.6,10.89,14.684,16.151l.1.1-.138.045a354.623,354.623,0,0,1-68.146,14.988Zm1.954-16.412c-.834,5.341-1.426,10.792-1.759,16.205a354.424,354.424,0,0,0,67.865-14.922c-5.037-5.215-9.93-10.6-14.547-16.005A259,259,0,0,1,7700.9-598.006Z" transform="translate(-7698.946 612.946)"/></g><g transform="translate(22.613 10.971)"><path class="j" d="M7821.568-545.546a12.072,12.072,0,0,1-8.006-2.488,3.539,3.539,0,0,1-1.322-3.176c.211-2.047,2.331-5.22,5.512-6.987a17.336,17.336,0,0,1,8.274-2.171,14.068,14.068,0,0,1,7.39,2.011,5.135,5.135,0,0,1,2.744,4.785,6.987,6.987,0,0,1-4.393,5.614l-.024.012a23.924,23.924,0,0,1-10.174,2.4Z" transform="translate(-7812.219 560.367)"/><g transform="translate(7.819 3.189)"><g transform="translate(0 1.216)"><path class="l" d="M7855.972-530.818a.8.8,0,0,1,.281-.753,2.268,2.268,0,0,0,1.824.26c.64-.191.908-.533.783-.949-.144-.482-.706-.395-1.379-.347-.92.067-1.9,0-2.228-1.1-.3-1,.309-1.9,1.6-2.289s2.083-.052,2.219.4a.835.835,0,0,1-.3.786,2.015,2.015,0,0,0-1.626-.237c-.59.177-.856.528-.739.917.139.466.633.363,1.342.314,1.036-.075,2,.079,2.307,1.092.32,1.071-.271,1.936-1.691,2.36S7856.118-530.327,7855.972-530.818Z" transform="translate(-7855.178 536.164)"/></g><g transform="translate(5.907)"><path class="l" d="M7887.671-535.38a1.393,1.393,0,0,1-.038-.369l.108-6.934a.505.505,0,0,1,.237-.116c.24-.072.618-.112.737.287a1.554,1.554,0,0,1,.038.368l-.1,6.931a.553.553,0,0,1-.237.116C7888.167-535.021,7887.791-534.981,7887.671-535.38Z" transform="translate(-7887.634 542.845)"/></g></g></g><g transform="translate(60.025 12.889)"><path class="f" d="M8017.77-542.7c3.333-1.011,4.983-1.538,8.243-2.629-1.685-1.8-2.517-2.7-4.149-4.5A49.039,49.039,0,0,1,8017.77-542.7Z" transform="translate(-8017.77 549.829)"/></g><g transform="translate(49.065 2.792)"><path class="f" d="M7957.552-602.865c2.544-.947,3.8-1.436,6.264-2.442,1.517,1.814,2.289,2.721,3.858,4.53C7963.393-601.555,7961.369-601.976,7957.552-602.865Z" transform="translate(-7957.552 605.307)"/></g><g transform="translate(4.13 27.011)"><path class="f" d="M7719.856-468.884c-3.652.544-5.491.792-9.189,1.24.071-1.84.118-2.76.238-4.6C7714.253-470.869,7716.042-470.194,7719.856-468.884Z" transform="translate(-7710.667 472.239)"/></g><g transform="translate(4.827 15.428)"><path class="f" d="M7722.324-535.876c-2.9.586-4.365.859-7.321,1.368-.227,1.824-.327,2.738-.506,4.568A87.27,87.27,0,0,0,7722.324-535.876Z" transform="translate(-7714.497 535.876)"/></g></g><g class="q" transform="translate(19.444 48.51)"><path class="r" d="M7694.21-576.588c14.965,3.346,50.1-10.935,50.1-10.935l-6.915-8.284a261.042,261.042,0,0,1-41.841,11.032Q7694.783-580.7,7694.21-576.588Z" transform="translate(-7694.21 595.806)"/></g><g transform="translate(0 0)"><path class="l" d="M7587.378-835.655a156.411,156.411,0,0,0,13.175,17.727c2.656,3.117,5.406,6.155,8.234,9.15,23.746-4.654,42.6-16.161,55.135-37.136-8.6-4.746-16.794-9.9-24.177-16.422a62.053,62.053,0,0,1-18.529,17.366C7611.414-839.077,7600.067-836.167,7587.378-835.655Z" transform="translate(-7587.378 862.336)"/><g transform="translate(2.517 2.049)"><path class="f" d="M7620.59-801.247l-.035-.037a177.553,177.553,0,0,1-19.263-23.761l-.085-.13.155-.011c10.7-.794,19.831-3.16,27.917-7.232A62.034,62.034,0,0,0,7651.165-851l.059-.078.074.064a139.1,139.1,0,0,0,21.581,14.89l.083.048-.051.08c-11.815,18.433-28.913,29.8-52.27,34.738Zm-19.061-23.769a177.62,177.62,0,0,0,19.123,23.57c23.247-4.93,40.275-16.238,52.053-34.567a139.249,139.249,0,0,1-21.453-14.8,62.185,62.185,0,0,1-21.891,18.556C7621.291-828.192,7612.185-825.823,7601.529-825.016Z" transform="translate(-7601.206 851.077)"/></g><g transform="translate(28.363 19.87)"><path class="s" d="M7758.648-733.259a21.1,21.1,0,0,1-8.645-1.9c-3.391-1.588-6.138-4.766-6.681-7.729a6.145,6.145,0,0,1,1.845-5.61,16.161,16.161,0,0,1,11.605-4.664,16.1,16.1,0,0,1,5.351.889,12.618,12.618,0,0,1,7.367,6.761,8.234,8.234,0,0,1-.141,6.876c-2.594,4.68-7.816,5.38-10.7,5.38Z" transform="translate(-7743.215 753.166)"/><g transform="translate(7.109 3.293)"><path class="l" d="M7785.556-706.257a1.156,1.156,0,0,1-.087-1.158,3.276,3.276,0,0,0,2.547-.762c.722-.637.866-1.248.453-1.717-.479-.544-1.164-.091-2.018.378-1.165.644-2.491,1.146-3.583-.092-.992-1.125-.744-2.678.72-3.969s2.7-1.328,3.151-.812a1.207,1.207,0,0,1,.084,1.21,2.909,2.909,0,0,0-2.275.672c-.666.587-.8,1.208-.413,1.648.463.525,1.048.092,1.947-.4,1.313-.724,2.675-1.108,3.684.036,1.067,1.21.814,2.7-.79,4.115S7786.044-705.7,7785.556-706.257Z" transform="translate(-7782.271 718.406)"/><path class="l" d="M7820.977-724.857a1.982,1.982,0,0,1-.272-.46l-4.051-9.15c-.017-.019.09-.163.24-.3.272-.24.742-.52,1.139-.07a2.16,2.16,0,0,1,.272.46l4.061,9.142a.814.814,0,0,1-.24.3C7821.843-724.687,7821.374-724.407,7820.977-724.857Z" transform="translate(-7810.395 735.071)"/></g></g><g transform="translate(65.592 13.415)"><path class="f" d="M7949.992-777.978a55.3,55.3,0,0,0,4.551-6.539c-2.851-1.617-4.207-2.445-6.783-4.114C7948.678-784.364,7949.125-782.233,7949.992-777.978Z" transform="translate(-7947.76 788.632)"/></g><g transform="translate(48.339 3.944)"><path class="f" d="M7852.967-835.025a46.775,46.775,0,0,0,4.527-5.641c1.99,1.706,3.049,2.562,5.3,4.265A77.319,77.319,0,0,1,7852.967-835.025Z" transform="translate(-7852.967 840.666)"/></g><g transform="translate(16.548 43.601)"><path class="f" d="M7693.114-618.231a69.423,69.423,0,0,1-8.667,2.1c-2.6-2.667-3.828-4-6.151-6.65C7683.212-621.073,7688.089-619.578,7693.114-618.231Z" transform="translate(-7678.297 622.777)"/></g><g class="t" transform="translate(5.219 28.126)"><path class="f" d="M7624.175-707.8a59.607,59.607,0,0,1-8.124.949c1.747,2.54,2.681,3.83,4.678,6.43C7622.126-703.355,7622.814-704.831,7624.175-707.8Z" transform="translate(-7616.051 707.8)"/></g></g><g transform="translate(35.589 85.795)"><path class="l" d="M7783.083-384.433s50.845-3.99,69.1-2.161l-.245-4.354-46.484,1.679-22.542.575Z" transform="translate(-7782.914 390.948)"/></g></g><g transform="translate(105.581 127.802)"><path class="a" d="M7822.062-406.9l-5.542.337s-5.592-12.367-10.056-9.192c0,0-3.146,16.181,18.521,16.057l-.777-5.779Z" transform="translate(-7806.304 416.272)"/></g><g transform="translate(117.615 121.307)"><path class="a" d="M7893.289-430.227l-8.091,2.154a8.144,8.144,0,0,1-8.6-2.923,21.617,21.617,0,0,1-3.918-9.084s-1.846-8.054,4.205-11.862c0,0,3.755-.8,2.53,7.842a8.609,8.609,0,0,0,1.465,6.193c.267.376.57.779.919,1.208l8.158-.029Z" transform="translate(-7872.419 451.962)"/></g><g transform="translate(131.837 125.853)"><path class="a" d="M7994.146-412.225s-31.082,9.146-38.474,2.373a15.2,15.2,0,0,1-4.1-16.707s5.034-3.505,8.429,9.576l30.639-.5-.355-7.364Z" transform="translate(-7950.562 426.986)"/></g><g transform="translate(174.878 110.826)"><path class="a" d="M8188.87-481.663l41.9,11.541-.2-32.36-43.529-7.062Z" transform="translate(-8187.042 509.544)"/></g><g transform="translate(117.744 133.173)"><path class="d" d="M7882.723-374.379c-3.407-.427-6.147-2.7-7.923-6.581a21.429,21.429,0,0,1-1.669-5.772l.271-.031c.013.111,1.346,11.109,9.355,12.113Z" transform="translate(-7873.13 386.763)"/></g><g transform="translate(131.703 131.966)"><path class="d" d="M7960.83-380.012c-4.091-.26-7.292-2.657-9.256-6.933a21.461,21.461,0,0,1-1.746-6.43l.272-.022a21.183,21.183,0,0,0,1.725,6.344c1.948,4.234,4.983,6.511,9.023,6.768Z" transform="translate(-7949.827 393.396)"/></g><g transform="translate(166.11 122.143)"><path class="d" d="M8138.9-426.577l-.029-.271c.142-.016,14.194-1.641,17.967-9.106,1.6-3.166,1.142-6.96-1.362-11.276l.235-.137c2.554,4.4,3.015,8.283,1.37,11.537C8153.238-428.234,8139.04-426.593,8138.9-426.577Z" transform="translate(-8138.868 447.368)"/></g><g transform="translate(187.274 125.162)"><path class="d" d="M8255.355-418.349l-.2-.182c4.909-5.462,1.686-12.057,1.652-12.123l.244-.122C8257.082-430.71,8260.392-423.952,8255.355-418.349Z" transform="translate(-8255.152 430.777)"/></g><g transform="translate(139.125 130.086)"><path class="d" d="M7992.986-395.9c-.267-3.2-2.359-7.665-2.38-7.71l.246-.117c.021.045,2.135,4.551,2.406,7.8Z" transform="translate(-7990.606 403.723)"/></g><g transform="translate(125.195 133.977)"><path class="d" d="M7916.975-378.3c-1.187-.537-2.839-3.788-2.909-3.926l.244-.123c.017.033,1.677,3.3,2.778,3.8Z" transform="translate(-7914.066 382.349)"/></g><g class="n" transform="translate(141.272 135.396)"><path class="o" d="M8002.4-374.091l29.322.911-1.051-1.37Z" transform="translate(-8002.403 374.55)"/></g><g transform="translate(122.084 121.326)"><path class="f" d="M7896.978-451.854" transform="translate(-7896.978 451.854)"/></g><g transform="translate(73.642 120.697)"><g transform="translate(0)"><path class="h" d="M7630.9-455.052a16.466,16.466,0,0,0,4.421,12.872c.24.254.623-.13.383-.383a15.94,15.94,0,0,1-4.262-12.489c.034-.347-.508-.344-.542,0Z" transform="translate(-7630.821 455.311)"/></g></g></g><g transform="translate(245.385 28.685)"><path class="u" d="M1583.11,750.918h0a1.013,1.013,0,0,1-.6,0h0A29.126,29.126,0,0,1,1562,723.1v-9a3.321,3.321,0,0,1,2.595-3.241l18.213-6.381,18.212,6.381a3.32,3.32,0,0,1,2.6,3.241v9A29.125,29.125,0,0,1,1583.11,750.918Z" transform="translate(-1565 -694.479)"/><g transform="translate(9.374 25.566)"><path class="f" d="M1584.473,738.927l-5.885-5.528,2.216-2.36,3.747,3.519,10.527-9.211,2.132,2.437Z" transform="translate(-1578.588 -725.346)"/></g></g></g></svg>