<svg xmlns="http://www.w3.org/2000/svg" width="135" height="135" viewBox="0 0 135 135"><defs><style>.a{fill:#63b2e9;}.b{fill:#fff;}.c{fill:#05be50;}.d{fill:#0033a1;}.e{fill:#081e5f;}</style></defs><g transform="translate(-1397.215 -2617.696)"><circle class="a" cx="67.5" cy="67.5" r="67.5" transform="translate(1397.215 2617.696)"/><path class="b" d="M1498.31,2716.527H1431.12v-45.276l33.595-25.484,33.595,25.484Z"/><rect class="c" width="22.427" height="33.097" rx="0.9" transform="translate(1453.503 2684.327)"/><path class="c" d="M1475.03,2685.227v31.3H1454.4v-31.3h20.627m0-1.8H1454.4a1.8,1.8,0,0,0-1.8,1.8v31.3a1.8,1.8,0,0,0,1.8,1.8h20.627a1.8,1.8,0,0,0,1.8-1.8v-31.3a1.8,1.8,0,0,0-1.8-1.8Z"/><path class="d" d="M1424.279,2678.215a1.038,1.038,0,0,1-.122-.008.9.9,0,0,1-.595-.348l-6.452-8.506a.9.9,0,0,1,.173-1.261l46.888-35.568a.9.9,0,0,1,1.088,0l46.888,35.568a.9.9,0,0,1,.173,1.261l-6.451,8.506a.9.9,0,0,1-.595.348,1.038,1.038,0,0,1-.122.008.9.9,0,0,1-.544-.183l-39.893-30.262-39.892,30.262A.9.9,0,0,1,1424.279,2678.215Z"/><path class="d" d="M1464.715,2633.241l46.888,35.569-6.451,8.5-40.437-30.674-40.436,30.674-6.452-8.5,46.888-35.569m0-1.8a1.8,1.8,0,0,0-1.088.366l-46.888,35.569a1.8,1.8,0,0,0-.346,2.522l6.452,8.505a1.8,1.8,0,0,0,2.522.346l39.348-29.849,39.348,29.849a1.8,1.8,0,0,0,1.089.366,1.809,1.809,0,0,0,1.434-.712l6.451-8.506a1.8,1.8,0,0,0-.346-2.521l-46.888-35.569a1.8,1.8,0,0,0-1.088-.366Z"/><path class="e" d="M1404.918,2716.527a67.516,67.516,0,0,0,119.595,0Z"/></g></svg>