<svg xmlns="http://www.w3.org/2000/svg" width="135" height="135" viewBox="0 0 135 135"><defs><style>.a{fill:#63b2e9;}.b{fill:#081e5f;}.c{fill:#fff;}.d{fill:#68b6f3;}.e{fill:#05be50;}.f{fill:#131a3f;}</style></defs><g transform="translate(-1181.153 -2617.696)"><circle class="a" cx="67.5" cy="67.5" r="67.5" transform="translate(1181.153 2617.696)"/><path class="b" d="M1188.856,2716.527a67.516,67.516,0,0,0,119.6,0Z"/><path class="c" d="M1290.059,2678.167l-10.247-16.229H1264.17v43.175h33.947v-23.431Z"/><path class="d" d="M1269.882,2666.217h7.7l7.239,11.971h-14.941Z"/><rect class="c" width="67.538" height="49.475" transform="translate(1199.189 2655.638)"/><rect class="e" width="67.538" height="5.382" transform="translate(1199.189 2691.273)"/><circle class="f" cx="11.15" cy="11.15" r="11.15" transform="translate(1270.808 2694.227)"/><circle class="c" cx="5.074" cy="5.074" r="5.074" transform="translate(1276.885 2700.303)"/><circle class="f" cx="11.15" cy="11.15" r="11.15" transform="translate(1204.757 2694.227)"/><circle class="c" cx="5.074" cy="5.074" r="5.074" transform="translate(1210.833 2700.303)"/><path class="e" d="M1228.874,2684.357a.6.6,0,0,1-.6-.6v-5.8h-5.8a.6.6,0,0,1-.6-.6v-8.166a.6.6,0,0,1,.6-.6h5.8v-5.8a.6.6,0,0,1,.6-.6h8.167a.6.6,0,0,1,.6.6v5.8h5.8a.6.6,0,0,1,.6.6v8.166a.6.6,0,0,1-.6.6h-5.8v5.8a.6.6,0,0,1-.6.6Z"/><path class="e" d="M1237.041,2662.784v6.4h6.4v8.166h-6.4v6.4h-8.167v-6.4h-6.4v-8.167h6.4v-6.4h8.167m0-1.2h-8.167a1.2,1.2,0,0,0-1.2,1.2v5.2h-5.2a1.2,1.2,0,0,0-1.2,1.2v8.167a1.2,1.2,0,0,0,1.2,1.2h5.2v5.2a1.2,1.2,0,0,0,1.2,1.2h8.167a1.2,1.2,0,0,0,1.2-1.2v-5.2h5.2a1.2,1.2,0,0,0,1.2-1.2v-8.166a1.2,1.2,0,0,0-1.2-1.2h-5.2v-5.2a1.2,1.2,0,0,0-1.2-1.2Z"/></g></svg>