<svg xmlns="http://www.w3.org/2000/svg" width="135" height="135" viewBox="0 0 135 135"><defs><style>.a{fill:#63b2e9;}.b{fill:#b7c5c8;}.c{fill:#0033a1;}.d{fill:#05be50;}.e{fill:#fff;}.f{fill:#131a3f;}.g{fill:#081e5f;}</style></defs><g transform="translate(-1565.397 -2617.696)"><circle class="a" cx="67.5" cy="67.5" r="67.5" transform="translate(1565.397 2617.696)"/><path class="b" d="M1617.177,2704.405a2.581,2.581,0,1,1-2.581-2.579A2.58,2.58,0,0,1,1617.177,2704.405Z"/><path class="c" d="M1601.7,2668.285h-10.32v-30.962h8.121l13.981,5.16h-16.942v20.642h5.16Z"/><path class="d" d="M1631.735,2678l-14.743-41.282a1.8,1.8,0,0,0-1.695-1.2h-15.8a1.8,1.8,0,0,0-1.695,2.406l14.742,41.282a1.8,1.8,0,0,0,1.7,1.194h15.8a1.8,1.8,0,0,0,1.695-2.405Z"/><path class="c" d="M1658.861,2658.867a12.829,12.829,0,0,0-10.94-6.063h-12.512v31.821l32.768-10.321Z"/><path class="e" d="M1679.442,2691.5v-14.914l-11.265-2.286h-53.409l20.641,32.68h20.813Z"/><rect class="c" width="23.221" height="15.48" transform="translate(1656.222 2691.505)"/><path class="e" d="M1635.409,2674.3h-44.033v17.2l23.22,15.48h20.813Z"/><rect class="c" width="23.221" height="15.48" transform="translate(1591.376 2691.505)"/><path class="f" d="M1627.5,2704.405a12.9,12.9,0,1,1-12.9-12.9A12.9,12.9,0,0,1,1627.5,2704.405Z"/><path class="e" d="M1622.337,2704.405a7.741,7.741,0,1,1-7.741-7.739A7.74,7.74,0,0,1,1622.337,2704.405Z"/><path class="f" d="M1669.122,2704.405a12.9,12.9,0,1,1-12.9-12.9A12.9,12.9,0,0,1,1669.122,2704.405Z"/><path class="e" d="M1663.962,2704.405a7.741,7.741,0,1,1-7.74-7.739A7.74,7.74,0,0,1,1663.962,2704.405Z"/><path class="f" d="M1658.8,2704.405a2.58,2.58,0,1,1-2.58-2.579A2.579,2.579,0,0,1,1658.8,2704.405Z"/><path class="f" d="M1617.177,2704.405a2.581,2.581,0,1,1-2.581-2.579A2.58,2.58,0,0,1,1617.177,2704.405Z"/><path class="g" d="M1573.1,2716.527a67.516,67.516,0,0,0,119.595,0Z"/></g></svg>