<svg xmlns="http://www.w3.org/2000/svg" width="135" height="135" viewBox="0 0 135 135"><defs><style>.a{fill:#63b2e9;}.b{fill:#fd9500;}.c{fill:#f8bf68;}.d{fill:#222a63;}.e{fill:#fff;}.f{fill:#2eb964;}</style></defs><g transform="translate(-1169.425 -2304)"><g transform="translate(-564.153 -313.696)"><path class="a" d="M1868.578,2685.2a67.5,67.5,0,1,1-67.5-67.5A67.5,67.5,0,0,1,1868.578,2685.2Z"/></g><path class="b" d="M1761.45,2665.678c-5.311,7.861-12.867,20.048-12.867,20.048s-5.685,8.229,3.89,14.512c11.622,7.627,19.9,12.119,24.686,5.536v-45.033S1768.931,2654.607,1761.45,2665.678Z" transform="translate(-564.153 -313.696)"/><path class="b" d="M1830.761,2665.678c5.311,7.861,12.866,20.048,12.866,20.048s5.685,8.229-3.89,14.512c-11.622,7.627-19.9,12.119-24.686,5.536v-45.033S1823.28,2654.607,1830.761,2665.678Z" transform="translate(-564.153 -313.696)"/><path class="b" d="M1805.661,2716.381s-4.182,5.257-6.625,5.638a6.5,6.5,0,0,1-2.252.254H1793.7a6.507,6.507,0,0,1-2.253-.254c-2.442-.381-6.624-5.638-6.624-5.638l10.812-3.721Z" transform="translate(-564.153 -313.696)"/><path class="c" d="M1800.2,2647.566s14.363-.3,21.993,12.717,2.095,24.836-.3,29.175-5.685,8.378-5.087,14.213-1.646,14.512-7.331,15.111c0,0-5.087,1.346-7.78-1.048s-3.889-1.795-4.637-1.795h-2.394c-.748,0-1.945-.6-4.638,1.795s-7.78,1.048-7.78,1.048c-5.685-.6-7.929-9.276-7.331-15.111s-2.693-9.875-5.087-14.213-7.929-16.158-.3-29.175,21.993-12.717,21.993-12.717Z" transform="translate(-564.153 -313.696)"/><path class="d" d="M1780.3,2680.564a3.516,3.516,0,1,1-3.516-3.516A3.516,3.516,0,0,1,1780.3,2680.564Z" transform="translate(-564.153 -313.696)"/><path class="d" d="M1808.647,2680.564a3.516,3.516,0,1,0,3.516-3.516A3.516,3.516,0,0,0,1808.647,2680.564Z" transform="translate(-564.153 -313.696)"/><path class="d" d="M1795.664,2711.75c4.339,0,7.63-4.339,7.181-7.182s-8.079-2.992-8.079-2.992h.646s-7.63.15-8.079,2.992,2.842,7.182,7.181,7.182Z" transform="translate(-564.153 -313.696)"/><g transform="translate(-564.153 -313.696)"><circle class="e" cx="18.145" cy="18.145" r="18.145" transform="translate(1808.647 2698.248)"/><path class="f" d="M1822.994,2726.44a.294.294,0,0,1-.294-.295v-5.66h-5.661a.294.294,0,0,1-.294-.3v-7.595a.294.294,0,0,1,.086-.208.291.291,0,0,1,.208-.087h5.661v-5.661a.294.294,0,0,1,.294-.295h7.6a.3.3,0,0,1,.294.295v5.661h5.661a.294.294,0,0,1,.294.294v7.595a.294.294,0,0,1-.294.3h-5.661v5.66a.3.3,0,0,1-.294.295Z"/><path class="f" d="M1830.59,2706.64v5.955h5.955v7.595h-5.955v5.955h-7.6v-5.955h-5.955v-7.595h5.955v-5.955h7.6m0-.589h-7.6a.589.589,0,0,0-.589.589v5.366h-5.366a.589.589,0,0,0-.589.589v7.595a.588.588,0,0,0,.589.589h5.366v5.366a.59.59,0,0,0,.589.59h7.6a.59.59,0,0,0,.589-.59v-5.366h5.366a.589.589,0,0,0,.589-.589v-7.595a.589.589,0,0,0-.589-.589h-5.366v-5.366a.589.589,0,0,0-.589-.589Z"/></g></g></svg>