<svg xmlns="http://www.w3.org/2000/svg" xmlns:xlink="http://www.w3.org/1999/xlink" width="1090.793" height="600.256" viewBox="0 0 1090.793 600.256"><defs><style>.a,.p,.r,.s,.t,.w,.x,.y{fill:none;}.b{fill:#00bb31;}.c{fill:#0033a1;}.d{fill:#fff;}.e{clip-path:url(#a);}.f{opacity:0.301;}.g{fill:#0f995c;}.h{fill:#087861;}.i{fill:#8fe8b0;}.j{fill:#57cc82;}.k{fill:#f4f0de;}.l{fill:#fabf66;}.m{fill:#a2d0f1;}.n{fill:#fc0;}.o{fill:#05be50;}.p{stroke:#001f5e;}.p,.s,.t,.w,.x,.y{stroke-linecap:round;}.p,.r,.s,.t,.w,.x,.y{stroke-miterlimit:10;}.p,.s,.x,.y{stroke-width:1.62px;}.q{fill:#001f5e;}.r{stroke:#64b1e7;stroke-width:1.608px;}.s{stroke:#121a40;}.t{stroke:#fff;stroke-width:1.215px;}.u{fill:#ea0944;}.v{fill:#2eba63;}.w,.x{stroke:#262e61;}.w{stroke-width:1.736px;}.y{stroke:#212963;}.z{fill:#3bc773;}.aa{fill:#38c770;}</style><clipPath id="a"><rect class="a" width="624.789" height="590.575" transform="translate(329.296)"/></clipPath></defs><g transform="translate(-733.796 -143)"><path class="b" d="M40,0H628.589a0,0,0,0,1,0,0V524a40,40,0,0,1-40,40H0a0,0,0,0,1,0,0V40A40,40,0,0,1,40,0Z" transform="translate(1196 143)"/><path class="c" d="M7.88,0H3.48V-28H15.52a9.634,9.634,0,0,1,6.84,2.28,7.37,7.37,0,0,1,2.52,5.84,7.862,7.862,0,0,1-2.52,6,9.531,9.531,0,0,1-6.84,2.32H7.88Zm0-23.96v8.36h7.28a6.133,6.133,0,0,0,3.88-1.1,3.716,3.716,0,0,0,1.4-3.1,3.682,3.682,0,0,0-1.38-3.08,6.2,6.2,0,0,0-3.9-1.08ZM37.76-3.28a6.256,6.256,0,0,0,4.6-1.88A6.34,6.34,0,0,0,44.2-9.84a6.29,6.29,0,0,0-1.84-4.64,6.256,6.256,0,0,0-4.6-1.88,6.3,6.3,0,0,0-4.64,1.88,6.29,6.29,0,0,0-1.84,4.64,6.34,6.34,0,0,0,1.84,4.68A6.3,6.3,0,0,0,37.76-3.28Zm0,3.8a10.585,10.585,0,0,1-7.76-3,9.94,9.94,0,0,1-3.04-7.36A9.893,9.893,0,0,1,30-17.16a10.585,10.585,0,0,1,7.76-3,10.62,10.62,0,0,1,7.72,3,9.893,9.893,0,0,1,3.04,7.32,10.025,10.025,0,0,1-3.04,7.36A10.62,10.62,0,0,1,37.76.52ZM57.6,0H53.28V-19.64H57.6v3.4a7.589,7.589,0,0,1,3-2.82,8.668,8.668,0,0,1,4.24-1.1,1.4,1.4,0,0,1,.4.04v4.32a11.216,11.216,0,0,0-1.2-.08,7.22,7.22,0,0,0-3.96,1.12,6.327,6.327,0,0,0-2.48,2.72ZM84.48.52a5,5,0,0,1-3.6-1.26,5.166,5.166,0,0,1-1.32-3.9V-28h4.32V-5.84q0,2.4,2.16,2.4a3.18,3.18,0,0,0,1.64-.4V-.12A6.969,6.969,0,0,1,84.48.52Zm25.76-3.88a2.407,2.407,0,0,0,1.16-.28V-.36a4.238,4.238,0,0,1-2.52.64q-3.36,0-4.12-2.8A9.163,9.163,0,0,1,97.52.52a7.989,7.989,0,0,1-5.28-1.76,5.93,5.93,0,0,1-2.08-4.84,5.6,5.6,0,0,1,2.28-4.8,8.924,8.924,0,0,1,5.6-1.72,12.657,12.657,0,0,1,6.28,1.52v-1.08q0-4.28-5.76-4.28a11.547,11.547,0,0,0-6.2,1.76v-3.8a14.152,14.152,0,0,1,7.16-1.68,10.256,10.256,0,0,1,6.62,1.98,6.712,6.712,0,0,1,2.46,5.54v7.32a2.1,2.1,0,0,0,.46,1.44A1.5,1.5,0,0,0,110.24-3.36Zm-5.92-2.2v-2.4a10.5,10.5,0,0,0-5.24-1.4,6.123,6.123,0,0,0-3.38.8,2.534,2.534,0,0,0-1.22,2.24A2.658,2.658,0,0,0,95.62-4a5.312,5.312,0,0,0,3.1.8,7.76,7.76,0,0,0,3.12-.66A7.241,7.241,0,0,0,104.32-5.56ZM135.28.52a10.523,10.523,0,0,1-7.52-2.92,9.934,9.934,0,0,1-3.08-7.48,9.678,9.678,0,0,1,3.08-7.4,10.745,10.745,0,0,1,7.56-2.88,12.431,12.431,0,0,1,5.92,1.36v3.72a12.185,12.185,0,0,0-5.28-1.28A7.05,7.05,0,0,0,131-14.52a6.16,6.16,0,0,0-2,4.68,6.206,6.206,0,0,0,2,4.72,7.05,7.05,0,0,0,4.96,1.84,10.582,10.582,0,0,0,5.6-1.48v3.68A12.43,12.43,0,0,1,135.28.52Zm20.6-3.8a6.256,6.256,0,0,0,4.6-1.88,6.34,6.34,0,0,0,1.84-4.68,6.29,6.29,0,0,0-1.84-4.64,6.256,6.256,0,0,0-4.6-1.88,6.3,6.3,0,0,0-4.64,1.88,6.29,6.29,0,0,0-1.84,4.64,6.34,6.34,0,0,0,1.84,4.68A6.3,6.3,0,0,0,155.88-3.28Zm0,3.8a10.585,10.585,0,0,1-7.76-3,9.94,9.94,0,0,1-3.04-7.36,9.893,9.893,0,0,1,3.04-7.32,10.585,10.585,0,0,1,7.76-3,10.62,10.62,0,0,1,7.72,3,9.893,9.893,0,0,1,3.04,7.32,10.025,10.025,0,0,1-3.04,7.36A10.62,10.62,0,0,1,155.88.52ZM175.72,0H171.4V-19.64h4.32v2.56a7.518,7.518,0,0,1,6.48-3.08,7.627,7.627,0,0,1,3.92.96,5.155,5.155,0,0,1,2.28,2.56,7.69,7.69,0,0,1,2.98-2.56,9.135,9.135,0,0,1,4.18-.96,6.543,6.543,0,0,1,5.12,2.04,8.429,8.429,0,0,1,1.84,5.84V0H198.2V-11.28q0-4.84-4-4.84a5.316,5.316,0,0,0-2.98.94,5.571,5.571,0,0,0-2.06,2.34V0h-4.32V-11.28q0-4.84-4.04-4.84a5.419,5.419,0,0,0-2.94.9,5.974,5.974,0,0,0-2.14,2.26ZM219.6-20.16a8.764,8.764,0,0,1,6.84,3,10.557,10.557,0,0,1,2.68,7.36,10.5,10.5,0,0,1-2.68,7.32,8.764,8.764,0,0,1-6.84,3,8.343,8.343,0,0,1-7-3.2V8h-4.32V-19.64h4.32v2.68A8.343,8.343,0,0,1,219.6-20.16Zm-1.16,3.8a6.338,6.338,0,0,0-3.44.98,6.739,6.739,0,0,0-2.4,2.54v6.08a6.783,6.783,0,0,0,2.42,2.5,6.37,6.37,0,0,0,3.42.98,6,6,0,0,0,4.52-1.88,6.54,6.54,0,0,0,1.8-4.64,6.451,6.451,0,0,0-1.8-4.64A5.935,5.935,0,0,0,218.44-16.36ZM238.2,0h-4.32V-19.64h4.32v3.4a7.589,7.589,0,0,1,3-2.82,8.668,8.668,0,0,1,4.24-1.1,1.4,1.4,0,0,1,.4.04v4.32a11.215,11.215,0,0,0-1.2-.08,7.22,7.22,0,0,0-3.96,1.12,6.327,6.327,0,0,0-2.48,2.72Zm30-3.36a2.407,2.407,0,0,0,1.16-.28V-.36a4.238,4.238,0,0,1-2.52.64q-3.36,0-4.12-2.8A9.163,9.163,0,0,1,255.48.52a7.989,7.989,0,0,1-5.28-1.76,5.93,5.93,0,0,1-2.08-4.84,5.6,5.6,0,0,1,2.28-4.8A8.924,8.924,0,0,1,256-12.6a12.657,12.657,0,0,1,6.28,1.52v-1.08q0-4.28-5.76-4.28a11.547,11.547,0,0,0-6.2,1.76v-3.8a14.152,14.152,0,0,1,7.16-1.68,10.256,10.256,0,0,1,6.62,1.98,6.712,6.712,0,0,1,2.46,5.54v7.32a2.1,2.1,0,0,0,.46,1.44A1.5,1.5,0,0,0,268.2-3.36Zm-5.92-2.2v-2.4a10.5,10.5,0,0,0-5.24-1.4,6.123,6.123,0,0,0-3.38.8,2.534,2.534,0,0,0-1.22,2.24A2.658,2.658,0,0,0,253.58-4a5.312,5.312,0,0,0,3.1.8,7.76,7.76,0,0,0,3.12-.66A7.241,7.241,0,0,0,262.28-5.56ZM292.16.52a8.764,8.764,0,0,1-6.84-3,10.557,10.557,0,0,1-2.68-7.36,10.5,10.5,0,0,1,2.68-7.32,8.764,8.764,0,0,1,6.84-3,8.343,8.343,0,0,1,7,3.2V-28h4.32V0h-4.32V-2.68A8.343,8.343,0,0,1,292.16.52Zm1.16-3.8a6.338,6.338,0,0,0,3.44-.98,6.739,6.739,0,0,0,2.4-2.54v-6.08a6.784,6.784,0,0,0-2.42-2.5,6.369,6.369,0,0,0-3.42-.98,5.935,5.935,0,0,0-4.52,1.92,6.4,6.4,0,0,0-1.8,4.6,6.591,6.591,0,0,0,1.8,4.68A6,6,0,0,0,293.32-3.28Zm14.92-6.56a10.208,10.208,0,0,1,2.8-7.36,9.646,9.646,0,0,1,7.28-2.96,8.318,8.318,0,0,1,5.16,1.6q4.16,2.96,4.16,8.88v1.12H312.6a5.658,5.658,0,0,0,2.38,3.88A8.488,8.488,0,0,0,320-3.28a12.162,12.162,0,0,0,6.32-1.76V-1.4A12.315,12.315,0,0,1,319.08.52a11.136,11.136,0,0,1-7.72-2.88A9.711,9.711,0,0,1,308.24-9.84Zm4.4-2h10.64a4.908,4.908,0,0,0-1.4-3.24,4.922,4.922,0,0,0-3.76-1.44,5.462,5.462,0,0,0-3.78,1.34A5,5,0,0,0,312.64-11.84Zm32.32,6.48V-15.84h-4.2v-3.8h4.2v-5.72h4.32v5.72h6.2v3.8h-6.2V-6.6a3.28,3.28,0,0,0,.76,2.4,3.157,3.157,0,0,0,2.32.76,6.384,6.384,0,0,0,2.96-.72V-.44a7.824,7.824,0,0,1-4.36.96A6.129,6.129,0,0,1,346.56-1,5.728,5.728,0,0,1,344.96-5.36Zm29.52-1.36V-19.64h4.32V0h-4.32V-2.6a9.391,9.391,0,0,1-7.2,3.12,6.786,6.786,0,0,1-5.38-2.16,8.779,8.779,0,0,1-1.9-6v-12h4.32V-8.6q0,5.08,4.6,5.08a6.262,6.262,0,0,0,3.16-.9A6.534,6.534,0,0,0,374.48-6.72ZM17.24,52.16H13.08L1.04,24H5.92L15.2,46.08,24.48,24h4.76ZM37.52,52H33.2V32.36h4.32ZM35.36,28.84a2.665,2.665,0,0,1-2.72-2.72,2.7,2.7,0,0,1,.78-1.96,2.6,2.6,0,0,1,1.94-.8,2.553,2.553,0,0,1,1.9.8,2.7,2.7,0,0,1,.78,1.96,2.634,2.634,0,0,1-.78,1.94A2.586,2.586,0,0,1,35.36,28.84Zm16.8,23.68a8.764,8.764,0,0,1-6.84-3,10.557,10.557,0,0,1-2.68-7.36,10.5,10.5,0,0,1,2.68-7.32,8.764,8.764,0,0,1,6.84-3,8.343,8.343,0,0,1,7,3.2V24h4.32V52H59.16V49.32A8.343,8.343,0,0,1,52.16,52.52Zm1.16-3.8a6.338,6.338,0,0,0,3.44-.98,6.739,6.739,0,0,0,2.4-2.54V39.12a6.783,6.783,0,0,0-2.42-2.5,6.37,6.37,0,0,0-3.42-.98,5.935,5.935,0,0,0-4.52,1.92,6.4,6.4,0,0,0-1.8,4.6,6.591,6.591,0,0,0,1.8,4.68A6,6,0,0,0,53.32,48.72Zm34.76-.08a2.407,2.407,0,0,0,1.16-.28v3.28a4.238,4.238,0,0,1-2.52.64q-3.36,0-4.12-2.8a9.163,9.163,0,0,1-7.24,3.04,7.989,7.989,0,0,1-5.28-1.76A5.93,5.93,0,0,1,68,45.92a5.6,5.6,0,0,1,2.28-4.8,8.924,8.924,0,0,1,5.6-1.72,12.657,12.657,0,0,1,6.28,1.52V39.84q0-4.28-5.76-4.28a11.547,11.547,0,0,0-6.2,1.76v-3.8a14.153,14.153,0,0,1,7.16-1.68,10.256,10.256,0,0,1,6.62,1.98,6.712,6.712,0,0,1,2.46,5.54v7.32a2.1,2.1,0,0,0,.46,1.44A1.5,1.5,0,0,0,88.08,48.64Zm-5.92-2.2v-2.4a10.5,10.5,0,0,0-5.24-1.4,6.123,6.123,0,0,0-3.38.8,2.534,2.534,0,0,0-1.22,2.24A2.658,2.658,0,0,0,73.46,48a5.312,5.312,0,0,0,3.1.8,7.76,7.76,0,0,0,3.12-.66A7.241,7.241,0,0,0,82.16,46.44ZM114.2,52h-9.88V24h9.88a15.652,15.652,0,0,1,11,3.92A13.051,13.051,0,0,1,129.48,38a13.1,13.1,0,0,1-4.28,10.12A15.658,15.658,0,0,1,114.2,52Zm-5.48-23.96V47.96h5.08q5.28,0,8.2-2.68A9.408,9.408,0,0,0,124.96,38,9.408,9.408,0,0,0,122,30.72q-2.92-2.68-8.2-2.68Zm24.92,14.12a10.208,10.208,0,0,1,2.8-7.36,9.646,9.646,0,0,1,7.28-2.96,8.318,8.318,0,0,1,5.16,1.6q4.16,2.96,4.16,8.88v1.12H138a5.658,5.658,0,0,0,2.38,3.88,8.488,8.488,0,0,0,5.02,1.4,12.162,12.162,0,0,0,6.32-1.76V50.6a12.315,12.315,0,0,1-7.24,1.92,11.136,11.136,0,0,1-7.72-2.88A9.711,9.711,0,0,1,133.64,42.16Zm4.4-2h10.64a4.869,4.869,0,0,0-5.16-4.68,5.462,5.462,0,0,0-3.78,1.34A5,5,0,0,0,138.04,40.16Zm30.32,12h-3.92l-8.8-19.8h4.76l6.12,14.2,6.04-14.2h4.6Zm21.72-3.44a6.256,6.256,0,0,0,4.6-1.88,6.821,6.821,0,0,0,0-9.32,6.461,6.461,0,0,0-11.08,4.64,6.358,6.358,0,0,0,6.48,6.56Zm0,3.8a10.585,10.585,0,0,1-7.76-3,10.381,10.381,0,0,1,0-14.68,11.485,11.485,0,0,1,15.48,0,9.893,9.893,0,0,1,3.04,7.32,10.025,10.025,0,0,1-3.04,7.36A10.62,10.62,0,0,1,190.08,52.52Zm20.44,0a5,5,0,0,1-3.6-1.26,5.166,5.166,0,0,1-1.32-3.9V24h4.32V46.16q0,2.4,2.16,2.4a3.18,3.18,0,0,0,1.64-.4v3.72A6.969,6.969,0,0,1,210.52,52.52Zm21.44-7.24V32.36h4.32V52h-4.32V49.4a9.391,9.391,0,0,1-7.2,3.12,6.786,6.786,0,0,1-5.38-2.16,8.779,8.779,0,0,1-1.9-6v-12h4.32V43.4q0,5.08,4.6,5.08a6.262,6.262,0,0,0,3.16-.9A6.534,6.534,0,0,0,231.96,45.28Zm19.68,7.24a10.523,10.523,0,0,1-7.52-2.92,9.934,9.934,0,0,1-3.08-7.48,9.678,9.678,0,0,1,3.08-7.4,10.745,10.745,0,0,1,7.56-2.88,12.431,12.431,0,0,1,5.92,1.36v3.72a12.185,12.185,0,0,0-5.28-1.28,7.05,7.05,0,0,0-4.96,1.84,6.522,6.522,0,0,0,0,9.4,7.05,7.05,0,0,0,4.96,1.84,10.583,10.583,0,0,0,5.6-1.48v3.68A12.43,12.43,0,0,1,251.64,52.52ZM267.92,52H263.6V32.36h4.32Zm-2.16-23.16a2.665,2.665,0,0,1-2.72-2.72,2.7,2.7,0,0,1,.78-1.96,2.6,2.6,0,0,1,1.94-.8,2.553,2.553,0,0,1,1.9.8,2.7,2.7,0,0,1,.78,1.96,2.634,2.634,0,0,1-.78,1.94A2.586,2.586,0,0,1,265.76,28.84Zm18.08,19.88a6.256,6.256,0,0,0,4.6-1.88,6.821,6.821,0,0,0,0-9.32,6.461,6.461,0,0,0-11.08,4.64,6.358,6.358,0,0,0,6.48,6.56Zm0,3.8a10.585,10.585,0,0,1-7.76-3,10.381,10.381,0,0,1,0-14.68,11.485,11.485,0,0,1,15.48,0,9.893,9.893,0,0,1,3.04,7.32,10.025,10.025,0,0,1-3.04,7.36A10.62,10.62,0,0,1,283.84,52.52ZM285.4,29h-3.92l3.8-5.6h5.4Zm18.28,10.08V52h-4.32V32.36h4.32v2.6a9.391,9.391,0,0,1,7.2-3.12A6.786,6.786,0,0,1,316.26,34a8.779,8.779,0,0,1,1.9,6V52h-4.32V40.96q0-5.08-4.6-5.08a6.262,6.262,0,0,0-3.16.9A6.534,6.534,0,0,0,303.68,39.08Z" transform="translate(1298 551)"/><g transform="translate(-1275.214 -785.962)"><g transform="translate(2573.214 991.425)"><path class="d" d="M2573.219,1124.5l0-39.546,1.949-.42c8.653-1.861,12.861-6.758,12.867-14.968a9.708,9.708,0,0,0-3.356-7.8,10.715,10.715,0,0,0-8.522-2.175l-2.936.566.006-26.946a14.788,14.788,0,0,1,11.086-14.307L2731.2,991.425l0,2.971s.027,26.777.009,32.663l0,1.893-1.829.486c-6.408,1.7-12.959,4.815-12.959,15,0,4.515,1.987,7,3.655,8.3a9.537,9.537,0,0,0,8.058,1.7l3.082-.791-.01,30.054a13.539,13.539,0,0,1-11.037,13.288Zm4.932-35.623,0,29.678,141.1-26.416a8.6,8.6,0,0,0,7.011-8.437l.008-24.048a14.394,14.394,0,0,1-9.228-3.017,14.981,14.981,0,0,1-5.565-12.2c0-13.49,9.663-17.694,14.8-19.257.007-6.417-.005-21.418-.01-27.809l-140.884,26.348a9.813,9.813,0,0,0-7.222,9.491l0,21.274a15.662,15.662,0,0,1,9.666,3.474,14.414,14.414,0,0,1,5.148,11.612C2592.959,1079.511,2587.849,1086.151,2578.151,1088.875Z" transform="translate(-2573.214 -991.425)"/><path class="d" d="M2643.775,1087.448a34.559,34.559,0,1,1,34.559-34.559A34.6,34.6,0,0,1,2643.775,1087.448Zm0-64.181a29.622,29.622,0,1,0,29.622,29.622A29.654,29.654,0,0,0,2643.775,1023.267Z" transform="translate(-2564.781 -985.123)"/><path class="d" d="M2639.041,1048.827a14.956,14.956,0,0,0-5.312-2.231c-.286-.062-.826-.167-1.614-.315s-1.307-.254-1.552-.32l-1.059-.264q-.966-.307-1.022-.95-.127-1.477,2.832-1.734a13.91,13.91,0,0,1,4.044.3,16.046,16.046,0,0,1,3.835,1.223l.048-5.563a18.794,18.794,0,0,0-8.444-1.2,10.655,10.655,0,0,0-6.329,2.327,5.889,5.889,0,0,0-1.933,5.19,7.074,7.074,0,0,0,1.088,3.244,8.6,8.6,0,0,0,2.364,1.87,8.136,8.136,0,0,0,1.542.58l1.529.452,1.682.341,2.079.437a6.942,6.942,0,0,1,1.5.454,1.678,1.678,0,0,1,.981,1.243q.153,1.77-3.288,2.066a13.283,13.283,0,0,1-4.709-.5,9.124,9.124,0,0,1-3.583-1.53l.006,5.618a15.2,15.2,0,0,0,8.963,1.637,10.594,10.594,0,0,0,6.457-2.533,6.377,6.377,0,0,0,2.119-5.5A5.642,5.642,0,0,0,2639.041,1048.827Z" transform="translate(-2561.668 -980.583)"/><path class="d" d="M2638.7,1063.818l5.743-1.058,10.586-30.013h-5.209Z" transform="translate(-2557.875 -981.746)"/></g></g><path class="d" d="M6.36-28.68a4.1,4.1,0,0,1,3-1.26,3.9,3.9,0,0,1,2.94,1.26,3.9,3.9,0,0,1,1.26,2.94,4.1,4.1,0,0,1-1.26,3,3.9,3.9,0,0,1-2.94,1.26,4.1,4.1,0,0,1-3-1.26,4.2,4.2,0,0,1-1.2-3A4,4,0,0,1,6.36-28.68ZM6.42-16.2h5.82L13.56,12H5.04ZM44.16.78a21.514,21.514,0,0,1-15.6-6.12A21.239,21.239,0,0,1,22.32-21a20.812,20.812,0,0,1,6.3-15.6A21.5,21.5,0,0,1,44.4-42.78a22.466,22.466,0,0,1,12.96,3.6v6.54A21.684,21.684,0,0,0,44.82-36.6a15.267,15.267,0,0,0-11.28,4.38A15.282,15.282,0,0,0,29.1-20.94,15.256,15.256,0,0,0,33.42-9.66,14.948,14.948,0,0,0,44.16-5.4q6.42,0,10.14-3.54v-15.3h6.6v18a19.134,19.134,0,0,1-7.11,5.07A23.818,23.818,0,0,1,44.16.78ZM97.92-5.04a3.611,3.611,0,0,0,1.74-.42V-.54a6.357,6.357,0,0,1-3.78.96q-5.04,0-6.18-4.2A13.745,13.745,0,0,1,78.84.78a11.983,11.983,0,0,1-7.92-2.64A8.9,8.9,0,0,1,67.8-9.12a8.406,8.406,0,0,1,3.42-7.2,13.387,13.387,0,0,1,8.4-2.58,18.985,18.985,0,0,1,9.42,2.28v-1.62q0-6.42-8.64-6.42a17.32,17.32,0,0,0-9.3,2.64v-5.7a21.229,21.229,0,0,1,10.74-2.52q6.24,0,9.93,2.97a10.067,10.067,0,0,1,3.69,8.31V-7.98a3.148,3.148,0,0,0,.69,2.16A2.256,2.256,0,0,0,97.92-5.04Zm-8.88-6.9a15.751,15.751,0,0,0-7.86-2.1,9.184,9.184,0,0,0-5.07,1.2,3.8,3.8,0,0,0-1.83,3.36A3.987,3.987,0,0,0,75.99-6a7.967,7.967,0,0,0,4.65,1.2,11.64,11.64,0,0,0,4.68-.99,10.862,10.862,0,0,0,3.72-2.55ZM83.76-34.5H77.88l5.7-8.4h8.1Zm28.8,15.12V0h-6.48V-29.46h6.48v3.9a14.087,14.087,0,0,1,10.8-4.68q5.22,0,8.07,3.24t2.85,9V0H127.8V-16.56q0-7.62-6.9-7.62a9.393,9.393,0,0,0-4.74,1.35A9.8,9.8,0,0,0,112.56-19.38ZM170.58-5.04a3.611,3.611,0,0,0,1.74-.42V-.54a6.357,6.357,0,0,1-3.78.96q-5.04,0-6.18-4.2A13.745,13.745,0,0,1,151.5.78a11.983,11.983,0,0,1-7.92-2.64,8.9,8.9,0,0,1-3.12-7.26,8.406,8.406,0,0,1,3.42-7.2,13.387,13.387,0,0,1,8.4-2.58,18.985,18.985,0,0,1,9.42,2.28v-1.62q0-6.42-8.64-6.42a17.32,17.32,0,0,0-9.3,2.64v-5.7a21.229,21.229,0,0,1,10.74-2.52q6.24,0,9.93,2.97a10.067,10.067,0,0,1,3.69,8.31V-7.98a3.148,3.148,0,0,0,.69,2.16A2.256,2.256,0,0,0,170.58-5.04Zm-8.88-3.3v-3.6a15.751,15.751,0,0,0-7.86-2.1,9.184,9.184,0,0,0-5.07,1.2,3.8,3.8,0,0,0-1.83,3.36A3.987,3.987,0,0,0,148.65-6a7.967,7.967,0,0,0,4.65,1.2,11.641,11.641,0,0,0,4.68-.99A10.862,10.862,0,0,0,161.7-8.34Zm19.5.3V-23.76h-6.3v-5.7h6.3v-8.58h6.48v8.58h9.3v5.7h-9.3V-9.9a4.921,4.921,0,0,0,1.14,3.6,4.735,4.735,0,0,0,3.48,1.14,9.577,9.577,0,0,0,4.44-1.08V-.66Q194.64.78,190.2.78a9.193,9.193,0,0,1-6.6-2.28A8.593,8.593,0,0,1,181.2-8.04Zm20.4-6.72a15.311,15.311,0,0,1,4.2-11.04,14.469,14.469,0,0,1,10.92-4.44,12.478,12.478,0,0,1,7.74,2.4q6.24,4.44,6.24,13.32v1.68H208.14a8.487,8.487,0,0,0,3.57,5.82,12.733,12.733,0,0,0,7.53,2.1,18.243,18.243,0,0,0,9.48-2.64V-2.1Q224.64.78,217.86.78a16.7,16.7,0,0,1-11.58-4.32A14.567,14.567,0,0,1,201.6-14.76Zm6.6-3h15.96a7.362,7.362,0,0,0-2.1-4.86,7.384,7.384,0,0,0-5.64-2.16,8.194,8.194,0,0,0-5.67,2.01A7.5,7.5,0,0,0,208.2-17.76Zm66.6,7.68V-29.46h6.48V0H274.8V-3.9A14.087,14.087,0,0,1,264,.78q-5.22,0-8.07-3.24t-2.85-9v-18h6.48V-12.9q0,7.62,6.9,7.62a9.393,9.393,0,0,0,4.74-1.35A9.8,9.8,0,0,0,274.8-10.08Zm22.2-9.3V0h-6.48V-29.46H297v3.9a14.087,14.087,0,0,1,10.8-4.68q5.22,0,8.07,3.24t2.85,9V0h-6.48V-16.56q0-7.62-6.9-7.62a9.393,9.393,0,0,0-4.74,1.35A9.8,9.8,0,0,0,297-19.38ZM358.62.24h-5.88l-13.2-29.7h7.14l9.18,21.3,9.06-21.3h6.9Zm46.14-5.28a3.611,3.611,0,0,0,1.74-.42V-.54a6.357,6.357,0,0,1-3.78.96q-5.04,0-6.18-4.2A13.745,13.745,0,0,1,385.68.78a11.983,11.983,0,0,1-7.92-2.64,8.9,8.9,0,0,1-3.12-7.26,8.406,8.406,0,0,1,3.42-7.2,13.387,13.387,0,0,1,8.4-2.58,18.985,18.985,0,0,1,9.42,2.28v-1.62q0-6.42-8.64-6.42a17.32,17.32,0,0,0-9.3,2.64v-5.7a21.229,21.229,0,0,1,10.74-2.52q6.24,0,9.93,2.97a10.067,10.067,0,0,1,3.69,8.31V-7.98a3.148,3.148,0,0,0,.69,2.16A2.256,2.256,0,0,0,404.76-5.04Zm-8.88-3.3v-3.6a15.751,15.751,0,0,0-7.86-2.1,9.184,9.184,0,0,0-5.07,1.2,3.8,3.8,0,0,0-1.83,3.36A3.987,3.987,0,0,0,382.83-6a7.967,7.967,0,0,0,4.65,1.2,11.64,11.64,0,0,0,4.68-.99A10.862,10.862,0,0,0,395.88-8.34ZM420.3.78a7.5,7.5,0,0,1-5.4-1.89Q412.92-3,412.92-6.96V-42h6.48V-8.76q0,3.6,3.24,3.6a4.77,4.77,0,0,0,2.46-.6V-.18A10.454,10.454,0,0,1,420.3.78Zm8.88-15.54a15.311,15.311,0,0,1,4.2-11.04,14.469,14.469,0,0,1,10.92-4.44,12.478,12.478,0,0,1,7.74,2.4q6.24,4.44,6.24,13.32v1.68H435.72a8.487,8.487,0,0,0,3.57,5.82,12.733,12.733,0,0,0,7.53,2.1,18.243,18.243,0,0,0,9.48-2.64V-2.1Q452.22.78,445.44.78a16.7,16.7,0,0,1-11.58-4.32A14.566,14.566,0,0,1,429.18-14.76Zm6.6-3h15.96a7.362,7.362,0,0,0-2.1-4.86A7.384,7.384,0,0,0,444-24.78a8.194,8.194,0,0,0-5.67,2.01A7.5,7.5,0,0,0,435.78-17.76Zm-415.5,88H14.4L1.2,40.54H8.34l9.18,21.3,9.06-21.3h6.9ZM46.38,70H39.9V40.54h6.48ZM43.14,35.26a4,4,0,0,1-4.08-4.08,4.051,4.051,0,0,1,1.17-2.94,3.9,3.9,0,0,1,2.91-1.2,3.83,3.83,0,0,1,2.85,1.2,4.051,4.051,0,0,1,1.17,2.94,3.95,3.95,0,0,1-1.17,2.91A3.879,3.879,0,0,1,43.14,35.26ZM62.64,70H56.16V40.54h6.48v5.1a11.384,11.384,0,0,1,4.5-4.23,13,13,0,0,1,6.36-1.65,2.105,2.105,0,0,1,.6.06V46.3a16.824,16.824,0,0,0-1.8-.12,10.83,10.83,0,0,0-5.94,1.68,9.491,9.491,0,0,0-3.72,4.08Zm22.2-8.04V46.24h-6.3v-5.7h6.3V31.96h6.48v8.58h9.3v5.7h-9.3V60.1a4.921,4.921,0,0,0,1.14,3.6,4.735,4.735,0,0,0,3.48,1.14,9.577,9.577,0,0,0,4.44-1.08v5.58q-2.1,1.44-6.54,1.44a9.193,9.193,0,0,1-6.6-2.28A8.593,8.593,0,0,1,84.84,61.96Zm44.28-2.04V40.54h6.48V70h-6.48V66.1a14.087,14.087,0,0,1-10.8,4.68q-5.22,0-8.07-3.24t-2.85-9v-18h6.48V57.1q0,7.62,6.9,7.62a9.393,9.393,0,0,0,4.74-1.35A9.8,9.8,0,0,0,129.12,59.92Zm43.38,5.04a3.611,3.611,0,0,0,1.74-.42v4.92a6.357,6.357,0,0,1-3.78.96q-5.04,0-6.18-4.2a13.745,13.745,0,0,1-10.86,4.56,11.983,11.983,0,0,1-7.92-2.64,8.9,8.9,0,0,1-3.12-7.26,8.406,8.406,0,0,1,3.42-7.2,13.387,13.387,0,0,1,8.4-2.58,18.985,18.985,0,0,1,9.42,2.28V51.76q0-6.42-8.64-6.42a17.32,17.32,0,0,0-9.3,2.64v-5.7a21.229,21.229,0,0,1,10.74-2.52q6.24,0,9.93,2.97a10.067,10.067,0,0,1,3.69,8.31V62.02a3.148,3.148,0,0,0,.69,2.16A2.256,2.256,0,0,0,172.5,64.96Zm-8.88-3.3v-3.6a15.751,15.751,0,0,0-7.86-2.1,9.184,9.184,0,0,0-5.07,1.2,3.8,3.8,0,0,0-1.83,3.36A3.987,3.987,0,0,0,150.57,64a7.967,7.967,0,0,0,4.65,1.2,11.641,11.641,0,0,0,4.68-.99A10.862,10.862,0,0,0,163.62,61.66Zm24.42,9.12a7.5,7.5,0,0,1-5.4-1.89q-1.98-1.89-1.98-5.85V28h6.48V61.24q0,3.6,3.24,3.6a4.77,4.77,0,0,0,2.46-.6v5.58A10.454,10.454,0,0,1,188.04,70.78Zm38.76,0a13.145,13.145,0,0,1-10.26-4.5,15.836,15.836,0,0,1-4.02-11.04,15.755,15.755,0,0,1,4.02-10.98,13.145,13.145,0,0,1,10.26-4.5q6.78,0,10.5,4.8V28h6.48V70H237.3V65.98Q233.58,70.78,226.8,70.78Zm1.74-5.7a9.507,9.507,0,0,0,5.16-1.47,10.109,10.109,0,0,0,3.6-3.81V50.68a10.175,10.175,0,0,0-3.63-3.75,9.554,9.554,0,0,0-5.13-1.47,8.9,8.9,0,0,0-6.78,2.88,9.6,9.6,0,0,0-2.7,6.9,9.886,9.886,0,0,0,2.7,7.02A8.994,8.994,0,0,0,228.54,65.08Zm22.38-9.84a15.311,15.311,0,0,1,4.2-11.04,14.469,14.469,0,0,1,10.92-4.44,12.478,12.478,0,0,1,7.74,2.4q6.24,4.44,6.24,13.32v1.68H257.46a8.487,8.487,0,0,0,3.57,5.82,12.733,12.733,0,0,0,7.53,2.1,18.243,18.243,0,0,0,9.48-2.64V67.9q-4.08,2.88-10.86,2.88a16.7,16.7,0,0,1-11.58-4.32A14.567,14.567,0,0,1,250.92,55.24Zm6.6-3h15.96a7.3,7.3,0,0,0-7.74-7.02,8.194,8.194,0,0,0-5.67,2.01A7.5,7.5,0,0,0,257.52,52.24ZM316.8,70.78q-9.6,0-15.78-4.5V59.14a22.741,22.741,0,0,0,6.78,3.84,24.458,24.458,0,0,0,8.64,1.62,13.155,13.155,0,0,0,6.99-1.68,5.138,5.138,0,0,0,2.73-4.56,5,5,0,0,0-1.86-3.9,7.489,7.489,0,0,0-2.16-1.26,39.22,39.22,0,0,0-5.76-1.98l-.84-.24q-3.42-.96-5.46-1.74a28.869,28.869,0,0,1-4.2-2.1q-4.32-2.7-4.32-8.46a9.943,9.943,0,0,1,4.11-8.34q4.11-3.12,11.13-3.12a25.681,25.681,0,0,1,13.44,3.48v6.6a25.31,25.31,0,0,0-13.32-3.9,11.481,11.481,0,0,0-6.39,1.47,4.474,4.474,0,0,0-2.19,3.87q0,2.04,2.46,3.78a5.979,5.979,0,0,0,1.02.51q.66.27,1.5.57t1.2.42l4.8,1.38A40.373,40.373,0,0,1,327,48.52a10.943,10.943,0,0,1,5.94,9.72,10.746,10.746,0,0,1-4.62,9.18A19.069,19.069,0,0,1,316.8,70.78Zm25.44,7.62h-6.6L360.9,22.48h6.6ZM384.72,70h-6.48V35.08L369.06,40V33.58l9.9-5.58h5.76Zm26.88.78a15.427,15.427,0,0,1-12.84-6.3A25.117,25.117,0,0,1,393.96,49a25.021,25.021,0,0,1,4.8-15.42,15.377,15.377,0,0,1,12.84-6.36,15.175,15.175,0,0,1,12.84,6.36A24.649,24.649,0,0,1,429.3,49a24.744,24.744,0,0,1-4.86,15.48A15.224,15.224,0,0,1,411.6,70.78Zm0-6.18a9.328,9.328,0,0,0,8.04-4.5A19.284,19.284,0,0,0,422.7,49a19.284,19.284,0,0,0-3.06-11.1,9.347,9.347,0,0,0-16.02.06A19.175,19.175,0,0,0,400.56,49a19.643,19.643,0,0,0,3.06,11.1A9.279,9.279,0,0,0,411.6,64.6Zm42.36,6.18a15.427,15.427,0,0,1-12.84-6.3A25.117,25.117,0,0,1,436.32,49a25.021,25.021,0,0,1,4.8-15.42,15.377,15.377,0,0,1,12.84-6.36,15.175,15.175,0,0,1,12.84,6.36A24.649,24.649,0,0,1,471.66,49a24.744,24.744,0,0,1-4.86,15.48A15.224,15.224,0,0,1,453.96,70.78Zm0-6.18A9.328,9.328,0,0,0,462,60.1,19.284,19.284,0,0,0,465.06,49,19.284,19.284,0,0,0,462,37.9a9.347,9.347,0,0,0-16.02.06A19.175,19.175,0,0,0,442.92,49a19.643,19.643,0,0,0,3.06,11.1A9.279,9.279,0,0,0,453.96,64.6Zm33.36,4.68a4,4,0,0,1-2.94,1.2,4.243,4.243,0,0,1-3-7.2,4.1,4.1,0,0,1,3-1.26,3.9,3.9,0,0,1,2.94,1.26,4.2,4.2,0,0,1,0,6Zm0-12.78H481.5L480.18,28h8.52Z" transform="translate(1296 417)"/><path class="d" d="M8.62.08H6.54L.52-14H2.96L7.6-2.96,12.24-14h2.38ZM24.5-1.68a1.2,1.2,0,0,0,.58-.14V-.18a2.119,2.119,0,0,1-1.26.32,1.874,1.874,0,0,1-2.06-1.4A4.582,4.582,0,0,1,18.14.26,3.994,3.994,0,0,1,15.5-.62a2.965,2.965,0,0,1-1.04-2.42,2.8,2.8,0,0,1,1.14-2.4,4.462,4.462,0,0,1,2.8-.86,6.328,6.328,0,0,1,3.14.76v-.54q0-2.14-2.88-2.14a5.773,5.773,0,0,0-3.1.88v-1.9a7.076,7.076,0,0,1,3.58-.84,5.128,5.128,0,0,1,3.31.99,3.356,3.356,0,0,1,1.23,2.77v3.66a1.049,1.049,0,0,0,.23.72A.752.752,0,0,0,24.5-1.68Zm-2.96-2.3a5.25,5.25,0,0,0-2.62-.7,3.061,3.061,0,0,0-1.69.4,1.267,1.267,0,0,0-.61,1.12A1.329,1.329,0,0,0,17.19-2a2.656,2.656,0,0,0,1.55.4,3.88,3.88,0,0,0,1.56-.33,3.621,3.621,0,0,0,1.24-.85ZM19.78-11.5H17.82l1.9-2.8h2.7ZM29.68.26a2.5,2.5,0,0,1-1.8-.63,2.583,2.583,0,0,1-.66-1.95V-14h2.16V-2.92q0,1.2,1.08,1.2a1.59,1.59,0,0,0,.82-.2V-.06A3.485,3.485,0,0,1,29.68.26Zm6-.26H33.52V-9.82h2.16ZM34.6-11.58a1.317,1.317,0,0,1-.97-.39,1.317,1.317,0,0,1-.39-.97,1.35,1.35,0,0,1,.39-.98,1.3,1.3,0,0,1,.97-.4,1.277,1.277,0,0,1,.95.4,1.35,1.35,0,0,1,.39.98,1.317,1.317,0,0,1-.39.97A1.293,1.293,0,0,1,34.6-11.58ZM43,.26a4.382,4.382,0,0,1-3.42-1.5,5.279,5.279,0,0,1-1.34-3.68,5.252,5.252,0,0,1,1.34-3.66A4.382,4.382,0,0,1,43-10.08a4.171,4.171,0,0,1,3.5,1.6V-14h2.16V0H46.5V-1.34A4.171,4.171,0,0,1,43,.26Zm.58-1.9a3.169,3.169,0,0,0,1.72-.49A3.37,3.37,0,0,0,46.5-3.4V-6.44a3.392,3.392,0,0,0-1.21-1.25,3.185,3.185,0,0,0-1.71-.49,2.967,2.967,0,0,0-2.26.96,3.2,3.2,0,0,0-.9,2.3,3.3,3.3,0,0,0,.9,2.34A3,3,0,0,0,43.58-1.64Zm12.86,0a3.128,3.128,0,0,0,2.3-.94,3.17,3.17,0,0,0,.92-2.34,3.145,3.145,0,0,0-.92-2.32,3.128,3.128,0,0,0-2.3-.94,3.152,3.152,0,0,0-2.32.94,3.145,3.145,0,0,0-.92,2.32,3.17,3.17,0,0,0,.92,2.34A3.152,3.152,0,0,0,56.44-1.64Zm0,1.9a5.292,5.292,0,0,1-3.88-1.5,4.97,4.97,0,0,1-1.52-3.68,4.947,4.947,0,0,1,1.52-3.66,5.292,5.292,0,0,1,3.88-1.5,5.31,5.31,0,0,1,3.86,1.5,4.947,4.947,0,0,1,1.52,3.66A5.012,5.012,0,0,1,60.3-1.24,5.31,5.31,0,0,1,56.44.26Zm17.02,0a4.382,4.382,0,0,1-3.42-1.5A5.279,5.279,0,0,1,68.7-4.92a5.252,5.252,0,0,1,1.34-3.66,4.382,4.382,0,0,1,3.42-1.5,4.171,4.171,0,0,1,3.5,1.6V-14h2.16V0H76.96V-1.34A4.171,4.171,0,0,1,73.46.26Zm.58-1.9a3.169,3.169,0,0,0,1.72-.49,3.37,3.37,0,0,0,1.2-1.27V-6.44a3.392,3.392,0,0,0-1.21-1.25,3.185,3.185,0,0,0-1.71-.49,2.967,2.967,0,0,0-2.26.96,3.2,3.2,0,0,0-.9,2.3,3.3,3.3,0,0,0,.9,2.34A3,3,0,0,0,74.04-1.64ZM81.5-4.92A5.1,5.1,0,0,1,82.9-8.6a4.823,4.823,0,0,1,3.64-1.48,4.159,4.159,0,0,1,2.58.8A5.091,5.091,0,0,1,91.2-4.84v.56H83.68a2.829,2.829,0,0,0,1.19,1.94,4.244,4.244,0,0,0,2.51.7,6.081,6.081,0,0,0,3.16-.88V-.7a6.158,6.158,0,0,1-3.62.96,5.568,5.568,0,0,1-3.86-1.44A4.856,4.856,0,0,1,81.5-4.92Zm2.2-1h5.32a2.454,2.454,0,0,0-.7-1.62,2.461,2.461,0,0,0-1.88-.72,2.731,2.731,0,0,0-1.89.67A2.5,2.5,0,0,0,83.7-5.92ZM97.14.26a7.254,7.254,0,0,1-4.1-1V-2.78a6.9,6.9,0,0,0,4,1.18,3.364,3.364,0,0,0,1.59-.31.943.943,0,0,0,.57-.85.892.892,0,0,0-.6-.78,6.6,6.6,0,0,0-.94-.3l-1.22-.3a6.1,6.1,0,0,1-2.52-1.13,2.442,2.442,0,0,1-.78-1.93,2.44,2.44,0,0,1,1.1-2.11,5.272,5.272,0,0,1,3.06-.77,6.583,6.583,0,0,1,3.62.88v1.98a7.179,7.179,0,0,0-3.54-1,3.132,3.132,0,0,0-1.5.29.88.88,0,0,0-.52.79q0,.46.62.78.08.04.94.3l1.14.24q3.36.74,3.36,3.1a2.517,2.517,0,0,1-1.18,2.16A5.327,5.327,0,0,1,97.14.26Zm10.8,0a4.382,4.382,0,0,1-3.42-1.5,5.279,5.279,0,0,1-1.34-3.68,5.252,5.252,0,0,1,1.34-3.66,4.382,4.382,0,0,1,3.42-1.5,4.171,4.171,0,0,1,3.5,1.6V-14h2.16V0h-2.16V-1.34A4.171,4.171,0,0,1,107.94.26Zm.58-1.9a3.169,3.169,0,0,0,1.72-.49,3.37,3.37,0,0,0,1.2-1.27V-6.44a3.392,3.392,0,0,0-1.21-1.25,3.185,3.185,0,0,0-1.71-.49,2.967,2.967,0,0,0-2.26.96,3.2,3.2,0,0,0-.9,2.3,3.3,3.3,0,0,0,.9,2.34A3,3,0,0,0,108.52-1.64Zm7.46-3.28a5.1,5.1,0,0,1,1.4-3.68,4.823,4.823,0,0,1,3.64-1.48,4.159,4.159,0,0,1,2.58.8,5.091,5.091,0,0,1,2.08,4.44v.56h-7.52a2.829,2.829,0,0,0,1.19,1.94,4.244,4.244,0,0,0,2.51.7,6.081,6.081,0,0,0,3.16-.88V-.7a6.158,6.158,0,0,1-3.62.96,5.568,5.568,0,0,1-3.86-1.44A4.856,4.856,0,0,1,115.98-4.92Zm2.2-1h5.32a2.454,2.454,0,0,0-.7-1.62,2.461,2.461,0,0,0-1.88-.72,2.731,2.731,0,0,0-1.89.67A2.5,2.5,0,0,0,118.18-5.92Zm14.44,1a5.1,5.1,0,0,1,1.4-3.68,4.823,4.823,0,0,1,3.64-1.48,4.159,4.159,0,0,1,2.58.8,5.091,5.091,0,0,1,2.08,4.44v.56H134.8a2.829,2.829,0,0,0,1.19,1.94,4.244,4.244,0,0,0,2.51.7,6.081,6.081,0,0,0,3.16-.88V-.7a6.158,6.158,0,0,1-3.62.96,5.568,5.568,0,0,1-3.86-1.44A4.856,4.856,0,0,1,132.62-4.92Zm2.2-1h5.32a2.454,2.454,0,0,0-.7-1.62,2.461,2.461,0,0,0-1.88-.72,2.731,2.731,0,0,0-1.89.67A2.5,2.5,0,0,0,134.82-5.92ZM147.22.26a2.5,2.5,0,0,1-1.8-.63,2.583,2.583,0,0,1-.66-1.95V-14h2.16V-2.92q0,1.2,1.08,1.2a1.59,1.59,0,0,0,.82-.2V-.06A3.485,3.485,0,0,1,147.22.26ZM160.28,0h-2.16V-11.64L155.06-10v-2.14l3.3-1.86h1.92Zm11.9,0h-2.16V-3.66h-7.26V-5.34L170.02-14h2.16v8.46h2.18v1.88h-2.18Zm-2.16-11.18-4.76,5.64h4.76ZM176.96,2.8h-2.2l8.42-18.64h2.2ZM191.76.26a5.142,5.142,0,0,1-4.28-2.1A8.372,8.372,0,0,1,185.88-7a8.34,8.34,0,0,1,1.6-5.14,5.126,5.126,0,0,1,4.28-2.12,5.058,5.058,0,0,1,4.28,2.12A8.216,8.216,0,0,1,197.66-7a8.248,8.248,0,0,1-1.62,5.16A5.075,5.075,0,0,1,191.76.26Zm0-2.06a3.109,3.109,0,0,0,2.68-1.5A6.428,6.428,0,0,0,195.46-7a6.428,6.428,0,0,0-1.02-3.7,3.109,3.109,0,0,0-2.68-1.5,3.084,3.084,0,0,0-2.66,1.52A6.392,6.392,0,0,0,188.08-7a6.548,6.548,0,0,0,1.02,3.7A3.093,3.093,0,0,0,191.76-1.8ZM205.48.26a5,5,0,0,1-4.02-1.74,7.345,7.345,0,0,1-1.44-4.82,9.415,9.415,0,0,1,1.66-5.66,5.325,5.325,0,0,1,4.6-2.3,5.483,5.483,0,0,1,3.08.88v2a4.962,4.962,0,0,0-2.84-.88,3.682,3.682,0,0,0-3.1,1.4,5.94,5.94,0,0,0-1.14,3.4,4.291,4.291,0,0,1,3.62-1.58,4.46,4.46,0,0,1,3.2,1.24,4.249,4.249,0,0,1,1.3,3.22,4.632,4.632,0,0,1-1.42,3.5A4.862,4.862,0,0,1,205.48.26Zm-.14-1.94a2.788,2.788,0,0,0,2.06-.8,2.794,2.794,0,0,0,.82-2.06,2.484,2.484,0,0,0-.84-1.96,2.913,2.913,0,0,0-2.06-.76,3.343,3.343,0,0,0-1.94.64,2.986,2.986,0,0,0-1.16,1.58,3.974,3.974,0,0,0,.94,2.47A2.822,2.822,0,0,0,205.34-1.68Zm22.22,0a1.2,1.2,0,0,0,.58-.14V-.18a2.119,2.119,0,0,1-1.26.32,1.874,1.874,0,0,1-2.06-1.4A4.582,4.582,0,0,1,221.2.26a3.994,3.994,0,0,1-2.64-.88,2.965,2.965,0,0,1-1.04-2.42,2.8,2.8,0,0,1,1.14-2.4,4.462,4.462,0,0,1,2.8-.86,6.328,6.328,0,0,1,3.14.76v-.54q0-2.14-2.88-2.14a5.773,5.773,0,0,0-3.1.88v-1.9a7.076,7.076,0,0,1,3.58-.84,5.128,5.128,0,0,1,3.31.99,3.356,3.356,0,0,1,1.23,2.77v3.66a1.049,1.049,0,0,0,.23.72A.752.752,0,0,0,227.56-1.68Zm-2.96-1.1v-1.2a5.25,5.25,0,0,0-2.62-.7,3.061,3.061,0,0,0-1.69.4,1.267,1.267,0,0,0-.61,1.12A1.329,1.329,0,0,0,220.25-2a2.656,2.656,0,0,0,1.55.4,3.88,3.88,0,0,0,1.56-.33A3.621,3.621,0,0,0,224.6-2.78ZM232.74.26a2.5,2.5,0,0,1-1.8-.63,2.583,2.583,0,0,1-.66-1.95V-14h2.16V-2.92q0,1.2,1.08,1.2a1.59,1.59,0,0,0,.82-.2V-.06A3.485,3.485,0,0,1,232.74.26Zm12.3,0A7.754,7.754,0,0,1,240.86-.8V-2.94a6.758,6.758,0,0,0,4.06,1.24,3.82,3.82,0,0,0,2.38-.76,2.5,2.5,0,0,0,1-2.08,2.463,2.463,0,0,0-.88-1.97,3.517,3.517,0,0,0-2.36-.75,4.854,4.854,0,0,0-1.78.32v-1.5l3.76-3.64h-5.66V-14h8.58v1.66L246.38-8.9a4.886,4.886,0,0,1,2.92,1.36,3.954,3.954,0,0,1,1.22,3,4.312,4.312,0,0,1-1.58,3.48A5.829,5.829,0,0,1,245.04.26Zm13.56,0a5.142,5.142,0,0,1-4.28-2.1A8.372,8.372,0,0,1,252.72-7a8.34,8.34,0,0,1,1.6-5.14,5.126,5.126,0,0,1,4.28-2.12,5.058,5.058,0,0,1,4.28,2.12A8.216,8.216,0,0,1,264.5-7a8.248,8.248,0,0,1-1.62,5.16A5.075,5.075,0,0,1,258.6.26Zm0-2.06a3.109,3.109,0,0,0,2.68-1.5A6.428,6.428,0,0,0,262.3-7a6.428,6.428,0,0,0-1.02-3.7,3.109,3.109,0,0,0-2.68-1.5,3.084,3.084,0,0,0-2.66,1.52A6.392,6.392,0,0,0,254.92-7a6.548,6.548,0,0,0,1.02,3.7A3.093,3.093,0,0,0,258.6-1.8Zm8.54,4.6h-2.2l8.42-18.64h2.2ZM281.94.26a5.142,5.142,0,0,1-4.28-2.1A8.372,8.372,0,0,1,276.06-7a8.34,8.34,0,0,1,1.6-5.14,5.126,5.126,0,0,1,4.28-2.12,5.058,5.058,0,0,1,4.28,2.12A8.216,8.216,0,0,1,287.84-7a8.248,8.248,0,0,1-1.62,5.16A5.075,5.075,0,0,1,281.94.26Zm0-2.06a3.109,3.109,0,0,0,2.68-1.5A6.428,6.428,0,0,0,285.64-7a6.428,6.428,0,0,0-1.02-3.7,3.109,3.109,0,0,0-2.68-1.5,3.084,3.084,0,0,0-2.66,1.52A6.392,6.392,0,0,0,278.26-7a6.548,6.548,0,0,0,1.02,3.7A3.093,3.093,0,0,0,281.94-1.8ZM295.66.26a5,5,0,0,1-4.02-1.74A7.345,7.345,0,0,1,290.2-6.3a9.416,9.416,0,0,1,1.66-5.66,5.325,5.325,0,0,1,4.6-2.3,5.483,5.483,0,0,1,3.08.88v2a4.962,4.962,0,0,0-2.84-.88,3.682,3.682,0,0,0-3.1,1.4,5.941,5.941,0,0,0-1.14,3.4,4.291,4.291,0,0,1,3.62-1.58,4.46,4.46,0,0,1,3.2,1.24,4.249,4.249,0,0,1,1.3,3.22,4.632,4.632,0,0,1-1.42,3.5A4.862,4.862,0,0,1,295.66.26Zm-.14-1.94a2.788,2.788,0,0,0,2.06-.8,2.794,2.794,0,0,0,.82-2.06,2.484,2.484,0,0,0-.84-1.96,2.913,2.913,0,0,0-2.06-.76,3.343,3.343,0,0,0-1.94.64,2.986,2.986,0,0,0-1.16,1.58,3.974,3.974,0,0,0,.94,2.47A2.822,2.822,0,0,0,295.52-1.68Zm8.4,1.84a1.373,1.373,0,0,1-1.01-.41,1.373,1.373,0,0,1-.41-1.01,1.349,1.349,0,0,1,.41-.99,1.373,1.373,0,0,1,1.01-.41,1.359,1.359,0,0,1,.98.41,1.333,1.333,0,0,1,.42.99,1.373,1.373,0,0,1-.41,1.01A1.349,1.349,0,0,1,303.92.16Z" transform="translate(1296 652)"/><path class="d" d="M.66-11.98V-14H12.12v2.02H7.48V0H5.28V-11.98ZM11.28-4.92a5.1,5.1,0,0,1,1.4-3.68,4.823,4.823,0,0,1,3.64-1.48,4.159,4.159,0,0,1,2.58.8,5.091,5.091,0,0,1,2.08,4.44v.56H13.46a2.829,2.829,0,0,0,1.19,1.94,4.244,4.244,0,0,0,2.51.7,6.081,6.081,0,0,0,3.16-.88V-.7A6.158,6.158,0,0,1,16.7.26a5.568,5.568,0,0,1-3.86-1.44A4.856,4.856,0,0,1,11.28-4.92Zm2.2-1H18.8a2.454,2.454,0,0,0-.7-1.62,2.461,2.461,0,0,0-1.88-.72,2.731,2.731,0,0,0-1.89.67A2.5,2.5,0,0,0,13.48-5.92ZM25.58,0H23.42V-9.82h2.16v1.7a3.8,3.8,0,0,1,1.5-1.41,4.334,4.334,0,0,1,2.12-.55.7.7,0,0,1,.2.02V-7.9a5.608,5.608,0,0,0-.6-.04,3.61,3.61,0,0,0-1.98.56,3.164,3.164,0,0,0-1.24,1.36Zm7.94,0H31.36V-9.82h2.16v1.28a3.759,3.759,0,0,1,3.24-1.54,3.813,3.813,0,0,1,1.96.48,2.577,2.577,0,0,1,1.14,1.28A3.845,3.845,0,0,1,41.35-9.6a4.568,4.568,0,0,1,2.09-.48A3.271,3.271,0,0,1,46-9.06a4.214,4.214,0,0,1,.92,2.92V0H44.76V-5.64q0-2.42-2-2.42a2.658,2.658,0,0,0-1.49.47,2.786,2.786,0,0,0-1.03,1.17V0H38.08V-5.64q0-2.42-2.02-2.42a2.71,2.71,0,0,0-1.47.45,2.987,2.987,0,0,0-1.07,1.13ZM52.14,0H49.98V-9.82h2.16ZM51.06-11.58a1.317,1.317,0,0,1-.97-.39,1.317,1.317,0,0,1-.39-.97,1.35,1.35,0,0,1,.39-.98,1.3,1.3,0,0,1,.97-.4,1.277,1.277,0,0,1,.95.4,1.35,1.35,0,0,1,.39.98,1.317,1.317,0,0,1-.39.97A1.293,1.293,0,0,1,51.06-11.58Zm6.5,5.12V0H55.4V-9.82h2.16v1.3a4.7,4.7,0,0,1,3.6-1.56A3.393,3.393,0,0,1,63.85-9a4.389,4.389,0,0,1,.95,3V0H62.64V-5.52q0-2.54-2.3-2.54a3.131,3.131,0,0,0-1.58.45A3.267,3.267,0,0,0,57.56-6.46ZM72.38-1.64a3.128,3.128,0,0,0,2.3-.94,3.17,3.17,0,0,0,.92-2.34,3.145,3.145,0,0,0-.92-2.32,3.128,3.128,0,0,0-2.3-.94,3.152,3.152,0,0,0-2.32.94,3.145,3.145,0,0,0-.92,2.32,3.17,3.17,0,0,0,.92,2.34A3.152,3.152,0,0,0,72.38-1.64Zm0,1.9a5.292,5.292,0,0,1-3.88-1.5,4.97,4.97,0,0,1-1.52-3.68A4.947,4.947,0,0,1,68.5-8.58a5.292,5.292,0,0,1,3.88-1.5,5.31,5.31,0,0,1,3.86,1.5,4.947,4.947,0,0,1,1.52,3.66,5.012,5.012,0,0,1-1.52,3.68A5.31,5.31,0,0,1,72.38.26Zm11.26,0a7.254,7.254,0,0,1-4.1-1V-2.78a6.9,6.9,0,0,0,4,1.18,3.364,3.364,0,0,0,1.59-.31.943.943,0,0,0,.57-.85.892.892,0,0,0-.6-.78,6.6,6.6,0,0,0-.94-.3l-1.22-.3a6.1,6.1,0,0,1-2.52-1.13,2.442,2.442,0,0,1-.78-1.93,2.44,2.44,0,0,1,1.1-2.11,5.272,5.272,0,0,1,3.06-.77,6.583,6.583,0,0,1,3.62.88v1.98a7.179,7.179,0,0,0-3.54-1,3.132,3.132,0,0,0-1.5.29.88.88,0,0,0-.52.79q0,.46.62.78.08.04.94.3l1.14.24q3.36.74,3.36,3.1A2.517,2.517,0,0,1,86.74-.56,5.327,5.327,0,0,1,83.64.26ZM96.58,4.1a3.743,3.743,0,0,1-1.78-.32V1.88a3.13,3.13,0,0,0,1.42.32,1.845,1.845,0,0,0,1.39-.6A6.772,6.772,0,0,0,98.76-.36l-4.3-9.46h2.4L99.82-2.9l2.86-6.92h2.34l-4.7,10.88Q99,4.1,96.58,4.1ZM116.8.26a5.262,5.262,0,0,1-3.76-1.46,4.967,4.967,0,0,1-1.54-3.74,4.839,4.839,0,0,1,1.54-3.7,5.373,5.373,0,0,1,3.78-1.44,6.216,6.216,0,0,1,2.96.68v1.86a6.093,6.093,0,0,0-2.64-.64,3.525,3.525,0,0,0-2.48.92,3.08,3.08,0,0,0-1,2.34,3.1,3.1,0,0,0,1,2.36,3.525,3.525,0,0,0,2.48.92,5.291,5.291,0,0,0,2.8-.74V-.54A6.215,6.215,0,0,1,116.8.26Zm10.3-1.9a3.128,3.128,0,0,0,2.3-.94,3.17,3.17,0,0,0,.92-2.34,3.145,3.145,0,0,0-.92-2.32,3.128,3.128,0,0,0-2.3-.94,3.152,3.152,0,0,0-2.32.94,3.145,3.145,0,0,0-.92,2.32,3.17,3.17,0,0,0,.92,2.34A3.152,3.152,0,0,0,127.1-1.64Zm0,1.9a5.292,5.292,0,0,1-3.88-1.5,4.97,4.97,0,0,1-1.52-3.68,4.947,4.947,0,0,1,1.52-3.66,5.292,5.292,0,0,1,3.88-1.5,5.31,5.31,0,0,1,3.86,1.5,4.947,4.947,0,0,1,1.52,3.66,5.012,5.012,0,0,1-1.52,3.68A5.31,5.31,0,0,1,127.1.26Zm9.92-6.72V0h-2.16V-9.82h2.16v1.3a4.7,4.7,0,0,1,3.6-1.56A3.393,3.393,0,0,1,143.31-9a4.389,4.389,0,0,1,.95,3V0H142.1V-5.52q0-2.54-2.3-2.54a3.131,3.131,0,0,0-1.58.45A3.267,3.267,0,0,0,137.02-6.46ZM151.2.26a4.382,4.382,0,0,1-3.42-1.5,5.279,5.279,0,0,1-1.34-3.68,5.252,5.252,0,0,1,1.34-3.66,4.382,4.382,0,0,1,3.42-1.5,4.171,4.171,0,0,1,3.5,1.6V-14h2.16V0H154.7V-1.34A4.171,4.171,0,0,1,151.2.26Zm.58-1.9a3.169,3.169,0,0,0,1.72-.49,3.37,3.37,0,0,0,1.2-1.27V-6.44a3.392,3.392,0,0,0-1.21-1.25,3.185,3.185,0,0,0-1.71-.49,2.967,2.967,0,0,0-2.26.96,3.2,3.2,0,0,0-.9,2.3,3.3,3.3,0,0,0,.9,2.34A3,3,0,0,0,151.78-1.64ZM162.28,0h-2.16V-9.82h2.16ZM161.2-11.58a1.317,1.317,0,0,1-.97-.39,1.317,1.317,0,0,1-.39-.97,1.35,1.35,0,0,1,.39-.98,1.3,1.3,0,0,1,.97-.4,1.277,1.277,0,0,1,.95.4,1.35,1.35,0,0,1,.39.98,1.317,1.317,0,0,1-.39.97A1.293,1.293,0,0,1,161.2-11.58ZM170.14.26a5.262,5.262,0,0,1-3.76-1.46,4.967,4.967,0,0,1-1.54-3.74,4.839,4.839,0,0,1,1.54-3.7,5.373,5.373,0,0,1,3.78-1.44,6.215,6.215,0,0,1,2.96.68v1.86a6.093,6.093,0,0,0-2.64-.64,3.525,3.525,0,0,0-2.48.92,3.08,3.08,0,0,0-1,2.34,3.1,3.1,0,0,0,1,2.36,3.525,3.525,0,0,0,2.48.92,5.291,5.291,0,0,0,2.8-.74V-.54A6.215,6.215,0,0,1,170.14.26ZM178.28,0h-2.16V-9.82h2.16ZM177.2-11.58a1.317,1.317,0,0,1-.97-.39,1.317,1.317,0,0,1-.39-.97,1.35,1.35,0,0,1,.39-.98,1.3,1.3,0,0,1,.97-.4,1.277,1.277,0,0,1,.95.4,1.35,1.35,0,0,1,.39.98,1.317,1.317,0,0,1-.39.97A1.293,1.293,0,0,1,177.2-11.58Zm9.04,9.94a3.128,3.128,0,0,0,2.3-.94,3.17,3.17,0,0,0,.92-2.34,3.145,3.145,0,0,0-.92-2.32,3.128,3.128,0,0,0-2.3-.94,3.152,3.152,0,0,0-2.32.94A3.145,3.145,0,0,0,183-4.92a3.17,3.17,0,0,0,.92,2.34A3.152,3.152,0,0,0,186.24-1.64Zm0,1.9a5.292,5.292,0,0,1-3.88-1.5,4.97,4.97,0,0,1-1.52-3.68,4.947,4.947,0,0,1,1.52-3.66,5.292,5.292,0,0,1,3.88-1.5,5.31,5.31,0,0,1,3.86,1.5,4.947,4.947,0,0,1,1.52,3.66,5.012,5.012,0,0,1-1.52,3.68A5.31,5.31,0,0,1,186.24.26Zm9.92-6.72V0H194V-9.82h2.16v1.3a4.7,4.7,0,0,1,3.6-1.56A3.393,3.393,0,0,1,202.45-9a4.389,4.389,0,0,1,.95,3V0h-2.16V-5.52q0-2.54-2.3-2.54a3.131,3.131,0,0,0-1.58.45A3.267,3.267,0,0,0,196.16-6.46Zm9.42,1.54a5.1,5.1,0,0,1,1.4-3.68,4.823,4.823,0,0,1,3.64-1.48,4.159,4.159,0,0,1,2.58.8,5.091,5.091,0,0,1,2.08,4.44v.56h-7.52a2.829,2.829,0,0,0,1.19,1.94,4.244,4.244,0,0,0,2.51.7,6.081,6.081,0,0,0,3.16-.88V-.7A6.158,6.158,0,0,1,211,.26a5.568,5.568,0,0,1-3.86-1.44A4.856,4.856,0,0,1,205.58-4.92Zm2.2-1h5.32a2.454,2.454,0,0,0-.7-1.62,2.461,2.461,0,0,0-1.88-.72,2.731,2.731,0,0,0-1.89.67A2.5,2.5,0,0,0,207.78-5.92ZM221.22.26a7.254,7.254,0,0,1-4.1-1V-2.78a6.9,6.9,0,0,0,4,1.18,3.364,3.364,0,0,0,1.59-.31.943.943,0,0,0,.57-.85.892.892,0,0,0-.6-.78,6.6,6.6,0,0,0-.94-.3l-1.22-.3A6.1,6.1,0,0,1,218-5.27a2.442,2.442,0,0,1-.78-1.93,2.44,2.44,0,0,1,1.1-2.11,5.272,5.272,0,0,1,3.06-.77A6.583,6.583,0,0,1,225-9.2v1.98a7.18,7.18,0,0,0-3.54-1,3.132,3.132,0,0,0-1.5.29.88.88,0,0,0-.52.79q0,.46.62.78.08.04.94.3l1.14.24q3.36.74,3.36,3.1a2.517,2.517,0,0,1-1.18,2.16A5.327,5.327,0,0,1,221.22.26ZM242.5-2.18a1.21,1.21,0,0,0,.58-.12V-.24a2.425,2.425,0,0,1-1.52.42A2.215,2.215,0,0,1,239.3-1.1,4.579,4.579,0,0,1,235.86.26a3.82,3.82,0,0,1-2.66-.92,3.1,3.1,0,0,1-1.02-2.42,2.825,2.825,0,0,1,1.16-2.44,4.612,4.612,0,0,1,2.78-.84,6.13,6.13,0,0,1,2.88.62v-.3q0-1.88-2.64-1.88a5.767,5.767,0,0,0-3.02.84V-9.44a7.861,7.861,0,0,1,3.7-.8,5.294,5.294,0,0,1,3.44,1.04,3.462,3.462,0,0,1,1.32,2.88v3.38Q241.8-2.18,242.5-2.18ZM239-2.94v-1a3.693,3.693,0,0,0-2.08-.58,2.624,2.624,0,0,0-1.43.34,1.078,1.078,0,0,0-.53.96,1.1,1.1,0,0,0,.48.97,2.261,2.261,0,0,0,1.3.33A2.672,2.672,0,0,0,239-2.94Zm10.08-7.3a3.859,3.859,0,0,1,3.28,1.48V-9.98h2.82V4h-2.82V-1.22A3.961,3.961,0,0,1,249.08.26a4.377,4.377,0,0,1-3.38-1.5,5.5,5.5,0,0,1-1.32-3.74,5.456,5.456,0,0,1,1.32-3.74A4.313,4.313,0,0,1,249.08-10.24Zm.8,2.46a2.519,2.519,0,0,0-1.94.8,2.834,2.834,0,0,0-.76,2A2.809,2.809,0,0,0,247.94-3a2.519,2.519,0,0,0,1.94.8,2.712,2.712,0,0,0,1.46-.41,2.853,2.853,0,0,0,1.02-1.07v-2.6a2.929,2.929,0,0,0-1.02-1.08A2.664,2.664,0,0,0,249.88-7.78Zm14.86,4.16V-9.98h2.82V0h-2.82V-1.2A4.347,4.347,0,0,1,261.4.26a3.384,3.384,0,0,1-2.68-1.09,4.43,4.43,0,0,1-.96-3.03V-9.98h2.82v5.54a2.154,2.154,0,0,0,.53,1.6,1.873,1.873,0,0,0,1.37.52,2.485,2.485,0,0,0,1.27-.37A2.892,2.892,0,0,0,264.74-3.62ZM273.02,0H270.2V-9.98h2.82Zm-.24-11.4h-2.44l1.9-2.92h3.4ZM276.8.16a1.373,1.373,0,0,1-1.01-.41,1.373,1.373,0,0,1-.41-1.01,1.349,1.349,0,0,1,.41-.99,1.373,1.373,0,0,1,1.01-.41,1.359,1.359,0,0,1,.98.41,1.333,1.333,0,0,1,.42.99,1.373,1.373,0,0,1-.41,1.01A1.349,1.349,0,0,1,276.8.16Z" transform="translate(1296 677)"/><g transform="translate(-1875.344 -1910.031)"><g class="e" transform="translate(2279.844 2062.711)"><g transform="translate(189.707 18.891)"><g class="f" transform="translate(139.589 364.833)"><rect class="g" width="11.425" height="173.536" transform="translate(25.169 156.766)"/><rect class="g" width="11.42" height="173.536" transform="translate(134.783 156.766)"/><g transform="translate(8.038 139.913)"><path class="h" d="M3070.7,2440.866H2900.366a9.907,9.907,0,1,1,0-19.814H3070.7a9.907,9.907,0,1,1,0,19.814" transform="translate(-2890.459 -2421.052)"/></g><rect class="h" width="11.425" height="173.536" transform="translate(57.903 156.766)"/><rect class="h" width="11.42" height="173.536" transform="translate(166.229 156.766)"/><rect class="i" width="6.421" height="19.919" transform="translate(48.343 48.157)"/><g transform="translate(16.711 64.93)"><path class="j" d="M2966.883,2397.654a34.843,34.843,0,1,1-34.843-34.843,34.845,34.845,0,0,1,34.843,34.843" transform="translate(-2897.196 -2362.811)"/></g><path class="i" d="M2945.781,2423.042H2910.6l2.087-8.916H2943.7Z" transform="translate(-2876.633 -2283.13)"/><path class="d" d="M2885.218,2365.4l7.338-52.151h85.856l7.338,52.151Z" transform="translate(-2883.928 -2312.129)"/><path class="i" d="M2977.724,2314.618l7.024,49.913h-97.953l7.025-49.913Zm1.949-2.239h-87.8l-7.657,54.389h103.11Z" transform="translate(-2884.216 -2312.38)"/></g><g transform="translate(221.682 99.434)"><g transform="translate(213.238 11)"><path class="c" d="M2665.953,2123.729c-.1-11.76-8.11-20.843-15.779-29.16-9.568-10.378-20.469-18.633-36.382-18.633-15.054,0-18.383,5.889-27.906,15.311-8.7,8.607-23.877,20.163-23.877,32.866v26.635c0,26.608,23.167,48.177,51.977,48.177,27.279,0,49.558-19.34,51.863-43.981Z" transform="translate(-2483.611 -2075.936)"/><path class="k" d="M2656.641,2133.4a44.48,44.48,0,0,0-88.958.352v27.594a44.446,44.446,0,0,0,88.715,3.862Z" transform="translate(-2482.148 -2072.459)"/><path class="k" d="M2638.9,2216.51c-6.679-17.412,7.639-39.638,12.978-53.9h-79.048c4.878,11.208,20.306,37.771,12.978,53.9-4.525,9.962-18.73,29.646-18.73,29.646h90.554s-14.812-19.429-18.731-29.646" transform="translate(-2482.305 -2053.585)"/><path class="k" d="M2633.1,2137.414a8.581,8.581,0,0,1,8.556-8.713,8.918,8.918,0,0,1,8.948,8.713,9.174,9.174,0,0,1-8.136,8.7l-8.812-.18s-.557-7.823-.557-8.516" transform="translate(-2465.278 -2062.329)"/><path class="k" d="M2575.142,2137.414a8.581,8.581,0,0,0-8.557-8.713,8.919,8.919,0,0,0-8.949,8.713,9.174,9.174,0,0,0,8.136,8.7l8.812-.18s.558-7.823.558-8.516" transform="translate(-2484.739 -2062.329)"/><path class="l" d="M2661.118,2138.83a8.607,8.607,0,0,0-1.93.224l.043-5.65a44.48,44.48,0,0,0-88.956.354v5.914a8.5,8.5,0,0,0-3.69-.841,8.917,8.917,0,0,0-8.949,8.713,9.171,9.171,0,0,0,8.136,8.695l4.5-.092v5.2a43.924,43.924,0,0,0,5.608,21.518c5.429,11.885,19.4,37.012,12.355,52.514-4.526,9.962-18.73,29.646-18.73,29.646h90.553s-14.81-19.429-18.73-29.646c-6.676-17.4,7.62-39.61,12.967-53.875a43.937,43.937,0,0,0,4.691-16.3l.069-9.032,2.874.058a9.171,9.171,0,0,0,8.135-8.695,8.917,8.917,0,0,0-8.949-8.713" transform="translate(-2484.739 -2072.459)"/><path class="l" d="M2650.689,2395.179a28.694,28.694,0,0,1,2.018-7.877,82.035,82.035,0,0,1,5.625-11.085c.11-.184.219-.356.329-.538,4.158,3.08,11.221,8.376,15.922,12.244a65.289,65.289,0,0,0-5.034,7.1,4.678,4.678,0,0,0-.473,2.3,13.07,13.07,0,0,0,1.265,1.411c.454.364.638.619,1,.87.371.271.667.563,1.132.952.414.347.835.749,1.306,1.174.152-.145.271-.29.425-.434.526-.482,1.031-.969,1.577-1.425a17.7,17.7,0,0,1,1.615-1.278l1.576-1.056a6.123,6.123,0,0,1,6.463-.191,17.2,17.2,0,0,0-8.935,7.111c-.146-.344-.293-.675-.44-.986a.85.85,0,0,0-1.536.729c1.366,2.875,2.788,7.253,1.649,15.681a.85.85,0,0,0,.729.956.868.868,0,0,0,.115.008.849.849,0,0,0,.841-.736,44.918,44.918,0,0,0,.425-5.625c.292-.345.643-.793,1.08-1.4a51.458,51.458,0,0,1,5.719-7.081,10.318,10.318,0,0,1,3.42-2.028c-.018.488-.052.961-.093,1.428a27.371,27.371,0,0,1-.395,2.8,33.768,33.768,0,0,1-1.467,5.229,30.785,30.785,0,0,1-2.426,5.113,21.423,21.423,0,0,1-2.078,2.9c-.249.292-.522.578-.876.923a13.181,13.181,0,0,1-1.383,1.174,11.4,11.4,0,0,1-3.26,1.693c-.2.068-.494.156-.8.23s-.583.132-.923.186a10.634,10.634,0,0,1-2.584.084,10.226,10.226,0,0,1-1.548-.252c-.278-.068-.555-.146-.826-.235l-.405-.139-.2-.077-.294-.123a10.863,10.863,0,0,1-2.224-1.3l-.287-.222-2.521-2.223c-.575-.547-1.161-1.07-1.726-1.638a48.419,48.419,0,0,1-3.342-3.645c-.554-.673-1.107-1.382-1.674-2.187a30.321,30.321,0,0,1-1.7-2.686,19.345,19.345,0,0,1-1.369-3.048,13.917,13.917,0,0,1-.569-2.205,13.629,13.629,0,0,1-2.33-4.62,16.325,16.325,0,0,1-.5-5.952" transform="translate(-2460.762 -1998.638)"/><path class="l" d="M2672.7,2406.763a23.879,23.879,0,0,0-.87-4.791.941.941,0,0,0,.209-.257,15.245,15.245,0,0,1,9.391-7.577.947.947,0,0,0,.213-.092,6.106,6.106,0,0,1,1.341,3.216,12.274,12.274,0,0,0-4.646,2.6,48.053,48.053,0,0,0-5.638,6.895" transform="translate(-2455.29 -1993.901)"/><path class="l" d="M2562.375,2395.179a28.783,28.783,0,0,0-2.017-7.877,81.864,81.864,0,0,0-5.627-11.085c-.108-.184-.219-.356-.327-.538-4.158,3.08-11.221,8.376-15.922,12.244a65.357,65.357,0,0,1,5.034,7.1,4.679,4.679,0,0,1,.472,2.3,12.981,12.981,0,0,1-1.264,1.411c-.453.364-.638.619-1,.87-.372.271-.667.563-1.132.952-.413.347-.836.749-1.305,1.174-.152-.145-.272-.29-.425-.434-.526-.482-1.031-.969-1.578-1.425a17.83,17.83,0,0,0-1.615-1.278l-1.576-1.056a6.126,6.126,0,0,0-6.464-.191,17.193,17.193,0,0,1,8.937,7.111c.146-.344.293-.675.44-.986a.85.85,0,0,1,1.536.729c-1.366,2.875-2.789,7.253-1.65,15.681a.848.848,0,0,1-.727.956.872.872,0,0,1-.114.008.851.851,0,0,1-.843-.736,44.948,44.948,0,0,1-.424-5.625c-.292-.345-.643-.793-1.079-1.4a51.462,51.462,0,0,0-5.72-7.081,10.3,10.3,0,0,0-3.421-2.028c.019.488.053.961.094,1.428a27.787,27.787,0,0,0,.394,2.8,33.88,33.88,0,0,0,1.468,5.229,30.727,30.727,0,0,0,2.426,5.113,21.467,21.467,0,0,0,2.078,2.9c.249.292.522.578.875.923a13.49,13.49,0,0,0,1.384,1.174,11.419,11.419,0,0,0,3.26,1.693c.2.068.494.156.8.23s.582.132.923.186a10.624,10.624,0,0,0,2.583.084,10.21,10.21,0,0,0,1.55-.252c.278-.068.555-.146.826-.235l.405-.139.2-.077.294-.123a10.838,10.838,0,0,0,2.223-1.3l.288-.222,2.521-2.223c.575-.547,1.161-1.07,1.726-1.638a48.677,48.677,0,0,0,3.342-3.645c.554-.673,1.107-1.382,1.673-2.187a30.206,30.206,0,0,0,1.706-2.686,19.429,19.429,0,0,0,1.368-3.048,13.939,13.939,0,0,0,.569-2.205,13.624,13.624,0,0,0,2.331-4.62,16.347,16.347,0,0,0,.5-5.952" transform="translate(-2493.268 -1998.638)"/><path class="l" d="M2534.872,2406.763a23.944,23.944,0,0,1,.871-4.791.906.906,0,0,1-.209-.257,15.248,15.248,0,0,0-9.39-7.577.922.922,0,0,1-.214-.092,6.1,6.1,0,0,0-1.341,3.216,12.274,12.274,0,0,1,4.646,2.6,48.067,48.067,0,0,1,5.638,6.895" transform="translate(-2493.262 -1993.901)"/><path class="l" d="M2672.7,2406.763a23.879,23.879,0,0,0-.87-4.791.941.941,0,0,0,.209-.257,15.245,15.245,0,0,1,9.391-7.577.947.947,0,0,0,.213-.092,6.106,6.106,0,0,1,1.341,3.216,12.274,12.274,0,0,0-4.646,2.6,48.053,48.053,0,0,0-5.638,6.895" transform="translate(-2455.29 -1993.901)"/><path class="l" d="M2534.872,2406.763a23.944,23.944,0,0,1,.871-4.791.906.906,0,0,1-.209-.257,15.248,15.248,0,0,0-9.39-7.577.922.922,0,0,1-.214-.092,6.1,6.1,0,0,0-1.341,3.216,12.274,12.274,0,0,1,4.646,2.6,48.067,48.067,0,0,1,5.638,6.895" transform="translate(-2493.262 -1993.901)"/><path class="m" d="M2699.721,2294.4q-3.732-5.187-7.589-10.2c-2.572-3.33-5.174-6.615-7.782-9.827s-5.228-6.388-7.807-9.485l-7.638-9.2-.025-.032a24.935,24.935,0,0,0-38.367,31.86,26.543,26.543,0,0,0,3.266,3.263l9.2,7.632,8.914,7.458c2.925,2.477,5.779,4.957,8.59,7.458s5.54,5.03,8.228,7.589l3.879,3.79,28.436-28.435Z" transform="translate(-2467.429 -2031.913)"/><path class="m" d="M2716.08,2328.349c-.179-.522-.357-1.005-.574-1.552l-.417-.96-.32-.707-.15-.342-.036-.085-.2-.384-.021-.045-.087-.187-.344-.741c-.931-1.969-1.829-3.975-2.8-5.925-.992-1.934-1.966-3.895-2.993-5.814l-3.164-5.7-3.319-5.587-3.456-5.474-3.575-5.364-2.37-3.388-28.436,28.436.084.083,3.853,3.938,3.735,4.012,3.61,4.092,3.474,4.177c1.135,1.409,2.213,2.844,3.331,4.271,1.1,1.435,2.109,2.908,3.177,4.366a3.456,3.456,0,0,1,.759,1.825,10.228,10.228,0,0,1-.315,2.8,41.1,41.1,0,0,1-3.057,8.165,180.049,180.049,0,0,1-11.019,19.292c-4.059,6.424-8.4,12.892-12.611,19.967,4.575,3.39,12.347,9.218,17.521,13.473.122-.155.24-.311.363-.466,4.636-5.789,9.92-11.679,15.171-17.843a206.673,206.673,0,0,0,15.592-20.157,76.077,76.077,0,0,0,6.946-12.894,45.945,45.945,0,0,0,2.558-8.392,34.362,34.362,0,0,0,.477-10.753,30.6,30.6,0,0,0-1.382-6.133" transform="translate(-2458.642 -2021.74)"/><path class="n" d="M2659.585,2370.494c.12-.2.24-.393.361-.593,4.575,3.39,12.348,9.218,17.52,13.473a71.942,71.942,0,0,0-5.538,7.812,5.3,5.3,0,0,0-.352.708c-5.113-4.155-12.276-9.527-16.632-12.755,1.477-3.15,3.058-5.924,4.642-8.646" transform="translate(-2459.645 -2000.127)"/><path class="o" d="M2522.752,2289.33l-3.574,5.363-3.456,5.475-3.319,5.586-3.164,5.7c-1.027,1.92-2,3.88-2.994,5.814-.975,1.95-1.872,3.956-2.8,5.925l-.346.741-.085.185-.022.046-.2.384-.036.085-.148.342-.322.706-.417.961c-.215.547-.4,1.03-.574,1.552a30.675,30.675,0,0,0-1.383,6.132,34.415,34.415,0,0,0,.478,10.754,45.912,45.912,0,0,0,2.558,8.391,76.153,76.153,0,0,0,6.945,12.895,206.923,206.923,0,0,0,15.594,20.158c5.25,6.164,10.535,12.054,15.17,17.843.123.155.241.311.364.465,5.174-4.255,12.945-10.083,17.521-13.473-4.216-7.075-8.554-13.544-12.611-19.967a180.205,180.205,0,0,1-11.019-19.291,41.217,41.217,0,0,1-3.058-8.165,10.3,10.3,0,0,1-.314-2.8,3.455,3.455,0,0,1,.76-1.825c1.068-1.458,2.082-2.931,3.177-4.366,1.118-1.427,2.2-2.862,3.331-4.271l3.474-4.177,3.609-4.092,3.736-4.013,3.312-3.385-28.329-28.33Z" transform="translate(-2499.684 -2021.588)"/><path class="o" d="M2587.269,2252.4a24.934,24.934,0,0,0-35.113,3.254l-.027.031-7.638,9.2c-2.579,3.1-5.2,6.27-7.806,9.487s-5.21,6.5-7.781,9.825-5.1,6.745-7.59,10.2l-1.825,2.61,28.33,28.328.541-.552,3.963-3.873q4.032-3.838,8.227-7.588c2.813-2.5,5.666-4.981,8.59-7.458l8.916-7.459,9.2-7.63a26.665,26.665,0,0,0,3.267-3.264,24.934,24.934,0,0,0-3.254-35.113" transform="translate(-2494.577 -2031.913)"/><path class="n" d="M2550.419,2370.494c-.12-.2-.24-.393-.361-.593-4.575,3.39-12.347,9.218-17.52,13.473a72.111,72.111,0,0,1,5.54,7.812,5.4,5.4,0,0,1,.351.708c5.113-4.155,12.276-9.527,16.632-12.755-1.477-3.15-3.058-5.924-4.642-8.646" transform="translate(-2491.211 -2000.127)"/><path class="c" d="M2578.216,2098.084s8.452,22.492-9.722,44.386l-3.9-15.5,8.752-27.336Z" transform="translate(-2482.945 -2070.225)"/><path class="c" d="M2631.919,2101.6s-3.348,17.4,5.58,40.09l8.41-5.016s-1.713-40.376-13.99-35.074" transform="translate(-2465.741 -2069.443)"/><path class="c" d="M2612.586,2160.4c-13.17,0-23.932-3.865-33.632-13.2-1.522-1.465-2.614-2.982-3.718-8.274l-7.906-10.228c0,5.022-1.141,20.028-1.173,20.76-1.593,35.86,23.784,50.493,48.27,50.493,23.182,0,42.948-11.458,44.356-44.921l-1.409-26.331-8,12.783c-.544,4.931-4.128,7.848-8.452,10.322-9.418,5.387-16.614,8.594-28.342,8.594" transform="translate(-2482.56 -2062.329)"/><path class="c" d="M2631.407,2164.055c0,11.4-10.42,20.647-23.276,20.647s-23.275-9.244-23.275-20.647,10.42-20.646,23.275-20.646,23.276,9.243,23.276,20.646" transform="translate(-2477.719 -2058.536)"/><path class="c" d="M2577.249,2148.12s-2.551-4.386-3.292-13.264a101.852,101.852,0,0,1,0-16.426l-6.882,12.919.779,15.1Z" transform="translate(-2482.305 -2064.978)"/><path class="c" d="M2632.213,2144.876s.726-4.992,1.116-10.545a123.337,123.337,0,0,0,.107-15.9l6.883,12.919-.517,17.408Z" transform="translate(-2465.507 -2064.978)"/><path class="c" d="M2587.48,2090.831l-2.617,6.331s3.337-4.711,13.32-1.756,27.988,1.771,33.231,3.939c4.8,1.985,7.315,3.412,11.044,8.139.349.441.707.912,1.08,1.414,4.358,5.881,0-7.17,0-7.17s-22.238-31.232-56.058-10.9" transform="translate(-2477.718 -2073.869)"/><path class="p" d="M2599.941,2117.439a13.765,13.765,0,0,0-6.35-1.609,10.951,10.951,0,0,0-6.229,1.765m39.159-3.292a13.767,13.767,0,0,0-6.351-1.608,10.95,10.95,0,0,0-6.228,1.766c-5.592,4.208-6.106,14.932-3.117,22.97.987,2.653,3.042,4.571,3.223,7.979.149,2.771-1.449,5.92-6.634,5.92-4.16,0-6.635-2.76-6.635-5.4" transform="translate(-2477.073 -2066.457)"/><rect class="q" width="6.113" height="8.151" rx="2.406" transform="translate(139.536 63.172)"/><rect class="q" width="6.113" height="8.151" rx="2.406" transform="translate(114.064 63.172)"/><path class="d" d="M2618.733,2152.076h-25.51s.671,9.409,12.355,9.409c11.711,0,13.155-9.409,13.155-9.409" transform="translate(-2475.562 -2056.301)"/><path class="d" d="M2686.2,2264.335c-.018-1.185.16-2.89.16-2.89-4.862-6.709-32.1-40.581-36.621-47.521l-32.253,9.849-32.627-9.852c-4.312,6.91-31.263,39.551-36.591,47.351,0,0-.226,1.547-.255,2.722-1.089,42.9-.345,87.989,1.722,153.5h134.442c1.214-55.322,2.836-99.986,2.025-153.159" transform="translate(-2487.351 -2040.352)"/><path class="q" d="M2596.595,2445.437h40.122c19.767,0,44.713-15.5,45.928-35.229.48-11.825.826-23.867,1.068-34.056H2549.272c.34,10.188.794,22.084,1.4,34.056,1.214,19.73,26.16,35.229,45.928,35.229" transform="translate(-2486.896 -1998.515)"/><path class="q" d="M2583.808,2701.537s-4.361-22.945-4.364-22.963c-14.548-75.615-25.014-191.966-28.945-269.01-1.021-15.963,8.033-29.732,24-30.754a28.962,28.962,0,0,1,30.753,27.053,31.7,31.7,0,0,1-.023,4.04c-5.717,83.327-2.351,206.749,1.253,290.048l.05,1.585Z" transform="translate(-2486.6 -1997.845)"/><path class="q" d="M2633.471,2701.537s4.36-22.945,4.364-22.963c14.547-75.615,25.014-191.966,28.945-269.01,1.021-15.963-8.034-29.732-24-30.754a28.962,28.962,0,0,0-30.753,27.053,31.835,31.835,0,0,0,.022,4.04c5.716,83.327,2.351,206.749-1.252,290.048l-.05,1.585Z" transform="translate(-2471.042 -1997.845)"/><path class="m" d="M2667.08,2265.353a21.5,21.5,0,0,0-.859-3.908c-4.862-6.71-32.1-40.581-36.62-47.521l-4.013,272.552h38.448c1.214-55.02,3.855-167.948,3.044-221.122" transform="translate(-2467.216 -2040.352)"/><path class="m" d="M2584.983,2213.92c-4.313,6.91-31.264,39.55-36.592,47.351,0,0-.885,6.668-.914,7.843-1.09,42.9.159,217.362.159,217.362h41.708Z" transform="translate(-2487.474 -2040.352)"/><path class="r" d="M2651.1,2221.753l-4.033,262.7m-75.928-262.7,4.033,262.7" transform="translate(-2481.256 -2038.332)"/><path class="q" d="M2607.575,2642.6l-.224-7.238h-22.7c-.942.576-6.847,3.8-14.346,8.935-4.464,3.054-21.466,5.273-22.512,7.379a6.43,6.43,0,0,0,4.235,9.069c.918.227,22.184-.455,23.732-.762,11.777-2.327,30.113-6.206,30.113-6.206,2.342-2.245,1.82-7.678,1.707-11.176" transform="translate(-2487.448 -1931.669)"/><line class="s" x2="35.741" transform="translate(116.844 446.124)"/><path class="t" d="M2573.394,2639.725h7.736m-10.883,2.356h7.736m-.721-4.676H2585" transform="translate(-2481.487 -1931.142)"/><g transform="translate(139.357 703.692)"><path class="q" d="M2610.6,2642.6l.224-7.238h22.7c.942.576,6.846,3.8,14.346,8.935,4.466,3.054,21.466,5.273,22.512,7.379a6.312,6.312,0,0,1,.467,1.284,6.43,6.43,0,0,1-4.7,7.785c-.918.227-22.184-.455-23.733-.762-11.776-2.327-30.113-6.206-30.113-6.206-2.342-2.245-1.82-7.678-1.707-11.176" transform="translate(-2610.471 -2635.361)"/></g><path class="t" d="M2635.387,2639.725h-7.736m10.883,2.356H2630.8m.721-4.676h-7.736" transform="translate(-2467.681 -1931.142)"/></g><g transform="translate(109.405 36.963)"><path class="c" d="M2878.261,2143.736c0-19.617-17.5-52.713-51.435-52.772-33.932.059-52.258,31.858-52.258,52.772,0,24.6,21.077,70.386,21.077,70.386s-.04,4.56,9.435,2.975a223.84,223.84,0,0,1,25.061-2.466c16.546-.008,42.783,20.165,42.783,20.165s-7.757-17.987-5.721-31.9c3.214-21.965,11.058-51.21,11.058-59.166" transform="translate(-2735.911 -2090.964)"/><path class="l" d="M2788.563,2238.944l36.275,57.845,35.887-57.611s-18.407-13.823-18.407-28.876c0-13.12,18.52-33.109,18.52-49.638H2788.03c0,16.89,17.814,35.221,17.814,49.644,0,15.265-17.281,28.637-17.281,28.637" transform="translate(-2732.441 -2072.99)"/><path class="l" d="M2872.483,2322.991c-1.491,2.822-3.068,5.4-4.463,7.729l-3.8,6.166-1.472,2.406c-.433.708-.8,1.319-1.109,1.865l-.931,1.621a9.786,9.786,0,0,0,16.663,10.251l.23-.351.791-1.2c.244-.384.594-.892,1.013-1.5s.885-1.291,1.466-2.1l4.234-5.938c1.663-2.379,3.551-5.1,5.544-8.241,1.668-2.624,3.421-5.526,5.113-8.727l-20.716-7.061c-.832,1.757-1.7,3.457-2.559,5.074" transform="translate(-2714.031 -2032.437)"/><path class="l" d="M2910.85,2300c-.289-1.391-.484-2.825-.878-4.181s-.765-2.729-1.147-4.088-.932-2.635-1.4-3.955l-.728-1.959c-.241-.656-.555-1.253-.83-1.882q-.864-1.861-1.719-3.707c-.6-1.211-1.276-2.34-1.912-3.5-.664-1.132-1.257-2.345-1.983-3.389q-1.061-1.607-2.1-3.19a112.845,112.845,0,0,0-8.814-11.259c-1.449-1.747-2.958-3.267-4.41-4.762s-2.845-2.982-4.261-4.238l-4.027-3.72c-1.265-1.187-2.624-2.252-3.823-3.287l-3.427-2.872-.775-.642c-.23-.179-.456-.355-.674-.526l-1.258-.978-4.991-3.916-.089-.072a16.851,16.851,0,0,0-1.74-1.18,16.636,16.636,0,1,0-16.908,28.655l5.464,3.224,1.368.815.736.438.654.424,2.853,1.854c1.017.688,2.131,1.305,3.258,2.165l3.581,2.629c1.292.892,2.465,1.927,3.746,2.964s2.62,2.1,3.833,3.288q.945.871,1.917,1.767c.319.3.656.6.969.909q.443.477.894.96l1.832,1.946c.3.331.634.653.924.993l.84,1.037q.855,1.039,1.722,2.1c.616.695,1.042,1.454,1.587,2.184.506.741,1.078,1.47,1.551,2.233l1.371,2.313c.221.39.493.77.678,1.17l.58,1.2c.371.8.835,1.595,1.145,2.417l.946,2.476c.346.825.5,1.679.77,2.52a38.3,38.3,0,0,1,1.478,10.387,49,49,0,0,1-1.177,10.585,65.569,65.569,0,0,1-3.3,10.121c-.556,1.38-1.159,2.719-1.779,4.028l20.715,7.059c.327-.617.654-1.228.975-1.869a88.162,88.162,0,0,0,5.428-13.159,72.8,72.8,0,0,0,3.159-15.614,63.038,63.038,0,0,0-.829-16.9" transform="translate(-2720.386 -2055.01)"/><path class="o" d="M2910.85,2300c-.289-1.391-.484-2.825-.878-4.181s-.765-2.729-1.147-4.088-.932-2.635-1.4-3.955l-.728-1.959c-.241-.656-.555-1.253-.83-1.882q-.864-1.861-1.719-3.707c-.6-1.211-1.276-2.34-1.912-3.5-.664-1.132-1.257-2.345-1.983-3.389q-1.061-1.607-2.1-3.19a112.845,112.845,0,0,0-8.814-11.259c-1.449-1.747-2.958-3.267-4.41-4.762s-2.845-2.982-4.261-4.238l-4.027-3.72c-1.265-1.187-2.624-2.252-3.823-3.287l-3.427-2.872-.775-.642c-.23-.179-.456-.355-.674-.526l-1.258-.978-4.991-3.916-.089-.072a16.851,16.851,0,0,0-1.74-1.18,16.636,16.636,0,1,0-16.908,28.655l5.464,3.224,1.368.815.736.438.654.424,2.853,1.854c1.017.688,2.131,1.305,3.258,2.165l3.581,2.629c1.292.892,2.465,1.927,3.746,2.964s2.62,2.1,3.833,3.288q.945.871,1.917,1.767c.319.3.656.6.969.909q.443.477.894.96l1.832,1.946c.3.331.634.653.924.993l.84,1.037q.855,1.039,1.722,2.1c.616.695,1.042,1.454,1.587,2.184.506.741,1.078,1.47,1.551,2.233l1.371,2.313c.221.39.493.77.678,1.17l.58,1.2c.371.8.835,1.595,1.145,2.417l.946,2.476c.346.825.5,1.679.77,2.52a38.3,38.3,0,0,1,1.478,10.387,49,49,0,0,1-1.177,10.585,65.569,65.569,0,0,1-3.3,10.121c-.556,1.38-1.159,2.719-1.779,4.028l20.715,7.059c.327-.617.654-1.228.975-1.869a88.162,88.162,0,0,0,5.428-13.159,72.8,72.8,0,0,0,3.159-15.614,63.038,63.038,0,0,0-.829-16.9" transform="translate(-2720.386 -2055.01)"/><path class="l" d="M2743.845,2412.215a4.395,4.395,0,0,1,.1-.6c.341-6.459,1.81-13.345,2.752-20a81.69,81.69,0,0,0,.7-15.047l17.2,2.732-.268,7.35c-1.085,7.636.668,9.155,2.552,12.98l.5.617c.3.389.63.826,1,1.306s.729,1.015,1.1,1.58c.382.548.752,1.193,1.131,1.85s.727,1.4,1.075,2.129a21.616,21.616,0,0,1,.878,2.379,12.071,12.071,0,0,1,.331,1.237c.1.416.192.826.247,1.239a21.015,21.015,0,0,1,.251,2.376c.028.75.035,1.455.011,2.1s-.054,1.229-.085,1.758l-.22,3.35-.008.127a3.005,3.005,0,0,1-5.986.128s-.151-1.389-.379-3.469c-.027-.24-.064-.5-.094-.747a29.789,29.789,0,0,1-2.278,3.954c0,.031,0,.058,0,.089.082.75.133,1.561.244,2.373.151.785.238,1.646.444,2.447a19.481,19.481,0,0,0,.678,2.389,18.3,18.3,0,0,0,.916,2.215l.572.976a10.363,10.363,0,0,0,.626.893,6.315,6.315,0,0,0,.676.8l.342.381.373.333a12.487,12.487,0,0,0,1.5,1.172,16.992,16.992,0,0,0,1.474.861c.446.253.905.441,1.25.613l1.173.517.059.026a2.727,2.727,0,0,1-1.917,5.1l-1.333-.419c-.44-.16-.961-.308-1.585-.567-.621-.229-1.321-.547-2.088-.924-.205-.109-.417-.225-.63-.344a2.661,2.661,0,0,1-.418.734,2.725,2.725,0,0,1-3.836.385l-.041-.034s-.378-.308-1.039-.849l-.769-.624a2.72,2.72,0,0,1-3.609,1.065l-.288-.149c-.191-.1-.458-.227-.823-.437-.263-.147-.581-.332-.922-.545a2.7,2.7,0,0,1-2.849.116l-.335-.19a9.51,9.51,0,0,1-.94-.583,9.8,9.8,0,0,1-1.38-1.136,7.607,7.607,0,0,1-.748-.813,7.25,7.25,0,0,1-.722-.966,8.723,8.723,0,0,1-.655-1.087,11.44,11.44,0,0,1-.573-1.175,23.391,23.391,0,0,1-.911-2.507c-.229-.846-.473-1.732-.642-2.6-.2-.884-.332-1.751-.488-2.634-.272-1.746-.477-3.469-.643-5.077-.029-.288-.054-.567-.081-.847a34.707,34.707,0,0,1-.545-7.268c-.02-.289-.031-.463-.031-.463a4.668,4.668,0,0,1,0-.579" transform="translate(-2743.837 -2017.31)"/><path class="l" d="M2867.343,2144.384a41.825,41.825,0,0,0-83.649,0c0,8,5.421,26.605,5.421,29.092a36.4,36.4,0,0,0,72.808,0c0-2.487,5.42-21.091,5.42-29.092" transform="translate(-2733.558 -2087.974)"/><path class="p" d="M2840.21,2133.237a15.433,15.433,0,0,0-6.545-1.5,13.556,13.556,0,0,0-6.5,1.641m13.046-.146a15.433,15.433,0,0,0-6.545-1.5,13.556,13.556,0,0,0-6.5,1.641c-2.711,1.618-6.777,6.457-2.786,21.149.751,2.766,1.8,4.339,1.668,6.963a4.442,4.442,0,0,1-3.521,4.261,7.73,7.73,0,0,1-5.4-.647m-3.146-31.871a15.438,15.438,0,0,0-6.545-1.5,15.619,15.619,0,0,0-6.875,1.641" transform="translate(-2729.207 -2080.449)"/><path class="q" d="M2829.2,2149.866h0a2.823,2.823,0,0,1-2.814-2.814v-2.3a2.814,2.814,0,1,1,5.628,0v2.3a2.823,2.823,0,0,1-2.814,2.814" transform="translate(-2722.548 -2077.819)"/><path class="q" d="M2806.48,2149.866h0a2.823,2.823,0,0,1-2.814-2.814v-2.3a2.814,2.814,0,1,1,5.628,0v2.3a2.823,2.823,0,0,1-2.814,2.814" transform="translate(-2728.407 -2077.819)"/><path class="p" d="M2801.5,2162.592c7.068,8.826,15.4,11.049,24.48,10.227" transform="translate(-2728.965 -2072.493)"/><path class="c" d="M2810.556,2419.286h38.46c18.949,0,42.863-1.234,44.026-20.964a108.014,108.014,0,0,0-.618-18.773H2767.447s-1.493,6.8-.917,18.773c1.165,19.73,25.077,20.964,44.026,20.964" transform="translate(-2738.019 -2016.543)"/><path class="l" d="M2846.781,2612.308l-1.647-13.212h20.341c-.222.9-.643,14.822-.643,14.822h-18.106Z" transform="translate(-2717.714 -1959.925)"/><path class="l" d="M2846.4,2610.881h19.169c.839.513,12.168,5.069,18.842,9.635h-18.469s-6.4-.513-19.541-9.635" transform="translate(-2717.386 -1956.886)"/><path class="u" d="M2846.457,2610.881h.014c13.14,9.122,19.542,9.635,19.542,9.635h18.468c3.972,2.718,7.377,2.383,8.31,4.257a5.658,5.658,0,0,1,.415,1.143,5.722,5.722,0,0,1-4.184,6.926,21.438,21.438,0,0,1-2.361.415c-.765.09-1.511.141-2.26.2-1.482.08-9.406.058-10.809-.034s-2.771.216-4.113,0-21.7-6.157-21.7-6.157c-2.083-2-1.619-6.833-1.518-9.945Z" transform="translate(-2717.453 -1956.886)"/><path class="l" d="M2822.4,2612.308l-1.265-13.212h-19.1c.221.9.868,4.567.868,4.567l1.4,10.254h18.156Z" transform="translate(-2728.829 -1959.925)"/><path class="l" d="M2825.847,2610.881H2807.7c-.839.513-12.169,5.069-18.842,9.635h18.468s5.384-.513,18.523-9.635" transform="translate(-2732.227 -1956.886)"/><path class="u" d="M2827.683,2610.881h-.014c-13.14,9.122-18.522,9.635-18.522,9.635h-18.469c-3.973,2.718-7.378,2.383-8.31,4.257a5.724,5.724,0,0,0,3.77,8.069,21.384,21.384,0,0,0,2.36.415c.765.09,1.511.141,2.262.2,1.48.08,9.406.058,10.808-.034s2.771.216,4.113,0,20.683-6.157,20.683-6.157c2.084-2,1.62-6.833,1.519-9.945Z" transform="translate(-2734.051 -1956.886)"/><path class="k" d="M2857.159,2352.481a28.752,28.752,0,0,1,2.018-7.876,81.872,81.872,0,0,1,5.626-11.086c.108-.184.219-.356.327-.538,4.158,3.081,11.221,8.376,15.922,12.244a65.227,65.227,0,0,0-5.034,7.1,4.668,4.668,0,0,0-.472,2.3,12.987,12.987,0,0,0,1.265,1.411c.453.364.637.619,1,.87.371.271.667.562,1.132.951.414.347.837.75,1.305,1.175.152-.145.271-.29.425-.434.526-.482,1.031-.969,1.578-1.424a17.879,17.879,0,0,1,1.615-1.279l1.576-1.056a6.132,6.132,0,0,1,6.464-.19,17.2,17.2,0,0,0-8.936,7.112c-.146-.344-.293-.676-.44-.986a.85.85,0,0,0-1.536.73c1.366,2.874,2.787,7.253,1.649,15.681a.85.85,0,0,0,.728.956.924.924,0,0,0,.115.007.849.849,0,0,0,.841-.736,44.828,44.828,0,0,0,.425-5.625c.292-.345.643-.793,1.08-1.4a51.514,51.514,0,0,1,5.719-7.081,10.311,10.311,0,0,1,3.42-2.027c-.017.488-.052.961-.093,1.428a27.4,27.4,0,0,1-.395,2.8,33.682,33.682,0,0,1-1.467,5.229,30.817,30.817,0,0,1-2.426,5.113,21.492,21.492,0,0,1-2.078,2.9c-.249.292-.522.578-.876.923a13.241,13.241,0,0,1-1.384,1.174,11.4,11.4,0,0,1-3.259,1.693c-.2.068-.495.156-.8.23s-.583.132-.924.186a10.626,10.626,0,0,1-2.582.084,10.185,10.185,0,0,1-1.55-.251c-.278-.068-.555-.146-.826-.235l-.405-.139-.2-.077-.295-.124a10.8,10.8,0,0,1-2.224-1.3l-.287-.222-2.521-2.222c-.574-.548-1.161-1.07-1.726-1.638a48.491,48.491,0,0,1-3.342-3.646c-.554-.673-1.107-1.382-1.675-2.187a30.443,30.443,0,0,1-1.7-2.686,19.443,19.443,0,0,1-1.369-3.048,13.955,13.955,0,0,1-.568-2.205,13.625,13.625,0,0,1-2.331-4.62,16.339,16.339,0,0,1-.5-5.953" transform="translate(-2714.632 -2028.552)"/><path class="k" d="M2879.172,2364.066a24,24,0,0,0-.87-4.791.945.945,0,0,0,.208-.256,15.248,15.248,0,0,1,9.39-7.578.916.916,0,0,0,.214-.092,6.108,6.108,0,0,1,1.341,3.216,12.276,12.276,0,0,0-4.646,2.605,48.007,48.007,0,0,0-5.638,6.895" transform="translate(-2709.161 -2023.815)"/><path class="l" d="M2857.159,2352.481a28.752,28.752,0,0,1,2.018-7.876,81.872,81.872,0,0,1,5.626-11.086c.108-.184.219-.356.327-.538,4.158,3.081,11.221,8.376,15.922,12.244a65.227,65.227,0,0,0-5.034,7.1,4.668,4.668,0,0,0-.472,2.3,12.987,12.987,0,0,0,1.265,1.411c.453.364.637.619,1,.87.371.271.667.562,1.132.951.414.347.837.75,1.305,1.175.152-.145.271-.29.425-.434.526-.482,1.031-.969,1.578-1.424a17.879,17.879,0,0,1,1.615-1.279l1.576-1.056a6.132,6.132,0,0,1,6.464-.19,17.2,17.2,0,0,0-8.936,7.112c-.146-.344-.293-.676-.44-.986a.85.85,0,0,0-1.536.73c1.366,2.874,2.787,7.253,1.649,15.681a.85.85,0,0,0,.728.956.924.924,0,0,0,.115.007.849.849,0,0,0,.841-.736,44.828,44.828,0,0,0,.425-5.625c.292-.345.643-.793,1.08-1.4a51.514,51.514,0,0,1,5.719-7.081,10.311,10.311,0,0,1,3.42-2.027c-.017.488-.052.961-.093,1.428a27.4,27.4,0,0,1-.395,2.8,33.682,33.682,0,0,1-1.467,5.229,30.817,30.817,0,0,1-2.426,5.113,21.492,21.492,0,0,1-2.078,2.9c-.249.292-.522.578-.876.923a13.241,13.241,0,0,1-1.384,1.174,11.4,11.4,0,0,1-3.259,1.693c-.2.068-.495.156-.8.23s-.583.132-.924.186a10.626,10.626,0,0,1-2.582.084,10.185,10.185,0,0,1-1.55-.251c-.278-.068-.555-.146-.826-.235l-.405-.139-.2-.077-.295-.124a10.8,10.8,0,0,1-2.224-1.3l-.287-.222-2.521-2.222c-.574-.548-1.161-1.07-1.726-1.638a48.491,48.491,0,0,1-3.342-3.646c-.554-.673-1.107-1.382-1.675-2.187a30.443,30.443,0,0,1-1.7-2.686,19.443,19.443,0,0,1-1.369-3.048,13.955,13.955,0,0,1-.568-2.205,13.625,13.625,0,0,1-2.331-4.62,16.339,16.339,0,0,1-.5-5.953" transform="translate(-2714.632 -2028.552)"/><path class="l" d="M2879.172,2364.066a24,24,0,0,0-.87-4.791.945.945,0,0,0,.208-.256,15.248,15.248,0,0,1,9.39-7.578.916.916,0,0,0,.214-.092,6.108,6.108,0,0,1,1.341,3.216,12.276,12.276,0,0,0-4.646,2.605,48.007,48.007,0,0,0-5.638,6.895" transform="translate(-2709.161 -2023.815)"/><path class="o" d="M2806.2,2233.8a16.618,16.618,0,0,0-23.29,3.151l-1.254,1.647-.684.9-.193.253c-.065.087-.125.16-.237.324q-.3.432-.619.9c-.835,1.232-1.841,2.723-2.8,4.3q-1.119,2.072-2.468,4.575c-.765,1.634-1.593,3.4-2.433,5.287-.737,1.855-1.579,3.849-2.34,5.914-.711,2.056-1.566,4.238-2.234,6.472-.717,2.241-1.456,4.575-2.1,6.97-.7,2.4-1.336,4.873-1.972,7.409-.673,2.538-1.209,5.13-1.839,7.782-.567,2.649-1.147,5.352-1.688,8.1-1.065,5.487-2.093,11.143-2.987,16.878-.916,5.739-1.758,11.551-2.543,17.359-3.107,23.23-5.042,46.377-6.268,63.723l-.019.264,19.908,2.479c.028-.181.053-.352.081-.535,2.567-16.956,6.289-39.5,11.071-61.621,1.2-5.523,2.447-11.027,3.8-16.384,1.321-5.373,2.748-10.59,4.179-15.6.722-2.5,1.47-4.93,2.2-7.31.779-2.341,1.473-4.68,2.265-6.863.763-2.206,1.51-4.345,2.3-6.349.746-2.044,1.54-3.935,2.3-5.748.728-1.851,1.551-3.453,2.258-5.065.734-1.572,1.5-2.946,2.178-4.3q1.081-1.857,2.019-3.466.963-1.424,1.762-2.61c.437-.52.739-.857,1.008-1.238.066-.091.127-.179.186-.263a1.685,1.685,0,0,1,.172-.2l.215-.234.765-.83,1.4-1.521.078-.084q.513-.558.981-1.174a16.618,16.618,0,0,0-3.151-23.29" transform="translate(-2742.704 -2055.007)"/><path class="o" d="M2747.236,2382.709c-.308,5.034-.484,7.91-.484,7.91a8.977,8.977,0,0,0,17.857,1.753s.387-2.848,1.065-7.833c.67-4.868,1.616-11.775,2.853-20.017l-19.908-2.478c-.614,8.55-1.074,15.673-1.383,20.665" transform="translate(-2743.089 -2021.057)"/><path class="c" d="M2820.19,2424.146l-2.1-16.4a30.864,30.864,0,0,1-.223-4.1c.311-16.251,14.408-29.248,31.487-29.032s30.675,13.567,30.364,29.819l-.316,16.532c-.059,5.414-.334,11.283-.526,16.954-1.211,32.968-3.643,185.416-6.371,219.069h-20.341s-24.69-179.3-31.973-232.842" transform="translate(-2724.747 -2017.817)"/><path class="c" d="M2825.758,2574.885c-.274-5.469-.49-10.931-.7-16.387-.234-5.459-.4-10.914-.551-16.362l-.24-8.172-.147-8.164c-.1-5.441-.212-10.878-.212-16.311s-.116-.671-.028-6.093l.164-16.253.406-16.219c.141-5.4.433-10.792.641-16.181.127-2.686.2-5.407.37-8.059l.494-7.958c.349-5.338.595-10.483,1.083-16.072l1.311-16.484a30.854,30.854,0,0,0,.025-4.1c-1.092-16.218-15.8-28.523-32.847-27.485s-29.987,15.026-28.9,31.244l1.11,16.5c.32,5.406.877,11.254,1.34,16.91,2.795,32.871,9.511,55.4,14.892,87.946,5.358,32.413,19.344,98.13,27.2,129.831h19.1l-3.7-65.705Z" transform="translate(-2737.974 -2017.84)"/><path class="d" d="M2870.589,2303.4c.986-10.493,9.71-14.616,9.71-34.483,0-6.208-3.969-13.876-7.709-22.495-.862-1.988,2.827-8.328,5.544-11.383l-12.8-11.355c-6.678,12.882-23.866,33.666-35.571,34.958-11.7-1.292-26.746-20.668-35.57-34.958l-12.8,11.355c2.716,3.055,6.406,9.4,5.544,11.383-3.741,8.619-7.71,16.287-7.71,22.495,0,19.868,8.87,23.978,9.71,34.483,4.173,52.11-14.13,69.764-21.926,117.15H2893c-7.747-52.482-27.47-63.246-22.406-117.15" transform="translate(-2737.862 -2056.738)"/><path class="o" d="M2804.833,2213.878l-23.283,23.69c2.717,3.057,6.406,9.4,5.545,11.383-3.741,8.619-7.64,16.287-7.709,22.495-.439,39.01,4.715,61.609,2.674,81.511-3.817,37.246-15.662,54.839-15.662,81.02h38.436Z" transform="translate(-2738.019 -2059.267)"/><path class="o" d="M2875.533,2433.977c0-28.785-12.3-46.428-16.132-81.02-2.22-20.019,3.376-47.449,2.922-81.511-.083-6.208-3.969-13.876-7.71-22.495-.863-1.988,2.827-8.327,5.545-11.384l-23.45-23.688v220.1Z" transform="translate(-2719.886 -2059.267)"/><path class="o" d="M2852.664,2230.111l-15.955-16.233v220.1l10.841.075,5.114-166.428-10.711-10.552Z" transform="translate(-2719.886 -2059.267)"/><path class="o" d="M2784.263,2230.111l15.955-16.233v220.1l-10.842.075-5.113-166.428,10.711-10.552Z" transform="translate(-2733.411 -2059.267)"/><path class="c" d="M2797.147,2587.654l3.731,13.384a4.675,4.675,0,0,0,4.5,3.419h14.107a4.675,4.675,0,0,0,4.675-4.674v-12.956a3.083,3.083,0,0,0-3.082-3.082h-20.964a3.082,3.082,0,0,0-2.969,3.91" transform="translate(-2730.119 -1963.884)"/><path class="c" d="M2841.347,2587.462l2.8,13.284a4.675,4.675,0,0,0,4.573,3.708h15.454a4.674,4.674,0,0,0,4.663-4.348l.911-13.067a3.081,3.081,0,0,0-3.074-3.3h-22.316a3.082,3.082,0,0,0-3.015,3.718" transform="translate(-2718.708 -1963.884)"/><path class="c" d="M2819.993,2099.717c-.465,8.49-22.432,6.074-20.4,11.038,16.717,40.926,49.235,16.7,58.332,64.492,0,7.48-4.135,27.017-7.4,32.774,0,0,9.383,18.567,15.977,24.83,0-31.245,5.955-54.2,5.337-91.061,0,0-11.3-51.753-51.846-42.073" transform="translate(-2729.493 -2089.019)"/><path class="c" d="M2829.456,2102.568c.465,8.491-22.173,2.111-22.173,7.472,0,27.171-15.981,34.691-15.988,65.384.527,9.3,15.057,39.014,15.057,39.014-11.265,5.438-20.683,2.182-22.635-2.4a8.754,8.754,0,0,0,3.307-5.54c-11.182,4.585-17.38-9.933-17.38-9.933,7.684,1.316,17.05-1.806,7.666-55.486,0,0,11.6-48.187,52.147-38.507" transform="translate(-2737.182 -2088.303)"/><path class="l" d="M2784.635,2145.592a8.348,8.348,0,1,0,8.349,8.347,8.349,8.349,0,0,0-8.349-8.347" transform="translate(-2735.468 -2076.877)"/></g><g transform="translate(17 214.976)"><path class="l" d="M2714.667,2634.331s-21.937-119.278-20.832-163.532c.231-9.192,7.879-17.359,18.6-18.262s19.783,5.81,20.233,14.993a15.738,15.738,0,0,1-.075,2.33c-5.062,48.151-3.1,164.472-3.1,164.472Z" transform="translate(-2667.446 -2219.128)"/><path class="l" d="M2745.615,2634.312s20.9-119.26,19.794-163.515c-.229-9.19-7.877-17.357-18.6-18.26s-19.783,5.81-20.233,14.993a15.777,15.777,0,0,0,.074,2.33c5.062,48.151,4.138,164.453,4.138,164.453Z" transform="translate(-2658.997 -2219.128)"/><path class="c" d="M2756.818,2277.819c5.831-1.9,14.812-2.75,21.807,10.081,2.589,4.749,1.848,10.212,2.569,18.314.37,4.16,6.741,11.644,8.731,18.218,6.246,20.635-5,34.866-5.016,38.781-.018,3.838,3.566,4.841,5.094,0,3.566,7.205,1.461,11.387-1.941,13.048a16.63,16.63,0,0,0-7.418,8.221c-1.27,2.72-3.935,4.835-8.376,4.2-8.346-1.189-.016,7.674-8.612,12.223-19.152,10.139-17.237-17.871-33.738-11.2-7.171,2.9,7.333,6.695-1.2,12.584-6.1,4.214-18.428,4.436-19.775-3.417-1.293-7.541-10.478-2.205-15.534-8.224-4.969-5.917-.238-12.367-4-12.585-11.347-.655-10.585-10.4-8.716-14.141,1.839,1.131,10.966-.361,7.521-7.056-1.19-2.312-10.189-5.022-5.372-16.666,2.231-5.391,11.356-6.527,10.761-16.529-.95-15.994,63.211-45.848,63.211-45.848" transform="translate(-2671.106 -2264.445)"/><path class="o" d="M2672.848,2292.312s14.583-10.048,20.005-10.132a9.818,9.818,0,0,1,.307,19.635c-5.421.085-20.312-9.5-20.312-9.5" transform="translate(-2672.848 -2263.039)"/><path class="o" d="M2678.018,2275.47s17.7.625,22.1,3.79a9.819,9.819,0,0,1-11.458,15.948c-4.4-3.163-10.644-19.737-10.644-19.737" transform="translate(-2671.515 -2264.77)"/><path class="v" d="M2699.561,2291.343s1.127-5.96-14.064-11.55c0,0,2.7,12.341,14.064,11.55" transform="translate(-2669.586 -2263.654)"/><path class="l" d="M2729.918,2597.028h14.828c.617.376,8.938,3.723,13.838,7.077h-13.565s-5.45-.377-15.1-7.077" transform="translate(-2658.131 -2181.844)"/><path class="c" d="M2729.956,2597.028h.01c9.65,6.7,15.1,7.077,15.1,7.077h13.565c2.918,2,5.419,1.75,6.1,3.126a4.158,4.158,0,0,1,.3.84,4.2,4.2,0,0,1-3.073,5.087,15.755,15.755,0,0,1-1.733.3c-.561.066-1.11.1-1.661.148-1.088.059-6.909.042-7.938-.026s-2.035.159-3.021,0-16.687-4.522-16.687-4.522c-1.531-1.467-1.19-5.018-1.116-7.3Z" transform="translate(-2658.18 -2181.844)"/><path class="l" d="M2728.045,2597.043h-14.828c-.616.376-8.937,3.723-13.838,7.077h13.565s5.451-.377,15.1-7.077" transform="translate(-2666.006 -2181.841)"/><path class="c" d="M2729.4,2597.043h-.01c-9.65,6.7-15.1,7.077-15.1,7.077H2700.72c-2.918,2-5.419,1.75-6.1,3.126a4.155,4.155,0,0,0-.3.841,4.2,4.2,0,0,0,3.073,5.086,15.451,15.451,0,0,0,1.734.3c.561.066,1.109.1,1.66.148,1.088.058,6.909.042,7.938-.027a30.05,30.05,0,0,0,3.021,0c.982-.168,16.687-4.522,16.687-4.522,1.531-1.467,1.19-5.017,1.115-7.3Z" transform="translate(-2667.345 -2181.841)"/><path class="c" d="M2689.2,2310.548c.194-20.349,25.515-36.8,45.168-36.8,25,0,45.177,16.608,45.177,37.092v20.509c0,20.486-20.178,37.092-45.177,37.092-23.669,0-43.041-14.89-45.04-33.861Z" transform="translate(-2668.632 -2265.213)"/><path class="c" d="M2736.376,2284.168c-8.364,21.428,25.235,32.664,13.164,46.8l15.211-4.988-7.595-33.473Z" transform="translate(-2656.814 -2262.526)"/><path class="l" d="M2748.4,2372c-4.317-19.714,5.946-14.45,13.974-33.264l-30.934,2.826-30.44-3.953c6.053,15.428,18.086,14.564,14.622,34.448-1.191,6.833-12.472,14.17-12.472,14.17l29.849,43.761,26.721-43.793s-9.812-7.3-11.319-14.194" transform="translate(-2665.589 -2248.745)"/><path class="l" d="M2767.449,2318.742c0-17.272-6.739-32.934-34.562-32.934-25.807,0-34.568,14.77-34.568,33.225,0,1.413-.237,14.473-.237,15.886,0,19.107,15.833,37.953,34.8,37.953,16.9,0,33.7-15.7,34.558-37.953Z" transform="translate(-2666.34 -2262.104)"/><path class="c" d="M2750.518,2299.247c-11.49-3.3-7.776,1.543-17.142,6.8-3.427,1.923-10.438.4-13.711,2.439-19.386,12.1-7.73,24.686-18.334,26.222-2.485.359-10.493,4.828-13.048,3.48-3.139-1.654-9.427-14.1-2.295-25.69,5.8-9.423,8.129-10.729,10.54-25.728,1.769-11,18.117-15.3,26.752-18.228,21.389-7.252,35.033,11.726,27.238,30.7" transform="translate(-2670.303 -2266.963)"/><path class="l" d="M2705.74,2323.567a8.109,8.109,0,0,0-8.086-8.234,8.427,8.427,0,0,0-8.457,8.234,8.669,8.669,0,0,0,7.688,8.218l8.327-.17s.527-7.392.527-8.048" transform="translate(-2668.632 -2254.489)"/><path class="w" d="M2742.844,2308.711a11.939,11.939,0,0,0-5.507-1.4,9.5,9.5,0,0,0-5.4,1.532m.092,20.435c.128,2.4-1.258,5.133-5.754,5.133a6.432,6.432,0,0,1-3.758-1.108" transform="translate(-2660.04 -2256.557)"/><path class="x" d="M2720.884,2308.711a11.937,11.937,0,0,0-5.507-1.4,9.5,9.5,0,0,0-5.4,1.531" transform="translate(-2663.273 -2256.557)"/><path class="q" d="M2736.816,2322.725h0a2.632,2.632,0,0,1-2.624-2.624v-2.144a2.624,2.624,0,0,1,5.248,0v2.144a2.632,2.632,0,0,1-2.624,2.624" transform="translate(-2657.028 -2254.489)"/><path class="q" d="M2714.856,2322.725h0a2.632,2.632,0,0,1-2.624-2.624v-2.144a2.624,2.624,0,0,1,5.248,0v2.144a2.631,2.631,0,0,1-2.624,2.624" transform="translate(-2662.691 -2254.489)"/><g transform="translate(12.55 14.549)"><path class="o" d="M2735.893,2278.529s24.5,6.283,23.419,31.613l-2.1.646c-.119.549-4.566-22.073-22.125-26.891l.71-3.916" transform="translate(-2669.347 -2278.529)"/><path class="c" d="M2734.359,2284.049c-.215,11.988,5.431,28.163,13.1,37.314,6.092,7.271,10.371,6.853,10.371,6.853,3.216-3.439,5.815-10.311,4.759-14.9l-2.2-6.18a34.709,34.709,0,0,0-19.778-20.579Z" transform="translate(-2669.537 -2277.106)"/><path class="y" d="M2715.638,2336.271c8.883,5.347,20.158,4.982,26.815-1.557" transform="translate(-2674.363 -2264.04)"/><path class="l" d="M2717.2,2401.177l-.819.692-.448.377-.126.106-.064.056c-.014.011.005,0,.005,0a.392.392,0,0,0,.058-.044.354.354,0,0,0,.089-.133.348.348,0,0,0,.021-.088.145.145,0,0,0,0-.046l-.048.058a6.016,6.016,0,0,0-1.127,1.488,16.343,16.343,0,0,0-1.443,3.46,42.952,42.952,0,0,0-1.211,5.518c-.306,2.148-.558,4.518-.713,7.07-.14,2.56-.245,5.252-.25,8.064-.024,2.8.02,5.692.1,8.613.148,5.838.412,11.786.618,17.417s.362,10.941.4,15.525-.03,8.434-.125,11.136-.186,4.253-.186,4.253a6.908,6.908,0,0,1-13.786.156l0-.067s-.11-1.429-.342-3.929-.649-6.09-1.254-10.412-1.417-9.385-2.344-14.859-1.965-11.36-2.914-17.377c-.477-3.005-.922-6.049-1.321-9.1s-.72-6.106-.965-9.125-.341-6.056-.328-9.014a68.144,68.144,0,0,1,.664-8.766,42.562,42.562,0,0,1,2.024-8.2,33.226,33.226,0,0,1,3.3-6.772l.214-.347c.1-.138.2-.275.3-.41l.589-.786c.386-.5.761-.97,1.115-1.4l.519-.61c.1-.112.194-.219.286-.321l.391-.434.717-.8a13.277,13.277,0,1,1,18.486,18.985Z" transform="translate(-2681.319 -2252.943)"/><path class="l" d="M2718.527,2401.339s-.3.248-.87.715l-.475.388a2.889,2.889,0,0,0-.278.243,2.205,2.205,0,0,1-.182.145l-.112.072-.062.037-.1.108c-.288.317-.624.618-.986,1.028-.352.45-.769.852-1.175,1.431-.414.557-.87,1.137-1.313,1.843-.468.664-.919,1.435-1.4,2.244a53.411,53.411,0,0,0-2.816,5.611,68.542,68.542,0,0,0-2.566,6.839c-.795,2.444-1.443,5.045-2.042,7.716-.537,2.679-1,5.436-1.282,8.214a77.473,77.473,0,0,0-.431,8.318,74.294,74.294,0,0,0,.427,8.041,66.3,66.3,0,0,0,1.248,7.391c.239,1.17.547,2.281.858,3.355.276,1.089.643,2.1.971,3.08.307.995.7,1.9,1.044,2.779l.515,1.281.55,1.173c.676,1.546,1.407,2.81,1.977,3.88s1.123,1.839,1.452,2.4l.523.848.278.45a6.887,6.887,0,0,1-11.2,7.975l-.794-.974c-.5-.646-1.311-1.548-2.208-2.79s-2.012-2.744-3.115-4.574q-.428-.679-.882-1.4-.417-.741-.856-1.524c-.579-1.049-1.213-2.147-1.762-3.338-.573-1.182-1.192-2.412-1.716-3.723-.561-1.3-1.122-2.656-1.61-4.074a83.373,83.373,0,0,1-2.727-9.034,92.274,92.274,0,0,1-1.794-9.892,96.888,96.888,0,0,1-.767-10.336c-.088-3.475.052-6.951.283-10.38.3-3.421.685-6.8,1.284-10.05a91.583,91.583,0,0,1,2.168-9.383,77.519,77.519,0,0,1,2.9-8.406c.546-1.3,1.079-2.552,1.677-3.743.551-1.189,1.181-2.322,1.77-3.386.567-1.062,1.254-2.067,1.819-2.988.6-.924,1.252-1.78,1.8-2.545l.212-.287.271-.328.523-.623.972-1.12c.712-.8.88-.962,1.162-1.268l.772-.821a13.274,13.274,0,1,1,19.344,18.184,13.492,13.492,0,0,1-1.2,1.126Z" transform="translate(-2682.825 -2252.935)"/><path class="l" d="M2758.473,2381.958l.771.821c.282.305.452.463,1.163,1.268l.971,1.119c.17.2.344.41.525.624l.269.327.212.287c.548.765,1.195,1.62,1.8,2.544.565.921,1.251,1.927,1.817,2.989.59,1.063,1.221,2.2,1.77,3.385.6,1.191,1.132,2.442,1.678,3.743a77.679,77.679,0,0,1,2.9,8.406,91.35,91.35,0,0,1,2.17,9.383c.6,3.255.988,6.629,1.284,10.051.23,3.428.37,6.9.282,10.379a96.952,96.952,0,0,1-.766,10.336,92.317,92.317,0,0,1-1.795,9.893,83.321,83.321,0,0,1-2.726,9.032c-.49,1.419-1.05,2.774-1.612,4.076-.523,1.311-1.144,2.54-1.716,3.722-.548,1.191-1.183,2.29-1.761,3.338l-.856,1.524-.882,1.4c-1.1,1.829-2.225,3.327-3.116,4.572s-1.7,2.145-2.208,2.79l-.793.974a6.888,6.888,0,0,1-11.2-7.974l.279-.451s.184-.294.524-.848.876-1.336,1.45-2.4,1.3-2.334,1.978-3.879q.268-.57.551-1.175.251-.623.515-1.281c.347-.878.737-1.784,1.045-2.779.327-.983.7-1.991.971-3.08.311-1.073.618-2.183.858-3.355a66.609,66.609,0,0,0,1.248-7.39,74.074,74.074,0,0,0,.427-8.042,77.367,77.367,0,0,0-.43-8.319c-.278-2.778-.745-5.535-1.283-8.214-.6-2.671-1.246-5.272-2.041-7.716a68.661,68.661,0,0,0-2.567-6.839,52.691,52.691,0,0,0-2.816-5.611c-.478-.809-.931-1.579-1.4-2.243-.443-.707-.9-1.286-1.313-1.843-.408-.578-.824-.982-1.175-1.431-.362-.412-.7-.712-.987-1.03l-.1-.108-.063-.037-.111-.073a1.82,1.82,0,0,1-.182-.145,3.092,3.092,0,0,0-.278-.241l-.476-.39c-.568-.465-.87-.715-.87-.715l-.031-.024a13.275,13.275,0,1,1,16.832-20.531,14.366,14.366,0,0,1,1.257,1.173" transform="translate(-2669.234 -2252.936)"/><path class="z" d="M2768.931,2382.847s-6.337-5.023-12.685-11.026c-1.473,1.443-23.028,6.752-23.028,6.752s-21.847-5.289-23.389-6.743c-6.329,5.972-13,11.269-13,11.269s4.288,46.958,1.586,58.676h69.366c-2.474-19.528,1.152-58.927,1.152-58.927" transform="translate(-2679.215 -2254.471)"/></g><path class="l" d="M2748.473,2368.2l-17.964,5.482-18.249-5.507-4.833,6.439,23.032,6.667,23-6.667Z" transform="translate(-2663.93 -2240.862)"/><path class="u" d="M2769.124,2427.431h-69.366c.2,6.114-15.616,121.248-3.752,121.248h79.364c11.863,0-6.39-115.134-6.245-121.248" transform="translate(-2668.015 -2225.581)"/><path class="z" d="M2701.561,2380.245s-15.679,10.646-19.541,24.487a7.764,7.764,0,0,0,3.534,8.659l18.432,11.18Z" transform="translate(-2670.554 -2237.749)"/><path class="aa" d="M2754.115,2380.245s15.68,10.646,19.54,24.487a7.762,7.762,0,0,1-3.533,8.659l-18.43,11.18Z" transform="translate(-2652.516 -2237.749)"/><path class="u" d="M2787.581,2415.892a8.6,8.6,0,0,0,3.79-9.934c-3.75-11.706-15.674-20.945-18.6-23.07,0-.011,0-.043,0-.043s-6.337-5.021-12.685-11.026c-1.473,1.444-23.028,6.752-23.028,6.752s-21.847-5.288-23.389-6.742c-4.991,4.708-10.181,8.986-12.158,10.59-.044.029-14.962,10.174-19.249,23.523a8.6,8.6,0,0,0,3.786,9.949l17.088,10.366c.066,6.655-.156,12.361-.883,15.515h69.366a139.589,139.589,0,0,1-.854-15.686Z" transform="translate(-2670.522 -2239.922)"/><path class="d" d="M2708.094,2376.224l-1.784-2.454,6.235-5.592,18.25,5.507-4.757,4.352a12.092,12.092,0,0,1-17.944-1.812" transform="translate(-2664.219 -2240.862)"/><path class="d" d="M2748.284,2375.616l1.384-2.023-5.935-5.4-17.964,5.481,4.333,4a12.091,12.091,0,0,0,18.181-2.061" transform="translate(-2659.2 -2240.857)"/><path class="l" d="M2748.728,2323.567a8.109,8.109,0,0,1,8.086-8.234,8.427,8.427,0,0,1,8.457,8.234,8.669,8.669,0,0,1-7.688,8.218l-8.327-.17s-.527-7.392-.527-8.048" transform="translate(-2653.28 -2254.489)"/></g></g></g></g></g></g></svg>