<svg xmlns="http://www.w3.org/2000/svg" width="128.993" height="114.79" viewBox="0 0 128.993 114.79"><defs><style>.a{fill:#05be50;}.b{fill:none;}</style></defs><g transform="translate(-1548.845 -2312.525)"><path class="a" d="M1672.8,2368.553a10.993,10.993,0,0,0-8.2-6.985c-4.672-.981-9.476,3.116-9.523,3.157l-15.536,13.732-31.832,6.988a10.742,10.742,0,0,1,7.371-7.7c2.457-.715,23.067-6.725,25.433-7.462l0,.008a10.034,10.034,0,0,0,6.971-11.416,12.828,12.828,0,0,0-.373-1.3l-1.98-3.486a16.7,16.7,0,0,0-1.839-1.679,10.065,10.065,0,0,0-7.644-1.584c-.5.086-2.149.371-2.924.565l-9.707,1.813-5.212.974-39,7.285a10.279,10.279,0,0,0-5.963,3.51l-23.992,33.12,24.733,29.221,9.01-13.514,58.1-10.9a19.908,19.908,0,0,0,9.9-5.048l18.634-17.513a21.063,21.063,0,0,0,2.58-2.844l.02-.033c.122-.207.236-.416.308-.564A10.262,10.262,0,0,0,1672.8,2368.553Zm-4.238,6.53c-.042.087-.089.174-.137.26a22.986,22.986,0,0,1-1.792,1.951l-18.787,17.642a15.893,15.893,0,0,1-7.905,4.033l-59.747,11.211-7,10.494-19.273-22.772,22.051-30.454a6.2,6.2,0,0,1,3.558-2.052l42.719-7.982,7.263-1.357,4.051-.757c.8-.2,2.3-.452,2.92-.559a6.018,6.018,0,0,1,4.537.966c.039.027.068.062.106.09a5.98,5.98,0,0,1,2.318,3.448c.029.12.079.232.1.354a6.051,6.051,0,0,1-4.252,6.878c-.6.19-14.808,4.354-25.341,7.424a14.755,14.755,0,0,0-10.565,14.1v2.485l38.015-8.346,16.286-14.4c.88-.734,3.888-2.728,6.079-2.264a6.975,6.975,0,0,1,5.245,4.378A6.308,6.308,0,0,1,1668.561,2375.083Z"/><path class="b" d="M1579.589,2339.353a8.154,8.154,0,0,1,4.158-7.11,8.155,8.155,0,0,0-4.159,7.11v17.54h0Z"/><path class="b" d="M1579.589,2339.353v17.54l6.751-1.262v-3.282c0-4.174,2.118-11.921,5.418-14.119a12.112,12.112,0,0,1,4.547-1.836l7.564-1.379,59.219-10.8v-6.9l-4,.729-4,.73-68.817,12.55a8.151,8.151,0,0,0-6.683,8.022Z"/><path class="a" d="M1667.088,2323.489v-10.964l-81.536,14.873a12.153,12.153,0,0,0-9.964,11.955v24.287l4-.747v-23.54a8.155,8.155,0,0,1,6.684-8.022l68.816-12.55,4-.73,4-.729h0v6.9l-59.22,10.8-7.564,1.379a12.112,12.112,0,0,0-4.547,1.836c-3.3,2.2-5.418,9.945-5.418,14.119v9.282l4-.747v-12.535a8.152,8.152,0,0,1,6.684-8.021l66.064-12.043,4-.729,6.75-1.23v33.136a8.155,8.155,0,0,1-3.5,6.7c-.93.646,1.334,5.054,2.842,3.873,2.864-2.243,4.662-6.727,4.662-10.573v-37.933Z"/><path class="a" d="M1594.219,2336.97a12.192,12.192,0,0,1,2.086-.576l7.564-1.379-7.564,1.379A12.167,12.167,0,0,0,1594.219,2336.97Z"/><path class="a" d="M1586.34,2348.349v7.282h0v-3.282c0-4.174,2.118-11.921,5.418-14.119A12.15,12.15,0,0,0,1586.34,2348.349Z"/><path class="a" d="M1603.869,2335.015l59.22-10.8v-6.9h0v6.9Z"/><path class="a" d="M1655.089,2318.781l4-.73,4-.729h0l-4,.729-4,.73-68.816,12.55a8.171,8.171,0,0,0-1.4.388,8.171,8.171,0,0,1,1.4-.388Z"/></g></svg>