<svg xmlns="http://www.w3.org/2000/svg" width="130.207" height="104.877" viewBox="0 0 130.207 104.877"><defs><style>.a{fill:#05be50;}.b{fill:#fff;}</style></defs><g transform="translate(-1884.808 -2316.585)"><path class="a" d="M1977.642,2317.251l-81.413,14.106c-6.022,1.044-10.921,6.689-10.921,12.584v50.542c0,5.9,4.9,9.916,10.921,8.962l26.37-4.174-3.177,16.165-10.286,1.595a2.386,2.386,0,0,0-1.986,2.26,1.647,1.647,0,0,0,1.986,1.647l55.6-8.576a2.4,2.4,0,0,0,1.986-2.283,1.655,1.655,0,0,0-1.986-1.669L1954.449,2410l-3.177-15.272,26.37-4.175a13.3,13.3,0,0,0,10.922-12.65V2326.28C1988.564,2320.258,1983.664,2316.208,1977.642,2317.251Zm-54.17,97.557,3.177-16.178,20.573-3.256,3.177,15.259-26.927,4.175Zm61.12-36.262a8.471,8.471,0,0,1-6.95,8.05l-81.413,12.953a5.73,5.73,0,0,1-6.95-5.7v-4.864l95.313-15.4v4.96Zm0-8.929-95.313,15.473v-41.828a8.536,8.536,0,0,1,6.95-8.008l81.413-14.04a5.7,5.7,0,0,1,6.95,5.745v42.658Z"/><path class="a" d="M1908.82,2421.462a2.173,2.173,0,0,1-1.433-.517,2.136,2.136,0,0,1-.737-1.654,2.868,2.868,0,0,1,2.41-2.754L1919,2415l2.972-15.118-25.664,4.062a10.045,10.045,0,0,1-8.251-2.135,9.434,9.434,0,0,1-3.248-7.322v-50.541c0-6.127,5.085-11.993,11.336-13.076l81.414-14.107a9.849,9.849,0,0,1,8.182,2.023,9.585,9.585,0,0,1,3.324,7.5v51.628a13.821,13.821,0,0,1-11.343,13.144l-25.853,4.092,2.974,14.294,9.817-1.523a2.231,2.231,0,0,1,1.818.486,2.169,2.169,0,0,1,.744,1.678,2.88,2.88,0,0,1-2.409,2.777l-55.6,8.576A2.616,2.616,0,0,1,1908.82,2421.462Zm14.409-22.8-3.384,17.211-10.633,1.649a1.9,1.9,0,0,0-1.562,1.766,1.152,1.152,0,0,0,.388.9,1.252,1.252,0,0,0,1.022.257l55.6-8.575a1.91,1.91,0,0,0,1.562-1.789,1.184,1.184,0,0,0-.4-.919,1.239,1.239,0,0,0-1.013-.256l-10.755,1.668-3.382-16.251,26.89-4.257a12.786,12.786,0,0,0,10.5-12.156V2326.28a8.6,8.6,0,0,0-2.967-6.734,8.871,8.871,0,0,0-7.369-1.8l-81.414,14.106c-5.793,1-10.506,6.428-10.506,12.091v50.541a8.452,8.452,0,0,0,2.9,6.561,9.07,9.07,0,0,0,7.445,1.909Zm54.414-81.414h0Zm-54.8,98.16,3.383-17.221,21.387-3.385,3.382,16.241Zm4.228-16.342L1924.1,2414.2l25.7-3.985-2.974-14.277Zm-31.974,1.071a6.36,6.36,0,0,1-4.186-1.494,6.181,6.181,0,0,1-2.133-4.8v-5.289L1985.092,2373v5.548a8.988,8.988,0,0,1-7.371,8.543l-81.414,12.953A7.606,7.606,0,0,1,1895.1,2400.14Zm-5.319-10.733v4.438a5.2,5.2,0,0,0,1.782,4.041,5.6,5.6,0,0,0,4.589,1.169l81.415-12.953a7.955,7.955,0,0,0,6.527-7.556v-4.373Zm-1-3.729v-42.416a9.055,9.055,0,0,1,7.365-8.5l81.414-14.04a6.462,6.462,0,0,1,5.356,1.331,6.276,6.276,0,0,1,2.178,4.907v43.084Zm90.056-64.068a6.6,6.6,0,0,0-1.107.1l-81.414,14.041a8.018,8.018,0,0,0-6.535,7.515v41.24l94.313-15.31v-42.233a5.136,5.136,0,0,0-5.257-5.349Zm5.757,48.008h0Z"/><path class="b" d="M2012.142,2373.731l-6.323-4.9,5.269-6.451a3.447,3.447,0,0,0,.758-3.1,2.215,2.215,0,0,0-2.2-1.581l-27.4,0a3.739,3.739,0,0,0-2.778,1.428,3.444,3.444,0,0,0-.8,2.929l6.324,25.688a2.218,2.218,0,0,0,2.083,1.717,3.631,3.631,0,0,0,2.929-1.393l5.27-6.4,6.323,4.9a2.512,2.512,0,0,0,2.108.408,3.839,3.839,0,0,0,2.108-1.332l6.323-7.707C2013.306,2376.524,2013.306,2374.636,2012.142,2373.731Z"/><path class="a" d="M1987.265,2391.471c-.1,0-.208,0-.313-.01a4.212,4.212,0,0,1-3.9-3.237l-6.324-25.685a5.423,5.423,0,0,1,1.193-4.676,5.732,5.732,0,0,1,4.318-2.16l27.407,0a4.211,4.211,0,0,1,4.108,2.994,5.458,5.458,0,0,1-1.12,4.951l-3.973,4.863,4.7,3.642,0,0a4.29,4.29,0,0,1,1.615,2.946,5.59,5.59,0,0,1-1.294,4.114l-6.326,7.708a5.827,5.827,0,0,1-3.225,2.018,4.518,4.518,0,0,1-3.763-.784l-4.787-3.708-4.034,4.9A5.647,5.647,0,0,1,1987.265,2391.471Zm22.381-31.771-27.4,0a1.776,1.776,0,0,0-1.232.7,1.519,1.519,0,0,0-.4,1.181l6.325,25.689c.027.109.062.186.27.2a1.751,1.751,0,0,0,1.259-.672l5.266-6.393a2,2,0,0,1,2.769-.309l6.324,4.9a.6.6,0,0,0,.455.036,1.849,1.849,0,0,0,.99-.649l6.323-7.706a1.623,1.623,0,0,0,.414-1.132.364.364,0,0,0-.1-.235l-6.32-4.9a2,2,0,0,1-.324-2.846l5.269-6.451a1.5,1.5,0,0,0,.4-1.248C2009.91,2359.79,2009.883,2359.7,2009.646,2359.7Z"/><path class="a" d="M1951.826,2344.373a1.362,1.362,0,0,0-1.842.373l-17.316,21.36-4.781-3.865a1.337,1.337,0,0,0-1.842.41,1.392,1.392,0,0,0,0,1.919l5.7,4.6a1.074,1.074,0,0,0,.923.177,1.7,1.7,0,0,0,.919-.608l18.239-22.525A1.3,1.3,0,0,0,1951.826,2344.373Z"/><path class="a" d="M1932.381,2370.384a2.017,2.017,0,0,1-1.254-.425l-5.71-4.611a2.382,2.382,0,0,1-.156-3.318,2.612,2.612,0,0,1,1.74-1,2.022,2.022,0,0,1,1.519.435l4,3.234,16.688-20.585a2.36,2.36,0,0,1,3.243-.523,2.022,2.022,0,0,1,.745,1.392,2.555,2.555,0,0,1-.6,1.871l-18.232,22.515a2.672,2.672,0,0,1-1.467.952A2.235,2.235,0,0,1,1932.381,2370.384Zm-5.145-7.368a.614.614,0,0,0-.407.255.578.578,0,0,0-.146.529l5.69,4.595a.763.763,0,0,0,.429-.272l18.247-22.536a.516.516,0,0,0,.15-.432.532.532,0,0,0-.445.229l-17.31,21.352-1.405.148-4.781-3.865A.063.063,0,0,0,1927.236,2363.016Zm23.969-17.859h0Z"/></g></svg>