<svg xmlns="http://www.w3.org/2000/svg" xmlns:xlink="http://www.w3.org/1999/xlink" width="138.11" height="138.11" viewBox="0 0 138.11 138.11"><defs><style>.a,.h,.i,.k,.p,.r,.t,.u{fill:none;}.b{fill:#63b2e9;}.c{clip-path:url(#a);}.d{fill:#fabf66;}.e{fill:#0033a1;}.f{fill:#05be50;}.g{fill:#2eba63;}.h,.i{stroke:#262e61;}.h,.i,.k,.p,.r,.u{stroke-linecap:round;}.h,.i,.k,.p,.r,.t,.u{stroke-miterlimit:10;}.h{stroke-width:1.736px;}.i,.k,.p{stroke-width:1.62px;}.j{fill:#001f5e;}.k{stroke:#212963;}.l{fill:#3bc773;}.m{fill:#ea0944;}.n{fill:#38c770;}.o{fill:#fff;}.p,.t,.u{stroke:#001f5e;}.q{fill:#f4f0de;}.r{stroke:#fc9400;stroke-width:1.215px;}.s{fill:#63b5e5;}.t{stroke-width:2.87px;}.u{stroke-width:2.43px;}</style><clipPath id="a"><circle class="a" cx="69.055" cy="69.055" r="69.055" transform="translate(1290.938 3019.155)"/></clipPath></defs><g transform="translate(-1290.938 -3019.155)"><circle class="b" cx="69.055" cy="69.055" r="69.055" transform="translate(1290.938 3019.155)"/><g class="c"><path class="d" d="M1311.487,3234.58s-8.754-47.6-8.313-65.259a7.8,7.8,0,0,1,7.423-7.288c4.28-.36,7.895,2.319,8.075,5.983a6.391,6.391,0,0,1-.03.93c-2.02,19.215-1.238,65.634-1.238,65.634Z"/><path class="d" d="M1327.209,3234.572s8.34-47.592,7.9-65.252a7.8,7.8,0,0,0-7.423-7.287c-4.28-.36-7.9,2.319-8.075,5.983a6.256,6.256,0,0,0,.03.93c2.02,19.215,1.651,65.626,1.651,65.626Z"/><path class="e" d="M1326.847,3074.226c2.327-.76,5.911-1.1,8.7,4.023,1.034,1.9.738,4.075,1.026,7.308.147,1.66,2.69,4.647,3.484,7.27,2.492,8.235-1.995,13.914-2,15.476-.007,1.531,1.423,1.932,2.033,0,1.423,2.875.583,4.544-.775,5.207a6.636,6.636,0,0,0-2.96,3.281,2.952,2.952,0,0,1-3.342,1.677c-3.331-.474-.007,3.062-3.437,4.878-7.643,4.045-6.879-7.132-13.464-4.471-2.862,1.156,2.927,2.671-.479,5.021-2.436,1.682-7.354,1.77-7.891-1.364-.516-3.009-4.182-.88-6.2-3.282-1.983-2.361-.095-4.935-1.594-5.022-4.529-.261-4.224-4.152-3.478-5.643.733.451,4.376-.144,3-2.816-.475-.923-4.066-2-2.144-6.651.89-2.151,4.532-2.6,4.294-6.595-.379-6.383,25.225-18.3,25.225-18.3"/><path class="f" d="M1292.643,3080.571s5.819-4.01,7.983-4.044a3.918,3.918,0,0,1,.123,7.835c-2.164.035-8.106-3.791-8.106-3.791"/><path class="f" d="M1295.238,3073.159s7.063.25,8.82,1.513a3.918,3.918,0,1,1-4.572,6.364c-1.758-1.263-4.248-7.877-4.248-7.877"/><path class="g" d="M1304.6,3079.939s.45-2.379-5.613-4.61c0,0,1.079,4.925,5.613,4.61"/><path class="d" d="M1321.29,3234.572h5.918a43.138,43.138,0,0,1,5.522,2.824h-5.413s-2.175-.15-6.027-2.824"/><path class="e" d="M1321.285,3234.572h0c3.852,2.674,6.027,2.824,6.027,2.824h5.413c1.164.8,2.162.7,2.435,1.248a1.628,1.628,0,0,1,.122.335,1.677,1.677,0,0,1-1.226,2.03,6.251,6.251,0,0,1-.692.122c-.224.026-.443.041-.663.059-.434.023-2.757.016-3.168-.011a11.806,11.806,0,0,1-1.2,0c-.392-.067-6.66-1.8-6.66-1.8-.61-.586-.474-2-.445-2.915Z"/><path class="d" d="M1317.4,3234.58h-5.917a43.038,43.038,0,0,0-5.522,2.824h5.413s2.175-.151,6.026-2.824"/><path class="e" d="M1317.405,3234.58h0c-3.851,2.673-6.026,2.824-6.026,2.824h-5.413c-1.165.8-2.163.7-2.436,1.247a1.718,1.718,0,0,0-.121.336,1.676,1.676,0,0,0,1.226,2.03,6.3,6.3,0,0,0,.692.121c.224.027.442.042.662.059.435.023,2.758.017,3.168-.01s.812.064,1.206,0,6.659-1.8,6.659-1.8c.611-.585.475-2,.445-2.914Z"/><path class="e" d="M1300.85,3086.981c.077-8.121,10.182-14.685,18.025-14.685,9.976,0,18.028,6.628,18.028,14.8v8.184c0,8.175-8.052,14.8-18.028,14.8-9.446,0-17.176-5.941-17.974-13.512Z"/><path class="e" d="M1324.393,3077.526c-3.338,8.551,10.07,13.034,5.253,18.675l6.07-1.99-3.031-13.358Z"/><path class="d" d="M1325.688,3118.075c-1.723-7.868,2.373-5.767,5.576-13.275l-12.344,1.128-12.148-1.577c2.416,6.157,7.218,5.812,5.835,13.746-.475,2.727-4.977,5.655-4.977,5.655l11.912,17.463,10.663-17.476s-3.915-2.915-4.517-5.664"/><path class="d" d="M1332.991,3091.491c0-6.892-2.689-13.142-13.792-13.142-10.3,0-13.794,5.894-13.794,13.259,0,.564-.095,5.776-.095,6.339,0,7.625,6.319,15.146,13.889,15.146,6.743,0,13.448-6.266,13.791-15.146Z"/><path class="e" d="M1324.654,3081.772c-4.585-1.315-3.1.616-6.841,2.714-1.368.768-4.165.159-5.472.974-7.736,4.829-3.084,9.851-7.316,10.464-.992.143-4.187,1.926-5.207,1.389-1.252-.66-3.762-5.627-.915-10.252,2.314-3.76,3.244-4.281,4.206-10.267.7-4.389,7.229-6.106,10.675-7.274,8.536-2.894,13.98,4.68,10.87,12.252"/><path class="d" d="M1307.451,3096.455a3.236,3.236,0,0,0-3.227-3.285,3.363,3.363,0,0,0-3.374,3.285,3.459,3.459,0,0,0,3.068,3.28l3.323-.068s.21-2.95.21-3.212"/><path class="h" d="M1325.687,3089.7a4.771,4.771,0,0,0-2.2-.557,3.793,3.793,0,0,0-2.155.611m.037,8.155c.051.959-.5,2.048-2.3,2.048a2.567,2.567,0,0,1-1.5-.442"/><path class="i" d="M1315.633,3089.7a4.767,4.767,0,0,0-2.2-.557,3.8,3.8,0,0,0-2.156.611"/><path class="j" d="M1324.483,3096.119h0a1.05,1.05,0,0,1-1.047-1.047v-.855a1.047,1.047,0,1,1,2.094,0v.855a1.05,1.05,0,0,1-1.047,1.047"/><path class="j" d="M1313.46,3096.119h0a1.05,1.05,0,0,1-1.047-1.047v-.855a1.047,1.047,0,1,1,2.094,0v.855a1.05,1.05,0,0,1-1.047,1.047"/><path class="f" d="M1324.207,3074.7s9.777,2.507,9.346,12.616l-.839.258c-.047.218-1.822-8.809-8.828-10.732l.283-1.562"/><path class="e" d="M1323.519,3077.466a25.453,25.453,0,0,0,5.227,14.89c2.431,2.9,4.139,2.735,4.139,2.735,1.283-1.372,2.32-4.115,1.9-5.946l-.877-2.466a13.849,13.849,0,0,0-7.892-8.212Z"/><path class="k" d="M1314.122,3103.52c3.545,2.134,8.044,1.988,10.7-.622"/><path class="d" d="M1311.969,3133.849l-.327.276-.179.151-.05.042-.025.022c-.006,0,0,0,0,0a.133.133,0,0,0,.023-.018.136.136,0,0,0,.035-.053.2.2,0,0,0,.009-.035.064.064,0,0,0,0-.019l-.019.023a2.394,2.394,0,0,0-.45.594,6.581,6.581,0,0,0-.576,1.381,17.173,17.173,0,0,0-.483,2.2c-.122.858-.223,1.8-.285,2.821s-.1,2.1-.1,3.218.008,2.272.039,3.437c.059,2.33.164,4.7.247,6.951s.144,4.366.159,6.2-.012,3.366-.05,4.444-.074,1.7-.074,1.7a2.757,2.757,0,0,1-5.5.062l0-.026s-.043-.57-.136-1.568-.259-2.43-.5-4.155-.565-3.745-.935-5.93-.784-4.533-1.163-6.935c-.19-1.2-.368-2.414-.527-3.629s-.287-2.437-.385-3.642-.136-2.416-.131-3.6a27.27,27.27,0,0,1,.265-3.5,16.981,16.981,0,0,1,.808-3.271,13.23,13.23,0,0,1,1.316-2.7l.085-.139c.041-.055.08-.109.118-.163l.235-.314c.154-.2.3-.387.446-.557l.206-.244.114-.128c.057-.063.11-.121.156-.173l.286-.318a5.3,5.3,0,0,1,7.872,7.094,5.224,5.224,0,0,1-.495.483Z"/><path class="d" d="M1311.9,3133.917l-.348.285c-.056.046-.12.1-.19.155a1.261,1.261,0,0,0-.11.1c-.022.019-.046.038-.073.058l-.045.029-.025.015-.041.043c-.115.126-.249.246-.394.41-.14.18-.306.34-.469.571s-.347.454-.524.736c-.186.265-.367.572-.558.9a21.394,21.394,0,0,0-1.124,2.239,27.457,27.457,0,0,0-1.024,2.73c-.317.975-.575,2.013-.814,3.079-.215,1.069-.4,2.169-.512,3.278a30.9,30.9,0,0,0-.172,3.319,29.656,29.656,0,0,0,.171,3.209,26.22,26.22,0,0,0,.5,2.949c.095.467.218.91.342,1.339s.256.837.387,1.229.279.759.417,1.109c.07.175.139.346.206.511l.219.469c.27.616.562,1.121.789,1.548s.449.733.58.958l.208.338.111.18a2.748,2.748,0,0,1-4.467,3.182l-.317-.388c-.2-.258-.523-.618-.881-1.113s-.8-1.095-1.243-1.826c-.114-.18-.231-.367-.352-.559l-.342-.609c-.23-.418-.483-.857-.7-1.332s-.475-.962-.685-1.486-.447-1.059-.642-1.626a33.21,33.21,0,0,1-1.088-3.6,36.727,36.727,0,0,1-.716-3.947,38.59,38.59,0,0,1-.306-4.125c-.035-1.387.021-2.774.113-4.142.118-1.365.273-2.712.512-4.011a36.54,36.54,0,0,1,.866-3.744,30.7,30.7,0,0,1,1.159-3.354c.217-.521.43-1.019.669-1.494.22-.475.471-.927.706-1.352s.5-.824.726-1.192c.241-.369.5-.71.718-1.015l.084-.115.108-.131.209-.248.388-.447c.284-.321.352-.384.464-.506l.308-.327a5.3,5.3,0,1,1,7.72,7.256,5.411,5.411,0,0,1-.478.449Z"/><path class="d" d="M1333.263,3126.183s.106.114.307.327c.113.122.18.185.465.506l.387.447.209.249.108.13.085.115c.219.3.477.646.718,1.015.225.368.5.769.725,1.193s.487.876.707,1.351c.239.475.451.974.669,1.494a31.094,31.094,0,0,1,1.159,3.354,36.766,36.766,0,0,1,.866,3.744c.238,1.3.394,2.646.512,4.011.092,1.368.148,2.755.113,4.142a38.878,38.878,0,0,1-.306,4.125,37.032,37.032,0,0,1-.716,3.948,33.137,33.137,0,0,1-1.088,3.6c-.195.567-.419,1.107-.643,1.627-.209.523-.456,1.013-.685,1.485s-.472.914-.7,1.332l-.341.609-.352.56c-.441.73-.888,1.328-1.244,1.824s-.68.856-.881,1.114l-.316.388a2.748,2.748,0,0,1-4.468-3.182l.111-.18s.073-.117.209-.338.35-.533.579-.958.52-.931.789-1.548c.071-.152.145-.308.22-.469s.135-.336.2-.511c.139-.35.294-.712.417-1.109s.278-.794.388-1.229.246-.871.342-1.339a26.416,26.416,0,0,0,.5-2.949,29.4,29.4,0,0,0,.17-3.209,30.65,30.65,0,0,0-.171-3.319c-.111-1.109-.3-2.209-.512-3.278-.239-1.066-.5-2.1-.814-3.079a27.731,27.731,0,0,0-1.025-2.73,21.019,21.019,0,0,0-1.124-2.239c-.191-.323-.371-.63-.558-.9-.176-.282-.358-.513-.524-.735s-.328-.392-.468-.572c-.145-.164-.279-.284-.4-.41l-.041-.043-.025-.015-.044-.029a.7.7,0,0,1-.073-.058,1.307,1.307,0,0,0-.111-.1l-.189-.156-.348-.285-.012-.009a5.3,5.3,0,0,1,6.717-8.194,5.674,5.674,0,0,1,.5.469"/><path class="l" d="M1333.453,3125.925s-2.529-2.005-5.062-4.4c-.587.576-9.189,2.7-9.189,2.7s-8.718-2.111-9.334-2.691c-2.526,2.383-5.189,4.5-5.189,4.5s1.711,18.739.633,23.415h27.682c-.988-7.793.459-23.515.459-23.515"/><path class="d" d="M1326.38,3119.706l-7.169,2.188-7.282-2.2-1.928,2.57,9.191,2.66,9.18-2.66Z"/><path class="m" d="M1332.991,3149.44H1305.31c.082,2.439-6.232,48.385-1.5,48.385h31.671c4.734,0-2.55-45.946-2.493-48.385"/><path class="l" d="M1305.017,3125.754s-6.258,4.248-7.8,9.771a3.1,3.1,0,0,0,1.41,3.456l7.356,4.461Z"/><path class="n" d="M1333.187,3125.754s6.257,4.248,7.8,9.771a3.1,3.1,0,0,1-1.41,3.456l-7.355,4.461Z"/><path class="m" d="M1339.356,3139.111a3.432,3.432,0,0,0,1.513-3.964c-1.5-4.671-6.255-8.358-7.421-9.206l0-.017s-2.529-2-5.062-4.4c-.588.576-9.19,2.694-9.19,2.694s-8.718-2.11-9.333-2.69c-1.992,1.879-4.063,3.586-4.852,4.226-.018.012-5.971,4.06-7.682,9.387a3.431,3.431,0,0,0,1.511,3.97l6.819,4.137a31.651,31.651,0,0,1-.352,6.192h27.681a55.762,55.762,0,0,1-.341-6.26Z"/><path class="o" d="M1310.152,3122.907l-.712-.98,2.488-2.231,7.283,2.2-1.9,1.737a4.825,4.825,0,0,1-7.16-.723"/><path class="o" d="M1328.193,3122.666l.552-.807-2.369-2.153-7.168,2.187,1.729,1.6a4.826,4.826,0,0,0,7.256-.823"/><path class="d" d="M1330.733,3096.455a3.236,3.236,0,0,1,3.226-3.285,3.363,3.363,0,0,1,3.375,3.285,3.459,3.459,0,0,1-3.068,3.28l-3.323-.068s-.21-2.95-.21-3.212"/><path class="e" d="M1421.479,3075.764c0-7.828-6.985-21.035-20.525-21.059-13.541.024-20.854,12.713-20.854,21.059,0,9.815,8.411,28.088,8.411,28.088s-.016,1.82,3.765,1.188a89.108,89.108,0,0,1,10-.984c6.6,0,17.073,8.047,17.073,8.047s-3.095-7.178-2.283-12.728c1.283-8.766,4.413-20.436,4.413-23.611"/><path class="d" d="M1387.069,3120.93l14.476,23.084,14.321-22.99s-7.345-5.516-7.345-11.523c0-5.236,7.39-13.213,7.39-19.809h-29.055c0,6.74,7.109,14.055,7.109,19.811,0,6.092-6.9,11.427-6.9,11.427"/><path class="d" d="M1427.905,3170.654c-.595,1.126-1.225,2.156-1.782,3.084l-1.518,2.461-.587.96c-.173.282-.32.526-.443.744l-.371.647a3.905,3.905,0,0,0,6.649,4.091l.092-.14.316-.48c.1-.153.237-.356.4-.6s.353-.515.585-.837l1.69-2.369c.663-.95,1.417-2.035,2.212-3.289.666-1.047,1.365-2.2,2.04-3.483l-8.266-2.817c-.332.7-.678,1.379-1.021,2.025"/><path class="d" d="M1440.68,3152.472c-.116-.555-.194-1.128-.351-1.669s-.3-1.088-.458-1.631-.371-1.052-.556-1.578l-.291-.782c-.1-.262-.221-.5-.331-.751q-.345-.743-.686-1.48c-.238-.483-.509-.933-.763-1.4s-.5-.936-.791-1.352-.563-.852-.84-1.273a45.014,45.014,0,0,0-3.518-4.494c-.578-.7-1.18-1.3-1.759-1.9s-1.136-1.19-1.7-1.691l-1.607-1.485c-.505-.473-1.047-.9-1.525-1.312s-.946-.791-1.368-1.146c-.1-.086-.208-.172-.309-.256l-.269-.209-.5-.391-1.992-1.563-.036-.028a6.639,6.639,0,1,0-7.441,10.964l2.18,1.286.546.326.294.174.261.169,1.139.74c.405.275.85.521,1.3.864l1.429,1.049c.515.356.984.769,1.495,1.183s1.045.839,1.529,1.312l.765.705c.128.121.262.239.387.363l.357.383q.362.384.73.777c.122.132.253.26.369.4l.336.414.687.836c.246.277.416.58.633.871s.431.587.619.891.364.615.548.923c.088.156.2.308.27.467l.232.478c.148.321.333.637.456.965l.378.988c.138.329.2.67.307,1.005a15.307,15.307,0,0,1,.59,4.146,19.573,19.573,0,0,1-.47,4.224,26.215,26.215,0,0,1-1.315,4.039c-.222.55-.463,1.084-.71,1.607l8.266,2.817c.131-.247.261-.49.389-.746a35.188,35.188,0,0,0,2.167-5.251,29.043,29.043,0,0,0,1.26-6.231,25.141,25.141,0,0,0-.33-6.746"/><path class="f" d="M1440.68,3152.472c-.116-.555-.194-1.128-.351-1.669s-.3-1.088-.458-1.631-.371-1.052-.556-1.578l-.291-.782c-.1-.262-.221-.5-.331-.751q-.345-.743-.686-1.48c-.238-.483-.509-.933-.763-1.4s-.5-.936-.791-1.352-.563-.852-.84-1.273a45.014,45.014,0,0,0-3.518-4.494c-.578-.7-1.18-1.3-1.759-1.9s-1.136-1.19-1.7-1.691l-1.607-1.485c-.505-.473-1.047-.9-1.525-1.312s-.946-.791-1.368-1.146c-.1-.086-.208-.172-.309-.256l-.269-.209-.5-.391-1.992-1.563-.036-.028a6.639,6.639,0,1,0-7.441,10.964l2.18,1.286.546.326.294.174.261.169,1.139.74c.405.275.85.521,1.3.864l1.429,1.049c.515.356.984.769,1.495,1.183s1.045.839,1.529,1.312l.765.705c.128.121.262.239.387.363l.357.383q.362.384.73.777c.122.132.253.26.369.4l.336.414.687.836c.246.277.416.58.633.871s.431.587.619.891.364.615.548.923c.088.156.2.308.27.467l.232.478c.148.321.333.637.456.965l.378.988c.138.329.2.67.307,1.005a15.307,15.307,0,0,1,.59,4.146,19.573,19.573,0,0,1-.47,4.224,26.215,26.215,0,0,1-1.315,4.039c-.222.55-.463,1.084-.71,1.607l8.266,2.817c.131-.247.261-.49.389-.746a35.188,35.188,0,0,0,2.167-5.251,29.043,29.043,0,0,0,1.26-6.231,25.141,25.141,0,0,0-.33-6.746"/><path class="d" d="M1364.676,3212.3a1.9,1.9,0,0,1,.039-.239c.136-2.578.723-5.326,1.1-7.979a32.6,32.6,0,0,0,.277-6l6.866,1.09-.107,2.933c-.433,3.048.266,3.654,1.018,5.18l.2.246.4.521c.151.191.291.405.441.631s.3.475.451.738.29.557.429.849a8.575,8.575,0,0,1,.351.95c.054.161.094.327.132.494s.076.329.1.494a8.2,8.2,0,0,1,.1.948c.011.3.014.581.005.837s-.022.49-.034.7l-.088,1.336,0,.051a1.2,1.2,0,0,1-2.389.051s-.06-.554-.151-1.384c-.011-.095-.026-.2-.038-.3a11.833,11.833,0,0,1-.909,1.578c0,.012,0,.023,0,.036.033.3.053.623.1.946.06.314.1.657.177.977a7.783,7.783,0,0,0,.27.953,7.376,7.376,0,0,0,.366.884l.228.389c.072.134.17.237.25.357a2.477,2.477,0,0,0,.27.32l.136.152.149.133a4.99,4.99,0,0,0,.6.468c.206.13.4.249.589.343s.361.176.5.245l.468.206.023.011a1.088,1.088,0,0,1-.765,2.033l-.532-.167c-.175-.064-.383-.123-.632-.226s-.527-.219-.833-.369c-.082-.043-.167-.09-.252-.137a1.059,1.059,0,0,1-.167.293,1.088,1.088,0,0,1-1.531.153l-.016-.013-.414-.339-.307-.249a1.086,1.086,0,0,1-1.44.425l-.115-.06c-.076-.041-.183-.09-.328-.174-.1-.058-.232-.132-.368-.217a1.08,1.08,0,0,1-1.137.046l-.134-.076a3.711,3.711,0,0,1-.375-.232,3.991,3.991,0,0,1-.551-.453,3.152,3.152,0,0,1-.3-.325,2.96,2.96,0,0,1-.288-.386,3.443,3.443,0,0,1-.261-.433,4.47,4.47,0,0,1-.229-.469,9.355,9.355,0,0,1-.363-1c-.091-.337-.189-.691-.256-1.037s-.133-.7-.2-1.051c-.108-.7-.19-1.385-.256-2.026-.012-.115-.022-.227-.032-.338a13.857,13.857,0,0,1-.218-2.9c-.008-.115-.012-.184-.012-.184a1.781,1.781,0,0,1,0-.231"/><path class="d" d="M1418.061,3077.216a16.69,16.69,0,0,0-33.381,0c0,3.193,2.163,10.617,2.163,11.609a14.527,14.527,0,0,0,29.055,0c0-.992,2.163-8.416,2.163-11.609"/><path class="p" d="M1408.97,3075.771a6.16,6.16,0,0,0-2.612-.6,5.407,5.407,0,0,0-2.594.655m5.206-.058a6.16,6.16,0,0,0-2.612-.6,5.407,5.407,0,0,0-2.594.655c-1.082.645-2.705,2.576-1.112,8.44a8.31,8.31,0,0,1,.665,2.778,1.773,1.773,0,0,1-1.405,1.7,3.089,3.089,0,0,1-2.153-.259m-1.255-12.718a6.043,6.043,0,0,0-5.355.058"/><path class="j" d="M1407.233,3083.456h0a1.127,1.127,0,0,1-1.123-1.123v-.916a1.123,1.123,0,1,1,2.246,0v.916a1.126,1.126,0,0,1-1.123,1.123"/><path class="j" d="M1395.829,3083.456h0a1.126,1.126,0,0,1-1.123-1.123v-.916a1.122,1.122,0,1,1,2.245,0v.916a1.126,1.126,0,0,1-1.122,1.123"/><path class="p" d="M1393.62,3090.66a10.374,10.374,0,0,0,9.769,4.081"/><path class="e" d="M1393.62,3215.424h15.348c7.561,0,17.1-.493,17.569-8.366a43.166,43.166,0,0,0-.247-7.492h-49.873a31.485,31.485,0,0,0-.366,7.492c.465,7.873,10.007,8.366,17.569,8.366"/><path class="d" d="M1416.178,3315.045l-.657-5.272h8.118c-.089.357-.257,5.914-.257,5.914h-7.225Z"/><path class="d" d="M1416.158,3315.688h7.65a58.716,58.716,0,0,1,7.519,3.846h-7.371s-2.554-.2-7.8-3.846"/><path class="m" d="M1416.153,3315.688h.006c5.243,3.641,7.8,3.846,7.8,3.846h7.369c1.586,1.084,2.945.95,3.316,1.7a2.228,2.228,0,0,1,.166.456,2.283,2.283,0,0,1-1.669,2.764,8.461,8.461,0,0,1-.943.166c-.305.036-.6.056-.9.08-.591.032-3.753.023-4.313-.014a16.371,16.371,0,0,1-1.642,0c-.533-.092-8.66-2.457-8.66-2.457-.831-.8-.646-2.727-.606-3.968Z"/><path class="d" d="M1402.013,3315.045l-.5-5.272h-7.623c.089.357.347,1.822.347,1.822l.557,4.092h7.246Z"/><path class="d" d="M1402.033,3315.688h-7.243a58.7,58.7,0,0,0-7.519,3.846h7.37s2.148-.2,7.392-3.846"/><path class="m" d="M1402.038,3315.688h-.006c-5.243,3.641-7.391,3.846-7.391,3.846h-7.371c-1.585,1.084-2.944.95-3.316,1.7a2.286,2.286,0,0,0,1.505,3.22,8.43,8.43,0,0,0,.941.166c.306.036.6.056.9.08.591.032,3.754.023,4.313-.014a16.348,16.348,0,0,0,1.641,0c.534-.092,8.254-2.457,8.254-2.457.832-.8.647-2.727.607-3.968Z"/><path class="q" d="M1421.55,3183.972a11.463,11.463,0,0,1,.8-3.143,32.651,32.651,0,0,1,2.245-4.424c.043-.073.087-.142.131-.215,1.659,1.229,4.478,3.343,6.353,4.886a26.078,26.078,0,0,0-2.008,2.833,1.864,1.864,0,0,0-.189.918,5.211,5.211,0,0,0,.505.563c.181.145.254.247.4.348s.266.224.452.379c.165.139.333.3.521.469.06-.058.108-.116.169-.173.21-.193.412-.387.63-.569a7.261,7.261,0,0,1,.644-.51l.629-.422a2.449,2.449,0,0,1,2.58-.075,6.856,6.856,0,0,0-3.566,2.838c-.058-.138-.117-.27-.176-.394a.339.339,0,0,0-.613.291c.546,1.147,1.113,2.9.658,6.258a.339.339,0,0,0,.291.381.377.377,0,0,0,.046,0,.339.339,0,0,0,.336-.293,18.018,18.018,0,0,0,.169-2.245c.117-.138.257-.316.431-.559a20.548,20.548,0,0,1,2.282-2.825,4.108,4.108,0,0,1,1.365-.81c-.007.2-.02.384-.037.57a10.531,10.531,0,0,1-.158,1.116,13.5,13.5,0,0,1-.585,2.087,12.3,12.3,0,0,1-.968,2.04,8.514,8.514,0,0,1-.829,1.159c-.1.116-.209.231-.35.368a5.266,5.266,0,0,1-.552.469,4.573,4.573,0,0,1-1.3.675c-.078.027-.2.062-.32.092s-.233.053-.369.074a4.24,4.24,0,0,1-1.03.034,4.089,4.089,0,0,1-.619-.1c-.111-.028-.221-.059-.329-.094l-.162-.056-.08-.031-.117-.049a4.293,4.293,0,0,1-.888-.52l-.114-.089-1.006-.887c-.23-.218-.464-.427-.689-.653a19.332,19.332,0,0,1-1.334-1.455c-.221-.269-.441-.552-.668-.873a12.017,12.017,0,0,1-.68-1.072,7.7,7.7,0,0,1-.546-1.216,5.527,5.527,0,0,1-.227-.88,5.41,5.41,0,0,1-.93-1.844,6.509,6.509,0,0,1-.2-2.375"/><path class="q" d="M1432.518,3190.485a9.6,9.6,0,0,0-.348-1.911.387.387,0,0,0,.084-.1,6.082,6.082,0,0,1,3.747-3.024.373.373,0,0,0,.085-.036,2.432,2.432,0,0,1,.535,1.283,4.9,4.9,0,0,0-1.854,1.04,19.154,19.154,0,0,0-2.249,2.751"/><path class="d" d="M1421.55,3183.972a11.463,11.463,0,0,1,.8-3.143,32.651,32.651,0,0,1,2.245-4.424c.043-.073.087-.142.131-.215,1.659,1.229,4.478,3.343,6.353,4.886a26.078,26.078,0,0,0-2.008,2.833,1.864,1.864,0,0,0-.189.918,5.211,5.211,0,0,0,.505.563c.181.145.254.247.4.348s.266.224.452.379c.165.139.333.3.521.469.06-.058.108-.116.169-.173.21-.193.412-.387.63-.569a7.261,7.261,0,0,1,.644-.51l.629-.422a2.449,2.449,0,0,1,2.58-.075,6.856,6.856,0,0,0-3.566,2.838c-.058-.138-.117-.27-.176-.394a.339.339,0,0,0-.613.291c.546,1.147,1.113,2.9.658,6.258a.339.339,0,0,0,.291.381.377.377,0,0,0,.046,0,.339.339,0,0,0,.336-.293,18.018,18.018,0,0,0,.169-2.245c.117-.138.257-.316.431-.559a20.548,20.548,0,0,1,2.282-2.825,4.108,4.108,0,0,1,1.365-.81c-.007.2-.02.384-.037.57a10.531,10.531,0,0,1-.158,1.116,13.5,13.5,0,0,1-.585,2.087,12.3,12.3,0,0,1-.968,2.04,8.514,8.514,0,0,1-.829,1.159c-.1.116-.209.231-.35.368a5.266,5.266,0,0,1-.552.469,4.573,4.573,0,0,1-1.3.675c-.078.027-.2.062-.32.092s-.233.053-.369.074a4.24,4.24,0,0,1-1.03.034,4.089,4.089,0,0,1-.619-.1c-.111-.028-.221-.059-.329-.094l-.162-.056-.08-.031-.117-.049a4.293,4.293,0,0,1-.888-.52l-.114-.089-1.006-.887c-.23-.218-.464-.427-.689-.653a19.332,19.332,0,0,1-1.334-1.455c-.221-.269-.441-.552-.668-.873a12.017,12.017,0,0,1-.68-1.072,7.7,7.7,0,0,1-.546-1.216,5.527,5.527,0,0,1-.227-.88,5.41,5.41,0,0,1-.93-1.844,6.509,6.509,0,0,1-.2-2.375"/><path class="d" d="M1432.518,3190.485a9.6,9.6,0,0,0-.348-1.911.387.387,0,0,0,.084-.1,6.082,6.082,0,0,1,3.747-3.024.373.373,0,0,0,.085-.036,2.432,2.432,0,0,1,.535,1.283,4.9,4.9,0,0,0-1.854,1.04,19.154,19.154,0,0,0-2.249,2.751"/><path class="f" d="M1390.011,3126.054a6.631,6.631,0,0,0-9.294,1.257s-.175.228-.5.657l-.273.359-.077.1c-.026.035-.049.064-.094.13l-.247.358c-.333.491-.734,1.087-1.117,1.715-.3.551-.626,1.161-.985,1.825-.3.652-.635,1.359-.971,2.11-.294.74-.63,1.536-.933,2.36-.284.821-.625,1.691-.892,2.582-.286.9-.581,1.826-.84,2.782-.281.959-.533,1.945-.787,2.956s-.482,2.048-.733,3.106c-.227,1.057-.458,2.136-.674,3.231-.425,2.189-.835,4.447-1.192,6.735s-.7,4.61-1.015,6.928c-1.24,9.269-2.012,18.507-2.5,25.429l-.007.1,7.945.99.032-.214c1.024-6.766,2.509-15.764,4.418-24.59.479-2.2.976-4.4,1.516-6.538s1.1-4.226,1.668-6.224c.288-1,.587-1.968.877-2.917.311-.934.588-1.868.9-2.739s.6-1.733.917-2.533c.3-.816.614-1.57.916-2.294s.619-1.378.9-2.021c.293-.627.6-1.176.87-1.715l.805-1.383.7-1.042c.174-.207.3-.342.4-.494l.074-.1a.664.664,0,0,1,.069-.079l.086-.093.305-.332.559-.606.032-.034c.136-.149.267-.3.391-.468a6.631,6.631,0,0,0-1.257-9.294"/><path class="f" d="M1366.328,3199.026c-.123,2.009-.194,3.157-.194,3.157a3.583,3.583,0,0,0,7.126.7l.426-3.126c.267-1.943.645-4.7,1.138-7.988l-7.945-.989c-.245,3.412-.428,6.255-.551,8.247"/><path class="e" d="M1402.761,3216.855l-.839-6.546a12.276,12.276,0,0,1-.089-1.635c.124-6.485,5.75-11.672,12.565-11.586s12.241,5.414,12.118,11.9l-.127,6.6c-.023,2.161-.133,4.5-.209,6.766-.484,13.156-1.454,73.992-2.543,87.422h-8.117s-9.853-71.553-12.759-92.918"/><path class="e" d="M1399.7,3277c-.11-2.182-.2-4.362-.278-6.539s-.16-4.355-.22-6.529l-.1-3.262-.059-3.257c-.041-2.172-.085-4.342-.085-6.51s-.046-.267-.011-2.431l.066-6.486.162-6.472c.056-2.156.172-4.307.256-6.458.05-1.072.079-2.158.147-3.216l.2-3.175c.139-2.131.237-4.184.432-6.414l.523-6.578a12.254,12.254,0,0,0,.01-1.638c-.435-6.472-6.3-11.382-13.108-10.968s-11.966,6-11.53,12.468l.443,6.584c.127,2.157.35,4.491.534,6.748,1.116,13.117,3.8,22.109,5.943,35.1,2.139,12.934,7.72,39.159,10.853,51.81h7.623l-1.476-26.22Z"/><path class="o" d="M1417.639,3153.138c.394-4.187,3.875-5.832,3.875-13.761,0-2.477-1.584-5.537-3.077-8.977-.344-.793,1.129-3.323,2.213-4.542l-5.109-4.531c-2.665,5.14-9.524,13.434-14.194,13.95-4.671-.516-10.674-8.248-14.2-13.95l-5.109,4.531c1.084,1.219,2.557,3.749,2.213,4.542-1.493,3.44-3.077,6.5-3.077,8.977,0,7.929,3.539,9.569,3.875,13.761,1.665,20.8-5.639,27.84-8.75,46.75h50.277c-3.092-20.944-10.962-25.239-8.942-46.75"/><path class="f" d="M1391.336,3116.4l-9.292,9.454c1.085,1.22,2.557,3.749,2.213,4.542-1.493,3.44-3.049,6.5-3.077,8.977-.175,15.568,1.882,24.586,1.068,32.528-1.524,14.863-6.25,21.884-6.25,32.332h15.338Z"/><path class="f" d="M1426.785,3204.237c0-11.487-4.907-18.528-6.438-32.332-.886-7.989,1.348-18.935,1.166-32.528-.033-2.477-1.583-5.537-3.076-8.977-.345-.793,1.128-3.323,2.212-4.543l-9.357-9.453v87.833Z"/><path class="f" d="M1417.659,3122.882l-6.367-6.478v87.833l4.327.03,2.041-66.415-4.274-4.211Z"/><path class="f" d="M1384.966,3122.882l6.367-6.478v87.833l-4.327.03-2.041-66.415,4.274-4.211Z"/><path class="e" d="M1391.421,3303.627l1.489,5.341a1.865,1.865,0,0,0,1.8,1.364h5.629a1.866,1.866,0,0,0,1.866-1.865V3303.3a1.23,1.23,0,0,0-1.23-1.23h-8.366a1.231,1.231,0,0,0-1.185,1.561"/><path class="e" d="M1413.613,3303.55l1.119,5.3a1.866,1.866,0,0,0,1.825,1.479h6.168a1.865,1.865,0,0,0,1.86-1.735l.364-5.214a1.23,1.23,0,0,0-1.227-1.316h-8.905a1.231,1.231,0,0,0-1.2,1.484"/><path class="e" d="M1400.788,3058.974c-.186,3.388-8.952,2.424-8.142,4.4,6.671,16.332,19.647,6.665,23.277,25.736,0,2.985-1.65,10.781-2.951,13.079,0,0,3.745,7.41,6.376,9.909,0-12.469,2.376-21.629,2.13-36.339,0,0-4.511-20.652-20.69-16.79"/><path class="e" d="M1401.5,3060.4c.185,3.389-8.849.843-8.849,2.982,0,10.843-6.377,13.844-6.38,26.092.211,3.71,6.009,15.569,6.009,15.569-4.5,2.17-8.254.87-9.033-.959a3.5,3.5,0,0,0,1.32-2.211c-4.463,1.83-6.936-3.964-6.936-3.964,3.067.525,6.8-.721,3.059-22.142,0,0,4.631-19.229,20.81-15.367"/><path class="d" d="M1384.293,3082.127a3.331,3.331,0,1,0,3.332,3.331,3.331,3.331,0,0,0-3.332-3.331"/><path class="d" d="M1333.094,3190.789a12.087,12.087,0,0,0-.848-3.309,34.389,34.389,0,0,0-2.364-4.658c-.045-.077-.091-.149-.137-.226-1.747,1.294-4.715,3.519-6.69,5.144a27.487,27.487,0,0,1,2.115,2.983,1.951,1.951,0,0,1,.2.966,5.325,5.325,0,0,1-.531.593c-.19.153-.267.26-.419.366s-.28.236-.476.4c-.173.146-.351.315-.548.494-.064-.061-.114-.122-.178-.182-.222-.2-.434-.407-.663-.6a7.817,7.817,0,0,0-.678-.537l-.664-.443a2.572,2.572,0,0,0-2.715-.081,7.224,7.224,0,0,1,3.754,2.988c.062-.145.123-.284.185-.414a.357.357,0,0,1,.646.306c-.574,1.208-1.172,3.048-.694,6.588a.356.356,0,0,1-.3.4l-.048,0a.357.357,0,0,1-.354-.309,18.875,18.875,0,0,1-.179-2.363c-.122-.145-.27-.333-.453-.588a21.541,21.541,0,0,0-2.4-2.975,4.32,4.32,0,0,0-1.437-.852c.008.2.022.4.039.6a11.411,11.411,0,0,0,.166,1.174,14.228,14.228,0,0,0,.616,2.2,12.9,12.9,0,0,0,1.02,2.149,8.94,8.94,0,0,0,.873,1.219c.1.123.219.243.368.388a5.529,5.529,0,0,0,.581.493,4.792,4.792,0,0,0,1.37.712c.082.028.208.065.337.1s.245.056.388.079a4.481,4.481,0,0,0,1.085.035,4.315,4.315,0,0,0,.651-.106c.117-.028.233-.061.347-.1l.17-.058.084-.032.124-.052a4.556,4.556,0,0,0,.934-.548l.121-.093,1.059-.934c.241-.23.488-.45.725-.688a20.48,20.48,0,0,0,1.4-1.532c.233-.282.465-.581.7-.919a12.46,12.46,0,0,0,.715-1.128,8.019,8.019,0,0,0,.576-1.281,5.966,5.966,0,0,0,.239-.926,5.727,5.727,0,0,0,.979-1.941,6.9,6.9,0,0,0,.211-2.5"/><path class="d" d="M1321.547,3197.647a9.988,9.988,0,0,1,.365-2.013.39.39,0,0,1-.088-.108,6.4,6.4,0,0,0-3.945-3.183.35.35,0,0,1-.089-.039,2.564,2.564,0,0,0-.564,1.352,5.146,5.146,0,0,1,1.952,1.094,20.246,20.246,0,0,1,2.369,2.9"/><path class="d" d="M1333.094,3190.789a12.087,12.087,0,0,0-.848-3.309,34.389,34.389,0,0,0-2.364-4.658c-.045-.077-.091-.149-.137-.226-1.747,1.294-4.715,3.519-6.69,5.144a27.487,27.487,0,0,1,2.115,2.983,1.951,1.951,0,0,1,.2.966,5.325,5.325,0,0,1-.531.593c-.19.153-.267.26-.419.366s-.28.236-.476.4c-.173.146-.351.315-.548.494-.064-.061-.114-.122-.178-.182-.222-.2-.434-.407-.663-.6a7.817,7.817,0,0,0-.678-.537l-.664-.443a2.572,2.572,0,0,0-2.715-.081,7.224,7.224,0,0,1,3.754,2.988c.062-.145.123-.284.185-.414a.357.357,0,0,1,.646.306c-.574,1.208-1.172,3.048-.694,6.588a.356.356,0,0,1-.3.4l-.048,0a.357.357,0,0,1-.354-.309,18.875,18.875,0,0,1-.179-2.363c-.122-.145-.27-.333-.453-.588a21.541,21.541,0,0,0-2.4-2.975,4.32,4.32,0,0,0-1.437-.852c.008.2.022.4.039.6a11.411,11.411,0,0,0,.166,1.174,14.228,14.228,0,0,0,.616,2.2,12.9,12.9,0,0,0,1.02,2.149,8.94,8.94,0,0,0,.873,1.219c.1.123.219.243.368.388a5.529,5.529,0,0,0,.581.493,4.792,4.792,0,0,0,1.37.712c.082.028.208.065.337.1s.245.056.388.079a4.481,4.481,0,0,0,1.085.035,4.315,4.315,0,0,0,.651-.106c.117-.028.233-.061.347-.1l.17-.058.084-.032.124-.052a4.556,4.556,0,0,0,.934-.548l.121-.093,1.059-.934c.241-.23.488-.45.725-.688a20.48,20.48,0,0,0,1.4-1.532c.233-.282.465-.581.7-.919a12.46,12.46,0,0,0,.715-1.128,8.019,8.019,0,0,0,.576-1.281,5.966,5.966,0,0,0,.239-.926,5.727,5.727,0,0,0,.979-1.941,6.9,6.9,0,0,0,.211-2.5"/><path class="d" d="M1321.547,3197.647a9.988,9.988,0,0,1,.365-2.013.39.39,0,0,1-.088-.108,6.4,6.4,0,0,0-3.945-3.183.35.35,0,0,1-.089-.039,2.564,2.564,0,0,0-.564,1.352,5.146,5.146,0,0,1,1.952,1.094,20.246,20.246,0,0,1,2.369,2.9"/><path class="j" d="M1343.388,3116.88a10.476,10.476,0,0,0-14.752,1.367l-.011.014-3.209,3.864c-1.083,1.3-2.184,2.634-3.279,3.986s-2.189,2.729-3.27,4.128-2.143,2.833-3.188,4.286l-.767,1.1,11.9,11.9.227-.232,1.665-1.628q1.7-1.611,3.457-3.187c1.182-1.051,2.38-2.093,3.608-3.134l3.747-3.134,3.866-3.205a11.178,11.178,0,0,0,1.371-1.372,10.475,10.475,0,0,0-1.367-14.752"/><path class="j" d="M1319.242,3163.106a17.3,17.3,0,0,1-1.285-3.431,2.568,2.568,0,0,1,.226-1.872c1.035-1.641,8.633-10.279,8.633-10.279l-11.9-11.9-.777,1.112-1.5,2.253-1.452,2.3-1.394,2.348-1.329,2.4c-.432.806-.841,1.63-1.258,2.442-1.735,3.376-3.118,7.061-2.591,10.914a25.782,25.782,0,0,0,4.737,11.189c2.341,3.384,14.2,17.352,14.782,18.344.06.1,5.312-4.081,7.143-5.437-.621-1.323-10.808-17.764-12.03-20.375"/><path class="j" d="M1335.736,3044.441c-3.136-6.228,10.469-12.261,23.384-12.261s26.2,5.883,23.384,12.261c-2.392,5.411-10.469,14.764-23.384,14.764s-19.829-7.705-23.384-14.764"/><path class="o" d="M1381.539,3058.088c1.365-.752,2.4-2.023,3.671-4.439-5.092.055-7.158-12.914-11.648-17.5a18.884,18.884,0,0,0-14.3-5.756c-19.022,0-22.5,18.767-22.5,19.486-.338,3.814-.96,4.356-4.283,5.9a11.248,11.248,0,0,0,5.011,9.033c.289,11.276,6.794,14.813,15.265,16.112,10.908,1.673,19.787.365,24.589-5.407a23.25,23.25,0,0,0,4.185-7.882,7.738,7.738,0,0,0,4.319-3.96c-2.056-.783-3.338-2.862-4.313-5.586"/><path class="d" d="M1377.153,3055.279a17.979,17.979,0,0,0-35.958.143v11.206c0,9.944,4.9,20.483,17.981,18.005,9.25-1.753,11.942,9.738,17.977-16.437Z"/><path class="o" d="M1344.921,3044.264s.523,12.881-3.871,13.62c0,0-7.573-8.7,3.871-13.62"/><path class="d" d="M1369.781,3096.865c-2.712-7.071,5.357-16.27,5.357-21.834h-32.187c0,4.708,8.245,15.282,5.269,21.834-1.838,4.045-7.606,11.983-7.606,11.983h36.773s-6.015-7.835-7.606-11.983"/><path class="o" d="M1373.168,3044.264s-1.442,10.954,4.02,13.62c0,0,7.424-8.7-4.02-13.62"/><path class="d" d="M1374.342,3061.021a3.483,3.483,0,0,1,3.474-3.539,3.621,3.621,0,0,1,3.634,3.539,3.725,3.725,0,0,1-3.3,3.531l-3.579-.073s-.226-3.177-.226-3.458"/><path class="d" d="M1342.9,3061.021a3.484,3.484,0,0,0-3.474-3.539,3.622,3.622,0,0,0-3.635,3.539,3.726,3.726,0,0,0,3.3,3.531l3.579-.073s.226-3.177.226-3.458"/><path class="r" d="M1367.269,3058.515a2.448,2.448,0,0,1-4.405,0m-7.638,0a2.448,2.448,0,0,1-4.4,0"/><path class="p" d="M1355.677,3051.474a5.485,5.485,0,0,0-2.525-.64,10.863,10.863,0,0,0-3.907,1.174m18.879,0a13.652,13.652,0,0,0-3.965-1.174,4.355,4.355,0,0,0-2.477.7m5-.063a5.485,5.485,0,0,0-2.525-.64,4.355,4.355,0,0,0-2.477.7c-2.223,1.673-2.428,5.937-1.239,9.133.392,1.055,1.209,1.818,1.282,3.173.058,1.1-.577,2.353-2.639,2.353a2.4,2.4,0,0,1-2.638-2.146"/><path class="e" d="M1353.023,3059.011h0a1.233,1.233,0,0,1-1.23-1.229v-1a1.229,1.229,0,0,1,2.459,0v1a1.233,1.233,0,0,1-1.229,1.229"/><path class="e" d="M1365.067,3059.011h0a1.233,1.233,0,0,1-1.23-1.229v-1a1.229,1.229,0,0,1,2.459,0v1a1.233,1.233,0,0,1-1.229,1.229"/><path class="j" d="M1354.888,3318.65l-.095-3.04h-9.538c-.4.242-2.877,1.6-6.028,3.753-1.875,1.284-9.018,2.216-9.457,3.1a2.7,2.7,0,0,0,1.779,3.811c.386.095,9.32-.192,9.971-.321,4.947-.977,12.651-2.607,12.651-2.607.983-.943.765-3.226.717-4.7"/><path class="j" d="M1363.1,3318.65l.094-3.04h9.539c.4.242,2.876,1.6,6.027,3.753,1.876,1.284,9.019,2.216,9.458,3.1a2.7,2.7,0,0,1-1.78,3.811c-.385.095-9.319-.192-9.97-.321-4.948-.977-12.651-2.607-12.651-2.607-.984-.943-.765-3.226-.717-4.7"/><path class="s" d="M1387.136,3182.854h-56.483s.333,13.365.585,18.394q.025.4.079.786c1.673,32.371,9.687,115.288,9.687,115.288h13.827l-.022-2.378c-1.319-30.485-1.7-65.2-.417-98.986h9.184c1.289,33.79.9,68.5-.416,98.986l-.021,2.378h13.826s8.062-83.45,9.714-115.818c.015-.241.024-.479.028-.717.2-4.551.429-17.933.429-17.933"/><path class="d" d="M1403,3209.541a1.934,1.934,0,0,0-.046-.276c-.157-2.976-.833-6.147-1.267-9.211a37.6,37.6,0,0,1-.321-6.933l-7.925,1.259.123,3.386c.638,4.493-.855,4.39-1.885,7.772-.04.05-.081.1-.125.155l-.459.6c-.174.221-.336.468-.509.728s-.347.55-.521.852-.335.644-.5.981a10.345,10.345,0,0,0-.4,1.1,5.344,5.344,0,0,0-.152.571,5.476,5.476,0,0,0-.114.57,9.728,9.728,0,0,0-.116,1.095c-.013.345-.016.67-.005.966s.025.566.039.81c.061.926.1,1.543.1,1.543l0,.059a1.385,1.385,0,0,0,2.758.058l.174-1.6c.027-.227.053-.469.091-.711s.08-.486.133-.727a6.2,6.2,0,0,1,.2-.691,1.975,1.975,0,0,1,.076-.189,13.645,13.645,0,0,0,1.194,2.134c0,.014,0,.026,0,.041-.037.345-.062.719-.112,1.092-.07.362-.11.759-.2,1.128a9.364,9.364,0,0,1-.313,1.1,8.456,8.456,0,0,1-.422,1.019l-.264.451c-.082.154-.2.272-.288.411a2.906,2.906,0,0,1-.312.37l-.157.175-.172.154a5.781,5.781,0,0,1-.691.54c-.237.15-.461.287-.679.4s-.417.2-.576.282l-.54.239-.028.012a1.256,1.256,0,0,0,.884,2.347s.223-.069.614-.193c.2-.073.443-.141.73-.261a10.434,10.434,0,0,0,.962-.425l.29-.159a1.279,1.279,0,0,0,.193.339,1.256,1.256,0,0,0,1.767.177l.019-.016.478-.391.355-.287a1.254,1.254,0,0,0,1.662.491l.133-.07c.088-.047.211-.1.379-.2.121-.068.267-.153.425-.25a1.247,1.247,0,0,0,1.312.053l.154-.088a4.312,4.312,0,0,0,.434-.268,4.66,4.66,0,0,0,.635-.523,3.523,3.523,0,0,0,.346-.376,3.352,3.352,0,0,0,.332-.444,4.161,4.161,0,0,0,.3-.5,5.441,5.441,0,0,0,.263-.541,10.725,10.725,0,0,0,.42-1.156c.1-.389.218-.8.3-1.2.095-.408.153-.807.226-1.213.125-.805.219-1.6.3-2.34.014-.132.025-.261.038-.39a16.036,16.036,0,0,0,.251-3.349l.014-.212a2.376,2.376,0,0,0,0-.267"/><path class="j" d="M1397.648,3144.036a216.907,216.907,0,0,1,3.932,28.106q.531,7.173.586,14.371c.008,1.031-.179,12.954-.559,12.954h-7.843c-.371-7.481-2.19-16.248-4.045-24.07-2.148-9.052-4.289-18.3-7.461-27.045-.43-1.2-.876-2.341-1.318-3.439-.084-.211-.169-.418-.254-.625l15.431-6.823c.538,2.071,1.052,4.271,1.531,6.571"/><path class="j" d="M1376.952,3114.961a9.835,9.835,0,0,1,12.987,4.978s.159.358.459,1.03c.178.4.4.891.654,1.469.235.554.507,1.189.79,1.9.57,1.427,1.231,3.157,1.9,5.146s1.358,4.233,2.027,6.673c.117.428.232.865.346,1.305l-15.431,6.823c-.356-.872-.714-1.712-1.067-2.516-.435-1-.871-1.934-1.294-2.817s-.845-1.7-1.249-2.466c-.8-1.525-1.54-2.811-2.175-3.84-.314-.517-.6-.967-.855-1.359-.241-.36-.446-.666-.614-.913l-.63-.936-.032-.046a9.986,9.986,0,0,1-.8-1.447,9.835,9.835,0,0,1,4.977-12.987"/><path class="o" d="M1388.056,3123c-2.043-2.82-15.394-19.887-17.293-22.8L1359,3109.388l-11.861-9.188c-1.813,2.9-14.862,19.527-17.1,22.8,0,0-.253,46.6.615,64.2h56.484c.509-13.322.918-64.2.918-64.2"/><rect class="f" width="59.052" height="5.914" transform="translate(1329.368 3187.207)"/><rect class="t" width="10.093" height="5.914" rx="2.314" transform="translate(1353.535 3187.207)"/><line class="u" x1="4.067" transform="translate(1360.234 3190.022)"/><path class="j" d="M1370.764,3098.612,1359,3107.8l-11.862-9.188-1.566,2.147L1359,3111.581l13.76-10.2Z"/><path class="s" d="M1347.828,3097.335l9.6,6.5-5.246,7.208-8.328-7.887Z"/><path class="e" d="M1357.425,3103.837v2.743l-1.277-.989Z"/><path class="s" d="M1370.14,3097.335l-9.6,6.5,5.247,7.208,8.328-7.887Z"/><path class="e" d="M1360.538,3103.837v2.759l1.28-1Z"/><path class="j" d="M1389.868,3149.945l-1.816-32.81c-2.042-2.819-13.486-12.943-15.385-15.859l-1.043,68.123a200.1,200.1,0,0,0,2.5,34.771h0a8.411,8.411,0,0,0,8.305,7.078h5.58Z"/><path class="j" d="M1345.413,3100.857c-1.813,2.9-13.136,13-15.374,16.278l-2.185,32.81,1.708,61.3h6.222a8.41,8.41,0,0,0,8.307-7.09,200.154,200.154,0,0,0,2.453-34.744Z"/><path class="j" d="M1372.666,3101.276l9.76,12.72-10.438,26.56Z"/><path class="j" d="M1372.376,3117.93l14.334,12.782-15.106,40.81Z"/><path class="j" d="M1345.423,3100.857l-9.76,13.313,10.438,26.56Z"/><path class="j" d="M1345.73,3117.93l-14.348,12.782,15.185,40.81Z"/><path class="o" d="M1348.013,3041.087a7.029,7.029,0,0,1,7.286.73c3.729,2.8,4.393,2.769,6.967.166a6.072,6.072,0,0,1,6.564-1.673c-.066-4.462-16.361-8.1-20.817.777"/><rect class="j" width="2.241" height="13.116" transform="translate(1356.785 3108.228)"/><path class="j" d="M1361.732,3113.611a.853.853,0,1,1-.852-.853.853.853,0,0,1,.852.853"/><path class="j" d="M1361.732,3117.93a.853.853,0,1,1-.852-.852.853.853,0,0,1,.852.852"/><path class="j" d="M1382.427,3040.66c3.136,6.227-10.469,3.25-23.384,3.25s-26.2,3.128-23.384-3.25c2.392-5.411,7.873-14.764,20.788-14.764s22.425,7.705,25.98,14.764"/><path class="j" d="M1341.766,3044.205s0,2.826,4.474,3.821c5.507,1.225,10.482-3.023,14.982-3.081,4.12-.054,14.929,6.129,16.9-.681,0,0-4.315.706-7.57-.711-6.868-2.988-12.127-3.21-21.39.207-2.527.933-4.531-.4-7.393.445"/><path class="p" d="M1354.465,3086c2.224,1.564,8.176,1.382,10.128,0"/><path class="j" d="M1368.755,3067.246c-3.024,1.591-16.62,1.679-19.508.228,0,0,2.5,8.356,9.681,8.356,7.331,0,9.827-8.584,9.827-8.584"/><path class="o" d="M1350.761,3067.94c1.446,2.351,4.026,5.121,8.164,5.121,4.252,0,6.875-2.887,8.33-5.312a52.282,52.282,0,0,1-16.494.191"/><path class="o" d="M1358.926,3075.83a8.564,8.564,0,0,0,5.5-1.971,61.7,61.7,0,0,1-10.815.12,8.455,8.455,0,0,0,5.314,1.851"/><path class="e" d="M1377.74,3054.913h-1.215a2.684,2.684,0,0,0-.645-1.357,3.682,3.682,0,0,0-2.756-1.214h-10.263a2.892,2.892,0,0,0-2.171.768,2.427,2.427,0,0,0-.643,1.415h-1.742a2.438,2.438,0,0,0-.642-1.416,2.9,2.9,0,0,0-2.172-.767h-10.263a3.682,3.682,0,0,0-2.756,1.214,2.684,2.684,0,0,0-.645,1.357h-1.157a.623.623,0,1,0,0,1.247h1.771a.645.645,0,0,0,.091-.009c.215,1.388.517,2.944.827,4.151a2.976,2.976,0,0,0,2.787,2.571h8.428c1.539,0,2.622-.313,2.76-2.307.112-1.608.274-3.321.349-4.8l.027,0h2.932l.027,0c.075,1.475.237,3.188.348,4.8.139,1.994,1.223,2.307,2.762,2.307h8.427a2.976,2.976,0,0,0,2.787-2.571c.31-1.207.613-2.763.827-4.151a.661.661,0,0,0,.091.009h1.829a.623.623,0,0,0,0-1.247"/></g></g></svg>