<svg xmlns="http://www.w3.org/2000/svg" width="126.844" height="128.56" viewBox="0 0 126.844 128.56"><defs><style>.a{fill:#05be50;}.b{fill:#fff;}</style></defs><g transform="translate(-1034.023 -2298.154)"><path class="a" d="M1036.273,2426.714a2.251,2.251,0,0,1-2.25-2.25V2394.9c0-15.618,12.727-30.718,28.371-33.662l43.584-8.2h0c7.832-1.473,15.211.255,20.771,4.866,5.437,4.509,8.431,11.217,8.432,18.889v29.656a2.251,2.251,0,0,1-1.838,2.212l-96.657,18.019A2.223,2.223,0,0,1,1036.273,2426.714Zm70.537-69.257-43.584,8.2c-13.621,2.563-24.7,15.679-24.7,29.239v26.86l92.158-17.18v-27.787c0-6.309-2.417-11.787-6.805-15.425-4.511-3.742-10.575-5.13-17.066-3.907Z"/><path class="a" d="M1079.367,2359.374a24.9,24.9,0,0,1-16.115-5.628c-5.673-4.706-8.8-11.7-8.8-19.7,0-16.374,13.336-32.228,29.728-35.341,8.206-1.558,15.932.237,21.754,5.056,5.683,4.7,8.813,11.714,8.813,19.735,0,16.4-13.337,32.257-29.731,35.342A30.5,30.5,0,0,1,1079.367,2359.374Zm10.483-56.718a25.837,25.837,0,0,0-4.828.466c-14.374,2.73-26.068,16.6-26.068,30.92,0,6.638,2.547,12.405,7.171,16.24,4.772,3.957,11.184,5.424,18.061,4.131,14.371-2.706,26.063-16.577,26.063-30.921,0-6.656-2.551-12.434-7.184-16.269A20.417,20.417,0,0,0,1089.85,2302.656Z"/><path class="b" d="M1157.759,2368.622l-24.042-2.652a1.273,1.273,0,0,0-.69.131l-24.042,11.73a1.512,1.512,0,0,0-.856,1.306v26.283c0,10.566,16.209,17,24.889,18.1a1.154,1.154,0,0,0,.355-.012,1.345,1.345,0,0,0,.356-.118c8.679-4.282,24.889-16.7,24.889-27.333v-26.447A.952.952,0,0,0,1157.759,2368.622Z"/><path class="a" d="M1133.152,2425.779a3.433,3.433,0,0,1-.419-.026c-8.412-1.069-26.854-7.674-26.854-20.333v-26.283a3.743,3.743,0,0,1,2.125-3.331l24.037-11.727a3.538,3.538,0,0,1,1.913-.346l24.053,2.652h.006a3.192,3.192,0,0,1,2.854,3.225v26.447c0,12.308-17.952,25.31-26.141,29.351a3.65,3.65,0,0,1-.948.313A3.488,3.488,0,0,1,1133.152,2425.779Zm-22.773-46.124v25.765c0,8.922,14.776,14.728,22.608,15.827a66.072,66.072,0,0,0,14.876-10.759c5.485-5.3,8.5-10.429,8.5-14.43v-25.327l-22.593-2.491Zm-.4.2h0Z"/><path class="a" d="M1143.781,2380.966a1.1,1.1,0,0,0-1.487.3l-13.981,17.246-3.86-3.121a1.08,1.08,0,0,0-1.487.331,1.123,1.123,0,0,0,0,1.55l4.6,3.716a.863.863,0,0,0,.745.143,1.371,1.371,0,0,0,.742-.491l14.726-18.186A1.05,1.05,0,0,0,1143.781,2380.966Z"/><path class="a" d="M1128.08,2402.659a2.307,2.307,0,0,1-1.44-.492l-4.617-3.727a2.59,2.59,0,0,1-.234-3.647,2.8,2.8,0,0,1,1.874-1.065,2.322,2.322,0,0,1,1.739.5l2.689,2.174,13.038-16.083a2.6,2.6,0,0,1,3.588-.529h0a2.329,2.329,0,0,1,.859,1.6,2.767,2.767,0,0,1-.64,2.024l-14.714,18.171a2.861,2.861,0,0,1-1.566,1.008A2.527,2.527,0,0,1,1128.08,2402.659Zm-4.57-6.1.006,0Zm19.335-14.421h0Zm-.23-.627Z"/></g></svg>