<svg xmlns="http://www.w3.org/2000/svg" xmlns:xlink="http://www.w3.org/1999/xlink" width="138.11" height="138.11" viewBox="0 0 138.11 138.11"><defs><style>.a,.h{fill:none;}.b{fill:#63b2e9;}.c{clip-path:url(#a);}.d,.k{fill:#fff;}.e{fill:#262d61;}.f{fill:#5794dd;}.g{fill:#f9c067;}.h{stroke:#f9c067;stroke-linecap:round;stroke-linejoin:round;stroke-width:14.636px;}.i{fill:#ffd592;}.j{fill:#37c771;}.k,.l{opacity:0.19;}.k{isolation:isolate;}</style><clipPath id="a"><path class="a" d="M1209,3038.579a69.055,69.055,0,1,1-45.981-17.534A68.884,68.884,0,0,1,1209,3038.579"/></clipPath></defs><g transform="translate(-1093.967 -3021.045)"><circle class="b" cx="69.055" cy="69.055" r="69.055" transform="translate(1093.967 3021.045)"/><g class="c"><rect class="d" width="57.465" height="98.541" rx="9.629" transform="translate(1106.796 3063.055) rotate(-25.667)"/><rect class="e" width="49.256" height="73.913" transform="translate(1114.051 3068.677) rotate(-25.667)"/><circle class="f" cx="4.105" cy="4.105" r="4.105" transform="translate(1168.114 3128.753)"/><path class="g" d="M1186.805,3169.376c5.01-8,11.051-10.656,23.12-15.134,1.519,4.6,4.622,13.856,6.578,19.86l-27.342,7.266Z"/><path class="g" d="M1198.084,3172.188l7.121-2.039c5.158-2.04,11.608-10.8,8.524-18.287l-6.839-16.4-41.038,22.07,3.837,5.763A23.659,23.659,0,0,0,1198.084,3172.188Z"/><path class="g" d="M1169.1,3151.8h0a5.142,5.142,0,0,0,6.933,2.237l11.867-6.6a5.146,5.146,0,0,0,1.791-7.025h0a5.142,5.142,0,0,0-6.934-2.237l-11.867,6.6A5.146,5.146,0,0,0,1169.1,3151.8Z"/><path class="g" d="M1206.628,3146.916h0a5.142,5.142,0,0,0,2.482-6.85l-6.173-12.093a5.146,5.146,0,0,0-6.958-2.039h0a5.142,5.142,0,0,0-2.482,6.849l6.174,12.094A5.145,5.145,0,0,0,1206.628,3146.916Z"/><path class="g" d="M1198.221,3150.7h0a5.141,5.141,0,0,0,2.482-6.849l-6.173-12.094a5.145,5.145,0,0,0-6.957-2.039h0a5.142,5.142,0,0,0-2.482,6.85l6.173,12.093A5.145,5.145,0,0,0,1198.221,3150.7Z"/><path class="g" d="M1188.54,3154.329h0a5.142,5.142,0,0,0,2.482-6.849l-6.174-12.094a5.146,5.146,0,0,0-6.957-2.039h0a5.143,5.143,0,0,0-2.482,6.85l6.174,12.093A5.145,5.145,0,0,0,1188.54,3154.329Z"/><path class="h" d="M1176.419,3165.812s-14.744-11.57-22.126-13.406"/><circle class="i" cx="3.916" cy="3.916" r="3.916" transform="translate(1150.864 3151.012)"/></g><path class="j" d="M1149,3114.045l23.754-11.916a5.325,5.325,0,0,1,7.148,2.372h0a5.325,5.325,0,0,1-2.372,7.148l-23.754,11.916a5.325,5.325,0,0,1-7.148-2.372h0A5.325,5.325,0,0,1,1149,3114.045Z"/><path class="k" d="M1151.074,3059.942a3.854,3.854,0,0,0-1.9,4.745l-3.613,1.813a3.852,3.852,0,0,0-6.837,3.429l-3.614,1.813a3.852,3.852,0,1,0,.417.83l3.613-1.813a3.852,3.852,0,0,0,6.837-3.43l3.614-1.812a3.853,3.853,0,1,0,1.481-5.575Z"/><g class="l"><rect class="d" width="31.351" height="1.857" transform="translate(1138.245 3098.72) rotate(-26.64)"/></g><g class="l"><rect class="d" width="8.068" height="1.857" transform="translate(1140.686 3103.585) rotate(-26.64)"/></g><g class="l"><path class="d" d="M1164.641,3081.663l-27.827,13.96-3.882-7.738,27.828-13.959Zm-27,11.468,24.508-12.3-2.217-4.42-24.508,12.295Z"/></g><path class="g" d="M0,0H11.507a0,0,0,0,1,0,0V40.245a5.548,5.548,0,0,1-5.548,5.548H5.548A5.548,5.548,0,0,1,0,40.245V0A0,0,0,0,1,0,0Z" transform="matrix(-0.893, 0.45, -0.45, -0.893, 1181.191, 3151.333)"/><circle class="i" cx="3.916" cy="3.916" r="3.916" transform="translate(1154.257 3114.493)"/></g></svg>