<svg xmlns="http://www.w3.org/2000/svg" xmlns:xlink="http://www.w3.org/1999/xlink" width="138.11" height="138.11" viewBox="0 0 138.11 138.11"><defs><style>.a,.d,.n{fill:none;}.b{fill:#63b2e9;}.c{clip-path:url(#a);}.d,.n{stroke:#f9c067;stroke-linecap:round;stroke-linejoin:round;}.d{stroke-width:22.281px;}.e{fill:#222a63;}.f{fill:#269159;}.g{fill:#2eb964;}.h{fill:#37c771;}.i,.l{fill:#5794dd;}.i{fill-rule:evenodd;}.j{fill:#fff;}.k{fill:#3c62af;}.m{fill:#f9c067;}.n{stroke-width:16.205px;}.o{fill:#fd9500;}</style><clipPath id="a"><circle class="a" cx="69.055" cy="69.055" r="69.055" transform="translate(1482.79 3021.045)"/></clipPath></defs><g transform="translate(-1482.79 -3021.045)"><circle class="b" cx="69.055" cy="69.055" r="69.055" transform="translate(1482.79 3021.045)"/><g class="c"><path class="d" d="M1514.6,3158.94c8.736.132,14.981-13,28.733-20.323"/><path class="e" d="M1569.535,3088.155l-.85-3.519a4.443,4.443,0,0,0-5.362-3.276l-54.981,13.278-2.891,4.732c1.962,1.9,3.5,3.416,3.5,3.416Z"/><path class="e" d="M1563.323,3081.36l-54.671,13.2.734,4.394,54.98-13.278,4.319-1.043A4.443,4.443,0,0,0,1563.323,3081.36Z"/><path class="f" d="M1531.744,3048.727l-18.215,57.369a3.125,3.125,0,0,0,1.7,3.99l26.661,8.464c1.569.5,3.1-.721,3.6-2.306l18.215-57.369a2.676,2.676,0,0,0-1.737-3.561l-26.662-8.465A2.75,2.75,0,0,0,1531.744,3048.727Z"/><path class="g" d="M1546.841,3045.933l-27.811,53.382a3.124,3.124,0,0,0,.989,4.222l24.808,12.925c1.46.76,3.175-.178,3.943-1.653l27.811-53.382a2.675,2.675,0,0,0-1.1-3.806l-24.808-12.925A2.751,2.751,0,0,0,1546.841,3045.933Z"/><path class="h" d="M1563.027,3048.629l-36.57,47.809a3.122,3.122,0,0,0,.249,4.329l22.218,16.995c1.307,1,3.158.37,4.168-.95l36.57-47.809a2.675,2.675,0,0,0-.428-3.939l-22.218-16.995A2.75,2.75,0,0,0,1563.027,3048.629Z"/><path class="i" d="M1570.446,3066.545a20.507,20.507,0,0,0-18.6-3.294l-14.4,18.824a20.525,20.525,0,0,0,26.635,20.374l14.4-18.824A20.5,20.5,0,0,0,1570.446,3066.545Z"/><path class="j" d="M1556.816,3090.8a1.335,1.335,0,0,1-.728-.265.928.928,0,0,1-.288-.4,2.052,2.052,0,0,1-.128-.477,1.856,1.856,0,0,1-.014-.409c.011-.117.031-.177.062-.181a3.878,3.878,0,0,0,.8-.108,4.139,4.139,0,0,0,.825-.3,5,5,0,0,0,.8-.483,3.807,3.807,0,0,0,.7-.669,2.548,2.548,0,0,0,.644-1.329,1.069,1.069,0,0,0-.438-.974.861.861,0,0,0-.571-.214,1.409,1.409,0,0,0-.594.166,4.205,4.205,0,0,0-.643.42q-.339.264-.715.572a12.029,12.029,0,0,1-1.067.751,4.2,4.2,0,0,1-1.141.5,2.72,2.72,0,0,1-1.2.05,2.812,2.812,0,0,1-1.238-.606,3.051,3.051,0,0,1-.867-1.053,2.808,2.808,0,0,1-.283-1.282,4.008,4.008,0,0,1,.3-1.423,5.759,5.759,0,0,1,.891-1.478,7.227,7.227,0,0,1,1.19-1.2,4.4,4.4,0,0,1,1.1-.645,2.2,2.2,0,0,1,.932-.169,1.2,1.2,0,0,1,.685.24.939.939,0,0,1,.309.434,2.253,2.253,0,0,1,.12.5,1.675,1.675,0,0,1,0,.416c-.019.118-.034.178-.05.18a3.937,3.937,0,0,0-1.494.371,3.508,3.508,0,0,0-1.3,1.01,2.29,2.29,0,0,0-.588,1.268,1.061,1.061,0,0,0,.417.937.822.822,0,0,0,.536.206,1.276,1.276,0,0,0,.554-.156,3.292,3.292,0,0,0,.614-.422q.327-.274.724-.585a11.229,11.229,0,0,1,1.173-.815,4.169,4.169,0,0,1,1.2-.5,3.045,3.045,0,0,1,1.209-.045,2.6,2.6,0,0,1,1.186.566,2.933,2.933,0,0,1,1.227,2.4,5.079,5.079,0,0,1-1.338,3.056,7.578,7.578,0,0,1-1.3,1.3,4.538,4.538,0,0,1-1.2.679,2.538,2.538,0,0,1-.841.162Q1556.9,3090.812,1556.816,3090.8Zm8.51-3.948a.869.869,0,0,1-.442-.2,2.545,2.545,0,0,1-.454-.527l-7.253-10.8c-.017-.014,0-.063.048-.15a2.107,2.107,0,0,1,.2-.282,2.4,2.4,0,0,1,.266-.279,1.2,1.2,0,0,1,.345-.219.826.826,0,0,1,.4-.058.885.885,0,0,1,.442.205,2.892,2.892,0,0,1,.454.527l7.263,10.786c.01.022-.009.077-.057.162a1.981,1.981,0,0,1-.187.27,2.629,2.629,0,0,1-.272.286,1.224,1.224,0,0,1-.349.224.791.791,0,0,1-.309.062A.872.872,0,0,1,1565.326,3086.857Z"/><path class="k" d="M1508.955,3102.786s-1.542-1.52-3.5-3.416l-1.2,1.971,9.129,37.8a11.109,11.109,0,0,0,13.406,8.19l49.582-11.974a4.444,4.444,0,0,0,3.276-5.363l-9.389-38.878Z"/><path class="j" d="M5.356,0H20.075a2.142,2.142,0,0,1,2.142,2.142V8.966a2.142,2.142,0,0,1-2.142,2.142H5.356A5.356,5.356,0,0,1,0,5.753v-.4A5.356,5.356,0,0,1,5.356,0Z" transform="translate(1556.212 3111.656) rotate(-13.577)"/><circle class="l" cx="2.777" cy="2.777" r="2.777" transform="translate(1560.604 3112.858)"/><path class="e" d="M1564.888,3087.842l-54.98,13.277a1.112,1.112,0,1,1-.522-2.162l-.734-4.394a5.774,5.774,0,0,0-4.511,6.216,5.557,5.557,0,0,0,6.811,4.66l59.3-14.321h0a4.444,4.444,0,0,0-5.363-3.277Z"/><path class="m" d="M1524.033,3183.645l.056-2.44a6.889,6.889,0,0,0-1.411-4.352,14.379,14.379,0,0,0,1.542-1.8l.56-.8.4-.709c.559-.956,6.018-8.7,5.4-8.991a26.182,26.182,0,0,1-8.724-6c-1.267-1.365-2.156-3.035-3.425-4.4-1.738-1.867-3.141-1.983-5.588-1.931a1.318,1.318,0,0,1-.686-.11c-.4-.228-.445-.778-.429-1.239a26.476,26.476,0,0,1,2.335-9.555c.417-.969.837-1.968,1.3-2.941l1.368-2.768.512-1.033a7.829,7.829,0,0,0-12.077-9.446c-1.25,1.058-2.193,1.86-3.241,2.824-1.015.935-2.024,1.886-2.981,2.9a58.352,58.352,0,0,0-5.533,6.7,37.615,37.615,0,0,0-4.689,8.829l-.452,1.374c-.149.466-.3,1.159-.433,1.737l-.094.423-.061.222-.124.443-.061.222-.1,1.125c-.038.5.059,4.368.145,5.382.095,1.052.221,1.924.321,2.8.2,1.714.44,3.192.666,4.677s.445,2.872.7,4.259a61.4,61.4,0,0,0,1.843,7.917c2.221,6.962,9.455,10.988,9.455,10.988a2.553,2.553,0,0,1-.1.542H1524C1523.991,3186.79,1524,3185.289,1524.033,3183.645Z"/><path class="n" d="M1506.232,3142.855c7.614-29.979,22.135-22.562,31.655-16.21"/><rect class="m" width="15.541" height="28.221" rx="7.493" transform="translate(1529.911 3143.365) rotate(147.388)"/><rect class="m" width="15.541" height="28.221" rx="7.493" transform="translate(1527.225 3150.811) rotate(147.388)"/><path class="o" d="M1515.074,3156.422a7.591,7.591,0,0,1-3.9-3.276l-3.234-5.479a1.279,1.279,0,1,1,2.2-1.3l3.234,5.479a5.1,5.1,0,0,0,8.778-5.181l-9.542-15.588a1.279,1.279,0,1,1,2.2-1.3l9.541,15.588a7.654,7.654,0,0,1-8.5,11.3A7.528,7.528,0,0,1,1515.074,3156.422Z"/><rect class="m" width="15.541" height="28.221" rx="7.493" transform="matrix(-0.842, 0.539, -0.539, -0.842, 1525.448, 3159.479)"/><path class="o" d="M1513.3,3165.091a7.6,7.6,0,0,1-3.9-3.277l-3.234-5.479a1.279,1.279,0,0,1,2.2-1.3l3.234,5.479a5.1,5.1,0,0,0,8.778-5.181l-9.542-15.588a1.278,1.278,0,1,1,2.2-1.3l9.542,15.587a7.654,7.654,0,0,1-8.5,11.3A7.83,7.83,0,0,1,1513.3,3165.091Z"/></g></g></svg>