<svg xmlns="http://www.w3.org/2000/svg" xmlns:xlink="http://www.w3.org/1999/xlink" width="954.085" height="590.575" viewBox="0 0 954.085 590.575"><defs><clipPath id="a"><rect width="954.085" height="590.575" fill="none"/></clipPath></defs><g transform="translate(-2406.844 -2062.711)"><g transform="translate(2406.844 2062.711)" clip-path="url(#a)"><g transform="translate(189.707 18.891)"><g transform="translate(-61.952 364.833)" opacity="0.301"><rect width="11.425" height="173.536" transform="translate(25.169 156.766)" fill="#0f995c"/><rect width="11.42" height="173.536" transform="translate(134.783 156.766)" fill="#0f995c"/><g transform="translate(8.038 139.913)"><path d="M3070.7,2440.866H2900.366a9.907,9.907,0,1,1,0-19.814H3070.7a9.907,9.907,0,1,1,0,19.814" transform="translate(-2890.459 -2421.052)" fill="#087861"/></g><rect width="11.425" height="173.536" transform="translate(57.903 156.766)" fill="#087861"/><rect width="11.42" height="173.536" transform="translate(166.229 156.766)" fill="#087861"/><rect width="6.421" height="19.919" transform="translate(48.343 48.157)" fill="#8fe8b0"/><g transform="translate(16.711 64.93)"><path d="M2966.883,2397.654a34.843,34.843,0,1,1-34.843-34.843,34.845,34.845,0,0,1,34.843,34.843" transform="translate(-2897.196 -2362.811)" fill="#57cc82"/></g><path d="M2945.781,2423.042H2910.6l2.087-8.916H2943.7Z" transform="translate(-2876.633 -2283.13)" fill="#8fe8b0"/><path d="M2885.218,2365.4l7.338-52.151h85.856l7.338,52.151Z" transform="translate(-2883.928 -2312.129)" fill="#fff"/><path d="M2977.724,2314.618l7.024,49.913h-97.953l7.025-49.913Zm1.949-2.239h-87.8l-7.657,54.389h103.11Z" transform="translate(-2884.216 -2312.38)" fill="#8fe8b0"/></g><g transform="translate(127.798 189.779)" opacity="0.301"><g transform="translate(0 9.706)"><path d="M3112.475,2208.041h-150.93a3.4,3.4,0,0,1,0-6.805h150.93Z" transform="translate(-2958.143 -2136.737)" fill="#087861"/><path d="M3024.27,2220.579h-24.5V2160.16a4.083,4.083,0,0,1,4.08-4.078h16.342a4.079,4.079,0,0,1,4.076,4.078Z" transform="translate(-2940.307 -2156.082)" fill="#57cc82"/></g><rect width="19.272" height="53.296" transform="translate(83.967 20.909)" fill="#0f995c"/><rect width="19.272" height="53.296" transform="translate(126.038 20.909)" fill="#8fe8b0"/><g transform="translate(103.236)"><path d="M3053.214,2223.491h-22.8v-70.125a4.081,4.081,0,0,1,4.078-4.078h14.643a4.079,4.079,0,0,1,4.079,4.078Z" transform="translate(-3030.414 -2149.287)" fill="#57cc82"/></g><rect width="22.799" height="7.208" transform="translate(103.237 10.096)" fill="#0f995c"/><rect width="24.576" height="7.209" transform="translate(59.389 60.202)" fill="#0f995c"/><rect width="24.576" height="7.207" transform="translate(59.389 17.304)" fill="#0f995c"/><line y1="22.326" transform="translate(21.815 35.085)" fill="none" stroke="#087861" stroke-linecap="round" stroke-miterlimit="10" stroke-width="1.412"/><path d="M2975.309,2187.978s-.408-8.3,10.185-8.3c0,0,1.635,8.3-10.185,8.3" transform="translate(-2950.79 -2136.269)" fill="#087861"/><path d="M2975.309,2180.662s-.408-8.307,10.185-8.307c0,0,1.635,8.307-10.185,8.307" transform="translate(-2950.79 -2139.404)" fill="#087861"/><path d="M2974.616,2187.978s.406-8.3-10.189-8.3c0,0-1.634,8.3,10.189,8.3" transform="translate(-2955.484 -2136.269)" fill="#087861"/><path d="M2974.616,2180.662s.406-8.307-10.189-8.307c0,0-1.634,8.307,10.189,8.307" transform="translate(-2955.484 -2139.404)" fill="#087861"/><path d="M2969.194,2205.125l-3.173-12.9a1.611,1.611,0,0,1,1.568-2h16.849a1.616,1.616,0,0,1,1.57,2l-3.18,12.9Z" transform="translate(-2954.789 -2131.75)" fill="#fff"/><path d="M2984.688,2191.293a.791.791,0,0,1,.765.98l-3.02,12.273h-12.339l-3.02-12.273a.771.771,0,0,1,.142-.676.782.782,0,0,1,.622-.3Zm0-1.658h-16.85a2.448,2.448,0,0,0-2.374,3.028l3.334,13.542h14.936l3.328-13.542a2.446,2.446,0,0,0-2.375-3.028" transform="translate(-2955.037 -2132)" fill="#8fe8b0"/></g><g transform="translate(221.682 99.434)"><g transform="translate(213.238 11)"><path d="M2665.953,2123.729c-.1-11.76-8.11-20.843-15.779-29.16-9.568-10.378-20.469-18.633-36.382-18.633-15.054,0-18.383,5.889-27.906,15.311-8.7,8.607-23.877,20.163-23.877,32.866v26.635c0,26.608,23.167,48.177,51.977,48.177,27.279,0,49.558-19.34,51.863-43.981Z" transform="translate(-2483.611 -2075.936)" fill="#0033a1"/><path d="M2656.641,2133.4a44.48,44.48,0,0,0-88.958.352v27.594a44.446,44.446,0,0,0,88.715,3.862Z" transform="translate(-2482.148 -2072.459)" fill="#f4f0de"/><path d="M2638.9,2216.51c-6.679-17.412,7.639-39.638,12.978-53.9h-79.048c4.878,11.208,20.306,37.771,12.978,53.9-4.525,9.962-18.73,29.646-18.73,29.646h90.554s-14.812-19.429-18.731-29.646" transform="translate(-2482.305 -2053.585)" fill="#f4f0de"/><path d="M2633.1,2137.414a8.581,8.581,0,0,1,8.556-8.713,8.918,8.918,0,0,1,8.948,8.713,9.174,9.174,0,0,1-8.136,8.7l-8.812-.18s-.557-7.823-.557-8.516" transform="translate(-2465.278 -2062.329)" fill="#f4f0de"/><path d="M2575.142,2137.414a8.581,8.581,0,0,0-8.557-8.713,8.919,8.919,0,0,0-8.949,8.713,9.174,9.174,0,0,0,8.136,8.7l8.812-.18s.558-7.823.558-8.516" transform="translate(-2484.739 -2062.329)" fill="#f4f0de"/><path d="M2661.118,2138.83a8.607,8.607,0,0,0-1.93.224l.043-5.65a44.48,44.48,0,0,0-88.956.354v5.914a8.5,8.5,0,0,0-3.69-.841,8.917,8.917,0,0,0-8.949,8.713,9.171,9.171,0,0,0,8.136,8.695l4.5-.092v5.2a43.924,43.924,0,0,0,5.608,21.518c5.429,11.885,19.4,37.012,12.355,52.514-4.526,9.962-18.73,29.646-18.73,29.646h90.553s-14.81-19.429-18.73-29.646c-6.676-17.4,7.62-39.61,12.967-53.875a43.937,43.937,0,0,0,4.691-16.3l.069-9.032,2.874.058a9.171,9.171,0,0,0,8.135-8.695,8.917,8.917,0,0,0-8.949-8.713" transform="translate(-2484.739 -2072.459)" fill="#fabf66"/><path d="M2650.689,2395.179a28.694,28.694,0,0,1,2.018-7.877,82.035,82.035,0,0,1,5.625-11.085c.11-.184.219-.356.329-.538,4.158,3.08,11.221,8.376,15.922,12.244a65.289,65.289,0,0,0-5.034,7.1,4.678,4.678,0,0,0-.473,2.3,13.07,13.07,0,0,0,1.265,1.411c.454.364.638.619,1,.87.371.271.667.563,1.132.952.414.347.835.749,1.306,1.174.152-.145.271-.29.425-.434.526-.482,1.031-.969,1.577-1.425a17.7,17.7,0,0,1,1.615-1.278l1.576-1.056a6.123,6.123,0,0,1,6.463-.191,17.2,17.2,0,0,0-8.935,7.111c-.146-.344-.293-.675-.44-.986a.85.85,0,0,0-1.536.729c1.366,2.875,2.788,7.253,1.649,15.681a.85.85,0,0,0,.729.956.868.868,0,0,0,.115.008.849.849,0,0,0,.841-.736,44.918,44.918,0,0,0,.425-5.625c.292-.345.643-.793,1.08-1.4a51.458,51.458,0,0,1,5.719-7.081,10.318,10.318,0,0,1,3.42-2.028c-.018.488-.052.961-.093,1.428a27.371,27.371,0,0,1-.395,2.8,33.768,33.768,0,0,1-1.467,5.229,30.785,30.785,0,0,1-2.426,5.113,21.423,21.423,0,0,1-2.078,2.9c-.249.292-.522.578-.876.923a13.181,13.181,0,0,1-1.383,1.174,11.4,11.4,0,0,1-3.26,1.693c-.2.068-.494.156-.8.23s-.583.132-.923.186a10.634,10.634,0,0,1-2.584.084,10.226,10.226,0,0,1-1.548-.252c-.278-.068-.555-.146-.826-.235l-.405-.139-.2-.077-.294-.123a10.863,10.863,0,0,1-2.224-1.3l-.287-.222-2.521-2.223c-.575-.547-1.161-1.07-1.726-1.638a48.419,48.419,0,0,1-3.342-3.645c-.554-.673-1.107-1.382-1.674-2.187a30.321,30.321,0,0,1-1.7-2.686,19.345,19.345,0,0,1-1.369-3.048,13.917,13.917,0,0,1-.569-2.205,13.629,13.629,0,0,1-2.33-4.62,16.325,16.325,0,0,1-.5-5.952" transform="translate(-2460.762 -1998.638)" fill="#fabf66"/><path d="M2672.7,2406.763a23.879,23.879,0,0,0-.87-4.791.941.941,0,0,0,.209-.257,15.245,15.245,0,0,1,9.391-7.577.947.947,0,0,0,.213-.092,6.106,6.106,0,0,1,1.341,3.216,12.274,12.274,0,0,0-4.646,2.6,48.053,48.053,0,0,0-5.638,6.895" transform="translate(-2455.29 -1993.901)" fill="#fabf66"/><path d="M2562.375,2395.179a28.783,28.783,0,0,0-2.017-7.877,81.864,81.864,0,0,0-5.627-11.085c-.108-.184-.219-.356-.327-.538-4.158,3.08-11.221,8.376-15.922,12.244a65.357,65.357,0,0,1,5.034,7.1,4.679,4.679,0,0,1,.472,2.3,12.981,12.981,0,0,1-1.264,1.411c-.453.364-.638.619-1,.87-.372.271-.667.563-1.132.952-.413.347-.836.749-1.305,1.174-.152-.145-.272-.29-.425-.434-.526-.482-1.031-.969-1.578-1.425a17.83,17.83,0,0,0-1.615-1.278l-1.576-1.056a6.126,6.126,0,0,0-6.464-.191,17.193,17.193,0,0,1,8.937,7.111c.146-.344.293-.675.44-.986a.85.85,0,0,1,1.536.729c-1.366,2.875-2.789,7.253-1.65,15.681a.848.848,0,0,1-.727.956.872.872,0,0,1-.114.008.851.851,0,0,1-.843-.736,44.948,44.948,0,0,1-.424-5.625c-.292-.345-.643-.793-1.079-1.4a51.462,51.462,0,0,0-5.72-7.081,10.3,10.3,0,0,0-3.421-2.028c.019.488.053.961.094,1.428a27.787,27.787,0,0,0,.394,2.8,33.88,33.88,0,0,0,1.468,5.229,30.727,30.727,0,0,0,2.426,5.113,21.467,21.467,0,0,0,2.078,2.9c.249.292.522.578.875.923a13.49,13.49,0,0,0,1.384,1.174,11.419,11.419,0,0,0,3.26,1.693c.2.068.494.156.8.23s.582.132.923.186a10.624,10.624,0,0,0,2.583.084,10.21,10.21,0,0,0,1.55-.252c.278-.068.555-.146.826-.235l.405-.139.2-.077.294-.123a10.838,10.838,0,0,0,2.223-1.3l.288-.222,2.521-2.223c.575-.547,1.161-1.07,1.726-1.638a48.677,48.677,0,0,0,3.342-3.645c.554-.673,1.107-1.382,1.673-2.187a30.206,30.206,0,0,0,1.706-2.686,19.429,19.429,0,0,0,1.368-3.048,13.939,13.939,0,0,0,.569-2.205,13.624,13.624,0,0,0,2.331-4.62,16.347,16.347,0,0,0,.5-5.952" transform="translate(-2493.268 -1998.638)" fill="#fabf66"/><path d="M2534.872,2406.763a23.944,23.944,0,0,1,.871-4.791.906.906,0,0,1-.209-.257,15.248,15.248,0,0,0-9.39-7.577.922.922,0,0,1-.214-.092,6.1,6.1,0,0,0-1.341,3.216,12.274,12.274,0,0,1,4.646,2.6,48.067,48.067,0,0,1,5.638,6.895" transform="translate(-2493.262 -1993.901)" fill="#fabf66"/><path d="M2672.7,2406.763a23.879,23.879,0,0,0-.87-4.791.941.941,0,0,0,.209-.257,15.245,15.245,0,0,1,9.391-7.577.947.947,0,0,0,.213-.092,6.106,6.106,0,0,1,1.341,3.216,12.274,12.274,0,0,0-4.646,2.6,48.053,48.053,0,0,0-5.638,6.895" transform="translate(-2455.29 -1993.901)" fill="#fabf66"/><path d="M2534.872,2406.763a23.944,23.944,0,0,1,.871-4.791.906.906,0,0,1-.209-.257,15.248,15.248,0,0,0-9.39-7.577.922.922,0,0,1-.214-.092,6.1,6.1,0,0,0-1.341,3.216,12.274,12.274,0,0,1,4.646,2.6,48.067,48.067,0,0,1,5.638,6.895" transform="translate(-2493.262 -1993.901)" fill="#fabf66"/><path d="M2699.721,2294.4q-3.732-5.187-7.589-10.2c-2.572-3.33-5.174-6.615-7.782-9.827s-5.228-6.388-7.807-9.485l-7.638-9.2-.025-.032a24.935,24.935,0,0,0-38.367,31.86,26.543,26.543,0,0,0,3.266,3.263l9.2,7.632,8.914,7.458c2.925,2.477,5.779,4.957,8.59,7.458s5.54,5.03,8.228,7.589l3.879,3.79,28.436-28.435Z" transform="translate(-2467.429 -2031.913)" fill="#05be50"/><path d="M2716.08,2328.349c-.179-.522-.357-1.005-.574-1.552l-.417-.96-.32-.707-.15-.342-.036-.085-.2-.384-.021-.045-.087-.187-.344-.741c-.931-1.969-1.829-3.975-2.8-5.925-.992-1.934-1.966-3.895-2.993-5.814l-3.164-5.7-3.319-5.587-3.456-5.474-3.575-5.364-2.37-3.388-28.436,28.436.084.083,3.853,3.938,3.735,4.012,3.61,4.092,3.474,4.177c1.135,1.409,2.213,2.844,3.331,4.271,1.1,1.435,2.109,2.908,3.177,4.366a3.456,3.456,0,0,1,.759,1.825,10.228,10.228,0,0,1-.315,2.8,41.1,41.1,0,0,1-3.057,8.165,180.049,180.049,0,0,1-11.019,19.292c-4.059,6.424-8.4,12.892-12.611,19.967,4.575,3.39,12.347,9.218,17.521,13.473.122-.155.24-.311.363-.466,4.636-5.789,9.92-11.679,15.171-17.843a206.673,206.673,0,0,0,15.592-20.157,76.077,76.077,0,0,0,6.946-12.894,45.945,45.945,0,0,0,2.558-8.392,34.362,34.362,0,0,0,.477-10.753,30.6,30.6,0,0,0-1.382-6.133" transform="translate(-2458.642 -2021.74)" fill="#05be50"/><path d="M2659.585,2370.494c.12-.2.24-.393.361-.593,4.575,3.39,12.348,9.218,17.52,13.473a71.942,71.942,0,0,0-5.538,7.812,5.3,5.3,0,0,0-.352.708c-5.113-4.155-12.276-9.527-16.632-12.755,1.477-3.15,3.058-5.924,4.642-8.646" transform="translate(-2459.645 -2000.127)" fill="#fc0"/><path d="M2522.752,2289.33l-3.574,5.363-3.456,5.475-3.319,5.586-3.164,5.7c-1.027,1.92-2,3.88-2.994,5.814-.975,1.95-1.872,3.956-2.8,5.925l-.346.741-.085.185-.022.046-.2.384-.036.085-.148.342-.322.706-.417.961c-.215.547-.4,1.03-.574,1.552a30.675,30.675,0,0,0-1.383,6.132,34.415,34.415,0,0,0,.478,10.754,45.912,45.912,0,0,0,2.558,8.391,76.153,76.153,0,0,0,6.945,12.895,206.923,206.923,0,0,0,15.594,20.158c5.25,6.164,10.535,12.054,15.17,17.843.123.155.241.311.364.465,5.174-4.255,12.945-10.083,17.521-13.473-4.216-7.075-8.554-13.544-12.611-19.967a180.205,180.205,0,0,1-11.019-19.291,41.217,41.217,0,0,1-3.058-8.165,10.3,10.3,0,0,1-.314-2.8,3.455,3.455,0,0,1,.76-1.825c1.068-1.458,2.082-2.931,3.177-4.366,1.118-1.427,2.2-2.862,3.331-4.271l3.474-4.177,3.609-4.092,3.736-4.013,3.312-3.385-28.329-28.33Z" transform="translate(-2499.684 -2021.588)" fill="#05be50"/><path d="M2587.269,2252.4a24.934,24.934,0,0,0-35.113,3.254l-.027.031-7.638,9.2c-2.579,3.1-5.2,6.27-7.806,9.487s-5.21,6.5-7.781,9.825-5.1,6.745-7.59,10.2l-1.825,2.61,28.33,28.328.541-.552,3.963-3.873q4.032-3.838,8.227-7.588c2.813-2.5,5.666-4.981,8.59-7.458l8.916-7.459,9.2-7.63a26.665,26.665,0,0,0,3.267-3.264,24.934,24.934,0,0,0-3.254-35.113" transform="translate(-2494.577 -2031.913)" fill="#05be50"/><path d="M2550.419,2370.494c-.12-.2-.24-.393-.361-.593-4.575,3.39-12.347,9.218-17.52,13.473a72.111,72.111,0,0,1,5.54,7.812,5.4,5.4,0,0,1,.351.708c5.113-4.155,12.276-9.527,16.632-12.755-1.477-3.15-3.058-5.924-4.642-8.646" transform="translate(-2491.211 -2000.127)" fill="#fc0"/><path d="M2578.216,2098.084s8.452,22.492-9.722,44.386l-3.9-15.5,8.752-27.336Z" transform="translate(-2482.945 -2070.225)" fill="#0033a1"/><path d="M2631.919,2101.6s-3.348,17.4,5.58,40.09l8.41-5.016s-1.713-40.376-13.99-35.074" transform="translate(-2465.741 -2069.443)" fill="#0033a1"/><path d="M2612.586,2160.4c-13.17,0-23.932-3.865-33.632-13.2-1.522-1.465-2.614-2.982-3.718-8.274l-7.906-10.228c0,5.022-1.141,20.028-1.173,20.76-1.593,35.86,23.784,50.493,48.27,50.493,23.182,0,42.948-11.458,44.356-44.921l-1.409-26.331-8,12.783c-.544,4.931-4.128,7.848-8.452,10.322-9.418,5.387-16.614,8.594-28.342,8.594" transform="translate(-2482.56 -2062.329)" fill="#0033a1"/><path d="M2631.407,2164.055c0,11.4-10.42,20.647-23.276,20.647s-23.275-9.244-23.275-20.647,10.42-20.646,23.275-20.646,23.276,9.243,23.276,20.646" transform="translate(-2477.719 -2058.536)" fill="#0033a1"/><path d="M2577.249,2148.12s-2.551-4.386-3.292-13.264a101.852,101.852,0,0,1,0-16.426l-6.882,12.919.779,15.1Z" transform="translate(-2482.305 -2064.978)" fill="#0033a1"/><path d="M2632.213,2144.876s.726-4.992,1.116-10.545a123.337,123.337,0,0,0,.107-15.9l6.883,12.919-.517,17.408Z" transform="translate(-2465.507 -2064.978)" fill="#0033a1"/><path d="M2587.48,2090.831l-2.617,6.331s3.337-4.711,13.32-1.756,27.988,1.771,33.231,3.939c4.8,1.985,7.315,3.412,11.044,8.139.349.441.707.912,1.08,1.414,4.358,5.881,0-7.17,0-7.17s-22.238-31.232-56.058-10.9" transform="translate(-2477.718 -2073.869)" fill="#0033a1"/><path d="M2599.941,2117.439a13.765,13.765,0,0,0-6.35-1.609,10.951,10.951,0,0,0-6.229,1.765m39.159-3.292a13.767,13.767,0,0,0-6.351-1.608,10.95,10.95,0,0,0-6.228,1.766c-5.592,4.208-6.106,14.932-3.117,22.97.987,2.653,3.042,4.571,3.223,7.979.149,2.771-1.449,5.92-6.634,5.92-4.16,0-6.635-2.76-6.635-5.4" transform="translate(-2477.073 -2066.457)" fill="none" stroke="#001f5e" stroke-linecap="round" stroke-miterlimit="10" stroke-width="1.62"/><rect width="6.113" height="8.151" rx="2.406" transform="translate(139.536 63.172)" fill="#001f5e"/><rect width="6.113" height="8.151" rx="2.406" transform="translate(114.064 63.172)" fill="#001f5e"/><path d="M2618.733,2152.076h-25.51s.671,9.409,12.355,9.409c11.711,0,13.155-9.409,13.155-9.409" transform="translate(-2475.562 -2056.301)" fill="#fff"/><path d="M2686.2,2264.335c-.018-1.185.16-2.89.16-2.89-4.862-6.709-32.1-40.581-36.621-47.521l-32.253,9.849-32.627-9.852c-4.312,6.91-31.263,39.551-36.591,47.351,0,0-.226,1.547-.255,2.722-1.089,42.9-.345,87.989,1.722,153.5h134.442c1.214-55.322,2.836-99.986,2.025-153.159" transform="translate(-2487.351 -2040.352)" fill="#fff"/><path d="M2596.595,2445.437h40.122c19.767,0,44.713-15.5,45.928-35.229.48-11.825.826-23.867,1.068-34.056H2549.272c.34,10.188.794,22.084,1.4,34.056,1.214,19.73,26.16,35.229,45.928,35.229" transform="translate(-2486.896 -1998.515)" fill="#001f5e"/><path d="M2583.808,2701.537s-4.361-22.945-4.364-22.963c-14.548-75.615-25.014-191.966-28.945-269.01-1.021-15.963,8.033-29.732,24-30.754a28.962,28.962,0,0,1,30.753,27.053,31.7,31.7,0,0,1-.023,4.04c-5.717,83.327-2.351,206.749,1.253,290.048l.05,1.585Z" transform="translate(-2486.6 -1997.845)" fill="#001f5e"/><path d="M2633.471,2701.537s4.36-22.945,4.364-22.963c14.547-75.615,25.014-191.966,28.945-269.01,1.021-15.963-8.034-29.732-24-30.754a28.962,28.962,0,0,0-30.753,27.053,31.835,31.835,0,0,0,.022,4.04c5.716,83.327,2.351,206.749-1.252,290.048l-.05,1.585Z" transform="translate(-2471.042 -1997.845)" fill="#001f5e"/><path d="M2667.08,2265.353a21.5,21.5,0,0,0-.859-3.908c-4.862-6.71-32.1-40.581-36.62-47.521l-4.013,272.552h38.448c1.214-55.02,3.855-167.948,3.044-221.122" transform="translate(-2467.216 -2040.352)" fill="#05be50"/><path d="M2584.983,2213.92c-4.313,6.91-31.264,39.55-36.592,47.351,0,0-.885,6.668-.914,7.843-1.09,42.9.159,217.362.159,217.362h41.708Z" transform="translate(-2487.474 -2040.352)" fill="#05be50"/><path d="M2651.1,2221.753l-4.033,262.7m-75.928-262.7,4.033,262.7" transform="translate(-2481.256 -2038.332)" fill="none" stroke="#fc0" stroke-miterlimit="10" stroke-width="1.608"/><path d="M2607.575,2642.6l-.224-7.238h-22.7c-.942.576-6.847,3.8-14.346,8.935-4.464,3.054-21.466,5.273-22.512,7.379a6.43,6.43,0,0,0,4.235,9.069c.918.227,22.184-.455,23.732-.762,11.777-2.327,30.113-6.206,30.113-6.206,2.342-2.245,1.82-7.678,1.707-11.176" transform="translate(-2487.448 -1931.669)" fill="#001f5e"/><line x2="35.741" transform="translate(116.844 446.124)" fill="none" stroke="#121a40" stroke-linecap="round" stroke-miterlimit="10" stroke-width="1.62"/><path d="M2573.394,2639.725h7.736m-10.883,2.356h7.736m-.721-4.676H2585" transform="translate(-2481.487 -1931.142)" fill="none" stroke="#fff" stroke-linecap="round" stroke-miterlimit="10" stroke-width="1.215"/><g transform="translate(139.357 703.692)"><path d="M2610.6,2642.6l.224-7.238h22.7c.942.576,6.846,3.8,14.346,8.935,4.466,3.054,21.466,5.273,22.512,7.379a6.312,6.312,0,0,1,.467,1.284,6.43,6.43,0,0,1-4.7,7.785c-.918.227-22.184-.455-23.733-.762-11.776-2.327-30.113-6.206-30.113-6.206-2.342-2.245-1.82-7.678-1.707-11.176" transform="translate(-2610.471 -2635.361)" fill="#001f5e"/></g><path d="M2635.387,2639.725h-7.736m10.883,2.356H2630.8m.721-4.676h-7.736" transform="translate(-2467.681 -1931.142)" fill="none" stroke="#fff" stroke-linecap="round" stroke-miterlimit="10" stroke-width="1.215"/></g><g transform="translate(109.405 36.963)"><path d="M2878.261,2143.736c0-19.617-17.5-52.713-51.435-52.772-33.932.059-52.258,31.858-52.258,52.772,0,24.6,21.077,70.386,21.077,70.386s-.04,4.56,9.435,2.975a223.84,223.84,0,0,1,25.061-2.466c16.546-.008,42.783,20.165,42.783,20.165s-7.757-17.987-5.721-31.9c3.214-21.965,11.058-51.21,11.058-59.166" transform="translate(-2735.911 -2090.964)" fill="#0033a1"/><path d="M2788.563,2238.944l36.275,57.845,35.887-57.611s-18.407-13.823-18.407-28.876c0-13.12,18.52-33.109,18.52-49.638H2788.03c0,16.89,17.814,35.221,17.814,49.644,0,15.265-17.281,28.637-17.281,28.637" transform="translate(-2732.441 -2072.99)" fill="#fabf66"/><path d="M2872.483,2322.991c-1.491,2.822-3.068,5.4-4.463,7.729l-3.8,6.166-1.472,2.406c-.433.708-.8,1.319-1.109,1.865l-.931,1.621a9.786,9.786,0,0,0,16.663,10.251l.23-.351.791-1.2c.244-.384.594-.892,1.013-1.5s.885-1.291,1.466-2.1l4.234-5.938c1.663-2.379,3.551-5.1,5.544-8.241,1.668-2.624,3.421-5.526,5.113-8.727l-20.716-7.061c-.832,1.757-1.7,3.457-2.559,5.074" transform="translate(-2714.031 -2032.437)" fill="#fabf66"/><path d="M2910.85,2300c-.289-1.391-.484-2.825-.878-4.181s-.765-2.729-1.147-4.088-.932-2.635-1.4-3.955l-.728-1.959c-.241-.656-.555-1.253-.83-1.882q-.864-1.861-1.719-3.707c-.6-1.211-1.276-2.34-1.912-3.5-.664-1.132-1.257-2.345-1.983-3.389q-1.061-1.607-2.1-3.19a112.845,112.845,0,0,0-8.814-11.259c-1.449-1.747-2.958-3.267-4.41-4.762s-2.845-2.982-4.261-4.238l-4.027-3.72c-1.265-1.187-2.624-2.252-3.823-3.287l-3.427-2.872-.775-.642c-.23-.179-.456-.355-.674-.526l-1.258-.978-4.991-3.916-.089-.072a16.851,16.851,0,0,0-1.74-1.18,16.636,16.636,0,1,0-16.908,28.655l5.464,3.224,1.368.815.736.438.654.424,2.853,1.854c1.017.688,2.131,1.305,3.258,2.165l3.581,2.629c1.292.892,2.465,1.927,3.746,2.964s2.62,2.1,3.833,3.288q.945.871,1.917,1.767c.319.3.656.6.969.909q.443.477.894.96l1.832,1.946c.3.331.634.653.924.993l.84,1.037q.855,1.039,1.722,2.1c.616.695,1.042,1.454,1.587,2.184.506.741,1.078,1.47,1.551,2.233l1.371,2.313c.221.39.493.77.678,1.17l.58,1.2c.371.8.835,1.595,1.145,2.417l.946,2.476c.346.825.5,1.679.77,2.52a38.3,38.3,0,0,1,1.478,10.387,49,49,0,0,1-1.177,10.585,65.569,65.569,0,0,1-3.3,10.121c-.556,1.38-1.159,2.719-1.779,4.028l20.715,7.059c.327-.617.654-1.228.975-1.869a88.162,88.162,0,0,0,5.428-13.159,72.8,72.8,0,0,0,3.159-15.614,63.038,63.038,0,0,0-.829-16.9" transform="translate(-2720.386 -2055.01)" fill="#fabf66"/><path d="M2910.85,2300c-.289-1.391-.484-2.825-.878-4.181s-.765-2.729-1.147-4.088-.932-2.635-1.4-3.955l-.728-1.959c-.241-.656-.555-1.253-.83-1.882q-.864-1.861-1.719-3.707c-.6-1.211-1.276-2.34-1.912-3.5-.664-1.132-1.257-2.345-1.983-3.389q-1.061-1.607-2.1-3.19a112.845,112.845,0,0,0-8.814-11.259c-1.449-1.747-2.958-3.267-4.41-4.762s-2.845-2.982-4.261-4.238l-4.027-3.72c-1.265-1.187-2.624-2.252-3.823-3.287l-3.427-2.872-.775-.642c-.23-.179-.456-.355-.674-.526l-1.258-.978-4.991-3.916-.089-.072a16.851,16.851,0,0,0-1.74-1.18,16.636,16.636,0,1,0-16.908,28.655l5.464,3.224,1.368.815.736.438.654.424,2.853,1.854c1.017.688,2.131,1.305,3.258,2.165l3.581,2.629c1.292.892,2.465,1.927,3.746,2.964s2.62,2.1,3.833,3.288q.945.871,1.917,1.767c.319.3.656.6.969.909q.443.477.894.96l1.832,1.946c.3.331.634.653.924.993l.84,1.037q.855,1.039,1.722,2.1c.616.695,1.042,1.454,1.587,2.184.506.741,1.078,1.47,1.551,2.233l1.371,2.313c.221.39.493.77.678,1.17l.58,1.2c.371.8.835,1.595,1.145,2.417l.946,2.476c.346.825.5,1.679.77,2.52a38.3,38.3,0,0,1,1.478,10.387,49,49,0,0,1-1.177,10.585,65.569,65.569,0,0,1-3.3,10.121c-.556,1.38-1.159,2.719-1.779,4.028l20.715,7.059c.327-.617.654-1.228.975-1.869a88.162,88.162,0,0,0,5.428-13.159,72.8,72.8,0,0,0,3.159-15.614,63.038,63.038,0,0,0-.829-16.9" transform="translate(-2720.386 -2055.01)" fill="#05be50"/><path d="M2743.845,2412.215a4.395,4.395,0,0,1,.1-.6c.341-6.459,1.81-13.345,2.752-20a81.69,81.69,0,0,0,.7-15.047l17.2,2.732-.268,7.35c-1.085,7.636.668,9.155,2.552,12.98l.5.617c.3.389.63.826,1,1.306s.729,1.015,1.1,1.58c.382.548.752,1.193,1.131,1.85s.727,1.4,1.075,2.129a21.616,21.616,0,0,1,.878,2.379,12.071,12.071,0,0,1,.331,1.237c.1.416.192.826.247,1.239a21.015,21.015,0,0,1,.251,2.376c.028.75.035,1.455.011,2.1s-.054,1.229-.085,1.758l-.22,3.35-.008.127a3.005,3.005,0,0,1-5.986.128s-.151-1.389-.379-3.469c-.027-.24-.064-.5-.094-.747a29.789,29.789,0,0,1-2.278,3.954c0,.031,0,.058,0,.089.082.75.133,1.561.244,2.373.151.785.238,1.646.444,2.447a19.481,19.481,0,0,0,.678,2.389,18.3,18.3,0,0,0,.916,2.215l.572.976a10.363,10.363,0,0,0,.626.893,6.315,6.315,0,0,0,.676.8l.342.381.373.333a12.487,12.487,0,0,0,1.5,1.172,16.992,16.992,0,0,0,1.474.861c.446.253.905.441,1.25.613l1.173.517.059.026a2.727,2.727,0,0,1-1.917,5.1l-1.333-.419c-.44-.16-.961-.308-1.585-.567-.621-.229-1.321-.547-2.088-.924-.205-.109-.417-.225-.63-.344a2.661,2.661,0,0,1-.418.734,2.725,2.725,0,0,1-3.836.385l-.041-.034s-.378-.308-1.039-.849l-.769-.624a2.72,2.72,0,0,1-3.609,1.065l-.288-.149c-.191-.1-.458-.227-.823-.437-.263-.147-.581-.332-.922-.545a2.7,2.7,0,0,1-2.849.116l-.335-.19a9.51,9.51,0,0,1-.94-.583,9.8,9.8,0,0,1-1.38-1.136,7.607,7.607,0,0,1-.748-.813,7.25,7.25,0,0,1-.722-.966,8.723,8.723,0,0,1-.655-1.087,11.44,11.44,0,0,1-.573-1.175,23.391,23.391,0,0,1-.911-2.507c-.229-.846-.473-1.732-.642-2.6-.2-.884-.332-1.751-.488-2.634-.272-1.746-.477-3.469-.643-5.077-.029-.288-.054-.567-.081-.847a34.707,34.707,0,0,1-.545-7.268c-.02-.289-.031-.463-.031-.463a4.668,4.668,0,0,1,0-.579" transform="translate(-2743.837 -2017.31)" fill="#fabf66"/><path d="M2867.343,2144.384a41.825,41.825,0,0,0-83.649,0c0,8,5.421,26.605,5.421,29.092a36.4,36.4,0,0,0,72.808,0c0-2.487,5.42-21.091,5.42-29.092" transform="translate(-2733.558 -2087.974)" fill="#fabf66"/><path d="M2840.21,2133.237a15.433,15.433,0,0,0-6.545-1.5,13.556,13.556,0,0,0-6.5,1.641m13.046-.146a15.433,15.433,0,0,0-6.545-1.5,13.556,13.556,0,0,0-6.5,1.641c-2.711,1.618-6.777,6.457-2.786,21.149.751,2.766,1.8,4.339,1.668,6.963a4.442,4.442,0,0,1-3.521,4.261,7.73,7.73,0,0,1-5.4-.647m-3.146-31.871a15.438,15.438,0,0,0-6.545-1.5,15.619,15.619,0,0,0-6.875,1.641" transform="translate(-2729.207 -2080.449)" fill="none" stroke="#001f5e" stroke-linecap="round" stroke-miterlimit="10" stroke-width="1.62"/><path d="M2829.2,2149.866h0a2.823,2.823,0,0,1-2.814-2.814v-2.3a2.814,2.814,0,1,1,5.628,0v2.3a2.823,2.823,0,0,1-2.814,2.814" transform="translate(-2722.548 -2077.819)" fill="#001f5e"/><path d="M2806.48,2149.866h0a2.823,2.823,0,0,1-2.814-2.814v-2.3a2.814,2.814,0,1,1,5.628,0v2.3a2.823,2.823,0,0,1-2.814,2.814" transform="translate(-2728.407 -2077.819)" fill="#001f5e"/><path d="M2801.5,2162.592c7.068,8.826,15.4,11.049,24.48,10.227" transform="translate(-2728.965 -2072.493)" fill="none" stroke="#001f5e" stroke-linecap="round" stroke-miterlimit="10" stroke-width="1.62"/><path d="M2810.556,2419.286h38.46c18.949,0,42.863-1.234,44.026-20.964a108.014,108.014,0,0,0-.618-18.773H2767.447s-1.493,6.8-.917,18.773c1.165,19.73,25.077,20.964,44.026,20.964" transform="translate(-2738.019 -2016.543)" fill="#0033a1"/><path d="M2846.781,2612.308l-1.647-13.212h20.341c-.222.9-.643,14.822-.643,14.822h-18.106Z" transform="translate(-2717.714 -1959.925)" fill="#fabf66"/><path d="M2846.4,2610.881h19.169c.839.513,12.168,5.069,18.842,9.635h-18.469s-6.4-.513-19.541-9.635" transform="translate(-2717.386 -1956.886)" fill="#fabf66"/><path d="M2846.457,2610.881h.014c13.14,9.122,19.542,9.635,19.542,9.635h18.468c3.972,2.718,7.377,2.383,8.31,4.257a5.658,5.658,0,0,1,.415,1.143,5.722,5.722,0,0,1-4.184,6.926,21.438,21.438,0,0,1-2.361.415c-.765.09-1.511.141-2.26.2-1.482.08-9.406.058-10.809-.034s-2.771.216-4.113,0-21.7-6.157-21.7-6.157c-2.083-2-1.619-6.833-1.518-9.945Z" transform="translate(-2717.453 -1956.886)" fill="#ea0944"/><path d="M2822.4,2612.308l-1.265-13.212h-19.1c.221.9.868,4.567.868,4.567l1.4,10.254h18.156Z" transform="translate(-2728.829 -1959.925)" fill="#fabf66"/><path d="M2825.847,2610.881H2807.7c-.839.513-12.169,5.069-18.842,9.635h18.468s5.384-.513,18.523-9.635" transform="translate(-2732.227 -1956.886)" fill="#fabf66"/><path d="M2827.683,2610.881h-.014c-13.14,9.122-18.522,9.635-18.522,9.635h-18.469c-3.973,2.718-7.378,2.383-8.31,4.257a5.724,5.724,0,0,0,3.77,8.069,21.384,21.384,0,0,0,2.36.415c.765.09,1.511.141,2.262.2,1.48.08,9.406.058,10.808-.034s2.771.216,4.113,0,20.683-6.157,20.683-6.157c2.084-2,1.62-6.833,1.519-9.945Z" transform="translate(-2734.051 -1956.886)" fill="#ea0944"/><path d="M2857.159,2352.481a28.752,28.752,0,0,1,2.018-7.876,81.872,81.872,0,0,1,5.626-11.086c.108-.184.219-.356.327-.538,4.158,3.081,11.221,8.376,15.922,12.244a65.227,65.227,0,0,0-5.034,7.1,4.668,4.668,0,0,0-.472,2.3,12.987,12.987,0,0,0,1.265,1.411c.453.364.637.619,1,.87.371.271.667.562,1.132.951.414.347.837.75,1.305,1.175.152-.145.271-.29.425-.434.526-.482,1.031-.969,1.578-1.424a17.879,17.879,0,0,1,1.615-1.279l1.576-1.056a6.132,6.132,0,0,1,6.464-.19,17.2,17.2,0,0,0-8.936,7.112c-.146-.344-.293-.676-.44-.986a.85.85,0,0,0-1.536.73c1.366,2.874,2.787,7.253,1.649,15.681a.85.85,0,0,0,.728.956.924.924,0,0,0,.115.007.849.849,0,0,0,.841-.736,44.828,44.828,0,0,0,.425-5.625c.292-.345.643-.793,1.08-1.4a51.514,51.514,0,0,1,5.719-7.081,10.311,10.311,0,0,1,3.42-2.027c-.017.488-.052.961-.093,1.428a27.4,27.4,0,0,1-.395,2.8,33.682,33.682,0,0,1-1.467,5.229,30.817,30.817,0,0,1-2.426,5.113,21.492,21.492,0,0,1-2.078,2.9c-.249.292-.522.578-.876.923a13.241,13.241,0,0,1-1.384,1.174,11.4,11.4,0,0,1-3.259,1.693c-.2.068-.495.156-.8.23s-.583.132-.924.186a10.626,10.626,0,0,1-2.582.084,10.185,10.185,0,0,1-1.55-.251c-.278-.068-.555-.146-.826-.235l-.405-.139-.2-.077-.295-.124a10.8,10.8,0,0,1-2.224-1.3l-.287-.222-2.521-2.222c-.574-.548-1.161-1.07-1.726-1.638a48.491,48.491,0,0,1-3.342-3.646c-.554-.673-1.107-1.382-1.675-2.187a30.443,30.443,0,0,1-1.7-2.686,19.443,19.443,0,0,1-1.369-3.048,13.955,13.955,0,0,1-.568-2.205,13.625,13.625,0,0,1-2.331-4.62,16.339,16.339,0,0,1-.5-5.953" transform="translate(-2714.632 -2028.552)" fill="#f4f0de"/><path d="M2879.172,2364.066a24,24,0,0,0-.87-4.791.945.945,0,0,0,.208-.256,15.248,15.248,0,0,1,9.39-7.578.916.916,0,0,0,.214-.092,6.108,6.108,0,0,1,1.341,3.216,12.276,12.276,0,0,0-4.646,2.605,48.007,48.007,0,0,0-5.638,6.895" transform="translate(-2709.161 -2023.815)" fill="#f4f0de"/><path d="M2857.159,2352.481a28.752,28.752,0,0,1,2.018-7.876,81.872,81.872,0,0,1,5.626-11.086c.108-.184.219-.356.327-.538,4.158,3.081,11.221,8.376,15.922,12.244a65.227,65.227,0,0,0-5.034,7.1,4.668,4.668,0,0,0-.472,2.3,12.987,12.987,0,0,0,1.265,1.411c.453.364.637.619,1,.87.371.271.667.562,1.132.951.414.347.837.75,1.305,1.175.152-.145.271-.29.425-.434.526-.482,1.031-.969,1.578-1.424a17.879,17.879,0,0,1,1.615-1.279l1.576-1.056a6.132,6.132,0,0,1,6.464-.19,17.2,17.2,0,0,0-8.936,7.112c-.146-.344-.293-.676-.44-.986a.85.85,0,0,0-1.536.73c1.366,2.874,2.787,7.253,1.649,15.681a.85.85,0,0,0,.728.956.924.924,0,0,0,.115.007.849.849,0,0,0,.841-.736,44.828,44.828,0,0,0,.425-5.625c.292-.345.643-.793,1.08-1.4a51.514,51.514,0,0,1,5.719-7.081,10.311,10.311,0,0,1,3.42-2.027c-.017.488-.052.961-.093,1.428a27.4,27.4,0,0,1-.395,2.8,33.682,33.682,0,0,1-1.467,5.229,30.817,30.817,0,0,1-2.426,5.113,21.492,21.492,0,0,1-2.078,2.9c-.249.292-.522.578-.876.923a13.241,13.241,0,0,1-1.384,1.174,11.4,11.4,0,0,1-3.259,1.693c-.2.068-.495.156-.8.23s-.583.132-.924.186a10.626,10.626,0,0,1-2.582.084,10.185,10.185,0,0,1-1.55-.251c-.278-.068-.555-.146-.826-.235l-.405-.139-.2-.077-.295-.124a10.8,10.8,0,0,1-2.224-1.3l-.287-.222-2.521-2.222c-.574-.548-1.161-1.07-1.726-1.638a48.491,48.491,0,0,1-3.342-3.646c-.554-.673-1.107-1.382-1.675-2.187a30.443,30.443,0,0,1-1.7-2.686,19.443,19.443,0,0,1-1.369-3.048,13.955,13.955,0,0,1-.568-2.205,13.625,13.625,0,0,1-2.331-4.62,16.339,16.339,0,0,1-.5-5.953" transform="translate(-2714.632 -2028.552)" fill="#fabf66"/><path d="M2879.172,2364.066a24,24,0,0,0-.87-4.791.945.945,0,0,0,.208-.256,15.248,15.248,0,0,1,9.39-7.578.916.916,0,0,0,.214-.092,6.108,6.108,0,0,1,1.341,3.216,12.276,12.276,0,0,0-4.646,2.605,48.007,48.007,0,0,0-5.638,6.895" transform="translate(-2709.161 -2023.815)" fill="#fabf66"/><path d="M2806.2,2233.8a16.618,16.618,0,0,0-23.29,3.151l-1.254,1.647-.684.9-.193.253c-.065.087-.125.16-.237.324q-.3.432-.619.9c-.835,1.232-1.841,2.723-2.8,4.3q-1.119,2.072-2.468,4.575c-.765,1.634-1.593,3.4-2.433,5.287-.737,1.855-1.579,3.849-2.34,5.914-.711,2.056-1.566,4.238-2.234,6.472-.717,2.241-1.456,4.575-2.1,6.97-.7,2.4-1.336,4.873-1.972,7.409-.673,2.538-1.209,5.13-1.839,7.782-.567,2.649-1.147,5.352-1.688,8.1-1.065,5.487-2.093,11.143-2.987,16.878-.916,5.739-1.758,11.551-2.543,17.359-3.107,23.23-5.042,46.377-6.268,63.723l-.019.264,19.908,2.479c.028-.181.053-.352.081-.535,2.567-16.956,6.289-39.5,11.071-61.621,1.2-5.523,2.447-11.027,3.8-16.384,1.321-5.373,2.748-10.59,4.179-15.6.722-2.5,1.47-4.93,2.2-7.31.779-2.341,1.473-4.68,2.265-6.863.763-2.206,1.51-4.345,2.3-6.349.746-2.044,1.54-3.935,2.3-5.748.728-1.851,1.551-3.453,2.258-5.065.734-1.572,1.5-2.946,2.178-4.3q1.081-1.857,2.019-3.466.963-1.424,1.762-2.61c.437-.52.739-.857,1.008-1.238.066-.091.127-.179.186-.263a1.685,1.685,0,0,1,.172-.2l.215-.234.765-.83,1.4-1.521.078-.084q.513-.558.981-1.174a16.618,16.618,0,0,0-3.151-23.29" transform="translate(-2742.704 -2055.007)" fill="#05be50"/><path d="M2747.236,2382.709c-.308,5.034-.484,7.91-.484,7.91a8.977,8.977,0,0,0,17.857,1.753s.387-2.848,1.065-7.833c.67-4.868,1.616-11.775,2.853-20.017l-19.908-2.478c-.614,8.55-1.074,15.673-1.383,20.665" transform="translate(-2743.089 -2021.057)" fill="#05be50"/><path d="M2820.19,2424.146l-2.1-16.4a30.864,30.864,0,0,1-.223-4.1c.311-16.251,14.408-29.248,31.487-29.032s30.675,13.567,30.364,29.819l-.316,16.532c-.059,5.414-.334,11.283-.526,16.954-1.211,32.968-3.643,185.416-6.371,219.069h-20.341s-24.69-179.3-31.973-232.842" transform="translate(-2724.747 -2017.817)" fill="#0033a1"/><path d="M2825.758,2574.885c-.274-5.469-.49-10.931-.7-16.387-.234-5.459-.4-10.914-.551-16.362l-.24-8.172-.147-8.164c-.1-5.441-.212-10.878-.212-16.311s-.116-.671-.028-6.093l.164-16.253.406-16.219c.141-5.4.433-10.792.641-16.181.127-2.686.2-5.407.37-8.059l.494-7.958c.349-5.338.595-10.483,1.083-16.072l1.311-16.484a30.854,30.854,0,0,0,.025-4.1c-1.092-16.218-15.8-28.523-32.847-27.485s-29.987,15.026-28.9,31.244l1.11,16.5c.32,5.406.877,11.254,1.34,16.91,2.795,32.871,9.511,55.4,14.892,87.946,5.358,32.413,19.344,98.13,27.2,129.831h19.1l-3.7-65.705Z" transform="translate(-2737.974 -2017.84)" fill="#0033a1"/><path d="M2870.589,2303.4c.986-10.493,9.71-14.616,9.71-34.483,0-6.208-3.969-13.876-7.709-22.495-.862-1.988,2.827-8.328,5.544-11.383l-12.8-11.355c-6.678,12.882-23.866,33.666-35.571,34.958-11.7-1.292-26.746-20.668-35.57-34.958l-12.8,11.355c2.716,3.055,6.406,9.4,5.544,11.383-3.741,8.619-7.71,16.287-7.71,22.495,0,19.868,8.87,23.978,9.71,34.483,4.173,52.11-14.13,69.764-21.926,117.15H2893c-7.747-52.482-27.47-63.246-22.406-117.15" transform="translate(-2737.862 -2056.738)" fill="#fff"/><path d="M2804.833,2213.878l-23.283,23.69c2.717,3.057,6.406,9.4,5.545,11.383-3.741,8.619-7.64,16.287-7.709,22.495-.439,39.01,4.715,61.609,2.674,81.511-3.817,37.246-15.662,54.839-15.662,81.02h38.436Z" transform="translate(-2738.019 -2059.267)" fill="#05be50"/><path d="M2875.533,2433.977c0-28.785-12.3-46.428-16.132-81.02-2.22-20.019,3.376-47.449,2.922-81.511-.083-6.208-3.969-13.876-7.71-22.495-.863-1.988,2.827-8.327,5.545-11.384l-23.45-23.688v220.1Z" transform="translate(-2719.886 -2059.267)" fill="#05be50"/><path d="M2852.664,2230.111l-15.955-16.233v220.1l10.841.075,5.114-166.428-10.711-10.552Z" transform="translate(-2719.886 -2059.267)" fill="#05be50"/><path d="M2784.263,2230.111l15.955-16.233v220.1l-10.842.075-5.113-166.428,10.711-10.552Z" transform="translate(-2733.411 -2059.267)" fill="#05be50"/><path d="M2797.147,2587.654l3.731,13.384a4.675,4.675,0,0,0,4.5,3.419h14.107a4.675,4.675,0,0,0,4.675-4.674v-12.956a3.083,3.083,0,0,0-3.082-3.082h-20.964a3.082,3.082,0,0,0-2.969,3.91" transform="translate(-2730.119 -1963.884)" fill="#0033a1"/><path d="M2841.347,2587.462l2.8,13.284a4.675,4.675,0,0,0,4.573,3.708h15.454a4.674,4.674,0,0,0,4.663-4.348l.911-13.067a3.081,3.081,0,0,0-3.074-3.3h-22.316a3.082,3.082,0,0,0-3.015,3.718" transform="translate(-2718.708 -1963.884)" fill="#0033a1"/><path d="M2819.993,2099.717c-.465,8.49-22.432,6.074-20.4,11.038,16.717,40.926,49.235,16.7,58.332,64.492,0,7.48-4.135,27.017-7.4,32.774,0,0,9.383,18.567,15.977,24.83,0-31.245,5.955-54.2,5.337-91.061,0,0-11.3-51.753-51.846-42.073" transform="translate(-2729.493 -2089.019)" fill="#0033a1"/><path d="M2829.456,2102.568c.465,8.491-22.173,2.111-22.173,7.472,0,27.171-15.981,34.691-15.988,65.384.527,9.3,15.057,39.014,15.057,39.014-11.265,5.438-20.683,2.182-22.635-2.4a8.754,8.754,0,0,0,3.307-5.54c-11.182,4.585-17.38-9.933-17.38-9.933,7.684,1.316,17.05-1.806,7.666-55.486,0,0,11.6-48.187,52.147-38.507" transform="translate(-2737.182 -2088.303)" fill="#0033a1"/><path d="M2784.635,2145.592a8.348,8.348,0,1,0,8.349,8.347,8.349,8.349,0,0,0-8.349-8.347" transform="translate(-2735.468 -2076.877)" fill="#fabf66"/></g><g transform="translate(17 214.976)"><path d="M2714.667,2634.331s-21.937-119.278-20.832-163.532c.231-9.192,7.879-17.359,18.6-18.262s19.783,5.81,20.233,14.993a15.738,15.738,0,0,1-.075,2.33c-5.062,48.151-3.1,164.472-3.1,164.472Z" transform="translate(-2667.446 -2219.128)" fill="#fabf66"/><path d="M2745.615,2634.312s20.9-119.26,19.794-163.515c-.229-9.19-7.877-17.357-18.6-18.26s-19.783,5.81-20.233,14.993a15.777,15.777,0,0,0,.074,2.33c5.062,48.151,4.138,164.453,4.138,164.453Z" transform="translate(-2658.997 -2219.128)" fill="#fabf66"/><path d="M2756.818,2277.819c5.831-1.9,14.812-2.75,21.807,10.081,2.589,4.749,1.848,10.212,2.569,18.314.37,4.16,6.741,11.644,8.731,18.218,6.246,20.635-5,34.866-5.016,38.781-.018,3.838,3.566,4.841,5.094,0,3.566,7.205,1.461,11.387-1.941,13.048a16.63,16.63,0,0,0-7.418,8.221c-1.27,2.72-3.935,4.835-8.376,4.2-8.346-1.189-.016,7.674-8.612,12.223-19.152,10.139-17.237-17.871-33.738-11.2-7.171,2.9,7.333,6.695-1.2,12.584-6.1,4.214-18.428,4.436-19.775-3.417-1.293-7.541-10.478-2.205-15.534-8.224-4.969-5.917-.238-12.367-4-12.585-11.347-.655-10.585-10.4-8.716-14.141,1.839,1.131,10.966-.361,7.521-7.056-1.19-2.312-10.189-5.022-5.372-16.666,2.231-5.391,11.356-6.527,10.761-16.529-.95-15.994,63.211-45.848,63.211-45.848" transform="translate(-2671.106 -2264.445)" fill="#0033a1"/><path d="M2672.848,2292.312s14.583-10.048,20.005-10.132a9.818,9.818,0,0,1,.307,19.635c-5.421.085-20.312-9.5-20.312-9.5" transform="translate(-2672.848 -2263.039)" fill="#05be50"/><path d="M2678.018,2275.47s17.7.625,22.1,3.79a9.819,9.819,0,0,1-11.458,15.948c-4.4-3.163-10.644-19.737-10.644-19.737" transform="translate(-2671.515 -2264.77)" fill="#05be50"/><path d="M2699.561,2291.343s1.127-5.96-14.064-11.55c0,0,2.7,12.341,14.064,11.55" transform="translate(-2669.586 -2263.654)" fill="#2eba63"/><path d="M2729.918,2597.028h14.828c.617.376,8.938,3.723,13.838,7.077h-13.565s-5.45-.377-15.1-7.077" transform="translate(-2658.131 -2181.844)" fill="#fabf66"/><path d="M2729.956,2597.028h.01c9.65,6.7,15.1,7.077,15.1,7.077h13.565c2.918,2,5.419,1.75,6.1,3.126a4.158,4.158,0,0,1,.3.84,4.2,4.2,0,0,1-3.073,5.087,15.755,15.755,0,0,1-1.733.3c-.561.066-1.11.1-1.661.148-1.088.059-6.909.042-7.938-.026s-2.035.159-3.021,0-16.687-4.522-16.687-4.522c-1.531-1.467-1.19-5.018-1.116-7.3Z" transform="translate(-2658.18 -2181.844)" fill="#0033a1"/><path d="M2728.045,2597.043h-14.828c-.616.376-8.937,3.723-13.838,7.077h13.565s5.451-.377,15.1-7.077" transform="translate(-2666.006 -2181.841)" fill="#fabf66"/><path d="M2729.4,2597.043h-.01c-9.65,6.7-15.1,7.077-15.1,7.077H2700.72c-2.918,2-5.419,1.75-6.1,3.126a4.155,4.155,0,0,0-.3.841,4.2,4.2,0,0,0,3.073,5.086,15.451,15.451,0,0,0,1.734.3c.561.066,1.109.1,1.66.148,1.088.058,6.909.042,7.938-.027a30.05,30.05,0,0,0,3.021,0c.982-.168,16.687-4.522,16.687-4.522,1.531-1.467,1.19-5.017,1.115-7.3Z" transform="translate(-2667.345 -2181.841)" fill="#0033a1"/><path d="M2689.2,2310.548c.194-20.349,25.515-36.8,45.168-36.8,25,0,45.177,16.608,45.177,37.092v20.509c0,20.486-20.178,37.092-45.177,37.092-23.669,0-43.041-14.89-45.04-33.861Z" transform="translate(-2668.632 -2265.213)" fill="#0033a1"/><path d="M2736.376,2284.168c-8.364,21.428,25.235,32.664,13.164,46.8l15.211-4.988-7.595-33.473Z" transform="translate(-2656.814 -2262.526)" fill="#0033a1"/><path d="M2748.4,2372c-4.317-19.714,5.946-14.45,13.974-33.264l-30.934,2.826-30.44-3.953c6.053,15.428,18.086,14.564,14.622,34.448-1.191,6.833-12.472,14.17-12.472,14.17l29.849,43.761,26.721-43.793s-9.812-7.3-11.319-14.194" transform="translate(-2665.589 -2248.745)" fill="#fabf66"/><path d="M2767.449,2318.742c0-17.272-6.739-32.934-34.562-32.934-25.807,0-34.568,14.77-34.568,33.225,0,1.413-.237,14.473-.237,15.886,0,19.107,15.833,37.953,34.8,37.953,16.9,0,33.7-15.7,34.558-37.953Z" transform="translate(-2666.34 -2262.104)" fill="#fabf66"/><path d="M2750.518,2299.247c-11.49-3.3-7.776,1.543-17.142,6.8-3.427,1.923-10.438.4-13.711,2.439-19.386,12.1-7.73,24.686-18.334,26.222-2.485.359-10.493,4.828-13.048,3.48-3.139-1.654-9.427-14.1-2.295-25.69,5.8-9.423,8.129-10.729,10.54-25.728,1.769-11,18.117-15.3,26.752-18.228,21.389-7.252,35.033,11.726,27.238,30.7" transform="translate(-2670.303 -2266.963)" fill="#0033a1"/><path d="M2705.74,2323.567a8.109,8.109,0,0,0-8.086-8.234,8.427,8.427,0,0,0-8.457,8.234,8.669,8.669,0,0,0,7.688,8.218l8.327-.17s.527-7.392.527-8.048" transform="translate(-2668.632 -2254.489)" fill="#fabf66"/><path d="M2742.844,2308.711a11.939,11.939,0,0,0-5.507-1.4,9.5,9.5,0,0,0-5.4,1.532m.092,20.435c.128,2.4-1.258,5.133-5.754,5.133a6.432,6.432,0,0,1-3.758-1.108" transform="translate(-2660.04 -2256.557)" fill="none" stroke="#262e61" stroke-linecap="round" stroke-miterlimit="10" stroke-width="1.736"/><path d="M2720.884,2308.711a11.937,11.937,0,0,0-5.507-1.4,9.5,9.5,0,0,0-5.4,1.531" transform="translate(-2663.273 -2256.557)" fill="none" stroke="#262e61" stroke-linecap="round" stroke-miterlimit="10" stroke-width="1.62"/><path d="M2736.816,2322.725h0a2.632,2.632,0,0,1-2.624-2.624v-2.144a2.624,2.624,0,0,1,5.248,0v2.144a2.632,2.632,0,0,1-2.624,2.624" transform="translate(-2657.028 -2254.489)" fill="#001f5e"/><path d="M2714.856,2322.725h0a2.632,2.632,0,0,1-2.624-2.624v-2.144a2.624,2.624,0,0,1,5.248,0v2.144a2.631,2.631,0,0,1-2.624,2.624" transform="translate(-2662.691 -2254.489)" fill="#001f5e"/><g transform="translate(12.55 14.549)"><path d="M2735.893,2278.529s24.5,6.283,23.419,31.613l-2.1.646c-.119.549-4.566-22.073-22.125-26.891l.71-3.916" transform="translate(-2669.347 -2278.529)" fill="#05be50"/><path d="M2734.359,2284.049c-.215,11.988,5.431,28.163,13.1,37.314,6.092,7.271,10.371,6.853,10.371,6.853,3.216-3.439,5.815-10.311,4.759-14.9l-2.2-6.18a34.709,34.709,0,0,0-19.778-20.579Z" transform="translate(-2669.537 -2277.106)" fill="#0033a1"/><path d="M2715.638,2336.271c8.883,5.347,20.158,4.982,26.815-1.557" transform="translate(-2674.363 -2264.04)" fill="none" stroke="#212963" stroke-linecap="round" stroke-miterlimit="10" stroke-width="1.62"/><path d="M2717.2,2401.177l-.819.692-.448.377-.126.106-.064.056c-.014.011.005,0,.005,0a.392.392,0,0,0,.058-.044.354.354,0,0,0,.089-.133.348.348,0,0,0,.021-.088.145.145,0,0,0,0-.046l-.048.058a6.016,6.016,0,0,0-1.127,1.488,16.343,16.343,0,0,0-1.443,3.46,42.952,42.952,0,0,0-1.211,5.518c-.306,2.148-.558,4.518-.713,7.07-.14,2.56-.245,5.252-.25,8.064-.024,2.8.02,5.692.1,8.613.148,5.838.412,11.786.618,17.417s.362,10.941.4,15.525-.03,8.434-.125,11.136-.186,4.253-.186,4.253a6.908,6.908,0,0,1-13.786.156l0-.067s-.11-1.429-.342-3.929-.649-6.09-1.254-10.412-1.417-9.385-2.344-14.859-1.965-11.36-2.914-17.377c-.477-3.005-.922-6.049-1.321-9.1s-.72-6.106-.965-9.125-.341-6.056-.328-9.014a68.144,68.144,0,0,1,.664-8.766,42.562,42.562,0,0,1,2.024-8.2,33.226,33.226,0,0,1,3.3-6.772l.214-.347c.1-.138.2-.275.3-.41l.589-.786c.386-.5.761-.97,1.115-1.4l.519-.61c.1-.112.194-.219.286-.321l.391-.434.717-.8a13.277,13.277,0,1,1,18.486,18.985Z" transform="translate(-2681.319 -2252.943)" fill="#fabf66"/><path d="M2718.527,2401.339s-.3.248-.87.715l-.475.388a2.889,2.889,0,0,0-.278.243,2.205,2.205,0,0,1-.182.145l-.112.072-.062.037-.1.108c-.288.317-.624.618-.986,1.028-.352.45-.769.852-1.175,1.431-.414.557-.87,1.137-1.313,1.843-.468.664-.919,1.435-1.4,2.244a53.411,53.411,0,0,0-2.816,5.611,68.542,68.542,0,0,0-2.566,6.839c-.795,2.444-1.443,5.045-2.042,7.716-.537,2.679-1,5.436-1.282,8.214a77.473,77.473,0,0,0-.431,8.318,74.294,74.294,0,0,0,.427,8.041,66.3,66.3,0,0,0,1.248,7.391c.239,1.17.547,2.281.858,3.355.276,1.089.643,2.1.971,3.08.307.995.7,1.9,1.044,2.779l.515,1.281.55,1.173c.676,1.546,1.407,2.81,1.977,3.88s1.123,1.839,1.452,2.4l.523.848.278.45a6.887,6.887,0,0,1-11.2,7.975l-.794-.974c-.5-.646-1.311-1.548-2.208-2.79s-2.012-2.744-3.115-4.574q-.428-.679-.882-1.4-.417-.741-.856-1.524c-.579-1.049-1.213-2.147-1.762-3.338-.573-1.182-1.192-2.412-1.716-3.723-.561-1.3-1.122-2.656-1.61-4.074a83.373,83.373,0,0,1-2.727-9.034,92.274,92.274,0,0,1-1.794-9.892,96.888,96.888,0,0,1-.767-10.336c-.088-3.475.052-6.951.283-10.38.3-3.421.685-6.8,1.284-10.05a91.583,91.583,0,0,1,2.168-9.383,77.519,77.519,0,0,1,2.9-8.406c.546-1.3,1.079-2.552,1.677-3.743.551-1.189,1.181-2.322,1.77-3.386.567-1.062,1.254-2.067,1.819-2.988.6-.924,1.252-1.78,1.8-2.545l.212-.287.271-.328.523-.623.972-1.12c.712-.8.88-.962,1.162-1.268l.772-.821a13.274,13.274,0,1,1,19.344,18.184,13.492,13.492,0,0,1-1.2,1.126Z" transform="translate(-2682.825 -2252.935)" fill="#fabf66"/><path d="M2758.473,2381.958l.771.821c.282.305.452.463,1.163,1.268l.971,1.119c.17.2.344.41.525.624l.269.327.212.287c.548.765,1.195,1.62,1.8,2.544.565.921,1.251,1.927,1.817,2.989.59,1.063,1.221,2.2,1.77,3.385.6,1.191,1.132,2.442,1.678,3.743a77.679,77.679,0,0,1,2.9,8.406,91.35,91.35,0,0,1,2.17,9.383c.6,3.255.988,6.629,1.284,10.051.23,3.428.37,6.9.282,10.379a96.952,96.952,0,0,1-.766,10.336,92.317,92.317,0,0,1-1.795,9.893,83.321,83.321,0,0,1-2.726,9.032c-.49,1.419-1.05,2.774-1.612,4.076-.523,1.311-1.144,2.54-1.716,3.722-.548,1.191-1.183,2.29-1.761,3.338l-.856,1.524-.882,1.4c-1.1,1.829-2.225,3.327-3.116,4.572s-1.7,2.145-2.208,2.79l-.793.974a6.888,6.888,0,0,1-11.2-7.974l.279-.451s.184-.294.524-.848.876-1.336,1.45-2.4,1.3-2.334,1.978-3.879q.268-.57.551-1.175.251-.623.515-1.281c.347-.878.737-1.784,1.045-2.779.327-.983.7-1.991.971-3.08.311-1.073.618-2.183.858-3.355a66.609,66.609,0,0,0,1.248-7.39,74.074,74.074,0,0,0,.427-8.042,77.367,77.367,0,0,0-.43-8.319c-.278-2.778-.745-5.535-1.283-8.214-.6-2.671-1.246-5.272-2.041-7.716a68.661,68.661,0,0,0-2.567-6.839,52.691,52.691,0,0,0-2.816-5.611c-.478-.809-.931-1.579-1.4-2.243-.443-.707-.9-1.286-1.313-1.843-.408-.578-.824-.982-1.175-1.431-.362-.412-.7-.712-.987-1.03l-.1-.108-.063-.037-.111-.073a1.82,1.82,0,0,1-.182-.145,3.092,3.092,0,0,0-.278-.241l-.476-.39c-.568-.465-.87-.715-.87-.715l-.031-.024a13.275,13.275,0,1,1,16.832-20.531,14.366,14.366,0,0,1,1.257,1.173" transform="translate(-2669.234 -2252.936)" fill="#fabf66"/><path d="M2768.931,2382.847s-6.337-5.023-12.685-11.026c-1.473,1.443-23.028,6.752-23.028,6.752s-21.847-5.289-23.389-6.743c-6.329,5.972-13,11.269-13,11.269s4.288,46.958,1.586,58.676h69.366c-2.474-19.528,1.152-58.927,1.152-58.927" transform="translate(-2679.215 -2254.471)" fill="#3bc773"/></g><path d="M2748.473,2368.2l-17.964,5.482-18.249-5.507-4.833,6.439,23.032,6.667,23-6.667Z" transform="translate(-2663.93 -2240.862)" fill="#fabf66"/><path d="M2769.124,2427.431h-69.366c.2,6.114-15.616,121.248-3.752,121.248h79.364c11.863,0-6.39-115.134-6.245-121.248" transform="translate(-2668.015 -2225.581)" fill="#ea0944"/><path d="M2701.561,2380.245s-15.679,10.646-19.541,24.487a7.764,7.764,0,0,0,3.534,8.659l18.432,11.18Z" transform="translate(-2670.554 -2237.749)" fill="#3bc773"/><path d="M2754.115,2380.245s15.68,10.646,19.54,24.487a7.762,7.762,0,0,1-3.533,8.659l-18.43,11.18Z" transform="translate(-2652.516 -2237.749)" fill="#38c770"/><path d="M2787.581,2415.892a8.6,8.6,0,0,0,3.79-9.934c-3.75-11.706-15.674-20.945-18.6-23.07,0-.011,0-.043,0-.043s-6.337-5.021-12.685-11.026c-1.473,1.444-23.028,6.752-23.028,6.752s-21.847-5.288-23.389-6.742c-4.991,4.708-10.181,8.986-12.158,10.59-.044.029-14.962,10.174-19.249,23.523a8.6,8.6,0,0,0,3.786,9.949l17.088,10.366c.066,6.655-.156,12.361-.883,15.515h69.366a139.589,139.589,0,0,1-.854-15.686Z" transform="translate(-2670.522 -2239.922)" fill="#ea0944"/><path d="M2708.094,2376.224l-1.784-2.454,6.235-5.592,18.25,5.507-4.757,4.352a12.092,12.092,0,0,1-17.944-1.812" transform="translate(-2664.219 -2240.862)" fill="#fff"/><path d="M2748.284,2375.616l1.384-2.023-5.935-5.4-17.964,5.481,4.333,4a12.091,12.091,0,0,0,18.181-2.061" transform="translate(-2659.2 -2240.857)" fill="#fff"/><path d="M2748.728,2323.567a8.109,8.109,0,0,1,8.086-8.234,8.427,8.427,0,0,1,8.457,8.234,8.669,8.669,0,0,1-7.688,8.218l-8.327-.17s-.527-7.392-.527-8.048" transform="translate(-2653.28 -2254.489)" fill="#fabf66"/></g></g></g></g></g></svg>