<svg xmlns="http://www.w3.org/2000/svg" width="41.989" height="35.365" viewBox="0 0 41.989 35.365"><defs><style>.a{fill:#fff;}</style></defs><g transform="translate(-2573.214 -991.425)"><g transform="translate(2573.214 991.425)"><path class="a" d="M2573.216,1026.79v-10.51l.518-.112c2.3-.495,3.418-1.8,3.419-3.978a2.579,2.579,0,0,0-.892-2.073,2.847,2.847,0,0,0-2.265-.578l-.78.151,0-7.161a3.93,3.93,0,0,1,2.946-3.8l39.036-7.3v.789s.007,7.116,0,8.68v.5l-.486.129c-1.7.452-3.444,1.279-3.444,3.986a2.638,2.638,0,0,0,.971,2.206,2.534,2.534,0,0,0,2.141.453l.819-.21,0,7.987a3.6,3.6,0,0,1-2.933,3.531Zm1.311-9.467v7.887l37.5-7.02a2.285,2.285,0,0,0,1.863-2.242l0-6.391a3.825,3.825,0,0,1-2.453-.8,3.981,3.981,0,0,1-1.479-3.242,5.036,5.036,0,0,1,3.933-5.118c0-1.705,0-5.692,0-7.39l-37.441,7a2.608,2.608,0,0,0-1.919,2.522v5.654a4.162,4.162,0,0,1,2.569.923,3.831,3.831,0,0,1,1.368,3.086A4.945,4.945,0,0,1,2574.526,1017.323Z" transform="translate(-2573.214 -991.425)"/><path class="a" d="M2618.4,1036.7a9.184,9.184,0,1,1,9.184-9.184A9.194,9.194,0,0,1,2618.4,1036.7Zm0-17.056a7.872,7.872,0,1,0,7.872,7.872A7.881,7.881,0,0,0,2618.4,1019.642Z" transform="translate(-2597.407 -1009.505)"/><path class="a" d="M2626.9,1040.664a3.971,3.971,0,0,0-1.412-.593c-.076-.016-.22-.044-.429-.084s-.348-.068-.412-.085l-.281-.07c-.171-.055-.262-.138-.271-.253q-.034-.393.752-.461a3.7,3.7,0,0,1,1.075.08,4.261,4.261,0,0,1,1.019.325l.013-1.478a4.994,4.994,0,0,0-2.244-.318,2.831,2.831,0,0,0-1.682.618,1.565,1.565,0,0,0-.514,1.379,1.879,1.879,0,0,0,.289.862,2.289,2.289,0,0,0,.628.5,2.163,2.163,0,0,0,.41.154l.406.12.447.091.552.116a1.835,1.835,0,0,1,.4.121.447.447,0,0,1,.261.33q.04.47-.874.549a3.527,3.527,0,0,1-1.251-.133,2.422,2.422,0,0,1-.952-.407v1.493a4.041,4.041,0,0,0,2.382.435,2.813,2.813,0,0,0,1.716-.673,1.694,1.694,0,0,0,.563-1.461A1.5,1.5,0,0,0,2626.9,1040.664Z" transform="translate(-2606.337 -1022.528)"/><path class="a" d="M2638.7,1041l1.526-.281,2.814-7.976h-1.384Z" transform="translate(-2617.219 -1019.193)"/></g></g></svg>